<?xml version="1.0" encoding="utf-8" standalone="no"?>
<!DOCTYPE svg PUBLIC "-//W3C//DTD SVG 1.1//EN"
  "http://www.w3.org/Graphics/SVG/1.1/DTD/svg11.dtd">
<svg xmlns:xlink="http://www.w3.org/1999/xlink" width="864pt" height="432pt" viewBox="0 0 864 432" xmlns="http://www.w3.org/2000/svg" version="1.1">
 <metadata>
  <rdf:RDF xmlns:dc="http://purl.org/dc/elements/1.1/" xmlns:cc="http://creativecommons.org/ns#" xmlns:rdf="http://www.w3.org/1999/02/22-rdf-syntax-ns#">
   <cc:Work>
    <dc:type rdf:resource="http://purl.org/dc/dcmitype/StillImage"/>
    <dc:date>2025-03-26T13:38:56.819903</dc:date>
    <dc:format>image/svg+xml</dc:format>
    <dc:creator>
     <cc:Agent>
      <dc:title>Matplotlib v3.8.0, https://matplotlib.org/</dc:title>
     </cc:Agent>
    </dc:creator>
   </cc:Work>
  </rdf:RDF>
 </metadata>
 <defs>
  <style type="text/css">*{stroke-linejoin: round; stroke-linecap: butt}</style>
 </defs>
 <g id="figure_1">
  <g id="patch_1">
   <path d="M 0 432 
L 864 432 
L 864 0 
L 0 0 
z
" style="fill: #ffffff"/>
  </g>
  <g id="axes_1">
   <g id="patch_2">
    <path d="M 54.92 389.32 
L 429.795 389.32 
L 429.795 14.76 
L 54.92 14.76 
z
" style="fill: #ffffff"/>
   </g>
   <g id="patch_3">
    <path d="M 74.005553 389.32 
L 74.005553 14.76 
L 149.448531 14.76 
L 149.448531 389.32 
z
" clip-path="url(#pd7f278c08c)" style="fill: #ff0000; opacity: 0.1; stroke: #ff0000; stroke-linejoin: miter"/>
   </g>
   <g id="patch_4">
    <path d="M 149.448531 389.32 
L 149.448531 14.76 
L 412.755227 14.76 
L 412.755227 389.32 
z
" clip-path="url(#pd7f278c08c)" style="fill: #008000; opacity: 0.1; stroke: #008000; stroke-linejoin: miter"/>
   </g>
   <g id="patch_5">
    <path d="M 78.547671 389.32 
L 90.674279 389.32 
L 90.674279 375.879054 
L 78.547671 375.879054 
z
" clip-path="url(#pd7f278c08c)" style="fill: #808080; fill-opacity: 0.4; stroke: #000000; stroke-linejoin: miter"/>
   </g>
   <g id="patch_6">
    <path d="M 90.674279 389.32 
L 102.800887 389.32 
L 102.800887 389.32 
L 90.674279 389.32 
z
" clip-path="url(#pd7f278c08c)" style="fill: #808080; fill-opacity: 0.4; stroke: #000000; stroke-linejoin: miter"/>
   </g>
   <g id="patch_7">
    <path d="M 102.800887 389.32 
L 114.927494 389.32 
L 114.927494 375.879054 
L 102.800887 375.879054 
z
" clip-path="url(#pd7f278c08c)" style="fill: #808080; fill-opacity: 0.4; stroke: #000000; stroke-linejoin: miter"/>
   </g>
   <g id="patch_8">
    <path d="M 114.927494 389.32 
L 127.054102 389.32 
L 127.054102 362.438109 
L 114.927494 362.438109 
z
" clip-path="url(#pd7f278c08c)" style="fill: #808080; fill-opacity: 0.4; stroke: #000000; stroke-linejoin: miter"/>
   </g>
   <g id="patch_9">
    <path d="M 127.054102 389.32 
L 139.180709 389.32 
L 139.180709 362.438109 
L 127.054102 362.438109 
z
" clip-path="url(#pd7f278c08c)" style="fill: #808080; fill-opacity: 0.4; stroke: #000000; stroke-linejoin: miter"/>
   </g>
   <g id="patch_10">
    <path d="M 139.180709 389.32 
L 151.307317 389.32 
L 151.307317 362.438109 
L 139.180709 362.438109 
z
" clip-path="url(#pd7f278c08c)" style="fill: #808080; fill-opacity: 0.4; stroke: #000000; stroke-linejoin: miter"/>
   </g>
   <g id="patch_11">
    <path d="M 151.307317 389.32 
L 163.433924 389.32 
L 163.433924 362.438109 
L 151.307317 362.438109 
z
" clip-path="url(#pd7f278c08c)" style="fill: #808080; fill-opacity: 0.4; stroke: #000000; stroke-linejoin: miter"/>
   </g>
   <g id="patch_12">
    <path d="M 163.433924 389.32 
L 175.560532 389.32 
L 175.560532 348.997163 
L 163.433924 348.997163 
z
" clip-path="url(#pd7f278c08c)" style="fill: #808080; fill-opacity: 0.4; stroke: #000000; stroke-linejoin: miter"/>
   </g>
   <g id="patch_13">
    <path d="M 175.560532 389.32 
L 187.687139 389.32 
L 187.687139 375.879054 
L 175.560532 375.879054 
z
" clip-path="url(#pd7f278c08c)" style="fill: #808080; fill-opacity: 0.4; stroke: #000000; stroke-linejoin: miter"/>
   </g>
   <g id="patch_14">
    <path d="M 187.687139 389.32 
L 199.813747 389.32 
L 199.813747 348.997163 
L 187.687139 348.997163 
z
" clip-path="url(#pd7f278c08c)" style="fill: #808080; fill-opacity: 0.4; stroke: #000000; stroke-linejoin: miter"/>
   </g>
   <g id="patch_15">
    <path d="M 199.813747 389.32 
L 211.940355 389.32 
L 211.940355 362.438109 
L 199.813747 362.438109 
z
" clip-path="url(#pd7f278c08c)" style="fill: #808080; fill-opacity: 0.4; stroke: #000000; stroke-linejoin: miter"/>
   </g>
   <g id="patch_16">
    <path d="M 211.940355 389.32 
L 224.066962 389.32 
L 224.066962 375.879054 
L 211.940355 375.879054 
z
" clip-path="url(#pd7f278c08c)" style="fill: #808080; fill-opacity: 0.4; stroke: #000000; stroke-linejoin: miter"/>
   </g>
   <g id="patch_17">
    <path d="M 224.066962 389.32 
L 236.19357 389.32 
L 236.19357 348.997163 
L 224.066962 348.997163 
z
" clip-path="url(#pd7f278c08c)" style="fill: #808080; fill-opacity: 0.4; stroke: #000000; stroke-linejoin: miter"/>
   </g>
   <g id="patch_18">
    <path d="M 236.19357 389.32 
L 248.320177 389.32 
L 248.320177 322.115271 
L 236.19357 322.115271 
z
" clip-path="url(#pd7f278c08c)" style="fill: #808080; fill-opacity: 0.4; stroke: #000000; stroke-linejoin: miter"/>
   </g>
   <g id="patch_19">
    <path d="M 248.320177 389.32 
L 260.446785 389.32 
L 260.446785 295.23338 
L 248.320177 295.23338 
z
" clip-path="url(#pd7f278c08c)" style="fill: #808080; fill-opacity: 0.4; stroke: #000000; stroke-linejoin: miter"/>
   </g>
   <g id="patch_20">
    <path d="M 260.446785 389.32 
L 272.573392 389.32 
L 272.573392 348.997163 
L 260.446785 348.997163 
z
" clip-path="url(#pd7f278c08c)" style="fill: #808080; fill-opacity: 0.4; stroke: #000000; stroke-linejoin: miter"/>
   </g>
   <g id="patch_21">
    <path d="M 272.573392 389.32 
L 284.7 389.32 
L 284.7 295.23338 
L 272.573392 295.23338 
z
" clip-path="url(#pd7f278c08c)" style="fill: #808080; fill-opacity: 0.4; stroke: #000000; stroke-linejoin: miter"/>
   </g>
   <g id="patch_22">
    <path d="M 284.7 389.32 
L 296.826607 389.32 
L 296.826607 281.792434 
L 284.7 281.792434 
z
" clip-path="url(#pd7f278c08c)" style="fill: #808080; fill-opacity: 0.4; stroke: #000000; stroke-linejoin: miter"/>
   </g>
   <g id="patch_23">
    <path d="M 296.826607 389.32 
L 308.953215 389.32 
L 308.953215 348.997163 
L 296.826607 348.997163 
z
" clip-path="url(#pd7f278c08c)" style="fill: #808080; fill-opacity: 0.4; stroke: #000000; stroke-linejoin: miter"/>
   </g>
   <g id="patch_24">
    <path d="M 308.953215 389.32 
L 321.079823 389.32 
L 321.079823 268.351489 
L 308.953215 268.351489 
z
" clip-path="url(#pd7f278c08c)" style="fill: #808080; fill-opacity: 0.4; stroke: #000000; stroke-linejoin: miter"/>
   </g>
   <g id="patch_25">
    <path d="M 321.079823 389.32 
L 333.20643 389.32 
L 333.20643 241.469597 
L 321.079823 241.469597 
z
" clip-path="url(#pd7f278c08c)" style="fill: #808080; fill-opacity: 0.4; stroke: #000000; stroke-linejoin: miter"/>
   </g>
   <g id="patch_26">
    <path d="M 333.20643 389.32 
L 345.333038 389.32 
L 345.333038 335.556217 
L 333.20643 335.556217 
z
" clip-path="url(#pd7f278c08c)" style="fill: #808080; fill-opacity: 0.4; stroke: #000000; stroke-linejoin: miter"/>
   </g>
   <g id="patch_27">
    <path d="M 345.333038 389.32 
L 357.459645 389.32 
L 357.459645 322.115271 
L 345.333038 322.115271 
z
" clip-path="url(#pd7f278c08c)" style="fill: #808080; fill-opacity: 0.4; stroke: #000000; stroke-linejoin: miter"/>
   </g>
   <g id="patch_28">
    <path d="M 357.459645 389.32 
L 369.586253 389.32 
L 369.586253 281.792434 
L 357.459645 281.792434 
z
" clip-path="url(#pd7f278c08c)" style="fill: #808080; fill-opacity: 0.4; stroke: #000000; stroke-linejoin: miter"/>
   </g>
   <g id="patch_29">
    <path d="M 369.586253 389.32 
L 381.71286 389.32 
L 381.71286 295.23338 
L 369.586253 295.23338 
z
" clip-path="url(#pd7f278c08c)" style="fill: #808080; fill-opacity: 0.4; stroke: #000000; stroke-linejoin: miter"/>
   </g>
   <g id="patch_30">
    <path d="M 88.371403 389.32 
L 101.165071 389.32 
L 101.165071 376.579864 
L 88.371403 376.579864 
z
" clip-path="url(#pd7f278c08c)" style="fill: #ffa500; fill-opacity: 0.6; stroke: #000000; stroke-linejoin: miter"/>
   </g>
   <g id="patch_31">
    <path d="M 101.165071 389.32 
L 113.95874 389.32 
L 113.95874 389.32 
L 101.165071 389.32 
z
" clip-path="url(#pd7f278c08c)" style="fill: #ffa500; fill-opacity: 0.6; stroke: #000000; stroke-linejoin: miter"/>
   </g>
   <g id="patch_32">
    <path d="M 113.95874 389.32 
L 126.752408 389.32 
L 126.752408 389.32 
L 113.95874 389.32 
z
" clip-path="url(#pd7f278c08c)" style="fill: #ffa500; fill-opacity: 0.6; stroke: #000000; stroke-linejoin: miter"/>
   </g>
   <g id="patch_33">
    <path d="M 126.752408 389.32 
L 139.546076 389.32 
L 139.546076 389.32 
L 126.752408 389.32 
z
" clip-path="url(#pd7f278c08c)" style="fill: #ffa500; fill-opacity: 0.6; stroke: #000000; stroke-linejoin: miter"/>
   </g>
   <g id="patch_34">
    <path d="M 139.546076 389.32 
L 152.339744 389.32 
L 152.339744 389.32 
L 139.546076 389.32 
z
" clip-path="url(#pd7f278c08c)" style="fill: #ffa500; fill-opacity: 0.6; stroke: #000000; stroke-linejoin: miter"/>
   </g>
   <g id="patch_35">
    <path d="M 152.339744 389.32 
L 165.133412 389.32 
L 165.133412 389.32 
L 152.339744 389.32 
z
" clip-path="url(#pd7f278c08c)" style="fill: #ffa500; fill-opacity: 0.6; stroke: #000000; stroke-linejoin: miter"/>
   </g>
   <g id="patch_36">
    <path d="M 165.133412 389.32 
L 177.927081 389.32 
L 177.927081 389.32 
L 165.133412 389.32 
z
" clip-path="url(#pd7f278c08c)" style="fill: #ffa500; fill-opacity: 0.6; stroke: #000000; stroke-linejoin: miter"/>
   </g>
   <g id="patch_37">
    <path d="M 177.927081 389.32 
L 190.720749 389.32 
L 190.720749 376.579864 
L 177.927081 376.579864 
z
" clip-path="url(#pd7f278c08c)" style="fill: #ffa500; fill-opacity: 0.6; stroke: #000000; stroke-linejoin: miter"/>
   </g>
   <g id="patch_38">
    <path d="M 190.720749 389.32 
L 203.514417 389.32 
L 203.514417 389.32 
L 190.720749 389.32 
z
" clip-path="url(#pd7f278c08c)" style="fill: #ffa500; fill-opacity: 0.6; stroke: #000000; stroke-linejoin: miter"/>
   </g>
   <g id="patch_39">
    <path d="M 203.514417 389.32 
L 216.308085 389.32 
L 216.308085 389.32 
L 203.514417 389.32 
z
" clip-path="url(#pd7f278c08c)" style="fill: #ffa500; fill-opacity: 0.6; stroke: #000000; stroke-linejoin: miter"/>
   </g>
   <g id="patch_40">
    <path d="M 216.308085 389.32 
L 229.101753 389.32 
L 229.101753 376.579864 
L 216.308085 376.579864 
z
" clip-path="url(#pd7f278c08c)" style="fill: #ffa500; fill-opacity: 0.6; stroke: #000000; stroke-linejoin: miter"/>
   </g>
   <g id="patch_41">
    <path d="M 229.101753 389.32 
L 241.895422 389.32 
L 241.895422 376.579864 
L 229.101753 376.579864 
z
" clip-path="url(#pd7f278c08c)" style="fill: #ffa500; fill-opacity: 0.6; stroke: #000000; stroke-linejoin: miter"/>
   </g>
   <g id="patch_42">
    <path d="M 241.895422 389.32 
L 254.68909 389.32 
L 254.68909 389.32 
L 241.895422 389.32 
z
" clip-path="url(#pd7f278c08c)" style="fill: #ffa500; fill-opacity: 0.6; stroke: #000000; stroke-linejoin: miter"/>
   </g>
   <g id="patch_43">
    <path d="M 254.68909 389.32 
L 267.482758 389.32 
L 267.482758 389.32 
L 254.68909 389.32 
z
" clip-path="url(#pd7f278c08c)" style="fill: #ffa500; fill-opacity: 0.6; stroke: #000000; stroke-linejoin: miter"/>
   </g>
   <g id="patch_44">
    <path d="M 267.482758 389.32 
L 280.276426 389.32 
L 280.276426 376.579864 
L 267.482758 376.579864 
z
" clip-path="url(#pd7f278c08c)" style="fill: #ffa500; fill-opacity: 0.6; stroke: #000000; stroke-linejoin: miter"/>
   </g>
   <g id="patch_45">
    <path d="M 280.276426 389.32 
L 293.070095 389.32 
L 293.070095 363.839728 
L 280.276426 363.839728 
z
" clip-path="url(#pd7f278c08c)" style="fill: #ffa500; fill-opacity: 0.6; stroke: #000000; stroke-linejoin: miter"/>
   </g>
   <g id="patch_46">
    <path d="M 293.070095 389.32 
L 305.863763 389.32 
L 305.863763 363.839728 
L 293.070095 363.839728 
z
" clip-path="url(#pd7f278c08c)" style="fill: #ffa500; fill-opacity: 0.6; stroke: #000000; stroke-linejoin: miter"/>
   </g>
   <g id="patch_47">
    <path d="M 305.863763 389.32 
L 318.657431 389.32 
L 318.657431 363.839728 
L 305.863763 363.839728 
z
" clip-path="url(#pd7f278c08c)" style="fill: #ffa500; fill-opacity: 0.6; stroke: #000000; stroke-linejoin: miter"/>
   </g>
   <g id="patch_48">
    <path d="M 318.657431 389.32 
L 331.451099 389.32 
L 331.451099 325.61932 
L 318.657431 325.61932 
z
" clip-path="url(#pd7f278c08c)" style="fill: #ffa500; fill-opacity: 0.6; stroke: #000000; stroke-linejoin: miter"/>
   </g>
   <g id="patch_49">
    <path d="M 331.451099 389.32 
L 344.244767 389.32 
L 344.244767 312.879184 
L 331.451099 312.879184 
z
" clip-path="url(#pd7f278c08c)" style="fill: #ffa500; fill-opacity: 0.6; stroke: #000000; stroke-linejoin: miter"/>
   </g>
   <g id="patch_50">
    <path d="M 344.244767 389.32 
L 357.038436 389.32 
L 357.038436 325.61932 
L 344.244767 325.61932 
z
" clip-path="url(#pd7f278c08c)" style="fill: #ffa500; fill-opacity: 0.6; stroke: #000000; stroke-linejoin: miter"/>
   </g>
   <g id="patch_51">
    <path d="M 357.038436 389.32 
L 369.832104 389.32 
L 369.832104 261.918639 
L 357.038436 261.918639 
z
" clip-path="url(#pd7f278c08c)" style="fill: #ffa500; fill-opacity: 0.6; stroke: #000000; stroke-linejoin: miter"/>
   </g>
   <g id="patch_52">
    <path d="M 369.832104 389.32 
L 382.625772 389.32 
L 382.625772 121.777143 
L 369.832104 121.777143 
z
" clip-path="url(#pd7f278c08c)" style="fill: #ffa500; fill-opacity: 0.6; stroke: #000000; stroke-linejoin: miter"/>
   </g>
   <g id="patch_53">
    <path d="M 382.625772 389.32 
L 395.41944 389.32 
L 395.41944 32.59619 
L 382.625772 32.59619 
z
" clip-path="url(#pd7f278c08c)" style="fill: #ffa500; fill-opacity: 0.6; stroke: #000000; stroke-linejoin: miter"/>
   </g>
   <g id="patch_54">
    <path d="M 395.41944 389.32 
L 408.213109 389.32 
L 408.213109 210.958095 
L 395.41944 210.958095 
z
" clip-path="url(#pd7f278c08c)" style="fill: #ffa500; fill-opacity: 0.6; stroke: #000000; stroke-linejoin: miter"/>
   </g>
   <g id="patch_55">
    <path d="M 71.959773 389.32 
L 85.054889 389.32 
L 85.054889 376.873141 
L 71.959773 376.873141 
z
" clip-path="url(#pd7f278c08c)" style="fill: #0000ff; fill-opacity: 0.6; stroke: #000000; stroke-linejoin: miter"/>
   </g>
   <g id="patch_56">
    <path d="M 85.054889 389.32 
L 98.150006 389.32 
L 98.150006 389.32 
L 85.054889 389.32 
z
" clip-path="url(#pd7f278c08c)" style="fill: #0000ff; fill-opacity: 0.6; stroke: #000000; stroke-linejoin: miter"/>
   </g>
   <g id="patch_57">
    <path d="M 98.150006 389.32 
L 111.245123 389.32 
L 111.245123 389.32 
L 98.150006 389.32 
z
" clip-path="url(#pd7f278c08c)" style="fill: #0000ff; fill-opacity: 0.6; stroke: #000000; stroke-linejoin: miter"/>
   </g>
   <g id="patch_58">
    <path d="M 111.245123 389.32 
L 124.340239 389.32 
L 124.340239 376.873141 
L 111.245123 376.873141 
z
" clip-path="url(#pd7f278c08c)" style="fill: #0000ff; fill-opacity: 0.6; stroke: #000000; stroke-linejoin: miter"/>
   </g>
   <g id="patch_59">
    <path d="M 124.340239 389.32 
L 137.435356 389.32 
L 137.435356 389.32 
L 124.340239 389.32 
z
" clip-path="url(#pd7f278c08c)" style="fill: #0000ff; fill-opacity: 0.6; stroke: #000000; stroke-linejoin: miter"/>
   </g>
   <g id="patch_60">
    <path d="M 137.435356 389.32 
L 150.530473 389.32 
L 150.530473 389.32 
L 137.435356 389.32 
z
" clip-path="url(#pd7f278c08c)" style="fill: #0000ff; fill-opacity: 0.6; stroke: #000000; stroke-linejoin: miter"/>
   </g>
   <g id="patch_61">
    <path d="M 150.530473 389.32 
L 163.625589 389.32 
L 163.625589 351.979422 
L 150.530473 351.979422 
z
" clip-path="url(#pd7f278c08c)" style="fill: #0000ff; fill-opacity: 0.6; stroke: #000000; stroke-linejoin: miter"/>
   </g>
   <g id="patch_62">
    <path d="M 163.625589 389.32 
L 176.720706 389.32 
L 176.720706 389.32 
L 163.625589 389.32 
z
" clip-path="url(#pd7f278c08c)" style="fill: #0000ff; fill-opacity: 0.6; stroke: #000000; stroke-linejoin: miter"/>
   </g>
   <g id="patch_63">
    <path d="M 176.720706 389.32 
L 189.815823 389.32 
L 189.815823 389.32 
L 176.720706 389.32 
z
" clip-path="url(#pd7f278c08c)" style="fill: #0000ff; fill-opacity: 0.6; stroke: #000000; stroke-linejoin: miter"/>
   </g>
   <g id="patch_64">
    <path d="M 189.815823 389.32 
L 202.910939 389.32 
L 202.910939 376.873141 
L 189.815823 376.873141 
z
" clip-path="url(#pd7f278c08c)" style="fill: #0000ff; fill-opacity: 0.6; stroke: #000000; stroke-linejoin: miter"/>
   </g>
   <g id="patch_65">
    <path d="M 202.910939 389.32 
L 216.006056 389.32 
L 216.006056 376.873141 
L 202.910939 376.873141 
z
" clip-path="url(#pd7f278c08c)" style="fill: #0000ff; fill-opacity: 0.6; stroke: #000000; stroke-linejoin: miter"/>
   </g>
   <g id="patch_66">
    <path d="M 216.006056 389.32 
L 229.101173 389.32 
L 229.101173 389.32 
L 216.006056 389.32 
z
" clip-path="url(#pd7f278c08c)" style="fill: #0000ff; fill-opacity: 0.6; stroke: #000000; stroke-linejoin: miter"/>
   </g>
   <g id="patch_67">
    <path d="M 229.101173 389.32 
L 242.196289 389.32 
L 242.196289 351.979422 
L 229.101173 351.979422 
z
" clip-path="url(#pd7f278c08c)" style="fill: #0000ff; fill-opacity: 0.6; stroke: #000000; stroke-linejoin: miter"/>
   </g>
   <g id="patch_68">
    <path d="M 242.196289 389.32 
L 255.291406 389.32 
L 255.291406 376.873141 
L 242.196289 376.873141 
z
" clip-path="url(#pd7f278c08c)" style="fill: #0000ff; fill-opacity: 0.6; stroke: #000000; stroke-linejoin: miter"/>
   </g>
   <g id="patch_69">
    <path d="M 255.291406 389.32 
L 268.386523 389.32 
L 268.386523 339.532563 
L 255.291406 339.532563 
z
" clip-path="url(#pd7f278c08c)" style="fill: #0000ff; fill-opacity: 0.6; stroke: #000000; stroke-linejoin: miter"/>
   </g>
   <g id="patch_70">
    <path d="M 268.386523 389.32 
L 281.481639 389.32 
L 281.481639 376.873141 
L 268.386523 376.873141 
z
" clip-path="url(#pd7f278c08c)" style="fill: #0000ff; fill-opacity: 0.6; stroke: #000000; stroke-linejoin: miter"/>
   </g>
   <g id="patch_71">
    <path d="M 281.481639 389.32 
L 294.576756 389.32 
L 294.576756 376.873141 
L 281.481639 376.873141 
z
" clip-path="url(#pd7f278c08c)" style="fill: #0000ff; fill-opacity: 0.6; stroke: #000000; stroke-linejoin: miter"/>
   </g>
   <g id="patch_72">
    <path d="M 294.576756 389.32 
L 307.671873 389.32 
L 307.671873 339.532563 
L 294.576756 339.532563 
z
" clip-path="url(#pd7f278c08c)" style="fill: #0000ff; fill-opacity: 0.6; stroke: #000000; stroke-linejoin: miter"/>
   </g>
   <g id="patch_73">
    <path d="M 307.671873 389.32 
L 320.766989 389.32 
L 320.766989 327.085704 
L 307.671873 327.085704 
z
" clip-path="url(#pd7f278c08c)" style="fill: #0000ff; fill-opacity: 0.6; stroke: #000000; stroke-linejoin: miter"/>
   </g>
   <g id="patch_74">
    <path d="M 320.766989 389.32 
L 333.862106 389.32 
L 333.862106 339.532563 
L 320.766989 339.532563 
z
" clip-path="url(#pd7f278c08c)" style="fill: #0000ff; fill-opacity: 0.6; stroke: #000000; stroke-linejoin: miter"/>
   </g>
   <g id="patch_75">
    <path d="M 333.862106 389.32 
L 346.957223 389.32 
L 346.957223 252.404548 
L 333.862106 252.404548 
z
" clip-path="url(#pd7f278c08c)" style="fill: #0000ff; fill-opacity: 0.6; stroke: #000000; stroke-linejoin: miter"/>
   </g>
   <g id="patch_76">
    <path d="M 346.957223 389.32 
L 360.052339 389.32 
L 360.052339 289.745126 
L 346.957223 289.745126 
z
" clip-path="url(#pd7f278c08c)" style="fill: #0000ff; fill-opacity: 0.6; stroke: #000000; stroke-linejoin: miter"/>
   </g>
   <g id="patch_77">
    <path d="M 360.052339 389.32 
L 373.147456 389.32 
L 373.147456 165.276534 
L 360.052339 165.276534 
z
" clip-path="url(#pd7f278c08c)" style="fill: #0000ff; fill-opacity: 0.6; stroke: #000000; stroke-linejoin: miter"/>
   </g>
   <g id="patch_78">
    <path d="M 373.147456 389.32 
L 386.242573 389.32 
L 386.242573 115.489097 
L 373.147456 115.489097 
z
" clip-path="url(#pd7f278c08c)" style="fill: #0000ff; fill-opacity: 0.6; stroke: #000000; stroke-linejoin: miter"/>
   </g>
   <g id="patch_79">
    <path d="M 386.242573 389.32 
L 399.337689 389.32 
L 399.337689 252.404548 
L 386.242573 252.404548 
z
" clip-path="url(#pd7f278c08c)" style="fill: #0000ff; fill-opacity: 0.6; stroke: #000000; stroke-linejoin: miter"/>
   </g>
   <g id="matplotlib.axis_1">
    <g id="xtick_1">
     <g id="line2d_1">
      <defs>
       <path id="m9ca28a4631" d="M 0 0 
L 0 3.5 
" style="stroke: #000000; stroke-width: 0.8"/>
      </defs>
      <g>
       <use xlink:href="#m9ca28a4631" x="90.419156" y="389.32" style="stroke: #000000; stroke-width: 0.8"/>
      </g>
     </g>
     <g id="text_1">
      <!-- 0.5 -->
      <g transform="translate(82.467593 403.918437) scale(0.1 -0.1)">
       <defs>
        <path id="DejaVuSans-30" d="M 2034 4250 
Q 1547 4250 1301 3770 
Q 1056 3291 1056 2328 
Q 1056 1369 1301 889 
Q 1547 409 2034 409 
Q 2525 409 2770 889 
Q 3016 1369 3016 2328 
Q 3016 3291 2770 3770 
Q 2525 4250 2034 4250 
z
M 2034 4750 
Q 2819 4750 3233 4129 
Q 3647 3509 3647 2328 
Q 3647 1150 3233 529 
Q 2819 -91 2034 -91 
Q 1250 -91 836 529 
Q 422 1150 422 2328 
Q 422 3509 836 4129 
Q 1250 4750 2034 4750 
z
" transform="scale(0.015625)"/>
        <path id="DejaVuSans-2e" d="M 684 794 
L 1344 794 
L 1344 0 
L 684 0 
L 684 794 
z
" transform="scale(0.015625)"/>
        <path id="DejaVuSans-35" d="M 691 4666 
L 3169 4666 
L 3169 4134 
L 1269 4134 
L 1269 2991 
Q 1406 3038 1543 3061 
Q 1681 3084 1819 3084 
Q 2600 3084 3056 2656 
Q 3513 2228 3513 1497 
Q 3513 744 3044 326 
Q 2575 -91 1722 -91 
Q 1428 -91 1123 -41 
Q 819 9 494 109 
L 494 744 
Q 775 591 1075 516 
Q 1375 441 1709 441 
Q 2250 441 2565 725 
Q 2881 1009 2881 1497 
Q 2881 1984 2565 2268 
Q 2250 2553 1709 2553 
Q 1456 2553 1204 2497 
Q 953 2441 691 2322 
L 691 4666 
z
" transform="scale(0.015625)"/>
       </defs>
       <use xlink:href="#DejaVuSans-30"/>
       <use xlink:href="#DejaVuSans-2e" x="63.623047"/>
       <use xlink:href="#DejaVuSans-35" x="95.410156"/>
      </g>
     </g>
    </g>
    <g id="xtick_2">
     <g id="line2d_2">
      <g>
       <use xlink:href="#m9ca28a4631" x="135.840343" y="389.32" style="stroke: #000000; stroke-width: 0.8"/>
      </g>
     </g>
     <g id="text_2">
      <!-- 1.0 -->
      <g transform="translate(127.888781 403.918437) scale(0.1 -0.1)">
       <defs>
        <path id="DejaVuSans-31" d="M 794 531 
L 1825 531 
L 1825 4091 
L 703 3866 
L 703 4441 
L 1819 4666 
L 2450 4666 
L 2450 531 
L 3481 531 
L 3481 0 
L 794 0 
L 794 531 
z
" transform="scale(0.015625)"/>
       </defs>
       <use xlink:href="#DejaVuSans-31"/>
       <use xlink:href="#DejaVuSans-2e" x="63.623047"/>
       <use xlink:href="#DejaVuSans-30" x="95.410156"/>
      </g>
     </g>
    </g>
    <g id="xtick_3">
     <g id="line2d_3">
      <g>
       <use xlink:href="#m9ca28a4631" x="181.261531" y="389.32" style="stroke: #000000; stroke-width: 0.8"/>
      </g>
     </g>
     <g id="text_3">
      <!-- 1.5 -->
      <g transform="translate(173.309968 403.918437) scale(0.1 -0.1)">
       <use xlink:href="#DejaVuSans-31"/>
       <use xlink:href="#DejaVuSans-2e" x="63.623047"/>
       <use xlink:href="#DejaVuSans-35" x="95.410156"/>
      </g>
     </g>
    </g>
    <g id="xtick_4">
     <g id="line2d_4">
      <g>
       <use xlink:href="#m9ca28a4631" x="226.682718" y="389.32" style="stroke: #000000; stroke-width: 0.8"/>
      </g>
     </g>
     <g id="text_4">
      <!-- 2.0 -->
      <g transform="translate(218.731156 403.918437) scale(0.1 -0.1)">
       <defs>
        <path id="DejaVuSans-32" d="M 1228 531 
L 3431 531 
L 3431 0 
L 469 0 
L 469 531 
Q 828 903 1448 1529 
Q 2069 2156 2228 2338 
Q 2531 2678 2651 2914 
Q 2772 3150 2772 3378 
Q 2772 3750 2511 3984 
Q 2250 4219 1831 4219 
Q 1534 4219 1204 4116 
Q 875 4013 500 3803 
L 500 4441 
Q 881 4594 1212 4672 
Q 1544 4750 1819 4750 
Q 2544 4750 2975 4387 
Q 3406 4025 3406 3419 
Q 3406 3131 3298 2873 
Q 3191 2616 2906 2266 
Q 2828 2175 2409 1742 
Q 1991 1309 1228 531 
z
" transform="scale(0.015625)"/>
       </defs>
       <use xlink:href="#DejaVuSans-32"/>
       <use xlink:href="#DejaVuSans-2e" x="63.623047"/>
       <use xlink:href="#DejaVuSans-30" x="95.410156"/>
      </g>
     </g>
    </g>
    <g id="xtick_5">
     <g id="line2d_5">
      <g>
       <use xlink:href="#m9ca28a4631" x="272.103906" y="389.32" style="stroke: #000000; stroke-width: 0.8"/>
      </g>
     </g>
     <g id="text_5">
      <!-- 2.5 -->
      <g transform="translate(264.152343 403.918437) scale(0.1 -0.1)">
       <use xlink:href="#DejaVuSans-32"/>
       <use xlink:href="#DejaVuSans-2e" x="63.623047"/>
       <use xlink:href="#DejaVuSans-35" x="95.410156"/>
      </g>
     </g>
    </g>
    <g id="xtick_6">
     <g id="line2d_6">
      <g>
       <use xlink:href="#m9ca28a4631" x="317.525094" y="389.32" style="stroke: #000000; stroke-width: 0.8"/>
      </g>
     </g>
     <g id="text_6">
      <!-- 3.0 -->
      <g transform="translate(309.573531 403.918437) scale(0.1 -0.1)">
       <defs>
        <path id="DejaVuSans-33" d="M 2597 2516 
Q 3050 2419 3304 2112 
Q 3559 1806 3559 1356 
Q 3559 666 3084 287 
Q 2609 -91 1734 -91 
Q 1441 -91 1130 -33 
Q 819 25 488 141 
L 488 750 
Q 750 597 1062 519 
Q 1375 441 1716 441 
Q 2309 441 2620 675 
Q 2931 909 2931 1356 
Q 2931 1769 2642 2001 
Q 2353 2234 1838 2234 
L 1294 2234 
L 1294 2753 
L 1863 2753 
Q 2328 2753 2575 2939 
Q 2822 3125 2822 3475 
Q 2822 3834 2567 4026 
Q 2313 4219 1838 4219 
Q 1578 4219 1281 4162 
Q 984 4106 628 3988 
L 628 4550 
Q 988 4650 1302 4700 
Q 1616 4750 1894 4750 
Q 2613 4750 3031 4423 
Q 3450 4097 3450 3541 
Q 3450 3153 3228 2886 
Q 3006 2619 2597 2516 
z
" transform="scale(0.015625)"/>
       </defs>
       <use xlink:href="#DejaVuSans-33"/>
       <use xlink:href="#DejaVuSans-2e" x="63.623047"/>
       <use xlink:href="#DejaVuSans-30" x="95.410156"/>
      </g>
     </g>
    </g>
    <g id="xtick_7">
     <g id="line2d_7">
      <g>
       <use xlink:href="#m9ca28a4631" x="362.946281" y="389.32" style="stroke: #000000; stroke-width: 0.8"/>
      </g>
     </g>
     <g id="text_7">
      <!-- 3.5 -->
      <g transform="translate(354.994719 403.918437) scale(0.1 -0.1)">
       <use xlink:href="#DejaVuSans-33"/>
       <use xlink:href="#DejaVuSans-2e" x="63.623047"/>
       <use xlink:href="#DejaVuSans-35" x="95.410156"/>
      </g>
     </g>
    </g>
    <g id="xtick_8">
     <g id="line2d_8">
      <g>
       <use xlink:href="#m9ca28a4631" x="408.367469" y="389.32" style="stroke: #000000; stroke-width: 0.8"/>
      </g>
     </g>
     <g id="text_8">
      <!-- 4.0 -->
      <g transform="translate(400.415906 403.918437) scale(0.1 -0.1)">
       <defs>
        <path id="DejaVuSans-34" d="M 2419 4116 
L 825 1625 
L 2419 1625 
L 2419 4116 
z
M 2253 4666 
L 3047 4666 
L 3047 1625 
L 3713 1625 
L 3713 1100 
L 3047 1100 
L 3047 0 
L 2419 0 
L 2419 1100 
L 313 1100 
L 313 1709 
L 2253 4666 
z
" transform="scale(0.015625)"/>
       </defs>
       <use xlink:href="#DejaVuSans-34"/>
       <use xlink:href="#DejaVuSans-2e" x="63.623047"/>
       <use xlink:href="#DejaVuSans-30" x="95.410156"/>
      </g>
     </g>
    </g>
    <g id="text_9">
     <!-- Predicted Fluorescence -->
     <g transform="translate(172.76125 419.11625) scale(0.12 -0.12)">
      <defs>
       <path id="DejaVuSans-50" d="M 1259 4147 
L 1259 2394 
L 2053 2394 
Q 2494 2394 2734 2622 
Q 2975 2850 2975 3272 
Q 2975 3691 2734 3919 
Q 2494 4147 2053 4147 
L 1259 4147 
z
M 628 4666 
L 2053 4666 
Q 2838 4666 3239 4311 
Q 3641 3956 3641 3272 
Q 3641 2581 3239 2228 
Q 2838 1875 2053 1875 
L 1259 1875 
L 1259 0 
L 628 0 
L 628 4666 
z
" transform="scale(0.015625)"/>
       <path id="DejaVuSans-72" d="M 2631 2963 
Q 2534 3019 2420 3045 
Q 2306 3072 2169 3072 
Q 1681 3072 1420 2755 
Q 1159 2438 1159 1844 
L 1159 0 
L 581 0 
L 581 3500 
L 1159 3500 
L 1159 2956 
Q 1341 3275 1631 3429 
Q 1922 3584 2338 3584 
Q 2397 3584 2469 3576 
Q 2541 3569 2628 3553 
L 2631 2963 
z
" transform="scale(0.015625)"/>
       <path id="DejaVuSans-65" d="M 3597 1894 
L 3597 1613 
L 953 1613 
Q 991 1019 1311 708 
Q 1631 397 2203 397 
Q 2534 397 2845 478 
Q 3156 559 3463 722 
L 3463 178 
Q 3153 47 2828 -22 
Q 2503 -91 2169 -91 
Q 1331 -91 842 396 
Q 353 884 353 1716 
Q 353 2575 817 3079 
Q 1281 3584 2069 3584 
Q 2775 3584 3186 3129 
Q 3597 2675 3597 1894 
z
M 3022 2063 
Q 3016 2534 2758 2815 
Q 2500 3097 2075 3097 
Q 1594 3097 1305 2825 
Q 1016 2553 972 2059 
L 3022 2063 
z
" transform="scale(0.015625)"/>
       <path id="DejaVuSans-64" d="M 2906 2969 
L 2906 4863 
L 3481 4863 
L 3481 0 
L 2906 0 
L 2906 525 
Q 2725 213 2448 61 
Q 2172 -91 1784 -91 
Q 1150 -91 751 415 
Q 353 922 353 1747 
Q 353 2572 751 3078 
Q 1150 3584 1784 3584 
Q 2172 3584 2448 3432 
Q 2725 3281 2906 2969 
z
M 947 1747 
Q 947 1113 1208 752 
Q 1469 391 1925 391 
Q 2381 391 2643 752 
Q 2906 1113 2906 1747 
Q 2906 2381 2643 2742 
Q 2381 3103 1925 3103 
Q 1469 3103 1208 2742 
Q 947 2381 947 1747 
z
" transform="scale(0.015625)"/>
       <path id="DejaVuSans-69" d="M 603 3500 
L 1178 3500 
L 1178 0 
L 603 0 
L 603 3500 
z
M 603 4863 
L 1178 4863 
L 1178 4134 
L 603 4134 
L 603 4863 
z
" transform="scale(0.015625)"/>
       <path id="DejaVuSans-63" d="M 3122 3366 
L 3122 2828 
Q 2878 2963 2633 3030 
Q 2388 3097 2138 3097 
Q 1578 3097 1268 2742 
Q 959 2388 959 1747 
Q 959 1106 1268 751 
Q 1578 397 2138 397 
Q 2388 397 2633 464 
Q 2878 531 3122 666 
L 3122 134 
Q 2881 22 2623 -34 
Q 2366 -91 2075 -91 
Q 1284 -91 818 406 
Q 353 903 353 1747 
Q 353 2603 823 3093 
Q 1294 3584 2113 3584 
Q 2378 3584 2631 3529 
Q 2884 3475 3122 3366 
z
" transform="scale(0.015625)"/>
       <path id="DejaVuSans-74" d="M 1172 4494 
L 1172 3500 
L 2356 3500 
L 2356 3053 
L 1172 3053 
L 1172 1153 
Q 1172 725 1289 603 
Q 1406 481 1766 481 
L 2356 481 
L 2356 0 
L 1766 0 
Q 1100 0 847 248 
Q 594 497 594 1153 
L 594 3053 
L 172 3053 
L 172 3500 
L 594 3500 
L 594 4494 
L 1172 4494 
z
" transform="scale(0.015625)"/>
       <path id="DejaVuSans-20" transform="scale(0.015625)"/>
       <path id="DejaVuSans-46" d="M 628 4666 
L 3309 4666 
L 3309 4134 
L 1259 4134 
L 1259 2759 
L 3109 2759 
L 3109 2228 
L 1259 2228 
L 1259 0 
L 628 0 
L 628 4666 
z
" transform="scale(0.015625)"/>
       <path id="DejaVuSans-6c" d="M 603 4863 
L 1178 4863 
L 1178 0 
L 603 0 
L 603 4863 
z
" transform="scale(0.015625)"/>
       <path id="DejaVuSans-75" d="M 544 1381 
L 544 3500 
L 1119 3500 
L 1119 1403 
Q 1119 906 1312 657 
Q 1506 409 1894 409 
Q 2359 409 2629 706 
Q 2900 1003 2900 1516 
L 2900 3500 
L 3475 3500 
L 3475 0 
L 2900 0 
L 2900 538 
Q 2691 219 2414 64 
Q 2138 -91 1772 -91 
Q 1169 -91 856 284 
Q 544 659 544 1381 
z
M 1991 3584 
L 1991 3584 
z
" transform="scale(0.015625)"/>
       <path id="DejaVuSans-6f" d="M 1959 3097 
Q 1497 3097 1228 2736 
Q 959 2375 959 1747 
Q 959 1119 1226 758 
Q 1494 397 1959 397 
Q 2419 397 2687 759 
Q 2956 1122 2956 1747 
Q 2956 2369 2687 2733 
Q 2419 3097 1959 3097 
z
M 1959 3584 
Q 2709 3584 3137 3096 
Q 3566 2609 3566 1747 
Q 3566 888 3137 398 
Q 2709 -91 1959 -91 
Q 1206 -91 779 398 
Q 353 888 353 1747 
Q 353 2609 779 3096 
Q 1206 3584 1959 3584 
z
" transform="scale(0.015625)"/>
       <path id="DejaVuSans-73" d="M 2834 3397 
L 2834 2853 
Q 2591 2978 2328 3040 
Q 2066 3103 1784 3103 
Q 1356 3103 1142 2972 
Q 928 2841 928 2578 
Q 928 2378 1081 2264 
Q 1234 2150 1697 2047 
L 1894 2003 
Q 2506 1872 2764 1633 
Q 3022 1394 3022 966 
Q 3022 478 2636 193 
Q 2250 -91 1575 -91 
Q 1294 -91 989 -36 
Q 684 19 347 128 
L 347 722 
Q 666 556 975 473 
Q 1284 391 1588 391 
Q 1994 391 2212 530 
Q 2431 669 2431 922 
Q 2431 1156 2273 1281 
Q 2116 1406 1581 1522 
L 1381 1569 
Q 847 1681 609 1914 
Q 372 2147 372 2553 
Q 372 3047 722 3315 
Q 1072 3584 1716 3584 
Q 2034 3584 2315 3537 
Q 2597 3491 2834 3397 
z
" transform="scale(0.015625)"/>
       <path id="DejaVuSans-6e" d="M 3513 2113 
L 3513 0 
L 2938 0 
L 2938 2094 
Q 2938 2591 2744 2837 
Q 2550 3084 2163 3084 
Q 1697 3084 1428 2787 
Q 1159 2491 1159 1978 
L 1159 0 
L 581 0 
L 581 3500 
L 1159 3500 
L 1159 2956 
Q 1366 3272 1645 3428 
Q 1925 3584 2291 3584 
Q 2894 3584 3203 3211 
Q 3513 2838 3513 2113 
z
" transform="scale(0.015625)"/>
      </defs>
      <use xlink:href="#DejaVuSans-50"/>
      <use xlink:href="#DejaVuSans-72" x="58.552734"/>
      <use xlink:href="#DejaVuSans-65" x="97.416016"/>
      <use xlink:href="#DejaVuSans-64" x="158.939453"/>
      <use xlink:href="#DejaVuSans-69" x="222.416016"/>
      <use xlink:href="#DejaVuSans-63" x="250.199219"/>
      <use xlink:href="#DejaVuSans-74" x="305.179688"/>
      <use xlink:href="#DejaVuSans-65" x="344.388672"/>
      <use xlink:href="#DejaVuSans-64" x="405.912109"/>
      <use xlink:href="#DejaVuSans-20" x="469.388672"/>
      <use xlink:href="#DejaVuSans-46" x="501.175781"/>
      <use xlink:href="#DejaVuSans-6c" x="558.695312"/>
      <use xlink:href="#DejaVuSans-75" x="586.478516"/>
      <use xlink:href="#DejaVuSans-6f" x="649.857422"/>
      <use xlink:href="#DejaVuSans-72" x="711.039062"/>
      <use xlink:href="#DejaVuSans-65" x="749.902344"/>
      <use xlink:href="#DejaVuSans-73" x="811.425781"/>
      <use xlink:href="#DejaVuSans-63" x="863.525391"/>
      <use xlink:href="#DejaVuSans-65" x="918.505859"/>
      <use xlink:href="#DejaVuSans-6e" x="980.029297"/>
      <use xlink:href="#DejaVuSans-63" x="1043.408203"/>
      <use xlink:href="#DejaVuSans-65" x="1098.388672"/>
     </g>
    </g>
   </g>
   <g id="matplotlib.axis_2">
    <g id="ytick_1">
     <g id="line2d_9">
      <defs>
       <path id="m0b5c155bf2" d="M 0 0 
L -3.5 0 
" style="stroke: #000000; stroke-width: 0.8"/>
      </defs>
      <g>
       <use xlink:href="#m0b5c155bf2" x="54.92" y="389.32" style="stroke: #000000; stroke-width: 0.8"/>
      </g>
     </g>
     <g id="text_10">
      <!-- 0.00 -->
      <g transform="translate(25.654375 393.119219) scale(0.1 -0.1)">
       <use xlink:href="#DejaVuSans-30"/>
       <use xlink:href="#DejaVuSans-2e" x="63.623047"/>
       <use xlink:href="#DejaVuSans-30" x="95.410156"/>
       <use xlink:href="#DejaVuSans-30" x="159.033203"/>
      </g>
     </g>
    </g>
    <g id="ytick_2">
     <g id="line2d_10">
      <g>
       <use xlink:href="#m0b5c155bf2" x="54.92" y="344.463986" style="stroke: #000000; stroke-width: 0.8"/>
      </g>
     </g>
     <g id="text_11">
      <!-- 0.25 -->
      <g transform="translate(25.654375 348.263205) scale(0.1 -0.1)">
       <use xlink:href="#DejaVuSans-30"/>
       <use xlink:href="#DejaVuSans-2e" x="63.623047"/>
       <use xlink:href="#DejaVuSans-32" x="95.410156"/>
       <use xlink:href="#DejaVuSans-35" x="159.033203"/>
      </g>
     </g>
    </g>
    <g id="ytick_3">
     <g id="line2d_11">
      <g>
       <use xlink:href="#m0b5c155bf2" x="54.92" y="299.607972" style="stroke: #000000; stroke-width: 0.8"/>
      </g>
     </g>
     <g id="text_12">
      <!-- 0.50 -->
      <g transform="translate(25.654375 303.407191) scale(0.1 -0.1)">
       <use xlink:href="#DejaVuSans-30"/>
       <use xlink:href="#DejaVuSans-2e" x="63.623047"/>
       <use xlink:href="#DejaVuSans-35" x="95.410156"/>
       <use xlink:href="#DejaVuSans-30" x="159.033203"/>
      </g>
     </g>
    </g>
    <g id="ytick_4">
     <g id="line2d_12">
      <g>
       <use xlink:href="#m0b5c155bf2" x="54.92" y="254.751958" style="stroke: #000000; stroke-width: 0.8"/>
      </g>
     </g>
     <g id="text_13">
      <!-- 0.75 -->
      <g transform="translate(25.654375 258.551177) scale(0.1 -0.1)">
       <defs>
        <path id="DejaVuSans-37" d="M 525 4666 
L 3525 4666 
L 3525 4397 
L 1831 0 
L 1172 0 
L 2766 4134 
L 525 4134 
L 525 4666 
z
" transform="scale(0.015625)"/>
       </defs>
       <use xlink:href="#DejaVuSans-30"/>
       <use xlink:href="#DejaVuSans-2e" x="63.623047"/>
       <use xlink:href="#DejaVuSans-37" x="95.410156"/>
       <use xlink:href="#DejaVuSans-35" x="159.033203"/>
      </g>
     </g>
    </g>
    <g id="ytick_5">
     <g id="line2d_13">
      <g>
       <use xlink:href="#m0b5c155bf2" x="54.92" y="209.895944" style="stroke: #000000; stroke-width: 0.8"/>
      </g>
     </g>
     <g id="text_14">
      <!-- 1.00 -->
      <g transform="translate(25.654375 213.695163) scale(0.1 -0.1)">
       <use xlink:href="#DejaVuSans-31"/>
       <use xlink:href="#DejaVuSans-2e" x="63.623047"/>
       <use xlink:href="#DejaVuSans-30" x="95.410156"/>
       <use xlink:href="#DejaVuSans-30" x="159.033203"/>
      </g>
     </g>
    </g>
    <g id="ytick_6">
     <g id="line2d_14">
      <g>
       <use xlink:href="#m0b5c155bf2" x="54.92" y="165.03993" style="stroke: #000000; stroke-width: 0.8"/>
      </g>
     </g>
     <g id="text_15">
      <!-- 1.25 -->
      <g transform="translate(25.654375 168.839149) scale(0.1 -0.1)">
       <use xlink:href="#DejaVuSans-31"/>
       <use xlink:href="#DejaVuSans-2e" x="63.623047"/>
       <use xlink:href="#DejaVuSans-32" x="95.410156"/>
       <use xlink:href="#DejaVuSans-35" x="159.033203"/>
      </g>
     </g>
    </g>
    <g id="ytick_7">
     <g id="line2d_15">
      <g>
       <use xlink:href="#m0b5c155bf2" x="54.92" y="120.183917" style="stroke: #000000; stroke-width: 0.8"/>
      </g>
     </g>
     <g id="text_16">
      <!-- 1.50 -->
      <g transform="translate(25.654375 123.983135) scale(0.1 -0.1)">
       <use xlink:href="#DejaVuSans-31"/>
       <use xlink:href="#DejaVuSans-2e" x="63.623047"/>
       <use xlink:href="#DejaVuSans-35" x="95.410156"/>
       <use xlink:href="#DejaVuSans-30" x="159.033203"/>
      </g>
     </g>
    </g>
    <g id="ytick_8">
     <g id="line2d_16">
      <g>
       <use xlink:href="#m0b5c155bf2" x="54.92" y="75.327903" style="stroke: #000000; stroke-width: 0.8"/>
      </g>
     </g>
     <g id="text_17">
      <!-- 1.75 -->
      <g transform="translate(25.654375 79.127121) scale(0.1 -0.1)">
       <use xlink:href="#DejaVuSans-31"/>
       <use xlink:href="#DejaVuSans-2e" x="63.623047"/>
       <use xlink:href="#DejaVuSans-37" x="95.410156"/>
       <use xlink:href="#DejaVuSans-35" x="159.033203"/>
      </g>
     </g>
    </g>
    <g id="ytick_9">
     <g id="line2d_17">
      <g>
       <use xlink:href="#m0b5c155bf2" x="54.92" y="30.471889" style="stroke: #000000; stroke-width: 0.8"/>
      </g>
     </g>
     <g id="text_18">
      <!-- 2.00 -->
      <g transform="translate(25.654375 34.271108) scale(0.1 -0.1)">
       <use xlink:href="#DejaVuSans-32"/>
       <use xlink:href="#DejaVuSans-2e" x="63.623047"/>
       <use xlink:href="#DejaVuSans-30" x="95.410156"/>
       <use xlink:href="#DejaVuSans-30" x="159.033203"/>
      </g>
     </g>
    </g>
    <g id="text_19">
     <!-- Probability Density -->
     <g transform="translate(19.15875 258.471875) rotate(-90) scale(0.12 -0.12)">
      <defs>
       <path id="DejaVuSans-62" d="M 3116 1747 
Q 3116 2381 2855 2742 
Q 2594 3103 2138 3103 
Q 1681 3103 1420 2742 
Q 1159 2381 1159 1747 
Q 1159 1113 1420 752 
Q 1681 391 2138 391 
Q 2594 391 2855 752 
Q 3116 1113 3116 1747 
z
M 1159 2969 
Q 1341 3281 1617 3432 
Q 1894 3584 2278 3584 
Q 2916 3584 3314 3078 
Q 3713 2572 3713 1747 
Q 3713 922 3314 415 
Q 2916 -91 2278 -91 
Q 1894 -91 1617 61 
Q 1341 213 1159 525 
L 1159 0 
L 581 0 
L 581 4863 
L 1159 4863 
L 1159 2969 
z
" transform="scale(0.015625)"/>
       <path id="DejaVuSans-61" d="M 2194 1759 
Q 1497 1759 1228 1600 
Q 959 1441 959 1056 
Q 959 750 1161 570 
Q 1363 391 1709 391 
Q 2188 391 2477 730 
Q 2766 1069 2766 1631 
L 2766 1759 
L 2194 1759 
z
M 3341 1997 
L 3341 0 
L 2766 0 
L 2766 531 
Q 2569 213 2275 61 
Q 1981 -91 1556 -91 
Q 1019 -91 701 211 
Q 384 513 384 1019 
Q 384 1609 779 1909 
Q 1175 2209 1959 2209 
L 2766 2209 
L 2766 2266 
Q 2766 2663 2505 2880 
Q 2244 3097 1772 3097 
Q 1472 3097 1187 3025 
Q 903 2953 641 2809 
L 641 3341 
Q 956 3463 1253 3523 
Q 1550 3584 1831 3584 
Q 2591 3584 2966 3190 
Q 3341 2797 3341 1997 
z
" transform="scale(0.015625)"/>
       <path id="DejaVuSans-79" d="M 2059 -325 
Q 1816 -950 1584 -1140 
Q 1353 -1331 966 -1331 
L 506 -1331 
L 506 -850 
L 844 -850 
Q 1081 -850 1212 -737 
Q 1344 -625 1503 -206 
L 1606 56 
L 191 3500 
L 800 3500 
L 1894 763 
L 2988 3500 
L 3597 3500 
L 2059 -325 
z
" transform="scale(0.015625)"/>
       <path id="DejaVuSans-44" d="M 1259 4147 
L 1259 519 
L 2022 519 
Q 2988 519 3436 956 
Q 3884 1394 3884 2338 
Q 3884 3275 3436 3711 
Q 2988 4147 2022 4147 
L 1259 4147 
z
M 628 4666 
L 1925 4666 
Q 3281 4666 3915 4102 
Q 4550 3538 4550 2338 
Q 4550 1131 3912 565 
Q 3275 0 1925 0 
L 628 0 
L 628 4666 
z
" transform="scale(0.015625)"/>
      </defs>
      <use xlink:href="#DejaVuSans-50"/>
      <use xlink:href="#DejaVuSans-72" x="58.552734"/>
      <use xlink:href="#DejaVuSans-6f" x="97.416016"/>
      <use xlink:href="#DejaVuSans-62" x="158.597656"/>
      <use xlink:href="#DejaVuSans-61" x="222.074219"/>
      <use xlink:href="#DejaVuSans-62" x="283.353516"/>
      <use xlink:href="#DejaVuSans-69" x="346.830078"/>
      <use xlink:href="#DejaVuSans-6c" x="374.613281"/>
      <use xlink:href="#DejaVuSans-69" x="402.396484"/>
      <use xlink:href="#DejaVuSans-74" x="430.179688"/>
      <use xlink:href="#DejaVuSans-79" x="469.388672"/>
      <use xlink:href="#DejaVuSans-20" x="528.568359"/>
      <use xlink:href="#DejaVuSans-44" x="560.355469"/>
      <use xlink:href="#DejaVuSans-65" x="637.357422"/>
      <use xlink:href="#DejaVuSans-6e" x="698.880859"/>
      <use xlink:href="#DejaVuSans-73" x="762.259766"/>
      <use xlink:href="#DejaVuSans-69" x="814.359375"/>
      <use xlink:href="#DejaVuSans-74" x="842.142578"/>
      <use xlink:href="#DejaVuSans-79" x="881.351562"/>
     </g>
    </g>
   </g>
   <g id="line2d_18">
    <path d="M 149.448531 389.32 
L 149.448531 14.76 
" clip-path="url(#pd7f278c08c)" style="fill: none; stroke-dasharray: 11.1,4.8; stroke-dashoffset: 0; stroke: #ffa500; stroke-width: 3"/>
   </g>
   <g id="patch_80">
    <path d="M 54.92 389.32 
L 54.92 14.76 
" style="fill: none; stroke: #000000; stroke-width: 0.8; stroke-linejoin: miter; stroke-linecap: square"/>
   </g>
   <g id="patch_81">
    <path d="M 54.92 389.32 
L 429.795 389.32 
" style="fill: none; stroke: #000000; stroke-width: 0.8; stroke-linejoin: miter; stroke-linecap: square"/>
   </g>
   <g id="legend_1">
    <g id="patch_82">
     <path d="M 183.300469 66.794375 
L 301.414531 66.794375 
Q 303.414531 66.794375 303.414531 64.794375 
L 303.414531 21.76 
Q 303.414531 19.76 301.414531 19.76 
L 183.300469 19.76 
Q 181.300469 19.76 181.300469 21.76 
L 181.300469 64.794375 
Q 181.300469 66.794375 183.300469 66.794375 
z
" style="fill: #ffffff; opacity: 0.8; stroke: #cccccc; stroke-linejoin: miter"/>
    </g>
    <g id="patch_83">
     <path d="M 185.300469 31.358438 
L 205.300469 31.358438 
L 205.300469 24.358438 
L 185.300469 24.358438 
z
" style="fill: #808080; fill-opacity: 0.4; stroke: #000000; stroke-linejoin: miter"/>
    </g>
    <g id="text_20">
     <!-- Pre-trained ESM2 -->
     <g transform="translate(213.300469 31.358438) scale(0.1 -0.1)">
      <defs>
       <path id="DejaVuSans-2d" d="M 313 2009 
L 1997 2009 
L 1997 1497 
L 313 1497 
L 313 2009 
z
" transform="scale(0.015625)"/>
       <path id="DejaVuSans-45" d="M 628 4666 
L 3578 4666 
L 3578 4134 
L 1259 4134 
L 1259 2753 
L 3481 2753 
L 3481 2222 
L 1259 2222 
L 1259 531 
L 3634 531 
L 3634 0 
L 628 0 
L 628 4666 
z
" transform="scale(0.015625)"/>
       <path id="DejaVuSans-53" d="M 3425 4513 
L 3425 3897 
Q 3066 4069 2747 4153 
Q 2428 4238 2131 4238 
Q 1616 4238 1336 4038 
Q 1056 3838 1056 3469 
Q 1056 3159 1242 3001 
Q 1428 2844 1947 2747 
L 2328 2669 
Q 3034 2534 3370 2195 
Q 3706 1856 3706 1288 
Q 3706 609 3251 259 
Q 2797 -91 1919 -91 
Q 1588 -91 1214 -16 
Q 841 59 441 206 
L 441 856 
Q 825 641 1194 531 
Q 1563 422 1919 422 
Q 2459 422 2753 634 
Q 3047 847 3047 1241 
Q 3047 1584 2836 1778 
Q 2625 1972 2144 2069 
L 1759 2144 
Q 1053 2284 737 2584 
Q 422 2884 422 3419 
Q 422 4038 858 4394 
Q 1294 4750 2059 4750 
Q 2388 4750 2728 4690 
Q 3069 4631 3425 4513 
z
" transform="scale(0.015625)"/>
       <path id="DejaVuSans-4d" d="M 628 4666 
L 1569 4666 
L 2759 1491 
L 3956 4666 
L 4897 4666 
L 4897 0 
L 4281 0 
L 4281 4097 
L 3078 897 
L 2444 897 
L 1241 4097 
L 1241 0 
L 628 0 
L 628 4666 
z
" transform="scale(0.015625)"/>
      </defs>
      <use xlink:href="#DejaVuSans-50"/>
      <use xlink:href="#DejaVuSans-72" x="58.552734"/>
      <use xlink:href="#DejaVuSans-65" x="97.416016"/>
      <use xlink:href="#DejaVuSans-2d" x="158.939453"/>
      <use xlink:href="#DejaVuSans-74" x="195.023438"/>
      <use xlink:href="#DejaVuSans-72" x="234.232422"/>
      <use xlink:href="#DejaVuSans-61" x="275.345703"/>
      <use xlink:href="#DejaVuSans-69" x="336.625"/>
      <use xlink:href="#DejaVuSans-6e" x="364.408203"/>
      <use xlink:href="#DejaVuSans-65" x="427.787109"/>
      <use xlink:href="#DejaVuSans-64" x="489.310547"/>
      <use xlink:href="#DejaVuSans-20" x="552.787109"/>
      <use xlink:href="#DejaVuSans-45" x="584.574219"/>
      <use xlink:href="#DejaVuSans-53" x="647.757812"/>
      <use xlink:href="#DejaVuSans-4d" x="711.234375"/>
      <use xlink:href="#DejaVuSans-32" x="797.513672"/>
     </g>
    </g>
    <g id="patch_84">
     <path d="M 185.300469 46.036563 
L 205.300469 46.036563 
L 205.300469 39.036563 
L 185.300469 39.036563 
z
" style="fill: #ffa500; fill-opacity: 0.6; stroke: #000000; stroke-linejoin: miter"/>
    </g>
    <g id="text_21">
     <!-- SFT ESM2 -->
     <g transform="translate(213.300469 46.036563) scale(0.1 -0.1)">
      <defs>
       <path id="DejaVuSans-54" d="M -19 4666 
L 3928 4666 
L 3928 4134 
L 2272 4134 
L 2272 0 
L 1638 0 
L 1638 4134 
L -19 4134 
L -19 4666 
z
" transform="scale(0.015625)"/>
      </defs>
      <use xlink:href="#DejaVuSans-53"/>
      <use xlink:href="#DejaVuSans-46" x="63.476562"/>
      <use xlink:href="#DejaVuSans-54" x="119.246094"/>
      <use xlink:href="#DejaVuSans-20" x="180.330078"/>
      <use xlink:href="#DejaVuSans-45" x="212.117188"/>
      <use xlink:href="#DejaVuSans-53" x="275.300781"/>
      <use xlink:href="#DejaVuSans-4d" x="338.777344"/>
      <use xlink:href="#DejaVuSans-32" x="425.056641"/>
     </g>
    </g>
    <g id="patch_85">
     <path d="M 185.300469 60.714688 
L 205.300469 60.714688 
L 205.300469 53.714688 
L 185.300469 53.714688 
z
" style="fill: #0000ff; fill-opacity: 0.6; stroke: #000000; stroke-linejoin: miter"/>
    </g>
    <g id="text_22">
     <!-- Aligned ESM2 -->
     <g transform="translate(213.300469 60.714688) scale(0.1 -0.1)">
      <defs>
       <path id="DejaVuSans-41" d="M 2188 4044 
L 1331 1722 
L 3047 1722 
L 2188 4044 
z
M 1831 4666 
L 2547 4666 
L 4325 0 
L 3669 0 
L 3244 1197 
L 1141 1197 
L 716 0 
L 50 0 
L 1831 4666 
z
" transform="scale(0.015625)"/>
       <path id="DejaVuSans-67" d="M 2906 1791 
Q 2906 2416 2648 2759 
Q 2391 3103 1925 3103 
Q 1463 3103 1205 2759 
Q 947 2416 947 1791 
Q 947 1169 1205 825 
Q 1463 481 1925 481 
Q 2391 481 2648 825 
Q 2906 1169 2906 1791 
z
M 3481 434 
Q 3481 -459 3084 -895 
Q 2688 -1331 1869 -1331 
Q 1566 -1331 1297 -1286 
Q 1028 -1241 775 -1147 
L 775 -588 
Q 1028 -725 1275 -790 
Q 1522 -856 1778 -856 
Q 2344 -856 2625 -561 
Q 2906 -266 2906 331 
L 2906 616 
Q 2728 306 2450 153 
Q 2172 0 1784 0 
Q 1141 0 747 490 
Q 353 981 353 1791 
Q 353 2603 747 3093 
Q 1141 3584 1784 3584 
Q 2172 3584 2450 3431 
Q 2728 3278 2906 2969 
L 2906 3500 
L 3481 3500 
L 3481 434 
z
" transform="scale(0.015625)"/>
      </defs>
      <use xlink:href="#DejaVuSans-41"/>
      <use xlink:href="#DejaVuSans-6c" x="68.408203"/>
      <use xlink:href="#DejaVuSans-69" x="96.191406"/>
      <use xlink:href="#DejaVuSans-67" x="123.974609"/>
      <use xlink:href="#DejaVuSans-6e" x="187.451172"/>
      <use xlink:href="#DejaVuSans-65" x="250.830078"/>
      <use xlink:href="#DejaVuSans-64" x="312.353516"/>
      <use xlink:href="#DejaVuSans-20" x="375.830078"/>
      <use xlink:href="#DejaVuSans-45" x="407.617188"/>
      <use xlink:href="#DejaVuSans-53" x="470.800781"/>
      <use xlink:href="#DejaVuSans-4d" x="534.277344"/>
      <use xlink:href="#DejaVuSans-32" x="620.556641"/>
     </g>
    </g>
   </g>
  </g>
  <g id="axes_2">
   <g id="patch_86">
    <path d="M 478.325 389.32 
L 853.2 389.32 
L 853.2 14.76 
L 478.325 14.76 
z
" style="fill: #ffffff"/>
   </g>
   <g id="patch_87">
    <path d="M 497.410553 389.32 
L 497.410553 14.76 
L 572.853531 14.76 
L 572.853531 389.32 
z
" clip-path="url(#pb8a534cb51)" style="fill: #ff0000; opacity: 0.1; stroke: #ff0000; stroke-linejoin: miter"/>
   </g>
   <g id="patch_88">
    <path d="M 572.853531 389.32 
L 572.853531 14.76 
L 836.160227 14.76 
L 836.160227 389.32 
z
" clip-path="url(#pb8a534cb51)" style="fill: #008000; opacity: 0.1; stroke: #008000; stroke-linejoin: miter"/>
   </g>
   <g id="matplotlib.axis_3">
    <g id="xtick_9">
     <g id="line2d_19">
      <g>
       <use xlink:href="#m9ca28a4631" x="513.824156" y="389.32" style="stroke: #000000; stroke-width: 0.8"/>
      </g>
     </g>
     <g id="text_23">
      <!-- 0.5 -->
      <g transform="translate(505.872593 403.918437) scale(0.1 -0.1)">
       <use xlink:href="#DejaVuSans-30"/>
       <use xlink:href="#DejaVuSans-2e" x="63.623047"/>
       <use xlink:href="#DejaVuSans-35" x="95.410156"/>
      </g>
     </g>
    </g>
    <g id="xtick_10">
     <g id="line2d_20">
      <g>
       <use xlink:href="#m9ca28a4631" x="559.245343" y="389.32" style="stroke: #000000; stroke-width: 0.8"/>
      </g>
     </g>
     <g id="text_24">
      <!-- 1.0 -->
      <g transform="translate(551.293781 403.918437) scale(0.1 -0.1)">
       <use xlink:href="#DejaVuSans-31"/>
       <use xlink:href="#DejaVuSans-2e" x="63.623047"/>
       <use xlink:href="#DejaVuSans-30" x="95.410156"/>
      </g>
     </g>
    </g>
    <g id="xtick_11">
     <g id="line2d_21">
      <g>
       <use xlink:href="#m9ca28a4631" x="604.666531" y="389.32" style="stroke: #000000; stroke-width: 0.8"/>
      </g>
     </g>
     <g id="text_25">
      <!-- 1.5 -->
      <g transform="translate(596.714968 403.918437) scale(0.1 -0.1)">
       <use xlink:href="#DejaVuSans-31"/>
       <use xlink:href="#DejaVuSans-2e" x="63.623047"/>
       <use xlink:href="#DejaVuSans-35" x="95.410156"/>
      </g>
     </g>
    </g>
    <g id="xtick_12">
     <g id="line2d_22">
      <g>
       <use xlink:href="#m9ca28a4631" x="650.087718" y="389.32" style="stroke: #000000; stroke-width: 0.8"/>
      </g>
     </g>
     <g id="text_26">
      <!-- 2.0 -->
      <g transform="translate(642.136156 403.918437) scale(0.1 -0.1)">
       <use xlink:href="#DejaVuSans-32"/>
       <use xlink:href="#DejaVuSans-2e" x="63.623047"/>
       <use xlink:href="#DejaVuSans-30" x="95.410156"/>
      </g>
     </g>
    </g>
    <g id="xtick_13">
     <g id="line2d_23">
      <g>
       <use xlink:href="#m9ca28a4631" x="695.508906" y="389.32" style="stroke: #000000; stroke-width: 0.8"/>
      </g>
     </g>
     <g id="text_27">
      <!-- 2.5 -->
      <g transform="translate(687.557343 403.918437) scale(0.1 -0.1)">
       <use xlink:href="#DejaVuSans-32"/>
       <use xlink:href="#DejaVuSans-2e" x="63.623047"/>
       <use xlink:href="#DejaVuSans-35" x="95.410156"/>
      </g>
     </g>
    </g>
    <g id="xtick_14">
     <g id="line2d_24">
      <g>
       <use xlink:href="#m9ca28a4631" x="740.930094" y="389.32" style="stroke: #000000; stroke-width: 0.8"/>
      </g>
     </g>
     <g id="text_28">
      <!-- 3.0 -->
      <g transform="translate(732.978531 403.918437) scale(0.1 -0.1)">
       <use xlink:href="#DejaVuSans-33"/>
       <use xlink:href="#DejaVuSans-2e" x="63.623047"/>
       <use xlink:href="#DejaVuSans-30" x="95.410156"/>
      </g>
     </g>
    </g>
    <g id="xtick_15">
     <g id="line2d_25">
      <g>
       <use xlink:href="#m9ca28a4631" x="786.351281" y="389.32" style="stroke: #000000; stroke-width: 0.8"/>
      </g>
     </g>
     <g id="text_29">
      <!-- 3.5 -->
      <g transform="translate(778.399719 403.918437) scale(0.1 -0.1)">
       <use xlink:href="#DejaVuSans-33"/>
       <use xlink:href="#DejaVuSans-2e" x="63.623047"/>
       <use xlink:href="#DejaVuSans-35" x="95.410156"/>
      </g>
     </g>
    </g>
    <g id="xtick_16">
     <g id="line2d_26">
      <g>
       <use xlink:href="#m9ca28a4631" x="831.772469" y="389.32" style="stroke: #000000; stroke-width: 0.8"/>
      </g>
     </g>
     <g id="text_30">
      <!-- 4.0 -->
      <g transform="translate(823.820906 403.918437) scale(0.1 -0.1)">
       <use xlink:href="#DejaVuSans-34"/>
       <use xlink:href="#DejaVuSans-2e" x="63.623047"/>
       <use xlink:href="#DejaVuSans-30" x="95.410156"/>
      </g>
     </g>
    </g>
    <g id="text_31">
     <!-- Predicted Fluorescence -->
     <g transform="translate(596.16625 419.11625) scale(0.12 -0.12)">
      <use xlink:href="#DejaVuSans-50"/>
      <use xlink:href="#DejaVuSans-72" x="58.552734"/>
      <use xlink:href="#DejaVuSans-65" x="97.416016"/>
      <use xlink:href="#DejaVuSans-64" x="158.939453"/>
      <use xlink:href="#DejaVuSans-69" x="222.416016"/>
      <use xlink:href="#DejaVuSans-63" x="250.199219"/>
      <use xlink:href="#DejaVuSans-74" x="305.179688"/>
      <use xlink:href="#DejaVuSans-65" x="344.388672"/>
      <use xlink:href="#DejaVuSans-64" x="405.912109"/>
      <use xlink:href="#DejaVuSans-20" x="469.388672"/>
      <use xlink:href="#DejaVuSans-46" x="501.175781"/>
      <use xlink:href="#DejaVuSans-6c" x="558.695312"/>
      <use xlink:href="#DejaVuSans-75" x="586.478516"/>
      <use xlink:href="#DejaVuSans-6f" x="649.857422"/>
      <use xlink:href="#DejaVuSans-72" x="711.039062"/>
      <use xlink:href="#DejaVuSans-65" x="749.902344"/>
      <use xlink:href="#DejaVuSans-73" x="811.425781"/>
      <use xlink:href="#DejaVuSans-63" x="863.525391"/>
      <use xlink:href="#DejaVuSans-65" x="918.505859"/>
      <use xlink:href="#DejaVuSans-6e" x="980.029297"/>
      <use xlink:href="#DejaVuSans-63" x="1043.408203"/>
      <use xlink:href="#DejaVuSans-65" x="1098.388672"/>
     </g>
    </g>
   </g>
   <g id="matplotlib.axis_4">
    <g id="ytick_10">
     <g id="line2d_27">
      <g>
       <use xlink:href="#m0b5c155bf2" x="478.325" y="389.32" style="stroke: #000000; stroke-width: 0.8"/>
      </g>
     </g>
     <g id="text_32">
      <!-- 0.0 -->
      <g transform="translate(455.421875 393.119219) scale(0.1 -0.1)">
       <use xlink:href="#DejaVuSans-30"/>
       <use xlink:href="#DejaVuSans-2e" x="63.623047"/>
       <use xlink:href="#DejaVuSans-30" x="95.410156"/>
      </g>
     </g>
    </g>
    <g id="ytick_11">
     <g id="line2d_28">
      <g>
       <use xlink:href="#m0b5c155bf2" x="478.325" y="314.408" style="stroke: #000000; stroke-width: 0.8"/>
      </g>
     </g>
     <g id="text_33">
      <!-- 0.2 -->
      <g transform="translate(455.421875 318.207219) scale(0.1 -0.1)">
       <use xlink:href="#DejaVuSans-30"/>
       <use xlink:href="#DejaVuSans-2e" x="63.623047"/>
       <use xlink:href="#DejaVuSans-32" x="95.410156"/>
      </g>
     </g>
    </g>
    <g id="ytick_12">
     <g id="line2d_29">
      <g>
       <use xlink:href="#m0b5c155bf2" x="478.325" y="239.496" style="stroke: #000000; stroke-width: 0.8"/>
      </g>
     </g>
     <g id="text_34">
      <!-- 0.4 -->
      <g transform="translate(455.421875 243.295219) scale(0.1 -0.1)">
       <use xlink:href="#DejaVuSans-30"/>
       <use xlink:href="#DejaVuSans-2e" x="63.623047"/>
       <use xlink:href="#DejaVuSans-34" x="95.410156"/>
      </g>
     </g>
    </g>
    <g id="ytick_13">
     <g id="line2d_30">
      <g>
       <use xlink:href="#m0b5c155bf2" x="478.325" y="164.584" style="stroke: #000000; stroke-width: 0.8"/>
      </g>
     </g>
     <g id="text_35">
      <!-- 0.6 -->
      <g transform="translate(455.421875 168.383219) scale(0.1 -0.1)">
       <defs>
        <path id="DejaVuSans-36" d="M 2113 2584 
Q 1688 2584 1439 2293 
Q 1191 2003 1191 1497 
Q 1191 994 1439 701 
Q 1688 409 2113 409 
Q 2538 409 2786 701 
Q 3034 994 3034 1497 
Q 3034 2003 2786 2293 
Q 2538 2584 2113 2584 
z
M 3366 4563 
L 3366 3988 
Q 3128 4100 2886 4159 
Q 2644 4219 2406 4219 
Q 1781 4219 1451 3797 
Q 1122 3375 1075 2522 
Q 1259 2794 1537 2939 
Q 1816 3084 2150 3084 
Q 2853 3084 3261 2657 
Q 3669 2231 3669 1497 
Q 3669 778 3244 343 
Q 2819 -91 2113 -91 
Q 1303 -91 875 529 
Q 447 1150 447 2328 
Q 447 3434 972 4092 
Q 1497 4750 2381 4750 
Q 2619 4750 2861 4703 
Q 3103 4656 3366 4563 
z
" transform="scale(0.015625)"/>
       </defs>
       <use xlink:href="#DejaVuSans-30"/>
       <use xlink:href="#DejaVuSans-2e" x="63.623047"/>
       <use xlink:href="#DejaVuSans-36" x="95.410156"/>
      </g>
     </g>
    </g>
    <g id="ytick_14">
     <g id="line2d_31">
      <g>
       <use xlink:href="#m0b5c155bf2" x="478.325" y="89.672" style="stroke: #000000; stroke-width: 0.8"/>
      </g>
     </g>
     <g id="text_36">
      <!-- 0.8 -->
      <g transform="translate(455.421875 93.471219) scale(0.1 -0.1)">
       <defs>
        <path id="DejaVuSans-38" d="M 2034 2216 
Q 1584 2216 1326 1975 
Q 1069 1734 1069 1313 
Q 1069 891 1326 650 
Q 1584 409 2034 409 
Q 2484 409 2743 651 
Q 3003 894 3003 1313 
Q 3003 1734 2745 1975 
Q 2488 2216 2034 2216 
z
M 1403 2484 
Q 997 2584 770 2862 
Q 544 3141 544 3541 
Q 544 4100 942 4425 
Q 1341 4750 2034 4750 
Q 2731 4750 3128 4425 
Q 3525 4100 3525 3541 
Q 3525 3141 3298 2862 
Q 3072 2584 2669 2484 
Q 3125 2378 3379 2068 
Q 3634 1759 3634 1313 
Q 3634 634 3220 271 
Q 2806 -91 2034 -91 
Q 1263 -91 848 271 
Q 434 634 434 1313 
Q 434 1759 690 2068 
Q 947 2378 1403 2484 
z
M 1172 3481 
Q 1172 3119 1398 2916 
Q 1625 2713 2034 2713 
Q 2441 2713 2670 2916 
Q 2900 3119 2900 3481 
Q 2900 3844 2670 4047 
Q 2441 4250 2034 4250 
Q 1625 4250 1398 4047 
Q 1172 3844 1172 3481 
z
" transform="scale(0.015625)"/>
       </defs>
       <use xlink:href="#DejaVuSans-30"/>
       <use xlink:href="#DejaVuSans-2e" x="63.623047"/>
       <use xlink:href="#DejaVuSans-38" x="95.410156"/>
      </g>
     </g>
    </g>
    <g id="ytick_15">
     <g id="line2d_32">
      <g>
       <use xlink:href="#m0b5c155bf2" x="478.325" y="14.76" style="stroke: #000000; stroke-width: 0.8"/>
      </g>
     </g>
     <g id="text_37">
      <!-- 1.0 -->
      <g transform="translate(455.421875 18.559219) scale(0.1 -0.1)">
       <use xlink:href="#DejaVuSans-31"/>
       <use xlink:href="#DejaVuSans-2e" x="63.623047"/>
       <use xlink:href="#DejaVuSans-30" x="95.410156"/>
      </g>
     </g>
    </g>
    <g id="text_38">
     <!-- Cumulative Density -->
     <g transform="translate(448.92625 261.002187) rotate(-90) scale(0.12 -0.12)">
      <defs>
       <path id="DejaVuSans-43" d="M 4122 4306 
L 4122 3641 
Q 3803 3938 3442 4084 
Q 3081 4231 2675 4231 
Q 1875 4231 1450 3742 
Q 1025 3253 1025 2328 
Q 1025 1406 1450 917 
Q 1875 428 2675 428 
Q 3081 428 3442 575 
Q 3803 722 4122 1019 
L 4122 359 
Q 3791 134 3420 21 
Q 3050 -91 2638 -91 
Q 1578 -91 968 557 
Q 359 1206 359 2328 
Q 359 3453 968 4101 
Q 1578 4750 2638 4750 
Q 3056 4750 3426 4639 
Q 3797 4528 4122 4306 
z
" transform="scale(0.015625)"/>
       <path id="DejaVuSans-6d" d="M 3328 2828 
Q 3544 3216 3844 3400 
Q 4144 3584 4550 3584 
Q 5097 3584 5394 3201 
Q 5691 2819 5691 2113 
L 5691 0 
L 5113 0 
L 5113 2094 
Q 5113 2597 4934 2840 
Q 4756 3084 4391 3084 
Q 3944 3084 3684 2787 
Q 3425 2491 3425 1978 
L 3425 0 
L 2847 0 
L 2847 2094 
Q 2847 2600 2669 2842 
Q 2491 3084 2119 3084 
Q 1678 3084 1418 2786 
Q 1159 2488 1159 1978 
L 1159 0 
L 581 0 
L 581 3500 
L 1159 3500 
L 1159 2956 
Q 1356 3278 1631 3431 
Q 1906 3584 2284 3584 
Q 2666 3584 2933 3390 
Q 3200 3197 3328 2828 
z
" transform="scale(0.015625)"/>
       <path id="DejaVuSans-76" d="M 191 3500 
L 800 3500 
L 1894 563 
L 2988 3500 
L 3597 3500 
L 2284 0 
L 1503 0 
L 191 3500 
z
" transform="scale(0.015625)"/>
      </defs>
      <use xlink:href="#DejaVuSans-43"/>
      <use xlink:href="#DejaVuSans-75" x="69.824219"/>
      <use xlink:href="#DejaVuSans-6d" x="133.203125"/>
      <use xlink:href="#DejaVuSans-75" x="230.615234"/>
      <use xlink:href="#DejaVuSans-6c" x="293.994141"/>
      <use xlink:href="#DejaVuSans-61" x="321.777344"/>
      <use xlink:href="#DejaVuSans-74" x="383.056641"/>
      <use xlink:href="#DejaVuSans-69" x="422.265625"/>
      <use xlink:href="#DejaVuSans-76" x="450.048828"/>
      <use xlink:href="#DejaVuSans-65" x="509.228516"/>
      <use xlink:href="#DejaVuSans-20" x="570.751953"/>
      <use xlink:href="#DejaVuSans-44" x="602.539062"/>
      <use xlink:href="#DejaVuSans-65" x="679.541016"/>
      <use xlink:href="#DejaVuSans-6e" x="741.064453"/>
      <use xlink:href="#DejaVuSans-73" x="804.443359"/>
      <use xlink:href="#DejaVuSans-69" x="856.542969"/>
      <use xlink:href="#DejaVuSans-74" x="884.326172"/>
      <use xlink:href="#DejaVuSans-79" x="923.535156"/>
     </g>
    </g>
   </g>
   <g id="line2d_33">
    <path d="M 501.952671 14.76 
L 501.952671 18.5056 
L 530.735321 18.5056 
L 530.735321 22.2512 
L 539.956859 22.2512 
L 539.956859 25.9968 
L 548.529221 25.9968 
L 548.529221 29.7424 
L 558.629245 29.7424 
L 558.629245 33.488 
L 560.824422 33.488 
L 560.824422 37.2336 
L 567.298605 37.2336 
L 567.298605 40.9792 
L 570.301211 40.9792 
L 570.301211 44.7248 
L 582.55499 44.7248 
L 582.55499 48.4704 
L 585.265292 48.4704 
L 585.265292 52.216 
L 589.440198 52.216 
L 589.440198 55.9616 
L 591.256469 55.9616 
L 591.256469 59.7072 
L 598.220157 59.7072 
L 598.220157 63.4528 
L 606.507136 63.4528 
L 606.507136 67.1984 
L 614.81965 67.1984 
L 614.81965 70.944 
L 617.2942 70.944 
L 617.2942 74.6896 
L 621.629541 74.6896 
L 621.629541 78.4352 
L 631.48269 78.4352 
L 631.48269 82.1808 
L 632.075289 82.1808 
L 632.075289 85.9264 
L 643.544098 85.9264 
L 643.544098 89.672 
L 648.161064 89.672 
L 648.161064 93.4176 
L 649.452799 93.4176 
L 649.452799 97.1632 
L 658.406427 97.1632 
L 658.406427 100.9088 
L 664.591859 100.9088 
L 664.591859 104.6544 
L 665.620899 104.6544 
L 665.703158 112.1456 
L 668.224013 112.1456 
L 668.224013 115.8912 
L 669.812275 115.8912 
L 669.812275 119.6368 
L 673.970124 119.6368 
L 673.970124 123.3824 
L 676.506617 123.3824 
L 676.506617 127.128 
L 677.44168 127.128 
L 677.44168 130.8736 
L 678.601927 130.8736 
L 678.601927 134.6192 
L 678.734498 134.6192 
L 678.734498 138.3648 
L 679.132603 138.3648 
L 679.132603 142.1104 
L 682.451943 142.1104 
L 682.451943 145.856 
L 685.795151 145.856 
L 685.795151 149.6016 
L 685.971191 149.6016 
L 685.971191 153.3472 
L 692.605604 153.3472 
L 692.605604 157.0928 
L 702.606443 157.0928 
L 702.606443 160.8384 
L 702.960062 160.8384 
L 702.960062 164.584 
L 703.142101 164.584 
L 703.142101 168.3296 
L 703.545729 168.3296 
L 703.545729 172.0752 
L 703.858911 172.0752 
L 703.858911 175.8208 
L 706.124327 175.8208 
L 706.124327 179.5664 
L 707.541096 179.5664 
L 707.541096 183.312 
L 709.855525 183.312 
L 709.855525 187.0576 
L 711.044902 187.0576 
L 711.044902 190.8032 
L 711.273746 190.8032 
L 711.273746 194.5488 
L 715.52934 194.5488 
L 715.52934 198.2944 
L 716.820707 198.2944 
L 716.820707 202.04 
L 717.975278 202.04 
L 717.975278 205.7856 
L 719.62687 205.7856 
L 719.678504 213.2768 
L 720.747156 213.2768 
L 720.747156 217.0224 
L 727.091215 217.0224 
L 727.091215 220.768 
L 727.410267 220.768 
L 727.410267 224.5136 
L 732.923939 224.5136 
L 732.923939 228.2592 
L 736.074234 228.2592 
L 736.074234 232.0048 
L 736.304962 232.0048 
L 736.304962 235.7504 
L 738.381688 235.7504 
L 738.381688 239.496 
L 740.136742 239.496 
L 740.136742 243.2416 
L 741.012483 243.2416 
L 741.012483 246.9872 
L 741.520721 246.9872 
L 741.520721 250.7328 
L 741.637699 250.7328 
L 741.637699 254.4784 
L 744.277936 254.4784 
L 744.277936 258.224 
L 744.739609 258.224 
L 744.739609 261.9696 
L 745.487369 261.9696 
L 745.487369 265.7152 
L 746.84291 265.7152 
L 746.84291 269.4608 
L 747.671651 269.4608 
L 747.671651 273.2064 
L 750.039576 273.2064 
L 750.039576 276.952 
L 750.28579 276.952 
L 750.28579 280.6976 
L 753.209754 280.6976 
L 753.209754 284.4432 
L 753.705842 284.4432 
L 753.743875 291.9344 
L 755.531655 291.9344 
L 755.531655 295.68 
L 756.354548 295.68 
L 756.354548 299.4256 
L 763.215552 299.4256 
L 763.215552 303.1712 
L 767.092058 303.1712 
L 767.092058 306.9168 
L 768.260491 306.9168 
L 768.260491 310.6624 
L 768.546491 310.6624 
L 768.546491 314.408 
L 770.03194 314.408 
L 770.03194 318.1536 
L 770.749638 318.1536 
L 770.749638 321.8992 
L 771.065961 321.8992 
L 771.065961 325.6448 
L 776.828987 325.6448 
L 776.828987 329.3904 
L 777.903596 329.3904 
L 777.903596 333.136 
L 781.016227 333.136 
L 781.016227 336.8816 
L 784.298574 336.8816 
L 784.298574 340.6272 
L 784.62722 340.6272 
L 784.62722 344.3728 
L 786.759999 344.3728 
L 786.759999 348.1184 
L 787.095121 348.1184 
L 787.095121 351.864 
L 788.984241 351.864 
L 788.984241 355.6096 
L 789.727756 355.6096 
L 789.727756 359.3552 
L 789.95543 359.3552 
L 789.95543 363.1008 
L 793.047486 363.1008 
L 793.058315 370.592 
L 796.241683 370.592 
L 796.241683 374.3376 
L 798.938384 374.3376 
L 798.938384 378.0832 
L 800.320674 378.0832 
L 800.320674 381.8288 
L 804.667363 381.8288 
L 804.667363 385.5744 
L 805.11786 385.5744 
L 805.11786 389.32 
L 805.11786 389.32 
" clip-path="url(#pb8a534cb51)" style="fill: none; stroke: #808080; stroke-width: 1.5; stroke-linecap: square"/>
   </g>
   <g id="line2d_34">
    <path d="M 511.776403 14.76 
L 511.776403 18.5056 
L 602.498167 18.5056 
L 602.498167 22.2512 
L 650.911002 22.2512 
L 650.911002 25.9968 
L 664.365225 25.9968 
L 664.365225 29.7424 
L 694.495894 29.7424 
L 694.495894 33.488 
L 715.226922 33.488 
L 715.226922 37.2336 
L 716.199237 37.2336 
L 716.199237 40.9792 
L 724.765221 40.9792 
L 724.765221 44.7248 
L 727.374617 44.7248 
L 727.374617 48.4704 
L 730.646698 48.4704 
L 730.646698 52.216 
L 732.911788 52.216 
L 732.911788 55.9616 
L 747.64761 55.9616 
L 747.664591 63.4528 
L 747.8128 63.4528 
L 747.860795 74.6896 
L 757.565432 74.6896 
L 757.565432 78.4352 
L 759.740358 78.4352 
L 759.740358 82.1808 
L 762.911705 82.1808 
L 762.911705 85.9264 
L 765.449823 85.9264 
L 765.449823 89.672 
L 766.167802 89.672 
L 766.167802 93.4176 
L 767.590658 93.4176 
L 767.590658 97.1632 
L 768.513116 97.1632 
L 768.513116 100.9088 
L 768.952762 100.9088 
L 768.952762 104.6544 
L 774.793845 104.6544 
L 774.793845 108.4 
L 777.978339 108.4 
L 777.978339 112.1456 
L 780.010103 112.1456 
L 780.010103 115.8912 
L 780.45512 115.8912 
L 780.45512 119.6368 
L 781.027944 119.6368 
L 781.027944 123.3824 
L 783.678274 123.3824 
L 783.678274 127.128 
L 783.819921 127.128 
L 783.819921 130.8736 
L 784.294676 130.8736 
L 784.294676 134.6192 
L 786.650732 134.6192 
L 786.650732 138.3648 
L 788.464155 138.3648 
L 788.464155 142.1104 
L 789.551131 142.1104 
L 789.551131 145.856 
L 790.403415 145.856 
L 790.403415 149.6016 
L 790.65487 149.6016 
L 790.65487 153.3472 
L 793.51453 153.3472 
L 793.51453 157.0928 
L 794.513962 157.0928 
L 794.513962 160.8384 
L 794.69115 160.8384 
L 794.69115 164.584 
L 795.177644 164.584 
L 795.177644 168.3296 
L 796.261717 168.3296 
L 796.261717 172.0752 
L 797.287529 172.0752 
L 797.377412 183.312 
L 799.164542 183.312 
L 799.164542 187.0576 
L 800.588893 187.0576 
L 800.588893 190.8032 
L 800.7201 190.8032 
L 800.7201 194.5488 
L 801.49006 194.5488 
L 801.49006 198.2944 
L 801.753796 198.2944 
L 801.753796 202.04 
L 801.927648 202.04 
L 801.927648 205.7856 
L 803.062684 205.7856 
L 803.062684 209.5312 
L 803.394904 209.5312 
L 803.496851 220.768 
L 804.405772 220.768 
L 804.405772 224.5136 
L 804.731386 224.5136 
L 804.731386 228.2592 
L 805.760078 228.2592 
L 805.760078 232.0048 
L 806.320124 232.0048 
L 806.320124 235.7504 
L 807.173383 235.7504 
L 807.281242 243.2416 
L 808.061728 243.2416 
L 808.061728 246.9872 
L 808.491693 246.9872 
L 808.491693 250.7328 
L 808.728421 250.7328 
L 808.728421 254.4784 
L 809.546159 254.4784 
L 809.546159 258.224 
L 810.009781 258.224 
L 810.009781 261.9696 
L 810.831462 261.9696 
L 810.863257 269.4608 
L 811.609652 269.4608 
L 811.609652 273.2064 
L 811.855043 273.2064 
L 811.855043 276.952 
L 812.677157 276.952 
L 812.677157 280.6976 
L 813.119294 280.6976 
L 813.119294 284.4432 
L 813.723479 284.4432 
L 813.723479 288.1888 
L 814.132435 288.1888 
L 814.166612 303.1712 
L 814.354977 303.1712 
L 814.354977 306.9168 
L 814.518715 306.9168 
L 814.611673 318.1536 
L 815.097668 318.1536 
L 815.097668 321.8992 
L 816.317866 321.8992 
L 816.317866 325.6448 
L 816.606617 325.6448 
L 816.606617 329.3904 
L 817.051894 329.3904 
L 817.051894 333.136 
L 818.068956 333.136 
L 818.068956 336.8816 
L 819.030637 336.8816 
L 819.117618 344.3728 
L 819.423523 344.3728 
L 819.423523 348.1184 
L 821.175458 348.1184 
L 821.175458 351.864 
L 821.324533 351.864 
L 821.324533 355.6096 
L 821.762642 355.6096 
L 821.762642 359.3552 
L 822.646634 359.3552 
L 822.646634 363.1008 
L 825.507268 363.1008 
L 825.507268 366.8464 
L 826.054579 366.8464 
L 826.054579 370.592 
L 826.779467 370.592 
L 826.779467 374.3376 
L 827.92869 374.3376 
L 828.037242 381.8288 
L 830.252561 381.8288 
L 830.252561 385.5744 
L 831.618109 385.5744 
L 831.618109 389.32 
L 831.618109 389.32 
" clip-path="url(#pb8a534cb51)" style="fill: none; stroke: #ffa500; stroke-width: 1.5; stroke-linecap: square"/>
   </g>
   <g id="line2d_35">
    <path d="M 495.364773 14.76 
L 495.364773 18.5056 
L 544.24375 18.5056 
L 544.24375 22.2512 
L 578.224392 22.2512 
L 578.224392 25.9968 
L 582.145633 25.9968 
L 582.145633 29.7424 
L 585.296589 29.7424 
L 585.296589 33.488 
L 616.769913 33.488 
L 616.769913 37.2336 
L 637.551491 37.2336 
L 637.551491 40.9792 
L 655.646981 40.9792 
L 655.646981 44.7248 
L 656.801467 44.7248 
L 656.801467 48.4704 
L 662.382908 48.4704 
L 662.382908 52.216 
L 667.221159 52.216 
L 667.221159 55.9616 
L 682.995269 55.9616 
L 682.995269 59.7072 
L 688.428696 59.7072 
L 688.428696 63.4528 
L 688.753119 63.4528 
L 688.753119 67.1984 
L 690.05813 67.1984 
L 690.05813 70.944 
L 695.238045 70.944 
L 695.238045 74.6896 
L 712.5195 74.6896 
L 712.5195 78.4352 
L 718.962538 78.4352 
L 718.962538 82.1808 
L 723.755545 82.1808 
L 723.755545 85.9264 
L 725.108162 85.9264 
L 725.108162 89.672 
L 726.555947 89.672 
L 726.555947 93.4176 
L 734.71852 93.4176 
L 734.71852 97.1632 
L 735.688149 97.1632 
L 735.688149 100.9088 
L 739.916952 100.9088 
L 739.916952 104.6544 
L 743.804546 104.6544 
L 743.804546 108.4 
L 744.011103 108.4 
L 744.011103 112.1456 
L 744.903607 112.1456 
L 744.903607 115.8912 
L 750.953955 115.8912 
L 751.062811 123.3824 
L 752.385864 123.3824 
L 752.385864 127.128 
L 757.678771 127.128 
L 757.678771 130.8736 
L 758.463957 130.8736 
L 758.463957 134.6192 
L 759.47424 134.6192 
L 759.47424 138.3648 
L 761.161611 138.3648 
L 761.161611 142.1104 
L 762.537749 142.1104 
L 762.537749 145.856 
L 762.797088 145.856 
L 762.797088 149.6016 
L 764.506941 149.6016 
L 764.538736 157.0928 
L 765.857544 157.0928 
L 765.859493 164.584 
L 768.088652 164.584 
L 768.088652 168.3296 
L 771.107545 168.3296 
L 771.107545 172.0752 
L 772.028032 172.0752 
L 772.028032 175.8208 
L 775.348217 175.8208 
L 775.348217 179.5664 
L 776.456807 179.5664 
L 776.456807 183.312 
L 781.220423 183.312 
L 781.220423 187.0576 
L 781.475041 187.0576 
L 781.534688 194.5488 
L 782.69931 194.5488 
L 782.69931 198.2944 
L 783.708293 198.2944 
L 783.708293 202.04 
L 784.717666 202.04 
L 784.717666 205.7856 
L 785.187396 205.7856 
L 785.187396 209.5312 
L 785.369284 209.5312 
L 785.369284 213.2768 
L 785.72496 213.2768 
L 785.72496 217.0224 
L 786.518896 217.0224 
L 786.518896 220.768 
L 787.639594 220.768 
L 787.639594 224.5136 
L 788.131567 224.5136 
L 788.131567 228.2592 
L 788.536755 228.2592 
L 788.536755 232.0048 
L 789.646493 232.0048 
L 789.694272 239.496 
L 790.186765 239.496 
L 790.186765 243.2416 
L 791.020878 243.2416 
L 791.020878 246.9872 
L 791.678711 246.9872 
L 791.678711 250.7328 
L 793.904622 250.7328 
L 793.904622 254.4784 
L 794.026451 254.4784 
L 794.026451 258.224 
L 794.833295 258.224 
L 794.833295 261.9696 
L 796.483262 261.9696 
L 796.483262 265.7152 
L 797.410463 265.7152 
L 797.410463 269.4608 
L 797.889852 269.4608 
L 797.889852 273.2064 
L 798.498132 273.2064 
L 798.498132 276.952 
L 798.707678 276.952 
L 798.707678 280.6976 
L 799.645448 280.6976 
L 799.704359 288.1888 
L 799.761776 288.1888 
L 799.761776 291.9344 
L 801.939474 291.9344 
L 801.943069 299.4256 
L 802.072522 299.4256 
L 802.072522 303.1712 
L 802.320707 303.1712 
L 802.320707 306.9168 
L 803.243056 306.9168 
L 803.247518 314.408 
L 803.782873 314.408 
L 803.782873 318.1536 
L 805.42017 318.1536 
L 805.42017 321.8992 
L 806.093793 321.8992 
L 806.093793 325.6448 
L 806.234573 325.6448 
L 806.234573 329.3904 
L 806.64015 329.3904 
L 806.64015 333.136 
L 807.033729 333.136 
L 807.033729 336.8816 
L 807.268204 336.8816 
L 807.268204 340.6272 
L 808.089559 340.6272 
L 808.089559 344.3728 
L 808.487426 344.3728 
L 808.487426 348.1184 
L 810.359068 348.1184 
L 810.359068 351.864 
L 812.601569 351.864 
L 812.601569 355.6096 
L 814.98877 355.6096 
L 814.98877 359.3552 
L 816.028465 359.3552 
L 816.028465 363.1008 
L 816.401814 363.1008 
L 816.401814 366.8464 
L 817.102337 366.8464 
L 817.102337 370.592 
L 817.867879 370.592 
L 817.867879 374.3376 
L 819.304661 374.3376 
L 819.304661 378.0832 
L 822.018689 378.0832 
L 822.018689 381.8288 
L 822.336549 381.8288 
L 822.336549 385.5744 
L 822.742689 385.5744 
L 822.742689 389.32 
L 822.742689 389.32 
" clip-path="url(#pb8a534cb51)" style="fill: none; stroke: #0000ff; stroke-width: 1.5; stroke-linecap: square"/>
   </g>
   <g id="line2d_36">
    <path d="M 572.853531 389.32 
L 572.853531 14.76 
" clip-path="url(#pb8a534cb51)" style="fill: none; stroke-dasharray: 11.1,4.8; stroke-dashoffset: 0; stroke: #ffa500; stroke-width: 3"/>
   </g>
   <g id="patch_89">
    <path d="M 478.325 389.32 
L 478.325 14.76 
" style="fill: none; stroke: #000000; stroke-width: 0.8; stroke-linejoin: miter; stroke-linecap: square"/>
   </g>
   <g id="patch_90">
    <path d="M 478.325 389.32 
L 853.2 389.32 
" style="fill: none; stroke: #000000; stroke-width: 0.8; stroke-linejoin: miter; stroke-linecap: square"/>
   </g>
   <g id="legend_2">
    <g id="patch_91">
     <path d="M 485.325 384.32 
L 690.595313 384.32 
Q 692.595313 384.32 692.595313 382.32 
L 692.595313 339.285625 
Q 692.595313 337.285625 690.595313 337.285625 
L 485.325 337.285625 
Q 483.325 337.285625 483.325 339.285625 
L 483.325 382.32 
Q 483.325 384.32 485.325 384.32 
z
" style="fill: #ffffff; opacity: 0.8; stroke: #000000; stroke-linejoin: miter"/>
    </g>
    <g id="patch_92">
     <path d="M 487.325 348.884063 
L 507.325 348.884063 
L 507.325 341.884063 
L 487.325 341.884063 
z
" style="fill: #ff0000; opacity: 0.8; stroke: #ff0000; stroke-linejoin: miter"/>
    </g>
    <g id="text_39">
     <!-- Less than WT Log Fluorescence -->
     <g transform="translate(515.325 348.884063) scale(0.1 -0.1)">
      <defs>
       <path id="DejaVuSans-4c" d="M 628 4666 
L 1259 4666 
L 1259 531 
L 3531 531 
L 3531 0 
L 628 0 
L 628 4666 
z
" transform="scale(0.015625)"/>
       <path id="DejaVuSans-68" d="M 3513 2113 
L 3513 0 
L 2938 0 
L 2938 2094 
Q 2938 2591 2744 2837 
Q 2550 3084 2163 3084 
Q 1697 3084 1428 2787 
Q 1159 2491 1159 1978 
L 1159 0 
L 581 0 
L 581 4863 
L 1159 4863 
L 1159 2956 
Q 1366 3272 1645 3428 
Q 1925 3584 2291 3584 
Q 2894 3584 3203 3211 
Q 3513 2838 3513 2113 
z
" transform="scale(0.015625)"/>
       <path id="DejaVuSans-57" d="M 213 4666 
L 850 4666 
L 1831 722 
L 2809 4666 
L 3519 4666 
L 4500 722 
L 5478 4666 
L 6119 4666 
L 4947 0 
L 4153 0 
L 3169 4050 
L 2175 0 
L 1381 0 
L 213 4666 
z
" transform="scale(0.015625)"/>
      </defs>
      <use xlink:href="#DejaVuSans-4c"/>
      <use xlink:href="#DejaVuSans-65" x="53.962891"/>
      <use xlink:href="#DejaVuSans-73" x="115.486328"/>
      <use xlink:href="#DejaVuSans-73" x="167.585938"/>
      <use xlink:href="#DejaVuSans-20" x="219.685547"/>
      <use xlink:href="#DejaVuSans-74" x="251.472656"/>
      <use xlink:href="#DejaVuSans-68" x="290.681641"/>
      <use xlink:href="#DejaVuSans-61" x="354.060547"/>
      <use xlink:href="#DejaVuSans-6e" x="415.339844"/>
      <use xlink:href="#DejaVuSans-20" x="478.71875"/>
      <use xlink:href="#DejaVuSans-57" x="510.505859"/>
      <use xlink:href="#DejaVuSans-54" x="609.382812"/>
      <use xlink:href="#DejaVuSans-20" x="670.466797"/>
      <use xlink:href="#DejaVuSans-4c" x="702.253906"/>
      <use xlink:href="#DejaVuSans-6f" x="756.216797"/>
      <use xlink:href="#DejaVuSans-67" x="817.398438"/>
      <use xlink:href="#DejaVuSans-20" x="880.875"/>
      <use xlink:href="#DejaVuSans-46" x="912.662109"/>
      <use xlink:href="#DejaVuSans-6c" x="970.181641"/>
      <use xlink:href="#DejaVuSans-75" x="997.964844"/>
      <use xlink:href="#DejaVuSans-6f" x="1061.34375"/>
      <use xlink:href="#DejaVuSans-72" x="1122.525391"/>
      <use xlink:href="#DejaVuSans-65" x="1161.388672"/>
      <use xlink:href="#DejaVuSans-73" x="1222.912109"/>
      <use xlink:href="#DejaVuSans-63" x="1275.011719"/>
      <use xlink:href="#DejaVuSans-65" x="1329.992188"/>
      <use xlink:href="#DejaVuSans-6e" x="1391.515625"/>
      <use xlink:href="#DejaVuSans-63" x="1454.894531"/>
      <use xlink:href="#DejaVuSans-65" x="1509.875"/>
     </g>
    </g>
    <g id="patch_93">
     <path d="M 487.325 363.562187 
L 507.325 363.562187 
L 507.325 356.562187 
L 487.325 356.562187 
z
" style="fill: #ffa500; opacity: 0.8; stroke: #ffa500; stroke-linejoin: miter"/>
    </g>
    <g id="text_40">
     <!-- Mean WT Log Fluorescence -->
     <g transform="translate(515.325 363.562187) scale(0.1 -0.1)">
      <use xlink:href="#DejaVuSans-4d"/>
      <use xlink:href="#DejaVuSans-65" x="86.279297"/>
      <use xlink:href="#DejaVuSans-61" x="147.802734"/>
      <use xlink:href="#DejaVuSans-6e" x="209.082031"/>
      <use xlink:href="#DejaVuSans-20" x="272.460938"/>
      <use xlink:href="#DejaVuSans-57" x="304.248047"/>
      <use xlink:href="#DejaVuSans-54" x="403.125"/>
      <use xlink:href="#DejaVuSans-20" x="464.208984"/>
      <use xlink:href="#DejaVuSans-4c" x="495.996094"/>
      <use xlink:href="#DejaVuSans-6f" x="549.958984"/>
      <use xlink:href="#DejaVuSans-67" x="611.140625"/>
      <use xlink:href="#DejaVuSans-20" x="674.617188"/>
      <use xlink:href="#DejaVuSans-46" x="706.404297"/>
      <use xlink:href="#DejaVuSans-6c" x="763.923828"/>
      <use xlink:href="#DejaVuSans-75" x="791.707031"/>
      <use xlink:href="#DejaVuSans-6f" x="855.085938"/>
      <use xlink:href="#DejaVuSans-72" x="916.267578"/>
      <use xlink:href="#DejaVuSans-65" x="955.130859"/>
      <use xlink:href="#DejaVuSans-73" x="1016.654297"/>
      <use xlink:href="#DejaVuSans-63" x="1068.753906"/>
      <use xlink:href="#DejaVuSans-65" x="1123.734375"/>
      <use xlink:href="#DejaVuSans-6e" x="1185.257812"/>
      <use xlink:href="#DejaVuSans-63" x="1248.636719"/>
      <use xlink:href="#DejaVuSans-65" x="1303.617188"/>
     </g>
    </g>
    <g id="patch_94">
     <path d="M 487.325 378.240313 
L 507.325 378.240313 
L 507.325 371.240313 
L 487.325 371.240313 
z
" style="fill: #008000; opacity: 0.8; stroke: #008000; stroke-linejoin: miter"/>
    </g>
    <g id="text_41">
     <!-- Greater than WT Log Fluorescence -->
     <g transform="translate(515.325 378.240313) scale(0.1 -0.1)">
      <defs>
       <path id="DejaVuSans-47" d="M 3809 666 
L 3809 1919 
L 2778 1919 
L 2778 2438 
L 4434 2438 
L 4434 434 
Q 4069 175 3628 42 
Q 3188 -91 2688 -91 
Q 1594 -91 976 548 
Q 359 1188 359 2328 
Q 359 3472 976 4111 
Q 1594 4750 2688 4750 
Q 3144 4750 3555 4637 
Q 3966 4525 4313 4306 
L 4313 3634 
Q 3963 3931 3569 4081 
Q 3175 4231 2741 4231 
Q 1884 4231 1454 3753 
Q 1025 3275 1025 2328 
Q 1025 1384 1454 906 
Q 1884 428 2741 428 
Q 3075 428 3337 486 
Q 3600 544 3809 666 
z
" transform="scale(0.015625)"/>
      </defs>
      <use xlink:href="#DejaVuSans-47"/>
      <use xlink:href="#DejaVuSans-72" x="77.490234"/>
      <use xlink:href="#DejaVuSans-65" x="116.353516"/>
      <use xlink:href="#DejaVuSans-61" x="177.876953"/>
      <use xlink:href="#DejaVuSans-74" x="239.15625"/>
      <use xlink:href="#DejaVuSans-65" x="278.365234"/>
      <use xlink:href="#DejaVuSans-72" x="339.888672"/>
      <use xlink:href="#DejaVuSans-20" x="381.001953"/>
      <use xlink:href="#DejaVuSans-74" x="412.789062"/>
      <use xlink:href="#DejaVuSans-68" x="451.998047"/>
      <use xlink:href="#DejaVuSans-61" x="515.376953"/>
      <use xlink:href="#DejaVuSans-6e" x="576.65625"/>
      <use xlink:href="#DejaVuSans-20" x="640.035156"/>
      <use xlink:href="#DejaVuSans-57" x="671.822266"/>
      <use xlink:href="#DejaVuSans-54" x="770.699219"/>
      <use xlink:href="#DejaVuSans-20" x="831.783203"/>
      <use xlink:href="#DejaVuSans-4c" x="863.570312"/>
      <use xlink:href="#DejaVuSans-6f" x="917.533203"/>
      <use xlink:href="#DejaVuSans-67" x="978.714844"/>
      <use xlink:href="#DejaVuSans-20" x="1042.191406"/>
      <use xlink:href="#DejaVuSans-46" x="1073.978516"/>
      <use xlink:href="#DejaVuSans-6c" x="1131.498047"/>
      <use xlink:href="#DejaVuSans-75" x="1159.28125"/>
      <use xlink:href="#DejaVuSans-6f" x="1222.660156"/>
      <use xlink:href="#DejaVuSans-72" x="1283.841797"/>
      <use xlink:href="#DejaVuSans-65" x="1322.705078"/>
      <use xlink:href="#DejaVuSans-73" x="1384.228516"/>
      <use xlink:href="#DejaVuSans-63" x="1436.328125"/>
      <use xlink:href="#DejaVuSans-65" x="1491.308594"/>
      <use xlink:href="#DejaVuSans-6e" x="1552.832031"/>
      <use xlink:href="#DejaVuSans-63" x="1616.210938"/>
      <use xlink:href="#DejaVuSans-65" x="1671.191406"/>
     </g>
    </g>
   </g>
  </g>
 </g>
 <defs>
  <clipPath id="pd7f278c08c">
   <rect x="54.92" y="14.76" width="374.875" height="374.56"/>
  </clipPath>
  <clipPath id="pb8a534cb51">
   <rect x="478.325" y="14.76" width="374.875" height="374.56"/>
  </clipPath>
 </defs>
</svg>
