<?xml version="1.0" encoding="utf-8" standalone="no"?>
<!DOCTYPE svg PUBLIC "-//W3C//DTD SVG 1.1//EN"
  "http://www.w3.org/Graphics/SVG/1.1/DTD/svg11.dtd">
<svg xmlns:xlink="http://www.w3.org/1999/xlink" width="432pt" height="432pt" viewBox="0 0 432 432" xmlns="http://www.w3.org/2000/svg" version="1.1">
 <metadata>
  <rdf:RDF xmlns:dc="http://purl.org/dc/elements/1.1/" xmlns:cc="http://creativecommons.org/ns#" xmlns:rdf="http://www.w3.org/1999/02/22-rdf-syntax-ns#">
   <cc:Work>
    <dc:type rdf:resource="http://purl.org/dc/dcmitype/StillImage"/>
    <dc:date>2024-11-06T11:26:53.544987</dc:date>
    <dc:format>image/svg+xml</dc:format>
    <dc:creator>
     <cc:Agent>
      <dc:title>Matplotlib v3.7.1, https://matplotlib.org/</dc:title>
     </cc:Agent>
    </dc:creator>
   </cc:Work>
  </rdf:RDF>
 </metadata>
 <defs>
  <style type="text/css">*{stroke-linejoin: round; stroke-linecap: butt}</style>
 </defs>
 <g id="figure_1">
  <g id="patch_1">
   <path d="M 0 432 
L 432 432 
L 432 0 
L 0 0 
z
" style="fill: #ffffff"/>
  </g>
  <g id="axes_1">
   <g id="patch_2">
    <path d="M 48.17 387.16 
L 421.2 387.16 
L 421.2 10.8 
L 48.17 10.8 
z
" style="fill: #ffffff"/>
   </g>
   <g id="PolyCollection_1">
    <defs>
     <path id="m6d4e45b0bc" d="M 65.125909 -45.40674 
L 65.125909 -44.84 
L 66.830021 -44.84 
L 68.534132 -44.84 
L 70.238243 -44.84 
L 71.942355 -44.84 
L 73.646466 -44.84 
L 75.350578 -44.84 
L 77.054689 -44.84 
L 78.758801 -44.84 
L 80.462912 -44.84 
L 82.167024 -44.84 
L 83.871135 -44.84 
L 85.575247 -44.84 
L 87.279358 -44.84 
L 88.98347 -44.84 
L 90.687581 -44.84 
L 92.391693 -44.84 
L 94.095804 -44.84 
L 95.799915 -44.84 
L 97.504027 -44.84 
L 99.208138 -44.84 
L 100.91225 -44.84 
L 102.616361 -44.84 
L 104.320473 -44.84 
L 106.024584 -44.84 
L 107.728696 -44.84 
L 109.432807 -44.84 
L 111.136919 -44.84 
L 112.84103 -44.84 
L 114.545142 -44.84 
L 116.249253 -44.84 
L 117.953365 -44.84 
L 119.657476 -44.84 
L 121.361587 -44.84 
L 123.065699 -44.84 
L 124.76981 -44.84 
L 126.473922 -44.84 
L 128.178033 -44.84 
L 129.882145 -44.84 
L 131.586256 -44.84 
L 133.290368 -44.84 
L 134.994479 -44.84 
L 136.698591 -44.84 
L 138.402702 -44.84 
L 140.106814 -44.84 
L 141.810925 -44.84 
L 143.515037 -44.84 
L 145.219148 -44.84 
L 146.923259 -44.84 
L 148.627371 -44.84 
L 150.331482 -44.84 
L 152.035594 -44.84 
L 153.739705 -44.84 
L 155.443817 -44.84 
L 157.147928 -44.84 
L 158.85204 -44.84 
L 160.556151 -44.84 
L 162.260263 -44.84 
L 163.964374 -44.84 
L 165.668486 -44.84 
L 167.372597 -44.84 
L 169.076709 -44.84 
L 170.78082 -44.84 
L 172.484931 -44.84 
L 174.189043 -44.84 
L 175.893154 -44.84 
L 177.597266 -44.84 
L 179.301377 -44.84 
L 181.005489 -44.84 
L 182.7096 -44.84 
L 184.413712 -44.84 
L 186.117823 -44.84 
L 187.821935 -44.84 
L 189.526046 -44.84 
L 191.230158 -44.84 
L 192.934269 -44.84 
L 194.638381 -44.84 
L 196.342492 -44.84 
L 198.046603 -44.84 
L 199.750715 -44.84 
L 201.454826 -44.84 
L 203.158938 -44.84 
L 204.863049 -44.84 
L 206.567161 -44.84 
L 208.271272 -44.84 
L 209.975384 -44.84 
L 211.679495 -44.84 
L 213.383607 -44.84 
L 215.087718 -44.84 
L 216.79183 -44.84 
L 218.495941 -44.84 
L 220.200053 -44.84 
L 221.904164 -44.84 
L 223.608275 -44.84 
L 225.312387 -44.84 
L 227.016498 -44.84 
L 228.72061 -44.84 
L 230.424721 -44.84 
L 232.128833 -44.84 
L 233.832944 -44.84 
L 235.537056 -44.84 
L 237.241167 -44.84 
L 238.945279 -44.84 
L 240.64939 -44.84 
L 242.353502 -44.84 
L 244.057613 -44.84 
L 245.761725 -44.84 
L 247.465836 -44.84 
L 249.169947 -44.84 
L 250.874059 -44.84 
L 252.57817 -44.84 
L 254.282282 -44.84 
L 255.986393 -44.84 
L 257.690505 -44.84 
L 259.394616 -44.84 
L 261.098728 -44.84 
L 262.802839 -44.84 
L 264.506951 -44.84 
L 266.211062 -44.84 
L 267.915174 -44.84 
L 269.619285 -44.84 
L 271.323397 -44.84 
L 273.027508 -44.84 
L 274.731619 -44.84 
L 276.435731 -44.84 
L 278.139842 -44.84 
L 279.843954 -44.84 
L 281.548065 -44.84 
L 283.252177 -44.84 
L 284.956288 -44.84 
L 286.6604 -44.84 
L 288.364511 -44.84 
L 290.068623 -44.84 
L 291.772734 -44.84 
L 293.476846 -44.84 
L 295.180957 -44.84 
L 296.885069 -44.84 
L 298.58918 -44.84 
L 300.293291 -44.84 
L 301.997403 -44.84 
L 303.701514 -44.84 
L 305.405626 -44.84 
L 307.109737 -44.84 
L 308.813849 -44.84 
L 310.51796 -44.84 
L 312.222072 -44.84 
L 313.926183 -44.84 
L 315.630295 -44.84 
L 317.334406 -44.84 
L 319.038518 -44.84 
L 320.742629 -44.84 
L 322.446741 -44.84 
L 324.150852 -44.84 
L 325.854963 -44.84 
L 327.559075 -44.84 
L 329.263186 -44.84 
L 330.967298 -44.84 
L 332.671409 -44.84 
L 334.375521 -44.84 
L 336.079632 -44.84 
L 337.783744 -44.84 
L 339.487855 -44.84 
L 341.191967 -44.84 
L 342.896078 -44.84 
L 344.60019 -44.84 
L 346.304301 -44.84 
L 348.008413 -44.84 
L 349.712524 -44.84 
L 351.416635 -44.84 
L 353.120747 -44.84 
L 354.824858 -44.84 
L 356.52897 -44.84 
L 358.233081 -44.84 
L 359.937193 -44.84 
L 361.641304 -44.84 
L 363.345416 -44.84 
L 365.049527 -44.84 
L 366.753639 -44.84 
L 368.45775 -44.84 
L 370.161862 -44.84 
L 371.865973 -44.84 
L 373.570085 -44.84 
L 375.274196 -44.84 
L 376.978307 -44.84 
L 378.682419 -44.84 
L 380.38653 -44.84 
L 382.090642 -44.84 
L 383.794753 -44.84 
L 385.498865 -44.84 
L 387.202976 -44.84 
L 388.907088 -44.84 
L 390.611199 -44.84 
L 392.315311 -44.84 
L 394.019422 -44.84 
L 395.723534 -44.84 
L 397.427645 -44.84 
L 399.131757 -44.84 
L 400.835868 -44.84 
L 402.539979 -44.84 
L 404.244091 -44.84 
L 404.244091 -44.905814 
L 404.244091 -44.905814 
L 402.539979 -44.932719 
L 400.835868 -44.96925 
L 399.131757 -45.018291 
L 397.427645 -45.083389 
L 395.723534 -45.168835 
L 394.019422 -45.279743 
L 392.315311 -45.422111 
L 390.611199 -45.602858 
L 388.907088 -45.829834 
L 387.202976 -46.111792 
L 385.498865 -46.458324 
L 383.794753 -46.879745 
L 382.090642 -47.386947 
L 380.38653 -47.991209 
L 378.682419 -48.703982 
L 376.978307 -49.536661 
L 375.274196 -50.500367 
L 373.570085 -51.60575 
L 371.865973 -52.862839 
L 370.161862 -54.280966 
L 368.45775 -55.868768 
L 366.753639 -57.634295 
L 365.049527 -59.585208 
L 363.345416 -61.729073 
L 361.641304 -64.073729 
L 359.937193 -66.627693 
L 358.233081 -69.400571 
L 356.52897 -72.403419 
L 354.824858 -75.649002 
L 353.120747 -79.151911 
L 351.416635 -82.928473 
L 349.712524 -86.996439 
L 348.008413 -91.37443 
L 346.304301 -96.081133 
L 344.60019 -101.134299 
L 342.896078 -106.549569 
L 341.191967 -112.339216 
L 339.487855 -118.510891 
L 337.783744 -125.066455 
L 336.079632 -132.001016 
L 334.375521 -139.30224 
L 332.671409 -146.950025 
L 330.967298 -154.916568 
L 329.263186 -163.16685 
L 327.559075 -171.659517 
L 325.854963 -180.348101 
L 324.150852 -189.182506 
L 322.446741 -198.110649 
L 320.742629 -207.08014 
L 319.038518 -216.039891 
L 317.334406 -224.941527 
L 315.630295 -233.740525 
L 313.926183 -242.397015 
L 312.222072 -250.876194 
L 310.51796 -259.148377 
L 308.813849 -267.188701 
L 307.109737 -274.976552 
L 305.405626 -282.494791 
L 303.701514 -289.728877 
L 301.997403 -296.665989 
L 300.293291 -303.294228 
L 298.58918 -309.602 
L 296.885069 -315.577626 
L 295.180957 -321.209227 
L 293.476846 -326.4849 
L 291.772734 -331.393162 
L 290.068623 -335.923642 
L 288.364511 -340.067944 
L 286.6604 -343.820618 
L 284.956288 -347.180149 
L 283.252177 -350.149875 
L 281.548065 -352.73874 
L 279.843954 -354.96181 
L 278.139842 -356.840488 
L 276.435731 -358.40238 
L 274.731619 -359.680787 
L 273.027508 -360.713833 
L 271.323397 -361.543261 
L 269.619285 -362.212923 
L 267.915174 -362.767065 
L 266.211062 -363.248466 
L 264.506951 -363.696552 
L 262.802839 -364.145567 
L 261.098728 -364.622924 
L 259.394616 -365.147835 
L 257.690505 -365.730309 
L 255.986393 -366.370603 
L 254.282282 -367.059176 
L 252.57817 -367.777196 
L 250.874059 -368.497583 
L 249.169947 -369.186563 
L 247.465836 -369.805674 
L 245.761725 -370.314113 
L 244.057613 -370.671284 
L 242.353502 -370.839409 
L 240.64939 -370.786013 
L 238.945279 -370.486118 
L 237.241167 -369.923992 
L 235.537056 -369.094315 
L 233.832944 -368.002683 
L 232.128833 -366.665405 
L 230.424721 -365.108614 
L 228.72061 -363.366777 
L 227.016498 -361.480718 
L 225.312387 -359.495334 
L 223.608275 -357.457199 
L 221.904164 -355.412239 
L 220.200053 -353.403684 
L 218.495941 -351.470439 
L 216.79183 -349.64599 
L 215.087718 -347.957888 
L 213.383607 -346.427818 
L 211.679495 -345.072176 
L 209.975384 -343.903054 
L 208.271272 -342.929471 
L 206.567161 -342.158704 
L 204.863049 -341.597544 
L 203.158938 -341.253331 
L 201.454826 -341.134657 
L 199.750715 -341.251656 
L 198.046603 -341.615864 
L 196.342492 -342.239661 
L 194.638381 -343.135353 
L 192.934269 -344.313993 
L 191.230158 -345.784049 
L 189.526046 -347.550042 
L 187.821935 -349.611281 
L 186.117823 -351.960788 
L 184.413712 -354.584514 
L 182.7096 -357.460898 
L 181.005489 -360.56082 
L 179.301377 -363.847935 
L 177.597266 -367.279396 
L 175.893154 -370.806929 
L 174.189043 -374.378187 
L 172.484931 -377.938343 
L 170.78082 -381.431821 
L 169.076709 -384.804081 
L 167.372597 -388.003356 
L 165.668486 -390.982231 
L 163.964374 -393.698967 
L 162.260263 -396.11846 
L 160.556151 -398.212741 
L 158.85204 -399.960964 
L 157.147928 -401.348831 
L 155.443817 -402.367453 
L 153.739705 -403.011694 
L 152.035594 -403.278095 
L 150.331482 -403.16249 
L 148.627371 -402.657513 
L 146.923259 -401.750188 
L 145.219148 -400.419815 
L 143.515037 -398.636381 
L 141.810925 -396.35968 
L 140.106814 -393.539304 
L 138.402702 -390.115612 
L 136.698591 -386.021696 
L 134.994479 -381.18632 
L 133.290368 -375.537708 
L 131.586256 -369.00798 
L 129.882145 -361.537997 
L 128.178033 -353.082289 
L 126.473922 -343.613755 
L 124.76981 -333.127786 
L 123.065699 -321.645488 
L 121.361587 -309.215759 
L 119.657476 -295.915984 
L 117.953365 -281.851268 
L 116.249253 -267.152168 
L 114.545142 -251.971017 
L 112.84103 -236.477038 
L 111.136919 -220.850509 
L 109.432807 -205.276331 
L 107.728696 -189.937374 
L 106.024584 -175.007993 
L 104.320473 -160.648096 
L 102.616361 -146.998074 
L 100.91225 -134.174864 
L 99.208138 -122.269286 
L 97.504027 -111.344753 
L 95.799915 -101.437304 
L 94.095804 -92.556858 
L 92.391693 -84.689507 
L 90.687581 -77.800617 
L 88.98347 -71.838469 
L 87.279358 -66.738189 
L 85.575247 -62.4257 
L 83.871135 -58.821501 
L 82.167024 -55.844079 
L 80.462912 -53.412847 
L 78.758801 -51.450527 
L 77.054689 -49.884952 
L 75.350578 -48.650311 
L 73.646466 -47.687872 
L 71.942355 -46.946266 
L 70.238243 -46.381403 
L 68.534132 -45.956114 
L 66.830021 -45.639596 
L 65.125909 -45.40674 
z
" style="stroke: #808080; stroke-width: 2.5"/>
    </defs>
    <g clip-path="url(#p9e1709a33b)">
     <use xlink:href="#m6d4e45b0bc" x="0" y="432" style="fill: #808080; stroke: #808080; stroke-width: 2.5"/>
    </g>
   </g>
   <g id="matplotlib.axis_1">
    <g id="xtick_1">
     <g id="line2d_1">
      <defs>
       <path id="m591128c220" d="M 0 0 
L 0 3.5 
" style="stroke: #000000; stroke-width: 0.8"/>
      </defs>
      <g>
       <use xlink:href="#m591128c220" x="61.083167" y="387.16" style="stroke: #000000; stroke-width: 0.8"/>
      </g>
     </g>
     <g id="text_1">
      <!-- 4.14 -->
      <g transform="translate(49.950354 401.758438) scale(0.1 -0.1)">
       <defs>
        <path id="DejaVuSans-34" d="M 2419 4116 
L 825 1625 
L 2419 1625 
L 2419 4116 
z
M 2253 4666 
L 3047 4666 
L 3047 1625 
L 3713 1625 
L 3713 1100 
L 3047 1100 
L 3047 0 
L 2419 0 
L 2419 1100 
L 313 1100 
L 313 1709 
L 2253 4666 
z
" transform="scale(0.015625)"/>
        <path id="DejaVuSans-2e" d="M 684 794 
L 1344 794 
L 1344 0 
L 684 0 
L 684 794 
z
" transform="scale(0.015625)"/>
        <path id="DejaVuSans-31" d="M 794 531 
L 1825 531 
L 1825 4091 
L 703 3866 
L 703 4441 
L 1819 4666 
L 2450 4666 
L 2450 531 
L 3481 531 
L 3481 0 
L 794 0 
L 794 531 
z
" transform="scale(0.015625)"/>
       </defs>
       <use xlink:href="#DejaVuSans-34"/>
       <use xlink:href="#DejaVuSans-2e" x="63.623047"/>
       <use xlink:href="#DejaVuSans-31" x="95.410156"/>
       <use xlink:href="#DejaVuSans-34" x="159.033203"/>
      </g>
     </g>
    </g>
    <g id="xtick_2">
     <g id="line2d_2">
      <g>
       <use xlink:href="#m591128c220" x="113.521775" y="387.16" style="stroke: #000000; stroke-width: 0.8"/>
      </g>
     </g>
     <g id="text_2">
      <!-- 4.15 -->
      <g transform="translate(102.388962 401.758438) scale(0.1 -0.1)">
       <defs>
        <path id="DejaVuSans-35" d="M 691 4666 
L 3169 4666 
L 3169 4134 
L 1269 4134 
L 1269 2991 
Q 1406 3038 1543 3061 
Q 1681 3084 1819 3084 
Q 2600 3084 3056 2656 
Q 3513 2228 3513 1497 
Q 3513 744 3044 326 
Q 2575 -91 1722 -91 
Q 1428 -91 1123 -41 
Q 819 9 494 109 
L 494 744 
Q 775 591 1075 516 
Q 1375 441 1709 441 
Q 2250 441 2565 725 
Q 2881 1009 2881 1497 
Q 2881 1984 2565 2268 
Q 2250 2553 1709 2553 
Q 1456 2553 1204 2497 
Q 953 2441 691 2322 
L 691 4666 
z
" transform="scale(0.015625)"/>
       </defs>
       <use xlink:href="#DejaVuSans-34"/>
       <use xlink:href="#DejaVuSans-2e" x="63.623047"/>
       <use xlink:href="#DejaVuSans-31" x="95.410156"/>
       <use xlink:href="#DejaVuSans-35" x="159.033203"/>
      </g>
     </g>
    </g>
    <g id="xtick_3">
     <g id="line2d_3">
      <g>
       <use xlink:href="#m591128c220" x="165.960383" y="387.16" style="stroke: #000000; stroke-width: 0.8"/>
      </g>
     </g>
     <g id="text_3">
      <!-- 4.16 -->
      <g transform="translate(154.827571 401.758438) scale(0.1 -0.1)">
       <defs>
        <path id="DejaVuSans-36" d="M 2113 2584 
Q 1688 2584 1439 2293 
Q 1191 2003 1191 1497 
Q 1191 994 1439 701 
Q 1688 409 2113 409 
Q 2538 409 2786 701 
Q 3034 994 3034 1497 
Q 3034 2003 2786 2293 
Q 2538 2584 2113 2584 
z
M 3366 4563 
L 3366 3988 
Q 3128 4100 2886 4159 
Q 2644 4219 2406 4219 
Q 1781 4219 1451 3797 
Q 1122 3375 1075 2522 
Q 1259 2794 1537 2939 
Q 1816 3084 2150 3084 
Q 2853 3084 3261 2657 
Q 3669 2231 3669 1497 
Q 3669 778 3244 343 
Q 2819 -91 2113 -91 
Q 1303 -91 875 529 
Q 447 1150 447 2328 
Q 447 3434 972 4092 
Q 1497 4750 2381 4750 
Q 2619 4750 2861 4703 
Q 3103 4656 3366 4563 
z
" transform="scale(0.015625)"/>
       </defs>
       <use xlink:href="#DejaVuSans-34"/>
       <use xlink:href="#DejaVuSans-2e" x="63.623047"/>
       <use xlink:href="#DejaVuSans-31" x="95.410156"/>
       <use xlink:href="#DejaVuSans-36" x="159.033203"/>
      </g>
     </g>
    </g>
    <g id="xtick_4">
     <g id="line2d_4">
      <g>
       <use xlink:href="#m591128c220" x="218.398991" y="387.16" style="stroke: #000000; stroke-width: 0.8"/>
      </g>
     </g>
     <g id="text_4">
      <!-- 4.17 -->
      <g transform="translate(207.266179 401.758438) scale(0.1 -0.1)">
       <defs>
        <path id="DejaVuSans-37" d="M 525 4666 
L 3525 4666 
L 3525 4397 
L 1831 0 
L 1172 0 
L 2766 4134 
L 525 4134 
L 525 4666 
z
" transform="scale(0.015625)"/>
       </defs>
       <use xlink:href="#DejaVuSans-34"/>
       <use xlink:href="#DejaVuSans-2e" x="63.623047"/>
       <use xlink:href="#DejaVuSans-31" x="95.410156"/>
       <use xlink:href="#DejaVuSans-37" x="159.033203"/>
      </g>
     </g>
    </g>
    <g id="xtick_5">
     <g id="line2d_5">
      <g>
       <use xlink:href="#m591128c220" x="270.8376" y="387.16" style="stroke: #000000; stroke-width: 0.8"/>
      </g>
     </g>
     <g id="text_5">
      <!-- 4.18 -->
      <g transform="translate(259.704787 401.758438) scale(0.1 -0.1)">
       <defs>
        <path id="DejaVuSans-38" d="M 2034 2216 
Q 1584 2216 1326 1975 
Q 1069 1734 1069 1313 
Q 1069 891 1326 650 
Q 1584 409 2034 409 
Q 2484 409 2743 651 
Q 3003 894 3003 1313 
Q 3003 1734 2745 1975 
Q 2488 2216 2034 2216 
z
M 1403 2484 
Q 997 2584 770 2862 
Q 544 3141 544 3541 
Q 544 4100 942 4425 
Q 1341 4750 2034 4750 
Q 2731 4750 3128 4425 
Q 3525 4100 3525 3541 
Q 3525 3141 3298 2862 
Q 3072 2584 2669 2484 
Q 3125 2378 3379 2068 
Q 3634 1759 3634 1313 
Q 3634 634 3220 271 
Q 2806 -91 2034 -91 
Q 1263 -91 848 271 
Q 434 634 434 1313 
Q 434 1759 690 2068 
Q 947 2378 1403 2484 
z
M 1172 3481 
Q 1172 3119 1398 2916 
Q 1625 2713 2034 2713 
Q 2441 2713 2670 2916 
Q 2900 3119 2900 3481 
Q 2900 3844 2670 4047 
Q 2441 4250 2034 4250 
Q 1625 4250 1398 4047 
Q 1172 3844 1172 3481 
z
" transform="scale(0.015625)"/>
       </defs>
       <use xlink:href="#DejaVuSans-34"/>
       <use xlink:href="#DejaVuSans-2e" x="63.623047"/>
       <use xlink:href="#DejaVuSans-31" x="95.410156"/>
       <use xlink:href="#DejaVuSans-38" x="159.033203"/>
      </g>
     </g>
    </g>
    <g id="xtick_6">
     <g id="line2d_6">
      <g>
       <use xlink:href="#m591128c220" x="323.276208" y="387.16" style="stroke: #000000; stroke-width: 0.8"/>
      </g>
     </g>
     <g id="text_6">
      <!-- 4.19 -->
      <g transform="translate(312.143395 401.758438) scale(0.1 -0.1)">
       <defs>
        <path id="DejaVuSans-39" d="M 703 97 
L 703 672 
Q 941 559 1184 500 
Q 1428 441 1663 441 
Q 2288 441 2617 861 
Q 2947 1281 2994 2138 
Q 2813 1869 2534 1725 
Q 2256 1581 1919 1581 
Q 1219 1581 811 2004 
Q 403 2428 403 3163 
Q 403 3881 828 4315 
Q 1253 4750 1959 4750 
Q 2769 4750 3195 4129 
Q 3622 3509 3622 2328 
Q 3622 1225 3098 567 
Q 2575 -91 1691 -91 
Q 1453 -91 1209 -44 
Q 966 3 703 97 
z
M 1959 2075 
Q 2384 2075 2632 2365 
Q 2881 2656 2881 3163 
Q 2881 3666 2632 3958 
Q 2384 4250 1959 4250 
Q 1534 4250 1286 3958 
Q 1038 3666 1038 3163 
Q 1038 2656 1286 2365 
Q 1534 2075 1959 2075 
z
" transform="scale(0.015625)"/>
       </defs>
       <use xlink:href="#DejaVuSans-34"/>
       <use xlink:href="#DejaVuSans-2e" x="63.623047"/>
       <use xlink:href="#DejaVuSans-31" x="95.410156"/>
       <use xlink:href="#DejaVuSans-39" x="159.033203"/>
      </g>
     </g>
    </g>
    <g id="xtick_7">
     <g id="line2d_7">
      <g>
       <use xlink:href="#m591128c220" x="375.714816" y="387.16" style="stroke: #000000; stroke-width: 0.8"/>
      </g>
     </g>
     <g id="text_7">
      <!-- 4.20 -->
      <g transform="translate(364.582004 401.758438) scale(0.1 -0.1)">
       <defs>
        <path id="DejaVuSans-32" d="M 1228 531 
L 3431 531 
L 3431 0 
L 469 0 
L 469 531 
Q 828 903 1448 1529 
Q 2069 2156 2228 2338 
Q 2531 2678 2651 2914 
Q 2772 3150 2772 3378 
Q 2772 3750 2511 3984 
Q 2250 4219 1831 4219 
Q 1534 4219 1204 4116 
Q 875 4013 500 3803 
L 500 4441 
Q 881 4594 1212 4672 
Q 1544 4750 1819 4750 
Q 2544 4750 2975 4387 
Q 3406 4025 3406 3419 
Q 3406 3131 3298 2873 
Q 3191 2616 2906 2266 
Q 2828 2175 2409 1742 
Q 1991 1309 1228 531 
z
" transform="scale(0.015625)"/>
        <path id="DejaVuSans-30" d="M 2034 4250 
Q 1547 4250 1301 3770 
Q 1056 3291 1056 2328 
Q 1056 1369 1301 889 
Q 1547 409 2034 409 
Q 2525 409 2770 889 
Q 3016 1369 3016 2328 
Q 3016 3291 2770 3770 
Q 2525 4250 2034 4250 
z
M 2034 4750 
Q 2819 4750 3233 4129 
Q 3647 3509 3647 2328 
Q 3647 1150 3233 529 
Q 2819 -91 2034 -91 
Q 1250 -91 836 529 
Q 422 1150 422 2328 
Q 422 3509 836 4129 
Q 1250 4750 2034 4750 
z
" transform="scale(0.015625)"/>
       </defs>
       <use xlink:href="#DejaVuSans-34"/>
       <use xlink:href="#DejaVuSans-2e" x="63.623047"/>
       <use xlink:href="#DejaVuSans-32" x="95.410156"/>
       <use xlink:href="#DejaVuSans-30" x="159.033203"/>
      </g>
     </g>
    </g>
    <g id="text_8">
     <!-- Predicted Fluorescence -->
     <g transform="translate(165.08875 416.95625) scale(0.12 -0.12)">
      <defs>
       <path id="DejaVuSans-50" d="M 1259 4147 
L 1259 2394 
L 2053 2394 
Q 2494 2394 2734 2622 
Q 2975 2850 2975 3272 
Q 2975 3691 2734 3919 
Q 2494 4147 2053 4147 
L 1259 4147 
z
M 628 4666 
L 2053 4666 
Q 2838 4666 3239 4311 
Q 3641 3956 3641 3272 
Q 3641 2581 3239 2228 
Q 2838 1875 2053 1875 
L 1259 1875 
L 1259 0 
L 628 0 
L 628 4666 
z
" transform="scale(0.015625)"/>
       <path id="DejaVuSans-72" d="M 2631 2963 
Q 2534 3019 2420 3045 
Q 2306 3072 2169 3072 
Q 1681 3072 1420 2755 
Q 1159 2438 1159 1844 
L 1159 0 
L 581 0 
L 581 3500 
L 1159 3500 
L 1159 2956 
Q 1341 3275 1631 3429 
Q 1922 3584 2338 3584 
Q 2397 3584 2469 3576 
Q 2541 3569 2628 3553 
L 2631 2963 
z
" transform="scale(0.015625)"/>
       <path id="DejaVuSans-65" d="M 3597 1894 
L 3597 1613 
L 953 1613 
Q 991 1019 1311 708 
Q 1631 397 2203 397 
Q 2534 397 2845 478 
Q 3156 559 3463 722 
L 3463 178 
Q 3153 47 2828 -22 
Q 2503 -91 2169 -91 
Q 1331 -91 842 396 
Q 353 884 353 1716 
Q 353 2575 817 3079 
Q 1281 3584 2069 3584 
Q 2775 3584 3186 3129 
Q 3597 2675 3597 1894 
z
M 3022 2063 
Q 3016 2534 2758 2815 
Q 2500 3097 2075 3097 
Q 1594 3097 1305 2825 
Q 1016 2553 972 2059 
L 3022 2063 
z
" transform="scale(0.015625)"/>
       <path id="DejaVuSans-64" d="M 2906 2969 
L 2906 4863 
L 3481 4863 
L 3481 0 
L 2906 0 
L 2906 525 
Q 2725 213 2448 61 
Q 2172 -91 1784 -91 
Q 1150 -91 751 415 
Q 353 922 353 1747 
Q 353 2572 751 3078 
Q 1150 3584 1784 3584 
Q 2172 3584 2448 3432 
Q 2725 3281 2906 2969 
z
M 947 1747 
Q 947 1113 1208 752 
Q 1469 391 1925 391 
Q 2381 391 2643 752 
Q 2906 1113 2906 1747 
Q 2906 2381 2643 2742 
Q 2381 3103 1925 3103 
Q 1469 3103 1208 2742 
Q 947 2381 947 1747 
z
" transform="scale(0.015625)"/>
       <path id="DejaVuSans-69" d="M 603 3500 
L 1178 3500 
L 1178 0 
L 603 0 
L 603 3500 
z
M 603 4863 
L 1178 4863 
L 1178 4134 
L 603 4134 
L 603 4863 
z
" transform="scale(0.015625)"/>
       <path id="DejaVuSans-63" d="M 3122 3366 
L 3122 2828 
Q 2878 2963 2633 3030 
Q 2388 3097 2138 3097 
Q 1578 3097 1268 2742 
Q 959 2388 959 1747 
Q 959 1106 1268 751 
Q 1578 397 2138 397 
Q 2388 397 2633 464 
Q 2878 531 3122 666 
L 3122 134 
Q 2881 22 2623 -34 
Q 2366 -91 2075 -91 
Q 1284 -91 818 406 
Q 353 903 353 1747 
Q 353 2603 823 3093 
Q 1294 3584 2113 3584 
Q 2378 3584 2631 3529 
Q 2884 3475 3122 3366 
z
" transform="scale(0.015625)"/>
       <path id="DejaVuSans-74" d="M 1172 4494 
L 1172 3500 
L 2356 3500 
L 2356 3053 
L 1172 3053 
L 1172 1153 
Q 1172 725 1289 603 
Q 1406 481 1766 481 
L 2356 481 
L 2356 0 
L 1766 0 
Q 1100 0 847 248 
Q 594 497 594 1153 
L 594 3053 
L 172 3053 
L 172 3500 
L 594 3500 
L 594 4494 
L 1172 4494 
z
" transform="scale(0.015625)"/>
       <path id="DejaVuSans-20" transform="scale(0.015625)"/>
       <path id="DejaVuSans-46" d="M 628 4666 
L 3309 4666 
L 3309 4134 
L 1259 4134 
L 1259 2759 
L 3109 2759 
L 3109 2228 
L 1259 2228 
L 1259 0 
L 628 0 
L 628 4666 
z
" transform="scale(0.015625)"/>
       <path id="DejaVuSans-6c" d="M 603 4863 
L 1178 4863 
L 1178 0 
L 603 0 
L 603 4863 
z
" transform="scale(0.015625)"/>
       <path id="DejaVuSans-75" d="M 544 1381 
L 544 3500 
L 1119 3500 
L 1119 1403 
Q 1119 906 1312 657 
Q 1506 409 1894 409 
Q 2359 409 2629 706 
Q 2900 1003 2900 1516 
L 2900 3500 
L 3475 3500 
L 3475 0 
L 2900 0 
L 2900 538 
Q 2691 219 2414 64 
Q 2138 -91 1772 -91 
Q 1169 -91 856 284 
Q 544 659 544 1381 
z
M 1991 3584 
L 1991 3584 
z
" transform="scale(0.015625)"/>
       <path id="DejaVuSans-6f" d="M 1959 3097 
Q 1497 3097 1228 2736 
Q 959 2375 959 1747 
Q 959 1119 1226 758 
Q 1494 397 1959 397 
Q 2419 397 2687 759 
Q 2956 1122 2956 1747 
Q 2956 2369 2687 2733 
Q 2419 3097 1959 3097 
z
M 1959 3584 
Q 2709 3584 3137 3096 
Q 3566 2609 3566 1747 
Q 3566 888 3137 398 
Q 2709 -91 1959 -91 
Q 1206 -91 779 398 
Q 353 888 353 1747 
Q 353 2609 779 3096 
Q 1206 3584 1959 3584 
z
" transform="scale(0.015625)"/>
       <path id="DejaVuSans-73" d="M 2834 3397 
L 2834 2853 
Q 2591 2978 2328 3040 
Q 2066 3103 1784 3103 
Q 1356 3103 1142 2972 
Q 928 2841 928 2578 
Q 928 2378 1081 2264 
Q 1234 2150 1697 2047 
L 1894 2003 
Q 2506 1872 2764 1633 
Q 3022 1394 3022 966 
Q 3022 478 2636 193 
Q 2250 -91 1575 -91 
Q 1294 -91 989 -36 
Q 684 19 347 128 
L 347 722 
Q 666 556 975 473 
Q 1284 391 1588 391 
Q 1994 391 2212 530 
Q 2431 669 2431 922 
Q 2431 1156 2273 1281 
Q 2116 1406 1581 1522 
L 1381 1569 
Q 847 1681 609 1914 
Q 372 2147 372 2553 
Q 372 3047 722 3315 
Q 1072 3584 1716 3584 
Q 2034 3584 2315 3537 
Q 2597 3491 2834 3397 
z
" transform="scale(0.015625)"/>
       <path id="DejaVuSans-6e" d="M 3513 2113 
L 3513 0 
L 2938 0 
L 2938 2094 
Q 2938 2591 2744 2837 
Q 2550 3084 2163 3084 
Q 1697 3084 1428 2787 
Q 1159 2491 1159 1978 
L 1159 0 
L 581 0 
L 581 3500 
L 1159 3500 
L 1159 2956 
Q 1366 3272 1645 3428 
Q 1925 3584 2291 3584 
Q 2894 3584 3203 3211 
Q 3513 2838 3513 2113 
z
" transform="scale(0.015625)"/>
      </defs>
      <use xlink:href="#DejaVuSans-50"/>
      <use xlink:href="#DejaVuSans-72" x="58.552734"/>
      <use xlink:href="#DejaVuSans-65" x="97.416016"/>
      <use xlink:href="#DejaVuSans-64" x="158.939453"/>
      <use xlink:href="#DejaVuSans-69" x="222.416016"/>
      <use xlink:href="#DejaVuSans-63" x="250.199219"/>
      <use xlink:href="#DejaVuSans-74" x="305.179688"/>
      <use xlink:href="#DejaVuSans-65" x="344.388672"/>
      <use xlink:href="#DejaVuSans-64" x="405.912109"/>
      <use xlink:href="#DejaVuSans-20" x="469.388672"/>
      <use xlink:href="#DejaVuSans-46" x="501.175781"/>
      <use xlink:href="#DejaVuSans-6c" x="558.695312"/>
      <use xlink:href="#DejaVuSans-75" x="586.478516"/>
      <use xlink:href="#DejaVuSans-6f" x="649.857422"/>
      <use xlink:href="#DejaVuSans-72" x="711.039062"/>
      <use xlink:href="#DejaVuSans-65" x="749.902344"/>
      <use xlink:href="#DejaVuSans-73" x="811.425781"/>
      <use xlink:href="#DejaVuSans-63" x="863.525391"/>
      <use xlink:href="#DejaVuSans-65" x="918.505859"/>
      <use xlink:href="#DejaVuSans-6e" x="980.029297"/>
      <use xlink:href="#DejaVuSans-63" x="1043.408203"/>
      <use xlink:href="#DejaVuSans-65" x="1098.388672"/>
     </g>
    </g>
   </g>
   <g id="matplotlib.axis_2">
    <g id="ytick_1">
     <g id="line2d_8">
      <defs>
       <path id="m2233e84926" d="M 0 0 
L -3.5 0 
" style="stroke: #000000; stroke-width: 0.8"/>
      </defs>
      <g>
       <use xlink:href="#m2233e84926" x="48.17" y="387.16" style="stroke: #000000; stroke-width: 0.8"/>
      </g>
     </g>
     <g id="text_9">
      <!-- 0 -->
      <g transform="translate(34.8075 390.959219) scale(0.1 -0.1)">
       <use xlink:href="#DejaVuSans-30"/>
      </g>
     </g>
    </g>
    <g id="ytick_2">
     <g id="line2d_9">
      <g>
       <use xlink:href="#m2233e84926" x="48.17" y="321.402679" style="stroke: #000000; stroke-width: 0.8"/>
      </g>
     </g>
     <g id="text_10">
      <!-- 5 -->
      <g transform="translate(34.8075 325.201898) scale(0.1 -0.1)">
       <use xlink:href="#DejaVuSans-35"/>
      </g>
     </g>
    </g>
    <g id="ytick_3">
     <g id="line2d_10">
      <g>
       <use xlink:href="#m2233e84926" x="48.17" y="255.645358" style="stroke: #000000; stroke-width: 0.8"/>
      </g>
     </g>
     <g id="text_11">
      <!-- 10 -->
      <g transform="translate(28.445 259.444577) scale(0.1 -0.1)">
       <use xlink:href="#DejaVuSans-31"/>
       <use xlink:href="#DejaVuSans-30" x="63.623047"/>
      </g>
     </g>
    </g>
    <g id="ytick_4">
     <g id="line2d_11">
      <g>
       <use xlink:href="#m2233e84926" x="48.17" y="189.888037" style="stroke: #000000; stroke-width: 0.8"/>
      </g>
     </g>
     <g id="text_12">
      <!-- 15 -->
      <g transform="translate(28.445 193.687256) scale(0.1 -0.1)">
       <use xlink:href="#DejaVuSans-31"/>
       <use xlink:href="#DejaVuSans-35" x="63.623047"/>
      </g>
     </g>
    </g>
    <g id="ytick_5">
     <g id="line2d_12">
      <g>
       <use xlink:href="#m2233e84926" x="48.17" y="124.130716" style="stroke: #000000; stroke-width: 0.8"/>
      </g>
     </g>
     <g id="text_13">
      <!-- 20 -->
      <g transform="translate(28.445 127.929935) scale(0.1 -0.1)">
       <use xlink:href="#DejaVuSans-32"/>
       <use xlink:href="#DejaVuSans-30" x="63.623047"/>
      </g>
     </g>
    </g>
    <g id="ytick_6">
     <g id="line2d_13">
      <g>
       <use xlink:href="#m2233e84926" x="48.17" y="58.373395" style="stroke: #000000; stroke-width: 0.8"/>
      </g>
     </g>
     <g id="text_14">
      <!-- 25 -->
      <g transform="translate(28.445 62.172614) scale(0.1 -0.1)">
       <use xlink:href="#DejaVuSans-32"/>
       <use xlink:href="#DejaVuSans-35" x="63.623047"/>
      </g>
     </g>
    </g>
    <g id="text_15">
     <!-- Density -->
     <g transform="translate(21.533438 225.592031) rotate(-90) scale(0.14 -0.14)">
      <defs>
       <path id="DejaVuSans-44" d="M 1259 4147 
L 1259 519 
L 2022 519 
Q 2988 519 3436 956 
Q 3884 1394 3884 2338 
Q 3884 3275 3436 3711 
Q 2988 4147 2022 4147 
L 1259 4147 
z
M 628 4666 
L 1925 4666 
Q 3281 4666 3915 4102 
Q 4550 3538 4550 2338 
Q 4550 1131 3912 565 
Q 3275 0 1925 0 
L 628 0 
L 628 4666 
z
" transform="scale(0.015625)"/>
       <path id="DejaVuSans-79" d="M 2059 -325 
Q 1816 -950 1584 -1140 
Q 1353 -1331 966 -1331 
L 506 -1331 
L 506 -850 
L 844 -850 
Q 1081 -850 1212 -737 
Q 1344 -625 1503 -206 
L 1606 56 
L 191 3500 
L 800 3500 
L 1894 763 
L 2988 3500 
L 3597 3500 
L 2059 -325 
z
" transform="scale(0.015625)"/>
      </defs>
      <use xlink:href="#DejaVuSans-44"/>
      <use xlink:href="#DejaVuSans-65" x="77.001953"/>
      <use xlink:href="#DejaVuSans-6e" x="138.525391"/>
      <use xlink:href="#DejaVuSans-73" x="201.904297"/>
      <use xlink:href="#DejaVuSans-69" x="254.003906"/>
      <use xlink:href="#DejaVuSans-74" x="281.787109"/>
      <use xlink:href="#DejaVuSans-79" x="320.996094"/>
     </g>
    </g>
   </g>
   <g id="line2d_14">
    <path d="M 112.473003 387.16 
L 112.473003 10.8 
" clip-path="url(#p9e1709a33b)" style="fill: none; stroke-dasharray: 3.7,1.6; stroke-dashoffset: 0; stroke: #000000"/>
   </g>
   <g id="patch_3">
    <path d="M 48.17 387.16 
L 48.17 10.8 
" style="fill: none; stroke: #000000; stroke-width: 0.8; stroke-linejoin: miter; stroke-linecap: square"/>
   </g>
   <g id="patch_4">
    <path d="M 48.17 387.16 
L 421.2 387.16 
" style="fill: none; stroke: #000000; stroke-width: 0.8; stroke-linejoin: miter; stroke-linecap: square"/>
   </g>
   <g id="legend_1">
    <g id="patch_5">
     <path d="M 217.582812 33.478125 
L 414.2 33.478125 
Q 416.2 33.478125 416.2 31.478125 
L 416.2 17.8 
Q 416.2 15.8 414.2 15.8 
L 217.582812 15.8 
Q 215.582812 15.8 215.582812 17.8 
L 215.582812 31.478125 
Q 215.582812 33.478125 217.582812 33.478125 
z
" style="fill: #ffffff; opacity: 0.8; stroke: #cccccc; stroke-linejoin: miter"/>
    </g>
    <g id="patch_6">
     <path d="M 219.582812 27.398438 
L 239.582812 27.398438 
L 239.582812 20.398438 
L 219.582812 20.398438 
z
" style="fill: #808080; stroke: #808080; stroke-width: 2.5; stroke-linejoin: miter"/>
    </g>
    <g id="text_16">
     <!-- 1000 Unique Sequences from SA -->
     <g transform="translate(247.582812 27.398438) scale(0.1 -0.1)">
      <defs>
       <path id="DejaVuSans-55" d="M 556 4666 
L 1191 4666 
L 1191 1831 
Q 1191 1081 1462 751 
Q 1734 422 2344 422 
Q 2950 422 3222 751 
Q 3494 1081 3494 1831 
L 3494 4666 
L 4128 4666 
L 4128 1753 
Q 4128 841 3676 375 
Q 3225 -91 2344 -91 
Q 1459 -91 1007 375 
Q 556 841 556 1753 
L 556 4666 
z
" transform="scale(0.015625)"/>
       <path id="DejaVuSans-71" d="M 947 1747 
Q 947 1113 1208 752 
Q 1469 391 1925 391 
Q 2381 391 2643 752 
Q 2906 1113 2906 1747 
Q 2906 2381 2643 2742 
Q 2381 3103 1925 3103 
Q 1469 3103 1208 2742 
Q 947 2381 947 1747 
z
M 2906 525 
Q 2725 213 2448 61 
Q 2172 -91 1784 -91 
Q 1150 -91 751 415 
Q 353 922 353 1747 
Q 353 2572 751 3078 
Q 1150 3584 1784 3584 
Q 2172 3584 2448 3432 
Q 2725 3281 2906 2969 
L 2906 3500 
L 3481 3500 
L 3481 -1331 
L 2906 -1331 
L 2906 525 
z
" transform="scale(0.015625)"/>
       <path id="DejaVuSans-53" d="M 3425 4513 
L 3425 3897 
Q 3066 4069 2747 4153 
Q 2428 4238 2131 4238 
Q 1616 4238 1336 4038 
Q 1056 3838 1056 3469 
Q 1056 3159 1242 3001 
Q 1428 2844 1947 2747 
L 2328 2669 
Q 3034 2534 3370 2195 
Q 3706 1856 3706 1288 
Q 3706 609 3251 259 
Q 2797 -91 1919 -91 
Q 1588 -91 1214 -16 
Q 841 59 441 206 
L 441 856 
Q 825 641 1194 531 
Q 1563 422 1919 422 
Q 2459 422 2753 634 
Q 3047 847 3047 1241 
Q 3047 1584 2836 1778 
Q 2625 1972 2144 2069 
L 1759 2144 
Q 1053 2284 737 2584 
Q 422 2884 422 3419 
Q 422 4038 858 4394 
Q 1294 4750 2059 4750 
Q 2388 4750 2728 4690 
Q 3069 4631 3425 4513 
z
" transform="scale(0.015625)"/>
       <path id="DejaVuSans-66" d="M 2375 4863 
L 2375 4384 
L 1825 4384 
Q 1516 4384 1395 4259 
Q 1275 4134 1275 3809 
L 1275 3500 
L 2222 3500 
L 2222 3053 
L 1275 3053 
L 1275 0 
L 697 0 
L 697 3053 
L 147 3053 
L 147 3500 
L 697 3500 
L 697 3744 
Q 697 4328 969 4595 
Q 1241 4863 1831 4863 
L 2375 4863 
z
" transform="scale(0.015625)"/>
       <path id="DejaVuSans-6d" d="M 3328 2828 
Q 3544 3216 3844 3400 
Q 4144 3584 4550 3584 
Q 5097 3584 5394 3201 
Q 5691 2819 5691 2113 
L 5691 0 
L 5113 0 
L 5113 2094 
Q 5113 2597 4934 2840 
Q 4756 3084 4391 3084 
Q 3944 3084 3684 2787 
Q 3425 2491 3425 1978 
L 3425 0 
L 2847 0 
L 2847 2094 
Q 2847 2600 2669 2842 
Q 2491 3084 2119 3084 
Q 1678 3084 1418 2786 
Q 1159 2488 1159 1978 
L 1159 0 
L 581 0 
L 581 3500 
L 1159 3500 
L 1159 2956 
Q 1356 3278 1631 3431 
Q 1906 3584 2284 3584 
Q 2666 3584 2933 3390 
Q 3200 3197 3328 2828 
z
" transform="scale(0.015625)"/>
       <path id="DejaVuSans-41" d="M 2188 4044 
L 1331 1722 
L 3047 1722 
L 2188 4044 
z
M 1831 4666 
L 2547 4666 
L 4325 0 
L 3669 0 
L 3244 1197 
L 1141 1197 
L 716 0 
L 50 0 
L 1831 4666 
z
" transform="scale(0.015625)"/>
      </defs>
      <use xlink:href="#DejaVuSans-31"/>
      <use xlink:href="#DejaVuSans-30" x="63.623047"/>
      <use xlink:href="#DejaVuSans-30" x="127.246094"/>
      <use xlink:href="#DejaVuSans-30" x="190.869141"/>
      <use xlink:href="#DejaVuSans-20" x="254.492188"/>
      <use xlink:href="#DejaVuSans-55" x="286.279297"/>
      <use xlink:href="#DejaVuSans-6e" x="359.472656"/>
      <use xlink:href="#DejaVuSans-69" x="422.851562"/>
      <use xlink:href="#DejaVuSans-71" x="450.634766"/>
      <use xlink:href="#DejaVuSans-75" x="514.111328"/>
      <use xlink:href="#DejaVuSans-65" x="577.490234"/>
      <use xlink:href="#DejaVuSans-20" x="639.013672"/>
      <use xlink:href="#DejaVuSans-53" x="670.800781"/>
      <use xlink:href="#DejaVuSans-65" x="734.277344"/>
      <use xlink:href="#DejaVuSans-71" x="795.800781"/>
      <use xlink:href="#DejaVuSans-75" x="859.277344"/>
      <use xlink:href="#DejaVuSans-65" x="922.65625"/>
      <use xlink:href="#DejaVuSans-6e" x="984.179688"/>
      <use xlink:href="#DejaVuSans-63" x="1047.558594"/>
      <use xlink:href="#DejaVuSans-65" x="1102.539062"/>
      <use xlink:href="#DejaVuSans-73" x="1164.0625"/>
      <use xlink:href="#DejaVuSans-20" x="1216.162109"/>
      <use xlink:href="#DejaVuSans-66" x="1247.949219"/>
      <use xlink:href="#DejaVuSans-72" x="1283.154297"/>
      <use xlink:href="#DejaVuSans-6f" x="1322.017578"/>
      <use xlink:href="#DejaVuSans-6d" x="1383.199219"/>
      <use xlink:href="#DejaVuSans-20" x="1480.611328"/>
      <use xlink:href="#DejaVuSans-53" x="1512.398438"/>
      <use xlink:href="#DejaVuSans-41" x="1577.75"/>
     </g>
    </g>
   </g>
  </g>
 </g>
 <defs>
  <clipPath id="p9e1709a33b">
   <rect x="48.17" y="10.8" width="373.03" height="376.36"/>
  </clipPath>
 </defs>
</svg>
