<?xml version="1.0" encoding="utf-8" standalone="no"?>
<!DOCTYPE svg PUBLIC "-//W3C//DTD SVG 1.1//EN"
  "http://www.w3.org/Graphics/SVG/1.1/DTD/svg11.dtd">
<svg xmlns:xlink="http://www.w3.org/1999/xlink" width="432pt" height="432pt" viewBox="0 0 432 432" xmlns="http://www.w3.org/2000/svg" version="1.1">
 <metadata>
  <rdf:RDF xmlns:dc="http://purl.org/dc/elements/1.1/" xmlns:cc="http://creativecommons.org/ns#" xmlns:rdf="http://www.w3.org/1999/02/22-rdf-syntax-ns#">
   <cc:Work>
    <dc:type rdf:resource="http://purl.org/dc/dcmitype/StillImage"/>
    <dc:date>2024-11-06T11:26:54.042658</dc:date>
    <dc:format>image/svg+xml</dc:format>
    <dc:creator>
     <cc:Agent>
      <dc:title>Matplotlib v3.7.1, https://matplotlib.org/</dc:title>
     </cc:Agent>
    </dc:creator>
   </cc:Work>
  </rdf:RDF>
 </metadata>
 <defs>
  <style type="text/css">*{stroke-linejoin: round; stroke-linecap: butt}</style>
 </defs>
 <g id="figure_1">
  <g id="patch_1">
   <path d="M 0 432 
L 432 432 
L 432 0 
L 0 0 
z
" style="fill: #ffffff"/>
  </g>
  <g id="axes_1">
   <g id="patch_2">
    <path d="M 54.47 387.16 
L 421.2 387.16 
L 421.2 10.8 
L 54.47 10.8 
z
" style="fill: #ffffff"/>
   </g>
   <g id="PolyCollection_1">
    <defs>
     <path id="m0b2e496869" d="M 360.80709 -45.410187 
L 360.80709 -44.84 
L 361.026805 -44.84 
L 361.24652 -44.84 
L 361.466236 -44.84 
L 361.685951 -44.84 
L 361.905667 -44.84 
L 362.125382 -44.84 
L 362.345097 -44.84 
L 362.564813 -44.84 
L 362.784528 -44.84 
L 363.004244 -44.84 
L 363.223959 -44.84 
L 363.443674 -44.84 
L 363.66339 -44.84 
L 363.883105 -44.84 
L 364.102821 -44.84 
L 364.322536 -44.84 
L 364.542251 -44.84 
L 364.761967 -44.84 
L 364.981682 -44.84 
L 365.201398 -44.84 
L 365.421113 -44.84 
L 365.640828 -44.84 
L 365.860544 -44.84 
L 366.080259 -44.84 
L 366.299975 -44.84 
L 366.51969 -44.84 
L 366.739405 -44.84 
L 366.959121 -44.84 
L 367.178836 -44.84 
L 367.398552 -44.84 
L 367.618267 -44.84 
L 367.837982 -44.84 
L 368.057698 -44.84 
L 368.277413 -44.84 
L 368.497129 -44.84 
L 368.716844 -44.84 
L 368.936559 -44.84 
L 369.156275 -44.84 
L 369.37599 -44.84 
L 369.595706 -44.84 
L 369.815421 -44.84 
L 370.035136 -44.84 
L 370.254852 -44.84 
L 370.474567 -44.84 
L 370.694283 -44.84 
L 370.913998 -44.84 
L 371.133713 -44.84 
L 371.353429 -44.84 
L 371.573144 -44.84 
L 371.79286 -44.84 
L 372.012575 -44.84 
L 372.23229 -44.84 
L 372.452006 -44.84 
L 372.671721 -44.84 
L 372.891437 -44.84 
L 373.111152 -44.84 
L 373.330867 -44.84 
L 373.550583 -44.84 
L 373.770298 -44.84 
L 373.990014 -44.84 
L 374.209729 -44.84 
L 374.429444 -44.84 
L 374.64916 -44.84 
L 374.868875 -44.84 
L 375.088591 -44.84 
L 375.308306 -44.84 
L 375.528021 -44.84 
L 375.747737 -44.84 
L 375.967452 -44.84 
L 376.187168 -44.84 
L 376.406883 -44.84 
L 376.626598 -44.84 
L 376.846314 -44.84 
L 377.066029 -44.84 
L 377.285745 -44.84 
L 377.50546 -44.84 
L 377.725175 -44.84 
L 377.944891 -44.84 
L 378.164606 -44.84 
L 378.384322 -44.84 
L 378.604037 -44.84 
L 378.823753 -44.84 
L 379.043468 -44.84 
L 379.263183 -44.84 
L 379.482899 -44.84 
L 379.702614 -44.84 
L 379.92233 -44.84 
L 380.142045 -44.84 
L 380.36176 -44.84 
L 380.581476 -44.84 
L 380.801191 -44.84 
L 381.020907 -44.84 
L 381.240622 -44.84 
L 381.460337 -44.84 
L 381.680053 -44.84 
L 381.899768 -44.84 
L 382.119484 -44.84 
L 382.339199 -44.84 
L 382.558914 -44.84 
L 382.77863 -44.84 
L 382.998345 -44.84 
L 383.218061 -44.84 
L 383.437776 -44.84 
L 383.657491 -44.84 
L 383.877207 -44.84 
L 384.096922 -44.84 
L 384.316638 -44.84 
L 384.536353 -44.84 
L 384.756068 -44.84 
L 384.975784 -44.84 
L 385.195499 -44.84 
L 385.415215 -44.84 
L 385.63493 -44.84 
L 385.854645 -44.84 
L 386.074361 -44.84 
L 386.294076 -44.84 
L 386.513792 -44.84 
L 386.733507 -44.84 
L 386.953222 -44.84 
L 387.172938 -44.84 
L 387.392653 -44.84 
L 387.612369 -44.84 
L 387.832084 -44.84 
L 388.051799 -44.84 
L 388.271515 -44.84 
L 388.49123 -44.84 
L 388.710946 -44.84 
L 388.930661 -44.84 
L 389.150376 -44.84 
L 389.370092 -44.84 
L 389.589807 -44.84 
L 389.809523 -44.84 
L 390.029238 -44.84 
L 390.248953 -44.84 
L 390.468669 -44.84 
L 390.688384 -44.84 
L 390.9081 -44.84 
L 391.127815 -44.84 
L 391.34753 -44.84 
L 391.567246 -44.84 
L 391.786961 -44.84 
L 392.006677 -44.84 
L 392.226392 -44.84 
L 392.446107 -44.84 
L 392.665823 -44.84 
L 392.885538 -44.84 
L 393.105254 -44.84 
L 393.324969 -44.84 
L 393.544684 -44.84 
L 393.7644 -44.84 
L 393.984115 -44.84 
L 394.203831 -44.84 
L 394.423546 -44.84 
L 394.643261 -44.84 
L 394.862977 -44.84 
L 395.082692 -44.84 
L 395.302408 -44.84 
L 395.522123 -44.84 
L 395.741838 -44.84 
L 395.961554 -44.84 
L 396.181269 -44.84 
L 396.400985 -44.84 
L 396.6207 -44.84 
L 396.840415 -44.84 
L 397.060131 -44.84 
L 397.279846 -44.84 
L 397.499562 -44.84 
L 397.719277 -44.84 
L 397.938992 -44.84 
L 398.158708 -44.84 
L 398.378423 -44.84 
L 398.598139 -44.84 
L 398.817854 -44.84 
L 399.037569 -44.84 
L 399.257285 -44.84 
L 399.477 -44.84 
L 399.696716 -44.84 
L 399.916431 -44.84 
L 400.136147 -44.84 
L 400.355862 -44.84 
L 400.575577 -44.84 
L 400.795293 -44.84 
L 401.015008 -44.84 
L 401.234724 -44.84 
L 401.454439 -44.84 
L 401.674154 -44.84 
L 401.89387 -44.84 
L 402.113585 -44.84 
L 402.333301 -44.84 
L 402.553016 -44.84 
L 402.772731 -44.84 
L 402.992447 -44.84 
L 403.212162 -44.84 
L 403.431878 -44.84 
L 403.651593 -44.84 
L 403.871308 -44.84 
L 404.091024 -44.84 
L 404.310739 -44.84 
L 404.530455 -44.84 
L 404.530455 -44.85174 
L 404.530455 -44.85174 
L 404.310739 -44.857774 
L 404.091024 -44.866376 
L 403.871308 -44.878363 
L 403.651593 -44.894692 
L 403.431878 -44.916424 
L 403.212162 -44.944673 
L 402.992447 -44.980523 
L 402.772731 -45.024912 
L 402.553016 -45.078506 
L 402.333301 -45.14155 
L 402.113585 -45.21373 
L 401.89387 -45.294068 
L 401.674154 -45.380852 
L 401.454439 -45.471658 
L 401.234724 -45.56344 
L 401.015008 -45.652734 
L 400.795293 -45.73594 
L 400.575577 -45.809682 
L 400.355862 -45.871201 
L 400.136147 -45.918759 
L 399.916431 -45.951979 
L 399.696716 -45.972106 
L 399.477 -45.982128 
L 399.257285 -45.986752 
L 399.037569 -45.992202 
L 398.817854 -46.005878 
L 398.598139 -46.035868 
L 398.378423 -46.090379 
L 398.158708 -46.177119 
L 397.938992 -46.302694 
L 397.719277 -46.472069 
L 397.499562 -46.688155 
L 397.279846 -46.951563 
L 397.060131 -47.260557 
L 396.840415 -47.611228 
L 396.6207 -47.997865 
L 396.400985 -48.413514 
L 396.181269 -48.850641 
L 395.961554 -49.301845 
L 395.741838 -49.760521 
L 395.522123 -50.221373 
L 395.302408 -50.68074 
L 395.082692 -51.136652 
L 394.862977 -51.588644 
L 394.643261 -52.037357 
L 394.423546 -52.484014 
L 394.203831 -52.929884 
L 393.984115 -53.37585 
L 393.7644 -53.822185 
L 393.544684 -54.268607 
L 393.324969 -54.714612 
L 393.105254 -55.16005 
L 392.885538 -55.60581 
L 392.665823 -56.054482 
L 392.446107 -56.510814 
L 392.226392 -56.98184 
L 392.006677 -57.47657 
L 391.786961 -58.005234 
L 391.567246 -58.578157 
L 391.34753 -59.204413 
L 391.127815 -59.890477 
L 390.9081 -60.639102 
L 390.688384 -61.448644 
L 390.468669 -62.312967 
L 390.248953 -63.221995 
L 390.029238 -64.162831 
L 389.809523 -65.121281 
L 389.589807 -66.083534 
L 389.370092 -67.037726 
L 389.150376 -67.975119 
L 388.930661 -68.890728 
L 388.710946 -69.783328 
L 388.49123 -70.654884 
L 388.271515 -71.509593 
L 388.051799 -72.352776 
L 387.832084 -73.189893 
L 387.612369 -74.025904 
L 387.392653 -74.865141 
L 387.172938 -75.71168 
L 386.953222 -76.570135 
L 386.733507 -77.446642 
L 386.513792 -78.349767 
L 386.294076 -79.291059 
L 386.074361 -80.285045 
L 385.854645 -81.348541 
L 385.63493 -82.499322 
L 385.415215 -83.7543 
L 385.195499 -85.127491 
L 384.975784 -86.628093 
L 384.756068 -88.259029 
L 384.536353 -90.016221 
L 384.316638 -91.888791 
L 384.096922 -93.860205 
L 383.877207 -95.91026 
L 383.657491 -98.017668 
L 383.437776 -100.162862 
L 383.218061 -102.330667 
L 382.998345 -104.512411 
L 382.77863 -106.707209 
L 382.558914 -108.922211 
L 382.339199 -111.171791 
L 382.119484 -113.475808 
L 381.899768 -115.857199 
L 381.680053 -118.339263 
L 381.460337 -120.943043 
L 381.240622 -123.685175 
L 381.020907 -126.576503 
L 380.801191 -129.621622 
L 380.581476 -132.819364 
L 380.36176 -136.164074 
L 380.142045 -139.647414 
L 379.92233 -143.260339 
L 379.702614 -146.994861 
L 379.482899 -150.845273 
L 379.263183 -154.808596 
L 379.043468 -158.884142 
L 378.823753 -163.072272 
L 378.604037 -167.372531 
L 378.384322 -171.781491 
L 378.164606 -176.290647 
L 377.944891 -180.884748 
L 377.725175 -185.540816 
L 377.50546 -190.22805 
L 377.285745 -194.908637 
L 377.066029 -199.539377 
L 376.846314 -204.073924 
L 376.626598 -208.465387 
L 376.406883 -212.669018 
L 376.187168 -216.644759 
L 375.967452 -220.359448 
L 375.747737 -223.788608 
L 375.528021 -226.917757 
L 375.308306 -229.743297 
L 375.088591 -232.273016 
L 374.868875 -234.526317 
L 374.64916 -236.534243 
L 374.429444 -238.339385 
L 374.209729 -239.995717 
L 373.990014 -241.568363 
L 373.770298 -243.133247 
L 373.550583 -244.776509 
L 373.330867 -246.593491 
L 373.111152 -248.687073 
L 372.891437 -251.165103 
L 372.671721 -254.136719 
L 372.452006 -257.707466 
L 372.23229 -261.973301 
L 372.012575 -267.013766 
L 371.79286 -272.884868 
L 371.573144 -279.612344 
L 371.353429 -287.186126 
L 371.133713 -295.556748 
L 370.913998 -304.634291 
L 370.694283 -314.290174 
L 370.474567 -324.361682 
L 370.254852 -334.658781 
L 370.035136 -344.972354 
L 369.815421 -355.082832 
L 369.595706 -364.768083 
L 369.37599 -373.809607 
L 369.156275 -381.9964 
L 368.936559 -389.126317 
L 368.716844 -395.005329 
L 368.497129 -399.445532 
L 368.277413 -402.263172 
L 368.057698 -403.278095 
L 367.837982 -402.315923 
L 367.618267 -399.213856 
L 367.398552 -393.830398 
L 367.178836 -386.05852 
L 366.959121 -375.840983 
L 366.739405 -363.185901 
L 366.51969 -348.180212 
L 366.299975 -330.998709 
L 366.080259 -311.906611 
L 365.860544 -291.25441 
L 365.640828 -269.46469 
L 365.421113 -247.011711 
L 365.201398 -224.395559 
L 364.981682 -202.113423 
L 364.761967 -180.630961 
L 364.542251 -160.356675 
L 364.322536 -141.621763 
L 364.102821 -124.667147 
L 363.883105 -109.63842 
L 363.66339 -96.588469 
L 363.443674 -85.486694 
L 363.223959 -76.233125 
L 363.004244 -68.675426 
L 362.784528 -62.626772 
L 362.564813 -57.88285 
L 362.345097 -54.236624 
L 362.125382 -51.490048 
L 361.905667 -49.462394 
L 361.685951 -47.995291 
L 361.466236 -46.954893 
L 361.24652 -46.231759 
L 361.026805 -45.739127 
L 360.80709 -45.410187 
z
" style="stroke: #808080; stroke-width: 2.5"/>
    </defs>
    <g clip-path="url(#p12202fd700)">
     <use xlink:href="#m0b2e496869" x="0" y="432" style="fill: #808080; stroke: #808080; stroke-width: 2.5"/>
    </g>
   </g>
   <g id="matplotlib.axis_1">
    <g id="xtick_1">
     <g id="line2d_1">
      <defs>
       <path id="mea3d2bb632" d="M 0 0 
L 0 3.5 
" style="stroke: #000000; stroke-width: 0.8"/>
      </defs>
      <g>
       <use xlink:href="#mea3d2bb632" x="72.400561" y="387.16" style="stroke: #000000; stroke-width: 0.8"/>
      </g>
     </g>
     <g id="text_1">
      <!-- 4.15 -->
      <g transform="translate(61.267749 401.758438) scale(0.1 -0.1)">
       <defs>
        <path id="DejaVuSans-34" d="M 2419 4116 
L 825 1625 
L 2419 1625 
L 2419 4116 
z
M 2253 4666 
L 3047 4666 
L 3047 1625 
L 3713 1625 
L 3713 1100 
L 3047 1100 
L 3047 0 
L 2419 0 
L 2419 1100 
L 313 1100 
L 313 1709 
L 2253 4666 
z
" transform="scale(0.015625)"/>
        <path id="DejaVuSans-2e" d="M 684 794 
L 1344 794 
L 1344 0 
L 684 0 
L 684 794 
z
" transform="scale(0.015625)"/>
        <path id="DejaVuSans-31" d="M 794 531 
L 1825 531 
L 1825 4091 
L 703 3866 
L 703 4441 
L 1819 4666 
L 2450 4666 
L 2450 531 
L 3481 531 
L 3481 0 
L 794 0 
L 794 531 
z
" transform="scale(0.015625)"/>
        <path id="DejaVuSans-35" d="M 691 4666 
L 3169 4666 
L 3169 4134 
L 1269 4134 
L 1269 2991 
Q 1406 3038 1543 3061 
Q 1681 3084 1819 3084 
Q 2600 3084 3056 2656 
Q 3513 2228 3513 1497 
Q 3513 744 3044 326 
Q 2575 -91 1722 -91 
Q 1428 -91 1123 -41 
Q 819 9 494 109 
L 494 744 
Q 775 591 1075 516 
Q 1375 441 1709 441 
Q 2250 441 2565 725 
Q 2881 1009 2881 1497 
Q 2881 1984 2565 2268 
Q 2250 2553 1709 2553 
Q 1456 2553 1204 2497 
Q 953 2441 691 2322 
L 691 4666 
z
" transform="scale(0.015625)"/>
       </defs>
       <use xlink:href="#DejaVuSans-34"/>
       <use xlink:href="#DejaVuSans-2e" x="63.623047"/>
       <use xlink:href="#DejaVuSans-31" x="95.410156"/>
       <use xlink:href="#DejaVuSans-35" x="159.033203"/>
      </g>
     </g>
    </g>
    <g id="xtick_2">
     <g id="line2d_2">
      <g>
       <use xlink:href="#mea3d2bb632" x="135.451353" y="387.16" style="stroke: #000000; stroke-width: 0.8"/>
      </g>
     </g>
     <g id="text_2">
      <!-- 4.16 -->
      <g transform="translate(124.31854 401.758438) scale(0.1 -0.1)">
       <defs>
        <path id="DejaVuSans-36" d="M 2113 2584 
Q 1688 2584 1439 2293 
Q 1191 2003 1191 1497 
Q 1191 994 1439 701 
Q 1688 409 2113 409 
Q 2538 409 2786 701 
Q 3034 994 3034 1497 
Q 3034 2003 2786 2293 
Q 2538 2584 2113 2584 
z
M 3366 4563 
L 3366 3988 
Q 3128 4100 2886 4159 
Q 2644 4219 2406 4219 
Q 1781 4219 1451 3797 
Q 1122 3375 1075 2522 
Q 1259 2794 1537 2939 
Q 1816 3084 2150 3084 
Q 2853 3084 3261 2657 
Q 3669 2231 3669 1497 
Q 3669 778 3244 343 
Q 2819 -91 2113 -91 
Q 1303 -91 875 529 
Q 447 1150 447 2328 
Q 447 3434 972 4092 
Q 1497 4750 2381 4750 
Q 2619 4750 2861 4703 
Q 3103 4656 3366 4563 
z
" transform="scale(0.015625)"/>
       </defs>
       <use xlink:href="#DejaVuSans-34"/>
       <use xlink:href="#DejaVuSans-2e" x="63.623047"/>
       <use xlink:href="#DejaVuSans-31" x="95.410156"/>
       <use xlink:href="#DejaVuSans-36" x="159.033203"/>
      </g>
     </g>
    </g>
    <g id="xtick_3">
     <g id="line2d_3">
      <g>
       <use xlink:href="#mea3d2bb632" x="198.502145" y="387.16" style="stroke: #000000; stroke-width: 0.8"/>
      </g>
     </g>
     <g id="text_3">
      <!-- 4.17 -->
      <g transform="translate(187.369332 401.758438) scale(0.1 -0.1)">
       <defs>
        <path id="DejaVuSans-37" d="M 525 4666 
L 3525 4666 
L 3525 4397 
L 1831 0 
L 1172 0 
L 2766 4134 
L 525 4134 
L 525 4666 
z
" transform="scale(0.015625)"/>
       </defs>
       <use xlink:href="#DejaVuSans-34"/>
       <use xlink:href="#DejaVuSans-2e" x="63.623047"/>
       <use xlink:href="#DejaVuSans-31" x="95.410156"/>
       <use xlink:href="#DejaVuSans-37" x="159.033203"/>
      </g>
     </g>
    </g>
    <g id="xtick_4">
     <g id="line2d_4">
      <g>
       <use xlink:href="#mea3d2bb632" x="261.552936" y="387.16" style="stroke: #000000; stroke-width: 0.8"/>
      </g>
     </g>
     <g id="text_4">
      <!-- 4.18 -->
      <g transform="translate(250.420124 401.758438) scale(0.1 -0.1)">
       <defs>
        <path id="DejaVuSans-38" d="M 2034 2216 
Q 1584 2216 1326 1975 
Q 1069 1734 1069 1313 
Q 1069 891 1326 650 
Q 1584 409 2034 409 
Q 2484 409 2743 651 
Q 3003 894 3003 1313 
Q 3003 1734 2745 1975 
Q 2488 2216 2034 2216 
z
M 1403 2484 
Q 997 2584 770 2862 
Q 544 3141 544 3541 
Q 544 4100 942 4425 
Q 1341 4750 2034 4750 
Q 2731 4750 3128 4425 
Q 3525 4100 3525 3541 
Q 3525 3141 3298 2862 
Q 3072 2584 2669 2484 
Q 3125 2378 3379 2068 
Q 3634 1759 3634 1313 
Q 3634 634 3220 271 
Q 2806 -91 2034 -91 
Q 1263 -91 848 271 
Q 434 634 434 1313 
Q 434 1759 690 2068 
Q 947 2378 1403 2484 
z
M 1172 3481 
Q 1172 3119 1398 2916 
Q 1625 2713 2034 2713 
Q 2441 2713 2670 2916 
Q 2900 3119 2900 3481 
Q 2900 3844 2670 4047 
Q 2441 4250 2034 4250 
Q 1625 4250 1398 4047 
Q 1172 3844 1172 3481 
z
" transform="scale(0.015625)"/>
       </defs>
       <use xlink:href="#DejaVuSans-34"/>
       <use xlink:href="#DejaVuSans-2e" x="63.623047"/>
       <use xlink:href="#DejaVuSans-31" x="95.410156"/>
       <use xlink:href="#DejaVuSans-38" x="159.033203"/>
      </g>
     </g>
    </g>
    <g id="xtick_5">
     <g id="line2d_5">
      <g>
       <use xlink:href="#mea3d2bb632" x="324.603728" y="387.16" style="stroke: #000000; stroke-width: 0.8"/>
      </g>
     </g>
     <g id="text_5">
      <!-- 4.19 -->
      <g transform="translate(313.470915 401.758438) scale(0.1 -0.1)">
       <defs>
        <path id="DejaVuSans-39" d="M 703 97 
L 703 672 
Q 941 559 1184 500 
Q 1428 441 1663 441 
Q 2288 441 2617 861 
Q 2947 1281 2994 2138 
Q 2813 1869 2534 1725 
Q 2256 1581 1919 1581 
Q 1219 1581 811 2004 
Q 403 2428 403 3163 
Q 403 3881 828 4315 
Q 1253 4750 1959 4750 
Q 2769 4750 3195 4129 
Q 3622 3509 3622 2328 
Q 3622 1225 3098 567 
Q 2575 -91 1691 -91 
Q 1453 -91 1209 -44 
Q 966 3 703 97 
z
M 1959 2075 
Q 2384 2075 2632 2365 
Q 2881 2656 2881 3163 
Q 2881 3666 2632 3958 
Q 2384 4250 1959 4250 
Q 1534 4250 1286 3958 
Q 1038 3666 1038 3163 
Q 1038 2656 1286 2365 
Q 1534 2075 1959 2075 
z
" transform="scale(0.015625)"/>
       </defs>
       <use xlink:href="#DejaVuSans-34"/>
       <use xlink:href="#DejaVuSans-2e" x="63.623047"/>
       <use xlink:href="#DejaVuSans-31" x="95.410156"/>
       <use xlink:href="#DejaVuSans-39" x="159.033203"/>
      </g>
     </g>
    </g>
    <g id="xtick_6">
     <g id="line2d_6">
      <g>
       <use xlink:href="#mea3d2bb632" x="387.65452" y="387.16" style="stroke: #000000; stroke-width: 0.8"/>
      </g>
     </g>
     <g id="text_6">
      <!-- 4.20 -->
      <g transform="translate(376.521707 401.758438) scale(0.1 -0.1)">
       <defs>
        <path id="DejaVuSans-32" d="M 1228 531 
L 3431 531 
L 3431 0 
L 469 0 
L 469 531 
Q 828 903 1448 1529 
Q 2069 2156 2228 2338 
Q 2531 2678 2651 2914 
Q 2772 3150 2772 3378 
Q 2772 3750 2511 3984 
Q 2250 4219 1831 4219 
Q 1534 4219 1204 4116 
Q 875 4013 500 3803 
L 500 4441 
Q 881 4594 1212 4672 
Q 1544 4750 1819 4750 
Q 2544 4750 2975 4387 
Q 3406 4025 3406 3419 
Q 3406 3131 3298 2873 
Q 3191 2616 2906 2266 
Q 2828 2175 2409 1742 
Q 1991 1309 1228 531 
z
" transform="scale(0.015625)"/>
        <path id="DejaVuSans-30" d="M 2034 4250 
Q 1547 4250 1301 3770 
Q 1056 3291 1056 2328 
Q 1056 1369 1301 889 
Q 1547 409 2034 409 
Q 2525 409 2770 889 
Q 3016 1369 3016 2328 
Q 3016 3291 2770 3770 
Q 2525 4250 2034 4250 
z
M 2034 4750 
Q 2819 4750 3233 4129 
Q 3647 3509 3647 2328 
Q 3647 1150 3233 529 
Q 2819 -91 2034 -91 
Q 1250 -91 836 529 
Q 422 1150 422 2328 
Q 422 3509 836 4129 
Q 1250 4750 2034 4750 
z
" transform="scale(0.015625)"/>
       </defs>
       <use xlink:href="#DejaVuSans-34"/>
       <use xlink:href="#DejaVuSans-2e" x="63.623047"/>
       <use xlink:href="#DejaVuSans-32" x="95.410156"/>
       <use xlink:href="#DejaVuSans-30" x="159.033203"/>
      </g>
     </g>
    </g>
    <g id="text_7">
     <!-- Predicted Fluorescence -->
     <g transform="translate(168.23875 416.95625) scale(0.12 -0.12)">
      <defs>
       <path id="DejaVuSans-50" d="M 1259 4147 
L 1259 2394 
L 2053 2394 
Q 2494 2394 2734 2622 
Q 2975 2850 2975 3272 
Q 2975 3691 2734 3919 
Q 2494 4147 2053 4147 
L 1259 4147 
z
M 628 4666 
L 2053 4666 
Q 2838 4666 3239 4311 
Q 3641 3956 3641 3272 
Q 3641 2581 3239 2228 
Q 2838 1875 2053 1875 
L 1259 1875 
L 1259 0 
L 628 0 
L 628 4666 
z
" transform="scale(0.015625)"/>
       <path id="DejaVuSans-72" d="M 2631 2963 
Q 2534 3019 2420 3045 
Q 2306 3072 2169 3072 
Q 1681 3072 1420 2755 
Q 1159 2438 1159 1844 
L 1159 0 
L 581 0 
L 581 3500 
L 1159 3500 
L 1159 2956 
Q 1341 3275 1631 3429 
Q 1922 3584 2338 3584 
Q 2397 3584 2469 3576 
Q 2541 3569 2628 3553 
L 2631 2963 
z
" transform="scale(0.015625)"/>
       <path id="DejaVuSans-65" d="M 3597 1894 
L 3597 1613 
L 953 1613 
Q 991 1019 1311 708 
Q 1631 397 2203 397 
Q 2534 397 2845 478 
Q 3156 559 3463 722 
L 3463 178 
Q 3153 47 2828 -22 
Q 2503 -91 2169 -91 
Q 1331 -91 842 396 
Q 353 884 353 1716 
Q 353 2575 817 3079 
Q 1281 3584 2069 3584 
Q 2775 3584 3186 3129 
Q 3597 2675 3597 1894 
z
M 3022 2063 
Q 3016 2534 2758 2815 
Q 2500 3097 2075 3097 
Q 1594 3097 1305 2825 
Q 1016 2553 972 2059 
L 3022 2063 
z
" transform="scale(0.015625)"/>
       <path id="DejaVuSans-64" d="M 2906 2969 
L 2906 4863 
L 3481 4863 
L 3481 0 
L 2906 0 
L 2906 525 
Q 2725 213 2448 61 
Q 2172 -91 1784 -91 
Q 1150 -91 751 415 
Q 353 922 353 1747 
Q 353 2572 751 3078 
Q 1150 3584 1784 3584 
Q 2172 3584 2448 3432 
Q 2725 3281 2906 2969 
z
M 947 1747 
Q 947 1113 1208 752 
Q 1469 391 1925 391 
Q 2381 391 2643 752 
Q 2906 1113 2906 1747 
Q 2906 2381 2643 2742 
Q 2381 3103 1925 3103 
Q 1469 3103 1208 2742 
Q 947 2381 947 1747 
z
" transform="scale(0.015625)"/>
       <path id="DejaVuSans-69" d="M 603 3500 
L 1178 3500 
L 1178 0 
L 603 0 
L 603 3500 
z
M 603 4863 
L 1178 4863 
L 1178 4134 
L 603 4134 
L 603 4863 
z
" transform="scale(0.015625)"/>
       <path id="DejaVuSans-63" d="M 3122 3366 
L 3122 2828 
Q 2878 2963 2633 3030 
Q 2388 3097 2138 3097 
Q 1578 3097 1268 2742 
Q 959 2388 959 1747 
Q 959 1106 1268 751 
Q 1578 397 2138 397 
Q 2388 397 2633 464 
Q 2878 531 3122 666 
L 3122 134 
Q 2881 22 2623 -34 
Q 2366 -91 2075 -91 
Q 1284 -91 818 406 
Q 353 903 353 1747 
Q 353 2603 823 3093 
Q 1294 3584 2113 3584 
Q 2378 3584 2631 3529 
Q 2884 3475 3122 3366 
z
" transform="scale(0.015625)"/>
       <path id="DejaVuSans-74" d="M 1172 4494 
L 1172 3500 
L 2356 3500 
L 2356 3053 
L 1172 3053 
L 1172 1153 
Q 1172 725 1289 603 
Q 1406 481 1766 481 
L 2356 481 
L 2356 0 
L 1766 0 
Q 1100 0 847 248 
Q 594 497 594 1153 
L 594 3053 
L 172 3053 
L 172 3500 
L 594 3500 
L 594 4494 
L 1172 4494 
z
" transform="scale(0.015625)"/>
       <path id="DejaVuSans-20" transform="scale(0.015625)"/>
       <path id="DejaVuSans-46" d="M 628 4666 
L 3309 4666 
L 3309 4134 
L 1259 4134 
L 1259 2759 
L 3109 2759 
L 3109 2228 
L 1259 2228 
L 1259 0 
L 628 0 
L 628 4666 
z
" transform="scale(0.015625)"/>
       <path id="DejaVuSans-6c" d="M 603 4863 
L 1178 4863 
L 1178 0 
L 603 0 
L 603 4863 
z
" transform="scale(0.015625)"/>
       <path id="DejaVuSans-75" d="M 544 1381 
L 544 3500 
L 1119 3500 
L 1119 1403 
Q 1119 906 1312 657 
Q 1506 409 1894 409 
Q 2359 409 2629 706 
Q 2900 1003 2900 1516 
L 2900 3500 
L 3475 3500 
L 3475 0 
L 2900 0 
L 2900 538 
Q 2691 219 2414 64 
Q 2138 -91 1772 -91 
Q 1169 -91 856 284 
Q 544 659 544 1381 
z
M 1991 3584 
L 1991 3584 
z
" transform="scale(0.015625)"/>
       <path id="DejaVuSans-6f" d="M 1959 3097 
Q 1497 3097 1228 2736 
Q 959 2375 959 1747 
Q 959 1119 1226 758 
Q 1494 397 1959 397 
Q 2419 397 2687 759 
Q 2956 1122 2956 1747 
Q 2956 2369 2687 2733 
Q 2419 3097 1959 3097 
z
M 1959 3584 
Q 2709 3584 3137 3096 
Q 3566 2609 3566 1747 
Q 3566 888 3137 398 
Q 2709 -91 1959 -91 
Q 1206 -91 779 398 
Q 353 888 353 1747 
Q 353 2609 779 3096 
Q 1206 3584 1959 3584 
z
" transform="scale(0.015625)"/>
       <path id="DejaVuSans-73" d="M 2834 3397 
L 2834 2853 
Q 2591 2978 2328 3040 
Q 2066 3103 1784 3103 
Q 1356 3103 1142 2972 
Q 928 2841 928 2578 
Q 928 2378 1081 2264 
Q 1234 2150 1697 2047 
L 1894 2003 
Q 2506 1872 2764 1633 
Q 3022 1394 3022 966 
Q 3022 478 2636 193 
Q 2250 -91 1575 -91 
Q 1294 -91 989 -36 
Q 684 19 347 128 
L 347 722 
Q 666 556 975 473 
Q 1284 391 1588 391 
Q 1994 391 2212 530 
Q 2431 669 2431 922 
Q 2431 1156 2273 1281 
Q 2116 1406 1581 1522 
L 1381 1569 
Q 847 1681 609 1914 
Q 372 2147 372 2553 
Q 372 3047 722 3315 
Q 1072 3584 1716 3584 
Q 2034 3584 2315 3537 
Q 2597 3491 2834 3397 
z
" transform="scale(0.015625)"/>
       <path id="DejaVuSans-6e" d="M 3513 2113 
L 3513 0 
L 2938 0 
L 2938 2094 
Q 2938 2591 2744 2837 
Q 2550 3084 2163 3084 
Q 1697 3084 1428 2787 
Q 1159 2491 1159 1978 
L 1159 0 
L 581 0 
L 581 3500 
L 1159 3500 
L 1159 2956 
Q 1366 3272 1645 3428 
Q 1925 3584 2291 3584 
Q 2894 3584 3203 3211 
Q 3513 2838 3513 2113 
z
" transform="scale(0.015625)"/>
      </defs>
      <use xlink:href="#DejaVuSans-50"/>
      <use xlink:href="#DejaVuSans-72" x="58.552734"/>
      <use xlink:href="#DejaVuSans-65" x="97.416016"/>
      <use xlink:href="#DejaVuSans-64" x="158.939453"/>
      <use xlink:href="#DejaVuSans-69" x="222.416016"/>
      <use xlink:href="#DejaVuSans-63" x="250.199219"/>
      <use xlink:href="#DejaVuSans-74" x="305.179688"/>
      <use xlink:href="#DejaVuSans-65" x="344.388672"/>
      <use xlink:href="#DejaVuSans-64" x="405.912109"/>
      <use xlink:href="#DejaVuSans-20" x="469.388672"/>
      <use xlink:href="#DejaVuSans-46" x="501.175781"/>
      <use xlink:href="#DejaVuSans-6c" x="558.695312"/>
      <use xlink:href="#DejaVuSans-75" x="586.478516"/>
      <use xlink:href="#DejaVuSans-6f" x="649.857422"/>
      <use xlink:href="#DejaVuSans-72" x="711.039062"/>
      <use xlink:href="#DejaVuSans-65" x="749.902344"/>
      <use xlink:href="#DejaVuSans-73" x="811.425781"/>
      <use xlink:href="#DejaVuSans-63" x="863.525391"/>
      <use xlink:href="#DejaVuSans-65" x="918.505859"/>
      <use xlink:href="#DejaVuSans-6e" x="980.029297"/>
      <use xlink:href="#DejaVuSans-63" x="1043.408203"/>
      <use xlink:href="#DejaVuSans-65" x="1098.388672"/>
     </g>
    </g>
   </g>
   <g id="matplotlib.axis_2">
    <g id="ytick_1">
     <g id="line2d_7">
      <defs>
       <path id="m7676dc6331" d="M 0 0 
L -3.5 0 
" style="stroke: #000000; stroke-width: 0.8"/>
      </defs>
      <g>
       <use xlink:href="#m7676dc6331" x="54.47" y="387.16" style="stroke: #000000; stroke-width: 0.8"/>
      </g>
     </g>
     <g id="text_8">
      <!-- 0 -->
      <g transform="translate(41.1075 390.959219) scale(0.1 -0.1)">
       <use xlink:href="#DejaVuSans-30"/>
      </g>
     </g>
    </g>
    <g id="ytick_2">
     <g id="line2d_8">
      <g>
       <use xlink:href="#m7676dc6331" x="54.47" y="321.963771" style="stroke: #000000; stroke-width: 0.8"/>
      </g>
     </g>
     <g id="text_9">
      <!-- 100 -->
      <g transform="translate(28.3825 325.76299) scale(0.1 -0.1)">
       <use xlink:href="#DejaVuSans-31"/>
       <use xlink:href="#DejaVuSans-30" x="63.623047"/>
       <use xlink:href="#DejaVuSans-30" x="127.246094"/>
      </g>
     </g>
    </g>
    <g id="ytick_3">
     <g id="line2d_9">
      <g>
       <use xlink:href="#m7676dc6331" x="54.47" y="256.767543" style="stroke: #000000; stroke-width: 0.8"/>
      </g>
     </g>
     <g id="text_10">
      <!-- 200 -->
      <g transform="translate(28.3825 260.566762) scale(0.1 -0.1)">
       <use xlink:href="#DejaVuSans-32"/>
       <use xlink:href="#DejaVuSans-30" x="63.623047"/>
       <use xlink:href="#DejaVuSans-30" x="127.246094"/>
      </g>
     </g>
    </g>
    <g id="ytick_4">
     <g id="line2d_10">
      <g>
       <use xlink:href="#m7676dc6331" x="54.47" y="191.571314" style="stroke: #000000; stroke-width: 0.8"/>
      </g>
     </g>
     <g id="text_11">
      <!-- 300 -->
      <g transform="translate(28.3825 195.370533) scale(0.1 -0.1)">
       <defs>
        <path id="DejaVuSans-33" d="M 2597 2516 
Q 3050 2419 3304 2112 
Q 3559 1806 3559 1356 
Q 3559 666 3084 287 
Q 2609 -91 1734 -91 
Q 1441 -91 1130 -33 
Q 819 25 488 141 
L 488 750 
Q 750 597 1062 519 
Q 1375 441 1716 441 
Q 2309 441 2620 675 
Q 2931 909 2931 1356 
Q 2931 1769 2642 2001 
Q 2353 2234 1838 2234 
L 1294 2234 
L 1294 2753 
L 1863 2753 
Q 2328 2753 2575 2939 
Q 2822 3125 2822 3475 
Q 2822 3834 2567 4026 
Q 2313 4219 1838 4219 
Q 1578 4219 1281 4162 
Q 984 4106 628 3988 
L 628 4550 
Q 988 4650 1302 4700 
Q 1616 4750 1894 4750 
Q 2613 4750 3031 4423 
Q 3450 4097 3450 3541 
Q 3450 3153 3228 2886 
Q 3006 2619 2597 2516 
z
" transform="scale(0.015625)"/>
       </defs>
       <use xlink:href="#DejaVuSans-33"/>
       <use xlink:href="#DejaVuSans-30" x="63.623047"/>
       <use xlink:href="#DejaVuSans-30" x="127.246094"/>
      </g>
     </g>
    </g>
    <g id="ytick_5">
     <g id="line2d_11">
      <g>
       <use xlink:href="#m7676dc6331" x="54.47" y="126.375086" style="stroke: #000000; stroke-width: 0.8"/>
      </g>
     </g>
     <g id="text_12">
      <!-- 400 -->
      <g transform="translate(28.3825 130.174304) scale(0.1 -0.1)">
       <use xlink:href="#DejaVuSans-34"/>
       <use xlink:href="#DejaVuSans-30" x="63.623047"/>
       <use xlink:href="#DejaVuSans-30" x="127.246094"/>
      </g>
     </g>
    </g>
    <g id="ytick_6">
     <g id="line2d_12">
      <g>
       <use xlink:href="#m7676dc6331" x="54.47" y="61.178857" style="stroke: #000000; stroke-width: 0.8"/>
      </g>
     </g>
     <g id="text_13">
      <!-- 500 -->
      <g transform="translate(28.3825 64.978076) scale(0.1 -0.1)">
       <use xlink:href="#DejaVuSans-35"/>
       <use xlink:href="#DejaVuSans-30" x="63.623047"/>
       <use xlink:href="#DejaVuSans-30" x="127.246094"/>
      </g>
     </g>
    </g>
    <g id="text_14">
     <!-- Density -->
     <g transform="translate(21.470938 225.592031) rotate(-90) scale(0.14 -0.14)">
      <defs>
       <path id="DejaVuSans-44" d="M 1259 4147 
L 1259 519 
L 2022 519 
Q 2988 519 3436 956 
Q 3884 1394 3884 2338 
Q 3884 3275 3436 3711 
Q 2988 4147 2022 4147 
L 1259 4147 
z
M 628 4666 
L 1925 4666 
Q 3281 4666 3915 4102 
Q 4550 3538 4550 2338 
Q 4550 1131 3912 565 
Q 3275 0 1925 0 
L 628 0 
L 628 4666 
z
" transform="scale(0.015625)"/>
       <path id="DejaVuSans-79" d="M 2059 -325 
Q 1816 -950 1584 -1140 
Q 1353 -1331 966 -1331 
L 506 -1331 
L 506 -850 
L 844 -850 
Q 1081 -850 1212 -737 
Q 1344 -625 1503 -206 
L 1606 56 
L 191 3500 
L 800 3500 
L 1894 763 
L 2988 3500 
L 3597 3500 
L 2059 -325 
z
" transform="scale(0.015625)"/>
      </defs>
      <use xlink:href="#DejaVuSans-44"/>
      <use xlink:href="#DejaVuSans-65" x="77.001953"/>
      <use xlink:href="#DejaVuSans-6e" x="138.525391"/>
      <use xlink:href="#DejaVuSans-73" x="201.904297"/>
      <use xlink:href="#DejaVuSans-69" x="254.003906"/>
      <use xlink:href="#DejaVuSans-74" x="281.787109"/>
      <use xlink:href="#DejaVuSans-79" x="320.996094"/>
     </g>
    </g>
   </g>
   <g id="line2d_13">
    <path d="M 71.139545 387.16 
L 71.139545 10.8 
" clip-path="url(#p12202fd700)" style="fill: none; stroke-dasharray: 3.7,1.6; stroke-dashoffset: 0; stroke: #000000"/>
   </g>
   <g id="patch_3">
    <path d="M 54.47 387.16 
L 54.47 10.8 
" style="fill: none; stroke: #000000; stroke-width: 0.8; stroke-linejoin: miter; stroke-linecap: square"/>
   </g>
   <g id="patch_4">
    <path d="M 54.47 387.16 
L 421.2 387.16 
" style="fill: none; stroke: #000000; stroke-width: 0.8; stroke-linejoin: miter; stroke-linecap: square"/>
   </g>
   <g id="legend_1">
    <g id="patch_5">
     <path d="M 235.98125 33.478125 
L 414.2 33.478125 
Q 416.2 33.478125 416.2 31.478125 
L 416.2 17.8 
Q 416.2 15.8 414.2 15.8 
L 235.98125 15.8 
Q 233.98125 15.8 233.98125 17.8 
L 233.98125 31.478125 
Q 233.98125 33.478125 235.98125 33.478125 
z
" style="fill: #ffffff; opacity: 0.8; stroke: #cccccc; stroke-linejoin: miter"/>
    </g>
    <g id="patch_6">
     <path d="M 237.98125 27.398438 
L 257.98125 27.398438 
L 257.98125 20.398438 
L 237.98125 20.398438 
z
" style="fill: #808080; stroke: #808080; stroke-width: 2.5; stroke-linejoin: miter"/>
    </g>
    <g id="text_15">
     <!-- Top 1000 Sequences from SA -->
     <g transform="translate(265.98125 27.398438) scale(0.1 -0.1)">
      <defs>
       <path id="DejaVuSans-54" d="M -19 4666 
L 3928 4666 
L 3928 4134 
L 2272 4134 
L 2272 0 
L 1638 0 
L 1638 4134 
L -19 4134 
L -19 4666 
z
" transform="scale(0.015625)"/>
       <path id="DejaVuSans-70" d="M 1159 525 
L 1159 -1331 
L 581 -1331 
L 581 3500 
L 1159 3500 
L 1159 2969 
Q 1341 3281 1617 3432 
Q 1894 3584 2278 3584 
Q 2916 3584 3314 3078 
Q 3713 2572 3713 1747 
Q 3713 922 3314 415 
Q 2916 -91 2278 -91 
Q 1894 -91 1617 61 
Q 1341 213 1159 525 
z
M 3116 1747 
Q 3116 2381 2855 2742 
Q 2594 3103 2138 3103 
Q 1681 3103 1420 2742 
Q 1159 2381 1159 1747 
Q 1159 1113 1420 752 
Q 1681 391 2138 391 
Q 2594 391 2855 752 
Q 3116 1113 3116 1747 
z
" transform="scale(0.015625)"/>
       <path id="DejaVuSans-53" d="M 3425 4513 
L 3425 3897 
Q 3066 4069 2747 4153 
Q 2428 4238 2131 4238 
Q 1616 4238 1336 4038 
Q 1056 3838 1056 3469 
Q 1056 3159 1242 3001 
Q 1428 2844 1947 2747 
L 2328 2669 
Q 3034 2534 3370 2195 
Q 3706 1856 3706 1288 
Q 3706 609 3251 259 
Q 2797 -91 1919 -91 
Q 1588 -91 1214 -16 
Q 841 59 441 206 
L 441 856 
Q 825 641 1194 531 
Q 1563 422 1919 422 
Q 2459 422 2753 634 
Q 3047 847 3047 1241 
Q 3047 1584 2836 1778 
Q 2625 1972 2144 2069 
L 1759 2144 
Q 1053 2284 737 2584 
Q 422 2884 422 3419 
Q 422 4038 858 4394 
Q 1294 4750 2059 4750 
Q 2388 4750 2728 4690 
Q 3069 4631 3425 4513 
z
" transform="scale(0.015625)"/>
       <path id="DejaVuSans-71" d="M 947 1747 
Q 947 1113 1208 752 
Q 1469 391 1925 391 
Q 2381 391 2643 752 
Q 2906 1113 2906 1747 
Q 2906 2381 2643 2742 
Q 2381 3103 1925 3103 
Q 1469 3103 1208 2742 
Q 947 2381 947 1747 
z
M 2906 525 
Q 2725 213 2448 61 
Q 2172 -91 1784 -91 
Q 1150 -91 751 415 
Q 353 922 353 1747 
Q 353 2572 751 3078 
Q 1150 3584 1784 3584 
Q 2172 3584 2448 3432 
Q 2725 3281 2906 2969 
L 2906 3500 
L 3481 3500 
L 3481 -1331 
L 2906 -1331 
L 2906 525 
z
" transform="scale(0.015625)"/>
       <path id="DejaVuSans-66" d="M 2375 4863 
L 2375 4384 
L 1825 4384 
Q 1516 4384 1395 4259 
Q 1275 4134 1275 3809 
L 1275 3500 
L 2222 3500 
L 2222 3053 
L 1275 3053 
L 1275 0 
L 697 0 
L 697 3053 
L 147 3053 
L 147 3500 
L 697 3500 
L 697 3744 
Q 697 4328 969 4595 
Q 1241 4863 1831 4863 
L 2375 4863 
z
" transform="scale(0.015625)"/>
       <path id="DejaVuSans-6d" d="M 3328 2828 
Q 3544 3216 3844 3400 
Q 4144 3584 4550 3584 
Q 5097 3584 5394 3201 
Q 5691 2819 5691 2113 
L 5691 0 
L 5113 0 
L 5113 2094 
Q 5113 2597 4934 2840 
Q 4756 3084 4391 3084 
Q 3944 3084 3684 2787 
Q 3425 2491 3425 1978 
L 3425 0 
L 2847 0 
L 2847 2094 
Q 2847 2600 2669 2842 
Q 2491 3084 2119 3084 
Q 1678 3084 1418 2786 
Q 1159 2488 1159 1978 
L 1159 0 
L 581 0 
L 581 3500 
L 1159 3500 
L 1159 2956 
Q 1356 3278 1631 3431 
Q 1906 3584 2284 3584 
Q 2666 3584 2933 3390 
Q 3200 3197 3328 2828 
z
" transform="scale(0.015625)"/>
       <path id="DejaVuSans-41" d="M 2188 4044 
L 1331 1722 
L 3047 1722 
L 2188 4044 
z
M 1831 4666 
L 2547 4666 
L 4325 0 
L 3669 0 
L 3244 1197 
L 1141 1197 
L 716 0 
L 50 0 
L 1831 4666 
z
" transform="scale(0.015625)"/>
      </defs>
      <use xlink:href="#DejaVuSans-54"/>
      <use xlink:href="#DejaVuSans-6f" x="44.083984"/>
      <use xlink:href="#DejaVuSans-70" x="105.265625"/>
      <use xlink:href="#DejaVuSans-20" x="168.742188"/>
      <use xlink:href="#DejaVuSans-31" x="200.529297"/>
      <use xlink:href="#DejaVuSans-30" x="264.152344"/>
      <use xlink:href="#DejaVuSans-30" x="327.775391"/>
      <use xlink:href="#DejaVuSans-30" x="391.398438"/>
      <use xlink:href="#DejaVuSans-20" x="455.021484"/>
      <use xlink:href="#DejaVuSans-53" x="486.808594"/>
      <use xlink:href="#DejaVuSans-65" x="550.285156"/>
      <use xlink:href="#DejaVuSans-71" x="611.808594"/>
      <use xlink:href="#DejaVuSans-75" x="675.285156"/>
      <use xlink:href="#DejaVuSans-65" x="738.664062"/>
      <use xlink:href="#DejaVuSans-6e" x="800.1875"/>
      <use xlink:href="#DejaVuSans-63" x="863.566406"/>
      <use xlink:href="#DejaVuSans-65" x="918.546875"/>
      <use xlink:href="#DejaVuSans-73" x="980.070312"/>
      <use xlink:href="#DejaVuSans-20" x="1032.169922"/>
      <use xlink:href="#DejaVuSans-66" x="1063.957031"/>
      <use xlink:href="#DejaVuSans-72" x="1099.162109"/>
      <use xlink:href="#DejaVuSans-6f" x="1138.025391"/>
      <use xlink:href="#DejaVuSans-6d" x="1199.207031"/>
      <use xlink:href="#DejaVuSans-20" x="1296.619141"/>
      <use xlink:href="#DejaVuSans-53" x="1328.40625"/>
      <use xlink:href="#DejaVuSans-41" x="1393.757812"/>
     </g>
    </g>
   </g>
  </g>
 </g>
 <defs>
  <clipPath id="p12202fd700">
   <rect x="54.47" y="10.8" width="366.73" height="376.36"/>
  </clipPath>
 </defs>
</svg>
