<?xml version="1.0" encoding="utf-8" standalone="no"?>
<!DOCTYPE svg PUBLIC "-//W3C//DTD SVG 1.1//EN"
  "http://www.w3.org/Graphics/SVG/1.1/DTD/svg11.dtd">
<svg xmlns:xlink="http://www.w3.org/1999/xlink" width="432pt" height="432pt" viewBox="0 0 432 432" xmlns="http://www.w3.org/2000/svg" version="1.1">
 <metadata>
  <rdf:RDF xmlns:dc="http://purl.org/dc/elements/1.1/" xmlns:cc="http://creativecommons.org/ns#" xmlns:rdf="http://www.w3.org/1999/02/22-rdf-syntax-ns#">
   <cc:Work>
    <dc:type rdf:resource="http://purl.org/dc/dcmitype/StillImage"/>
    <dc:date>2024-11-06T11:26:53.262720</dc:date>
    <dc:format>image/svg+xml</dc:format>
    <dc:creator>
     <cc:Agent>
      <dc:title>Matplotlib v3.7.1, https://matplotlib.org/</dc:title>
     </cc:Agent>
    </dc:creator>
   </cc:Work>
  </rdf:RDF>
 </metadata>
 <defs>
  <style type="text/css">*{stroke-linejoin: round; stroke-linecap: butt}</style>
 </defs>
 <g id="figure_1">
  <g id="patch_1">
   <path d="M 0 432 
L 432 432 
L 432 0 
L 0 0 
z
" style="fill: #ffffff"/>
  </g>
  <g id="axes_1">
   <g id="patch_2">
    <path d="M 48.17 387.16 
L 421.2 387.16 
L 421.2 14.546619 
L 48.17 14.546619 
z
" style="fill: #ffffff"/>
   </g>
   <g id="PolyCollection_1">
    <defs>
     <path id="m6c73eb68e2" d="M 65.125909 -45.362729 
L 65.125909 -44.84 
L 66.830021 -44.84 
L 68.534132 -44.84 
L 70.238243 -44.84 
L 71.942355 -44.84 
L 73.646466 -44.84 
L 75.350578 -44.84 
L 77.054689 -44.84 
L 78.758801 -44.84 
L 80.462912 -44.84 
L 82.167024 -44.84 
L 83.871135 -44.84 
L 85.575247 -44.84 
L 87.279358 -44.84 
L 88.98347 -44.84 
L 90.687581 -44.84 
L 92.391693 -44.84 
L 94.095804 -44.84 
L 95.799915 -44.84 
L 97.504027 -44.84 
L 99.208138 -44.84 
L 100.91225 -44.84 
L 102.616361 -44.84 
L 104.320473 -44.84 
L 106.024584 -44.84 
L 107.728696 -44.84 
L 109.432807 -44.84 
L 111.136919 -44.84 
L 112.84103 -44.84 
L 114.545142 -44.84 
L 116.249253 -44.84 
L 117.953365 -44.84 
L 119.657476 -44.84 
L 121.361587 -44.84 
L 123.065699 -44.84 
L 124.76981 -44.84 
L 126.473922 -44.84 
L 128.178033 -44.84 
L 129.882145 -44.84 
L 131.586256 -44.84 
L 133.290368 -44.84 
L 134.994479 -44.84 
L 136.698591 -44.84 
L 138.402702 -44.84 
L 140.106814 -44.84 
L 141.810925 -44.84 
L 143.515037 -44.84 
L 145.219148 -44.84 
L 146.923259 -44.84 
L 148.627371 -44.84 
L 150.331482 -44.84 
L 152.035594 -44.84 
L 153.739705 -44.84 
L 155.443817 -44.84 
L 157.147928 -44.84 
L 158.85204 -44.84 
L 160.556151 -44.84 
L 162.260263 -44.84 
L 163.964374 -44.84 
L 165.668486 -44.84 
L 167.372597 -44.84 
L 169.076709 -44.84 
L 170.78082 -44.84 
L 172.484931 -44.84 
L 174.189043 -44.84 
L 175.893154 -44.84 
L 177.597266 -44.84 
L 179.301377 -44.84 
L 181.005489 -44.84 
L 182.7096 -44.84 
L 184.413712 -44.84 
L 186.117823 -44.84 
L 187.821935 -44.84 
L 189.526046 -44.84 
L 191.230158 -44.84 
L 192.934269 -44.84 
L 194.638381 -44.84 
L 196.342492 -44.84 
L 198.046603 -44.84 
L 199.750715 -44.84 
L 201.454826 -44.84 
L 203.158938 -44.84 
L 204.863049 -44.84 
L 206.567161 -44.84 
L 208.271272 -44.84 
L 209.975384 -44.84 
L 211.679495 -44.84 
L 213.383607 -44.84 
L 215.087718 -44.84 
L 216.79183 -44.84 
L 218.495941 -44.84 
L 220.200053 -44.84 
L 221.904164 -44.84 
L 223.608275 -44.84 
L 225.312387 -44.84 
L 227.016498 -44.84 
L 228.72061 -44.84 
L 230.424721 -44.84 
L 232.128833 -44.84 
L 233.832944 -44.84 
L 235.537056 -44.84 
L 237.241167 -44.84 
L 238.945279 -44.84 
L 240.64939 -44.84 
L 242.353502 -44.84 
L 244.057613 -44.84 
L 245.761725 -44.84 
L 247.465836 -44.84 
L 249.169947 -44.84 
L 250.874059 -44.84 
L 252.57817 -44.84 
L 254.282282 -44.84 
L 255.986393 -44.84 
L 257.690505 -44.84 
L 259.394616 -44.84 
L 261.098728 -44.84 
L 262.802839 -44.84 
L 264.506951 -44.84 
L 266.211062 -44.84 
L 267.915174 -44.84 
L 269.619285 -44.84 
L 271.323397 -44.84 
L 273.027508 -44.84 
L 274.731619 -44.84 
L 276.435731 -44.84 
L 278.139842 -44.84 
L 279.843954 -44.84 
L 281.548065 -44.84 
L 283.252177 -44.84 
L 284.956288 -44.84 
L 286.6604 -44.84 
L 288.364511 -44.84 
L 290.068623 -44.84 
L 291.772734 -44.84 
L 293.476846 -44.84 
L 295.180957 -44.84 
L 296.885069 -44.84 
L 298.58918 -44.84 
L 300.293291 -44.84 
L 301.997403 -44.84 
L 303.701514 -44.84 
L 305.405626 -44.84 
L 307.109737 -44.84 
L 308.813849 -44.84 
L 310.51796 -44.84 
L 312.222072 -44.84 
L 313.926183 -44.84 
L 315.630295 -44.84 
L 317.334406 -44.84 
L 319.038518 -44.84 
L 320.742629 -44.84 
L 322.446741 -44.84 
L 324.150852 -44.84 
L 325.854963 -44.84 
L 327.559075 -44.84 
L 329.263186 -44.84 
L 330.967298 -44.84 
L 332.671409 -44.84 
L 334.375521 -44.84 
L 336.079632 -44.84 
L 337.783744 -44.84 
L 339.487855 -44.84 
L 341.191967 -44.84 
L 342.896078 -44.84 
L 344.60019 -44.84 
L 346.304301 -44.84 
L 348.008413 -44.84 
L 349.712524 -44.84 
L 351.416635 -44.84 
L 353.120747 -44.84 
L 354.824858 -44.84 
L 356.52897 -44.84 
L 358.233081 -44.84 
L 359.937193 -44.84 
L 361.641304 -44.84 
L 363.345416 -44.84 
L 365.049527 -44.84 
L 366.753639 -44.84 
L 368.45775 -44.84 
L 370.161862 -44.84 
L 371.865973 -44.84 
L 373.570085 -44.84 
L 375.274196 -44.84 
L 376.978307 -44.84 
L 378.682419 -44.84 
L 380.38653 -44.84 
L 382.090642 -44.84 
L 383.794753 -44.84 
L 385.498865 -44.84 
L 387.202976 -44.84 
L 388.907088 -44.84 
L 390.611199 -44.84 
L 392.315311 -44.84 
L 394.019422 -44.84 
L 395.723534 -44.84 
L 397.427645 -44.84 
L 399.131757 -44.84 
L 400.835868 -44.84 
L 402.539979 -44.84 
L 404.244091 -44.84 
L 404.244091 -44.840107 
L 404.244091 -44.840107 
L 402.539979 -44.840318 
L 400.835868 -44.840854 
L 399.131757 -44.842087 
L 397.427645 -44.844686 
L 395.723534 -44.849762 
L 394.019422 -44.85902 
L 392.315311 -44.874879 
L 390.611199 -44.900473 
L 388.907088 -44.939482 
L 387.202976 -44.995866 
L 385.498865 -45.073753 
L 383.794753 -45.177735 
L 382.090642 -45.31367 
L 380.38653 -45.489674 
L 378.682419 -45.716628 
L 376.978307 -46.007401 
L 375.274196 -46.374493 
L 373.570085 -46.827016 
L 371.865973 -47.369224 
L 370.161862 -48.002719 
L 368.45775 -48.732085 
L 366.753639 -49.570336 
L 365.049527 -50.539695 
L 363.345416 -51.666864 
L 361.641304 -52.977059 
L 359.937193 -54.491536 
L 358.233081 -56.228444 
L 356.52897 -58.202898 
L 354.824858 -60.424699 
L 353.120747 -62.897554 
L 351.416635 -65.623572 
L 349.712524 -68.610388 
L 348.008413 -71.87405 
L 346.304301 -75.435138 
L 344.60019 -79.313247 
L 342.896078 -83.525279 
L 341.191967 -88.085107 
L 339.487855 -92.998166 
L 337.783744 -98.252679 
L 336.079632 -103.819886 
L 334.375521 -109.671523 
L 332.671409 -115.803786 
L 330.967298 -122.244865 
L 329.263186 -129.035076 
L 327.559075 -136.194688 
L 325.854963 -143.707042 
L 324.150852 -151.529469 
L 322.446741 -159.617456 
L 320.742629 -167.936855 
L 319.038518 -176.455587 
L 317.334406 -185.130996 
L 315.630295 -193.914092 
L 313.926183 -202.771818 
L 312.222072 -211.706021 
L 310.51796 -220.74806 
L 308.813849 -229.930242 
L 307.109737 -239.254958 
L 305.405626 -248.680441 
L 303.701514 -258.124979 
L 301.997403 -267.480217 
L 300.293291 -276.626973 
L 298.58918 -285.453264 
L 296.885069 -293.873241 
L 295.180957 -301.840163 
L 293.476846 -309.345698 
L 291.772734 -316.404906 
L 290.068623 -323.036153 
L 288.364511 -329.24944 
L 286.6604 -335.04981 
L 284.956288 -340.448353 
L 283.252177 -345.465604 
L 281.548065 -350.120651 
L 279.843954 -354.416324 
L 278.139842 -358.337221 
L 276.435731 -361.865423 
L 274.731619 -365.001485 
L 273.027508 -367.772579 
L 271.323397 -370.219572 
L 269.619285 -372.371893 
L 267.915174 -374.231679 
L 266.211062 -375.785829 
L 264.506951 -377.043109 
L 262.802839 -378.067928 
L 261.098728 -378.977593 
L 259.394616 -379.894733 
L 257.690505 -380.881709 
L 255.986393 -381.900902 
L 254.282282 -382.830885 
L 252.57817 -383.532708 
L 250.874059 -383.926293 
L 249.169947 -384.030201 
L 247.465836 -383.945484 
L 245.761725 -383.801662 
L 244.057613 -383.697818 
L 242.353502 -383.661136 
L 240.64939 -383.632163 
L 238.945279 -383.482713 
L 237.241167 -383.065919 
L 235.537056 -382.279397 
L 233.832944 -381.10781 
L 232.128833 -379.620783 
L 230.424721 -377.931929 
L 228.72061 -376.149414 
L 227.016498 -374.348608 
L 225.312387 -372.57522 
L 223.608275 -370.861436 
L 221.904164 -369.229427 
L 220.200053 -367.673859 
L 218.495941 -366.141852 
L 216.79183 -364.53703 
L 215.087718 -362.754074 
L 213.383607 -360.723615 
L 211.679495 -358.44251 
L 209.975384 -355.980851 
L 208.271272 -353.469806 
L 206.567161 -351.071023 
L 204.863049 -348.924774 
L 203.158938 -347.087496 
L 201.454826 -345.490721 
L 199.750715 -343.955504 
L 198.046603 -342.268118 
L 196.342492 -340.283165 
L 194.638381 -338.000358 
L 192.934269 -335.575175 
L 191.230158 -333.258848 
L 189.526046 -331.296199 
L 187.821935 -329.826228 
L 186.117823 -328.828863 
L 184.413712 -328.144254 
L 182.7096 -327.558633 
L 181.005489 -326.912286 
L 179.301377 -326.166824 
L 177.597266 -325.393993 
L 175.893154 -324.703522 
L 174.189043 -324.167341 
L 172.484931 -323.789785 
L 170.78082 -323.530416 
L 169.076709 -323.345961 
L 167.372597 -323.209635 
L 165.668486 -323.093772 
L 163.964374 -322.943203 
L 162.260263 -322.683519 
L 160.556151 -322.277176 
L 158.85204 -321.78614 
L 157.147928 -321.379243 
L 155.443817 -321.262896 
L 153.739705 -321.578469 
L 152.035594 -322.336299 
L 150.331482 -323.423714 
L 148.627371 -324.669243 
L 146.923259 -325.916171 
L 145.219148 -327.068635 
L 143.515037 -328.100239 
L 141.810925 -329.034282 
L 140.106814 -329.910643 
L 138.402702 -330.754968 
L 136.698591 -331.565807 
L 134.994479 -332.32983 
L 133.290368 -333.05767 
L 131.586256 -333.811779 
L 129.882145 -334.696954 
L 128.178033 -335.814466 
L 126.473922 -337.214738 
L 124.76981 -338.883186 
L 123.065699 -340.76027 
L 121.361587 -342.770929 
L 119.657476 -344.845985 
L 117.953365 -346.939377 
L 116.249253 -349.048586 
L 114.545142 -351.229397 
L 112.84103 -353.584936 
L 111.136919 -356.222206 
L 109.432807 -359.198586 
L 107.728696 -362.495756 
L 106.024584 -366.038491 
L 104.320473 -369.737507 
L 102.616361 -373.520275 
L 100.91225 -377.337956 
L 99.208138 -381.167359 
L 97.504027 -385.021286 
L 95.799915 -388.940786 
L 94.095804 -392.914848 
L 92.391693 -396.690695 
L 90.687581 -399.489745 
L 88.98347 -399.709887 
L 87.279358 -394.785009 
L 85.575247 -381.47271 
L 83.871135 -356.806972 
L 82.167024 -319.594651 
L 80.462912 -271.744125 
L 78.758801 -218.423983 
L 77.054689 -166.57734 
L 75.350578 -122.443199 
L 73.646466 -89.500414 
L 71.942355 -67.919803 
L 70.238243 -55.505827 
L 68.534132 -49.233319 
L 66.830021 -46.448843 
L 65.125909 -45.362729 
z
" style="stroke: #808080; stroke-width: 2.5"/>
    </defs>
    <g clip-path="url(#p6d4df3a316)">
     <use xlink:href="#m6c73eb68e2" x="0" y="432" style="fill: #808080; stroke: #808080; stroke-width: 2.5"/>
    </g>
   </g>
   <g id="matplotlib.axis_1">
    <g id="xtick_1">
     <g id="line2d_1">
      <defs>
       <path id="m3695f7db75" d="M 0 0 
L 0 3.5 
" style="stroke: #000000; stroke-width: 0.8"/>
      </defs>
      <g>
       <use xlink:href="#m3695f7db75" x="80.477877" y="387.16" style="stroke: #000000; stroke-width: 0.8"/>
      </g>
     </g>
     <g id="text_1">
      <!-- 4.15 -->
      <g transform="translate(69.345065 401.758438) scale(0.1 -0.1)">
       <defs>
        <path id="DejaVuSans-34" d="M 2419 4116 
L 825 1625 
L 2419 1625 
L 2419 4116 
z
M 2253 4666 
L 3047 4666 
L 3047 1625 
L 3713 1625 
L 3713 1100 
L 3047 1100 
L 3047 0 
L 2419 0 
L 2419 1100 
L 313 1100 
L 313 1709 
L 2253 4666 
z
" transform="scale(0.015625)"/>
        <path id="DejaVuSans-2e" d="M 684 794 
L 1344 794 
L 1344 0 
L 684 0 
L 684 794 
z
" transform="scale(0.015625)"/>
        <path id="DejaVuSans-31" d="M 794 531 
L 1825 531 
L 1825 4091 
L 703 3866 
L 703 4441 
L 1819 4666 
L 2450 4666 
L 2450 531 
L 3481 531 
L 3481 0 
L 794 0 
L 794 531 
z
" transform="scale(0.015625)"/>
        <path id="DejaVuSans-35" d="M 691 4666 
L 3169 4666 
L 3169 4134 
L 1269 4134 
L 1269 2991 
Q 1406 3038 1543 3061 
Q 1681 3084 1819 3084 
Q 2600 3084 3056 2656 
Q 3513 2228 3513 1497 
Q 3513 744 3044 326 
Q 2575 -91 1722 -91 
Q 1428 -91 1123 -41 
Q 819 9 494 109 
L 494 744 
Q 775 591 1075 516 
Q 1375 441 1709 441 
Q 2250 441 2565 725 
Q 2881 1009 2881 1497 
Q 2881 1984 2565 2268 
Q 2250 2553 1709 2553 
Q 1456 2553 1204 2497 
Q 953 2441 691 2322 
L 691 4666 
z
" transform="scale(0.015625)"/>
       </defs>
       <use xlink:href="#DejaVuSans-34"/>
       <use xlink:href="#DejaVuSans-2e" x="63.623047"/>
       <use xlink:href="#DejaVuSans-31" x="95.410156"/>
       <use xlink:href="#DejaVuSans-35" x="159.033203"/>
      </g>
     </g>
    </g>
    <g id="xtick_2">
     <g id="line2d_2">
      <g>
       <use xlink:href="#m3695f7db75" x="140.088408" y="387.16" style="stroke: #000000; stroke-width: 0.8"/>
      </g>
     </g>
     <g id="text_2">
      <!-- 4.16 -->
      <g transform="translate(128.955596 401.758438) scale(0.1 -0.1)">
       <defs>
        <path id="DejaVuSans-36" d="M 2113 2584 
Q 1688 2584 1439 2293 
Q 1191 2003 1191 1497 
Q 1191 994 1439 701 
Q 1688 409 2113 409 
Q 2538 409 2786 701 
Q 3034 994 3034 1497 
Q 3034 2003 2786 2293 
Q 2538 2584 2113 2584 
z
M 3366 4563 
L 3366 3988 
Q 3128 4100 2886 4159 
Q 2644 4219 2406 4219 
Q 1781 4219 1451 3797 
Q 1122 3375 1075 2522 
Q 1259 2794 1537 2939 
Q 1816 3084 2150 3084 
Q 2853 3084 3261 2657 
Q 3669 2231 3669 1497 
Q 3669 778 3244 343 
Q 2819 -91 2113 -91 
Q 1303 -91 875 529 
Q 447 1150 447 2328 
Q 447 3434 972 4092 
Q 1497 4750 2381 4750 
Q 2619 4750 2861 4703 
Q 3103 4656 3366 4563 
z
" transform="scale(0.015625)"/>
       </defs>
       <use xlink:href="#DejaVuSans-34"/>
       <use xlink:href="#DejaVuSans-2e" x="63.623047"/>
       <use xlink:href="#DejaVuSans-31" x="95.410156"/>
       <use xlink:href="#DejaVuSans-36" x="159.033203"/>
      </g>
     </g>
    </g>
    <g id="xtick_3">
     <g id="line2d_3">
      <g>
       <use xlink:href="#m3695f7db75" x="199.69894" y="387.16" style="stroke: #000000; stroke-width: 0.8"/>
      </g>
     </g>
     <g id="text_3">
      <!-- 4.17 -->
      <g transform="translate(188.566127 401.758438) scale(0.1 -0.1)">
       <defs>
        <path id="DejaVuSans-37" d="M 525 4666 
L 3525 4666 
L 3525 4397 
L 1831 0 
L 1172 0 
L 2766 4134 
L 525 4134 
L 525 4666 
z
" transform="scale(0.015625)"/>
       </defs>
       <use xlink:href="#DejaVuSans-34"/>
       <use xlink:href="#DejaVuSans-2e" x="63.623047"/>
       <use xlink:href="#DejaVuSans-31" x="95.410156"/>
       <use xlink:href="#DejaVuSans-37" x="159.033203"/>
      </g>
     </g>
    </g>
    <g id="xtick_4">
     <g id="line2d_4">
      <g>
       <use xlink:href="#m3695f7db75" x="259.309471" y="387.16" style="stroke: #000000; stroke-width: 0.8"/>
      </g>
     </g>
     <g id="text_4">
      <!-- 4.18 -->
      <g transform="translate(248.176659 401.758438) scale(0.1 -0.1)">
       <defs>
        <path id="DejaVuSans-38" d="M 2034 2216 
Q 1584 2216 1326 1975 
Q 1069 1734 1069 1313 
Q 1069 891 1326 650 
Q 1584 409 2034 409 
Q 2484 409 2743 651 
Q 3003 894 3003 1313 
Q 3003 1734 2745 1975 
Q 2488 2216 2034 2216 
z
M 1403 2484 
Q 997 2584 770 2862 
Q 544 3141 544 3541 
Q 544 4100 942 4425 
Q 1341 4750 2034 4750 
Q 2731 4750 3128 4425 
Q 3525 4100 3525 3541 
Q 3525 3141 3298 2862 
Q 3072 2584 2669 2484 
Q 3125 2378 3379 2068 
Q 3634 1759 3634 1313 
Q 3634 634 3220 271 
Q 2806 -91 2034 -91 
Q 1263 -91 848 271 
Q 434 634 434 1313 
Q 434 1759 690 2068 
Q 947 2378 1403 2484 
z
M 1172 3481 
Q 1172 3119 1398 2916 
Q 1625 2713 2034 2713 
Q 2441 2713 2670 2916 
Q 2900 3119 2900 3481 
Q 2900 3844 2670 4047 
Q 2441 4250 2034 4250 
Q 1625 4250 1398 4047 
Q 1172 3844 1172 3481 
z
" transform="scale(0.015625)"/>
       </defs>
       <use xlink:href="#DejaVuSans-34"/>
       <use xlink:href="#DejaVuSans-2e" x="63.623047"/>
       <use xlink:href="#DejaVuSans-31" x="95.410156"/>
       <use xlink:href="#DejaVuSans-38" x="159.033203"/>
      </g>
     </g>
    </g>
    <g id="xtick_5">
     <g id="line2d_5">
      <g>
       <use xlink:href="#m3695f7db75" x="318.920003" y="387.16" style="stroke: #000000; stroke-width: 0.8"/>
      </g>
     </g>
     <g id="text_5">
      <!-- 4.19 -->
      <g transform="translate(307.78719 401.758438) scale(0.1 -0.1)">
       <defs>
        <path id="DejaVuSans-39" d="M 703 97 
L 703 672 
Q 941 559 1184 500 
Q 1428 441 1663 441 
Q 2288 441 2617 861 
Q 2947 1281 2994 2138 
Q 2813 1869 2534 1725 
Q 2256 1581 1919 1581 
Q 1219 1581 811 2004 
Q 403 2428 403 3163 
Q 403 3881 828 4315 
Q 1253 4750 1959 4750 
Q 2769 4750 3195 4129 
Q 3622 3509 3622 2328 
Q 3622 1225 3098 567 
Q 2575 -91 1691 -91 
Q 1453 -91 1209 -44 
Q 966 3 703 97 
z
M 1959 2075 
Q 2384 2075 2632 2365 
Q 2881 2656 2881 3163 
Q 2881 3666 2632 3958 
Q 2384 4250 1959 4250 
Q 1534 4250 1286 3958 
Q 1038 3666 1038 3163 
Q 1038 2656 1286 2365 
Q 1534 2075 1959 2075 
z
" transform="scale(0.015625)"/>
       </defs>
       <use xlink:href="#DejaVuSans-34"/>
       <use xlink:href="#DejaVuSans-2e" x="63.623047"/>
       <use xlink:href="#DejaVuSans-31" x="95.410156"/>
       <use xlink:href="#DejaVuSans-39" x="159.033203"/>
      </g>
     </g>
    </g>
    <g id="xtick_6">
     <g id="line2d_6">
      <g>
       <use xlink:href="#m3695f7db75" x="378.530534" y="387.16" style="stroke: #000000; stroke-width: 0.8"/>
      </g>
     </g>
     <g id="text_6">
      <!-- 4.20 -->
      <g transform="translate(367.397722 401.758438) scale(0.1 -0.1)">
       <defs>
        <path id="DejaVuSans-32" d="M 1228 531 
L 3431 531 
L 3431 0 
L 469 0 
L 469 531 
Q 828 903 1448 1529 
Q 2069 2156 2228 2338 
Q 2531 2678 2651 2914 
Q 2772 3150 2772 3378 
Q 2772 3750 2511 3984 
Q 2250 4219 1831 4219 
Q 1534 4219 1204 4116 
Q 875 4013 500 3803 
L 500 4441 
Q 881 4594 1212 4672 
Q 1544 4750 1819 4750 
Q 2544 4750 2975 4387 
Q 3406 4025 3406 3419 
Q 3406 3131 3298 2873 
Q 3191 2616 2906 2266 
Q 2828 2175 2409 1742 
Q 1991 1309 1228 531 
z
" transform="scale(0.015625)"/>
        <path id="DejaVuSans-30" d="M 2034 4250 
Q 1547 4250 1301 3770 
Q 1056 3291 1056 2328 
Q 1056 1369 1301 889 
Q 1547 409 2034 409 
Q 2525 409 2770 889 
Q 3016 1369 3016 2328 
Q 3016 3291 2770 3770 
Q 2525 4250 2034 4250 
z
M 2034 4750 
Q 2819 4750 3233 4129 
Q 3647 3509 3647 2328 
Q 3647 1150 3233 529 
Q 2819 -91 2034 -91 
Q 1250 -91 836 529 
Q 422 1150 422 2328 
Q 422 3509 836 4129 
Q 1250 4750 2034 4750 
z
" transform="scale(0.015625)"/>
       </defs>
       <use xlink:href="#DejaVuSans-34"/>
       <use xlink:href="#DejaVuSans-2e" x="63.623047"/>
       <use xlink:href="#DejaVuSans-32" x="95.410156"/>
       <use xlink:href="#DejaVuSans-30" x="159.033203"/>
      </g>
     </g>
    </g>
    <g id="text_7">
     <!-- Predicted Fluorescence -->
     <g transform="translate(165.08875 416.95625) scale(0.12 -0.12)">
      <defs>
       <path id="DejaVuSans-50" d="M 1259 4147 
L 1259 2394 
L 2053 2394 
Q 2494 2394 2734 2622 
Q 2975 2850 2975 3272 
Q 2975 3691 2734 3919 
Q 2494 4147 2053 4147 
L 1259 4147 
z
M 628 4666 
L 2053 4666 
Q 2838 4666 3239 4311 
Q 3641 3956 3641 3272 
Q 3641 2581 3239 2228 
Q 2838 1875 2053 1875 
L 1259 1875 
L 1259 0 
L 628 0 
L 628 4666 
z
" transform="scale(0.015625)"/>
       <path id="DejaVuSans-72" d="M 2631 2963 
Q 2534 3019 2420 3045 
Q 2306 3072 2169 3072 
Q 1681 3072 1420 2755 
Q 1159 2438 1159 1844 
L 1159 0 
L 581 0 
L 581 3500 
L 1159 3500 
L 1159 2956 
Q 1341 3275 1631 3429 
Q 1922 3584 2338 3584 
Q 2397 3584 2469 3576 
Q 2541 3569 2628 3553 
L 2631 2963 
z
" transform="scale(0.015625)"/>
       <path id="DejaVuSans-65" d="M 3597 1894 
L 3597 1613 
L 953 1613 
Q 991 1019 1311 708 
Q 1631 397 2203 397 
Q 2534 397 2845 478 
Q 3156 559 3463 722 
L 3463 178 
Q 3153 47 2828 -22 
Q 2503 -91 2169 -91 
Q 1331 -91 842 396 
Q 353 884 353 1716 
Q 353 2575 817 3079 
Q 1281 3584 2069 3584 
Q 2775 3584 3186 3129 
Q 3597 2675 3597 1894 
z
M 3022 2063 
Q 3016 2534 2758 2815 
Q 2500 3097 2075 3097 
Q 1594 3097 1305 2825 
Q 1016 2553 972 2059 
L 3022 2063 
z
" transform="scale(0.015625)"/>
       <path id="DejaVuSans-64" d="M 2906 2969 
L 2906 4863 
L 3481 4863 
L 3481 0 
L 2906 0 
L 2906 525 
Q 2725 213 2448 61 
Q 2172 -91 1784 -91 
Q 1150 -91 751 415 
Q 353 922 353 1747 
Q 353 2572 751 3078 
Q 1150 3584 1784 3584 
Q 2172 3584 2448 3432 
Q 2725 3281 2906 2969 
z
M 947 1747 
Q 947 1113 1208 752 
Q 1469 391 1925 391 
Q 2381 391 2643 752 
Q 2906 1113 2906 1747 
Q 2906 2381 2643 2742 
Q 2381 3103 1925 3103 
Q 1469 3103 1208 2742 
Q 947 2381 947 1747 
z
" transform="scale(0.015625)"/>
       <path id="DejaVuSans-69" d="M 603 3500 
L 1178 3500 
L 1178 0 
L 603 0 
L 603 3500 
z
M 603 4863 
L 1178 4863 
L 1178 4134 
L 603 4134 
L 603 4863 
z
" transform="scale(0.015625)"/>
       <path id="DejaVuSans-63" d="M 3122 3366 
L 3122 2828 
Q 2878 2963 2633 3030 
Q 2388 3097 2138 3097 
Q 1578 3097 1268 2742 
Q 959 2388 959 1747 
Q 959 1106 1268 751 
Q 1578 397 2138 397 
Q 2388 397 2633 464 
Q 2878 531 3122 666 
L 3122 134 
Q 2881 22 2623 -34 
Q 2366 -91 2075 -91 
Q 1284 -91 818 406 
Q 353 903 353 1747 
Q 353 2603 823 3093 
Q 1294 3584 2113 3584 
Q 2378 3584 2631 3529 
Q 2884 3475 3122 3366 
z
" transform="scale(0.015625)"/>
       <path id="DejaVuSans-74" d="M 1172 4494 
L 1172 3500 
L 2356 3500 
L 2356 3053 
L 1172 3053 
L 1172 1153 
Q 1172 725 1289 603 
Q 1406 481 1766 481 
L 2356 481 
L 2356 0 
L 1766 0 
Q 1100 0 847 248 
Q 594 497 594 1153 
L 594 3053 
L 172 3053 
L 172 3500 
L 594 3500 
L 594 4494 
L 1172 4494 
z
" transform="scale(0.015625)"/>
       <path id="DejaVuSans-20" transform="scale(0.015625)"/>
       <path id="DejaVuSans-46" d="M 628 4666 
L 3309 4666 
L 3309 4134 
L 1259 4134 
L 1259 2759 
L 3109 2759 
L 3109 2228 
L 1259 2228 
L 1259 0 
L 628 0 
L 628 4666 
z
" transform="scale(0.015625)"/>
       <path id="DejaVuSans-6c" d="M 603 4863 
L 1178 4863 
L 1178 0 
L 603 0 
L 603 4863 
z
" transform="scale(0.015625)"/>
       <path id="DejaVuSans-75" d="M 544 1381 
L 544 3500 
L 1119 3500 
L 1119 1403 
Q 1119 906 1312 657 
Q 1506 409 1894 409 
Q 2359 409 2629 706 
Q 2900 1003 2900 1516 
L 2900 3500 
L 3475 3500 
L 3475 0 
L 2900 0 
L 2900 538 
Q 2691 219 2414 64 
Q 2138 -91 1772 -91 
Q 1169 -91 856 284 
Q 544 659 544 1381 
z
M 1991 3584 
L 1991 3584 
z
" transform="scale(0.015625)"/>
       <path id="DejaVuSans-6f" d="M 1959 3097 
Q 1497 3097 1228 2736 
Q 959 2375 959 1747 
Q 959 1119 1226 758 
Q 1494 397 1959 397 
Q 2419 397 2687 759 
Q 2956 1122 2956 1747 
Q 2956 2369 2687 2733 
Q 2419 3097 1959 3097 
z
M 1959 3584 
Q 2709 3584 3137 3096 
Q 3566 2609 3566 1747 
Q 3566 888 3137 398 
Q 2709 -91 1959 -91 
Q 1206 -91 779 398 
Q 353 888 353 1747 
Q 353 2609 779 3096 
Q 1206 3584 1959 3584 
z
" transform="scale(0.015625)"/>
       <path id="DejaVuSans-73" d="M 2834 3397 
L 2834 2853 
Q 2591 2978 2328 3040 
Q 2066 3103 1784 3103 
Q 1356 3103 1142 2972 
Q 928 2841 928 2578 
Q 928 2378 1081 2264 
Q 1234 2150 1697 2047 
L 1894 2003 
Q 2506 1872 2764 1633 
Q 3022 1394 3022 966 
Q 3022 478 2636 193 
Q 2250 -91 1575 -91 
Q 1294 -91 989 -36 
Q 684 19 347 128 
L 347 722 
Q 666 556 975 473 
Q 1284 391 1588 391 
Q 1994 391 2212 530 
Q 2431 669 2431 922 
Q 2431 1156 2273 1281 
Q 2116 1406 1581 1522 
L 1381 1569 
Q 847 1681 609 1914 
Q 372 2147 372 2553 
Q 372 3047 722 3315 
Q 1072 3584 1716 3584 
Q 2034 3584 2315 3537 
Q 2597 3491 2834 3397 
z
" transform="scale(0.015625)"/>
       <path id="DejaVuSans-6e" d="M 3513 2113 
L 3513 0 
L 2938 0 
L 2938 2094 
Q 2938 2591 2744 2837 
Q 2550 3084 2163 3084 
Q 1697 3084 1428 2787 
Q 1159 2491 1159 1978 
L 1159 0 
L 581 0 
L 581 3500 
L 1159 3500 
L 1159 2956 
Q 1366 3272 1645 3428 
Q 1925 3584 2291 3584 
Q 2894 3584 3203 3211 
Q 3513 2838 3513 2113 
z
" transform="scale(0.015625)"/>
      </defs>
      <use xlink:href="#DejaVuSans-50"/>
      <use xlink:href="#DejaVuSans-72" x="58.552734"/>
      <use xlink:href="#DejaVuSans-65" x="97.416016"/>
      <use xlink:href="#DejaVuSans-64" x="158.939453"/>
      <use xlink:href="#DejaVuSans-69" x="222.416016"/>
      <use xlink:href="#DejaVuSans-63" x="250.199219"/>
      <use xlink:href="#DejaVuSans-74" x="305.179688"/>
      <use xlink:href="#DejaVuSans-65" x="344.388672"/>
      <use xlink:href="#DejaVuSans-64" x="405.912109"/>
      <use xlink:href="#DejaVuSans-20" x="469.388672"/>
      <use xlink:href="#DejaVuSans-46" x="501.175781"/>
      <use xlink:href="#DejaVuSans-6c" x="558.695312"/>
      <use xlink:href="#DejaVuSans-75" x="586.478516"/>
      <use xlink:href="#DejaVuSans-6f" x="649.857422"/>
      <use xlink:href="#DejaVuSans-72" x="711.039062"/>
      <use xlink:href="#DejaVuSans-65" x="749.902344"/>
      <use xlink:href="#DejaVuSans-73" x="811.425781"/>
      <use xlink:href="#DejaVuSans-63" x="863.525391"/>
      <use xlink:href="#DejaVuSans-65" x="918.505859"/>
      <use xlink:href="#DejaVuSans-6e" x="980.029297"/>
      <use xlink:href="#DejaVuSans-63" x="1043.408203"/>
      <use xlink:href="#DejaVuSans-65" x="1098.388672"/>
     </g>
    </g>
   </g>
   <g id="matplotlib.axis_2">
    <g id="ytick_1">
     <g id="line2d_7">
      <defs>
       <path id="mac97ba916f" d="M 0 0 
L -3.5 0 
" style="stroke: #000000; stroke-width: 0.8"/>
      </defs>
      <g>
       <use xlink:href="#mac97ba916f" x="48.17" y="387.16" style="stroke: #000000; stroke-width: 0.8"/>
      </g>
     </g>
     <g id="text_8">
      <!-- 0 -->
      <g transform="translate(34.8075 390.959219) scale(0.1 -0.1)">
       <use xlink:href="#DejaVuSans-30"/>
      </g>
     </g>
    </g>
    <g id="ytick_2">
     <g id="line2d_8">
      <g>
       <use xlink:href="#mac97ba916f" x="48.17" y="325.097607" style="stroke: #000000; stroke-width: 0.8"/>
      </g>
     </g>
     <g id="text_9">
      <!-- 5 -->
      <g transform="translate(34.8075 328.896826) scale(0.1 -0.1)">
       <use xlink:href="#DejaVuSans-35"/>
      </g>
     </g>
    </g>
    <g id="ytick_3">
     <g id="line2d_9">
      <g>
       <use xlink:href="#mac97ba916f" x="48.17" y="263.035214" style="stroke: #000000; stroke-width: 0.8"/>
      </g>
     </g>
     <g id="text_10">
      <!-- 10 -->
      <g transform="translate(28.445 266.834433) scale(0.1 -0.1)">
       <use xlink:href="#DejaVuSans-31"/>
       <use xlink:href="#DejaVuSans-30" x="63.623047"/>
      </g>
     </g>
    </g>
    <g id="ytick_4">
     <g id="line2d_10">
      <g>
       <use xlink:href="#mac97ba916f" x="48.17" y="200.972821" style="stroke: #000000; stroke-width: 0.8"/>
      </g>
     </g>
     <g id="text_11">
      <!-- 15 -->
      <g transform="translate(28.445 204.77204) scale(0.1 -0.1)">
       <use xlink:href="#DejaVuSans-31"/>
       <use xlink:href="#DejaVuSans-35" x="63.623047"/>
      </g>
     </g>
    </g>
    <g id="ytick_5">
     <g id="line2d_11">
      <g>
       <use xlink:href="#mac97ba916f" x="48.17" y="138.910428" style="stroke: #000000; stroke-width: 0.8"/>
      </g>
     </g>
     <g id="text_12">
      <!-- 20 -->
      <g transform="translate(28.445 142.709647) scale(0.1 -0.1)">
       <use xlink:href="#DejaVuSans-32"/>
       <use xlink:href="#DejaVuSans-30" x="63.623047"/>
      </g>
     </g>
    </g>
    <g id="ytick_6">
     <g id="line2d_12">
      <g>
       <use xlink:href="#mac97ba916f" x="48.17" y="76.848035" style="stroke: #000000; stroke-width: 0.8"/>
      </g>
     </g>
     <g id="text_13">
      <!-- 25 -->
      <g transform="translate(28.445 80.647254) scale(0.1 -0.1)">
       <use xlink:href="#DejaVuSans-32"/>
       <use xlink:href="#DejaVuSans-35" x="63.623047"/>
      </g>
     </g>
    </g>
    <g id="ytick_7">
     <g id="line2d_13">
      <g>
       <use xlink:href="#mac97ba916f" x="48.17" y="14.785642" style="stroke: #000000; stroke-width: 0.8"/>
      </g>
     </g>
     <g id="text_14">
      <!-- 30 -->
      <g transform="translate(28.445 18.584861) scale(0.1 -0.1)">
       <defs>
        <path id="DejaVuSans-33" d="M 2597 2516 
Q 3050 2419 3304 2112 
Q 3559 1806 3559 1356 
Q 3559 666 3084 287 
Q 2609 -91 1734 -91 
Q 1441 -91 1130 -33 
Q 819 25 488 141 
L 488 750 
Q 750 597 1062 519 
Q 1375 441 1716 441 
Q 2309 441 2620 675 
Q 2931 909 2931 1356 
Q 2931 1769 2642 2001 
Q 2353 2234 1838 2234 
L 1294 2234 
L 1294 2753 
L 1863 2753 
Q 2328 2753 2575 2939 
Q 2822 3125 2822 3475 
Q 2822 3834 2567 4026 
Q 2313 4219 1838 4219 
Q 1578 4219 1281 4162 
Q 984 4106 628 3988 
L 628 4550 
Q 988 4650 1302 4700 
Q 1616 4750 1894 4750 
Q 2613 4750 3031 4423 
Q 3450 4097 3450 3541 
Q 3450 3153 3228 2886 
Q 3006 2619 2597 2516 
z
" transform="scale(0.015625)"/>
       </defs>
       <use xlink:href="#DejaVuSans-33"/>
       <use xlink:href="#DejaVuSans-30" x="63.623047"/>
      </g>
     </g>
    </g>
    <g id="text_15">
     <!-- Density -->
     <g transform="translate(21.533438 227.465341) rotate(-90) scale(0.14 -0.14)">
      <defs>
       <path id="DejaVuSans-44" d="M 1259 4147 
L 1259 519 
L 2022 519 
Q 2988 519 3436 956 
Q 3884 1394 3884 2338 
Q 3884 3275 3436 3711 
Q 2988 4147 2022 4147 
L 1259 4147 
z
M 628 4666 
L 1925 4666 
Q 3281 4666 3915 4102 
Q 4550 3538 4550 2338 
Q 4550 1131 3912 565 
Q 3275 0 1925 0 
L 628 0 
L 628 4666 
z
" transform="scale(0.015625)"/>
       <path id="DejaVuSans-79" d="M 2059 -325 
Q 1816 -950 1584 -1140 
Q 1353 -1331 966 -1331 
L 506 -1331 
L 506 -850 
L 844 -850 
Q 1081 -850 1212 -737 
Q 1344 -625 1503 -206 
L 1606 56 
L 191 3500 
L 800 3500 
L 1894 763 
L 2988 3500 
L 3597 3500 
L 2059 -325 
z
" transform="scale(0.015625)"/>
      </defs>
      <use xlink:href="#DejaVuSans-44"/>
      <use xlink:href="#DejaVuSans-65" x="77.001953"/>
      <use xlink:href="#DejaVuSans-6e" x="138.525391"/>
      <use xlink:href="#DejaVuSans-73" x="201.904297"/>
      <use xlink:href="#DejaVuSans-69" x="254.003906"/>
      <use xlink:href="#DejaVuSans-74" x="281.787109"/>
      <use xlink:href="#DejaVuSans-79" x="320.996094"/>
     </g>
    </g>
   </g>
   <g id="line2d_14">
    <path d="M 79.285666 387.16 
L 79.285666 14.546619 
" clip-path="url(#p6d4df3a316)" style="fill: none; stroke-dasharray: 3.7,1.6; stroke-dashoffset: 0; stroke: #000000"/>
   </g>
   <g id="patch_3">
    <path d="M 48.17 387.16 
L 48.17 14.546619 
" style="fill: none; stroke: #000000; stroke-width: 0.8; stroke-linejoin: miter; stroke-linecap: square"/>
   </g>
   <g id="patch_4">
    <path d="M 48.17 387.16 
L 421.2 387.16 
" style="fill: none; stroke: #000000; stroke-width: 0.8; stroke-linejoin: miter; stroke-linecap: square"/>
   </g>
   <g id="legend_1">
    <g id="patch_5">
     <path d="M 215.790625 37.224744 
L 414.2 37.224744 
Q 416.2 37.224744 416.2 35.224744 
L 416.2 21.546619 
Q 416.2 19.546619 414.2 19.546619 
L 215.790625 19.546619 
Q 213.790625 19.546619 213.790625 21.546619 
L 213.790625 35.224744 
Q 213.790625 37.224744 215.790625 37.224744 
z
" style="fill: #ffffff; opacity: 0.8; stroke: #cccccc; stroke-linejoin: miter"/>
    </g>
    <g id="patch_6">
     <path d="M 217.790625 31.145056 
L 237.790625 31.145056 
L 237.790625 24.145056 
L 217.790625 24.145056 
z
" style="fill: #808080; stroke: #808080; stroke-width: 2.5; stroke-linejoin: miter"/>
    </g>
    <g id="text_16">
     <!-- Unique Close Sequences from SA -->
     <g transform="translate(245.790625 31.145056) scale(0.1 -0.1)">
      <defs>
       <path id="DejaVuSans-55" d="M 556 4666 
L 1191 4666 
L 1191 1831 
Q 1191 1081 1462 751 
Q 1734 422 2344 422 
Q 2950 422 3222 751 
Q 3494 1081 3494 1831 
L 3494 4666 
L 4128 4666 
L 4128 1753 
Q 4128 841 3676 375 
Q 3225 -91 2344 -91 
Q 1459 -91 1007 375 
Q 556 841 556 1753 
L 556 4666 
z
" transform="scale(0.015625)"/>
       <path id="DejaVuSans-71" d="M 947 1747 
Q 947 1113 1208 752 
Q 1469 391 1925 391 
Q 2381 391 2643 752 
Q 2906 1113 2906 1747 
Q 2906 2381 2643 2742 
Q 2381 3103 1925 3103 
Q 1469 3103 1208 2742 
Q 947 2381 947 1747 
z
M 2906 525 
Q 2725 213 2448 61 
Q 2172 -91 1784 -91 
Q 1150 -91 751 415 
Q 353 922 353 1747 
Q 353 2572 751 3078 
Q 1150 3584 1784 3584 
Q 2172 3584 2448 3432 
Q 2725 3281 2906 2969 
L 2906 3500 
L 3481 3500 
L 3481 -1331 
L 2906 -1331 
L 2906 525 
z
" transform="scale(0.015625)"/>
       <path id="DejaVuSans-43" d="M 4122 4306 
L 4122 3641 
Q 3803 3938 3442 4084 
Q 3081 4231 2675 4231 
Q 1875 4231 1450 3742 
Q 1025 3253 1025 2328 
Q 1025 1406 1450 917 
Q 1875 428 2675 428 
Q 3081 428 3442 575 
Q 3803 722 4122 1019 
L 4122 359 
Q 3791 134 3420 21 
Q 3050 -91 2638 -91 
Q 1578 -91 968 557 
Q 359 1206 359 2328 
Q 359 3453 968 4101 
Q 1578 4750 2638 4750 
Q 3056 4750 3426 4639 
Q 3797 4528 4122 4306 
z
" transform="scale(0.015625)"/>
       <path id="DejaVuSans-53" d="M 3425 4513 
L 3425 3897 
Q 3066 4069 2747 4153 
Q 2428 4238 2131 4238 
Q 1616 4238 1336 4038 
Q 1056 3838 1056 3469 
Q 1056 3159 1242 3001 
Q 1428 2844 1947 2747 
L 2328 2669 
Q 3034 2534 3370 2195 
Q 3706 1856 3706 1288 
Q 3706 609 3251 259 
Q 2797 -91 1919 -91 
Q 1588 -91 1214 -16 
Q 841 59 441 206 
L 441 856 
Q 825 641 1194 531 
Q 1563 422 1919 422 
Q 2459 422 2753 634 
Q 3047 847 3047 1241 
Q 3047 1584 2836 1778 
Q 2625 1972 2144 2069 
L 1759 2144 
Q 1053 2284 737 2584 
Q 422 2884 422 3419 
Q 422 4038 858 4394 
Q 1294 4750 2059 4750 
Q 2388 4750 2728 4690 
Q 3069 4631 3425 4513 
z
" transform="scale(0.015625)"/>
       <path id="DejaVuSans-66" d="M 2375 4863 
L 2375 4384 
L 1825 4384 
Q 1516 4384 1395 4259 
Q 1275 4134 1275 3809 
L 1275 3500 
L 2222 3500 
L 2222 3053 
L 1275 3053 
L 1275 0 
L 697 0 
L 697 3053 
L 147 3053 
L 147 3500 
L 697 3500 
L 697 3744 
Q 697 4328 969 4595 
Q 1241 4863 1831 4863 
L 2375 4863 
z
" transform="scale(0.015625)"/>
       <path id="DejaVuSans-6d" d="M 3328 2828 
Q 3544 3216 3844 3400 
Q 4144 3584 4550 3584 
Q 5097 3584 5394 3201 
Q 5691 2819 5691 2113 
L 5691 0 
L 5113 0 
L 5113 2094 
Q 5113 2597 4934 2840 
Q 4756 3084 4391 3084 
Q 3944 3084 3684 2787 
Q 3425 2491 3425 1978 
L 3425 0 
L 2847 0 
L 2847 2094 
Q 2847 2600 2669 2842 
Q 2491 3084 2119 3084 
Q 1678 3084 1418 2786 
Q 1159 2488 1159 1978 
L 1159 0 
L 581 0 
L 581 3500 
L 1159 3500 
L 1159 2956 
Q 1356 3278 1631 3431 
Q 1906 3584 2284 3584 
Q 2666 3584 2933 3390 
Q 3200 3197 3328 2828 
z
" transform="scale(0.015625)"/>
       <path id="DejaVuSans-41" d="M 2188 4044 
L 1331 1722 
L 3047 1722 
L 2188 4044 
z
M 1831 4666 
L 2547 4666 
L 4325 0 
L 3669 0 
L 3244 1197 
L 1141 1197 
L 716 0 
L 50 0 
L 1831 4666 
z
" transform="scale(0.015625)"/>
      </defs>
      <use xlink:href="#DejaVuSans-55"/>
      <use xlink:href="#DejaVuSans-6e" x="73.193359"/>
      <use xlink:href="#DejaVuSans-69" x="136.572266"/>
      <use xlink:href="#DejaVuSans-71" x="164.355469"/>
      <use xlink:href="#DejaVuSans-75" x="227.832031"/>
      <use xlink:href="#DejaVuSans-65" x="291.210938"/>
      <use xlink:href="#DejaVuSans-20" x="352.734375"/>
      <use xlink:href="#DejaVuSans-43" x="384.521484"/>
      <use xlink:href="#DejaVuSans-6c" x="454.345703"/>
      <use xlink:href="#DejaVuSans-6f" x="482.128906"/>
      <use xlink:href="#DejaVuSans-73" x="543.310547"/>
      <use xlink:href="#DejaVuSans-65" x="595.410156"/>
      <use xlink:href="#DejaVuSans-20" x="656.933594"/>
      <use xlink:href="#DejaVuSans-53" x="688.720703"/>
      <use xlink:href="#DejaVuSans-65" x="752.197266"/>
      <use xlink:href="#DejaVuSans-71" x="813.720703"/>
      <use xlink:href="#DejaVuSans-75" x="877.197266"/>
      <use xlink:href="#DejaVuSans-65" x="940.576172"/>
      <use xlink:href="#DejaVuSans-6e" x="1002.099609"/>
      <use xlink:href="#DejaVuSans-63" x="1065.478516"/>
      <use xlink:href="#DejaVuSans-65" x="1120.458984"/>
      <use xlink:href="#DejaVuSans-73" x="1181.982422"/>
      <use xlink:href="#DejaVuSans-20" x="1234.082031"/>
      <use xlink:href="#DejaVuSans-66" x="1265.869141"/>
      <use xlink:href="#DejaVuSans-72" x="1301.074219"/>
      <use xlink:href="#DejaVuSans-6f" x="1339.9375"/>
      <use xlink:href="#DejaVuSans-6d" x="1401.119141"/>
      <use xlink:href="#DejaVuSans-20" x="1498.53125"/>
      <use xlink:href="#DejaVuSans-53" x="1530.318359"/>
      <use xlink:href="#DejaVuSans-41" x="1595.669922"/>
     </g>
    </g>
   </g>
  </g>
 </g>
 <defs>
  <clipPath id="p6d4df3a316">
   <rect x="48.17" y="14.546619" width="373.03" height="372.613381"/>
  </clipPath>
 </defs>
</svg>
