<?xml version="1.0" encoding="utf-8" standalone="no"?>
<!DOCTYPE svg PUBLIC "-//W3C//DTD SVG 1.1//EN"
  "http://www.w3.org/Graphics/SVG/1.1/DTD/svg11.dtd">
<svg xmlns:xlink="http://www.w3.org/1999/xlink" width="432pt" height="432pt" viewBox="0 0 432 432" xmlns="http://www.w3.org/2000/svg" version="1.1">
 <metadata>
  <rdf:RDF xmlns:dc="http://purl.org/dc/elements/1.1/" xmlns:cc="http://creativecommons.org/ns#" xmlns:rdf="http://www.w3.org/1999/02/22-rdf-syntax-ns#">
   <cc:Work>
    <dc:type rdf:resource="http://purl.org/dc/dcmitype/StillImage"/>
    <dc:date>2024-11-06T11:24:51.726752</dc:date>
    <dc:format>image/svg+xml</dc:format>
    <dc:creator>
     <cc:Agent>
      <dc:title>Matplotlib v3.7.1, https://matplotlib.org/</dc:title>
     </cc:Agent>
    </dc:creator>
   </cc:Work>
  </rdf:RDF>
 </metadata>
 <defs>
  <style type="text/css">*{stroke-linejoin: round; stroke-linecap: butt}</style>
 </defs>
 <g id="figure_1">
  <g id="patch_1">
   <path d="M 0 432 
L 432 432 
L 432 0 
L 0 0 
z
" style="fill: #ffffff"/>
  </g>
  <g id="axes_1">
   <g id="patch_2">
    <path d="M 54.47 387.16 
L 421.2 387.16 
L 421.2 10.8 
L 54.47 10.8 
z
" style="fill: #ffffff"/>
   </g>
   <g id="PolyCollection_1">
    <defs>
     <path id="m773344b8ee" d="M 185.423885 -44.93311 
L 185.423885 -44.84 
L 186.524923 -44.84 
L 187.625961 -44.84 
L 188.726999 -44.84 
L 189.828037 -44.84 
L 190.929075 -44.84 
L 192.030113 -44.84 
L 193.131151 -44.84 
L 194.232189 -44.84 
L 195.333227 -44.84 
L 196.434265 -44.84 
L 197.535303 -44.84 
L 198.636341 -44.84 
L 199.737379 -44.84 
L 200.838417 -44.84 
L 201.939455 -44.84 
L 203.040493 -44.84 
L 204.141531 -44.84 
L 205.242569 -44.84 
L 206.343608 -44.84 
L 207.444646 -44.84 
L 208.545684 -44.84 
L 209.646722 -44.84 
L 210.74776 -44.84 
L 211.848798 -44.84 
L 212.949836 -44.84 
L 214.050874 -44.84 
L 215.151912 -44.84 
L 216.25295 -44.84 
L 217.353988 -44.84 
L 218.455026 -44.84 
L 219.556064 -44.84 
L 220.657102 -44.84 
L 221.75814 -44.84 
L 222.859178 -44.84 
L 223.960216 -44.84 
L 225.061254 -44.84 
L 226.162292 -44.84 
L 227.26333 -44.84 
L 228.364368 -44.84 
L 229.465406 -44.84 
L 230.566444 -44.84 
L 231.667482 -44.84 
L 232.76852 -44.84 
L 233.869558 -44.84 
L 234.970597 -44.84 
L 236.071635 -44.84 
L 237.172673 -44.84 
L 238.273711 -44.84 
L 239.374749 -44.84 
L 240.475787 -44.84 
L 241.576825 -44.84 
L 242.677863 -44.84 
L 243.778901 -44.84 
L 244.879939 -44.84 
L 245.980977 -44.84 
L 247.082015 -44.84 
L 248.183053 -44.84 
L 249.284091 -44.84 
L 250.385129 -44.84 
L 251.486167 -44.84 
L 252.587205 -44.84 
L 253.688243 -44.84 
L 254.789281 -44.84 
L 255.890319 -44.84 
L 256.991357 -44.84 
L 258.092395 -44.84 
L 259.193433 -44.84 
L 260.294471 -44.84 
L 261.395509 -44.84 
L 262.496547 -44.84 
L 263.597586 -44.84 
L 264.698624 -44.84 
L 265.799662 -44.84 
L 266.9007 -44.84 
L 268.001738 -44.84 
L 269.102776 -44.84 
L 270.203814 -44.84 
L 271.304852 -44.84 
L 272.40589 -44.84 
L 273.506928 -44.84 
L 274.607966 -44.84 
L 275.709004 -44.84 
L 276.810042 -44.84 
L 277.91108 -44.84 
L 279.012118 -44.84 
L 280.113156 -44.84 
L 281.214194 -44.84 
L 282.315232 -44.84 
L 283.41627 -44.84 
L 284.517308 -44.84 
L 285.618346 -44.84 
L 286.719384 -44.84 
L 287.820422 -44.84 
L 288.92146 -44.84 
L 290.022498 -44.84 
L 291.123537 -44.84 
L 292.224575 -44.84 
L 293.325613 -44.84 
L 294.426651 -44.84 
L 295.527689 -44.84 
L 296.628727 -44.84 
L 297.729765 -44.84 
L 298.830803 -44.84 
L 299.931841 -44.84 
L 301.032879 -44.84 
L 302.133917 -44.84 
L 303.234955 -44.84 
L 304.335993 -44.84 
L 305.437031 -44.84 
L 306.538069 -44.84 
L 307.639107 -44.84 
L 308.740145 -44.84 
L 309.841183 -44.84 
L 310.942221 -44.84 
L 312.043259 -44.84 
L 313.144297 -44.84 
L 314.245335 -44.84 
L 315.346373 -44.84 
L 316.447411 -44.84 
L 317.548449 -44.84 
L 318.649487 -44.84 
L 319.750526 -44.84 
L 320.851564 -44.84 
L 321.952602 -44.84 
L 323.05364 -44.84 
L 324.154678 -44.84 
L 325.255716 -44.84 
L 326.356754 -44.84 
L 327.457792 -44.84 
L 328.55883 -44.84 
L 329.659868 -44.84 
L 330.760906 -44.84 
L 331.861944 -44.84 
L 332.962982 -44.84 
L 334.06402 -44.84 
L 335.165058 -44.84 
L 336.266096 -44.84 
L 337.367134 -44.84 
L 338.468172 -44.84 
L 339.56921 -44.84 
L 340.670248 -44.84 
L 341.771286 -44.84 
L 342.872324 -44.84 
L 343.973362 -44.84 
L 345.0744 -44.84 
L 346.175438 -44.84 
L 347.276477 -44.84 
L 348.377515 -44.84 
L 349.478553 -44.84 
L 350.579591 -44.84 
L 351.680629 -44.84 
L 352.781667 -44.84 
L 353.882705 -44.84 
L 354.983743 -44.84 
L 356.084781 -44.84 
L 357.185819 -44.84 
L 358.286857 -44.84 
L 359.387895 -44.84 
L 360.488933 -44.84 
L 361.589971 -44.84 
L 362.691009 -44.84 
L 363.792047 -44.84 
L 364.893085 -44.84 
L 365.994123 -44.84 
L 367.095161 -44.84 
L 368.196199 -44.84 
L 369.297237 -44.84 
L 370.398275 -44.84 
L 371.499313 -44.84 
L 372.600351 -44.84 
L 373.701389 -44.84 
L 374.802427 -44.84 
L 375.903466 -44.84 
L 377.004504 -44.84 
L 378.105542 -44.84 
L 379.20658 -44.84 
L 380.307618 -44.84 
L 381.408656 -44.84 
L 382.509694 -44.84 
L 383.610732 -44.84 
L 384.71177 -44.84 
L 385.812808 -44.84 
L 386.913846 -44.84 
L 388.014884 -44.84 
L 389.115922 -44.84 
L 390.21696 -44.84 
L 391.317998 -44.84 
L 392.419036 -44.84 
L 393.520074 -44.84 
L 394.621112 -44.84 
L 395.72215 -44.84 
L 396.823188 -44.84 
L 397.924226 -44.84 
L 399.025264 -44.84 
L 400.126302 -44.84 
L 401.22734 -44.84 
L 402.328378 -44.84 
L 403.429417 -44.84 
L 404.530455 -44.84 
L 404.530455 -45.002977 
L 404.530455 -45.002977 
L 403.429417 -45.088863 
L 402.328378 -45.214651 
L 401.22734 -45.396144 
L 400.126302 -45.654147 
L 399.025264 -46.015532 
L 397.924226 -46.514339 
L 396.823188 -47.192832 
L 395.72215 -48.102407 
L 394.621112 -49.304228 
L 393.520074 -50.869444 
L 392.419036 -52.878832 
L 391.317998 -55.421733 
L 390.21696 -58.594148 
L 389.115922 -62.495945 
L 388.014884 -67.227166 
L 386.913846 -72.88354 
L 385.812808 -79.551384 
L 384.71177 -87.302184 
L 383.610732 -96.187243 
L 382.509694 -106.232803 
L 381.408656 -117.436103 
L 380.307618 -129.762753 
L 379.20658 -143.14573 
L 378.105542 -157.486166 
L 377.004504 -172.6559 
L 375.903466 -188.501626 
L 374.802427 -204.850262 
L 373.701389 -221.515113 
L 372.600351 -238.302283 
L 371.499313 -255.016873 
L 370.398275 -271.46855 
L 369.297237 -287.476217 
L 368.196199 -302.871677 
L 367.095161 -317.50231 
L 365.994123 -331.232911 
L 364.893085 -343.946874 
L 363.792047 -355.546922 
L 362.691009 -365.955505 
L 361.589971 -375.114947 
L 360.488933 -382.987286 
L 359.387895 -389.553707 
L 358.286857 -394.813434 
L 357.185819 -398.781915 
L 356.084781 -401.488238 
L 354.983743 -402.971766 
L 353.882705 -403.278095 
L 352.781667 -402.454605 
L 351.680629 -400.545914 
L 350.579591 -397.589712 
L 349.478553 -393.613451 
L 348.377515 -388.632369 
L 347.276477 -382.649289 
L 346.175438 -375.656438 
L 345.0744 -367.639393 
L 343.973362 -358.58295 
L 342.872324 -348.478482 
L 341.771286 -337.332067 
L 340.670248 -325.172494 
L 339.56921 -312.058126 
L 338.468172 -298.081672 
L 337.367134 -283.372052 
L 336.266096 -268.092866 
L 335.165058 -252.437372 
L 334.06402 -236.62029 
L 332.962982 -220.867178 
L 331.861944 -205.402431 
L 330.760906 -190.437142 
L 329.659868 -176.158052 
L 328.55883 -162.718691 
L 327.457792 -150.233483 
L 326.356754 -138.775222 
L 325.255716 -128.375886 
L 324.154678 -119.030381 
L 323.05364 -110.702498 
L 321.952602 -103.332194 
L 320.851564 -96.843278 
L 319.750526 -91.150662 
L 318.649487 -86.166541 
L 317.548449 -81.805126 
L 316.447411 -77.985814 
L 315.346373 -74.6349 
L 314.245335 -71.686149 
L 313.144297 -69.080582 
L 312.043259 -66.765884 
L 310.942221 -64.695752 
L 309.841183 -62.829407 
L 308.740145 -61.13136 
L 307.639107 -59.571413 
L 306.538069 -58.124805 
L 305.437031 -56.772327 
L 304.335993 -55.500297 
L 303.234955 -54.300265 
L 302.133917 -53.16841 
L 301.032879 -52.104652 
L 299.931841 -51.111547 
L 298.830803 -50.19309 
L 297.729765 -49.353558 
L 296.628727 -48.596497 
L 295.527689 -47.923964 
L 294.426651 -47.336051 
L 293.325613 -46.830716 
L 292.224575 -46.403886 
L 291.123537 -46.049754 
L 290.022498 -45.761226 
L 288.92146 -45.530422 
L 287.820422 -45.349168 
L 286.719384 -45.209436 
L 285.618346 -45.10369 
L 284.517308 -45.025132 
L 283.41627 -44.96784 
L 282.315232 -44.926819 
L 281.214194 -44.897984 
L 280.113156 -44.878082 
L 279.012118 -44.864594 
L 277.91108 -44.855619 
L 276.810042 -44.849753 
L 275.709004 -44.845988 
L 274.607966 -44.843615 
L 273.506928 -44.842146 
L 272.40589 -44.841252 
L 271.304852 -44.840719 
L 270.203814 -44.840405 
L 269.102776 -44.840225 
L 268.001738 -44.840123 
L 266.9007 -44.840066 
L 265.799662 -44.840035 
L 264.698624 -44.840018 
L 263.597586 -44.840009 
L 262.496547 -44.840005 
L 261.395509 -44.840002 
L 260.294471 -44.840001 
L 259.193433 -44.840001 
L 258.092395 -44.840002 
L 256.991357 -44.840003 
L 255.890319 -44.840006 
L 254.789281 -44.840011 
L 253.688243 -44.840021 
L 252.587205 -44.840041 
L 251.486167 -44.840077 
L 250.385129 -44.840144 
L 249.284091 -44.840262 
L 248.183053 -44.840471 
L 247.082015 -44.84083 
L 245.980977 -44.84144 
L 244.879939 -44.842456 
L 243.778901 -44.844119 
L 242.677863 -44.84679 
L 241.576825 -44.851006 
L 240.475787 -44.85754 
L 239.374749 -44.867482 
L 238.273711 -44.882335 
L 237.172673 -44.904118 
L 236.071635 -44.935476 
L 234.970597 -44.979779 
L 233.869558 -45.041196 
L 232.76852 -45.124727 
L 231.667482 -45.23616 
L 230.566444 -45.381932 
L 229.465406 -45.56887 
L 228.364368 -45.803801 
L 227.26333 -46.093015 
L 226.162292 -46.441612 
L 225.061254 -46.852752 
L 223.960216 -47.326881 
L 222.859178 -47.861006 
L 221.75814 -48.448112 
L 220.657102 -49.076824 
L 219.556064 -49.731393 
L 218.455026 -50.392092 
L 217.353988 -51.036016 
L 216.25295 -51.6383 
L 215.151912 -52.173647 
L 214.050874 -52.618064 
L 212.949836 -52.950636 
L 211.848798 -53.155152 
L 210.74776 -53.221414 
L 209.646722 -53.146083 
L 208.545684 -52.932955 
L 207.444646 -52.592644 
L 206.343608 -52.141707 
L 205.242569 -51.60131 
L 204.141531 -50.995583 
L 203.040493 -50.349845 
L 201.939455 -49.68888 
L 200.838417 -49.035419 
L 199.737379 -48.408955 
L 198.636341 -47.824961 
L 197.535303 -47.294529 
L 196.434265 -46.824402 
L 195.333227 -46.417331 
L 194.232189 -46.072673 
L 193.131151 -45.78712 
L 192.030113 -45.555474 
L 190.929075 -45.371391 
L 189.828037 -45.228032 
L 188.726999 -45.118581 
L 187.625961 -45.036638 
L 186.524923 -44.976463 
L 185.423885 -44.93311 
z
" style="stroke: #808080; stroke-width: 2.5"/>
    </defs>
    <g clip-path="url(#pb77eb6c836)">
     <use xlink:href="#m773344b8ee" x="0" y="432" style="fill: #808080; stroke: #808080; stroke-width: 2.5"/>
    </g>
   </g>
   <g id="matplotlib.axis_1">
    <g id="xtick_1">
     <g id="line2d_1">
      <defs>
       <path id="m4014c659b2" d="M 0 0 
L 0 3.5 
" style="stroke: #000000; stroke-width: 0.8"/>
      </defs>
      <g>
       <use xlink:href="#m4014c659b2" x="72.321142" y="387.16" style="stroke: #000000; stroke-width: 0.8"/>
      </g>
     </g>
     <g id="text_1">
      <!-- 4.15 -->
      <g transform="translate(61.18833 401.758438) scale(0.1 -0.1)">
       <defs>
        <path id="DejaVuSans-34" d="M 2419 4116 
L 825 1625 
L 2419 1625 
L 2419 4116 
z
M 2253 4666 
L 3047 4666 
L 3047 1625 
L 3713 1625 
L 3713 1100 
L 3047 1100 
L 3047 0 
L 2419 0 
L 2419 1100 
L 313 1100 
L 313 1709 
L 2253 4666 
z
" transform="scale(0.015625)"/>
        <path id="DejaVuSans-2e" d="M 684 794 
L 1344 794 
L 1344 0 
L 684 0 
L 684 794 
z
" transform="scale(0.015625)"/>
        <path id="DejaVuSans-31" d="M 794 531 
L 1825 531 
L 1825 4091 
L 703 3866 
L 703 4441 
L 1819 4666 
L 2450 4666 
L 2450 531 
L 3481 531 
L 3481 0 
L 794 0 
L 794 531 
z
" transform="scale(0.015625)"/>
        <path id="DejaVuSans-35" d="M 691 4666 
L 3169 4666 
L 3169 4134 
L 1269 4134 
L 1269 2991 
Q 1406 3038 1543 3061 
Q 1681 3084 1819 3084 
Q 2600 3084 3056 2656 
Q 3513 2228 3513 1497 
Q 3513 744 3044 326 
Q 2575 -91 1722 -91 
Q 1428 -91 1123 -41 
Q 819 9 494 109 
L 494 744 
Q 775 591 1075 516 
Q 1375 441 1709 441 
Q 2250 441 2565 725 
Q 2881 1009 2881 1497 
Q 2881 1984 2565 2268 
Q 2250 2553 1709 2553 
Q 1456 2553 1204 2497 
Q 953 2441 691 2322 
L 691 4666 
z
" transform="scale(0.015625)"/>
       </defs>
       <use xlink:href="#DejaVuSans-34"/>
       <use xlink:href="#DejaVuSans-2e" x="63.623047"/>
       <use xlink:href="#DejaVuSans-31" x="95.410156"/>
       <use xlink:href="#DejaVuSans-35" x="159.033203"/>
      </g>
     </g>
    </g>
    <g id="xtick_2">
     <g id="line2d_2">
      <g>
       <use xlink:href="#m4014c659b2" x="131.400977" y="387.16" style="stroke: #000000; stroke-width: 0.8"/>
      </g>
     </g>
     <g id="text_2">
      <!-- 4.16 -->
      <g transform="translate(120.268165 401.758438) scale(0.1 -0.1)">
       <defs>
        <path id="DejaVuSans-36" d="M 2113 2584 
Q 1688 2584 1439 2293 
Q 1191 2003 1191 1497 
Q 1191 994 1439 701 
Q 1688 409 2113 409 
Q 2538 409 2786 701 
Q 3034 994 3034 1497 
Q 3034 2003 2786 2293 
Q 2538 2584 2113 2584 
z
M 3366 4563 
L 3366 3988 
Q 3128 4100 2886 4159 
Q 2644 4219 2406 4219 
Q 1781 4219 1451 3797 
Q 1122 3375 1075 2522 
Q 1259 2794 1537 2939 
Q 1816 3084 2150 3084 
Q 2853 3084 3261 2657 
Q 3669 2231 3669 1497 
Q 3669 778 3244 343 
Q 2819 -91 2113 -91 
Q 1303 -91 875 529 
Q 447 1150 447 2328 
Q 447 3434 972 4092 
Q 1497 4750 2381 4750 
Q 2619 4750 2861 4703 
Q 3103 4656 3366 4563 
z
" transform="scale(0.015625)"/>
       </defs>
       <use xlink:href="#DejaVuSans-34"/>
       <use xlink:href="#DejaVuSans-2e" x="63.623047"/>
       <use xlink:href="#DejaVuSans-31" x="95.410156"/>
       <use xlink:href="#DejaVuSans-36" x="159.033203"/>
      </g>
     </g>
    </g>
    <g id="xtick_3">
     <g id="line2d_3">
      <g>
       <use xlink:href="#m4014c659b2" x="190.480813" y="387.16" style="stroke: #000000; stroke-width: 0.8"/>
      </g>
     </g>
     <g id="text_3">
      <!-- 4.17 -->
      <g transform="translate(179.348 401.758438) scale(0.1 -0.1)">
       <defs>
        <path id="DejaVuSans-37" d="M 525 4666 
L 3525 4666 
L 3525 4397 
L 1831 0 
L 1172 0 
L 2766 4134 
L 525 4134 
L 525 4666 
z
" transform="scale(0.015625)"/>
       </defs>
       <use xlink:href="#DejaVuSans-34"/>
       <use xlink:href="#DejaVuSans-2e" x="63.623047"/>
       <use xlink:href="#DejaVuSans-31" x="95.410156"/>
       <use xlink:href="#DejaVuSans-37" x="159.033203"/>
      </g>
     </g>
    </g>
    <g id="xtick_4">
     <g id="line2d_4">
      <g>
       <use xlink:href="#m4014c659b2" x="249.560648" y="387.16" style="stroke: #000000; stroke-width: 0.8"/>
      </g>
     </g>
     <g id="text_4">
      <!-- 4.18 -->
      <g transform="translate(238.427835 401.758438) scale(0.1 -0.1)">
       <defs>
        <path id="DejaVuSans-38" d="M 2034 2216 
Q 1584 2216 1326 1975 
Q 1069 1734 1069 1313 
Q 1069 891 1326 650 
Q 1584 409 2034 409 
Q 2484 409 2743 651 
Q 3003 894 3003 1313 
Q 3003 1734 2745 1975 
Q 2488 2216 2034 2216 
z
M 1403 2484 
Q 997 2584 770 2862 
Q 544 3141 544 3541 
Q 544 4100 942 4425 
Q 1341 4750 2034 4750 
Q 2731 4750 3128 4425 
Q 3525 4100 3525 3541 
Q 3525 3141 3298 2862 
Q 3072 2584 2669 2484 
Q 3125 2378 3379 2068 
Q 3634 1759 3634 1313 
Q 3634 634 3220 271 
Q 2806 -91 2034 -91 
Q 1263 -91 848 271 
Q 434 634 434 1313 
Q 434 1759 690 2068 
Q 947 2378 1403 2484 
z
M 1172 3481 
Q 1172 3119 1398 2916 
Q 1625 2713 2034 2713 
Q 2441 2713 2670 2916 
Q 2900 3119 2900 3481 
Q 2900 3844 2670 4047 
Q 2441 4250 2034 4250 
Q 1625 4250 1398 4047 
Q 1172 3844 1172 3481 
z
" transform="scale(0.015625)"/>
       </defs>
       <use xlink:href="#DejaVuSans-34"/>
       <use xlink:href="#DejaVuSans-2e" x="63.623047"/>
       <use xlink:href="#DejaVuSans-31" x="95.410156"/>
       <use xlink:href="#DejaVuSans-38" x="159.033203"/>
      </g>
     </g>
    </g>
    <g id="xtick_5">
     <g id="line2d_5">
      <g>
       <use xlink:href="#m4014c659b2" x="308.640483" y="387.16" style="stroke: #000000; stroke-width: 0.8"/>
      </g>
     </g>
     <g id="text_5">
      <!-- 4.19 -->
      <g transform="translate(297.507671 401.758438) scale(0.1 -0.1)">
       <defs>
        <path id="DejaVuSans-39" d="M 703 97 
L 703 672 
Q 941 559 1184 500 
Q 1428 441 1663 441 
Q 2288 441 2617 861 
Q 2947 1281 2994 2138 
Q 2813 1869 2534 1725 
Q 2256 1581 1919 1581 
Q 1219 1581 811 2004 
Q 403 2428 403 3163 
Q 403 3881 828 4315 
Q 1253 4750 1959 4750 
Q 2769 4750 3195 4129 
Q 3622 3509 3622 2328 
Q 3622 1225 3098 567 
Q 2575 -91 1691 -91 
Q 1453 -91 1209 -44 
Q 966 3 703 97 
z
M 1959 2075 
Q 2384 2075 2632 2365 
Q 2881 2656 2881 3163 
Q 2881 3666 2632 3958 
Q 2384 4250 1959 4250 
Q 1534 4250 1286 3958 
Q 1038 3666 1038 3163 
Q 1038 2656 1286 2365 
Q 1534 2075 1959 2075 
z
" transform="scale(0.015625)"/>
       </defs>
       <use xlink:href="#DejaVuSans-34"/>
       <use xlink:href="#DejaVuSans-2e" x="63.623047"/>
       <use xlink:href="#DejaVuSans-31" x="95.410156"/>
       <use xlink:href="#DejaVuSans-39" x="159.033203"/>
      </g>
     </g>
    </g>
    <g id="xtick_6">
     <g id="line2d_6">
      <g>
       <use xlink:href="#m4014c659b2" x="367.720318" y="387.16" style="stroke: #000000; stroke-width: 0.8"/>
      </g>
     </g>
     <g id="text_6">
      <!-- 4.20 -->
      <g transform="translate(356.587506 401.758438) scale(0.1 -0.1)">
       <defs>
        <path id="DejaVuSans-32" d="M 1228 531 
L 3431 531 
L 3431 0 
L 469 0 
L 469 531 
Q 828 903 1448 1529 
Q 2069 2156 2228 2338 
Q 2531 2678 2651 2914 
Q 2772 3150 2772 3378 
Q 2772 3750 2511 3984 
Q 2250 4219 1831 4219 
Q 1534 4219 1204 4116 
Q 875 4013 500 3803 
L 500 4441 
Q 881 4594 1212 4672 
Q 1544 4750 1819 4750 
Q 2544 4750 2975 4387 
Q 3406 4025 3406 3419 
Q 3406 3131 3298 2873 
Q 3191 2616 2906 2266 
Q 2828 2175 2409 1742 
Q 1991 1309 1228 531 
z
" transform="scale(0.015625)"/>
        <path id="DejaVuSans-30" d="M 2034 4250 
Q 1547 4250 1301 3770 
Q 1056 3291 1056 2328 
Q 1056 1369 1301 889 
Q 1547 409 2034 409 
Q 2525 409 2770 889 
Q 3016 1369 3016 2328 
Q 3016 3291 2770 3770 
Q 2525 4250 2034 4250 
z
M 2034 4750 
Q 2819 4750 3233 4129 
Q 3647 3509 3647 2328 
Q 3647 1150 3233 529 
Q 2819 -91 2034 -91 
Q 1250 -91 836 529 
Q 422 1150 422 2328 
Q 422 3509 836 4129 
Q 1250 4750 2034 4750 
z
" transform="scale(0.015625)"/>
       </defs>
       <use xlink:href="#DejaVuSans-34"/>
       <use xlink:href="#DejaVuSans-2e" x="63.623047"/>
       <use xlink:href="#DejaVuSans-32" x="95.410156"/>
       <use xlink:href="#DejaVuSans-30" x="159.033203"/>
      </g>
     </g>
    </g>
    <g id="text_7">
     <!-- Predicted Fluorescence -->
     <g transform="translate(168.23875 416.95625) scale(0.12 -0.12)">
      <defs>
       <path id="DejaVuSans-50" d="M 1259 4147 
L 1259 2394 
L 2053 2394 
Q 2494 2394 2734 2622 
Q 2975 2850 2975 3272 
Q 2975 3691 2734 3919 
Q 2494 4147 2053 4147 
L 1259 4147 
z
M 628 4666 
L 2053 4666 
Q 2838 4666 3239 4311 
Q 3641 3956 3641 3272 
Q 3641 2581 3239 2228 
Q 2838 1875 2053 1875 
L 1259 1875 
L 1259 0 
L 628 0 
L 628 4666 
z
" transform="scale(0.015625)"/>
       <path id="DejaVuSans-72" d="M 2631 2963 
Q 2534 3019 2420 3045 
Q 2306 3072 2169 3072 
Q 1681 3072 1420 2755 
Q 1159 2438 1159 1844 
L 1159 0 
L 581 0 
L 581 3500 
L 1159 3500 
L 1159 2956 
Q 1341 3275 1631 3429 
Q 1922 3584 2338 3584 
Q 2397 3584 2469 3576 
Q 2541 3569 2628 3553 
L 2631 2963 
z
" transform="scale(0.015625)"/>
       <path id="DejaVuSans-65" d="M 3597 1894 
L 3597 1613 
L 953 1613 
Q 991 1019 1311 708 
Q 1631 397 2203 397 
Q 2534 397 2845 478 
Q 3156 559 3463 722 
L 3463 178 
Q 3153 47 2828 -22 
Q 2503 -91 2169 -91 
Q 1331 -91 842 396 
Q 353 884 353 1716 
Q 353 2575 817 3079 
Q 1281 3584 2069 3584 
Q 2775 3584 3186 3129 
Q 3597 2675 3597 1894 
z
M 3022 2063 
Q 3016 2534 2758 2815 
Q 2500 3097 2075 3097 
Q 1594 3097 1305 2825 
Q 1016 2553 972 2059 
L 3022 2063 
z
" transform="scale(0.015625)"/>
       <path id="DejaVuSans-64" d="M 2906 2969 
L 2906 4863 
L 3481 4863 
L 3481 0 
L 2906 0 
L 2906 525 
Q 2725 213 2448 61 
Q 2172 -91 1784 -91 
Q 1150 -91 751 415 
Q 353 922 353 1747 
Q 353 2572 751 3078 
Q 1150 3584 1784 3584 
Q 2172 3584 2448 3432 
Q 2725 3281 2906 2969 
z
M 947 1747 
Q 947 1113 1208 752 
Q 1469 391 1925 391 
Q 2381 391 2643 752 
Q 2906 1113 2906 1747 
Q 2906 2381 2643 2742 
Q 2381 3103 1925 3103 
Q 1469 3103 1208 2742 
Q 947 2381 947 1747 
z
" transform="scale(0.015625)"/>
       <path id="DejaVuSans-69" d="M 603 3500 
L 1178 3500 
L 1178 0 
L 603 0 
L 603 3500 
z
M 603 4863 
L 1178 4863 
L 1178 4134 
L 603 4134 
L 603 4863 
z
" transform="scale(0.015625)"/>
       <path id="DejaVuSans-63" d="M 3122 3366 
L 3122 2828 
Q 2878 2963 2633 3030 
Q 2388 3097 2138 3097 
Q 1578 3097 1268 2742 
Q 959 2388 959 1747 
Q 959 1106 1268 751 
Q 1578 397 2138 397 
Q 2388 397 2633 464 
Q 2878 531 3122 666 
L 3122 134 
Q 2881 22 2623 -34 
Q 2366 -91 2075 -91 
Q 1284 -91 818 406 
Q 353 903 353 1747 
Q 353 2603 823 3093 
Q 1294 3584 2113 3584 
Q 2378 3584 2631 3529 
Q 2884 3475 3122 3366 
z
" transform="scale(0.015625)"/>
       <path id="DejaVuSans-74" d="M 1172 4494 
L 1172 3500 
L 2356 3500 
L 2356 3053 
L 1172 3053 
L 1172 1153 
Q 1172 725 1289 603 
Q 1406 481 1766 481 
L 2356 481 
L 2356 0 
L 1766 0 
Q 1100 0 847 248 
Q 594 497 594 1153 
L 594 3053 
L 172 3053 
L 172 3500 
L 594 3500 
L 594 4494 
L 1172 4494 
z
" transform="scale(0.015625)"/>
       <path id="DejaVuSans-20" transform="scale(0.015625)"/>
       <path id="DejaVuSans-46" d="M 628 4666 
L 3309 4666 
L 3309 4134 
L 1259 4134 
L 1259 2759 
L 3109 2759 
L 3109 2228 
L 1259 2228 
L 1259 0 
L 628 0 
L 628 4666 
z
" transform="scale(0.015625)"/>
       <path id="DejaVuSans-6c" d="M 603 4863 
L 1178 4863 
L 1178 0 
L 603 0 
L 603 4863 
z
" transform="scale(0.015625)"/>
       <path id="DejaVuSans-75" d="M 544 1381 
L 544 3500 
L 1119 3500 
L 1119 1403 
Q 1119 906 1312 657 
Q 1506 409 1894 409 
Q 2359 409 2629 706 
Q 2900 1003 2900 1516 
L 2900 3500 
L 3475 3500 
L 3475 0 
L 2900 0 
L 2900 538 
Q 2691 219 2414 64 
Q 2138 -91 1772 -91 
Q 1169 -91 856 284 
Q 544 659 544 1381 
z
M 1991 3584 
L 1991 3584 
z
" transform="scale(0.015625)"/>
       <path id="DejaVuSans-6f" d="M 1959 3097 
Q 1497 3097 1228 2736 
Q 959 2375 959 1747 
Q 959 1119 1226 758 
Q 1494 397 1959 397 
Q 2419 397 2687 759 
Q 2956 1122 2956 1747 
Q 2956 2369 2687 2733 
Q 2419 3097 1959 3097 
z
M 1959 3584 
Q 2709 3584 3137 3096 
Q 3566 2609 3566 1747 
Q 3566 888 3137 398 
Q 2709 -91 1959 -91 
Q 1206 -91 779 398 
Q 353 888 353 1747 
Q 353 2609 779 3096 
Q 1206 3584 1959 3584 
z
" transform="scale(0.015625)"/>
       <path id="DejaVuSans-73" d="M 2834 3397 
L 2834 2853 
Q 2591 2978 2328 3040 
Q 2066 3103 1784 3103 
Q 1356 3103 1142 2972 
Q 928 2841 928 2578 
Q 928 2378 1081 2264 
Q 1234 2150 1697 2047 
L 1894 2003 
Q 2506 1872 2764 1633 
Q 3022 1394 3022 966 
Q 3022 478 2636 193 
Q 2250 -91 1575 -91 
Q 1294 -91 989 -36 
Q 684 19 347 128 
L 347 722 
Q 666 556 975 473 
Q 1284 391 1588 391 
Q 1994 391 2212 530 
Q 2431 669 2431 922 
Q 2431 1156 2273 1281 
Q 2116 1406 1581 1522 
L 1381 1569 
Q 847 1681 609 1914 
Q 372 2147 372 2553 
Q 372 3047 722 3315 
Q 1072 3584 1716 3584 
Q 2034 3584 2315 3537 
Q 2597 3491 2834 3397 
z
" transform="scale(0.015625)"/>
       <path id="DejaVuSans-6e" d="M 3513 2113 
L 3513 0 
L 2938 0 
L 2938 2094 
Q 2938 2591 2744 2837 
Q 2550 3084 2163 3084 
Q 1697 3084 1428 2787 
Q 1159 2491 1159 1978 
L 1159 0 
L 581 0 
L 581 3500 
L 1159 3500 
L 1159 2956 
Q 1366 3272 1645 3428 
Q 1925 3584 2291 3584 
Q 2894 3584 3203 3211 
Q 3513 2838 3513 2113 
z
" transform="scale(0.015625)"/>
      </defs>
      <use xlink:href="#DejaVuSans-50"/>
      <use xlink:href="#DejaVuSans-72" x="58.552734"/>
      <use xlink:href="#DejaVuSans-65" x="97.416016"/>
      <use xlink:href="#DejaVuSans-64" x="158.939453"/>
      <use xlink:href="#DejaVuSans-69" x="222.416016"/>
      <use xlink:href="#DejaVuSans-63" x="250.199219"/>
      <use xlink:href="#DejaVuSans-74" x="305.179688"/>
      <use xlink:href="#DejaVuSans-65" x="344.388672"/>
      <use xlink:href="#DejaVuSans-64" x="405.912109"/>
      <use xlink:href="#DejaVuSans-20" x="469.388672"/>
      <use xlink:href="#DejaVuSans-46" x="501.175781"/>
      <use xlink:href="#DejaVuSans-6c" x="558.695312"/>
      <use xlink:href="#DejaVuSans-75" x="586.478516"/>
      <use xlink:href="#DejaVuSans-6f" x="649.857422"/>
      <use xlink:href="#DejaVuSans-72" x="711.039062"/>
      <use xlink:href="#DejaVuSans-65" x="749.902344"/>
      <use xlink:href="#DejaVuSans-73" x="811.425781"/>
      <use xlink:href="#DejaVuSans-63" x="863.525391"/>
      <use xlink:href="#DejaVuSans-65" x="918.505859"/>
      <use xlink:href="#DejaVuSans-6e" x="980.029297"/>
      <use xlink:href="#DejaVuSans-63" x="1043.408203"/>
      <use xlink:href="#DejaVuSans-65" x="1098.388672"/>
     </g>
    </g>
   </g>
   <g id="matplotlib.axis_2">
    <g id="ytick_1">
     <g id="line2d_7">
      <defs>
       <path id="m1c6b8468d8" d="M 0 0 
L -3.5 0 
" style="stroke: #000000; stroke-width: 0.8"/>
      </defs>
      <g>
       <use xlink:href="#m1c6b8468d8" x="54.47" y="387.16" style="stroke: #000000; stroke-width: 0.8"/>
      </g>
     </g>
     <g id="text_8">
      <!-- 0 -->
      <g transform="translate(41.1075 390.959219) scale(0.1 -0.1)">
       <use xlink:href="#DejaVuSans-30"/>
      </g>
     </g>
    </g>
    <g id="ytick_2">
     <g id="line2d_8">
      <g>
       <use xlink:href="#m1c6b8468d8" x="54.47" y="335.45698" style="stroke: #000000; stroke-width: 0.8"/>
      </g>
     </g>
     <g id="text_9">
      <!-- 20 -->
      <g transform="translate(34.745 339.256199) scale(0.1 -0.1)">
       <use xlink:href="#DejaVuSans-32"/>
       <use xlink:href="#DejaVuSans-30" x="63.623047"/>
      </g>
     </g>
    </g>
    <g id="ytick_3">
     <g id="line2d_9">
      <g>
       <use xlink:href="#m1c6b8468d8" x="54.47" y="283.75396" style="stroke: #000000; stroke-width: 0.8"/>
      </g>
     </g>
     <g id="text_10">
      <!-- 40 -->
      <g transform="translate(34.745 287.553179) scale(0.1 -0.1)">
       <use xlink:href="#DejaVuSans-34"/>
       <use xlink:href="#DejaVuSans-30" x="63.623047"/>
      </g>
     </g>
    </g>
    <g id="ytick_4">
     <g id="line2d_10">
      <g>
       <use xlink:href="#m1c6b8468d8" x="54.47" y="232.05094" style="stroke: #000000; stroke-width: 0.8"/>
      </g>
     </g>
     <g id="text_11">
      <!-- 60 -->
      <g transform="translate(34.745 235.850159) scale(0.1 -0.1)">
       <use xlink:href="#DejaVuSans-36"/>
       <use xlink:href="#DejaVuSans-30" x="63.623047"/>
      </g>
     </g>
    </g>
    <g id="ytick_5">
     <g id="line2d_11">
      <g>
       <use xlink:href="#m1c6b8468d8" x="54.47" y="180.34792" style="stroke: #000000; stroke-width: 0.8"/>
      </g>
     </g>
     <g id="text_12">
      <!-- 80 -->
      <g transform="translate(34.745 184.147139) scale(0.1 -0.1)">
       <use xlink:href="#DejaVuSans-38"/>
       <use xlink:href="#DejaVuSans-30" x="63.623047"/>
      </g>
     </g>
    </g>
    <g id="ytick_6">
     <g id="line2d_12">
      <g>
       <use xlink:href="#m1c6b8468d8" x="54.47" y="128.6449" style="stroke: #000000; stroke-width: 0.8"/>
      </g>
     </g>
     <g id="text_13">
      <!-- 100 -->
      <g transform="translate(28.3825 132.444119) scale(0.1 -0.1)">
       <use xlink:href="#DejaVuSans-31"/>
       <use xlink:href="#DejaVuSans-30" x="63.623047"/>
       <use xlink:href="#DejaVuSans-30" x="127.246094"/>
      </g>
     </g>
    </g>
    <g id="ytick_7">
     <g id="line2d_13">
      <g>
       <use xlink:href="#m1c6b8468d8" x="54.47" y="76.941881" style="stroke: #000000; stroke-width: 0.8"/>
      </g>
     </g>
     <g id="text_14">
      <!-- 120 -->
      <g transform="translate(28.3825 80.741099) scale(0.1 -0.1)">
       <use xlink:href="#DejaVuSans-31"/>
       <use xlink:href="#DejaVuSans-32" x="63.623047"/>
       <use xlink:href="#DejaVuSans-30" x="127.246094"/>
      </g>
     </g>
    </g>
    <g id="ytick_8">
     <g id="line2d_14">
      <g>
       <use xlink:href="#m1c6b8468d8" x="54.47" y="25.238861" style="stroke: #000000; stroke-width: 0.8"/>
      </g>
     </g>
     <g id="text_15">
      <!-- 140 -->
      <g transform="translate(28.3825 29.038079) scale(0.1 -0.1)">
       <use xlink:href="#DejaVuSans-31"/>
       <use xlink:href="#DejaVuSans-34" x="63.623047"/>
       <use xlink:href="#DejaVuSans-30" x="127.246094"/>
      </g>
     </g>
    </g>
    <g id="text_16">
     <!-- Density -->
     <g transform="translate(21.470938 225.592031) rotate(-90) scale(0.14 -0.14)">
      <defs>
       <path id="DejaVuSans-44" d="M 1259 4147 
L 1259 519 
L 2022 519 
Q 2988 519 3436 956 
Q 3884 1394 3884 2338 
Q 3884 3275 3436 3711 
Q 2988 4147 2022 4147 
L 1259 4147 
z
M 628 4666 
L 1925 4666 
Q 3281 4666 3915 4102 
Q 4550 3538 4550 2338 
Q 4550 1131 3912 565 
Q 3275 0 1925 0 
L 628 0 
L 628 4666 
z
" transform="scale(0.015625)"/>
       <path id="DejaVuSans-79" d="M 2059 -325 
Q 1816 -950 1584 -1140 
Q 1353 -1331 966 -1331 
L 506 -1331 
L 506 -850 
L 844 -850 
Q 1081 -850 1212 -737 
Q 1344 -625 1503 -206 
L 1606 56 
L 191 3500 
L 800 3500 
L 1894 763 
L 2988 3500 
L 3597 3500 
L 2059 -325 
z
" transform="scale(0.015625)"/>
      </defs>
      <use xlink:href="#DejaVuSans-44"/>
      <use xlink:href="#DejaVuSans-65" x="77.001953"/>
      <use xlink:href="#DejaVuSans-6e" x="138.525391"/>
      <use xlink:href="#DejaVuSans-73" x="201.904297"/>
      <use xlink:href="#DejaVuSans-69" x="254.003906"/>
      <use xlink:href="#DejaVuSans-74" x="281.787109"/>
      <use xlink:href="#DejaVuSans-79" x="320.996094"/>
     </g>
    </g>
   </g>
   <g id="line2d_15">
    <path d="M 71.139545 387.16 
L 71.139545 10.8 
" clip-path="url(#pb77eb6c836)" style="fill: none; stroke-dasharray: 3.7,1.6; stroke-dashoffset: 0; stroke: #000000"/>
   </g>
   <g id="patch_3">
    <path d="M 54.47 387.16 
L 54.47 10.8 
" style="fill: none; stroke: #000000; stroke-width: 0.8; stroke-linejoin: miter; stroke-linecap: square"/>
   </g>
   <g id="patch_4">
    <path d="M 54.47 387.16 
L 421.2 387.16 
" style="fill: none; stroke: #000000; stroke-width: 0.8; stroke-linejoin: miter; stroke-linecap: square"/>
   </g>
   <g id="legend_1">
    <g id="patch_5">
     <path d="M 235.692187 33.478125 
L 414.2 33.478125 
Q 416.2 33.478125 416.2 31.478125 
L 416.2 17.8 
Q 416.2 15.8 414.2 15.8 
L 235.692187 15.8 
Q 233.692187 15.8 233.692187 17.8 
L 233.692187 31.478125 
Q 233.692187 33.478125 235.692187 33.478125 
z
" style="fill: #ffffff; opacity: 0.8; stroke: #cccccc; stroke-linejoin: miter"/>
    </g>
    <g id="patch_6">
     <path d="M 237.692187 27.398438 
L 257.692187 27.398438 
L 257.692187 20.398438 
L 237.692187 20.398438 
z
" style="fill: #808080; stroke: #808080; stroke-width: 2.5; stroke-linejoin: miter"/>
    </g>
    <g id="text_17">
     <!-- Unique Best Designs from SA -->
     <g transform="translate(265.692187 27.398438) scale(0.1 -0.1)">
      <defs>
       <path id="DejaVuSans-55" d="M 556 4666 
L 1191 4666 
L 1191 1831 
Q 1191 1081 1462 751 
Q 1734 422 2344 422 
Q 2950 422 3222 751 
Q 3494 1081 3494 1831 
L 3494 4666 
L 4128 4666 
L 4128 1753 
Q 4128 841 3676 375 
Q 3225 -91 2344 -91 
Q 1459 -91 1007 375 
Q 556 841 556 1753 
L 556 4666 
z
" transform="scale(0.015625)"/>
       <path id="DejaVuSans-71" d="M 947 1747 
Q 947 1113 1208 752 
Q 1469 391 1925 391 
Q 2381 391 2643 752 
Q 2906 1113 2906 1747 
Q 2906 2381 2643 2742 
Q 2381 3103 1925 3103 
Q 1469 3103 1208 2742 
Q 947 2381 947 1747 
z
M 2906 525 
Q 2725 213 2448 61 
Q 2172 -91 1784 -91 
Q 1150 -91 751 415 
Q 353 922 353 1747 
Q 353 2572 751 3078 
Q 1150 3584 1784 3584 
Q 2172 3584 2448 3432 
Q 2725 3281 2906 2969 
L 2906 3500 
L 3481 3500 
L 3481 -1331 
L 2906 -1331 
L 2906 525 
z
" transform="scale(0.015625)"/>
       <path id="DejaVuSans-42" d="M 1259 2228 
L 1259 519 
L 2272 519 
Q 2781 519 3026 730 
Q 3272 941 3272 1375 
Q 3272 1813 3026 2020 
Q 2781 2228 2272 2228 
L 1259 2228 
z
M 1259 4147 
L 1259 2741 
L 2194 2741 
Q 2656 2741 2882 2914 
Q 3109 3088 3109 3444 
Q 3109 3797 2882 3972 
Q 2656 4147 2194 4147 
L 1259 4147 
z
M 628 4666 
L 2241 4666 
Q 2963 4666 3353 4366 
Q 3744 4066 3744 3513 
Q 3744 3084 3544 2831 
Q 3344 2578 2956 2516 
Q 3422 2416 3680 2098 
Q 3938 1781 3938 1306 
Q 3938 681 3513 340 
Q 3088 0 2303 0 
L 628 0 
L 628 4666 
z
" transform="scale(0.015625)"/>
       <path id="DejaVuSans-67" d="M 2906 1791 
Q 2906 2416 2648 2759 
Q 2391 3103 1925 3103 
Q 1463 3103 1205 2759 
Q 947 2416 947 1791 
Q 947 1169 1205 825 
Q 1463 481 1925 481 
Q 2391 481 2648 825 
Q 2906 1169 2906 1791 
z
M 3481 434 
Q 3481 -459 3084 -895 
Q 2688 -1331 1869 -1331 
Q 1566 -1331 1297 -1286 
Q 1028 -1241 775 -1147 
L 775 -588 
Q 1028 -725 1275 -790 
Q 1522 -856 1778 -856 
Q 2344 -856 2625 -561 
Q 2906 -266 2906 331 
L 2906 616 
Q 2728 306 2450 153 
Q 2172 0 1784 0 
Q 1141 0 747 490 
Q 353 981 353 1791 
Q 353 2603 747 3093 
Q 1141 3584 1784 3584 
Q 2172 3584 2450 3431 
Q 2728 3278 2906 2969 
L 2906 3500 
L 3481 3500 
L 3481 434 
z
" transform="scale(0.015625)"/>
       <path id="DejaVuSans-66" d="M 2375 4863 
L 2375 4384 
L 1825 4384 
Q 1516 4384 1395 4259 
Q 1275 4134 1275 3809 
L 1275 3500 
L 2222 3500 
L 2222 3053 
L 1275 3053 
L 1275 0 
L 697 0 
L 697 3053 
L 147 3053 
L 147 3500 
L 697 3500 
L 697 3744 
Q 697 4328 969 4595 
Q 1241 4863 1831 4863 
L 2375 4863 
z
" transform="scale(0.015625)"/>
       <path id="DejaVuSans-6d" d="M 3328 2828 
Q 3544 3216 3844 3400 
Q 4144 3584 4550 3584 
Q 5097 3584 5394 3201 
Q 5691 2819 5691 2113 
L 5691 0 
L 5113 0 
L 5113 2094 
Q 5113 2597 4934 2840 
Q 4756 3084 4391 3084 
Q 3944 3084 3684 2787 
Q 3425 2491 3425 1978 
L 3425 0 
L 2847 0 
L 2847 2094 
Q 2847 2600 2669 2842 
Q 2491 3084 2119 3084 
Q 1678 3084 1418 2786 
Q 1159 2488 1159 1978 
L 1159 0 
L 581 0 
L 581 3500 
L 1159 3500 
L 1159 2956 
Q 1356 3278 1631 3431 
Q 1906 3584 2284 3584 
Q 2666 3584 2933 3390 
Q 3200 3197 3328 2828 
z
" transform="scale(0.015625)"/>
       <path id="DejaVuSans-53" d="M 3425 4513 
L 3425 3897 
Q 3066 4069 2747 4153 
Q 2428 4238 2131 4238 
Q 1616 4238 1336 4038 
Q 1056 3838 1056 3469 
Q 1056 3159 1242 3001 
Q 1428 2844 1947 2747 
L 2328 2669 
Q 3034 2534 3370 2195 
Q 3706 1856 3706 1288 
Q 3706 609 3251 259 
Q 2797 -91 1919 -91 
Q 1588 -91 1214 -16 
Q 841 59 441 206 
L 441 856 
Q 825 641 1194 531 
Q 1563 422 1919 422 
Q 2459 422 2753 634 
Q 3047 847 3047 1241 
Q 3047 1584 2836 1778 
Q 2625 1972 2144 2069 
L 1759 2144 
Q 1053 2284 737 2584 
Q 422 2884 422 3419 
Q 422 4038 858 4394 
Q 1294 4750 2059 4750 
Q 2388 4750 2728 4690 
Q 3069 4631 3425 4513 
z
" transform="scale(0.015625)"/>
       <path id="DejaVuSans-41" d="M 2188 4044 
L 1331 1722 
L 3047 1722 
L 2188 4044 
z
M 1831 4666 
L 2547 4666 
L 4325 0 
L 3669 0 
L 3244 1197 
L 1141 1197 
L 716 0 
L 50 0 
L 1831 4666 
z
" transform="scale(0.015625)"/>
      </defs>
      <use xlink:href="#DejaVuSans-55"/>
      <use xlink:href="#DejaVuSans-6e" x="73.193359"/>
      <use xlink:href="#DejaVuSans-69" x="136.572266"/>
      <use xlink:href="#DejaVuSans-71" x="164.355469"/>
      <use xlink:href="#DejaVuSans-75" x="227.832031"/>
      <use xlink:href="#DejaVuSans-65" x="291.210938"/>
      <use xlink:href="#DejaVuSans-20" x="352.734375"/>
      <use xlink:href="#DejaVuSans-42" x="384.521484"/>
      <use xlink:href="#DejaVuSans-65" x="453.125"/>
      <use xlink:href="#DejaVuSans-73" x="514.648438"/>
      <use xlink:href="#DejaVuSans-74" x="566.748047"/>
      <use xlink:href="#DejaVuSans-20" x="605.957031"/>
      <use xlink:href="#DejaVuSans-44" x="637.744141"/>
      <use xlink:href="#DejaVuSans-65" x="714.746094"/>
      <use xlink:href="#DejaVuSans-73" x="776.269531"/>
      <use xlink:href="#DejaVuSans-69" x="828.369141"/>
      <use xlink:href="#DejaVuSans-67" x="856.152344"/>
      <use xlink:href="#DejaVuSans-6e" x="919.628906"/>
      <use xlink:href="#DejaVuSans-73" x="983.007812"/>
      <use xlink:href="#DejaVuSans-20" x="1035.107422"/>
      <use xlink:href="#DejaVuSans-66" x="1066.894531"/>
      <use xlink:href="#DejaVuSans-72" x="1102.099609"/>
      <use xlink:href="#DejaVuSans-6f" x="1140.962891"/>
      <use xlink:href="#DejaVuSans-6d" x="1202.144531"/>
      <use xlink:href="#DejaVuSans-20" x="1299.556641"/>
      <use xlink:href="#DejaVuSans-53" x="1331.34375"/>
      <use xlink:href="#DejaVuSans-41" x="1396.695312"/>
     </g>
    </g>
   </g>
  </g>
 </g>
 <defs>
  <clipPath id="pb77eb6c836">
   <rect x="54.47" y="10.8" width="366.73" height="376.36"/>
  </clipPath>
 </defs>
</svg>
