<?xml version="1.0" encoding="utf-8" standalone="no"?>
<!DOCTYPE svg PUBLIC "-//W3C//DTD SVG 1.1//EN"
  "http://www.w3.org/Graphics/SVG/1.1/DTD/svg11.dtd">
<svg xmlns:xlink="http://www.w3.org/1999/xlink" width="864pt" height="432pt" viewBox="0 0 864 432" xmlns="http://www.w3.org/2000/svg" version="1.1">
 <metadata>
  <rdf:RDF xmlns:dc="http://purl.org/dc/elements/1.1/" xmlns:cc="http://creativecommons.org/ns#" xmlns:rdf="http://www.w3.org/1999/02/22-rdf-syntax-ns#">
   <cc:Work>
    <dc:type rdf:resource="http://purl.org/dc/dcmitype/StillImage"/>
    <dc:date>2025-03-26T13:10:11.770818</dc:date>
    <dc:format>image/svg+xml</dc:format>
    <dc:creator>
     <cc:Agent>
      <dc:title>Matplotlib v3.8.0, https://matplotlib.org/</dc:title>
     </cc:Agent>
    </dc:creator>
   </cc:Work>
  </rdf:RDF>
 </metadata>
 <defs>
  <style type="text/css">*{stroke-linejoin: round; stroke-linecap: butt}</style>
 </defs>
 <g id="figure_1">
  <g id="patch_1">
   <path d="M 0 432 
L 864 432 
L 864 0 
L 0 0 
z
" style="fill: #ffffff"/>
  </g>
  <g id="axes_1">
   <g id="patch_2">
    <path d="M 54.92 389.32 
L 429.795 389.32 
L 429.795 14.76 
L 54.92 14.76 
z
" style="fill: #ffffff"/>
   </g>
   <g id="patch_3">
    <path d="M 71.959773 389.32 
L 71.959773 14.76 
L 155.519589 14.76 
L 155.519589 389.32 
z
" clip-path="url(#p31121d1f3b)" style="fill: #ff0000; opacity: 0.1; stroke: #ff0000; stroke-linejoin: miter"/>
   </g>
   <g id="patch_4">
    <path d="M 155.519589 389.32 
L 155.519589 14.76 
L 412.755227 14.76 
L 412.755227 389.32 
z
" clip-path="url(#p31121d1f3b)" style="fill: #008000; opacity: 0.1; stroke: #008000; stroke-linejoin: miter"/>
   </g>
   <g id="patch_5">
    <path d="M 73.057961 389.32 
L 80.424807 389.32 
L 80.424807 240.685079 
L 73.057961 240.685079 
z
" clip-path="url(#p31121d1f3b)" style="fill: #808080; fill-opacity: 0.4; stroke: #000000; stroke-linejoin: miter"/>
   </g>
   <g id="patch_6">
    <path d="M 80.424807 389.32 
L 87.791654 389.32 
L 87.791654 240.685079 
L 80.424807 240.685079 
z
" clip-path="url(#p31121d1f3b)" style="fill: #808080; fill-opacity: 0.4; stroke: #000000; stroke-linejoin: miter"/>
   </g>
   <g id="patch_7">
    <path d="M 87.791654 389.32 
L 95.1585 389.32 
L 95.1585 270.412063 
L 87.791654 270.412063 
z
" clip-path="url(#p31121d1f3b)" style="fill: #808080; fill-opacity: 0.4; stroke: #000000; stroke-linejoin: miter"/>
   </g>
   <g id="patch_8">
    <path d="M 95.1585 389.32 
L 102.525347 389.32 
L 102.525347 270.412063 
L 95.1585 270.412063 
z
" clip-path="url(#p31121d1f3b)" style="fill: #808080; fill-opacity: 0.4; stroke: #000000; stroke-linejoin: miter"/>
   </g>
   <g id="patch_9">
    <path d="M 102.525347 389.32 
L 109.892193 389.32 
L 109.892193 240.685079 
L 102.525347 240.685079 
z
" clip-path="url(#p31121d1f3b)" style="fill: #808080; fill-opacity: 0.4; stroke: #000000; stroke-linejoin: miter"/>
   </g>
   <g id="patch_10">
    <path d="M 109.892193 389.32 
L 117.25904 389.32 
L 117.25904 181.231111 
L 109.892193 181.231111 
z
" clip-path="url(#p31121d1f3b)" style="fill: #808080; fill-opacity: 0.4; stroke: #000000; stroke-linejoin: miter"/>
   </g>
   <g id="patch_11">
    <path d="M 117.25904 389.32 
L 124.625886 389.32 
L 124.625886 151.504127 
L 117.25904 151.504127 
z
" clip-path="url(#p31121d1f3b)" style="fill: #808080; fill-opacity: 0.4; stroke: #000000; stroke-linejoin: miter"/>
   </g>
   <g id="patch_12">
    <path d="M 124.625886 389.32 
L 131.992733 389.32 
L 131.992733 32.59619 
L 124.625886 32.59619 
z
" clip-path="url(#p31121d1f3b)" style="fill: #808080; fill-opacity: 0.4; stroke: #000000; stroke-linejoin: miter"/>
   </g>
   <g id="patch_13">
    <path d="M 131.992733 389.32 
L 139.359579 389.32 
L 139.359579 92.050159 
L 131.992733 92.050159 
z
" clip-path="url(#p31121d1f3b)" style="fill: #808080; fill-opacity: 0.4; stroke: #000000; stroke-linejoin: miter"/>
   </g>
   <g id="patch_14">
    <path d="M 139.359579 389.32 
L 146.726425 389.32 
L 146.726425 151.504127 
L 139.359579 151.504127 
z
" clip-path="url(#p31121d1f3b)" style="fill: #808080; fill-opacity: 0.4; stroke: #000000; stroke-linejoin: miter"/>
   </g>
   <g id="patch_15">
    <path d="M 146.726425 389.32 
L 154.093272 389.32 
L 154.093272 240.685079 
L 146.726425 240.685079 
z
" clip-path="url(#p31121d1f3b)" style="fill: #808080; fill-opacity: 0.4; stroke: #000000; stroke-linejoin: miter"/>
   </g>
   <g id="patch_16">
    <path d="M 154.093272 389.32 
L 161.460118 389.32 
L 161.460118 210.958095 
L 154.093272 210.958095 
z
" clip-path="url(#p31121d1f3b)" style="fill: #808080; fill-opacity: 0.4; stroke: #000000; stroke-linejoin: miter"/>
   </g>
   <g id="patch_17">
    <path d="M 161.460118 389.32 
L 168.826965 389.32 
L 168.826965 389.32 
L 161.460118 389.32 
z
" clip-path="url(#p31121d1f3b)" style="fill: #808080; fill-opacity: 0.4; stroke: #000000; stroke-linejoin: miter"/>
   </g>
   <g id="patch_18">
    <path d="M 168.826965 389.32 
L 176.193811 389.32 
L 176.193811 240.685079 
L 168.826965 240.685079 
z
" clip-path="url(#p31121d1f3b)" style="fill: #808080; fill-opacity: 0.4; stroke: #000000; stroke-linejoin: miter"/>
   </g>
   <g id="patch_19">
    <path d="M 176.193811 389.32 
L 183.560658 389.32 
L 183.560658 329.866032 
L 176.193811 329.866032 
z
" clip-path="url(#p31121d1f3b)" style="fill: #808080; fill-opacity: 0.4; stroke: #000000; stroke-linejoin: miter"/>
   </g>
   <g id="patch_20">
    <path d="M 183.560658 389.32 
L 190.927504 389.32 
L 190.927504 329.866032 
L 183.560658 329.866032 
z
" clip-path="url(#p31121d1f3b)" style="fill: #808080; fill-opacity: 0.4; stroke: #000000; stroke-linejoin: miter"/>
   </g>
   <g id="patch_21">
    <path d="M 190.927504 389.32 
L 198.294351 389.32 
L 198.294351 300.139048 
L 190.927504 300.139048 
z
" clip-path="url(#p31121d1f3b)" style="fill: #808080; fill-opacity: 0.4; stroke: #000000; stroke-linejoin: miter"/>
   </g>
   <g id="patch_22">
    <path d="M 198.294351 389.32 
L 205.661197 389.32 
L 205.661197 300.139048 
L 198.294351 300.139048 
z
" clip-path="url(#p31121d1f3b)" style="fill: #808080; fill-opacity: 0.4; stroke: #000000; stroke-linejoin: miter"/>
   </g>
   <g id="patch_23">
    <path d="M 205.661197 389.32 
L 213.028044 389.32 
L 213.028044 359.593016 
L 205.661197 359.593016 
z
" clip-path="url(#p31121d1f3b)" style="fill: #808080; fill-opacity: 0.4; stroke: #000000; stroke-linejoin: miter"/>
   </g>
   <g id="patch_24">
    <path d="M 213.028044 389.32 
L 220.39489 389.32 
L 220.39489 359.593016 
L 213.028044 359.593016 
z
" clip-path="url(#p31121d1f3b)" style="fill: #808080; fill-opacity: 0.4; stroke: #000000; stroke-linejoin: miter"/>
   </g>
   <g id="patch_25">
    <path d="M 220.39489 389.32 
L 227.761736 389.32 
L 227.761736 389.32 
L 220.39489 389.32 
z
" clip-path="url(#p31121d1f3b)" style="fill: #808080; fill-opacity: 0.4; stroke: #000000; stroke-linejoin: miter"/>
   </g>
   <g id="patch_26">
    <path d="M 227.761736 389.32 
L 235.128583 389.32 
L 235.128583 389.32 
L 227.761736 389.32 
z
" clip-path="url(#p31121d1f3b)" style="fill: #808080; fill-opacity: 0.4; stroke: #000000; stroke-linejoin: miter"/>
   </g>
   <g id="patch_27">
    <path d="M 235.128583 389.32 
L 242.495429 389.32 
L 242.495429 329.866032 
L 235.128583 329.866032 
z
" clip-path="url(#p31121d1f3b)" style="fill: #808080; fill-opacity: 0.4; stroke: #000000; stroke-linejoin: miter"/>
   </g>
   <g id="patch_28">
    <path d="M 242.495429 389.32 
L 249.862276 389.32 
L 249.862276 389.32 
L 242.495429 389.32 
z
" clip-path="url(#p31121d1f3b)" style="fill: #808080; fill-opacity: 0.4; stroke: #000000; stroke-linejoin: miter"/>
   </g>
   <g id="patch_29">
    <path d="M 249.862276 389.32 
L 257.229122 389.32 
L 257.229122 329.866032 
L 249.862276 329.866032 
z
" clip-path="url(#p31121d1f3b)" style="fill: #808080; fill-opacity: 0.4; stroke: #000000; stroke-linejoin: miter"/>
   </g>
   <g id="patch_30">
    <path d="M 213.288673 389.32 
L 221.223408 389.32 
L 221.223408 334.121146 
L 213.288673 334.121146 
z
" clip-path="url(#p31121d1f3b)" style="fill: #ffa500; fill-opacity: 0.6; stroke: #000000; stroke-width: 0.648406; stroke-linejoin: miter"/>
   </g>
   <g id="patch_31">
    <path d="M 221.223408 389.32 
L 229.158143 389.32 
L 229.158143 306.52172 
L 221.223408 306.52172 
z
" clip-path="url(#p31121d1f3b)" style="fill: #ffa500; fill-opacity: 0.6; stroke: #000000; stroke-width: 0.648406; stroke-linejoin: miter"/>
   </g>
   <g id="patch_32">
    <path d="M 229.158143 389.32 
L 237.092877 389.32 
L 237.092877 361.720573 
L 229.158143 361.720573 
z
" clip-path="url(#p31121d1f3b)" style="fill: #ffa500; fill-opacity: 0.6; stroke: #000000; stroke-width: 0.648406; stroke-linejoin: miter"/>
   </g>
   <g id="patch_33">
    <path d="M 237.092877 389.32 
L 245.027612 389.32 
L 245.027612 306.52172 
L 237.092877 306.52172 
z
" clip-path="url(#p31121d1f3b)" style="fill: #ffa500; fill-opacity: 0.6; stroke: #000000; stroke-width: 0.648406; stroke-linejoin: miter"/>
   </g>
   <g id="patch_34">
    <path d="M 245.027612 389.32 
L 252.962346 389.32 
L 252.962346 306.52172 
L 245.027612 306.52172 
z
" clip-path="url(#p31121d1f3b)" style="fill: #ffa500; fill-opacity: 0.6; stroke: #000000; stroke-width: 0.648406; stroke-linejoin: miter"/>
   </g>
   <g id="patch_35">
    <path d="M 252.962346 389.32 
L 260.897081 389.32 
L 260.897081 334.121146 
L 252.962346 334.121146 
z
" clip-path="url(#p31121d1f3b)" style="fill: #ffa500; fill-opacity: 0.6; stroke: #000000; stroke-width: 0.648406; stroke-linejoin: miter"/>
   </g>
   <g id="patch_36">
    <path d="M 260.897081 389.32 
L 268.831816 389.32 
L 268.831816 361.720573 
L 260.897081 361.720573 
z
" clip-path="url(#p31121d1f3b)" style="fill: #ffa500; fill-opacity: 0.6; stroke: #000000; stroke-width: 0.648406; stroke-linejoin: miter"/>
   </g>
   <g id="patch_37">
    <path d="M 268.831816 389.32 
L 276.76655 389.32 
L 276.76655 334.121146 
L 268.831816 334.121146 
z
" clip-path="url(#p31121d1f3b)" style="fill: #ffa500; fill-opacity: 0.6; stroke: #000000; stroke-width: 0.648406; stroke-linejoin: miter"/>
   </g>
   <g id="patch_38">
    <path d="M 276.76655 389.32 
L 284.701285 389.32 
L 284.701285 334.121146 
L 276.76655 334.121146 
z
" clip-path="url(#p31121d1f3b)" style="fill: #ffa500; fill-opacity: 0.6; stroke: #000000; stroke-width: 0.648406; stroke-linejoin: miter"/>
   </g>
   <g id="patch_39">
    <path d="M 284.701285 389.32 
L 292.63602 389.32 
L 292.63602 196.124012 
L 284.701285 196.124012 
z
" clip-path="url(#p31121d1f3b)" style="fill: #ffa500; fill-opacity: 0.6; stroke: #000000; stroke-width: 0.648406; stroke-linejoin: miter"/>
   </g>
   <g id="patch_40">
    <path d="M 292.63602 389.32 
L 300.570754 389.32 
L 300.570754 113.325732 
L 292.63602 113.325732 
z
" clip-path="url(#p31121d1f3b)" style="fill: #ffa500; fill-opacity: 0.6; stroke: #000000; stroke-width: 0.648406; stroke-linejoin: miter"/>
   </g>
   <g id="patch_41">
    <path d="M 300.570754 389.32 
L 308.505489 389.32 
L 308.505489 168.524586 
L 300.570754 168.524586 
z
" clip-path="url(#p31121d1f3b)" style="fill: #ffa500; fill-opacity: 0.6; stroke: #000000; stroke-width: 0.648406; stroke-linejoin: miter"/>
   </g>
   <g id="patch_42">
    <path d="M 308.505489 389.32 
L 316.440223 389.32 
L 316.440223 168.524586 
L 308.505489 168.524586 
z
" clip-path="url(#p31121d1f3b)" style="fill: #ffa500; fill-opacity: 0.6; stroke: #000000; stroke-width: 0.648406; stroke-linejoin: miter"/>
   </g>
   <g id="patch_43">
    <path d="M 316.440223 389.32 
L 324.374958 389.32 
L 324.374958 278.922293 
L 316.440223 278.922293 
z
" clip-path="url(#p31121d1f3b)" style="fill: #ffa500; fill-opacity: 0.6; stroke: #000000; stroke-width: 0.648406; stroke-linejoin: miter"/>
   </g>
   <g id="patch_44">
    <path d="M 324.374958 389.32 
L 332.309693 389.32 
L 332.309693 196.124012 
L 324.374958 196.124012 
z
" clip-path="url(#p31121d1f3b)" style="fill: #ffa500; fill-opacity: 0.6; stroke: #000000; stroke-width: 0.648406; stroke-linejoin: miter"/>
   </g>
   <g id="patch_45">
    <path d="M 332.309693 389.32 
L 340.244427 389.32 
L 340.244427 140.925159 
L 332.309693 140.925159 
z
" clip-path="url(#p31121d1f3b)" style="fill: #ffa500; fill-opacity: 0.6; stroke: #000000; stroke-width: 0.648406; stroke-linejoin: miter"/>
   </g>
   <g id="patch_46">
    <path d="M 340.244427 389.32 
L 348.179162 389.32 
L 348.179162 196.124012 
L 340.244427 196.124012 
z
" clip-path="url(#p31121d1f3b)" style="fill: #ffa500; fill-opacity: 0.6; stroke: #000000; stroke-width: 0.648406; stroke-linejoin: miter"/>
   </g>
   <g id="patch_47">
    <path d="M 348.179162 389.32 
L 356.113897 389.32 
L 356.113897 223.723439 
L 348.179162 223.723439 
z
" clip-path="url(#p31121d1f3b)" style="fill: #ffa500; fill-opacity: 0.6; stroke: #000000; stroke-width: 0.648406; stroke-linejoin: miter"/>
   </g>
   <g id="patch_48">
    <path d="M 356.113897 389.32 
L 364.048631 389.32 
L 364.048631 251.322866 
L 356.113897 251.322866 
z
" clip-path="url(#p31121d1f3b)" style="fill: #ffa500; fill-opacity: 0.6; stroke: #000000; stroke-width: 0.648406; stroke-linejoin: miter"/>
   </g>
   <g id="patch_49">
    <path d="M 364.048631 389.32 
L 371.983366 389.32 
L 371.983366 334.121146 
L 364.048631 334.121146 
z
" clip-path="url(#p31121d1f3b)" style="fill: #ffa500; fill-opacity: 0.6; stroke: #000000; stroke-width: 0.648406; stroke-linejoin: miter"/>
   </g>
   <g id="patch_50">
    <path d="M 371.983366 389.32 
L 379.9181 389.32 
L 379.9181 306.52172 
L 371.983366 306.52172 
z
" clip-path="url(#p31121d1f3b)" style="fill: #ffa500; fill-opacity: 0.6; stroke: #000000; stroke-width: 0.648406; stroke-linejoin: miter"/>
   </g>
   <g id="patch_51">
    <path d="M 379.9181 389.32 
L 387.852835 389.32 
L 387.852835 306.52172 
L 379.9181 306.52172 
z
" clip-path="url(#p31121d1f3b)" style="fill: #ffa500; fill-opacity: 0.6; stroke: #000000; stroke-width: 0.648406; stroke-linejoin: miter"/>
   </g>
   <g id="patch_52">
    <path d="M 387.852835 389.32 
L 395.78757 389.32 
L 395.78757 361.720573 
L 387.852835 361.720573 
z
" clip-path="url(#p31121d1f3b)" style="fill: #ffa500; fill-opacity: 0.6; stroke: #000000; stroke-width: 0.648406; stroke-linejoin: miter"/>
   </g>
   <g id="patch_53">
    <path d="M 395.78757 389.32 
L 403.722304 389.32 
L 403.722304 389.32 
L 395.78757 389.32 
z
" clip-path="url(#p31121d1f3b)" style="fill: #ffa500; fill-opacity: 0.6; stroke: #000000; stroke-width: 0.648406; stroke-linejoin: miter"/>
   </g>
   <g id="patch_54">
    <path d="M 403.722304 389.32 
L 411.657039 389.32 
L 411.657039 361.720573 
L 403.722304 361.720573 
z
" clip-path="url(#p31121d1f3b)" style="fill: #ffa500; fill-opacity: 0.6; stroke: #000000; stroke-width: 0.648406; stroke-linejoin: miter"/>
   </g>
   <g id="patch_55">
    <path d="M 124.419274 389.32 
L 135.223788 389.32 
L 135.223788 348.782477 
L 124.419274 348.782477 
z
" clip-path="url(#p31121d1f3b)" style="fill: #0000ff; fill-opacity: 0.6; stroke: #000000; stroke-width: 0.882916; stroke-linejoin: miter"/>
   </g>
   <g id="patch_56">
    <path d="M 135.223788 389.32 
L 146.028303 389.32 
L 146.028303 369.051239 
L 135.223788 369.051239 
z
" clip-path="url(#p31121d1f3b)" style="fill: #0000ff; fill-opacity: 0.6; stroke: #000000; stroke-width: 0.882916; stroke-linejoin: miter"/>
   </g>
   <g id="patch_57">
    <path d="M 146.028303 389.32 
L 156.832817 389.32 
L 156.832817 369.051239 
L 146.028303 369.051239 
z
" clip-path="url(#p31121d1f3b)" style="fill: #0000ff; fill-opacity: 0.6; stroke: #000000; stroke-width: 0.882916; stroke-linejoin: miter"/>
   </g>
   <g id="patch_58">
    <path d="M 156.832817 389.32 
L 167.637332 389.32 
L 167.637332 369.051239 
L 156.832817 369.051239 
z
" clip-path="url(#p31121d1f3b)" style="fill: #0000ff; fill-opacity: 0.6; stroke: #000000; stroke-width: 0.882916; stroke-linejoin: miter"/>
   </g>
   <g id="patch_59">
    <path d="M 167.637332 389.32 
L 178.441846 389.32 
L 178.441846 328.513716 
L 167.637332 328.513716 
z
" clip-path="url(#p31121d1f3b)" style="fill: #0000ff; fill-opacity: 0.6; stroke: #000000; stroke-width: 0.882916; stroke-linejoin: miter"/>
   </g>
   <g id="patch_60">
    <path d="M 178.441846 389.32 
L 189.246361 389.32 
L 189.246361 348.782477 
L 178.441846 348.782477 
z
" clip-path="url(#p31121d1f3b)" style="fill: #0000ff; fill-opacity: 0.6; stroke: #000000; stroke-width: 0.882916; stroke-linejoin: miter"/>
   </g>
   <g id="patch_61">
    <path d="M 189.246361 389.32 
L 200.050875 389.32 
L 200.050875 348.782477 
L 189.246361 348.782477 
z
" clip-path="url(#p31121d1f3b)" style="fill: #0000ff; fill-opacity: 0.6; stroke: #000000; stroke-width: 0.882916; stroke-linejoin: miter"/>
   </g>
   <g id="patch_62">
    <path d="M 200.050875 389.32 
L 210.85539 389.32 
L 210.85539 389.32 
L 200.050875 389.32 
z
" clip-path="url(#p31121d1f3b)" style="fill: #0000ff; fill-opacity: 0.6; stroke: #000000; stroke-width: 0.882916; stroke-linejoin: miter"/>
   </g>
   <g id="patch_63">
    <path d="M 210.85539 389.32 
L 221.659904 389.32 
L 221.659904 308.244954 
L 210.85539 308.244954 
z
" clip-path="url(#p31121d1f3b)" style="fill: #0000ff; fill-opacity: 0.6; stroke: #000000; stroke-width: 0.882916; stroke-linejoin: miter"/>
   </g>
   <g id="patch_64">
    <path d="M 221.659904 389.32 
L 232.464419 389.32 
L 232.464419 287.976193 
L 221.659904 287.976193 
z
" clip-path="url(#p31121d1f3b)" style="fill: #0000ff; fill-opacity: 0.6; stroke: #000000; stroke-width: 0.882916; stroke-linejoin: miter"/>
   </g>
   <g id="patch_65">
    <path d="M 232.464419 389.32 
L 243.268933 389.32 
L 243.268933 206.901147 
L 232.464419 206.901147 
z
" clip-path="url(#p31121d1f3b)" style="fill: #0000ff; fill-opacity: 0.6; stroke: #000000; stroke-width: 0.882916; stroke-linejoin: miter"/>
   </g>
   <g id="patch_66">
    <path d="M 243.268933 389.32 
L 254.073448 389.32 
L 254.073448 166.363624 
L 243.268933 166.363624 
z
" clip-path="url(#p31121d1f3b)" style="fill: #0000ff; fill-opacity: 0.6; stroke: #000000; stroke-width: 0.882916; stroke-linejoin: miter"/>
   </g>
   <g id="patch_67">
    <path d="M 254.073448 389.32 
L 264.877962 389.32 
L 264.877962 308.244954 
L 254.073448 308.244954 
z
" clip-path="url(#p31121d1f3b)" style="fill: #0000ff; fill-opacity: 0.6; stroke: #000000; stroke-width: 0.882916; stroke-linejoin: miter"/>
   </g>
   <g id="patch_68">
    <path d="M 264.877962 389.32 
L 275.682477 389.32 
L 275.682477 206.901147 
L 264.877962 206.901147 
z
" clip-path="url(#p31121d1f3b)" style="fill: #0000ff; fill-opacity: 0.6; stroke: #000000; stroke-width: 0.882916; stroke-linejoin: miter"/>
   </g>
   <g id="patch_69">
    <path d="M 275.682477 389.32 
L 286.486991 389.32 
L 286.486991 186.632385 
L 275.682477 186.632385 
z
" clip-path="url(#p31121d1f3b)" style="fill: #0000ff; fill-opacity: 0.6; stroke: #000000; stroke-width: 0.882916; stroke-linejoin: miter"/>
   </g>
   <g id="patch_70">
    <path d="M 286.486991 389.32 
L 297.291506 389.32 
L 297.291506 186.632385 
L 286.486991 186.632385 
z
" clip-path="url(#p31121d1f3b)" style="fill: #0000ff; fill-opacity: 0.6; stroke: #000000; stroke-width: 0.882916; stroke-linejoin: miter"/>
   </g>
   <g id="patch_71">
    <path d="M 297.291506 389.32 
L 308.096021 389.32 
L 308.096021 206.901147 
L 297.291506 206.901147 
z
" clip-path="url(#p31121d1f3b)" style="fill: #0000ff; fill-opacity: 0.6; stroke: #000000; stroke-width: 0.882916; stroke-linejoin: miter"/>
   </g>
   <g id="patch_72">
    <path d="M 308.096021 389.32 
L 318.900535 389.32 
L 318.900535 247.43867 
L 308.096021 247.43867 
z
" clip-path="url(#p31121d1f3b)" style="fill: #0000ff; fill-opacity: 0.6; stroke: #000000; stroke-width: 0.882916; stroke-linejoin: miter"/>
   </g>
   <g id="patch_73">
    <path d="M 318.900535 389.32 
L 329.70505 389.32 
L 329.70505 348.782477 
L 318.900535 348.782477 
z
" clip-path="url(#p31121d1f3b)" style="fill: #0000ff; fill-opacity: 0.6; stroke: #000000; stroke-width: 0.882916; stroke-linejoin: miter"/>
   </g>
   <g id="patch_74">
    <path d="M 329.70505 389.32 
L 340.509564 389.32 
L 340.509564 369.051239 
L 329.70505 369.051239 
z
" clip-path="url(#p31121d1f3b)" style="fill: #0000ff; fill-opacity: 0.6; stroke: #000000; stroke-width: 0.882916; stroke-linejoin: miter"/>
   </g>
   <g id="patch_75">
    <path d="M 340.509564 389.32 
L 351.314079 389.32 
L 351.314079 369.051239 
L 340.509564 369.051239 
z
" clip-path="url(#p31121d1f3b)" style="fill: #0000ff; fill-opacity: 0.6; stroke: #000000; stroke-width: 0.882916; stroke-linejoin: miter"/>
   </g>
   <g id="patch_76">
    <path d="M 351.314079 389.32 
L 362.118593 389.32 
L 362.118593 348.782477 
L 351.314079 348.782477 
z
" clip-path="url(#p31121d1f3b)" style="fill: #0000ff; fill-opacity: 0.6; stroke: #000000; stroke-width: 0.882916; stroke-linejoin: miter"/>
   </g>
   <g id="patch_77">
    <path d="M 362.118593 389.32 
L 372.923108 389.32 
L 372.923108 369.051239 
L 362.118593 369.051239 
z
" clip-path="url(#p31121d1f3b)" style="fill: #0000ff; fill-opacity: 0.6; stroke: #000000; stroke-width: 0.882916; stroke-linejoin: miter"/>
   </g>
   <g id="patch_78">
    <path d="M 372.923108 389.32 
L 383.727622 389.32 
L 383.727622 369.051239 
L 372.923108 369.051239 
z
" clip-path="url(#p31121d1f3b)" style="fill: #0000ff; fill-opacity: 0.6; stroke: #000000; stroke-width: 0.882916; stroke-linejoin: miter"/>
   </g>
   <g id="patch_79">
    <path d="M 383.727622 389.32 
L 394.532137 389.32 
L 394.532137 348.782477 
L 383.727622 348.782477 
z
" clip-path="url(#p31121d1f3b)" style="fill: #0000ff; fill-opacity: 0.6; stroke: #000000; stroke-width: 0.882916; stroke-linejoin: miter"/>
   </g>
   <g id="matplotlib.axis_1">
    <g id="xtick_1">
     <g id="line2d_1">
      <defs>
       <path id="m5f82e8d8dc" d="M 0 0 
L 0 3.5 
" style="stroke: #000000; stroke-width: 0.8"/>
      </defs>
      <g>
       <use xlink:href="#m5f82e8d8dc" x="86.338122" y="389.32" style="stroke: #000000; stroke-width: 0.8"/>
      </g>
     </g>
     <g id="text_1">
      <!-- −2 -->
      <g transform="translate(78.967028 403.918437) scale(0.1 -0.1)">
       <defs>
        <path id="DejaVuSans-2212" d="M 678 2272 
L 4684 2272 
L 4684 1741 
L 678 1741 
L 678 2272 
z
" transform="scale(0.015625)"/>
        <path id="DejaVuSans-32" d="M 1228 531 
L 3431 531 
L 3431 0 
L 469 0 
L 469 531 
Q 828 903 1448 1529 
Q 2069 2156 2228 2338 
Q 2531 2678 2651 2914 
Q 2772 3150 2772 3378 
Q 2772 3750 2511 3984 
Q 2250 4219 1831 4219 
Q 1534 4219 1204 4116 
Q 875 4013 500 3803 
L 500 4441 
Q 881 4594 1212 4672 
Q 1544 4750 1819 4750 
Q 2544 4750 2975 4387 
Q 3406 4025 3406 3419 
Q 3406 3131 3298 2873 
Q 3191 2616 2906 2266 
Q 2828 2175 2409 1742 
Q 1991 1309 1228 531 
z
" transform="scale(0.015625)"/>
       </defs>
       <use xlink:href="#DejaVuSans-2212"/>
       <use xlink:href="#DejaVuSans-32" x="83.789062"/>
      </g>
     </g>
    </g>
    <g id="xtick_2">
     <g id="line2d_2">
      <g>
       <use xlink:href="#m5f82e8d8dc" x="130.265652" y="389.32" style="stroke: #000000; stroke-width: 0.8"/>
      </g>
     </g>
     <g id="text_2">
      <!-- 0 -->
      <g transform="translate(127.084402 403.918437) scale(0.1 -0.1)">
       <defs>
        <path id="DejaVuSans-30" d="M 2034 4250 
Q 1547 4250 1301 3770 
Q 1056 3291 1056 2328 
Q 1056 1369 1301 889 
Q 1547 409 2034 409 
Q 2525 409 2770 889 
Q 3016 1369 3016 2328 
Q 3016 3291 2770 3770 
Q 2525 4250 2034 4250 
z
M 2034 4750 
Q 2819 4750 3233 4129 
Q 3647 3509 3647 2328 
Q 3647 1150 3233 529 
Q 2819 -91 2034 -91 
Q 1250 -91 836 529 
Q 422 1150 422 2328 
Q 422 3509 836 4129 
Q 1250 4750 2034 4750 
z
" transform="scale(0.015625)"/>
       </defs>
       <use xlink:href="#DejaVuSans-30"/>
      </g>
     </g>
    </g>
    <g id="xtick_3">
     <g id="line2d_3">
      <g>
       <use xlink:href="#m5f82e8d8dc" x="174.193182" y="389.32" style="stroke: #000000; stroke-width: 0.8"/>
      </g>
     </g>
     <g id="text_3">
      <!-- 2 -->
      <g transform="translate(171.011932 403.918437) scale(0.1 -0.1)">
       <use xlink:href="#DejaVuSans-32"/>
      </g>
     </g>
    </g>
    <g id="xtick_4">
     <g id="line2d_4">
      <g>
       <use xlink:href="#m5f82e8d8dc" x="218.120713" y="389.32" style="stroke: #000000; stroke-width: 0.8"/>
      </g>
     </g>
     <g id="text_4">
      <!-- 4 -->
      <g transform="translate(214.939463 403.918437) scale(0.1 -0.1)">
       <defs>
        <path id="DejaVuSans-34" d="M 2419 4116 
L 825 1625 
L 2419 1625 
L 2419 4116 
z
M 2253 4666 
L 3047 4666 
L 3047 1625 
L 3713 1625 
L 3713 1100 
L 3047 1100 
L 3047 0 
L 2419 0 
L 2419 1100 
L 313 1100 
L 313 1709 
L 2253 4666 
z
" transform="scale(0.015625)"/>
       </defs>
       <use xlink:href="#DejaVuSans-34"/>
      </g>
     </g>
    </g>
    <g id="xtick_5">
     <g id="line2d_5">
      <g>
       <use xlink:href="#m5f82e8d8dc" x="262.048243" y="389.32" style="stroke: #000000; stroke-width: 0.8"/>
      </g>
     </g>
     <g id="text_5">
      <!-- 6 -->
      <g transform="translate(258.866993 403.918437) scale(0.1 -0.1)">
       <defs>
        <path id="DejaVuSans-36" d="M 2113 2584 
Q 1688 2584 1439 2293 
Q 1191 2003 1191 1497 
Q 1191 994 1439 701 
Q 1688 409 2113 409 
Q 2538 409 2786 701 
Q 3034 994 3034 1497 
Q 3034 2003 2786 2293 
Q 2538 2584 2113 2584 
z
M 3366 4563 
L 3366 3988 
Q 3128 4100 2886 4159 
Q 2644 4219 2406 4219 
Q 1781 4219 1451 3797 
Q 1122 3375 1075 2522 
Q 1259 2794 1537 2939 
Q 1816 3084 2150 3084 
Q 2853 3084 3261 2657 
Q 3669 2231 3669 1497 
Q 3669 778 3244 343 
Q 2819 -91 2113 -91 
Q 1303 -91 875 529 
Q 447 1150 447 2328 
Q 447 3434 972 4092 
Q 1497 4750 2381 4750 
Q 2619 4750 2861 4703 
Q 3103 4656 3366 4563 
z
" transform="scale(0.015625)"/>
       </defs>
       <use xlink:href="#DejaVuSans-36"/>
      </g>
     </g>
    </g>
    <g id="xtick_6">
     <g id="line2d_6">
      <g>
       <use xlink:href="#m5f82e8d8dc" x="305.975773" y="389.32" style="stroke: #000000; stroke-width: 0.8"/>
      </g>
     </g>
     <g id="text_6">
      <!-- 8 -->
      <g transform="translate(302.794523 403.918437) scale(0.1 -0.1)">
       <defs>
        <path id="DejaVuSans-38" d="M 2034 2216 
Q 1584 2216 1326 1975 
Q 1069 1734 1069 1313 
Q 1069 891 1326 650 
Q 1584 409 2034 409 
Q 2484 409 2743 651 
Q 3003 894 3003 1313 
Q 3003 1734 2745 1975 
Q 2488 2216 2034 2216 
z
M 1403 2484 
Q 997 2584 770 2862 
Q 544 3141 544 3541 
Q 544 4100 942 4425 
Q 1341 4750 2034 4750 
Q 2731 4750 3128 4425 
Q 3525 4100 3525 3541 
Q 3525 3141 3298 2862 
Q 3072 2584 2669 2484 
Q 3125 2378 3379 2068 
Q 3634 1759 3634 1313 
Q 3634 634 3220 271 
Q 2806 -91 2034 -91 
Q 1263 -91 848 271 
Q 434 634 434 1313 
Q 434 1759 690 2068 
Q 947 2378 1403 2484 
z
M 1172 3481 
Q 1172 3119 1398 2916 
Q 1625 2713 2034 2713 
Q 2441 2713 2670 2916 
Q 2900 3119 2900 3481 
Q 2900 3844 2670 4047 
Q 2441 4250 2034 4250 
Q 1625 4250 1398 4047 
Q 1172 3844 1172 3481 
z
" transform="scale(0.015625)"/>
       </defs>
       <use xlink:href="#DejaVuSans-38"/>
      </g>
     </g>
    </g>
    <g id="xtick_7">
     <g id="line2d_7">
      <g>
       <use xlink:href="#m5f82e8d8dc" x="349.903304" y="389.32" style="stroke: #000000; stroke-width: 0.8"/>
      </g>
     </g>
     <g id="text_7">
      <!-- 10 -->
      <g transform="translate(343.540804 403.918437) scale(0.1 -0.1)">
       <defs>
        <path id="DejaVuSans-31" d="M 794 531 
L 1825 531 
L 1825 4091 
L 703 3866 
L 703 4441 
L 1819 4666 
L 2450 4666 
L 2450 531 
L 3481 531 
L 3481 0 
L 794 0 
L 794 531 
z
" transform="scale(0.015625)"/>
       </defs>
       <use xlink:href="#DejaVuSans-31"/>
       <use xlink:href="#DejaVuSans-30" x="63.623047"/>
      </g>
     </g>
    </g>
    <g id="xtick_8">
     <g id="line2d_8">
      <g>
       <use xlink:href="#m5f82e8d8dc" x="393.830834" y="389.32" style="stroke: #000000; stroke-width: 0.8"/>
      </g>
     </g>
     <g id="text_8">
      <!-- 12 -->
      <g transform="translate(387.468334 403.918437) scale(0.1 -0.1)">
       <use xlink:href="#DejaVuSans-31"/>
       <use xlink:href="#DejaVuSans-32" x="63.623047"/>
      </g>
     </g>
    </g>
    <g id="text_9">
     <!-- Predicted Fluorescence -->
     <g transform="translate(172.76125 419.11625) scale(0.12 -0.12)">
      <defs>
       <path id="DejaVuSans-50" d="M 1259 4147 
L 1259 2394 
L 2053 2394 
Q 2494 2394 2734 2622 
Q 2975 2850 2975 3272 
Q 2975 3691 2734 3919 
Q 2494 4147 2053 4147 
L 1259 4147 
z
M 628 4666 
L 2053 4666 
Q 2838 4666 3239 4311 
Q 3641 3956 3641 3272 
Q 3641 2581 3239 2228 
Q 2838 1875 2053 1875 
L 1259 1875 
L 1259 0 
L 628 0 
L 628 4666 
z
" transform="scale(0.015625)"/>
       <path id="DejaVuSans-72" d="M 2631 2963 
Q 2534 3019 2420 3045 
Q 2306 3072 2169 3072 
Q 1681 3072 1420 2755 
Q 1159 2438 1159 1844 
L 1159 0 
L 581 0 
L 581 3500 
L 1159 3500 
L 1159 2956 
Q 1341 3275 1631 3429 
Q 1922 3584 2338 3584 
Q 2397 3584 2469 3576 
Q 2541 3569 2628 3553 
L 2631 2963 
z
" transform="scale(0.015625)"/>
       <path id="DejaVuSans-65" d="M 3597 1894 
L 3597 1613 
L 953 1613 
Q 991 1019 1311 708 
Q 1631 397 2203 397 
Q 2534 397 2845 478 
Q 3156 559 3463 722 
L 3463 178 
Q 3153 47 2828 -22 
Q 2503 -91 2169 -91 
Q 1331 -91 842 396 
Q 353 884 353 1716 
Q 353 2575 817 3079 
Q 1281 3584 2069 3584 
Q 2775 3584 3186 3129 
Q 3597 2675 3597 1894 
z
M 3022 2063 
Q 3016 2534 2758 2815 
Q 2500 3097 2075 3097 
Q 1594 3097 1305 2825 
Q 1016 2553 972 2059 
L 3022 2063 
z
" transform="scale(0.015625)"/>
       <path id="DejaVuSans-64" d="M 2906 2969 
L 2906 4863 
L 3481 4863 
L 3481 0 
L 2906 0 
L 2906 525 
Q 2725 213 2448 61 
Q 2172 -91 1784 -91 
Q 1150 -91 751 415 
Q 353 922 353 1747 
Q 353 2572 751 3078 
Q 1150 3584 1784 3584 
Q 2172 3584 2448 3432 
Q 2725 3281 2906 2969 
z
M 947 1747 
Q 947 1113 1208 752 
Q 1469 391 1925 391 
Q 2381 391 2643 752 
Q 2906 1113 2906 1747 
Q 2906 2381 2643 2742 
Q 2381 3103 1925 3103 
Q 1469 3103 1208 2742 
Q 947 2381 947 1747 
z
" transform="scale(0.015625)"/>
       <path id="DejaVuSans-69" d="M 603 3500 
L 1178 3500 
L 1178 0 
L 603 0 
L 603 3500 
z
M 603 4863 
L 1178 4863 
L 1178 4134 
L 603 4134 
L 603 4863 
z
" transform="scale(0.015625)"/>
       <path id="DejaVuSans-63" d="M 3122 3366 
L 3122 2828 
Q 2878 2963 2633 3030 
Q 2388 3097 2138 3097 
Q 1578 3097 1268 2742 
Q 959 2388 959 1747 
Q 959 1106 1268 751 
Q 1578 397 2138 397 
Q 2388 397 2633 464 
Q 2878 531 3122 666 
L 3122 134 
Q 2881 22 2623 -34 
Q 2366 -91 2075 -91 
Q 1284 -91 818 406 
Q 353 903 353 1747 
Q 353 2603 823 3093 
Q 1294 3584 2113 3584 
Q 2378 3584 2631 3529 
Q 2884 3475 3122 3366 
z
" transform="scale(0.015625)"/>
       <path id="DejaVuSans-74" d="M 1172 4494 
L 1172 3500 
L 2356 3500 
L 2356 3053 
L 1172 3053 
L 1172 1153 
Q 1172 725 1289 603 
Q 1406 481 1766 481 
L 2356 481 
L 2356 0 
L 1766 0 
Q 1100 0 847 248 
Q 594 497 594 1153 
L 594 3053 
L 172 3053 
L 172 3500 
L 594 3500 
L 594 4494 
L 1172 4494 
z
" transform="scale(0.015625)"/>
       <path id="DejaVuSans-20" transform="scale(0.015625)"/>
       <path id="DejaVuSans-46" d="M 628 4666 
L 3309 4666 
L 3309 4134 
L 1259 4134 
L 1259 2759 
L 3109 2759 
L 3109 2228 
L 1259 2228 
L 1259 0 
L 628 0 
L 628 4666 
z
" transform="scale(0.015625)"/>
       <path id="DejaVuSans-6c" d="M 603 4863 
L 1178 4863 
L 1178 0 
L 603 0 
L 603 4863 
z
" transform="scale(0.015625)"/>
       <path id="DejaVuSans-75" d="M 544 1381 
L 544 3500 
L 1119 3500 
L 1119 1403 
Q 1119 906 1312 657 
Q 1506 409 1894 409 
Q 2359 409 2629 706 
Q 2900 1003 2900 1516 
L 2900 3500 
L 3475 3500 
L 3475 0 
L 2900 0 
L 2900 538 
Q 2691 219 2414 64 
Q 2138 -91 1772 -91 
Q 1169 -91 856 284 
Q 544 659 544 1381 
z
M 1991 3584 
L 1991 3584 
z
" transform="scale(0.015625)"/>
       <path id="DejaVuSans-6f" d="M 1959 3097 
Q 1497 3097 1228 2736 
Q 959 2375 959 1747 
Q 959 1119 1226 758 
Q 1494 397 1959 397 
Q 2419 397 2687 759 
Q 2956 1122 2956 1747 
Q 2956 2369 2687 2733 
Q 2419 3097 1959 3097 
z
M 1959 3584 
Q 2709 3584 3137 3096 
Q 3566 2609 3566 1747 
Q 3566 888 3137 398 
Q 2709 -91 1959 -91 
Q 1206 -91 779 398 
Q 353 888 353 1747 
Q 353 2609 779 3096 
Q 1206 3584 1959 3584 
z
" transform="scale(0.015625)"/>
       <path id="DejaVuSans-73" d="M 2834 3397 
L 2834 2853 
Q 2591 2978 2328 3040 
Q 2066 3103 1784 3103 
Q 1356 3103 1142 2972 
Q 928 2841 928 2578 
Q 928 2378 1081 2264 
Q 1234 2150 1697 2047 
L 1894 2003 
Q 2506 1872 2764 1633 
Q 3022 1394 3022 966 
Q 3022 478 2636 193 
Q 2250 -91 1575 -91 
Q 1294 -91 989 -36 
Q 684 19 347 128 
L 347 722 
Q 666 556 975 473 
Q 1284 391 1588 391 
Q 1994 391 2212 530 
Q 2431 669 2431 922 
Q 2431 1156 2273 1281 
Q 2116 1406 1581 1522 
L 1381 1569 
Q 847 1681 609 1914 
Q 372 2147 372 2553 
Q 372 3047 722 3315 
Q 1072 3584 1716 3584 
Q 2034 3584 2315 3537 
Q 2597 3491 2834 3397 
z
" transform="scale(0.015625)"/>
       <path id="DejaVuSans-6e" d="M 3513 2113 
L 3513 0 
L 2938 0 
L 2938 2094 
Q 2938 2591 2744 2837 
Q 2550 3084 2163 3084 
Q 1697 3084 1428 2787 
Q 1159 2491 1159 1978 
L 1159 0 
L 581 0 
L 581 3500 
L 1159 3500 
L 1159 2956 
Q 1366 3272 1645 3428 
Q 1925 3584 2291 3584 
Q 2894 3584 3203 3211 
Q 3513 2838 3513 2113 
z
" transform="scale(0.015625)"/>
      </defs>
      <use xlink:href="#DejaVuSans-50"/>
      <use xlink:href="#DejaVuSans-72" x="58.552734"/>
      <use xlink:href="#DejaVuSans-65" x="97.416016"/>
      <use xlink:href="#DejaVuSans-64" x="158.939453"/>
      <use xlink:href="#DejaVuSans-69" x="222.416016"/>
      <use xlink:href="#DejaVuSans-63" x="250.199219"/>
      <use xlink:href="#DejaVuSans-74" x="305.179688"/>
      <use xlink:href="#DejaVuSans-65" x="344.388672"/>
      <use xlink:href="#DejaVuSans-64" x="405.912109"/>
      <use xlink:href="#DejaVuSans-20" x="469.388672"/>
      <use xlink:href="#DejaVuSans-46" x="501.175781"/>
      <use xlink:href="#DejaVuSans-6c" x="558.695312"/>
      <use xlink:href="#DejaVuSans-75" x="586.478516"/>
      <use xlink:href="#DejaVuSans-6f" x="649.857422"/>
      <use xlink:href="#DejaVuSans-72" x="711.039062"/>
      <use xlink:href="#DejaVuSans-65" x="749.902344"/>
      <use xlink:href="#DejaVuSans-73" x="811.425781"/>
      <use xlink:href="#DejaVuSans-63" x="863.525391"/>
      <use xlink:href="#DejaVuSans-65" x="918.505859"/>
      <use xlink:href="#DejaVuSans-6e" x="980.029297"/>
      <use xlink:href="#DejaVuSans-63" x="1043.408203"/>
      <use xlink:href="#DejaVuSans-65" x="1098.388672"/>
     </g>
    </g>
   </g>
   <g id="matplotlib.axis_2">
    <g id="ytick_1">
     <g id="line2d_9">
      <defs>
       <path id="m8a0b7c995a" d="M 0 0 
L -3.5 0 
" style="stroke: #000000; stroke-width: 0.8"/>
      </defs>
      <g>
       <use xlink:href="#m8a0b7c995a" x="54.92" y="389.32" style="stroke: #000000; stroke-width: 0.8"/>
      </g>
     </g>
     <g id="text_10">
      <!-- 0.00 -->
      <g transform="translate(25.654375 393.119219) scale(0.1 -0.1)">
       <defs>
        <path id="DejaVuSans-2e" d="M 684 794 
L 1344 794 
L 1344 0 
L 684 0 
L 684 794 
z
" transform="scale(0.015625)"/>
       </defs>
       <use xlink:href="#DejaVuSans-30"/>
       <use xlink:href="#DejaVuSans-2e" x="63.623047"/>
       <use xlink:href="#DejaVuSans-30" x="95.410156"/>
       <use xlink:href="#DejaVuSans-30" x="159.033203"/>
      </g>
     </g>
    </g>
    <g id="ytick_2">
     <g id="line2d_10">
      <g>
       <use xlink:href="#m8a0b7c995a" x="54.92" y="339.466497" style="stroke: #000000; stroke-width: 0.8"/>
      </g>
     </g>
     <g id="text_11">
      <!-- 0.05 -->
      <g transform="translate(25.654375 343.265716) scale(0.1 -0.1)">
       <defs>
        <path id="DejaVuSans-35" d="M 691 4666 
L 3169 4666 
L 3169 4134 
L 1269 4134 
L 1269 2991 
Q 1406 3038 1543 3061 
Q 1681 3084 1819 3084 
Q 2600 3084 3056 2656 
Q 3513 2228 3513 1497 
Q 3513 744 3044 326 
Q 2575 -91 1722 -91 
Q 1428 -91 1123 -41 
Q 819 9 494 109 
L 494 744 
Q 775 591 1075 516 
Q 1375 441 1709 441 
Q 2250 441 2565 725 
Q 2881 1009 2881 1497 
Q 2881 1984 2565 2268 
Q 2250 2553 1709 2553 
Q 1456 2553 1204 2497 
Q 953 2441 691 2322 
L 691 4666 
z
" transform="scale(0.015625)"/>
       </defs>
       <use xlink:href="#DejaVuSans-30"/>
       <use xlink:href="#DejaVuSans-2e" x="63.623047"/>
       <use xlink:href="#DejaVuSans-30" x="95.410156"/>
       <use xlink:href="#DejaVuSans-35" x="159.033203"/>
      </g>
     </g>
    </g>
    <g id="ytick_3">
     <g id="line2d_11">
      <g>
       <use xlink:href="#m8a0b7c995a" x="54.92" y="289.612994" style="stroke: #000000; stroke-width: 0.8"/>
      </g>
     </g>
     <g id="text_12">
      <!-- 0.10 -->
      <g transform="translate(25.654375 293.412212) scale(0.1 -0.1)">
       <use xlink:href="#DejaVuSans-30"/>
       <use xlink:href="#DejaVuSans-2e" x="63.623047"/>
       <use xlink:href="#DejaVuSans-31" x="95.410156"/>
       <use xlink:href="#DejaVuSans-30" x="159.033203"/>
      </g>
     </g>
    </g>
    <g id="ytick_4">
     <g id="line2d_12">
      <g>
       <use xlink:href="#m8a0b7c995a" x="54.92" y="239.75949" style="stroke: #000000; stroke-width: 0.8"/>
      </g>
     </g>
     <g id="text_13">
      <!-- 0.15 -->
      <g transform="translate(25.654375 243.558709) scale(0.1 -0.1)">
       <use xlink:href="#DejaVuSans-30"/>
       <use xlink:href="#DejaVuSans-2e" x="63.623047"/>
       <use xlink:href="#DejaVuSans-31" x="95.410156"/>
       <use xlink:href="#DejaVuSans-35" x="159.033203"/>
      </g>
     </g>
    </g>
    <g id="ytick_5">
     <g id="line2d_13">
      <g>
       <use xlink:href="#m8a0b7c995a" x="54.92" y="189.905987" style="stroke: #000000; stroke-width: 0.8"/>
      </g>
     </g>
     <g id="text_14">
      <!-- 0.20 -->
      <g transform="translate(25.654375 193.705206) scale(0.1 -0.1)">
       <use xlink:href="#DejaVuSans-30"/>
       <use xlink:href="#DejaVuSans-2e" x="63.623047"/>
       <use xlink:href="#DejaVuSans-32" x="95.410156"/>
       <use xlink:href="#DejaVuSans-30" x="159.033203"/>
      </g>
     </g>
    </g>
    <g id="ytick_6">
     <g id="line2d_14">
      <g>
       <use xlink:href="#m8a0b7c995a" x="54.92" y="140.052484" style="stroke: #000000; stroke-width: 0.8"/>
      </g>
     </g>
     <g id="text_15">
      <!-- 0.25 -->
      <g transform="translate(25.654375 143.851703) scale(0.1 -0.1)">
       <use xlink:href="#DejaVuSans-30"/>
       <use xlink:href="#DejaVuSans-2e" x="63.623047"/>
       <use xlink:href="#DejaVuSans-32" x="95.410156"/>
       <use xlink:href="#DejaVuSans-35" x="159.033203"/>
      </g>
     </g>
    </g>
    <g id="ytick_7">
     <g id="line2d_15">
      <g>
       <use xlink:href="#m8a0b7c995a" x="54.92" y="90.198981" style="stroke: #000000; stroke-width: 0.8"/>
      </g>
     </g>
     <g id="text_16">
      <!-- 0.30 -->
      <g transform="translate(25.654375 93.9982) scale(0.1 -0.1)">
       <defs>
        <path id="DejaVuSans-33" d="M 2597 2516 
Q 3050 2419 3304 2112 
Q 3559 1806 3559 1356 
Q 3559 666 3084 287 
Q 2609 -91 1734 -91 
Q 1441 -91 1130 -33 
Q 819 25 488 141 
L 488 750 
Q 750 597 1062 519 
Q 1375 441 1716 441 
Q 2309 441 2620 675 
Q 2931 909 2931 1356 
Q 2931 1769 2642 2001 
Q 2353 2234 1838 2234 
L 1294 2234 
L 1294 2753 
L 1863 2753 
Q 2328 2753 2575 2939 
Q 2822 3125 2822 3475 
Q 2822 3834 2567 4026 
Q 2313 4219 1838 4219 
Q 1578 4219 1281 4162 
Q 984 4106 628 3988 
L 628 4550 
Q 988 4650 1302 4700 
Q 1616 4750 1894 4750 
Q 2613 4750 3031 4423 
Q 3450 4097 3450 3541 
Q 3450 3153 3228 2886 
Q 3006 2619 2597 2516 
z
" transform="scale(0.015625)"/>
       </defs>
       <use xlink:href="#DejaVuSans-30"/>
       <use xlink:href="#DejaVuSans-2e" x="63.623047"/>
       <use xlink:href="#DejaVuSans-33" x="95.410156"/>
       <use xlink:href="#DejaVuSans-30" x="159.033203"/>
      </g>
     </g>
    </g>
    <g id="ytick_8">
     <g id="line2d_16">
      <g>
       <use xlink:href="#m8a0b7c995a" x="54.92" y="40.345478" style="stroke: #000000; stroke-width: 0.8"/>
      </g>
     </g>
     <g id="text_17">
      <!-- 0.35 -->
      <g transform="translate(25.654375 44.144696) scale(0.1 -0.1)">
       <use xlink:href="#DejaVuSans-30"/>
       <use xlink:href="#DejaVuSans-2e" x="63.623047"/>
       <use xlink:href="#DejaVuSans-33" x="95.410156"/>
       <use xlink:href="#DejaVuSans-35" x="159.033203"/>
      </g>
     </g>
    </g>
    <g id="text_18">
     <!-- Probability Density -->
     <g transform="translate(19.15875 258.471875) rotate(-90) scale(0.12 -0.12)">
      <defs>
       <path id="DejaVuSans-62" d="M 3116 1747 
Q 3116 2381 2855 2742 
Q 2594 3103 2138 3103 
Q 1681 3103 1420 2742 
Q 1159 2381 1159 1747 
Q 1159 1113 1420 752 
Q 1681 391 2138 391 
Q 2594 391 2855 752 
Q 3116 1113 3116 1747 
z
M 1159 2969 
Q 1341 3281 1617 3432 
Q 1894 3584 2278 3584 
Q 2916 3584 3314 3078 
Q 3713 2572 3713 1747 
Q 3713 922 3314 415 
Q 2916 -91 2278 -91 
Q 1894 -91 1617 61 
Q 1341 213 1159 525 
L 1159 0 
L 581 0 
L 581 4863 
L 1159 4863 
L 1159 2969 
z
" transform="scale(0.015625)"/>
       <path id="DejaVuSans-61" d="M 2194 1759 
Q 1497 1759 1228 1600 
Q 959 1441 959 1056 
Q 959 750 1161 570 
Q 1363 391 1709 391 
Q 2188 391 2477 730 
Q 2766 1069 2766 1631 
L 2766 1759 
L 2194 1759 
z
M 3341 1997 
L 3341 0 
L 2766 0 
L 2766 531 
Q 2569 213 2275 61 
Q 1981 -91 1556 -91 
Q 1019 -91 701 211 
Q 384 513 384 1019 
Q 384 1609 779 1909 
Q 1175 2209 1959 2209 
L 2766 2209 
L 2766 2266 
Q 2766 2663 2505 2880 
Q 2244 3097 1772 3097 
Q 1472 3097 1187 3025 
Q 903 2953 641 2809 
L 641 3341 
Q 956 3463 1253 3523 
Q 1550 3584 1831 3584 
Q 2591 3584 2966 3190 
Q 3341 2797 3341 1997 
z
" transform="scale(0.015625)"/>
       <path id="DejaVuSans-79" d="M 2059 -325 
Q 1816 -950 1584 -1140 
Q 1353 -1331 966 -1331 
L 506 -1331 
L 506 -850 
L 844 -850 
Q 1081 -850 1212 -737 
Q 1344 -625 1503 -206 
L 1606 56 
L 191 3500 
L 800 3500 
L 1894 763 
L 2988 3500 
L 3597 3500 
L 2059 -325 
z
" transform="scale(0.015625)"/>
       <path id="DejaVuSans-44" d="M 1259 4147 
L 1259 519 
L 2022 519 
Q 2988 519 3436 956 
Q 3884 1394 3884 2338 
Q 3884 3275 3436 3711 
Q 2988 4147 2022 4147 
L 1259 4147 
z
M 628 4666 
L 1925 4666 
Q 3281 4666 3915 4102 
Q 4550 3538 4550 2338 
Q 4550 1131 3912 565 
Q 3275 0 1925 0 
L 628 0 
L 628 4666 
z
" transform="scale(0.015625)"/>
      </defs>
      <use xlink:href="#DejaVuSans-50"/>
      <use xlink:href="#DejaVuSans-72" x="58.552734"/>
      <use xlink:href="#DejaVuSans-6f" x="97.416016"/>
      <use xlink:href="#DejaVuSans-62" x="158.597656"/>
      <use xlink:href="#DejaVuSans-61" x="222.074219"/>
      <use xlink:href="#DejaVuSans-62" x="283.353516"/>
      <use xlink:href="#DejaVuSans-69" x="346.830078"/>
      <use xlink:href="#DejaVuSans-6c" x="374.613281"/>
      <use xlink:href="#DejaVuSans-69" x="402.396484"/>
      <use xlink:href="#DejaVuSans-74" x="430.179688"/>
      <use xlink:href="#DejaVuSans-79" x="469.388672"/>
      <use xlink:href="#DejaVuSans-20" x="528.568359"/>
      <use xlink:href="#DejaVuSans-44" x="560.355469"/>
      <use xlink:href="#DejaVuSans-65" x="637.357422"/>
      <use xlink:href="#DejaVuSans-6e" x="698.880859"/>
      <use xlink:href="#DejaVuSans-73" x="762.259766"/>
      <use xlink:href="#DejaVuSans-69" x="814.359375"/>
      <use xlink:href="#DejaVuSans-74" x="842.142578"/>
      <use xlink:href="#DejaVuSans-79" x="881.351562"/>
     </g>
    </g>
   </g>
   <g id="line2d_17">
    <path d="M 155.519589 389.32 
L 155.519589 14.76 
" clip-path="url(#p31121d1f3b)" style="fill: none; stroke-dasharray: 11.1,4.8; stroke-dashoffset: 0; stroke: #ffa500; stroke-width: 3"/>
   </g>
   <g id="patch_80">
    <path d="M 54.92 389.32 
L 54.92 14.76 
" style="fill: none; stroke: #000000; stroke-width: 0.8; stroke-linejoin: miter; stroke-linecap: square"/>
   </g>
   <g id="patch_81">
    <path d="M 54.92 389.32 
L 429.795 389.32 
" style="fill: none; stroke: #000000; stroke-width: 0.8; stroke-linejoin: miter; stroke-linecap: square"/>
   </g>
   <g id="legend_1">
    <g id="patch_82">
     <path d="M 183.300469 66.794375 
L 301.414531 66.794375 
Q 303.414531 66.794375 303.414531 64.794375 
L 303.414531 21.76 
Q 303.414531 19.76 301.414531 19.76 
L 183.300469 19.76 
Q 181.300469 19.76 181.300469 21.76 
L 181.300469 64.794375 
Q 181.300469 66.794375 183.300469 66.794375 
z
" style="fill: #ffffff; opacity: 0.8; stroke: #cccccc; stroke-linejoin: miter"/>
    </g>
    <g id="patch_83">
     <path d="M 185.300469 31.358438 
L 205.300469 31.358438 
L 205.300469 24.358438 
L 185.300469 24.358438 
z
" style="fill: #808080; fill-opacity: 0.4; stroke: #000000; stroke-linejoin: miter"/>
    </g>
    <g id="text_19">
     <!-- Pre-trained ESM2 -->
     <g transform="translate(213.300469 31.358438) scale(0.1 -0.1)">
      <defs>
       <path id="DejaVuSans-2d" d="M 313 2009 
L 1997 2009 
L 1997 1497 
L 313 1497 
L 313 2009 
z
" transform="scale(0.015625)"/>
       <path id="DejaVuSans-45" d="M 628 4666 
L 3578 4666 
L 3578 4134 
L 1259 4134 
L 1259 2753 
L 3481 2753 
L 3481 2222 
L 1259 2222 
L 1259 531 
L 3634 531 
L 3634 0 
L 628 0 
L 628 4666 
z
" transform="scale(0.015625)"/>
       <path id="DejaVuSans-53" d="M 3425 4513 
L 3425 3897 
Q 3066 4069 2747 4153 
Q 2428 4238 2131 4238 
Q 1616 4238 1336 4038 
Q 1056 3838 1056 3469 
Q 1056 3159 1242 3001 
Q 1428 2844 1947 2747 
L 2328 2669 
Q 3034 2534 3370 2195 
Q 3706 1856 3706 1288 
Q 3706 609 3251 259 
Q 2797 -91 1919 -91 
Q 1588 -91 1214 -16 
Q 841 59 441 206 
L 441 856 
Q 825 641 1194 531 
Q 1563 422 1919 422 
Q 2459 422 2753 634 
Q 3047 847 3047 1241 
Q 3047 1584 2836 1778 
Q 2625 1972 2144 2069 
L 1759 2144 
Q 1053 2284 737 2584 
Q 422 2884 422 3419 
Q 422 4038 858 4394 
Q 1294 4750 2059 4750 
Q 2388 4750 2728 4690 
Q 3069 4631 3425 4513 
z
" transform="scale(0.015625)"/>
       <path id="DejaVuSans-4d" d="M 628 4666 
L 1569 4666 
L 2759 1491 
L 3956 4666 
L 4897 4666 
L 4897 0 
L 4281 0 
L 4281 4097 
L 3078 897 
L 2444 897 
L 1241 4097 
L 1241 0 
L 628 0 
L 628 4666 
z
" transform="scale(0.015625)"/>
      </defs>
      <use xlink:href="#DejaVuSans-50"/>
      <use xlink:href="#DejaVuSans-72" x="58.552734"/>
      <use xlink:href="#DejaVuSans-65" x="97.416016"/>
      <use xlink:href="#DejaVuSans-2d" x="158.939453"/>
      <use xlink:href="#DejaVuSans-74" x="195.023438"/>
      <use xlink:href="#DejaVuSans-72" x="234.232422"/>
      <use xlink:href="#DejaVuSans-61" x="275.345703"/>
      <use xlink:href="#DejaVuSans-69" x="336.625"/>
      <use xlink:href="#DejaVuSans-6e" x="364.408203"/>
      <use xlink:href="#DejaVuSans-65" x="427.787109"/>
      <use xlink:href="#DejaVuSans-64" x="489.310547"/>
      <use xlink:href="#DejaVuSans-20" x="552.787109"/>
      <use xlink:href="#DejaVuSans-45" x="584.574219"/>
      <use xlink:href="#DejaVuSans-53" x="647.757812"/>
      <use xlink:href="#DejaVuSans-4d" x="711.234375"/>
      <use xlink:href="#DejaVuSans-32" x="797.513672"/>
     </g>
    </g>
    <g id="patch_84">
     <path d="M 185.300469 46.036563 
L 205.300469 46.036563 
L 205.300469 39.036563 
L 185.300469 39.036563 
z
" style="fill: #ffa500; fill-opacity: 0.6; stroke: #000000; stroke-width: 0.648406; stroke-linejoin: miter"/>
    </g>
    <g id="text_20">
     <!-- SFT ESM2 -->
     <g transform="translate(213.300469 46.036563) scale(0.1 -0.1)">
      <defs>
       <path id="DejaVuSans-54" d="M -19 4666 
L 3928 4666 
L 3928 4134 
L 2272 4134 
L 2272 0 
L 1638 0 
L 1638 4134 
L -19 4134 
L -19 4666 
z
" transform="scale(0.015625)"/>
      </defs>
      <use xlink:href="#DejaVuSans-53"/>
      <use xlink:href="#DejaVuSans-46" x="63.476562"/>
      <use xlink:href="#DejaVuSans-54" x="119.246094"/>
      <use xlink:href="#DejaVuSans-20" x="180.330078"/>
      <use xlink:href="#DejaVuSans-45" x="212.117188"/>
      <use xlink:href="#DejaVuSans-53" x="275.300781"/>
      <use xlink:href="#DejaVuSans-4d" x="338.777344"/>
      <use xlink:href="#DejaVuSans-32" x="425.056641"/>
     </g>
    </g>
    <g id="patch_85">
     <path d="M 185.300469 60.714688 
L 205.300469 60.714688 
L 205.300469 53.714688 
L 185.300469 53.714688 
z
" style="fill: #0000ff; fill-opacity: 0.6; stroke: #000000; stroke-width: 0.882916; stroke-linejoin: miter"/>
    </g>
    <g id="text_21">
     <!-- Aligned ESM2 -->
     <g transform="translate(213.300469 60.714688) scale(0.1 -0.1)">
      <defs>
       <path id="DejaVuSans-41" d="M 2188 4044 
L 1331 1722 
L 3047 1722 
L 2188 4044 
z
M 1831 4666 
L 2547 4666 
L 4325 0 
L 3669 0 
L 3244 1197 
L 1141 1197 
L 716 0 
L 50 0 
L 1831 4666 
z
" transform="scale(0.015625)"/>
       <path id="DejaVuSans-67" d="M 2906 1791 
Q 2906 2416 2648 2759 
Q 2391 3103 1925 3103 
Q 1463 3103 1205 2759 
Q 947 2416 947 1791 
Q 947 1169 1205 825 
Q 1463 481 1925 481 
Q 2391 481 2648 825 
Q 2906 1169 2906 1791 
z
M 3481 434 
Q 3481 -459 3084 -895 
Q 2688 -1331 1869 -1331 
Q 1566 -1331 1297 -1286 
Q 1028 -1241 775 -1147 
L 775 -588 
Q 1028 -725 1275 -790 
Q 1522 -856 1778 -856 
Q 2344 -856 2625 -561 
Q 2906 -266 2906 331 
L 2906 616 
Q 2728 306 2450 153 
Q 2172 0 1784 0 
Q 1141 0 747 490 
Q 353 981 353 1791 
Q 353 2603 747 3093 
Q 1141 3584 1784 3584 
Q 2172 3584 2450 3431 
Q 2728 3278 2906 2969 
L 2906 3500 
L 3481 3500 
L 3481 434 
z
" transform="scale(0.015625)"/>
      </defs>
      <use xlink:href="#DejaVuSans-41"/>
      <use xlink:href="#DejaVuSans-6c" x="68.408203"/>
      <use xlink:href="#DejaVuSans-69" x="96.191406"/>
      <use xlink:href="#DejaVuSans-67" x="123.974609"/>
      <use xlink:href="#DejaVuSans-6e" x="187.451172"/>
      <use xlink:href="#DejaVuSans-65" x="250.830078"/>
      <use xlink:href="#DejaVuSans-64" x="312.353516"/>
      <use xlink:href="#DejaVuSans-20" x="375.830078"/>
      <use xlink:href="#DejaVuSans-45" x="407.617188"/>
      <use xlink:href="#DejaVuSans-53" x="470.800781"/>
      <use xlink:href="#DejaVuSans-4d" x="534.277344"/>
      <use xlink:href="#DejaVuSans-32" x="620.556641"/>
     </g>
    </g>
   </g>
  </g>
  <g id="axes_2">
   <g id="patch_86">
    <path d="M 478.325 389.32 
L 853.2 389.32 
L 853.2 14.76 
L 478.325 14.76 
z
" style="fill: #ffffff"/>
   </g>
   <g id="patch_87">
    <path d="M 495.364773 389.32 
L 495.364773 14.76 
L 578.924589 14.76 
L 578.924589 389.32 
z
" clip-path="url(#p00e6d57c10)" style="fill: #ff0000; opacity: 0.1; stroke: #ff0000; stroke-linejoin: miter"/>
   </g>
   <g id="patch_88">
    <path d="M 578.924589 389.32 
L 578.924589 14.76 
L 836.160227 14.76 
L 836.160227 389.32 
z
" clip-path="url(#p00e6d57c10)" style="fill: #008000; opacity: 0.1; stroke: #008000; stroke-linejoin: miter"/>
   </g>
   <g id="matplotlib.axis_3">
    <g id="xtick_9">
     <g id="line2d_18">
      <g>
       <use xlink:href="#m5f82e8d8dc" x="509.743122" y="389.32" style="stroke: #000000; stroke-width: 0.8"/>
      </g>
     </g>
     <g id="text_22">
      <!-- −2 -->
      <g transform="translate(502.372028 403.918437) scale(0.1 -0.1)">
       <use xlink:href="#DejaVuSans-2212"/>
       <use xlink:href="#DejaVuSans-32" x="83.789062"/>
      </g>
     </g>
    </g>
    <g id="xtick_10">
     <g id="line2d_19">
      <g>
       <use xlink:href="#m5f82e8d8dc" x="553.670652" y="389.32" style="stroke: #000000; stroke-width: 0.8"/>
      </g>
     </g>
     <g id="text_23">
      <!-- 0 -->
      <g transform="translate(550.489402 403.918437) scale(0.1 -0.1)">
       <use xlink:href="#DejaVuSans-30"/>
      </g>
     </g>
    </g>
    <g id="xtick_11">
     <g id="line2d_20">
      <g>
       <use xlink:href="#m5f82e8d8dc" x="597.598182" y="389.32" style="stroke: #000000; stroke-width: 0.8"/>
      </g>
     </g>
     <g id="text_24">
      <!-- 2 -->
      <g transform="translate(594.416932 403.918437) scale(0.1 -0.1)">
       <use xlink:href="#DejaVuSans-32"/>
      </g>
     </g>
    </g>
    <g id="xtick_12">
     <g id="line2d_21">
      <g>
       <use xlink:href="#m5f82e8d8dc" x="641.525713" y="389.32" style="stroke: #000000; stroke-width: 0.8"/>
      </g>
     </g>
     <g id="text_25">
      <!-- 4 -->
      <g transform="translate(638.344463 403.918437) scale(0.1 -0.1)">
       <use xlink:href="#DejaVuSans-34"/>
      </g>
     </g>
    </g>
    <g id="xtick_13">
     <g id="line2d_22">
      <g>
       <use xlink:href="#m5f82e8d8dc" x="685.453243" y="389.32" style="stroke: #000000; stroke-width: 0.8"/>
      </g>
     </g>
     <g id="text_26">
      <!-- 6 -->
      <g transform="translate(682.271993 403.918437) scale(0.1 -0.1)">
       <use xlink:href="#DejaVuSans-36"/>
      </g>
     </g>
    </g>
    <g id="xtick_14">
     <g id="line2d_23">
      <g>
       <use xlink:href="#m5f82e8d8dc" x="729.380773" y="389.32" style="stroke: #000000; stroke-width: 0.8"/>
      </g>
     </g>
     <g id="text_27">
      <!-- 8 -->
      <g transform="translate(726.199523 403.918437) scale(0.1 -0.1)">
       <use xlink:href="#DejaVuSans-38"/>
      </g>
     </g>
    </g>
    <g id="xtick_15">
     <g id="line2d_24">
      <g>
       <use xlink:href="#m5f82e8d8dc" x="773.308304" y="389.32" style="stroke: #000000; stroke-width: 0.8"/>
      </g>
     </g>
     <g id="text_28">
      <!-- 10 -->
      <g transform="translate(766.945804 403.918437) scale(0.1 -0.1)">
       <use xlink:href="#DejaVuSans-31"/>
       <use xlink:href="#DejaVuSans-30" x="63.623047"/>
      </g>
     </g>
    </g>
    <g id="xtick_16">
     <g id="line2d_25">
      <g>
       <use xlink:href="#m5f82e8d8dc" x="817.235834" y="389.32" style="stroke: #000000; stroke-width: 0.8"/>
      </g>
     </g>
     <g id="text_29">
      <!-- 12 -->
      <g transform="translate(810.873334 403.918437) scale(0.1 -0.1)">
       <use xlink:href="#DejaVuSans-31"/>
       <use xlink:href="#DejaVuSans-32" x="63.623047"/>
      </g>
     </g>
    </g>
    <g id="text_30">
     <!-- Predicted Fluorescence -->
     <g transform="translate(596.16625 419.11625) scale(0.12 -0.12)">
      <use xlink:href="#DejaVuSans-50"/>
      <use xlink:href="#DejaVuSans-72" x="58.552734"/>
      <use xlink:href="#DejaVuSans-65" x="97.416016"/>
      <use xlink:href="#DejaVuSans-64" x="158.939453"/>
      <use xlink:href="#DejaVuSans-69" x="222.416016"/>
      <use xlink:href="#DejaVuSans-63" x="250.199219"/>
      <use xlink:href="#DejaVuSans-74" x="305.179688"/>
      <use xlink:href="#DejaVuSans-65" x="344.388672"/>
      <use xlink:href="#DejaVuSans-64" x="405.912109"/>
      <use xlink:href="#DejaVuSans-20" x="469.388672"/>
      <use xlink:href="#DejaVuSans-46" x="501.175781"/>
      <use xlink:href="#DejaVuSans-6c" x="558.695312"/>
      <use xlink:href="#DejaVuSans-75" x="586.478516"/>
      <use xlink:href="#DejaVuSans-6f" x="649.857422"/>
      <use xlink:href="#DejaVuSans-72" x="711.039062"/>
      <use xlink:href="#DejaVuSans-65" x="749.902344"/>
      <use xlink:href="#DejaVuSans-73" x="811.425781"/>
      <use xlink:href="#DejaVuSans-63" x="863.525391"/>
      <use xlink:href="#DejaVuSans-65" x="918.505859"/>
      <use xlink:href="#DejaVuSans-6e" x="980.029297"/>
      <use xlink:href="#DejaVuSans-63" x="1043.408203"/>
      <use xlink:href="#DejaVuSans-65" x="1098.388672"/>
     </g>
    </g>
   </g>
   <g id="matplotlib.axis_4">
    <g id="ytick_9">
     <g id="line2d_26">
      <g>
       <use xlink:href="#m8a0b7c995a" x="478.325" y="389.32" style="stroke: #000000; stroke-width: 0.8"/>
      </g>
     </g>
     <g id="text_31">
      <!-- 0.0 -->
      <g transform="translate(455.421875 393.119219) scale(0.1 -0.1)">
       <use xlink:href="#DejaVuSans-30"/>
       <use xlink:href="#DejaVuSans-2e" x="63.623047"/>
       <use xlink:href="#DejaVuSans-30" x="95.410156"/>
      </g>
     </g>
    </g>
    <g id="ytick_10">
     <g id="line2d_27">
      <g>
       <use xlink:href="#m8a0b7c995a" x="478.325" y="314.408" style="stroke: #000000; stroke-width: 0.8"/>
      </g>
     </g>
     <g id="text_32">
      <!-- 0.2 -->
      <g transform="translate(455.421875 318.207219) scale(0.1 -0.1)">
       <use xlink:href="#DejaVuSans-30"/>
       <use xlink:href="#DejaVuSans-2e" x="63.623047"/>
       <use xlink:href="#DejaVuSans-32" x="95.410156"/>
      </g>
     </g>
    </g>
    <g id="ytick_11">
     <g id="line2d_28">
      <g>
       <use xlink:href="#m8a0b7c995a" x="478.325" y="239.496" style="stroke: #000000; stroke-width: 0.8"/>
      </g>
     </g>
     <g id="text_33">
      <!-- 0.4 -->
      <g transform="translate(455.421875 243.295219) scale(0.1 -0.1)">
       <use xlink:href="#DejaVuSans-30"/>
       <use xlink:href="#DejaVuSans-2e" x="63.623047"/>
       <use xlink:href="#DejaVuSans-34" x="95.410156"/>
      </g>
     </g>
    </g>
    <g id="ytick_12">
     <g id="line2d_29">
      <g>
       <use xlink:href="#m8a0b7c995a" x="478.325" y="164.584" style="stroke: #000000; stroke-width: 0.8"/>
      </g>
     </g>
     <g id="text_34">
      <!-- 0.6 -->
      <g transform="translate(455.421875 168.383219) scale(0.1 -0.1)">
       <use xlink:href="#DejaVuSans-30"/>
       <use xlink:href="#DejaVuSans-2e" x="63.623047"/>
       <use xlink:href="#DejaVuSans-36" x="95.410156"/>
      </g>
     </g>
    </g>
    <g id="ytick_13">
     <g id="line2d_30">
      <g>
       <use xlink:href="#m8a0b7c995a" x="478.325" y="89.672" style="stroke: #000000; stroke-width: 0.8"/>
      </g>
     </g>
     <g id="text_35">
      <!-- 0.8 -->
      <g transform="translate(455.421875 93.471219) scale(0.1 -0.1)">
       <use xlink:href="#DejaVuSans-30"/>
       <use xlink:href="#DejaVuSans-2e" x="63.623047"/>
       <use xlink:href="#DejaVuSans-38" x="95.410156"/>
      </g>
     </g>
    </g>
    <g id="ytick_14">
     <g id="line2d_31">
      <g>
       <use xlink:href="#m8a0b7c995a" x="478.325" y="14.76" style="stroke: #000000; stroke-width: 0.8"/>
      </g>
     </g>
     <g id="text_36">
      <!-- 1.0 -->
      <g transform="translate(455.421875 18.559219) scale(0.1 -0.1)">
       <use xlink:href="#DejaVuSans-31"/>
       <use xlink:href="#DejaVuSans-2e" x="63.623047"/>
       <use xlink:href="#DejaVuSans-30" x="95.410156"/>
      </g>
     </g>
    </g>
    <g id="text_37">
     <!-- Cumulative Density -->
     <g transform="translate(448.92625 261.002187) rotate(-90) scale(0.12 -0.12)">
      <defs>
       <path id="DejaVuSans-43" d="M 4122 4306 
L 4122 3641 
Q 3803 3938 3442 4084 
Q 3081 4231 2675 4231 
Q 1875 4231 1450 3742 
Q 1025 3253 1025 2328 
Q 1025 1406 1450 917 
Q 1875 428 2675 428 
Q 3081 428 3442 575 
Q 3803 722 4122 1019 
L 4122 359 
Q 3791 134 3420 21 
Q 3050 -91 2638 -91 
Q 1578 -91 968 557 
Q 359 1206 359 2328 
Q 359 3453 968 4101 
Q 1578 4750 2638 4750 
Q 3056 4750 3426 4639 
Q 3797 4528 4122 4306 
z
" transform="scale(0.015625)"/>
       <path id="DejaVuSans-6d" d="M 3328 2828 
Q 3544 3216 3844 3400 
Q 4144 3584 4550 3584 
Q 5097 3584 5394 3201 
Q 5691 2819 5691 2113 
L 5691 0 
L 5113 0 
L 5113 2094 
Q 5113 2597 4934 2840 
Q 4756 3084 4391 3084 
Q 3944 3084 3684 2787 
Q 3425 2491 3425 1978 
L 3425 0 
L 2847 0 
L 2847 2094 
Q 2847 2600 2669 2842 
Q 2491 3084 2119 3084 
Q 1678 3084 1418 2786 
Q 1159 2488 1159 1978 
L 1159 0 
L 581 0 
L 581 3500 
L 1159 3500 
L 1159 2956 
Q 1356 3278 1631 3431 
Q 1906 3584 2284 3584 
Q 2666 3584 2933 3390 
Q 3200 3197 3328 2828 
z
" transform="scale(0.015625)"/>
       <path id="DejaVuSans-76" d="M 191 3500 
L 800 3500 
L 1894 563 
L 2988 3500 
L 3597 3500 
L 2284 0 
L 1503 0 
L 191 3500 
z
" transform="scale(0.015625)"/>
      </defs>
      <use xlink:href="#DejaVuSans-43"/>
      <use xlink:href="#DejaVuSans-75" x="69.824219"/>
      <use xlink:href="#DejaVuSans-6d" x="133.203125"/>
      <use xlink:href="#DejaVuSans-75" x="230.615234"/>
      <use xlink:href="#DejaVuSans-6c" x="293.994141"/>
      <use xlink:href="#DejaVuSans-61" x="321.777344"/>
      <use xlink:href="#DejaVuSans-74" x="383.056641"/>
      <use xlink:href="#DejaVuSans-69" x="422.265625"/>
      <use xlink:href="#DejaVuSans-76" x="450.048828"/>
      <use xlink:href="#DejaVuSans-65" x="509.228516"/>
      <use xlink:href="#DejaVuSans-20" x="570.751953"/>
      <use xlink:href="#DejaVuSans-44" x="602.539062"/>
      <use xlink:href="#DejaVuSans-65" x="679.541016"/>
      <use xlink:href="#DejaVuSans-6e" x="741.064453"/>
      <use xlink:href="#DejaVuSans-73" x="804.443359"/>
      <use xlink:href="#DejaVuSans-69" x="856.542969"/>
      <use xlink:href="#DejaVuSans-74" x="884.326172"/>
      <use xlink:href="#DejaVuSans-79" x="923.535156"/>
     </g>
    </g>
   </g>
   <g id="line2d_32">
    <path d="M 496.462961 14.76 
L 496.462961 18.5056 
L 497.588918 18.5056 
L 497.588918 22.2512 
L 498.004995 22.2512 
L 498.004995 25.9968 
L 498.733438 25.9968 
L 498.733438 29.7424 
L 501.366286 29.7424 
L 501.366286 33.488 
L 505.092451 33.488 
L 505.092451 37.2336 
L 506.092861 37.2336 
L 506.092861 40.9792 
L 507.299927 40.9792 
L 507.299927 44.7248 
L 507.470712 44.7248 
L 507.470712 48.4704 
L 508.344413 48.4704 
L 508.344413 52.216 
L 511.303808 52.216 
L 511.303808 55.9616 
L 515.098711 55.9616 
L 515.098711 59.7072 
L 516.827075 59.7072 
L 516.827075 63.4528 
L 517.533153 63.4528 
L 517.533153 67.1984 
L 519.393161 67.1984 
L 519.393161 70.944 
L 520.800531 70.944 
L 520.800531 74.6896 
L 522.506815 74.6896 
L 522.506815 78.4352 
L 525.730796 78.4352 
L 525.730796 82.1808 
L 527.286908 82.1808 
L 527.286908 85.9264 
L 528.060415 85.9264 
L 528.060415 89.672 
L 528.213859 89.672 
L 528.213859 93.4176 
L 530.984617 93.4176 
L 530.984617 97.1632 
L 531.243068 97.1632 
L 531.243068 100.9088 
L 534.315992 100.9088 
L 534.315992 104.6544 
L 534.763253 104.6544 
L 534.763253 108.4 
L 536.522599 108.4 
L 536.522599 112.1456 
L 537.890909 112.1456 
L 537.890909 115.8912 
L 538.728501 115.8912 
L 538.728501 119.6368 
L 539.763873 119.6368 
L 539.763873 123.3824 
L 540.568624 123.3824 
L 540.568624 127.128 
L 541.149077 127.128 
L 541.149077 130.8736 
L 542.814789 130.8736 
L 542.814789 134.6192 
L 543.891126 134.6192 
L 543.891126 138.3648 
L 544.148335 138.3648 
L 544.148335 142.1104 
L 545.116173 142.1104 
L 545.116173 145.856 
L 545.252295 145.856 
L 545.252295 149.6016 
L 546.800733 149.6016 
L 546.800733 153.3472 
L 547.394677 153.3472 
L 547.394677 157.0928 
L 549.164338 157.0928 
L 549.164338 160.8384 
L 549.402354 160.8384 
L 549.402354 164.584 
L 549.759008 164.584 
L 549.850278 175.8208 
L 549.934091 175.8208 
L 549.934091 179.5664 
L 550.219419 179.5664 
L 550.219419 183.312 
L 551.408224 183.312 
L 551.408224 187.0576 
L 551.678327 187.0576 
L 551.678327 190.8032 
L 552.828625 190.8032 
L 552.828625 194.5488 
L 552.945465 194.5488 
L 552.945465 198.2944 
L 555.04983 198.2944 
L 555.04983 202.04 
L 557.607327 202.04 
L 557.645405 209.5312 
L 557.809199 209.5312 
L 557.809199 213.2768 
L 558.080758 213.2768 
L 558.113856 220.768 
L 558.422352 220.768 
L 558.422352 224.5136 
L 558.930071 224.5136 
L 558.930071 228.2592 
L 559.254515 228.2592 
L 559.312865 235.7504 
L 561.1474 235.7504 
L 561.1474 239.496 
L 563.108737 239.496 
L 563.108737 243.2416 
L 563.802597 243.2416 
L 563.816423 250.7328 
L 566.56862 250.7328 
L 566.612212 258.224 
L 567.303737 258.224 
L 567.41299 265.7152 
L 569.120732 265.7152 
L 569.120732 269.4608 
L 571.682948 269.4608 
L 571.682948 273.2064 
L 573.052301 273.2064 
L 573.052301 276.952 
L 573.285342 276.952 
L 573.285342 280.6976 
L 573.843484 280.6976 
L 573.843484 284.4432 
L 575.529029 284.4432 
L 575.529029 288.1888 
L 577.828885 288.1888 
L 577.828885 291.9344 
L 579.388645 291.9344 
L 579.388645 295.68 
L 580.71512 295.68 
L 580.71512 299.4256 
L 580.992899 299.4256 
L 580.992899 303.1712 
L 581.806537 303.1712 
L 581.806537 306.9168 
L 581.965592 306.9168 
L 581.965592 310.6624 
L 596.673336 310.6624 
L 596.673336 314.408 
L 598.526029 314.408 
L 598.605835 321.8992 
L 598.988376 321.8992 
L 598.988376 325.6448 
L 599.351208 325.6448 
L 599.351208 329.3904 
L 599.897696 329.3904 
L 599.897696 333.136 
L 605.754632 333.136 
L 605.754632 336.8816 
L 612.672999 336.8816 
L 612.672999 340.6272 
L 613.242921 340.6272 
L 613.242921 344.3728 
L 618.909953 344.3728 
L 618.909953 348.1184 
L 619.068254 348.1184 
L 619.068254 351.864 
L 621.569051 351.864 
L 621.569051 355.6096 
L 623.19243 355.6096 
L 623.19243 359.3552 
L 624.45293 359.3552 
L 624.45293 363.1008 
L 626.527638 363.1008 
L 626.527638 366.8464 
L 631.558793 366.8464 
L 631.558793 370.592 
L 639.771771 370.592 
L 639.771771 374.3376 
L 659.388511 374.3376 
L 659.388511 378.0832 
L 665.862084 378.0832 
L 665.862084 381.8288 
L 676.704527 381.8288 
L 676.704527 385.5744 
L 680.634122 385.5744 
L 680.634122 389.32 
L 680.634122 389.32 
" clip-path="url(#p00e6d57c10)" style="fill: none; stroke: #808080; stroke-width: 1.5; stroke-linecap: square"/>
   </g>
   <g id="line2d_33">
    <path d="M 636.693673 14.76 
L 636.693673 18.5056 
L 638.913995 18.5056 
L 638.913995 22.2512 
L 646.19313 22.2512 
L 646.19313 25.9968 
L 652.037519 25.9968 
L 652.037519 29.7424 
L 652.369015 29.7424 
L 652.369015 33.488 
L 655.075567 33.488 
L 655.075567 37.2336 
L 660.614894 37.2336 
L 660.614894 40.9792 
L 662.068147 40.9792 
L 662.068147 44.7248 
L 665.625988 44.7248 
L 665.625988 48.4704 
L 668.469047 48.4704 
L 668.469047 52.216 
L 669.256156 52.216 
L 669.256156 55.9616 
L 674.345002 55.9616 
L 674.345002 59.7072 
L 680.782935 59.7072 
L 680.782935 63.4528 
L 682.591615 63.4528 
L 682.591615 67.1984 
L 691.134293 67.1984 
L 691.134293 70.944 
L 697.853691 70.944 
L 697.853691 74.6896 
L 698.763147 74.6896 
L 698.763147 78.4352 
L 702.536965 78.4352 
L 702.536965 82.1808 
L 705.144505 82.1808 
L 705.144505 85.9264 
L 709.733457 85.9264 
L 709.733457 89.672 
L 710.178985 89.672 
L 710.178985 93.4176 
L 711.604777 93.4176 
L 711.604777 97.1632 
L 713.488978 97.1632 
L 713.488978 100.9088 
L 715.181291 100.9088 
L 715.181291 104.6544 
L 715.807124 104.6544 
L 715.807124 108.4 
L 715.982067 108.4 
L 715.982067 112.1456 
L 716.274048 112.1456 
L 716.274048 115.8912 
L 716.511715 115.8912 
L 716.511715 119.6368 
L 717.024249 119.6368 
L 717.024249 123.3824 
L 717.732852 123.3824 
L 717.761338 130.8736 
L 719.642608 130.8736 
L 719.642608 134.6192 
L 721.734921 134.6192 
L 721.734921 138.3648 
L 722.83148 138.3648 
L 722.83148 142.1104 
L 723.08383 142.1104 
L 723.177889 149.6016 
L 724.056041 149.6016 
L 724.056041 153.3472 
L 726.089904 153.3472 
L 726.089904 157.0928 
L 726.696853 157.0928 
L 726.696853 160.8384 
L 727.810221 160.8384 
L 727.810221 164.584 
L 728.520782 164.584 
L 728.520782 168.3296 
L 728.662023 168.3296 
L 728.662023 172.0752 
L 730.67651 172.0752 
L 730.67651 175.8208 
L 731.582981 175.8208 
L 731.582981 179.5664 
L 732.548647 179.5664 
L 732.548647 183.312 
L 734.230591 183.312 
L 734.230591 187.0576 
L 734.54202 187.0576 
L 734.54202 190.8032 
L 734.936104 190.8032 
L 734.936104 194.5488 
L 735.239992 194.5488 
L 735.239992 198.2944 
L 736.636229 198.2944 
L 736.636229 202.04 
L 736.797599 202.04 
L 736.797599 205.7856 
L 737.333992 205.7856 
L 737.333992 209.5312 
L 741.798293 209.5312 
L 741.798293 213.2768 
L 742.614046 213.2768 
L 742.614046 217.0224 
L 743.472382 217.0224 
L 743.472382 220.768 
L 744.179173 220.768 
L 744.179173 224.5136 
L 753.361665 224.5136 
L 753.361665 228.2592 
L 753.952727 228.2592 
L 753.952727 232.0048 
L 754.245891 232.0048 
L 754.245891 235.7504 
L 754.97721 235.7504 
L 755.060408 243.2416 
L 755.343812 243.2416 
L 755.358663 250.7328 
L 755.969142 250.7328 
L 756.012207 258.224 
L 757.415922 258.224 
L 757.415922 261.9696 
L 757.976298 261.9696 
L 757.976298 265.7152 
L 760.074948 265.7152 
L 760.074948 269.4608 
L 760.41522 269.4608 
L 760.41522 273.2064 
L 761.34911 273.2064 
L 761.34911 276.952 
L 762.268484 276.952 
L 762.268484 280.6976 
L 763.459552 280.6976 
L 763.459552 284.4432 
L 764.438602 284.4432 
L 764.438602 288.1888 
L 766.366183 288.1888 
L 766.366183 291.9344 
L 767.119893 291.9344 
L 767.13443 299.4256 
L 768.109542 299.4256 
L 768.109542 303.1712 
L 769.426393 303.1712 
L 769.426393 306.9168 
L 770.106456 306.9168 
L 770.106456 310.6624 
L 771.927944 310.6624 
L 771.927944 314.408 
L 773.17098 314.408 
L 773.17098 318.1536 
L 774.232914 318.1536 
L 774.232914 321.8992 
L 775.137061 321.8992 
L 775.137061 325.6448 
L 776.393167 325.6448 
L 776.393167 329.3904 
L 778.071446 329.3904 
L 778.071446 333.136 
L 780.262594 333.136 
L 780.262594 336.8816 
L 783.092143 336.8816 
L 783.092143 340.6272 
L 783.207892 340.6272 
L 783.207892 344.3728 
L 785.052819 344.3728 
L 785.052819 348.1184 
L 787.267595 348.1184 
L 787.267595 351.864 
L 792.331966 351.864 
L 792.331966 355.6096 
L 793.938084 355.6096 
L 793.938084 359.3552 
L 797.533262 359.3552 
L 797.533262 363.1008 
L 801.164529 363.1008 
L 801.244691 370.592 
L 804.878891 370.592 
L 804.878891 374.3376 
L 808.751418 374.3376 
L 808.751418 378.0832 
L 810.667123 378.0832 
L 810.667123 381.8288 
L 816.128656 381.8288 
L 816.128656 385.5744 
L 835.062039 385.5744 
L 835.062039 389.32 
L 835.062039 389.32 
" clip-path="url(#p00e6d57c10)" style="fill: none; stroke: #ffa500; stroke-width: 1.5; stroke-linecap: square"/>
   </g>
   <g id="line2d_34">
    <path d="M 547.824274 14.76 
L 547.824274 18.5056 
L 548.606473 18.5056 
L 548.606473 22.2512 
L 564.93195 22.2512 
L 564.93195 25.9968 
L 575.966075 25.9968 
L 575.966075 29.7424 
L 586.827155 29.7424 
L 586.827155 33.488 
L 592.499837 33.488 
L 592.499837 37.2336 
L 594.654413 37.2336 
L 594.654413 40.9792 
L 600.577403 40.9792 
L 600.577403 44.7248 
L 610.215844 44.7248 
L 610.215844 48.4704 
L 611.708224 48.4704 
L 611.708224 52.216 
L 616.557047 52.216 
L 616.557047 55.9616 
L 619.337152 55.9616 
L 619.337152 59.7072 
L 639.559355 59.7072 
L 639.559355 63.4528 
L 640.10611 63.4528 
L 640.10611 67.1984 
L 642.565528 67.1984 
L 642.565528 70.944 
L 644.649641 70.944 
L 644.649641 74.6896 
L 648.270456 74.6896 
L 648.270456 78.4352 
L 649.901082 78.4352 
L 649.901082 82.1808 
L 653.572085 82.1808 
L 653.572085 85.9264 
L 653.751951 85.9264 
L 653.751951 89.672 
L 655.4641 89.672 
L 655.4641 93.4176 
L 657.35978 93.4176 
L 657.35978 97.1632 
L 658.279238 97.1632 
L 658.308227 104.6544 
L 659.801069 104.6544 
L 659.801069 108.4 
L 661.05928 108.4 
L 661.05928 112.1456 
L 662.223401 112.1456 
L 662.223401 115.8912 
L 664.761189 115.8912 
L 664.761189 119.6368 
L 665.81994 119.6368 
L 665.921655 127.128 
L 670.370016 127.128 
L 670.370016 130.8736 
L 670.551223 130.8736 
L 670.551223 134.6192 
L 670.711252 134.6192 
L 670.711252 138.3648 
L 670.863374 138.3648 
L 670.863374 142.1104 
L 671.173955 142.1104 
L 671.173955 145.856 
L 671.533603 145.856 
L 671.533603 149.6016 
L 672.487622 149.6016 
L 672.487622 153.3472 
L 673.909728 153.3472 
L 673.909728 157.0928 
L 675.352298 157.0928 
L 675.352298 160.8384 
L 675.67198 160.8384 
L 675.67198 164.584 
L 677.473067 164.584 
L 677.473067 168.3296 
L 681.736357 168.3296 
L 681.736357 172.0752 
L 684.468077 172.0752 
L 684.468077 175.8208 
L 687.57353 175.8208 
L 687.57353 179.5664 
L 687.780804 179.5664 
L 687.780804 183.312 
L 688.727523 183.312 
L 688.727523 187.0576 
L 689.076771 187.0576 
L 689.076771 190.8032 
L 689.281217 190.8032 
L 689.281217 194.5488 
L 689.554189 194.5488 
L 689.554189 198.2944 
L 692.293753 198.2944 
L 692.293753 202.04 
L 692.650751 202.04 
L 692.650751 205.7856 
L 695.724963 205.7856 
L 695.724963 209.5312 
L 697.391931 209.5312 
L 697.391931 213.2768 
L 698.061835 213.2768 
L 698.061835 217.0224 
L 700.032607 217.0224 
L 700.032607 220.768 
L 702.034935 220.768 
L 702.034935 224.5136 
L 703.800413 224.5136 
L 703.800413 228.2592 
L 704.313922 228.2592 
L 704.313922 232.0048 
L 705.471047 232.0048 
L 705.471047 235.7504 
L 705.960572 235.7504 
L 705.960572 239.496 
L 706.426218 239.496 
L 706.426218 243.2416 
L 707.176597 243.2416 
L 707.212845 250.7328 
L 708.734613 250.7328 
L 708.734613 254.4784 
L 710.498059 254.4784 
L 710.498059 258.224 
L 711.258598 258.224 
L 711.269343 265.7152 
L 711.407714 265.7152 
L 711.407714 269.4608 
L 712.857563 269.4608 
L 712.857563 273.2064 
L 713.286868 273.2064 
L 713.286868 276.952 
L 713.567799 276.952 
L 713.567799 280.6976 
L 716.589876 280.6976 
L 716.589876 284.4432 
L 719.749643 284.4432 
L 719.749643 288.1888 
L 720.358509 288.1888 
L 720.358509 291.9344 
L 722.918888 291.9344 
L 722.918888 295.68 
L 724.203084 295.68 
L 724.203084 299.4256 
L 726.636664 299.4256 
L 726.636664 303.1712 
L 727.759678 303.1712 
L 727.759678 306.9168 
L 728.620717 306.9168 
L 728.667657 314.408 
L 728.866406 314.408 
L 728.866406 318.1536 
L 729.215738 318.1536 
L 729.249713 325.6448 
L 732.914264 325.6448 
L 732.914264 329.3904 
L 733.651028 329.3904 
L 733.651028 333.136 
L 734.238593 333.136 
L 734.238593 336.8816 
L 735.227592 336.8816 
L 735.227592 340.6272 
L 735.370362 340.6272 
L 735.370362 344.3728 
L 738.217883 344.3728 
L 738.217883 348.1184 
L 740.393845 348.1184 
L 740.393845 351.864 
L 742.313781 351.864 
L 742.313781 355.6096 
L 745.954265 355.6096 
L 745.954265 359.3552 
L 755.362496 359.3552 
L 755.362496 363.1008 
L 771.053227 363.1008 
L 771.053227 366.8464 
L 775.994706 366.8464 
L 775.994706 370.592 
L 779.109669 370.592 
L 779.109669 374.3376 
L 790.677964 374.3376 
L 790.677964 378.0832 
L 797.898188 378.0832 
L 797.898188 381.8288 
L 808.173762 381.8288 
L 808.173762 385.5744 
L 817.937137 385.5744 
L 817.937137 389.32 
L 817.937137 389.32 
" clip-path="url(#p00e6d57c10)" style="fill: none; stroke: #0000ff; stroke-width: 1.5; stroke-linecap: square"/>
   </g>
   <g id="line2d_35">
    <path d="M 578.924589 389.32 
L 578.924589 14.76 
" clip-path="url(#p00e6d57c10)" style="fill: none; stroke-dasharray: 11.1,4.8; stroke-dashoffset: 0; stroke: #ffa500; stroke-width: 3"/>
   </g>
   <g id="patch_89">
    <path d="M 478.325 389.32 
L 478.325 14.76 
" style="fill: none; stroke: #000000; stroke-width: 0.8; stroke-linejoin: miter; stroke-linecap: square"/>
   </g>
   <g id="patch_90">
    <path d="M 478.325 389.32 
L 853.2 389.32 
" style="fill: none; stroke: #000000; stroke-width: 0.8; stroke-linejoin: miter; stroke-linecap: square"/>
   </g>
   <g id="legend_2">
    <g id="patch_91">
     <path d="M 485.325 384.32 
L 690.595312 384.32 
Q 692.595312 384.32 692.595312 382.32 
L 692.595312 339.285625 
Q 692.595312 337.285625 690.595312 337.285625 
L 485.325 337.285625 
Q 483.325 337.285625 483.325 339.285625 
L 483.325 382.32 
Q 483.325 384.32 485.325 384.32 
z
" style="fill: #ffffff; opacity: 0.8; stroke: #000000; stroke-linejoin: miter"/>
    </g>
    <g id="patch_92">
     <path d="M 487.325 348.884063 
L 507.325 348.884063 
L 507.325 341.884063 
L 487.325 341.884063 
z
" style="fill: #ff0000; opacity: 0.8; stroke: #ff0000; stroke-linejoin: miter"/>
    </g>
    <g id="text_38">
     <!-- Less than WT Log Fluorescence -->
     <g transform="translate(515.325 348.884063) scale(0.1 -0.1)">
      <defs>
       <path id="DejaVuSans-4c" d="M 628 4666 
L 1259 4666 
L 1259 531 
L 3531 531 
L 3531 0 
L 628 0 
L 628 4666 
z
" transform="scale(0.015625)"/>
       <path id="DejaVuSans-68" d="M 3513 2113 
L 3513 0 
L 2938 0 
L 2938 2094 
Q 2938 2591 2744 2837 
Q 2550 3084 2163 3084 
Q 1697 3084 1428 2787 
Q 1159 2491 1159 1978 
L 1159 0 
L 581 0 
L 581 4863 
L 1159 4863 
L 1159 2956 
Q 1366 3272 1645 3428 
Q 1925 3584 2291 3584 
Q 2894 3584 3203 3211 
Q 3513 2838 3513 2113 
z
" transform="scale(0.015625)"/>
       <path id="DejaVuSans-57" d="M 213 4666 
L 850 4666 
L 1831 722 
L 2809 4666 
L 3519 4666 
L 4500 722 
L 5478 4666 
L 6119 4666 
L 4947 0 
L 4153 0 
L 3169 4050 
L 2175 0 
L 1381 0 
L 213 4666 
z
" transform="scale(0.015625)"/>
      </defs>
      <use xlink:href="#DejaVuSans-4c"/>
      <use xlink:href="#DejaVuSans-65" x="53.962891"/>
      <use xlink:href="#DejaVuSans-73" x="115.486328"/>
      <use xlink:href="#DejaVuSans-73" x="167.585938"/>
      <use xlink:href="#DejaVuSans-20" x="219.685547"/>
      <use xlink:href="#DejaVuSans-74" x="251.472656"/>
      <use xlink:href="#DejaVuSans-68" x="290.681641"/>
      <use xlink:href="#DejaVuSans-61" x="354.060547"/>
      <use xlink:href="#DejaVuSans-6e" x="415.339844"/>
      <use xlink:href="#DejaVuSans-20" x="478.71875"/>
      <use xlink:href="#DejaVuSans-57" x="510.505859"/>
      <use xlink:href="#DejaVuSans-54" x="609.382812"/>
      <use xlink:href="#DejaVuSans-20" x="670.466797"/>
      <use xlink:href="#DejaVuSans-4c" x="702.253906"/>
      <use xlink:href="#DejaVuSans-6f" x="756.216797"/>
      <use xlink:href="#DejaVuSans-67" x="817.398438"/>
      <use xlink:href="#DejaVuSans-20" x="880.875"/>
      <use xlink:href="#DejaVuSans-46" x="912.662109"/>
      <use xlink:href="#DejaVuSans-6c" x="970.181641"/>
      <use xlink:href="#DejaVuSans-75" x="997.964844"/>
      <use xlink:href="#DejaVuSans-6f" x="1061.34375"/>
      <use xlink:href="#DejaVuSans-72" x="1122.525391"/>
      <use xlink:href="#DejaVuSans-65" x="1161.388672"/>
      <use xlink:href="#DejaVuSans-73" x="1222.912109"/>
      <use xlink:href="#DejaVuSans-63" x="1275.011719"/>
      <use xlink:href="#DejaVuSans-65" x="1329.992188"/>
      <use xlink:href="#DejaVuSans-6e" x="1391.515625"/>
      <use xlink:href="#DejaVuSans-63" x="1454.894531"/>
      <use xlink:href="#DejaVuSans-65" x="1509.875"/>
     </g>
    </g>
    <g id="patch_93">
     <path d="M 487.325 363.562187 
L 507.325 363.562187 
L 507.325 356.562187 
L 487.325 356.562187 
z
" style="fill: #ffa500; opacity: 0.8; stroke: #ffa500; stroke-linejoin: miter"/>
    </g>
    <g id="text_39">
     <!-- Mean WT Log Fluorescence -->
     <g transform="translate(515.325 363.562187) scale(0.1 -0.1)">
      <use xlink:href="#DejaVuSans-4d"/>
      <use xlink:href="#DejaVuSans-65" x="86.279297"/>
      <use xlink:href="#DejaVuSans-61" x="147.802734"/>
      <use xlink:href="#DejaVuSans-6e" x="209.082031"/>
      <use xlink:href="#DejaVuSans-20" x="272.460938"/>
      <use xlink:href="#DejaVuSans-57" x="304.248047"/>
      <use xlink:href="#DejaVuSans-54" x="403.125"/>
      <use xlink:href="#DejaVuSans-20" x="464.208984"/>
      <use xlink:href="#DejaVuSans-4c" x="495.996094"/>
      <use xlink:href="#DejaVuSans-6f" x="549.958984"/>
      <use xlink:href="#DejaVuSans-67" x="611.140625"/>
      <use xlink:href="#DejaVuSans-20" x="674.617188"/>
      <use xlink:href="#DejaVuSans-46" x="706.404297"/>
      <use xlink:href="#DejaVuSans-6c" x="763.923828"/>
      <use xlink:href="#DejaVuSans-75" x="791.707031"/>
      <use xlink:href="#DejaVuSans-6f" x="855.085938"/>
      <use xlink:href="#DejaVuSans-72" x="916.267578"/>
      <use xlink:href="#DejaVuSans-65" x="955.130859"/>
      <use xlink:href="#DejaVuSans-73" x="1016.654297"/>
      <use xlink:href="#DejaVuSans-63" x="1068.753906"/>
      <use xlink:href="#DejaVuSans-65" x="1123.734375"/>
      <use xlink:href="#DejaVuSans-6e" x="1185.257812"/>
      <use xlink:href="#DejaVuSans-63" x="1248.636719"/>
      <use xlink:href="#DejaVuSans-65" x="1303.617188"/>
     </g>
    </g>
    <g id="patch_94">
     <path d="M 487.325 378.240313 
L 507.325 378.240313 
L 507.325 371.240313 
L 487.325 371.240313 
z
" style="fill: #008000; opacity: 0.8; stroke: #008000; stroke-linejoin: miter"/>
    </g>
    <g id="text_40">
     <!-- Greater than WT Log Fluorescence -->
     <g transform="translate(515.325 378.240313) scale(0.1 -0.1)">
      <defs>
       <path id="DejaVuSans-47" d="M 3809 666 
L 3809 1919 
L 2778 1919 
L 2778 2438 
L 4434 2438 
L 4434 434 
Q 4069 175 3628 42 
Q 3188 -91 2688 -91 
Q 1594 -91 976 548 
Q 359 1188 359 2328 
Q 359 3472 976 4111 
Q 1594 4750 2688 4750 
Q 3144 4750 3555 4637 
Q 3966 4525 4313 4306 
L 4313 3634 
Q 3963 3931 3569 4081 
Q 3175 4231 2741 4231 
Q 1884 4231 1454 3753 
Q 1025 3275 1025 2328 
Q 1025 1384 1454 906 
Q 1884 428 2741 428 
Q 3075 428 3337 486 
Q 3600 544 3809 666 
z
" transform="scale(0.015625)"/>
      </defs>
      <use xlink:href="#DejaVuSans-47"/>
      <use xlink:href="#DejaVuSans-72" x="77.490234"/>
      <use xlink:href="#DejaVuSans-65" x="116.353516"/>
      <use xlink:href="#DejaVuSans-61" x="177.876953"/>
      <use xlink:href="#DejaVuSans-74" x="239.15625"/>
      <use xlink:href="#DejaVuSans-65" x="278.365234"/>
      <use xlink:href="#DejaVuSans-72" x="339.888672"/>
      <use xlink:href="#DejaVuSans-20" x="381.001953"/>
      <use xlink:href="#DejaVuSans-74" x="412.789062"/>
      <use xlink:href="#DejaVuSans-68" x="451.998047"/>
      <use xlink:href="#DejaVuSans-61" x="515.376953"/>
      <use xlink:href="#DejaVuSans-6e" x="576.65625"/>
      <use xlink:href="#DejaVuSans-20" x="640.035156"/>
      <use xlink:href="#DejaVuSans-57" x="671.822266"/>
      <use xlink:href="#DejaVuSans-54" x="770.699219"/>
      <use xlink:href="#DejaVuSans-20" x="831.783203"/>
      <use xlink:href="#DejaVuSans-4c" x="863.570312"/>
      <use xlink:href="#DejaVuSans-6f" x="917.533203"/>
      <use xlink:href="#DejaVuSans-67" x="978.714844"/>
      <use xlink:href="#DejaVuSans-20" x="1042.191406"/>
      <use xlink:href="#DejaVuSans-46" x="1073.978516"/>
      <use xlink:href="#DejaVuSans-6c" x="1131.498047"/>
      <use xlink:href="#DejaVuSans-75" x="1159.28125"/>
      <use xlink:href="#DejaVuSans-6f" x="1222.660156"/>
      <use xlink:href="#DejaVuSans-72" x="1283.841797"/>
      <use xlink:href="#DejaVuSans-65" x="1322.705078"/>
      <use xlink:href="#DejaVuSans-73" x="1384.228516"/>
      <use xlink:href="#DejaVuSans-63" x="1436.328125"/>
      <use xlink:href="#DejaVuSans-65" x="1491.308594"/>
      <use xlink:href="#DejaVuSans-6e" x="1552.832031"/>
      <use xlink:href="#DejaVuSans-63" x="1616.210938"/>
      <use xlink:href="#DejaVuSans-65" x="1671.191406"/>
     </g>
    </g>
   </g>
  </g>
 </g>
 <defs>
  <clipPath id="p31121d1f3b">
   <rect x="54.92" y="14.76" width="374.875" height="374.56"/>
  </clipPath>
  <clipPath id="p00e6d57c10">
   <rect x="478.325" y="14.76" width="374.875" height="374.56"/>
  </clipPath>
 </defs>
</svg>
