<?xml version="1.0" encoding="utf-8" standalone="no"?>
<!DOCTYPE svg PUBLIC "-//W3C//DTD SVG 1.1//EN"
  "http://www.w3.org/Graphics/SVG/1.1/DTD/svg11.dtd">
<svg xmlns:xlink="http://www.w3.org/1999/xlink" width="864pt" height="432pt" viewBox="0 0 864 432" xmlns="http://www.w3.org/2000/svg" version="1.1">
 <metadata>
  <rdf:RDF xmlns:dc="http://purl.org/dc/elements/1.1/" xmlns:cc="http://creativecommons.org/ns#" xmlns:rdf="http://www.w3.org/1999/02/22-rdf-syntax-ns#">
   <cc:Work>
    <dc:type rdf:resource="http://purl.org/dc/dcmitype/StillImage"/>
    <dc:date>2025-03-26T12:55:02.743624</dc:date>
    <dc:format>image/svg+xml</dc:format>
    <dc:creator>
     <cc:Agent>
      <dc:title>Matplotlib v3.8.0, https://matplotlib.org/</dc:title>
     </cc:Agent>
    </dc:creator>
   </cc:Work>
  </rdf:RDF>
 </metadata>
 <defs>
  <style type="text/css">*{stroke-linejoin: round; stroke-linecap: butt}</style>
 </defs>
 <g id="figure_1">
  <g id="patch_1">
   <path d="M 0 432 
L 864 432 
L 864 0 
L 0 0 
z
" style="fill: #ffffff"/>
  </g>
  <g id="axes_1">
   <g id="patch_2">
    <path d="M 54.92 389.32 
L 429.795 389.32 
L 429.795 14.76 
L 54.92 14.76 
z
" style="fill: #ffffff"/>
   </g>
   <g id="patch_3">
    <path d="M 71.959773 389.32 
L 71.959773 14.76 
L 239.990437 14.76 
L 239.990437 389.32 
z
" clip-path="url(#pff94f2c8ac)" style="fill: #ff0000; opacity: 0.1; stroke: #ff0000; stroke-linejoin: miter"/>
   </g>
   <g id="patch_4">
    <path d="M 239.990437 389.32 
L 239.990437 14.76 
L 412.755227 14.76 
L 412.755227 389.32 
z
" clip-path="url(#pff94f2c8ac)" style="fill: #008000; opacity: 0.1; stroke: #008000; stroke-linejoin: miter"/>
   </g>
   <g id="patch_5">
    <path d="M 72.929884 389.32 
L 86.484093 389.32 
L 86.484093 301.766356 
L 72.929884 301.766356 
z
" clip-path="url(#pff94f2c8ac)" style="fill: #808080; fill-opacity: 0.4; stroke: #000000; stroke-linejoin: miter"/>
   </g>
   <g id="patch_6">
    <path d="M 86.484093 389.32 
L 100.038302 389.32 
L 100.038302 279.877945 
L 86.484093 279.877945 
z
" clip-path="url(#pff94f2c8ac)" style="fill: #808080; fill-opacity: 0.4; stroke: #000000; stroke-linejoin: miter"/>
   </g>
   <g id="patch_7">
    <path d="M 100.038302 389.32 
L 113.592512 389.32 
L 113.592512 236.101124 
L 100.038302 236.101124 
z
" clip-path="url(#pff94f2c8ac)" style="fill: #808080; fill-opacity: 0.4; stroke: #000000; stroke-linejoin: miter"/>
   </g>
   <g id="patch_8">
    <path d="M 113.592512 389.32 
L 127.146721 389.32 
L 127.146721 82.882247 
L 113.592512 82.882247 
z
" clip-path="url(#pff94f2c8ac)" style="fill: #808080; fill-opacity: 0.4; stroke: #000000; stroke-linejoin: miter"/>
   </g>
   <g id="patch_9">
    <path d="M 127.146721 389.32 
L 140.70093 389.32 
L 140.70093 214.212713 
L 127.146721 214.212713 
z
" clip-path="url(#pff94f2c8ac)" style="fill: #808080; fill-opacity: 0.4; stroke: #000000; stroke-linejoin: miter"/>
   </g>
   <g id="patch_10">
    <path d="M 140.70093 389.32 
L 154.25514 389.32 
L 154.25514 257.989534 
L 140.70093 257.989534 
z
" clip-path="url(#pff94f2c8ac)" style="fill: #808080; fill-opacity: 0.4; stroke: #000000; stroke-linejoin: miter"/>
   </g>
   <g id="patch_11">
    <path d="M 154.25514 389.32 
L 167.809349 389.32 
L 167.809349 257.989534 
L 154.25514 257.989534 
z
" clip-path="url(#pff94f2c8ac)" style="fill: #808080; fill-opacity: 0.4; stroke: #000000; stroke-linejoin: miter"/>
   </g>
   <g id="patch_12">
    <path d="M 167.809349 389.32 
L 181.363558 389.32 
L 181.363558 301.766356 
L 167.809349 301.766356 
z
" clip-path="url(#pff94f2c8ac)" style="fill: #808080; fill-opacity: 0.4; stroke: #000000; stroke-linejoin: miter"/>
   </g>
   <g id="patch_13">
    <path d="M 181.363558 389.32 
L 194.917767 389.32 
L 194.917767 279.877945 
L 181.363558 279.877945 
z
" clip-path="url(#pff94f2c8ac)" style="fill: #808080; fill-opacity: 0.4; stroke: #000000; stroke-linejoin: miter"/>
   </g>
   <g id="patch_14">
    <path d="M 194.917767 389.32 
L 208.471977 389.32 
L 208.471977 214.212713 
L 194.917767 214.212713 
z
" clip-path="url(#pff94f2c8ac)" style="fill: #808080; fill-opacity: 0.4; stroke: #000000; stroke-linejoin: miter"/>
   </g>
   <g id="patch_15">
    <path d="M 208.471977 389.32 
L 222.026186 389.32 
L 222.026186 279.877945 
L 208.471977 279.877945 
z
" clip-path="url(#pff94f2c8ac)" style="fill: #808080; fill-opacity: 0.4; stroke: #000000; stroke-linejoin: miter"/>
   </g>
   <g id="patch_16">
    <path d="M 222.026186 389.32 
L 235.580395 389.32 
L 235.580395 257.989534 
L 222.026186 257.989534 
z
" clip-path="url(#pff94f2c8ac)" style="fill: #808080; fill-opacity: 0.4; stroke: #000000; stroke-linejoin: miter"/>
   </g>
   <g id="patch_17">
    <path d="M 235.580395 389.32 
L 249.134605 389.32 
L 249.134605 323.654767 
L 235.580395 323.654767 
z
" clip-path="url(#pff94f2c8ac)" style="fill: #808080; fill-opacity: 0.4; stroke: #000000; stroke-linejoin: miter"/>
   </g>
   <g id="patch_18">
    <path d="M 249.134605 389.32 
L 262.688814 389.32 
L 262.688814 323.654767 
L 249.134605 323.654767 
z
" clip-path="url(#pff94f2c8ac)" style="fill: #808080; fill-opacity: 0.4; stroke: #000000; stroke-linejoin: miter"/>
   </g>
   <g id="patch_19">
    <path d="M 262.688814 389.32 
L 276.243023 389.32 
L 276.243023 345.543178 
L 262.688814 345.543178 
z
" clip-path="url(#pff94f2c8ac)" style="fill: #808080; fill-opacity: 0.4; stroke: #000000; stroke-linejoin: miter"/>
   </g>
   <g id="patch_20">
    <path d="M 276.243023 389.32 
L 289.797233 389.32 
L 289.797233 323.654767 
L 276.243023 323.654767 
z
" clip-path="url(#pff94f2c8ac)" style="fill: #808080; fill-opacity: 0.4; stroke: #000000; stroke-linejoin: miter"/>
   </g>
   <g id="patch_21">
    <path d="M 289.797233 389.32 
L 303.351442 389.32 
L 303.351442 345.543178 
L 289.797233 345.543178 
z
" clip-path="url(#pff94f2c8ac)" style="fill: #808080; fill-opacity: 0.4; stroke: #000000; stroke-linejoin: miter"/>
   </g>
   <g id="patch_22">
    <path d="M 303.351442 389.32 
L 316.905651 389.32 
L 316.905651 367.431589 
L 303.351442 367.431589 
z
" clip-path="url(#pff94f2c8ac)" style="fill: #808080; fill-opacity: 0.4; stroke: #000000; stroke-linejoin: miter"/>
   </g>
   <g id="patch_23">
    <path d="M 316.905651 389.32 
L 330.45986 389.32 
L 330.45986 367.431589 
L 316.905651 367.431589 
z
" clip-path="url(#pff94f2c8ac)" style="fill: #808080; fill-opacity: 0.4; stroke: #000000; stroke-linejoin: miter"/>
   </g>
   <g id="patch_24">
    <path d="M 330.45986 389.32 
L 344.01407 389.32 
L 344.01407 345.543178 
L 330.45986 345.543178 
z
" clip-path="url(#pff94f2c8ac)" style="fill: #808080; fill-opacity: 0.4; stroke: #000000; stroke-linejoin: miter"/>
   </g>
   <g id="patch_25">
    <path d="M 344.01407 389.32 
L 357.568279 389.32 
L 357.568279 389.32 
L 344.01407 389.32 
z
" clip-path="url(#pff94f2c8ac)" style="fill: #808080; fill-opacity: 0.4; stroke: #000000; stroke-linejoin: miter"/>
   </g>
   <g id="patch_26">
    <path d="M 357.568279 389.32 
L 371.122488 389.32 
L 371.122488 323.654767 
L 357.568279 323.654767 
z
" clip-path="url(#pff94f2c8ac)" style="fill: #808080; fill-opacity: 0.4; stroke: #000000; stroke-linejoin: miter"/>
   </g>
   <g id="patch_27">
    <path d="M 371.122488 389.32 
L 384.676698 389.32 
L 384.676698 389.32 
L 371.122488 389.32 
z
" clip-path="url(#pff94f2c8ac)" style="fill: #808080; fill-opacity: 0.4; stroke: #000000; stroke-linejoin: miter"/>
   </g>
   <g id="patch_28">
    <path d="M 384.676698 389.32 
L 398.230907 389.32 
L 398.230907 367.431589 
L 384.676698 367.431589 
z
" clip-path="url(#pff94f2c8ac)" style="fill: #808080; fill-opacity: 0.4; stroke: #000000; stroke-linejoin: miter"/>
   </g>
   <g id="patch_29">
    <path d="M 398.230907 389.32 
L 411.785116 389.32 
L 411.785116 367.431589 
L 398.230907 367.431589 
z
" clip-path="url(#pff94f2c8ac)" style="fill: #808080; fill-opacity: 0.4; stroke: #000000; stroke-linejoin: miter"/>
   </g>
   <g id="patch_30">
    <path d="M 97.868483 389.32 
L 110.283605 389.32 
L 110.283605 174.249957 
L 97.868483 174.249957 
z
" clip-path="url(#pff94f2c8ac)" style="fill: #ffa500; fill-opacity: 0.6; stroke: #000000; stroke-linejoin: miter"/>
   </g>
   <g id="patch_31">
    <path d="M 110.283605 389.32 
L 122.698728 389.32 
L 122.698728 222.0433 
L 110.283605 222.0433 
z
" clip-path="url(#pff94f2c8ac)" style="fill: #ffa500; fill-opacity: 0.6; stroke: #000000; stroke-linejoin: miter"/>
   </g>
   <g id="patch_32">
    <path d="M 122.698728 389.32 
L 135.11385 389.32 
L 135.11385 150.353285 
L 122.698728 150.353285 
z
" clip-path="url(#pff94f2c8ac)" style="fill: #ffa500; fill-opacity: 0.6; stroke: #000000; stroke-linejoin: miter"/>
   </g>
   <g id="patch_33">
    <path d="M 135.11385 389.32 
L 147.528973 389.32 
L 147.528973 222.0433 
L 135.11385 222.0433 
z
" clip-path="url(#pff94f2c8ac)" style="fill: #ffa500; fill-opacity: 0.6; stroke: #000000; stroke-linejoin: miter"/>
   </g>
   <g id="patch_34">
    <path d="M 147.528973 389.32 
L 159.944095 389.32 
L 159.944095 222.0433 
L 147.528973 222.0433 
z
" clip-path="url(#pff94f2c8ac)" style="fill: #ffa500; fill-opacity: 0.6; stroke: #000000; stroke-linejoin: miter"/>
   </g>
   <g id="patch_35">
    <path d="M 159.944095 389.32 
L 172.359218 389.32 
L 172.359218 293.733314 
L 159.944095 293.733314 
z
" clip-path="url(#pff94f2c8ac)" style="fill: #ffa500; fill-opacity: 0.6; stroke: #000000; stroke-linejoin: miter"/>
   </g>
   <g id="patch_36">
    <path d="M 172.359218 389.32 
L 184.77434 389.32 
L 184.77434 317.629986 
L 172.359218 317.629986 
z
" clip-path="url(#pff94f2c8ac)" style="fill: #ffa500; fill-opacity: 0.6; stroke: #000000; stroke-linejoin: miter"/>
   </g>
   <g id="patch_37">
    <path d="M 184.77434 389.32 
L 197.189462 389.32 
L 197.189462 245.939971 
L 184.77434 245.939971 
z
" clip-path="url(#pff94f2c8ac)" style="fill: #ffa500; fill-opacity: 0.6; stroke: #000000; stroke-linejoin: miter"/>
   </g>
   <g id="patch_38">
    <path d="M 197.189462 389.32 
L 209.604585 389.32 
L 209.604585 174.249957 
L 197.189462 174.249957 
z
" clip-path="url(#pff94f2c8ac)" style="fill: #ffa500; fill-opacity: 0.6; stroke: #000000; stroke-linejoin: miter"/>
   </g>
   <g id="patch_39">
    <path d="M 209.604585 389.32 
L 222.019707 389.32 
L 222.019707 198.146628 
L 209.604585 198.146628 
z
" clip-path="url(#pff94f2c8ac)" style="fill: #ffa500; fill-opacity: 0.6; stroke: #000000; stroke-linejoin: miter"/>
   </g>
   <g id="patch_40">
    <path d="M 222.019707 389.32 
L 234.43483 389.32 
L 234.43483 293.733314 
L 222.019707 293.733314 
z
" clip-path="url(#pff94f2c8ac)" style="fill: #ffa500; fill-opacity: 0.6; stroke: #000000; stroke-linejoin: miter"/>
   </g>
   <g id="patch_41">
    <path d="M 234.43483 389.32 
L 246.849952 389.32 
L 246.849952 365.423329 
L 234.43483 365.423329 
z
" clip-path="url(#pff94f2c8ac)" style="fill: #ffa500; fill-opacity: 0.6; stroke: #000000; stroke-linejoin: miter"/>
   </g>
   <g id="patch_42">
    <path d="M 246.849952 389.32 
L 259.265075 389.32 
L 259.265075 245.939971 
L 246.849952 245.939971 
z
" clip-path="url(#pff94f2c8ac)" style="fill: #ffa500; fill-opacity: 0.6; stroke: #000000; stroke-linejoin: miter"/>
   </g>
   <g id="patch_43">
    <path d="M 259.265075 389.32 
L 271.680197 389.32 
L 271.680197 293.733314 
L 259.265075 293.733314 
z
" clip-path="url(#pff94f2c8ac)" style="fill: #ffa500; fill-opacity: 0.6; stroke: #000000; stroke-linejoin: miter"/>
   </g>
   <g id="patch_44">
    <path d="M 271.680197 389.32 
L 284.095319 389.32 
L 284.095319 341.526657 
L 271.680197 341.526657 
z
" clip-path="url(#pff94f2c8ac)" style="fill: #ffa500; fill-opacity: 0.6; stroke: #000000; stroke-linejoin: miter"/>
   </g>
   <g id="patch_45">
    <path d="M 284.095319 389.32 
L 296.510442 389.32 
L 296.510442 341.526657 
L 284.095319 341.526657 
z
" clip-path="url(#pff94f2c8ac)" style="fill: #ffa500; fill-opacity: 0.6; stroke: #000000; stroke-linejoin: miter"/>
   </g>
   <g id="patch_46">
    <path d="M 296.510442 389.32 
L 308.925564 389.32 
L 308.925564 341.526657 
L 296.510442 341.526657 
z
" clip-path="url(#pff94f2c8ac)" style="fill: #ffa500; fill-opacity: 0.6; stroke: #000000; stroke-linejoin: miter"/>
   </g>
   <g id="patch_47">
    <path d="M 308.925564 389.32 
L 321.340687 389.32 
L 321.340687 341.526657 
L 308.925564 341.526657 
z
" clip-path="url(#pff94f2c8ac)" style="fill: #ffa500; fill-opacity: 0.6; stroke: #000000; stroke-linejoin: miter"/>
   </g>
   <g id="patch_48">
    <path d="M 321.340687 389.32 
L 333.755809 389.32 
L 333.755809 341.526657 
L 321.340687 341.526657 
z
" clip-path="url(#pff94f2c8ac)" style="fill: #ffa500; fill-opacity: 0.6; stroke: #000000; stroke-linejoin: miter"/>
   </g>
   <g id="patch_49">
    <path d="M 333.755809 389.32 
L 346.170932 389.32 
L 346.170932 389.32 
L 333.755809 389.32 
z
" clip-path="url(#pff94f2c8ac)" style="fill: #ffa500; fill-opacity: 0.6; stroke: #000000; stroke-linejoin: miter"/>
   </g>
   <g id="patch_50">
    <path d="M 346.170932 389.32 
L 358.586054 389.32 
L 358.586054 365.423329 
L 346.170932 365.423329 
z
" clip-path="url(#pff94f2c8ac)" style="fill: #ffa500; fill-opacity: 0.6; stroke: #000000; stroke-linejoin: miter"/>
   </g>
   <g id="patch_51">
    <path d="M 358.586054 389.32 
L 371.001177 389.32 
L 371.001177 365.423329 
L 358.586054 365.423329 
z
" clip-path="url(#pff94f2c8ac)" style="fill: #ffa500; fill-opacity: 0.6; stroke: #000000; stroke-linejoin: miter"/>
   </g>
   <g id="patch_52">
    <path d="M 371.001177 389.32 
L 383.416299 389.32 
L 383.416299 365.423329 
L 371.001177 365.423329 
z
" clip-path="url(#pff94f2c8ac)" style="fill: #ffa500; fill-opacity: 0.6; stroke: #000000; stroke-linejoin: miter"/>
   </g>
   <g id="patch_53">
    <path d="M 383.416299 389.32 
L 395.831421 389.32 
L 395.831421 389.32 
L 383.416299 389.32 
z
" clip-path="url(#pff94f2c8ac)" style="fill: #ffa500; fill-opacity: 0.6; stroke: #000000; stroke-linejoin: miter"/>
   </g>
   <g id="patch_54">
    <path d="M 395.831421 389.32 
L 408.246544 389.32 
L 408.246544 341.526657 
L 395.831421 341.526657 
z
" clip-path="url(#pff94f2c8ac)" style="fill: #ffa500; fill-opacity: 0.6; stroke: #000000; stroke-linejoin: miter"/>
   </g>
   <g id="patch_55">
    <path d="M 91.832738 389.32 
L 104.30794 389.32 
L 104.30794 317.975238 
L 91.832738 317.975238 
z
" clip-path="url(#pff94f2c8ac)" style="fill: #0000ff; fill-opacity: 0.6; stroke: #000000; stroke-linejoin: miter"/>
   </g>
   <g id="patch_56">
    <path d="M 104.30794 389.32 
L 116.783142 389.32 
L 116.783142 222.848889 
L 104.30794 222.848889 
z
" clip-path="url(#pff94f2c8ac)" style="fill: #0000ff; fill-opacity: 0.6; stroke: #000000; stroke-linejoin: miter"/>
   </g>
   <g id="patch_57">
    <path d="M 116.783142 389.32 
L 129.258343 389.32 
L 129.258343 32.59619 
L 116.783142 32.59619 
z
" clip-path="url(#pff94f2c8ac)" style="fill: #0000ff; fill-opacity: 0.6; stroke: #000000; stroke-linejoin: miter"/>
   </g>
   <g id="patch_58">
    <path d="M 129.258343 389.32 
L 141.733545 389.32 
L 141.733545 222.848889 
L 129.258343 222.848889 
z
" clip-path="url(#pff94f2c8ac)" style="fill: #0000ff; fill-opacity: 0.6; stroke: #000000; stroke-linejoin: miter"/>
   </g>
   <g id="patch_59">
    <path d="M 141.733545 389.32 
L 154.208747 389.32 
L 154.208747 270.412063 
L 141.733545 270.412063 
z
" clip-path="url(#pff94f2c8ac)" style="fill: #0000ff; fill-opacity: 0.6; stroke: #000000; stroke-linejoin: miter"/>
   </g>
   <g id="patch_60">
    <path d="M 154.208747 389.32 
L 166.683949 389.32 
L 166.683949 246.630476 
L 154.208747 246.630476 
z
" clip-path="url(#pff94f2c8ac)" style="fill: #0000ff; fill-opacity: 0.6; stroke: #000000; stroke-linejoin: miter"/>
   </g>
   <g id="patch_61">
    <path d="M 166.683949 389.32 
L 179.159151 389.32 
L 179.159151 246.630476 
L 166.683949 246.630476 
z
" clip-path="url(#pff94f2c8ac)" style="fill: #0000ff; fill-opacity: 0.6; stroke: #000000; stroke-linejoin: miter"/>
   </g>
   <g id="patch_62">
    <path d="M 179.159151 389.32 
L 191.634353 389.32 
L 191.634353 199.067302 
L 179.159151 199.067302 
z
" clip-path="url(#pff94f2c8ac)" style="fill: #0000ff; fill-opacity: 0.6; stroke: #000000; stroke-linejoin: miter"/>
   </g>
   <g id="patch_63">
    <path d="M 191.634353 389.32 
L 204.109555 389.32 
L 204.109555 294.193651 
L 191.634353 294.193651 
z
" clip-path="url(#pff94f2c8ac)" style="fill: #0000ff; fill-opacity: 0.6; stroke: #000000; stroke-linejoin: miter"/>
   </g>
   <g id="patch_64">
    <path d="M 204.109555 389.32 
L 216.584757 389.32 
L 216.584757 294.193651 
L 204.109555 294.193651 
z
" clip-path="url(#pff94f2c8ac)" style="fill: #0000ff; fill-opacity: 0.6; stroke: #000000; stroke-linejoin: miter"/>
   </g>
   <g id="patch_65">
    <path d="M 216.584757 389.32 
L 229.059958 389.32 
L 229.059958 294.193651 
L 216.584757 294.193651 
z
" clip-path="url(#pff94f2c8ac)" style="fill: #0000ff; fill-opacity: 0.6; stroke: #000000; stroke-linejoin: miter"/>
   </g>
   <g id="patch_66">
    <path d="M 229.059958 389.32 
L 241.53516 389.32 
L 241.53516 222.848889 
L 229.059958 222.848889 
z
" clip-path="url(#pff94f2c8ac)" style="fill: #0000ff; fill-opacity: 0.6; stroke: #000000; stroke-linejoin: miter"/>
   </g>
   <g id="patch_67">
    <path d="M 241.53516 389.32 
L 254.010362 389.32 
L 254.010362 317.975238 
L 241.53516 317.975238 
z
" clip-path="url(#pff94f2c8ac)" style="fill: #0000ff; fill-opacity: 0.6; stroke: #000000; stroke-linejoin: miter"/>
   </g>
   <g id="patch_68">
    <path d="M 254.010362 389.32 
L 266.485564 389.32 
L 266.485564 317.975238 
L 254.010362 317.975238 
z
" clip-path="url(#pff94f2c8ac)" style="fill: #0000ff; fill-opacity: 0.6; stroke: #000000; stroke-linejoin: miter"/>
   </g>
   <g id="patch_69">
    <path d="M 266.485564 389.32 
L 278.960766 389.32 
L 278.960766 317.975238 
L 266.485564 317.975238 
z
" clip-path="url(#pff94f2c8ac)" style="fill: #0000ff; fill-opacity: 0.6; stroke: #000000; stroke-linejoin: miter"/>
   </g>
   <g id="patch_70">
    <path d="M 278.960766 389.32 
L 291.435968 389.32 
L 291.435968 341.756825 
L 278.960766 341.756825 
z
" clip-path="url(#pff94f2c8ac)" style="fill: #0000ff; fill-opacity: 0.6; stroke: #000000; stroke-linejoin: miter"/>
   </g>
   <g id="patch_71">
    <path d="M 291.435968 389.32 
L 303.91117 389.32 
L 303.91117 317.975238 
L 291.435968 317.975238 
z
" clip-path="url(#pff94f2c8ac)" style="fill: #0000ff; fill-opacity: 0.6; stroke: #000000; stroke-linejoin: miter"/>
   </g>
   <g id="patch_72">
    <path d="M 303.91117 389.32 
L 316.386372 389.32 
L 316.386372 389.32 
L 303.91117 389.32 
z
" clip-path="url(#pff94f2c8ac)" style="fill: #0000ff; fill-opacity: 0.6; stroke: #000000; stroke-linejoin: miter"/>
   </g>
   <g id="patch_73">
    <path d="M 316.386372 389.32 
L 328.861573 389.32 
L 328.861573 317.975238 
L 316.386372 317.975238 
z
" clip-path="url(#pff94f2c8ac)" style="fill: #0000ff; fill-opacity: 0.6; stroke: #000000; stroke-linejoin: miter"/>
   </g>
   <g id="patch_74">
    <path d="M 328.861573 389.32 
L 341.336775 389.32 
L 341.336775 294.193651 
L 328.861573 294.193651 
z
" clip-path="url(#pff94f2c8ac)" style="fill: #0000ff; fill-opacity: 0.6; stroke: #000000; stroke-linejoin: miter"/>
   </g>
   <g id="patch_75">
    <path d="M 341.336775 389.32 
L 353.811977 389.32 
L 353.811977 389.32 
L 341.336775 389.32 
z
" clip-path="url(#pff94f2c8ac)" style="fill: #0000ff; fill-opacity: 0.6; stroke: #000000; stroke-linejoin: miter"/>
   </g>
   <g id="patch_76">
    <path d="M 353.811977 389.32 
L 366.287179 389.32 
L 366.287179 365.538413 
L 353.811977 365.538413 
z
" clip-path="url(#pff94f2c8ac)" style="fill: #0000ff; fill-opacity: 0.6; stroke: #000000; stroke-linejoin: miter"/>
   </g>
   <g id="patch_77">
    <path d="M 366.287179 389.32 
L 378.762381 389.32 
L 378.762381 365.538413 
L 366.287179 365.538413 
z
" clip-path="url(#pff94f2c8ac)" style="fill: #0000ff; fill-opacity: 0.6; stroke: #000000; stroke-linejoin: miter"/>
   </g>
   <g id="patch_78">
    <path d="M 378.762381 389.32 
L 391.237583 389.32 
L 391.237583 389.32 
L 378.762381 389.32 
z
" clip-path="url(#pff94f2c8ac)" style="fill: #0000ff; fill-opacity: 0.6; stroke: #000000; stroke-linejoin: miter"/>
   </g>
   <g id="patch_79">
    <path d="M 391.237583 389.32 
L 403.712785 389.32 
L 403.712785 365.538413 
L 391.237583 365.538413 
z
" clip-path="url(#pff94f2c8ac)" style="fill: #0000ff; fill-opacity: 0.6; stroke: #000000; stroke-linejoin: miter"/>
   </g>
   <g id="matplotlib.axis_1">
    <g id="xtick_1">
     <g id="line2d_1">
      <defs>
       <path id="m8987e74e13" d="M 0 0 
L 0 3.5 
" style="stroke: #000000; stroke-width: 0.8"/>
      </defs>
      <g>
       <use xlink:href="#m8987e74e13" x="72.165083" y="389.32" style="stroke: #000000; stroke-width: 0.8"/>
      </g>
     </g>
     <g id="text_1">
      <!-- −7.5 -->
      <g transform="translate(60.023677 403.918437) scale(0.1 -0.1)">
       <defs>
        <path id="DejaVuSans-2212" d="M 678 2272 
L 4684 2272 
L 4684 1741 
L 678 1741 
L 678 2272 
z
" transform="scale(0.015625)"/>
        <path id="DejaVuSans-37" d="M 525 4666 
L 3525 4666 
L 3525 4397 
L 1831 0 
L 1172 0 
L 2766 4134 
L 525 4134 
L 525 4666 
z
" transform="scale(0.015625)"/>
        <path id="DejaVuSans-2e" d="M 684 794 
L 1344 794 
L 1344 0 
L 684 0 
L 684 794 
z
" transform="scale(0.015625)"/>
        <path id="DejaVuSans-35" d="M 691 4666 
L 3169 4666 
L 3169 4134 
L 1269 4134 
L 1269 2991 
Q 1406 3038 1543 3061 
Q 1681 3084 1819 3084 
Q 2600 3084 3056 2656 
Q 3513 2228 3513 1497 
Q 3513 744 3044 326 
Q 2575 -91 1722 -91 
Q 1428 -91 1123 -41 
Q 819 9 494 109 
L 494 744 
Q 775 591 1075 516 
Q 1375 441 1709 441 
Q 2250 441 2565 725 
Q 2881 1009 2881 1497 
Q 2881 1984 2565 2268 
Q 2250 2553 1709 2553 
Q 1456 2553 1204 2497 
Q 953 2441 691 2322 
L 691 4666 
z
" transform="scale(0.015625)"/>
       </defs>
       <use xlink:href="#DejaVuSans-2212"/>
       <use xlink:href="#DejaVuSans-37" x="83.789062"/>
       <use xlink:href="#DejaVuSans-2e" x="147.412109"/>
       <use xlink:href="#DejaVuSans-35" x="179.199219"/>
      </g>
     </g>
    </g>
    <g id="xtick_2">
     <g id="line2d_2">
      <g>
       <use xlink:href="#m8987e74e13" x="120.670642" y="389.32" style="stroke: #000000; stroke-width: 0.8"/>
      </g>
     </g>
     <g id="text_2">
      <!-- −5.0 -->
      <g transform="translate(108.529236 403.918437) scale(0.1 -0.1)">
       <defs>
        <path id="DejaVuSans-30" d="M 2034 4250 
Q 1547 4250 1301 3770 
Q 1056 3291 1056 2328 
Q 1056 1369 1301 889 
Q 1547 409 2034 409 
Q 2525 409 2770 889 
Q 3016 1369 3016 2328 
Q 3016 3291 2770 3770 
Q 2525 4250 2034 4250 
z
M 2034 4750 
Q 2819 4750 3233 4129 
Q 3647 3509 3647 2328 
Q 3647 1150 3233 529 
Q 2819 -91 2034 -91 
Q 1250 -91 836 529 
Q 422 1150 422 2328 
Q 422 3509 836 4129 
Q 1250 4750 2034 4750 
z
" transform="scale(0.015625)"/>
       </defs>
       <use xlink:href="#DejaVuSans-2212"/>
       <use xlink:href="#DejaVuSans-35" x="83.789062"/>
       <use xlink:href="#DejaVuSans-2e" x="147.412109"/>
       <use xlink:href="#DejaVuSans-30" x="179.199219"/>
      </g>
     </g>
    </g>
    <g id="xtick_3">
     <g id="line2d_3">
      <g>
       <use xlink:href="#m8987e74e13" x="169.176201" y="389.32" style="stroke: #000000; stroke-width: 0.8"/>
      </g>
     </g>
     <g id="text_3">
      <!-- −2.5 -->
      <g transform="translate(157.034795 403.918437) scale(0.1 -0.1)">
       <defs>
        <path id="DejaVuSans-32" d="M 1228 531 
L 3431 531 
L 3431 0 
L 469 0 
L 469 531 
Q 828 903 1448 1529 
Q 2069 2156 2228 2338 
Q 2531 2678 2651 2914 
Q 2772 3150 2772 3378 
Q 2772 3750 2511 3984 
Q 2250 4219 1831 4219 
Q 1534 4219 1204 4116 
Q 875 4013 500 3803 
L 500 4441 
Q 881 4594 1212 4672 
Q 1544 4750 1819 4750 
Q 2544 4750 2975 4387 
Q 3406 4025 3406 3419 
Q 3406 3131 3298 2873 
Q 3191 2616 2906 2266 
Q 2828 2175 2409 1742 
Q 1991 1309 1228 531 
z
" transform="scale(0.015625)"/>
       </defs>
       <use xlink:href="#DejaVuSans-2212"/>
       <use xlink:href="#DejaVuSans-32" x="83.789062"/>
       <use xlink:href="#DejaVuSans-2e" x="147.412109"/>
       <use xlink:href="#DejaVuSans-35" x="179.199219"/>
      </g>
     </g>
    </g>
    <g id="xtick_4">
     <g id="line2d_4">
      <g>
       <use xlink:href="#m8987e74e13" x="217.68176" y="389.32" style="stroke: #000000; stroke-width: 0.8"/>
      </g>
     </g>
     <g id="text_4">
      <!-- 0.0 -->
      <g transform="translate(209.730198 403.918437) scale(0.1 -0.1)">
       <use xlink:href="#DejaVuSans-30"/>
       <use xlink:href="#DejaVuSans-2e" x="63.623047"/>
       <use xlink:href="#DejaVuSans-30" x="95.410156"/>
      </g>
     </g>
    </g>
    <g id="xtick_5">
     <g id="line2d_5">
      <g>
       <use xlink:href="#m8987e74e13" x="266.18732" y="389.32" style="stroke: #000000; stroke-width: 0.8"/>
      </g>
     </g>
     <g id="text_5">
      <!-- 2.5 -->
      <g transform="translate(258.235757 403.918437) scale(0.1 -0.1)">
       <use xlink:href="#DejaVuSans-32"/>
       <use xlink:href="#DejaVuSans-2e" x="63.623047"/>
       <use xlink:href="#DejaVuSans-35" x="95.410156"/>
      </g>
     </g>
    </g>
    <g id="xtick_6">
     <g id="line2d_6">
      <g>
       <use xlink:href="#m8987e74e13" x="314.692879" y="389.32" style="stroke: #000000; stroke-width: 0.8"/>
      </g>
     </g>
     <g id="text_6">
      <!-- 5.0 -->
      <g transform="translate(306.741316 403.918437) scale(0.1 -0.1)">
       <use xlink:href="#DejaVuSans-35"/>
       <use xlink:href="#DejaVuSans-2e" x="63.623047"/>
       <use xlink:href="#DejaVuSans-30" x="95.410156"/>
      </g>
     </g>
    </g>
    <g id="xtick_7">
     <g id="line2d_7">
      <g>
       <use xlink:href="#m8987e74e13" x="363.198438" y="389.32" style="stroke: #000000; stroke-width: 0.8"/>
      </g>
     </g>
     <g id="text_7">
      <!-- 7.5 -->
      <g transform="translate(355.246875 403.918437) scale(0.1 -0.1)">
       <use xlink:href="#DejaVuSans-37"/>
       <use xlink:href="#DejaVuSans-2e" x="63.623047"/>
       <use xlink:href="#DejaVuSans-35" x="95.410156"/>
      </g>
     </g>
    </g>
    <g id="xtick_8">
     <g id="line2d_8">
      <g>
       <use xlink:href="#m8987e74e13" x="411.703997" y="389.32" style="stroke: #000000; stroke-width: 0.8"/>
      </g>
     </g>
     <g id="text_8">
      <!-- 10.0 -->
      <g transform="translate(400.571185 403.918437) scale(0.1 -0.1)">
       <defs>
        <path id="DejaVuSans-31" d="M 794 531 
L 1825 531 
L 1825 4091 
L 703 3866 
L 703 4441 
L 1819 4666 
L 2450 4666 
L 2450 531 
L 3481 531 
L 3481 0 
L 794 0 
L 794 531 
z
" transform="scale(0.015625)"/>
       </defs>
       <use xlink:href="#DejaVuSans-31"/>
       <use xlink:href="#DejaVuSans-30" x="63.623047"/>
       <use xlink:href="#DejaVuSans-2e" x="127.246094"/>
       <use xlink:href="#DejaVuSans-30" x="159.033203"/>
      </g>
     </g>
    </g>
    <g id="text_9">
     <!-- Predicted Fluorescence -->
     <g transform="translate(172.76125 419.11625) scale(0.12 -0.12)">
      <defs>
       <path id="DejaVuSans-50" d="M 1259 4147 
L 1259 2394 
L 2053 2394 
Q 2494 2394 2734 2622 
Q 2975 2850 2975 3272 
Q 2975 3691 2734 3919 
Q 2494 4147 2053 4147 
L 1259 4147 
z
M 628 4666 
L 2053 4666 
Q 2838 4666 3239 4311 
Q 3641 3956 3641 3272 
Q 3641 2581 3239 2228 
Q 2838 1875 2053 1875 
L 1259 1875 
L 1259 0 
L 628 0 
L 628 4666 
z
" transform="scale(0.015625)"/>
       <path id="DejaVuSans-72" d="M 2631 2963 
Q 2534 3019 2420 3045 
Q 2306 3072 2169 3072 
Q 1681 3072 1420 2755 
Q 1159 2438 1159 1844 
L 1159 0 
L 581 0 
L 581 3500 
L 1159 3500 
L 1159 2956 
Q 1341 3275 1631 3429 
Q 1922 3584 2338 3584 
Q 2397 3584 2469 3576 
Q 2541 3569 2628 3553 
L 2631 2963 
z
" transform="scale(0.015625)"/>
       <path id="DejaVuSans-65" d="M 3597 1894 
L 3597 1613 
L 953 1613 
Q 991 1019 1311 708 
Q 1631 397 2203 397 
Q 2534 397 2845 478 
Q 3156 559 3463 722 
L 3463 178 
Q 3153 47 2828 -22 
Q 2503 -91 2169 -91 
Q 1331 -91 842 396 
Q 353 884 353 1716 
Q 353 2575 817 3079 
Q 1281 3584 2069 3584 
Q 2775 3584 3186 3129 
Q 3597 2675 3597 1894 
z
M 3022 2063 
Q 3016 2534 2758 2815 
Q 2500 3097 2075 3097 
Q 1594 3097 1305 2825 
Q 1016 2553 972 2059 
L 3022 2063 
z
" transform="scale(0.015625)"/>
       <path id="DejaVuSans-64" d="M 2906 2969 
L 2906 4863 
L 3481 4863 
L 3481 0 
L 2906 0 
L 2906 525 
Q 2725 213 2448 61 
Q 2172 -91 1784 -91 
Q 1150 -91 751 415 
Q 353 922 353 1747 
Q 353 2572 751 3078 
Q 1150 3584 1784 3584 
Q 2172 3584 2448 3432 
Q 2725 3281 2906 2969 
z
M 947 1747 
Q 947 1113 1208 752 
Q 1469 391 1925 391 
Q 2381 391 2643 752 
Q 2906 1113 2906 1747 
Q 2906 2381 2643 2742 
Q 2381 3103 1925 3103 
Q 1469 3103 1208 2742 
Q 947 2381 947 1747 
z
" transform="scale(0.015625)"/>
       <path id="DejaVuSans-69" d="M 603 3500 
L 1178 3500 
L 1178 0 
L 603 0 
L 603 3500 
z
M 603 4863 
L 1178 4863 
L 1178 4134 
L 603 4134 
L 603 4863 
z
" transform="scale(0.015625)"/>
       <path id="DejaVuSans-63" d="M 3122 3366 
L 3122 2828 
Q 2878 2963 2633 3030 
Q 2388 3097 2138 3097 
Q 1578 3097 1268 2742 
Q 959 2388 959 1747 
Q 959 1106 1268 751 
Q 1578 397 2138 397 
Q 2388 397 2633 464 
Q 2878 531 3122 666 
L 3122 134 
Q 2881 22 2623 -34 
Q 2366 -91 2075 -91 
Q 1284 -91 818 406 
Q 353 903 353 1747 
Q 353 2603 823 3093 
Q 1294 3584 2113 3584 
Q 2378 3584 2631 3529 
Q 2884 3475 3122 3366 
z
" transform="scale(0.015625)"/>
       <path id="DejaVuSans-74" d="M 1172 4494 
L 1172 3500 
L 2356 3500 
L 2356 3053 
L 1172 3053 
L 1172 1153 
Q 1172 725 1289 603 
Q 1406 481 1766 481 
L 2356 481 
L 2356 0 
L 1766 0 
Q 1100 0 847 248 
Q 594 497 594 1153 
L 594 3053 
L 172 3053 
L 172 3500 
L 594 3500 
L 594 4494 
L 1172 4494 
z
" transform="scale(0.015625)"/>
       <path id="DejaVuSans-20" transform="scale(0.015625)"/>
       <path id="DejaVuSans-46" d="M 628 4666 
L 3309 4666 
L 3309 4134 
L 1259 4134 
L 1259 2759 
L 3109 2759 
L 3109 2228 
L 1259 2228 
L 1259 0 
L 628 0 
L 628 4666 
z
" transform="scale(0.015625)"/>
       <path id="DejaVuSans-6c" d="M 603 4863 
L 1178 4863 
L 1178 0 
L 603 0 
L 603 4863 
z
" transform="scale(0.015625)"/>
       <path id="DejaVuSans-75" d="M 544 1381 
L 544 3500 
L 1119 3500 
L 1119 1403 
Q 1119 906 1312 657 
Q 1506 409 1894 409 
Q 2359 409 2629 706 
Q 2900 1003 2900 1516 
L 2900 3500 
L 3475 3500 
L 3475 0 
L 2900 0 
L 2900 538 
Q 2691 219 2414 64 
Q 2138 -91 1772 -91 
Q 1169 -91 856 284 
Q 544 659 544 1381 
z
M 1991 3584 
L 1991 3584 
z
" transform="scale(0.015625)"/>
       <path id="DejaVuSans-6f" d="M 1959 3097 
Q 1497 3097 1228 2736 
Q 959 2375 959 1747 
Q 959 1119 1226 758 
Q 1494 397 1959 397 
Q 2419 397 2687 759 
Q 2956 1122 2956 1747 
Q 2956 2369 2687 2733 
Q 2419 3097 1959 3097 
z
M 1959 3584 
Q 2709 3584 3137 3096 
Q 3566 2609 3566 1747 
Q 3566 888 3137 398 
Q 2709 -91 1959 -91 
Q 1206 -91 779 398 
Q 353 888 353 1747 
Q 353 2609 779 3096 
Q 1206 3584 1959 3584 
z
" transform="scale(0.015625)"/>
       <path id="DejaVuSans-73" d="M 2834 3397 
L 2834 2853 
Q 2591 2978 2328 3040 
Q 2066 3103 1784 3103 
Q 1356 3103 1142 2972 
Q 928 2841 928 2578 
Q 928 2378 1081 2264 
Q 1234 2150 1697 2047 
L 1894 2003 
Q 2506 1872 2764 1633 
Q 3022 1394 3022 966 
Q 3022 478 2636 193 
Q 2250 -91 1575 -91 
Q 1294 -91 989 -36 
Q 684 19 347 128 
L 347 722 
Q 666 556 975 473 
Q 1284 391 1588 391 
Q 1994 391 2212 530 
Q 2431 669 2431 922 
Q 2431 1156 2273 1281 
Q 2116 1406 1581 1522 
L 1381 1569 
Q 847 1681 609 1914 
Q 372 2147 372 2553 
Q 372 3047 722 3315 
Q 1072 3584 1716 3584 
Q 2034 3584 2315 3537 
Q 2597 3491 2834 3397 
z
" transform="scale(0.015625)"/>
       <path id="DejaVuSans-6e" d="M 3513 2113 
L 3513 0 
L 2938 0 
L 2938 2094 
Q 2938 2591 2744 2837 
Q 2550 3084 2163 3084 
Q 1697 3084 1428 2787 
Q 1159 2491 1159 1978 
L 1159 0 
L 581 0 
L 581 3500 
L 1159 3500 
L 1159 2956 
Q 1366 3272 1645 3428 
Q 1925 3584 2291 3584 
Q 2894 3584 3203 3211 
Q 3513 2838 3513 2113 
z
" transform="scale(0.015625)"/>
      </defs>
      <use xlink:href="#DejaVuSans-50"/>
      <use xlink:href="#DejaVuSans-72" x="58.552734"/>
      <use xlink:href="#DejaVuSans-65" x="97.416016"/>
      <use xlink:href="#DejaVuSans-64" x="158.939453"/>
      <use xlink:href="#DejaVuSans-69" x="222.416016"/>
      <use xlink:href="#DejaVuSans-63" x="250.199219"/>
      <use xlink:href="#DejaVuSans-74" x="305.179688"/>
      <use xlink:href="#DejaVuSans-65" x="344.388672"/>
      <use xlink:href="#DejaVuSans-64" x="405.912109"/>
      <use xlink:href="#DejaVuSans-20" x="469.388672"/>
      <use xlink:href="#DejaVuSans-46" x="501.175781"/>
      <use xlink:href="#DejaVuSans-6c" x="558.695312"/>
      <use xlink:href="#DejaVuSans-75" x="586.478516"/>
      <use xlink:href="#DejaVuSans-6f" x="649.857422"/>
      <use xlink:href="#DejaVuSans-72" x="711.039062"/>
      <use xlink:href="#DejaVuSans-65" x="749.902344"/>
      <use xlink:href="#DejaVuSans-73" x="811.425781"/>
      <use xlink:href="#DejaVuSans-63" x="863.525391"/>
      <use xlink:href="#DejaVuSans-65" x="918.505859"/>
      <use xlink:href="#DejaVuSans-6e" x="980.029297"/>
      <use xlink:href="#DejaVuSans-63" x="1043.408203"/>
      <use xlink:href="#DejaVuSans-65" x="1098.388672"/>
     </g>
    </g>
   </g>
   <g id="matplotlib.axis_2">
    <g id="ytick_1">
     <g id="line2d_9">
      <defs>
       <path id="m88b47f652f" d="M 0 0 
L -3.5 0 
" style="stroke: #000000; stroke-width: 0.8"/>
      </defs>
      <g>
       <use xlink:href="#m88b47f652f" x="54.92" y="389.32" style="stroke: #000000; stroke-width: 0.8"/>
      </g>
     </g>
     <g id="text_10">
      <!-- 0.00 -->
      <g transform="translate(25.654375 393.119219) scale(0.1 -0.1)">
       <use xlink:href="#DejaVuSans-30"/>
       <use xlink:href="#DejaVuSans-2e" x="63.623047"/>
       <use xlink:href="#DejaVuSans-30" x="95.410156"/>
       <use xlink:href="#DejaVuSans-30" x="159.033203"/>
      </g>
     </g>
    </g>
    <g id="ytick_2">
     <g id="line2d_10">
      <g>
       <use xlink:href="#m88b47f652f" x="54.92" y="312.86482" style="stroke: #000000; stroke-width: 0.8"/>
      </g>
     </g>
     <g id="text_11">
      <!-- 0.05 -->
      <g transform="translate(25.654375 316.664038) scale(0.1 -0.1)">
       <use xlink:href="#DejaVuSans-30"/>
       <use xlink:href="#DejaVuSans-2e" x="63.623047"/>
       <use xlink:href="#DejaVuSans-30" x="95.410156"/>
       <use xlink:href="#DejaVuSans-35" x="159.033203"/>
      </g>
     </g>
    </g>
    <g id="ytick_3">
     <g id="line2d_11">
      <g>
       <use xlink:href="#m88b47f652f" x="54.92" y="236.409639" style="stroke: #000000; stroke-width: 0.8"/>
      </g>
     </g>
     <g id="text_12">
      <!-- 0.10 -->
      <g transform="translate(25.654375 240.208858) scale(0.1 -0.1)">
       <use xlink:href="#DejaVuSans-30"/>
       <use xlink:href="#DejaVuSans-2e" x="63.623047"/>
       <use xlink:href="#DejaVuSans-31" x="95.410156"/>
       <use xlink:href="#DejaVuSans-30" x="159.033203"/>
      </g>
     </g>
    </g>
    <g id="ytick_4">
     <g id="line2d_12">
      <g>
       <use xlink:href="#m88b47f652f" x="54.92" y="159.954459" style="stroke: #000000; stroke-width: 0.8"/>
      </g>
     </g>
     <g id="text_13">
      <!-- 0.15 -->
      <g transform="translate(25.654375 163.753677) scale(0.1 -0.1)">
       <use xlink:href="#DejaVuSans-30"/>
       <use xlink:href="#DejaVuSans-2e" x="63.623047"/>
       <use xlink:href="#DejaVuSans-31" x="95.410156"/>
       <use xlink:href="#DejaVuSans-35" x="159.033203"/>
      </g>
     </g>
    </g>
    <g id="ytick_5">
     <g id="line2d_13">
      <g>
       <use xlink:href="#m88b47f652f" x="54.92" y="83.499278" style="stroke: #000000; stroke-width: 0.8"/>
      </g>
     </g>
     <g id="text_14">
      <!-- 0.20 -->
      <g transform="translate(25.654375 87.298497) scale(0.1 -0.1)">
       <use xlink:href="#DejaVuSans-30"/>
       <use xlink:href="#DejaVuSans-2e" x="63.623047"/>
       <use xlink:href="#DejaVuSans-32" x="95.410156"/>
       <use xlink:href="#DejaVuSans-30" x="159.033203"/>
      </g>
     </g>
    </g>
    <g id="text_15">
     <!-- Probability Density -->
     <g transform="translate(19.15875 258.471875) rotate(-90) scale(0.12 -0.12)">
      <defs>
       <path id="DejaVuSans-62" d="M 3116 1747 
Q 3116 2381 2855 2742 
Q 2594 3103 2138 3103 
Q 1681 3103 1420 2742 
Q 1159 2381 1159 1747 
Q 1159 1113 1420 752 
Q 1681 391 2138 391 
Q 2594 391 2855 752 
Q 3116 1113 3116 1747 
z
M 1159 2969 
Q 1341 3281 1617 3432 
Q 1894 3584 2278 3584 
Q 2916 3584 3314 3078 
Q 3713 2572 3713 1747 
Q 3713 922 3314 415 
Q 2916 -91 2278 -91 
Q 1894 -91 1617 61 
Q 1341 213 1159 525 
L 1159 0 
L 581 0 
L 581 4863 
L 1159 4863 
L 1159 2969 
z
" transform="scale(0.015625)"/>
       <path id="DejaVuSans-61" d="M 2194 1759 
Q 1497 1759 1228 1600 
Q 959 1441 959 1056 
Q 959 750 1161 570 
Q 1363 391 1709 391 
Q 2188 391 2477 730 
Q 2766 1069 2766 1631 
L 2766 1759 
L 2194 1759 
z
M 3341 1997 
L 3341 0 
L 2766 0 
L 2766 531 
Q 2569 213 2275 61 
Q 1981 -91 1556 -91 
Q 1019 -91 701 211 
Q 384 513 384 1019 
Q 384 1609 779 1909 
Q 1175 2209 1959 2209 
L 2766 2209 
L 2766 2266 
Q 2766 2663 2505 2880 
Q 2244 3097 1772 3097 
Q 1472 3097 1187 3025 
Q 903 2953 641 2809 
L 641 3341 
Q 956 3463 1253 3523 
Q 1550 3584 1831 3584 
Q 2591 3584 2966 3190 
Q 3341 2797 3341 1997 
z
" transform="scale(0.015625)"/>
       <path id="DejaVuSans-79" d="M 2059 -325 
Q 1816 -950 1584 -1140 
Q 1353 -1331 966 -1331 
L 506 -1331 
L 506 -850 
L 844 -850 
Q 1081 -850 1212 -737 
Q 1344 -625 1503 -206 
L 1606 56 
L 191 3500 
L 800 3500 
L 1894 763 
L 2988 3500 
L 3597 3500 
L 2059 -325 
z
" transform="scale(0.015625)"/>
       <path id="DejaVuSans-44" d="M 1259 4147 
L 1259 519 
L 2022 519 
Q 2988 519 3436 956 
Q 3884 1394 3884 2338 
Q 3884 3275 3436 3711 
Q 2988 4147 2022 4147 
L 1259 4147 
z
M 628 4666 
L 1925 4666 
Q 3281 4666 3915 4102 
Q 4550 3538 4550 2338 
Q 4550 1131 3912 565 
Q 3275 0 1925 0 
L 628 0 
L 628 4666 
z
" transform="scale(0.015625)"/>
      </defs>
      <use xlink:href="#DejaVuSans-50"/>
      <use xlink:href="#DejaVuSans-72" x="58.552734"/>
      <use xlink:href="#DejaVuSans-6f" x="97.416016"/>
      <use xlink:href="#DejaVuSans-62" x="158.597656"/>
      <use xlink:href="#DejaVuSans-61" x="222.074219"/>
      <use xlink:href="#DejaVuSans-62" x="283.353516"/>
      <use xlink:href="#DejaVuSans-69" x="346.830078"/>
      <use xlink:href="#DejaVuSans-6c" x="374.613281"/>
      <use xlink:href="#DejaVuSans-69" x="402.396484"/>
      <use xlink:href="#DejaVuSans-74" x="430.179688"/>
      <use xlink:href="#DejaVuSans-79" x="469.388672"/>
      <use xlink:href="#DejaVuSans-20" x="528.568359"/>
      <use xlink:href="#DejaVuSans-44" x="560.355469"/>
      <use xlink:href="#DejaVuSans-65" x="637.357422"/>
      <use xlink:href="#DejaVuSans-6e" x="698.880859"/>
      <use xlink:href="#DejaVuSans-73" x="762.259766"/>
      <use xlink:href="#DejaVuSans-69" x="814.359375"/>
      <use xlink:href="#DejaVuSans-74" x="842.142578"/>
      <use xlink:href="#DejaVuSans-79" x="881.351562"/>
     </g>
    </g>
   </g>
   <g id="line2d_14">
    <path d="M 239.990437 389.32 
L 239.990437 14.76 
" clip-path="url(#pff94f2c8ac)" style="fill: none; stroke-dasharray: 11.1,4.8; stroke-dashoffset: 0; stroke: #ffa500; stroke-width: 3"/>
   </g>
   <g id="patch_80">
    <path d="M 54.92 389.32 
L 54.92 14.76 
" style="fill: none; stroke: #000000; stroke-width: 0.8; stroke-linejoin: miter; stroke-linecap: square"/>
   </g>
   <g id="patch_81">
    <path d="M 54.92 389.32 
L 429.795 389.32 
" style="fill: none; stroke: #000000; stroke-width: 0.8; stroke-linejoin: miter; stroke-linecap: square"/>
   </g>
   <g id="legend_1">
    <g id="patch_82">
     <path d="M 304.680938 66.794375 
L 422.795 66.794375 
Q 424.795 66.794375 424.795 64.794375 
L 424.795 21.76 
Q 424.795 19.76 422.795 19.76 
L 304.680938 19.76 
Q 302.680938 19.76 302.680938 21.76 
L 302.680938 64.794375 
Q 302.680938 66.794375 304.680938 66.794375 
z
" style="fill: #ffffff; opacity: 0.8; stroke: #cccccc; stroke-linejoin: miter"/>
    </g>
    <g id="patch_83">
     <path d="M 306.680938 31.358438 
L 326.680938 31.358438 
L 326.680938 24.358438 
L 306.680938 24.358438 
z
" style="fill: #808080; fill-opacity: 0.4; stroke: #000000; stroke-linejoin: miter"/>
    </g>
    <g id="text_16">
     <!-- Pre-trained ESM2 -->
     <g transform="translate(334.680938 31.358438) scale(0.1 -0.1)">
      <defs>
       <path id="DejaVuSans-2d" d="M 313 2009 
L 1997 2009 
L 1997 1497 
L 313 1497 
L 313 2009 
z
" transform="scale(0.015625)"/>
       <path id="DejaVuSans-45" d="M 628 4666 
L 3578 4666 
L 3578 4134 
L 1259 4134 
L 1259 2753 
L 3481 2753 
L 3481 2222 
L 1259 2222 
L 1259 531 
L 3634 531 
L 3634 0 
L 628 0 
L 628 4666 
z
" transform="scale(0.015625)"/>
       <path id="DejaVuSans-53" d="M 3425 4513 
L 3425 3897 
Q 3066 4069 2747 4153 
Q 2428 4238 2131 4238 
Q 1616 4238 1336 4038 
Q 1056 3838 1056 3469 
Q 1056 3159 1242 3001 
Q 1428 2844 1947 2747 
L 2328 2669 
Q 3034 2534 3370 2195 
Q 3706 1856 3706 1288 
Q 3706 609 3251 259 
Q 2797 -91 1919 -91 
Q 1588 -91 1214 -16 
Q 841 59 441 206 
L 441 856 
Q 825 641 1194 531 
Q 1563 422 1919 422 
Q 2459 422 2753 634 
Q 3047 847 3047 1241 
Q 3047 1584 2836 1778 
Q 2625 1972 2144 2069 
L 1759 2144 
Q 1053 2284 737 2584 
Q 422 2884 422 3419 
Q 422 4038 858 4394 
Q 1294 4750 2059 4750 
Q 2388 4750 2728 4690 
Q 3069 4631 3425 4513 
z
" transform="scale(0.015625)"/>
       <path id="DejaVuSans-4d" d="M 628 4666 
L 1569 4666 
L 2759 1491 
L 3956 4666 
L 4897 4666 
L 4897 0 
L 4281 0 
L 4281 4097 
L 3078 897 
L 2444 897 
L 1241 4097 
L 1241 0 
L 628 0 
L 628 4666 
z
" transform="scale(0.015625)"/>
      </defs>
      <use xlink:href="#DejaVuSans-50"/>
      <use xlink:href="#DejaVuSans-72" x="58.552734"/>
      <use xlink:href="#DejaVuSans-65" x="97.416016"/>
      <use xlink:href="#DejaVuSans-2d" x="158.939453"/>
      <use xlink:href="#DejaVuSans-74" x="195.023438"/>
      <use xlink:href="#DejaVuSans-72" x="234.232422"/>
      <use xlink:href="#DejaVuSans-61" x="275.345703"/>
      <use xlink:href="#DejaVuSans-69" x="336.625"/>
      <use xlink:href="#DejaVuSans-6e" x="364.408203"/>
      <use xlink:href="#DejaVuSans-65" x="427.787109"/>
      <use xlink:href="#DejaVuSans-64" x="489.310547"/>
      <use xlink:href="#DejaVuSans-20" x="552.787109"/>
      <use xlink:href="#DejaVuSans-45" x="584.574219"/>
      <use xlink:href="#DejaVuSans-53" x="647.757812"/>
      <use xlink:href="#DejaVuSans-4d" x="711.234375"/>
      <use xlink:href="#DejaVuSans-32" x="797.513672"/>
     </g>
    </g>
    <g id="patch_84">
     <path d="M 306.680938 46.036563 
L 326.680938 46.036563 
L 326.680938 39.036563 
L 306.680938 39.036563 
z
" style="fill: #ffa500; fill-opacity: 0.6; stroke: #000000; stroke-linejoin: miter"/>
    </g>
    <g id="text_17">
     <!-- SFT ESM2 -->
     <g transform="translate(334.680938 46.036563) scale(0.1 -0.1)">
      <defs>
       <path id="DejaVuSans-54" d="M -19 4666 
L 3928 4666 
L 3928 4134 
L 2272 4134 
L 2272 0 
L 1638 0 
L 1638 4134 
L -19 4134 
L -19 4666 
z
" transform="scale(0.015625)"/>
      </defs>
      <use xlink:href="#DejaVuSans-53"/>
      <use xlink:href="#DejaVuSans-46" x="63.476562"/>
      <use xlink:href="#DejaVuSans-54" x="119.246094"/>
      <use xlink:href="#DejaVuSans-20" x="180.330078"/>
      <use xlink:href="#DejaVuSans-45" x="212.117188"/>
      <use xlink:href="#DejaVuSans-53" x="275.300781"/>
      <use xlink:href="#DejaVuSans-4d" x="338.777344"/>
      <use xlink:href="#DejaVuSans-32" x="425.056641"/>
     </g>
    </g>
    <g id="patch_85">
     <path d="M 306.680938 60.714688 
L 326.680938 60.714688 
L 326.680938 53.714688 
L 306.680938 53.714688 
z
" style="fill: #0000ff; fill-opacity: 0.6; stroke: #000000; stroke-linejoin: miter"/>
    </g>
    <g id="text_18">
     <!-- Aligned ESM2 -->
     <g transform="translate(334.680938 60.714688) scale(0.1 -0.1)">
      <defs>
       <path id="DejaVuSans-41" d="M 2188 4044 
L 1331 1722 
L 3047 1722 
L 2188 4044 
z
M 1831 4666 
L 2547 4666 
L 4325 0 
L 3669 0 
L 3244 1197 
L 1141 1197 
L 716 0 
L 50 0 
L 1831 4666 
z
" transform="scale(0.015625)"/>
       <path id="DejaVuSans-67" d="M 2906 1791 
Q 2906 2416 2648 2759 
Q 2391 3103 1925 3103 
Q 1463 3103 1205 2759 
Q 947 2416 947 1791 
Q 947 1169 1205 825 
Q 1463 481 1925 481 
Q 2391 481 2648 825 
Q 2906 1169 2906 1791 
z
M 3481 434 
Q 3481 -459 3084 -895 
Q 2688 -1331 1869 -1331 
Q 1566 -1331 1297 -1286 
Q 1028 -1241 775 -1147 
L 775 -588 
Q 1028 -725 1275 -790 
Q 1522 -856 1778 -856 
Q 2344 -856 2625 -561 
Q 2906 -266 2906 331 
L 2906 616 
Q 2728 306 2450 153 
Q 2172 0 1784 0 
Q 1141 0 747 490 
Q 353 981 353 1791 
Q 353 2603 747 3093 
Q 1141 3584 1784 3584 
Q 2172 3584 2450 3431 
Q 2728 3278 2906 2969 
L 2906 3500 
L 3481 3500 
L 3481 434 
z
" transform="scale(0.015625)"/>
      </defs>
      <use xlink:href="#DejaVuSans-41"/>
      <use xlink:href="#DejaVuSans-6c" x="68.408203"/>
      <use xlink:href="#DejaVuSans-69" x="96.191406"/>
      <use xlink:href="#DejaVuSans-67" x="123.974609"/>
      <use xlink:href="#DejaVuSans-6e" x="187.451172"/>
      <use xlink:href="#DejaVuSans-65" x="250.830078"/>
      <use xlink:href="#DejaVuSans-64" x="312.353516"/>
      <use xlink:href="#DejaVuSans-20" x="375.830078"/>
      <use xlink:href="#DejaVuSans-45" x="407.617188"/>
      <use xlink:href="#DejaVuSans-53" x="470.800781"/>
      <use xlink:href="#DejaVuSans-4d" x="534.277344"/>
      <use xlink:href="#DejaVuSans-32" x="620.556641"/>
     </g>
    </g>
   </g>
  </g>
  <g id="axes_2">
   <g id="patch_86">
    <path d="M 478.325 389.32 
L 853.2 389.32 
L 853.2 14.76 
L 478.325 14.76 
z
" style="fill: #ffffff"/>
   </g>
   <g id="patch_87">
    <path d="M 495.364773 389.32 
L 495.364773 14.76 
L 663.395437 14.76 
L 663.395437 389.32 
z
" clip-path="url(#pa94960ee11)" style="fill: #ff0000; opacity: 0.1; stroke: #ff0000; stroke-linejoin: miter"/>
   </g>
   <g id="patch_88">
    <path d="M 663.395437 389.32 
L 663.395437 14.76 
L 836.160227 14.76 
L 836.160227 389.32 
z
" clip-path="url(#pa94960ee11)" style="fill: #008000; opacity: 0.1; stroke: #008000; stroke-linejoin: miter"/>
   </g>
   <g id="matplotlib.axis_3">
    <g id="xtick_9">
     <g id="line2d_15">
      <g>
       <use xlink:href="#m8987e74e13" x="495.570083" y="389.32" style="stroke: #000000; stroke-width: 0.8"/>
      </g>
     </g>
     <g id="text_19">
      <!-- −7.5 -->
      <g transform="translate(483.428677 403.918437) scale(0.1 -0.1)">
       <use xlink:href="#DejaVuSans-2212"/>
       <use xlink:href="#DejaVuSans-37" x="83.789062"/>
       <use xlink:href="#DejaVuSans-2e" x="147.412109"/>
       <use xlink:href="#DejaVuSans-35" x="179.199219"/>
      </g>
     </g>
    </g>
    <g id="xtick_10">
     <g id="line2d_16">
      <g>
       <use xlink:href="#m8987e74e13" x="544.075642" y="389.32" style="stroke: #000000; stroke-width: 0.8"/>
      </g>
     </g>
     <g id="text_20">
      <!-- −5.0 -->
      <g transform="translate(531.934236 403.918437) scale(0.1 -0.1)">
       <use xlink:href="#DejaVuSans-2212"/>
       <use xlink:href="#DejaVuSans-35" x="83.789062"/>
       <use xlink:href="#DejaVuSans-2e" x="147.412109"/>
       <use xlink:href="#DejaVuSans-30" x="179.199219"/>
      </g>
     </g>
    </g>
    <g id="xtick_11">
     <g id="line2d_17">
      <g>
       <use xlink:href="#m8987e74e13" x="592.581201" y="389.32" style="stroke: #000000; stroke-width: 0.8"/>
      </g>
     </g>
     <g id="text_21">
      <!-- −2.5 -->
      <g transform="translate(580.439795 403.918437) scale(0.1 -0.1)">
       <use xlink:href="#DejaVuSans-2212"/>
       <use xlink:href="#DejaVuSans-32" x="83.789062"/>
       <use xlink:href="#DejaVuSans-2e" x="147.412109"/>
       <use xlink:href="#DejaVuSans-35" x="179.199219"/>
      </g>
     </g>
    </g>
    <g id="xtick_12">
     <g id="line2d_18">
      <g>
       <use xlink:href="#m8987e74e13" x="641.08676" y="389.32" style="stroke: #000000; stroke-width: 0.8"/>
      </g>
     </g>
     <g id="text_22">
      <!-- 0.0 -->
      <g transform="translate(633.135198 403.918437) scale(0.1 -0.1)">
       <use xlink:href="#DejaVuSans-30"/>
       <use xlink:href="#DejaVuSans-2e" x="63.623047"/>
       <use xlink:href="#DejaVuSans-30" x="95.410156"/>
      </g>
     </g>
    </g>
    <g id="xtick_13">
     <g id="line2d_19">
      <g>
       <use xlink:href="#m8987e74e13" x="689.59232" y="389.32" style="stroke: #000000; stroke-width: 0.8"/>
      </g>
     </g>
     <g id="text_23">
      <!-- 2.5 -->
      <g transform="translate(681.640757 403.918437) scale(0.1 -0.1)">
       <use xlink:href="#DejaVuSans-32"/>
       <use xlink:href="#DejaVuSans-2e" x="63.623047"/>
       <use xlink:href="#DejaVuSans-35" x="95.410156"/>
      </g>
     </g>
    </g>
    <g id="xtick_14">
     <g id="line2d_20">
      <g>
       <use xlink:href="#m8987e74e13" x="738.097879" y="389.32" style="stroke: #000000; stroke-width: 0.8"/>
      </g>
     </g>
     <g id="text_24">
      <!-- 5.0 -->
      <g transform="translate(730.146316 403.918437) scale(0.1 -0.1)">
       <use xlink:href="#DejaVuSans-35"/>
       <use xlink:href="#DejaVuSans-2e" x="63.623047"/>
       <use xlink:href="#DejaVuSans-30" x="95.410156"/>
      </g>
     </g>
    </g>
    <g id="xtick_15">
     <g id="line2d_21">
      <g>
       <use xlink:href="#m8987e74e13" x="786.603438" y="389.32" style="stroke: #000000; stroke-width: 0.8"/>
      </g>
     </g>
     <g id="text_25">
      <!-- 7.5 -->
      <g transform="translate(778.651875 403.918437) scale(0.1 -0.1)">
       <use xlink:href="#DejaVuSans-37"/>
       <use xlink:href="#DejaVuSans-2e" x="63.623047"/>
       <use xlink:href="#DejaVuSans-35" x="95.410156"/>
      </g>
     </g>
    </g>
    <g id="xtick_16">
     <g id="line2d_22">
      <g>
       <use xlink:href="#m8987e74e13" x="835.108997" y="389.32" style="stroke: #000000; stroke-width: 0.8"/>
      </g>
     </g>
     <g id="text_26">
      <!-- 10.0 -->
      <g transform="translate(823.976185 403.918437) scale(0.1 -0.1)">
       <use xlink:href="#DejaVuSans-31"/>
       <use xlink:href="#DejaVuSans-30" x="63.623047"/>
       <use xlink:href="#DejaVuSans-2e" x="127.246094"/>
       <use xlink:href="#DejaVuSans-30" x="159.033203"/>
      </g>
     </g>
    </g>
    <g id="text_27">
     <!-- Predicted Fluorescence -->
     <g transform="translate(596.16625 419.11625) scale(0.12 -0.12)">
      <use xlink:href="#DejaVuSans-50"/>
      <use xlink:href="#DejaVuSans-72" x="58.552734"/>
      <use xlink:href="#DejaVuSans-65" x="97.416016"/>
      <use xlink:href="#DejaVuSans-64" x="158.939453"/>
      <use xlink:href="#DejaVuSans-69" x="222.416016"/>
      <use xlink:href="#DejaVuSans-63" x="250.199219"/>
      <use xlink:href="#DejaVuSans-74" x="305.179688"/>
      <use xlink:href="#DejaVuSans-65" x="344.388672"/>
      <use xlink:href="#DejaVuSans-64" x="405.912109"/>
      <use xlink:href="#DejaVuSans-20" x="469.388672"/>
      <use xlink:href="#DejaVuSans-46" x="501.175781"/>
      <use xlink:href="#DejaVuSans-6c" x="558.695312"/>
      <use xlink:href="#DejaVuSans-75" x="586.478516"/>
      <use xlink:href="#DejaVuSans-6f" x="649.857422"/>
      <use xlink:href="#DejaVuSans-72" x="711.039062"/>
      <use xlink:href="#DejaVuSans-65" x="749.902344"/>
      <use xlink:href="#DejaVuSans-73" x="811.425781"/>
      <use xlink:href="#DejaVuSans-63" x="863.525391"/>
      <use xlink:href="#DejaVuSans-65" x="918.505859"/>
      <use xlink:href="#DejaVuSans-6e" x="980.029297"/>
      <use xlink:href="#DejaVuSans-63" x="1043.408203"/>
      <use xlink:href="#DejaVuSans-65" x="1098.388672"/>
     </g>
    </g>
   </g>
   <g id="matplotlib.axis_4">
    <g id="ytick_6">
     <g id="line2d_23">
      <g>
       <use xlink:href="#m88b47f652f" x="478.325" y="389.32" style="stroke: #000000; stroke-width: 0.8"/>
      </g>
     </g>
     <g id="text_28">
      <!-- 0.0 -->
      <g transform="translate(455.421875 393.119219) scale(0.1 -0.1)">
       <use xlink:href="#DejaVuSans-30"/>
       <use xlink:href="#DejaVuSans-2e" x="63.623047"/>
       <use xlink:href="#DejaVuSans-30" x="95.410156"/>
      </g>
     </g>
    </g>
    <g id="ytick_7">
     <g id="line2d_24">
      <g>
       <use xlink:href="#m88b47f652f" x="478.325" y="314.408" style="stroke: #000000; stroke-width: 0.8"/>
      </g>
     </g>
     <g id="text_29">
      <!-- 0.2 -->
      <g transform="translate(455.421875 318.207219) scale(0.1 -0.1)">
       <use xlink:href="#DejaVuSans-30"/>
       <use xlink:href="#DejaVuSans-2e" x="63.623047"/>
       <use xlink:href="#DejaVuSans-32" x="95.410156"/>
      </g>
     </g>
    </g>
    <g id="ytick_8">
     <g id="line2d_25">
      <g>
       <use xlink:href="#m88b47f652f" x="478.325" y="239.496" style="stroke: #000000; stroke-width: 0.8"/>
      </g>
     </g>
     <g id="text_30">
      <!-- 0.4 -->
      <g transform="translate(455.421875 243.295219) scale(0.1 -0.1)">
       <defs>
        <path id="DejaVuSans-34" d="M 2419 4116 
L 825 1625 
L 2419 1625 
L 2419 4116 
z
M 2253 4666 
L 3047 4666 
L 3047 1625 
L 3713 1625 
L 3713 1100 
L 3047 1100 
L 3047 0 
L 2419 0 
L 2419 1100 
L 313 1100 
L 313 1709 
L 2253 4666 
z
" transform="scale(0.015625)"/>
       </defs>
       <use xlink:href="#DejaVuSans-30"/>
       <use xlink:href="#DejaVuSans-2e" x="63.623047"/>
       <use xlink:href="#DejaVuSans-34" x="95.410156"/>
      </g>
     </g>
    </g>
    <g id="ytick_9">
     <g id="line2d_26">
      <g>
       <use xlink:href="#m88b47f652f" x="478.325" y="164.584" style="stroke: #000000; stroke-width: 0.8"/>
      </g>
     </g>
     <g id="text_31">
      <!-- 0.6 -->
      <g transform="translate(455.421875 168.383219) scale(0.1 -0.1)">
       <defs>
        <path id="DejaVuSans-36" d="M 2113 2584 
Q 1688 2584 1439 2293 
Q 1191 2003 1191 1497 
Q 1191 994 1439 701 
Q 1688 409 2113 409 
Q 2538 409 2786 701 
Q 3034 994 3034 1497 
Q 3034 2003 2786 2293 
Q 2538 2584 2113 2584 
z
M 3366 4563 
L 3366 3988 
Q 3128 4100 2886 4159 
Q 2644 4219 2406 4219 
Q 1781 4219 1451 3797 
Q 1122 3375 1075 2522 
Q 1259 2794 1537 2939 
Q 1816 3084 2150 3084 
Q 2853 3084 3261 2657 
Q 3669 2231 3669 1497 
Q 3669 778 3244 343 
Q 2819 -91 2113 -91 
Q 1303 -91 875 529 
Q 447 1150 447 2328 
Q 447 3434 972 4092 
Q 1497 4750 2381 4750 
Q 2619 4750 2861 4703 
Q 3103 4656 3366 4563 
z
" transform="scale(0.015625)"/>
       </defs>
       <use xlink:href="#DejaVuSans-30"/>
       <use xlink:href="#DejaVuSans-2e" x="63.623047"/>
       <use xlink:href="#DejaVuSans-36" x="95.410156"/>
      </g>
     </g>
    </g>
    <g id="ytick_10">
     <g id="line2d_27">
      <g>
       <use xlink:href="#m88b47f652f" x="478.325" y="89.672" style="stroke: #000000; stroke-width: 0.8"/>
      </g>
     </g>
     <g id="text_32">
      <!-- 0.8 -->
      <g transform="translate(455.421875 93.471219) scale(0.1 -0.1)">
       <defs>
        <path id="DejaVuSans-38" d="M 2034 2216 
Q 1584 2216 1326 1975 
Q 1069 1734 1069 1313 
Q 1069 891 1326 650 
Q 1584 409 2034 409 
Q 2484 409 2743 651 
Q 3003 894 3003 1313 
Q 3003 1734 2745 1975 
Q 2488 2216 2034 2216 
z
M 1403 2484 
Q 997 2584 770 2862 
Q 544 3141 544 3541 
Q 544 4100 942 4425 
Q 1341 4750 2034 4750 
Q 2731 4750 3128 4425 
Q 3525 4100 3525 3541 
Q 3525 3141 3298 2862 
Q 3072 2584 2669 2484 
Q 3125 2378 3379 2068 
Q 3634 1759 3634 1313 
Q 3634 634 3220 271 
Q 2806 -91 2034 -91 
Q 1263 -91 848 271 
Q 434 634 434 1313 
Q 434 1759 690 2068 
Q 947 2378 1403 2484 
z
M 1172 3481 
Q 1172 3119 1398 2916 
Q 1625 2713 2034 2713 
Q 2441 2713 2670 2916 
Q 2900 3119 2900 3481 
Q 2900 3844 2670 4047 
Q 2441 4250 2034 4250 
Q 1625 4250 1398 4047 
Q 1172 3844 1172 3481 
z
" transform="scale(0.015625)"/>
       </defs>
       <use xlink:href="#DejaVuSans-30"/>
       <use xlink:href="#DejaVuSans-2e" x="63.623047"/>
       <use xlink:href="#DejaVuSans-38" x="95.410156"/>
      </g>
     </g>
    </g>
    <g id="ytick_11">
     <g id="line2d_28">
      <g>
       <use xlink:href="#m88b47f652f" x="478.325" y="14.76" style="stroke: #000000; stroke-width: 0.8"/>
      </g>
     </g>
     <g id="text_33">
      <!-- 1.0 -->
      <g transform="translate(455.421875 18.559219) scale(0.1 -0.1)">
       <use xlink:href="#DejaVuSans-31"/>
       <use xlink:href="#DejaVuSans-2e" x="63.623047"/>
       <use xlink:href="#DejaVuSans-30" x="95.410156"/>
      </g>
     </g>
    </g>
    <g id="text_34">
     <!-- Cumulative Density -->
     <g transform="translate(448.92625 261.002187) rotate(-90) scale(0.12 -0.12)">
      <defs>
       <path id="DejaVuSans-43" d="M 4122 4306 
L 4122 3641 
Q 3803 3938 3442 4084 
Q 3081 4231 2675 4231 
Q 1875 4231 1450 3742 
Q 1025 3253 1025 2328 
Q 1025 1406 1450 917 
Q 1875 428 2675 428 
Q 3081 428 3442 575 
Q 3803 722 4122 1019 
L 4122 359 
Q 3791 134 3420 21 
Q 3050 -91 2638 -91 
Q 1578 -91 968 557 
Q 359 1206 359 2328 
Q 359 3453 968 4101 
Q 1578 4750 2638 4750 
Q 3056 4750 3426 4639 
Q 3797 4528 4122 4306 
z
" transform="scale(0.015625)"/>
       <path id="DejaVuSans-6d" d="M 3328 2828 
Q 3544 3216 3844 3400 
Q 4144 3584 4550 3584 
Q 5097 3584 5394 3201 
Q 5691 2819 5691 2113 
L 5691 0 
L 5113 0 
L 5113 2094 
Q 5113 2597 4934 2840 
Q 4756 3084 4391 3084 
Q 3944 3084 3684 2787 
Q 3425 2491 3425 1978 
L 3425 0 
L 2847 0 
L 2847 2094 
Q 2847 2600 2669 2842 
Q 2491 3084 2119 3084 
Q 1678 3084 1418 2786 
Q 1159 2488 1159 1978 
L 1159 0 
L 581 0 
L 581 3500 
L 1159 3500 
L 1159 2956 
Q 1356 3278 1631 3431 
Q 1906 3584 2284 3584 
Q 2666 3584 2933 3390 
Q 3200 3197 3328 2828 
z
" transform="scale(0.015625)"/>
       <path id="DejaVuSans-76" d="M 191 3500 
L 800 3500 
L 1894 563 
L 2988 3500 
L 3597 3500 
L 2284 0 
L 1503 0 
L 191 3500 
z
" transform="scale(0.015625)"/>
      </defs>
      <use xlink:href="#DejaVuSans-43"/>
      <use xlink:href="#DejaVuSans-75" x="69.824219"/>
      <use xlink:href="#DejaVuSans-6d" x="133.203125"/>
      <use xlink:href="#DejaVuSans-75" x="230.615234"/>
      <use xlink:href="#DejaVuSans-6c" x="293.994141"/>
      <use xlink:href="#DejaVuSans-61" x="321.777344"/>
      <use xlink:href="#DejaVuSans-74" x="383.056641"/>
      <use xlink:href="#DejaVuSans-69" x="422.265625"/>
      <use xlink:href="#DejaVuSans-76" x="450.048828"/>
      <use xlink:href="#DejaVuSans-65" x="509.228516"/>
      <use xlink:href="#DejaVuSans-20" x="570.751953"/>
      <use xlink:href="#DejaVuSans-44" x="602.539062"/>
      <use xlink:href="#DejaVuSans-65" x="679.541016"/>
      <use xlink:href="#DejaVuSans-6e" x="741.064453"/>
      <use xlink:href="#DejaVuSans-73" x="804.443359"/>
      <use xlink:href="#DejaVuSans-69" x="856.542969"/>
      <use xlink:href="#DejaVuSans-74" x="884.326172"/>
      <use xlink:href="#DejaVuSans-79" x="923.535156"/>
     </g>
    </g>
   </g>
   <g id="line2d_29">
    <path d="M 496.334884 14.76 
L 496.334884 18.5056 
L 502.665388 18.5056 
L 502.665388 22.2512 
L 502.881147 22.2512 
L 502.881147 25.9968 
L 507.184261 25.9968 
L 507.184261 29.7424 
L 515.408607 29.7424 
L 515.408607 33.488 
L 518.531649 33.488 
L 518.531649 37.2336 
L 522.11734 37.2336 
L 522.11734 40.9792 
L 522.431528 40.9792 
L 522.431528 44.7248 
L 523.140337 44.7248 
L 523.140337 48.4704 
L 523.6513 48.4704 
L 523.6513 52.216 
L 524.743574 52.216 
L 524.743574 55.9616 
L 527.031057 55.9616 
L 527.031057 59.7072 
L 527.903779 59.7072 
L 527.903779 63.4528 
L 530.777034 63.4528 
L 530.777034 67.1984 
L 532.012802 67.1984 
L 532.012802 70.944 
L 532.467033 70.944 
L 532.467033 74.6896 
L 537.851125 74.6896 
L 537.960573 85.9264 
L 539.236725 85.9264 
L 539.236725 89.672 
L 541.035172 89.672 
L 541.035172 93.4176 
L 541.479596 93.4176 
L 541.479596 97.1632 
L 544.333931 97.1632 
L 544.333931 100.9088 
L 545.368234 100.9088 
L 545.368234 104.6544 
L 546.59563 104.6544 
L 546.59563 108.4 
L 547.400787 108.4 
L 547.400787 112.1456 
L 547.644689 112.1456 
L 547.644689 115.8912 
L 550.006778 115.8912 
L 550.006778 119.6368 
L 550.139327 119.6368 
L 550.139327 123.3824 
L 550.357057 123.3824 
L 550.357057 127.128 
L 550.723628 127.128 
L 550.723628 130.8736 
L 551.06261 130.8736 
L 551.06261 134.6192 
L 551.787481 134.6192 
L 551.787481 138.3648 
L 554.738487 138.3648 
L 554.738487 142.1104 
L 554.875588 142.1104 
L 554.875588 145.856 
L 558.476775 145.856 
L 558.476775 149.6016 
L 561.197294 149.6016 
L 561.197294 153.3472 
L 562.304491 153.3472 
L 562.304491 157.0928 
L 564.63913 157.0928 
L 564.63913 160.8384 
L 572.426407 160.8384 
L 572.426407 164.584 
L 574.424386 164.584 
L 574.424386 168.3296 
L 574.556015 168.3296 
L 574.556015 172.0752 
L 574.892777 172.0752 
L 574.892777 175.8208 
L 575.931456 175.8208 
L 575.931456 179.5664 
L 577.85055 179.5664 
L 577.955552 187.0576 
L 582.41391 187.0576 
L 582.41391 190.8032 
L 583.302429 190.8032 
L 583.302429 194.5488 
L 584.284331 194.5488 
L 584.284331 198.2944 
L 590.53281 198.2944 
L 590.53281 202.04 
L 596.049234 202.04 
L 596.049234 205.7856 
L 597.244873 205.7856 
L 597.307761 213.2768 
L 600.654532 213.2768 
L 600.654532 217.0224 
L 606.122965 217.0224 
L 606.122965 220.768 
L 609.294846 220.768 
L 609.392065 228.2592 
L 609.829437 228.2592 
L 609.829437 232.0048 
L 618.04201 232.0048 
L 618.04201 235.7504 
L 618.703696 235.7504 
L 618.703696 239.496 
L 619.517835 239.496 
L 619.517835 243.2416 
L 625.334133 243.2416 
L 625.429163 250.7328 
L 626.92745 250.7328 
L 626.92745 254.4784 
L 628.048759 254.4784 
L 628.048759 258.224 
L 629.909008 258.224 
L 629.935544 265.7152 
L 632.797424 265.7152 
L 632.797424 269.4608 
L 633.420756 269.4608 
L 633.420756 273.2064 
L 638.185663 273.2064 
L 638.185663 276.952 
L 640.488565 276.952 
L 640.488565 280.6976 
L 641.423732 280.6976 
L 641.423732 284.4432 
L 649.273402 284.4432 
L 649.273402 288.1888 
L 651.378448 288.1888 
L 651.378448 291.9344 
L 654.19784 291.9344 
L 654.19784 295.68 
L 655.955364 295.68 
L 655.955364 299.4256 
L 658.617419 299.4256 
L 658.617419 303.1712 
L 658.815134 303.1712 
L 658.815134 306.9168 
L 661.829176 306.9168 
L 661.829176 310.6624 
L 666.35799 310.6624 
L 666.449353 318.1536 
L 675.945334 318.1536 
L 675.945334 321.8992 
L 682.690856 321.8992 
L 682.690856 325.6448 
L 685.032688 325.6448 
L 685.032688 329.3904 
L 689.69283 329.3904 
L 689.69283 333.136 
L 695.444765 333.136 
L 695.444765 336.8816 
L 702.488007 336.8816 
L 702.488007 340.6272 
L 704.120252 340.6272 
L 704.120252 344.3728 
L 707.593031 344.3728 
L 707.593031 348.1184 
L 713.771562 348.1184 
L 713.771562 351.864 
L 724.783469 351.864 
L 724.783469 355.6096 
L 736.83962 355.6096 
L 736.83962 359.3552 
L 748.129517 359.3552 
L 748.129517 363.1008 
L 757.775979 363.1008 
L 757.775979 366.8464 
L 765.03231 366.8464 
L 765.03231 370.592 
L 782.527971 370.592 
L 782.527971 374.3376 
L 782.975568 374.3376 
L 782.975568 378.0832 
L 786.838468 378.0832 
L 786.838468 381.8288 
L 814.387851 381.8288 
L 814.387851 385.5744 
L 835.190116 385.5744 
L 835.190116 389.32 
L 835.190116 389.32 
" clip-path="url(#pa94960ee11)" style="fill: none; stroke: #808080; stroke-width: 1.5; stroke-linecap: square"/>
   </g>
   <g id="line2d_30">
    <path d="M 521.273483 14.76 
L 521.273483 18.5056 
L 524.820271 18.5056 
L 524.820271 22.2512 
L 526.212032 22.2512 
L 526.212032 25.9968 
L 527.321736 25.9968 
L 527.321736 29.7424 
L 529.883754 29.7424 
L 529.883754 33.488 
L 531.05564 33.488 
L 531.05564 37.2336 
L 531.229368 37.2336 
L 531.229368 40.9792 
L 533.166091 40.9792 
L 533.166091 44.7248 
L 533.49918 44.7248 
L 533.49918 48.4704 
L 535.357533 48.4704 
L 535.357533 52.216 
L 538.127547 52.216 
L 538.127547 55.9616 
L 542.293774 55.9616 
L 542.293774 59.7072 
L 542.792403 59.7072 
L 542.792403 63.4528 
L 544.0638 63.4528 
L 544.154244 70.944 
L 544.937827 70.944 
L 544.937827 74.6896 
L 548.485567 74.6896 
L 548.485567 78.4352 
L 549.638181 78.4352 
L 549.638181 82.1808 
L 551.866611 82.1808 
L 551.866611 85.9264 
L 552.765219 85.9264 
L 552.765219 89.672 
L 553.067796 89.672 
L 553.067796 93.4176 
L 554.611081 93.4176 
L 554.611081 97.1632 
L 555.682771 97.1632 
L 555.682771 100.9088 
L 555.830872 100.9088 
L 555.830872 104.6544 
L 557.534638 104.6544 
L 557.534638 108.4 
L 558.183043 108.4 
L 558.183043 112.1456 
L 560.972311 112.1456 
L 561.080898 119.6368 
L 561.408177 119.6368 
L 561.408177 123.3824 
L 566.034666 123.3824 
L 566.034666 127.128 
L 566.168348 127.128 
L 566.168348 130.8736 
L 566.708884 130.8736 
L 566.708884 134.6192 
L 566.976475 134.6192 
L 566.976475 138.3648 
L 572.212096 138.3648 
L 572.212096 142.1104 
L 575.587676 142.1104 
L 575.587676 145.856 
L 576.851246 145.856 
L 576.851246 149.6016 
L 577.790419 149.6016 
L 577.790419 153.3472 
L 579.473104 153.3472 
L 579.473104 157.0928 
L 581.771731 157.0928 
L 581.771731 160.8384 
L 582.31241 160.8384 
L 582.31241 164.584 
L 583.800971 164.584 
L 583.800971 168.3296 
L 585.115832 168.3296 
L 585.115832 172.0752 
L 587.411374 172.0752 
L 587.411374 175.8208 
L 595.139833 175.8208 
L 595.139833 179.5664 
L 598.628886 179.5664 
L 598.628886 183.312 
L 600.890991 183.312 
L 600.890991 187.0576 
L 606.147322 187.0576 
L 606.147322 190.8032 
L 608.644208 190.8032 
L 608.644208 194.5488 
L 611.498657 194.5488 
L 611.498657 198.2944 
L 614.627434 198.2944 
L 614.627434 202.04 
L 615.855343 202.04 
L 615.855343 205.7856 
L 619.432055 205.7856 
L 619.432055 209.5312 
L 620.291466 209.5312 
L 620.291466 213.2768 
L 621.538811 213.2768 
L 621.538811 217.0224 
L 621.75318 217.0224 
L 621.75318 220.768 
L 623.975206 220.768 
L 623.975206 224.5136 
L 626.015093 224.5136 
L 626.015093 228.2592 
L 627.183704 228.2592 
L 627.183704 232.0048 
L 628.13198 232.0048 
L 628.13198 235.7504 
L 629.55802 235.7504 
L 629.560601 243.2416 
L 630.228427 243.2416 
L 630.228427 246.9872 
L 634.758033 246.9872 
L 634.758033 250.7328 
L 636.195857 250.7328 
L 636.195857 254.4784 
L 637.150623 254.4784 
L 637.150623 258.224 
L 638.416493 258.224 
L 638.416493 261.9696 
L 639.990212 261.9696 
L 639.990212 265.7152 
L 644.107507 265.7152 
L 644.107507 269.4608 
L 644.77168 269.4608 
L 644.799437 276.952 
L 648.111152 276.952 
L 648.111152 280.6976 
L 648.759254 280.6976 
L 648.759254 284.4432 
L 650.492007 284.4432 
L 650.492007 288.1888 
L 650.838631 288.1888 
L 650.838631 291.9344 
L 661.495481 291.9344 
L 661.495481 295.68 
L 675.126885 295.68 
L 675.126885 299.4256 
L 676.289699 299.4256 
L 676.289699 303.1712 
L 678.18806 303.1712 
L 678.18806 306.9168 
L 679.662122 306.9168 
L 679.662122 310.6624 
L 680.434357 310.6624 
L 680.434357 314.408 
L 681.644336 314.408 
L 681.644336 318.1536 
L 683.585579 318.1536 
L 683.585579 321.8992 
L 685.972823 321.8992 
L 685.972823 325.6448 
L 686.161007 325.6448 
L 686.161007 329.3904 
L 692.519586 329.3904 
L 692.519586 333.136 
L 695.359317 333.136 
L 695.359317 336.8816 
L 704.989621 336.8816 
L 704.989621 340.6272 
L 709.403408 340.6272 
L 709.403408 344.3728 
L 712.935305 344.3728 
L 712.935305 348.1184 
L 722.691761 348.1184 
L 722.691761 351.864 
L 724.289567 351.864 
L 724.289567 355.6096 
L 734.085657 355.6096 
L 734.085657 359.3552 
L 743.333278 359.3552 
L 743.333278 363.1008 
L 748.566262 363.1008 
L 748.566262 366.8464 
L 753.558933 366.8464 
L 753.558933 370.592 
L 781.411235 370.592 
L 781.411235 374.3376 
L 782.29579 374.3376 
L 782.29579 378.0832 
L 797.174228 378.0832 
L 797.174228 381.8288 
L 826.293643 381.8288 
L 826.293643 385.5744 
L 831.651544 385.5744 
L 831.651544 389.32 
L 831.651544 389.32 
" clip-path="url(#pa94960ee11)" style="fill: none; stroke: #ffa500; stroke-width: 1.5; stroke-linecap: square"/>
   </g>
   <g id="line2d_31">
    <path d="M 515.237738 14.76 
L 515.237738 18.5056 
L 521.108886 18.5056 
L 521.108886 22.2512 
L 526.732912 22.2512 
L 526.732912 25.9968 
L 528.671208 25.9968 
L 528.671208 29.7424 
L 530.712309 29.7424 
L 530.712309 33.488 
L 536.225388 33.488 
L 536.225388 37.2336 
L 537.071373 37.2336 
L 537.071373 40.9792 
L 537.353532 40.9792 
L 537.353532 44.7248 
L 537.735877 44.7248 
L 537.735877 48.4704 
L 539.276266 48.4704 
L 539.276266 52.216 
L 541.070893 52.216 
L 541.070893 55.9616 
L 542.110571 55.9616 
L 542.110571 59.7072 
L 542.337201 59.7072 
L 542.364827 67.1984 
L 543.133356 67.1984 
L 543.133356 70.944 
L 543.742951 70.944 
L 543.742951 74.6896 
L 544.003775 74.6896 
L 544.003775 78.4352 
L 544.912523 78.4352 
L 544.912523 82.1808 
L 546.339543 82.1808 
L 546.339543 85.9264 
L 549.224778 85.9264 
L 549.261692 97.1632 
L 549.576916 97.1632 
L 549.576916 100.9088 
L 551.167876 100.9088 
L 551.167876 104.6544 
L 552.027544 104.6544 
L 552.027544 108.4 
L 553.936013 108.4 
L 553.936013 112.1456 
L 554.993926 112.1456 
L 555.067875 119.6368 
L 556.370043 119.6368 
L 556.370043 123.3824 
L 556.91989 123.3824 
L 556.91989 127.128 
L 559.148689 127.128 
L 559.148689 130.8736 
L 559.46395 130.8736 
L 559.46395 134.6192 
L 567.900271 134.6192 
L 567.900271 138.3648 
L 568.219168 138.3648 
L 568.219168 142.1104 
L 568.375207 142.1104 
L 568.375207 145.856 
L 571.312442 145.856 
L 571.312442 149.6016 
L 577.108864 149.6016 
L 577.108864 153.3472 
L 577.885535 153.3472 
L 577.885535 157.0928 
L 581.752214 157.0928 
L 581.752214 160.8384 
L 582.858658 160.8384 
L 582.858658 164.584 
L 585.117872 164.584 
L 585.117872 168.3296 
L 587.6721 168.3296 
L 587.6721 172.0752 
L 588.983649 172.0752 
L 588.983649 175.8208 
L 591.419516 175.8208 
L 591.419516 179.5664 
L 592.647971 179.5664 
L 592.647971 183.312 
L 595.763199 183.312 
L 595.814703 190.8032 
L 596.621835 190.8032 
L 596.621835 194.5488 
L 597.90141 194.5488 
L 597.90141 198.2944 
L 602.750264 198.2944 
L 602.750264 202.04 
L 603.820244 202.04 
L 603.820244 205.7856 
L 605.398291 205.7856 
L 605.398291 209.5312 
L 610.592883 209.5312 
L 610.592883 213.2768 
L 611.368952 213.2768 
L 611.368952 217.0224 
L 611.939701 217.0224 
L 611.939701 220.768 
L 613.950151 220.768 
L 613.950151 224.5136 
L 614.458761 224.5136 
L 614.458761 228.2592 
L 621.005464 228.2592 
L 621.005464 232.0048 
L 624.847405 232.0048 
L 624.847405 235.7504 
L 625.221062 235.7504 
L 625.221062 239.496 
L 625.577143 239.496 
L 625.577143 243.2416 
L 629.655267 243.2416 
L 629.655267 246.9872 
L 631.586756 246.9872 
L 631.586756 250.7328 
L 633.000985 250.7328 
L 633.000985 254.4784 
L 635.89903 254.4784 
L 635.89903 258.224 
L 646.004733 258.224 
L 646.004733 261.9696 
L 647.983527 261.9696 
L 647.983527 265.7152 
L 650.805846 265.7152 
L 650.805846 269.4608 
L 651.992981 269.4608 
L 651.992981 273.2064 
L 654.326869 273.2064 
L 654.326869 276.952 
L 654.89417 276.952 
L 654.89417 280.6976 
L 655.202858 280.6976 
L 655.202858 284.4432 
L 659.391981 284.4432 
L 659.391981 288.1888 
L 660.993368 288.1888 
L 660.993368 291.9344 
L 661.253873 291.9344 
L 661.253873 295.68 
L 664.362965 295.68 
L 664.362965 299.4256 
L 664.98715 299.4256 
L 664.98715 303.1712 
L 673.826051 303.1712 
L 673.826051 306.9168 
L 676.036461 306.9168 
L 676.036461 310.6624 
L 678.381242 310.6624 
L 678.381242 314.408 
L 679.992019 314.408 
L 679.992019 318.1536 
L 684.130712 318.1536 
L 684.130712 321.8992 
L 691.471789 321.8992 
L 691.471789 325.6448 
L 697.75943 325.6448 
L 697.75943 329.3904 
L 698.510631 329.3904 
L 698.510631 333.136 
L 708.450701 333.136 
L 708.450701 336.8816 
L 708.628379 336.8816 
L 708.628379 340.6272 
L 715.484977 340.6272 
L 715.484977 344.3728 
L 718.263429 344.3728 
L 718.263429 348.1184 
L 722.652774 348.1184 
L 722.652774 351.864 
L 741.683163 351.864 
L 741.683163 355.6096 
L 749.466832 355.6096 
L 749.466832 359.3552 
L 749.721263 359.3552 
L 749.721263 363.1008 
L 753.265155 363.1008 
L 753.265155 366.8464 
L 759.04917 366.8464 
L 759.04917 370.592 
L 759.48821 370.592 
L 759.48821 374.3376 
L 761.813902 374.3376 
L 761.813902 378.0832 
L 780.692933 378.0832 
L 780.692933 381.8288 
L 791.882015 381.8288 
L 791.882015 385.5744 
L 827.117785 385.5744 
L 827.117785 389.32 
L 827.117785 389.32 
" clip-path="url(#pa94960ee11)" style="fill: none; stroke: #0000ff; stroke-width: 1.5; stroke-linecap: square"/>
   </g>
   <g id="line2d_32">
    <path d="M 663.395437 389.32 
L 663.395437 14.76 
" clip-path="url(#pa94960ee11)" style="fill: none; stroke-dasharray: 11.1,4.8; stroke-dashoffset: 0; stroke: #ffa500; stroke-width: 3"/>
   </g>
   <g id="patch_89">
    <path d="M 478.325 389.32 
L 478.325 14.76 
" style="fill: none; stroke: #000000; stroke-width: 0.8; stroke-linejoin: miter; stroke-linecap: square"/>
   </g>
   <g id="patch_90">
    <path d="M 478.325 389.32 
L 853.2 389.32 
" style="fill: none; stroke: #000000; stroke-width: 0.8; stroke-linejoin: miter; stroke-linecap: square"/>
   </g>
   <g id="legend_2">
    <g id="patch_91">
     <path d="M 640.929687 66.794375 
L 846.2 66.794375 
Q 848.2 66.794375 848.2 64.794375 
L 848.2 21.76 
Q 848.2 19.76 846.2 19.76 
L 640.929687 19.76 
Q 638.929687 19.76 638.929687 21.76 
L 638.929687 64.794375 
Q 638.929687 66.794375 640.929687 66.794375 
z
" style="fill: #ffffff; opacity: 0.8; stroke: #000000; stroke-linejoin: miter"/>
    </g>
    <g id="patch_92">
     <path d="M 642.929687 31.358438 
L 662.929687 31.358438 
L 662.929687 24.358438 
L 642.929687 24.358438 
z
" style="fill: #ff0000; opacity: 0.8; stroke: #ff0000; stroke-linejoin: miter"/>
    </g>
    <g id="text_35">
     <!-- Less than WT Log Fluorescence -->
     <g transform="translate(670.929687 31.358438) scale(0.1 -0.1)">
      <defs>
       <path id="DejaVuSans-4c" d="M 628 4666 
L 1259 4666 
L 1259 531 
L 3531 531 
L 3531 0 
L 628 0 
L 628 4666 
z
" transform="scale(0.015625)"/>
       <path id="DejaVuSans-68" d="M 3513 2113 
L 3513 0 
L 2938 0 
L 2938 2094 
Q 2938 2591 2744 2837 
Q 2550 3084 2163 3084 
Q 1697 3084 1428 2787 
Q 1159 2491 1159 1978 
L 1159 0 
L 581 0 
L 581 4863 
L 1159 4863 
L 1159 2956 
Q 1366 3272 1645 3428 
Q 1925 3584 2291 3584 
Q 2894 3584 3203 3211 
Q 3513 2838 3513 2113 
z
" transform="scale(0.015625)"/>
       <path id="DejaVuSans-57" d="M 213 4666 
L 850 4666 
L 1831 722 
L 2809 4666 
L 3519 4666 
L 4500 722 
L 5478 4666 
L 6119 4666 
L 4947 0 
L 4153 0 
L 3169 4050 
L 2175 0 
L 1381 0 
L 213 4666 
z
" transform="scale(0.015625)"/>
      </defs>
      <use xlink:href="#DejaVuSans-4c"/>
      <use xlink:href="#DejaVuSans-65" x="53.962891"/>
      <use xlink:href="#DejaVuSans-73" x="115.486328"/>
      <use xlink:href="#DejaVuSans-73" x="167.585938"/>
      <use xlink:href="#DejaVuSans-20" x="219.685547"/>
      <use xlink:href="#DejaVuSans-74" x="251.472656"/>
      <use xlink:href="#DejaVuSans-68" x="290.681641"/>
      <use xlink:href="#DejaVuSans-61" x="354.060547"/>
      <use xlink:href="#DejaVuSans-6e" x="415.339844"/>
      <use xlink:href="#DejaVuSans-20" x="478.71875"/>
      <use xlink:href="#DejaVuSans-57" x="510.505859"/>
      <use xlink:href="#DejaVuSans-54" x="609.382812"/>
      <use xlink:href="#DejaVuSans-20" x="670.466797"/>
      <use xlink:href="#DejaVuSans-4c" x="702.253906"/>
      <use xlink:href="#DejaVuSans-6f" x="756.216797"/>
      <use xlink:href="#DejaVuSans-67" x="817.398438"/>
      <use xlink:href="#DejaVuSans-20" x="880.875"/>
      <use xlink:href="#DejaVuSans-46" x="912.662109"/>
      <use xlink:href="#DejaVuSans-6c" x="970.181641"/>
      <use xlink:href="#DejaVuSans-75" x="997.964844"/>
      <use xlink:href="#DejaVuSans-6f" x="1061.34375"/>
      <use xlink:href="#DejaVuSans-72" x="1122.525391"/>
      <use xlink:href="#DejaVuSans-65" x="1161.388672"/>
      <use xlink:href="#DejaVuSans-73" x="1222.912109"/>
      <use xlink:href="#DejaVuSans-63" x="1275.011719"/>
      <use xlink:href="#DejaVuSans-65" x="1329.992188"/>
      <use xlink:href="#DejaVuSans-6e" x="1391.515625"/>
      <use xlink:href="#DejaVuSans-63" x="1454.894531"/>
      <use xlink:href="#DejaVuSans-65" x="1509.875"/>
     </g>
    </g>
    <g id="patch_93">
     <path d="M 642.929687 46.036563 
L 662.929687 46.036563 
L 662.929687 39.036563 
L 642.929687 39.036563 
z
" style="fill: #ffa500; opacity: 0.8; stroke: #ffa500; stroke-linejoin: miter"/>
    </g>
    <g id="text_36">
     <!-- Mean WT Log Fluorescence -->
     <g transform="translate(670.929687 46.036563) scale(0.1 -0.1)">
      <use xlink:href="#DejaVuSans-4d"/>
      <use xlink:href="#DejaVuSans-65" x="86.279297"/>
      <use xlink:href="#DejaVuSans-61" x="147.802734"/>
      <use xlink:href="#DejaVuSans-6e" x="209.082031"/>
      <use xlink:href="#DejaVuSans-20" x="272.460938"/>
      <use xlink:href="#DejaVuSans-57" x="304.248047"/>
      <use xlink:href="#DejaVuSans-54" x="403.125"/>
      <use xlink:href="#DejaVuSans-20" x="464.208984"/>
      <use xlink:href="#DejaVuSans-4c" x="495.996094"/>
      <use xlink:href="#DejaVuSans-6f" x="549.958984"/>
      <use xlink:href="#DejaVuSans-67" x="611.140625"/>
      <use xlink:href="#DejaVuSans-20" x="674.617188"/>
      <use xlink:href="#DejaVuSans-46" x="706.404297"/>
      <use xlink:href="#DejaVuSans-6c" x="763.923828"/>
      <use xlink:href="#DejaVuSans-75" x="791.707031"/>
      <use xlink:href="#DejaVuSans-6f" x="855.085938"/>
      <use xlink:href="#DejaVuSans-72" x="916.267578"/>
      <use xlink:href="#DejaVuSans-65" x="955.130859"/>
      <use xlink:href="#DejaVuSans-73" x="1016.654297"/>
      <use xlink:href="#DejaVuSans-63" x="1068.753906"/>
      <use xlink:href="#DejaVuSans-65" x="1123.734375"/>
      <use xlink:href="#DejaVuSans-6e" x="1185.257812"/>
      <use xlink:href="#DejaVuSans-63" x="1248.636719"/>
      <use xlink:href="#DejaVuSans-65" x="1303.617188"/>
     </g>
    </g>
    <g id="patch_94">
     <path d="M 642.929687 60.714688 
L 662.929687 60.714688 
L 662.929687 53.714688 
L 642.929687 53.714688 
z
" style="fill: #008000; opacity: 0.8; stroke: #008000; stroke-linejoin: miter"/>
    </g>
    <g id="text_37">
     <!-- Greater than WT Log Fluorescence -->
     <g transform="translate(670.929687 60.714688) scale(0.1 -0.1)">
      <defs>
       <path id="DejaVuSans-47" d="M 3809 666 
L 3809 1919 
L 2778 1919 
L 2778 2438 
L 4434 2438 
L 4434 434 
Q 4069 175 3628 42 
Q 3188 -91 2688 -91 
Q 1594 -91 976 548 
Q 359 1188 359 2328 
Q 359 3472 976 4111 
Q 1594 4750 2688 4750 
Q 3144 4750 3555 4637 
Q 3966 4525 4313 4306 
L 4313 3634 
Q 3963 3931 3569 4081 
Q 3175 4231 2741 4231 
Q 1884 4231 1454 3753 
Q 1025 3275 1025 2328 
Q 1025 1384 1454 906 
Q 1884 428 2741 428 
Q 3075 428 3337 486 
Q 3600 544 3809 666 
z
" transform="scale(0.015625)"/>
      </defs>
      <use xlink:href="#DejaVuSans-47"/>
      <use xlink:href="#DejaVuSans-72" x="77.490234"/>
      <use xlink:href="#DejaVuSans-65" x="116.353516"/>
      <use xlink:href="#DejaVuSans-61" x="177.876953"/>
      <use xlink:href="#DejaVuSans-74" x="239.15625"/>
      <use xlink:href="#DejaVuSans-65" x="278.365234"/>
      <use xlink:href="#DejaVuSans-72" x="339.888672"/>
      <use xlink:href="#DejaVuSans-20" x="381.001953"/>
      <use xlink:href="#DejaVuSans-74" x="412.789062"/>
      <use xlink:href="#DejaVuSans-68" x="451.998047"/>
      <use xlink:href="#DejaVuSans-61" x="515.376953"/>
      <use xlink:href="#DejaVuSans-6e" x="576.65625"/>
      <use xlink:href="#DejaVuSans-20" x="640.035156"/>
      <use xlink:href="#DejaVuSans-57" x="671.822266"/>
      <use xlink:href="#DejaVuSans-54" x="770.699219"/>
      <use xlink:href="#DejaVuSans-20" x="831.783203"/>
      <use xlink:href="#DejaVuSans-4c" x="863.570312"/>
      <use xlink:href="#DejaVuSans-6f" x="917.533203"/>
      <use xlink:href="#DejaVuSans-67" x="978.714844"/>
      <use xlink:href="#DejaVuSans-20" x="1042.191406"/>
      <use xlink:href="#DejaVuSans-46" x="1073.978516"/>
      <use xlink:href="#DejaVuSans-6c" x="1131.498047"/>
      <use xlink:href="#DejaVuSans-75" x="1159.28125"/>
      <use xlink:href="#DejaVuSans-6f" x="1222.660156"/>
      <use xlink:href="#DejaVuSans-72" x="1283.841797"/>
      <use xlink:href="#DejaVuSans-65" x="1322.705078"/>
      <use xlink:href="#DejaVuSans-73" x="1384.228516"/>
      <use xlink:href="#DejaVuSans-63" x="1436.328125"/>
      <use xlink:href="#DejaVuSans-65" x="1491.308594"/>
      <use xlink:href="#DejaVuSans-6e" x="1552.832031"/>
      <use xlink:href="#DejaVuSans-63" x="1616.210938"/>
      <use xlink:href="#DejaVuSans-65" x="1671.191406"/>
     </g>
    </g>
   </g>
  </g>
 </g>
 <defs>
  <clipPath id="pff94f2c8ac">
   <rect x="54.92" y="14.76" width="374.875" height="374.56"/>
  </clipPath>
  <clipPath id="pa94960ee11">
   <rect x="478.325" y="14.76" width="374.875" height="374.56"/>
  </clipPath>
 </defs>
</svg>
