<?xml version="1.0" encoding="utf-8" standalone="no"?>
<!DOCTYPE svg PUBLIC "-//W3C//DTD SVG 1.1//EN"
  "http://www.w3.org/Graphics/SVG/1.1/DTD/svg11.dtd">
<svg xmlns:xlink="http://www.w3.org/1999/xlink" width="432pt" height="432pt" viewBox="0 0 432 432" xmlns="http://www.w3.org/2000/svg" version="1.1">
 <metadata>
  <rdf:RDF xmlns:dc="http://purl.org/dc/elements/1.1/" xmlns:cc="http://creativecommons.org/ns#" xmlns:rdf="http://www.w3.org/1999/02/22-rdf-syntax-ns#">
   <cc:Work>
    <dc:type rdf:resource="http://purl.org/dc/dcmitype/StillImage"/>
    <dc:date>2025-04-01T14:53:01.908160</dc:date>
    <dc:format>image/svg+xml</dc:format>
    <dc:creator>
     <cc:Agent>
      <dc:title>Matplotlib v3.7.1, https://matplotlib.org/</dc:title>
     </cc:Agent>
    </dc:creator>
   </cc:Work>
  </rdf:RDF>
 </metadata>
 <defs>
  <style type="text/css">*{stroke-linejoin: round; stroke-linecap: butt}</style>
 </defs>
 <g id="figure_1">
  <g id="patch_1">
   <path d="M 0 432 
L 432 432 
L 432 0 
L 0 0 
z
" style="fill: #ffffff"/>
  </g>
  <g id="axes_1">
   <g id="patch_2">
    <path d="M 48.17 387.16 
L 421.2 387.16 
L 421.2 10.8 
L 48.17 10.8 
z
" style="fill: #ffffff"/>
   </g>
   <g id="PolyCollection_1">
    <defs>
     <path id="ma36eb73619" d="M 108.236075 -44.907499 
L 108.236075 -44.84 
L 109.189808 -44.84 
L 110.143541 -44.84 
L 111.097273 -44.84 
L 112.051006 -44.84 
L 113.004738 -44.84 
L 113.958471 -44.84 
L 114.912204 -44.84 
L 115.865936 -44.84 
L 116.819669 -44.84 
L 117.773402 -44.84 
L 118.727134 -44.84 
L 119.680867 -44.84 
L 120.6346 -44.84 
L 121.588332 -44.84 
L 122.542065 -44.84 
L 123.495798 -44.84 
L 124.44953 -44.84 
L 125.403263 -44.84 
L 126.356995 -44.84 
L 127.310728 -44.84 
L 128.264461 -44.84 
L 129.218193 -44.84 
L 130.171926 -44.84 
L 131.125659 -44.84 
L 132.079391 -44.84 
L 133.033124 -44.84 
L 133.986857 -44.84 
L 134.940589 -44.84 
L 135.894322 -44.84 
L 136.848055 -44.84 
L 137.801787 -44.84 
L 138.75552 -44.84 
L 139.709253 -44.84 
L 140.662985 -44.84 
L 141.616718 -44.84 
L 142.57045 -44.84 
L 143.524183 -44.84 
L 144.477916 -44.84 
L 145.431648 -44.84 
L 146.385381 -44.84 
L 147.339114 -44.84 
L 148.292846 -44.84 
L 149.246579 -44.84 
L 150.200312 -44.84 
L 151.154044 -44.84 
L 152.107777 -44.84 
L 153.06151 -44.84 
L 154.015242 -44.84 
L 154.968975 -44.84 
L 155.922707 -44.84 
L 156.87644 -44.84 
L 157.830173 -44.84 
L 158.783905 -44.84 
L 159.737638 -44.84 
L 160.691371 -44.84 
L 161.645103 -44.84 
L 162.598836 -44.84 
L 163.552569 -44.84 
L 164.506301 -44.84 
L 165.460034 -44.84 
L 166.413767 -44.84 
L 167.367499 -44.84 
L 168.321232 -44.84 
L 169.274964 -44.84 
L 170.228697 -44.84 
L 171.18243 -44.84 
L 172.136162 -44.84 
L 173.089895 -44.84 
L 174.043628 -44.84 
L 174.99736 -44.84 
L 175.951093 -44.84 
L 176.904826 -44.84 
L 177.858558 -44.84 
L 178.812291 -44.84 
L 179.766024 -44.84 
L 180.719756 -44.84 
L 181.673489 -44.84 
L 182.627222 -44.84 
L 183.580954 -44.84 
L 184.534687 -44.84 
L 185.488419 -44.84 
L 186.442152 -44.84 
L 187.395885 -44.84 
L 188.349617 -44.84 
L 189.30335 -44.84 
L 190.257083 -44.84 
L 191.210815 -44.84 
L 192.164548 -44.84 
L 193.118281 -44.84 
L 194.072013 -44.84 
L 195.025746 -44.84 
L 195.979479 -44.84 
L 196.933211 -44.84 
L 197.886944 -44.84 
L 198.840676 -44.84 
L 199.794409 -44.84 
L 200.748142 -44.84 
L 201.701874 -44.84 
L 202.655607 -44.84 
L 203.60934 -44.84 
L 204.563072 -44.84 
L 205.516805 -44.84 
L 206.470538 -44.84 
L 207.42427 -44.84 
L 208.378003 -44.84 
L 209.331736 -44.84 
L 210.285468 -44.84 
L 211.239201 -44.84 
L 212.192933 -44.84 
L 213.146666 -44.84 
L 214.100399 -44.84 
L 215.054131 -44.84 
L 216.007864 -44.84 
L 216.961597 -44.84 
L 217.915329 -44.84 
L 218.869062 -44.84 
L 219.822795 -44.84 
L 220.776527 -44.84 
L 221.73026 -44.84 
L 222.683993 -44.84 
L 223.637725 -44.84 
L 224.591458 -44.84 
L 225.545191 -44.84 
L 226.498923 -44.84 
L 227.452656 -44.84 
L 228.406388 -44.84 
L 229.360121 -44.84 
L 230.313854 -44.84 
L 231.267586 -44.84 
L 232.221319 -44.84 
L 233.175052 -44.84 
L 234.128784 -44.84 
L 235.082517 -44.84 
L 236.03625 -44.84 
L 236.989982 -44.84 
L 237.943715 -44.84 
L 238.897448 -44.84 
L 239.85118 -44.84 
L 240.804913 -44.84 
L 241.758645 -44.84 
L 242.712378 -44.84 
L 243.666111 -44.84 
L 244.619843 -44.84 
L 245.573576 -44.84 
L 246.527309 -44.84 
L 247.481041 -44.84 
L 248.434774 -44.84 
L 249.388507 -44.84 
L 250.342239 -44.84 
L 251.295972 -44.84 
L 252.249705 -44.84 
L 253.203437 -44.84 
L 254.15717 -44.84 
L 255.110902 -44.84 
L 256.064635 -44.84 
L 257.018368 -44.84 
L 257.9721 -44.84 
L 258.925833 -44.84 
L 259.879566 -44.84 
L 260.833298 -44.84 
L 261.787031 -44.84 
L 262.740764 -44.84 
L 263.694496 -44.84 
L 264.648229 -44.84 
L 265.601962 -44.84 
L 266.555694 -44.84 
L 267.509427 -44.84 
L 268.46316 -44.84 
L 269.416892 -44.84 
L 270.370625 -44.84 
L 271.324357 -44.84 
L 272.27809 -44.84 
L 273.231823 -44.84 
L 274.185555 -44.84 
L 275.139288 -44.84 
L 276.093021 -44.84 
L 277.046753 -44.84 
L 278.000486 -44.84 
L 278.954219 -44.84 
L 279.907951 -44.84 
L 280.861684 -44.84 
L 281.815417 -44.84 
L 282.769149 -44.84 
L 283.722882 -44.84 
L 284.676614 -44.84 
L 285.630347 -44.84 
L 286.58408 -44.84 
L 287.537812 -44.84 
L 288.491545 -44.84 
L 289.445278 -44.84 
L 290.39901 -44.84 
L 291.352743 -44.84 
L 292.306476 -44.84 
L 293.260208 -44.84 
L 294.213941 -44.84 
L 295.167674 -44.84 
L 296.121406 -44.84 
L 297.075139 -44.84 
L 298.028872 -44.84 
L 298.028872 -44.8936 
L 298.028872 -44.8936 
L 297.075139 -44.913887 
L 296.121406 -44.940953 
L 295.167674 -44.976723 
L 294.213941 -45.023548 
L 293.260208 -45.084266 
L 292.306476 -45.162253 
L 291.352743 -45.261472 
L 290.39901 -45.386505 
L 289.445278 -45.54257 
L 288.491545 -45.73551 
L 287.537812 -45.971752 
L 286.58408 -46.258231 
L 285.630347 -46.602265 
L 284.676614 -47.011385 
L 283.722882 -47.493121 
L 282.769149 -48.054721 
L 281.815417 -48.702842 
L 280.861684 -49.443186 
L 279.907951 -50.280114 
L 278.954219 -51.216237 
L 278.000486 -52.252016 
L 277.046753 -53.385386 
L 276.093021 -54.611419 
L 275.139288 -55.92207 
L 274.185555 -57.306013 
L 273.231823 -58.748603 
L 272.27809 -60.231964 
L 271.324357 -61.735239 
L 270.370625 -63.234987 
L 269.416892 -64.705739 
L 268.46316 -66.12069 
L 267.509427 -67.452513 
L 266.555694 -68.674268 
L 265.601962 -69.760357 
L 264.648229 -70.687504 
L 263.694496 -71.435694 
L 262.740764 -71.98904 
L 261.787031 -72.336536 
L 260.833298 -72.472648 
L 259.879566 -72.397728 
L 258.925833 -72.118222 
L 257.9721 -71.646663 
L 257.018368 -71.001456 
L 256.064635 -70.20647 
L 255.110902 -69.290445 
L 254.15717 -68.286265 
L 253.203437 -67.23012 
L 252.249705 -66.1606 
L 251.295972 -65.117763 
L 250.342239 -64.142223 
L 249.388507 -63.274276 
L 248.434774 -62.553117 
L 247.481041 -62.016153 
L 246.527309 -61.698436 
L 245.573576 -61.632225 
L 244.619843 -61.846665 
L 243.666111 -62.36759 
L 242.712378 -63.217426 
L 241.758645 -64.415176 
L 240.804913 -65.976455 
L 239.85118 -67.913564 
L 238.897448 -70.235564 
L 237.943715 -72.948323 
L 236.989982 -76.054521 
L 236.03625 -79.553592 
L 235.082517 -83.441591 
L 234.128784 -87.710986 
L 233.175052 -92.35039 
L 232.221319 -97.344231 
L 231.267586 -102.672405 
L 230.313854 -108.309943 
L 229.360121 -114.226711 
L 228.406388 -120.387206 
L 227.452656 -126.750476 
L 226.498923 -133.270189 
L 225.545191 -139.894896 
L 224.591458 -146.568478 
L 223.637725 -153.230794 
L 222.683993 -159.818511 
L 221.73026 -166.266093 
L 220.776527 -172.506912 
L 219.822795 -178.474439 
L 218.869062 -184.10347 
L 217.915329 -189.331342 
L 216.961597 -194.099092 
L 216.007864 -198.352531 
L 215.054131 -202.043204 
L 214.100399 -205.129213 
L 213.146666 -207.575902 
L 212.192933 -209.356401 
L 211.239201 -210.452021 
L 210.285468 -210.852518 
L 209.331736 -210.55622 
L 208.378003 -209.570023 
L 207.42427 -207.909247 
L 206.470538 -205.597363 
L 205.516805 -202.66557 
L 204.563072 -199.152231 
L 203.60934 -195.102157 
L 202.655607 -190.565759 
L 201.701874 -185.598069 
L 200.748142 -180.257658 
L 199.794409 -174.605483 
L 198.840676 -168.703705 
L 197.886944 -162.614507 
L 196.933211 -156.398978 
L 195.979479 -150.116078 
L 195.025746 -143.821746 
L 194.072013 -137.568157 
L 193.118281 -131.403152 
L 192.164548 -125.369839 
L 191.210815 -119.506368 
L 190.257083 -113.845842 
L 189.30335 -108.416358 
L 188.349617 -103.241135 
L 187.395885 -98.338703 
L 186.442152 -93.723136 
L 185.488419 -89.404285 
L 184.534687 -85.388018 
L 183.580954 -81.676455 
L 182.627222 -78.268189 
L 181.673489 -75.158514 
L 180.719756 -72.339662 
L 179.766024 -69.801065 
L 178.812291 -67.529656 
L 177.858558 -65.510212 
L 176.904826 -63.725745 
L 175.951093 -62.157938 
L 174.99736 -60.787616 
L 174.043628 -59.595233 
L 173.089895 -58.561361 
L 172.136162 -57.667158 
L 171.18243 -56.894778 
L 170.228697 -56.227732 
L 169.274964 -55.651149 
L 168.321232 -55.151959 
L 167.367499 -54.718969 
L 166.413767 -54.342852 
L 165.460034 -54.016053 
L 164.506301 -53.732623 
L 163.552569 -53.488007 
L 162.598836 -53.2788 
L 161.645103 -53.102494 
L 160.691371 -52.957232 
L 159.737638 -52.841575 
L 158.783905 -52.754312 
L 157.830173 -52.694291 
L 156.87644 -52.660297 
L 155.922707 -52.650947 
L 154.968975 -52.664629 
L 154.015242 -52.699448 
L 153.06151 -52.753188 
L 152.107777 -52.82329 
L 151.154044 -52.906823 
L 150.200312 -53.00047 
L 149.246579 -53.10052 
L 148.292846 -53.202862 
L 147.339114 -53.303012 
L 146.385381 -53.396149 
L 145.431648 -53.477182 
L 144.477916 -53.540861 
L 143.524183 -53.581901 
L 142.57045 -53.595155 
L 141.616718 -53.575798 
L 140.662985 -53.519534 
L 139.709253 -53.4228 
L 138.75552 -53.282963 
L 137.801787 -53.098487 
L 136.848055 -52.869059 
L 135.894322 -52.595667 
L 134.940589 -52.280611 
L 133.986857 -51.927457 
L 133.033124 -51.54092 
L 132.079391 -51.126692 
L 131.125659 -50.691219 
L 130.171926 -50.241447 
L 129.218193 -49.784544 
L 128.264461 -49.327624 
L 127.310728 -48.877482 
L 126.356995 -48.440359 
L 125.403263 -48.021751 
L 124.44953 -47.62626 
L 123.495798 -47.257506 
L 122.542065 -46.918089 
L 121.588332 -46.609605 
L 120.6346 -46.332699 
L 119.680867 -46.087166 
L 118.727134 -45.872066 
L 117.773402 -45.685862 
L 116.819669 -45.526564 
L 115.865936 -45.391867 
L 114.912204 -45.279282 
L 113.958471 -45.186255 
L 113.004738 -45.110258 
L 112.051006 -45.048872 
L 111.097273 -44.999842 
L 110.143541 -44.961116 
L 109.189808 -44.930867 
L 108.236075 -44.907499 
z
" style="stroke: #f4a582; stroke-width: 2.5"/>
    </defs>
    <g clip-path="url(#pcb0afeae1a)">
     <use xlink:href="#ma36eb73619" x="0" y="432" style="fill: #f4a582; fill-opacity: 0.5; stroke: #f4a582; stroke-width: 2.5"/>
    </g>
   </g>
   <g id="PolyCollection_2">
    <defs>
     <path id="maff4b61003" d="M 154.883584 -44.876696 
L 154.883584 -44.84 
L 155.714497 -44.84 
L 156.545411 -44.84 
L 157.376324 -44.84 
L 158.207238 -44.84 
L 159.038151 -44.84 
L 159.869065 -44.84 
L 160.699978 -44.84 
L 161.530892 -44.84 
L 162.361805 -44.84 
L 163.192719 -44.84 
L 164.023632 -44.84 
L 164.854545 -44.84 
L 165.685459 -44.84 
L 166.516372 -44.84 
L 167.347286 -44.84 
L 168.178199 -44.84 
L 169.009113 -44.84 
L 169.840026 -44.84 
L 170.67094 -44.84 
L 171.501853 -44.84 
L 172.332767 -44.84 
L 173.16368 -44.84 
L 173.994593 -44.84 
L 174.825507 -44.84 
L 175.65642 -44.84 
L 176.487334 -44.84 
L 177.318247 -44.84 
L 178.149161 -44.84 
L 178.980074 -44.84 
L 179.810988 -44.84 
L 180.641901 -44.84 
L 181.472815 -44.84 
L 182.303728 -44.84 
L 183.134641 -44.84 
L 183.965555 -44.84 
L 184.796468 -44.84 
L 185.627382 -44.84 
L 186.458295 -44.84 
L 187.289209 -44.84 
L 188.120122 -44.84 
L 188.951036 -44.84 
L 189.781949 -44.84 
L 190.612863 -44.84 
L 191.443776 -44.84 
L 192.274689 -44.84 
L 193.105603 -44.84 
L 193.936516 -44.84 
L 194.76743 -44.84 
L 195.598343 -44.84 
L 196.429257 -44.84 
L 197.26017 -44.84 
L 198.091084 -44.84 
L 198.921997 -44.84 
L 199.752911 -44.84 
L 200.583824 -44.84 
L 201.414737 -44.84 
L 202.245651 -44.84 
L 203.076564 -44.84 
L 203.907478 -44.84 
L 204.738391 -44.84 
L 205.569305 -44.84 
L 206.400218 -44.84 
L 207.231132 -44.84 
L 208.062045 -44.84 
L 208.892959 -44.84 
L 209.723872 -44.84 
L 210.554785 -44.84 
L 211.385699 -44.84 
L 212.216612 -44.84 
L 213.047526 -44.84 
L 213.878439 -44.84 
L 214.709353 -44.84 
L 215.540266 -44.84 
L 216.37118 -44.84 
L 217.202093 -44.84 
L 218.033006 -44.84 
L 218.86392 -44.84 
L 219.694833 -44.84 
L 220.525747 -44.84 
L 221.35666 -44.84 
L 222.187574 -44.84 
L 223.018487 -44.84 
L 223.849401 -44.84 
L 224.680314 -44.84 
L 225.511228 -44.84 
L 226.342141 -44.84 
L 227.173054 -44.84 
L 228.003968 -44.84 
L 228.834881 -44.84 
L 229.665795 -44.84 
L 230.496708 -44.84 
L 231.327622 -44.84 
L 232.158535 -44.84 
L 232.989449 -44.84 
L 233.820362 -44.84 
L 234.651276 -44.84 
L 235.482189 -44.84 
L 236.313102 -44.84 
L 237.144016 -44.84 
L 237.974929 -44.84 
L 238.805843 -44.84 
L 239.636756 -44.84 
L 240.46767 -44.84 
L 241.298583 -44.84 
L 242.129497 -44.84 
L 242.96041 -44.84 
L 243.791324 -44.84 
L 244.622237 -44.84 
L 245.45315 -44.84 
L 246.284064 -44.84 
L 247.114977 -44.84 
L 247.945891 -44.84 
L 248.776804 -44.84 
L 249.607718 -44.84 
L 250.438631 -44.84 
L 251.269545 -44.84 
L 252.100458 -44.84 
L 252.931372 -44.84 
L 253.762285 -44.84 
L 254.593198 -44.84 
L 255.424112 -44.84 
L 256.255025 -44.84 
L 257.085939 -44.84 
L 257.916852 -44.84 
L 258.747766 -44.84 
L 259.578679 -44.84 
L 260.409593 -44.84 
L 261.240506 -44.84 
L 262.07142 -44.84 
L 262.902333 -44.84 
L 263.733246 -44.84 
L 264.56416 -44.84 
L 265.395073 -44.84 
L 266.225987 -44.84 
L 267.0569 -44.84 
L 267.887814 -44.84 
L 268.718727 -44.84 
L 269.549641 -44.84 
L 270.380554 -44.84 
L 271.211468 -44.84 
L 272.042381 -44.84 
L 272.873294 -44.84 
L 273.704208 -44.84 
L 274.535121 -44.84 
L 275.366035 -44.84 
L 276.196948 -44.84 
L 277.027862 -44.84 
L 277.858775 -44.84 
L 278.689689 -44.84 
L 279.520602 -44.84 
L 280.351516 -44.84 
L 281.182429 -44.84 
L 282.013342 -44.84 
L 282.844256 -44.84 
L 283.675169 -44.84 
L 284.506083 -44.84 
L 285.336996 -44.84 
L 286.16791 -44.84 
L 286.998823 -44.84 
L 287.829737 -44.84 
L 288.66065 -44.84 
L 289.491564 -44.84 
L 290.322477 -44.84 
L 291.15339 -44.84 
L 291.984304 -44.84 
L 292.815217 -44.84 
L 293.646131 -44.84 
L 294.477044 -44.84 
L 295.307958 -44.84 
L 296.138871 -44.84 
L 296.969785 -44.84 
L 297.800698 -44.84 
L 298.631612 -44.84 
L 299.462525 -44.84 
L 300.293438 -44.84 
L 301.124352 -44.84 
L 301.955265 -44.84 
L 302.786179 -44.84 
L 303.617092 -44.84 
L 304.448006 -44.84 
L 305.278919 -44.84 
L 306.109833 -44.84 
L 306.940746 -44.84 
L 307.77166 -44.84 
L 308.602573 -44.84 
L 309.433486 -44.84 
L 310.2644 -44.84 
L 311.095313 -44.84 
L 311.926227 -44.84 
L 312.75714 -44.84 
L 313.588054 -44.84 
L 314.418967 -44.84 
L 315.249881 -44.84 
L 316.080794 -44.84 
L 316.911707 -44.84 
L 317.742621 -44.84 
L 318.573534 -44.84 
L 319.404448 -44.84 
L 320.235361 -44.84 
L 320.235361 -44.983446 
L 320.235361 -44.983446 
L 319.404448 -45.029296 
L 318.573534 -45.088244 
L 317.742621 -45.163528 
L 316.911707 -45.259036 
L 316.080794 -45.379395 
L 315.249881 -45.530064 
L 314.418967 -45.717426 
L 313.588054 -45.948874 
L 312.75714 -46.232891 
L 311.926227 -46.579111 
L 311.095313 -46.998375 
L 310.2644 -47.502743 
L 309.433486 -48.105496 
L 308.602573 -48.821085 
L 307.77166 -49.665046 
L 306.940746 -50.653869 
L 306.109833 -51.804814 
L 305.278919 -53.135667 
L 304.448006 -54.664452 
L 303.617092 -56.409081 
L 302.786179 -58.386956 
L 301.955265 -60.614523 
L 301.124352 -63.106796 
L 300.293438 -65.876844 
L 299.462525 -68.935275 
L 298.631612 -72.289714 
L 297.800698 -75.944302 
L 296.969785 -79.899229 
L 296.138871 -84.150324 
L 295.307958 -88.688711 
L 294.477044 -93.500556 
L 293.646131 -98.566919 
L 292.815217 -103.863712 
L 291.984304 -109.361792 
L 291.15339 -115.027179 
L 290.322477 -120.821404 
L 289.491564 -126.701987 
L 288.66065 -132.623036 
L 287.829737 -138.535958 
L 286.998823 -144.39026 
L 286.16791 -150.134422 
L 285.336996 -155.716833 
L 284.506083 -161.086739 
L 283.675169 -166.195202 
L 282.844256 -170.996026 
L 282.013342 -175.446631 
L 281.182429 -179.508851 
L 280.351516 -183.149617 
L 279.520602 -186.341533 
L 278.689689 -189.063296 
L 277.858775 -191.299976 
L 277.027862 -193.043129 
L 276.196948 -194.290755 
L 275.366035 -195.047097 
L 274.535121 -195.322298 
L 273.704208 -195.131922 
L 272.873294 -194.496366 
L 272.042381 -193.440182 
L 271.211468 -191.991337 
L 270.380554 -190.18044 
L 269.549641 -188.039952 
L 268.718727 -185.603431 
L 267.887814 -182.904801 
L 267.0569 -179.977711 
L 266.225987 -176.854954 
L 265.395073 -173.568001 
L 264.56416 -170.146635 
L 263.733246 -166.618683 
L 262.902333 -163.00987 
L 262.07142 -159.343754 
L 261.240506 -155.641758 
L 260.409593 -151.923268 
L 259.578679 -148.205784 
L 258.747766 -144.505113 
L 257.916852 -140.835576 
L 257.085939 -137.210216 
L 256.255025 -133.640999 
L 255.424112 -130.138984 
L 254.593198 -126.714462 
L 253.762285 -123.377057 
L 252.931372 -120.13579 
L 252.100458 -116.999096 
L 251.269545 -113.97481 
L 250.438631 -111.070132 
L 249.607718 -108.291559 
L 248.776804 -105.64481 
L 247.945891 -103.134749 
L 247.114977 -100.765309 
L 246.284064 -98.539421 
L 245.45315 -96.458965 
L 244.622237 -94.524729 
L 243.791324 -92.736391 
L 242.96041 -91.092516 
L 242.129497 -89.59057 
L 241.298583 -88.226948 
L 240.46767 -86.997007 
L 239.636756 -85.895115 
L 238.805843 -84.914704 
L 237.974929 -84.048328 
L 237.144016 -83.287726 
L 236.313102 -82.623899 
L 235.482189 -82.047188 
L 234.651276 -81.547373 
L 233.820362 -81.113781 
L 232.989449 -80.735417 
L 232.158535 -80.401108 
L 231.327622 -80.099678 
L 230.496708 -79.820124 
L 229.665795 -79.551825 
L 228.834881 -79.284747 
L 228.003968 -79.009657 
L 227.173054 -78.718326 
L 226.342141 -78.403714 
L 225.511228 -78.060137 
L 224.680314 -77.683388 
L 223.849401 -77.270815 
L 223.018487 -76.821356 
L 222.187574 -76.335504 
L 221.35666 -75.815234 
L 220.525747 -75.263857 
L 219.694833 -74.685842 
L 218.86392 -74.086579 
L 218.033006 -73.47213 
L 217.202093 -72.848942 
L 216.37118 -72.223568 
L 215.540266 -71.602386 
L 214.709353 -70.991342 
L 213.878439 -70.39572 
L 213.047526 -69.819955 
L 212.216612 -69.26749 
L 211.385699 -68.740681 
L 210.554785 -68.240762 
L 209.723872 -67.76785 
L 208.892959 -67.321006 
L 208.062045 -66.898326 
L 207.231132 -66.497077 
L 206.400218 -66.113849 
L 205.569305 -65.744727 
L 204.738391 -65.385467 
L 203.907478 -65.031674 
L 203.076564 -64.678972 
L 202.245651 -64.323152 
L 201.414737 -63.960308 
L 200.583824 -63.586946 
L 199.752911 -63.20007 
L 198.921997 -62.797238 
L 198.091084 -62.3766 
L 197.26017 -61.936903 
L 196.429257 -61.477486 
L 195.598343 -60.99825 
L 194.76743 -60.499619 
L 193.936516 -59.982482 
L 193.105603 -59.448144 
L 192.274689 -58.89826 
L 191.443776 -58.33477 
L 190.612863 -57.759846 
L 189.781949 -57.175833 
L 188.951036 -56.585198 
L 188.120122 -55.990486 
L 187.289209 -55.394281 
L 186.458295 -54.799172 
L 185.627382 -54.207723 
L 184.796468 -53.62245 
L 183.965555 -53.045796 
L 183.134641 -52.480113 
L 182.303728 -51.927639 
L 181.472815 -51.390484 
L 180.641901 -50.870606 
L 179.810988 -50.369797 
L 178.980074 -49.889662 
L 178.149161 -49.431601 
L 177.318247 -48.996795 
L 176.487334 -48.586192 
L 175.65642 -48.200497 
L 174.825507 -47.840166 
L 173.994593 -47.505401 
L 173.16368 -47.196157 
L 172.332767 -46.91215 
L 171.501853 -46.652866 
L 170.67094 -46.417583 
L 169.840026 -46.205391 
L 169.009113 -46.015221 
L 168.178199 -45.845864 
L 167.347286 -45.696012 
L 166.516372 -45.56428 
L 165.685459 -45.449235 
L 164.854545 -45.349431 
L 164.023632 -45.263426 
L 163.192719 -45.189812 
L 162.361805 -45.127232 
L 161.530892 -45.074393 
L 160.699978 -45.030086 
L 159.869065 -44.993189 
L 159.038151 -44.962676 
L 158.207238 -44.937617 
L 157.376324 -44.917181 
L 156.545411 -44.900631 
L 155.714497 -44.887323 
L 154.883584 -44.876696 
z
" style="stroke: #b2182b; stroke-width: 2.5"/>
    </defs>
    <g clip-path="url(#pcb0afeae1a)">
     <use xlink:href="#maff4b61003" x="0" y="432" style="fill: #b2182b; fill-opacity: 0.5; stroke: #b2182b; stroke-width: 2.5"/>
    </g>
   </g>
   <g id="PolyCollection_3">
    <defs>
     <path id="m5957e9ee11" d="M 65.125909 -44.84492 
L 65.125909 -44.84 
L 66.543979 -44.84 
L 67.96205 -44.84 
L 69.38012 -44.84 
L 70.79819 -44.84 
L 72.21626 -44.84 
L 73.634331 -44.84 
L 75.052401 -44.84 
L 76.470471 -44.84 
L 77.888541 -44.84 
L 79.306612 -44.84 
L 80.724682 -44.84 
L 82.142752 -44.84 
L 83.560822 -44.84 
L 84.978893 -44.84 
L 86.396963 -44.84 
L 87.815033 -44.84 
L 89.233104 -44.84 
L 90.651174 -44.84 
L 92.069244 -44.84 
L 93.487314 -44.84 
L 94.905385 -44.84 
L 96.323455 -44.84 
L 97.741525 -44.84 
L 99.159595 -44.84 
L 100.577666 -44.84 
L 101.995736 -44.84 
L 103.413806 -44.84 
L 104.831876 -44.84 
L 106.249947 -44.84 
L 107.668017 -44.84 
L 109.086087 -44.84 
L 110.504157 -44.84 
L 111.922228 -44.84 
L 113.340298 -44.84 
L 114.758368 -44.84 
L 116.176439 -44.84 
L 117.594509 -44.84 
L 119.012579 -44.84 
L 120.430649 -44.84 
L 121.84872 -44.84 
L 123.26679 -44.84 
L 124.68486 -44.84 
L 126.10293 -44.84 
L 127.521001 -44.84 
L 128.939071 -44.84 
L 130.357141 -44.84 
L 131.775211 -44.84 
L 133.193282 -44.84 
L 134.611352 -44.84 
L 136.029422 -44.84 
L 137.447492 -44.84 
L 138.865563 -44.84 
L 140.283633 -44.84 
L 141.701703 -44.84 
L 143.119773 -44.84 
L 144.537844 -44.84 
L 145.955914 -44.84 
L 147.373984 -44.84 
L 148.792055 -44.84 
L 150.210125 -44.84 
L 151.628195 -44.84 
L 153.046265 -44.84 
L 154.464336 -44.84 
L 155.882406 -44.84 
L 157.300476 -44.84 
L 158.718546 -44.84 
L 160.136617 -44.84 
L 161.554687 -44.84 
L 162.972757 -44.84 
L 164.390827 -44.84 
L 165.808898 -44.84 
L 167.226968 -44.84 
L 168.645038 -44.84 
L 170.063108 -44.84 
L 171.481179 -44.84 
L 172.899249 -44.84 
L 174.317319 -44.84 
L 175.73539 -44.84 
L 177.15346 -44.84 
L 178.57153 -44.84 
L 179.9896 -44.84 
L 181.407671 -44.84 
L 182.825741 -44.84 
L 184.243811 -44.84 
L 185.661881 -44.84 
L 187.079952 -44.84 
L 188.498022 -44.84 
L 189.916092 -44.84 
L 191.334162 -44.84 
L 192.752233 -44.84 
L 194.170303 -44.84 
L 195.588373 -44.84 
L 197.006443 -44.84 
L 198.424514 -44.84 
L 199.842584 -44.84 
L 201.260654 -44.84 
L 202.678724 -44.84 
L 204.096795 -44.84 
L 205.514865 -44.84 
L 206.932935 -44.84 
L 208.351006 -44.84 
L 209.769076 -44.84 
L 211.187146 -44.84 
L 212.605216 -44.84 
L 214.023287 -44.84 
L 215.441357 -44.84 
L 216.859427 -44.84 
L 218.277497 -44.84 
L 219.695568 -44.84 
L 221.113638 -44.84 
L 222.531708 -44.84 
L 223.949778 -44.84 
L 225.367849 -44.84 
L 226.785919 -44.84 
L 228.203989 -44.84 
L 229.622059 -44.84 
L 231.04013 -44.84 
L 232.4582 -44.84 
L 233.87627 -44.84 
L 235.29434 -44.84 
L 236.712411 -44.84 
L 238.130481 -44.84 
L 239.548551 -44.84 
L 240.966622 -44.84 
L 242.384692 -44.84 
L 243.802762 -44.84 
L 245.220832 -44.84 
L 246.638903 -44.84 
L 248.056973 -44.84 
L 249.475043 -44.84 
L 250.893113 -44.84 
L 252.311184 -44.84 
L 253.729254 -44.84 
L 255.147324 -44.84 
L 256.565394 -44.84 
L 257.983465 -44.84 
L 259.401535 -44.84 
L 260.819605 -44.84 
L 262.237675 -44.84 
L 263.655746 -44.84 
L 265.073816 -44.84 
L 266.491886 -44.84 
L 267.909957 -44.84 
L 269.328027 -44.84 
L 270.746097 -44.84 
L 272.164167 -44.84 
L 273.582238 -44.84 
L 275.000308 -44.84 
L 276.418378 -44.84 
L 277.836448 -44.84 
L 279.254519 -44.84 
L 280.672589 -44.84 
L 282.090659 -44.84 
L 283.508729 -44.84 
L 284.9268 -44.84 
L 286.34487 -44.84 
L 287.76294 -44.84 
L 289.18101 -44.84 
L 290.599081 -44.84 
L 292.017151 -44.84 
L 293.435221 -44.84 
L 294.853291 -44.84 
L 296.271362 -44.84 
L 297.689432 -44.84 
L 299.107502 -44.84 
L 300.525573 -44.84 
L 301.943643 -44.84 
L 303.361713 -44.84 
L 304.779783 -44.84 
L 306.197854 -44.84 
L 307.615924 -44.84 
L 309.033994 -44.84 
L 310.452064 -44.84 
L 311.870135 -44.84 
L 313.288205 -44.84 
L 314.706275 -44.84 
L 316.124345 -44.84 
L 317.542416 -44.84 
L 318.960486 -44.84 
L 320.378556 -44.84 
L 321.796626 -44.84 
L 323.214697 -44.84 
L 324.632767 -44.84 
L 326.050837 -44.84 
L 327.468908 -44.84 
L 328.886978 -44.84 
L 330.305048 -44.84 
L 331.723118 -44.84 
L 333.141189 -44.84 
L 334.559259 -44.84 
L 335.977329 -44.84 
L 337.395399 -44.84 
L 338.81347 -44.84 
L 340.23154 -44.84 
L 341.64961 -44.84 
L 343.06768 -44.84 
L 344.485751 -44.84 
L 345.903821 -44.84 
L 347.321891 -44.84 
L 347.321891 -44.844757 
L 347.321891 -44.844757 
L 345.903821 -44.848735 
L 344.485751 -44.855348 
L 343.06768 -44.865805 
L 341.64961 -44.881516 
L 340.23154 -44.903914 
L 338.81347 -44.934153 
L 337.395399 -44.972721 
L 335.977329 -45.019023 
L 334.559259 -45.071069 
L 333.141189 -45.125389 
L 331.723118 -45.177288 
L 330.305048 -45.221447 
L 328.886978 -45.252809 
L 327.468908 -45.267535 
L 326.050837 -45.263807 
L 324.632767 -45.24226 
L 323.214697 -45.205936 
L 321.796626 -45.159821 
L 320.378556 -45.110139 
L 318.960486 -45.063669 
L 317.542416 -45.027311 
L 316.124345 -45.008047 
L 314.706275 -45.013234 
L 313.288205 -45.051065 
L 311.870135 -45.130873 
L 310.452064 -45.262955 
L 309.033994 -45.457682 
L 307.615924 -45.723815 
L 306.197854 -46.066272 
L 304.779783 -46.483784 
L 303.361713 -46.967132 
L 301.943643 -47.498579 
L 300.525573 -48.052948 
L 299.107502 -48.600331 
L 297.689432 -49.109952 
L 296.271362 -49.554324 
L 294.853291 -49.91273 
L 293.435221 -50.173259 
L 292.017151 -50.333087 
L 290.599081 -50.397205 
L 289.18101 -50.376194 
L 287.76294 -50.283769 
L 286.34487 -50.134708 
L 284.9268 -49.943445 
L 283.508729 -49.723341 
L 282.090659 -49.486388 
L 280.672589 -49.243099 
L 279.254519 -49.002352 
L 277.836448 -48.771131 
L 276.418378 -48.554212 
L 275.000308 -48.353932 
L 273.582238 -48.170194 
L 272.164167 -48.000845 
L 270.746097 -47.842477 
L 269.328027 -47.691628 
L 267.909957 -47.546231 
L 266.491886 -47.407081 
L 265.073816 -47.279032 
L 263.655746 -47.171623 
L 262.237675 -47.098929 
L 260.819605 -47.078558 
L 259.401535 -47.129938 
L 257.983465 -47.272231 
L 256.565394 -47.522372 
L 255.147324 -47.893808 
L 253.729254 -48.396415 
L 252.311184 -49.037874 
L 250.893113 -49.826487 
L 249.475043 -50.775031 
L 248.056973 -51.90498 
L 246.638903 -53.250202 
L 245.220832 -54.85927 
L 243.802762 -56.795679 
L 242.384692 -59.135611 
L 240.966622 -61.963314 
L 239.548551 -65.364563 
L 238.130481 -69.419059 
L 236.712411 -74.192793 
L 235.29434 -79.731393 
L 233.87627 -86.055181 
L 232.4582 -93.156137 
L 231.04013 -100.996347 
L 229.622059 -109.507025 
L 228.203989 -118.587153 
L 226.785919 -128.101297 
L 225.367849 -137.877182 
L 223.949778 -147.704758 
L 222.531708 -157.339106 
L 221.113638 -166.509289 
L 219.695568 -174.933906 
L 218.277497 -182.342071 
L 216.859427 -188.496582 
L 215.441357 -193.214959 
L 214.023287 -196.384266 
L 212.605216 -197.96717 
L 211.187146 -197.998948 
L 209.769076 -196.57729 
L 208.351006 -193.848173 
L 206.932935 -189.991311 
L 205.514865 -185.207778 
L 204.096795 -179.710798 
L 202.678724 -173.71888 
L 201.260654 -167.449213 
L 199.842584 -161.109094 
L 198.424514 -154.884195 
L 197.006443 -148.924531 
L 195.588373 -143.331026 
L 194.170303 -138.146749 
L 192.752233 -133.356418 
L 191.334162 -128.89569 
L 189.916092 -124.668828 
L 188.498022 -120.570768 
L 187.079952 -116.508389 
L 185.661881 -112.416446 
L 184.243811 -108.265613 
L 182.825741 -104.062677 
L 181.407671 -99.844875 
L 179.9896 -95.671217 
L 178.57153 -91.613302 
L 177.15346 -87.747026 
L 175.73539 -84.145562 
L 174.317319 -80.873318 
L 172.899249 -77.980654 
L 171.481179 -75.499479 
L 170.063108 -73.44031 
L 168.645038 -71.791413 
L 167.226968 -70.52034 
L 165.808898 -69.577545 
L 164.390827 -68.901211 
L 162.972757 -68.422141 
L 161.554687 -68.067791 
L 160.136617 -67.765142 
L 158.718546 -67.442845 
L 157.300476 -67.033639 
L 155.882406 -66.478053 
L 154.464336 -65.729835 
L 153.046265 -64.762561 
L 151.628195 -63.575829 
L 150.210125 -62.198908 
L 148.792055 -60.689879 
L 147.373984 -59.129317 
L 145.955914 -57.608992 
L 144.537844 -56.217548 
L 143.119773 -55.026058 
L 141.701703 -54.076547 
L 140.283633 -53.375947 
L 138.865563 -52.896741 
L 137.447492 -52.584025 
L 136.029422 -52.367353 
L 134.611352 -52.174684 
L 133.193282 -51.945412 
L 131.775211 -51.639774 
L 130.357141 -51.242936 
L 128.939071 -50.763411 
L 127.521001 -50.226876 
L 126.10293 -49.667445 
L 124.68486 -49.118843 
L 123.26679 -48.607566 
L 121.84872 -48.149279 
L 120.430649 -47.74864 
L 119.012579 -47.401806 
L 117.594509 -47.100354 
L 116.176439 -46.835263 
L 114.758368 -46.599885 
L 113.340298 -46.39135 
L 111.922228 -46.210388 
L 110.504157 -46.059988 
L 109.086087 -45.943531 
L 107.668017 -45.863052 
L 106.249947 -45.818091 
L 104.831876 -45.805336 
L 103.413806 -45.818979 
L 101.995736 -45.851537 
L 100.577666 -45.894822 
L 99.159595 -45.94082 
L 97.741525 -45.982343 
L 96.323455 -46.013434 
L 94.905385 -46.02957 
L 93.487314 -46.027722 
L 92.069244 -46.006313 
L 90.651174 -45.965111 
L 89.233104 -45.905083 
L 87.815033 -45.82824 
L 86.396963 -45.737492 
L 84.978893 -45.636501 
L 83.560822 -45.529505 
L 82.142752 -45.421067 
L 80.724682 -45.315741 
L 79.306612 -45.217657 
L 77.888541 -45.130119 
L 76.470471 -45.055301 
L 75.052401 -44.994108 
L 73.634331 -44.946248 
L 72.21626 -44.910473 
L 70.79819 -44.884927 
L 69.38012 -44.867505 
L 67.96205 -44.85616 
L 66.543979 -44.849107 
L 65.125909 -44.84492 
z
" style="stroke: #bdbdbd; stroke-width: 2.5"/>
    </defs>
    <g clip-path="url(#pcb0afeae1a)">
     <use xlink:href="#m5957e9ee11" x="0" y="432" style="fill: #bdbdbd; fill-opacity: 0.5; stroke: #bdbdbd; stroke-width: 2.5"/>
    </g>
   </g>
   <g id="PolyCollection_4">
    <defs>
     <path id="mad3d4bf26b" d="M 279.278852 -44.847813 
L 279.278852 -44.84 
L 279.906818 -44.84 
L 280.534784 -44.84 
L 281.16275 -44.84 
L 281.790716 -44.84 
L 282.418682 -44.84 
L 283.046648 -44.84 
L 283.674614 -44.84 
L 284.30258 -44.84 
L 284.930546 -44.84 
L 285.558512 -44.84 
L 286.186478 -44.84 
L 286.814444 -44.84 
L 287.44241 -44.84 
L 288.070376 -44.84 
L 288.698342 -44.84 
L 289.326308 -44.84 
L 289.954274 -44.84 
L 290.58224 -44.84 
L 291.210206 -44.84 
L 291.838172 -44.84 
L 292.466138 -44.84 
L 293.094104 -44.84 
L 293.72207 -44.84 
L 294.350036 -44.84 
L 294.978002 -44.84 
L 295.605968 -44.84 
L 296.233934 -44.84 
L 296.8619 -44.84 
L 297.489866 -44.84 
L 298.117832 -44.84 
L 298.745798 -44.84 
L 299.373764 -44.84 
L 300.00173 -44.84 
L 300.629697 -44.84 
L 301.257663 -44.84 
L 301.885629 -44.84 
L 302.513595 -44.84 
L 303.141561 -44.84 
L 303.769527 -44.84 
L 304.397493 -44.84 
L 305.025459 -44.84 
L 305.653425 -44.84 
L 306.281391 -44.84 
L 306.909357 -44.84 
L 307.537323 -44.84 
L 308.165289 -44.84 
L 308.793255 -44.84 
L 309.421221 -44.84 
L 310.049187 -44.84 
L 310.677153 -44.84 
L 311.305119 -44.84 
L 311.933085 -44.84 
L 312.561051 -44.84 
L 313.189017 -44.84 
L 313.816983 -44.84 
L 314.444949 -44.84 
L 315.072915 -44.84 
L 315.700881 -44.84 
L 316.328847 -44.84 
L 316.956813 -44.84 
L 317.584779 -44.84 
L 318.212745 -44.84 
L 318.840711 -44.84 
L 319.468677 -44.84 
L 320.096643 -44.84 
L 320.724609 -44.84 
L 321.352575 -44.84 
L 321.980541 -44.84 
L 322.608507 -44.84 
L 323.236473 -44.84 
L 323.86444 -44.84 
L 324.492406 -44.84 
L 325.120372 -44.84 
L 325.748338 -44.84 
L 326.376304 -44.84 
L 327.00427 -44.84 
L 327.632236 -44.84 
L 328.260202 -44.84 
L 328.888168 -44.84 
L 329.516134 -44.84 
L 330.1441 -44.84 
L 330.772066 -44.84 
L 331.400032 -44.84 
L 332.027998 -44.84 
L 332.655964 -44.84 
L 333.28393 -44.84 
L 333.911896 -44.84 
L 334.539862 -44.84 
L 335.167828 -44.84 
L 335.795794 -44.84 
L 336.42376 -44.84 
L 337.051726 -44.84 
L 337.679692 -44.84 
L 338.307658 -44.84 
L 338.935624 -44.84 
L 339.56359 -44.84 
L 340.191556 -44.84 
L 340.819522 -44.84 
L 341.447488 -44.84 
L 342.075454 -44.84 
L 342.70342 -44.84 
L 343.331386 -44.84 
L 343.959352 -44.84 
L 344.587318 -44.84 
L 345.215284 -44.84 
L 345.84325 -44.84 
L 346.471216 -44.84 
L 347.099182 -44.84 
L 347.727149 -44.84 
L 348.355115 -44.84 
L 348.983081 -44.84 
L 349.611047 -44.84 
L 350.239013 -44.84 
L 350.866979 -44.84 
L 351.494945 -44.84 
L 352.122911 -44.84 
L 352.750877 -44.84 
L 353.378843 -44.84 
L 354.006809 -44.84 
L 354.634775 -44.84 
L 355.262741 -44.84 
L 355.890707 -44.84 
L 356.518673 -44.84 
L 357.146639 -44.84 
L 357.774605 -44.84 
L 358.402571 -44.84 
L 359.030537 -44.84 
L 359.658503 -44.84 
L 360.286469 -44.84 
L 360.914435 -44.84 
L 361.542401 -44.84 
L 362.170367 -44.84 
L 362.798333 -44.84 
L 363.426299 -44.84 
L 364.054265 -44.84 
L 364.682231 -44.84 
L 365.310197 -44.84 
L 365.938163 -44.84 
L 366.566129 -44.84 
L 367.194095 -44.84 
L 367.822061 -44.84 
L 368.450027 -44.84 
L 369.077993 -44.84 
L 369.705959 -44.84 
L 370.333925 -44.84 
L 370.961891 -44.84 
L 371.589858 -44.84 
L 372.217824 -44.84 
L 372.84579 -44.84 
L 373.473756 -44.84 
L 374.101722 -44.84 
L 374.729688 -44.84 
L 375.357654 -44.84 
L 375.98562 -44.84 
L 376.613586 -44.84 
L 377.241552 -44.84 
L 377.869518 -44.84 
L 378.497484 -44.84 
L 379.12545 -44.84 
L 379.753416 -44.84 
L 380.381382 -44.84 
L 381.009348 -44.84 
L 381.637314 -44.84 
L 382.26528 -44.84 
L 382.893246 -44.84 
L 383.521212 -44.84 
L 384.149178 -44.84 
L 384.777144 -44.84 
L 385.40511 -44.84 
L 386.033076 -44.84 
L 386.661042 -44.84 
L 387.289008 -44.84 
L 387.916974 -44.84 
L 388.54494 -44.84 
L 389.172906 -44.84 
L 389.800872 -44.84 
L 390.428838 -44.84 
L 391.056804 -44.84 
L 391.68477 -44.84 
L 392.312736 -44.84 
L 392.940702 -44.84 
L 393.568668 -44.84 
L 394.196634 -44.84 
L 394.824601 -44.84 
L 395.452567 -44.84 
L 396.080533 -44.84 
L 396.708499 -44.84 
L 397.336465 -44.84 
L 397.964431 -44.84 
L 398.592397 -44.84 
L 399.220363 -44.84 
L 399.848329 -44.84 
L 400.476295 -44.84 
L 401.104261 -44.84 
L 401.732227 -44.84 
L 402.360193 -44.84 
L 402.988159 -44.84 
L 403.616125 -44.84 
L 404.244091 -44.84 
L 404.244091 -44.874395 
L 404.244091 -44.874395 
L 403.616125 -44.896446 
L 402.988159 -44.930753 
L 402.360193 -44.982973 
L 401.732227 -45.060758 
L 401.104261 -45.174159 
L 400.476295 -45.336001 
L 399.848329 -45.562164 
L 399.220363 -45.871713 
L 398.592397 -46.286807 
L 397.964431 -46.832362 
L 397.336465 -47.535422 
L 396.708499 -48.424265 
L 396.080533 -49.527301 
L 395.452567 -50.871848 
L 394.824601 -52.482918 
L 394.196634 -54.382153 
L 393.568668 -56.58704 
L 392.940702 -59.110506 
L 392.312736 -61.96095 
L 391.68477 -65.142697 
L 391.056804 -68.656833 
L 390.428838 -72.502311 
L 389.800872 -76.677206 
L 389.172906 -81.180014 
L 388.54494 -86.010856 
L 387.916974 -91.172503 
L 387.289008 -96.671093 
L 386.661042 -102.516434 
L 386.033076 -108.721739 
L 385.40511 -115.302639 
L 384.777144 -122.275342 
L 384.149178 -129.653847 
L 383.521212 -137.44627 
L 382.893246 -145.65049 
L 382.26528 -154.249512 
L 381.637314 -163.207124 
L 381.009348 -172.464522 
L 380.381382 -181.938588 
L 379.753416 -191.522351 
L 379.12545 -201.087962 
L 378.497484 -210.492124 
L 377.869518 -219.58361 
L 377.241552 -228.212139 
L 376.613586 -236.237636 
L 375.98562 -243.538835 
L 375.357654 -250.020166 
L 374.729688 -255.616131 
L 374.101722 -260.292626 
L 373.473756 -264.045094 
L 372.84579 -266.893802 
L 372.217824 -268.87693 
L 371.589858 -270.04249 
L 370.961891 -270.44027 
L 370.333925 -270.115028 
L 369.705959 -269.102003 
L 369.077993 -267.425443 
L 368.450027 -265.10037 
L 367.822061 -262.137237 
L 367.194095 -258.548577 
L 366.566129 -254.356354 
L 365.938163 -249.598529 
L 365.310197 -244.333475 
L 364.682231 -238.6412 
L 364.054265 -232.620948 
L 363.426299 -226.385409 
L 362.798333 -220.052374 
L 362.170367 -213.735178 
L 361.542401 -207.533416 
L 360.914435 -201.525368 
L 360.286469 -195.763191 
L 359.658503 -190.271409 
L 359.030537 -185.048662 
L 358.402571 -180.072144 
L 357.774605 -175.303798 
L 357.146639 -170.697229 
L 356.518673 -166.204322 
L 355.890707 -161.780815 
L 355.262741 -157.390409 
L 354.634775 -153.007298 
L 354.006809 -148.617285 
L 353.378843 -144.217787 
L 352.750877 -139.817059 
L 352.122911 -135.43291 
L 351.494945 -131.091069 
L 350.866979 -126.823279 
L 350.239013 -122.665136 
L 349.611047 -118.653709 
L 348.983081 -114.82506 
L 348.355115 -111.211825 
L 347.727149 -107.841133 
L 347.099182 -104.733085 
L 346.471216 -101.899978 
L 345.84325 -99.34634 
L 345.215284 -97.069664 
L 344.587318 -95.061622 
L 343.959352 -93.309467 
L 343.331386 -91.797308 
L 342.70342 -90.507058 
L 342.075454 -89.418945 
L 341.447488 -88.511639 
L 340.819522 -87.762142 
L 340.191556 -87.145659 
L 339.56359 -86.635621 
L 338.935624 -86.204015 
L 338.307658 -85.822031 
L 337.679692 -85.460971 
L 337.051726 -85.093297 
L 336.42376 -84.693658 
L 335.795794 -84.239792 
L 335.167828 -83.713206 
L 334.539862 -83.099628 
L 333.911896 -82.38927 
L 333.28393 -81.576953 
L 332.655964 -80.66214 
L 332.027998 -79.648928 
L 331.400032 -78.545971 
L 330.772066 -77.366328 
L 330.1441 -76.127156 
L 329.516134 -74.849226 
L 328.888168 -73.55619 
L 328.260202 -72.273582 
L 327.632236 -71.027564 
L 327.00427 -69.843421 
L 326.376304 -68.743896 
L 325.748338 -67.747446 
L 325.120372 -66.866573 
L 324.492406 -66.106403 
L 323.86444 -65.46372 
L 323.236473 -64.926641 
L 322.608507 -64.475074 
L 321.980541 -64.08205 
L 321.352575 -63.715859 
L 320.724609 -63.342835 
L 320.096643 -62.930506 
L 319.468677 -62.450739 
L 318.840711 -61.882498 
L 318.212745 -61.213869 
L 317.584779 -60.443093 
L 316.956813 -59.578513 
L 316.328847 -58.637471 
L 315.700881 -57.644347 
L 315.072915 -56.628029 
L 314.444949 -55.619146 
L 313.816983 -54.647379 
L 313.189017 -53.739133 
L 312.561051 -52.915727 
L 311.933085 -52.192188 
L 311.305119 -51.576656 
L 310.677153 -51.070335 
L 310.049187 -50.66791 
L 309.421221 -50.358338 
L 308.793255 -50.125948 
L 308.165289 -49.951774 
L 307.537323 -49.815062 
L 306.909357 -49.694879 
L 306.281391 -49.571716 
L 305.653425 -49.42898 
L 305.025459 -49.254214 
L 304.397493 -49.039948 
L 303.769527 -48.784049 
L 303.141561 -48.489552 
L 302.513595 -48.163984 
L 301.885629 -47.81828 
L 301.257663 -47.465423 
L 300.629697 -47.119 
L 300.00173 -46.791838 
L 299.373764 -46.494863 
L 298.745798 -46.236279 
L 298.117832 -46.021121 
L 297.489866 -45.851154 
L 296.8619 -45.725078 
L 296.233934 -45.638975 
L 295.605968 -45.586906 
L 294.978002 -45.561582 
L 294.350036 -45.555068 
L 293.72207 -45.559436 
L 293.094104 -45.567356 
L 292.466138 -45.572577 
L 291.838172 -45.57027 
L 291.210206 -45.557228 
L 290.58224 -45.531914 
L 289.954274 -45.494342 
L 289.326308 -45.445851 
L 288.698342 -45.388766 
L 288.070376 -45.326015 
L 287.44241 -45.260743 
L 286.814444 -45.195961 
L 286.186478 -45.134275 
L 285.558512 -45.077704 
L 284.930546 -45.027599 
L 284.30258 -44.984652 
L 283.674614 -44.94897 
L 283.046648 -44.9202 
L 282.418682 -44.897666 
L 281.790716 -44.880509 
L 281.16275 -44.867801 
L 280.534784 -44.85864 
L 279.906818 -44.85221 
L 279.278852 -44.847813 
z
" style="stroke: #92c5de; stroke-width: 2.5"/>
    </defs>
    <g clip-path="url(#pcb0afeae1a)">
     <use xlink:href="#mad3d4bf26b" x="0" y="432" style="fill: #92c5de; fill-opacity: 0.5; stroke: #92c5de; stroke-width: 2.5"/>
    </g>
   </g>
   <g id="PolyCollection_5">
    <defs>
     <path id="mcac018a931" d="M 292.859691 -44.850321 
L 292.859691 -44.84 
L 293.418321 -44.84 
L 293.976952 -44.84 
L 294.535582 -44.84 
L 295.094212 -44.84 
L 295.652842 -44.84 
L 296.211473 -44.84 
L 296.770103 -44.84 
L 297.328733 -44.84 
L 297.887363 -44.84 
L 298.445994 -44.84 
L 299.004624 -44.84 
L 299.563254 -44.84 
L 300.121884 -44.84 
L 300.680515 -44.84 
L 301.239145 -44.84 
L 301.797775 -44.84 
L 302.356405 -44.84 
L 302.915036 -44.84 
L 303.473666 -44.84 
L 304.032296 -44.84 
L 304.590926 -44.84 
L 305.149557 -44.84 
L 305.708187 -44.84 
L 306.266817 -44.84 
L 306.825447 -44.84 
L 307.384078 -44.84 
L 307.942708 -44.84 
L 308.501338 -44.84 
L 309.059968 -44.84 
L 309.618599 -44.84 
L 310.177229 -44.84 
L 310.735859 -44.84 
L 311.294489 -44.84 
L 311.85312 -44.84 
L 312.41175 -44.84 
L 312.97038 -44.84 
L 313.52901 -44.84 
L 314.087641 -44.84 
L 314.646271 -44.84 
L 315.204901 -44.84 
L 315.763531 -44.84 
L 316.322162 -44.84 
L 316.880792 -44.84 
L 317.439422 -44.84 
L 317.998053 -44.84 
L 318.556683 -44.84 
L 319.115313 -44.84 
L 319.673943 -44.84 
L 320.232574 -44.84 
L 320.791204 -44.84 
L 321.349834 -44.84 
L 321.908464 -44.84 
L 322.467095 -44.84 
L 323.025725 -44.84 
L 323.584355 -44.84 
L 324.142985 -44.84 
L 324.701616 -44.84 
L 325.260246 -44.84 
L 325.818876 -44.84 
L 326.377506 -44.84 
L 326.936137 -44.84 
L 327.494767 -44.84 
L 328.053397 -44.84 
L 328.612027 -44.84 
L 329.170658 -44.84 
L 329.729288 -44.84 
L 330.287918 -44.84 
L 330.846548 -44.84 
L 331.405179 -44.84 
L 331.963809 -44.84 
L 332.522439 -44.84 
L 333.081069 -44.84 
L 333.6397 -44.84 
L 334.19833 -44.84 
L 334.75696 -44.84 
L 335.31559 -44.84 
L 335.874221 -44.84 
L 336.432851 -44.84 
L 336.991481 -44.84 
L 337.550111 -44.84 
L 338.108742 -44.84 
L 338.667372 -44.84 
L 339.226002 -44.84 
L 339.784632 -44.84 
L 340.343263 -44.84 
L 340.901893 -44.84 
L 341.460523 -44.84 
L 342.019153 -44.84 
L 342.577784 -44.84 
L 343.136414 -44.84 
L 343.695044 -44.84 
L 344.253675 -44.84 
L 344.812305 -44.84 
L 345.370935 -44.84 
L 345.929565 -44.84 
L 346.488196 -44.84 
L 347.046826 -44.84 
L 347.605456 -44.84 
L 348.164086 -44.84 
L 348.722717 -44.84 
L 349.281347 -44.84 
L 349.839977 -44.84 
L 350.398607 -44.84 
L 350.957238 -44.84 
L 351.515868 -44.84 
L 352.074498 -44.84 
L 352.633128 -44.84 
L 353.191759 -44.84 
L 353.750389 -44.84 
L 354.309019 -44.84 
L 354.867649 -44.84 
L 355.42628 -44.84 
L 355.98491 -44.84 
L 356.54354 -44.84 
L 357.10217 -44.84 
L 357.660801 -44.84 
L 358.219431 -44.84 
L 358.778061 -44.84 
L 359.336691 -44.84 
L 359.895322 -44.84 
L 360.453952 -44.84 
L 361.012582 -44.84 
L 361.571212 -44.84 
L 362.129843 -44.84 
L 362.688473 -44.84 
L 363.247103 -44.84 
L 363.805733 -44.84 
L 364.364364 -44.84 
L 364.922994 -44.84 
L 365.481624 -44.84 
L 366.040254 -44.84 
L 366.598885 -44.84 
L 367.157515 -44.84 
L 367.716145 -44.84 
L 368.274775 -44.84 
L 368.833406 -44.84 
L 369.392036 -44.84 
L 369.950666 -44.84 
L 370.509296 -44.84 
L 371.067927 -44.84 
L 371.626557 -44.84 
L 372.185187 -44.84 
L 372.743818 -44.84 
L 373.302448 -44.84 
L 373.861078 -44.84 
L 374.419708 -44.84 
L 374.978339 -44.84 
L 375.536969 -44.84 
L 376.095599 -44.84 
L 376.654229 -44.84 
L 377.21286 -44.84 
L 377.77149 -44.84 
L 378.33012 -44.84 
L 378.88875 -44.84 
L 379.447381 -44.84 
L 380.006011 -44.84 
L 380.564641 -44.84 
L 381.123271 -44.84 
L 381.681902 -44.84 
L 382.240532 -44.84 
L 382.799162 -44.84 
L 383.357792 -44.84 
L 383.916423 -44.84 
L 384.475053 -44.84 
L 385.033683 -44.84 
L 385.592313 -44.84 
L 386.150944 -44.84 
L 386.709574 -44.84 
L 387.268204 -44.84 
L 387.826834 -44.84 
L 388.385465 -44.84 
L 388.944095 -44.84 
L 389.502725 -44.84 
L 390.061355 -44.84 
L 390.619986 -44.84 
L 391.178616 -44.84 
L 391.737246 -44.84 
L 392.295876 -44.84 
L 392.854507 -44.84 
L 393.413137 -44.84 
L 393.971767 -44.84 
L 394.530397 -44.84 
L 395.089028 -44.84 
L 395.647658 -44.84 
L 396.206288 -44.84 
L 396.764918 -44.84 
L 397.323549 -44.84 
L 397.882179 -44.84 
L 398.440809 -44.84 
L 398.999439 -44.84 
L 399.55807 -44.84 
L 400.1167 -44.84 
L 400.67533 -44.84 
L 401.233961 -44.84 
L 401.792591 -44.84 
L 402.351221 -44.84 
L 402.909851 -44.84 
L 403.468482 -44.84 
L 404.027112 -44.84 
L 404.027112 -45.020412 
L 404.027112 -45.020412 
L 403.468482 -45.154136 
L 402.909851 -45.371623 
L 402.351221 -45.714826 
L 401.792591 -46.240523 
L 401.233961 -47.022479 
L 400.67533 -48.152557 
L 400.1167 -49.740215 
L 399.55807 -51.909909 
L 398.999439 -54.796169 
L 398.440809 -58.536468 
L 397.882179 -63.262451 
L 397.323549 -69.090551 
L 396.764918 -76.113308 
L 396.206288 -84.392882 
L 395.647658 -93.958006 
L 395.089028 -104.805107 
L 394.530397 -116.903509 
L 393.971767 -130.203585 
L 393.413137 -144.645785 
L 392.854507 -160.167861 
L 392.295876 -176.707558 
L 391.737246 -194.198812 
L 391.178616 -212.5609 
L 390.619986 -231.681921 
L 390.061355 -251.399779 
L 389.502725 -271.485129 
L 388.944095 -291.63092 
L 388.385465 -311.452251 
L 387.826834 -330.498204 
L 387.268204 -348.274899 
L 386.709574 -364.276667 
L 386.150944 -378.020787 
L 385.592313 -389.080917 
L 385.033683 -397.115259 
L 384.475053 -401.887195 
L 383.916423 -403.278095 
L 383.357792 -401.293445 
L 382.799162 -396.064029 
L 382.240532 -387.843429 
L 381.681902 -377.001849 
L 381.123271 -364.014897 
L 380.564641 -349.445088 
L 380.006011 -333.914075 
L 379.447381 -318.065115 
L 378.88875 -302.517734 
L 378.33012 -287.819225 
L 377.77149 -274.399671 
L 377.21286 -262.537782 
L 376.654229 -252.343653 
L 376.095599 -243.761813 
L 375.536969 -236.594213 
L 374.978339 -230.539126 
L 374.419708 -225.239171 
L 373.861078 -220.330464 
L 373.302448 -215.485415 
L 372.743818 -210.443643 
L 372.185187 -205.028273 
L 371.626557 -199.147821 
L 371.067927 -192.786309 
L 370.509296 -185.985786 
L 369.950666 -178.825938 
L 369.392036 -171.405008 
L 368.833406 -163.825059 
L 368.274775 -156.183082 
L 367.716145 -148.567853 
L 367.157515 -141.061119 
L 366.598885 -133.740896 
L 366.040254 -126.684465 
L 365.481624 -119.969111 
L 364.922994 -113.669589 
L 364.364364 -107.852477 
L 363.805733 -102.56867 
L 363.247103 -97.846023 
L 362.688473 -93.684287 
L 362.129843 -90.054076 
L 361.571212 -86.900665 
L 361.012582 -84.152315 
L 360.453952 -81.731711 
L 359.895322 -79.568379 
L 359.336691 -77.609658 
L 358.778061 -75.828034 
L 358.219431 -74.22329 
L 357.660801 -72.818871 
L 357.10217 -71.652948 
L 356.54354 -70.765641 
L 355.98491 -70.184759 
L 355.42628 -69.91279 
L 354.867649 -69.917945 
L 354.309019 -70.131432 
L 353.750389 -70.452092 
L 353.191759 -70.758089 
L 352.633128 -70.92385 
L 352.074498 -70.839259 
L 351.515868 -70.427521 
L 350.957238 -69.658338 
L 350.398607 -68.553991 
L 349.839977 -67.187422 
L 349.281347 -65.672976 
L 348.722717 -64.151703 
L 348.164086 -62.7738 
L 347.605456 -61.68073 
L 347.046826 -60.989052 
L 346.488196 -60.777278 
L 345.929565 -61.076487 
L 345.370935 -61.865155 
L 344.812305 -63.068632 
L 344.253675 -64.56382 
L 343.695044 -66.18941 
L 343.136414 -67.761541 
L 342.577784 -69.09373 
L 342.019153 -70.018783 
L 341.460523 -70.409444 
L 340.901893 -70.19424 
L 340.343263 -69.365509 
L 339.784632 -67.978043 
L 339.226002 -66.138654 
L 338.667372 -63.988841 
L 338.108742 -61.684097 
L 337.550111 -59.373765 
L 336.991481 -57.184831 
L 336.432851 -55.211775 
L 335.874221 -53.512985 
L 335.31559 -52.112862 
L 334.75696 -51.00779 
L 334.19833 -50.173886 
L 333.6397 -49.574733 
L 333.081069 -49.167931 
L 332.522439 -48.910028 
L 331.963809 -48.759938 
L 331.405179 -48.681221 
L 330.846548 -48.643618 
L 330.287918 -48.624038 
L 329.729288 -48.606963 
L 329.170658 -48.584127 
L 328.612027 -48.553341 
L 328.053397 -48.516502 
L 327.494767 -48.477077 
L 326.936137 -48.43756 
L 326.377506 -48.397484 
L 325.818876 -48.352466 
L 325.260246 -48.294524 
L 324.701616 -48.213575 
L 324.142985 -48.09972 
L 323.584355 -47.945712 
L 323.025725 -47.748985 
L 322.467095 -47.512772 
L 321.908464 -47.246073 
L 321.349834 -46.962521 
L 320.791204 -46.678454 
L 320.232574 -46.410609 
L 319.673943 -46.173886 
L 319.115313 -45.979546 
L 318.556683 -45.83405 
L 317.998053 -45.738626 
L 317.439422 -45.689509 
L 316.880792 -45.678739 
L 316.322162 -45.69536 
L 315.763531 -45.726865 
L 315.204901 -45.760705 
L 314.646271 -45.785713 
L 314.087641 -45.793286 
L 313.52901 -45.778174 
L 312.97038 -45.738806 
L 312.41175 -45.677132 
L 311.85312 -45.598026 
L 311.294489 -45.508397 
L 310.735859 -45.416176 
L 310.177229 -45.329335 
L 309.618599 -45.255089 
L 309.059968 -45.199329 
L 308.501338 -45.166295 
L 307.942708 -45.158413 
L 307.384078 -45.176247 
L 306.825447 -45.218488 
L 306.266817 -45.281961 
L 305.708187 -45.361705 
L 305.149557 -45.451164 
L 304.590926 -45.542572 
L 304.032296 -45.627563 
L 303.473666 -45.697978 
L 302.915036 -45.746769 
L 302.356405 -45.768863 
L 301.797775 -45.761805 
L 301.239145 -45.726043 
L 300.680515 -45.664796 
L 300.121884 -45.583509 
L 299.563254 -45.489024 
L 299.004624 -45.38861 
L 298.445994 -45.289045 
L 297.887363 -45.195909 
L 297.328733 -45.113156 
L 296.770103 -45.043003 
L 296.211473 -44.986088 
L 295.652842 -44.9418 
L 295.094212 -44.908691 
L 294.535582 -44.884882 
L 293.976952 -44.868397 
L 293.418321 -44.857397 
L 292.859691 -44.850321 
z
" style="stroke: #2166ac; stroke-width: 2.5"/>
    </defs>
    <g clip-path="url(#pcb0afeae1a)">
     <use xlink:href="#mcac018a931" x="0" y="432" style="fill: #2166ac; fill-opacity: 0.5; stroke: #2166ac; stroke-width: 2.5"/>
    </g>
   </g>
   <g id="matplotlib.axis_1">
    <g id="xtick_1">
     <g id="line2d_1">
      <defs>
       <path id="m3311d65fba" d="M 0 0 
L 0 3.5 
" style="stroke: #000000; stroke-width: 0.8"/>
      </defs>
      <g>
       <use xlink:href="#m3311d65fba" x="67.081237" y="387.16" style="stroke: #000000; stroke-width: 0.8"/>
      </g>
     </g>
     <g id="text_1">
      <!-- 3.90 -->
      <g transform="translate(55.948425 401.758438) scale(0.1 -0.1)">
       <defs>
        <path id="DejaVuSans-33" d="M 2597 2516 
Q 3050 2419 3304 2112 
Q 3559 1806 3559 1356 
Q 3559 666 3084 287 
Q 2609 -91 1734 -91 
Q 1441 -91 1130 -33 
Q 819 25 488 141 
L 488 750 
Q 750 597 1062 519 
Q 1375 441 1716 441 
Q 2309 441 2620 675 
Q 2931 909 2931 1356 
Q 2931 1769 2642 2001 
Q 2353 2234 1838 2234 
L 1294 2234 
L 1294 2753 
L 1863 2753 
Q 2328 2753 2575 2939 
Q 2822 3125 2822 3475 
Q 2822 3834 2567 4026 
Q 2313 4219 1838 4219 
Q 1578 4219 1281 4162 
Q 984 4106 628 3988 
L 628 4550 
Q 988 4650 1302 4700 
Q 1616 4750 1894 4750 
Q 2613 4750 3031 4423 
Q 3450 4097 3450 3541 
Q 3450 3153 3228 2886 
Q 3006 2619 2597 2516 
z
" transform="scale(0.015625)"/>
        <path id="DejaVuSans-2e" d="M 684 794 
L 1344 794 
L 1344 0 
L 684 0 
L 684 794 
z
" transform="scale(0.015625)"/>
        <path id="DejaVuSans-39" d="M 703 97 
L 703 672 
Q 941 559 1184 500 
Q 1428 441 1663 441 
Q 2288 441 2617 861 
Q 2947 1281 2994 2138 
Q 2813 1869 2534 1725 
Q 2256 1581 1919 1581 
Q 1219 1581 811 2004 
Q 403 2428 403 3163 
Q 403 3881 828 4315 
Q 1253 4750 1959 4750 
Q 2769 4750 3195 4129 
Q 3622 3509 3622 2328 
Q 3622 1225 3098 567 
Q 2575 -91 1691 -91 
Q 1453 -91 1209 -44 
Q 966 3 703 97 
z
M 1959 2075 
Q 2384 2075 2632 2365 
Q 2881 2656 2881 3163 
Q 2881 3666 2632 3958 
Q 2384 4250 1959 4250 
Q 1534 4250 1286 3958 
Q 1038 3666 1038 3163 
Q 1038 2656 1286 2365 
Q 1534 2075 1959 2075 
z
" transform="scale(0.015625)"/>
        <path id="DejaVuSans-30" d="M 2034 4250 
Q 1547 4250 1301 3770 
Q 1056 3291 1056 2328 
Q 1056 1369 1301 889 
Q 1547 409 2034 409 
Q 2525 409 2770 889 
Q 3016 1369 3016 2328 
Q 3016 3291 2770 3770 
Q 2525 4250 2034 4250 
z
M 2034 4750 
Q 2819 4750 3233 4129 
Q 3647 3509 3647 2328 
Q 3647 1150 3233 529 
Q 2819 -91 2034 -91 
Q 1250 -91 836 529 
Q 422 1150 422 2328 
Q 422 3509 836 4129 
Q 1250 4750 2034 4750 
z
" transform="scale(0.015625)"/>
       </defs>
       <use xlink:href="#DejaVuSans-33"/>
       <use xlink:href="#DejaVuSans-2e" x="63.623047"/>
       <use xlink:href="#DejaVuSans-39" x="95.410156"/>
       <use xlink:href="#DejaVuSans-30" x="159.033203"/>
      </g>
     </g>
    </g>
    <g id="xtick_2">
     <g id="line2d_2">
      <g>
       <use xlink:href="#m3311d65fba" x="119.023647" y="387.16" style="stroke: #000000; stroke-width: 0.8"/>
      </g>
     </g>
     <g id="text_2">
      <!-- 3.95 -->
      <g transform="translate(107.890834 401.758438) scale(0.1 -0.1)">
       <defs>
        <path id="DejaVuSans-35" d="M 691 4666 
L 3169 4666 
L 3169 4134 
L 1269 4134 
L 1269 2991 
Q 1406 3038 1543 3061 
Q 1681 3084 1819 3084 
Q 2600 3084 3056 2656 
Q 3513 2228 3513 1497 
Q 3513 744 3044 326 
Q 2575 -91 1722 -91 
Q 1428 -91 1123 -41 
Q 819 9 494 109 
L 494 744 
Q 775 591 1075 516 
Q 1375 441 1709 441 
Q 2250 441 2565 725 
Q 2881 1009 2881 1497 
Q 2881 1984 2565 2268 
Q 2250 2553 1709 2553 
Q 1456 2553 1204 2497 
Q 953 2441 691 2322 
L 691 4666 
z
" transform="scale(0.015625)"/>
       </defs>
       <use xlink:href="#DejaVuSans-33"/>
       <use xlink:href="#DejaVuSans-2e" x="63.623047"/>
       <use xlink:href="#DejaVuSans-39" x="95.410156"/>
       <use xlink:href="#DejaVuSans-35" x="159.033203"/>
      </g>
     </g>
    </g>
    <g id="xtick_3">
     <g id="line2d_3">
      <g>
       <use xlink:href="#m3311d65fba" x="170.966056" y="387.16" style="stroke: #000000; stroke-width: 0.8"/>
      </g>
     </g>
     <g id="text_3">
      <!-- 4.00 -->
      <g transform="translate(159.833243 401.758438) scale(0.1 -0.1)">
       <defs>
        <path id="DejaVuSans-34" d="M 2419 4116 
L 825 1625 
L 2419 1625 
L 2419 4116 
z
M 2253 4666 
L 3047 4666 
L 3047 1625 
L 3713 1625 
L 3713 1100 
L 3047 1100 
L 3047 0 
L 2419 0 
L 2419 1100 
L 313 1100 
L 313 1709 
L 2253 4666 
z
" transform="scale(0.015625)"/>
       </defs>
       <use xlink:href="#DejaVuSans-34"/>
       <use xlink:href="#DejaVuSans-2e" x="63.623047"/>
       <use xlink:href="#DejaVuSans-30" x="95.410156"/>
       <use xlink:href="#DejaVuSans-30" x="159.033203"/>
      </g>
     </g>
    </g>
    <g id="xtick_4">
     <g id="line2d_4">
      <g>
       <use xlink:href="#m3311d65fba" x="222.908465" y="387.16" style="stroke: #000000; stroke-width: 0.8"/>
      </g>
     </g>
     <g id="text_4">
      <!-- 4.05 -->
      <g transform="translate(211.775653 401.758438) scale(0.1 -0.1)">
       <use xlink:href="#DejaVuSans-34"/>
       <use xlink:href="#DejaVuSans-2e" x="63.623047"/>
       <use xlink:href="#DejaVuSans-30" x="95.410156"/>
       <use xlink:href="#DejaVuSans-35" x="159.033203"/>
      </g>
     </g>
    </g>
    <g id="xtick_5">
     <g id="line2d_5">
      <g>
       <use xlink:href="#m3311d65fba" x="274.850875" y="387.16" style="stroke: #000000; stroke-width: 0.8"/>
      </g>
     </g>
     <g id="text_5">
      <!-- 4.10 -->
      <g transform="translate(263.718062 401.758438) scale(0.1 -0.1)">
       <defs>
        <path id="DejaVuSans-31" d="M 794 531 
L 1825 531 
L 1825 4091 
L 703 3866 
L 703 4441 
L 1819 4666 
L 2450 4666 
L 2450 531 
L 3481 531 
L 3481 0 
L 794 0 
L 794 531 
z
" transform="scale(0.015625)"/>
       </defs>
       <use xlink:href="#DejaVuSans-34"/>
       <use xlink:href="#DejaVuSans-2e" x="63.623047"/>
       <use xlink:href="#DejaVuSans-31" x="95.410156"/>
       <use xlink:href="#DejaVuSans-30" x="159.033203"/>
      </g>
     </g>
    </g>
    <g id="xtick_6">
     <g id="line2d_6">
      <g>
       <use xlink:href="#m3311d65fba" x="326.793284" y="387.16" style="stroke: #000000; stroke-width: 0.8"/>
      </g>
     </g>
     <g id="text_6">
      <!-- 4.15 -->
      <g transform="translate(315.660471 401.758438) scale(0.1 -0.1)">
       <use xlink:href="#DejaVuSans-34"/>
       <use xlink:href="#DejaVuSans-2e" x="63.623047"/>
       <use xlink:href="#DejaVuSans-31" x="95.410156"/>
       <use xlink:href="#DejaVuSans-35" x="159.033203"/>
      </g>
     </g>
    </g>
    <g id="xtick_7">
     <g id="line2d_7">
      <g>
       <use xlink:href="#m3311d65fba" x="378.735693" y="387.16" style="stroke: #000000; stroke-width: 0.8"/>
      </g>
     </g>
     <g id="text_7">
      <!-- 4.20 -->
      <g transform="translate(367.602881 401.758438) scale(0.1 -0.1)">
       <defs>
        <path id="DejaVuSans-32" d="M 1228 531 
L 3431 531 
L 3431 0 
L 469 0 
L 469 531 
Q 828 903 1448 1529 
Q 2069 2156 2228 2338 
Q 2531 2678 2651 2914 
Q 2772 3150 2772 3378 
Q 2772 3750 2511 3984 
Q 2250 4219 1831 4219 
Q 1534 4219 1204 4116 
Q 875 4013 500 3803 
L 500 4441 
Q 881 4594 1212 4672 
Q 1544 4750 1819 4750 
Q 2544 4750 2975 4387 
Q 3406 4025 3406 3419 
Q 3406 3131 3298 2873 
Q 3191 2616 2906 2266 
Q 2828 2175 2409 1742 
Q 1991 1309 1228 531 
z
" transform="scale(0.015625)"/>
       </defs>
       <use xlink:href="#DejaVuSans-34"/>
       <use xlink:href="#DejaVuSans-2e" x="63.623047"/>
       <use xlink:href="#DejaVuSans-32" x="95.410156"/>
       <use xlink:href="#DejaVuSans-30" x="159.033203"/>
      </g>
     </g>
    </g>
    <g id="text_8">
     <!-- Predicted Fluorescence -->
     <g transform="translate(165.08875 416.95625) scale(0.12 -0.12)">
      <defs>
       <path id="DejaVuSans-50" d="M 1259 4147 
L 1259 2394 
L 2053 2394 
Q 2494 2394 2734 2622 
Q 2975 2850 2975 3272 
Q 2975 3691 2734 3919 
Q 2494 4147 2053 4147 
L 1259 4147 
z
M 628 4666 
L 2053 4666 
Q 2838 4666 3239 4311 
Q 3641 3956 3641 3272 
Q 3641 2581 3239 2228 
Q 2838 1875 2053 1875 
L 1259 1875 
L 1259 0 
L 628 0 
L 628 4666 
z
" transform="scale(0.015625)"/>
       <path id="DejaVuSans-72" d="M 2631 2963 
Q 2534 3019 2420 3045 
Q 2306 3072 2169 3072 
Q 1681 3072 1420 2755 
Q 1159 2438 1159 1844 
L 1159 0 
L 581 0 
L 581 3500 
L 1159 3500 
L 1159 2956 
Q 1341 3275 1631 3429 
Q 1922 3584 2338 3584 
Q 2397 3584 2469 3576 
Q 2541 3569 2628 3553 
L 2631 2963 
z
" transform="scale(0.015625)"/>
       <path id="DejaVuSans-65" d="M 3597 1894 
L 3597 1613 
L 953 1613 
Q 991 1019 1311 708 
Q 1631 397 2203 397 
Q 2534 397 2845 478 
Q 3156 559 3463 722 
L 3463 178 
Q 3153 47 2828 -22 
Q 2503 -91 2169 -91 
Q 1331 -91 842 396 
Q 353 884 353 1716 
Q 353 2575 817 3079 
Q 1281 3584 2069 3584 
Q 2775 3584 3186 3129 
Q 3597 2675 3597 1894 
z
M 3022 2063 
Q 3016 2534 2758 2815 
Q 2500 3097 2075 3097 
Q 1594 3097 1305 2825 
Q 1016 2553 972 2059 
L 3022 2063 
z
" transform="scale(0.015625)"/>
       <path id="DejaVuSans-64" d="M 2906 2969 
L 2906 4863 
L 3481 4863 
L 3481 0 
L 2906 0 
L 2906 525 
Q 2725 213 2448 61 
Q 2172 -91 1784 -91 
Q 1150 -91 751 415 
Q 353 922 353 1747 
Q 353 2572 751 3078 
Q 1150 3584 1784 3584 
Q 2172 3584 2448 3432 
Q 2725 3281 2906 2969 
z
M 947 1747 
Q 947 1113 1208 752 
Q 1469 391 1925 391 
Q 2381 391 2643 752 
Q 2906 1113 2906 1747 
Q 2906 2381 2643 2742 
Q 2381 3103 1925 3103 
Q 1469 3103 1208 2742 
Q 947 2381 947 1747 
z
" transform="scale(0.015625)"/>
       <path id="DejaVuSans-69" d="M 603 3500 
L 1178 3500 
L 1178 0 
L 603 0 
L 603 3500 
z
M 603 4863 
L 1178 4863 
L 1178 4134 
L 603 4134 
L 603 4863 
z
" transform="scale(0.015625)"/>
       <path id="DejaVuSans-63" d="M 3122 3366 
L 3122 2828 
Q 2878 2963 2633 3030 
Q 2388 3097 2138 3097 
Q 1578 3097 1268 2742 
Q 959 2388 959 1747 
Q 959 1106 1268 751 
Q 1578 397 2138 397 
Q 2388 397 2633 464 
Q 2878 531 3122 666 
L 3122 134 
Q 2881 22 2623 -34 
Q 2366 -91 2075 -91 
Q 1284 -91 818 406 
Q 353 903 353 1747 
Q 353 2603 823 3093 
Q 1294 3584 2113 3584 
Q 2378 3584 2631 3529 
Q 2884 3475 3122 3366 
z
" transform="scale(0.015625)"/>
       <path id="DejaVuSans-74" d="M 1172 4494 
L 1172 3500 
L 2356 3500 
L 2356 3053 
L 1172 3053 
L 1172 1153 
Q 1172 725 1289 603 
Q 1406 481 1766 481 
L 2356 481 
L 2356 0 
L 1766 0 
Q 1100 0 847 248 
Q 594 497 594 1153 
L 594 3053 
L 172 3053 
L 172 3500 
L 594 3500 
L 594 4494 
L 1172 4494 
z
" transform="scale(0.015625)"/>
       <path id="DejaVuSans-20" transform="scale(0.015625)"/>
       <path id="DejaVuSans-46" d="M 628 4666 
L 3309 4666 
L 3309 4134 
L 1259 4134 
L 1259 2759 
L 3109 2759 
L 3109 2228 
L 1259 2228 
L 1259 0 
L 628 0 
L 628 4666 
z
" transform="scale(0.015625)"/>
       <path id="DejaVuSans-6c" d="M 603 4863 
L 1178 4863 
L 1178 0 
L 603 0 
L 603 4863 
z
" transform="scale(0.015625)"/>
       <path id="DejaVuSans-75" d="M 544 1381 
L 544 3500 
L 1119 3500 
L 1119 1403 
Q 1119 906 1312 657 
Q 1506 409 1894 409 
Q 2359 409 2629 706 
Q 2900 1003 2900 1516 
L 2900 3500 
L 3475 3500 
L 3475 0 
L 2900 0 
L 2900 538 
Q 2691 219 2414 64 
Q 2138 -91 1772 -91 
Q 1169 -91 856 284 
Q 544 659 544 1381 
z
M 1991 3584 
L 1991 3584 
z
" transform="scale(0.015625)"/>
       <path id="DejaVuSans-6f" d="M 1959 3097 
Q 1497 3097 1228 2736 
Q 959 2375 959 1747 
Q 959 1119 1226 758 
Q 1494 397 1959 397 
Q 2419 397 2687 759 
Q 2956 1122 2956 1747 
Q 2956 2369 2687 2733 
Q 2419 3097 1959 3097 
z
M 1959 3584 
Q 2709 3584 3137 3096 
Q 3566 2609 3566 1747 
Q 3566 888 3137 398 
Q 2709 -91 1959 -91 
Q 1206 -91 779 398 
Q 353 888 353 1747 
Q 353 2609 779 3096 
Q 1206 3584 1959 3584 
z
" transform="scale(0.015625)"/>
       <path id="DejaVuSans-73" d="M 2834 3397 
L 2834 2853 
Q 2591 2978 2328 3040 
Q 2066 3103 1784 3103 
Q 1356 3103 1142 2972 
Q 928 2841 928 2578 
Q 928 2378 1081 2264 
Q 1234 2150 1697 2047 
L 1894 2003 
Q 2506 1872 2764 1633 
Q 3022 1394 3022 966 
Q 3022 478 2636 193 
Q 2250 -91 1575 -91 
Q 1294 -91 989 -36 
Q 684 19 347 128 
L 347 722 
Q 666 556 975 473 
Q 1284 391 1588 391 
Q 1994 391 2212 530 
Q 2431 669 2431 922 
Q 2431 1156 2273 1281 
Q 2116 1406 1581 1522 
L 1381 1569 
Q 847 1681 609 1914 
Q 372 2147 372 2553 
Q 372 3047 722 3315 
Q 1072 3584 1716 3584 
Q 2034 3584 2315 3537 
Q 2597 3491 2834 3397 
z
" transform="scale(0.015625)"/>
       <path id="DejaVuSans-6e" d="M 3513 2113 
L 3513 0 
L 2938 0 
L 2938 2094 
Q 2938 2591 2744 2837 
Q 2550 3084 2163 3084 
Q 1697 3084 1428 2787 
Q 1159 2491 1159 1978 
L 1159 0 
L 581 0 
L 581 3500 
L 1159 3500 
L 1159 2956 
Q 1366 3272 1645 3428 
Q 1925 3584 2291 3584 
Q 2894 3584 3203 3211 
Q 3513 2838 3513 2113 
z
" transform="scale(0.015625)"/>
      </defs>
      <use xlink:href="#DejaVuSans-50"/>
      <use xlink:href="#DejaVuSans-72" x="58.552734"/>
      <use xlink:href="#DejaVuSans-65" x="97.416016"/>
      <use xlink:href="#DejaVuSans-64" x="158.939453"/>
      <use xlink:href="#DejaVuSans-69" x="222.416016"/>
      <use xlink:href="#DejaVuSans-63" x="250.199219"/>
      <use xlink:href="#DejaVuSans-74" x="305.179688"/>
      <use xlink:href="#DejaVuSans-65" x="344.388672"/>
      <use xlink:href="#DejaVuSans-64" x="405.912109"/>
      <use xlink:href="#DejaVuSans-20" x="469.388672"/>
      <use xlink:href="#DejaVuSans-46" x="501.175781"/>
      <use xlink:href="#DejaVuSans-6c" x="558.695312"/>
      <use xlink:href="#DejaVuSans-75" x="586.478516"/>
      <use xlink:href="#DejaVuSans-6f" x="649.857422"/>
      <use xlink:href="#DejaVuSans-72" x="711.039062"/>
      <use xlink:href="#DejaVuSans-65" x="749.902344"/>
      <use xlink:href="#DejaVuSans-73" x="811.425781"/>
      <use xlink:href="#DejaVuSans-63" x="863.525391"/>
      <use xlink:href="#DejaVuSans-65" x="918.505859"/>
      <use xlink:href="#DejaVuSans-6e" x="980.029297"/>
      <use xlink:href="#DejaVuSans-63" x="1043.408203"/>
      <use xlink:href="#DejaVuSans-65" x="1098.388672"/>
     </g>
    </g>
   </g>
   <g id="matplotlib.axis_2">
    <g id="ytick_1">
     <g id="line2d_8">
      <defs>
       <path id="m571356b009" d="M 0 0 
L -3.5 0 
" style="stroke: #000000; stroke-width: 0.8"/>
      </defs>
      <g>
       <use xlink:href="#m571356b009" x="48.17" y="387.16" style="stroke: #000000; stroke-width: 0.8"/>
      </g>
     </g>
     <g id="text_9">
      <!-- 0 -->
      <g transform="translate(34.8075 390.959219) scale(0.1 -0.1)">
       <use xlink:href="#DejaVuSans-30"/>
      </g>
     </g>
    </g>
    <g id="ytick_2">
     <g id="line2d_9">
      <g>
       <use xlink:href="#m571356b009" x="48.17" y="317.360041" style="stroke: #000000; stroke-width: 0.8"/>
      </g>
     </g>
     <g id="text_10">
      <!-- 10 -->
      <g transform="translate(28.445 321.159259) scale(0.1 -0.1)">
       <use xlink:href="#DejaVuSans-31"/>
       <use xlink:href="#DejaVuSans-30" x="63.623047"/>
      </g>
     </g>
    </g>
    <g id="ytick_3">
     <g id="line2d_10">
      <g>
       <use xlink:href="#m571356b009" x="48.17" y="247.560081" style="stroke: #000000; stroke-width: 0.8"/>
      </g>
     </g>
     <g id="text_11">
      <!-- 20 -->
      <g transform="translate(28.445 251.3593) scale(0.1 -0.1)">
       <use xlink:href="#DejaVuSans-32"/>
       <use xlink:href="#DejaVuSans-30" x="63.623047"/>
      </g>
     </g>
    </g>
    <g id="ytick_4">
     <g id="line2d_11">
      <g>
       <use xlink:href="#m571356b009" x="48.17" y="177.760122" style="stroke: #000000; stroke-width: 0.8"/>
      </g>
     </g>
     <g id="text_12">
      <!-- 30 -->
      <g transform="translate(28.445 181.559341) scale(0.1 -0.1)">
       <use xlink:href="#DejaVuSans-33"/>
       <use xlink:href="#DejaVuSans-30" x="63.623047"/>
      </g>
     </g>
    </g>
    <g id="ytick_5">
     <g id="line2d_12">
      <g>
       <use xlink:href="#m571356b009" x="48.17" y="107.960162" style="stroke: #000000; stroke-width: 0.8"/>
      </g>
     </g>
     <g id="text_13">
      <!-- 40 -->
      <g transform="translate(28.445 111.759381) scale(0.1 -0.1)">
       <use xlink:href="#DejaVuSans-34"/>
       <use xlink:href="#DejaVuSans-30" x="63.623047"/>
      </g>
     </g>
    </g>
    <g id="ytick_6">
     <g id="line2d_13">
      <g>
       <use xlink:href="#m571356b009" x="48.17" y="38.160203" style="stroke: #000000; stroke-width: 0.8"/>
      </g>
     </g>
     <g id="text_14">
      <!-- 50 -->
      <g transform="translate(28.445 41.959422) scale(0.1 -0.1)">
       <use xlink:href="#DejaVuSans-35"/>
       <use xlink:href="#DejaVuSans-30" x="63.623047"/>
      </g>
     </g>
    </g>
    <g id="text_15">
     <!-- Density -->
     <g transform="translate(21.533438 225.592031) rotate(-90) scale(0.14 -0.14)">
      <defs>
       <path id="DejaVuSans-44" d="M 1259 4147 
L 1259 519 
L 2022 519 
Q 2988 519 3436 956 
Q 3884 1394 3884 2338 
Q 3884 3275 3436 3711 
Q 2988 4147 2022 4147 
L 1259 4147 
z
M 628 4666 
L 1925 4666 
Q 3281 4666 3915 4102 
Q 4550 3538 4550 2338 
Q 4550 1131 3912 565 
Q 3275 0 1925 0 
L 628 0 
L 628 4666 
z
" transform="scale(0.015625)"/>
       <path id="DejaVuSans-79" d="M 2059 -325 
Q 1816 -950 1584 -1140 
Q 1353 -1331 966 -1331 
L 506 -1331 
L 506 -850 
L 844 -850 
Q 1081 -850 1212 -737 
Q 1344 -625 1503 -206 
L 1606 56 
L 191 3500 
L 800 3500 
L 1894 763 
L 2988 3500 
L 3597 3500 
L 2059 -325 
z
" transform="scale(0.015625)"/>
      </defs>
      <use xlink:href="#DejaVuSans-44"/>
      <use xlink:href="#DejaVuSans-65" x="77.001953"/>
      <use xlink:href="#DejaVuSans-6e" x="138.525391"/>
      <use xlink:href="#DejaVuSans-73" x="201.904297"/>
      <use xlink:href="#DejaVuSans-69" x="254.003906"/>
      <use xlink:href="#DejaVuSans-74" x="281.787109"/>
      <use xlink:href="#DejaVuSans-79" x="320.996094"/>
     </g>
    </g>
   </g>
   <g id="line2d_14">
    <path d="M 326.585514 387.16 
L 326.585514 10.8 
" clip-path="url(#pcb0afeae1a)" style="fill: none; stroke-dasharray: 3.7,1.6; stroke-dashoffset: 0; stroke: #000000"/>
   </g>
   <g id="patch_3">
    <path d="M 48.17 387.16 
L 48.17 10.8 
" style="fill: none; stroke: #000000; stroke-width: 0.8; stroke-linejoin: miter; stroke-linecap: square"/>
   </g>
   <g id="patch_4">
    <path d="M 48.17 387.16 
L 421.2 387.16 
" style="fill: none; stroke: #000000; stroke-width: 0.8; stroke-linejoin: miter; stroke-linecap: square"/>
   </g>
   <g id="legend_1">
    <g id="patch_5">
     <path d="M 55.17 106.86875 
L 262.080938 106.86875 
Q 264.080938 106.86875 264.080938 104.86875 
L 264.080938 17.8 
Q 264.080938 15.8 262.080938 15.8 
L 55.17 15.8 
Q 53.17 15.8 53.17 17.8 
L 53.17 104.86875 
Q 53.17 106.86875 55.17 106.86875 
z
" style="fill: #ffffff; opacity: 0.8; stroke: #cccccc; stroke-linejoin: miter"/>
    </g>
    <g id="patch_6">
     <path d="M 57.17 27.398438 
L 77.17 27.398438 
L 77.17 20.398438 
L 57.17 20.398438 
z
" style="fill: #f4a582; fill-opacity: 0.5; stroke: #f4a582; stroke-width: 2.5; stroke-linejoin: miter"/>
    </g>
    <g id="text_16">
     <!-- Pre-trained VAE -->
     <g transform="translate(85.17 27.398438) scale(0.1 -0.1)">
      <defs>
       <path id="DejaVuSans-2d" d="M 313 2009 
L 1997 2009 
L 1997 1497 
L 313 1497 
L 313 2009 
z
" transform="scale(0.015625)"/>
       <path id="DejaVuSans-61" d="M 2194 1759 
Q 1497 1759 1228 1600 
Q 959 1441 959 1056 
Q 959 750 1161 570 
Q 1363 391 1709 391 
Q 2188 391 2477 730 
Q 2766 1069 2766 1631 
L 2766 1759 
L 2194 1759 
z
M 3341 1997 
L 3341 0 
L 2766 0 
L 2766 531 
Q 2569 213 2275 61 
Q 1981 -91 1556 -91 
Q 1019 -91 701 211 
Q 384 513 384 1019 
Q 384 1609 779 1909 
Q 1175 2209 1959 2209 
L 2766 2209 
L 2766 2266 
Q 2766 2663 2505 2880 
Q 2244 3097 1772 3097 
Q 1472 3097 1187 3025 
Q 903 2953 641 2809 
L 641 3341 
Q 956 3463 1253 3523 
Q 1550 3584 1831 3584 
Q 2591 3584 2966 3190 
Q 3341 2797 3341 1997 
z
" transform="scale(0.015625)"/>
       <path id="DejaVuSans-56" d="M 1831 0 
L 50 4666 
L 709 4666 
L 2188 738 
L 3669 4666 
L 4325 4666 
L 2547 0 
L 1831 0 
z
" transform="scale(0.015625)"/>
       <path id="DejaVuSans-41" d="M 2188 4044 
L 1331 1722 
L 3047 1722 
L 2188 4044 
z
M 1831 4666 
L 2547 4666 
L 4325 0 
L 3669 0 
L 3244 1197 
L 1141 1197 
L 716 0 
L 50 0 
L 1831 4666 
z
" transform="scale(0.015625)"/>
       <path id="DejaVuSans-45" d="M 628 4666 
L 3578 4666 
L 3578 4134 
L 1259 4134 
L 1259 2753 
L 3481 2753 
L 3481 2222 
L 1259 2222 
L 1259 531 
L 3634 531 
L 3634 0 
L 628 0 
L 628 4666 
z
" transform="scale(0.015625)"/>
      </defs>
      <use xlink:href="#DejaVuSans-50"/>
      <use xlink:href="#DejaVuSans-72" x="58.552734"/>
      <use xlink:href="#DejaVuSans-65" x="97.416016"/>
      <use xlink:href="#DejaVuSans-2d" x="158.939453"/>
      <use xlink:href="#DejaVuSans-74" x="195.023438"/>
      <use xlink:href="#DejaVuSans-72" x="234.232422"/>
      <use xlink:href="#DejaVuSans-61" x="275.345703"/>
      <use xlink:href="#DejaVuSans-69" x="336.625"/>
      <use xlink:href="#DejaVuSans-6e" x="364.408203"/>
      <use xlink:href="#DejaVuSans-65" x="427.787109"/>
      <use xlink:href="#DejaVuSans-64" x="489.310547"/>
      <use xlink:href="#DejaVuSans-20" x="552.787109"/>
      <use xlink:href="#DejaVuSans-56" x="584.574219"/>
      <use xlink:href="#DejaVuSans-41" x="646.607422"/>
      <use xlink:href="#DejaVuSans-45" x="715.015625"/>
     </g>
    </g>
    <g id="patch_7">
     <path d="M 57.17 42.076563 
L 77.17 42.076563 
L 77.17 35.076563 
L 57.17 35.076563 
z
" style="fill: #b2182b; fill-opacity: 0.5; stroke: #b2182b; stroke-width: 2.5; stroke-linejoin: miter"/>
    </g>
    <g id="text_17">
     <!-- Aligned VAE -->
     <g transform="translate(85.17 42.076563) scale(0.1 -0.1)">
      <defs>
       <path id="DejaVuSans-67" d="M 2906 1791 
Q 2906 2416 2648 2759 
Q 2391 3103 1925 3103 
Q 1463 3103 1205 2759 
Q 947 2416 947 1791 
Q 947 1169 1205 825 
Q 1463 481 1925 481 
Q 2391 481 2648 825 
Q 2906 1169 2906 1791 
z
M 3481 434 
Q 3481 -459 3084 -895 
Q 2688 -1331 1869 -1331 
Q 1566 -1331 1297 -1286 
Q 1028 -1241 775 -1147 
L 775 -588 
Q 1028 -725 1275 -790 
Q 1522 -856 1778 -856 
Q 2344 -856 2625 -561 
Q 2906 -266 2906 331 
L 2906 616 
Q 2728 306 2450 153 
Q 2172 0 1784 0 
Q 1141 0 747 490 
Q 353 981 353 1791 
Q 353 2603 747 3093 
Q 1141 3584 1784 3584 
Q 2172 3584 2450 3431 
Q 2728 3278 2906 2969 
L 2906 3500 
L 3481 3500 
L 3481 434 
z
" transform="scale(0.015625)"/>
      </defs>
      <use xlink:href="#DejaVuSans-41"/>
      <use xlink:href="#DejaVuSans-6c" x="68.408203"/>
      <use xlink:href="#DejaVuSans-69" x="96.191406"/>
      <use xlink:href="#DejaVuSans-67" x="123.974609"/>
      <use xlink:href="#DejaVuSans-6e" x="187.451172"/>
      <use xlink:href="#DejaVuSans-65" x="250.830078"/>
      <use xlink:href="#DejaVuSans-64" x="312.353516"/>
      <use xlink:href="#DejaVuSans-20" x="375.830078"/>
      <use xlink:href="#DejaVuSans-56" x="407.617188"/>
      <use xlink:href="#DejaVuSans-41" x="469.650391"/>
      <use xlink:href="#DejaVuSans-45" x="538.058594"/>
     </g>
    </g>
    <g id="patch_8">
     <path d="M 57.17 56.754688 
L 77.17 56.754688 
L 77.17 49.754688 
L 57.17 49.754688 
z
" style="fill: #bdbdbd; fill-opacity: 0.5; stroke: #bdbdbd; stroke-width: 2.5; stroke-linejoin: miter"/>
    </g>
    <g id="text_18">
     <!-- Pre-trained ESM2 (650M) -->
     <g transform="translate(85.17 56.754688) scale(0.1 -0.1)">
      <defs>
       <path id="DejaVuSans-53" d="M 3425 4513 
L 3425 3897 
Q 3066 4069 2747 4153 
Q 2428 4238 2131 4238 
Q 1616 4238 1336 4038 
Q 1056 3838 1056 3469 
Q 1056 3159 1242 3001 
Q 1428 2844 1947 2747 
L 2328 2669 
Q 3034 2534 3370 2195 
Q 3706 1856 3706 1288 
Q 3706 609 3251 259 
Q 2797 -91 1919 -91 
Q 1588 -91 1214 -16 
Q 841 59 441 206 
L 441 856 
Q 825 641 1194 531 
Q 1563 422 1919 422 
Q 2459 422 2753 634 
Q 3047 847 3047 1241 
Q 3047 1584 2836 1778 
Q 2625 1972 2144 2069 
L 1759 2144 
Q 1053 2284 737 2584 
Q 422 2884 422 3419 
Q 422 4038 858 4394 
Q 1294 4750 2059 4750 
Q 2388 4750 2728 4690 
Q 3069 4631 3425 4513 
z
" transform="scale(0.015625)"/>
       <path id="DejaVuSans-4d" d="M 628 4666 
L 1569 4666 
L 2759 1491 
L 3956 4666 
L 4897 4666 
L 4897 0 
L 4281 0 
L 4281 4097 
L 3078 897 
L 2444 897 
L 1241 4097 
L 1241 0 
L 628 0 
L 628 4666 
z
" transform="scale(0.015625)"/>
       <path id="DejaVuSans-28" d="M 1984 4856 
Q 1566 4138 1362 3434 
Q 1159 2731 1159 2009 
Q 1159 1288 1364 580 
Q 1569 -128 1984 -844 
L 1484 -844 
Q 1016 -109 783 600 
Q 550 1309 550 2009 
Q 550 2706 781 3412 
Q 1013 4119 1484 4856 
L 1984 4856 
z
" transform="scale(0.015625)"/>
       <path id="DejaVuSans-36" d="M 2113 2584 
Q 1688 2584 1439 2293 
Q 1191 2003 1191 1497 
Q 1191 994 1439 701 
Q 1688 409 2113 409 
Q 2538 409 2786 701 
Q 3034 994 3034 1497 
Q 3034 2003 2786 2293 
Q 2538 2584 2113 2584 
z
M 3366 4563 
L 3366 3988 
Q 3128 4100 2886 4159 
Q 2644 4219 2406 4219 
Q 1781 4219 1451 3797 
Q 1122 3375 1075 2522 
Q 1259 2794 1537 2939 
Q 1816 3084 2150 3084 
Q 2853 3084 3261 2657 
Q 3669 2231 3669 1497 
Q 3669 778 3244 343 
Q 2819 -91 2113 -91 
Q 1303 -91 875 529 
Q 447 1150 447 2328 
Q 447 3434 972 4092 
Q 1497 4750 2381 4750 
Q 2619 4750 2861 4703 
Q 3103 4656 3366 4563 
z
" transform="scale(0.015625)"/>
       <path id="DejaVuSans-29" d="M 513 4856 
L 1013 4856 
Q 1481 4119 1714 3412 
Q 1947 2706 1947 2009 
Q 1947 1309 1714 600 
Q 1481 -109 1013 -844 
L 513 -844 
Q 928 -128 1133 580 
Q 1338 1288 1338 2009 
Q 1338 2731 1133 3434 
Q 928 4138 513 4856 
z
" transform="scale(0.015625)"/>
      </defs>
      <use xlink:href="#DejaVuSans-50"/>
      <use xlink:href="#DejaVuSans-72" x="58.552734"/>
      <use xlink:href="#DejaVuSans-65" x="97.416016"/>
      <use xlink:href="#DejaVuSans-2d" x="158.939453"/>
      <use xlink:href="#DejaVuSans-74" x="195.023438"/>
      <use xlink:href="#DejaVuSans-72" x="234.232422"/>
      <use xlink:href="#DejaVuSans-61" x="275.345703"/>
      <use xlink:href="#DejaVuSans-69" x="336.625"/>
      <use xlink:href="#DejaVuSans-6e" x="364.408203"/>
      <use xlink:href="#DejaVuSans-65" x="427.787109"/>
      <use xlink:href="#DejaVuSans-64" x="489.310547"/>
      <use xlink:href="#DejaVuSans-20" x="552.787109"/>
      <use xlink:href="#DejaVuSans-45" x="584.574219"/>
      <use xlink:href="#DejaVuSans-53" x="647.757812"/>
      <use xlink:href="#DejaVuSans-4d" x="711.234375"/>
      <use xlink:href="#DejaVuSans-32" x="797.513672"/>
      <use xlink:href="#DejaVuSans-20" x="861.136719"/>
      <use xlink:href="#DejaVuSans-28" x="892.923828"/>
      <use xlink:href="#DejaVuSans-36" x="931.9375"/>
      <use xlink:href="#DejaVuSans-35" x="995.560547"/>
      <use xlink:href="#DejaVuSans-30" x="1059.183594"/>
      <use xlink:href="#DejaVuSans-4d" x="1122.806641"/>
      <use xlink:href="#DejaVuSans-29" x="1209.085938"/>
     </g>
    </g>
    <g id="patch_9">
     <path d="M 57.17 71.432813 
L 77.17 71.432813 
L 77.17 64.432813 
L 57.17 64.432813 
z
" style="fill: #92c5de; fill-opacity: 0.5; stroke: #92c5de; stroke-width: 2.5; stroke-linejoin: miter"/>
    </g>
    <g id="text_19">
     <!-- SFT ESM2 (650M) -->
     <g transform="translate(85.17 71.432813) scale(0.1 -0.1)">
      <defs>
       <path id="DejaVuSans-54" d="M -19 4666 
L 3928 4666 
L 3928 4134 
L 2272 4134 
L 2272 0 
L 1638 0 
L 1638 4134 
L -19 4134 
L -19 4666 
z
" transform="scale(0.015625)"/>
      </defs>
      <use xlink:href="#DejaVuSans-53"/>
      <use xlink:href="#DejaVuSans-46" x="63.476562"/>
      <use xlink:href="#DejaVuSans-54" x="119.246094"/>
      <use xlink:href="#DejaVuSans-20" x="180.330078"/>
      <use xlink:href="#DejaVuSans-45" x="212.117188"/>
      <use xlink:href="#DejaVuSans-53" x="275.300781"/>
      <use xlink:href="#DejaVuSans-4d" x="338.777344"/>
      <use xlink:href="#DejaVuSans-32" x="425.056641"/>
      <use xlink:href="#DejaVuSans-20" x="488.679688"/>
      <use xlink:href="#DejaVuSans-28" x="520.466797"/>
      <use xlink:href="#DejaVuSans-36" x="559.480469"/>
      <use xlink:href="#DejaVuSans-35" x="623.103516"/>
      <use xlink:href="#DejaVuSans-30" x="686.726562"/>
      <use xlink:href="#DejaVuSans-4d" x="750.349609"/>
      <use xlink:href="#DejaVuSans-29" x="836.628906"/>
     </g>
    </g>
    <g id="patch_10">
     <path d="M 57.17 86.110938 
L 77.17 86.110938 
L 77.17 79.110938 
L 57.17 79.110938 
z
" style="fill: #2166ac; fill-opacity: 0.5; stroke: #2166ac; stroke-width: 2.5; stroke-linejoin: miter"/>
    </g>
    <g id="text_20">
     <!-- Aligned ESM2 (650M) -->
     <g transform="translate(85.17 86.110938) scale(0.1 -0.1)">
      <use xlink:href="#DejaVuSans-41"/>
      <use xlink:href="#DejaVuSans-6c" x="68.408203"/>
      <use xlink:href="#DejaVuSans-69" x="96.191406"/>
      <use xlink:href="#DejaVuSans-67" x="123.974609"/>
      <use xlink:href="#DejaVuSans-6e" x="187.451172"/>
      <use xlink:href="#DejaVuSans-65" x="250.830078"/>
      <use xlink:href="#DejaVuSans-64" x="312.353516"/>
      <use xlink:href="#DejaVuSans-20" x="375.830078"/>
      <use xlink:href="#DejaVuSans-45" x="407.617188"/>
      <use xlink:href="#DejaVuSans-53" x="470.800781"/>
      <use xlink:href="#DejaVuSans-4d" x="534.277344"/>
      <use xlink:href="#DejaVuSans-32" x="620.556641"/>
      <use xlink:href="#DejaVuSans-20" x="684.179688"/>
      <use xlink:href="#DejaVuSans-28" x="715.966797"/>
      <use xlink:href="#DejaVuSans-36" x="754.980469"/>
      <use xlink:href="#DejaVuSans-35" x="818.603516"/>
      <use xlink:href="#DejaVuSans-30" x="882.226562"/>
      <use xlink:href="#DejaVuSans-4d" x="945.849609"/>
      <use xlink:href="#DejaVuSans-29" x="1032.128906"/>
     </g>
    </g>
    <g id="line2d_15">
     <path d="M 57.17 97.289063 
L 67.17 97.289063 
L 77.17 97.289063 
" style="fill: none; stroke-dasharray: 3.7,1.6; stroke-dashoffset: 0; stroke: #000000"/>
    </g>
    <g id="text_21">
     <!-- Predicted CreiLOV log fluorescence -->
     <g transform="translate(85.17 100.789063) scale(0.1 -0.1)">
      <defs>
       <path id="DejaVuSans-43" d="M 4122 4306 
L 4122 3641 
Q 3803 3938 3442 4084 
Q 3081 4231 2675 4231 
Q 1875 4231 1450 3742 
Q 1025 3253 1025 2328 
Q 1025 1406 1450 917 
Q 1875 428 2675 428 
Q 3081 428 3442 575 
Q 3803 722 4122 1019 
L 4122 359 
Q 3791 134 3420 21 
Q 3050 -91 2638 -91 
Q 1578 -91 968 557 
Q 359 1206 359 2328 
Q 359 3453 968 4101 
Q 1578 4750 2638 4750 
Q 3056 4750 3426 4639 
Q 3797 4528 4122 4306 
z
" transform="scale(0.015625)"/>
       <path id="DejaVuSans-4c" d="M 628 4666 
L 1259 4666 
L 1259 531 
L 3531 531 
L 3531 0 
L 628 0 
L 628 4666 
z
" transform="scale(0.015625)"/>
       <path id="DejaVuSans-4f" d="M 2522 4238 
Q 1834 4238 1429 3725 
Q 1025 3213 1025 2328 
Q 1025 1447 1429 934 
Q 1834 422 2522 422 
Q 3209 422 3611 934 
Q 4013 1447 4013 2328 
Q 4013 3213 3611 3725 
Q 3209 4238 2522 4238 
z
M 2522 4750 
Q 3503 4750 4090 4092 
Q 4678 3434 4678 2328 
Q 4678 1225 4090 567 
Q 3503 -91 2522 -91 
Q 1538 -91 948 565 
Q 359 1222 359 2328 
Q 359 3434 948 4092 
Q 1538 4750 2522 4750 
z
" transform="scale(0.015625)"/>
       <path id="DejaVuSans-66" d="M 2375 4863 
L 2375 4384 
L 1825 4384 
Q 1516 4384 1395 4259 
Q 1275 4134 1275 3809 
L 1275 3500 
L 2222 3500 
L 2222 3053 
L 1275 3053 
L 1275 0 
L 697 0 
L 697 3053 
L 147 3053 
L 147 3500 
L 697 3500 
L 697 3744 
Q 697 4328 969 4595 
Q 1241 4863 1831 4863 
L 2375 4863 
z
" transform="scale(0.015625)"/>
      </defs>
      <use xlink:href="#DejaVuSans-50"/>
      <use xlink:href="#DejaVuSans-72" x="58.552734"/>
      <use xlink:href="#DejaVuSans-65" x="97.416016"/>
      <use xlink:href="#DejaVuSans-64" x="158.939453"/>
      <use xlink:href="#DejaVuSans-69" x="222.416016"/>
      <use xlink:href="#DejaVuSans-63" x="250.199219"/>
      <use xlink:href="#DejaVuSans-74" x="305.179688"/>
      <use xlink:href="#DejaVuSans-65" x="344.388672"/>
      <use xlink:href="#DejaVuSans-64" x="405.912109"/>
      <use xlink:href="#DejaVuSans-20" x="469.388672"/>
      <use xlink:href="#DejaVuSans-43" x="501.175781"/>
      <use xlink:href="#DejaVuSans-72" x="571"/>
      <use xlink:href="#DejaVuSans-65" x="609.863281"/>
      <use xlink:href="#DejaVuSans-69" x="671.386719"/>
      <use xlink:href="#DejaVuSans-4c" x="699.169922"/>
      <use xlink:href="#DejaVuSans-4f" x="751.257812"/>
      <use xlink:href="#DejaVuSans-56" x="828.21875"/>
      <use xlink:href="#DejaVuSans-20" x="896.626953"/>
      <use xlink:href="#DejaVuSans-6c" x="928.414062"/>
      <use xlink:href="#DejaVuSans-6f" x="956.197266"/>
      <use xlink:href="#DejaVuSans-67" x="1017.378906"/>
      <use xlink:href="#DejaVuSans-20" x="1080.855469"/>
      <use xlink:href="#DejaVuSans-66" x="1112.642578"/>
      <use xlink:href="#DejaVuSans-6c" x="1147.847656"/>
      <use xlink:href="#DejaVuSans-75" x="1175.630859"/>
      <use xlink:href="#DejaVuSans-6f" x="1239.009766"/>
      <use xlink:href="#DejaVuSans-72" x="1300.191406"/>
      <use xlink:href="#DejaVuSans-65" x="1339.054688"/>
      <use xlink:href="#DejaVuSans-73" x="1400.578125"/>
      <use xlink:href="#DejaVuSans-63" x="1452.677734"/>
      <use xlink:href="#DejaVuSans-65" x="1507.658203"/>
      <use xlink:href="#DejaVuSans-6e" x="1569.181641"/>
      <use xlink:href="#DejaVuSans-63" x="1632.560547"/>
      <use xlink:href="#DejaVuSans-65" x="1687.541016"/>
     </g>
    </g>
   </g>
  </g>
 </g>
 <defs>
  <clipPath id="pcb0afeae1a">
   <rect x="48.17" y="10.8" width="373.03" height="376.36"/>
  </clipPath>
 </defs>
</svg>
