<?xml version="1.0" encoding="utf-8" standalone="no"?>
<!DOCTYPE svg PUBLIC "-//W3C//DTD SVG 1.1//EN"
  "http://www.w3.org/Graphics/SVG/1.1/DTD/svg11.dtd">
<svg xmlns:xlink="http://www.w3.org/1999/xlink" width="432pt" height="432pt" viewBox="0 0 432 432" xmlns="http://www.w3.org/2000/svg" version="1.1">
 <metadata>
  <rdf:RDF xmlns:dc="http://purl.org/dc/elements/1.1/" xmlns:cc="http://creativecommons.org/ns#" xmlns:rdf="http://www.w3.org/1999/02/22-rdf-syntax-ns#">
   <cc:Work>
    <dc:type rdf:resource="http://purl.org/dc/dcmitype/StillImage"/>
    <dc:date>2025-04-01T14:52:57.464037</dc:date>
    <dc:format>image/svg+xml</dc:format>
    <dc:creator>
     <cc:Agent>
      <dc:title>Matplotlib v3.7.1, https://matplotlib.org/</dc:title>
     </cc:Agent>
    </dc:creator>
   </cc:Work>
  </rdf:RDF>
 </metadata>
 <defs>
  <style type="text/css">*{stroke-linejoin: round; stroke-linecap: butt}</style>
 </defs>
 <g id="figure_1">
  <g id="patch_1">
   <path d="M 0 432 
L 432 432 
L 432 0 
L 0 0 
z
" style="fill: #ffffff"/>
  </g>
  <g id="axes_1">
   <g id="patch_2">
    <path d="M 48.17 387.16 
L 412.783088 387.16 
L 412.783088 10.8 
L 48.17 10.8 
z
" style="fill: #ffffff"/>
   </g>
   <g id="PolyCollection_1">
    <defs>
     <path id="mf24af761af" d="M 64.743322 -44.985738 
L 64.743322 -44.84 
L 66.234508 -44.84 
L 67.725694 -44.84 
L 69.21688 -44.84 
L 70.708066 -44.84 
L 72.199252 -44.84 
L 73.690438 -44.84 
L 75.181624 -44.84 
L 76.67281 -44.84 
L 78.163996 -44.84 
L 79.655182 -44.84 
L 81.146368 -44.84 
L 82.637554 -44.84 
L 84.12874 -44.84 
L 85.619926 -44.84 
L 87.111112 -44.84 
L 88.602298 -44.84 
L 90.093484 -44.84 
L 91.58467 -44.84 
L 93.075856 -44.84 
L 94.567042 -44.84 
L 96.058228 -44.84 
L 97.549414 -44.84 
L 99.0406 -44.84 
L 100.531786 -44.84 
L 102.022972 -44.84 
L 103.514158 -44.84 
L 105.005344 -44.84 
L 106.49653 -44.84 
L 107.987716 -44.84 
L 109.478902 -44.84 
L 110.970088 -44.84 
L 112.461274 -44.84 
L 113.95246 -44.84 
L 115.443646 -44.84 
L 116.934832 -44.84 
L 118.426018 -44.84 
L 119.917204 -44.84 
L 121.40839 -44.84 
L 122.899576 -44.84 
L 124.390762 -44.84 
L 125.881948 -44.84 
L 127.373134 -44.84 
L 128.86432 -44.84 
L 130.355506 -44.84 
L 131.846692 -44.84 
L 133.337878 -44.84 
L 134.829064 -44.84 
L 136.32025 -44.84 
L 137.811436 -44.84 
L 139.302622 -44.84 
L 140.793808 -44.84 
L 142.284994 -44.84 
L 143.77618 -44.84 
L 145.267366 -44.84 
L 146.758552 -44.84 
L 148.249738 -44.84 
L 149.740924 -44.84 
L 151.23211 -44.84 
L 152.723296 -44.84 
L 154.214482 -44.84 
L 155.705668 -44.84 
L 157.196854 -44.84 
L 158.68804 -44.84 
L 160.179226 -44.84 
L 161.670412 -44.84 
L 163.161598 -44.84 
L 164.652784 -44.84 
L 166.14397 -44.84 
L 167.635156 -44.84 
L 169.126342 -44.84 
L 170.617528 -44.84 
L 172.108714 -44.84 
L 173.5999 -44.84 
L 175.091086 -44.84 
L 176.582272 -44.84 
L 178.073458 -44.84 
L 179.564644 -44.84 
L 181.05583 -44.84 
L 182.547016 -44.84 
L 184.038202 -44.84 
L 185.529388 -44.84 
L 187.020574 -44.84 
L 188.51176 -44.84 
L 190.002946 -44.84 
L 191.494132 -44.84 
L 192.985318 -44.84 
L 194.476504 -44.84 
L 195.96769 -44.84 
L 197.458876 -44.84 
L 198.950062 -44.84 
L 200.441248 -44.84 
L 201.932434 -44.84 
L 203.42362 -44.84 
L 204.914806 -44.84 
L 206.405992 -44.84 
L 207.897178 -44.84 
L 209.388364 -44.84 
L 210.87955 -44.84 
L 212.370736 -44.84 
L 213.861922 -44.84 
L 215.353108 -44.84 
L 216.844294 -44.84 
L 218.33548 -44.84 
L 219.826666 -44.84 
L 221.317852 -44.84 
L 222.809038 -44.84 
L 224.300224 -44.84 
L 225.79141 -44.84 
L 227.282596 -44.84 
L 228.773782 -44.84 
L 230.264968 -44.84 
L 231.756154 -44.84 
L 233.24734 -44.84 
L 234.738526 -44.84 
L 236.229712 -44.84 
L 237.720898 -44.84 
L 239.212084 -44.84 
L 240.70327 -44.84 
L 242.194456 -44.84 
L 243.685642 -44.84 
L 245.176828 -44.84 
L 246.668014 -44.84 
L 248.1592 -44.84 
L 249.650386 -44.84 
L 251.141572 -44.84 
L 252.632758 -44.84 
L 254.123944 -44.84 
L 255.61513 -44.84 
L 257.106316 -44.84 
L 258.597502 -44.84 
L 260.088688 -44.84 
L 261.579874 -44.84 
L 263.07106 -44.84 
L 264.562246 -44.84 
L 266.053432 -44.84 
L 267.544618 -44.84 
L 269.035804 -44.84 
L 270.52699 -44.84 
L 272.018176 -44.84 
L 273.509362 -44.84 
L 275.000548 -44.84 
L 276.491734 -44.84 
L 277.98292 -44.84 
L 279.474106 -44.84 
L 280.965292 -44.84 
L 282.456478 -44.84 
L 283.947664 -44.84 
L 285.43885 -44.84 
L 286.930036 -44.84 
L 288.421222 -44.84 
L 289.912408 -44.84 
L 291.403594 -44.84 
L 292.894781 -44.84 
L 294.385967 -44.84 
L 295.877153 -44.84 
L 297.368339 -44.84 
L 298.859525 -44.84 
L 300.350711 -44.84 
L 301.841897 -44.84 
L 303.333083 -44.84 
L 304.824269 -44.84 
L 306.315455 -44.84 
L 307.806641 -44.84 
L 309.297827 -44.84 
L 310.789013 -44.84 
L 312.280199 -44.84 
L 313.771385 -44.84 
L 315.262571 -44.84 
L 316.753757 -44.84 
L 318.244943 -44.84 
L 319.736129 -44.84 
L 321.227315 -44.84 
L 322.718501 -44.84 
L 324.209687 -44.84 
L 325.700873 -44.84 
L 327.192059 -44.84 
L 328.683245 -44.84 
L 330.174431 -44.84 
L 331.665617 -44.84 
L 333.156803 -44.84 
L 334.647989 -44.84 
L 336.139175 -44.84 
L 337.630361 -44.84 
L 339.121547 -44.84 
L 340.612733 -44.84 
L 342.103919 -44.84 
L 343.595105 -44.84 
L 345.086291 -44.84 
L 346.577477 -44.84 
L 348.068663 -44.84 
L 349.559849 -44.84 
L 351.051035 -44.84 
L 352.542221 -44.84 
L 354.033407 -44.84 
L 355.524593 -44.84 
L 357.015779 -44.84 
L 358.506965 -44.84 
L 359.998151 -44.84 
L 361.489337 -44.84 
L 361.489337 -44.955728 
L 361.489337 -44.955728 
L 359.998151 -44.999529 
L 358.506965 -45.057968 
L 357.015779 -45.135199 
L 355.524593 -45.236299 
L 354.033407 -45.367395 
L 352.542221 -45.535777 
L 351.051035 -45.750001 
L 349.559849 -46.019961 
L 348.068663 -46.356921 
L 346.577477 -46.773498 
L 345.086291 -47.28357 
L 343.595105 -47.902107 
L 342.103919 -48.644911 
L 340.612733 -49.528244 
L 339.121547 -50.56836 
L 337.630361 -51.780912 
L 336.139175 -53.180272 
L 334.647989 -54.778752 
L 333.156803 -56.585765 
L 331.665617 -58.606951 
L 330.174431 -60.843306 
L 328.683245 -63.290367 
L 327.192059 -65.937498 
L 325.700873 -68.767328 
L 324.209687 -71.755405 
L 322.718501 -74.870105 
L 321.227315 -78.072834 
L 319.736129 -81.318558 
L 318.244943 -84.556669 
L 316.753757 -87.732173 
L 315.262571 -90.787197 
L 313.771385 -93.662741 
L 312.280199 -96.300634 
L 310.789013 -98.645614 
L 309.297827 -100.64742 
L 307.806641 -102.262838 
L 306.315455 -103.45757 
L 304.824269 -104.207848 
L 303.333083 -104.501728 
L 301.841897 -104.339969 
L 300.350711 -103.736487 
L 298.859525 -102.718341 
L 297.368339 -101.325274 
L 295.877153 -99.608816 
L 294.385967 -97.631024 
L 292.894781 -95.462897 
L 291.403594 -93.182571 
L 289.912408 -90.873367 
L 288.421222 -88.621776 
L 286.930036 -86.515483 
L 285.43885 -84.641496 
L 283.947664 -83.08444 
L 282.456478 -81.92508 
L 280.965292 -81.239098 
L 279.474106 -81.096141 
L 277.98292 -81.559137 
L 276.491734 -82.683868 
L 275.000548 -84.518753 
L 273.509362 -87.104818 
L 272.018176 -90.475779 
L 270.52699 -94.658197 
L 269.035804 -99.671633 
L 267.544618 -105.528759 
L 266.053432 -112.23536 
L 264.562246 -119.790214 
L 263.07106 -128.184803 
L 261.579874 -137.402868 
L 260.088688 -147.419818 
L 258.597502 -158.202032 
L 257.106316 -169.706109 
L 255.61513 -181.878134 
L 254.123944 -194.653044 
L 252.632758 -207.954187 
L 251.141572 -221.693139 
L 249.650386 -235.769871 
L 248.1592 -250.073295 
L 246.668014 -264.482244 
L 245.176828 -278.866869 
L 243.685642 -293.090427 
L 242.194456 -307.01142 
L 240.70327 -320.485989 
L 239.212084 -333.370493 
L 237.720898 -345.524151 
L 236.229712 -356.811664 
L 234.738526 -367.105726 
L 233.24734 -376.289339 
L 231.756154 -384.257882 
L 230.264968 -390.920891 
L 228.773782 -396.203545 
L 227.282596 -400.047825 
L 225.79141 -402.413381 
L 224.300224 -403.278095 
L 222.809038 -402.638359 
L 221.317852 -400.509058 
L 219.826666 -396.923272 
L 218.33548 -391.931676 
L 216.844294 -385.601634 
L 215.353108 -378.015972 
L 213.861922 -369.271446 
L 212.370736 -359.476897 
L 210.87955 -348.751144 
L 209.388364 -337.220647 
L 207.897178 -325.017021 
L 206.405992 -312.274475 
L 204.914806 -299.127271 
L 203.42362 -285.707304 
L 201.932434 -272.141876 
L 200.441248 -258.551767 
L 198.950062 -245.049626 
L 197.458876 -231.738745 
L 195.96769 -218.712203 
L 194.476504 -206.052366 
L 192.985318 -193.830708 
L 191.494132 -182.107894 
L 190.002946 -170.934054 
L 188.51176 -160.349201 
L 187.020574 -150.383718 
L 185.529388 -141.058873 
L 184.038202 -132.387341 
L 182.547016 -124.373695 
L 181.05583 -117.014898 
L 179.564644 -110.30079 
L 178.073458 -104.214597 
L 176.582272 -98.733505 
L 175.091086 -93.8293 
L 173.5999 -89.469113 
L 172.108714 -85.616266 
L 170.617528 -82.23121 
L 169.126342 -79.272543 
L 167.635156 -76.698064 
L 166.14397 -74.46583 
L 164.652784 -72.535152 
L 163.161598 -70.867505 
L 161.670412 -69.427284 
L 160.179226 -68.182382 
L 158.68804 -67.10458 
L 157.196854 -66.16971 
L 155.705668 -65.357635 
L 154.214482 -64.652042 
L 152.723296 -64.040087 
L 151.23211 -63.511936 
L 149.740924 -63.060236 
L 148.249738 -62.679575 
L 146.758552 -62.365938 
L 145.267366 -62.116223 
L 143.77618 -61.927813 
L 142.284994 -61.798223 
L 140.793808 -61.724824 
L 139.302622 -61.704637 
L 137.811436 -61.734178 
L 136.32025 -61.809355 
L 134.829064 -61.925387 
L 133.337878 -62.076744 
L 131.846692 -62.2571 
L 130.355506 -62.459295 
L 128.86432 -62.675311 
L 127.373134 -62.896279 
L 125.881948 -63.112514 
L 124.390762 -63.313604 
L 122.899576 -63.488565 
L 121.40839 -63.626053 
L 119.917204 -63.714663 
L 118.426018 -63.74328 
L 116.934832 -63.701486 
L 115.443646 -63.580006 
L 113.95246 -63.371148 
L 112.461274 -63.069226 
L 110.970088 -62.670923 
L 109.478902 -62.175564 
L 107.987716 -61.585282 
L 106.49653 -60.905044 
L 105.005344 -60.142549 
L 103.514158 -59.307976 
L 102.022972 -58.413615 
L 100.531786 -57.473384 
L 99.0406 -56.502279 
L 97.549414 -55.515779 
L 96.058228 -54.529241 
L 94.567042 -53.557338 
L 93.075856 -52.613546 
L 91.58467 -51.709728 
L 90.093484 -50.855821 
L 88.602298 -50.059643 
L 87.111112 -49.326808 
L 85.619926 -48.660758 
L 84.12874 -48.062891 
L 82.637554 -47.53276 
L 81.146368 -47.068336 
L 79.655182 -46.666303 
L 78.163996 -46.322362 
L 76.67281 -46.031537 
L 75.181624 -45.788456 
L 73.690438 -45.5876 
L 72.199252 -45.423514 
L 70.708066 -45.290975 
L 69.21688 -45.185115 
L 67.725694 -45.101502 
L 66.234508 -45.036192 
L 64.743322 -44.985738 
z
" style="stroke: #f4a582; stroke-width: 2.5"/>
    </defs>
    <g clip-path="url(#p1f2f33b35c)">
     <use xlink:href="#mf24af761af" x="0" y="432" style="fill: #f4a582; fill-opacity: 0.5; stroke: #f4a582; stroke-width: 2.5"/>
    </g>
   </g>
   <g id="PolyCollection_2">
    <defs>
     <path id="m5aea30d37f" d="M 137.677926 -44.919231 
L 137.677926 -44.84 
L 138.97708 -44.84 
L 140.276235 -44.84 
L 141.57539 -44.84 
L 142.874545 -44.84 
L 144.1737 -44.84 
L 145.472855 -44.84 
L 146.77201 -44.84 
L 148.071165 -44.84 
L 149.37032 -44.84 
L 150.669475 -44.84 
L 151.96863 -44.84 
L 153.267785 -44.84 
L 154.56694 -44.84 
L 155.866095 -44.84 
L 157.16525 -44.84 
L 158.464405 -44.84 
L 159.76356 -44.84 
L 161.062715 -44.84 
L 162.36187 -44.84 
L 163.661025 -44.84 
L 164.96018 -44.84 
L 166.259335 -44.84 
L 167.55849 -44.84 
L 168.857645 -44.84 
L 170.1568 -44.84 
L 171.455955 -44.84 
L 172.75511 -44.84 
L 174.054265 -44.84 
L 175.35342 -44.84 
L 176.652575 -44.84 
L 177.95173 -44.84 
L 179.250885 -44.84 
L 180.55004 -44.84 
L 181.849195 -44.84 
L 183.14835 -44.84 
L 184.447505 -44.84 
L 185.74666 -44.84 
L 187.045815 -44.84 
L 188.34497 -44.84 
L 189.644125 -44.84 
L 190.94328 -44.84 
L 192.242435 -44.84 
L 193.541589 -44.84 
L 194.840744 -44.84 
L 196.139899 -44.84 
L 197.439054 -44.84 
L 198.738209 -44.84 
L 200.037364 -44.84 
L 201.336519 -44.84 
L 202.635674 -44.84 
L 203.934829 -44.84 
L 205.233984 -44.84 
L 206.533139 -44.84 
L 207.832294 -44.84 
L 209.131449 -44.84 
L 210.430604 -44.84 
L 211.729759 -44.84 
L 213.028914 -44.84 
L 214.328069 -44.84 
L 215.627224 -44.84 
L 216.926379 -44.84 
L 218.225534 -44.84 
L 219.524689 -44.84 
L 220.823844 -44.84 
L 222.122999 -44.84 
L 223.422154 -44.84 
L 224.721309 -44.84 
L 226.020464 -44.84 
L 227.319619 -44.84 
L 228.618774 -44.84 
L 229.917929 -44.84 
L 231.217084 -44.84 
L 232.516239 -44.84 
L 233.815394 -44.84 
L 235.114549 -44.84 
L 236.413704 -44.84 
L 237.712859 -44.84 
L 239.012014 -44.84 
L 240.311169 -44.84 
L 241.610324 -44.84 
L 242.909479 -44.84 
L 244.208634 -44.84 
L 245.507789 -44.84 
L 246.806944 -44.84 
L 248.106099 -44.84 
L 249.405253 -44.84 
L 250.704408 -44.84 
L 252.003563 -44.84 
L 253.302718 -44.84 
L 254.601873 -44.84 
L 255.901028 -44.84 
L 257.200183 -44.84 
L 258.499338 -44.84 
L 259.798493 -44.84 
L 261.097648 -44.84 
L 262.396803 -44.84 
L 263.695958 -44.84 
L 264.995113 -44.84 
L 266.294268 -44.84 
L 267.593423 -44.84 
L 268.892578 -44.84 
L 270.191733 -44.84 
L 271.490888 -44.84 
L 272.790043 -44.84 
L 274.089198 -44.84 
L 275.388353 -44.84 
L 276.687508 -44.84 
L 277.986663 -44.84 
L 279.285818 -44.84 
L 280.584973 -44.84 
L 281.884128 -44.84 
L 283.183283 -44.84 
L 284.482438 -44.84 
L 285.781593 -44.84 
L 287.080748 -44.84 
L 288.379903 -44.84 
L 289.679058 -44.84 
L 290.978213 -44.84 
L 292.277368 -44.84 
L 293.576523 -44.84 
L 294.875678 -44.84 
L 296.174833 -44.84 
L 297.473988 -44.84 
L 298.773143 -44.84 
L 300.072298 -44.84 
L 301.371453 -44.84 
L 302.670608 -44.84 
L 303.969762 -44.84 
L 305.268917 -44.84 
L 306.568072 -44.84 
L 307.867227 -44.84 
L 309.166382 -44.84 
L 310.465537 -44.84 
L 311.764692 -44.84 
L 313.063847 -44.84 
L 314.363002 -44.84 
L 315.662157 -44.84 
L 316.961312 -44.84 
L 318.260467 -44.84 
L 319.559622 -44.84 
L 320.858777 -44.84 
L 322.157932 -44.84 
L 323.457087 -44.84 
L 324.756242 -44.84 
L 326.055397 -44.84 
L 327.354552 -44.84 
L 328.653707 -44.84 
L 329.952862 -44.84 
L 331.252017 -44.84 
L 332.551172 -44.84 
L 333.850327 -44.84 
L 335.149482 -44.84 
L 336.448637 -44.84 
L 337.747792 -44.84 
L 339.046947 -44.84 
L 340.346102 -44.84 
L 341.645257 -44.84 
L 342.944412 -44.84 
L 344.243567 -44.84 
L 345.542722 -44.84 
L 346.841877 -44.84 
L 348.141032 -44.84 
L 349.440187 -44.84 
L 350.739342 -44.84 
L 352.038497 -44.84 
L 353.337652 -44.84 
L 354.636807 -44.84 
L 355.935962 -44.84 
L 357.235117 -44.84 
L 358.534271 -44.84 
L 359.833426 -44.84 
L 361.132581 -44.84 
L 362.431736 -44.84 
L 363.730891 -44.84 
L 365.030046 -44.84 
L 366.329201 -44.84 
L 367.628356 -44.84 
L 368.927511 -44.84 
L 370.226666 -44.84 
L 371.525821 -44.84 
L 372.824976 -44.84 
L 374.124131 -44.84 
L 375.423286 -44.84 
L 376.722441 -44.84 
L 378.021596 -44.84 
L 379.320751 -44.84 
L 380.619906 -44.84 
L 381.919061 -44.84 
L 383.218216 -44.84 
L 384.517371 -44.84 
L 385.816526 -44.84 
L 387.115681 -44.84 
L 388.414836 -44.84 
L 389.713991 -44.84 
L 391.013146 -44.84 
L 392.312301 -44.84 
L 393.611456 -44.84 
L 394.910611 -44.84 
L 396.209766 -44.84 
L 396.209766 -45.149714 
L 396.209766 -45.149714 
L 394.910611 -45.248709 
L 393.611456 -45.375984 
L 392.312301 -45.538531 
L 391.013146 -45.744742 
L 389.713991 -46.004609 
L 388.414836 -46.329919 
L 387.115681 -46.734454 
L 385.816526 -47.234174 
L 384.517371 -47.847394 
L 383.218216 -48.59492 
L 381.919061 -49.500153 
L 380.619906 -50.589137 
L 379.320751 -51.890542 
L 378.021596 -53.435571 
L 376.722441 -55.257769 
L 375.423286 -57.392742 
L 374.124131 -59.877749 
L 372.824976 -62.751198 
L 371.525821 -66.052002 
L 370.226666 -69.818836 
L 368.927511 -74.08927 
L 367.628356 -78.898817 
L 366.329201 -84.27989 
L 365.030046 -90.26071 
L 363.730891 -96.864177 
L 362.431736 -104.106756 
L 361.132581 -111.997386 
L 359.833426 -120.53648 
L 358.534271 -129.715031 
L 357.235117 -139.513875 
L 355.935962 -149.903144 
L 354.636807 -160.841942 
L 353.337652 -172.278262 
L 352.038497 -184.149183 
L 350.739342 -196.381337 
L 349.440187 -208.891664 
L 348.141032 -221.588447 
L 346.841877 -234.372601 
L 345.542722 -247.139208 
L 344.243567 -259.779246 
L 342.944412 -272.181484 
L 341.645257 -284.234483 
L 340.346102 -295.828662 
L 339.046947 -306.858359 
L 337.747792 -317.223831 
L 336.448637 -326.833146 
L 335.149482 -335.603896 
L 333.850327 -343.464685 
L 332.551172 -350.356359 
L 331.252017 -356.232926 
L 329.952862 -361.062148 
L 328.653707 -364.825794 
L 327.354552 -367.519546 
L 326.055397 -369.152567 
L 324.756242 -369.746755 
L 323.457087 -369.335714 
L 322.157932 -367.963482 
L 320.858777 -365.683071 
L 319.559622 -362.554867 
L 318.260467 -358.644953 
L 316.961312 -354.023421 
L 315.662157 -348.76272 
L 314.363002 -342.936102 
L 313.063847 -336.616213 
L 311.764692 -329.873859 
L 310.465537 -322.776991 
L 309.166382 -315.389908 
L 307.867227 -307.772698 
L 306.568072 -299.980899 
L 305.268917 -292.065378 
L 303.969762 -284.072388 
L 302.670608 -276.043785 
L 301.371453 -268.017355 
L 300.072298 -260.027226 
L 298.773143 -252.104318 
L 297.473988 -244.276794 
L 296.174833 -236.570488 
L 294.875678 -229.009277 
L 293.576523 -221.615381 
L 292.277368 -214.409582 
L 290.978213 -207.411354 
L 289.679058 -200.638907 
L 288.379903 -194.109164 
L 287.080748 -187.837666 
L 285.781593 -181.83844 
L 284.482438 -176.123836 
L 283.183283 -170.704357 
L 281.884128 -165.588492 
L 280.584973 -160.782572 
L 279.285818 -156.290654 
L 277.986663 -152.114439 
L 276.687508 -148.253232 
L 275.388353 -144.703937 
L 274.089198 -141.461083 
L 272.790043 -138.516882 
L 271.490888 -135.861313 
L 270.191733 -133.482215 
L 268.892578 -131.365407 
L 267.593423 -129.494812 
L 266.294268 -127.852594 
L 264.995113 -126.419322 
L 263.695958 -125.174144 
L 262.396803 -124.094992 
L 261.097648 -123.158823 
L 259.798493 -122.341895 
L 258.499338 -121.620089 
L 257.200183 -120.969269 
L 255.901028 -120.365684 
L 254.601873 -119.786399 
L 253.302718 -119.209751 
L 252.003563 -118.615804 
L 250.704408 -117.986788 
L 249.405253 -117.30751 
L 248.106099 -116.565692 
L 246.806944 -115.752251 
L 245.507789 -114.861465 
L 244.208634 -113.891035 
L 242.909479 -112.842032 
L 241.610324 -111.718715 
L 240.311169 -110.528237 
L 239.012014 -109.280241 
L 237.712859 -107.986372 
L 236.413704 -106.659712 
L 235.114549 -105.314185 
L 233.815394 -103.963938 
L 232.516239 -102.622742 
L 231.217084 -101.303435 
L 229.917929 -100.017427 
L 228.618774 -98.774292 
L 227.319619 -97.581462 
L 226.020464 -96.444028 
L 224.721309 -95.364651 
L 223.422154 -94.343587 
L 222.122999 -93.378803 
L 220.823844 -92.466193 
L 219.524689 -91.599855 
L 218.225534 -90.772427 
L 216.926379 -89.975454 
L 215.627224 -89.199775 
L 214.328069 -88.435901 
L 213.028914 -87.674381 
L 211.729759 -86.906129 
L 210.430604 -86.122711 
L 209.131449 -85.316584 
L 207.832294 -84.481278 
L 206.533139 -83.611524 
L 205.233984 -82.703322 
L 203.934829 -81.753971 
L 202.635674 -80.762043 
L 201.336519 -79.727324 
L 200.037364 -78.650727 
L 198.738209 -77.534176 
L 197.439054 -76.380486 
L 196.139899 -75.193228 
L 194.840744 -73.976595 
L 193.541589 -72.735275 
L 192.242435 -71.474331 
L 190.94328 -70.19909 
L 189.644125 -68.915046 
L 188.34497 -67.627778 
L 187.045815 -66.342877 
L 185.74666 -65.065878 
L 184.447505 -63.802213 
L 183.14835 -62.557158 
L 181.849195 -61.335789 
L 180.55004 -60.142941 
L 179.250885 -58.983168 
L 177.95173 -57.860699 
L 176.652575 -56.779401 
L 175.35342 -55.74274 
L 174.054265 -54.753738 
L 172.75511 -53.814947 
L 171.455955 -52.928414 
L 170.1568 -52.095659 
L 168.857645 -51.317666 
L 167.55849 -50.594874 
L 166.259335 -49.927186 
L 164.96018 -49.313985 
L 163.661025 -48.754163 
L 162.36187 -48.246163 
L 161.062715 -47.788021 
L 159.76356 -47.377422 
L 158.464405 -47.011764 
L 157.16525 -46.688219 
L 155.866095 -46.403794 
L 154.56694 -46.155402 
L 153.267785 -45.939914 
L 151.96863 -45.754221 
L 150.669475 -45.595281 
L 149.37032 -45.460163 
L 148.071165 -45.346079 
L 146.77201 -45.250415 
L 145.472855 -45.170752 
L 144.1737 -45.10487 
L 142.874545 -45.050766 
L 141.57539 -45.006642 
L 140.276235 -44.97091 
L 138.97708 -44.942175 
L 137.677926 -44.919231 
z
" style="stroke: #b2182b; stroke-width: 2.5"/>
    </defs>
    <g clip-path="url(#p1f2f33b35c)">
     <use xlink:href="#m5aea30d37f" x="0" y="432" style="fill: #b2182b; fill-opacity: 0.5; stroke: #b2182b; stroke-width: 2.5"/>
    </g>
   </g>
   <g id="matplotlib.axis_1">
    <g id="xtick_1">
     <g id="line2d_1">
      <defs>
       <path id="m9876032b98" d="M 0 0 
L 0 3.5 
" style="stroke: #000000; stroke-width: 0.8"/>
      </defs>
      <g>
       <use xlink:href="#m9876032b98" x="81.609973" y="387.16" style="stroke: #000000; stroke-width: 0.8"/>
      </g>
     </g>
     <g id="text_1">
      <!-- 3.950 -->
      <g transform="translate(67.29591 401.758438) scale(0.1 -0.1)">
       <defs>
        <path id="DejaVuSans-33" d="M 2597 2516 
Q 3050 2419 3304 2112 
Q 3559 1806 3559 1356 
Q 3559 666 3084 287 
Q 2609 -91 1734 -91 
Q 1441 -91 1130 -33 
Q 819 25 488 141 
L 488 750 
Q 750 597 1062 519 
Q 1375 441 1716 441 
Q 2309 441 2620 675 
Q 2931 909 2931 1356 
Q 2931 1769 2642 2001 
Q 2353 2234 1838 2234 
L 1294 2234 
L 1294 2753 
L 1863 2753 
Q 2328 2753 2575 2939 
Q 2822 3125 2822 3475 
Q 2822 3834 2567 4026 
Q 2313 4219 1838 4219 
Q 1578 4219 1281 4162 
Q 984 4106 628 3988 
L 628 4550 
Q 988 4650 1302 4700 
Q 1616 4750 1894 4750 
Q 2613 4750 3031 4423 
Q 3450 4097 3450 3541 
Q 3450 3153 3228 2886 
Q 3006 2619 2597 2516 
z
" transform="scale(0.015625)"/>
        <path id="DejaVuSans-2e" d="M 684 794 
L 1344 794 
L 1344 0 
L 684 0 
L 684 794 
z
" transform="scale(0.015625)"/>
        <path id="DejaVuSans-39" d="M 703 97 
L 703 672 
Q 941 559 1184 500 
Q 1428 441 1663 441 
Q 2288 441 2617 861 
Q 2947 1281 2994 2138 
Q 2813 1869 2534 1725 
Q 2256 1581 1919 1581 
Q 1219 1581 811 2004 
Q 403 2428 403 3163 
Q 403 3881 828 4315 
Q 1253 4750 1959 4750 
Q 2769 4750 3195 4129 
Q 3622 3509 3622 2328 
Q 3622 1225 3098 567 
Q 2575 -91 1691 -91 
Q 1453 -91 1209 -44 
Q 966 3 703 97 
z
M 1959 2075 
Q 2384 2075 2632 2365 
Q 2881 2656 2881 3163 
Q 2881 3666 2632 3958 
Q 2384 4250 1959 4250 
Q 1534 4250 1286 3958 
Q 1038 3666 1038 3163 
Q 1038 2656 1286 2365 
Q 1534 2075 1959 2075 
z
" transform="scale(0.015625)"/>
        <path id="DejaVuSans-35" d="M 691 4666 
L 3169 4666 
L 3169 4134 
L 1269 4134 
L 1269 2991 
Q 1406 3038 1543 3061 
Q 1681 3084 1819 3084 
Q 2600 3084 3056 2656 
Q 3513 2228 3513 1497 
Q 3513 744 3044 326 
Q 2575 -91 1722 -91 
Q 1428 -91 1123 -41 
Q 819 9 494 109 
L 494 744 
Q 775 591 1075 516 
Q 1375 441 1709 441 
Q 2250 441 2565 725 
Q 2881 1009 2881 1497 
Q 2881 1984 2565 2268 
Q 2250 2553 1709 2553 
Q 1456 2553 1204 2497 
Q 953 2441 691 2322 
L 691 4666 
z
" transform="scale(0.015625)"/>
        <path id="DejaVuSans-30" d="M 2034 4250 
Q 1547 4250 1301 3770 
Q 1056 3291 1056 2328 
Q 1056 1369 1301 889 
Q 1547 409 2034 409 
Q 2525 409 2770 889 
Q 3016 1369 3016 2328 
Q 3016 3291 2770 3770 
Q 2525 4250 2034 4250 
z
M 2034 4750 
Q 2819 4750 3233 4129 
Q 3647 3509 3647 2328 
Q 3647 1150 3233 529 
Q 2819 -91 2034 -91 
Q 1250 -91 836 529 
Q 422 1150 422 2328 
Q 422 3509 836 4129 
Q 1250 4750 2034 4750 
z
" transform="scale(0.015625)"/>
       </defs>
       <use xlink:href="#DejaVuSans-33"/>
       <use xlink:href="#DejaVuSans-2e" x="63.623047"/>
       <use xlink:href="#DejaVuSans-39" x="95.410156"/>
       <use xlink:href="#DejaVuSans-35" x="159.033203"/>
       <use xlink:href="#DejaVuSans-30" x="222.65625"/>
      </g>
     </g>
    </g>
    <g id="xtick_2">
     <g id="line2d_2">
      <g>
       <use xlink:href="#m9876032b98" x="122.216632" y="387.16" style="stroke: #000000; stroke-width: 0.8"/>
      </g>
     </g>
     <g id="text_2">
      <!-- 3.975 -->
      <g transform="translate(107.90257 401.758438) scale(0.1 -0.1)">
       <defs>
        <path id="DejaVuSans-37" d="M 525 4666 
L 3525 4666 
L 3525 4397 
L 1831 0 
L 1172 0 
L 2766 4134 
L 525 4134 
L 525 4666 
z
" transform="scale(0.015625)"/>
       </defs>
       <use xlink:href="#DejaVuSans-33"/>
       <use xlink:href="#DejaVuSans-2e" x="63.623047"/>
       <use xlink:href="#DejaVuSans-39" x="95.410156"/>
       <use xlink:href="#DejaVuSans-37" x="159.033203"/>
       <use xlink:href="#DejaVuSans-35" x="222.65625"/>
      </g>
     </g>
    </g>
    <g id="xtick_3">
     <g id="line2d_3">
      <g>
       <use xlink:href="#m9876032b98" x="162.823292" y="387.16" style="stroke: #000000; stroke-width: 0.8"/>
      </g>
     </g>
     <g id="text_3">
      <!-- 4.000 -->
      <g transform="translate(148.50923 401.758438) scale(0.1 -0.1)">
       <defs>
        <path id="DejaVuSans-34" d="M 2419 4116 
L 825 1625 
L 2419 1625 
L 2419 4116 
z
M 2253 4666 
L 3047 4666 
L 3047 1625 
L 3713 1625 
L 3713 1100 
L 3047 1100 
L 3047 0 
L 2419 0 
L 2419 1100 
L 313 1100 
L 313 1709 
L 2253 4666 
z
" transform="scale(0.015625)"/>
       </defs>
       <use xlink:href="#DejaVuSans-34"/>
       <use xlink:href="#DejaVuSans-2e" x="63.623047"/>
       <use xlink:href="#DejaVuSans-30" x="95.410156"/>
       <use xlink:href="#DejaVuSans-30" x="159.033203"/>
       <use xlink:href="#DejaVuSans-30" x="222.65625"/>
      </g>
     </g>
    </g>
    <g id="xtick_4">
     <g id="line2d_4">
      <g>
       <use xlink:href="#m9876032b98" x="203.429952" y="387.16" style="stroke: #000000; stroke-width: 0.8"/>
      </g>
     </g>
     <g id="text_4">
      <!-- 4.025 -->
      <g transform="translate(189.115889 401.758438) scale(0.1 -0.1)">
       <defs>
        <path id="DejaVuSans-32" d="M 1228 531 
L 3431 531 
L 3431 0 
L 469 0 
L 469 531 
Q 828 903 1448 1529 
Q 2069 2156 2228 2338 
Q 2531 2678 2651 2914 
Q 2772 3150 2772 3378 
Q 2772 3750 2511 3984 
Q 2250 4219 1831 4219 
Q 1534 4219 1204 4116 
Q 875 4013 500 3803 
L 500 4441 
Q 881 4594 1212 4672 
Q 1544 4750 1819 4750 
Q 2544 4750 2975 4387 
Q 3406 4025 3406 3419 
Q 3406 3131 3298 2873 
Q 3191 2616 2906 2266 
Q 2828 2175 2409 1742 
Q 1991 1309 1228 531 
z
" transform="scale(0.015625)"/>
       </defs>
       <use xlink:href="#DejaVuSans-34"/>
       <use xlink:href="#DejaVuSans-2e" x="63.623047"/>
       <use xlink:href="#DejaVuSans-30" x="95.410156"/>
       <use xlink:href="#DejaVuSans-32" x="159.033203"/>
       <use xlink:href="#DejaVuSans-35" x="222.65625"/>
      </g>
     </g>
    </g>
    <g id="xtick_5">
     <g id="line2d_5">
      <g>
       <use xlink:href="#m9876032b98" x="244.036611" y="387.16" style="stroke: #000000; stroke-width: 0.8"/>
      </g>
     </g>
     <g id="text_5">
      <!-- 4.050 -->
      <g transform="translate(229.722549 401.758438) scale(0.1 -0.1)">
       <use xlink:href="#DejaVuSans-34"/>
       <use xlink:href="#DejaVuSans-2e" x="63.623047"/>
       <use xlink:href="#DejaVuSans-30" x="95.410156"/>
       <use xlink:href="#DejaVuSans-35" x="159.033203"/>
       <use xlink:href="#DejaVuSans-30" x="222.65625"/>
      </g>
     </g>
    </g>
    <g id="xtick_6">
     <g id="line2d_6">
      <g>
       <use xlink:href="#m9876032b98" x="284.643271" y="387.16" style="stroke: #000000; stroke-width: 0.8"/>
      </g>
     </g>
     <g id="text_6">
      <!-- 4.075 -->
      <g transform="translate(270.329208 401.758438) scale(0.1 -0.1)">
       <use xlink:href="#DejaVuSans-34"/>
       <use xlink:href="#DejaVuSans-2e" x="63.623047"/>
       <use xlink:href="#DejaVuSans-30" x="95.410156"/>
       <use xlink:href="#DejaVuSans-37" x="159.033203"/>
       <use xlink:href="#DejaVuSans-35" x="222.65625"/>
      </g>
     </g>
    </g>
    <g id="xtick_7">
     <g id="line2d_7">
      <g>
       <use xlink:href="#m9876032b98" x="325.249931" y="387.16" style="stroke: #000000; stroke-width: 0.8"/>
      </g>
     </g>
     <g id="text_7">
      <!-- 4.100 -->
      <g transform="translate(310.935868 401.758438) scale(0.1 -0.1)">
       <defs>
        <path id="DejaVuSans-31" d="M 794 531 
L 1825 531 
L 1825 4091 
L 703 3866 
L 703 4441 
L 1819 4666 
L 2450 4666 
L 2450 531 
L 3481 531 
L 3481 0 
L 794 0 
L 794 531 
z
" transform="scale(0.015625)"/>
       </defs>
       <use xlink:href="#DejaVuSans-34"/>
       <use xlink:href="#DejaVuSans-2e" x="63.623047"/>
       <use xlink:href="#DejaVuSans-31" x="95.410156"/>
       <use xlink:href="#DejaVuSans-30" x="159.033203"/>
       <use xlink:href="#DejaVuSans-30" x="222.65625"/>
      </g>
     </g>
    </g>
    <g id="xtick_8">
     <g id="line2d_8">
      <g>
       <use xlink:href="#m9876032b98" x="365.85659" y="387.16" style="stroke: #000000; stroke-width: 0.8"/>
      </g>
     </g>
     <g id="text_8">
      <!-- 4.125 -->
      <g transform="translate(351.542528 401.758438) scale(0.1 -0.1)">
       <use xlink:href="#DejaVuSans-34"/>
       <use xlink:href="#DejaVuSans-2e" x="63.623047"/>
       <use xlink:href="#DejaVuSans-31" x="95.410156"/>
       <use xlink:href="#DejaVuSans-32" x="159.033203"/>
       <use xlink:href="#DejaVuSans-35" x="222.65625"/>
      </g>
     </g>
    </g>
    <g id="xtick_9">
     <g id="line2d_9">
      <g>
       <use xlink:href="#m9876032b98" x="406.46325" y="387.16" style="stroke: #000000; stroke-width: 0.8"/>
      </g>
     </g>
     <g id="text_9">
      <!-- 4.150 -->
      <g transform="translate(392.149187 401.758438) scale(0.1 -0.1)">
       <use xlink:href="#DejaVuSans-34"/>
       <use xlink:href="#DejaVuSans-2e" x="63.623047"/>
       <use xlink:href="#DejaVuSans-31" x="95.410156"/>
       <use xlink:href="#DejaVuSans-35" x="159.033203"/>
       <use xlink:href="#DejaVuSans-30" x="222.65625"/>
      </g>
     </g>
    </g>
    <g id="text_10">
     <!-- Predicted Fluorescence -->
     <g transform="translate(160.880294 416.95625) scale(0.12 -0.12)">
      <defs>
       <path id="DejaVuSans-50" d="M 1259 4147 
L 1259 2394 
L 2053 2394 
Q 2494 2394 2734 2622 
Q 2975 2850 2975 3272 
Q 2975 3691 2734 3919 
Q 2494 4147 2053 4147 
L 1259 4147 
z
M 628 4666 
L 2053 4666 
Q 2838 4666 3239 4311 
Q 3641 3956 3641 3272 
Q 3641 2581 3239 2228 
Q 2838 1875 2053 1875 
L 1259 1875 
L 1259 0 
L 628 0 
L 628 4666 
z
" transform="scale(0.015625)"/>
       <path id="DejaVuSans-72" d="M 2631 2963 
Q 2534 3019 2420 3045 
Q 2306 3072 2169 3072 
Q 1681 3072 1420 2755 
Q 1159 2438 1159 1844 
L 1159 0 
L 581 0 
L 581 3500 
L 1159 3500 
L 1159 2956 
Q 1341 3275 1631 3429 
Q 1922 3584 2338 3584 
Q 2397 3584 2469 3576 
Q 2541 3569 2628 3553 
L 2631 2963 
z
" transform="scale(0.015625)"/>
       <path id="DejaVuSans-65" d="M 3597 1894 
L 3597 1613 
L 953 1613 
Q 991 1019 1311 708 
Q 1631 397 2203 397 
Q 2534 397 2845 478 
Q 3156 559 3463 722 
L 3463 178 
Q 3153 47 2828 -22 
Q 2503 -91 2169 -91 
Q 1331 -91 842 396 
Q 353 884 353 1716 
Q 353 2575 817 3079 
Q 1281 3584 2069 3584 
Q 2775 3584 3186 3129 
Q 3597 2675 3597 1894 
z
M 3022 2063 
Q 3016 2534 2758 2815 
Q 2500 3097 2075 3097 
Q 1594 3097 1305 2825 
Q 1016 2553 972 2059 
L 3022 2063 
z
" transform="scale(0.015625)"/>
       <path id="DejaVuSans-64" d="M 2906 2969 
L 2906 4863 
L 3481 4863 
L 3481 0 
L 2906 0 
L 2906 525 
Q 2725 213 2448 61 
Q 2172 -91 1784 -91 
Q 1150 -91 751 415 
Q 353 922 353 1747 
Q 353 2572 751 3078 
Q 1150 3584 1784 3584 
Q 2172 3584 2448 3432 
Q 2725 3281 2906 2969 
z
M 947 1747 
Q 947 1113 1208 752 
Q 1469 391 1925 391 
Q 2381 391 2643 752 
Q 2906 1113 2906 1747 
Q 2906 2381 2643 2742 
Q 2381 3103 1925 3103 
Q 1469 3103 1208 2742 
Q 947 2381 947 1747 
z
" transform="scale(0.015625)"/>
       <path id="DejaVuSans-69" d="M 603 3500 
L 1178 3500 
L 1178 0 
L 603 0 
L 603 3500 
z
M 603 4863 
L 1178 4863 
L 1178 4134 
L 603 4134 
L 603 4863 
z
" transform="scale(0.015625)"/>
       <path id="DejaVuSans-63" d="M 3122 3366 
L 3122 2828 
Q 2878 2963 2633 3030 
Q 2388 3097 2138 3097 
Q 1578 3097 1268 2742 
Q 959 2388 959 1747 
Q 959 1106 1268 751 
Q 1578 397 2138 397 
Q 2388 397 2633 464 
Q 2878 531 3122 666 
L 3122 134 
Q 2881 22 2623 -34 
Q 2366 -91 2075 -91 
Q 1284 -91 818 406 
Q 353 903 353 1747 
Q 353 2603 823 3093 
Q 1294 3584 2113 3584 
Q 2378 3584 2631 3529 
Q 2884 3475 3122 3366 
z
" transform="scale(0.015625)"/>
       <path id="DejaVuSans-74" d="M 1172 4494 
L 1172 3500 
L 2356 3500 
L 2356 3053 
L 1172 3053 
L 1172 1153 
Q 1172 725 1289 603 
Q 1406 481 1766 481 
L 2356 481 
L 2356 0 
L 1766 0 
Q 1100 0 847 248 
Q 594 497 594 1153 
L 594 3053 
L 172 3053 
L 172 3500 
L 594 3500 
L 594 4494 
L 1172 4494 
z
" transform="scale(0.015625)"/>
       <path id="DejaVuSans-20" transform="scale(0.015625)"/>
       <path id="DejaVuSans-46" d="M 628 4666 
L 3309 4666 
L 3309 4134 
L 1259 4134 
L 1259 2759 
L 3109 2759 
L 3109 2228 
L 1259 2228 
L 1259 0 
L 628 0 
L 628 4666 
z
" transform="scale(0.015625)"/>
       <path id="DejaVuSans-6c" d="M 603 4863 
L 1178 4863 
L 1178 0 
L 603 0 
L 603 4863 
z
" transform="scale(0.015625)"/>
       <path id="DejaVuSans-75" d="M 544 1381 
L 544 3500 
L 1119 3500 
L 1119 1403 
Q 1119 906 1312 657 
Q 1506 409 1894 409 
Q 2359 409 2629 706 
Q 2900 1003 2900 1516 
L 2900 3500 
L 3475 3500 
L 3475 0 
L 2900 0 
L 2900 538 
Q 2691 219 2414 64 
Q 2138 -91 1772 -91 
Q 1169 -91 856 284 
Q 544 659 544 1381 
z
M 1991 3584 
L 1991 3584 
z
" transform="scale(0.015625)"/>
       <path id="DejaVuSans-6f" d="M 1959 3097 
Q 1497 3097 1228 2736 
Q 959 2375 959 1747 
Q 959 1119 1226 758 
Q 1494 397 1959 397 
Q 2419 397 2687 759 
Q 2956 1122 2956 1747 
Q 2956 2369 2687 2733 
Q 2419 3097 1959 3097 
z
M 1959 3584 
Q 2709 3584 3137 3096 
Q 3566 2609 3566 1747 
Q 3566 888 3137 398 
Q 2709 -91 1959 -91 
Q 1206 -91 779 398 
Q 353 888 353 1747 
Q 353 2609 779 3096 
Q 1206 3584 1959 3584 
z
" transform="scale(0.015625)"/>
       <path id="DejaVuSans-73" d="M 2834 3397 
L 2834 2853 
Q 2591 2978 2328 3040 
Q 2066 3103 1784 3103 
Q 1356 3103 1142 2972 
Q 928 2841 928 2578 
Q 928 2378 1081 2264 
Q 1234 2150 1697 2047 
L 1894 2003 
Q 2506 1872 2764 1633 
Q 3022 1394 3022 966 
Q 3022 478 2636 193 
Q 2250 -91 1575 -91 
Q 1294 -91 989 -36 
Q 684 19 347 128 
L 347 722 
Q 666 556 975 473 
Q 1284 391 1588 391 
Q 1994 391 2212 530 
Q 2431 669 2431 922 
Q 2431 1156 2273 1281 
Q 2116 1406 1581 1522 
L 1381 1569 
Q 847 1681 609 1914 
Q 372 2147 372 2553 
Q 372 3047 722 3315 
Q 1072 3584 1716 3584 
Q 2034 3584 2315 3537 
Q 2597 3491 2834 3397 
z
" transform="scale(0.015625)"/>
       <path id="DejaVuSans-6e" d="M 3513 2113 
L 3513 0 
L 2938 0 
L 2938 2094 
Q 2938 2591 2744 2837 
Q 2550 3084 2163 3084 
Q 1697 3084 1428 2787 
Q 1159 2491 1159 1978 
L 1159 0 
L 581 0 
L 581 3500 
L 1159 3500 
L 1159 2956 
Q 1366 3272 1645 3428 
Q 1925 3584 2291 3584 
Q 2894 3584 3203 3211 
Q 3513 2838 3513 2113 
z
" transform="scale(0.015625)"/>
      </defs>
      <use xlink:href="#DejaVuSans-50"/>
      <use xlink:href="#DejaVuSans-72" x="58.552734"/>
      <use xlink:href="#DejaVuSans-65" x="97.416016"/>
      <use xlink:href="#DejaVuSans-64" x="158.939453"/>
      <use xlink:href="#DejaVuSans-69" x="222.416016"/>
      <use xlink:href="#DejaVuSans-63" x="250.199219"/>
      <use xlink:href="#DejaVuSans-74" x="305.179688"/>
      <use xlink:href="#DejaVuSans-65" x="344.388672"/>
      <use xlink:href="#DejaVuSans-64" x="405.912109"/>
      <use xlink:href="#DejaVuSans-20" x="469.388672"/>
      <use xlink:href="#DejaVuSans-46" x="501.175781"/>
      <use xlink:href="#DejaVuSans-6c" x="558.695312"/>
      <use xlink:href="#DejaVuSans-75" x="586.478516"/>
      <use xlink:href="#DejaVuSans-6f" x="649.857422"/>
      <use xlink:href="#DejaVuSans-72" x="711.039062"/>
      <use xlink:href="#DejaVuSans-65" x="749.902344"/>
      <use xlink:href="#DejaVuSans-73" x="811.425781"/>
      <use xlink:href="#DejaVuSans-63" x="863.525391"/>
      <use xlink:href="#DejaVuSans-65" x="918.505859"/>
      <use xlink:href="#DejaVuSans-6e" x="980.029297"/>
      <use xlink:href="#DejaVuSans-63" x="1043.408203"/>
      <use xlink:href="#DejaVuSans-65" x="1098.388672"/>
     </g>
    </g>
   </g>
   <g id="matplotlib.axis_2">
    <g id="ytick_1">
     <g id="line2d_10">
      <defs>
       <path id="mad0533e4e0" d="M 0 0 
L -3.5 0 
" style="stroke: #000000; stroke-width: 0.8"/>
      </defs>
      <g>
       <use xlink:href="#mad0533e4e0" x="48.17" y="387.16" style="stroke: #000000; stroke-width: 0.8"/>
      </g>
     </g>
     <g id="text_11">
      <!-- 0 -->
      <g transform="translate(34.8075 390.959219) scale(0.1 -0.1)">
       <use xlink:href="#DejaVuSans-30"/>
      </g>
     </g>
    </g>
    <g id="ytick_2">
     <g id="line2d_11">
      <g>
       <use xlink:href="#mad0533e4e0" x="48.17" y="311.807355" style="stroke: #000000; stroke-width: 0.8"/>
      </g>
     </g>
     <g id="text_12">
      <!-- 5 -->
      <g transform="translate(34.8075 315.606574) scale(0.1 -0.1)">
       <use xlink:href="#DejaVuSans-35"/>
      </g>
     </g>
    </g>
    <g id="ytick_3">
     <g id="line2d_12">
      <g>
       <use xlink:href="#mad0533e4e0" x="48.17" y="236.454711" style="stroke: #000000; stroke-width: 0.8"/>
      </g>
     </g>
     <g id="text_13">
      <!-- 10 -->
      <g transform="translate(28.445 240.25393) scale(0.1 -0.1)">
       <use xlink:href="#DejaVuSans-31"/>
       <use xlink:href="#DejaVuSans-30" x="63.623047"/>
      </g>
     </g>
    </g>
    <g id="ytick_4">
     <g id="line2d_13">
      <g>
       <use xlink:href="#mad0533e4e0" x="48.17" y="161.102066" style="stroke: #000000; stroke-width: 0.8"/>
      </g>
     </g>
     <g id="text_14">
      <!-- 15 -->
      <g transform="translate(28.445 164.901285) scale(0.1 -0.1)">
       <use xlink:href="#DejaVuSans-31"/>
       <use xlink:href="#DejaVuSans-35" x="63.623047"/>
      </g>
     </g>
    </g>
    <g id="ytick_5">
     <g id="line2d_14">
      <g>
       <use xlink:href="#mad0533e4e0" x="48.17" y="85.749422" style="stroke: #000000; stroke-width: 0.8"/>
      </g>
     </g>
     <g id="text_15">
      <!-- 20 -->
      <g transform="translate(28.445 89.54864) scale(0.1 -0.1)">
       <use xlink:href="#DejaVuSans-32"/>
       <use xlink:href="#DejaVuSans-30" x="63.623047"/>
      </g>
     </g>
    </g>
    <g id="text_16">
     <!-- Density -->
     <g transform="translate(21.533438 225.592031) rotate(-90) scale(0.14 -0.14)">
      <defs>
       <path id="DejaVuSans-44" d="M 1259 4147 
L 1259 519 
L 2022 519 
Q 2988 519 3436 956 
Q 3884 1394 3884 2338 
Q 3884 3275 3436 3711 
Q 2988 4147 2022 4147 
L 1259 4147 
z
M 628 4666 
L 1925 4666 
Q 3281 4666 3915 4102 
Q 4550 3538 4550 2338 
Q 4550 1131 3912 565 
Q 3275 0 1925 0 
L 628 0 
L 628 4666 
z
" transform="scale(0.015625)"/>
       <path id="DejaVuSans-79" d="M 2059 -325 
Q 1816 -950 1584 -1140 
Q 1353 -1331 966 -1331 
L 506 -1331 
L 506 -850 
L 844 -850 
Q 1081 -850 1212 -737 
Q 1344 -625 1503 -206 
L 1606 56 
L 191 3500 
L 800 3500 
L 1894 763 
L 2988 3500 
L 3597 3500 
L 2059 -325 
z
" transform="scale(0.015625)"/>
      </defs>
      <use xlink:href="#DejaVuSans-44"/>
      <use xlink:href="#DejaVuSans-65" x="77.001953"/>
      <use xlink:href="#DejaVuSans-6e" x="138.525391"/>
      <use xlink:href="#DejaVuSans-73" x="201.904297"/>
      <use xlink:href="#DejaVuSans-69" x="254.003906"/>
      <use xlink:href="#DejaVuSans-74" x="281.787109"/>
      <use xlink:href="#DejaVuSans-79" x="320.996094"/>
     </g>
    </g>
   </g>
   <g id="line2d_15">
    <path d="M 406.138397 387.16 
L 406.138397 10.8 
" clip-path="url(#p1f2f33b35c)" style="fill: none; stroke-dasharray: 1.85,0.8; stroke-dashoffset: 0; stroke: #000000; stroke-width: 0.5"/>
   </g>
   <g id="patch_3">
    <path d="M 48.17 387.16 
L 48.17 10.8 
" style="fill: none; stroke: #000000; stroke-width: 0.8; stroke-linejoin: miter; stroke-linecap: square"/>
   </g>
   <g id="patch_4">
    <path d="M 48.17 387.16 
L 412.783088 387.16 
" style="fill: none; stroke: #000000; stroke-width: 0.8; stroke-linejoin: miter; stroke-linecap: square"/>
   </g>
   <g id="legend_1">
    <g id="patch_5">
     <path d="M 55.17 62.834375 
L 262.080938 62.834375 
Q 264.080938 62.834375 264.080938 60.834375 
L 264.080938 17.8 
Q 264.080938 15.8 262.080938 15.8 
L 55.17 15.8 
Q 53.17 15.8 53.17 17.8 
L 53.17 60.834375 
Q 53.17 62.834375 55.17 62.834375 
z
" style="fill: #ffffff; opacity: 0.8; stroke: #cccccc; stroke-linejoin: miter"/>
    </g>
    <g id="patch_6">
     <path d="M 57.17 27.398438 
L 77.17 27.398438 
L 77.17 20.398438 
L 57.17 20.398438 
z
" style="fill: #f4a582; fill-opacity: 0.5; stroke: #f4a582; stroke-width: 2.5; stroke-linejoin: miter"/>
    </g>
    <g id="text_17">
     <!-- Pre-trained VAE -->
     <g transform="translate(85.17 27.398438) scale(0.1 -0.1)">
      <defs>
       <path id="DejaVuSans-2d" d="M 313 2009 
L 1997 2009 
L 1997 1497 
L 313 1497 
L 313 2009 
z
" transform="scale(0.015625)"/>
       <path id="DejaVuSans-61" d="M 2194 1759 
Q 1497 1759 1228 1600 
Q 959 1441 959 1056 
Q 959 750 1161 570 
Q 1363 391 1709 391 
Q 2188 391 2477 730 
Q 2766 1069 2766 1631 
L 2766 1759 
L 2194 1759 
z
M 3341 1997 
L 3341 0 
L 2766 0 
L 2766 531 
Q 2569 213 2275 61 
Q 1981 -91 1556 -91 
Q 1019 -91 701 211 
Q 384 513 384 1019 
Q 384 1609 779 1909 
Q 1175 2209 1959 2209 
L 2766 2209 
L 2766 2266 
Q 2766 2663 2505 2880 
Q 2244 3097 1772 3097 
Q 1472 3097 1187 3025 
Q 903 2953 641 2809 
L 641 3341 
Q 956 3463 1253 3523 
Q 1550 3584 1831 3584 
Q 2591 3584 2966 3190 
Q 3341 2797 3341 1997 
z
" transform="scale(0.015625)"/>
       <path id="DejaVuSans-56" d="M 1831 0 
L 50 4666 
L 709 4666 
L 2188 738 
L 3669 4666 
L 4325 4666 
L 2547 0 
L 1831 0 
z
" transform="scale(0.015625)"/>
       <path id="DejaVuSans-41" d="M 2188 4044 
L 1331 1722 
L 3047 1722 
L 2188 4044 
z
M 1831 4666 
L 2547 4666 
L 4325 0 
L 3669 0 
L 3244 1197 
L 1141 1197 
L 716 0 
L 50 0 
L 1831 4666 
z
" transform="scale(0.015625)"/>
       <path id="DejaVuSans-45" d="M 628 4666 
L 3578 4666 
L 3578 4134 
L 1259 4134 
L 1259 2753 
L 3481 2753 
L 3481 2222 
L 1259 2222 
L 1259 531 
L 3634 531 
L 3634 0 
L 628 0 
L 628 4666 
z
" transform="scale(0.015625)"/>
      </defs>
      <use xlink:href="#DejaVuSans-50"/>
      <use xlink:href="#DejaVuSans-72" x="58.552734"/>
      <use xlink:href="#DejaVuSans-65" x="97.416016"/>
      <use xlink:href="#DejaVuSans-2d" x="158.939453"/>
      <use xlink:href="#DejaVuSans-74" x="195.023438"/>
      <use xlink:href="#DejaVuSans-72" x="234.232422"/>
      <use xlink:href="#DejaVuSans-61" x="275.345703"/>
      <use xlink:href="#DejaVuSans-69" x="336.625"/>
      <use xlink:href="#DejaVuSans-6e" x="364.408203"/>
      <use xlink:href="#DejaVuSans-65" x="427.787109"/>
      <use xlink:href="#DejaVuSans-64" x="489.310547"/>
      <use xlink:href="#DejaVuSans-20" x="552.787109"/>
      <use xlink:href="#DejaVuSans-56" x="584.574219"/>
      <use xlink:href="#DejaVuSans-41" x="646.607422"/>
      <use xlink:href="#DejaVuSans-45" x="715.015625"/>
     </g>
    </g>
    <g id="patch_7">
     <path d="M 57.17 42.076563 
L 77.17 42.076563 
L 77.17 35.076563 
L 57.17 35.076563 
z
" style="fill: #b2182b; fill-opacity: 0.5; stroke: #b2182b; stroke-width: 2.5; stroke-linejoin: miter"/>
    </g>
    <g id="text_18">
     <!-- Aligned VAE -->
     <g transform="translate(85.17 42.076563) scale(0.1 -0.1)">
      <defs>
       <path id="DejaVuSans-67" d="M 2906 1791 
Q 2906 2416 2648 2759 
Q 2391 3103 1925 3103 
Q 1463 3103 1205 2759 
Q 947 2416 947 1791 
Q 947 1169 1205 825 
Q 1463 481 1925 481 
Q 2391 481 2648 825 
Q 2906 1169 2906 1791 
z
M 3481 434 
Q 3481 -459 3084 -895 
Q 2688 -1331 1869 -1331 
Q 1566 -1331 1297 -1286 
Q 1028 -1241 775 -1147 
L 775 -588 
Q 1028 -725 1275 -790 
Q 1522 -856 1778 -856 
Q 2344 -856 2625 -561 
Q 2906 -266 2906 331 
L 2906 616 
Q 2728 306 2450 153 
Q 2172 0 1784 0 
Q 1141 0 747 490 
Q 353 981 353 1791 
Q 353 2603 747 3093 
Q 1141 3584 1784 3584 
Q 2172 3584 2450 3431 
Q 2728 3278 2906 2969 
L 2906 3500 
L 3481 3500 
L 3481 434 
z
" transform="scale(0.015625)"/>
      </defs>
      <use xlink:href="#DejaVuSans-41"/>
      <use xlink:href="#DejaVuSans-6c" x="68.408203"/>
      <use xlink:href="#DejaVuSans-69" x="96.191406"/>
      <use xlink:href="#DejaVuSans-67" x="123.974609"/>
      <use xlink:href="#DejaVuSans-6e" x="187.451172"/>
      <use xlink:href="#DejaVuSans-65" x="250.830078"/>
      <use xlink:href="#DejaVuSans-64" x="312.353516"/>
      <use xlink:href="#DejaVuSans-20" x="375.830078"/>
      <use xlink:href="#DejaVuSans-56" x="407.617188"/>
      <use xlink:href="#DejaVuSans-41" x="469.650391"/>
      <use xlink:href="#DejaVuSans-45" x="538.058594"/>
     </g>
    </g>
    <g id="line2d_16">
     <path d="M 57.17 53.254687 
L 67.17 53.254687 
L 77.17 53.254687 
" style="fill: none; stroke-dasharray: 1.85,0.8; stroke-dashoffset: 0; stroke: #000000; stroke-width: 0.5"/>
    </g>
    <g id="text_19">
     <!-- Predicted CreiLOV log fluorescence -->
     <g transform="translate(85.17 56.754687) scale(0.1 -0.1)">
      <defs>
       <path id="DejaVuSans-43" d="M 4122 4306 
L 4122 3641 
Q 3803 3938 3442 4084 
Q 3081 4231 2675 4231 
Q 1875 4231 1450 3742 
Q 1025 3253 1025 2328 
Q 1025 1406 1450 917 
Q 1875 428 2675 428 
Q 3081 428 3442 575 
Q 3803 722 4122 1019 
L 4122 359 
Q 3791 134 3420 21 
Q 3050 -91 2638 -91 
Q 1578 -91 968 557 
Q 359 1206 359 2328 
Q 359 3453 968 4101 
Q 1578 4750 2638 4750 
Q 3056 4750 3426 4639 
Q 3797 4528 4122 4306 
z
" transform="scale(0.015625)"/>
       <path id="DejaVuSans-4c" d="M 628 4666 
L 1259 4666 
L 1259 531 
L 3531 531 
L 3531 0 
L 628 0 
L 628 4666 
z
" transform="scale(0.015625)"/>
       <path id="DejaVuSans-4f" d="M 2522 4238 
Q 1834 4238 1429 3725 
Q 1025 3213 1025 2328 
Q 1025 1447 1429 934 
Q 1834 422 2522 422 
Q 3209 422 3611 934 
Q 4013 1447 4013 2328 
Q 4013 3213 3611 3725 
Q 3209 4238 2522 4238 
z
M 2522 4750 
Q 3503 4750 4090 4092 
Q 4678 3434 4678 2328 
Q 4678 1225 4090 567 
Q 3503 -91 2522 -91 
Q 1538 -91 948 565 
Q 359 1222 359 2328 
Q 359 3434 948 4092 
Q 1538 4750 2522 4750 
z
" transform="scale(0.015625)"/>
       <path id="DejaVuSans-66" d="M 2375 4863 
L 2375 4384 
L 1825 4384 
Q 1516 4384 1395 4259 
Q 1275 4134 1275 3809 
L 1275 3500 
L 2222 3500 
L 2222 3053 
L 1275 3053 
L 1275 0 
L 697 0 
L 697 3053 
L 147 3053 
L 147 3500 
L 697 3500 
L 697 3744 
Q 697 4328 969 4595 
Q 1241 4863 1831 4863 
L 2375 4863 
z
" transform="scale(0.015625)"/>
      </defs>
      <use xlink:href="#DejaVuSans-50"/>
      <use xlink:href="#DejaVuSans-72" x="58.552734"/>
      <use xlink:href="#DejaVuSans-65" x="97.416016"/>
      <use xlink:href="#DejaVuSans-64" x="158.939453"/>
      <use xlink:href="#DejaVuSans-69" x="222.416016"/>
      <use xlink:href="#DejaVuSans-63" x="250.199219"/>
      <use xlink:href="#DejaVuSans-74" x="305.179688"/>
      <use xlink:href="#DejaVuSans-65" x="344.388672"/>
      <use xlink:href="#DejaVuSans-64" x="405.912109"/>
      <use xlink:href="#DejaVuSans-20" x="469.388672"/>
      <use xlink:href="#DejaVuSans-43" x="501.175781"/>
      <use xlink:href="#DejaVuSans-72" x="571"/>
      <use xlink:href="#DejaVuSans-65" x="609.863281"/>
      <use xlink:href="#DejaVuSans-69" x="671.386719"/>
      <use xlink:href="#DejaVuSans-4c" x="699.169922"/>
      <use xlink:href="#DejaVuSans-4f" x="751.257812"/>
      <use xlink:href="#DejaVuSans-56" x="828.21875"/>
      <use xlink:href="#DejaVuSans-20" x="896.626953"/>
      <use xlink:href="#DejaVuSans-6c" x="928.414062"/>
      <use xlink:href="#DejaVuSans-6f" x="956.197266"/>
      <use xlink:href="#DejaVuSans-67" x="1017.378906"/>
      <use xlink:href="#DejaVuSans-20" x="1080.855469"/>
      <use xlink:href="#DejaVuSans-66" x="1112.642578"/>
      <use xlink:href="#DejaVuSans-6c" x="1147.847656"/>
      <use xlink:href="#DejaVuSans-75" x="1175.630859"/>
      <use xlink:href="#DejaVuSans-6f" x="1239.009766"/>
      <use xlink:href="#DejaVuSans-72" x="1300.191406"/>
      <use xlink:href="#DejaVuSans-65" x="1339.054688"/>
      <use xlink:href="#DejaVuSans-73" x="1400.578125"/>
      <use xlink:href="#DejaVuSans-63" x="1452.677734"/>
      <use xlink:href="#DejaVuSans-65" x="1507.658203"/>
      <use xlink:href="#DejaVuSans-6e" x="1569.181641"/>
      <use xlink:href="#DejaVuSans-63" x="1632.560547"/>
      <use xlink:href="#DejaVuSans-65" x="1687.541016"/>
     </g>
    </g>
   </g>
  </g>
 </g>
 <defs>
  <clipPath id="p1f2f33b35c">
   <rect x="48.17" y="10.8" width="364.613088" height="376.36"/>
  </clipPath>
 </defs>
</svg>
