<?xml version="1.0" encoding="utf-8" standalone="no"?>
<!DOCTYPE svg PUBLIC "-//W3C//DTD SVG 1.1//EN"
  "http://www.w3.org/Graphics/SVG/1.1/DTD/svg11.dtd">
<svg xmlns:xlink="http://www.w3.org/1999/xlink" width="864pt" height="432pt" viewBox="0 0 864 432" xmlns="http://www.w3.org/2000/svg" version="1.1">
 <metadata>
  <rdf:RDF xmlns:dc="http://purl.org/dc/elements/1.1/" xmlns:cc="http://creativecommons.org/ns#" xmlns:rdf="http://www.w3.org/1999/02/22-rdf-syntax-ns#">
   <cc:Work>
    <dc:type rdf:resource="http://purl.org/dc/dcmitype/StillImage"/>
    <dc:date>2024-12-10T16:09:19.762408</dc:date>
    <dc:format>image/svg+xml</dc:format>
    <dc:creator>
     <cc:Agent>
      <dc:title>Matplotlib v3.8.0, https://matplotlib.org/</dc:title>
     </cc:Agent>
    </dc:creator>
   </cc:Work>
  </rdf:RDF>
 </metadata>
 <defs>
  <style type="text/css">*{stroke-linejoin: round; stroke-linecap: butt}</style>
 </defs>
 <g id="figure_1">
  <g id="patch_1">
   <path d="M 0 432 
L 864 432 
L 864 0 
L 0 0 
z
" style="fill: #ffffff"/>
  </g>
  <g id="axes_1">
   <g id="patch_2">
    <path d="M 45.38 389.32 
L 425.025 389.32 
L 425.025 14.76 
L 45.38 14.76 
z
" style="fill: #ffffff"/>
   </g>
   <g id="patch_3">
    <path d="M 143.223251 389.32 
L 143.223251 14.76 
L 252.889187 14.76 
L 252.889187 389.32 
z
" clip-path="url(#p4c0bf4f027)" style="fill: #ff0000; opacity: 0.1; stroke: #ff0000; stroke-linejoin: miter"/>
   </g>
   <g id="patch_4">
    <path d="M 252.889187 389.32 
L 252.889187 14.76 
L 277.866666 14.76 
L 277.866666 389.32 
z
" clip-path="url(#p4c0bf4f027)" style="fill: #008000; opacity: 0.1; stroke: #008000; stroke-linejoin: miter"/>
   </g>
   <g id="patch_5">
    <path d="M 160.372944 389.32 
L 164.386705 389.32 
L 164.386705 386.881308 
L 160.372944 386.881308 
z
" clip-path="url(#p4c0bf4f027)" style="fill: #808080; fill-opacity: 0.4; stroke: #000000; stroke-linejoin: miter"/>
   </g>
   <g id="patch_6">
    <path d="M 164.386705 389.32 
L 168.400466 389.32 
L 168.400466 389.32 
L 164.386705 389.32 
z
" clip-path="url(#p4c0bf4f027)" style="fill: #808080; fill-opacity: 0.4; stroke: #000000; stroke-linejoin: miter"/>
   </g>
   <g id="patch_7">
    <path d="M 168.400466 389.32 
L 172.414227 389.32 
L 172.414227 389.32 
L 168.400466 389.32 
z
" clip-path="url(#p4c0bf4f027)" style="fill: #808080; fill-opacity: 0.4; stroke: #000000; stroke-linejoin: miter"/>
   </g>
   <g id="patch_8">
    <path d="M 172.414227 389.32 
L 176.427989 389.32 
L 176.427989 389.32 
L 172.414227 389.32 
z
" clip-path="url(#p4c0bf4f027)" style="fill: #808080; fill-opacity: 0.4; stroke: #000000; stroke-linejoin: miter"/>
   </g>
   <g id="patch_9">
    <path d="M 176.427989 389.32 
L 180.44175 389.32 
L 180.44175 388.100654 
L 176.427989 388.100654 
z
" clip-path="url(#p4c0bf4f027)" style="fill: #808080; fill-opacity: 0.4; stroke: #000000; stroke-linejoin: miter"/>
   </g>
   <g id="patch_10">
    <path d="M 180.44175 389.32 
L 184.455511 389.32 
L 184.455511 386.881308 
L 180.44175 386.881308 
z
" clip-path="url(#p4c0bf4f027)" style="fill: #808080; fill-opacity: 0.4; stroke: #000000; stroke-linejoin: miter"/>
   </g>
   <g id="patch_11">
    <path d="M 184.455511 389.32 
L 188.469272 389.32 
L 188.469272 386.881308 
L 184.455511 386.881308 
z
" clip-path="url(#p4c0bf4f027)" style="fill: #808080; fill-opacity: 0.4; stroke: #000000; stroke-linejoin: miter"/>
   </g>
   <g id="patch_12">
    <path d="M 188.469272 389.32 
L 192.483033 389.32 
L 192.483033 386.881308 
L 188.469272 386.881308 
z
" clip-path="url(#p4c0bf4f027)" style="fill: #808080; fill-opacity: 0.4; stroke: #000000; stroke-linejoin: miter"/>
   </g>
   <g id="patch_13">
    <path d="M 192.483033 389.32 
L 196.496794 389.32 
L 196.496794 380.784579 
L 192.483033 380.784579 
z
" clip-path="url(#p4c0bf4f027)" style="fill: #808080; fill-opacity: 0.4; stroke: #000000; stroke-linejoin: miter"/>
   </g>
   <g id="patch_14">
    <path d="M 196.496794 389.32 
L 200.510556 389.32 
L 200.510556 383.223271 
L 196.496794 383.223271 
z
" clip-path="url(#p4c0bf4f027)" style="fill: #808080; fill-opacity: 0.4; stroke: #000000; stroke-linejoin: miter"/>
   </g>
   <g id="patch_15">
    <path d="M 200.510556 389.32 
L 204.524317 389.32 
L 204.524317 367.371774 
L 200.510556 367.371774 
z
" clip-path="url(#p4c0bf4f027)" style="fill: #808080; fill-opacity: 0.4; stroke: #000000; stroke-linejoin: miter"/>
   </g>
   <g id="patch_16">
    <path d="M 204.524317 389.32 
L 208.538078 389.32 
L 208.538078 353.95897 
L 204.524317 353.95897 
z
" clip-path="url(#p4c0bf4f027)" style="fill: #808080; fill-opacity: 0.4; stroke: #000000; stroke-linejoin: miter"/>
   </g>
   <g id="patch_17">
    <path d="M 208.538078 389.32 
L 212.551839 389.32 
L 212.551839 324.694669 
L 208.538078 324.694669 
z
" clip-path="url(#p4c0bf4f027)" style="fill: #808080; fill-opacity: 0.4; stroke: #000000; stroke-linejoin: miter"/>
   </g>
   <g id="patch_18">
    <path d="M 212.551839 389.32 
L 216.5656 389.32 
L 216.5656 317.378594 
L 212.551839 317.378594 
z
" clip-path="url(#p4c0bf4f027)" style="fill: #808080; fill-opacity: 0.4; stroke: #000000; stroke-linejoin: miter"/>
   </g>
   <g id="patch_19">
    <path d="M 216.5656 389.32 
L 220.579362 389.32 
L 220.579362 291.772331 
L 216.5656 291.772331 
z
" clip-path="url(#p4c0bf4f027)" style="fill: #808080; fill-opacity: 0.4; stroke: #000000; stroke-linejoin: miter"/>
   </g>
   <g id="patch_20">
    <path d="M 220.579362 389.32 
L 224.593123 389.32 
L 224.593123 249.095225 
L 220.579362 249.095225 
z
" clip-path="url(#p4c0bf4f027)" style="fill: #808080; fill-opacity: 0.4; stroke: #000000; stroke-linejoin: miter"/>
   </g>
   <g id="patch_21">
    <path d="M 224.593123 389.32 
L 228.606884 389.32 
L 228.606884 173.495781 
L 224.593123 173.495781 
z
" clip-path="url(#p4c0bf4f027)" style="fill: #808080; fill-opacity: 0.4; stroke: #000000; stroke-linejoin: miter"/>
   </g>
   <g id="patch_22">
    <path d="M 228.606884 389.32 
L 232.620645 389.32 
L 232.620645 140.573443 
L 228.606884 140.573443 
z
" clip-path="url(#p4c0bf4f027)" style="fill: #808080; fill-opacity: 0.4; stroke: #000000; stroke-linejoin: miter"/>
   </g>
   <g id="patch_23">
    <path d="M 232.620645 389.32 
L 236.634406 389.32 
L 236.634406 202.760082 
L 232.620645 202.760082 
z
" clip-path="url(#p4c0bf4f027)" style="fill: #808080; fill-opacity: 0.4; stroke: #000000; stroke-linejoin: miter"/>
   </g>
   <g id="patch_24">
    <path d="M 236.634406 389.32 
L 240.648167 389.32 
L 240.648167 319.817286 
L 236.634406 319.817286 
z
" clip-path="url(#p4c0bf4f027)" style="fill: #808080; fill-opacity: 0.4; stroke: #000000; stroke-linejoin: miter"/>
   </g>
   <g id="patch_25">
    <path d="M 240.648167 389.32 
L 244.661929 389.32 
L 244.661929 375.907195 
L 240.648167 375.907195 
z
" clip-path="url(#p4c0bf4f027)" style="fill: #808080; fill-opacity: 0.4; stroke: #000000; stroke-linejoin: miter"/>
   </g>
   <g id="patch_26">
    <path d="M 244.661929 389.32 
L 248.67569 389.32 
L 248.67569 386.881308 
L 244.661929 386.881308 
z
" clip-path="url(#p4c0bf4f027)" style="fill: #808080; fill-opacity: 0.4; stroke: #000000; stroke-linejoin: miter"/>
   </g>
   <g id="patch_27">
    <path d="M 248.67569 389.32 
L 252.689451 389.32 
L 252.689451 382.003925 
L 248.67569 382.003925 
z
" clip-path="url(#p4c0bf4f027)" style="fill: #808080; fill-opacity: 0.4; stroke: #000000; stroke-linejoin: miter"/>
   </g>
   <g id="patch_28">
    <path d="M 252.689451 389.32 
L 256.703212 389.32 
L 256.703212 380.784579 
L 252.689451 380.784579 
z
" clip-path="url(#p4c0bf4f027)" style="fill: #808080; fill-opacity: 0.4; stroke: #000000; stroke-linejoin: miter"/>
   </g>
   <g id="patch_29">
    <path d="M 256.703212 389.32 
L 260.716973 389.32 
L 260.716973 379.565233 
L 256.703212 379.565233 
z
" clip-path="url(#p4c0bf4f027)" style="fill: #808080; fill-opacity: 0.4; stroke: #000000; stroke-linejoin: miter"/>
   </g>
   <g id="patch_30">
    <path d="M 64.774546 389.32 
L 78.4943 389.32 
L 78.4943 389.32 
L 64.774546 389.32 
z
" clip-path="url(#p4c0bf4f027)" style="fill: #ffa500; fill-opacity: 0.6; stroke: #000000; stroke-linejoin: miter"/>
   </g>
   <g id="patch_31">
    <path d="M 78.4943 389.32 
L 92.214055 389.32 
L 92.214055 389.32 
L 78.4943 389.32 
z
" clip-path="url(#p4c0bf4f027)" style="fill: #ffa500; fill-opacity: 0.6; stroke: #000000; stroke-linejoin: miter"/>
   </g>
   <g id="patch_32">
    <path d="M 92.214055 389.32 
L 105.933809 389.32 
L 105.933809 389.32 
L 92.214055 389.32 
z
" clip-path="url(#p4c0bf4f027)" style="fill: #ffa500; fill-opacity: 0.6; stroke: #000000; stroke-linejoin: miter"/>
   </g>
   <g id="patch_33">
    <path d="M 105.933809 389.32 
L 119.653564 389.32 
L 119.653564 389.32 
L 105.933809 389.32 
z
" clip-path="url(#p4c0bf4f027)" style="fill: #ffa500; fill-opacity: 0.6; stroke: #000000; stroke-linejoin: miter"/>
   </g>
   <g id="patch_34">
    <path d="M 119.653564 389.32 
L 133.373318 389.32 
L 133.373318 389.32 
L 119.653564 389.32 
z
" clip-path="url(#p4c0bf4f027)" style="fill: #ffa500; fill-opacity: 0.6; stroke: #000000; stroke-linejoin: miter"/>
   </g>
   <g id="patch_35">
    <path d="M 133.373318 389.32 
L 147.093073 389.32 
L 147.093073 389.32 
L 133.373318 389.32 
z
" clip-path="url(#p4c0bf4f027)" style="fill: #ffa500; fill-opacity: 0.6; stroke: #000000; stroke-linejoin: miter"/>
   </g>
   <g id="patch_36">
    <path d="M 147.093073 389.32 
L 160.812827 389.32 
L 160.812827 389.32 
L 147.093073 389.32 
z
" clip-path="url(#p4c0bf4f027)" style="fill: #ffa500; fill-opacity: 0.6; stroke: #000000; stroke-linejoin: miter"/>
   </g>
   <g id="patch_37">
    <path d="M 160.812827 389.32 
L 174.532582 389.32 
L 174.532582 389.32 
L 160.812827 389.32 
z
" clip-path="url(#p4c0bf4f027)" style="fill: #ffa500; fill-opacity: 0.6; stroke: #000000; stroke-linejoin: miter"/>
   </g>
   <g id="patch_38">
    <path d="M 174.532582 389.32 
L 188.252336 389.32 
L 188.252336 389.32 
L 174.532582 389.32 
z
" clip-path="url(#p4c0bf4f027)" style="fill: #ffa500; fill-opacity: 0.6; stroke: #000000; stroke-linejoin: miter"/>
   </g>
   <g id="patch_39">
    <path d="M 188.252336 389.32 
L 201.972091 389.32 
L 201.972091 389.32 
L 188.252336 389.32 
z
" clip-path="url(#p4c0bf4f027)" style="fill: #ffa500; fill-opacity: 0.6; stroke: #000000; stroke-linejoin: miter"/>
   </g>
   <g id="patch_40">
    <path d="M 201.972091 389.32 
L 215.691845 389.32 
L 215.691845 389.32 
L 201.972091 389.32 
z
" clip-path="url(#p4c0bf4f027)" style="fill: #ffa500; fill-opacity: 0.6; stroke: #000000; stroke-linejoin: miter"/>
   </g>
   <g id="patch_41">
    <path d="M 215.691845 389.32 
L 229.4116 389.32 
L 229.4116 389.32 
L 215.691845 389.32 
z
" clip-path="url(#p4c0bf4f027)" style="fill: #ffa500; fill-opacity: 0.6; stroke: #000000; stroke-linejoin: miter"/>
   </g>
   <g id="patch_42">
    <path d="M 229.4116 389.32 
L 243.131355 389.32 
L 243.131355 32.59619 
L 229.4116 32.59619 
z
" clip-path="url(#p4c0bf4f027)" style="fill: #ffa500; fill-opacity: 0.6; stroke: #000000; stroke-linejoin: miter"/>
   </g>
   <g id="patch_43">
    <path d="M 243.131355 389.32 
L 256.851109 389.32 
L 256.851109 389.32 
L 243.131355 389.32 
z
" clip-path="url(#p4c0bf4f027)" style="fill: #ffa500; fill-opacity: 0.6; stroke: #000000; stroke-linejoin: miter"/>
   </g>
   <g id="patch_44">
    <path d="M 256.851109 389.32 
L 270.570864 389.32 
L 270.570864 389.32 
L 256.851109 389.32 
z
" clip-path="url(#p4c0bf4f027)" style="fill: #ffa500; fill-opacity: 0.6; stroke: #000000; stroke-linejoin: miter"/>
   </g>
   <g id="patch_45">
    <path d="M 270.570864 389.32 
L 284.290618 389.32 
L 284.290618 389.32 
L 270.570864 389.32 
z
" clip-path="url(#p4c0bf4f027)" style="fill: #ffa500; fill-opacity: 0.6; stroke: #000000; stroke-linejoin: miter"/>
   </g>
   <g id="patch_46">
    <path d="M 284.290618 389.32 
L 298.010373 389.32 
L 298.010373 389.32 
L 284.290618 389.32 
z
" clip-path="url(#p4c0bf4f027)" style="fill: #ffa500; fill-opacity: 0.6; stroke: #000000; stroke-linejoin: miter"/>
   </g>
   <g id="patch_47">
    <path d="M 298.010373 389.32 
L 311.730127 389.32 
L 311.730127 389.32 
L 298.010373 389.32 
z
" clip-path="url(#p4c0bf4f027)" style="fill: #ffa500; fill-opacity: 0.6; stroke: #000000; stroke-linejoin: miter"/>
   </g>
   <g id="patch_48">
    <path d="M 311.730127 389.32 
L 325.449882 389.32 
L 325.449882 389.32 
L 311.730127 389.32 
z
" clip-path="url(#p4c0bf4f027)" style="fill: #ffa500; fill-opacity: 0.6; stroke: #000000; stroke-linejoin: miter"/>
   </g>
   <g id="patch_49">
    <path d="M 325.449882 389.32 
L 339.169636 389.32 
L 339.169636 389.32 
L 325.449882 389.32 
z
" clip-path="url(#p4c0bf4f027)" style="fill: #ffa500; fill-opacity: 0.6; stroke: #000000; stroke-linejoin: miter"/>
   </g>
   <g id="patch_50">
    <path d="M 339.169636 389.32 
L 352.889391 389.32 
L 352.889391 389.32 
L 339.169636 389.32 
z
" clip-path="url(#p4c0bf4f027)" style="fill: #ffa500; fill-opacity: 0.6; stroke: #000000; stroke-linejoin: miter"/>
   </g>
   <g id="patch_51">
    <path d="M 352.889391 389.32 
L 366.609145 389.32 
L 366.609145 389.32 
L 352.889391 389.32 
z
" clip-path="url(#p4c0bf4f027)" style="fill: #ffa500; fill-opacity: 0.6; stroke: #000000; stroke-linejoin: miter"/>
   </g>
   <g id="patch_52">
    <path d="M 366.609145 389.32 
L 380.3289 389.32 
L 380.3289 389.32 
L 366.609145 389.32 
z
" clip-path="url(#p4c0bf4f027)" style="fill: #ffa500; fill-opacity: 0.6; stroke: #000000; stroke-linejoin: miter"/>
   </g>
   <g id="patch_53">
    <path d="M 380.3289 389.32 
L 394.048655 389.32 
L 394.048655 389.32 
L 380.3289 389.32 
z
" clip-path="url(#p4c0bf4f027)" style="fill: #ffa500; fill-opacity: 0.6; stroke: #000000; stroke-linejoin: miter"/>
   </g>
   <g id="patch_54">
    <path d="M 394.048655 389.32 
L 407.768409 389.32 
L 407.768409 389.32 
L 394.048655 389.32 
z
" clip-path="url(#p4c0bf4f027)" style="fill: #ffa500; fill-opacity: 0.6; stroke: #000000; stroke-linejoin: miter"/>
   </g>
   <g id="patch_55">
    <path d="M 62.636591 389.32 
L 76.356345 389.32 
L 76.356345 389.32 
L 62.636591 389.32 
z
" clip-path="url(#p4c0bf4f027)" style="fill: #0000ff; fill-opacity: 0.6; stroke: #000000; stroke-linejoin: miter"/>
   </g>
   <g id="patch_56">
    <path d="M 76.356345 389.32 
L 90.0761 389.32 
L 90.0761 389.32 
L 76.356345 389.32 
z
" clip-path="url(#p4c0bf4f027)" style="fill: #0000ff; fill-opacity: 0.6; stroke: #000000; stroke-linejoin: miter"/>
   </g>
   <g id="patch_57">
    <path d="M 90.0761 389.32 
L 103.795855 389.32 
L 103.795855 389.32 
L 90.0761 389.32 
z
" clip-path="url(#p4c0bf4f027)" style="fill: #0000ff; fill-opacity: 0.6; stroke: #000000; stroke-linejoin: miter"/>
   </g>
   <g id="patch_58">
    <path d="M 103.795855 389.32 
L 117.515609 389.32 
L 117.515609 389.32 
L 103.795855 389.32 
z
" clip-path="url(#p4c0bf4f027)" style="fill: #0000ff; fill-opacity: 0.6; stroke: #000000; stroke-linejoin: miter"/>
   </g>
   <g id="patch_59">
    <path d="M 117.515609 389.32 
L 131.235364 389.32 
L 131.235364 389.32 
L 117.515609 389.32 
z
" clip-path="url(#p4c0bf4f027)" style="fill: #0000ff; fill-opacity: 0.6; stroke: #000000; stroke-linejoin: miter"/>
   </g>
   <g id="patch_60">
    <path d="M 131.235364 389.32 
L 144.955118 389.32 
L 144.955118 389.32 
L 131.235364 389.32 
z
" clip-path="url(#p4c0bf4f027)" style="fill: #0000ff; fill-opacity: 0.6; stroke: #000000; stroke-linejoin: miter"/>
   </g>
   <g id="patch_61">
    <path d="M 144.955118 389.32 
L 158.674873 389.32 
L 158.674873 389.32 
L 144.955118 389.32 
z
" clip-path="url(#p4c0bf4f027)" style="fill: #0000ff; fill-opacity: 0.6; stroke: #000000; stroke-linejoin: miter"/>
   </g>
   <g id="patch_62">
    <path d="M 158.674873 389.32 
L 172.394627 389.32 
L 172.394627 389.32 
L 158.674873 389.32 
z
" clip-path="url(#p4c0bf4f027)" style="fill: #0000ff; fill-opacity: 0.6; stroke: #000000; stroke-linejoin: miter"/>
   </g>
   <g id="patch_63">
    <path d="M 172.394627 389.32 
L 186.114382 389.32 
L 186.114382 389.32 
L 172.394627 389.32 
z
" clip-path="url(#p4c0bf4f027)" style="fill: #0000ff; fill-opacity: 0.6; stroke: #000000; stroke-linejoin: miter"/>
   </g>
   <g id="patch_64">
    <path d="M 186.114382 389.32 
L 199.834136 389.32 
L 199.834136 389.32 
L 186.114382 389.32 
z
" clip-path="url(#p4c0bf4f027)" style="fill: #0000ff; fill-opacity: 0.6; stroke: #000000; stroke-linejoin: miter"/>
   </g>
   <g id="patch_65">
    <path d="M 199.834136 389.32 
L 213.553891 389.32 
L 213.553891 389.32 
L 199.834136 389.32 
z
" clip-path="url(#p4c0bf4f027)" style="fill: #0000ff; fill-opacity: 0.6; stroke: #000000; stroke-linejoin: miter"/>
   </g>
   <g id="patch_66">
    <path d="M 213.553891 389.32 
L 227.273645 389.32 
L 227.273645 389.32 
L 213.553891 389.32 
z
" clip-path="url(#p4c0bf4f027)" style="fill: #0000ff; fill-opacity: 0.6; stroke: #000000; stroke-linejoin: miter"/>
   </g>
   <g id="patch_67">
    <path d="M 227.273645 389.32 
L 240.9934 389.32 
L 240.9934 32.59619 
L 227.273645 32.59619 
z
" clip-path="url(#p4c0bf4f027)" style="fill: #0000ff; fill-opacity: 0.6; stroke: #000000; stroke-linejoin: miter"/>
   </g>
   <g id="patch_68">
    <path d="M 240.9934 389.32 
L 254.713155 389.32 
L 254.713155 389.32 
L 240.9934 389.32 
z
" clip-path="url(#p4c0bf4f027)" style="fill: #0000ff; fill-opacity: 0.6; stroke: #000000; stroke-linejoin: miter"/>
   </g>
   <g id="patch_69">
    <path d="M 254.713155 389.32 
L 268.432909 389.32 
L 268.432909 389.32 
L 254.713155 389.32 
z
" clip-path="url(#p4c0bf4f027)" style="fill: #0000ff; fill-opacity: 0.6; stroke: #000000; stroke-linejoin: miter"/>
   </g>
   <g id="patch_70">
    <path d="M 268.432909 389.32 
L 282.152664 389.32 
L 282.152664 389.32 
L 268.432909 389.32 
z
" clip-path="url(#p4c0bf4f027)" style="fill: #0000ff; fill-opacity: 0.6; stroke: #000000; stroke-linejoin: miter"/>
   </g>
   <g id="patch_71">
    <path d="M 282.152664 389.32 
L 295.872418 389.32 
L 295.872418 389.32 
L 282.152664 389.32 
z
" clip-path="url(#p4c0bf4f027)" style="fill: #0000ff; fill-opacity: 0.6; stroke: #000000; stroke-linejoin: miter"/>
   </g>
   <g id="patch_72">
    <path d="M 295.872418 389.32 
L 309.592173 389.32 
L 309.592173 389.32 
L 295.872418 389.32 
z
" clip-path="url(#p4c0bf4f027)" style="fill: #0000ff; fill-opacity: 0.6; stroke: #000000; stroke-linejoin: miter"/>
   </g>
   <g id="patch_73">
    <path d="M 309.592173 389.32 
L 323.311927 389.32 
L 323.311927 389.32 
L 309.592173 389.32 
z
" clip-path="url(#p4c0bf4f027)" style="fill: #0000ff; fill-opacity: 0.6; stroke: #000000; stroke-linejoin: miter"/>
   </g>
   <g id="patch_74">
    <path d="M 323.311927 389.32 
L 337.031682 389.32 
L 337.031682 389.32 
L 323.311927 389.32 
z
" clip-path="url(#p4c0bf4f027)" style="fill: #0000ff; fill-opacity: 0.6; stroke: #000000; stroke-linejoin: miter"/>
   </g>
   <g id="patch_75">
    <path d="M 337.031682 389.32 
L 350.751436 389.32 
L 350.751436 389.32 
L 337.031682 389.32 
z
" clip-path="url(#p4c0bf4f027)" style="fill: #0000ff; fill-opacity: 0.6; stroke: #000000; stroke-linejoin: miter"/>
   </g>
   <g id="patch_76">
    <path d="M 350.751436 389.32 
L 364.471191 389.32 
L 364.471191 389.32 
L 350.751436 389.32 
z
" clip-path="url(#p4c0bf4f027)" style="fill: #0000ff; fill-opacity: 0.6; stroke: #000000; stroke-linejoin: miter"/>
   </g>
   <g id="patch_77">
    <path d="M 364.471191 389.32 
L 378.190945 389.32 
L 378.190945 389.32 
L 364.471191 389.32 
z
" clip-path="url(#p4c0bf4f027)" style="fill: #0000ff; fill-opacity: 0.6; stroke: #000000; stroke-linejoin: miter"/>
   </g>
   <g id="patch_78">
    <path d="M 378.190945 389.32 
L 391.9107 389.32 
L 391.9107 389.32 
L 378.190945 389.32 
z
" clip-path="url(#p4c0bf4f027)" style="fill: #0000ff; fill-opacity: 0.6; stroke: #000000; stroke-linejoin: miter"/>
   </g>
   <g id="patch_79">
    <path d="M 391.9107 389.32 
L 405.630454 389.32 
L 405.630454 389.32 
L 391.9107 389.32 
z
" clip-path="url(#p4c0bf4f027)" style="fill: #0000ff; fill-opacity: 0.6; stroke: #000000; stroke-linejoin: miter"/>
   </g>
   <g id="matplotlib.axis_1">
    <g id="xtick_1">
     <g id="line2d_1">
      <defs>
       <path id="m0633549130" d="M 0 0 
L 0 3.5 
" style="stroke: #000000; stroke-width: 0.8"/>
      </defs>
      <g>
       <use xlink:href="#m0633549130" x="83.308479" y="389.32" style="stroke: #000000; stroke-width: 0.8"/>
      </g>
     </g>
     <g id="text_1">
      <!-- 3.6 -->
      <g transform="translate(75.356917 403.918437) scale(0.1 -0.1)">
       <defs>
        <path id="DejaVuSans-33" d="M 2597 2516 
Q 3050 2419 3304 2112 
Q 3559 1806 3559 1356 
Q 3559 666 3084 287 
Q 2609 -91 1734 -91 
Q 1441 -91 1130 -33 
Q 819 25 488 141 
L 488 750 
Q 750 597 1062 519 
Q 1375 441 1716 441 
Q 2309 441 2620 675 
Q 2931 909 2931 1356 
Q 2931 1769 2642 2001 
Q 2353 2234 1838 2234 
L 1294 2234 
L 1294 2753 
L 1863 2753 
Q 2328 2753 2575 2939 
Q 2822 3125 2822 3475 
Q 2822 3834 2567 4026 
Q 2313 4219 1838 4219 
Q 1578 4219 1281 4162 
Q 984 4106 628 3988 
L 628 4550 
Q 988 4650 1302 4700 
Q 1616 4750 1894 4750 
Q 2613 4750 3031 4423 
Q 3450 4097 3450 3541 
Q 3450 3153 3228 2886 
Q 3006 2619 2597 2516 
z
" transform="scale(0.015625)"/>
        <path id="DejaVuSans-2e" d="M 684 794 
L 1344 794 
L 1344 0 
L 684 0 
L 684 794 
z
" transform="scale(0.015625)"/>
        <path id="DejaVuSans-36" d="M 2113 2584 
Q 1688 2584 1439 2293 
Q 1191 2003 1191 1497 
Q 1191 994 1439 701 
Q 1688 409 2113 409 
Q 2538 409 2786 701 
Q 3034 994 3034 1497 
Q 3034 2003 2786 2293 
Q 2538 2584 2113 2584 
z
M 3366 4563 
L 3366 3988 
Q 3128 4100 2886 4159 
Q 2644 4219 2406 4219 
Q 1781 4219 1451 3797 
Q 1122 3375 1075 2522 
Q 1259 2794 1537 2939 
Q 1816 3084 2150 3084 
Q 2853 3084 3261 2657 
Q 3669 2231 3669 1497 
Q 3669 778 3244 343 
Q 2819 -91 2113 -91 
Q 1303 -91 875 529 
Q 447 1150 447 2328 
Q 447 3434 972 4092 
Q 1497 4750 2381 4750 
Q 2619 4750 2861 4703 
Q 3103 4656 3366 4563 
z
" transform="scale(0.015625)"/>
       </defs>
       <use xlink:href="#DejaVuSans-33"/>
       <use xlink:href="#DejaVuSans-2e" x="63.623047"/>
       <use xlink:href="#DejaVuSans-36" x="95.410156"/>
      </g>
     </g>
    </g>
    <g id="xtick_2">
     <g id="line2d_2">
      <g>
       <use xlink:href="#m0633549130" x="151.907252" y="389.32" style="stroke: #000000; stroke-width: 0.8"/>
      </g>
     </g>
     <g id="text_2">
      <!-- 3.8 -->
      <g transform="translate(143.955689 403.918437) scale(0.1 -0.1)">
       <defs>
        <path id="DejaVuSans-38" d="M 2034 2216 
Q 1584 2216 1326 1975 
Q 1069 1734 1069 1313 
Q 1069 891 1326 650 
Q 1584 409 2034 409 
Q 2484 409 2743 651 
Q 3003 894 3003 1313 
Q 3003 1734 2745 1975 
Q 2488 2216 2034 2216 
z
M 1403 2484 
Q 997 2584 770 2862 
Q 544 3141 544 3541 
Q 544 4100 942 4425 
Q 1341 4750 2034 4750 
Q 2731 4750 3128 4425 
Q 3525 4100 3525 3541 
Q 3525 3141 3298 2862 
Q 3072 2584 2669 2484 
Q 3125 2378 3379 2068 
Q 3634 1759 3634 1313 
Q 3634 634 3220 271 
Q 2806 -91 2034 -91 
Q 1263 -91 848 271 
Q 434 634 434 1313 
Q 434 1759 690 2068 
Q 947 2378 1403 2484 
z
M 1172 3481 
Q 1172 3119 1398 2916 
Q 1625 2713 2034 2713 
Q 2441 2713 2670 2916 
Q 2900 3119 2900 3481 
Q 2900 3844 2670 4047 
Q 2441 4250 2034 4250 
Q 1625 4250 1398 4047 
Q 1172 3844 1172 3481 
z
" transform="scale(0.015625)"/>
       </defs>
       <use xlink:href="#DejaVuSans-33"/>
       <use xlink:href="#DejaVuSans-2e" x="63.623047"/>
       <use xlink:href="#DejaVuSans-38" x="95.410156"/>
      </g>
     </g>
    </g>
    <g id="xtick_3">
     <g id="line2d_3">
      <g>
       <use xlink:href="#m0633549130" x="220.506025" y="389.32" style="stroke: #000000; stroke-width: 0.8"/>
      </g>
     </g>
     <g id="text_3">
      <!-- 4.0 -->
      <g transform="translate(212.554462 403.918437) scale(0.1 -0.1)">
       <defs>
        <path id="DejaVuSans-34" d="M 2419 4116 
L 825 1625 
L 2419 1625 
L 2419 4116 
z
M 2253 4666 
L 3047 4666 
L 3047 1625 
L 3713 1625 
L 3713 1100 
L 3047 1100 
L 3047 0 
L 2419 0 
L 2419 1100 
L 313 1100 
L 313 1709 
L 2253 4666 
z
" transform="scale(0.015625)"/>
        <path id="DejaVuSans-30" d="M 2034 4250 
Q 1547 4250 1301 3770 
Q 1056 3291 1056 2328 
Q 1056 1369 1301 889 
Q 1547 409 2034 409 
Q 2525 409 2770 889 
Q 3016 1369 3016 2328 
Q 3016 3291 2770 3770 
Q 2525 4250 2034 4250 
z
M 2034 4750 
Q 2819 4750 3233 4129 
Q 3647 3509 3647 2328 
Q 3647 1150 3233 529 
Q 2819 -91 2034 -91 
Q 1250 -91 836 529 
Q 422 1150 422 2328 
Q 422 3509 836 4129 
Q 1250 4750 2034 4750 
z
" transform="scale(0.015625)"/>
       </defs>
       <use xlink:href="#DejaVuSans-34"/>
       <use xlink:href="#DejaVuSans-2e" x="63.623047"/>
       <use xlink:href="#DejaVuSans-30" x="95.410156"/>
      </g>
     </g>
    </g>
    <g id="xtick_4">
     <g id="line2d_4">
      <g>
       <use xlink:href="#m0633549130" x="289.104797" y="389.32" style="stroke: #000000; stroke-width: 0.8"/>
      </g>
     </g>
     <g id="text_4">
      <!-- 4.2 -->
      <g transform="translate(281.153235 403.918437) scale(0.1 -0.1)">
       <defs>
        <path id="DejaVuSans-32" d="M 1228 531 
L 3431 531 
L 3431 0 
L 469 0 
L 469 531 
Q 828 903 1448 1529 
Q 2069 2156 2228 2338 
Q 2531 2678 2651 2914 
Q 2772 3150 2772 3378 
Q 2772 3750 2511 3984 
Q 2250 4219 1831 4219 
Q 1534 4219 1204 4116 
Q 875 4013 500 3803 
L 500 4441 
Q 881 4594 1212 4672 
Q 1544 4750 1819 4750 
Q 2544 4750 2975 4387 
Q 3406 4025 3406 3419 
Q 3406 3131 3298 2873 
Q 3191 2616 2906 2266 
Q 2828 2175 2409 1742 
Q 1991 1309 1228 531 
z
" transform="scale(0.015625)"/>
       </defs>
       <use xlink:href="#DejaVuSans-34"/>
       <use xlink:href="#DejaVuSans-2e" x="63.623047"/>
       <use xlink:href="#DejaVuSans-32" x="95.410156"/>
      </g>
     </g>
    </g>
    <g id="xtick_5">
     <g id="line2d_5">
      <g>
       <use xlink:href="#m0633549130" x="357.70357" y="389.32" style="stroke: #000000; stroke-width: 0.8"/>
      </g>
     </g>
     <g id="text_5">
      <!-- 4.4 -->
      <g transform="translate(349.752008 403.918437) scale(0.1 -0.1)">
       <use xlink:href="#DejaVuSans-34"/>
       <use xlink:href="#DejaVuSans-2e" x="63.623047"/>
       <use xlink:href="#DejaVuSans-34" x="95.410156"/>
      </g>
     </g>
    </g>
    <g id="text_6">
     <!-- Predicted Fluorescence -->
     <g transform="translate(165.60625 419.11625) scale(0.12 -0.12)">
      <defs>
       <path id="DejaVuSans-50" d="M 1259 4147 
L 1259 2394 
L 2053 2394 
Q 2494 2394 2734 2622 
Q 2975 2850 2975 3272 
Q 2975 3691 2734 3919 
Q 2494 4147 2053 4147 
L 1259 4147 
z
M 628 4666 
L 2053 4666 
Q 2838 4666 3239 4311 
Q 3641 3956 3641 3272 
Q 3641 2581 3239 2228 
Q 2838 1875 2053 1875 
L 1259 1875 
L 1259 0 
L 628 0 
L 628 4666 
z
" transform="scale(0.015625)"/>
       <path id="DejaVuSans-72" d="M 2631 2963 
Q 2534 3019 2420 3045 
Q 2306 3072 2169 3072 
Q 1681 3072 1420 2755 
Q 1159 2438 1159 1844 
L 1159 0 
L 581 0 
L 581 3500 
L 1159 3500 
L 1159 2956 
Q 1341 3275 1631 3429 
Q 1922 3584 2338 3584 
Q 2397 3584 2469 3576 
Q 2541 3569 2628 3553 
L 2631 2963 
z
" transform="scale(0.015625)"/>
       <path id="DejaVuSans-65" d="M 3597 1894 
L 3597 1613 
L 953 1613 
Q 991 1019 1311 708 
Q 1631 397 2203 397 
Q 2534 397 2845 478 
Q 3156 559 3463 722 
L 3463 178 
Q 3153 47 2828 -22 
Q 2503 -91 2169 -91 
Q 1331 -91 842 396 
Q 353 884 353 1716 
Q 353 2575 817 3079 
Q 1281 3584 2069 3584 
Q 2775 3584 3186 3129 
Q 3597 2675 3597 1894 
z
M 3022 2063 
Q 3016 2534 2758 2815 
Q 2500 3097 2075 3097 
Q 1594 3097 1305 2825 
Q 1016 2553 972 2059 
L 3022 2063 
z
" transform="scale(0.015625)"/>
       <path id="DejaVuSans-64" d="M 2906 2969 
L 2906 4863 
L 3481 4863 
L 3481 0 
L 2906 0 
L 2906 525 
Q 2725 213 2448 61 
Q 2172 -91 1784 -91 
Q 1150 -91 751 415 
Q 353 922 353 1747 
Q 353 2572 751 3078 
Q 1150 3584 1784 3584 
Q 2172 3584 2448 3432 
Q 2725 3281 2906 2969 
z
M 947 1747 
Q 947 1113 1208 752 
Q 1469 391 1925 391 
Q 2381 391 2643 752 
Q 2906 1113 2906 1747 
Q 2906 2381 2643 2742 
Q 2381 3103 1925 3103 
Q 1469 3103 1208 2742 
Q 947 2381 947 1747 
z
" transform="scale(0.015625)"/>
       <path id="DejaVuSans-69" d="M 603 3500 
L 1178 3500 
L 1178 0 
L 603 0 
L 603 3500 
z
M 603 4863 
L 1178 4863 
L 1178 4134 
L 603 4134 
L 603 4863 
z
" transform="scale(0.015625)"/>
       <path id="DejaVuSans-63" d="M 3122 3366 
L 3122 2828 
Q 2878 2963 2633 3030 
Q 2388 3097 2138 3097 
Q 1578 3097 1268 2742 
Q 959 2388 959 1747 
Q 959 1106 1268 751 
Q 1578 397 2138 397 
Q 2388 397 2633 464 
Q 2878 531 3122 666 
L 3122 134 
Q 2881 22 2623 -34 
Q 2366 -91 2075 -91 
Q 1284 -91 818 406 
Q 353 903 353 1747 
Q 353 2603 823 3093 
Q 1294 3584 2113 3584 
Q 2378 3584 2631 3529 
Q 2884 3475 3122 3366 
z
" transform="scale(0.015625)"/>
       <path id="DejaVuSans-74" d="M 1172 4494 
L 1172 3500 
L 2356 3500 
L 2356 3053 
L 1172 3053 
L 1172 1153 
Q 1172 725 1289 603 
Q 1406 481 1766 481 
L 2356 481 
L 2356 0 
L 1766 0 
Q 1100 0 847 248 
Q 594 497 594 1153 
L 594 3053 
L 172 3053 
L 172 3500 
L 594 3500 
L 594 4494 
L 1172 4494 
z
" transform="scale(0.015625)"/>
       <path id="DejaVuSans-20" transform="scale(0.015625)"/>
       <path id="DejaVuSans-46" d="M 628 4666 
L 3309 4666 
L 3309 4134 
L 1259 4134 
L 1259 2759 
L 3109 2759 
L 3109 2228 
L 1259 2228 
L 1259 0 
L 628 0 
L 628 4666 
z
" transform="scale(0.015625)"/>
       <path id="DejaVuSans-6c" d="M 603 4863 
L 1178 4863 
L 1178 0 
L 603 0 
L 603 4863 
z
" transform="scale(0.015625)"/>
       <path id="DejaVuSans-75" d="M 544 1381 
L 544 3500 
L 1119 3500 
L 1119 1403 
Q 1119 906 1312 657 
Q 1506 409 1894 409 
Q 2359 409 2629 706 
Q 2900 1003 2900 1516 
L 2900 3500 
L 3475 3500 
L 3475 0 
L 2900 0 
L 2900 538 
Q 2691 219 2414 64 
Q 2138 -91 1772 -91 
Q 1169 -91 856 284 
Q 544 659 544 1381 
z
M 1991 3584 
L 1991 3584 
z
" transform="scale(0.015625)"/>
       <path id="DejaVuSans-6f" d="M 1959 3097 
Q 1497 3097 1228 2736 
Q 959 2375 959 1747 
Q 959 1119 1226 758 
Q 1494 397 1959 397 
Q 2419 397 2687 759 
Q 2956 1122 2956 1747 
Q 2956 2369 2687 2733 
Q 2419 3097 1959 3097 
z
M 1959 3584 
Q 2709 3584 3137 3096 
Q 3566 2609 3566 1747 
Q 3566 888 3137 398 
Q 2709 -91 1959 -91 
Q 1206 -91 779 398 
Q 353 888 353 1747 
Q 353 2609 779 3096 
Q 1206 3584 1959 3584 
z
" transform="scale(0.015625)"/>
       <path id="DejaVuSans-73" d="M 2834 3397 
L 2834 2853 
Q 2591 2978 2328 3040 
Q 2066 3103 1784 3103 
Q 1356 3103 1142 2972 
Q 928 2841 928 2578 
Q 928 2378 1081 2264 
Q 1234 2150 1697 2047 
L 1894 2003 
Q 2506 1872 2764 1633 
Q 3022 1394 3022 966 
Q 3022 478 2636 193 
Q 2250 -91 1575 -91 
Q 1294 -91 989 -36 
Q 684 19 347 128 
L 347 722 
Q 666 556 975 473 
Q 1284 391 1588 391 
Q 1994 391 2212 530 
Q 2431 669 2431 922 
Q 2431 1156 2273 1281 
Q 2116 1406 1581 1522 
L 1381 1569 
Q 847 1681 609 1914 
Q 372 2147 372 2553 
Q 372 3047 722 3315 
Q 1072 3584 1716 3584 
Q 2034 3584 2315 3537 
Q 2597 3491 2834 3397 
z
" transform="scale(0.015625)"/>
       <path id="DejaVuSans-6e" d="M 3513 2113 
L 3513 0 
L 2938 0 
L 2938 2094 
Q 2938 2591 2744 2837 
Q 2550 3084 2163 3084 
Q 1697 3084 1428 2787 
Q 1159 2491 1159 1978 
L 1159 0 
L 581 0 
L 581 3500 
L 1159 3500 
L 1159 2956 
Q 1366 3272 1645 3428 
Q 1925 3584 2291 3584 
Q 2894 3584 3203 3211 
Q 3513 2838 3513 2113 
z
" transform="scale(0.015625)"/>
      </defs>
      <use xlink:href="#DejaVuSans-50"/>
      <use xlink:href="#DejaVuSans-72" x="58.552734"/>
      <use xlink:href="#DejaVuSans-65" x="97.416016"/>
      <use xlink:href="#DejaVuSans-64" x="158.939453"/>
      <use xlink:href="#DejaVuSans-69" x="222.416016"/>
      <use xlink:href="#DejaVuSans-63" x="250.199219"/>
      <use xlink:href="#DejaVuSans-74" x="305.179688"/>
      <use xlink:href="#DejaVuSans-65" x="344.388672"/>
      <use xlink:href="#DejaVuSans-64" x="405.912109"/>
      <use xlink:href="#DejaVuSans-20" x="469.388672"/>
      <use xlink:href="#DejaVuSans-46" x="501.175781"/>
      <use xlink:href="#DejaVuSans-6c" x="558.695312"/>
      <use xlink:href="#DejaVuSans-75" x="586.478516"/>
      <use xlink:href="#DejaVuSans-6f" x="649.857422"/>
      <use xlink:href="#DejaVuSans-72" x="711.039062"/>
      <use xlink:href="#DejaVuSans-65" x="749.902344"/>
      <use xlink:href="#DejaVuSans-73" x="811.425781"/>
      <use xlink:href="#DejaVuSans-63" x="863.525391"/>
      <use xlink:href="#DejaVuSans-65" x="918.505859"/>
      <use xlink:href="#DejaVuSans-6e" x="980.029297"/>
      <use xlink:href="#DejaVuSans-63" x="1043.408203"/>
      <use xlink:href="#DejaVuSans-65" x="1098.388672"/>
     </g>
    </g>
   </g>
   <g id="matplotlib.axis_2">
    <g id="ytick_1">
     <g id="line2d_6">
      <defs>
       <path id="m8cc338ef64" d="M 0 0 
L -3.5 0 
" style="stroke: #000000; stroke-width: 0.8"/>
      </defs>
      <g>
       <use xlink:href="#m8cc338ef64" x="45.38" y="389.32" style="stroke: #000000; stroke-width: 0.8"/>
      </g>
     </g>
     <g id="text_7">
      <!-- 0 -->
      <g transform="translate(32.0175 393.119219) scale(0.1 -0.1)">
       <use xlink:href="#DejaVuSans-30"/>
      </g>
     </g>
    </g>
    <g id="ytick_2">
     <g id="line2d_7">
      <g>
       <use xlink:href="#m8cc338ef64" x="45.38" y="317.975238" style="stroke: #000000; stroke-width: 0.8"/>
      </g>
     </g>
     <g id="text_8">
      <!-- 5 -->
      <g transform="translate(32.0175 321.774457) scale(0.1 -0.1)">
       <defs>
        <path id="DejaVuSans-35" d="M 691 4666 
L 3169 4666 
L 3169 4134 
L 1269 4134 
L 1269 2991 
Q 1406 3038 1543 3061 
Q 1681 3084 1819 3084 
Q 2600 3084 3056 2656 
Q 3513 2228 3513 1497 
Q 3513 744 3044 326 
Q 2575 -91 1722 -91 
Q 1428 -91 1123 -41 
Q 819 9 494 109 
L 494 744 
Q 775 591 1075 516 
Q 1375 441 1709 441 
Q 2250 441 2565 725 
Q 2881 1009 2881 1497 
Q 2881 1984 2565 2268 
Q 2250 2553 1709 2553 
Q 1456 2553 1204 2497 
Q 953 2441 691 2322 
L 691 4666 
z
" transform="scale(0.015625)"/>
       </defs>
       <use xlink:href="#DejaVuSans-35"/>
      </g>
     </g>
    </g>
    <g id="ytick_3">
     <g id="line2d_8">
      <g>
       <use xlink:href="#m8cc338ef64" x="45.38" y="246.630476" style="stroke: #000000; stroke-width: 0.8"/>
      </g>
     </g>
     <g id="text_9">
      <!-- 10 -->
      <g transform="translate(25.655 250.429695) scale(0.1 -0.1)">
       <defs>
        <path id="DejaVuSans-31" d="M 794 531 
L 1825 531 
L 1825 4091 
L 703 3866 
L 703 4441 
L 1819 4666 
L 2450 4666 
L 2450 531 
L 3481 531 
L 3481 0 
L 794 0 
L 794 531 
z
" transform="scale(0.015625)"/>
       </defs>
       <use xlink:href="#DejaVuSans-31"/>
       <use xlink:href="#DejaVuSans-30" x="63.623047"/>
      </g>
     </g>
    </g>
    <g id="ytick_4">
     <g id="line2d_9">
      <g>
       <use xlink:href="#m8cc338ef64" x="45.38" y="175.285714" style="stroke: #000000; stroke-width: 0.8"/>
      </g>
     </g>
     <g id="text_10">
      <!-- 15 -->
      <g transform="translate(25.655 179.084933) scale(0.1 -0.1)">
       <use xlink:href="#DejaVuSans-31"/>
       <use xlink:href="#DejaVuSans-35" x="63.623047"/>
      </g>
     </g>
    </g>
    <g id="ytick_5">
     <g id="line2d_10">
      <g>
       <use xlink:href="#m8cc338ef64" x="45.38" y="103.940952" style="stroke: #000000; stroke-width: 0.8"/>
      </g>
     </g>
     <g id="text_11">
      <!-- 20 -->
      <g transform="translate(25.655 107.740171) scale(0.1 -0.1)">
       <use xlink:href="#DejaVuSans-32"/>
       <use xlink:href="#DejaVuSans-30" x="63.623047"/>
      </g>
     </g>
    </g>
    <g id="ytick_6">
     <g id="line2d_11">
      <g>
       <use xlink:href="#m8cc338ef64" x="45.38" y="32.59619" style="stroke: #000000; stroke-width: 0.8"/>
      </g>
     </g>
     <g id="text_12">
      <!-- 25 -->
      <g transform="translate(25.655 36.395409) scale(0.1 -0.1)">
       <use xlink:href="#DejaVuSans-32"/>
       <use xlink:href="#DejaVuSans-35" x="63.623047"/>
      </g>
     </g>
    </g>
    <g id="text_13">
     <!-- Probability Density -->
     <g transform="translate(19.159375 258.471875) rotate(-90) scale(0.12 -0.12)">
      <defs>
       <path id="DejaVuSans-62" d="M 3116 1747 
Q 3116 2381 2855 2742 
Q 2594 3103 2138 3103 
Q 1681 3103 1420 2742 
Q 1159 2381 1159 1747 
Q 1159 1113 1420 752 
Q 1681 391 2138 391 
Q 2594 391 2855 752 
Q 3116 1113 3116 1747 
z
M 1159 2969 
Q 1341 3281 1617 3432 
Q 1894 3584 2278 3584 
Q 2916 3584 3314 3078 
Q 3713 2572 3713 1747 
Q 3713 922 3314 415 
Q 2916 -91 2278 -91 
Q 1894 -91 1617 61 
Q 1341 213 1159 525 
L 1159 0 
L 581 0 
L 581 4863 
L 1159 4863 
L 1159 2969 
z
" transform="scale(0.015625)"/>
       <path id="DejaVuSans-61" d="M 2194 1759 
Q 1497 1759 1228 1600 
Q 959 1441 959 1056 
Q 959 750 1161 570 
Q 1363 391 1709 391 
Q 2188 391 2477 730 
Q 2766 1069 2766 1631 
L 2766 1759 
L 2194 1759 
z
M 3341 1997 
L 3341 0 
L 2766 0 
L 2766 531 
Q 2569 213 2275 61 
Q 1981 -91 1556 -91 
Q 1019 -91 701 211 
Q 384 513 384 1019 
Q 384 1609 779 1909 
Q 1175 2209 1959 2209 
L 2766 2209 
L 2766 2266 
Q 2766 2663 2505 2880 
Q 2244 3097 1772 3097 
Q 1472 3097 1187 3025 
Q 903 2953 641 2809 
L 641 3341 
Q 956 3463 1253 3523 
Q 1550 3584 1831 3584 
Q 2591 3584 2966 3190 
Q 3341 2797 3341 1997 
z
" transform="scale(0.015625)"/>
       <path id="DejaVuSans-79" d="M 2059 -325 
Q 1816 -950 1584 -1140 
Q 1353 -1331 966 -1331 
L 506 -1331 
L 506 -850 
L 844 -850 
Q 1081 -850 1212 -737 
Q 1344 -625 1503 -206 
L 1606 56 
L 191 3500 
L 800 3500 
L 1894 763 
L 2988 3500 
L 3597 3500 
L 2059 -325 
z
" transform="scale(0.015625)"/>
       <path id="DejaVuSans-44" d="M 1259 4147 
L 1259 519 
L 2022 519 
Q 2988 519 3436 956 
Q 3884 1394 3884 2338 
Q 3884 3275 3436 3711 
Q 2988 4147 2022 4147 
L 1259 4147 
z
M 628 4666 
L 1925 4666 
Q 3281 4666 3915 4102 
Q 4550 3538 4550 2338 
Q 4550 1131 3912 565 
Q 3275 0 1925 0 
L 628 0 
L 628 4666 
z
" transform="scale(0.015625)"/>
      </defs>
      <use xlink:href="#DejaVuSans-50"/>
      <use xlink:href="#DejaVuSans-72" x="58.552734"/>
      <use xlink:href="#DejaVuSans-6f" x="97.416016"/>
      <use xlink:href="#DejaVuSans-62" x="158.597656"/>
      <use xlink:href="#DejaVuSans-61" x="222.074219"/>
      <use xlink:href="#DejaVuSans-62" x="283.353516"/>
      <use xlink:href="#DejaVuSans-69" x="346.830078"/>
      <use xlink:href="#DejaVuSans-6c" x="374.613281"/>
      <use xlink:href="#DejaVuSans-69" x="402.396484"/>
      <use xlink:href="#DejaVuSans-74" x="430.179688"/>
      <use xlink:href="#DejaVuSans-79" x="469.388672"/>
      <use xlink:href="#DejaVuSans-20" x="528.568359"/>
      <use xlink:href="#DejaVuSans-44" x="560.355469"/>
      <use xlink:href="#DejaVuSans-65" x="637.357422"/>
      <use xlink:href="#DejaVuSans-6e" x="698.880859"/>
      <use xlink:href="#DejaVuSans-73" x="762.259766"/>
      <use xlink:href="#DejaVuSans-69" x="814.359375"/>
      <use xlink:href="#DejaVuSans-74" x="842.142578"/>
      <use xlink:href="#DejaVuSans-79" x="881.351562"/>
     </g>
    </g>
   </g>
   <g id="line2d_12">
    <path d="M 252.889187 389.32 
L 252.889187 14.76 
" clip-path="url(#p4c0bf4f027)" style="fill: none; stroke-dasharray: 11.1,4.8; stroke-dashoffset: 0; stroke: #ffa500; stroke-width: 3"/>
   </g>
   <g id="patch_80">
    <path d="M 45.38 389.32 
L 45.38 14.76 
" style="fill: none; stroke: #000000; stroke-width: 0.8; stroke-linejoin: miter; stroke-linecap: square"/>
   </g>
   <g id="patch_81">
    <path d="M 45.38 389.32 
L 425.025 389.32 
" style="fill: none; stroke: #000000; stroke-width: 0.8; stroke-linejoin: miter; stroke-linecap: square"/>
   </g>
   <g id="legend_1">
    <g id="patch_82">
     <path d="M 299.910937 66.794375 
L 418.025 66.794375 
Q 420.025 66.794375 420.025 64.794375 
L 420.025 21.76 
Q 420.025 19.76 418.025 19.76 
L 299.910937 19.76 
Q 297.910937 19.76 297.910937 21.76 
L 297.910937 64.794375 
Q 297.910937 66.794375 299.910937 66.794375 
z
" style="fill: #ffffff; opacity: 0.8; stroke: #cccccc; stroke-linejoin: miter"/>
    </g>
    <g id="patch_83">
     <path d="M 301.910937 31.358438 
L 321.910937 31.358438 
L 321.910937 24.358438 
L 301.910937 24.358438 
z
" style="fill: #808080; fill-opacity: 0.4; stroke: #000000; stroke-linejoin: miter"/>
    </g>
    <g id="text_14">
     <!-- Pre-trained ESM2 -->
     <g transform="translate(329.910937 31.358438) scale(0.1 -0.1)">
      <defs>
       <path id="DejaVuSans-2d" d="M 313 2009 
L 1997 2009 
L 1997 1497 
L 313 1497 
L 313 2009 
z
" transform="scale(0.015625)"/>
       <path id="DejaVuSans-45" d="M 628 4666 
L 3578 4666 
L 3578 4134 
L 1259 4134 
L 1259 2753 
L 3481 2753 
L 3481 2222 
L 1259 2222 
L 1259 531 
L 3634 531 
L 3634 0 
L 628 0 
L 628 4666 
z
" transform="scale(0.015625)"/>
       <path id="DejaVuSans-53" d="M 3425 4513 
L 3425 3897 
Q 3066 4069 2747 4153 
Q 2428 4238 2131 4238 
Q 1616 4238 1336 4038 
Q 1056 3838 1056 3469 
Q 1056 3159 1242 3001 
Q 1428 2844 1947 2747 
L 2328 2669 
Q 3034 2534 3370 2195 
Q 3706 1856 3706 1288 
Q 3706 609 3251 259 
Q 2797 -91 1919 -91 
Q 1588 -91 1214 -16 
Q 841 59 441 206 
L 441 856 
Q 825 641 1194 531 
Q 1563 422 1919 422 
Q 2459 422 2753 634 
Q 3047 847 3047 1241 
Q 3047 1584 2836 1778 
Q 2625 1972 2144 2069 
L 1759 2144 
Q 1053 2284 737 2584 
Q 422 2884 422 3419 
Q 422 4038 858 4394 
Q 1294 4750 2059 4750 
Q 2388 4750 2728 4690 
Q 3069 4631 3425 4513 
z
" transform="scale(0.015625)"/>
       <path id="DejaVuSans-4d" d="M 628 4666 
L 1569 4666 
L 2759 1491 
L 3956 4666 
L 4897 4666 
L 4897 0 
L 4281 0 
L 4281 4097 
L 3078 897 
L 2444 897 
L 1241 4097 
L 1241 0 
L 628 0 
L 628 4666 
z
" transform="scale(0.015625)"/>
      </defs>
      <use xlink:href="#DejaVuSans-50"/>
      <use xlink:href="#DejaVuSans-72" x="58.552734"/>
      <use xlink:href="#DejaVuSans-65" x="97.416016"/>
      <use xlink:href="#DejaVuSans-2d" x="158.939453"/>
      <use xlink:href="#DejaVuSans-74" x="195.023438"/>
      <use xlink:href="#DejaVuSans-72" x="234.232422"/>
      <use xlink:href="#DejaVuSans-61" x="275.345703"/>
      <use xlink:href="#DejaVuSans-69" x="336.625"/>
      <use xlink:href="#DejaVuSans-6e" x="364.408203"/>
      <use xlink:href="#DejaVuSans-65" x="427.787109"/>
      <use xlink:href="#DejaVuSans-64" x="489.310547"/>
      <use xlink:href="#DejaVuSans-20" x="552.787109"/>
      <use xlink:href="#DejaVuSans-45" x="584.574219"/>
      <use xlink:href="#DejaVuSans-53" x="647.757812"/>
      <use xlink:href="#DejaVuSans-4d" x="711.234375"/>
      <use xlink:href="#DejaVuSans-32" x="797.513672"/>
     </g>
    </g>
    <g id="patch_84">
     <path d="M 301.910937 46.036563 
L 321.910937 46.036563 
L 321.910937 39.036563 
L 301.910937 39.036563 
z
" style="fill: #ffa500; fill-opacity: 0.6; stroke: #000000; stroke-linejoin: miter"/>
    </g>
    <g id="text_15">
     <!-- SFT ESM2 -->
     <g transform="translate(329.910937 46.036563) scale(0.1 -0.1)">
      <defs>
       <path id="DejaVuSans-54" d="M -19 4666 
L 3928 4666 
L 3928 4134 
L 2272 4134 
L 2272 0 
L 1638 0 
L 1638 4134 
L -19 4134 
L -19 4666 
z
" transform="scale(0.015625)"/>
      </defs>
      <use xlink:href="#DejaVuSans-53"/>
      <use xlink:href="#DejaVuSans-46" x="63.476562"/>
      <use xlink:href="#DejaVuSans-54" x="119.246094"/>
      <use xlink:href="#DejaVuSans-20" x="180.330078"/>
      <use xlink:href="#DejaVuSans-45" x="212.117188"/>
      <use xlink:href="#DejaVuSans-53" x="275.300781"/>
      <use xlink:href="#DejaVuSans-4d" x="338.777344"/>
      <use xlink:href="#DejaVuSans-32" x="425.056641"/>
     </g>
    </g>
    <g id="patch_85">
     <path d="M 301.910937 60.714688 
L 321.910937 60.714688 
L 321.910937 53.714688 
L 301.910937 53.714688 
z
" style="fill: #0000ff; fill-opacity: 0.6; stroke: #000000; stroke-linejoin: miter"/>
    </g>
    <g id="text_16">
     <!-- Aligned ESM2 -->
     <g transform="translate(329.910937 60.714688) scale(0.1 -0.1)">
      <defs>
       <path id="DejaVuSans-41" d="M 2188 4044 
L 1331 1722 
L 3047 1722 
L 2188 4044 
z
M 1831 4666 
L 2547 4666 
L 4325 0 
L 3669 0 
L 3244 1197 
L 1141 1197 
L 716 0 
L 50 0 
L 1831 4666 
z
" transform="scale(0.015625)"/>
       <path id="DejaVuSans-67" d="M 2906 1791 
Q 2906 2416 2648 2759 
Q 2391 3103 1925 3103 
Q 1463 3103 1205 2759 
Q 947 2416 947 1791 
Q 947 1169 1205 825 
Q 1463 481 1925 481 
Q 2391 481 2648 825 
Q 2906 1169 2906 1791 
z
M 3481 434 
Q 3481 -459 3084 -895 
Q 2688 -1331 1869 -1331 
Q 1566 -1331 1297 -1286 
Q 1028 -1241 775 -1147 
L 775 -588 
Q 1028 -725 1275 -790 
Q 1522 -856 1778 -856 
Q 2344 -856 2625 -561 
Q 2906 -266 2906 331 
L 2906 616 
Q 2728 306 2450 153 
Q 2172 0 1784 0 
Q 1141 0 747 490 
Q 353 981 353 1791 
Q 353 2603 747 3093 
Q 1141 3584 1784 3584 
Q 2172 3584 2450 3431 
Q 2728 3278 2906 2969 
L 2906 3500 
L 3481 3500 
L 3481 434 
z
" transform="scale(0.015625)"/>
      </defs>
      <use xlink:href="#DejaVuSans-41"/>
      <use xlink:href="#DejaVuSans-6c" x="68.408203"/>
      <use xlink:href="#DejaVuSans-69" x="96.191406"/>
      <use xlink:href="#DejaVuSans-67" x="123.974609"/>
      <use xlink:href="#DejaVuSans-6e" x="187.451172"/>
      <use xlink:href="#DejaVuSans-65" x="250.830078"/>
      <use xlink:href="#DejaVuSans-64" x="312.353516"/>
      <use xlink:href="#DejaVuSans-20" x="375.830078"/>
      <use xlink:href="#DejaVuSans-45" x="407.617188"/>
      <use xlink:href="#DejaVuSans-53" x="470.800781"/>
      <use xlink:href="#DejaVuSans-4d" x="534.277344"/>
      <use xlink:href="#DejaVuSans-32" x="620.556641"/>
     </g>
    </g>
   </g>
  </g>
  <g id="axes_2">
   <g id="patch_86">
    <path d="M 473.555 389.32 
L 853.2 389.32 
L 853.2 14.76 
L 473.555 14.76 
z
" style="fill: #ffffff"/>
   </g>
   <g id="patch_87">
    <path d="M 490.811591 389.32 
L 490.811591 14.76 
L 771.918571 14.76 
L 771.918571 389.32 
z
" clip-path="url(#pf08349bb21)" style="fill: #ff0000; opacity: 0.1; stroke: #ff0000; stroke-linejoin: miter"/>
   </g>
   <g id="patch_88">
    <path d="M 771.918571 389.32 
L 771.918571 14.76 
L 835.943409 14.76 
L 835.943409 389.32 
z
" clip-path="url(#pf08349bb21)" style="fill: #008000; opacity: 0.1; stroke: #008000; stroke-linejoin: miter"/>
   </g>
   <g id="matplotlib.axis_3">
    <g id="xtick_6">
     <g id="line2d_13">
      <g>
       <use xlink:href="#m0633549130" x="513.071314" y="389.32" style="stroke: #000000; stroke-width: 0.8"/>
      </g>
     </g>
     <g id="text_17">
      <!-- 3.80 -->
      <g transform="translate(501.938502 403.918437) scale(0.1 -0.1)">
       <use xlink:href="#DejaVuSans-33"/>
       <use xlink:href="#DejaVuSans-2e" x="63.623047"/>
       <use xlink:href="#DejaVuSans-38" x="95.410156"/>
       <use xlink:href="#DejaVuSans-30" x="159.033203"/>
      </g>
     </g>
    </g>
    <g id="xtick_7">
     <g id="line2d_14">
      <g>
       <use xlink:href="#m0633549130" x="557.031167" y="389.32" style="stroke: #000000; stroke-width: 0.8"/>
      </g>
     </g>
     <g id="text_18">
      <!-- 3.85 -->
      <g transform="translate(545.898355 403.918437) scale(0.1 -0.1)">
       <use xlink:href="#DejaVuSans-33"/>
       <use xlink:href="#DejaVuSans-2e" x="63.623047"/>
       <use xlink:href="#DejaVuSans-38" x="95.410156"/>
       <use xlink:href="#DejaVuSans-35" x="159.033203"/>
      </g>
     </g>
    </g>
    <g id="xtick_8">
     <g id="line2d_15">
      <g>
       <use xlink:href="#m0633549130" x="600.99102" y="389.32" style="stroke: #000000; stroke-width: 0.8"/>
      </g>
     </g>
     <g id="text_19">
      <!-- 3.90 -->
      <g transform="translate(589.858208 403.918437) scale(0.1 -0.1)">
       <defs>
        <path id="DejaVuSans-39" d="M 703 97 
L 703 672 
Q 941 559 1184 500 
Q 1428 441 1663 441 
Q 2288 441 2617 861 
Q 2947 1281 2994 2138 
Q 2813 1869 2534 1725 
Q 2256 1581 1919 1581 
Q 1219 1581 811 2004 
Q 403 2428 403 3163 
Q 403 3881 828 4315 
Q 1253 4750 1959 4750 
Q 2769 4750 3195 4129 
Q 3622 3509 3622 2328 
Q 3622 1225 3098 567 
Q 2575 -91 1691 -91 
Q 1453 -91 1209 -44 
Q 966 3 703 97 
z
M 1959 2075 
Q 2384 2075 2632 2365 
Q 2881 2656 2881 3163 
Q 2881 3666 2632 3958 
Q 2384 4250 1959 4250 
Q 1534 4250 1286 3958 
Q 1038 3666 1038 3163 
Q 1038 2656 1286 2365 
Q 1534 2075 1959 2075 
z
" transform="scale(0.015625)"/>
       </defs>
       <use xlink:href="#DejaVuSans-33"/>
       <use xlink:href="#DejaVuSans-2e" x="63.623047"/>
       <use xlink:href="#DejaVuSans-39" x="95.410156"/>
       <use xlink:href="#DejaVuSans-30" x="159.033203"/>
      </g>
     </g>
    </g>
    <g id="xtick_9">
     <g id="line2d_16">
      <g>
       <use xlink:href="#m0633549130" x="644.950874" y="389.32" style="stroke: #000000; stroke-width: 0.8"/>
      </g>
     </g>
     <g id="text_20">
      <!-- 3.95 -->
      <g transform="translate(633.818061 403.918437) scale(0.1 -0.1)">
       <use xlink:href="#DejaVuSans-33"/>
       <use xlink:href="#DejaVuSans-2e" x="63.623047"/>
       <use xlink:href="#DejaVuSans-39" x="95.410156"/>
       <use xlink:href="#DejaVuSans-35" x="159.033203"/>
      </g>
     </g>
    </g>
    <g id="xtick_10">
     <g id="line2d_17">
      <g>
       <use xlink:href="#m0633549130" x="688.910727" y="389.32" style="stroke: #000000; stroke-width: 0.8"/>
      </g>
     </g>
     <g id="text_21">
      <!-- 4.00 -->
      <g transform="translate(677.777914 403.918437) scale(0.1 -0.1)">
       <use xlink:href="#DejaVuSans-34"/>
       <use xlink:href="#DejaVuSans-2e" x="63.623047"/>
       <use xlink:href="#DejaVuSans-30" x="95.410156"/>
       <use xlink:href="#DejaVuSans-30" x="159.033203"/>
      </g>
     </g>
    </g>
    <g id="xtick_11">
     <g id="line2d_18">
      <g>
       <use xlink:href="#m0633549130" x="732.87058" y="389.32" style="stroke: #000000; stroke-width: 0.8"/>
      </g>
     </g>
     <g id="text_22">
      <!-- 4.05 -->
      <g transform="translate(721.737767 403.918437) scale(0.1 -0.1)">
       <use xlink:href="#DejaVuSans-34"/>
       <use xlink:href="#DejaVuSans-2e" x="63.623047"/>
       <use xlink:href="#DejaVuSans-30" x="95.410156"/>
       <use xlink:href="#DejaVuSans-35" x="159.033203"/>
      </g>
     </g>
    </g>
    <g id="xtick_12">
     <g id="line2d_19">
      <g>
       <use xlink:href="#m0633549130" x="776.830433" y="389.32" style="stroke: #000000; stroke-width: 0.8"/>
      </g>
     </g>
     <g id="text_23">
      <!-- 4.10 -->
      <g transform="translate(765.697621 403.918437) scale(0.1 -0.1)">
       <use xlink:href="#DejaVuSans-34"/>
       <use xlink:href="#DejaVuSans-2e" x="63.623047"/>
       <use xlink:href="#DejaVuSans-31" x="95.410156"/>
       <use xlink:href="#DejaVuSans-30" x="159.033203"/>
      </g>
     </g>
    </g>
    <g id="xtick_13">
     <g id="line2d_20">
      <g>
       <use xlink:href="#m0633549130" x="820.790286" y="389.32" style="stroke: #000000; stroke-width: 0.8"/>
      </g>
     </g>
     <g id="text_24">
      <!-- 4.15 -->
      <g transform="translate(809.657474 403.918437) scale(0.1 -0.1)">
       <use xlink:href="#DejaVuSans-34"/>
       <use xlink:href="#DejaVuSans-2e" x="63.623047"/>
       <use xlink:href="#DejaVuSans-31" x="95.410156"/>
       <use xlink:href="#DejaVuSans-35" x="159.033203"/>
      </g>
     </g>
    </g>
    <g id="text_25">
     <!-- Predicted Fluorescence -->
     <g transform="translate(593.78125 419.11625) scale(0.12 -0.12)">
      <use xlink:href="#DejaVuSans-50"/>
      <use xlink:href="#DejaVuSans-72" x="58.552734"/>
      <use xlink:href="#DejaVuSans-65" x="97.416016"/>
      <use xlink:href="#DejaVuSans-64" x="158.939453"/>
      <use xlink:href="#DejaVuSans-69" x="222.416016"/>
      <use xlink:href="#DejaVuSans-63" x="250.199219"/>
      <use xlink:href="#DejaVuSans-74" x="305.179688"/>
      <use xlink:href="#DejaVuSans-65" x="344.388672"/>
      <use xlink:href="#DejaVuSans-64" x="405.912109"/>
      <use xlink:href="#DejaVuSans-20" x="469.388672"/>
      <use xlink:href="#DejaVuSans-46" x="501.175781"/>
      <use xlink:href="#DejaVuSans-6c" x="558.695312"/>
      <use xlink:href="#DejaVuSans-75" x="586.478516"/>
      <use xlink:href="#DejaVuSans-6f" x="649.857422"/>
      <use xlink:href="#DejaVuSans-72" x="711.039062"/>
      <use xlink:href="#DejaVuSans-65" x="749.902344"/>
      <use xlink:href="#DejaVuSans-73" x="811.425781"/>
      <use xlink:href="#DejaVuSans-63" x="863.525391"/>
      <use xlink:href="#DejaVuSans-65" x="918.505859"/>
      <use xlink:href="#DejaVuSans-6e" x="980.029297"/>
      <use xlink:href="#DejaVuSans-63" x="1043.408203"/>
      <use xlink:href="#DejaVuSans-65" x="1098.388672"/>
     </g>
    </g>
   </g>
   <g id="matplotlib.axis_4">
    <g id="ytick_7">
     <g id="line2d_21">
      <g>
       <use xlink:href="#m8cc338ef64" x="473.555" y="389.32" style="stroke: #000000; stroke-width: 0.8"/>
      </g>
     </g>
     <g id="text_26">
      <!-- 0.0 -->
      <g transform="translate(450.651875 393.119219) scale(0.1 -0.1)">
       <use xlink:href="#DejaVuSans-30"/>
       <use xlink:href="#DejaVuSans-2e" x="63.623047"/>
       <use xlink:href="#DejaVuSans-30" x="95.410156"/>
      </g>
     </g>
    </g>
    <g id="ytick_8">
     <g id="line2d_22">
      <g>
       <use xlink:href="#m8cc338ef64" x="473.555" y="314.408" style="stroke: #000000; stroke-width: 0.8"/>
      </g>
     </g>
     <g id="text_27">
      <!-- 0.2 -->
      <g transform="translate(450.651875 318.207219) scale(0.1 -0.1)">
       <use xlink:href="#DejaVuSans-30"/>
       <use xlink:href="#DejaVuSans-2e" x="63.623047"/>
       <use xlink:href="#DejaVuSans-32" x="95.410156"/>
      </g>
     </g>
    </g>
    <g id="ytick_9">
     <g id="line2d_23">
      <g>
       <use xlink:href="#m8cc338ef64" x="473.555" y="239.496" style="stroke: #000000; stroke-width: 0.8"/>
      </g>
     </g>
     <g id="text_28">
      <!-- 0.4 -->
      <g transform="translate(450.651875 243.295219) scale(0.1 -0.1)">
       <use xlink:href="#DejaVuSans-30"/>
       <use xlink:href="#DejaVuSans-2e" x="63.623047"/>
       <use xlink:href="#DejaVuSans-34" x="95.410156"/>
      </g>
     </g>
    </g>
    <g id="ytick_10">
     <g id="line2d_24">
      <g>
       <use xlink:href="#m8cc338ef64" x="473.555" y="164.584" style="stroke: #000000; stroke-width: 0.8"/>
      </g>
     </g>
     <g id="text_29">
      <!-- 0.6 -->
      <g transform="translate(450.651875 168.383219) scale(0.1 -0.1)">
       <use xlink:href="#DejaVuSans-30"/>
       <use xlink:href="#DejaVuSans-2e" x="63.623047"/>
       <use xlink:href="#DejaVuSans-36" x="95.410156"/>
      </g>
     </g>
    </g>
    <g id="ytick_11">
     <g id="line2d_25">
      <g>
       <use xlink:href="#m8cc338ef64" x="473.555" y="89.672" style="stroke: #000000; stroke-width: 0.8"/>
      </g>
     </g>
     <g id="text_30">
      <!-- 0.8 -->
      <g transform="translate(450.651875 93.471219) scale(0.1 -0.1)">
       <use xlink:href="#DejaVuSans-30"/>
       <use xlink:href="#DejaVuSans-2e" x="63.623047"/>
       <use xlink:href="#DejaVuSans-38" x="95.410156"/>
      </g>
     </g>
    </g>
    <g id="ytick_12">
     <g id="line2d_26">
      <g>
       <use xlink:href="#m8cc338ef64" x="473.555" y="14.76" style="stroke: #000000; stroke-width: 0.8"/>
      </g>
     </g>
     <g id="text_31">
      <!-- 1.0 -->
      <g transform="translate(450.651875 18.559219) scale(0.1 -0.1)">
       <use xlink:href="#DejaVuSans-31"/>
       <use xlink:href="#DejaVuSans-2e" x="63.623047"/>
       <use xlink:href="#DejaVuSans-30" x="95.410156"/>
      </g>
     </g>
    </g>
    <g id="text_32">
     <!-- Cumulative Density -->
     <g transform="translate(444.15625 261.002187) rotate(-90) scale(0.12 -0.12)">
      <defs>
       <path id="DejaVuSans-43" d="M 4122 4306 
L 4122 3641 
Q 3803 3938 3442 4084 
Q 3081 4231 2675 4231 
Q 1875 4231 1450 3742 
Q 1025 3253 1025 2328 
Q 1025 1406 1450 917 
Q 1875 428 2675 428 
Q 3081 428 3442 575 
Q 3803 722 4122 1019 
L 4122 359 
Q 3791 134 3420 21 
Q 3050 -91 2638 -91 
Q 1578 -91 968 557 
Q 359 1206 359 2328 
Q 359 3453 968 4101 
Q 1578 4750 2638 4750 
Q 3056 4750 3426 4639 
Q 3797 4528 4122 4306 
z
" transform="scale(0.015625)"/>
       <path id="DejaVuSans-6d" d="M 3328 2828 
Q 3544 3216 3844 3400 
Q 4144 3584 4550 3584 
Q 5097 3584 5394 3201 
Q 5691 2819 5691 2113 
L 5691 0 
L 5113 0 
L 5113 2094 
Q 5113 2597 4934 2840 
Q 4756 3084 4391 3084 
Q 3944 3084 3684 2787 
Q 3425 2491 3425 1978 
L 3425 0 
L 2847 0 
L 2847 2094 
Q 2847 2600 2669 2842 
Q 2491 3084 2119 3084 
Q 1678 3084 1418 2786 
Q 1159 2488 1159 1978 
L 1159 0 
L 581 0 
L 581 3500 
L 1159 3500 
L 1159 2956 
Q 1356 3278 1631 3431 
Q 1906 3584 2284 3584 
Q 2666 3584 2933 3390 
Q 3200 3197 3328 2828 
z
" transform="scale(0.015625)"/>
       <path id="DejaVuSans-76" d="M 191 3500 
L 800 3500 
L 1894 563 
L 2988 3500 
L 3597 3500 
L 2284 0 
L 1503 0 
L 191 3500 
z
" transform="scale(0.015625)"/>
      </defs>
      <use xlink:href="#DejaVuSans-43"/>
      <use xlink:href="#DejaVuSans-75" x="69.824219"/>
      <use xlink:href="#DejaVuSans-6d" x="133.203125"/>
      <use xlink:href="#DejaVuSans-75" x="230.615234"/>
      <use xlink:href="#DejaVuSans-6c" x="293.994141"/>
      <use xlink:href="#DejaVuSans-61" x="321.777344"/>
      <use xlink:href="#DejaVuSans-74" x="383.056641"/>
      <use xlink:href="#DejaVuSans-69" x="422.265625"/>
      <use xlink:href="#DejaVuSans-76" x="450.048828"/>
      <use xlink:href="#DejaVuSans-65" x="509.228516"/>
      <use xlink:href="#DejaVuSans-20" x="570.751953"/>
      <use xlink:href="#DejaVuSans-44" x="602.539062"/>
      <use xlink:href="#DejaVuSans-65" x="679.541016"/>
      <use xlink:href="#DejaVuSans-6e" x="741.064453"/>
      <use xlink:href="#DejaVuSans-73" x="804.443359"/>
      <use xlink:href="#DejaVuSans-69" x="856.542969"/>
      <use xlink:href="#DejaVuSans-74" x="884.326172"/>
      <use xlink:href="#DejaVuSans-79" x="923.535156"/>
     </g>
    </g>
   </g>
   <g id="line2d_27">
    <path d="M 534.771444 14.76 
L 534.771444 15.13456 
L 541.75588 15.13456 
L 541.75588 15.50912 
L 580.086429 15.50912 
L 580.086429 15.88368 
L 591.024868 15.88368 
L 591.024868 16.25824 
L 595.443383 16.25824 
L 595.443383 16.6328 
L 598.654295 16.6328 
L 598.654295 17.00736 
L 605.199793 17.00736 
L 605.199793 17.38192 
L 607.339772 17.38192 
L 607.339772 17.75648 
L 612.609331 17.75648 
L 612.609331 18.13104 
L 617.516883 18.13104 
L 617.516883 18.5056 
L 619.571967 18.5056 
L 619.571967 18.88016 
L 620.390311 18.88016 
L 620.390311 19.25472 
L 622.828994 19.25472 
L 622.828994 19.62928 
L 624.814486 19.62928 
L 624.898752 20.3784 
L 625.380452 20.3784 
L 625.380452 20.75296 
L 630.132886 20.75296 
L 630.132886 21.12752 
L 633.803278 21.12752 
L 633.803278 21.50208 
L 634.112254 21.50208 
L 634.112254 21.87664 
L 635.266195 21.87664 
L 635.266195 22.2512 
L 636.875843 22.2512 
L 636.875843 22.62576 
L 638.704122 22.62576 
L 638.704122 23.00032 
L 639.015193 23.00032 
L 639.015193 23.37488 
L 639.481172 23.37488 
L 639.481172 23.74944 
L 639.84339 23.74944 
L 639.895584 24.49856 
L 640.757529 24.49856 
L 640.757529 24.87312 
L 641.066504 24.87312 
L 641.066504 25.24768 
L 641.229586 25.24768 
L 641.229586 25.62224 
L 641.637711 25.62224 
L 641.637711 25.9968 
L 642.386462 25.9968 
L 642.386462 26.37136 
L 642.656239 26.37136 
L 642.656239 26.74592 
L 643.160368 26.74592 
L 643.160368 27.12048 
L 643.907652 27.12048 
L 643.907652 27.49504 
L 644.630202 27.49504 
L 644.715096 28.24416 
L 645.393417 28.24416 
L 645.393417 28.61872 
L 645.659421 28.61872 
L 645.659421 28.99328 
L 646.350528 28.99328 
L 646.350528 29.36784 
L 648.276069 29.36784 
L 648.276069 29.7424 
L 648.779149 29.7424 
L 648.867188 30.49152 
L 648.936781 30.49152 
L 648.936781 30.86608 
L 649.13466 30.86608 
L 649.13466 31.24064 
L 649.357273 31.24064 
L 649.357273 31.6152 
L 649.70901 31.6152 
L 649.70901 31.98976 
L 649.842745 31.98976 
L 649.842745 32.36432 
L 650.136 32.36432 
L 650.136 32.73888 
L 650.580597 32.73888 
L 650.580597 33.11344 
L 650.887057 33.11344 
L 650.887057 33.488 
L 651.358276 33.488 
L 651.358276 33.86256 
L 651.54735 33.86256 
L 651.54735 34.23712 
L 651.718398 34.23712 
L 651.718398 34.61168 
L 652.019407 34.61168 
L 652.019407 34.98624 
L 652.283525 34.98624 
L 652.283525 35.3608 
L 652.582229 35.3608 
L 652.582229 35.73536 
L 653.316727 35.73536 
L 653.316727 36.10992 
L 654.298363 36.10992 
L 654.298363 36.48448 
L 654.597905 36.48448 
L 654.597905 36.85904 
L 655.095745 36.85904 
L 655.095745 37.2336 
L 655.407026 37.2336 
L 655.407026 37.60816 
L 655.829614 37.60816 
L 655.829614 37.98272 
L 657.235515 37.98272 
L 657.261088 39.1064 
L 657.371766 39.1064 
L 657.371766 39.48096 
L 658.12995 39.48096 
L 658.143156 40.23008 
L 658.572661 40.23008 
L 658.572661 40.60464 
L 658.706187 40.60464 
L 658.706187 40.9792 
L 659.133806 40.9792 
L 659.133806 41.35376 
L 659.281376 41.35376 
L 659.281376 41.72832 
L 659.784456 41.72832 
L 659.784456 42.10288 
L 660.076453 42.10288 
L 660.076453 42.47744 
L 660.366772 42.47744 
L 660.474725 43.60112 
L 660.632567 43.60112 
L 660.632567 43.97568 
L 661.072133 43.97568 
L 661.072133 44.35024 
L 661.219494 44.35024 
L 661.221171 45.09936 
L 661.359099 45.09936 
L 661.359099 45.47392 
L 661.68128 45.47392 
L 661.777704 46.5976 
L 662.614704 46.5976 
L 662.614704 46.97216 
L 662.795813 46.97216 
L 662.905652 48.84496 
L 662.94506 48.84496 
L 662.94506 49.21952 
L 663.138117 49.21952 
L 663.172285 49.96864 
L 663.594873 49.96864 
L 663.658177 51.09232 
L 663.883096 51.09232 
L 663.883096 51.46688 
L 664.039889 51.46688 
L 664.055611 52.216 
L 664.250135 52.216 
L 664.250135 52.59056 
L 664.466879 52.59056 
L 664.466879 52.96512 
L 664.688235 52.96512 
L 664.688235 53.33968 
L 665.120884 53.33968 
L 665.20515 54.0888 
L 665.57156 54.0888 
L 665.57156 54.46336 
L 665.729821 54.46336 
L 665.729821 54.83792 
L 666.08051 54.83792 
L 666.08051 55.21248 
L 666.241077 55.21248 
L 666.241077 55.58704 
L 666.801592 55.58704 
L 666.827166 56.33616 
L 667.060679 56.33616 
L 667.060679 56.71072 
L 667.335696 56.71072 
L 667.444697 57.8344 
L 667.516386 57.8344 
L 667.598346 58.58352 
L 667.700639 58.58352 
L 667.791403 59.33264 
L 668.436395 59.33264 
L 668.487751 60.08176 
L 668.625259 60.08176 
L 668.730697 61.20544 
L 669.102348 61.20544 
L 669.102348 61.58 
L 669.244887 61.58 
L 669.244887 61.95456 
L 669.92153 61.95456 
L 669.922788 62.70368 
L 670.083355 62.70368 
L 670.083355 63.07824 
L 670.492527 63.07824 
L 670.492527 63.4528 
L 670.675732 63.4528 
L 670.758321 64.57648 
L 671.012377 64.57648 
L 671.012377 64.95104 
L 671.92463 64.95104 
L 672.030905 66.07472 
L 672.270917 66.07472 
L 672.270917 66.44928 
L 672.40046 66.44928 
L 672.483468 68.32208 
L 672.767709 68.32208 
L 672.767709 68.69664 
L 672.915698 68.69664 
L 672.915698 69.0712 
L 673.046709 69.0712 
L 673.138731 69.82032 
L 673.214822 69.82032 
L 673.214822 70.19488 
L 673.821244 70.19488 
L 673.926052 71.69312 
L 674.063561 71.69312 
L 674.063561 72.06768 
L 674.53436 72.06768 
L 674.597665 72.8168 
L 674.720081 72.8168 
L 674.822793 73.56592 
L 675.325035 73.56592 
L 675.325035 73.94048 
L 675.477427 73.94048 
L 675.482248 74.6896 
L 675.84782 74.6896 
L 675.891211 75.43872 
L 676.24693 75.43872 
L 676.266634 76.18784 
L 676.611664 76.18784 
L 676.611664 76.5624 
L 676.831762 76.5624 
L 676.921478 77.68608 
L 677.191255 77.68608 
L 677.191255 78.06064 
L 677.424558 78.06064 
L 677.424558 78.4352 
L 677.65346 78.4352 
L 677.68616 79.55888 
L 677.789082 79.55888 
L 677.789082 79.93344 
L 678.211879 79.93344 
L 678.320671 81.05712 
L 678.333457 81.05712 
L 678.333457 81.43168 
L 678.45755 81.43168 
L 678.45755 81.80624 
L 678.72041 81.80624 
L 678.72041 82.1808 
L 679.137757 82.1808 
L 679.137757 82.55536 
L 679.270654 82.55536 
L 679.279249 83.30448 
L 679.811256 83.30448 
L 679.843957 84.0536 
L 680.260675 84.0536 
L 680.260675 84.42816 
L 680.408455 84.42816 
L 680.408455 84.80272 
L 680.563362 84.80272 
L 680.611783 85.55184 
L 680.720155 85.55184 
L 680.720155 85.9264 
L 680.973373 85.9264 
L 680.973373 86.30096 
L 681.860471 86.30096 
L 681.899041 87.05008 
L 681.994626 87.05008 
L 682.004688 87.7992 
L 682.279286 87.7992 
L 682.279286 88.17376 
L 682.470457 88.17376 
L 682.505043 89.29744 
L 682.672108 89.29744 
L 682.762243 90.42112 
L 682.905202 90.42112 
L 682.905202 90.79568 
L 683.183993 90.79568 
L 683.206631 91.5448 
L 683.330305 91.5448 
L 683.391513 92.66848 
L 683.608677 92.66848 
L 683.708035 93.79216 
L 683.918071 93.79216 
L 683.918071 94.54128 
L 684.086603 94.54128 
L 684.131042 95.2904 
L 684.233545 95.2904 
L 684.289722 96.03952 
L 684.398094 96.03952 
L 684.398094 96.41408 
L 684.577945 96.41408 
L 684.65718 97.1632 
L 684.825083 97.1632 
L 684.825083 97.53776 
L 685.069497 97.53776 
L 685.111211 98.28688 
L 685.242431 98.28688 
L 685.242431 98.66144 
L 685.41264 98.66144 
L 685.41264 99.036 
L 685.573206 99.036 
L 685.649926 99.78512 
L 685.979025 99.78512 
L 686.018223 100.9088 
L 686.286742 100.9088 
L 686.301206 101.65792 
L 686.696334 101.65792 
L 686.798627 103.15616 
L 686.875556 103.15616 
L 686.953534 104.6544 
L 687.104248 104.6544 
L 687.123114 105.40352 
L 687.222472 105.40352 
L 687.281165 106.15264 
L 687.49749 106.15264 
L 687.49749 106.5272 
L 687.71067 106.5272 
L 687.745257 107.27632 
L 687.866835 107.27632 
L 687.942716 108.77456 
L 688.207043 108.77456 
L 688.207043 109.14912 
L 688.384169 109.14912 
L 688.406388 109.89824 
L 688.56402 109.89824 
L 688.658767 111.02192 
L 688.85958 111.02192 
L 688.964389 112.1456 
L 689.163106 112.1456 
L 689.163106 112.52016 
L 689.27546 112.52016 
L 689.27546 112.89472 
L 689.393684 112.89472 
L 689.484239 114.0184 
L 689.537481 114.0184 
L 689.546285 114.76752 
L 689.74039 114.76752 
L 689.74039 115.14208 
L 689.871611 115.14208 
L 689.904311 115.8912 
L 690.056074 115.8912 
L 690.160882 116.64032 
L 690.191905 116.64032 
L 690.294198 118.51312 
L 690.406553 118.51312 
L 690.406553 118.88768 
L 690.591435 118.88768 
L 690.680732 119.6368 
L 690.793087 119.6368 
L 690.855133 120.76048 
L 690.94443 120.76048 
L 690.96623 121.5096 
L 691.088227 121.5096 
L 691.090743 122.25872 
L 691.221963 122.25872 
L 691.31671 123.00784 
L 691.413553 123.00784 
L 691.483984 124.13152 
L 691.537227 124.13152 
L 691.537227 124.50608 
L 691.746424 124.50608 
L 691.830271 125.2552 
L 691.897349 125.2552 
L 691.905733 126.00432 
L 692.021442 126.00432 
L 692.021442 126.37888 
L 692.165658 126.37888 
L 692.229382 127.50256 
L 692.333352 127.50256 
L 692.411329 129.0008 
L 692.550934 129.0008 
L 692.550934 129.37536 
L 692.848171 129.37536 
L 692.888417 130.12448 
L 692.96891 130.12448 
L 693.030957 131.24816 
L 693.310167 131.24816 
L 693.368021 132.7464 
L 693.605726 132.7464 
L 693.680769 133.87008 
L 693.87194 133.87008 
L 693.979683 135.74288 
L 694.21655 135.74288 
L 694.21655 136.11744 
L 694.878101 136.11744 
L 694.946017 137.24112 
L 695.063822 137.24112 
L 695.063822 137.61568 
L 695.191688 137.61568 
L 695.265473 138.3648 
L 695.530429 138.3648 
L 695.624337 139.11392 
L 695.939601 139.11392 
L 695.986136 140.61216 
L 696.08801 140.61216 
L 696.08801 140.98672 
L 696.229711 140.98672 
L 696.322362 142.1104 
L 696.448551 142.1104 
L 696.544136 142.85952 
L 696.719376 142.85952 
L 696.791484 143.60864 
L 696.832569 143.60864 
L 696.880781 144.35776 
L 696.947858 144.35776 
L 697.000263 145.10688 
L 697.117229 145.10688 
L 697.228326 146.23056 
L 697.377573 146.23056 
L 697.386377 146.97968 
L 697.510051 146.97968 
L 697.598509 147.7288 
L 697.807707 147.7288 
L 697.862207 148.85248 
L 697.960308 148.85248 
L 698.070567 149.6016 
L 698.183341 149.6016 
L 698.183341 149.97616 
L 698.367384 149.97616 
L 698.478481 151.09984 
L 698.554782 151.09984 
L 698.554782 151.4744 
L 698.67636 151.4744 
L 698.76901 152.59808 
L 698.789553 152.59808 
L 698.894361 153.72176 
L 699.057862 153.72176 
L 699.057862 154.09632 
L 699.248194 154.09632 
L 699.340426 154.84544 
L 699.370611 154.84544 
L 699.370611 155.22 
L 699.508958 155.22 
L 699.508958 155.59456 
L 699.820029 155.59456 
L 699.889203 156.71824 
L 699.96173 156.71824 
L 700.061508 157.46736 
L 700.088339 157.46736 
L 700.166317 158.21648 
L 700.384318 158.21648 
L 700.466488 158.9656 
L 700.58597 158.9656 
L 700.58597 159.34016 
L 700.822837 159.34016 
L 700.930999 160.8384 
L 700.95238 160.8384 
L 701.056769 162.7112 
L 701.280221 162.7112 
L 701.316694 163.46032 
L 701.392156 163.46032 
L 701.392156 163.83488 
L 701.562365 163.83488 
L 701.642439 164.584 
L 701.682266 164.584 
L 701.728382 165.70768 
L 701.808036 165.70768 
L 701.84451 166.4568 
L 701.96483 166.4568 
L 702.040292 167.95504 
L 702.114915 167.95504 
L 702.197924 169.07872 
L 702.244878 169.07872 
L 702.336271 170.57696 
L 702.38071 170.57696 
L 702.415087 171.32608 
L 702.498095 171.32608 
L 702.606677 173.19888 
L 702.609611 173.19888 
L 702.609611 173.57344 
L 702.829709 173.57344 
L 702.862829 174.32256 
L 703.068253 174.32256 
L 703.08083 175.07168 
L 703.271582 175.07168 
L 703.353332 176.56992 
L 703.411606 176.56992 
L 703.464848 177.31904 
L 703.604872 177.31904 
L 703.645119 178.44272 
L 703.762504 178.44272 
L 703.862282 180.31552 
L 703.970444 180.31552 
L 704.054291 181.4392 
L 704.12053 181.4392 
L 704.154069 182.18832 
L 704.260554 182.18832 
L 704.342305 182.93744 
L 704.559049 182.93744 
L 704.559049 183.312 
L 704.687334 183.312 
L 704.737642 184.06112 
L 704.894855 184.06112 
L 704.997567 185.1848 
L 705.090637 185.1848 
L 705.129207 186.30848 
L 705.260427 186.30848 
L 705.310316 187.43216 
L 705.384101 187.43216 
L 705.486394 188.18128 
L 705.498552 188.18128 
L 705.606295 189.67952 
L 705.623903 189.67952 
L 705.685111 190.8032 
L 705.772311 190.8032 
L 705.8549 193.05056 
L 705.894728 193.05056 
L 705.975221 194.5488 
L 706.147526 194.5488 
L 706.23808 196.04704 
L 706.344146 196.04704 
L 706.374331 197.54528 
L 706.498424 197.54528 
L 706.505132 198.2944 
L 706.625871 198.2944 
L 706.625871 198.66896 
L 706.764638 198.66896 
L 706.8619 199.41808 
L 706.998151 199.41808 
L 707.034205 200.1672 
L 707.134402 200.1672 
L 707.17926 201.29088 
L 707.331023 201.29088 
L 707.430381 203.16368 
L 707.516324 203.16368 
L 707.549024 204.28736 
L 707.661379 204.28736 
L 707.729714 205.7856 
L 707.837457 205.7856 
L 707.946458 206.90928 
L 708.005151 206.90928 
L 708.105767 208.03296 
L 708.157752 208.03296 
L 708.252499 209.5312 
L 708.296937 209.5312 
L 708.387911 210.65488 
L 708.415581 210.65488 
L 708.443669 211.404 
L 708.531708 211.404 
L 708.641548 212.90224 
L 708.747195 212.90224 
L 708.836072 214.40048 
L 708.893926 214.40048 
L 708.965615 215.1496 
L 709.019697 215.1496 
L 709.099351 216.64784 
L 709.246083 216.64784 
L 709.349214 217.77152 
L 709.371853 217.77152 
L 709.474146 220.01888 
L 709.537031 220.01888 
L 709.60327 221.14256 
L 709.667832 221.14256 
L 709.757967 222.6408 
L 709.788991 222.6408 
L 709.84391 223.76448 
L 709.921049 223.76448 
L 709.998608 224.5136 
L 710.048496 224.5136 
L 710.096289 225.63728 
L 710.163786 225.63728 
L 710.185167 226.3864 
L 710.428741 226.3864 
L 710.539 227.51008 
L 710.542773 227.51008 
L 710.648839 228.2592 
L 710.667286 228.2592 
L 710.767902 229.00832 
L 710.858037 229.00832 
L 710.894091 230.132 
L 711.032857 230.132 
L 711.132635 231.63024 
L 711.150243 231.63024 
L 711.200132 233.12848 
L 711.276852 233.12848 
L 711.367825 234.25216 
L 711.390045 234.25216 
L 711.494015 235.37584 
L 711.613916 235.37584 
L 711.70447 236.12496 
L 711.75897 236.12496 
L 711.806763 236.87408 
L 711.96691 236.87408 
L 711.96691 237.24864 
L 712.108611 237.24864 
L 712.1912 238.74688 
L 712.238155 238.74688 
L 712.342963 240.24512 
L 712.365183 240.24512 
L 712.456576 241.74336 
L 712.496403 241.74336 
L 712.546292 243.61616 
L 712.619238 243.61616 
L 712.707277 245.1144 
L 712.739978 245.1144 
L 712.843109 246.9872 
L 712.968879 246.9872 
L 713.014995 248.11088 
L 713.08878 248.11088 
L 713.197781 249.98368 
L 713.205746 249.98368 
L 713.304266 251.85648 
L 713.364217 251.85648 
L 713.457287 253.35472 
L 713.604438 253.35472 
L 713.705892 254.85296 
L 713.900417 254.85296 
L 713.987617 256.72576 
L 714.025768 256.72576 
L 714.110034 258.59856 
L 714.151119 258.59856 
L 714.184238 259.72224 
L 714.295754 259.72224 
L 714.391759 261.22048 
L 714.420267 261.22048 
L 714.523818 263.09328 
L 714.55526 263.09328 
L 714.652522 264.21696 
L 714.676838 264.21696 
L 714.750623 266.08976 
L 714.85627 266.08976 
L 714.92712 267.21344 
L 715.062952 267.21344 
L 715.083495 267.96256 
L 715.190399 267.96256 
L 715.285565 268.71168 
L 715.391212 268.71168 
L 715.391212 269.08624 
L 715.555552 269.08624 
L 715.64946 269.83536 
L 715.823023 269.83536 
L 715.899324 271.3336 
L 716.019225 271.3336 
L 716.128225 273.95552 
L 716.314365 273.95552 
L 716.395277 275.0792 
L 716.662329 275.0792 
L 716.721022 275.82832 
L 716.925608 275.82832 
L 717.018678 277.32656 
L 717.14361 277.32656 
L 717.234164 279.19936 
L 717.286988 279.19936 
L 717.354904 280.6976 
L 717.414016 280.6976 
L 717.414016 281.07216 
L 717.547332 281.07216 
L 717.602252 282.94496 
L 717.679391 282.94496 
L 717.714606 284.06864 
L 717.847084 284.06864 
L 717.898231 284.81776 
L 718.154382 284.81776 
L 718.154382 285.19232 
L 718.274703 285.19232 
L 718.354776 286.69056 
L 718.397538 286.69056 
L 718.465035 287.43968 
L 718.530435 287.43968 
L 718.614282 288.93792 
L 718.679682 288.93792 
L 718.77946 290.81072 
L 718.937931 290.81072 
L 718.999977 292.30896 
L 719.071247 292.30896 
L 719.074182 293.05808 
L 719.183602 293.05808 
L 719.251098 294.18176 
L 719.308114 294.18176 
L 719.344587 294.93088 
L 719.425919 294.93088 
L 719.532404 296.05456 
L 719.560912 296.05456 
L 719.571812 296.80368 
L 719.695905 296.80368 
L 719.722317 297.5528 
L 719.834672 297.5528 
L 719.834672 297.92736 
L 720.169639 297.92736 
L 720.261032 300.54928 
L 720.362487 300.54928 
L 720.455557 302.42208 
L 720.50335 302.42208 
L 720.593904 305.044 
L 720.690747 305.044 
L 720.752794 305.79312 
L 720.80436 305.79312 
L 720.838317 306.54224 
L 720.987984 306.54224 
L 721.034938 307.29136 
L 721.107046 307.29136 
L 721.129685 308.04048 
L 721.220239 308.04048 
L 721.239524 309.16416 
L 721.359425 309.16416 
L 721.408056 310.6624 
L 721.51538 310.6624 
L 721.538019 311.41152 
L 721.637796 311.41152 
L 721.716612 313.28432 
L 721.871729 313.28432 
L 721.944256 314.03344 
L 722.120754 314.03344 
L 722.184477 315.15712 
L 722.254909 315.15712 
L 722.254909 315.53168 
L 722.461172 315.53168 
L 722.477941 316.2808 
L 722.607903 316.2808 
L 722.714808 318.1536 
L 722.725708 318.1536 
L 722.725708 318.52816 
L 722.866151 318.52816 
L 722.922748 319.27728 
L 723.241785 319.27728 
L 723.241785 319.65184 
L 723.367974 319.65184 
L 723.45811 320.40096 
L 723.536087 320.40096 
L 723.631253 321.15008 
L 723.66605 321.15008 
L 723.7369 322.27376 
L 723.99389 322.27376 
L 724.08193 323.02288 
L 724.249204 323.02288 
L 724.2622 323.772 
L 724.400547 323.772 
L 724.489425 325.27024 
L 724.548118 325.27024 
L 724.60723 326.76848 
L 724.714134 326.76848 
L 724.756896 327.89216 
L 724.844935 327.89216 
L 724.893986 328.64128 
L 725.043233 328.64128 
L 725.108214 329.76496 
L 725.182418 329.76496 
L 725.277584 330.88864 
L 725.36227 330.88864 
L 725.413835 332.38688 
L 725.522417 332.38688 
L 725.616745 333.88512 
L 725.64106 333.88512 
L 725.64106 334.25968 
L 725.838939 334.25968 
L 725.873735 335.0088 
L 726.017113 335.0088 
L 726.021305 335.75792 
L 726.218345 335.75792 
L 726.30303 336.8816 
L 726.329861 336.8816 
L 726.400293 338.37984 
L 726.454793 338.37984 
L 726.454793 338.7544 
L 726.706753 338.7544 
L 726.749934 340.25264 
L 726.820365 340.25264 
L 726.929785 342.5 
L 727.03669 342.5 
L 727.059747 343.62368 
L 727.164137 343.62368 
L 727.164137 343.99824 
L 727.388427 343.99824 
L 727.486947 345.87104 
L 727.52887 345.87104 
L 727.540609 346.99472 
L 728.055428 346.99472 
L 728.055428 347.36928 
L 728.177425 347.36928 
L 728.177425 347.74384 
L 728.488916 347.74384 
L 728.594563 348.86752 
L 728.825141 348.86752 
L 728.825141 349.24208 
L 729.064943 349.24208 
L 729.174363 349.9912 
L 729.288814 349.9912 
L 729.288814 350.36576 
L 729.412907 350.36576 
L 729.441415 351.11488 
L 729.606593 351.11488 
L 729.699663 352.98768 
L 729.754163 352.98768 
L 729.796925 353.7368 
L 729.961265 353.7368 
L 730.00235 354.48592 
L 730.07865 354.48592 
L 730.179686 355.23504 
L 730.265629 355.23504 
L 730.265629 355.6096 
L 730.589277 355.6096 
L 730.667255 357.4824 
L 730.704147 357.4824 
L 730.704147 357.85696 
L 730.971618 357.85696 
L 730.971618 358.23152 
L 731.227351 358.23152 
L 731.227351 358.60608 
L 731.351444 358.60608 
L 731.456253 359.72976 
L 731.52333 359.72976 
L 731.614723 361.228 
L 731.659162 361.228 
L 731.699408 361.97712 
L 732.032699 361.97712 
L 732.090553 362.72624 
L 732.247766 362.72624 
L 732.247766 363.1008 
L 732.414621 363.1008 
L 732.525299 364.59904 
L 732.647715 364.59904 
L 732.647715 364.9736 
L 732.769293 364.9736 
L 732.873263 366.47184 
L 733.121869 366.47184 
L 733.136961 367.22096 
L 733.26902 367.22096 
L 733.26902 367.59552 
L 733.486602 367.59552 
L 733.492052 368.34464 
L 733.677773 368.34464 
L 733.677773 368.7192 
L 733.884036 368.7192 
L 733.967883 369.84288 
L 734.046279 369.84288 
L 734.046279 370.21744 
L 734.657941 370.21744 
L 734.657941 370.592 
L 734.966917 370.592 
L 734.966917 370.96656 
L 735.224326 370.96656 
L 735.330812 371.71568 
L 735.516952 371.71568 
L 735.516952 372.09024 
L 735.746692 372.09024 
L 735.746692 372.4648 
L 736.555394 372.4648 
L 736.555394 372.83936 
L 736.817415 372.83936 
L 736.817415 373.21392 
L 737.167894 373.21392 
L 737.167894 373.58848 
L 737.293245 373.58848 
L 737.293245 373.96304 
L 737.598867 373.96304 
L 737.623182 374.71216 
L 737.842022 374.71216 
L 737.842022 375.08672 
L 738.446558 375.08672 
L 738.446558 375.46128 
L 739.586035 375.46128 
L 739.633828 376.2104 
L 740.445464 376.2104 
L 740.445464 376.58496 
L 741.162354 376.58496 
L 741.250393 377.33408 
L 742.021784 377.33408 
L 742.021784 377.70864 
L 742.342078 377.70864 
L 742.342078 378.0832 
L 742.868636 378.0832 
L 742.868636 378.45776 
L 744.167003 378.45776 
L 744.171615 379.20688 
L 744.667149 379.20688 
L 744.716619 379.956 
L 745.695949 379.956 
L 745.695949 380.33056 
L 747.818111 380.33056 
L 747.818111 380.70512 
L 751.488503 380.70512 
L 751.488503 381.07968 
L 752.980975 381.07968 
L 752.980975 381.45424 
L 763.110922 381.45424 
L 763.110922 381.8288 
L 765.457793 381.8288 
L 765.457793 382.20336 
L 769.615754 382.20336 
L 769.615754 382.57792 
L 769.788059 382.57792 
L 769.788059 382.95248 
L 770.085296 382.95248 
L 770.085296 383.32704 
L 771.219743 383.32704 
L 771.219743 383.7016 
L 771.92741 383.7016 
L 771.92741 384.07616 
L 772.068272 384.07616 
L 772.086299 384.82528 
L 774.110779 384.82528 
L 774.110779 385.19984 
L 774.297758 385.19984 
L 774.297758 385.5744 
L 779.456011 385.5744 
L 779.456011 385.94896 
L 781.402513 385.94896 
L 781.402513 386.32352 
L 781.891759 386.32352 
L 781.891759 386.69808 
L 782.653926 386.69808 
L 782.653926 387.07264 
L 784.11286 387.07264 
L 784.11286 387.4472 
L 785.241438 387.4472 
L 785.241438 387.82176 
L 785.873642 387.82176 
L 785.873642 388.19632 
L 787.065105 388.19632 
L 787.065105 388.57088 
L 790.987456 388.57088 
L 790.987456 388.94544 
L 791.983556 388.94544 
L 791.983556 389.32 
L 791.983556 389.32 
" clip-path="url(#pf08349bb21)" style="fill: none; stroke: #808080; stroke-width: 1.5; stroke-linecap: square"/>
   </g>
   <g id="line2d_28">
    <path d="M 729.322352 14.76 
L 729.322352 389.32 
L 729.322352 389.32 
" clip-path="url(#pf08349bb21)" style="fill: none; stroke: #ffa500; stroke-width: 1.5; stroke-linecap: square"/>
   </g>
   <g id="line2d_29">
    <path d="M 723.842128 14.76 
L 723.842128 389.32 
L 723.842128 389.32 
" clip-path="url(#pf08349bb21)" style="fill: none; stroke: #0000ff; stroke-width: 1.5; stroke-linecap: square"/>
   </g>
   <g id="line2d_30">
    <path d="M 771.918571 389.32 
L 771.918571 14.76 
" clip-path="url(#pf08349bb21)" style="fill: none; stroke-dasharray: 11.1,4.8; stroke-dashoffset: 0; stroke: #ffa500; stroke-width: 3"/>
   </g>
   <g id="patch_89">
    <path d="M 473.555 389.32 
L 473.555 14.76 
" style="fill: none; stroke: #000000; stroke-width: 0.8; stroke-linejoin: miter; stroke-linecap: square"/>
   </g>
   <g id="patch_90">
    <path d="M 473.555 389.32 
L 853.2 389.32 
" style="fill: none; stroke: #000000; stroke-width: 0.8; stroke-linejoin: miter; stroke-linecap: square"/>
   </g>
   <g id="legend_2">
    <g id="patch_91">
     <path d="M 480.555 384.32 
L 685.825312 384.32 
Q 687.825312 384.32 687.825312 382.32 
L 687.825312 339.285625 
Q 687.825312 337.285625 685.825312 337.285625 
L 480.555 337.285625 
Q 478.555 337.285625 478.555 339.285625 
L 478.555 382.32 
Q 478.555 384.32 480.555 384.32 
z
" style="fill: #ffffff; opacity: 0.8; stroke: #000000; stroke-linejoin: miter"/>
    </g>
    <g id="patch_92">
     <path d="M 482.555 348.884063 
L 502.555 348.884063 
L 502.555 341.884063 
L 482.555 341.884063 
z
" style="fill: #ff0000; opacity: 0.8; stroke: #ff0000; stroke-linejoin: miter"/>
    </g>
    <g id="text_33">
     <!-- Less than WT Log Fluorescence -->
     <g transform="translate(510.555 348.884063) scale(0.1 -0.1)">
      <defs>
       <path id="DejaVuSans-4c" d="M 628 4666 
L 1259 4666 
L 1259 531 
L 3531 531 
L 3531 0 
L 628 0 
L 628 4666 
z
" transform="scale(0.015625)"/>
       <path id="DejaVuSans-68" d="M 3513 2113 
L 3513 0 
L 2938 0 
L 2938 2094 
Q 2938 2591 2744 2837 
Q 2550 3084 2163 3084 
Q 1697 3084 1428 2787 
Q 1159 2491 1159 1978 
L 1159 0 
L 581 0 
L 581 4863 
L 1159 4863 
L 1159 2956 
Q 1366 3272 1645 3428 
Q 1925 3584 2291 3584 
Q 2894 3584 3203 3211 
Q 3513 2838 3513 2113 
z
" transform="scale(0.015625)"/>
       <path id="DejaVuSans-57" d="M 213 4666 
L 850 4666 
L 1831 722 
L 2809 4666 
L 3519 4666 
L 4500 722 
L 5478 4666 
L 6119 4666 
L 4947 0 
L 4153 0 
L 3169 4050 
L 2175 0 
L 1381 0 
L 213 4666 
z
" transform="scale(0.015625)"/>
      </defs>
      <use xlink:href="#DejaVuSans-4c"/>
      <use xlink:href="#DejaVuSans-65" x="53.962891"/>
      <use xlink:href="#DejaVuSans-73" x="115.486328"/>
      <use xlink:href="#DejaVuSans-73" x="167.585938"/>
      <use xlink:href="#DejaVuSans-20" x="219.685547"/>
      <use xlink:href="#DejaVuSans-74" x="251.472656"/>
      <use xlink:href="#DejaVuSans-68" x="290.681641"/>
      <use xlink:href="#DejaVuSans-61" x="354.060547"/>
      <use xlink:href="#DejaVuSans-6e" x="415.339844"/>
      <use xlink:href="#DejaVuSans-20" x="478.71875"/>
      <use xlink:href="#DejaVuSans-57" x="510.505859"/>
      <use xlink:href="#DejaVuSans-54" x="609.382812"/>
      <use xlink:href="#DejaVuSans-20" x="670.466797"/>
      <use xlink:href="#DejaVuSans-4c" x="702.253906"/>
      <use xlink:href="#DejaVuSans-6f" x="756.216797"/>
      <use xlink:href="#DejaVuSans-67" x="817.398438"/>
      <use xlink:href="#DejaVuSans-20" x="880.875"/>
      <use xlink:href="#DejaVuSans-46" x="912.662109"/>
      <use xlink:href="#DejaVuSans-6c" x="970.181641"/>
      <use xlink:href="#DejaVuSans-75" x="997.964844"/>
      <use xlink:href="#DejaVuSans-6f" x="1061.34375"/>
      <use xlink:href="#DejaVuSans-72" x="1122.525391"/>
      <use xlink:href="#DejaVuSans-65" x="1161.388672"/>
      <use xlink:href="#DejaVuSans-73" x="1222.912109"/>
      <use xlink:href="#DejaVuSans-63" x="1275.011719"/>
      <use xlink:href="#DejaVuSans-65" x="1329.992188"/>
      <use xlink:href="#DejaVuSans-6e" x="1391.515625"/>
      <use xlink:href="#DejaVuSans-63" x="1454.894531"/>
      <use xlink:href="#DejaVuSans-65" x="1509.875"/>
     </g>
    </g>
    <g id="patch_93">
     <path d="M 482.555 363.562187 
L 502.555 363.562187 
L 502.555 356.562187 
L 482.555 356.562187 
z
" style="fill: #ffa500; opacity: 0.8; stroke: #ffa500; stroke-linejoin: miter"/>
    </g>
    <g id="text_34">
     <!-- Mean WT Log Fluorescence -->
     <g transform="translate(510.555 363.562187) scale(0.1 -0.1)">
      <use xlink:href="#DejaVuSans-4d"/>
      <use xlink:href="#DejaVuSans-65" x="86.279297"/>
      <use xlink:href="#DejaVuSans-61" x="147.802734"/>
      <use xlink:href="#DejaVuSans-6e" x="209.082031"/>
      <use xlink:href="#DejaVuSans-20" x="272.460938"/>
      <use xlink:href="#DejaVuSans-57" x="304.248047"/>
      <use xlink:href="#DejaVuSans-54" x="403.125"/>
      <use xlink:href="#DejaVuSans-20" x="464.208984"/>
      <use xlink:href="#DejaVuSans-4c" x="495.996094"/>
      <use xlink:href="#DejaVuSans-6f" x="549.958984"/>
      <use xlink:href="#DejaVuSans-67" x="611.140625"/>
      <use xlink:href="#DejaVuSans-20" x="674.617188"/>
      <use xlink:href="#DejaVuSans-46" x="706.404297"/>
      <use xlink:href="#DejaVuSans-6c" x="763.923828"/>
      <use xlink:href="#DejaVuSans-75" x="791.707031"/>
      <use xlink:href="#DejaVuSans-6f" x="855.085938"/>
      <use xlink:href="#DejaVuSans-72" x="916.267578"/>
      <use xlink:href="#DejaVuSans-65" x="955.130859"/>
      <use xlink:href="#DejaVuSans-73" x="1016.654297"/>
      <use xlink:href="#DejaVuSans-63" x="1068.753906"/>
      <use xlink:href="#DejaVuSans-65" x="1123.734375"/>
      <use xlink:href="#DejaVuSans-6e" x="1185.257812"/>
      <use xlink:href="#DejaVuSans-63" x="1248.636719"/>
      <use xlink:href="#DejaVuSans-65" x="1303.617188"/>
     </g>
    </g>
    <g id="patch_94">
     <path d="M 482.555 378.240313 
L 502.555 378.240313 
L 502.555 371.240313 
L 482.555 371.240313 
z
" style="fill: #008000; opacity: 0.8; stroke: #008000; stroke-linejoin: miter"/>
    </g>
    <g id="text_35">
     <!-- Greater than WT Log Fluorescence -->
     <g transform="translate(510.555 378.240313) scale(0.1 -0.1)">
      <defs>
       <path id="DejaVuSans-47" d="M 3809 666 
L 3809 1919 
L 2778 1919 
L 2778 2438 
L 4434 2438 
L 4434 434 
Q 4069 175 3628 42 
Q 3188 -91 2688 -91 
Q 1594 -91 976 548 
Q 359 1188 359 2328 
Q 359 3472 976 4111 
Q 1594 4750 2688 4750 
Q 3144 4750 3555 4637 
Q 3966 4525 4313 4306 
L 4313 3634 
Q 3963 3931 3569 4081 
Q 3175 4231 2741 4231 
Q 1884 4231 1454 3753 
Q 1025 3275 1025 2328 
Q 1025 1384 1454 906 
Q 1884 428 2741 428 
Q 3075 428 3337 486 
Q 3600 544 3809 666 
z
" transform="scale(0.015625)"/>
      </defs>
      <use xlink:href="#DejaVuSans-47"/>
      <use xlink:href="#DejaVuSans-72" x="77.490234"/>
      <use xlink:href="#DejaVuSans-65" x="116.353516"/>
      <use xlink:href="#DejaVuSans-61" x="177.876953"/>
      <use xlink:href="#DejaVuSans-74" x="239.15625"/>
      <use xlink:href="#DejaVuSans-65" x="278.365234"/>
      <use xlink:href="#DejaVuSans-72" x="339.888672"/>
      <use xlink:href="#DejaVuSans-20" x="381.001953"/>
      <use xlink:href="#DejaVuSans-74" x="412.789062"/>
      <use xlink:href="#DejaVuSans-68" x="451.998047"/>
      <use xlink:href="#DejaVuSans-61" x="515.376953"/>
      <use xlink:href="#DejaVuSans-6e" x="576.65625"/>
      <use xlink:href="#DejaVuSans-20" x="640.035156"/>
      <use xlink:href="#DejaVuSans-57" x="671.822266"/>
      <use xlink:href="#DejaVuSans-54" x="770.699219"/>
      <use xlink:href="#DejaVuSans-20" x="831.783203"/>
      <use xlink:href="#DejaVuSans-4c" x="863.570312"/>
      <use xlink:href="#DejaVuSans-6f" x="917.533203"/>
      <use xlink:href="#DejaVuSans-67" x="978.714844"/>
      <use xlink:href="#DejaVuSans-20" x="1042.191406"/>
      <use xlink:href="#DejaVuSans-46" x="1073.978516"/>
      <use xlink:href="#DejaVuSans-6c" x="1131.498047"/>
      <use xlink:href="#DejaVuSans-75" x="1159.28125"/>
      <use xlink:href="#DejaVuSans-6f" x="1222.660156"/>
      <use xlink:href="#DejaVuSans-72" x="1283.841797"/>
      <use xlink:href="#DejaVuSans-65" x="1322.705078"/>
      <use xlink:href="#DejaVuSans-73" x="1384.228516"/>
      <use xlink:href="#DejaVuSans-63" x="1436.328125"/>
      <use xlink:href="#DejaVuSans-65" x="1491.308594"/>
      <use xlink:href="#DejaVuSans-6e" x="1552.832031"/>
      <use xlink:href="#DejaVuSans-63" x="1616.210938"/>
      <use xlink:href="#DejaVuSans-65" x="1671.191406"/>
     </g>
    </g>
   </g>
  </g>
 </g>
 <defs>
  <clipPath id="p4c0bf4f027">
   <rect x="45.38" y="14.76" width="379.645" height="374.56"/>
  </clipPath>
  <clipPath id="pf08349bb21">
   <rect x="473.555" y="14.76" width="379.645" height="374.56"/>
  </clipPath>
 </defs>
</svg>
