<?xml version="1.0" encoding="utf-8" standalone="no"?>
<!DOCTYPE svg PUBLIC "-//W3C//DTD SVG 1.1//EN"
  "http://www.w3.org/Graphics/SVG/1.1/DTD/svg11.dtd">
<svg xmlns:xlink="http://www.w3.org/1999/xlink" width="864pt" height="432pt" viewBox="0 0 864 432" xmlns="http://www.w3.org/2000/svg" version="1.1">
 <metadata>
  <rdf:RDF xmlns:dc="http://purl.org/dc/elements/1.1/" xmlns:cc="http://creativecommons.org/ns#" xmlns:rdf="http://www.w3.org/1999/02/22-rdf-syntax-ns#">
   <cc:Work>
    <dc:type rdf:resource="http://purl.org/dc/dcmitype/StillImage"/>
    <dc:date>2025-03-26T13:55:40.900192</dc:date>
    <dc:format>image/svg+xml</dc:format>
    <dc:creator>
     <cc:Agent>
      <dc:title>Matplotlib v3.8.0, https://matplotlib.org/</dc:title>
     </cc:Agent>
    </dc:creator>
   </cc:Work>
  </rdf:RDF>
 </metadata>
 <defs>
  <style type="text/css">*{stroke-linejoin: round; stroke-linecap: butt}</style>
 </defs>
 <g id="figure_1">
  <g id="patch_1">
   <path d="M 0 432 
L 864 432 
L 864 0 
L 0 0 
z
" style="fill: #ffffff"/>
  </g>
  <g id="axes_1">
   <g id="patch_2">
    <path d="M 54.92 389.32 
L 428.818219 389.32 
L 428.818219 14.76 
L 54.92 14.76 
z
" style="fill: #ffffff"/>
   </g>
   <g id="patch_3">
    <path d="M 71.915374 389.32 
L 71.915374 14.76 
L 141.857271 14.76 
L 141.857271 389.32 
z
" clip-path="url(#pdd822450d4)" style="fill: #ff0000; opacity: 0.1; stroke: #ff0000; stroke-linejoin: miter"/>
   </g>
   <g id="patch_4">
    <path d="M 141.857271 389.32 
L 141.857271 14.76 
L 411.822845 14.76 
L 411.822845 389.32 
z
" clip-path="url(#pdd822450d4)" style="fill: #008000; opacity: 0.1; stroke: #008000; stroke-linejoin: miter"/>
   </g>
   <g id="patch_5">
    <path d="M 76.798824 389.32 
L 88.960433 389.32 
L 88.960433 356.605896 
L 76.798824 356.605896 
z
" clip-path="url(#pdd822450d4)" style="fill: #808080; fill-opacity: 0.4; stroke: #000000; stroke-linejoin: miter"/>
   </g>
   <g id="patch_6">
    <path d="M 88.960433 389.32 
L 101.122042 389.32 
L 101.122042 372.962948 
L 88.960433 372.962948 
z
" clip-path="url(#pdd822450d4)" style="fill: #808080; fill-opacity: 0.4; stroke: #000000; stroke-linejoin: miter"/>
   </g>
   <g id="patch_7">
    <path d="M 101.122042 389.32 
L 113.283651 389.32 
L 113.283651 389.32 
L 101.122042 389.32 
z
" clip-path="url(#pdd822450d4)" style="fill: #808080; fill-opacity: 0.4; stroke: #000000; stroke-linejoin: miter"/>
   </g>
   <g id="patch_8">
    <path d="M 113.283651 389.32 
L 125.44526 389.32 
L 125.44526 356.605896 
L 113.283651 356.605896 
z
" clip-path="url(#pdd822450d4)" style="fill: #808080; fill-opacity: 0.4; stroke: #000000; stroke-linejoin: miter"/>
   </g>
   <g id="patch_9">
    <path d="M 125.44526 389.32 
L 137.606868 389.32 
L 137.606868 372.962948 
L 125.44526 372.962948 
z
" clip-path="url(#pdd822450d4)" style="fill: #808080; fill-opacity: 0.4; stroke: #000000; stroke-linejoin: miter"/>
   </g>
   <g id="patch_10">
    <path d="M 137.606868 389.32 
L 149.768477 389.32 
L 149.768477 389.32 
L 137.606868 389.32 
z
" clip-path="url(#pdd822450d4)" style="fill: #808080; fill-opacity: 0.4; stroke: #000000; stroke-linejoin: miter"/>
   </g>
   <g id="patch_11">
    <path d="M 149.768477 389.32 
L 161.930086 389.32 
L 161.930086 340.248844 
L 149.768477 340.248844 
z
" clip-path="url(#pdd822450d4)" style="fill: #808080; fill-opacity: 0.4; stroke: #000000; stroke-linejoin: miter"/>
   </g>
   <g id="patch_12">
    <path d="M 161.930086 389.32 
L 174.091695 389.32 
L 174.091695 372.962948 
L 161.930086 372.962948 
z
" clip-path="url(#pdd822450d4)" style="fill: #808080; fill-opacity: 0.4; stroke: #000000; stroke-linejoin: miter"/>
   </g>
   <g id="patch_13">
    <path d="M 174.091695 389.32 
L 186.253304 389.32 
L 186.253304 307.53474 
L 174.091695 307.53474 
z
" clip-path="url(#pdd822450d4)" style="fill: #808080; fill-opacity: 0.4; stroke: #000000; stroke-linejoin: miter"/>
   </g>
   <g id="patch_14">
    <path d="M 186.253304 389.32 
L 198.414913 389.32 
L 198.414913 389.32 
L 186.253304 389.32 
z
" clip-path="url(#pdd822450d4)" style="fill: #808080; fill-opacity: 0.4; stroke: #000000; stroke-linejoin: miter"/>
   </g>
   <g id="patch_15">
    <path d="M 198.414913 389.32 
L 210.576522 389.32 
L 210.576522 340.248844 
L 198.414913 340.248844 
z
" clip-path="url(#pdd822450d4)" style="fill: #808080; fill-opacity: 0.4; stroke: #000000; stroke-linejoin: miter"/>
   </g>
   <g id="patch_16">
    <path d="M 210.576522 389.32 
L 222.738131 389.32 
L 222.738131 323.891792 
L 210.576522 323.891792 
z
" clip-path="url(#pdd822450d4)" style="fill: #808080; fill-opacity: 0.4; stroke: #000000; stroke-linejoin: miter"/>
   </g>
   <g id="patch_17">
    <path d="M 222.738131 389.32 
L 234.899739 389.32 
L 234.899739 356.605896 
L 222.738131 356.605896 
z
" clip-path="url(#pdd822450d4)" style="fill: #808080; fill-opacity: 0.4; stroke: #000000; stroke-linejoin: miter"/>
   </g>
   <g id="patch_18">
    <path d="M 234.899739 389.32 
L 247.061348 389.32 
L 247.061348 340.248844 
L 234.899739 340.248844 
z
" clip-path="url(#pdd822450d4)" style="fill: #808080; fill-opacity: 0.4; stroke: #000000; stroke-linejoin: miter"/>
   </g>
   <g id="patch_19">
    <path d="M 247.061348 389.32 
L 259.222957 389.32 
L 259.222957 307.53474 
L 247.061348 307.53474 
z
" clip-path="url(#pdd822450d4)" style="fill: #808080; fill-opacity: 0.4; stroke: #000000; stroke-linejoin: miter"/>
   </g>
   <g id="patch_20">
    <path d="M 259.222957 389.32 
L 271.384566 389.32 
L 271.384566 258.463583 
L 259.222957 258.463583 
z
" clip-path="url(#pdd822450d4)" style="fill: #808080; fill-opacity: 0.4; stroke: #000000; stroke-linejoin: miter"/>
   </g>
   <g id="patch_21">
    <path d="M 271.384566 389.32 
L 283.546175 389.32 
L 283.546175 291.177688 
L 271.384566 291.177688 
z
" clip-path="url(#pdd822450d4)" style="fill: #808080; fill-opacity: 0.4; stroke: #000000; stroke-linejoin: miter"/>
   </g>
   <g id="patch_22">
    <path d="M 283.546175 389.32 
L 295.707784 389.32 
L 295.707784 291.177688 
L 283.546175 291.177688 
z
" clip-path="url(#pdd822450d4)" style="fill: #808080; fill-opacity: 0.4; stroke: #000000; stroke-linejoin: miter"/>
   </g>
   <g id="patch_23">
    <path d="M 295.707784 389.32 
L 307.869393 389.32 
L 307.869393 291.177688 
L 295.707784 291.177688 
z
" clip-path="url(#pdd822450d4)" style="fill: #808080; fill-opacity: 0.4; stroke: #000000; stroke-linejoin: miter"/>
   </g>
   <g id="patch_24">
    <path d="M 307.869393 389.32 
L 320.031002 389.32 
L 320.031002 274.820635 
L 307.869393 274.820635 
z
" clip-path="url(#pdd822450d4)" style="fill: #808080; fill-opacity: 0.4; stroke: #000000; stroke-linejoin: miter"/>
   </g>
   <g id="patch_25">
    <path d="M 320.031002 389.32 
L 332.19261 389.32 
L 332.19261 225.749479 
L 320.031002 225.749479 
z
" clip-path="url(#pdd822450d4)" style="fill: #808080; fill-opacity: 0.4; stroke: #000000; stroke-linejoin: miter"/>
   </g>
   <g id="patch_26">
    <path d="M 332.19261 389.32 
L 344.354219 389.32 
L 344.354219 258.463583 
L 332.19261 258.463583 
z
" clip-path="url(#pdd822450d4)" style="fill: #808080; fill-opacity: 0.4; stroke: #000000; stroke-linejoin: miter"/>
   </g>
   <g id="patch_27">
    <path d="M 344.354219 389.32 
L 356.515828 389.32 
L 356.515828 291.177688 
L 344.354219 291.177688 
z
" clip-path="url(#pdd822450d4)" style="fill: #808080; fill-opacity: 0.4; stroke: #000000; stroke-linejoin: miter"/>
   </g>
   <g id="patch_28">
    <path d="M 356.515828 389.32 
L 368.677437 389.32 
L 368.677437 291.177688 
L 356.515828 291.177688 
z
" clip-path="url(#pdd822450d4)" style="fill: #808080; fill-opacity: 0.4; stroke: #000000; stroke-linejoin: miter"/>
   </g>
   <g id="patch_29">
    <path d="M 368.677437 389.32 
L 380.839046 389.32 
L 380.839046 307.53474 
L 368.677437 307.53474 
z
" clip-path="url(#pdd822450d4)" style="fill: #808080; fill-opacity: 0.4; stroke: #000000; stroke-linejoin: miter"/>
   </g>
   <g id="patch_30">
    <path d="M 82.694843 389.32 
L 95.664625 389.32 
L 95.664625 373.982189 
L 82.694843 373.982189 
z
" clip-path="url(#pdd822450d4)" style="fill: #ffa500; fill-opacity: 0.6; stroke: #000000; stroke-linejoin: miter"/>
   </g>
   <g id="patch_31">
    <path d="M 95.664625 389.32 
L 108.634407 389.32 
L 108.634407 389.32 
L 95.664625 389.32 
z
" clip-path="url(#pdd822450d4)" style="fill: #ffa500; fill-opacity: 0.6; stroke: #000000; stroke-linejoin: miter"/>
   </g>
   <g id="patch_32">
    <path d="M 108.634407 389.32 
L 121.604189 389.32 
L 121.604189 373.982189 
L 108.634407 373.982189 
z
" clip-path="url(#pdd822450d4)" style="fill: #ffa500; fill-opacity: 0.6; stroke: #000000; stroke-linejoin: miter"/>
   </g>
   <g id="patch_33">
    <path d="M 121.604189 389.32 
L 134.573971 389.32 
L 134.573971 389.32 
L 121.604189 389.32 
z
" clip-path="url(#pdd822450d4)" style="fill: #ffa500; fill-opacity: 0.6; stroke: #000000; stroke-linejoin: miter"/>
   </g>
   <g id="patch_34">
    <path d="M 134.573971 389.32 
L 147.543753 389.32 
L 147.543753 389.32 
L 134.573971 389.32 
z
" clip-path="url(#pdd822450d4)" style="fill: #ffa500; fill-opacity: 0.6; stroke: #000000; stroke-linejoin: miter"/>
   </g>
   <g id="patch_35">
    <path d="M 147.543753 389.32 
L 160.513535 389.32 
L 160.513535 389.32 
L 147.543753 389.32 
z
" clip-path="url(#pdd822450d4)" style="fill: #ffa500; fill-opacity: 0.6; stroke: #000000; stroke-linejoin: miter"/>
   </g>
   <g id="patch_36">
    <path d="M 160.513535 389.32 
L 173.483317 389.32 
L 173.483317 389.32 
L 160.513535 389.32 
z
" clip-path="url(#pdd822450d4)" style="fill: #ffa500; fill-opacity: 0.6; stroke: #000000; stroke-linejoin: miter"/>
   </g>
   <g id="patch_37">
    <path d="M 173.483317 389.32 
L 186.453099 389.32 
L 186.453099 358.644377 
L 173.483317 358.644377 
z
" clip-path="url(#pdd822450d4)" style="fill: #ffa500; fill-opacity: 0.6; stroke: #000000; stroke-linejoin: miter"/>
   </g>
   <g id="patch_38">
    <path d="M 186.453099 389.32 
L 199.422881 389.32 
L 199.422881 389.32 
L 186.453099 389.32 
z
" clip-path="url(#pdd822450d4)" style="fill: #ffa500; fill-opacity: 0.6; stroke: #000000; stroke-linejoin: miter"/>
   </g>
   <g id="patch_39">
    <path d="M 199.422881 389.32 
L 212.392664 389.32 
L 212.392664 358.644377 
L 199.422881 358.644377 
z
" clip-path="url(#pdd822450d4)" style="fill: #ffa500; fill-opacity: 0.6; stroke: #000000; stroke-linejoin: miter"/>
   </g>
   <g id="patch_40">
    <path d="M 212.392664 389.32 
L 225.362446 389.32 
L 225.362446 389.32 
L 212.392664 389.32 
z
" clip-path="url(#pdd822450d4)" style="fill: #ffa500; fill-opacity: 0.6; stroke: #000000; stroke-linejoin: miter"/>
   </g>
   <g id="patch_41">
    <path d="M 225.362446 389.32 
L 238.332228 389.32 
L 238.332228 312.630944 
L 225.362446 312.630944 
z
" clip-path="url(#pdd822450d4)" style="fill: #ffa500; fill-opacity: 0.6; stroke: #000000; stroke-linejoin: miter"/>
   </g>
   <g id="patch_42">
    <path d="M 238.332228 389.32 
L 251.30201 389.32 
L 251.30201 373.982189 
L 238.332228 373.982189 
z
" clip-path="url(#pdd822450d4)" style="fill: #ffa500; fill-opacity: 0.6; stroke: #000000; stroke-linejoin: miter"/>
   </g>
   <g id="patch_43">
    <path d="M 251.30201 389.32 
L 264.271792 389.32 
L 264.271792 358.644377 
L 251.30201 358.644377 
z
" clip-path="url(#pdd822450d4)" style="fill: #ffa500; fill-opacity: 0.6; stroke: #000000; stroke-linejoin: miter"/>
   </g>
   <g id="patch_44">
    <path d="M 264.271792 389.32 
L 277.241574 389.32 
L 277.241574 297.293132 
L 264.271792 297.293132 
z
" clip-path="url(#pdd822450d4)" style="fill: #ffa500; fill-opacity: 0.6; stroke: #000000; stroke-linejoin: miter"/>
   </g>
   <g id="patch_45">
    <path d="M 277.241574 389.32 
L 290.211356 389.32 
L 290.211356 389.32 
L 277.241574 389.32 
z
" clip-path="url(#pdd822450d4)" style="fill: #ffa500; fill-opacity: 0.6; stroke: #000000; stroke-linejoin: miter"/>
   </g>
   <g id="patch_46">
    <path d="M 290.211356 389.32 
L 303.181138 389.32 
L 303.181138 389.32 
L 290.211356 389.32 
z
" clip-path="url(#pdd822450d4)" style="fill: #ffa500; fill-opacity: 0.6; stroke: #000000; stroke-linejoin: miter"/>
   </g>
   <g id="patch_47">
    <path d="M 303.181138 389.32 
L 316.15092 389.32 
L 316.15092 297.293132 
L 303.181138 297.293132 
z
" clip-path="url(#pdd822450d4)" style="fill: #ffa500; fill-opacity: 0.6; stroke: #000000; stroke-linejoin: miter"/>
   </g>
   <g id="patch_48">
    <path d="M 316.15092 389.32 
L 329.120702 389.32 
L 329.120702 312.630944 
L 316.15092 312.630944 
z
" clip-path="url(#pdd822450d4)" style="fill: #ffa500; fill-opacity: 0.6; stroke: #000000; stroke-linejoin: miter"/>
   </g>
   <g id="patch_49">
    <path d="M 329.120702 389.32 
L 342.090484 389.32 
L 342.090484 281.955321 
L 329.120702 281.955321 
z
" clip-path="url(#pdd822450d4)" style="fill: #ffa500; fill-opacity: 0.6; stroke: #000000; stroke-linejoin: miter"/>
   </g>
   <g id="patch_50">
    <path d="M 342.090484 389.32 
L 355.060266 389.32 
L 355.060266 251.279699 
L 342.090484 251.279699 
z
" clip-path="url(#pdd822450d4)" style="fill: #ffa500; fill-opacity: 0.6; stroke: #000000; stroke-linejoin: miter"/>
   </g>
   <g id="patch_51">
    <path d="M 355.060266 389.32 
L 368.030048 389.32 
L 368.030048 281.955321 
L 355.060266 281.955321 
z
" clip-path="url(#pdd822450d4)" style="fill: #ffa500; fill-opacity: 0.6; stroke: #000000; stroke-linejoin: miter"/>
   </g>
   <g id="patch_52">
    <path d="M 368.030048 389.32 
L 380.99983 389.32 
L 380.99983 128.577208 
L 368.030048 128.577208 
z
" clip-path="url(#pdd822450d4)" style="fill: #ffa500; fill-opacity: 0.6; stroke: #000000; stroke-linejoin: miter"/>
   </g>
   <g id="patch_53">
    <path d="M 380.99983 389.32 
L 393.969613 389.32 
L 393.969613 159.252831 
L 380.99983 159.252831 
z
" clip-path="url(#pdd822450d4)" style="fill: #ffa500; fill-opacity: 0.6; stroke: #000000; stroke-linejoin: miter"/>
   </g>
   <g id="patch_54">
    <path d="M 393.969613 389.32 
L 406.939395 389.32 
L 406.939395 174.590642 
L 393.969613 174.590642 
z
" clip-path="url(#pdd822450d4)" style="fill: #ffa500; fill-opacity: 0.6; stroke: #000000; stroke-linejoin: miter"/>
   </g>
   <g id="patch_55">
    <path d="M 185.331843 389.32 
L 194.25429 389.32 
L 194.25429 367.024762 
L 185.331843 367.024762 
z
" clip-path="url(#pdd822450d4)" style="fill: #0000ff; fill-opacity: 0.6; stroke: #000000; stroke-width: 0.744521; stroke-linejoin: miter"/>
   </g>
   <g id="patch_56">
    <path d="M 194.25429 389.32 
L 203.176736 389.32 
L 203.176736 367.024762 
L 194.25429 367.024762 
z
" clip-path="url(#pdd822450d4)" style="fill: #0000ff; fill-opacity: 0.6; stroke: #000000; stroke-width: 0.744521; stroke-linejoin: miter"/>
   </g>
   <g id="patch_57">
    <path d="M 203.176736 389.32 
L 212.099183 389.32 
L 212.099183 367.024762 
L 203.176736 367.024762 
z
" clip-path="url(#pdd822450d4)" style="fill: #0000ff; fill-opacity: 0.6; stroke: #000000; stroke-width: 0.744521; stroke-linejoin: miter"/>
   </g>
   <g id="patch_58">
    <path d="M 212.099183 389.32 
L 221.021629 389.32 
L 221.021629 389.32 
L 212.099183 389.32 
z
" clip-path="url(#pdd822450d4)" style="fill: #0000ff; fill-opacity: 0.6; stroke: #000000; stroke-width: 0.744521; stroke-linejoin: miter"/>
   </g>
   <g id="patch_59">
    <path d="M 221.021629 389.32 
L 229.944076 389.32 
L 229.944076 344.729524 
L 221.021629 344.729524 
z
" clip-path="url(#pdd822450d4)" style="fill: #0000ff; fill-opacity: 0.6; stroke: #000000; stroke-width: 0.744521; stroke-linejoin: miter"/>
   </g>
   <g id="patch_60">
    <path d="M 229.944076 389.32 
L 238.866522 389.32 
L 238.866522 344.729524 
L 229.944076 344.729524 
z
" clip-path="url(#pdd822450d4)" style="fill: #0000ff; fill-opacity: 0.6; stroke: #000000; stroke-width: 0.744521; stroke-linejoin: miter"/>
   </g>
   <g id="patch_61">
    <path d="M 238.866522 389.32 
L 247.788969 389.32 
L 247.788969 389.32 
L 238.866522 389.32 
z
" clip-path="url(#pdd822450d4)" style="fill: #0000ff; fill-opacity: 0.6; stroke: #000000; stroke-width: 0.744521; stroke-linejoin: miter"/>
   </g>
   <g id="patch_62">
    <path d="M 247.788969 389.32 
L 256.711416 389.32 
L 256.711416 367.024762 
L 247.788969 367.024762 
z
" clip-path="url(#pdd822450d4)" style="fill: #0000ff; fill-opacity: 0.6; stroke: #000000; stroke-width: 0.744521; stroke-linejoin: miter"/>
   </g>
   <g id="patch_63">
    <path d="M 256.711416 389.32 
L 265.633862 389.32 
L 265.633862 389.32 
L 256.711416 389.32 
z
" clip-path="url(#pdd822450d4)" style="fill: #0000ff; fill-opacity: 0.6; stroke: #000000; stroke-width: 0.744521; stroke-linejoin: miter"/>
   </g>
   <g id="patch_64">
    <path d="M 265.633862 389.32 
L 274.556309 389.32 
L 274.556309 344.729524 
L 265.633862 344.729524 
z
" clip-path="url(#pdd822450d4)" style="fill: #0000ff; fill-opacity: 0.6; stroke: #000000; stroke-width: 0.744521; stroke-linejoin: miter"/>
   </g>
   <g id="patch_65">
    <path d="M 274.556309 389.32 
L 283.478755 389.32 
L 283.478755 322.434286 
L 274.556309 322.434286 
z
" clip-path="url(#pdd822450d4)" style="fill: #0000ff; fill-opacity: 0.6; stroke: #000000; stroke-width: 0.744521; stroke-linejoin: miter"/>
   </g>
   <g id="patch_66">
    <path d="M 283.478755 389.32 
L 292.401202 389.32 
L 292.401202 322.434286 
L 283.478755 322.434286 
z
" clip-path="url(#pdd822450d4)" style="fill: #0000ff; fill-opacity: 0.6; stroke: #000000; stroke-width: 0.744521; stroke-linejoin: miter"/>
   </g>
   <g id="patch_67">
    <path d="M 292.401202 389.32 
L 301.323648 389.32 
L 301.323648 344.729524 
L 292.401202 344.729524 
z
" clip-path="url(#pdd822450d4)" style="fill: #0000ff; fill-opacity: 0.6; stroke: #000000; stroke-width: 0.744521; stroke-linejoin: miter"/>
   </g>
   <g id="patch_68">
    <path d="M 301.323648 389.32 
L 310.246095 389.32 
L 310.246095 389.32 
L 301.323648 389.32 
z
" clip-path="url(#pdd822450d4)" style="fill: #0000ff; fill-opacity: 0.6; stroke: #000000; stroke-width: 0.744521; stroke-linejoin: miter"/>
   </g>
   <g id="patch_69">
    <path d="M 310.246095 389.32 
L 319.168541 389.32 
L 319.168541 277.84381 
L 310.246095 277.84381 
z
" clip-path="url(#pdd822450d4)" style="fill: #0000ff; fill-opacity: 0.6; stroke: #000000; stroke-width: 0.744521; stroke-linejoin: miter"/>
   </g>
   <g id="patch_70">
    <path d="M 319.168541 389.32 
L 328.090988 389.32 
L 328.090988 210.958095 
L 319.168541 210.958095 
z
" clip-path="url(#pdd822450d4)" style="fill: #0000ff; fill-opacity: 0.6; stroke: #000000; stroke-width: 0.744521; stroke-linejoin: miter"/>
   </g>
   <g id="patch_71">
    <path d="M 328.090988 389.32 
L 337.013434 389.32 
L 337.013434 277.84381 
L 328.090988 277.84381 
z
" clip-path="url(#pdd822450d4)" style="fill: #0000ff; fill-opacity: 0.6; stroke: #000000; stroke-width: 0.744521; stroke-linejoin: miter"/>
   </g>
   <g id="patch_72">
    <path d="M 337.013434 389.32 
L 345.935881 389.32 
L 345.935881 322.434286 
L 337.013434 322.434286 
z
" clip-path="url(#pdd822450d4)" style="fill: #0000ff; fill-opacity: 0.6; stroke: #000000; stroke-width: 0.744521; stroke-linejoin: miter"/>
   </g>
   <g id="patch_73">
    <path d="M 345.935881 389.32 
L 354.858327 389.32 
L 354.858327 166.367619 
L 345.935881 166.367619 
z
" clip-path="url(#pdd822450d4)" style="fill: #0000ff; fill-opacity: 0.6; stroke: #000000; stroke-width: 0.744521; stroke-linejoin: miter"/>
   </g>
   <g id="patch_74">
    <path d="M 354.858327 389.32 
L 363.780774 389.32 
L 363.780774 277.84381 
L 354.858327 277.84381 
z
" clip-path="url(#pdd822450d4)" style="fill: #0000ff; fill-opacity: 0.6; stroke: #000000; stroke-width: 0.744521; stroke-linejoin: miter"/>
   </g>
   <g id="patch_75">
    <path d="M 363.780774 389.32 
L 372.70322 389.32 
L 372.70322 233.253333 
L 363.780774 233.253333 
z
" clip-path="url(#pdd822450d4)" style="fill: #0000ff; fill-opacity: 0.6; stroke: #000000; stroke-width: 0.744521; stroke-linejoin: miter"/>
   </g>
   <g id="patch_76">
    <path d="M 372.70322 389.32 
L 381.625667 389.32 
L 381.625667 99.481905 
L 372.70322 99.481905 
z
" clip-path="url(#pdd822450d4)" style="fill: #0000ff; fill-opacity: 0.6; stroke: #000000; stroke-width: 0.744521; stroke-linejoin: miter"/>
   </g>
   <g id="patch_77">
    <path d="M 381.625667 389.32 
L 390.548113 389.32 
L 390.548113 32.59619 
L 381.625667 32.59619 
z
" clip-path="url(#pdd822450d4)" style="fill: #0000ff; fill-opacity: 0.6; stroke: #000000; stroke-width: 0.744521; stroke-linejoin: miter"/>
   </g>
   <g id="patch_78">
    <path d="M 390.548113 389.32 
L 399.47056 389.32 
L 399.47056 344.729524 
L 390.548113 344.729524 
z
" clip-path="url(#pdd822450d4)" style="fill: #0000ff; fill-opacity: 0.6; stroke: #000000; stroke-width: 0.744521; stroke-linejoin: miter"/>
   </g>
   <g id="patch_79">
    <path d="M 399.47056 389.32 
L 408.393007 389.32 
L 408.393007 210.958095 
L 399.47056 210.958095 
z
" clip-path="url(#pdd822450d4)" style="fill: #0000ff; fill-opacity: 0.6; stroke: #000000; stroke-width: 0.744521; stroke-linejoin: miter"/>
   </g>
   <g id="matplotlib.axis_1">
    <g id="xtick_1">
     <g id="line2d_1">
      <defs>
       <path id="md0b22dc468" d="M 0 0 
L 0 3.5 
" style="stroke: #000000; stroke-width: 0.8"/>
      </defs>
      <g>
       <use xlink:href="#md0b22dc468" x="78.391949" y="389.32" style="stroke: #000000; stroke-width: 0.8"/>
      </g>
     </g>
     <g id="text_1">
      <!-- 0.5 -->
      <g transform="translate(70.440386 403.918437) scale(0.1 -0.1)">
       <defs>
        <path id="DejaVuSans-30" d="M 2034 4250 
Q 1547 4250 1301 3770 
Q 1056 3291 1056 2328 
Q 1056 1369 1301 889 
Q 1547 409 2034 409 
Q 2525 409 2770 889 
Q 3016 1369 3016 2328 
Q 3016 3291 2770 3770 
Q 2525 4250 2034 4250 
z
M 2034 4750 
Q 2819 4750 3233 4129 
Q 3647 3509 3647 2328 
Q 3647 1150 3233 529 
Q 2819 -91 2034 -91 
Q 1250 -91 836 529 
Q 422 1150 422 2328 
Q 422 3509 836 4129 
Q 1250 4750 2034 4750 
z
" transform="scale(0.015625)"/>
        <path id="DejaVuSans-2e" d="M 684 794 
L 1344 794 
L 1344 0 
L 684 0 
L 684 794 
z
" transform="scale(0.015625)"/>
        <path id="DejaVuSans-35" d="M 691 4666 
L 3169 4666 
L 3169 4134 
L 1269 4134 
L 1269 2991 
Q 1406 3038 1543 3061 
Q 1681 3084 1819 3084 
Q 2600 3084 3056 2656 
Q 3513 2228 3513 1497 
Q 3513 744 3044 326 
Q 2575 -91 1722 -91 
Q 1428 -91 1123 -41 
Q 819 9 494 109 
L 494 744 
Q 775 591 1075 516 
Q 1375 441 1709 441 
Q 2250 441 2565 725 
Q 2881 1009 2881 1497 
Q 2881 1984 2565 2268 
Q 2250 2553 1709 2553 
Q 1456 2553 1204 2497 
Q 953 2441 691 2322 
L 691 4666 
z
" transform="scale(0.015625)"/>
       </defs>
       <use xlink:href="#DejaVuSans-30"/>
       <use xlink:href="#DejaVuSans-2e" x="63.623047"/>
       <use xlink:href="#DejaVuSans-35" x="95.410156"/>
      </g>
     </g>
    </g>
    <g id="xtick_2">
     <g id="line2d_2">
      <g>
       <use xlink:href="#md0b22dc468" x="127.226453" y="389.32" style="stroke: #000000; stroke-width: 0.8"/>
      </g>
     </g>
     <g id="text_2">
      <!-- 1.0 -->
      <g transform="translate(119.274891 403.918437) scale(0.1 -0.1)">
       <defs>
        <path id="DejaVuSans-31" d="M 794 531 
L 1825 531 
L 1825 4091 
L 703 3866 
L 703 4441 
L 1819 4666 
L 2450 4666 
L 2450 531 
L 3481 531 
L 3481 0 
L 794 0 
L 794 531 
z
" transform="scale(0.015625)"/>
       </defs>
       <use xlink:href="#DejaVuSans-31"/>
       <use xlink:href="#DejaVuSans-2e" x="63.623047"/>
       <use xlink:href="#DejaVuSans-30" x="95.410156"/>
      </g>
     </g>
    </g>
    <g id="xtick_3">
     <g id="line2d_3">
      <g>
       <use xlink:href="#md0b22dc468" x="176.060957" y="389.32" style="stroke: #000000; stroke-width: 0.8"/>
      </g>
     </g>
     <g id="text_3">
      <!-- 1.5 -->
      <g transform="translate(168.109395 403.918437) scale(0.1 -0.1)">
       <use xlink:href="#DejaVuSans-31"/>
       <use xlink:href="#DejaVuSans-2e" x="63.623047"/>
       <use xlink:href="#DejaVuSans-35" x="95.410156"/>
      </g>
     </g>
    </g>
    <g id="xtick_4">
     <g id="line2d_4">
      <g>
       <use xlink:href="#md0b22dc468" x="224.895462" y="389.32" style="stroke: #000000; stroke-width: 0.8"/>
      </g>
     </g>
     <g id="text_4">
      <!-- 2.0 -->
      <g transform="translate(216.943899 403.918437) scale(0.1 -0.1)">
       <defs>
        <path id="DejaVuSans-32" d="M 1228 531 
L 3431 531 
L 3431 0 
L 469 0 
L 469 531 
Q 828 903 1448 1529 
Q 2069 2156 2228 2338 
Q 2531 2678 2651 2914 
Q 2772 3150 2772 3378 
Q 2772 3750 2511 3984 
Q 2250 4219 1831 4219 
Q 1534 4219 1204 4116 
Q 875 4013 500 3803 
L 500 4441 
Q 881 4594 1212 4672 
Q 1544 4750 1819 4750 
Q 2544 4750 2975 4387 
Q 3406 4025 3406 3419 
Q 3406 3131 3298 2873 
Q 3191 2616 2906 2266 
Q 2828 2175 2409 1742 
Q 1991 1309 1228 531 
z
" transform="scale(0.015625)"/>
       </defs>
       <use xlink:href="#DejaVuSans-32"/>
       <use xlink:href="#DejaVuSans-2e" x="63.623047"/>
       <use xlink:href="#DejaVuSans-30" x="95.410156"/>
      </g>
     </g>
    </g>
    <g id="xtick_5">
     <g id="line2d_5">
      <g>
       <use xlink:href="#md0b22dc468" x="273.729966" y="389.32" style="stroke: #000000; stroke-width: 0.8"/>
      </g>
     </g>
     <g id="text_5">
      <!-- 2.5 -->
      <g transform="translate(265.778404 403.918437) scale(0.1 -0.1)">
       <use xlink:href="#DejaVuSans-32"/>
       <use xlink:href="#DejaVuSans-2e" x="63.623047"/>
       <use xlink:href="#DejaVuSans-35" x="95.410156"/>
      </g>
     </g>
    </g>
    <g id="xtick_6">
     <g id="line2d_6">
      <g>
       <use xlink:href="#md0b22dc468" x="322.564471" y="389.32" style="stroke: #000000; stroke-width: 0.8"/>
      </g>
     </g>
     <g id="text_6">
      <!-- 3.0 -->
      <g transform="translate(314.612908 403.918437) scale(0.1 -0.1)">
       <defs>
        <path id="DejaVuSans-33" d="M 2597 2516 
Q 3050 2419 3304 2112 
Q 3559 1806 3559 1356 
Q 3559 666 3084 287 
Q 2609 -91 1734 -91 
Q 1441 -91 1130 -33 
Q 819 25 488 141 
L 488 750 
Q 750 597 1062 519 
Q 1375 441 1716 441 
Q 2309 441 2620 675 
Q 2931 909 2931 1356 
Q 2931 1769 2642 2001 
Q 2353 2234 1838 2234 
L 1294 2234 
L 1294 2753 
L 1863 2753 
Q 2328 2753 2575 2939 
Q 2822 3125 2822 3475 
Q 2822 3834 2567 4026 
Q 2313 4219 1838 4219 
Q 1578 4219 1281 4162 
Q 984 4106 628 3988 
L 628 4550 
Q 988 4650 1302 4700 
Q 1616 4750 1894 4750 
Q 2613 4750 3031 4423 
Q 3450 4097 3450 3541 
Q 3450 3153 3228 2886 
Q 3006 2619 2597 2516 
z
" transform="scale(0.015625)"/>
       </defs>
       <use xlink:href="#DejaVuSans-33"/>
       <use xlink:href="#DejaVuSans-2e" x="63.623047"/>
       <use xlink:href="#DejaVuSans-30" x="95.410156"/>
      </g>
     </g>
    </g>
    <g id="xtick_7">
     <g id="line2d_7">
      <g>
       <use xlink:href="#md0b22dc468" x="371.398975" y="389.32" style="stroke: #000000; stroke-width: 0.8"/>
      </g>
     </g>
     <g id="text_7">
      <!-- 3.5 -->
      <g transform="translate(363.447412 403.918437) scale(0.1 -0.1)">
       <use xlink:href="#DejaVuSans-33"/>
       <use xlink:href="#DejaVuSans-2e" x="63.623047"/>
       <use xlink:href="#DejaVuSans-35" x="95.410156"/>
      </g>
     </g>
    </g>
    <g id="xtick_8">
     <g id="line2d_8">
      <g>
       <use xlink:href="#md0b22dc468" x="420.233479" y="389.32" style="stroke: #000000; stroke-width: 0.8"/>
      </g>
     </g>
     <g id="text_8">
      <!-- 4.0 -->
      <g transform="translate(412.281917 403.918437) scale(0.1 -0.1)">
       <defs>
        <path id="DejaVuSans-34" d="M 2419 4116 
L 825 1625 
L 2419 1625 
L 2419 4116 
z
M 2253 4666 
L 3047 4666 
L 3047 1625 
L 3713 1625 
L 3713 1100 
L 3047 1100 
L 3047 0 
L 2419 0 
L 2419 1100 
L 313 1100 
L 313 1709 
L 2253 4666 
z
" transform="scale(0.015625)"/>
       </defs>
       <use xlink:href="#DejaVuSans-34"/>
       <use xlink:href="#DejaVuSans-2e" x="63.623047"/>
       <use xlink:href="#DejaVuSans-30" x="95.410156"/>
      </g>
     </g>
    </g>
    <g id="text_9">
     <!-- Predicted Fluorescence -->
     <g transform="translate(172.272859 419.11625) scale(0.12 -0.12)">
      <defs>
       <path id="DejaVuSans-50" d="M 1259 4147 
L 1259 2394 
L 2053 2394 
Q 2494 2394 2734 2622 
Q 2975 2850 2975 3272 
Q 2975 3691 2734 3919 
Q 2494 4147 2053 4147 
L 1259 4147 
z
M 628 4666 
L 2053 4666 
Q 2838 4666 3239 4311 
Q 3641 3956 3641 3272 
Q 3641 2581 3239 2228 
Q 2838 1875 2053 1875 
L 1259 1875 
L 1259 0 
L 628 0 
L 628 4666 
z
" transform="scale(0.015625)"/>
       <path id="DejaVuSans-72" d="M 2631 2963 
Q 2534 3019 2420 3045 
Q 2306 3072 2169 3072 
Q 1681 3072 1420 2755 
Q 1159 2438 1159 1844 
L 1159 0 
L 581 0 
L 581 3500 
L 1159 3500 
L 1159 2956 
Q 1341 3275 1631 3429 
Q 1922 3584 2338 3584 
Q 2397 3584 2469 3576 
Q 2541 3569 2628 3553 
L 2631 2963 
z
" transform="scale(0.015625)"/>
       <path id="DejaVuSans-65" d="M 3597 1894 
L 3597 1613 
L 953 1613 
Q 991 1019 1311 708 
Q 1631 397 2203 397 
Q 2534 397 2845 478 
Q 3156 559 3463 722 
L 3463 178 
Q 3153 47 2828 -22 
Q 2503 -91 2169 -91 
Q 1331 -91 842 396 
Q 353 884 353 1716 
Q 353 2575 817 3079 
Q 1281 3584 2069 3584 
Q 2775 3584 3186 3129 
Q 3597 2675 3597 1894 
z
M 3022 2063 
Q 3016 2534 2758 2815 
Q 2500 3097 2075 3097 
Q 1594 3097 1305 2825 
Q 1016 2553 972 2059 
L 3022 2063 
z
" transform="scale(0.015625)"/>
       <path id="DejaVuSans-64" d="M 2906 2969 
L 2906 4863 
L 3481 4863 
L 3481 0 
L 2906 0 
L 2906 525 
Q 2725 213 2448 61 
Q 2172 -91 1784 -91 
Q 1150 -91 751 415 
Q 353 922 353 1747 
Q 353 2572 751 3078 
Q 1150 3584 1784 3584 
Q 2172 3584 2448 3432 
Q 2725 3281 2906 2969 
z
M 947 1747 
Q 947 1113 1208 752 
Q 1469 391 1925 391 
Q 2381 391 2643 752 
Q 2906 1113 2906 1747 
Q 2906 2381 2643 2742 
Q 2381 3103 1925 3103 
Q 1469 3103 1208 2742 
Q 947 2381 947 1747 
z
" transform="scale(0.015625)"/>
       <path id="DejaVuSans-69" d="M 603 3500 
L 1178 3500 
L 1178 0 
L 603 0 
L 603 3500 
z
M 603 4863 
L 1178 4863 
L 1178 4134 
L 603 4134 
L 603 4863 
z
" transform="scale(0.015625)"/>
       <path id="DejaVuSans-63" d="M 3122 3366 
L 3122 2828 
Q 2878 2963 2633 3030 
Q 2388 3097 2138 3097 
Q 1578 3097 1268 2742 
Q 959 2388 959 1747 
Q 959 1106 1268 751 
Q 1578 397 2138 397 
Q 2388 397 2633 464 
Q 2878 531 3122 666 
L 3122 134 
Q 2881 22 2623 -34 
Q 2366 -91 2075 -91 
Q 1284 -91 818 406 
Q 353 903 353 1747 
Q 353 2603 823 3093 
Q 1294 3584 2113 3584 
Q 2378 3584 2631 3529 
Q 2884 3475 3122 3366 
z
" transform="scale(0.015625)"/>
       <path id="DejaVuSans-74" d="M 1172 4494 
L 1172 3500 
L 2356 3500 
L 2356 3053 
L 1172 3053 
L 1172 1153 
Q 1172 725 1289 603 
Q 1406 481 1766 481 
L 2356 481 
L 2356 0 
L 1766 0 
Q 1100 0 847 248 
Q 594 497 594 1153 
L 594 3053 
L 172 3053 
L 172 3500 
L 594 3500 
L 594 4494 
L 1172 4494 
z
" transform="scale(0.015625)"/>
       <path id="DejaVuSans-20" transform="scale(0.015625)"/>
       <path id="DejaVuSans-46" d="M 628 4666 
L 3309 4666 
L 3309 4134 
L 1259 4134 
L 1259 2759 
L 3109 2759 
L 3109 2228 
L 1259 2228 
L 1259 0 
L 628 0 
L 628 4666 
z
" transform="scale(0.015625)"/>
       <path id="DejaVuSans-6c" d="M 603 4863 
L 1178 4863 
L 1178 0 
L 603 0 
L 603 4863 
z
" transform="scale(0.015625)"/>
       <path id="DejaVuSans-75" d="M 544 1381 
L 544 3500 
L 1119 3500 
L 1119 1403 
Q 1119 906 1312 657 
Q 1506 409 1894 409 
Q 2359 409 2629 706 
Q 2900 1003 2900 1516 
L 2900 3500 
L 3475 3500 
L 3475 0 
L 2900 0 
L 2900 538 
Q 2691 219 2414 64 
Q 2138 -91 1772 -91 
Q 1169 -91 856 284 
Q 544 659 544 1381 
z
M 1991 3584 
L 1991 3584 
z
" transform="scale(0.015625)"/>
       <path id="DejaVuSans-6f" d="M 1959 3097 
Q 1497 3097 1228 2736 
Q 959 2375 959 1747 
Q 959 1119 1226 758 
Q 1494 397 1959 397 
Q 2419 397 2687 759 
Q 2956 1122 2956 1747 
Q 2956 2369 2687 2733 
Q 2419 3097 1959 3097 
z
M 1959 3584 
Q 2709 3584 3137 3096 
Q 3566 2609 3566 1747 
Q 3566 888 3137 398 
Q 2709 -91 1959 -91 
Q 1206 -91 779 398 
Q 353 888 353 1747 
Q 353 2609 779 3096 
Q 1206 3584 1959 3584 
z
" transform="scale(0.015625)"/>
       <path id="DejaVuSans-73" d="M 2834 3397 
L 2834 2853 
Q 2591 2978 2328 3040 
Q 2066 3103 1784 3103 
Q 1356 3103 1142 2972 
Q 928 2841 928 2578 
Q 928 2378 1081 2264 
Q 1234 2150 1697 2047 
L 1894 2003 
Q 2506 1872 2764 1633 
Q 3022 1394 3022 966 
Q 3022 478 2636 193 
Q 2250 -91 1575 -91 
Q 1294 -91 989 -36 
Q 684 19 347 128 
L 347 722 
Q 666 556 975 473 
Q 1284 391 1588 391 
Q 1994 391 2212 530 
Q 2431 669 2431 922 
Q 2431 1156 2273 1281 
Q 2116 1406 1581 1522 
L 1381 1569 
Q 847 1681 609 1914 
Q 372 2147 372 2553 
Q 372 3047 722 3315 
Q 1072 3584 1716 3584 
Q 2034 3584 2315 3537 
Q 2597 3491 2834 3397 
z
" transform="scale(0.015625)"/>
       <path id="DejaVuSans-6e" d="M 3513 2113 
L 3513 0 
L 2938 0 
L 2938 2094 
Q 2938 2591 2744 2837 
Q 2550 3084 2163 3084 
Q 1697 3084 1428 2787 
Q 1159 2491 1159 1978 
L 1159 0 
L 581 0 
L 581 3500 
L 1159 3500 
L 1159 2956 
Q 1366 3272 1645 3428 
Q 1925 3584 2291 3584 
Q 2894 3584 3203 3211 
Q 3513 2838 3513 2113 
z
" transform="scale(0.015625)"/>
      </defs>
      <use xlink:href="#DejaVuSans-50"/>
      <use xlink:href="#DejaVuSans-72" x="58.552734"/>
      <use xlink:href="#DejaVuSans-65" x="97.416016"/>
      <use xlink:href="#DejaVuSans-64" x="158.939453"/>
      <use xlink:href="#DejaVuSans-69" x="222.416016"/>
      <use xlink:href="#DejaVuSans-63" x="250.199219"/>
      <use xlink:href="#DejaVuSans-74" x="305.179688"/>
      <use xlink:href="#DejaVuSans-65" x="344.388672"/>
      <use xlink:href="#DejaVuSans-64" x="405.912109"/>
      <use xlink:href="#DejaVuSans-20" x="469.388672"/>
      <use xlink:href="#DejaVuSans-46" x="501.175781"/>
      <use xlink:href="#DejaVuSans-6c" x="558.695312"/>
      <use xlink:href="#DejaVuSans-75" x="586.478516"/>
      <use xlink:href="#DejaVuSans-6f" x="649.857422"/>
      <use xlink:href="#DejaVuSans-72" x="711.039062"/>
      <use xlink:href="#DejaVuSans-65" x="749.902344"/>
      <use xlink:href="#DejaVuSans-73" x="811.425781"/>
      <use xlink:href="#DejaVuSans-63" x="863.525391"/>
      <use xlink:href="#DejaVuSans-65" x="918.505859"/>
      <use xlink:href="#DejaVuSans-6e" x="980.029297"/>
      <use xlink:href="#DejaVuSans-63" x="1043.408203"/>
      <use xlink:href="#DejaVuSans-65" x="1098.388672"/>
     </g>
    </g>
   </g>
   <g id="matplotlib.axis_2">
    <g id="ytick_1">
     <g id="line2d_9">
      <defs>
       <path id="me130a74fbf" d="M 0 0 
L -3.5 0 
" style="stroke: #000000; stroke-width: 0.8"/>
      </defs>
      <g>
       <use xlink:href="#me130a74fbf" x="54.92" y="389.32" style="stroke: #000000; stroke-width: 0.8"/>
      </g>
     </g>
     <g id="text_10">
      <!-- 0.00 -->
      <g transform="translate(25.654375 393.119219) scale(0.1 -0.1)">
       <use xlink:href="#DejaVuSans-30"/>
       <use xlink:href="#DejaVuSans-2e" x="63.623047"/>
       <use xlink:href="#DejaVuSans-30" x="95.410156"/>
       <use xlink:href="#DejaVuSans-30" x="159.033203"/>
      </g>
     </g>
    </g>
    <g id="ytick_2">
     <g id="line2d_10">
      <g>
       <use xlink:href="#me130a74fbf" x="54.92" y="338.401067" style="stroke: #000000; stroke-width: 0.8"/>
      </g>
     </g>
     <g id="text_11">
      <!-- 0.25 -->
      <g transform="translate(25.654375 342.200285) scale(0.1 -0.1)">
       <use xlink:href="#DejaVuSans-30"/>
       <use xlink:href="#DejaVuSans-2e" x="63.623047"/>
       <use xlink:href="#DejaVuSans-32" x="95.410156"/>
       <use xlink:href="#DejaVuSans-35" x="159.033203"/>
      </g>
     </g>
    </g>
    <g id="ytick_3">
     <g id="line2d_11">
      <g>
       <use xlink:href="#me130a74fbf" x="54.92" y="287.482133" style="stroke: #000000; stroke-width: 0.8"/>
      </g>
     </g>
     <g id="text_12">
      <!-- 0.50 -->
      <g transform="translate(25.654375 291.281352) scale(0.1 -0.1)">
       <use xlink:href="#DejaVuSans-30"/>
       <use xlink:href="#DejaVuSans-2e" x="63.623047"/>
       <use xlink:href="#DejaVuSans-35" x="95.410156"/>
       <use xlink:href="#DejaVuSans-30" x="159.033203"/>
      </g>
     </g>
    </g>
    <g id="ytick_4">
     <g id="line2d_12">
      <g>
       <use xlink:href="#me130a74fbf" x="54.92" y="236.5632" style="stroke: #000000; stroke-width: 0.8"/>
      </g>
     </g>
     <g id="text_13">
      <!-- 0.75 -->
      <g transform="translate(25.654375 240.362419) scale(0.1 -0.1)">
       <defs>
        <path id="DejaVuSans-37" d="M 525 4666 
L 3525 4666 
L 3525 4397 
L 1831 0 
L 1172 0 
L 2766 4134 
L 525 4134 
L 525 4666 
z
" transform="scale(0.015625)"/>
       </defs>
       <use xlink:href="#DejaVuSans-30"/>
       <use xlink:href="#DejaVuSans-2e" x="63.623047"/>
       <use xlink:href="#DejaVuSans-37" x="95.410156"/>
       <use xlink:href="#DejaVuSans-35" x="159.033203"/>
      </g>
     </g>
    </g>
    <g id="ytick_5">
     <g id="line2d_13">
      <g>
       <use xlink:href="#me130a74fbf" x="54.92" y="185.644267" style="stroke: #000000; stroke-width: 0.8"/>
      </g>
     </g>
     <g id="text_14">
      <!-- 1.00 -->
      <g transform="translate(25.654375 189.443485) scale(0.1 -0.1)">
       <use xlink:href="#DejaVuSans-31"/>
       <use xlink:href="#DejaVuSans-2e" x="63.623047"/>
       <use xlink:href="#DejaVuSans-30" x="95.410156"/>
       <use xlink:href="#DejaVuSans-30" x="159.033203"/>
      </g>
     </g>
    </g>
    <g id="ytick_6">
     <g id="line2d_14">
      <g>
       <use xlink:href="#me130a74fbf" x="54.92" y="134.725333" style="stroke: #000000; stroke-width: 0.8"/>
      </g>
     </g>
     <g id="text_15">
      <!-- 1.25 -->
      <g transform="translate(25.654375 138.524552) scale(0.1 -0.1)">
       <use xlink:href="#DejaVuSans-31"/>
       <use xlink:href="#DejaVuSans-2e" x="63.623047"/>
       <use xlink:href="#DejaVuSans-32" x="95.410156"/>
       <use xlink:href="#DejaVuSans-35" x="159.033203"/>
      </g>
     </g>
    </g>
    <g id="ytick_7">
     <g id="line2d_15">
      <g>
       <use xlink:href="#me130a74fbf" x="54.92" y="83.8064" style="stroke: #000000; stroke-width: 0.8"/>
      </g>
     </g>
     <g id="text_16">
      <!-- 1.50 -->
      <g transform="translate(25.654375 87.605619) scale(0.1 -0.1)">
       <use xlink:href="#DejaVuSans-31"/>
       <use xlink:href="#DejaVuSans-2e" x="63.623047"/>
       <use xlink:href="#DejaVuSans-35" x="95.410156"/>
       <use xlink:href="#DejaVuSans-30" x="159.033203"/>
      </g>
     </g>
    </g>
    <g id="ytick_8">
     <g id="line2d_16">
      <g>
       <use xlink:href="#me130a74fbf" x="54.92" y="32.887467" style="stroke: #000000; stroke-width: 0.8"/>
      </g>
     </g>
     <g id="text_17">
      <!-- 1.75 -->
      <g transform="translate(25.654375 36.686685) scale(0.1 -0.1)">
       <use xlink:href="#DejaVuSans-31"/>
       <use xlink:href="#DejaVuSans-2e" x="63.623047"/>
       <use xlink:href="#DejaVuSans-37" x="95.410156"/>
       <use xlink:href="#DejaVuSans-35" x="159.033203"/>
      </g>
     </g>
    </g>
    <g id="text_18">
     <!-- Probability Density -->
     <g transform="translate(19.15875 258.471875) rotate(-90) scale(0.12 -0.12)">
      <defs>
       <path id="DejaVuSans-62" d="M 3116 1747 
Q 3116 2381 2855 2742 
Q 2594 3103 2138 3103 
Q 1681 3103 1420 2742 
Q 1159 2381 1159 1747 
Q 1159 1113 1420 752 
Q 1681 391 2138 391 
Q 2594 391 2855 752 
Q 3116 1113 3116 1747 
z
M 1159 2969 
Q 1341 3281 1617 3432 
Q 1894 3584 2278 3584 
Q 2916 3584 3314 3078 
Q 3713 2572 3713 1747 
Q 3713 922 3314 415 
Q 2916 -91 2278 -91 
Q 1894 -91 1617 61 
Q 1341 213 1159 525 
L 1159 0 
L 581 0 
L 581 4863 
L 1159 4863 
L 1159 2969 
z
" transform="scale(0.015625)"/>
       <path id="DejaVuSans-61" d="M 2194 1759 
Q 1497 1759 1228 1600 
Q 959 1441 959 1056 
Q 959 750 1161 570 
Q 1363 391 1709 391 
Q 2188 391 2477 730 
Q 2766 1069 2766 1631 
L 2766 1759 
L 2194 1759 
z
M 3341 1997 
L 3341 0 
L 2766 0 
L 2766 531 
Q 2569 213 2275 61 
Q 1981 -91 1556 -91 
Q 1019 -91 701 211 
Q 384 513 384 1019 
Q 384 1609 779 1909 
Q 1175 2209 1959 2209 
L 2766 2209 
L 2766 2266 
Q 2766 2663 2505 2880 
Q 2244 3097 1772 3097 
Q 1472 3097 1187 3025 
Q 903 2953 641 2809 
L 641 3341 
Q 956 3463 1253 3523 
Q 1550 3584 1831 3584 
Q 2591 3584 2966 3190 
Q 3341 2797 3341 1997 
z
" transform="scale(0.015625)"/>
       <path id="DejaVuSans-79" d="M 2059 -325 
Q 1816 -950 1584 -1140 
Q 1353 -1331 966 -1331 
L 506 -1331 
L 506 -850 
L 844 -850 
Q 1081 -850 1212 -737 
Q 1344 -625 1503 -206 
L 1606 56 
L 191 3500 
L 800 3500 
L 1894 763 
L 2988 3500 
L 3597 3500 
L 2059 -325 
z
" transform="scale(0.015625)"/>
       <path id="DejaVuSans-44" d="M 1259 4147 
L 1259 519 
L 2022 519 
Q 2988 519 3436 956 
Q 3884 1394 3884 2338 
Q 3884 3275 3436 3711 
Q 2988 4147 2022 4147 
L 1259 4147 
z
M 628 4666 
L 1925 4666 
Q 3281 4666 3915 4102 
Q 4550 3538 4550 2338 
Q 4550 1131 3912 565 
Q 3275 0 1925 0 
L 628 0 
L 628 4666 
z
" transform="scale(0.015625)"/>
      </defs>
      <use xlink:href="#DejaVuSans-50"/>
      <use xlink:href="#DejaVuSans-72" x="58.552734"/>
      <use xlink:href="#DejaVuSans-6f" x="97.416016"/>
      <use xlink:href="#DejaVuSans-62" x="158.597656"/>
      <use xlink:href="#DejaVuSans-61" x="222.074219"/>
      <use xlink:href="#DejaVuSans-62" x="283.353516"/>
      <use xlink:href="#DejaVuSans-69" x="346.830078"/>
      <use xlink:href="#DejaVuSans-6c" x="374.613281"/>
      <use xlink:href="#DejaVuSans-69" x="402.396484"/>
      <use xlink:href="#DejaVuSans-74" x="430.179688"/>
      <use xlink:href="#DejaVuSans-79" x="469.388672"/>
      <use xlink:href="#DejaVuSans-20" x="528.568359"/>
      <use xlink:href="#DejaVuSans-44" x="560.355469"/>
      <use xlink:href="#DejaVuSans-65" x="637.357422"/>
      <use xlink:href="#DejaVuSans-6e" x="698.880859"/>
      <use xlink:href="#DejaVuSans-73" x="762.259766"/>
      <use xlink:href="#DejaVuSans-69" x="814.359375"/>
      <use xlink:href="#DejaVuSans-74" x="842.142578"/>
      <use xlink:href="#DejaVuSans-79" x="881.351562"/>
     </g>
    </g>
   </g>
   <g id="line2d_17">
    <path d="M 141.857271 389.32 
L 141.857271 14.76 
" clip-path="url(#pdd822450d4)" style="fill: none; stroke-dasharray: 11.1,4.8; stroke-dashoffset: 0; stroke: #ffa500; stroke-width: 3"/>
   </g>
   <g id="patch_80">
    <path d="M 54.92 389.32 
L 54.92 14.76 
" style="fill: none; stroke: #000000; stroke-width: 0.8; stroke-linejoin: miter; stroke-linecap: square"/>
   </g>
   <g id="patch_81">
    <path d="M 54.92 389.32 
L 428.818219 389.32 
" style="fill: none; stroke: #000000; stroke-width: 0.8; stroke-linejoin: miter; stroke-linecap: square"/>
   </g>
   <g id="legend_1">
    <g id="patch_82">
     <path d="M 182.812078 66.794375 
L 300.926141 66.794375 
Q 302.926141 66.794375 302.926141 64.794375 
L 302.926141 21.76 
Q 302.926141 19.76 300.926141 19.76 
L 182.812078 19.76 
Q 180.812078 19.76 180.812078 21.76 
L 180.812078 64.794375 
Q 180.812078 66.794375 182.812078 66.794375 
z
" style="fill: #ffffff; opacity: 0.8; stroke: #cccccc; stroke-linejoin: miter"/>
    </g>
    <g id="patch_83">
     <path d="M 184.812078 31.358438 
L 204.812078 31.358438 
L 204.812078 24.358438 
L 184.812078 24.358438 
z
" style="fill: #808080; fill-opacity: 0.4; stroke: #000000; stroke-linejoin: miter"/>
    </g>
    <g id="text_19">
     <!-- Pre-trained ESM2 -->
     <g transform="translate(212.812078 31.358438) scale(0.1 -0.1)">
      <defs>
       <path id="DejaVuSans-2d" d="M 313 2009 
L 1997 2009 
L 1997 1497 
L 313 1497 
L 313 2009 
z
" transform="scale(0.015625)"/>
       <path id="DejaVuSans-45" d="M 628 4666 
L 3578 4666 
L 3578 4134 
L 1259 4134 
L 1259 2753 
L 3481 2753 
L 3481 2222 
L 1259 2222 
L 1259 531 
L 3634 531 
L 3634 0 
L 628 0 
L 628 4666 
z
" transform="scale(0.015625)"/>
       <path id="DejaVuSans-53" d="M 3425 4513 
L 3425 3897 
Q 3066 4069 2747 4153 
Q 2428 4238 2131 4238 
Q 1616 4238 1336 4038 
Q 1056 3838 1056 3469 
Q 1056 3159 1242 3001 
Q 1428 2844 1947 2747 
L 2328 2669 
Q 3034 2534 3370 2195 
Q 3706 1856 3706 1288 
Q 3706 609 3251 259 
Q 2797 -91 1919 -91 
Q 1588 -91 1214 -16 
Q 841 59 441 206 
L 441 856 
Q 825 641 1194 531 
Q 1563 422 1919 422 
Q 2459 422 2753 634 
Q 3047 847 3047 1241 
Q 3047 1584 2836 1778 
Q 2625 1972 2144 2069 
L 1759 2144 
Q 1053 2284 737 2584 
Q 422 2884 422 3419 
Q 422 4038 858 4394 
Q 1294 4750 2059 4750 
Q 2388 4750 2728 4690 
Q 3069 4631 3425 4513 
z
" transform="scale(0.015625)"/>
       <path id="DejaVuSans-4d" d="M 628 4666 
L 1569 4666 
L 2759 1491 
L 3956 4666 
L 4897 4666 
L 4897 0 
L 4281 0 
L 4281 4097 
L 3078 897 
L 2444 897 
L 1241 4097 
L 1241 0 
L 628 0 
L 628 4666 
z
" transform="scale(0.015625)"/>
      </defs>
      <use xlink:href="#DejaVuSans-50"/>
      <use xlink:href="#DejaVuSans-72" x="58.552734"/>
      <use xlink:href="#DejaVuSans-65" x="97.416016"/>
      <use xlink:href="#DejaVuSans-2d" x="158.939453"/>
      <use xlink:href="#DejaVuSans-74" x="195.023438"/>
      <use xlink:href="#DejaVuSans-72" x="234.232422"/>
      <use xlink:href="#DejaVuSans-61" x="275.345703"/>
      <use xlink:href="#DejaVuSans-69" x="336.625"/>
      <use xlink:href="#DejaVuSans-6e" x="364.408203"/>
      <use xlink:href="#DejaVuSans-65" x="427.787109"/>
      <use xlink:href="#DejaVuSans-64" x="489.310547"/>
      <use xlink:href="#DejaVuSans-20" x="552.787109"/>
      <use xlink:href="#DejaVuSans-45" x="584.574219"/>
      <use xlink:href="#DejaVuSans-53" x="647.757812"/>
      <use xlink:href="#DejaVuSans-4d" x="711.234375"/>
      <use xlink:href="#DejaVuSans-32" x="797.513672"/>
     </g>
    </g>
    <g id="patch_84">
     <path d="M 184.812078 46.036563 
L 204.812078 46.036563 
L 204.812078 39.036563 
L 184.812078 39.036563 
z
" style="fill: #ffa500; fill-opacity: 0.6; stroke: #000000; stroke-linejoin: miter"/>
    </g>
    <g id="text_20">
     <!-- SFT ESM2 -->
     <g transform="translate(212.812078 46.036563) scale(0.1 -0.1)">
      <defs>
       <path id="DejaVuSans-54" d="M -19 4666 
L 3928 4666 
L 3928 4134 
L 2272 4134 
L 2272 0 
L 1638 0 
L 1638 4134 
L -19 4134 
L -19 4666 
z
" transform="scale(0.015625)"/>
      </defs>
      <use xlink:href="#DejaVuSans-53"/>
      <use xlink:href="#DejaVuSans-46" x="63.476562"/>
      <use xlink:href="#DejaVuSans-54" x="119.246094"/>
      <use xlink:href="#DejaVuSans-20" x="180.330078"/>
      <use xlink:href="#DejaVuSans-45" x="212.117188"/>
      <use xlink:href="#DejaVuSans-53" x="275.300781"/>
      <use xlink:href="#DejaVuSans-4d" x="338.777344"/>
      <use xlink:href="#DejaVuSans-32" x="425.056641"/>
     </g>
    </g>
    <g id="patch_85">
     <path d="M 184.812078 60.714688 
L 204.812078 60.714688 
L 204.812078 53.714688 
L 184.812078 53.714688 
z
" style="fill: #0000ff; fill-opacity: 0.6; stroke: #000000; stroke-width: 0.744521; stroke-linejoin: miter"/>
    </g>
    <g id="text_21">
     <!-- Aligned ESM2 -->
     <g transform="translate(212.812078 60.714688) scale(0.1 -0.1)">
      <defs>
       <path id="DejaVuSans-41" d="M 2188 4044 
L 1331 1722 
L 3047 1722 
L 2188 4044 
z
M 1831 4666 
L 2547 4666 
L 4325 0 
L 3669 0 
L 3244 1197 
L 1141 1197 
L 716 0 
L 50 0 
L 1831 4666 
z
" transform="scale(0.015625)"/>
       <path id="DejaVuSans-67" d="M 2906 1791 
Q 2906 2416 2648 2759 
Q 2391 3103 1925 3103 
Q 1463 3103 1205 2759 
Q 947 2416 947 1791 
Q 947 1169 1205 825 
Q 1463 481 1925 481 
Q 2391 481 2648 825 
Q 2906 1169 2906 1791 
z
M 3481 434 
Q 3481 -459 3084 -895 
Q 2688 -1331 1869 -1331 
Q 1566 -1331 1297 -1286 
Q 1028 -1241 775 -1147 
L 775 -588 
Q 1028 -725 1275 -790 
Q 1522 -856 1778 -856 
Q 2344 -856 2625 -561 
Q 2906 -266 2906 331 
L 2906 616 
Q 2728 306 2450 153 
Q 2172 0 1784 0 
Q 1141 0 747 490 
Q 353 981 353 1791 
Q 353 2603 747 3093 
Q 1141 3584 1784 3584 
Q 2172 3584 2450 3431 
Q 2728 3278 2906 2969 
L 2906 3500 
L 3481 3500 
L 3481 434 
z
" transform="scale(0.015625)"/>
      </defs>
      <use xlink:href="#DejaVuSans-41"/>
      <use xlink:href="#DejaVuSans-6c" x="68.408203"/>
      <use xlink:href="#DejaVuSans-69" x="96.191406"/>
      <use xlink:href="#DejaVuSans-67" x="123.974609"/>
      <use xlink:href="#DejaVuSans-6e" x="187.451172"/>
      <use xlink:href="#DejaVuSans-65" x="250.830078"/>
      <use xlink:href="#DejaVuSans-64" x="312.353516"/>
      <use xlink:href="#DejaVuSans-20" x="375.830078"/>
      <use xlink:href="#DejaVuSans-45" x="407.617188"/>
      <use xlink:href="#DejaVuSans-53" x="470.800781"/>
      <use xlink:href="#DejaVuSans-4d" x="534.277344"/>
      <use xlink:href="#DejaVuSans-32" x="620.556641"/>
     </g>
    </g>
   </g>
  </g>
  <g id="axes_2">
   <g id="patch_86">
    <path d="M 478.325 389.32 
L 852.223219 389.32 
L 852.223219 14.76 
L 478.325 14.76 
z
" style="fill: #ffffff"/>
   </g>
   <g id="patch_87">
    <path d="M 495.320374 389.32 
L 495.320374 14.76 
L 565.262271 14.76 
L 565.262271 389.32 
z
" clip-path="url(#pd8826d8ef0)" style="fill: #ff0000; opacity: 0.1; stroke: #ff0000; stroke-linejoin: miter"/>
   </g>
   <g id="patch_88">
    <path d="M 565.262271 389.32 
L 565.262271 14.76 
L 835.227845 14.76 
L 835.227845 389.32 
z
" clip-path="url(#pd8826d8ef0)" style="fill: #008000; opacity: 0.1; stroke: #008000; stroke-linejoin: miter"/>
   </g>
   <g id="matplotlib.axis_3">
    <g id="xtick_9">
     <g id="line2d_18">
      <g>
       <use xlink:href="#md0b22dc468" x="501.796949" y="389.32" style="stroke: #000000; stroke-width: 0.8"/>
      </g>
     </g>
     <g id="text_22">
      <!-- 0.5 -->
      <g transform="translate(493.845386 403.918437) scale(0.1 -0.1)">
       <use xlink:href="#DejaVuSans-30"/>
       <use xlink:href="#DejaVuSans-2e" x="63.623047"/>
       <use xlink:href="#DejaVuSans-35" x="95.410156"/>
      </g>
     </g>
    </g>
    <g id="xtick_10">
     <g id="line2d_19">
      <g>
       <use xlink:href="#md0b22dc468" x="550.631453" y="389.32" style="stroke: #000000; stroke-width: 0.8"/>
      </g>
     </g>
     <g id="text_23">
      <!-- 1.0 -->
      <g transform="translate(542.679891 403.918437) scale(0.1 -0.1)">
       <use xlink:href="#DejaVuSans-31"/>
       <use xlink:href="#DejaVuSans-2e" x="63.623047"/>
       <use xlink:href="#DejaVuSans-30" x="95.410156"/>
      </g>
     </g>
    </g>
    <g id="xtick_11">
     <g id="line2d_20">
      <g>
       <use xlink:href="#md0b22dc468" x="599.465957" y="389.32" style="stroke: #000000; stroke-width: 0.8"/>
      </g>
     </g>
     <g id="text_24">
      <!-- 1.5 -->
      <g transform="translate(591.514395 403.918437) scale(0.1 -0.1)">
       <use xlink:href="#DejaVuSans-31"/>
       <use xlink:href="#DejaVuSans-2e" x="63.623047"/>
       <use xlink:href="#DejaVuSans-35" x="95.410156"/>
      </g>
     </g>
    </g>
    <g id="xtick_12">
     <g id="line2d_21">
      <g>
       <use xlink:href="#md0b22dc468" x="648.300462" y="389.32" style="stroke: #000000; stroke-width: 0.8"/>
      </g>
     </g>
     <g id="text_25">
      <!-- 2.0 -->
      <g transform="translate(640.348899 403.918437) scale(0.1 -0.1)">
       <use xlink:href="#DejaVuSans-32"/>
       <use xlink:href="#DejaVuSans-2e" x="63.623047"/>
       <use xlink:href="#DejaVuSans-30" x="95.410156"/>
      </g>
     </g>
    </g>
    <g id="xtick_13">
     <g id="line2d_22">
      <g>
       <use xlink:href="#md0b22dc468" x="697.134966" y="389.32" style="stroke: #000000; stroke-width: 0.8"/>
      </g>
     </g>
     <g id="text_26">
      <!-- 2.5 -->
      <g transform="translate(689.183404 403.918437) scale(0.1 -0.1)">
       <use xlink:href="#DejaVuSans-32"/>
       <use xlink:href="#DejaVuSans-2e" x="63.623047"/>
       <use xlink:href="#DejaVuSans-35" x="95.410156"/>
      </g>
     </g>
    </g>
    <g id="xtick_14">
     <g id="line2d_23">
      <g>
       <use xlink:href="#md0b22dc468" x="745.969471" y="389.32" style="stroke: #000000; stroke-width: 0.8"/>
      </g>
     </g>
     <g id="text_27">
      <!-- 3.0 -->
      <g transform="translate(738.017908 403.918437) scale(0.1 -0.1)">
       <use xlink:href="#DejaVuSans-33"/>
       <use xlink:href="#DejaVuSans-2e" x="63.623047"/>
       <use xlink:href="#DejaVuSans-30" x="95.410156"/>
      </g>
     </g>
    </g>
    <g id="xtick_15">
     <g id="line2d_24">
      <g>
       <use xlink:href="#md0b22dc468" x="794.803975" y="389.32" style="stroke: #000000; stroke-width: 0.8"/>
      </g>
     </g>
     <g id="text_28">
      <!-- 3.5 -->
      <g transform="translate(786.852412 403.918437) scale(0.1 -0.1)">
       <use xlink:href="#DejaVuSans-33"/>
       <use xlink:href="#DejaVuSans-2e" x="63.623047"/>
       <use xlink:href="#DejaVuSans-35" x="95.410156"/>
      </g>
     </g>
    </g>
    <g id="xtick_16">
     <g id="line2d_25">
      <g>
       <use xlink:href="#md0b22dc468" x="843.638479" y="389.32" style="stroke: #000000; stroke-width: 0.8"/>
      </g>
     </g>
     <g id="text_29">
      <!-- 4.0 -->
      <g transform="translate(835.686917 403.918437) scale(0.1 -0.1)">
       <use xlink:href="#DejaVuSans-34"/>
       <use xlink:href="#DejaVuSans-2e" x="63.623047"/>
       <use xlink:href="#DejaVuSans-30" x="95.410156"/>
      </g>
     </g>
    </g>
    <g id="text_30">
     <!-- Predicted Fluorescence -->
     <g transform="translate(595.677859 419.11625) scale(0.12 -0.12)">
      <use xlink:href="#DejaVuSans-50"/>
      <use xlink:href="#DejaVuSans-72" x="58.552734"/>
      <use xlink:href="#DejaVuSans-65" x="97.416016"/>
      <use xlink:href="#DejaVuSans-64" x="158.939453"/>
      <use xlink:href="#DejaVuSans-69" x="222.416016"/>
      <use xlink:href="#DejaVuSans-63" x="250.199219"/>
      <use xlink:href="#DejaVuSans-74" x="305.179688"/>
      <use xlink:href="#DejaVuSans-65" x="344.388672"/>
      <use xlink:href="#DejaVuSans-64" x="405.912109"/>
      <use xlink:href="#DejaVuSans-20" x="469.388672"/>
      <use xlink:href="#DejaVuSans-46" x="501.175781"/>
      <use xlink:href="#DejaVuSans-6c" x="558.695312"/>
      <use xlink:href="#DejaVuSans-75" x="586.478516"/>
      <use xlink:href="#DejaVuSans-6f" x="649.857422"/>
      <use xlink:href="#DejaVuSans-72" x="711.039062"/>
      <use xlink:href="#DejaVuSans-65" x="749.902344"/>
      <use xlink:href="#DejaVuSans-73" x="811.425781"/>
      <use xlink:href="#DejaVuSans-63" x="863.525391"/>
      <use xlink:href="#DejaVuSans-65" x="918.505859"/>
      <use xlink:href="#DejaVuSans-6e" x="980.029297"/>
      <use xlink:href="#DejaVuSans-63" x="1043.408203"/>
      <use xlink:href="#DejaVuSans-65" x="1098.388672"/>
     </g>
    </g>
   </g>
   <g id="matplotlib.axis_4">
    <g id="ytick_9">
     <g id="line2d_26">
      <g>
       <use xlink:href="#me130a74fbf" x="478.325" y="389.32" style="stroke: #000000; stroke-width: 0.8"/>
      </g>
     </g>
     <g id="text_31">
      <!-- 0.0 -->
      <g transform="translate(455.421875 393.119219) scale(0.1 -0.1)">
       <use xlink:href="#DejaVuSans-30"/>
       <use xlink:href="#DejaVuSans-2e" x="63.623047"/>
       <use xlink:href="#DejaVuSans-30" x="95.410156"/>
      </g>
     </g>
    </g>
    <g id="ytick_10">
     <g id="line2d_27">
      <g>
       <use xlink:href="#me130a74fbf" x="478.325" y="314.408" style="stroke: #000000; stroke-width: 0.8"/>
      </g>
     </g>
     <g id="text_32">
      <!-- 0.2 -->
      <g transform="translate(455.421875 318.207219) scale(0.1 -0.1)">
       <use xlink:href="#DejaVuSans-30"/>
       <use xlink:href="#DejaVuSans-2e" x="63.623047"/>
       <use xlink:href="#DejaVuSans-32" x="95.410156"/>
      </g>
     </g>
    </g>
    <g id="ytick_11">
     <g id="line2d_28">
      <g>
       <use xlink:href="#me130a74fbf" x="478.325" y="239.496" style="stroke: #000000; stroke-width: 0.8"/>
      </g>
     </g>
     <g id="text_33">
      <!-- 0.4 -->
      <g transform="translate(455.421875 243.295219) scale(0.1 -0.1)">
       <use xlink:href="#DejaVuSans-30"/>
       <use xlink:href="#DejaVuSans-2e" x="63.623047"/>
       <use xlink:href="#DejaVuSans-34" x="95.410156"/>
      </g>
     </g>
    </g>
    <g id="ytick_12">
     <g id="line2d_29">
      <g>
       <use xlink:href="#me130a74fbf" x="478.325" y="164.584" style="stroke: #000000; stroke-width: 0.8"/>
      </g>
     </g>
     <g id="text_34">
      <!-- 0.6 -->
      <g transform="translate(455.421875 168.383219) scale(0.1 -0.1)">
       <defs>
        <path id="DejaVuSans-36" d="M 2113 2584 
Q 1688 2584 1439 2293 
Q 1191 2003 1191 1497 
Q 1191 994 1439 701 
Q 1688 409 2113 409 
Q 2538 409 2786 701 
Q 3034 994 3034 1497 
Q 3034 2003 2786 2293 
Q 2538 2584 2113 2584 
z
M 3366 4563 
L 3366 3988 
Q 3128 4100 2886 4159 
Q 2644 4219 2406 4219 
Q 1781 4219 1451 3797 
Q 1122 3375 1075 2522 
Q 1259 2794 1537 2939 
Q 1816 3084 2150 3084 
Q 2853 3084 3261 2657 
Q 3669 2231 3669 1497 
Q 3669 778 3244 343 
Q 2819 -91 2113 -91 
Q 1303 -91 875 529 
Q 447 1150 447 2328 
Q 447 3434 972 4092 
Q 1497 4750 2381 4750 
Q 2619 4750 2861 4703 
Q 3103 4656 3366 4563 
z
" transform="scale(0.015625)"/>
       </defs>
       <use xlink:href="#DejaVuSans-30"/>
       <use xlink:href="#DejaVuSans-2e" x="63.623047"/>
       <use xlink:href="#DejaVuSans-36" x="95.410156"/>
      </g>
     </g>
    </g>
    <g id="ytick_13">
     <g id="line2d_30">
      <g>
       <use xlink:href="#me130a74fbf" x="478.325" y="89.672" style="stroke: #000000; stroke-width: 0.8"/>
      </g>
     </g>
     <g id="text_35">
      <!-- 0.8 -->
      <g transform="translate(455.421875 93.471219) scale(0.1 -0.1)">
       <defs>
        <path id="DejaVuSans-38" d="M 2034 2216 
Q 1584 2216 1326 1975 
Q 1069 1734 1069 1313 
Q 1069 891 1326 650 
Q 1584 409 2034 409 
Q 2484 409 2743 651 
Q 3003 894 3003 1313 
Q 3003 1734 2745 1975 
Q 2488 2216 2034 2216 
z
M 1403 2484 
Q 997 2584 770 2862 
Q 544 3141 544 3541 
Q 544 4100 942 4425 
Q 1341 4750 2034 4750 
Q 2731 4750 3128 4425 
Q 3525 4100 3525 3541 
Q 3525 3141 3298 2862 
Q 3072 2584 2669 2484 
Q 3125 2378 3379 2068 
Q 3634 1759 3634 1313 
Q 3634 634 3220 271 
Q 2806 -91 2034 -91 
Q 1263 -91 848 271 
Q 434 634 434 1313 
Q 434 1759 690 2068 
Q 947 2378 1403 2484 
z
M 1172 3481 
Q 1172 3119 1398 2916 
Q 1625 2713 2034 2713 
Q 2441 2713 2670 2916 
Q 2900 3119 2900 3481 
Q 2900 3844 2670 4047 
Q 2441 4250 2034 4250 
Q 1625 4250 1398 4047 
Q 1172 3844 1172 3481 
z
" transform="scale(0.015625)"/>
       </defs>
       <use xlink:href="#DejaVuSans-30"/>
       <use xlink:href="#DejaVuSans-2e" x="63.623047"/>
       <use xlink:href="#DejaVuSans-38" x="95.410156"/>
      </g>
     </g>
    </g>
    <g id="ytick_14">
     <g id="line2d_31">
      <g>
       <use xlink:href="#me130a74fbf" x="478.325" y="14.76" style="stroke: #000000; stroke-width: 0.8"/>
      </g>
     </g>
     <g id="text_36">
      <!-- 1.0 -->
      <g transform="translate(455.421875 18.559219) scale(0.1 -0.1)">
       <use xlink:href="#DejaVuSans-31"/>
       <use xlink:href="#DejaVuSans-2e" x="63.623047"/>
       <use xlink:href="#DejaVuSans-30" x="95.410156"/>
      </g>
     </g>
    </g>
    <g id="text_37">
     <!-- Cumulative Density -->
     <g transform="translate(448.92625 261.002187) rotate(-90) scale(0.12 -0.12)">
      <defs>
       <path id="DejaVuSans-43" d="M 4122 4306 
L 4122 3641 
Q 3803 3938 3442 4084 
Q 3081 4231 2675 4231 
Q 1875 4231 1450 3742 
Q 1025 3253 1025 2328 
Q 1025 1406 1450 917 
Q 1875 428 2675 428 
Q 3081 428 3442 575 
Q 3803 722 4122 1019 
L 4122 359 
Q 3791 134 3420 21 
Q 3050 -91 2638 -91 
Q 1578 -91 968 557 
Q 359 1206 359 2328 
Q 359 3453 968 4101 
Q 1578 4750 2638 4750 
Q 3056 4750 3426 4639 
Q 3797 4528 4122 4306 
z
" transform="scale(0.015625)"/>
       <path id="DejaVuSans-6d" d="M 3328 2828 
Q 3544 3216 3844 3400 
Q 4144 3584 4550 3584 
Q 5097 3584 5394 3201 
Q 5691 2819 5691 2113 
L 5691 0 
L 5113 0 
L 5113 2094 
Q 5113 2597 4934 2840 
Q 4756 3084 4391 3084 
Q 3944 3084 3684 2787 
Q 3425 2491 3425 1978 
L 3425 0 
L 2847 0 
L 2847 2094 
Q 2847 2600 2669 2842 
Q 2491 3084 2119 3084 
Q 1678 3084 1418 2786 
Q 1159 2488 1159 1978 
L 1159 0 
L 581 0 
L 581 3500 
L 1159 3500 
L 1159 2956 
Q 1356 3278 1631 3431 
Q 1906 3584 2284 3584 
Q 2666 3584 2933 3390 
Q 3200 3197 3328 2828 
z
" transform="scale(0.015625)"/>
       <path id="DejaVuSans-76" d="M 191 3500 
L 800 3500 
L 1894 563 
L 2988 3500 
L 3597 3500 
L 2284 0 
L 1503 0 
L 191 3500 
z
" transform="scale(0.015625)"/>
      </defs>
      <use xlink:href="#DejaVuSans-43"/>
      <use xlink:href="#DejaVuSans-75" x="69.824219"/>
      <use xlink:href="#DejaVuSans-6d" x="133.203125"/>
      <use xlink:href="#DejaVuSans-75" x="230.615234"/>
      <use xlink:href="#DejaVuSans-6c" x="293.994141"/>
      <use xlink:href="#DejaVuSans-61" x="321.777344"/>
      <use xlink:href="#DejaVuSans-74" x="383.056641"/>
      <use xlink:href="#DejaVuSans-69" x="422.265625"/>
      <use xlink:href="#DejaVuSans-76" x="450.048828"/>
      <use xlink:href="#DejaVuSans-65" x="509.228516"/>
      <use xlink:href="#DejaVuSans-20" x="570.751953"/>
      <use xlink:href="#DejaVuSans-44" x="602.539062"/>
      <use xlink:href="#DejaVuSans-65" x="679.541016"/>
      <use xlink:href="#DejaVuSans-6e" x="741.064453"/>
      <use xlink:href="#DejaVuSans-73" x="804.443359"/>
      <use xlink:href="#DejaVuSans-69" x="856.542969"/>
      <use xlink:href="#DejaVuSans-74" x="884.326172"/>
      <use xlink:href="#DejaVuSans-79" x="923.535156"/>
     </g>
    </g>
   </g>
   <g id="line2d_32">
    <path d="M 500.203824 14.76 
L 500.203824 18.5056 
L 510.763462 18.5056 
L 510.763462 22.2512 
L 520.945137 22.2512 
L 520.945137 25.9968 
L 544.308111 25.9968 
L 544.308111 29.7424 
L 545.022977 29.7424 
L 545.022977 33.488 
L 553.077135 33.488 
L 553.077135 37.2336 
L 576.065796 37.2336 
L 576.065796 40.9792 
L 578.156399 40.9792 
L 578.156399 44.7248 
L 582.734529 44.7248 
L 582.734529 48.4704 
L 591.109645 48.4704 
L 591.109645 52.216 
L 598.023616 52.216 
L 598.023616 55.9616 
L 600.143257 55.9616 
L 600.143257 59.7072 
L 603.878116 59.7072 
L 603.878116 63.4528 
L 607.87088 63.4528 
L 607.87088 67.1984 
L 608.350352 67.1984 
L 608.350352 70.944 
L 621.846933 70.944 
L 621.846933 74.6896 
L 627.658109 74.6896 
L 627.658109 78.4352 
L 632.591981 78.4352 
L 632.591981 82.1808 
L 634.172851 82.1808 
L 634.172851 85.9264 
L 634.667704 85.9264 
L 634.667704 89.672 
L 640.170374 89.672 
L 640.170374 93.4176 
L 640.483793 93.4176 
L 640.483793 97.1632 
L 651.638991 97.1632 
L 651.638991 100.9088 
L 657.904025 100.9088 
L 657.904025 104.6544 
L 662.845709 104.6544 
L 662.845709 108.4 
L 667.928041 108.4 
L 667.928041 112.1456 
L 669.817569 112.1456 
L 669.817569 115.8912 
L 671.2682 115.8912 
L 671.2682 119.6368 
L 671.475261 119.6368 
L 671.475261 123.3824 
L 676.44887 123.3824 
L 676.44887 127.128 
L 676.619744 127.128 
L 676.619744 130.8736 
L 676.763093 130.8736 
L 676.763093 134.6192 
L 684.496805 134.6192 
L 684.496805 138.3648 
L 684.740564 138.3648 
L 684.740564 142.1104 
L 685.366494 142.1104 
L 685.366494 145.856 
L 688.216457 145.856 
L 688.216457 149.6016 
L 692.138234 149.6016 
L 692.138234 153.3472 
L 692.829319 153.3472 
L 692.829319 157.0928 
L 693.077525 157.0928 
L 693.077525 160.8384 
L 693.355119 160.8384 
L 693.355119 164.584 
L 695.294199 164.584 
L 695.294199 168.3296 
L 696.748789 168.3296 
L 696.748789 172.0752 
L 696.874674 172.0752 
L 696.874674 175.8208 
L 702.63596 175.8208 
L 702.63596 179.5664 
L 704.17084 179.5664 
L 704.17084 183.312 
L 706.210307 183.312 
L 706.210307 187.0576 
L 708.549722 187.0576 
L 708.549722 190.8032 
L 712.447118 190.8032 
L 712.5265 198.2944 
L 713.276592 198.2944 
L 713.276592 202.04 
L 714.369665 202.04 
L 714.369665 205.7856 
L 717.51811 205.7856 
L 717.51811 209.5312 
L 719.216482 209.5312 
L 719.216482 213.2768 
L 722.306944 213.2768 
L 722.306944 217.0224 
L 722.612621 217.0224 
L 722.612621 220.768 
L 725.15742 220.768 
L 725.15742 224.5136 
L 730.36913 224.5136 
L 730.36913 228.2592 
L 730.952121 228.2592 
L 730.952121 232.0048 
L 731.523469 232.0048 
L 731.523469 235.7504 
L 732.203004 235.7504 
L 732.203004 239.496 
L 733.19597 239.496 
L 733.19597 243.2416 
L 734.680879 243.2416 
L 734.733691 250.7328 
L 737.078649 250.7328 
L 737.078649 254.4784 
L 742.954665 254.4784 
L 742.954665 258.224 
L 743.799811 258.224 
L 743.799811 261.9696 
L 744.286397 261.9696 
L 744.286397 265.7152 
L 745.268675 265.7152 
L 745.268675 269.4608 
L 745.451308 269.4608 
L 745.451308 273.2064 
L 748.55495 273.2064 
L 748.55495 276.952 
L 749.330121 276.952 
L 749.433838 284.4432 
L 750.437469 284.4432 
L 750.437469 288.1888 
L 752.978728 288.1888 
L 752.978728 291.9344 
L 754.739554 291.9344 
L 754.739554 295.68 
L 756.629128 295.68 
L 756.629128 299.4256 
L 757.122468 299.4256 
L 757.122468 303.1712 
L 757.869742 303.1712 
L 757.869742 306.9168 
L 761.668311 306.9168 
L 761.668311 310.6624 
L 763.62963 310.6624 
L 763.62963 314.408 
L 764.451327 314.408 
L 764.451327 318.1536 
L 765.132562 318.1536 
L 765.132562 321.8992 
L 767.267409 321.8992 
L 767.267409 325.6448 
L 769.123312 325.6448 
L 769.123312 329.3904 
L 771.665922 329.3904 
L 771.665922 333.136 
L 771.809387 333.136 
L 771.809387 336.8816 
L 772.189859 336.8816 
L 772.189859 340.6272 
L 773.333253 340.6272 
L 773.333253 344.3728 
L 776.489219 344.3728 
L 776.489219 348.1184 
L 780.998667 348.1184 
L 780.998667 351.864 
L 784.204372 351.864 
L 784.204372 355.6096 
L 789.573683 355.6096 
L 789.672136 363.1008 
L 791.417965 363.1008 
L 791.417965 366.8464 
L 791.646798 366.8464 
L 791.646798 370.592 
L 794.120761 370.592 
L 794.120761 374.3376 
L 796.73777 374.3376 
L 796.73777 378.0832 
L 801.135677 378.0832 
L 801.135677 381.8288 
L 804.020429 381.8288 
L 804.020429 385.5744 
L 804.244046 385.5744 
L 804.244046 389.32 
L 804.244046 389.32 
" clip-path="url(#pd8826d8ef0)" style="fill: none; stroke: #808080; stroke-width: 1.5; stroke-linecap: square"/>
   </g>
   <g id="line2d_33">
    <path d="M 506.099843 14.76 
L 506.099843 18.5056 
L 538.557048 18.5056 
L 538.557048 22.2512 
L 598.915544 22.2512 
L 598.915544 25.9968 
L 603.643008 25.9968 
L 603.643008 29.7424 
L 628.528439 29.7424 
L 628.528439 33.488 
L 634.037861 33.488 
L 634.037861 37.2336 
L 655.643433 37.2336 
L 655.643433 40.9792 
L 658.773947 40.9792 
L 658.773947 44.7248 
L 659.063067 44.7248 
L 659.063067 48.4704 
L 659.584513 48.4704 
L 659.584513 52.216 
L 661.462887 52.216 
L 661.462887 55.9616 
L 666.692341 55.9616 
L 666.692341 59.7072 
L 677.155021 59.7072 
L 677.159259 67.1984 
L 687.756207 67.1984 
L 687.756207 70.944 
L 692.687692 70.944 
L 692.687692 74.6896 
L 693.952733 74.6896 
L 693.952733 78.4352 
L 698.809447 78.4352 
L 698.809447 82.1808 
L 699.528545 82.1808 
L 699.528545 85.9264 
L 699.65585 85.9264 
L 699.65585 89.672 
L 727.868714 89.672 
L 727.868714 93.4176 
L 729.023053 93.4176 
L 729.023053 97.1632 
L 736.587638 97.1632 
L 736.587638 100.9088 
L 736.82334 100.9088 
L 736.82334 104.6544 
L 737.251455 104.6544 
L 737.251455 108.4 
L 738.131227 108.4 
L 738.131227 112.1456 
L 739.874425 112.1456 
L 739.874425 115.8912 
L 741.267493 115.8912 
L 741.267493 119.6368 
L 745.340606 119.6368 
L 745.340606 123.3824 
L 746.565152 123.3824 
L 746.565152 127.128 
L 752.247265 127.128 
L 752.247265 130.8736 
L 757.220246 130.8736 
L 757.220246 134.6192 
L 758.941578 134.6192 
L 758.941578 138.3648 
L 759.193231 138.3648 
L 759.193231 142.1104 
L 759.529366 142.1104 
L 759.529366 145.856 
L 761.511293 145.856 
L 761.601993 153.3472 
L 762.515646 153.3472 
L 762.515646 157.0928 
L 767.688422 157.0928 
L 767.688422 160.8384 
L 769.954346 160.8384 
L 769.954346 164.584 
L 771.562299 164.584 
L 771.562299 168.3296 
L 772.030279 168.3296 
L 772.030279 172.0752 
L 773.936177 172.0752 
L 773.936177 175.8208 
L 774.989175 175.8208 
L 774.989175 179.5664 
L 777.387458 179.5664 
L 777.387458 183.312 
L 777.688733 183.312 
L 777.688733 187.0576 
L 778.144279 187.0576 
L 778.144279 190.8032 
L 779.946647 190.8032 
L 779.946647 194.5488 
L 783.645482 194.5488 
L 783.645482 198.2944 
L 785.003458 198.2944 
L 785.082957 205.7856 
L 789.10335 205.7856 
L 789.10335 209.5312 
L 789.518588 209.5312 
L 789.518588 213.2768 
L 791.368343 213.2768 
L 791.368343 217.0224 
L 791.481606 217.0224 
L 791.481606 220.768 
L 792.770912 220.768 
L 792.770912 224.5136 
L 793.861074 224.5136 
L 793.861074 228.2592 
L 794.7357 228.2592 
L 794.7357 232.0048 
L 794.952913 232.0048 
L 794.952913 235.7504 
L 795.083362 235.7504 
L 795.083362 239.496 
L 796.869825 239.496 
L 796.869825 243.2416 
L 797.288789 243.2416 
L 797.288789 246.9872 
L 798.472771 246.9872 
L 798.472771 250.7328 
L 799.689051 250.7328 
L 799.689051 254.4784 
L 800.376154 254.4784 
L 800.376154 258.224 
L 800.978449 258.224 
L 801.054292 269.4608 
L 801.565888 269.4608 
L 801.565888 273.2064 
L 803.983731 273.2064 
L 803.983731 276.952 
L 804.125264 276.952 
L 804.125264 280.6976 
L 806.392632 280.6976 
L 806.392632 284.4432 
L 806.900967 284.4432 
L 806.900967 288.1888 
L 807.293525 288.1888 
L 807.293525 291.9344 
L 807.876003 291.9344 
L 807.876003 295.68 
L 808.368109 295.68 
L 808.368109 299.4256 
L 812.957381 299.4256 
L 812.957381 303.1712 
L 813.384751 303.1712 
L 813.384751 306.9168 
L 814.087153 306.9168 
L 814.0872 314.408 
L 814.573879 314.408 
L 814.573879 318.1536 
L 815.785874 318.1536 
L 815.785874 321.8992 
L 816.729311 321.8992 
L 816.775022 329.3904 
L 817.124243 329.3904 
L 817.149229 336.8816 
L 818.135675 336.8816 
L 818.158961 344.3728 
L 819.948266 344.3728 
L 819.948266 348.1184 
L 820.23564 348.1184 
L 820.24549 355.6096 
L 823.019657 355.6096 
L 823.019657 359.3552 
L 823.637041 359.3552 
L 823.637041 363.1008 
L 823.933101 363.1008 
L 823.933101 366.8464 
L 825.766183 366.8464 
L 825.766183 370.592 
L 828.108928 370.592 
L 828.108928 374.3376 
L 829.023374 374.3376 
L 829.023374 378.0832 
L 829.564636 378.0832 
L 829.564636 381.8288 
L 829.945783 381.8288 
L 829.945783 385.5744 
L 830.344395 385.5744 
L 830.344395 389.32 
L 830.344395 389.32 
" clip-path="url(#pd8826d8ef0)" style="fill: none; stroke: #ffa500; stroke-width: 1.5; stroke-linecap: square"/>
   </g>
   <g id="line2d_34">
    <path d="M 608.736843 14.76 
L 608.736843 18.5056 
L 618.634731 18.5056 
L 618.634731 22.2512 
L 629.546775 22.2512 
L 629.546775 25.9968 
L 645.442092 25.9968 
L 645.442092 29.7424 
L 651.57365 29.7424 
L 651.57365 33.488 
L 660.476767 33.488 
L 660.476767 37.2336 
L 661.340495 37.2336 
L 661.340495 40.9792 
L 677.496349 40.9792 
L 677.496349 44.7248 
L 696.797783 44.7248 
L 696.797783 48.4704 
L 697.771212 48.4704 
L 697.771212 52.216 
L 700.373668 52.216 
L 700.373668 55.9616 
L 701.998619 55.9616 
L 701.998619 59.7072 
L 704.303827 59.7072 
L 704.303827 63.4528 
L 707.749123 63.4528 
L 707.749123 67.1984 
L 710.769447 67.1984 
L 710.769447 70.944 
L 715.594375 70.944 
L 715.594375 74.6896 
L 717.008983 74.6896 
L 717.008983 78.4352 
L 721.665855 78.4352 
L 721.665855 82.1808 
L 734.007677 82.1808 
L 734.007677 85.9264 
L 737.832863 85.9264 
L 737.832863 89.672 
L 740.293319 89.672 
L 740.381038 97.1632 
L 741.838213 97.1632 
L 741.838213 100.9088 
L 743.51097 100.9088 
L 743.51097 104.6544 
L 744.174624 104.6544 
L 744.174624 108.4 
L 745.113217 108.4 
L 745.173808 115.8912 
L 746.247041 115.8912 
L 746.247041 119.6368 
L 746.412093 119.6368 
L 746.412093 123.3824 
L 749.828817 123.3824 
L 749.828817 127.128 
L 750.050268 127.128 
L 750.050268 130.8736 
L 754.156912 130.8736 
L 754.176496 138.3648 
L 754.480892 138.3648 
L 754.480892 142.1104 
L 757.438576 142.1104 
L 757.438576 145.856 
L 758.459602 145.856 
L 758.459602 149.6016 
L 761.939152 149.6016 
L 761.939152 153.3472 
L 764.449697 153.3472 
L 764.449697 157.0928 
L 769.190841 157.0928 
L 769.190841 160.8384 
L 770.432899 160.8384 
L 770.432899 164.584 
L 772.315045 164.584 
L 772.315045 168.3296 
L 773.833253 168.3296 
L 773.833253 172.0752 
L 774.148221 172.0752 
L 774.148221 175.8208 
L 775.226693 175.8208 
L 775.226693 179.5664 
L 775.487614 179.5664 
L 775.487614 183.312 
L 775.849154 183.312 
L 775.849154 187.0576 
L 777.093727 187.0576 
L 777.093727 190.8032 
L 777.483164 190.8032 
L 777.483164 194.5488 
L 777.987448 194.5488 
L 777.987448 198.2944 
L 778.747669 198.2944 
L 778.747669 202.04 
L 780.527845 202.04 
L 780.527845 205.7856 
L 783.595673 205.7856 
L 783.595673 209.5312 
L 784.04938 209.5312 
L 784.04938 213.2768 
L 784.541322 213.2768 
L 784.541322 217.0224 
L 787.794577 217.0224 
L 787.794577 220.768 
L 788.217407 220.768 
L 788.217407 224.5136 
L 789.169296 224.5136 
L 789.169296 228.2592 
L 790.86534 228.2592 
L 790.86534 232.0048 
L 792.448352 232.0048 
L 792.448352 235.7504 
L 794.261036 235.7504 
L 794.261036 239.496 
L 795.324326 239.496 
L 795.324326 243.2416 
L 797.376996 243.2416 
L 797.376996 246.9872 
L 797.666396 246.9872 
L 797.666396 250.7328 
L 798.989606 250.7328 
L 799.001435 258.224 
L 799.551733 258.224 
L 799.551733 261.9696 
L 802.166203 261.9696 
L 802.166203 265.7152 
L 802.688371 265.7152 
L 802.688371 269.4608 
L 803.108289 269.4608 
L 803.108289 273.2064 
L 803.905839 273.2064 
L 803.905839 276.952 
L 804.104772 276.952 
L 804.104772 280.6976 
L 804.736524 280.6976 
L 804.804752 288.1888 
L 804.876706 288.1888 
L 804.876706 291.9344 
L 805.525737 291.9344 
L 805.525737 295.68 
L 806.089074 295.68 
L 806.174301 303.1712 
L 806.946981 303.1712 
L 806.946981 306.9168 
L 807.15623 306.9168 
L 807.15623 310.6624 
L 807.271729 310.6624 
L 807.271729 314.408 
L 808.236612 314.408 
L 808.326683 321.8992 
L 808.462999 321.8992 
L 808.462999 325.6448 
L 808.774637 325.6448 
L 808.787515 333.136 
L 811.338321 333.136 
L 811.338321 336.8816 
L 811.837925 336.8816 
L 811.837925 340.6272 
L 813.475473 340.6272 
L 813.475473 344.3728 
L 813.800385 344.3728 
L 813.800385 348.1184 
L 813.913508 348.1184 
L 813.913508 351.864 
L 816.173122 351.864 
L 816.173122 355.6096 
L 822.71051 355.6096 
L 822.71051 359.3552 
L 823.553956 359.3552 
L 823.637041 366.8464 
L 823.727601 366.8464 
L 823.727601 370.592 
L 824.604067 370.592 
L 824.604067 374.3376 
L 824.904364 374.3376 
L 824.904364 378.0832 
L 826.873461 378.0832 
L 826.873461 381.8288 
L 828.953329 381.8288 
L 828.953329 385.5744 
L 831.798007 385.5744 
L 831.798007 389.32 
L 831.798007 389.32 
" clip-path="url(#pd8826d8ef0)" style="fill: none; stroke: #0000ff; stroke-width: 1.5; stroke-linecap: square"/>
   </g>
   <g id="line2d_35">
    <path d="M 565.262271 389.32 
L 565.262271 14.76 
" clip-path="url(#pd8826d8ef0)" style="fill: none; stroke-dasharray: 11.1,4.8; stroke-dashoffset: 0; stroke: #ffa500; stroke-width: 3"/>
   </g>
   <g id="patch_89">
    <path d="M 478.325 389.32 
L 478.325 14.76 
" style="fill: none; stroke: #000000; stroke-width: 0.8; stroke-linejoin: miter; stroke-linecap: square"/>
   </g>
   <g id="patch_90">
    <path d="M 478.325 389.32 
L 852.223219 389.32 
" style="fill: none; stroke: #000000; stroke-width: 0.8; stroke-linejoin: miter; stroke-linecap: square"/>
   </g>
   <g id="legend_2">
    <g id="patch_91">
     <path d="M 485.325 384.32 
L 690.595312 384.32 
Q 692.595312 384.32 692.595312 382.32 
L 692.595312 339.285625 
Q 692.595312 337.285625 690.595312 337.285625 
L 485.325 337.285625 
Q 483.325 337.285625 483.325 339.285625 
L 483.325 382.32 
Q 483.325 384.32 485.325 384.32 
z
" style="fill: #ffffff; opacity: 0.8; stroke: #000000; stroke-linejoin: miter"/>
    </g>
    <g id="patch_92">
     <path d="M 487.325 348.884063 
L 507.325 348.884063 
L 507.325 341.884063 
L 487.325 341.884063 
z
" style="fill: #ff0000; opacity: 0.8; stroke: #ff0000; stroke-linejoin: miter"/>
    </g>
    <g id="text_38">
     <!-- Less than WT Log Fluorescence -->
     <g transform="translate(515.325 348.884063) scale(0.1 -0.1)">
      <defs>
       <path id="DejaVuSans-4c" d="M 628 4666 
L 1259 4666 
L 1259 531 
L 3531 531 
L 3531 0 
L 628 0 
L 628 4666 
z
" transform="scale(0.015625)"/>
       <path id="DejaVuSans-68" d="M 3513 2113 
L 3513 0 
L 2938 0 
L 2938 2094 
Q 2938 2591 2744 2837 
Q 2550 3084 2163 3084 
Q 1697 3084 1428 2787 
Q 1159 2491 1159 1978 
L 1159 0 
L 581 0 
L 581 4863 
L 1159 4863 
L 1159 2956 
Q 1366 3272 1645 3428 
Q 1925 3584 2291 3584 
Q 2894 3584 3203 3211 
Q 3513 2838 3513 2113 
z
" transform="scale(0.015625)"/>
       <path id="DejaVuSans-57" d="M 213 4666 
L 850 4666 
L 1831 722 
L 2809 4666 
L 3519 4666 
L 4500 722 
L 5478 4666 
L 6119 4666 
L 4947 0 
L 4153 0 
L 3169 4050 
L 2175 0 
L 1381 0 
L 213 4666 
z
" transform="scale(0.015625)"/>
      </defs>
      <use xlink:href="#DejaVuSans-4c"/>
      <use xlink:href="#DejaVuSans-65" x="53.962891"/>
      <use xlink:href="#DejaVuSans-73" x="115.486328"/>
      <use xlink:href="#DejaVuSans-73" x="167.585938"/>
      <use xlink:href="#DejaVuSans-20" x="219.685547"/>
      <use xlink:href="#DejaVuSans-74" x="251.472656"/>
      <use xlink:href="#DejaVuSans-68" x="290.681641"/>
      <use xlink:href="#DejaVuSans-61" x="354.060547"/>
      <use xlink:href="#DejaVuSans-6e" x="415.339844"/>
      <use xlink:href="#DejaVuSans-20" x="478.71875"/>
      <use xlink:href="#DejaVuSans-57" x="510.505859"/>
      <use xlink:href="#DejaVuSans-54" x="609.382812"/>
      <use xlink:href="#DejaVuSans-20" x="670.466797"/>
      <use xlink:href="#DejaVuSans-4c" x="702.253906"/>
      <use xlink:href="#DejaVuSans-6f" x="756.216797"/>
      <use xlink:href="#DejaVuSans-67" x="817.398438"/>
      <use xlink:href="#DejaVuSans-20" x="880.875"/>
      <use xlink:href="#DejaVuSans-46" x="912.662109"/>
      <use xlink:href="#DejaVuSans-6c" x="970.181641"/>
      <use xlink:href="#DejaVuSans-75" x="997.964844"/>
      <use xlink:href="#DejaVuSans-6f" x="1061.34375"/>
      <use xlink:href="#DejaVuSans-72" x="1122.525391"/>
      <use xlink:href="#DejaVuSans-65" x="1161.388672"/>
      <use xlink:href="#DejaVuSans-73" x="1222.912109"/>
      <use xlink:href="#DejaVuSans-63" x="1275.011719"/>
      <use xlink:href="#DejaVuSans-65" x="1329.992188"/>
      <use xlink:href="#DejaVuSans-6e" x="1391.515625"/>
      <use xlink:href="#DejaVuSans-63" x="1454.894531"/>
      <use xlink:href="#DejaVuSans-65" x="1509.875"/>
     </g>
    </g>
    <g id="patch_93">
     <path d="M 487.325 363.562187 
L 507.325 363.562187 
L 507.325 356.562187 
L 487.325 356.562187 
z
" style="fill: #ffa500; opacity: 0.8; stroke: #ffa500; stroke-linejoin: miter"/>
    </g>
    <g id="text_39">
     <!-- Mean WT Log Fluorescence -->
     <g transform="translate(515.325 363.562187) scale(0.1 -0.1)">
      <use xlink:href="#DejaVuSans-4d"/>
      <use xlink:href="#DejaVuSans-65" x="86.279297"/>
      <use xlink:href="#DejaVuSans-61" x="147.802734"/>
      <use xlink:href="#DejaVuSans-6e" x="209.082031"/>
      <use xlink:href="#DejaVuSans-20" x="272.460938"/>
      <use xlink:href="#DejaVuSans-57" x="304.248047"/>
      <use xlink:href="#DejaVuSans-54" x="403.125"/>
      <use xlink:href="#DejaVuSans-20" x="464.208984"/>
      <use xlink:href="#DejaVuSans-4c" x="495.996094"/>
      <use xlink:href="#DejaVuSans-6f" x="549.958984"/>
      <use xlink:href="#DejaVuSans-67" x="611.140625"/>
      <use xlink:href="#DejaVuSans-20" x="674.617188"/>
      <use xlink:href="#DejaVuSans-46" x="706.404297"/>
      <use xlink:href="#DejaVuSans-6c" x="763.923828"/>
      <use xlink:href="#DejaVuSans-75" x="791.707031"/>
      <use xlink:href="#DejaVuSans-6f" x="855.085938"/>
      <use xlink:href="#DejaVuSans-72" x="916.267578"/>
      <use xlink:href="#DejaVuSans-65" x="955.130859"/>
      <use xlink:href="#DejaVuSans-73" x="1016.654297"/>
      <use xlink:href="#DejaVuSans-63" x="1068.753906"/>
      <use xlink:href="#DejaVuSans-65" x="1123.734375"/>
      <use xlink:href="#DejaVuSans-6e" x="1185.257812"/>
      <use xlink:href="#DejaVuSans-63" x="1248.636719"/>
      <use xlink:href="#DejaVuSans-65" x="1303.617188"/>
     </g>
    </g>
    <g id="patch_94">
     <path d="M 487.325 378.240313 
L 507.325 378.240313 
L 507.325 371.240313 
L 487.325 371.240313 
z
" style="fill: #008000; opacity: 0.8; stroke: #008000; stroke-linejoin: miter"/>
    </g>
    <g id="text_40">
     <!-- Greater than WT Log Fluorescence -->
     <g transform="translate(515.325 378.240313) scale(0.1 -0.1)">
      <defs>
       <path id="DejaVuSans-47" d="M 3809 666 
L 3809 1919 
L 2778 1919 
L 2778 2438 
L 4434 2438 
L 4434 434 
Q 4069 175 3628 42 
Q 3188 -91 2688 -91 
Q 1594 -91 976 548 
Q 359 1188 359 2328 
Q 359 3472 976 4111 
Q 1594 4750 2688 4750 
Q 3144 4750 3555 4637 
Q 3966 4525 4313 4306 
L 4313 3634 
Q 3963 3931 3569 4081 
Q 3175 4231 2741 4231 
Q 1884 4231 1454 3753 
Q 1025 3275 1025 2328 
Q 1025 1384 1454 906 
Q 1884 428 2741 428 
Q 3075 428 3337 486 
Q 3600 544 3809 666 
z
" transform="scale(0.015625)"/>
      </defs>
      <use xlink:href="#DejaVuSans-47"/>
      <use xlink:href="#DejaVuSans-72" x="77.490234"/>
      <use xlink:href="#DejaVuSans-65" x="116.353516"/>
      <use xlink:href="#DejaVuSans-61" x="177.876953"/>
      <use xlink:href="#DejaVuSans-74" x="239.15625"/>
      <use xlink:href="#DejaVuSans-65" x="278.365234"/>
      <use xlink:href="#DejaVuSans-72" x="339.888672"/>
      <use xlink:href="#DejaVuSans-20" x="381.001953"/>
      <use xlink:href="#DejaVuSans-74" x="412.789062"/>
      <use xlink:href="#DejaVuSans-68" x="451.998047"/>
      <use xlink:href="#DejaVuSans-61" x="515.376953"/>
      <use xlink:href="#DejaVuSans-6e" x="576.65625"/>
      <use xlink:href="#DejaVuSans-20" x="640.035156"/>
      <use xlink:href="#DejaVuSans-57" x="671.822266"/>
      <use xlink:href="#DejaVuSans-54" x="770.699219"/>
      <use xlink:href="#DejaVuSans-20" x="831.783203"/>
      <use xlink:href="#DejaVuSans-4c" x="863.570312"/>
      <use xlink:href="#DejaVuSans-6f" x="917.533203"/>
      <use xlink:href="#DejaVuSans-67" x="978.714844"/>
      <use xlink:href="#DejaVuSans-20" x="1042.191406"/>
      <use xlink:href="#DejaVuSans-46" x="1073.978516"/>
      <use xlink:href="#DejaVuSans-6c" x="1131.498047"/>
      <use xlink:href="#DejaVuSans-75" x="1159.28125"/>
      <use xlink:href="#DejaVuSans-6f" x="1222.660156"/>
      <use xlink:href="#DejaVuSans-72" x="1283.841797"/>
      <use xlink:href="#DejaVuSans-65" x="1322.705078"/>
      <use xlink:href="#DejaVuSans-73" x="1384.228516"/>
      <use xlink:href="#DejaVuSans-63" x="1436.328125"/>
      <use xlink:href="#DejaVuSans-65" x="1491.308594"/>
      <use xlink:href="#DejaVuSans-6e" x="1552.832031"/>
      <use xlink:href="#DejaVuSans-63" x="1616.210938"/>
      <use xlink:href="#DejaVuSans-65" x="1671.191406"/>
     </g>
    </g>
   </g>
  </g>
 </g>
 <defs>
  <clipPath id="pdd822450d4">
   <rect x="54.92" y="14.76" width="373.898219" height="374.56"/>
  </clipPath>
  <clipPath id="pd8826d8ef0">
   <rect x="478.325" y="14.76" width="373.898219" height="374.56"/>
  </clipPath>
 </defs>
</svg>
