<?xml version="1.0" encoding="utf-8" standalone="no"?>
<!DOCTYPE svg PUBLIC "-//W3C//DTD SVG 1.1//EN"
  "http://www.w3.org/Graphics/SVG/1.1/DTD/svg11.dtd">
<svg xmlns:xlink="http://www.w3.org/1999/xlink" width="432pt" height="432pt" viewBox="0 0 432 432" xmlns="http://www.w3.org/2000/svg" version="1.1">
 <metadata>
  <rdf:RDF xmlns:dc="http://purl.org/dc/elements/1.1/" xmlns:cc="http://creativecommons.org/ns#" xmlns:rdf="http://www.w3.org/1999/02/22-rdf-syntax-ns#">
   <cc:Work>
    <dc:type rdf:resource="http://purl.org/dc/dcmitype/StillImage"/>
    <dc:date>2025-04-02T22:51:45.521412</dc:date>
    <dc:format>image/svg+xml</dc:format>
    <dc:creator>
     <cc:Agent>
      <dc:title>Matplotlib v3.8.0, https://matplotlib.org/</dc:title>
     </cc:Agent>
    </dc:creator>
   </cc:Work>
  </rdf:RDF>
 </metadata>
 <defs>
  <style type="text/css">*{stroke-linejoin: round; stroke-linecap: butt}</style>
 </defs>
 <g id="figure_1">
  <g id="patch_1">
   <path d="M 0 432 
L 432 432 
L 432 0 
L 0 0 
z
" style="fill: #ffffff"/>
  </g>
  <g id="axes_1">
   <g id="patch_2">
    <path d="M 57.8 389.32 
L 421.2 389.32 
L 421.2 10.8 
L 57.8 10.8 
z
" style="fill: #ffffff"/>
   </g>
   <g id="PolyCollection_1">
    <defs>
     <path id="ma0dac131e6" d="M 74.318182 -42.70685 
L 74.318182 -42.68 
L 75.262986 -42.68 
L 76.207791 -42.68 
L 77.152595 -42.68 
L 78.0974 -42.68 
L 79.042204 -42.68 
L 79.987009 -42.68 
L 80.931813 -42.68 
L 81.876618 -42.68 
L 82.821422 -42.68 
L 83.766227 -42.68 
L 84.711031 -42.68 
L 85.655836 -42.68 
L 86.60064 -42.68 
L 87.545445 -42.68 
L 88.490249 -42.68 
L 89.435054 -42.68 
L 90.379858 -42.68 
L 91.324663 -42.68 
L 92.269467 -42.68 
L 93.214272 -42.68 
L 94.159076 -42.68 
L 95.103881 -42.68 
L 96.048685 -42.68 
L 96.99349 -42.68 
L 97.938294 -42.68 
L 98.883099 -42.68 
L 99.827903 -42.68 
L 100.772708 -42.68 
L 101.717512 -42.68 
L 102.662317 -42.68 
L 103.607121 -42.68 
L 104.551926 -42.68 
L 105.49673 -42.68 
L 106.441535 -42.68 
L 107.386339 -42.68 
L 108.331144 -42.68 
L 109.275948 -42.68 
L 110.220753 -42.68 
L 111.165557 -42.68 
L 112.110362 -42.68 
L 113.055166 -42.68 
L 113.999971 -42.68 
L 114.944775 -42.68 
L 115.88958 -42.68 
L 116.834384 -42.68 
L 117.779189 -42.68 
L 118.723993 -42.68 
L 119.668798 -42.68 
L 120.613602 -42.68 
L 121.558407 -42.68 
L 122.503211 -42.68 
L 123.448016 -42.68 
L 124.39282 -42.68 
L 125.337625 -42.68 
L 126.282429 -42.68 
L 127.227234 -42.68 
L 128.172038 -42.68 
L 129.116843 -42.68 
L 130.061647 -42.68 
L 131.006452 -42.68 
L 131.951256 -42.68 
L 132.896061 -42.68 
L 133.840865 -42.68 
L 134.785669 -42.68 
L 135.730474 -42.68 
L 136.675278 -42.68 
L 137.620083 -42.68 
L 138.564887 -42.68 
L 139.509692 -42.68 
L 140.454496 -42.68 
L 141.399301 -42.68 
L 142.344105 -42.68 
L 143.28891 -42.68 
L 144.233714 -42.68 
L 145.178519 -42.68 
L 146.123323 -42.68 
L 147.068128 -42.68 
L 148.012932 -42.68 
L 148.957737 -42.68 
L 149.902541 -42.68 
L 150.847346 -42.68 
L 151.79215 -42.68 
L 152.736955 -42.68 
L 153.681759 -42.68 
L 154.626564 -42.68 
L 155.571368 -42.68 
L 156.516173 -42.68 
L 157.460977 -42.68 
L 158.405782 -42.68 
L 159.350586 -42.68 
L 160.295391 -42.68 
L 161.240195 -42.68 
L 162.185 -42.68 
L 163.129804 -42.68 
L 164.074609 -42.68 
L 165.019413 -42.68 
L 165.964218 -42.68 
L 166.909022 -42.68 
L 167.853827 -42.68 
L 168.798631 -42.68 
L 169.743436 -42.68 
L 170.68824 -42.68 
L 171.633045 -42.68 
L 172.577849 -42.68 
L 173.522654 -42.68 
L 174.467458 -42.68 
L 175.412263 -42.68 
L 176.357067 -42.68 
L 177.301872 -42.68 
L 178.246676 -42.68 
L 179.191481 -42.68 
L 180.136285 -42.68 
L 181.08109 -42.68 
L 182.025894 -42.68 
L 182.970699 -42.68 
L 183.915503 -42.68 
L 184.860308 -42.68 
L 185.805112 -42.68 
L 186.749917 -42.68 
L 187.694721 -42.68 
L 188.639526 -42.68 
L 189.58433 -42.68 
L 190.529135 -42.68 
L 191.473939 -42.68 
L 192.418744 -42.68 
L 193.363548 -42.68 
L 194.308353 -42.68 
L 195.253157 -42.68 
L 196.197962 -42.68 
L 197.142766 -42.68 
L 198.087571 -42.68 
L 199.032375 -42.68 
L 199.97718 -42.68 
L 200.921984 -42.68 
L 201.866789 -42.68 
L 202.811593 -42.68 
L 203.756398 -42.68 
L 204.701202 -42.68 
L 205.646007 -42.68 
L 206.590811 -42.68 
L 207.535616 -42.68 
L 208.48042 -42.68 
L 209.425225 -42.68 
L 210.370029 -42.68 
L 211.314834 -42.68 
L 212.259638 -42.68 
L 213.204443 -42.68 
L 214.149247 -42.68 
L 215.094052 -42.68 
L 216.038856 -42.68 
L 216.983661 -42.68 
L 217.928465 -42.68 
L 218.87327 -42.68 
L 219.818074 -42.68 
L 220.762879 -42.68 
L 221.707683 -42.68 
L 222.652488 -42.68 
L 223.597292 -42.68 
L 224.542097 -42.68 
L 225.486901 -42.68 
L 226.431706 -42.68 
L 227.37651 -42.68 
L 228.321315 -42.68 
L 229.266119 -42.68 
L 230.210923 -42.68 
L 231.155728 -42.68 
L 232.100532 -42.68 
L 233.045337 -42.68 
L 233.990141 -42.68 
L 234.934946 -42.68 
L 235.87975 -42.68 
L 236.824555 -42.68 
L 237.769359 -42.68 
L 238.714164 -42.68 
L 239.658968 -42.68 
L 240.603773 -42.68 
L 241.548577 -42.68 
L 242.493382 -42.68 
L 243.438186 -42.68 
L 244.382991 -42.68 
L 245.327795 -42.68 
L 246.2726 -42.68 
L 247.217404 -42.68 
L 248.162209 -42.68 
L 249.107013 -42.68 
L 250.051818 -42.68 
L 250.996622 -42.68 
L 251.941427 -42.68 
L 252.886231 -42.68 
L 253.831036 -42.68 
L 254.77584 -42.68 
L 255.720645 -42.68 
L 256.665449 -42.68 
L 257.610254 -42.68 
L 258.555058 -42.68 
L 259.499863 -42.68 
L 260.444667 -42.68 
L 261.389472 -42.68 
L 262.334276 -42.68 
L 262.334276 -42.705491 
L 262.334276 -42.705491 
L 261.389472 -42.719018 
L 260.444667 -42.738537 
L 259.499863 -42.76608 
L 258.555058 -42.804088 
L 257.610254 -42.855371 
L 256.665449 -42.923026 
L 255.720645 -43.010285 
L 254.77584 -43.120315 
L 253.831036 -43.255965 
L 252.886231 -43.419498 
L 251.941427 -43.61234 
L 250.996622 -43.834887 
L 250.051818 -44.086435 
L 249.107013 -44.36526 
L 248.162209 -44.668881 
L 247.217404 -44.994495 
L 246.2726 -45.339564 
L 245.327795 -45.702456 
L 244.382991 -46.083064 
L 243.438186 -46.483263 
L 242.493382 -46.907106 
L 241.548577 -47.360655 
L 240.603773 -47.851412 
L 239.658968 -48.387364 
L 238.714164 -48.975722 
L 237.769359 -49.621511 
L 236.824555 -50.326189 
L 235.87975 -51.08652 
L 234.934946 -51.893879 
L 233.990141 -52.734148 
L 233.045337 -53.588269 
L 232.100532 -54.433428 
L 231.155728 -55.244771 
L 230.210923 -55.99745 
L 229.266119 -56.668765 
L 228.321315 -57.240142 
L 227.37651 -57.698714 
L 226.431706 -58.038329 
L 225.486901 -58.259897 
L 224.542097 -58.371061 
L 223.597292 -58.385275 
L 222.652488 -58.320444 
L 221.707683 -58.197286 
L 220.762879 -58.037637 
L 219.818074 -57.862851 
L 218.87327 -57.692454 
L 217.928465 -57.543155 
L 216.983661 -57.428265 
L 216.038856 -57.357557 
L 215.094052 -57.33754 
L 214.149247 -57.372108 
L 213.204443 -57.463476 
L 212.259638 -57.613296 
L 211.314834 -57.823818 
L 210.370029 -58.098946 
L 209.425225 -58.445045 
L 208.48042 -58.871382 
L 207.535616 -59.390121 
L 206.590811 -60.015863 
L 205.646007 -60.764795 
L 204.701202 -61.653546 
L 203.756398 -62.697931 
L 202.811593 -63.91173 
L 201.866789 -65.305656 
L 200.921984 -66.886616 
L 199.97718 -68.657299 
L 199.032375 -70.616065 
L 198.087571 -72.757078 
L 197.142766 -75.070583 
L 196.197962 -77.543245 
L 195.253157 -80.158498 
L 194.308353 -82.896894 
L 193.363548 -85.736479 
L 192.418744 -88.653272 
L 191.473939 -91.621896 
L 190.529135 -94.616424 
L 189.58433 -97.611432 
L 188.639526 -100.583201 
L 187.694721 -103.510952 
L 186.749917 -106.377962 
L 185.805112 -109.172393 
L 184.860308 -111.887696 
L 183.915503 -114.522507 
L 182.970699 -117.080035 
L 182.025894 -119.567044 
L 181.08109 -121.992581 
L 180.136285 -124.366672 
L 179.191481 -126.699219 
L 178.246676 -128.999279 
L 177.301872 -131.274854 
L 176.357067 -133.533233 
L 175.412263 -135.781821 
L 174.467458 -138.029344 
L 173.522654 -140.287234 
L 172.577849 -142.571012 
L 171.633045 -144.901487 
L 170.68824 -147.305617 
L 169.743436 -149.816928 
L 168.798631 -152.475422 
L 167.853827 -155.326929 
L 166.909022 -158.421905 
L 165.964218 -161.813666 
L 165.019413 -165.556118 
L 164.074609 -169.701048 
L 163.129804 -174.295097 
L 162.185 -179.376588 
L 161.240195 -184.972439 
L 160.295391 -191.095395 
L 159.350586 -197.741846 
L 158.405782 -204.890452 
L 157.460977 -212.501735 
L 156.516173 -220.51873 
L 155.571368 -228.868683 
L 154.626564 -237.465677 
L 153.681759 -246.214026 
L 152.736955 -255.012197 
L 151.79215 -263.757013 
L 150.847346 -272.347885 
L 149.902541 -280.69085 
L 148.957737 -288.70222 
L 148.012932 -296.311662 
L 147.068128 -303.464591 
L 146.123323 -310.123736 
L 145.178519 -316.269805 
L 144.233714 -321.901186 
L 143.28891 -327.032681 
L 142.344105 -331.693361 
L 141.399301 -335.923676 
L 140.454496 -339.772108 
L 139.509692 -343.291668 
L 138.564887 -346.536627 
L 137.620083 -349.559834 
L 136.675278 -352.410874 
L 135.730474 -355.13521 
L 134.785669 -357.774227 
L 133.840865 -360.36594 
L 132.896061 -362.945932 
L 131.951256 -365.548029 
L 131.006452 -368.204225 
L 130.061647 -370.943507 
L 129.116843 -373.789423 
L 128.172038 -376.75655 
L 127.227234 -379.846245 
L 126.282429 -383.042298 
L 125.337625 -386.3072 
L 124.39282 -389.579682 
L 123.448016 -392.774035 
L 122.503211 -395.781436 
L 121.558407 -398.473179 
L 120.613602 -400.70544 
L 119.668798 -402.324999 
L 118.723993 -403.175238 
L 117.779189 -403.101846 
L 116.834384 -401.957811 
L 115.88958 -399.607568 
L 114.944775 -395.930406 
L 113.999971 -390.823484 
L 113.055166 -384.204864 
L 112.110362 -376.01694 
L 111.165557 -366.230463 
L 110.220753 -354.849082 
L 109.275948 -341.914033 
L 108.331144 -327.508319 
L 107.386339 -311.759561 
L 106.441535 -294.840712 
L 105.49673 -276.967932 
L 104.551926 -258.395247 
L 103.607121 -239.405991 
L 102.662317 -220.301489 
L 101.717512 -201.387777 
L 100.772708 -182.961496 
L 99.827903 -165.296179 
L 98.883099 -148.630147 
L 97.938294 -133.157012 
L 96.99349 -119.019484 
L 96.048685 -106.306808 
L 95.103881 -95.055738 
L 94.159076 -85.25465 
L 93.214272 -76.850125 
L 92.269467 -69.755162 
L 91.324663 -63.8582 
L 90.379858 -59.032114 
L 89.435054 -55.142548 
L 88.490249 -52.055096 
L 87.545445 -49.641031 
L 86.60064 -47.781489 
L 85.655836 -46.370151 
L 84.711031 -45.31459 
L 83.766227 -44.536518 
L 82.821422 -43.971198 
L 81.876618 -43.566293 
L 80.931813 -43.28038 
L 79.987009 -43.081331 
L 79.042204 -42.944701 
L 78.0974 -42.852235 
L 77.152595 -42.790541 
L 76.207791 -42.749963 
L 75.262986 -42.723657 
L 74.318182 -42.70685 
z
" style="stroke: #bdbdbd; stroke-width: 2.5"/>
    </defs>
    <g clip-path="url(#pd0b8c0c1d1)">
     <use xlink:href="#ma0dac131e6" x="0" y="432" style="fill: #bdbdbd; fill-opacity: 0.5; stroke: #bdbdbd; stroke-width: 2.5"/>
    </g>
   </g>
   <g id="PolyCollection_2">
    <defs>
     <path id="m42e31f47c6" d="M 82.924871 -42.693907 
L 82.924871 -42.68 
L 84.535048 -42.68 
L 86.145226 -42.68 
L 87.755403 -42.68 
L 89.36558 -42.68 
L 90.975758 -42.68 
L 92.585935 -42.68 
L 94.196113 -42.68 
L 95.80629 -42.68 
L 97.416468 -42.68 
L 99.026645 -42.68 
L 100.636823 -42.68 
L 102.247 -42.68 
L 103.857177 -42.68 
L 105.467355 -42.68 
L 107.077532 -42.68 
L 108.68771 -42.68 
L 110.297887 -42.68 
L 111.908065 -42.68 
L 113.518242 -42.68 
L 115.12842 -42.68 
L 116.738597 -42.68 
L 118.348774 -42.68 
L 119.958952 -42.68 
L 121.569129 -42.68 
L 123.179307 -42.68 
L 124.789484 -42.68 
L 126.399662 -42.68 
L 128.009839 -42.68 
L 129.620017 -42.68 
L 131.230194 -42.68 
L 132.840371 -42.68 
L 134.450549 -42.68 
L 136.060726 -42.68 
L 137.670904 -42.68 
L 139.281081 -42.68 
L 140.891259 -42.68 
L 142.501436 -42.68 
L 144.111614 -42.68 
L 145.721791 -42.68 
L 147.331968 -42.68 
L 148.942146 -42.68 
L 150.552323 -42.68 
L 152.162501 -42.68 
L 153.772678 -42.68 
L 155.382856 -42.68 
L 156.993033 -42.68 
L 158.603211 -42.68 
L 160.213388 -42.68 
L 161.823565 -42.68 
L 163.433743 -42.68 
L 165.04392 -42.68 
L 166.654098 -42.68 
L 168.264275 -42.68 
L 169.874453 -42.68 
L 171.48463 -42.68 
L 173.094808 -42.68 
L 174.704985 -42.68 
L 176.315162 -42.68 
L 177.92534 -42.68 
L 179.535517 -42.68 
L 181.145695 -42.68 
L 182.755872 -42.68 
L 184.36605 -42.68 
L 185.976227 -42.68 
L 187.586405 -42.68 
L 189.196582 -42.68 
L 190.806759 -42.68 
L 192.416937 -42.68 
L 194.027114 -42.68 
L 195.637292 -42.68 
L 197.247469 -42.68 
L 198.857647 -42.68 
L 200.467824 -42.68 
L 202.078002 -42.68 
L 203.688179 -42.68 
L 205.298356 -42.68 
L 206.908534 -42.68 
L 208.518711 -42.68 
L 210.128889 -42.68 
L 211.739066 -42.68 
L 213.349244 -42.68 
L 214.959421 -42.68 
L 216.569599 -42.68 
L 218.179776 -42.68 
L 219.789953 -42.68 
L 221.400131 -42.68 
L 223.010308 -42.68 
L 224.620486 -42.68 
L 226.230663 -42.68 
L 227.840841 -42.68 
L 229.451018 -42.68 
L 231.061196 -42.68 
L 232.671373 -42.68 
L 234.28155 -42.68 
L 235.891728 -42.68 
L 237.501905 -42.68 
L 239.112083 -42.68 
L 240.72226 -42.68 
L 242.332438 -42.68 
L 243.942615 -42.68 
L 245.552793 -42.68 
L 247.16297 -42.68 
L 248.773147 -42.68 
L 250.383325 -42.68 
L 251.993502 -42.68 
L 253.60368 -42.68 
L 255.213857 -42.68 
L 256.824035 -42.68 
L 258.434212 -42.68 
L 260.04439 -42.68 
L 261.654567 -42.68 
L 263.264744 -42.68 
L 264.874922 -42.68 
L 266.485099 -42.68 
L 268.095277 -42.68 
L 269.705454 -42.68 
L 271.315632 -42.68 
L 272.925809 -42.68 
L 274.535987 -42.68 
L 276.146164 -42.68 
L 277.756341 -42.68 
L 279.366519 -42.68 
L 280.976696 -42.68 
L 282.586874 -42.68 
L 284.197051 -42.68 
L 285.807229 -42.68 
L 287.417406 -42.68 
L 289.027584 -42.68 
L 290.637761 -42.68 
L 292.247938 -42.68 
L 293.858116 -42.68 
L 295.468293 -42.68 
L 297.078471 -42.68 
L 298.688648 -42.68 
L 300.298826 -42.68 
L 301.909003 -42.68 
L 303.519181 -42.68 
L 305.129358 -42.68 
L 306.739535 -42.68 
L 308.349713 -42.68 
L 309.95989 -42.68 
L 311.570068 -42.68 
L 313.180245 -42.68 
L 314.790423 -42.68 
L 316.4006 -42.68 
L 318.010778 -42.68 
L 319.620955 -42.68 
L 321.231132 -42.68 
L 322.84131 -42.68 
L 324.451487 -42.68 
L 326.061665 -42.68 
L 327.671842 -42.68 
L 329.28202 -42.68 
L 330.892197 -42.68 
L 332.502374 -42.68 
L 334.112552 -42.68 
L 335.722729 -42.68 
L 337.332907 -42.68 
L 338.943084 -42.68 
L 340.553262 -42.68 
L 342.163439 -42.68 
L 343.773617 -42.68 
L 345.383794 -42.68 
L 346.993971 -42.68 
L 348.604149 -42.68 
L 350.214326 -42.68 
L 351.824504 -42.68 
L 353.434681 -42.68 
L 355.044859 -42.68 
L 356.655036 -42.68 
L 358.265214 -42.68 
L 359.875391 -42.68 
L 361.485568 -42.68 
L 363.095746 -42.68 
L 364.705923 -42.68 
L 366.316101 -42.68 
L 367.926278 -42.68 
L 369.536456 -42.68 
L 371.146633 -42.68 
L 372.756811 -42.68 
L 374.366988 -42.68 
L 375.977165 -42.68 
L 377.587343 -42.68 
L 379.19752 -42.68 
L 380.807698 -42.68 
L 382.417875 -42.68 
L 384.028053 -42.68 
L 385.63823 -42.68 
L 387.248408 -42.68 
L 388.858585 -42.68 
L 390.468762 -42.68 
L 392.07894 -42.68 
L 393.689117 -42.68 
L 395.299295 -42.68 
L 396.909472 -42.68 
L 398.51965 -42.68 
L 400.129827 -42.68 
L 401.740005 -42.68 
L 403.350182 -42.68 
L 403.350182 -42.693232 
L 403.350182 -42.693232 
L 401.740005 -42.700496 
L 400.129827 -42.711102 
L 398.51965 -42.72624 
L 396.909472 -42.74736 
L 395.299295 -42.776159 
L 393.689117 -42.814535 
L 392.07894 -42.864507 
L 390.468762 -42.928091 
L 388.858585 -43.007144 
L 387.248408 -43.103176 
L 385.63823 -43.217176 
L 384.028053 -43.349441 
L 382.417875 -43.499475 
L 380.807698 -43.66596 
L 379.19752 -43.846832 
L 377.587343 -44.039466 
L 375.977165 -44.240964 
L 374.366988 -44.448514 
L 372.756811 -44.659788 
L 371.146633 -44.873323 
L 369.536456 -45.088846 
L 367.926278 -45.307488 
L 366.316101 -45.531883 
L 364.705923 -45.766134 
L 363.095746 -46.015658 
L 361.485568 -46.286951 
L 359.875391 -46.587288 
L 358.265214 -46.924384 
L 356.655036 -47.306048 
L 355.044859 -47.739821 
L 353.434681 -48.232609 
L 351.824504 -48.790302 
L 350.214326 -49.417405 
L 348.604149 -50.116683 
L 346.993971 -50.888891 
L 345.383794 -51.732611 
L 343.773617 -52.644276 
L 342.163439 -53.618393 
L 340.553262 -54.64799 
L 338.943084 -55.725255 
L 337.332907 -56.842292 
L 335.722729 -57.991916 
L 334.112552 -59.168371 
L 332.502374 -60.36788 
L 330.892197 -61.588956 
L 329.28202 -62.832446 
L 327.671842 -64.101326 
L 326.061665 -65.400277 
L 324.451487 -66.735132 
L 322.84131 -68.112258 
L 321.231132 -69.537922 
L 319.620955 -71.0177 
L 318.010778 -72.555924 
L 316.4006 -74.155198 
L 314.790423 -75.815965 
L 313.180245 -77.536171 
L 311.570068 -79.311066 
L 309.95989 -81.133234 
L 308.349713 -82.992933 
L 306.739535 -84.878843 
L 305.129358 -86.779256 
L 303.519181 -88.683677 
L 301.909003 -90.584728 
L 300.298826 -92.480118 
L 298.688648 -94.374405 
L 297.078471 -96.280225 
L 295.468293 -98.218689 
L 293.858116 -100.218763 
L 292.247938 -102.315569 
L 290.637761 -104.547733 
L 289.027584 -106.954099 
L 287.417406 -109.570224 
L 285.807229 -112.425176 
L 284.197051 -115.539098 
L 282.586874 -118.921918 
L 280.976696 -122.573352 
L 279.366519 -126.484172 
L 277.756341 -130.638446 
L 276.146164 -135.016306 
L 274.535987 -139.596716 
L 272.925809 -144.359719 
L 271.315632 -149.287795 
L 269.705454 -154.366126 
L 268.095277 -159.581838 
L 266.485099 -164.922491 
L 264.874922 -170.374256 
L 263.264744 -175.920263 
L 261.654567 -181.539549 
L 260.04439 -187.206887 
L 258.434212 -192.893515 
L 256.824035 -198.568596 
L 255.213857 -204.200998 
L 253.60368 -209.760906 
L 251.993502 -215.220796 
L 250.383325 -220.555403 
L 248.773147 -225.740576 
L 247.16297 -230.75111 
L 245.552793 -235.557964 
L 243.942615 -240.125381 
L 242.332438 -244.408548 
L 240.72226 -248.352369 
L 239.112083 -251.891792 
L 237.501905 -254.953877 
L 235.891728 -257.461553 
L 234.28155 -259.338733 
L 232.671373 -260.516264 
L 231.061196 -260.938037 
L 229.451018 -260.566564 
L 227.840841 -259.38737 
L 226.230663 -257.411672 
L 224.620486 -254.677013 
L 223.010308 -251.245729 
L 221.400131 -247.201349 
L 219.789953 -242.643237 
L 218.179776 -237.679968 
L 216.569599 -232.422078 
L 214.959421 -226.974893 
L 213.349244 -221.432178 
L 211.739066 -215.871288 
L 210.128889 -210.350335 
L 208.518711 -204.907701 
L 206.908534 -199.563887 
L 205.298356 -194.325423 
L 203.688179 -189.190223 
L 202.078002 -184.15356 
L 200.467824 -179.213729 
L 198.857647 -174.376508 
L 197.247469 -169.657713 
L 195.637292 -165.08347 
L 194.027114 -160.688238 
L 192.416937 -156.510948 
L 190.806759 -152.589999 
L 189.196582 -148.957953 
L 187.586405 -145.636832 
L 185.976227 -142.634728 
L 184.36605 -139.944172 
L 182.755872 -137.542385 
L 181.145695 -135.393209 
L 179.535517 -133.45027 
L 177.92534 -131.6608 
L 176.315162 -129.969552 
L 174.704985 -128.322326 
L 173.094808 -126.668819 
L 171.48463 -124.964686 
L 169.874453 -123.172884 
L 168.264275 -121.264457 
L 166.654098 -119.218951 
L 165.04392 -117.024644 
L 163.433743 -114.678638 
L 161.823565 -112.186826 
L 160.213388 -109.563621 
L 158.603211 -106.83133 
L 156.993033 -104.019055 
L 155.382856 -101.161049 
L 153.772678 -98.294586 
L 152.162501 -95.457445 
L 150.552323 -92.685237 
L 148.942146 -90.008834 
L 147.331968 -87.452165 
L 145.721791 -85.03061 
L 144.111614 -82.750183 
L 142.501436 -80.607549 
L 140.891259 -78.590882 
L 139.281081 -76.681461 
L 137.670904 -74.855816 
L 136.060726 -73.088217 
L 134.450549 -71.353259 
L 132.840371 -69.628301 
L 131.230194 -67.895549 
L 129.620017 -66.143595 
L 128.009839 -64.368308 
L 126.399662 -62.573008 
L 124.789484 -60.767952 
L 123.179307 -58.969211 
L 121.569129 -57.19708 
L 119.958952 -55.474196 
L 118.348774 -53.823581 
L 116.738597 -52.266783 
L 115.12842 -50.822303 
L 113.518242 -49.504423 
L 111.908065 -48.322497 
L 110.297887 -47.280732 
L 108.68771 -46.378399 
L 107.077532 -45.610404 
L 105.467355 -44.968099 
L 103.857177 -44.440238 
L 102.247 -44.013947 
L 100.636823 -43.675641 
L 99.026645 -43.411797 
L 97.416468 -43.209579 
L 95.80629 -43.057268 
L 94.196113 -42.944529 
L 92.585935 -42.862525 
L 90.975758 -42.803913 
L 89.36558 -42.762751 
L 87.755403 -42.73435 
L 86.145226 -42.715101 
L 84.535048 -42.702286 
L 82.924871 -42.693907 
z
" style="stroke: #92c5de; stroke-width: 2.5"/>
    </defs>
    <g clip-path="url(#pd0b8c0c1d1)">
     <use xlink:href="#m42e31f47c6" x="0" y="432" style="fill: #92c5de; fill-opacity: 0.5; stroke: #92c5de; stroke-width: 2.5"/>
    </g>
   </g>
   <g id="PolyCollection_3">
    <defs>
     <path id="m42d950387a" d="M 74.807573 -42.695015 
L 74.807573 -42.68 
L 76.465233 -42.68 
L 78.122892 -42.68 
L 79.780552 -42.68 
L 81.438211 -42.68 
L 83.095871 -42.68 
L 84.75353 -42.68 
L 86.41119 -42.68 
L 88.068849 -42.68 
L 89.726509 -42.68 
L 91.384168 -42.68 
L 93.041828 -42.68 
L 94.699487 -42.68 
L 96.357147 -42.68 
L 98.014807 -42.68 
L 99.672466 -42.68 
L 101.330126 -42.68 
L 102.987785 -42.68 
L 104.645445 -42.68 
L 106.303104 -42.68 
L 107.960764 -42.68 
L 109.618423 -42.68 
L 111.276083 -42.68 
L 112.933742 -42.68 
L 114.591402 -42.68 
L 116.249061 -42.68 
L 117.906721 -42.68 
L 119.56438 -42.68 
L 121.22204 -42.68 
L 122.879699 -42.68 
L 124.537359 -42.68 
L 126.195018 -42.68 
L 127.852678 -42.68 
L 129.510337 -42.68 
L 131.167997 -42.68 
L 132.825656 -42.68 
L 134.483316 -42.68 
L 136.140976 -42.68 
L 137.798635 -42.68 
L 139.456295 -42.68 
L 141.113954 -42.68 
L 142.771614 -42.68 
L 144.429273 -42.68 
L 146.086933 -42.68 
L 147.744592 -42.68 
L 149.402252 -42.68 
L 151.059911 -42.68 
L 152.717571 -42.68 
L 154.37523 -42.68 
L 156.03289 -42.68 
L 157.690549 -42.68 
L 159.348209 -42.68 
L 161.005868 -42.68 
L 162.663528 -42.68 
L 164.321187 -42.68 
L 165.978847 -42.68 
L 167.636506 -42.68 
L 169.294166 -42.68 
L 170.951825 -42.68 
L 172.609485 -42.68 
L 174.267145 -42.68 
L 175.924804 -42.68 
L 177.582464 -42.68 
L 179.240123 -42.68 
L 180.897783 -42.68 
L 182.555442 -42.68 
L 184.213102 -42.68 
L 185.870761 -42.68 
L 187.528421 -42.68 
L 189.18608 -42.68 
L 190.84374 -42.68 
L 192.501399 -42.68 
L 194.159059 -42.68 
L 195.816718 -42.68 
L 197.474378 -42.68 
L 199.132037 -42.68 
L 200.789697 -42.68 
L 202.447356 -42.68 
L 204.105016 -42.68 
L 205.762675 -42.68 
L 207.420335 -42.68 
L 209.077995 -42.68 
L 210.735654 -42.68 
L 212.393314 -42.68 
L 214.050973 -42.68 
L 215.708633 -42.68 
L 217.366292 -42.68 
L 219.023952 -42.68 
L 220.681611 -42.68 
L 222.339271 -42.68 
L 223.99693 -42.68 
L 225.65459 -42.68 
L 227.312249 -42.68 
L 228.969909 -42.68 
L 230.627568 -42.68 
L 232.285228 -42.68 
L 233.942887 -42.68 
L 235.600547 -42.68 
L 237.258206 -42.68 
L 238.915866 -42.68 
L 240.573525 -42.68 
L 242.231185 -42.68 
L 243.888844 -42.68 
L 245.546504 -42.68 
L 247.204164 -42.68 
L 248.861823 -42.68 
L 250.519483 -42.68 
L 252.177142 -42.68 
L 253.834802 -42.68 
L 255.492461 -42.68 
L 257.150121 -42.68 
L 258.80778 -42.68 
L 260.46544 -42.68 
L 262.123099 -42.68 
L 263.780759 -42.68 
L 265.438418 -42.68 
L 267.096078 -42.68 
L 268.753737 -42.68 
L 270.411397 -42.68 
L 272.069056 -42.68 
L 273.726716 -42.68 
L 275.384375 -42.68 
L 277.042035 -42.68 
L 278.699694 -42.68 
L 280.357354 -42.68 
L 282.015014 -42.68 
L 283.672673 -42.68 
L 285.330333 -42.68 
L 286.987992 -42.68 
L 288.645652 -42.68 
L 290.303311 -42.68 
L 291.960971 -42.68 
L 293.61863 -42.68 
L 295.27629 -42.68 
L 296.933949 -42.68 
L 298.591609 -42.68 
L 300.249268 -42.68 
L 301.906928 -42.68 
L 303.564587 -42.68 
L 305.222247 -42.68 
L 306.879906 -42.68 
L 308.537566 -42.68 
L 310.195225 -42.68 
L 311.852885 -42.68 
L 313.510544 -42.68 
L 315.168204 -42.68 
L 316.825863 -42.68 
L 318.483523 -42.68 
L 320.141183 -42.68 
L 321.798842 -42.68 
L 323.456502 -42.68 
L 325.114161 -42.68 
L 326.771821 -42.68 
L 328.42948 -42.68 
L 330.08714 -42.68 
L 331.744799 -42.68 
L 333.402459 -42.68 
L 335.060118 -42.68 
L 336.717778 -42.68 
L 338.375437 -42.68 
L 340.033097 -42.68 
L 341.690756 -42.68 
L 343.348416 -42.68 
L 345.006075 -42.68 
L 346.663735 -42.68 
L 348.321394 -42.68 
L 349.979054 -42.68 
L 351.636713 -42.68 
L 353.294373 -42.68 
L 354.952033 -42.68 
L 356.609692 -42.68 
L 358.267352 -42.68 
L 359.925011 -42.68 
L 361.582671 -42.68 
L 363.24033 -42.68 
L 364.89799 -42.68 
L 366.555649 -42.68 
L 368.213309 -42.68 
L 369.870968 -42.68 
L 371.528628 -42.68 
L 373.186287 -42.68 
L 374.843947 -42.68 
L 376.501606 -42.68 
L 378.159266 -42.68 
L 379.816925 -42.68 
L 381.474585 -42.68 
L 383.132244 -42.68 
L 384.789904 -42.68 
L 386.447563 -42.68 
L 388.105223 -42.68 
L 389.762882 -42.68 
L 391.420542 -42.68 
L 393.078202 -42.68 
L 394.735861 -42.68 
L 396.393521 -42.68 
L 398.05118 -42.68 
L 399.70884 -42.68 
L 401.366499 -42.68 
L 403.024159 -42.68 
L 404.681818 -42.68 
L 404.681818 -42.688838 
L 404.681818 -42.688838 
L 403.024159 -42.693777 
L 401.366499 -42.701026 
L 399.70884 -42.711423 
L 398.05118 -42.725998 
L 396.393521 -42.745979 
L 394.735861 -42.772771 
L 393.078202 -42.807928 
L 391.420542 -42.853106 
L 389.762882 -42.910003 
L 388.105223 -42.980295 
L 386.447563 -43.065587 
L 384.789904 -43.167366 
L 383.132244 -43.286997 
L 381.474585 -43.42573 
L 379.816925 -43.584734 
L 378.159266 -43.765141 
L 376.501606 -43.968074 
L 374.843947 -44.194646 
L 373.186287 -44.445915 
L 371.528628 -44.722782 
L 369.870968 -45.025845 
L 368.213309 -45.355231 
L 366.555649 -45.710428 
L 364.89799 -46.090166 
L 363.24033 -46.492366 
L 361.582671 -46.914174 
L 359.925011 -47.352094 
L 358.267352 -47.802188 
L 356.609692 -48.260322 
L 354.952033 -48.722431 
L 353.294373 -49.184765 
L 351.636713 -49.644127 
L 349.979054 -50.098087 
L 348.321394 -50.545212 
L 346.663735 -50.985319 
L 345.006075 -51.419794 
L 343.348416 -51.851945 
L 341.690756 -52.28739 
L 340.033097 -52.734394 
L 338.375437 -53.204104 
L 336.717778 -53.710562 
L 335.060118 -54.270453 
L 333.402459 -54.902508 
L 331.744799 -55.626596 
L 330.08714 -56.462532 
L 328.42948 -57.428738 
L 326.771821 -58.540893 
L 325.114161 -59.810752 
L 323.456502 -61.245295 
L 321.798842 -62.846313 
L 320.141183 -64.610493 
L 318.483523 -66.529956 
L 316.825863 -68.593144 
L 315.168204 -70.785859 
L 313.510544 -73.092272 
L 311.852885 -75.495698 
L 310.195225 -77.979025 
L 308.537566 -80.52478 
L 306.879906 -83.1149 
L 305.222247 -85.730424 
L 303.564587 -88.351331 
L 301.906928 -90.956791 
L 300.249268 -93.526019 
L 298.591609 -96.039824 
L 296.933949 -98.482777 
L 295.27629 -100.845803 
L 293.61863 -103.12884 
L 291.960971 -105.343168 
L 290.303311 -107.512999 
L 288.645652 -109.675973 
L 286.987992 -111.882356 
L 285.330333 -114.192885 
L 283.672673 -116.675393 
L 282.015014 -119.40052 
L 280.357354 -122.436914 
L 278.699694 -125.846427 
L 277.042035 -129.679794 
L 275.384375 -133.97321 
L 273.726716 -138.746108 
L 272.069056 -144.000252 
L 270.411397 -149.720078 
L 268.753737 -155.874048 
L 267.096078 -162.416628 
L 265.438418 -169.290482 
L 263.780759 -176.428464 
L 262.123099 -183.75512 
L 260.46544 -191.187596 
L 258.80778 -198.636022 
L 257.150121 -206.003642 
L 255.492461 -213.1871 
L 253.834802 -220.077283 
L 252.177142 -226.561128 
L 250.519483 -232.524605 
L 248.861823 -237.856908 
L 247.204164 -242.455663 
L 245.546504 -246.232741 
L 243.888844 -249.120124 
L 242.231185 -251.075183 
L 240.573525 -252.084732 
L 238.915866 -252.167331 
L 237.258206 -251.373465 
L 235.600547 -249.783458 
L 233.942887 -247.503226 
L 232.285228 -244.658245 
L 230.627568 -241.386262 
L 228.969909 -237.829464 
L 227.312249 -234.126784 
L 225.65459 -230.406998 
L 223.99693 -226.783071 
L 222.339271 -223.347977 
L 220.681611 -220.172036 
L 219.023952 -217.301565 
L 217.366292 -214.758593 
L 215.708633 -212.541355 
L 214.050973 -210.62538 
L 212.393314 -208.965116 
L 210.735654 -207.4962 
L 209.077995 -206.13852 
L 207.420335 -204.800268 
L 205.762675 -203.383028 
L 204.105016 -201.78778 
L 202.447356 -199.921466 
L 200.789697 -197.703578 
L 199.132037 -195.072063 
L 197.474378 -191.987892 
L 195.816718 -188.437713 
L 194.159059 -184.434281 
L 192.501399 -180.014641 
L 190.84374 -175.236362 
L 189.18608 -170.172367 
L 187.528421 -164.905083 
L 185.870761 -159.52064 
L 184.213102 -154.103786 
L 182.555442 -148.733973 
L 180.897783 -143.482821 
L 179.240123 -138.412892 
L 177.582464 -133.577499 
L 175.924804 -129.021087 
L 174.267145 -124.779715 
L 172.609485 -120.881216 
L 170.951825 -117.344768 
L 169.294166 -114.179841 
L 167.636506 -111.384721 
L 165.978847 -108.944995 
L 164.321187 -106.832524 
L 162.663528 -105.005385 
L 161.005868 -103.409183 
L 159.348209 -101.979878 
L 157.690549 -100.647997 
L 156.03289 -99.343811 
L 154.37523 -98.002851 
L 152.717571 -96.570992 
L 151.059911 -95.008418 
L 149.402252 -93.291914 
L 147.744592 -91.415204 
L 146.086933 -89.387405 
L 144.429273 -87.229934 
L 142.771614 -84.972446 
L 141.113954 -82.648483 
L 139.456295 -80.291478 
L 137.798635 -77.931643 
L 136.140976 -75.594019 
L 134.483316 -73.297763 
L 132.825656 -71.05649 
L 131.167997 -68.879381 
L 129.510337 -66.772644 
L 127.852678 -64.74098 
L 126.195018 -62.788742 
L 124.537359 -60.920631 
L 122.879699 -59.141887 
L 121.22204 -57.458035 
L 119.56438 -55.874357 
L 117.906721 -54.395257 
L 116.249061 -53.023693 
L 114.591402 -51.760802 
L 112.933742 -50.605783 
L 111.276083 -49.556025 
L 109.618423 -48.607447 
L 107.960764 -47.754939 
L 106.303104 -46.992829 
L 104.645445 -46.315273 
L 102.987785 -45.716547 
L 101.330126 -45.191175 
L 99.672466 -44.733954 
L 98.014807 -44.339876 
L 96.357147 -44.004009 
L 94.699487 -43.721386 
L 93.041828 -43.486935 
L 91.384168 -43.295462 
L 89.726509 -43.141702 
L 88.068849 -43.020422 
L 86.41119 -42.926546 
L 84.75353 -42.855292 
L 83.095871 -42.802293 
L 81.438211 -42.763682 
L 79.780552 -42.736142 
L 78.122892 -42.716918 
L 76.465233 -42.703788 
L 74.807573 -42.695015 
z
" style="stroke: #2166ac; stroke-width: 2.5"/>
    </defs>
    <g clip-path="url(#pd0b8c0c1d1)">
     <use xlink:href="#m42d950387a" x="0" y="432" style="fill: #2166ac; fill-opacity: 0.5; stroke: #2166ac; stroke-width: 2.5"/>
    </g>
   </g>
   <g id="matplotlib.axis_1">
    <g id="xtick_1">
     <g id="line2d_1">
      <defs>
       <path id="m00d6639959" d="M 0 0 
L 0 3.5 
" style="stroke: #000000; stroke-width: 0.8"/>
      </defs>
      <g>
       <use xlink:href="#m00d6639959" x="66.995419" y="389.32" style="stroke: #000000; stroke-width: 0.8"/>
      </g>
     </g>
     <g id="text_1">
      <!-- −5.0 -->
      <g transform="translate(54.854013 403.918437) scale(0.1 -0.1)">
       <defs>
        <path id="DejaVuSans-2212" d="M 678 2272 
L 4684 2272 
L 4684 1741 
L 678 1741 
L 678 2272 
z
" transform="scale(0.015625)"/>
        <path id="DejaVuSans-35" d="M 691 4666 
L 3169 4666 
L 3169 4134 
L 1269 4134 
L 1269 2991 
Q 1406 3038 1543 3061 
Q 1681 3084 1819 3084 
Q 2600 3084 3056 2656 
Q 3513 2228 3513 1497 
Q 3513 744 3044 326 
Q 2575 -91 1722 -91 
Q 1428 -91 1123 -41 
Q 819 9 494 109 
L 494 744 
Q 775 591 1075 516 
Q 1375 441 1709 441 
Q 2250 441 2565 725 
Q 2881 1009 2881 1497 
Q 2881 1984 2565 2268 
Q 2250 2553 1709 2553 
Q 1456 2553 1204 2497 
Q 953 2441 691 2322 
L 691 4666 
z
" transform="scale(0.015625)"/>
        <path id="DejaVuSans-2e" d="M 684 794 
L 1344 794 
L 1344 0 
L 684 0 
L 684 794 
z
" transform="scale(0.015625)"/>
        <path id="DejaVuSans-30" d="M 2034 4250 
Q 1547 4250 1301 3770 
Q 1056 3291 1056 2328 
Q 1056 1369 1301 889 
Q 1547 409 2034 409 
Q 2525 409 2770 889 
Q 3016 1369 3016 2328 
Q 3016 3291 2770 3770 
Q 2525 4250 2034 4250 
z
M 2034 4750 
Q 2819 4750 3233 4129 
Q 3647 3509 3647 2328 
Q 3647 1150 3233 529 
Q 2819 -91 2034 -91 
Q 1250 -91 836 529 
Q 422 1150 422 2328 
Q 422 3509 836 4129 
Q 1250 4750 2034 4750 
z
" transform="scale(0.015625)"/>
       </defs>
       <use xlink:href="#DejaVuSans-2212"/>
       <use xlink:href="#DejaVuSans-35" x="83.789062"/>
       <use xlink:href="#DejaVuSans-2e" x="147.412109"/>
       <use xlink:href="#DejaVuSans-30" x="179.199219"/>
      </g>
     </g>
    </g>
    <g id="xtick_2">
     <g id="line2d_2">
      <g>
       <use xlink:href="#m00d6639959" x="113.548602" y="389.32" style="stroke: #000000; stroke-width: 0.8"/>
      </g>
     </g>
     <g id="text_2">
      <!-- −2.5 -->
      <g transform="translate(101.407196 403.918437) scale(0.1 -0.1)">
       <defs>
        <path id="DejaVuSans-32" d="M 1228 531 
L 3431 531 
L 3431 0 
L 469 0 
L 469 531 
Q 828 903 1448 1529 
Q 2069 2156 2228 2338 
Q 2531 2678 2651 2914 
Q 2772 3150 2772 3378 
Q 2772 3750 2511 3984 
Q 2250 4219 1831 4219 
Q 1534 4219 1204 4116 
Q 875 4013 500 3803 
L 500 4441 
Q 881 4594 1212 4672 
Q 1544 4750 1819 4750 
Q 2544 4750 2975 4387 
Q 3406 4025 3406 3419 
Q 3406 3131 3298 2873 
Q 3191 2616 2906 2266 
Q 2828 2175 2409 1742 
Q 1991 1309 1228 531 
z
" transform="scale(0.015625)"/>
       </defs>
       <use xlink:href="#DejaVuSans-2212"/>
       <use xlink:href="#DejaVuSans-32" x="83.789062"/>
       <use xlink:href="#DejaVuSans-2e" x="147.412109"/>
       <use xlink:href="#DejaVuSans-35" x="179.199219"/>
      </g>
     </g>
    </g>
    <g id="xtick_3">
     <g id="line2d_3">
      <g>
       <use xlink:href="#m00d6639959" x="160.101786" y="389.32" style="stroke: #000000; stroke-width: 0.8"/>
      </g>
     </g>
     <g id="text_3">
      <!-- 0.0 -->
      <g transform="translate(152.150223 403.918437) scale(0.1 -0.1)">
       <use xlink:href="#DejaVuSans-30"/>
       <use xlink:href="#DejaVuSans-2e" x="63.623047"/>
       <use xlink:href="#DejaVuSans-30" x="95.410156"/>
      </g>
     </g>
    </g>
    <g id="xtick_4">
     <g id="line2d_4">
      <g>
       <use xlink:href="#m00d6639959" x="206.654969" y="389.32" style="stroke: #000000; stroke-width: 0.8"/>
      </g>
     </g>
     <g id="text_4">
      <!-- 2.5 -->
      <g transform="translate(198.703407 403.918437) scale(0.1 -0.1)">
       <use xlink:href="#DejaVuSans-32"/>
       <use xlink:href="#DejaVuSans-2e" x="63.623047"/>
       <use xlink:href="#DejaVuSans-35" x="95.410156"/>
      </g>
     </g>
    </g>
    <g id="xtick_5">
     <g id="line2d_5">
      <g>
       <use xlink:href="#m00d6639959" x="253.208153" y="389.32" style="stroke: #000000; stroke-width: 0.8"/>
      </g>
     </g>
     <g id="text_5">
      <!-- 5.0 -->
      <g transform="translate(245.25659 403.918437) scale(0.1 -0.1)">
       <use xlink:href="#DejaVuSans-35"/>
       <use xlink:href="#DejaVuSans-2e" x="63.623047"/>
       <use xlink:href="#DejaVuSans-30" x="95.410156"/>
      </g>
     </g>
    </g>
    <g id="xtick_6">
     <g id="line2d_6">
      <g>
       <use xlink:href="#m00d6639959" x="299.761336" y="389.32" style="stroke: #000000; stroke-width: 0.8"/>
      </g>
     </g>
     <g id="text_6">
      <!-- 7.5 -->
      <g transform="translate(291.809773 403.918437) scale(0.1 -0.1)">
       <defs>
        <path id="DejaVuSans-37" d="M 525 4666 
L 3525 4666 
L 3525 4397 
L 1831 0 
L 1172 0 
L 2766 4134 
L 525 4134 
L 525 4666 
z
" transform="scale(0.015625)"/>
       </defs>
       <use xlink:href="#DejaVuSans-37"/>
       <use xlink:href="#DejaVuSans-2e" x="63.623047"/>
       <use xlink:href="#DejaVuSans-35" x="95.410156"/>
      </g>
     </g>
    </g>
    <g id="xtick_7">
     <g id="line2d_7">
      <g>
       <use xlink:href="#m00d6639959" x="346.314519" y="389.32" style="stroke: #000000; stroke-width: 0.8"/>
      </g>
     </g>
     <g id="text_7">
      <!-- 10.0 -->
      <g transform="translate(335.181707 403.918437) scale(0.1 -0.1)">
       <defs>
        <path id="DejaVuSans-31" d="M 794 531 
L 1825 531 
L 1825 4091 
L 703 3866 
L 703 4441 
L 1819 4666 
L 2450 4666 
L 2450 531 
L 3481 531 
L 3481 0 
L 794 0 
L 794 531 
z
" transform="scale(0.015625)"/>
       </defs>
       <use xlink:href="#DejaVuSans-31"/>
       <use xlink:href="#DejaVuSans-30" x="63.623047"/>
       <use xlink:href="#DejaVuSans-2e" x="127.246094"/>
       <use xlink:href="#DejaVuSans-30" x="159.033203"/>
      </g>
     </g>
    </g>
    <g id="xtick_8">
     <g id="line2d_8">
      <g>
       <use xlink:href="#m00d6639959" x="392.867703" y="389.32" style="stroke: #000000; stroke-width: 0.8"/>
      </g>
     </g>
     <g id="text_8">
      <!-- 12.5 -->
      <g transform="translate(381.73489 403.918437) scale(0.1 -0.1)">
       <use xlink:href="#DejaVuSans-31"/>
       <use xlink:href="#DejaVuSans-32" x="63.623047"/>
       <use xlink:href="#DejaVuSans-2e" x="127.246094"/>
       <use xlink:href="#DejaVuSans-35" x="159.033203"/>
      </g>
     </g>
    </g>
    <g id="text_9">
     <!-- Predicted Fluorescence -->
     <g transform="translate(169.90375 419.11625) scale(0.12 -0.12)">
      <defs>
       <path id="DejaVuSans-50" d="M 1259 4147 
L 1259 2394 
L 2053 2394 
Q 2494 2394 2734 2622 
Q 2975 2850 2975 3272 
Q 2975 3691 2734 3919 
Q 2494 4147 2053 4147 
L 1259 4147 
z
M 628 4666 
L 2053 4666 
Q 2838 4666 3239 4311 
Q 3641 3956 3641 3272 
Q 3641 2581 3239 2228 
Q 2838 1875 2053 1875 
L 1259 1875 
L 1259 0 
L 628 0 
L 628 4666 
z
" transform="scale(0.015625)"/>
       <path id="DejaVuSans-72" d="M 2631 2963 
Q 2534 3019 2420 3045 
Q 2306 3072 2169 3072 
Q 1681 3072 1420 2755 
Q 1159 2438 1159 1844 
L 1159 0 
L 581 0 
L 581 3500 
L 1159 3500 
L 1159 2956 
Q 1341 3275 1631 3429 
Q 1922 3584 2338 3584 
Q 2397 3584 2469 3576 
Q 2541 3569 2628 3553 
L 2631 2963 
z
" transform="scale(0.015625)"/>
       <path id="DejaVuSans-65" d="M 3597 1894 
L 3597 1613 
L 953 1613 
Q 991 1019 1311 708 
Q 1631 397 2203 397 
Q 2534 397 2845 478 
Q 3156 559 3463 722 
L 3463 178 
Q 3153 47 2828 -22 
Q 2503 -91 2169 -91 
Q 1331 -91 842 396 
Q 353 884 353 1716 
Q 353 2575 817 3079 
Q 1281 3584 2069 3584 
Q 2775 3584 3186 3129 
Q 3597 2675 3597 1894 
z
M 3022 2063 
Q 3016 2534 2758 2815 
Q 2500 3097 2075 3097 
Q 1594 3097 1305 2825 
Q 1016 2553 972 2059 
L 3022 2063 
z
" transform="scale(0.015625)"/>
       <path id="DejaVuSans-64" d="M 2906 2969 
L 2906 4863 
L 3481 4863 
L 3481 0 
L 2906 0 
L 2906 525 
Q 2725 213 2448 61 
Q 2172 -91 1784 -91 
Q 1150 -91 751 415 
Q 353 922 353 1747 
Q 353 2572 751 3078 
Q 1150 3584 1784 3584 
Q 2172 3584 2448 3432 
Q 2725 3281 2906 2969 
z
M 947 1747 
Q 947 1113 1208 752 
Q 1469 391 1925 391 
Q 2381 391 2643 752 
Q 2906 1113 2906 1747 
Q 2906 2381 2643 2742 
Q 2381 3103 1925 3103 
Q 1469 3103 1208 2742 
Q 947 2381 947 1747 
z
" transform="scale(0.015625)"/>
       <path id="DejaVuSans-69" d="M 603 3500 
L 1178 3500 
L 1178 0 
L 603 0 
L 603 3500 
z
M 603 4863 
L 1178 4863 
L 1178 4134 
L 603 4134 
L 603 4863 
z
" transform="scale(0.015625)"/>
       <path id="DejaVuSans-63" d="M 3122 3366 
L 3122 2828 
Q 2878 2963 2633 3030 
Q 2388 3097 2138 3097 
Q 1578 3097 1268 2742 
Q 959 2388 959 1747 
Q 959 1106 1268 751 
Q 1578 397 2138 397 
Q 2388 397 2633 464 
Q 2878 531 3122 666 
L 3122 134 
Q 2881 22 2623 -34 
Q 2366 -91 2075 -91 
Q 1284 -91 818 406 
Q 353 903 353 1747 
Q 353 2603 823 3093 
Q 1294 3584 2113 3584 
Q 2378 3584 2631 3529 
Q 2884 3475 3122 3366 
z
" transform="scale(0.015625)"/>
       <path id="DejaVuSans-74" d="M 1172 4494 
L 1172 3500 
L 2356 3500 
L 2356 3053 
L 1172 3053 
L 1172 1153 
Q 1172 725 1289 603 
Q 1406 481 1766 481 
L 2356 481 
L 2356 0 
L 1766 0 
Q 1100 0 847 248 
Q 594 497 594 1153 
L 594 3053 
L 172 3053 
L 172 3500 
L 594 3500 
L 594 4494 
L 1172 4494 
z
" transform="scale(0.015625)"/>
       <path id="DejaVuSans-20" transform="scale(0.015625)"/>
       <path id="DejaVuSans-46" d="M 628 4666 
L 3309 4666 
L 3309 4134 
L 1259 4134 
L 1259 2759 
L 3109 2759 
L 3109 2228 
L 1259 2228 
L 1259 0 
L 628 0 
L 628 4666 
z
" transform="scale(0.015625)"/>
       <path id="DejaVuSans-6c" d="M 603 4863 
L 1178 4863 
L 1178 0 
L 603 0 
L 603 4863 
z
" transform="scale(0.015625)"/>
       <path id="DejaVuSans-75" d="M 544 1381 
L 544 3500 
L 1119 3500 
L 1119 1403 
Q 1119 906 1312 657 
Q 1506 409 1894 409 
Q 2359 409 2629 706 
Q 2900 1003 2900 1516 
L 2900 3500 
L 3475 3500 
L 3475 0 
L 2900 0 
L 2900 538 
Q 2691 219 2414 64 
Q 2138 -91 1772 -91 
Q 1169 -91 856 284 
Q 544 659 544 1381 
z
M 1991 3584 
L 1991 3584 
z
" transform="scale(0.015625)"/>
       <path id="DejaVuSans-6f" d="M 1959 3097 
Q 1497 3097 1228 2736 
Q 959 2375 959 1747 
Q 959 1119 1226 758 
Q 1494 397 1959 397 
Q 2419 397 2687 759 
Q 2956 1122 2956 1747 
Q 2956 2369 2687 2733 
Q 2419 3097 1959 3097 
z
M 1959 3584 
Q 2709 3584 3137 3096 
Q 3566 2609 3566 1747 
Q 3566 888 3137 398 
Q 2709 -91 1959 -91 
Q 1206 -91 779 398 
Q 353 888 353 1747 
Q 353 2609 779 3096 
Q 1206 3584 1959 3584 
z
" transform="scale(0.015625)"/>
       <path id="DejaVuSans-73" d="M 2834 3397 
L 2834 2853 
Q 2591 2978 2328 3040 
Q 2066 3103 1784 3103 
Q 1356 3103 1142 2972 
Q 928 2841 928 2578 
Q 928 2378 1081 2264 
Q 1234 2150 1697 2047 
L 1894 2003 
Q 2506 1872 2764 1633 
Q 3022 1394 3022 966 
Q 3022 478 2636 193 
Q 2250 -91 1575 -91 
Q 1294 -91 989 -36 
Q 684 19 347 128 
L 347 722 
Q 666 556 975 473 
Q 1284 391 1588 391 
Q 1994 391 2212 530 
Q 2431 669 2431 922 
Q 2431 1156 2273 1281 
Q 2116 1406 1581 1522 
L 1381 1569 
Q 847 1681 609 1914 
Q 372 2147 372 2553 
Q 372 3047 722 3315 
Q 1072 3584 1716 3584 
Q 2034 3584 2315 3537 
Q 2597 3491 2834 3397 
z
" transform="scale(0.015625)"/>
       <path id="DejaVuSans-6e" d="M 3513 2113 
L 3513 0 
L 2938 0 
L 2938 2094 
Q 2938 2591 2744 2837 
Q 2550 3084 2163 3084 
Q 1697 3084 1428 2787 
Q 1159 2491 1159 1978 
L 1159 0 
L 581 0 
L 581 3500 
L 1159 3500 
L 1159 2956 
Q 1366 3272 1645 3428 
Q 1925 3584 2291 3584 
Q 2894 3584 3203 3211 
Q 3513 2838 3513 2113 
z
" transform="scale(0.015625)"/>
      </defs>
      <use xlink:href="#DejaVuSans-50"/>
      <use xlink:href="#DejaVuSans-72" x="58.552734"/>
      <use xlink:href="#DejaVuSans-65" x="97.416016"/>
      <use xlink:href="#DejaVuSans-64" x="158.939453"/>
      <use xlink:href="#DejaVuSans-69" x="222.416016"/>
      <use xlink:href="#DejaVuSans-63" x="250.199219"/>
      <use xlink:href="#DejaVuSans-74" x="305.179688"/>
      <use xlink:href="#DejaVuSans-65" x="344.388672"/>
      <use xlink:href="#DejaVuSans-64" x="405.912109"/>
      <use xlink:href="#DejaVuSans-20" x="469.388672"/>
      <use xlink:href="#DejaVuSans-46" x="501.175781"/>
      <use xlink:href="#DejaVuSans-6c" x="558.695312"/>
      <use xlink:href="#DejaVuSans-75" x="586.478516"/>
      <use xlink:href="#DejaVuSans-6f" x="649.857422"/>
      <use xlink:href="#DejaVuSans-72" x="711.039062"/>
      <use xlink:href="#DejaVuSans-65" x="749.902344"/>
      <use xlink:href="#DejaVuSans-73" x="811.425781"/>
      <use xlink:href="#DejaVuSans-63" x="863.525391"/>
      <use xlink:href="#DejaVuSans-65" x="918.505859"/>
      <use xlink:href="#DejaVuSans-6e" x="980.029297"/>
      <use xlink:href="#DejaVuSans-63" x="1043.408203"/>
      <use xlink:href="#DejaVuSans-65" x="1098.388672"/>
     </g>
    </g>
   </g>
   <g id="matplotlib.axis_2">
    <g id="ytick_1">
     <g id="line2d_9">
      <defs>
       <path id="mad9bd93993" d="M 0 0 
L -3.5 0 
" style="stroke: #000000; stroke-width: 0.8"/>
      </defs>
      <g>
       <use xlink:href="#mad9bd93993" x="57.8" y="389.32" style="stroke: #000000; stroke-width: 0.8"/>
      </g>
     </g>
     <g id="text_10">
      <!-- 0.00 -->
      <g transform="translate(28.534375 393.119219) scale(0.1 -0.1)">
       <use xlink:href="#DejaVuSans-30"/>
       <use xlink:href="#DejaVuSans-2e" x="63.623047"/>
       <use xlink:href="#DejaVuSans-30" x="95.410156"/>
       <use xlink:href="#DejaVuSans-30" x="159.033203"/>
      </g>
     </g>
    </g>
    <g id="ytick_2">
     <g id="line2d_10">
      <g>
       <use xlink:href="#mad9bd93993" x="57.8" y="331.767148" style="stroke: #000000; stroke-width: 0.8"/>
      </g>
     </g>
     <g id="text_11">
      <!-- 0.05 -->
      <g transform="translate(28.534375 335.566367) scale(0.1 -0.1)">
       <use xlink:href="#DejaVuSans-30"/>
       <use xlink:href="#DejaVuSans-2e" x="63.623047"/>
       <use xlink:href="#DejaVuSans-30" x="95.410156"/>
       <use xlink:href="#DejaVuSans-35" x="159.033203"/>
      </g>
     </g>
    </g>
    <g id="ytick_3">
     <g id="line2d_11">
      <g>
       <use xlink:href="#mad9bd93993" x="57.8" y="274.214296" style="stroke: #000000; stroke-width: 0.8"/>
      </g>
     </g>
     <g id="text_12">
      <!-- 0.10 -->
      <g transform="translate(28.534375 278.013514) scale(0.1 -0.1)">
       <use xlink:href="#DejaVuSans-30"/>
       <use xlink:href="#DejaVuSans-2e" x="63.623047"/>
       <use xlink:href="#DejaVuSans-31" x="95.410156"/>
       <use xlink:href="#DejaVuSans-30" x="159.033203"/>
      </g>
     </g>
    </g>
    <g id="ytick_4">
     <g id="line2d_12">
      <g>
       <use xlink:href="#mad9bd93993" x="57.8" y="216.661443" style="stroke: #000000; stroke-width: 0.8"/>
      </g>
     </g>
     <g id="text_13">
      <!-- 0.15 -->
      <g transform="translate(28.534375 220.460662) scale(0.1 -0.1)">
       <use xlink:href="#DejaVuSans-30"/>
       <use xlink:href="#DejaVuSans-2e" x="63.623047"/>
       <use xlink:href="#DejaVuSans-31" x="95.410156"/>
       <use xlink:href="#DejaVuSans-35" x="159.033203"/>
      </g>
     </g>
    </g>
    <g id="ytick_5">
     <g id="line2d_13">
      <g>
       <use xlink:href="#mad9bd93993" x="57.8" y="159.108591" style="stroke: #000000; stroke-width: 0.8"/>
      </g>
     </g>
     <g id="text_14">
      <!-- 0.20 -->
      <g transform="translate(28.534375 162.90781) scale(0.1 -0.1)">
       <use xlink:href="#DejaVuSans-30"/>
       <use xlink:href="#DejaVuSans-2e" x="63.623047"/>
       <use xlink:href="#DejaVuSans-32" x="95.410156"/>
       <use xlink:href="#DejaVuSans-30" x="159.033203"/>
      </g>
     </g>
    </g>
    <g id="ytick_6">
     <g id="line2d_14">
      <g>
       <use xlink:href="#mad9bd93993" x="57.8" y="101.555739" style="stroke: #000000; stroke-width: 0.8"/>
      </g>
     </g>
     <g id="text_15">
      <!-- 0.25 -->
      <g transform="translate(28.534375 105.354958) scale(0.1 -0.1)">
       <use xlink:href="#DejaVuSans-30"/>
       <use xlink:href="#DejaVuSans-2e" x="63.623047"/>
       <use xlink:href="#DejaVuSans-32" x="95.410156"/>
       <use xlink:href="#DejaVuSans-35" x="159.033203"/>
      </g>
     </g>
    </g>
    <g id="ytick_7">
     <g id="line2d_15">
      <g>
       <use xlink:href="#mad9bd93993" x="57.8" y="44.002887" style="stroke: #000000; stroke-width: 0.8"/>
      </g>
     </g>
     <g id="text_16">
      <!-- 0.30 -->
      <g transform="translate(28.534375 47.802106) scale(0.1 -0.1)">
       <defs>
        <path id="DejaVuSans-33" d="M 2597 2516 
Q 3050 2419 3304 2112 
Q 3559 1806 3559 1356 
Q 3559 666 3084 287 
Q 2609 -91 1734 -91 
Q 1441 -91 1130 -33 
Q 819 25 488 141 
L 488 750 
Q 750 597 1062 519 
Q 1375 441 1716 441 
Q 2309 441 2620 675 
Q 2931 909 2931 1356 
Q 2931 1769 2642 2001 
Q 2353 2234 1838 2234 
L 1294 2234 
L 1294 2753 
L 1863 2753 
Q 2328 2753 2575 2939 
Q 2822 3125 2822 3475 
Q 2822 3834 2567 4026 
Q 2313 4219 1838 4219 
Q 1578 4219 1281 4162 
Q 984 4106 628 3988 
L 628 4550 
Q 988 4650 1302 4700 
Q 1616 4750 1894 4750 
Q 2613 4750 3031 4423 
Q 3450 4097 3450 3541 
Q 3450 3153 3228 2886 
Q 3006 2619 2597 2516 
z
" transform="scale(0.015625)"/>
       </defs>
       <use xlink:href="#DejaVuSans-30"/>
       <use xlink:href="#DejaVuSans-2e" x="63.623047"/>
       <use xlink:href="#DejaVuSans-33" x="95.410156"/>
       <use xlink:href="#DejaVuSans-30" x="159.033203"/>
      </g>
     </g>
    </g>
    <g id="text_17">
     <!-- Density -->
     <g transform="translate(21.622813 226.672031) rotate(-90) scale(0.14 -0.14)">
      <defs>
       <path id="DejaVuSans-44" d="M 1259 4147 
L 1259 519 
L 2022 519 
Q 2988 519 3436 956 
Q 3884 1394 3884 2338 
Q 3884 3275 3436 3711 
Q 2988 4147 2022 4147 
L 1259 4147 
z
M 628 4666 
L 1925 4666 
Q 3281 4666 3915 4102 
Q 4550 3538 4550 2338 
Q 4550 1131 3912 565 
Q 3275 0 1925 0 
L 628 0 
L 628 4666 
z
" transform="scale(0.015625)"/>
       <path id="DejaVuSans-79" d="M 2059 -325 
Q 1816 -950 1584 -1140 
Q 1353 -1331 966 -1331 
L 506 -1331 
L 506 -850 
L 844 -850 
Q 1081 -850 1212 -737 
Q 1344 -625 1503 -206 
L 1606 56 
L 191 3500 
L 800 3500 
L 1894 763 
L 2988 3500 
L 3597 3500 
L 2059 -325 
z
" transform="scale(0.015625)"/>
      </defs>
      <use xlink:href="#DejaVuSans-44"/>
      <use xlink:href="#DejaVuSans-65" x="77.001953"/>
      <use xlink:href="#DejaVuSans-6e" x="138.525391"/>
      <use xlink:href="#DejaVuSans-73" x="201.904297"/>
      <use xlink:href="#DejaVuSans-69" x="254.003906"/>
      <use xlink:href="#DejaVuSans-74" x="281.787109"/>
      <use xlink:href="#DejaVuSans-79" x="320.996094"/>
     </g>
    </g>
   </g>
   <g id="line2d_16">
    <path d="M 149.33944 389.32 
L 149.33944 10.8 
" clip-path="url(#pd0b8c0c1d1)" style="fill: none; stroke-dasharray: 3.7,1.6; stroke-dashoffset: 0; stroke: #000000"/>
   </g>
   <g id="patch_3">
    <path d="M 57.8 389.32 
L 57.8 10.8 
" style="fill: none; stroke: #000000; stroke-width: 0.8; stroke-linejoin: miter; stroke-linecap: square"/>
   </g>
   <g id="patch_4">
    <path d="M 57.8 389.32 
L 421.2 389.32 
" style="fill: none; stroke: #000000; stroke-width: 0.8; stroke-linejoin: miter; stroke-linecap: square"/>
   </g>
   <g id="legend_1">
    <g id="patch_5">
     <path d="M 270.114062 77.5125 
L 414.2 77.5125 
Q 416.2 77.5125 416.2 75.5125 
L 416.2 17.8 
Q 416.2 15.8 414.2 15.8 
L 270.114062 15.8 
Q 268.114062 15.8 268.114062 17.8 
L 268.114062 75.5125 
Q 268.114062 77.5125 270.114062 77.5125 
z
" style="fill: #ffffff; opacity: 0.8; stroke: #cccccc; stroke-linejoin: miter"/>
    </g>
    <g id="patch_6">
     <path d="M 272.114062 27.398438 
L 292.114062 27.398438 
L 292.114062 20.398438 
L 272.114062 20.398438 
z
" style="fill: #bdbdbd; fill-opacity: 0.5; stroke: #bdbdbd; stroke-width: 2.5; stroke-linejoin: miter"/>
    </g>
    <g id="text_18">
     <!-- Pre-trained ESM2 (8M) -->
     <g transform="translate(300.114062 27.398438) scale(0.1 -0.1)">
      <defs>
       <path id="DejaVuSans-2d" d="M 313 2009 
L 1997 2009 
L 1997 1497 
L 313 1497 
L 313 2009 
z
" transform="scale(0.015625)"/>
       <path id="DejaVuSans-61" d="M 2194 1759 
Q 1497 1759 1228 1600 
Q 959 1441 959 1056 
Q 959 750 1161 570 
Q 1363 391 1709 391 
Q 2188 391 2477 730 
Q 2766 1069 2766 1631 
L 2766 1759 
L 2194 1759 
z
M 3341 1997 
L 3341 0 
L 2766 0 
L 2766 531 
Q 2569 213 2275 61 
Q 1981 -91 1556 -91 
Q 1019 -91 701 211 
Q 384 513 384 1019 
Q 384 1609 779 1909 
Q 1175 2209 1959 2209 
L 2766 2209 
L 2766 2266 
Q 2766 2663 2505 2880 
Q 2244 3097 1772 3097 
Q 1472 3097 1187 3025 
Q 903 2953 641 2809 
L 641 3341 
Q 956 3463 1253 3523 
Q 1550 3584 1831 3584 
Q 2591 3584 2966 3190 
Q 3341 2797 3341 1997 
z
" transform="scale(0.015625)"/>
       <path id="DejaVuSans-45" d="M 628 4666 
L 3578 4666 
L 3578 4134 
L 1259 4134 
L 1259 2753 
L 3481 2753 
L 3481 2222 
L 1259 2222 
L 1259 531 
L 3634 531 
L 3634 0 
L 628 0 
L 628 4666 
z
" transform="scale(0.015625)"/>
       <path id="DejaVuSans-53" d="M 3425 4513 
L 3425 3897 
Q 3066 4069 2747 4153 
Q 2428 4238 2131 4238 
Q 1616 4238 1336 4038 
Q 1056 3838 1056 3469 
Q 1056 3159 1242 3001 
Q 1428 2844 1947 2747 
L 2328 2669 
Q 3034 2534 3370 2195 
Q 3706 1856 3706 1288 
Q 3706 609 3251 259 
Q 2797 -91 1919 -91 
Q 1588 -91 1214 -16 
Q 841 59 441 206 
L 441 856 
Q 825 641 1194 531 
Q 1563 422 1919 422 
Q 2459 422 2753 634 
Q 3047 847 3047 1241 
Q 3047 1584 2836 1778 
Q 2625 1972 2144 2069 
L 1759 2144 
Q 1053 2284 737 2584 
Q 422 2884 422 3419 
Q 422 4038 858 4394 
Q 1294 4750 2059 4750 
Q 2388 4750 2728 4690 
Q 3069 4631 3425 4513 
z
" transform="scale(0.015625)"/>
       <path id="DejaVuSans-4d" d="M 628 4666 
L 1569 4666 
L 2759 1491 
L 3956 4666 
L 4897 4666 
L 4897 0 
L 4281 0 
L 4281 4097 
L 3078 897 
L 2444 897 
L 1241 4097 
L 1241 0 
L 628 0 
L 628 4666 
z
" transform="scale(0.015625)"/>
       <path id="DejaVuSans-28" d="M 1984 4856 
Q 1566 4138 1362 3434 
Q 1159 2731 1159 2009 
Q 1159 1288 1364 580 
Q 1569 -128 1984 -844 
L 1484 -844 
Q 1016 -109 783 600 
Q 550 1309 550 2009 
Q 550 2706 781 3412 
Q 1013 4119 1484 4856 
L 1984 4856 
z
" transform="scale(0.015625)"/>
       <path id="DejaVuSans-38" d="M 2034 2216 
Q 1584 2216 1326 1975 
Q 1069 1734 1069 1313 
Q 1069 891 1326 650 
Q 1584 409 2034 409 
Q 2484 409 2743 651 
Q 3003 894 3003 1313 
Q 3003 1734 2745 1975 
Q 2488 2216 2034 2216 
z
M 1403 2484 
Q 997 2584 770 2862 
Q 544 3141 544 3541 
Q 544 4100 942 4425 
Q 1341 4750 2034 4750 
Q 2731 4750 3128 4425 
Q 3525 4100 3525 3541 
Q 3525 3141 3298 2862 
Q 3072 2584 2669 2484 
Q 3125 2378 3379 2068 
Q 3634 1759 3634 1313 
Q 3634 634 3220 271 
Q 2806 -91 2034 -91 
Q 1263 -91 848 271 
Q 434 634 434 1313 
Q 434 1759 690 2068 
Q 947 2378 1403 2484 
z
M 1172 3481 
Q 1172 3119 1398 2916 
Q 1625 2713 2034 2713 
Q 2441 2713 2670 2916 
Q 2900 3119 2900 3481 
Q 2900 3844 2670 4047 
Q 2441 4250 2034 4250 
Q 1625 4250 1398 4047 
Q 1172 3844 1172 3481 
z
" transform="scale(0.015625)"/>
       <path id="DejaVuSans-29" d="M 513 4856 
L 1013 4856 
Q 1481 4119 1714 3412 
Q 1947 2706 1947 2009 
Q 1947 1309 1714 600 
Q 1481 -109 1013 -844 
L 513 -844 
Q 928 -128 1133 580 
Q 1338 1288 1338 2009 
Q 1338 2731 1133 3434 
Q 928 4138 513 4856 
z
" transform="scale(0.015625)"/>
      </defs>
      <use xlink:href="#DejaVuSans-50"/>
      <use xlink:href="#DejaVuSans-72" x="58.552734"/>
      <use xlink:href="#DejaVuSans-65" x="97.416016"/>
      <use xlink:href="#DejaVuSans-2d" x="158.939453"/>
      <use xlink:href="#DejaVuSans-74" x="195.023438"/>
      <use xlink:href="#DejaVuSans-72" x="234.232422"/>
      <use xlink:href="#DejaVuSans-61" x="275.345703"/>
      <use xlink:href="#DejaVuSans-69" x="336.625"/>
      <use xlink:href="#DejaVuSans-6e" x="364.408203"/>
      <use xlink:href="#DejaVuSans-65" x="427.787109"/>
      <use xlink:href="#DejaVuSans-64" x="489.310547"/>
      <use xlink:href="#DejaVuSans-20" x="552.787109"/>
      <use xlink:href="#DejaVuSans-45" x="584.574219"/>
      <use xlink:href="#DejaVuSans-53" x="647.757812"/>
      <use xlink:href="#DejaVuSans-4d" x="711.234375"/>
      <use xlink:href="#DejaVuSans-32" x="797.513672"/>
      <use xlink:href="#DejaVuSans-20" x="861.136719"/>
      <use xlink:href="#DejaVuSans-28" x="892.923828"/>
      <use xlink:href="#DejaVuSans-38" x="931.9375"/>
      <use xlink:href="#DejaVuSans-4d" x="995.560547"/>
      <use xlink:href="#DejaVuSans-29" x="1081.839844"/>
     </g>
    </g>
    <g id="patch_7">
     <path d="M 272.114062 42.076563 
L 292.114062 42.076563 
L 292.114062 35.076563 
L 272.114062 35.076563 
z
" style="fill: #92c5de; fill-opacity: 0.5; stroke: #92c5de; stroke-width: 2.5; stroke-linejoin: miter"/>
    </g>
    <g id="text_19">
     <!-- SFT ESM2 (8M) -->
     <g transform="translate(300.114062 42.076563) scale(0.1 -0.1)">
      <defs>
       <path id="DejaVuSans-54" d="M -19 4666 
L 3928 4666 
L 3928 4134 
L 2272 4134 
L 2272 0 
L 1638 0 
L 1638 4134 
L -19 4134 
L -19 4666 
z
" transform="scale(0.015625)"/>
      </defs>
      <use xlink:href="#DejaVuSans-53"/>
      <use xlink:href="#DejaVuSans-46" x="63.476562"/>
      <use xlink:href="#DejaVuSans-54" x="119.246094"/>
      <use xlink:href="#DejaVuSans-20" x="180.330078"/>
      <use xlink:href="#DejaVuSans-45" x="212.117188"/>
      <use xlink:href="#DejaVuSans-53" x="275.300781"/>
      <use xlink:href="#DejaVuSans-4d" x="338.777344"/>
      <use xlink:href="#DejaVuSans-32" x="425.056641"/>
      <use xlink:href="#DejaVuSans-20" x="488.679688"/>
      <use xlink:href="#DejaVuSans-28" x="520.466797"/>
      <use xlink:href="#DejaVuSans-38" x="559.480469"/>
      <use xlink:href="#DejaVuSans-4d" x="623.103516"/>
      <use xlink:href="#DejaVuSans-29" x="709.382812"/>
     </g>
    </g>
    <g id="patch_8">
     <path d="M 272.114062 56.754687 
L 292.114062 56.754687 
L 292.114062 49.754687 
L 272.114062 49.754687 
z
" style="fill: #2166ac; fill-opacity: 0.5; stroke: #2166ac; stroke-width: 2.5; stroke-linejoin: miter"/>
    </g>
    <g id="text_20">
     <!-- Aligned ESM2 (8M) -->
     <g transform="translate(300.114062 56.754687) scale(0.1 -0.1)">
      <defs>
       <path id="DejaVuSans-41" d="M 2188 4044 
L 1331 1722 
L 3047 1722 
L 2188 4044 
z
M 1831 4666 
L 2547 4666 
L 4325 0 
L 3669 0 
L 3244 1197 
L 1141 1197 
L 716 0 
L 50 0 
L 1831 4666 
z
" transform="scale(0.015625)"/>
       <path id="DejaVuSans-67" d="M 2906 1791 
Q 2906 2416 2648 2759 
Q 2391 3103 1925 3103 
Q 1463 3103 1205 2759 
Q 947 2416 947 1791 
Q 947 1169 1205 825 
Q 1463 481 1925 481 
Q 2391 481 2648 825 
Q 2906 1169 2906 1791 
z
M 3481 434 
Q 3481 -459 3084 -895 
Q 2688 -1331 1869 -1331 
Q 1566 -1331 1297 -1286 
Q 1028 -1241 775 -1147 
L 775 -588 
Q 1028 -725 1275 -790 
Q 1522 -856 1778 -856 
Q 2344 -856 2625 -561 
Q 2906 -266 2906 331 
L 2906 616 
Q 2728 306 2450 153 
Q 2172 0 1784 0 
Q 1141 0 747 490 
Q 353 981 353 1791 
Q 353 2603 747 3093 
Q 1141 3584 1784 3584 
Q 2172 3584 2450 3431 
Q 2728 3278 2906 2969 
L 2906 3500 
L 3481 3500 
L 3481 434 
z
" transform="scale(0.015625)"/>
      </defs>
      <use xlink:href="#DejaVuSans-41"/>
      <use xlink:href="#DejaVuSans-6c" x="68.408203"/>
      <use xlink:href="#DejaVuSans-69" x="96.191406"/>
      <use xlink:href="#DejaVuSans-67" x="123.974609"/>
      <use xlink:href="#DejaVuSans-6e" x="187.451172"/>
      <use xlink:href="#DejaVuSans-65" x="250.830078"/>
      <use xlink:href="#DejaVuSans-64" x="312.353516"/>
      <use xlink:href="#DejaVuSans-20" x="375.830078"/>
      <use xlink:href="#DejaVuSans-45" x="407.617188"/>
      <use xlink:href="#DejaVuSans-53" x="470.800781"/>
      <use xlink:href="#DejaVuSans-4d" x="534.277344"/>
      <use xlink:href="#DejaVuSans-32" x="620.556641"/>
      <use xlink:href="#DejaVuSans-20" x="684.179688"/>
      <use xlink:href="#DejaVuSans-28" x="715.966797"/>
      <use xlink:href="#DejaVuSans-38" x="754.980469"/>
      <use xlink:href="#DejaVuSans-4d" x="818.603516"/>
      <use xlink:href="#DejaVuSans-29" x="904.882812"/>
     </g>
    </g>
    <g id="line2d_17">
     <path d="M 272.114062 67.932813 
L 282.114062 67.932813 
L 292.114062 67.932813 
" style="fill: none; stroke-dasharray: 3.7,1.6; stroke-dashoffset: 0; stroke: #000000"/>
    </g>
    <g id="text_21">
     <!-- Predicted ube4b score -->
     <g transform="translate(300.114062 71.432813) scale(0.1 -0.1)">
      <defs>
       <path id="DejaVuSans-62" d="M 3116 1747 
Q 3116 2381 2855 2742 
Q 2594 3103 2138 3103 
Q 1681 3103 1420 2742 
Q 1159 2381 1159 1747 
Q 1159 1113 1420 752 
Q 1681 391 2138 391 
Q 2594 391 2855 752 
Q 3116 1113 3116 1747 
z
M 1159 2969 
Q 1341 3281 1617 3432 
Q 1894 3584 2278 3584 
Q 2916 3584 3314 3078 
Q 3713 2572 3713 1747 
Q 3713 922 3314 415 
Q 2916 -91 2278 -91 
Q 1894 -91 1617 61 
Q 1341 213 1159 525 
L 1159 0 
L 581 0 
L 581 4863 
L 1159 4863 
L 1159 2969 
z
" transform="scale(0.015625)"/>
       <path id="DejaVuSans-34" d="M 2419 4116 
L 825 1625 
L 2419 1625 
L 2419 4116 
z
M 2253 4666 
L 3047 4666 
L 3047 1625 
L 3713 1625 
L 3713 1100 
L 3047 1100 
L 3047 0 
L 2419 0 
L 2419 1100 
L 313 1100 
L 313 1709 
L 2253 4666 
z
" transform="scale(0.015625)"/>
      </defs>
      <use xlink:href="#DejaVuSans-50"/>
      <use xlink:href="#DejaVuSans-72" x="58.552734"/>
      <use xlink:href="#DejaVuSans-65" x="97.416016"/>
      <use xlink:href="#DejaVuSans-64" x="158.939453"/>
      <use xlink:href="#DejaVuSans-69" x="222.416016"/>
      <use xlink:href="#DejaVuSans-63" x="250.199219"/>
      <use xlink:href="#DejaVuSans-74" x="305.179688"/>
      <use xlink:href="#DejaVuSans-65" x="344.388672"/>
      <use xlink:href="#DejaVuSans-64" x="405.912109"/>
      <use xlink:href="#DejaVuSans-20" x="469.388672"/>
      <use xlink:href="#DejaVuSans-75" x="501.175781"/>
      <use xlink:href="#DejaVuSans-62" x="564.554688"/>
      <use xlink:href="#DejaVuSans-65" x="628.03125"/>
      <use xlink:href="#DejaVuSans-34" x="689.554688"/>
      <use xlink:href="#DejaVuSans-62" x="753.177734"/>
      <use xlink:href="#DejaVuSans-20" x="816.654297"/>
      <use xlink:href="#DejaVuSans-73" x="848.441406"/>
      <use xlink:href="#DejaVuSans-63" x="900.541016"/>
      <use xlink:href="#DejaVuSans-6f" x="955.521484"/>
      <use xlink:href="#DejaVuSans-72" x="1016.703125"/>
      <use xlink:href="#DejaVuSans-65" x="1055.566406"/>
     </g>
    </g>
   </g>
  </g>
 </g>
 <defs>
  <clipPath id="pd0b8c0c1d1">
   <rect x="57.8" y="10.8" width="363.4" height="378.52"/>
  </clipPath>
 </defs>
</svg>
