<?xml version="1.0" encoding="utf-8" standalone="no"?>
<!DOCTYPE svg PUBLIC "-//W3C//DTD SVG 1.1//EN"
  "http://www.w3.org/Graphics/SVG/1.1/DTD/svg11.dtd">
<svg xmlns:xlink="http://www.w3.org/1999/xlink" width="432pt" height="432pt" viewBox="0 0 432 432" xmlns="http://www.w3.org/2000/svg" version="1.1">
 <metadata>
  <rdf:RDF xmlns:dc="http://purl.org/dc/elements/1.1/" xmlns:cc="http://creativecommons.org/ns#" xmlns:rdf="http://www.w3.org/1999/02/22-rdf-syntax-ns#">
   <cc:Work>
    <dc:type rdf:resource="http://purl.org/dc/dcmitype/StillImage"/>
    <dc:date>2025-04-02T16:58:49.465423</dc:date>
    <dc:format>image/svg+xml</dc:format>
    <dc:creator>
     <cc:Agent>
      <dc:title>Matplotlib v3.8.0, https://matplotlib.org/</dc:title>
     </cc:Agent>
    </dc:creator>
   </cc:Work>
  </rdf:RDF>
 </metadata>
 <defs>
  <style type="text/css">*{stroke-linejoin: round; stroke-linecap: butt}</style>
 </defs>
 <g id="figure_1">
  <g id="patch_1">
   <path d="M 0 432 
L 432 432 
L 432 0 
L 0 0 
z
" style="fill: #ffffff"/>
  </g>
  <g id="axes_1">
   <g id="patch_2">
    <path d="M 57.8 389.32 
L 421.2 389.32 
L 421.2 10.8 
L 57.8 10.8 
z
" style="fill: #ffffff"/>
   </g>
   <g id="PolyCollection_1">
    <defs>
     <path id="m827407fc0d" d="M 74.318182 -42.734354 
L 74.318182 -42.68 
L 75.723257 -42.68 
L 77.128333 -42.68 
L 78.533408 -42.68 
L 79.938483 -42.68 
L 81.343559 -42.68 
L 82.748634 -42.68 
L 84.15371 -42.68 
L 85.558785 -42.68 
L 86.96386 -42.68 
L 88.368936 -42.68 
L 89.774011 -42.68 
L 91.179086 -42.68 
L 92.584162 -42.68 
L 93.989237 -42.68 
L 95.394313 -42.68 
L 96.799388 -42.68 
L 98.204463 -42.68 
L 99.609539 -42.68 
L 101.014614 -42.68 
L 102.41969 -42.68 
L 103.824765 -42.68 
L 105.22984 -42.68 
L 106.634916 -42.68 
L 108.039991 -42.68 
L 109.445067 -42.68 
L 110.850142 -42.68 
L 112.255217 -42.68 
L 113.660293 -42.68 
L 115.065368 -42.68 
L 116.470443 -42.68 
L 117.875519 -42.68 
L 119.280594 -42.68 
L 120.68567 -42.68 
L 122.090745 -42.68 
L 123.49582 -42.68 
L 124.900896 -42.68 
L 126.305971 -42.68 
L 127.711047 -42.68 
L 129.116122 -42.68 
L 130.521197 -42.68 
L 131.926273 -42.68 
L 133.331348 -42.68 
L 134.736423 -42.68 
L 136.141499 -42.68 
L 137.546574 -42.68 
L 138.95165 -42.68 
L 140.356725 -42.68 
L 141.7618 -42.68 
L 143.166876 -42.68 
L 144.571951 -42.68 
L 145.977027 -42.68 
L 147.382102 -42.68 
L 148.787177 -42.68 
L 150.192253 -42.68 
L 151.597328 -42.68 
L 153.002404 -42.68 
L 154.407479 -42.68 
L 155.812554 -42.68 
L 157.21763 -42.68 
L 158.622705 -42.68 
L 160.02778 -42.68 
L 161.432856 -42.68 
L 162.837931 -42.68 
L 164.243007 -42.68 
L 165.648082 -42.68 
L 167.053157 -42.68 
L 168.458233 -42.68 
L 169.863308 -42.68 
L 171.268384 -42.68 
L 172.673459 -42.68 
L 174.078534 -42.68 
L 175.48361 -42.68 
L 176.888685 -42.68 
L 178.293761 -42.68 
L 179.698836 -42.68 
L 181.103911 -42.68 
L 182.508987 -42.68 
L 183.914062 -42.68 
L 185.319137 -42.68 
L 186.724213 -42.68 
L 188.129288 -42.68 
L 189.534364 -42.68 
L 190.939439 -42.68 
L 192.344514 -42.68 
L 193.74959 -42.68 
L 195.154665 -42.68 
L 196.559741 -42.68 
L 197.964816 -42.68 
L 199.369891 -42.68 
L 200.774967 -42.68 
L 202.180042 -42.68 
L 203.585117 -42.68 
L 204.990193 -42.68 
L 206.395268 -42.68 
L 207.800344 -42.68 
L 209.205419 -42.68 
L 210.610494 -42.68 
L 212.01557 -42.68 
L 213.420645 -42.68 
L 214.825721 -42.68 
L 216.230796 -42.68 
L 217.635871 -42.68 
L 219.040947 -42.68 
L 220.446022 -42.68 
L 221.851098 -42.68 
L 223.256173 -42.68 
L 224.661248 -42.68 
L 226.066324 -42.68 
L 227.471399 -42.68 
L 228.876474 -42.68 
L 230.28155 -42.68 
L 231.686625 -42.68 
L 233.091701 -42.68 
L 234.496776 -42.68 
L 235.901851 -42.68 
L 237.306927 -42.68 
L 238.712002 -42.68 
L 240.117078 -42.68 
L 241.522153 -42.68 
L 242.927228 -42.68 
L 244.332304 -42.68 
L 245.737379 -42.68 
L 247.142454 -42.68 
L 248.54753 -42.68 
L 249.952605 -42.68 
L 251.357681 -42.68 
L 252.762756 -42.68 
L 254.167831 -42.68 
L 255.572907 -42.68 
L 256.977982 -42.68 
L 258.383058 -42.68 
L 259.788133 -42.68 
L 261.193208 -42.68 
L 262.598284 -42.68 
L 264.003359 -42.68 
L 265.408435 -42.68 
L 266.81351 -42.68 
L 268.218585 -42.68 
L 269.623661 -42.68 
L 271.028736 -42.68 
L 272.433811 -42.68 
L 273.838887 -42.68 
L 275.243962 -42.68 
L 276.649038 -42.68 
L 278.054113 -42.68 
L 279.459188 -42.68 
L 280.864264 -42.68 
L 282.269339 -42.68 
L 283.674415 -42.68 
L 285.07949 -42.68 
L 286.484565 -42.68 
L 287.889641 -42.68 
L 289.294716 -42.68 
L 290.699792 -42.68 
L 292.104867 -42.68 
L 293.509942 -42.68 
L 294.915018 -42.68 
L 296.320093 -42.68 
L 297.725168 -42.68 
L 299.130244 -42.68 
L 300.535319 -42.68 
L 301.940395 -42.68 
L 303.34547 -42.68 
L 304.750545 -42.68 
L 306.155621 -42.68 
L 307.560696 -42.68 
L 308.965772 -42.68 
L 310.370847 -42.68 
L 311.775922 -42.68 
L 313.180998 -42.68 
L 314.586073 -42.68 
L 315.991148 -42.68 
L 317.396224 -42.68 
L 318.801299 -42.68 
L 320.206375 -42.68 
L 321.61145 -42.68 
L 323.016525 -42.68 
L 324.421601 -42.68 
L 325.826676 -42.68 
L 327.231752 -42.68 
L 328.636827 -42.68 
L 330.041902 -42.68 
L 331.446978 -42.68 
L 332.852053 -42.68 
L 334.257129 -42.68 
L 335.662204 -42.68 
L 337.067279 -42.68 
L 338.472355 -42.68 
L 339.87743 -42.68 
L 341.282505 -42.68 
L 342.687581 -42.68 
L 344.092656 -42.68 
L 345.497732 -42.68 
L 346.902807 -42.68 
L 348.307882 -42.68 
L 349.712958 -42.68 
L 351.118033 -42.68 
L 352.523109 -42.68 
L 353.928184 -42.68 
L 353.928184 -42.727534 
L 353.928184 -42.727534 
L 352.523109 -42.74843 
L 351.118033 -42.777347 
L 349.712958 -42.816863 
L 348.307882 -42.870188 
L 346.902807 -42.941264 
L 345.497732 -43.034843 
L 344.092656 -43.156566 
L 342.687581 -43.313016 
L 341.282505 -43.511748 
L 339.87743 -43.761287 
L 338.472355 -44.071088 
L 337.067279 -44.451457 
L 335.662204 -44.913433 
L 334.257129 -45.468624 
L 332.852053 -46.129015 
L 331.446978 -46.906742 
L 330.041902 -47.813841 
L 328.636827 -48.861986 
L 327.231752 -50.062218 
L 325.826676 -51.424679 
L 324.421601 -52.958351 
L 323.016525 -54.670814 
L 321.61145 -56.568034 
L 320.206375 -58.654179 
L 318.801299 -60.931488 
L 317.396224 -63.400193 
L 315.991148 -66.058518 
L 314.586073 -68.902762 
L 313.180998 -71.927485 
L 311.775922 -75.125797 
L 310.370847 -78.489764 
L 308.965772 -82.010904 
L 307.560696 -85.680765 
L 306.155621 -89.491544 
L 304.750545 -93.436697 
L 303.34547 -97.511494 
L 301.940395 -101.713441 
L 300.535319 -106.042531 
L 299.130244 -110.501252 
L 297.725168 -115.094342 
L 296.320093 -119.828251 
L 294.915018 -124.710347 
L 293.509942 -129.747876 
L 292.104867 -134.946762 
L 290.699792 -140.310309 
L 289.294716 -145.837905 
L 287.889641 -151.523827 
L 286.484565 -157.356259 
L 285.07949 -163.316589 
L 283.674415 -169.379086 
L 282.269339 -175.511005 
L 280.864264 -181.673148 
L 279.459188 -187.820894 
L 278.054113 -193.905666 
L 276.649038 -199.876803 
L 275.243962 -205.683728 
L 273.838887 -211.278333 
L 272.433811 -216.617431 
L 271.028736 -221.665146 
L 269.623661 -226.395064 
L 268.218585 -230.792005 
L 266.81351 -234.853255 
L 265.408435 -238.589155 
L 264.003359 -242.022939 
L 262.598284 -245.189806 
L 261.193208 -248.135216 
L 259.788133 -250.912517 
L 258.383058 -253.579993 
L 256.977982 -256.197543 
L 255.572907 -258.823183 
L 254.167831 -261.509604 
L 252.762756 -264.301019 
L 251.357681 -267.230516 
L 249.952605 -270.318079 
L 248.54753 -273.56942 
L 247.142454 -276.975684 
L 245.737379 -280.514046 
L 244.332304 -284.149137 
L 242.927228 -287.835214 
L 241.522153 -291.51891 
L 240.117078 -295.1424 
L 238.712002 -298.646777 
L 237.306927 -301.975427 
L 235.901851 -305.077222 
L 234.496776 -307.909323 
L 233.091701 -310.439436 
L 231.686625 -312.647394 
L 230.28155 -314.525963 
L 228.876474 -316.080815 
L 227.471399 -317.329668 
L 226.066324 -318.300629 
L 224.661248 -319.029853 
L 223.256173 -319.558652 
L 221.851098 -319.930265 
L 220.446022 -320.186529 
L 219.040947 -320.364705 
L 217.635871 -320.494746 
L 216.230796 -320.597237 
L 214.825721 -320.682243 
L 213.420645 -320.749175 
L 212.01557 -320.787761 
L 210.610494 -320.780039 
L 209.205419 -320.703247 
L 207.800344 -320.533349 
L 206.395268 -320.248862 
L 204.990193 -319.83464 
L 203.585117 -319.285198 
L 202.180042 -318.607269 
L 200.774967 -317.821292 
L 199.369891 -316.96167 
L 197.964816 -316.075748 
L 196.559741 -315.221598 
L 195.154665 -314.46479 
L 193.74959 -313.874479 
L 192.344514 -313.519128 
L 190.939439 -313.462285 
L 189.534364 -313.75875 
L 188.129288 -314.451457 
L 186.724213 -315.569286 
L 185.319137 -317.125934 
L 183.914062 -319.119862 
L 182.508987 -321.535243 
L 181.103911 -324.343746 
L 179.698836 -327.506961 
L 178.293761 -330.979198 
L 176.888685 -334.710437 
L 175.48361 -338.649187 
L 174.078534 -342.745049 
L 172.673459 -346.95083 
L 171.268384 -351.2241 
L 169.863308 -355.528078 
L 168.458233 -359.831852 
L 167.053157 -364.109885 
L 165.648082 -368.340852 
L 164.243007 -372.505845 
L 162.837931 -376.586047 
L 161.432856 -380.559984 
L 160.02778 -384.400523 
L 158.622705 -388.071825 
L 157.21763 -391.52648 
L 155.812554 -394.703118 
L 154.407479 -397.524748 
L 153.002404 -399.898127 
L 151.597328 -401.714365 
L 150.192253 -402.850948 
L 148.787177 -403.175238 
L 147.382102 -402.549396 
L 145.977027 -400.83655 
L 144.571951 -397.907889 
L 143.166876 -393.650237 
L 141.7618 -387.973594 
L 140.356725 -380.818074 
L 138.95165 -372.159667 
L 137.546574 -362.01433 
L 136.141499 -350.440021 
L 134.736423 -337.536439 
L 133.331348 -323.442426 
L 131.926273 -308.331173 
L 130.521197 -292.403562 
L 129.116122 -275.880101 
L 127.711047 -258.992042 
L 126.305971 -241.972281 
L 124.900896 -225.046651 
L 123.49582 -208.426135 
L 122.090745 -192.300418 
L 120.68567 -176.833055 
L 119.280594 -162.158378 
L 117.875519 -148.380122 
L 116.470443 -135.571631 
L 115.065368 -123.777388 
L 113.660293 -113.01558 
L 112.255217 -103.281378 
L 110.850142 -94.550605 
L 109.445067 -86.783528 
L 108.039991 -79.928537 
L 106.634916 -73.925549 
L 105.22984 -68.709035 
L 103.824765 -64.210598 
L 102.41969 -60.361116 
L 101.014614 -57.092447 
L 99.609539 -54.338754 
L 98.204463 -52.037489 
L 96.799388 -50.130096 
L 95.394313 -48.562474 
L 93.989237 -47.285248 
L 92.584162 -46.253888 
L 91.179086 -45.428684 
L 89.774011 -44.774636 
L 88.368936 -44.261245 
L 86.96386 -43.862244 
L 85.558785 -43.555281 
L 84.15371 -43.321562 
L 82.748634 -43.145484 
L 81.343559 -43.014252 
L 79.938483 -42.917508 
L 78.533408 -42.846975 
L 77.128333 -42.796129 
L 75.723257 -42.759888 
L 74.318182 -42.734354 
z
" style="stroke: #bdbdbd; stroke-width: 2.5"/>
    </defs>
    <g clip-path="url(#p6ee929e0aa)">
     <use xlink:href="#m827407fc0d" x="0" y="432" style="fill: #bdbdbd; fill-opacity: 0.5; stroke: #bdbdbd; stroke-width: 2.5"/>
    </g>
   </g>
   <g id="PolyCollection_2">
    <defs>
     <path id="mead2b5f0e6" d="M 88.198446 -42.771307 
L 88.198446 -42.68 
L 89.714707 -42.68 
L 91.230968 -42.68 
L 92.747228 -42.68 
L 94.263489 -42.68 
L 95.77975 -42.68 
L 97.296011 -42.68 
L 98.812272 -42.68 
L 100.328532 -42.68 
L 101.844793 -42.68 
L 103.361054 -42.68 
L 104.877315 -42.68 
L 106.393576 -42.68 
L 107.909836 -42.68 
L 109.426097 -42.68 
L 110.942358 -42.68 
L 112.458619 -42.68 
L 113.97488 -42.68 
L 115.49114 -42.68 
L 117.007401 -42.68 
L 118.523662 -42.68 
L 120.039923 -42.68 
L 121.556184 -42.68 
L 123.072444 -42.68 
L 124.588705 -42.68 
L 126.104966 -42.68 
L 127.621227 -42.68 
L 129.137488 -42.68 
L 130.653748 -42.68 
L 132.170009 -42.68 
L 133.68627 -42.68 
L 135.202531 -42.68 
L 136.718792 -42.68 
L 138.235052 -42.68 
L 139.751313 -42.68 
L 141.267574 -42.68 
L 142.783835 -42.68 
L 144.300096 -42.68 
L 145.816356 -42.68 
L 147.332617 -42.68 
L 148.848878 -42.68 
L 150.365139 -42.68 
L 151.8814 -42.68 
L 153.39766 -42.68 
L 154.913921 -42.68 
L 156.430182 -42.68 
L 157.946443 -42.68 
L 159.462704 -42.68 
L 160.978965 -42.68 
L 162.495225 -42.68 
L 164.011486 -42.68 
L 165.527747 -42.68 
L 167.044008 -42.68 
L 168.560269 -42.68 
L 170.076529 -42.68 
L 171.59279 -42.68 
L 173.109051 -42.68 
L 174.625312 -42.68 
L 176.141573 -42.68 
L 177.657833 -42.68 
L 179.174094 -42.68 
L 180.690355 -42.68 
L 182.206616 -42.68 
L 183.722877 -42.68 
L 185.239137 -42.68 
L 186.755398 -42.68 
L 188.271659 -42.68 
L 189.78792 -42.68 
L 191.304181 -42.68 
L 192.820441 -42.68 
L 194.336702 -42.68 
L 195.852963 -42.68 
L 197.369224 -42.68 
L 198.885485 -42.68 
L 200.401745 -42.68 
L 201.918006 -42.68 
L 203.434267 -42.68 
L 204.950528 -42.68 
L 206.466789 -42.68 
L 207.983049 -42.68 
L 209.49931 -42.68 
L 211.015571 -42.68 
L 212.531832 -42.68 
L 214.048093 -42.68 
L 215.564353 -42.68 
L 217.080614 -42.68 
L 218.596875 -42.68 
L 220.113136 -42.68 
L 221.629397 -42.68 
L 223.145657 -42.68 
L 224.661918 -42.68 
L 226.178179 -42.68 
L 227.69444 -42.68 
L 229.210701 -42.68 
L 230.726961 -42.68 
L 232.243222 -42.68 
L 233.759483 -42.68 
L 235.275744 -42.68 
L 236.792005 -42.68 
L 238.308265 -42.68 
L 239.824526 -42.68 
L 241.340787 -42.68 
L 242.857048 -42.68 
L 244.373309 -42.68 
L 245.88957 -42.68 
L 247.40583 -42.68 
L 248.922091 -42.68 
L 250.438352 -42.68 
L 251.954613 -42.68 
L 253.470874 -42.68 
L 254.987134 -42.68 
L 256.503395 -42.68 
L 258.019656 -42.68 
L 259.535917 -42.68 
L 261.052178 -42.68 
L 262.568438 -42.68 
L 264.084699 -42.68 
L 265.60096 -42.68 
L 267.117221 -42.68 
L 268.633482 -42.68 
L 270.149742 -42.68 
L 271.666003 -42.68 
L 273.182264 -42.68 
L 274.698525 -42.68 
L 276.214786 -42.68 
L 277.731046 -42.68 
L 279.247307 -42.68 
L 280.763568 -42.68 
L 282.279829 -42.68 
L 283.79609 -42.68 
L 285.31235 -42.68 
L 286.828611 -42.68 
L 288.344872 -42.68 
L 289.861133 -42.68 
L 291.377394 -42.68 
L 292.893654 -42.68 
L 294.409915 -42.68 
L 295.926176 -42.68 
L 297.442437 -42.68 
L 298.958698 -42.68 
L 300.474958 -42.68 
L 301.991219 -42.68 
L 303.50748 -42.68 
L 305.023741 -42.68 
L 306.540002 -42.68 
L 308.056262 -42.68 
L 309.572523 -42.68 
L 311.088784 -42.68 
L 312.605045 -42.68 
L 314.121306 -42.68 
L 315.637566 -42.68 
L 317.153827 -42.68 
L 318.670088 -42.68 
L 320.186349 -42.68 
L 321.70261 -42.68 
L 323.218871 -42.68 
L 324.735131 -42.68 
L 326.251392 -42.68 
L 327.767653 -42.68 
L 329.283914 -42.68 
L 330.800175 -42.68 
L 332.316435 -42.68 
L 333.832696 -42.68 
L 335.348957 -42.68 
L 336.865218 -42.68 
L 338.381479 -42.68 
L 339.897739 -42.68 
L 341.414 -42.68 
L 342.930261 -42.68 
L 344.446522 -42.68 
L 345.962783 -42.68 
L 347.479043 -42.68 
L 348.995304 -42.68 
L 350.511565 -42.68 
L 352.027826 -42.68 
L 353.544087 -42.68 
L 355.060347 -42.68 
L 356.576608 -42.68 
L 358.092869 -42.68 
L 359.60913 -42.68 
L 361.125391 -42.68 
L 362.641651 -42.68 
L 364.157912 -42.68 
L 365.674173 -42.68 
L 367.190434 -42.68 
L 368.706695 -42.68 
L 370.222955 -42.68 
L 371.739216 -42.68 
L 373.255477 -42.68 
L 374.771738 -42.68 
L 376.287999 -42.68 
L 377.804259 -42.68 
L 379.32052 -42.68 
L 380.836781 -42.68 
L 382.353042 -42.68 
L 383.869303 -42.68 
L 385.385563 -42.68 
L 386.901824 -42.68 
L 388.418085 -42.68 
L 389.934346 -42.68 
L 389.934346 -42.743703 
L 389.934346 -42.743703 
L 388.418085 -42.771932 
L 386.901824 -42.811198 
L 385.385563 -42.865171 
L 383.869303 -42.938488 
L 382.353042 -43.036918 
L 380.836781 -43.167525 
L 379.32052 -43.338825 
L 377.804259 -43.560921 
L 376.287999 -43.845599 
L 374.771738 -44.206379 
L 373.255477 -44.658504 
L 371.739216 -45.218855 
L 370.222955 -45.905788 
L 368.706695 -46.738877 
L 367.190434 -47.738585 
L 365.674173 -48.925857 
L 364.157912 -50.321656 
L 362.641651 -51.946462 
L 361.125391 -53.819768 
L 359.60913 -55.959589 
L 358.092869 -58.382029 
L 356.576608 -61.100919 
L 355.060347 -64.127563 
L 353.544087 -67.470586 
L 352.027826 -71.135906 
L 350.511565 -75.12681 
L 348.995304 -79.44412 
L 347.479043 -84.086429 
L 345.962783 -89.050362 
L 344.446522 -94.330839 
L 342.930261 -99.921288 
L 341.414 -105.813797 
L 339.897739 -111.999158 
L 338.381479 -118.466803 
L 336.865218 -125.204612 
L 335.348957 -132.19862 
L 333.832696 -139.43261 
L 332.316435 -146.887652 
L 330.800175 -154.541601 
L 329.283914 -162.36861 
L 327.767653 -170.338708 
L 326.251392 -178.417484 
L 324.735131 -186.565941 
L 323.218871 -194.740566 
L 321.70261 -202.893645 
L 320.186349 -210.973865 
L 318.670088 -218.927211 
L 317.153827 -226.698157 
L 315.637566 -234.231117 
L 314.121306 -241.472123 
L 312.605045 -248.370648 
L 311.088784 -254.881485 
L 309.572523 -260.966584 
L 308.056262 -266.596722 
L 306.540002 -271.752905 
L 305.023741 -276.427362 
L 303.50748 -280.624081 
L 301.991219 -284.358776 
L 300.474958 -287.65828 
L 298.958698 -290.559352 
L 297.442437 -293.106942 
L 295.926176 -295.351997 
L 294.409915 -297.348921 
L 292.893654 -299.152848 
L 291.377394 -300.816865 
L 289.861133 -302.389389 
L 288.344872 -303.911838 
L 286.828611 -305.416764 
L 285.31235 -306.926558 
L 283.79609 -308.452809 
L 282.279829 -309.996365 
L 280.763568 -311.548065 
L 279.247307 -313.090095 
L 277.731046 -314.597869 
L 276.214786 -316.042268 
L 274.698525 -317.392105 
L 273.182264 -318.616608 
L 271.666003 -319.68776 
L 270.149742 -320.582335 
L 268.633482 -321.283487 
L 267.117221 -321.781803 
L 265.60096 -322.075772 
L 264.084699 -322.17166 
L 262.568438 -322.082843 
L 261.052178 -321.828677 
L 259.535917 -321.433017 
L 258.019656 -320.922536 
L 256.503395 -320.324977 
L 254.987134 -319.667486 
L 253.470874 -318.975151 
L 251.954613 -318.269845 
L 250.438352 -317.569445 
L 248.922091 -316.887446 
L 247.40583 -316.23297 
L 245.88957 -315.611122 
L 244.373309 -315.023616 
L 242.857048 -314.46958 
L 241.340787 -313.946441 
L 239.824526 -313.450771 
L 238.308265 -312.979034 
L 236.792005 -312.528124 
L 235.275744 -312.095702 
L 233.759483 -311.680279 
L 232.243222 -311.281096 
L 230.726961 -310.89782 
L 229.210701 -310.530126 
L 227.69444 -310.17722 
L 226.178179 -309.837351 
L 224.661918 -309.507361 
L 223.145657 -309.182287 
L 221.629397 -308.855011 
L 220.113136 -308.515966 
L 218.596875 -308.152856 
L 217.080614 -307.750398 
L 215.564353 -307.290082 
L 214.048093 -306.749979 
L 212.531832 -306.104651 
L 211.015571 -305.325234 
L 209.49931 -304.3798 
L 207.983049 -303.234056 
L 206.466789 -301.852481 
L 204.950528 -300.199892 
L 203.434267 -298.24345 
L 201.918006 -295.954981 
L 200.401745 -293.313494 
L 198.885485 -290.307671 
L 197.369224 -286.938112 
L 195.852963 -283.21907 
L 194.336702 -279.179475 
L 192.820441 -274.863051 
L 191.304181 -270.327435 
L 189.78792 -265.642277 
L 188.271659 -260.886397 
L 186.755398 -256.144171 
L 185.239137 -251.501385 
L 183.722877 -247.040838 
L 182.206616 -242.838022 
L 180.690355 -238.957158 
L 179.174094 -235.447876 
L 177.657833 -232.342718 
L 176.141573 -229.655617 
L 174.625312 -227.381378 
L 173.109051 -225.496142 
L 171.59279 -223.958739 
L 170.076529 -222.712766 
L 168.560269 -221.689225 
L 167.044008 -220.809528 
L 165.527747 -219.988668 
L 164.011486 -219.13842 
L 162.495225 -218.170417 
L 160.978965 -216.999015 
L 159.462704 -215.543877 
L 157.946443 -213.732245 
L 156.430182 -211.500873 
L 154.913921 -208.797638 
L 153.39766 -205.582812 
L 151.8814 -201.830002 
L 150.365139 -197.526761 
L 148.848878 -192.674855 
L 147.332617 -187.290177 
L 145.816356 -181.402295 
L 144.300096 -175.053637 
L 142.783835 -168.298308 
L 141.267574 -161.200561 
L 139.751313 -153.832961 
L 138.235052 -146.274292 
L 136.718792 -138.607275 
L 135.202531 -130.91618 
L 133.68627 -123.284422 
L 132.170009 -115.792237 
L 130.653748 -108.514529 
L 129.137488 -101.518967 
L 127.621227 -94.864421 
L 126.104966 -88.599764 
L 124.588705 -82.763105 
L 123.072444 -77.381439 
L 121.556184 -72.470723 
L 120.039923 -68.036348 
L 118.523662 -64.073937 
L 117.007401 -60.570445 
L 115.49114 -57.505448 
L 113.97488 -54.852579 
L 112.458619 -52.581005 
L 110.942358 -50.656894 
L 109.426097 -49.044794 
L 107.909836 -47.708879 
L 106.393576 -46.614025 
L 104.877315 -45.726682 
L 103.361054 -45.015546 
L 101.844793 -44.45203 
L 100.328532 -44.010537 
L 98.812272 -43.668577 
L 97.296011 -43.406738 
L 95.77975 -43.208554 
L 94.263489 -43.060281 
L 92.747228 -42.950637 
L 91.230968 -42.870503 
L 89.714707 -42.812623 
L 88.198446 -42.771307 
z
" style="stroke: #92c5de; stroke-width: 2.5"/>
    </defs>
    <g clip-path="url(#p6ee929e0aa)">
     <use xlink:href="#mead2b5f0e6" x="0" y="432" style="fill: #92c5de; fill-opacity: 0.5; stroke: #92c5de; stroke-width: 2.5"/>
    </g>
   </g>
   <g id="PolyCollection_3">
    <defs>
     <path id="md5bd2776ea" d="M 83.091135 -42.732731 
L 83.091135 -42.68 
L 84.707169 -42.68 
L 86.323203 -42.68 
L 87.939236 -42.68 
L 89.55527 -42.68 
L 91.171303 -42.68 
L 92.787337 -42.68 
L 94.40337 -42.68 
L 96.019404 -42.68 
L 97.635438 -42.68 
L 99.251471 -42.68 
L 100.867505 -42.68 
L 102.483538 -42.68 
L 104.099572 -42.68 
L 105.715606 -42.68 
L 107.331639 -42.68 
L 108.947673 -42.68 
L 110.563706 -42.68 
L 112.17974 -42.68 
L 113.795773 -42.68 
L 115.411807 -42.68 
L 117.027841 -42.68 
L 118.643874 -42.68 
L 120.259908 -42.68 
L 121.875941 -42.68 
L 123.491975 -42.68 
L 125.108009 -42.68 
L 126.724042 -42.68 
L 128.340076 -42.68 
L 129.956109 -42.68 
L 131.572143 -42.68 
L 133.188176 -42.68 
L 134.80421 -42.68 
L 136.420244 -42.68 
L 138.036277 -42.68 
L 139.652311 -42.68 
L 141.268344 -42.68 
L 142.884378 -42.68 
L 144.500411 -42.68 
L 146.116445 -42.68 
L 147.732479 -42.68 
L 149.348512 -42.68 
L 150.964546 -42.68 
L 152.580579 -42.68 
L 154.196613 -42.68 
L 155.812647 -42.68 
L 157.42868 -42.68 
L 159.044714 -42.68 
L 160.660747 -42.68 
L 162.276781 -42.68 
L 163.892814 -42.68 
L 165.508848 -42.68 
L 167.124882 -42.68 
L 168.740915 -42.68 
L 170.356949 -42.68 
L 171.972982 -42.68 
L 173.589016 -42.68 
L 175.20505 -42.68 
L 176.821083 -42.68 
L 178.437117 -42.68 
L 180.05315 -42.68 
L 181.669184 -42.68 
L 183.285217 -42.68 
L 184.901251 -42.68 
L 186.517285 -42.68 
L 188.133318 -42.68 
L 189.749352 -42.68 
L 191.365385 -42.68 
L 192.981419 -42.68 
L 194.597453 -42.68 
L 196.213486 -42.68 
L 197.82952 -42.68 
L 199.445553 -42.68 
L 201.061587 -42.68 
L 202.67762 -42.68 
L 204.293654 -42.68 
L 205.909688 -42.68 
L 207.525721 -42.68 
L 209.141755 -42.68 
L 210.757788 -42.68 
L 212.373822 -42.68 
L 213.989856 -42.68 
L 215.605889 -42.68 
L 217.221923 -42.68 
L 218.837956 -42.68 
L 220.45399 -42.68 
L 222.070023 -42.68 
L 223.686057 -42.68 
L 225.302091 -42.68 
L 226.918124 -42.68 
L 228.534158 -42.68 
L 230.150191 -42.68 
L 231.766225 -42.68 
L 233.382259 -42.68 
L 234.998292 -42.68 
L 236.614326 -42.68 
L 238.230359 -42.68 
L 239.846393 -42.68 
L 241.462426 -42.68 
L 243.07846 -42.68 
L 244.694494 -42.68 
L 246.310527 -42.68 
L 247.926561 -42.68 
L 249.542594 -42.68 
L 251.158628 -42.68 
L 252.774661 -42.68 
L 254.390695 -42.68 
L 256.006729 -42.68 
L 257.622762 -42.68 
L 259.238796 -42.68 
L 260.854829 -42.68 
L 262.470863 -42.68 
L 264.086897 -42.68 
L 265.70293 -42.68 
L 267.318964 -42.68 
L 268.934997 -42.68 
L 270.551031 -42.68 
L 272.167064 -42.68 
L 273.783098 -42.68 
L 275.399132 -42.68 
L 277.015165 -42.68 
L 278.631199 -42.68 
L 280.247232 -42.68 
L 281.863266 -42.68 
L 283.4793 -42.68 
L 285.095333 -42.68 
L 286.711367 -42.68 
L 288.3274 -42.68 
L 289.943434 -42.68 
L 291.559467 -42.68 
L 293.175501 -42.68 
L 294.791535 -42.68 
L 296.407568 -42.68 
L 298.023602 -42.68 
L 299.639635 -42.68 
L 301.255669 -42.68 
L 302.871703 -42.68 
L 304.487736 -42.68 
L 306.10377 -42.68 
L 307.719803 -42.68 
L 309.335837 -42.68 
L 310.95187 -42.68 
L 312.567904 -42.68 
L 314.183938 -42.68 
L 315.799971 -42.68 
L 317.416005 -42.68 
L 319.032038 -42.68 
L 320.648072 -42.68 
L 322.264106 -42.68 
L 323.880139 -42.68 
L 325.496173 -42.68 
L 327.112206 -42.68 
L 328.72824 -42.68 
L 330.344273 -42.68 
L 331.960307 -42.68 
L 333.576341 -42.68 
L 335.192374 -42.68 
L 336.808408 -42.68 
L 338.424441 -42.68 
L 340.040475 -42.68 
L 341.656508 -42.68 
L 343.272542 -42.68 
L 344.888576 -42.68 
L 346.504609 -42.68 
L 348.120643 -42.68 
L 349.736676 -42.68 
L 351.35271 -42.68 
L 352.968744 -42.68 
L 354.584777 -42.68 
L 356.200811 -42.68 
L 357.816844 -42.68 
L 359.432878 -42.68 
L 361.048911 -42.68 
L 362.664945 -42.68 
L 364.280979 -42.68 
L 365.897012 -42.68 
L 367.513046 -42.68 
L 369.129079 -42.68 
L 370.745113 -42.68 
L 372.361147 -42.68 
L 373.97718 -42.68 
L 375.593214 -42.68 
L 377.209247 -42.68 
L 378.825281 -42.68 
L 380.441314 -42.68 
L 382.057348 -42.68 
L 383.673382 -42.68 
L 385.289415 -42.68 
L 386.905449 -42.68 
L 388.521482 -42.68 
L 390.137516 -42.68 
L 391.75355 -42.68 
L 393.369583 -42.68 
L 394.985617 -42.68 
L 396.60165 -42.68 
L 398.217684 -42.68 
L 399.833717 -42.68 
L 401.449751 -42.68 
L 403.065785 -42.68 
L 404.681818 -42.68 
L 404.681818 -42.700053 
L 404.681818 -42.700053 
L 403.065785 -42.708705 
L 401.449751 -42.72059 
L 399.833717 -42.736708 
L 398.217684 -42.75829 
L 396.60165 -42.786832 
L 394.985617 -42.824119 
L 393.369583 -42.87226 
L 391.75355 -42.933704 
L 390.137516 -43.011268 
L 388.521482 -43.108156 
L 386.905449 -43.227982 
L 385.289415 -43.374798 
L 383.673382 -43.553125 
L 382.057348 -43.768004 
L 380.441314 -44.025054 
L 378.825281 -44.330543 
L 377.209247 -44.691481 
L 375.593214 -45.115711 
L 373.97718 -45.612012 
L 372.361147 -46.190182 
L 370.745113 -46.861109 
L 369.129079 -47.636804 
L 367.513046 -48.530391 
L 365.897012 -49.556047 
L 364.280979 -50.728903 
L 362.664945 -52.064883 
L 361.048911 -53.580538 
L 359.432878 -55.292857 
L 357.816844 -57.219093 
L 356.200811 -59.376631 
L 354.584777 -61.782892 
L 352.968744 -64.455298 
L 351.35271 -67.411271 
L 349.736676 -70.668241 
L 348.120643 -74.243633 
L 346.504609 -78.154773 
L 344.888576 -82.418654 
L 343.272542 -87.051539 
L 341.656508 -92.06834 
L 340.040475 -97.481787 
L 338.424441 -103.301404 
L 336.808408 -109.532355 
L 335.192374 -116.174237 
L 333.576341 -123.219944 
L 331.960307 -130.65473 
L 330.344273 -138.455584 
L 328.72824 -146.591037 
L 327.112206 -155.021474 
L 325.496173 -163.699982 
L 323.880139 -172.573721 
L 322.264106 -181.585739 
L 320.648072 -190.677118 
L 319.032038 -199.789274 
L 317.416005 -208.866228 
L 315.799971 -217.856661 
L 314.183938 -226.715542 
L 312.567904 -235.405206 
L 310.95187 -243.895757 
L 309.335837 -252.164764 
L 307.719803 -260.196271 
L 306.10377 -267.979233 
L 304.487736 -275.505521 
L 302.871703 -282.767708 
L 301.255669 -289.756876 
L 299.639635 -296.460686 
L 298.023602 -302.861916 
L 296.407568 -308.93766 
L 294.791535 -314.659287 
L 293.175501 -319.9932 
L 291.559467 -324.902345 
L 289.943434 -329.348331 
L 288.3274 -333.293987 
L 286.711367 -336.706085 
L 285.095333 -339.557996 
L 283.4793 -341.831988 
L 281.863266 -343.52098 
L 280.247232 -344.629555 
L 278.631199 -345.174169 
L 277.015165 -345.182544 
L 275.399132 -344.692316 
L 273.783098 -343.749117 
L 272.167064 -342.404261 
L 270.551031 -340.712304 
L 268.934997 -338.728683 
L 267.318964 -336.507662 
L 265.70293 -334.100725 
L 264.086897 -331.555511 
L 262.470863 -328.915306 
L 260.854829 -326.219029 
L 259.238796 -323.501603 
L 257.622762 -320.794552 
L 256.006729 -318.126647 
L 254.390695 -315.524456 
L 252.774661 -313.012659 
L 251.158628 -310.614054 
L 249.542594 -308.349245 
L 247.926561 -306.236036 
L 246.310527 -304.288636 
L 244.694494 -302.516784 
L 243.07846 -300.92493 
L 241.462426 -299.511603 
L 239.846393 -298.269051 
L 238.230359 -297.183235 
L 236.614326 -296.234179 
L 234.998292 -295.396666 
L 233.382259 -294.641221 
L 231.766225 -293.935309 
L 230.150191 -293.244663 
L 228.534158 -292.534651 
L 226.918124 -291.771631 
L 225.302091 -290.92421 
L 223.686057 -289.964389 
L 222.070023 -288.86854 
L 220.45399 -287.618212 
L 218.837956 -286.200721 
L 217.221923 -284.609524 
L 215.605889 -282.844334 
L 213.989856 -280.910979 
L 212.373822 -278.820976 
L 210.757788 -276.590848 
L 209.141755 -274.241182 
L 207.525721 -271.795508 
L 205.909688 -269.279042 
L 204.293654 -266.717403 
L 202.67762 -264.135383 
L 201.061587 -261.555884 
L 199.445553 -258.999101 
L 197.82952 -256.482017 
L 196.213486 -254.018246 
L 194.597453 -251.61823 
L 192.981419 -249.289756 
L 191.365385 -247.038729 
L 189.749352 -244.870113 
L 188.133318 -242.788945 
L 186.517285 -240.801297 
L 184.901251 -238.915078 
L 183.285217 -237.140593 
L 181.669184 -235.490744 
L 180.05315 -233.980835 
L 178.437117 -232.627934 
L 176.821083 -231.44978 
L 175.20505 -230.46326 
L 173.589016 -229.682507 
L 171.972982 -229.116708 
L 170.356949 -228.767747 
L 168.740915 -228.627832 
L 167.124882 -228.677282 
L 165.508848 -228.882696 
L 163.892814 -229.195672 
L 162.276781 -229.552317 
L 160.660747 -229.873671 
L 159.044714 -230.067193 
L 157.42868 -230.029352 
L 155.812647 -229.649277 
L 154.196613 -228.813361 
L 152.580579 -227.410588 
L 150.964546 -225.338287 
L 149.348512 -222.507954 
L 147.732479 -218.850727 
L 146.116445 -214.322128 
L 144.500411 -208.905683 
L 142.884378 -202.615126 
L 141.268344 -195.494982 
L 139.652311 -187.619449 
L 138.036277 -179.089614 
L 136.420244 -170.02919 
L 134.80421 -160.579061 
L 133.188176 -150.890993 
L 131.572143 -141.120955 
L 129.956109 -131.422484 
L 128.340076 -121.940501 
L 126.724042 -112.805957 
L 125.108009 -104.131559 
L 123.491975 -96.008782 
L 121.875941 -88.506207 
L 120.259908 -81.66917 
L 118.643874 -75.520601 
L 117.027841 -70.062848 
L 115.411807 -65.280268 
L 113.795773 -61.142317 
L 112.17974 -57.606892 
L 110.563706 -54.623686 
L 108.947673 -52.13737 
L 107.331639 -50.090444 
L 105.715606 -48.425664 
L 104.099572 -47.087981 
L 102.483538 -46.025993 
L 100.867505 -45.192922 
L 99.251471 -44.547176 
L 97.635438 -44.052549 
L 96.019404 -43.678137 
L 94.40337 -43.398054 
L 92.787337 -43.19099 
L 91.171303 -43.039699 
L 89.55527 -42.930451 
L 87.939236 -42.852482 
L 86.323203 -42.797486 
L 84.707169 -42.759147 
L 83.091135 -42.732731 
z
" style="stroke: #2166ac; stroke-width: 2.5"/>
    </defs>
    <g clip-path="url(#p6ee929e0aa)">
     <use xlink:href="#md5bd2776ea" x="0" y="432" style="fill: #2166ac; fill-opacity: 0.5; stroke: #2166ac; stroke-width: 2.5"/>
    </g>
   </g>
   <g id="matplotlib.axis_1">
    <g id="xtick_1">
     <g id="line2d_1">
      <defs>
       <path id="m7a4934c898" d="M 0 0 
L 0 3.5 
" style="stroke: #000000; stroke-width: 0.8"/>
      </defs>
      <g>
       <use xlink:href="#m7a4934c898" x="65.378085" y="389.32" style="stroke: #000000; stroke-width: 0.8"/>
      </g>
     </g>
     <g id="text_1">
      <!-- −10 -->
      <g transform="translate(54.825742 403.918437) scale(0.1 -0.1)">
       <defs>
        <path id="DejaVuSans-2212" d="M 678 2272 
L 4684 2272 
L 4684 1741 
L 678 1741 
L 678 2272 
z
" transform="scale(0.015625)"/>
        <path id="DejaVuSans-31" d="M 794 531 
L 1825 531 
L 1825 4091 
L 703 3866 
L 703 4441 
L 1819 4666 
L 2450 4666 
L 2450 531 
L 3481 531 
L 3481 0 
L 794 0 
L 794 531 
z
" transform="scale(0.015625)"/>
        <path id="DejaVuSans-30" d="M 2034 4250 
Q 1547 4250 1301 3770 
Q 1056 3291 1056 2328 
Q 1056 1369 1301 889 
Q 1547 409 2034 409 
Q 2525 409 2770 889 
Q 3016 1369 3016 2328 
Q 3016 3291 2770 3770 
Q 2525 4250 2034 4250 
z
M 2034 4750 
Q 2819 4750 3233 4129 
Q 3647 3509 3647 2328 
Q 3647 1150 3233 529 
Q 2819 -91 2034 -91 
Q 1250 -91 836 529 
Q 422 1150 422 2328 
Q 422 3509 836 4129 
Q 1250 4750 2034 4750 
z
" transform="scale(0.015625)"/>
       </defs>
       <use xlink:href="#DejaVuSans-2212"/>
       <use xlink:href="#DejaVuSans-31" x="83.789062"/>
       <use xlink:href="#DejaVuSans-30" x="147.412109"/>
      </g>
     </g>
    </g>
    <g id="xtick_2">
     <g id="line2d_2">
      <g>
       <use xlink:href="#m7a4934c898" x="145.837021" y="389.32" style="stroke: #000000; stroke-width: 0.8"/>
      </g>
     </g>
     <g id="text_2">
      <!-- −5 -->
      <g transform="translate(138.465927 403.918437) scale(0.1 -0.1)">
       <defs>
        <path id="DejaVuSans-35" d="M 691 4666 
L 3169 4666 
L 3169 4134 
L 1269 4134 
L 1269 2991 
Q 1406 3038 1543 3061 
Q 1681 3084 1819 3084 
Q 2600 3084 3056 2656 
Q 3513 2228 3513 1497 
Q 3513 744 3044 326 
Q 2575 -91 1722 -91 
Q 1428 -91 1123 -41 
Q 819 9 494 109 
L 494 744 
Q 775 591 1075 516 
Q 1375 441 1709 441 
Q 2250 441 2565 725 
Q 2881 1009 2881 1497 
Q 2881 1984 2565 2268 
Q 2250 2553 1709 2553 
Q 1456 2553 1204 2497 
Q 953 2441 691 2322 
L 691 4666 
z
" transform="scale(0.015625)"/>
       </defs>
       <use xlink:href="#DejaVuSans-2212"/>
       <use xlink:href="#DejaVuSans-35" x="83.789062"/>
      </g>
     </g>
    </g>
    <g id="xtick_3">
     <g id="line2d_3">
      <g>
       <use xlink:href="#m7a4934c898" x="226.295956" y="389.32" style="stroke: #000000; stroke-width: 0.8"/>
      </g>
     </g>
     <g id="text_3">
      <!-- 0 -->
      <g transform="translate(223.114706 403.918437) scale(0.1 -0.1)">
       <use xlink:href="#DejaVuSans-30"/>
      </g>
     </g>
    </g>
    <g id="xtick_4">
     <g id="line2d_4">
      <g>
       <use xlink:href="#m7a4934c898" x="306.754892" y="389.32" style="stroke: #000000; stroke-width: 0.8"/>
      </g>
     </g>
     <g id="text_4">
      <!-- 5 -->
      <g transform="translate(303.573642 403.918437) scale(0.1 -0.1)">
       <use xlink:href="#DejaVuSans-35"/>
      </g>
     </g>
    </g>
    <g id="xtick_5">
     <g id="line2d_5">
      <g>
       <use xlink:href="#m7a4934c898" x="387.213827" y="389.32" style="stroke: #000000; stroke-width: 0.8"/>
      </g>
     </g>
     <g id="text_5">
      <!-- 10 -->
      <g transform="translate(380.851327 403.918437) scale(0.1 -0.1)">
       <use xlink:href="#DejaVuSans-31"/>
       <use xlink:href="#DejaVuSans-30" x="63.623047"/>
      </g>
     </g>
    </g>
    <g id="text_6">
     <!-- Predicted Fluorescence -->
     <g transform="translate(169.90375 419.11625) scale(0.12 -0.12)">
      <defs>
       <path id="DejaVuSans-50" d="M 1259 4147 
L 1259 2394 
L 2053 2394 
Q 2494 2394 2734 2622 
Q 2975 2850 2975 3272 
Q 2975 3691 2734 3919 
Q 2494 4147 2053 4147 
L 1259 4147 
z
M 628 4666 
L 2053 4666 
Q 2838 4666 3239 4311 
Q 3641 3956 3641 3272 
Q 3641 2581 3239 2228 
Q 2838 1875 2053 1875 
L 1259 1875 
L 1259 0 
L 628 0 
L 628 4666 
z
" transform="scale(0.015625)"/>
       <path id="DejaVuSans-72" d="M 2631 2963 
Q 2534 3019 2420 3045 
Q 2306 3072 2169 3072 
Q 1681 3072 1420 2755 
Q 1159 2438 1159 1844 
L 1159 0 
L 581 0 
L 581 3500 
L 1159 3500 
L 1159 2956 
Q 1341 3275 1631 3429 
Q 1922 3584 2338 3584 
Q 2397 3584 2469 3576 
Q 2541 3569 2628 3553 
L 2631 2963 
z
" transform="scale(0.015625)"/>
       <path id="DejaVuSans-65" d="M 3597 1894 
L 3597 1613 
L 953 1613 
Q 991 1019 1311 708 
Q 1631 397 2203 397 
Q 2534 397 2845 478 
Q 3156 559 3463 722 
L 3463 178 
Q 3153 47 2828 -22 
Q 2503 -91 2169 -91 
Q 1331 -91 842 396 
Q 353 884 353 1716 
Q 353 2575 817 3079 
Q 1281 3584 2069 3584 
Q 2775 3584 3186 3129 
Q 3597 2675 3597 1894 
z
M 3022 2063 
Q 3016 2534 2758 2815 
Q 2500 3097 2075 3097 
Q 1594 3097 1305 2825 
Q 1016 2553 972 2059 
L 3022 2063 
z
" transform="scale(0.015625)"/>
       <path id="DejaVuSans-64" d="M 2906 2969 
L 2906 4863 
L 3481 4863 
L 3481 0 
L 2906 0 
L 2906 525 
Q 2725 213 2448 61 
Q 2172 -91 1784 -91 
Q 1150 -91 751 415 
Q 353 922 353 1747 
Q 353 2572 751 3078 
Q 1150 3584 1784 3584 
Q 2172 3584 2448 3432 
Q 2725 3281 2906 2969 
z
M 947 1747 
Q 947 1113 1208 752 
Q 1469 391 1925 391 
Q 2381 391 2643 752 
Q 2906 1113 2906 1747 
Q 2906 2381 2643 2742 
Q 2381 3103 1925 3103 
Q 1469 3103 1208 2742 
Q 947 2381 947 1747 
z
" transform="scale(0.015625)"/>
       <path id="DejaVuSans-69" d="M 603 3500 
L 1178 3500 
L 1178 0 
L 603 0 
L 603 3500 
z
M 603 4863 
L 1178 4863 
L 1178 4134 
L 603 4134 
L 603 4863 
z
" transform="scale(0.015625)"/>
       <path id="DejaVuSans-63" d="M 3122 3366 
L 3122 2828 
Q 2878 2963 2633 3030 
Q 2388 3097 2138 3097 
Q 1578 3097 1268 2742 
Q 959 2388 959 1747 
Q 959 1106 1268 751 
Q 1578 397 2138 397 
Q 2388 397 2633 464 
Q 2878 531 3122 666 
L 3122 134 
Q 2881 22 2623 -34 
Q 2366 -91 2075 -91 
Q 1284 -91 818 406 
Q 353 903 353 1747 
Q 353 2603 823 3093 
Q 1294 3584 2113 3584 
Q 2378 3584 2631 3529 
Q 2884 3475 3122 3366 
z
" transform="scale(0.015625)"/>
       <path id="DejaVuSans-74" d="M 1172 4494 
L 1172 3500 
L 2356 3500 
L 2356 3053 
L 1172 3053 
L 1172 1153 
Q 1172 725 1289 603 
Q 1406 481 1766 481 
L 2356 481 
L 2356 0 
L 1766 0 
Q 1100 0 847 248 
Q 594 497 594 1153 
L 594 3053 
L 172 3053 
L 172 3500 
L 594 3500 
L 594 4494 
L 1172 4494 
z
" transform="scale(0.015625)"/>
       <path id="DejaVuSans-20" transform="scale(0.015625)"/>
       <path id="DejaVuSans-46" d="M 628 4666 
L 3309 4666 
L 3309 4134 
L 1259 4134 
L 1259 2759 
L 3109 2759 
L 3109 2228 
L 1259 2228 
L 1259 0 
L 628 0 
L 628 4666 
z
" transform="scale(0.015625)"/>
       <path id="DejaVuSans-6c" d="M 603 4863 
L 1178 4863 
L 1178 0 
L 603 0 
L 603 4863 
z
" transform="scale(0.015625)"/>
       <path id="DejaVuSans-75" d="M 544 1381 
L 544 3500 
L 1119 3500 
L 1119 1403 
Q 1119 906 1312 657 
Q 1506 409 1894 409 
Q 2359 409 2629 706 
Q 2900 1003 2900 1516 
L 2900 3500 
L 3475 3500 
L 3475 0 
L 2900 0 
L 2900 538 
Q 2691 219 2414 64 
Q 2138 -91 1772 -91 
Q 1169 -91 856 284 
Q 544 659 544 1381 
z
M 1991 3584 
L 1991 3584 
z
" transform="scale(0.015625)"/>
       <path id="DejaVuSans-6f" d="M 1959 3097 
Q 1497 3097 1228 2736 
Q 959 2375 959 1747 
Q 959 1119 1226 758 
Q 1494 397 1959 397 
Q 2419 397 2687 759 
Q 2956 1122 2956 1747 
Q 2956 2369 2687 2733 
Q 2419 3097 1959 3097 
z
M 1959 3584 
Q 2709 3584 3137 3096 
Q 3566 2609 3566 1747 
Q 3566 888 3137 398 
Q 2709 -91 1959 -91 
Q 1206 -91 779 398 
Q 353 888 353 1747 
Q 353 2609 779 3096 
Q 1206 3584 1959 3584 
z
" transform="scale(0.015625)"/>
       <path id="DejaVuSans-73" d="M 2834 3397 
L 2834 2853 
Q 2591 2978 2328 3040 
Q 2066 3103 1784 3103 
Q 1356 3103 1142 2972 
Q 928 2841 928 2578 
Q 928 2378 1081 2264 
Q 1234 2150 1697 2047 
L 1894 2003 
Q 2506 1872 2764 1633 
Q 3022 1394 3022 966 
Q 3022 478 2636 193 
Q 2250 -91 1575 -91 
Q 1294 -91 989 -36 
Q 684 19 347 128 
L 347 722 
Q 666 556 975 473 
Q 1284 391 1588 391 
Q 1994 391 2212 530 
Q 2431 669 2431 922 
Q 2431 1156 2273 1281 
Q 2116 1406 1581 1522 
L 1381 1569 
Q 847 1681 609 1914 
Q 372 2147 372 2553 
Q 372 3047 722 3315 
Q 1072 3584 1716 3584 
Q 2034 3584 2315 3537 
Q 2597 3491 2834 3397 
z
" transform="scale(0.015625)"/>
       <path id="DejaVuSans-6e" d="M 3513 2113 
L 3513 0 
L 2938 0 
L 2938 2094 
Q 2938 2591 2744 2837 
Q 2550 3084 2163 3084 
Q 1697 3084 1428 2787 
Q 1159 2491 1159 1978 
L 1159 0 
L 581 0 
L 581 3500 
L 1159 3500 
L 1159 2956 
Q 1366 3272 1645 3428 
Q 1925 3584 2291 3584 
Q 2894 3584 3203 3211 
Q 3513 2838 3513 2113 
z
" transform="scale(0.015625)"/>
      </defs>
      <use xlink:href="#DejaVuSans-50"/>
      <use xlink:href="#DejaVuSans-72" x="58.552734"/>
      <use xlink:href="#DejaVuSans-65" x="97.416016"/>
      <use xlink:href="#DejaVuSans-64" x="158.939453"/>
      <use xlink:href="#DejaVuSans-69" x="222.416016"/>
      <use xlink:href="#DejaVuSans-63" x="250.199219"/>
      <use xlink:href="#DejaVuSans-74" x="305.179688"/>
      <use xlink:href="#DejaVuSans-65" x="344.388672"/>
      <use xlink:href="#DejaVuSans-64" x="405.912109"/>
      <use xlink:href="#DejaVuSans-20" x="469.388672"/>
      <use xlink:href="#DejaVuSans-46" x="501.175781"/>
      <use xlink:href="#DejaVuSans-6c" x="558.695312"/>
      <use xlink:href="#DejaVuSans-75" x="586.478516"/>
      <use xlink:href="#DejaVuSans-6f" x="649.857422"/>
      <use xlink:href="#DejaVuSans-72" x="711.039062"/>
      <use xlink:href="#DejaVuSans-65" x="749.902344"/>
      <use xlink:href="#DejaVuSans-73" x="811.425781"/>
      <use xlink:href="#DejaVuSans-63" x="863.525391"/>
      <use xlink:href="#DejaVuSans-65" x="918.505859"/>
      <use xlink:href="#DejaVuSans-6e" x="980.029297"/>
      <use xlink:href="#DejaVuSans-63" x="1043.408203"/>
      <use xlink:href="#DejaVuSans-65" x="1098.388672"/>
     </g>
    </g>
   </g>
   <g id="matplotlib.axis_2">
    <g id="ytick_1">
     <g id="line2d_6">
      <defs>
       <path id="m66a15252b3" d="M 0 0 
L -3.5 0 
" style="stroke: #000000; stroke-width: 0.8"/>
      </defs>
      <g>
       <use xlink:href="#m66a15252b3" x="57.8" y="389.32" style="stroke: #000000; stroke-width: 0.8"/>
      </g>
     </g>
     <g id="text_7">
      <!-- 0.00 -->
      <g transform="translate(28.534375 393.119219) scale(0.1 -0.1)">
       <defs>
        <path id="DejaVuSans-2e" d="M 684 794 
L 1344 794 
L 1344 0 
L 684 0 
L 684 794 
z
" transform="scale(0.015625)"/>
       </defs>
       <use xlink:href="#DejaVuSans-30"/>
       <use xlink:href="#DejaVuSans-2e" x="63.623047"/>
       <use xlink:href="#DejaVuSans-30" x="95.410156"/>
       <use xlink:href="#DejaVuSans-30" x="159.033203"/>
      </g>
     </g>
    </g>
    <g id="ytick_2">
     <g id="line2d_7">
      <g>
       <use xlink:href="#m66a15252b3" x="57.8" y="331.169664" style="stroke: #000000; stroke-width: 0.8"/>
      </g>
     </g>
     <g id="text_8">
      <!-- 0.02 -->
      <g transform="translate(28.534375 334.968882) scale(0.1 -0.1)">
       <defs>
        <path id="DejaVuSans-32" d="M 1228 531 
L 3431 531 
L 3431 0 
L 469 0 
L 469 531 
Q 828 903 1448 1529 
Q 2069 2156 2228 2338 
Q 2531 2678 2651 2914 
Q 2772 3150 2772 3378 
Q 2772 3750 2511 3984 
Q 2250 4219 1831 4219 
Q 1534 4219 1204 4116 
Q 875 4013 500 3803 
L 500 4441 
Q 881 4594 1212 4672 
Q 1544 4750 1819 4750 
Q 2544 4750 2975 4387 
Q 3406 4025 3406 3419 
Q 3406 3131 3298 2873 
Q 3191 2616 2906 2266 
Q 2828 2175 2409 1742 
Q 1991 1309 1228 531 
z
" transform="scale(0.015625)"/>
       </defs>
       <use xlink:href="#DejaVuSans-30"/>
       <use xlink:href="#DejaVuSans-2e" x="63.623047"/>
       <use xlink:href="#DejaVuSans-30" x="95.410156"/>
       <use xlink:href="#DejaVuSans-32" x="159.033203"/>
      </g>
     </g>
    </g>
    <g id="ytick_3">
     <g id="line2d_8">
      <g>
       <use xlink:href="#m66a15252b3" x="57.8" y="273.019327" style="stroke: #000000; stroke-width: 0.8"/>
      </g>
     </g>
     <g id="text_9">
      <!-- 0.04 -->
      <g transform="translate(28.534375 276.818546) scale(0.1 -0.1)">
       <defs>
        <path id="DejaVuSans-34" d="M 2419 4116 
L 825 1625 
L 2419 1625 
L 2419 4116 
z
M 2253 4666 
L 3047 4666 
L 3047 1625 
L 3713 1625 
L 3713 1100 
L 3047 1100 
L 3047 0 
L 2419 0 
L 2419 1100 
L 313 1100 
L 313 1709 
L 2253 4666 
z
" transform="scale(0.015625)"/>
       </defs>
       <use xlink:href="#DejaVuSans-30"/>
       <use xlink:href="#DejaVuSans-2e" x="63.623047"/>
       <use xlink:href="#DejaVuSans-30" x="95.410156"/>
       <use xlink:href="#DejaVuSans-34" x="159.033203"/>
      </g>
     </g>
    </g>
    <g id="ytick_4">
     <g id="line2d_9">
      <g>
       <use xlink:href="#m66a15252b3" x="57.8" y="214.868991" style="stroke: #000000; stroke-width: 0.8"/>
      </g>
     </g>
     <g id="text_10">
      <!-- 0.06 -->
      <g transform="translate(28.534375 218.668209) scale(0.1 -0.1)">
       <defs>
        <path id="DejaVuSans-36" d="M 2113 2584 
Q 1688 2584 1439 2293 
Q 1191 2003 1191 1497 
Q 1191 994 1439 701 
Q 1688 409 2113 409 
Q 2538 409 2786 701 
Q 3034 994 3034 1497 
Q 3034 2003 2786 2293 
Q 2538 2584 2113 2584 
z
M 3366 4563 
L 3366 3988 
Q 3128 4100 2886 4159 
Q 2644 4219 2406 4219 
Q 1781 4219 1451 3797 
Q 1122 3375 1075 2522 
Q 1259 2794 1537 2939 
Q 1816 3084 2150 3084 
Q 2853 3084 3261 2657 
Q 3669 2231 3669 1497 
Q 3669 778 3244 343 
Q 2819 -91 2113 -91 
Q 1303 -91 875 529 
Q 447 1150 447 2328 
Q 447 3434 972 4092 
Q 1497 4750 2381 4750 
Q 2619 4750 2861 4703 
Q 3103 4656 3366 4563 
z
" transform="scale(0.015625)"/>
       </defs>
       <use xlink:href="#DejaVuSans-30"/>
       <use xlink:href="#DejaVuSans-2e" x="63.623047"/>
       <use xlink:href="#DejaVuSans-30" x="95.410156"/>
       <use xlink:href="#DejaVuSans-36" x="159.033203"/>
      </g>
     </g>
    </g>
    <g id="ytick_5">
     <g id="line2d_10">
      <g>
       <use xlink:href="#m66a15252b3" x="57.8" y="156.718654" style="stroke: #000000; stroke-width: 0.8"/>
      </g>
     </g>
     <g id="text_11">
      <!-- 0.08 -->
      <g transform="translate(28.534375 160.517873) scale(0.1 -0.1)">
       <defs>
        <path id="DejaVuSans-38" d="M 2034 2216 
Q 1584 2216 1326 1975 
Q 1069 1734 1069 1313 
Q 1069 891 1326 650 
Q 1584 409 2034 409 
Q 2484 409 2743 651 
Q 3003 894 3003 1313 
Q 3003 1734 2745 1975 
Q 2488 2216 2034 2216 
z
M 1403 2484 
Q 997 2584 770 2862 
Q 544 3141 544 3541 
Q 544 4100 942 4425 
Q 1341 4750 2034 4750 
Q 2731 4750 3128 4425 
Q 3525 4100 3525 3541 
Q 3525 3141 3298 2862 
Q 3072 2584 2669 2484 
Q 3125 2378 3379 2068 
Q 3634 1759 3634 1313 
Q 3634 634 3220 271 
Q 2806 -91 2034 -91 
Q 1263 -91 848 271 
Q 434 634 434 1313 
Q 434 1759 690 2068 
Q 947 2378 1403 2484 
z
M 1172 3481 
Q 1172 3119 1398 2916 
Q 1625 2713 2034 2713 
Q 2441 2713 2670 2916 
Q 2900 3119 2900 3481 
Q 2900 3844 2670 4047 
Q 2441 4250 2034 4250 
Q 1625 4250 1398 4047 
Q 1172 3844 1172 3481 
z
" transform="scale(0.015625)"/>
       </defs>
       <use xlink:href="#DejaVuSans-30"/>
       <use xlink:href="#DejaVuSans-2e" x="63.623047"/>
       <use xlink:href="#DejaVuSans-30" x="95.410156"/>
       <use xlink:href="#DejaVuSans-38" x="159.033203"/>
      </g>
     </g>
    </g>
    <g id="ytick_6">
     <g id="line2d_11">
      <g>
       <use xlink:href="#m66a15252b3" x="57.8" y="98.568318" style="stroke: #000000; stroke-width: 0.8"/>
      </g>
     </g>
     <g id="text_12">
      <!-- 0.10 -->
      <g transform="translate(28.534375 102.367536) scale(0.1 -0.1)">
       <use xlink:href="#DejaVuSans-30"/>
       <use xlink:href="#DejaVuSans-2e" x="63.623047"/>
       <use xlink:href="#DejaVuSans-31" x="95.410156"/>
       <use xlink:href="#DejaVuSans-30" x="159.033203"/>
      </g>
     </g>
    </g>
    <g id="ytick_7">
     <g id="line2d_12">
      <g>
       <use xlink:href="#m66a15252b3" x="57.8" y="40.417981" style="stroke: #000000; stroke-width: 0.8"/>
      </g>
     </g>
     <g id="text_13">
      <!-- 0.12 -->
      <g transform="translate(28.534375 44.2172) scale(0.1 -0.1)">
       <use xlink:href="#DejaVuSans-30"/>
       <use xlink:href="#DejaVuSans-2e" x="63.623047"/>
       <use xlink:href="#DejaVuSans-31" x="95.410156"/>
       <use xlink:href="#DejaVuSans-32" x="159.033203"/>
      </g>
     </g>
    </g>
    <g id="text_14">
     <!-- Density -->
     <g transform="translate(21.622813 226.672031) rotate(-90) scale(0.14 -0.14)">
      <defs>
       <path id="DejaVuSans-44" d="M 1259 4147 
L 1259 519 
L 2022 519 
Q 2988 519 3436 956 
Q 3884 1394 3884 2338 
Q 3884 3275 3436 3711 
Q 2988 4147 2022 4147 
L 1259 4147 
z
M 628 4666 
L 1925 4666 
Q 3281 4666 3915 4102 
Q 4550 3538 4550 2338 
Q 4550 1131 3912 565 
Q 3275 0 1925 0 
L 628 0 
L 628 4666 
z
" transform="scale(0.015625)"/>
       <path id="DejaVuSans-79" d="M 2059 -325 
Q 1816 -950 1584 -1140 
Q 1353 -1331 966 -1331 
L 506 -1331 
L 506 -850 
L 844 -850 
Q 1081 -850 1212 -737 
Q 1344 -625 1503 -206 
L 1606 56 
L 191 3500 
L 800 3500 
L 1894 763 
L 2988 3500 
L 3597 3500 
L 2059 -325 
z
" transform="scale(0.015625)"/>
      </defs>
      <use xlink:href="#DejaVuSans-44"/>
      <use xlink:href="#DejaVuSans-65" x="77.001953"/>
      <use xlink:href="#DejaVuSans-6e" x="138.525391"/>
      <use xlink:href="#DejaVuSans-73" x="201.904297"/>
      <use xlink:href="#DejaVuSans-69" x="254.003906"/>
      <use xlink:href="#DejaVuSans-74" x="281.787109"/>
      <use xlink:href="#DejaVuSans-79" x="320.996094"/>
     </g>
    </g>
   </g>
   <g id="line2d_13">
    <path d="M 184.678225 389.32 
L 184.678225 10.8 
" clip-path="url(#p6ee929e0aa)" style="fill: none; stroke-dasharray: 3.7,1.6; stroke-dashoffset: 0; stroke: #000000"/>
   </g>
   <g id="patch_3">
    <path d="M 57.8 389.32 
L 57.8 10.8 
" style="fill: none; stroke: #000000; stroke-width: 0.8; stroke-linejoin: miter; stroke-linecap: square"/>
   </g>
   <g id="patch_4">
    <path d="M 57.8 389.32 
L 421.2 389.32 
" style="fill: none; stroke: #000000; stroke-width: 0.8; stroke-linejoin: miter; stroke-linecap: square"/>
   </g>
   <g id="legend_1">
    <g id="patch_5">
     <path d="M 257.389062 77.5125 
L 414.2 77.5125 
Q 416.2 77.5125 416.2 75.5125 
L 416.2 17.8 
Q 416.2 15.8 414.2 15.8 
L 257.389062 15.8 
Q 255.389062 15.8 255.389062 17.8 
L 255.389062 75.5125 
Q 255.389062 77.5125 257.389062 77.5125 
z
" style="fill: #ffffff; opacity: 0.8; stroke: #cccccc; stroke-linejoin: miter"/>
    </g>
    <g id="patch_6">
     <path d="M 259.389062 27.398438 
L 279.389062 27.398438 
L 279.389062 20.398438 
L 259.389062 20.398438 
z
" style="fill: #bdbdbd; fill-opacity: 0.5; stroke: #bdbdbd; stroke-width: 2.5; stroke-linejoin: miter"/>
    </g>
    <g id="text_15">
     <!-- Pre-trained ESM2 (650M) -->
     <g transform="translate(287.389062 27.398438) scale(0.1 -0.1)">
      <defs>
       <path id="DejaVuSans-2d" d="M 313 2009 
L 1997 2009 
L 1997 1497 
L 313 1497 
L 313 2009 
z
" transform="scale(0.015625)"/>
       <path id="DejaVuSans-61" d="M 2194 1759 
Q 1497 1759 1228 1600 
Q 959 1441 959 1056 
Q 959 750 1161 570 
Q 1363 391 1709 391 
Q 2188 391 2477 730 
Q 2766 1069 2766 1631 
L 2766 1759 
L 2194 1759 
z
M 3341 1997 
L 3341 0 
L 2766 0 
L 2766 531 
Q 2569 213 2275 61 
Q 1981 -91 1556 -91 
Q 1019 -91 701 211 
Q 384 513 384 1019 
Q 384 1609 779 1909 
Q 1175 2209 1959 2209 
L 2766 2209 
L 2766 2266 
Q 2766 2663 2505 2880 
Q 2244 3097 1772 3097 
Q 1472 3097 1187 3025 
Q 903 2953 641 2809 
L 641 3341 
Q 956 3463 1253 3523 
Q 1550 3584 1831 3584 
Q 2591 3584 2966 3190 
Q 3341 2797 3341 1997 
z
" transform="scale(0.015625)"/>
       <path id="DejaVuSans-45" d="M 628 4666 
L 3578 4666 
L 3578 4134 
L 1259 4134 
L 1259 2753 
L 3481 2753 
L 3481 2222 
L 1259 2222 
L 1259 531 
L 3634 531 
L 3634 0 
L 628 0 
L 628 4666 
z
" transform="scale(0.015625)"/>
       <path id="DejaVuSans-53" d="M 3425 4513 
L 3425 3897 
Q 3066 4069 2747 4153 
Q 2428 4238 2131 4238 
Q 1616 4238 1336 4038 
Q 1056 3838 1056 3469 
Q 1056 3159 1242 3001 
Q 1428 2844 1947 2747 
L 2328 2669 
Q 3034 2534 3370 2195 
Q 3706 1856 3706 1288 
Q 3706 609 3251 259 
Q 2797 -91 1919 -91 
Q 1588 -91 1214 -16 
Q 841 59 441 206 
L 441 856 
Q 825 641 1194 531 
Q 1563 422 1919 422 
Q 2459 422 2753 634 
Q 3047 847 3047 1241 
Q 3047 1584 2836 1778 
Q 2625 1972 2144 2069 
L 1759 2144 
Q 1053 2284 737 2584 
Q 422 2884 422 3419 
Q 422 4038 858 4394 
Q 1294 4750 2059 4750 
Q 2388 4750 2728 4690 
Q 3069 4631 3425 4513 
z
" transform="scale(0.015625)"/>
       <path id="DejaVuSans-4d" d="M 628 4666 
L 1569 4666 
L 2759 1491 
L 3956 4666 
L 4897 4666 
L 4897 0 
L 4281 0 
L 4281 4097 
L 3078 897 
L 2444 897 
L 1241 4097 
L 1241 0 
L 628 0 
L 628 4666 
z
" transform="scale(0.015625)"/>
       <path id="DejaVuSans-28" d="M 1984 4856 
Q 1566 4138 1362 3434 
Q 1159 2731 1159 2009 
Q 1159 1288 1364 580 
Q 1569 -128 1984 -844 
L 1484 -844 
Q 1016 -109 783 600 
Q 550 1309 550 2009 
Q 550 2706 781 3412 
Q 1013 4119 1484 4856 
L 1984 4856 
z
" transform="scale(0.015625)"/>
       <path id="DejaVuSans-29" d="M 513 4856 
L 1013 4856 
Q 1481 4119 1714 3412 
Q 1947 2706 1947 2009 
Q 1947 1309 1714 600 
Q 1481 -109 1013 -844 
L 513 -844 
Q 928 -128 1133 580 
Q 1338 1288 1338 2009 
Q 1338 2731 1133 3434 
Q 928 4138 513 4856 
z
" transform="scale(0.015625)"/>
      </defs>
      <use xlink:href="#DejaVuSans-50"/>
      <use xlink:href="#DejaVuSans-72" x="58.552734"/>
      <use xlink:href="#DejaVuSans-65" x="97.416016"/>
      <use xlink:href="#DejaVuSans-2d" x="158.939453"/>
      <use xlink:href="#DejaVuSans-74" x="195.023438"/>
      <use xlink:href="#DejaVuSans-72" x="234.232422"/>
      <use xlink:href="#DejaVuSans-61" x="275.345703"/>
      <use xlink:href="#DejaVuSans-69" x="336.625"/>
      <use xlink:href="#DejaVuSans-6e" x="364.408203"/>
      <use xlink:href="#DejaVuSans-65" x="427.787109"/>
      <use xlink:href="#DejaVuSans-64" x="489.310547"/>
      <use xlink:href="#DejaVuSans-20" x="552.787109"/>
      <use xlink:href="#DejaVuSans-45" x="584.574219"/>
      <use xlink:href="#DejaVuSans-53" x="647.757812"/>
      <use xlink:href="#DejaVuSans-4d" x="711.234375"/>
      <use xlink:href="#DejaVuSans-32" x="797.513672"/>
      <use xlink:href="#DejaVuSans-20" x="861.136719"/>
      <use xlink:href="#DejaVuSans-28" x="892.923828"/>
      <use xlink:href="#DejaVuSans-36" x="931.9375"/>
      <use xlink:href="#DejaVuSans-35" x="995.560547"/>
      <use xlink:href="#DejaVuSans-30" x="1059.183594"/>
      <use xlink:href="#DejaVuSans-4d" x="1122.806641"/>
      <use xlink:href="#DejaVuSans-29" x="1209.085938"/>
     </g>
    </g>
    <g id="patch_7">
     <path d="M 259.389062 42.076563 
L 279.389062 42.076563 
L 279.389062 35.076563 
L 259.389062 35.076563 
z
" style="fill: #92c5de; fill-opacity: 0.5; stroke: #92c5de; stroke-width: 2.5; stroke-linejoin: miter"/>
    </g>
    <g id="text_16">
     <!-- SFT ESM2 (650M) -->
     <g transform="translate(287.389062 42.076563) scale(0.1 -0.1)">
      <defs>
       <path id="DejaVuSans-54" d="M -19 4666 
L 3928 4666 
L 3928 4134 
L 2272 4134 
L 2272 0 
L 1638 0 
L 1638 4134 
L -19 4134 
L -19 4666 
z
" transform="scale(0.015625)"/>
      </defs>
      <use xlink:href="#DejaVuSans-53"/>
      <use xlink:href="#DejaVuSans-46" x="63.476562"/>
      <use xlink:href="#DejaVuSans-54" x="119.246094"/>
      <use xlink:href="#DejaVuSans-20" x="180.330078"/>
      <use xlink:href="#DejaVuSans-45" x="212.117188"/>
      <use xlink:href="#DejaVuSans-53" x="275.300781"/>
      <use xlink:href="#DejaVuSans-4d" x="338.777344"/>
      <use xlink:href="#DejaVuSans-32" x="425.056641"/>
      <use xlink:href="#DejaVuSans-20" x="488.679688"/>
      <use xlink:href="#DejaVuSans-28" x="520.466797"/>
      <use xlink:href="#DejaVuSans-36" x="559.480469"/>
      <use xlink:href="#DejaVuSans-35" x="623.103516"/>
      <use xlink:href="#DejaVuSans-30" x="686.726562"/>
      <use xlink:href="#DejaVuSans-4d" x="750.349609"/>
      <use xlink:href="#DejaVuSans-29" x="836.628906"/>
     </g>
    </g>
    <g id="patch_8">
     <path d="M 259.389062 56.754687 
L 279.389062 56.754687 
L 279.389062 49.754687 
L 259.389062 49.754687 
z
" style="fill: #2166ac; fill-opacity: 0.5; stroke: #2166ac; stroke-width: 2.5; stroke-linejoin: miter"/>
    </g>
    <g id="text_17">
     <!-- Aligned ESM2 (650M) -->
     <g transform="translate(287.389062 56.754687) scale(0.1 -0.1)">
      <defs>
       <path id="DejaVuSans-41" d="M 2188 4044 
L 1331 1722 
L 3047 1722 
L 2188 4044 
z
M 1831 4666 
L 2547 4666 
L 4325 0 
L 3669 0 
L 3244 1197 
L 1141 1197 
L 716 0 
L 50 0 
L 1831 4666 
z
" transform="scale(0.015625)"/>
       <path id="DejaVuSans-67" d="M 2906 1791 
Q 2906 2416 2648 2759 
Q 2391 3103 1925 3103 
Q 1463 3103 1205 2759 
Q 947 2416 947 1791 
Q 947 1169 1205 825 
Q 1463 481 1925 481 
Q 2391 481 2648 825 
Q 2906 1169 2906 1791 
z
M 3481 434 
Q 3481 -459 3084 -895 
Q 2688 -1331 1869 -1331 
Q 1566 -1331 1297 -1286 
Q 1028 -1241 775 -1147 
L 775 -588 
Q 1028 -725 1275 -790 
Q 1522 -856 1778 -856 
Q 2344 -856 2625 -561 
Q 2906 -266 2906 331 
L 2906 616 
Q 2728 306 2450 153 
Q 2172 0 1784 0 
Q 1141 0 747 490 
Q 353 981 353 1791 
Q 353 2603 747 3093 
Q 1141 3584 1784 3584 
Q 2172 3584 2450 3431 
Q 2728 3278 2906 2969 
L 2906 3500 
L 3481 3500 
L 3481 434 
z
" transform="scale(0.015625)"/>
      </defs>
      <use xlink:href="#DejaVuSans-41"/>
      <use xlink:href="#DejaVuSans-6c" x="68.408203"/>
      <use xlink:href="#DejaVuSans-69" x="96.191406"/>
      <use xlink:href="#DejaVuSans-67" x="123.974609"/>
      <use xlink:href="#DejaVuSans-6e" x="187.451172"/>
      <use xlink:href="#DejaVuSans-65" x="250.830078"/>
      <use xlink:href="#DejaVuSans-64" x="312.353516"/>
      <use xlink:href="#DejaVuSans-20" x="375.830078"/>
      <use xlink:href="#DejaVuSans-45" x="407.617188"/>
      <use xlink:href="#DejaVuSans-53" x="470.800781"/>
      <use xlink:href="#DejaVuSans-4d" x="534.277344"/>
      <use xlink:href="#DejaVuSans-32" x="620.556641"/>
      <use xlink:href="#DejaVuSans-20" x="684.179688"/>
      <use xlink:href="#DejaVuSans-28" x="715.966797"/>
      <use xlink:href="#DejaVuSans-36" x="754.980469"/>
      <use xlink:href="#DejaVuSans-35" x="818.603516"/>
      <use xlink:href="#DejaVuSans-30" x="882.226562"/>
      <use xlink:href="#DejaVuSans-4d" x="945.849609"/>
      <use xlink:href="#DejaVuSans-29" x="1032.128906"/>
     </g>
    </g>
    <g id="line2d_14">
     <path d="M 259.389062 67.932813 
L 269.389062 67.932813 
L 279.389062 67.932813 
" style="fill: none; stroke-dasharray: 3.7,1.6; stroke-dashoffset: 0; stroke: #000000"/>
    </g>
    <g id="text_18">
     <!-- Predicted gb1 score -->
     <g transform="translate(287.389062 71.432813) scale(0.1 -0.1)">
      <defs>
       <path id="DejaVuSans-62" d="M 3116 1747 
Q 3116 2381 2855 2742 
Q 2594 3103 2138 3103 
Q 1681 3103 1420 2742 
Q 1159 2381 1159 1747 
Q 1159 1113 1420 752 
Q 1681 391 2138 391 
Q 2594 391 2855 752 
Q 3116 1113 3116 1747 
z
M 1159 2969 
Q 1341 3281 1617 3432 
Q 1894 3584 2278 3584 
Q 2916 3584 3314 3078 
Q 3713 2572 3713 1747 
Q 3713 922 3314 415 
Q 2916 -91 2278 -91 
Q 1894 -91 1617 61 
Q 1341 213 1159 525 
L 1159 0 
L 581 0 
L 581 4863 
L 1159 4863 
L 1159 2969 
z
" transform="scale(0.015625)"/>
      </defs>
      <use xlink:href="#DejaVuSans-50"/>
      <use xlink:href="#DejaVuSans-72" x="58.552734"/>
      <use xlink:href="#DejaVuSans-65" x="97.416016"/>
      <use xlink:href="#DejaVuSans-64" x="158.939453"/>
      <use xlink:href="#DejaVuSans-69" x="222.416016"/>
      <use xlink:href="#DejaVuSans-63" x="250.199219"/>
      <use xlink:href="#DejaVuSans-74" x="305.179688"/>
      <use xlink:href="#DejaVuSans-65" x="344.388672"/>
      <use xlink:href="#DejaVuSans-64" x="405.912109"/>
      <use xlink:href="#DejaVuSans-20" x="469.388672"/>
      <use xlink:href="#DejaVuSans-67" x="501.175781"/>
      <use xlink:href="#DejaVuSans-62" x="564.652344"/>
      <use xlink:href="#DejaVuSans-31" x="628.128906"/>
      <use xlink:href="#DejaVuSans-20" x="691.751953"/>
      <use xlink:href="#DejaVuSans-73" x="723.539062"/>
      <use xlink:href="#DejaVuSans-63" x="775.638672"/>
      <use xlink:href="#DejaVuSans-6f" x="830.619141"/>
      <use xlink:href="#DejaVuSans-72" x="891.800781"/>
      <use xlink:href="#DejaVuSans-65" x="930.664062"/>
     </g>
    </g>
   </g>
  </g>
 </g>
 <defs>
  <clipPath id="p6ee929e0aa">
   <rect x="57.8" y="10.8" width="363.4" height="378.52"/>
  </clipPath>
 </defs>
</svg>
