<?xml version="1.0" encoding="utf-8" standalone="no"?>
<!DOCTYPE svg PUBLIC "-//W3C//DTD SVG 1.1//EN"
  "http://www.w3.org/Graphics/SVG/1.1/DTD/svg11.dtd">
<svg xmlns:xlink="http://www.w3.org/1999/xlink" width="432pt" height="432pt" viewBox="0 0 432 432" xmlns="http://www.w3.org/2000/svg" version="1.1">
 <metadata>
  <rdf:RDF xmlns:dc="http://purl.org/dc/elements/1.1/" xmlns:cc="http://creativecommons.org/ns#" xmlns:rdf="http://www.w3.org/1999/02/22-rdf-syntax-ns#">
   <cc:Work>
    <dc:type rdf:resource="http://purl.org/dc/dcmitype/StillImage"/>
    <dc:date>2025-04-03T01:16:27.707245</dc:date>
    <dc:format>image/svg+xml</dc:format>
    <dc:creator>
     <cc:Agent>
      <dc:title>Matplotlib v3.8.0, https://matplotlib.org/</dc:title>
     </cc:Agent>
    </dc:creator>
   </cc:Work>
  </rdf:RDF>
 </metadata>
 <defs>
  <style type="text/css">*{stroke-linejoin: round; stroke-linecap: butt}</style>
 </defs>
 <g id="figure_1">
  <g id="patch_1">
   <path d="M 0 432 
L 432 432 
L 432 0 
L 0 0 
z
" style="fill: #ffffff"/>
  </g>
  <g id="axes_1">
   <g id="patch_2">
    <path d="M 57.8 389.32 
L 421.2 389.32 
L 421.2 10.8 
L 57.8 10.8 
z
" style="fill: #ffffff"/>
   </g>
   <g id="PolyCollection_1">
    <defs>
     <path id="m504e3a1fee" d="M 74.318182 -42.698164 
L 74.318182 -42.68 
L 75.545035 -42.68 
L 76.771888 -42.68 
L 77.99874 -42.68 
L 79.225593 -42.68 
L 80.452446 -42.68 
L 81.679299 -42.68 
L 82.906152 -42.68 
L 84.133005 -42.68 
L 85.359858 -42.68 
L 86.586711 -42.68 
L 87.813563 -42.68 
L 89.040416 -42.68 
L 90.267269 -42.68 
L 91.494122 -42.68 
L 92.720975 -42.68 
L 93.947828 -42.68 
L 95.174681 -42.68 
L 96.401534 -42.68 
L 97.628386 -42.68 
L 98.855239 -42.68 
L 100.082092 -42.68 
L 101.308945 -42.68 
L 102.535798 -42.68 
L 103.762651 -42.68 
L 104.989504 -42.68 
L 106.216357 -42.68 
L 107.443209 -42.68 
L 108.670062 -42.68 
L 109.896915 -42.68 
L 111.123768 -42.68 
L 112.350621 -42.68 
L 113.577474 -42.68 
L 114.804327 -42.68 
L 116.03118 -42.68 
L 117.258032 -42.68 
L 118.484885 -42.68 
L 119.711738 -42.68 
L 120.938591 -42.68 
L 122.165444 -42.68 
L 123.392297 -42.68 
L 124.61915 -42.68 
L 125.846003 -42.68 
L 127.072855 -42.68 
L 128.299708 -42.68 
L 129.526561 -42.68 
L 130.753414 -42.68 
L 131.980267 -42.68 
L 133.20712 -42.68 
L 134.433973 -42.68 
L 135.660826 -42.68 
L 136.887678 -42.68 
L 138.114531 -42.68 
L 139.341384 -42.68 
L 140.568237 -42.68 
L 141.79509 -42.68 
L 143.021943 -42.68 
L 144.248796 -42.68 
L 145.475649 -42.68 
L 146.702501 -42.68 
L 147.929354 -42.68 
L 149.156207 -42.68 
L 150.38306 -42.68 
L 151.609913 -42.68 
L 152.836766 -42.68 
L 154.063619 -42.68 
L 155.290472 -42.68 
L 156.517324 -42.68 
L 157.744177 -42.68 
L 158.97103 -42.68 
L 160.197883 -42.68 
L 161.424736 -42.68 
L 162.651589 -42.68 
L 163.878442 -42.68 
L 165.105295 -42.68 
L 166.332147 -42.68 
L 167.559 -42.68 
L 168.785853 -42.68 
L 170.012706 -42.68 
L 171.239559 -42.68 
L 172.466412 -42.68 
L 173.693265 -42.68 
L 174.920118 -42.68 
L 176.14697 -42.68 
L 177.373823 -42.68 
L 178.600676 -42.68 
L 179.827529 -42.68 
L 181.054382 -42.68 
L 182.281235 -42.68 
L 183.508088 -42.68 
L 184.734941 -42.68 
L 185.961793 -42.68 
L 187.188646 -42.68 
L 188.415499 -42.68 
L 189.642352 -42.68 
L 190.869205 -42.68 
L 192.096058 -42.68 
L 193.322911 -42.68 
L 194.549764 -42.68 
L 195.776616 -42.68 
L 197.003469 -42.68 
L 198.230322 -42.68 
L 199.457175 -42.68 
L 200.684028 -42.68 
L 201.910881 -42.68 
L 203.137734 -42.68 
L 204.364587 -42.68 
L 205.591439 -42.68 
L 206.818292 -42.68 
L 208.045145 -42.68 
L 209.271998 -42.68 
L 210.498851 -42.68 
L 211.725704 -42.68 
L 212.952557 -42.68 
L 214.17941 -42.68 
L 215.406262 -42.68 
L 216.633115 -42.68 
L 217.859968 -42.68 
L 219.086821 -42.68 
L 220.313674 -42.68 
L 221.540527 -42.68 
L 222.76738 -42.68 
L 223.994233 -42.68 
L 225.221085 -42.68 
L 226.447938 -42.68 
L 227.674791 -42.68 
L 228.901644 -42.68 
L 230.128497 -42.68 
L 231.35535 -42.68 
L 232.582203 -42.68 
L 233.809056 -42.68 
L 235.035908 -42.68 
L 236.262761 -42.68 
L 237.489614 -42.68 
L 238.716467 -42.68 
L 239.94332 -42.68 
L 241.170173 -42.68 
L 242.397026 -42.68 
L 243.623879 -42.68 
L 244.850731 -42.68 
L 246.077584 -42.68 
L 247.304437 -42.68 
L 248.53129 -42.68 
L 249.758143 -42.68 
L 250.984996 -42.68 
L 252.211849 -42.68 
L 253.438702 -42.68 
L 254.665554 -42.68 
L 255.892407 -42.68 
L 257.11926 -42.68 
L 258.346113 -42.68 
L 259.572966 -42.68 
L 260.799819 -42.68 
L 262.026672 -42.68 
L 263.253525 -42.68 
L 264.480377 -42.68 
L 265.70723 -42.68 
L 266.934083 -42.68 
L 268.160936 -42.68 
L 269.387789 -42.68 
L 270.614642 -42.68 
L 271.841495 -42.68 
L 273.068348 -42.68 
L 274.2952 -42.68 
L 275.522053 -42.68 
L 276.748906 -42.68 
L 277.975759 -42.68 
L 279.202612 -42.68 
L 280.429465 -42.68 
L 281.656318 -42.68 
L 282.883171 -42.68 
L 284.110023 -42.68 
L 285.336876 -42.68 
L 286.563729 -42.68 
L 287.790582 -42.68 
L 289.017435 -42.68 
L 290.244288 -42.68 
L 291.471141 -42.68 
L 292.697994 -42.68 
L 293.924847 -42.68 
L 295.151699 -42.68 
L 296.378552 -42.68 
L 297.605405 -42.68 
L 298.832258 -42.68 
L 300.059111 -42.68 
L 301.285964 -42.68 
L 302.512817 -42.68 
L 303.73967 -42.68 
L 304.966522 -42.68 
L 306.193375 -42.68 
L 307.420228 -42.68 
L 308.647081 -42.68 
L 309.873934 -42.68 
L 311.100787 -42.68 
L 312.32764 -42.68 
L 313.554493 -42.68 
L 314.781345 -42.68 
L 316.008198 -42.68 
L 317.235051 -42.68 
L 318.461904 -42.68 
L 318.461904 -42.695358 
L 318.461904 -42.695358 
L 317.235051 -42.704332 
L 316.008198 -42.717603 
L 314.781345 -42.73669 
L 313.554493 -42.763371 
L 312.32764 -42.799605 
L 311.100787 -42.847381 
L 309.873934 -42.908502 
L 308.647081 -42.984298 
L 307.420228 -43.075308 
L 306.193375 -43.180954 
L 304.966522 -43.299281 
L 303.73967 -43.426807 
L 302.512817 -43.558543 
L 301.285964 -43.688225 
L 300.059111 -43.808764 
L 298.832258 -43.912877 
L 297.605405 -43.993837 
L 296.378552 -44.046245 
L 295.151699 -44.066716 
L 293.924847 -44.054373 
L 292.697994 -44.011093 
L 291.471141 -43.941466 
L 290.244288 -43.85249 
L 289.017435 -43.753082 
L 287.790582 -43.653477 
L 286.563729 -43.56463 
L 285.336876 -43.4977 
L 284.110023 -43.463666 
L 282.883171 -43.473108 
L 281.656318 -43.536122 
L 280.429465 -43.66234 
L 279.202612 -43.860998 
L 277.975759 -44.141015 
L 276.748906 -44.511029 
L 275.522053 -44.979379 
L 274.2952 -45.554016 
L 273.068348 -46.242337 
L 271.841495 -47.050926 
L 270.614642 -47.98523 
L 269.387789 -49.049147 
L 268.160936 -50.244591 
L 266.934083 -51.571069 
L 265.70723 -53.025369 
L 264.480377 -54.601473 
L 263.253525 -56.290784 
L 262.026672 -58.08275 
L 260.799819 -59.965881 
L 259.572966 -61.929056 
L 258.346113 -63.962934 
L 257.11926 -66.061198 
L 255.892407 -68.221322 
L 254.665554 -70.444636 
L 253.438702 -72.735515 
L 252.211849 -75.099762 
L 250.984996 -77.542385 
L 249.758143 -80.065191 
L 248.53129 -82.664688 
L 247.304437 -85.330781 
L 246.077584 -88.046657 
L 244.850731 -90.789985 
L 243.623879 -93.535303 
L 242.397026 -96.257201 
L 241.170173 -98.933671 
L 239.94332 -101.548972 
L 238.716467 -104.095416 
L 237.489614 -106.5737 
L 236.262761 -108.991772 
L 235.035908 -111.36249 
L 233.809056 -113.700664 
L 232.582203 -116.020123 
L 231.35535 -118.331485 
L 230.128497 -120.641018 
L 228.901644 -122.950746 
L 227.674791 -125.259581 
L 226.447938 -127.565049 
L 225.221085 -129.865074 
L 223.994233 -132.159367 
L 222.76738 -134.450176 
L 221.540527 -136.742495 
L 220.313674 -139.044055 
L 219.086821 -141.3656 
L 217.859968 -143.721917 
L 216.633115 -146.133877 
L 215.406262 -148.631366 
L 214.17941 -151.256633 
L 212.952557 -154.067243 
L 211.725704 -157.137701 
L 210.498851 -160.55893 
L 209.271998 -164.435105 
L 208.045145 -168.877833 
L 206.818292 -173.998191 
L 205.591439 -179.897578 
L 204.364587 -186.658559 
L 203.137734 -194.336877 
L 201.910881 -202.955546 
L 200.684028 -212.501547 
L 199.457175 -222.92513 
L 198.230322 -234.141368 
L 197.003469 -246.033323 
L 195.776616 -258.456161 
L 194.549764 -271.241715 
L 193.322911 -284.203254 
L 192.096058 -297.140569 
L 190.869205 -309.845706 
L 189.642352 -322.109774 
L 188.415499 -333.73116 
L 187.188646 -344.525156 
L 185.961793 -354.334605 
L 184.734941 -363.040676 
L 183.508088 -370.572474 
L 182.281235 -376.913985 
L 181.054382 -382.106858 
L 179.827529 -386.247875 
L 178.600676 -389.480559 
L 177.373823 -391.981197 
L 176.14697 -393.940413 
L 174.920118 -395.542271 
L 173.693265 -396.943422 
L 172.466412 -398.255032 
L 171.239559 -399.52995 
L 170.012706 -400.756969 
L 168.785853 -401.862989 
L 167.559 -402.722819 
L 166.332147 -403.175238 
L 165.105295 -403.043074 
L 163.878442 -402.154624 
L 162.651589 -400.363634 
L 161.424736 -397.56545 
L 160.197883 -393.707599 
L 158.97103 -388.793884 
L 157.744177 -382.881957 
L 156.517324 -376.075116 
L 155.290472 -368.509667 
L 154.063619 -360.339641 
L 152.836766 -351.720852 
L 151.609913 -342.796253 
L 150.38306 -333.684378 
L 149.156207 -324.472195 
L 147.929354 -315.213117 
L 146.702501 -305.930205 
L 145.475649 -296.623774 
L 144.248796 -287.281967 
L 143.021943 -277.892358 
L 141.79509 -268.452457 
L 140.568237 -258.97724 
L 139.341384 -249.502382 
L 138.114531 -240.082709 
L 136.887678 -230.786316 
L 135.660826 -221.685616 
L 134.433973 -212.847138 
L 133.20712 -204.322076 
L 131.980267 -196.139325 
L 130.753414 -188.302203 
L 129.526561 -180.789288 
L 128.299708 -173.559003 
L 127.072855 -166.556968 
L 125.846003 -159.724699 
L 124.61915 -153.008196 
L 123.392297 -146.36508 
L 122.165444 -139.7694 
L 120.938591 -133.213656 
L 119.711738 -126.708149 
L 118.484885 -120.278131 
L 117.258032 -113.959522 
L 116.03118 -107.794056 
L 114.804327 -101.824637 
L 113.577474 -96.091513 
L 112.350621 -90.629615 
L 111.123768 -85.467107 
L 109.896915 -80.625005 
L 108.670062 -76.117536 
L 107.443209 -71.952886 
L 106.216357 -68.134013 
L 104.989504 -64.659331 
L 103.762651 -61.523167 
L 102.535798 -58.716055 
L 101.308945 -56.224951 
L 100.082092 -54.033514 
L 98.855239 -52.122539 
L 97.628386 -50.470576 
L 96.401534 -49.054695 
L 95.174681 -47.851333 
L 93.947828 -46.837098 
L 92.720975 -45.98945 
L 91.494122 -45.287204 
L 90.267269 -44.710822 
L 89.040416 -44.242537 
L 87.813563 -43.866334 
L 86.586711 -43.567866 
L 85.359858 -43.334334 
L 84.133005 -43.154377 
L 82.906152 -43.017992 
L 81.679299 -42.916462 
L 80.452446 -42.842308 
L 79.225593 -42.789226 
L 77.99874 -42.752018 
L 76.771888 -42.726498 
L 75.545035 -42.709382 
L 74.318182 -42.698164 
z
" style="stroke: #bdbdbd; stroke-width: 2.5"/>
    </defs>
    <g clip-path="url(#p1183e63982)">
     <use xlink:href="#m504e3a1fee" x="0" y="432" style="fill: #bdbdbd; fill-opacity: 0.5; stroke: #bdbdbd; stroke-width: 2.5"/>
    </g>
   </g>
   <g id="PolyCollection_2">
    <defs>
     <path id="me64eebed5d" d="M 78.14534 -42.698636 
L 78.14534 -42.68 
L 79.786227 -42.68 
L 81.427113 -42.68 
L 83.068 -42.68 
L 84.708887 -42.68 
L 86.349774 -42.68 
L 87.990661 -42.68 
L 89.631547 -42.68 
L 91.272434 -42.68 
L 92.913321 -42.68 
L 94.554208 -42.68 
L 96.195095 -42.68 
L 97.835982 -42.68 
L 99.476868 -42.68 
L 101.117755 -42.68 
L 102.758642 -42.68 
L 104.399529 -42.68 
L 106.040416 -42.68 
L 107.681303 -42.68 
L 109.322189 -42.68 
L 110.963076 -42.68 
L 112.603963 -42.68 
L 114.24485 -42.68 
L 115.885737 -42.68 
L 117.526624 -42.68 
L 119.16751 -42.68 
L 120.808397 -42.68 
L 122.449284 -42.68 
L 124.090171 -42.68 
L 125.731058 -42.68 
L 127.371944 -42.68 
L 129.012831 -42.68 
L 130.653718 -42.68 
L 132.294605 -42.68 
L 133.935492 -42.68 
L 135.576379 -42.68 
L 137.217265 -42.68 
L 138.858152 -42.68 
L 140.499039 -42.68 
L 142.139926 -42.68 
L 143.780813 -42.68 
L 145.4217 -42.68 
L 147.062586 -42.68 
L 148.703473 -42.68 
L 150.34436 -42.68 
L 151.985247 -42.68 
L 153.626134 -42.68 
L 155.267021 -42.68 
L 156.907907 -42.68 
L 158.548794 -42.68 
L 160.189681 -42.68 
L 161.830568 -42.68 
L 163.471455 -42.68 
L 165.112341 -42.68 
L 166.753228 -42.68 
L 168.394115 -42.68 
L 170.035002 -42.68 
L 171.675889 -42.68 
L 173.316776 -42.68 
L 174.957662 -42.68 
L 176.598549 -42.68 
L 178.239436 -42.68 
L 179.880323 -42.68 
L 181.52121 -42.68 
L 183.162097 -42.68 
L 184.802983 -42.68 
L 186.44387 -42.68 
L 188.084757 -42.68 
L 189.725644 -42.68 
L 191.366531 -42.68 
L 193.007418 -42.68 
L 194.648304 -42.68 
L 196.289191 -42.68 
L 197.930078 -42.68 
L 199.570965 -42.68 
L 201.211852 -42.68 
L 202.852739 -42.68 
L 204.493625 -42.68 
L 206.134512 -42.68 
L 207.775399 -42.68 
L 209.416286 -42.68 
L 211.057173 -42.68 
L 212.698059 -42.68 
L 214.338946 -42.68 
L 215.979833 -42.68 
L 217.62072 -42.68 
L 219.261607 -42.68 
L 220.902494 -42.68 
L 222.54338 -42.68 
L 224.184267 -42.68 
L 225.825154 -42.68 
L 227.466041 -42.68 
L 229.106928 -42.68 
L 230.747815 -42.68 
L 232.388701 -42.68 
L 234.029588 -42.68 
L 235.670475 -42.68 
L 237.311362 -42.68 
L 238.952249 -42.68 
L 240.593136 -42.68 
L 242.234022 -42.68 
L 243.874909 -42.68 
L 245.515796 -42.68 
L 247.156683 -42.68 
L 248.79757 -42.68 
L 250.438456 -42.68 
L 252.079343 -42.68 
L 253.72023 -42.68 
L 255.361117 -42.68 
L 257.002004 -42.68 
L 258.642891 -42.68 
L 260.283777 -42.68 
L 261.924664 -42.68 
L 263.565551 -42.68 
L 265.206438 -42.68 
L 266.847325 -42.68 
L 268.488212 -42.68 
L 270.129098 -42.68 
L 271.769985 -42.68 
L 273.410872 -42.68 
L 275.051759 -42.68 
L 276.692646 -42.68 
L 278.333533 -42.68 
L 279.974419 -42.68 
L 281.615306 -42.68 
L 283.256193 -42.68 
L 284.89708 -42.68 
L 286.537967 -42.68 
L 288.178853 -42.68 
L 289.81974 -42.68 
L 291.460627 -42.68 
L 293.101514 -42.68 
L 294.742401 -42.68 
L 296.383288 -42.68 
L 298.024174 -42.68 
L 299.665061 -42.68 
L 301.305948 -42.68 
L 302.946835 -42.68 
L 304.587722 -42.68 
L 306.228609 -42.68 
L 307.869495 -42.68 
L 309.510382 -42.68 
L 311.151269 -42.68 
L 312.792156 -42.68 
L 314.433043 -42.68 
L 316.07393 -42.68 
L 317.714816 -42.68 
L 319.355703 -42.68 
L 320.99659 -42.68 
L 322.637477 -42.68 
L 324.278364 -42.68 
L 325.919251 -42.68 
L 327.560137 -42.68 
L 329.201024 -42.68 
L 330.841911 -42.68 
L 332.482798 -42.68 
L 334.123685 -42.68 
L 335.764571 -42.68 
L 337.405458 -42.68 
L 339.046345 -42.68 
L 340.687232 -42.68 
L 342.328119 -42.68 
L 343.969006 -42.68 
L 345.609892 -42.68 
L 347.250779 -42.68 
L 348.891666 -42.68 
L 350.532553 -42.68 
L 352.17344 -42.68 
L 353.814327 -42.68 
L 355.455213 -42.68 
L 357.0961 -42.68 
L 358.736987 -42.68 
L 360.377874 -42.68 
L 362.018761 -42.68 
L 363.659648 -42.68 
L 365.300534 -42.68 
L 366.941421 -42.68 
L 368.582308 -42.68 
L 370.223195 -42.68 
L 371.864082 -42.68 
L 373.504968 -42.68 
L 375.145855 -42.68 
L 376.786742 -42.68 
L 378.427629 -42.68 
L 380.068516 -42.68 
L 381.709403 -42.68 
L 383.350289 -42.68 
L 384.991176 -42.68 
L 386.632063 -42.68 
L 388.27295 -42.68 
L 389.913837 -42.68 
L 391.554724 -42.68 
L 393.19561 -42.68 
L 394.836497 -42.68 
L 396.477384 -42.68 
L 398.118271 -42.68 
L 399.759158 -42.68 
L 401.400045 -42.68 
L 403.040931 -42.68 
L 404.681818 -42.68 
L 404.681818 -42.693492 
L 404.681818 -42.693492 
L 403.040931 -42.701572 
L 401.400045 -42.713773 
L 399.759158 -42.731797 
L 398.118271 -42.757842 
L 396.477384 -42.794675 
L 394.836497 -42.845665 
L 393.19561 -42.914797 
L 391.554724 -43.006626 
L 389.913837 -43.126185 
L 388.27295 -43.278826 
L 386.632063 -43.469999 
L 384.991176 -43.704968 
L 383.350289 -43.988467 
L 381.709403 -44.324308 
L 380.068516 -44.714943 
L 378.427629 -45.161003 
L 376.786742 -45.660841 
L 375.145855 -46.210104 
L 373.504968 -46.801396 
L 371.864082 -47.42409 
L 370.223195 -48.064366 
L 368.582308 -48.705533 
L 366.941421 -49.328704 
L 365.300534 -49.913831 
L 363.659648 -50.441067 
L 362.018761 -50.89237 
L 360.377874 -51.253212 
L 358.736987 -51.514198 
L 357.0961 -51.672426 
L 355.455213 -51.732391 
L 353.814327 -51.706321 
L 352.17344 -51.613884 
L 350.532553 -51.481282 
L 348.891666 -51.339814 
L 347.250779 -51.224063 
L 345.609892 -51.16986 
L 343.969006 -51.212204 
L 342.328119 -51.383297 
L 340.687232 -51.710822 
L 339.046345 -52.216565 
L 337.405458 -52.915463 
L 335.764571 -53.815127 
L 334.123685 -54.915876 
L 332.482798 -56.211298 
L 330.841911 -57.689314 
L 329.201024 -59.333703 
L 327.560137 -61.125979 
L 325.919251 -63.047486 
L 324.278364 -65.081517 
L 322.637477 -67.215244 
L 320.99659 -69.441221 
L 319.355703 -71.758248 
L 317.714816 -74.171415 
L 316.07393 -76.691234 
L 314.433043 -79.331857 
L 312.792156 -82.108529 
L 311.151269 -85.034527 
L 309.510382 -88.117995 
L 307.869495 -91.359122 
L 306.228609 -94.748158 
L 304.587722 -98.264647 
L 302.946835 -101.878127 
L 301.305948 -105.550297 
L 299.665061 -109.238381 
L 298.024174 -112.899197 
L 296.383288 -116.493281 
L 294.742401 -119.988372 
L 293.101514 -123.361697 
L 291.460627 -126.600727 
L 289.81974 -129.702407 
L 288.178853 -132.671179 
L 286.537967 -135.516368 
L 284.89708 -138.249624 
L 283.256193 -140.88303 
L 281.615306 -143.428334 
L 279.974419 -145.897396 
L 278.333533 -148.303674 
L 276.692646 -150.664304 
L 275.051759 -153.002177 
L 273.410872 -155.347468 
L 271.769985 -157.738192 
L 270.129098 -160.219593 
L 268.488212 -162.842427 
L 266.847325 -165.660353 
L 265.206438 -168.726781 
L 263.565551 -172.091516 
L 261.924664 -175.797473 
L 260.283777 -179.877696 
L 258.642891 -184.352806 
L 257.002004 -189.22903 
L 255.361117 -194.496941 
L 253.72023 -200.131102 
L 252.079343 -206.090757 
L 250.438456 -212.321695 
L 248.79757 -218.759215 
L 247.156683 -225.331984 
L 245.515796 -231.96637 
L 243.874909 -238.590712 
L 242.234022 -245.138988 
L 240.593136 -251.553442 
L 238.952249 -257.785944 
L 237.311362 -263.798096 
L 235.670475 -269.560322 
L 234.029588 -275.050282 
L 232.388701 -280.250967 
L 230.747815 -285.148705 
L 229.106928 -289.731183 
L 227.466041 -293.985445 
L 225.825154 -297.8958 
L 224.184267 -301.441661 
L 222.54338 -304.595478 
L 220.902494 -307.321162 
L 219.261607 -309.573491 
L 217.62072 -311.299047 
L 215.979833 -312.439011 
L 214.338946 -312.933867 
L 212.698059 -312.729603 
L 211.057173 -311.784619 
L 209.416286 -310.076226 
L 207.775399 -307.605544 
L 206.134512 -304.39976 
L 204.493625 -300.511107 
L 202.852739 -296.012486 
L 201.211852 -290.990254 
L 199.570965 -285.535263 
L 197.930078 -279.733591 
L 196.289191 -273.658475 
L 194.648304 -267.364772 
L 193.007418 -260.886822 
L 191.366531 -254.239935 
L 189.725644 -247.425091 
L 188.084757 -240.435823 
L 186.44387 -233.265907 
L 184.802983 -225.91637 
L 183.162097 -218.400539 
L 181.52121 -210.74628 
L 179.880323 -202.995195 
L 178.239436 -195.199139 
L 176.598549 -187.41493 
L 174.957662 -179.69843 
L 173.316776 -172.099175 
L 171.675889 -164.656553 
L 170.035002 -157.39811 
L 168.394115 -150.340065 
L 166.753228 -143.489696 
L 165.112341 -136.848893 
L 163.471455 -130.418052 
L 161.830568 -124.199498 
L 160.189681 -118.199858 
L 158.548794 -112.431047 
L 156.907907 -106.909883 
L 155.267021 -101.65658 
L 153.626134 -96.692532 
L 151.985247 -92.037864 
L 150.34436 -87.70917 
L 148.703473 -83.71774 
L 147.062586 -80.068435 
L 145.4217 -76.759222 
L 143.780813 -73.781289 
L 142.139926 -71.119588 
L 140.499039 -68.753661 
L 138.858152 -66.658631 
L 137.217265 -64.806273 
L 135.576379 -63.16614 
L 133.935492 -61.706723 
L 132.294605 -60.396639 
L 130.653718 -59.205828 
L 129.012831 -58.106686 
L 127.371944 -57.075073 
L 125.731058 -56.091097 
L 124.090171 -55.13958 
L 122.449284 -54.210182 
L 120.808397 -53.297157 
L 119.16751 -52.398798 
L 117.526624 -51.516661 
L 115.885737 -50.654677 
L 114.24485 -49.818267 
L 112.603963 -49.013553 
L 110.963076 -48.246713 
L 109.322189 -47.523512 
L 107.681303 -46.848976 
L 106.040416 -46.227187 
L 104.399529 -45.661149 
L 102.758642 -45.152707 
L 101.117755 -44.702492 
L 99.476868 -44.309895 
L 97.835982 -43.973096 
L 96.195095 -43.689141 
L 94.554208 -43.454092 
L 92.913321 -43.263237 
L 91.272434 -43.111346 
L 89.631547 -42.992951 
L 87.990661 -42.902621 
L 86.349774 -42.835199 
L 84.708887 -42.785989 
L 83.068 -42.75088 
L 81.427113 -42.726402 
L 79.786227 -42.709729 
L 78.14534 -42.698636 
z
" style="stroke: #92c5de; stroke-width: 2.5"/>
    </defs>
    <g clip-path="url(#p1183e63982)">
     <use xlink:href="#me64eebed5d" x="0" y="432" style="fill: #92c5de; fill-opacity: 0.5; stroke: #92c5de; stroke-width: 2.5"/>
    </g>
   </g>
   <g id="PolyCollection_3">
    <defs>
     <path id="m1c30a95335" d="M 80.292259 -42.696845 
L 80.292259 -42.68 
L 81.880659 -42.68 
L 83.46906 -42.68 
L 85.05746 -42.68 
L 86.64586 -42.68 
L 88.23426 -42.68 
L 89.82266 -42.68 
L 91.41106 -42.68 
L 92.99946 -42.68 
L 94.58786 -42.68 
L 96.17626 -42.68 
L 97.76466 -42.68 
L 99.353061 -42.68 
L 100.941461 -42.68 
L 102.529861 -42.68 
L 104.118261 -42.68 
L 105.706661 -42.68 
L 107.295061 -42.68 
L 108.883461 -42.68 
L 110.471861 -42.68 
L 112.060261 -42.68 
L 113.648661 -42.68 
L 115.237062 -42.68 
L 116.825462 -42.68 
L 118.413862 -42.68 
L 120.002262 -42.68 
L 121.590662 -42.68 
L 123.179062 -42.68 
L 124.767462 -42.68 
L 126.355862 -42.68 
L 127.944262 -42.68 
L 129.532662 -42.68 
L 131.121062 -42.68 
L 132.709463 -42.68 
L 134.297863 -42.68 
L 135.886263 -42.68 
L 137.474663 -42.68 
L 139.063063 -42.68 
L 140.651463 -42.68 
L 142.239863 -42.68 
L 143.828263 -42.68 
L 145.416663 -42.68 
L 147.005063 -42.68 
L 148.593464 -42.68 
L 150.181864 -42.68 
L 151.770264 -42.68 
L 153.358664 -42.68 
L 154.947064 -42.68 
L 156.535464 -42.68 
L 158.123864 -42.68 
L 159.712264 -42.68 
L 161.300664 -42.68 
L 162.889064 -42.68 
L 164.477464 -42.68 
L 166.065865 -42.68 
L 167.654265 -42.68 
L 169.242665 -42.68 
L 170.831065 -42.68 
L 172.419465 -42.68 
L 174.007865 -42.68 
L 175.596265 -42.68 
L 177.184665 -42.68 
L 178.773065 -42.68 
L 180.361465 -42.68 
L 181.949866 -42.68 
L 183.538266 -42.68 
L 185.126666 -42.68 
L 186.715066 -42.68 
L 188.303466 -42.68 
L 189.891866 -42.68 
L 191.480266 -42.68 
L 193.068666 -42.68 
L 194.657066 -42.68 
L 196.245466 -42.68 
L 197.833867 -42.68 
L 199.422267 -42.68 
L 201.010667 -42.68 
L 202.599067 -42.68 
L 204.187467 -42.68 
L 205.775867 -42.68 
L 207.364267 -42.68 
L 208.952667 -42.68 
L 210.541067 -42.68 
L 212.129467 -42.68 
L 213.717867 -42.68 
L 215.306268 -42.68 
L 216.894668 -42.68 
L 218.483068 -42.68 
L 220.071468 -42.68 
L 221.659868 -42.68 
L 223.248268 -42.68 
L 224.836668 -42.68 
L 226.425068 -42.68 
L 228.013468 -42.68 
L 229.601868 -42.68 
L 231.190269 -42.68 
L 232.778669 -42.68 
L 234.367069 -42.68 
L 235.955469 -42.68 
L 237.543869 -42.68 
L 239.132269 -42.68 
L 240.720669 -42.68 
L 242.309069 -42.68 
L 243.897469 -42.68 
L 245.485869 -42.68 
L 247.07427 -42.68 
L 248.66267 -42.68 
L 250.25107 -42.68 
L 251.83947 -42.68 
L 253.42787 -42.68 
L 255.01627 -42.68 
L 256.60467 -42.68 
L 258.19307 -42.68 
L 259.78147 -42.68 
L 261.36987 -42.68 
L 262.95827 -42.68 
L 264.546671 -42.68 
L 266.135071 -42.68 
L 267.723471 -42.68 
L 269.311871 -42.68 
L 270.900271 -42.68 
L 272.488671 -42.68 
L 274.077071 -42.68 
L 275.665471 -42.68 
L 277.253871 -42.68 
L 278.842271 -42.68 
L 280.430672 -42.68 
L 282.019072 -42.68 
L 283.607472 -42.68 
L 285.195872 -42.68 
L 286.784272 -42.68 
L 288.372672 -42.68 
L 289.961072 -42.68 
L 291.549472 -42.68 
L 293.137872 -42.68 
L 294.726272 -42.68 
L 296.314673 -42.68 
L 297.903073 -42.68 
L 299.491473 -42.68 
L 301.079873 -42.68 
L 302.668273 -42.68 
L 304.256673 -42.68 
L 305.845073 -42.68 
L 307.433473 -42.68 
L 309.021873 -42.68 
L 310.610273 -42.68 
L 312.198673 -42.68 
L 313.787074 -42.68 
L 315.375474 -42.68 
L 316.963874 -42.68 
L 318.552274 -42.68 
L 320.140674 -42.68 
L 321.729074 -42.68 
L 323.317474 -42.68 
L 324.905874 -42.68 
L 326.494274 -42.68 
L 328.082674 -42.68 
L 329.671075 -42.68 
L 331.259475 -42.68 
L 332.847875 -42.68 
L 334.436275 -42.68 
L 336.024675 -42.68 
L 337.613075 -42.68 
L 339.201475 -42.68 
L 340.789875 -42.68 
L 342.378275 -42.68 
L 343.966675 -42.68 
L 345.555076 -42.68 
L 347.143476 -42.68 
L 348.731876 -42.68 
L 350.320276 -42.68 
L 351.908676 -42.68 
L 353.497076 -42.68 
L 355.085476 -42.68 
L 356.673876 -42.68 
L 358.262276 -42.68 
L 359.850676 -42.68 
L 361.439076 -42.68 
L 363.027477 -42.68 
L 364.615877 -42.68 
L 366.204277 -42.68 
L 367.792677 -42.68 
L 369.381077 -42.68 
L 370.969477 -42.68 
L 372.557877 -42.68 
L 374.146277 -42.68 
L 375.734677 -42.68 
L 377.323077 -42.68 
L 378.911478 -42.68 
L 380.499878 -42.68 
L 382.088278 -42.68 
L 383.676678 -42.68 
L 385.265078 -42.68 
L 386.853478 -42.68 
L 388.441878 -42.68 
L 390.030278 -42.68 
L 391.618678 -42.68 
L 393.207078 -42.68 
L 394.795479 -42.68 
L 396.383879 -42.68 
L 396.383879 -42.696571 
L 396.383879 -42.696571 
L 394.795479 -42.705788 
L 393.207078 -42.719387 
L 391.618678 -42.739048 
L 390.030278 -42.766903 
L 388.441878 -42.805572 
L 386.853478 -42.858176 
L 385.265078 -42.928301 
L 383.676678 -43.019902 
L 382.088278 -43.137151 
L 380.499878 -43.28421 
L 378.911478 -43.464943 
L 377.323077 -43.682589 
L 375.734677 -43.939406 
L 374.146277 -44.23635 
L 372.557877 -44.572804 
L 370.969477 -44.946435 
L 369.381077 -45.353188 
L 367.792677 -45.787479 
L 366.204277 -46.242572 
L 364.615877 -46.711148 
L 363.027477 -47.186011 
L 361.439076 -47.660881 
L 359.850676 -48.131186 
L 358.262276 -48.594751 
L 356.673876 -49.052295 
L 355.085476 -49.507661 
L 353.497076 -49.96769 
L 351.908676 -50.441759 
L 350.320276 -50.940966 
L 348.731876 -51.477059 
L 347.143476 -52.06121 
L 345.555076 -52.702786 
L 343.966675 -53.408281 
L 342.378275 -54.180579 
L 340.789875 -55.018663 
L 339.201475 -55.917882 
L 337.613075 -56.870762 
L 336.024675 -57.868308 
L 334.436275 -58.901646 
L 332.847875 -59.963797 
L 331.259475 -61.051339 
L 329.671075 -62.165702 
L 328.082674 -63.313891 
L 326.494274 -64.508491 
L 324.905874 -65.766915 
L 323.317474 -67.10994 
L 321.729074 -68.559701 
L 320.140674 -70.137362 
L 318.552274 -71.860737 
L 316.963874 -73.742154 
L 315.375474 -75.786781 
L 313.787074 -77.991626 
L 312.198673 -80.345315 
L 310.610273 -82.828664 
L 309.021873 -85.416024 
L 307.433473 -88.077255 
L 305.845073 -90.78018 
L 304.256673 -93.493314 
L 302.668273 -96.18864 
L 301.079873 -98.844187 
L 299.491473 -101.446202 
L 297.903073 -103.990678 
L 296.314673 -106.484079 
L 294.726272 -108.943122 
L 293.137872 -111.393578 
L 291.549472 -113.868112 
L 289.961072 -116.403308 
L 288.372672 -119.036106 
L 286.784272 -121.799978 
L 285.195872 -124.721226 
L 283.607472 -127.815817 
L 282.019072 -131.087136 
L 280.430672 -134.524995 
L 278.842271 -138.106071 
L 277.253871 -141.795822 
L 275.665471 -145.551725 
L 274.077071 -149.327522 
L 272.488671 -153.077983 
L 270.900271 -156.763643 
L 269.311871 -160.35493 
L 267.723471 -163.835174 
L 266.135071 -167.202148 
L 264.546671 -170.46797 
L 262.95827 -173.657428 
L 261.36987 -176.80501 
L 259.78147 -179.951056 
L 258.19307 -183.137562 
L 256.60467 -186.404167 
L 255.01627 -189.784767 
L 253.42787 -193.305092 
L 251.83947 -196.981409 
L 250.25107 -200.820328 
L 248.66267 -204.819587 
L 247.07427 -208.969556 
L 245.485869 -213.255154 
L 243.897469 -217.657891 
L 242.309069 -222.157757 
L 240.720669 -226.734763 
L 239.132269 -231.369993 
L 237.543869 -236.046131 
L 235.955469 -240.747454 
L 234.367069 -245.459355 
L 232.778669 -250.167489 
L 231.190269 -254.856626 
L 229.601868 -259.509351 
L 228.013468 -264.1047 
L 226.425068 -268.616869 
L 224.836668 -273.014118 
L 223.248268 -277.258013 
L 221.659868 -281.303131 
L 220.071468 -285.097374 
L 218.483068 -288.582971 
L 216.894668 -291.698207 
L 215.306268 -294.379838 
L 213.717867 -296.566059 
L 212.129467 -298.199795 
L 210.541067 -299.232018 
L 208.952667 -299.624748 
L 207.364267 -299.353432 
L 205.775867 -298.408388 
L 204.187467 -296.795179 
L 202.599067 -294.533835 
L 201.010667 -291.657024 
L 199.422267 -288.207389 
L 197.833867 -284.23435 
L 196.245466 -279.790752 
L 194.657066 -274.929726 
L 193.068666 -269.702079 
L 191.480266 -264.154458 
L 189.891866 -258.328389 
L 188.303466 -252.260182 
L 186.715066 -245.981558 
L 185.126666 -239.520805 
L 183.538266 -232.904172 
L 181.949866 -226.157291 
L 180.361465 -219.306394 
L 178.773065 -212.379233 
L 177.184665 -205.405651 
L 175.596265 -198.417838 
L 174.007865 -191.450358 
L 172.419465 -184.539995 
L 170.831065 -177.725494 
L 169.242665 -171.047172 
L 167.654265 -164.546344 
L 166.065865 -158.264495 
L 164.477464 -152.242077 
L 162.889064 -146.516908 
L 161.300664 -141.122175 
L 159.712264 -136.08415 
L 158.123864 -131.419822 
L 156.535464 -127.134714 
L 154.947064 -123.221193 
L 153.358664 -119.657563 
L 151.770264 -116.408202 
L 150.181864 -113.424857 
L 148.593464 -110.649132 
L 147.005063 -108.016019 
L 145.416663 -105.458222 
L 143.828263 -102.910882 
L 142.239863 -100.316274 
L 140.651463 -97.627998 
L 139.063063 -94.814241 
L 137.474663 -91.859792 
L 135.886263 -88.766593 
L 134.297863 -85.552795 
L 132.709463 -82.250465 
L 131.121062 -78.902202 
L 129.532662 -75.557073 
L 127.944262 -72.266311 
L 126.355862 -69.079237 
L 124.767462 -66.039785 
L 123.179062 -63.183921 
L 121.590662 -60.538112 
L 120.002262 -58.118848 
L 118.413862 -55.933099 
L 116.825462 -53.979504 
L 115.237062 -52.250024 
L 113.648661 -50.731775 
L 112.060261 -49.408828 
L 110.471861 -48.263764 
L 108.883461 -47.278897 
L 107.295061 -46.43712 
L 105.706661 -45.722395 
L 104.118261 -45.119965 
L 102.529861 -44.616366 
L 100.941461 -44.199321 
L 99.353061 -43.857604 
L 97.76466 -43.580913 
L 96.17626 -43.359782 
L 94.58786 -43.185541 
L 92.99946 -43.050314 
L 91.41106 -42.947034 
L 89.82266 -42.869465 
L 88.23426 -42.812211 
L 86.64586 -42.770701 
L 85.05746 -42.741154 
L 83.46906 -42.720511 
L 81.880659 -42.70636 
L 80.292259 -42.696845 
z
" style="stroke: #2166ac; stroke-width: 2.5"/>
    </defs>
    <g clip-path="url(#p1183e63982)">
     <use xlink:href="#m1c30a95335" x="0" y="432" style="fill: #2166ac; fill-opacity: 0.5; stroke: #2166ac; stroke-width: 2.5"/>
    </g>
   </g>
   <g id="matplotlib.axis_1">
    <g id="xtick_1">
     <g id="line2d_1">
      <defs>
       <path id="mf5e4bf2e9a" d="M 0 0 
L 0 3.5 
" style="stroke: #000000; stroke-width: 0.8"/>
      </defs>
      <g>
       <use xlink:href="#mf5e4bf2e9a" x="62.42917" y="389.32" style="stroke: #000000; stroke-width: 0.8"/>
      </g>
     </g>
     <g id="text_1">
      <!-- −5.0 -->
      <g transform="translate(50.287764 403.918437) scale(0.1 -0.1)">
       <defs>
        <path id="DejaVuSans-2212" d="M 678 2272 
L 4684 2272 
L 4684 1741 
L 678 1741 
L 678 2272 
z
" transform="scale(0.015625)"/>
        <path id="DejaVuSans-35" d="M 691 4666 
L 3169 4666 
L 3169 4134 
L 1269 4134 
L 1269 2991 
Q 1406 3038 1543 3061 
Q 1681 3084 1819 3084 
Q 2600 3084 3056 2656 
Q 3513 2228 3513 1497 
Q 3513 744 3044 326 
Q 2575 -91 1722 -91 
Q 1428 -91 1123 -41 
Q 819 9 494 109 
L 494 744 
Q 775 591 1075 516 
Q 1375 441 1709 441 
Q 2250 441 2565 725 
Q 2881 1009 2881 1497 
Q 2881 1984 2565 2268 
Q 2250 2553 1709 2553 
Q 1456 2553 1204 2497 
Q 953 2441 691 2322 
L 691 4666 
z
" transform="scale(0.015625)"/>
        <path id="DejaVuSans-2e" d="M 684 794 
L 1344 794 
L 1344 0 
L 684 0 
L 684 794 
z
" transform="scale(0.015625)"/>
        <path id="DejaVuSans-30" d="M 2034 4250 
Q 1547 4250 1301 3770 
Q 1056 3291 1056 2328 
Q 1056 1369 1301 889 
Q 1547 409 2034 409 
Q 2525 409 2770 889 
Q 3016 1369 3016 2328 
Q 3016 3291 2770 3770 
Q 2525 4250 2034 4250 
z
M 2034 4750 
Q 2819 4750 3233 4129 
Q 3647 3509 3647 2328 
Q 3647 1150 3233 529 
Q 2819 -91 2034 -91 
Q 1250 -91 836 529 
Q 422 1150 422 2328 
Q 422 3509 836 4129 
Q 1250 4750 2034 4750 
z
" transform="scale(0.015625)"/>
       </defs>
       <use xlink:href="#DejaVuSans-2212"/>
       <use xlink:href="#DejaVuSans-35" x="83.789062"/>
       <use xlink:href="#DejaVuSans-2e" x="147.412109"/>
       <use xlink:href="#DejaVuSans-30" x="179.199219"/>
      </g>
     </g>
    </g>
    <g id="xtick_2">
     <g id="line2d_2">
      <g>
       <use xlink:href="#mf5e4bf2e9a" x="110.248769" y="389.32" style="stroke: #000000; stroke-width: 0.8"/>
      </g>
     </g>
     <g id="text_2">
      <!-- −2.5 -->
      <g transform="translate(98.107363 403.918437) scale(0.1 -0.1)">
       <defs>
        <path id="DejaVuSans-32" d="M 1228 531 
L 3431 531 
L 3431 0 
L 469 0 
L 469 531 
Q 828 903 1448 1529 
Q 2069 2156 2228 2338 
Q 2531 2678 2651 2914 
Q 2772 3150 2772 3378 
Q 2772 3750 2511 3984 
Q 2250 4219 1831 4219 
Q 1534 4219 1204 4116 
Q 875 4013 500 3803 
L 500 4441 
Q 881 4594 1212 4672 
Q 1544 4750 1819 4750 
Q 2544 4750 2975 4387 
Q 3406 4025 3406 3419 
Q 3406 3131 3298 2873 
Q 3191 2616 2906 2266 
Q 2828 2175 2409 1742 
Q 1991 1309 1228 531 
z
" transform="scale(0.015625)"/>
       </defs>
       <use xlink:href="#DejaVuSans-2212"/>
       <use xlink:href="#DejaVuSans-32" x="83.789062"/>
       <use xlink:href="#DejaVuSans-2e" x="147.412109"/>
       <use xlink:href="#DejaVuSans-35" x="179.199219"/>
      </g>
     </g>
    </g>
    <g id="xtick_3">
     <g id="line2d_3">
      <g>
       <use xlink:href="#mf5e4bf2e9a" x="158.068368" y="389.32" style="stroke: #000000; stroke-width: 0.8"/>
      </g>
     </g>
     <g id="text_3">
      <!-- 0.0 -->
      <g transform="translate(150.116805 403.918437) scale(0.1 -0.1)">
       <use xlink:href="#DejaVuSans-30"/>
       <use xlink:href="#DejaVuSans-2e" x="63.623047"/>
       <use xlink:href="#DejaVuSans-30" x="95.410156"/>
      </g>
     </g>
    </g>
    <g id="xtick_4">
     <g id="line2d_4">
      <g>
       <use xlink:href="#mf5e4bf2e9a" x="205.887966" y="389.32" style="stroke: #000000; stroke-width: 0.8"/>
      </g>
     </g>
     <g id="text_4">
      <!-- 2.5 -->
      <g transform="translate(197.936404 403.918437) scale(0.1 -0.1)">
       <use xlink:href="#DejaVuSans-32"/>
       <use xlink:href="#DejaVuSans-2e" x="63.623047"/>
       <use xlink:href="#DejaVuSans-35" x="95.410156"/>
      </g>
     </g>
    </g>
    <g id="xtick_5">
     <g id="line2d_5">
      <g>
       <use xlink:href="#mf5e4bf2e9a" x="253.707565" y="389.32" style="stroke: #000000; stroke-width: 0.8"/>
      </g>
     </g>
     <g id="text_5">
      <!-- 5.0 -->
      <g transform="translate(245.756002 403.918437) scale(0.1 -0.1)">
       <use xlink:href="#DejaVuSans-35"/>
       <use xlink:href="#DejaVuSans-2e" x="63.623047"/>
       <use xlink:href="#DejaVuSans-30" x="95.410156"/>
      </g>
     </g>
    </g>
    <g id="xtick_6">
     <g id="line2d_6">
      <g>
       <use xlink:href="#mf5e4bf2e9a" x="301.527164" y="389.32" style="stroke: #000000; stroke-width: 0.8"/>
      </g>
     </g>
     <g id="text_6">
      <!-- 7.5 -->
      <g transform="translate(293.575601 403.918437) scale(0.1 -0.1)">
       <defs>
        <path id="DejaVuSans-37" d="M 525 4666 
L 3525 4666 
L 3525 4397 
L 1831 0 
L 1172 0 
L 2766 4134 
L 525 4134 
L 525 4666 
z
" transform="scale(0.015625)"/>
       </defs>
       <use xlink:href="#DejaVuSans-37"/>
       <use xlink:href="#DejaVuSans-2e" x="63.623047"/>
       <use xlink:href="#DejaVuSans-35" x="95.410156"/>
      </g>
     </g>
    </g>
    <g id="xtick_7">
     <g id="line2d_7">
      <g>
       <use xlink:href="#mf5e4bf2e9a" x="349.346762" y="389.32" style="stroke: #000000; stroke-width: 0.8"/>
      </g>
     </g>
     <g id="text_7">
      <!-- 10.0 -->
      <g transform="translate(338.21395 403.918437) scale(0.1 -0.1)">
       <defs>
        <path id="DejaVuSans-31" d="M 794 531 
L 1825 531 
L 1825 4091 
L 703 3866 
L 703 4441 
L 1819 4666 
L 2450 4666 
L 2450 531 
L 3481 531 
L 3481 0 
L 794 0 
L 794 531 
z
" transform="scale(0.015625)"/>
       </defs>
       <use xlink:href="#DejaVuSans-31"/>
       <use xlink:href="#DejaVuSans-30" x="63.623047"/>
       <use xlink:href="#DejaVuSans-2e" x="127.246094"/>
       <use xlink:href="#DejaVuSans-30" x="159.033203"/>
      </g>
     </g>
    </g>
    <g id="xtick_8">
     <g id="line2d_8">
      <g>
       <use xlink:href="#mf5e4bf2e9a" x="397.166361" y="389.32" style="stroke: #000000; stroke-width: 0.8"/>
      </g>
     </g>
     <g id="text_8">
      <!-- 12.5 -->
      <g transform="translate(386.033548 403.918437) scale(0.1 -0.1)">
       <use xlink:href="#DejaVuSans-31"/>
       <use xlink:href="#DejaVuSans-32" x="63.623047"/>
       <use xlink:href="#DejaVuSans-2e" x="127.246094"/>
       <use xlink:href="#DejaVuSans-35" x="159.033203"/>
      </g>
     </g>
    </g>
    <g id="text_9">
     <!-- Predicted Fluorescence -->
     <g transform="translate(169.90375 419.11625) scale(0.12 -0.12)">
      <defs>
       <path id="DejaVuSans-50" d="M 1259 4147 
L 1259 2394 
L 2053 2394 
Q 2494 2394 2734 2622 
Q 2975 2850 2975 3272 
Q 2975 3691 2734 3919 
Q 2494 4147 2053 4147 
L 1259 4147 
z
M 628 4666 
L 2053 4666 
Q 2838 4666 3239 4311 
Q 3641 3956 3641 3272 
Q 3641 2581 3239 2228 
Q 2838 1875 2053 1875 
L 1259 1875 
L 1259 0 
L 628 0 
L 628 4666 
z
" transform="scale(0.015625)"/>
       <path id="DejaVuSans-72" d="M 2631 2963 
Q 2534 3019 2420 3045 
Q 2306 3072 2169 3072 
Q 1681 3072 1420 2755 
Q 1159 2438 1159 1844 
L 1159 0 
L 581 0 
L 581 3500 
L 1159 3500 
L 1159 2956 
Q 1341 3275 1631 3429 
Q 1922 3584 2338 3584 
Q 2397 3584 2469 3576 
Q 2541 3569 2628 3553 
L 2631 2963 
z
" transform="scale(0.015625)"/>
       <path id="DejaVuSans-65" d="M 3597 1894 
L 3597 1613 
L 953 1613 
Q 991 1019 1311 708 
Q 1631 397 2203 397 
Q 2534 397 2845 478 
Q 3156 559 3463 722 
L 3463 178 
Q 3153 47 2828 -22 
Q 2503 -91 2169 -91 
Q 1331 -91 842 396 
Q 353 884 353 1716 
Q 353 2575 817 3079 
Q 1281 3584 2069 3584 
Q 2775 3584 3186 3129 
Q 3597 2675 3597 1894 
z
M 3022 2063 
Q 3016 2534 2758 2815 
Q 2500 3097 2075 3097 
Q 1594 3097 1305 2825 
Q 1016 2553 972 2059 
L 3022 2063 
z
" transform="scale(0.015625)"/>
       <path id="DejaVuSans-64" d="M 2906 2969 
L 2906 4863 
L 3481 4863 
L 3481 0 
L 2906 0 
L 2906 525 
Q 2725 213 2448 61 
Q 2172 -91 1784 -91 
Q 1150 -91 751 415 
Q 353 922 353 1747 
Q 353 2572 751 3078 
Q 1150 3584 1784 3584 
Q 2172 3584 2448 3432 
Q 2725 3281 2906 2969 
z
M 947 1747 
Q 947 1113 1208 752 
Q 1469 391 1925 391 
Q 2381 391 2643 752 
Q 2906 1113 2906 1747 
Q 2906 2381 2643 2742 
Q 2381 3103 1925 3103 
Q 1469 3103 1208 2742 
Q 947 2381 947 1747 
z
" transform="scale(0.015625)"/>
       <path id="DejaVuSans-69" d="M 603 3500 
L 1178 3500 
L 1178 0 
L 603 0 
L 603 3500 
z
M 603 4863 
L 1178 4863 
L 1178 4134 
L 603 4134 
L 603 4863 
z
" transform="scale(0.015625)"/>
       <path id="DejaVuSans-63" d="M 3122 3366 
L 3122 2828 
Q 2878 2963 2633 3030 
Q 2388 3097 2138 3097 
Q 1578 3097 1268 2742 
Q 959 2388 959 1747 
Q 959 1106 1268 751 
Q 1578 397 2138 397 
Q 2388 397 2633 464 
Q 2878 531 3122 666 
L 3122 134 
Q 2881 22 2623 -34 
Q 2366 -91 2075 -91 
Q 1284 -91 818 406 
Q 353 903 353 1747 
Q 353 2603 823 3093 
Q 1294 3584 2113 3584 
Q 2378 3584 2631 3529 
Q 2884 3475 3122 3366 
z
" transform="scale(0.015625)"/>
       <path id="DejaVuSans-74" d="M 1172 4494 
L 1172 3500 
L 2356 3500 
L 2356 3053 
L 1172 3053 
L 1172 1153 
Q 1172 725 1289 603 
Q 1406 481 1766 481 
L 2356 481 
L 2356 0 
L 1766 0 
Q 1100 0 847 248 
Q 594 497 594 1153 
L 594 3053 
L 172 3053 
L 172 3500 
L 594 3500 
L 594 4494 
L 1172 4494 
z
" transform="scale(0.015625)"/>
       <path id="DejaVuSans-20" transform="scale(0.015625)"/>
       <path id="DejaVuSans-46" d="M 628 4666 
L 3309 4666 
L 3309 4134 
L 1259 4134 
L 1259 2759 
L 3109 2759 
L 3109 2228 
L 1259 2228 
L 1259 0 
L 628 0 
L 628 4666 
z
" transform="scale(0.015625)"/>
       <path id="DejaVuSans-6c" d="M 603 4863 
L 1178 4863 
L 1178 0 
L 603 0 
L 603 4863 
z
" transform="scale(0.015625)"/>
       <path id="DejaVuSans-75" d="M 544 1381 
L 544 3500 
L 1119 3500 
L 1119 1403 
Q 1119 906 1312 657 
Q 1506 409 1894 409 
Q 2359 409 2629 706 
Q 2900 1003 2900 1516 
L 2900 3500 
L 3475 3500 
L 3475 0 
L 2900 0 
L 2900 538 
Q 2691 219 2414 64 
Q 2138 -91 1772 -91 
Q 1169 -91 856 284 
Q 544 659 544 1381 
z
M 1991 3584 
L 1991 3584 
z
" transform="scale(0.015625)"/>
       <path id="DejaVuSans-6f" d="M 1959 3097 
Q 1497 3097 1228 2736 
Q 959 2375 959 1747 
Q 959 1119 1226 758 
Q 1494 397 1959 397 
Q 2419 397 2687 759 
Q 2956 1122 2956 1747 
Q 2956 2369 2687 2733 
Q 2419 3097 1959 3097 
z
M 1959 3584 
Q 2709 3584 3137 3096 
Q 3566 2609 3566 1747 
Q 3566 888 3137 398 
Q 2709 -91 1959 -91 
Q 1206 -91 779 398 
Q 353 888 353 1747 
Q 353 2609 779 3096 
Q 1206 3584 1959 3584 
z
" transform="scale(0.015625)"/>
       <path id="DejaVuSans-73" d="M 2834 3397 
L 2834 2853 
Q 2591 2978 2328 3040 
Q 2066 3103 1784 3103 
Q 1356 3103 1142 2972 
Q 928 2841 928 2578 
Q 928 2378 1081 2264 
Q 1234 2150 1697 2047 
L 1894 2003 
Q 2506 1872 2764 1633 
Q 3022 1394 3022 966 
Q 3022 478 2636 193 
Q 2250 -91 1575 -91 
Q 1294 -91 989 -36 
Q 684 19 347 128 
L 347 722 
Q 666 556 975 473 
Q 1284 391 1588 391 
Q 1994 391 2212 530 
Q 2431 669 2431 922 
Q 2431 1156 2273 1281 
Q 2116 1406 1581 1522 
L 1381 1569 
Q 847 1681 609 1914 
Q 372 2147 372 2553 
Q 372 3047 722 3315 
Q 1072 3584 1716 3584 
Q 2034 3584 2315 3537 
Q 2597 3491 2834 3397 
z
" transform="scale(0.015625)"/>
       <path id="DejaVuSans-6e" d="M 3513 2113 
L 3513 0 
L 2938 0 
L 2938 2094 
Q 2938 2591 2744 2837 
Q 2550 3084 2163 3084 
Q 1697 3084 1428 2787 
Q 1159 2491 1159 1978 
L 1159 0 
L 581 0 
L 581 3500 
L 1159 3500 
L 1159 2956 
Q 1366 3272 1645 3428 
Q 1925 3584 2291 3584 
Q 2894 3584 3203 3211 
Q 3513 2838 3513 2113 
z
" transform="scale(0.015625)"/>
      </defs>
      <use xlink:href="#DejaVuSans-50"/>
      <use xlink:href="#DejaVuSans-72" x="58.552734"/>
      <use xlink:href="#DejaVuSans-65" x="97.416016"/>
      <use xlink:href="#DejaVuSans-64" x="158.939453"/>
      <use xlink:href="#DejaVuSans-69" x="222.416016"/>
      <use xlink:href="#DejaVuSans-63" x="250.199219"/>
      <use xlink:href="#DejaVuSans-74" x="305.179688"/>
      <use xlink:href="#DejaVuSans-65" x="344.388672"/>
      <use xlink:href="#DejaVuSans-64" x="405.912109"/>
      <use xlink:href="#DejaVuSans-20" x="469.388672"/>
      <use xlink:href="#DejaVuSans-46" x="501.175781"/>
      <use xlink:href="#DejaVuSans-6c" x="558.695312"/>
      <use xlink:href="#DejaVuSans-75" x="586.478516"/>
      <use xlink:href="#DejaVuSans-6f" x="649.857422"/>
      <use xlink:href="#DejaVuSans-72" x="711.039062"/>
      <use xlink:href="#DejaVuSans-65" x="749.902344"/>
      <use xlink:href="#DejaVuSans-73" x="811.425781"/>
      <use xlink:href="#DejaVuSans-63" x="863.525391"/>
      <use xlink:href="#DejaVuSans-65" x="918.505859"/>
      <use xlink:href="#DejaVuSans-6e" x="980.029297"/>
      <use xlink:href="#DejaVuSans-63" x="1043.408203"/>
      <use xlink:href="#DejaVuSans-65" x="1098.388672"/>
     </g>
    </g>
   </g>
   <g id="matplotlib.axis_2">
    <g id="ytick_1">
     <g id="line2d_9">
      <defs>
       <path id="m65705f4cf8" d="M 0 0 
L -3.5 0 
" style="stroke: #000000; stroke-width: 0.8"/>
      </defs>
      <g>
       <use xlink:href="#m65705f4cf8" x="57.8" y="389.32" style="stroke: #000000; stroke-width: 0.8"/>
      </g>
     </g>
     <g id="text_10">
      <!-- 0.00 -->
      <g transform="translate(28.534375 393.119219) scale(0.1 -0.1)">
       <use xlink:href="#DejaVuSans-30"/>
       <use xlink:href="#DejaVuSans-2e" x="63.623047"/>
       <use xlink:href="#DejaVuSans-30" x="95.410156"/>
       <use xlink:href="#DejaVuSans-30" x="159.033203"/>
      </g>
     </g>
    </g>
    <g id="ytick_2">
     <g id="line2d_10">
      <g>
       <use xlink:href="#m65705f4cf8" x="57.8" y="318.763456" style="stroke: #000000; stroke-width: 0.8"/>
      </g>
     </g>
     <g id="text_11">
      <!-- 0.05 -->
      <g transform="translate(28.534375 322.562675) scale(0.1 -0.1)">
       <use xlink:href="#DejaVuSans-30"/>
       <use xlink:href="#DejaVuSans-2e" x="63.623047"/>
       <use xlink:href="#DejaVuSans-30" x="95.410156"/>
       <use xlink:href="#DejaVuSans-35" x="159.033203"/>
      </g>
     </g>
    </g>
    <g id="ytick_3">
     <g id="line2d_11">
      <g>
       <use xlink:href="#m65705f4cf8" x="57.8" y="248.206913" style="stroke: #000000; stroke-width: 0.8"/>
      </g>
     </g>
     <g id="text_12">
      <!-- 0.10 -->
      <g transform="translate(28.534375 252.006131) scale(0.1 -0.1)">
       <use xlink:href="#DejaVuSans-30"/>
       <use xlink:href="#DejaVuSans-2e" x="63.623047"/>
       <use xlink:href="#DejaVuSans-31" x="95.410156"/>
       <use xlink:href="#DejaVuSans-30" x="159.033203"/>
      </g>
     </g>
    </g>
    <g id="ytick_4">
     <g id="line2d_12">
      <g>
       <use xlink:href="#m65705f4cf8" x="57.8" y="177.650369" style="stroke: #000000; stroke-width: 0.8"/>
      </g>
     </g>
     <g id="text_13">
      <!-- 0.15 -->
      <g transform="translate(28.534375 181.449588) scale(0.1 -0.1)">
       <use xlink:href="#DejaVuSans-30"/>
       <use xlink:href="#DejaVuSans-2e" x="63.623047"/>
       <use xlink:href="#DejaVuSans-31" x="95.410156"/>
       <use xlink:href="#DejaVuSans-35" x="159.033203"/>
      </g>
     </g>
    </g>
    <g id="ytick_5">
     <g id="line2d_13">
      <g>
       <use xlink:href="#m65705f4cf8" x="57.8" y="107.093825" style="stroke: #000000; stroke-width: 0.8"/>
      </g>
     </g>
     <g id="text_14">
      <!-- 0.20 -->
      <g transform="translate(28.534375 110.893044) scale(0.1 -0.1)">
       <use xlink:href="#DejaVuSans-30"/>
       <use xlink:href="#DejaVuSans-2e" x="63.623047"/>
       <use xlink:href="#DejaVuSans-32" x="95.410156"/>
       <use xlink:href="#DejaVuSans-30" x="159.033203"/>
      </g>
     </g>
    </g>
    <g id="ytick_6">
     <g id="line2d_14">
      <g>
       <use xlink:href="#m65705f4cf8" x="57.8" y="36.537281" style="stroke: #000000; stroke-width: 0.8"/>
      </g>
     </g>
     <g id="text_15">
      <!-- 0.25 -->
      <g transform="translate(28.534375 40.3365) scale(0.1 -0.1)">
       <use xlink:href="#DejaVuSans-30"/>
       <use xlink:href="#DejaVuSans-2e" x="63.623047"/>
       <use xlink:href="#DejaVuSans-32" x="95.410156"/>
       <use xlink:href="#DejaVuSans-35" x="159.033203"/>
      </g>
     </g>
    </g>
    <g id="text_16">
     <!-- Density -->
     <g transform="translate(21.622813 226.672031) rotate(-90) scale(0.14 -0.14)">
      <defs>
       <path id="DejaVuSans-44" d="M 1259 4147 
L 1259 519 
L 2022 519 
Q 2988 519 3436 956 
Q 3884 1394 3884 2338 
Q 3884 3275 3436 3711 
Q 2988 4147 2022 4147 
L 1259 4147 
z
M 628 4666 
L 1925 4666 
Q 3281 4666 3915 4102 
Q 4550 3538 4550 2338 
Q 4550 1131 3912 565 
Q 3275 0 1925 0 
L 628 0 
L 628 4666 
z
" transform="scale(0.015625)"/>
       <path id="DejaVuSans-79" d="M 2059 -325 
Q 1816 -950 1584 -1140 
Q 1353 -1331 966 -1331 
L 506 -1331 
L 506 -850 
L 844 -850 
Q 1081 -850 1212 -737 
Q 1344 -625 1503 -206 
L 1606 56 
L 191 3500 
L 800 3500 
L 1894 763 
L 2988 3500 
L 3597 3500 
L 2059 -325 
z
" transform="scale(0.015625)"/>
      </defs>
      <use xlink:href="#DejaVuSans-44"/>
      <use xlink:href="#DejaVuSans-65" x="77.001953"/>
      <use xlink:href="#DejaVuSans-6e" x="138.525391"/>
      <use xlink:href="#DejaVuSans-73" x="201.904297"/>
      <use xlink:href="#DejaVuSans-69" x="254.003906"/>
      <use xlink:href="#DejaVuSans-74" x="281.787109"/>
      <use xlink:href="#DejaVuSans-79" x="320.996094"/>
     </g>
    </g>
   </g>
   <g id="line2d_15">
    <path d="M 147.013247 389.32 
L 147.013247 10.8 
" clip-path="url(#p1183e63982)" style="fill: none; stroke-dasharray: 3.7,1.6; stroke-dashoffset: 0; stroke: #000000"/>
   </g>
   <g id="patch_3">
    <path d="M 57.8 389.32 
L 57.8 10.8 
" style="fill: none; stroke: #000000; stroke-width: 0.8; stroke-linejoin: miter; stroke-linecap: square"/>
   </g>
   <g id="patch_4">
    <path d="M 57.8 389.32 
L 421.2 389.32 
" style="fill: none; stroke: #000000; stroke-width: 0.8; stroke-linejoin: miter; stroke-linecap: square"/>
   </g>
   <g id="legend_1">
    <g id="patch_5">
     <path d="M 257.389062 77.5125 
L 414.2 77.5125 
Q 416.2 77.5125 416.2 75.5125 
L 416.2 17.8 
Q 416.2 15.8 414.2 15.8 
L 257.389062 15.8 
Q 255.389062 15.8 255.389062 17.8 
L 255.389062 75.5125 
Q 255.389062 77.5125 257.389062 77.5125 
z
" style="fill: #ffffff; opacity: 0.8; stroke: #cccccc; stroke-linejoin: miter"/>
    </g>
    <g id="patch_6">
     <path d="M 259.389062 27.398438 
L 279.389062 27.398438 
L 279.389062 20.398438 
L 259.389062 20.398438 
z
" style="fill: #bdbdbd; fill-opacity: 0.5; stroke: #bdbdbd; stroke-width: 2.5; stroke-linejoin: miter"/>
    </g>
    <g id="text_17">
     <!-- Pre-trained ESM2 (650M) -->
     <g transform="translate(287.389062 27.398438) scale(0.1 -0.1)">
      <defs>
       <path id="DejaVuSans-2d" d="M 313 2009 
L 1997 2009 
L 1997 1497 
L 313 1497 
L 313 2009 
z
" transform="scale(0.015625)"/>
       <path id="DejaVuSans-61" d="M 2194 1759 
Q 1497 1759 1228 1600 
Q 959 1441 959 1056 
Q 959 750 1161 570 
Q 1363 391 1709 391 
Q 2188 391 2477 730 
Q 2766 1069 2766 1631 
L 2766 1759 
L 2194 1759 
z
M 3341 1997 
L 3341 0 
L 2766 0 
L 2766 531 
Q 2569 213 2275 61 
Q 1981 -91 1556 -91 
Q 1019 -91 701 211 
Q 384 513 384 1019 
Q 384 1609 779 1909 
Q 1175 2209 1959 2209 
L 2766 2209 
L 2766 2266 
Q 2766 2663 2505 2880 
Q 2244 3097 1772 3097 
Q 1472 3097 1187 3025 
Q 903 2953 641 2809 
L 641 3341 
Q 956 3463 1253 3523 
Q 1550 3584 1831 3584 
Q 2591 3584 2966 3190 
Q 3341 2797 3341 1997 
z
" transform="scale(0.015625)"/>
       <path id="DejaVuSans-45" d="M 628 4666 
L 3578 4666 
L 3578 4134 
L 1259 4134 
L 1259 2753 
L 3481 2753 
L 3481 2222 
L 1259 2222 
L 1259 531 
L 3634 531 
L 3634 0 
L 628 0 
L 628 4666 
z
" transform="scale(0.015625)"/>
       <path id="DejaVuSans-53" d="M 3425 4513 
L 3425 3897 
Q 3066 4069 2747 4153 
Q 2428 4238 2131 4238 
Q 1616 4238 1336 4038 
Q 1056 3838 1056 3469 
Q 1056 3159 1242 3001 
Q 1428 2844 1947 2747 
L 2328 2669 
Q 3034 2534 3370 2195 
Q 3706 1856 3706 1288 
Q 3706 609 3251 259 
Q 2797 -91 1919 -91 
Q 1588 -91 1214 -16 
Q 841 59 441 206 
L 441 856 
Q 825 641 1194 531 
Q 1563 422 1919 422 
Q 2459 422 2753 634 
Q 3047 847 3047 1241 
Q 3047 1584 2836 1778 
Q 2625 1972 2144 2069 
L 1759 2144 
Q 1053 2284 737 2584 
Q 422 2884 422 3419 
Q 422 4038 858 4394 
Q 1294 4750 2059 4750 
Q 2388 4750 2728 4690 
Q 3069 4631 3425 4513 
z
" transform="scale(0.015625)"/>
       <path id="DejaVuSans-4d" d="M 628 4666 
L 1569 4666 
L 2759 1491 
L 3956 4666 
L 4897 4666 
L 4897 0 
L 4281 0 
L 4281 4097 
L 3078 897 
L 2444 897 
L 1241 4097 
L 1241 0 
L 628 0 
L 628 4666 
z
" transform="scale(0.015625)"/>
       <path id="DejaVuSans-28" d="M 1984 4856 
Q 1566 4138 1362 3434 
Q 1159 2731 1159 2009 
Q 1159 1288 1364 580 
Q 1569 -128 1984 -844 
L 1484 -844 
Q 1016 -109 783 600 
Q 550 1309 550 2009 
Q 550 2706 781 3412 
Q 1013 4119 1484 4856 
L 1984 4856 
z
" transform="scale(0.015625)"/>
       <path id="DejaVuSans-36" d="M 2113 2584 
Q 1688 2584 1439 2293 
Q 1191 2003 1191 1497 
Q 1191 994 1439 701 
Q 1688 409 2113 409 
Q 2538 409 2786 701 
Q 3034 994 3034 1497 
Q 3034 2003 2786 2293 
Q 2538 2584 2113 2584 
z
M 3366 4563 
L 3366 3988 
Q 3128 4100 2886 4159 
Q 2644 4219 2406 4219 
Q 1781 4219 1451 3797 
Q 1122 3375 1075 2522 
Q 1259 2794 1537 2939 
Q 1816 3084 2150 3084 
Q 2853 3084 3261 2657 
Q 3669 2231 3669 1497 
Q 3669 778 3244 343 
Q 2819 -91 2113 -91 
Q 1303 -91 875 529 
Q 447 1150 447 2328 
Q 447 3434 972 4092 
Q 1497 4750 2381 4750 
Q 2619 4750 2861 4703 
Q 3103 4656 3366 4563 
z
" transform="scale(0.015625)"/>
       <path id="DejaVuSans-29" d="M 513 4856 
L 1013 4856 
Q 1481 4119 1714 3412 
Q 1947 2706 1947 2009 
Q 1947 1309 1714 600 
Q 1481 -109 1013 -844 
L 513 -844 
Q 928 -128 1133 580 
Q 1338 1288 1338 2009 
Q 1338 2731 1133 3434 
Q 928 4138 513 4856 
z
" transform="scale(0.015625)"/>
      </defs>
      <use xlink:href="#DejaVuSans-50"/>
      <use xlink:href="#DejaVuSans-72" x="58.552734"/>
      <use xlink:href="#DejaVuSans-65" x="97.416016"/>
      <use xlink:href="#DejaVuSans-2d" x="158.939453"/>
      <use xlink:href="#DejaVuSans-74" x="195.023438"/>
      <use xlink:href="#DejaVuSans-72" x="234.232422"/>
      <use xlink:href="#DejaVuSans-61" x="275.345703"/>
      <use xlink:href="#DejaVuSans-69" x="336.625"/>
      <use xlink:href="#DejaVuSans-6e" x="364.408203"/>
      <use xlink:href="#DejaVuSans-65" x="427.787109"/>
      <use xlink:href="#DejaVuSans-64" x="489.310547"/>
      <use xlink:href="#DejaVuSans-20" x="552.787109"/>
      <use xlink:href="#DejaVuSans-45" x="584.574219"/>
      <use xlink:href="#DejaVuSans-53" x="647.757812"/>
      <use xlink:href="#DejaVuSans-4d" x="711.234375"/>
      <use xlink:href="#DejaVuSans-32" x="797.513672"/>
      <use xlink:href="#DejaVuSans-20" x="861.136719"/>
      <use xlink:href="#DejaVuSans-28" x="892.923828"/>
      <use xlink:href="#DejaVuSans-36" x="931.9375"/>
      <use xlink:href="#DejaVuSans-35" x="995.560547"/>
      <use xlink:href="#DejaVuSans-30" x="1059.183594"/>
      <use xlink:href="#DejaVuSans-4d" x="1122.806641"/>
      <use xlink:href="#DejaVuSans-29" x="1209.085938"/>
     </g>
    </g>
    <g id="patch_7">
     <path d="M 259.389062 42.076563 
L 279.389062 42.076563 
L 279.389062 35.076563 
L 259.389062 35.076563 
z
" style="fill: #92c5de; fill-opacity: 0.5; stroke: #92c5de; stroke-width: 2.5; stroke-linejoin: miter"/>
    </g>
    <g id="text_18">
     <!-- SFT ESM2 (650M) -->
     <g transform="translate(287.389062 42.076563) scale(0.1 -0.1)">
      <defs>
       <path id="DejaVuSans-54" d="M -19 4666 
L 3928 4666 
L 3928 4134 
L 2272 4134 
L 2272 0 
L 1638 0 
L 1638 4134 
L -19 4134 
L -19 4666 
z
" transform="scale(0.015625)"/>
      </defs>
      <use xlink:href="#DejaVuSans-53"/>
      <use xlink:href="#DejaVuSans-46" x="63.476562"/>
      <use xlink:href="#DejaVuSans-54" x="119.246094"/>
      <use xlink:href="#DejaVuSans-20" x="180.330078"/>
      <use xlink:href="#DejaVuSans-45" x="212.117188"/>
      <use xlink:href="#DejaVuSans-53" x="275.300781"/>
      <use xlink:href="#DejaVuSans-4d" x="338.777344"/>
      <use xlink:href="#DejaVuSans-32" x="425.056641"/>
      <use xlink:href="#DejaVuSans-20" x="488.679688"/>
      <use xlink:href="#DejaVuSans-28" x="520.466797"/>
      <use xlink:href="#DejaVuSans-36" x="559.480469"/>
      <use xlink:href="#DejaVuSans-35" x="623.103516"/>
      <use xlink:href="#DejaVuSans-30" x="686.726562"/>
      <use xlink:href="#DejaVuSans-4d" x="750.349609"/>
      <use xlink:href="#DejaVuSans-29" x="836.628906"/>
     </g>
    </g>
    <g id="patch_8">
     <path d="M 259.389062 56.754687 
L 279.389062 56.754687 
L 279.389062 49.754687 
L 259.389062 49.754687 
z
" style="fill: #2166ac; fill-opacity: 0.5; stroke: #2166ac; stroke-width: 2.5; stroke-linejoin: miter"/>
    </g>
    <g id="text_19">
     <!-- Aligned ESM2 (650M) -->
     <g transform="translate(287.389062 56.754687) scale(0.1 -0.1)">
      <defs>
       <path id="DejaVuSans-41" d="M 2188 4044 
L 1331 1722 
L 3047 1722 
L 2188 4044 
z
M 1831 4666 
L 2547 4666 
L 4325 0 
L 3669 0 
L 3244 1197 
L 1141 1197 
L 716 0 
L 50 0 
L 1831 4666 
z
" transform="scale(0.015625)"/>
       <path id="DejaVuSans-67" d="M 2906 1791 
Q 2906 2416 2648 2759 
Q 2391 3103 1925 3103 
Q 1463 3103 1205 2759 
Q 947 2416 947 1791 
Q 947 1169 1205 825 
Q 1463 481 1925 481 
Q 2391 481 2648 825 
Q 2906 1169 2906 1791 
z
M 3481 434 
Q 3481 -459 3084 -895 
Q 2688 -1331 1869 -1331 
Q 1566 -1331 1297 -1286 
Q 1028 -1241 775 -1147 
L 775 -588 
Q 1028 -725 1275 -790 
Q 1522 -856 1778 -856 
Q 2344 -856 2625 -561 
Q 2906 -266 2906 331 
L 2906 616 
Q 2728 306 2450 153 
Q 2172 0 1784 0 
Q 1141 0 747 490 
Q 353 981 353 1791 
Q 353 2603 747 3093 
Q 1141 3584 1784 3584 
Q 2172 3584 2450 3431 
Q 2728 3278 2906 2969 
L 2906 3500 
L 3481 3500 
L 3481 434 
z
" transform="scale(0.015625)"/>
      </defs>
      <use xlink:href="#DejaVuSans-41"/>
      <use xlink:href="#DejaVuSans-6c" x="68.408203"/>
      <use xlink:href="#DejaVuSans-69" x="96.191406"/>
      <use xlink:href="#DejaVuSans-67" x="123.974609"/>
      <use xlink:href="#DejaVuSans-6e" x="187.451172"/>
      <use xlink:href="#DejaVuSans-65" x="250.830078"/>
      <use xlink:href="#DejaVuSans-64" x="312.353516"/>
      <use xlink:href="#DejaVuSans-20" x="375.830078"/>
      <use xlink:href="#DejaVuSans-45" x="407.617188"/>
      <use xlink:href="#DejaVuSans-53" x="470.800781"/>
      <use xlink:href="#DejaVuSans-4d" x="534.277344"/>
      <use xlink:href="#DejaVuSans-32" x="620.556641"/>
      <use xlink:href="#DejaVuSans-20" x="684.179688"/>
      <use xlink:href="#DejaVuSans-28" x="715.966797"/>
      <use xlink:href="#DejaVuSans-36" x="754.980469"/>
      <use xlink:href="#DejaVuSans-35" x="818.603516"/>
      <use xlink:href="#DejaVuSans-30" x="882.226562"/>
      <use xlink:href="#DejaVuSans-4d" x="945.849609"/>
      <use xlink:href="#DejaVuSans-29" x="1032.128906"/>
     </g>
    </g>
    <g id="line2d_16">
     <path d="M 259.389062 67.932813 
L 269.389062 67.932813 
L 279.389062 67.932813 
" style="fill: none; stroke-dasharray: 3.7,1.6; stroke-dashoffset: 0; stroke: #000000"/>
    </g>
    <g id="text_20">
     <!-- Predicted ube4b score -->
     <g transform="translate(287.389062 71.432813) scale(0.1 -0.1)">
      <defs>
       <path id="DejaVuSans-62" d="M 3116 1747 
Q 3116 2381 2855 2742 
Q 2594 3103 2138 3103 
Q 1681 3103 1420 2742 
Q 1159 2381 1159 1747 
Q 1159 1113 1420 752 
Q 1681 391 2138 391 
Q 2594 391 2855 752 
Q 3116 1113 3116 1747 
z
M 1159 2969 
Q 1341 3281 1617 3432 
Q 1894 3584 2278 3584 
Q 2916 3584 3314 3078 
Q 3713 2572 3713 1747 
Q 3713 922 3314 415 
Q 2916 -91 2278 -91 
Q 1894 -91 1617 61 
Q 1341 213 1159 525 
L 1159 0 
L 581 0 
L 581 4863 
L 1159 4863 
L 1159 2969 
z
" transform="scale(0.015625)"/>
       <path id="DejaVuSans-34" d="M 2419 4116 
L 825 1625 
L 2419 1625 
L 2419 4116 
z
M 2253 4666 
L 3047 4666 
L 3047 1625 
L 3713 1625 
L 3713 1100 
L 3047 1100 
L 3047 0 
L 2419 0 
L 2419 1100 
L 313 1100 
L 313 1709 
L 2253 4666 
z
" transform="scale(0.015625)"/>
      </defs>
      <use xlink:href="#DejaVuSans-50"/>
      <use xlink:href="#DejaVuSans-72" x="58.552734"/>
      <use xlink:href="#DejaVuSans-65" x="97.416016"/>
      <use xlink:href="#DejaVuSans-64" x="158.939453"/>
      <use xlink:href="#DejaVuSans-69" x="222.416016"/>
      <use xlink:href="#DejaVuSans-63" x="250.199219"/>
      <use xlink:href="#DejaVuSans-74" x="305.179688"/>
      <use xlink:href="#DejaVuSans-65" x="344.388672"/>
      <use xlink:href="#DejaVuSans-64" x="405.912109"/>
      <use xlink:href="#DejaVuSans-20" x="469.388672"/>
      <use xlink:href="#DejaVuSans-75" x="501.175781"/>
      <use xlink:href="#DejaVuSans-62" x="564.554688"/>
      <use xlink:href="#DejaVuSans-65" x="628.03125"/>
      <use xlink:href="#DejaVuSans-34" x="689.554688"/>
      <use xlink:href="#DejaVuSans-62" x="753.177734"/>
      <use xlink:href="#DejaVuSans-20" x="816.654297"/>
      <use xlink:href="#DejaVuSans-73" x="848.441406"/>
      <use xlink:href="#DejaVuSans-63" x="900.541016"/>
      <use xlink:href="#DejaVuSans-6f" x="955.521484"/>
      <use xlink:href="#DejaVuSans-72" x="1016.703125"/>
      <use xlink:href="#DejaVuSans-65" x="1055.566406"/>
     </g>
    </g>
   </g>
  </g>
 </g>
 <defs>
  <clipPath id="p1183e63982">
   <rect x="57.8" y="10.8" width="363.4" height="378.52"/>
  </clipPath>
 </defs>
</svg>
