<?xml version="1.0" encoding="utf-8" standalone="no"?>
<!DOCTYPE svg PUBLIC "-//W3C//DTD SVG 1.1//EN"
  "http://www.w3.org/Graphics/SVG/1.1/DTD/svg11.dtd">
<svg xmlns:xlink="http://www.w3.org/1999/xlink" width="432pt" height="432pt" viewBox="0 0 432 432" xmlns="http://www.w3.org/2000/svg" version="1.1">
 <metadata>
  <rdf:RDF xmlns:dc="http://purl.org/dc/elements/1.1/" xmlns:cc="http://creativecommons.org/ns#" xmlns:rdf="http://www.w3.org/1999/02/22-rdf-syntax-ns#">
   <cc:Work>
    <dc:type rdf:resource="http://purl.org/dc/dcmitype/StillImage"/>
    <dc:date>2025-04-03T19:11:40.944506</dc:date>
    <dc:format>image/svg+xml</dc:format>
    <dc:creator>
     <cc:Agent>
      <dc:title>Matplotlib v3.8.0, https://matplotlib.org/</dc:title>
     </cc:Agent>
    </dc:creator>
   </cc:Work>
  </rdf:RDF>
 </metadata>
 <defs>
  <style type="text/css">*{stroke-linejoin: round; stroke-linecap: butt}</style>
 </defs>
 <g id="figure_1">
  <g id="patch_1">
   <path d="M 0 432 
L 432 432 
L 432 0 
L 0 0 
z
" style="fill: #ffffff"/>
  </g>
  <g id="axes_1">
   <g id="patch_2">
    <path d="M 51.41 389.32 
L 421.2 389.32 
L 421.2 10.8 
L 51.41 10.8 
z
" style="fill: #ffffff"/>
   </g>
   <g id="PolyCollection_1">
    <defs>
     <path id="m56efd28b8b" d="M 68.218636 -42.68653 
L 68.218636 -42.68 
L 69.40918 -42.68 
L 70.599724 -42.68 
L 71.790268 -42.68 
L 72.980812 -42.68 
L 74.171356 -42.68 
L 75.3619 -42.68 
L 76.552444 -42.68 
L 77.742988 -42.68 
L 78.933531 -42.68 
L 80.124075 -42.68 
L 81.314619 -42.68 
L 82.505163 -42.68 
L 83.695707 -42.68 
L 84.886251 -42.68 
L 86.076795 -42.68 
L 87.267339 -42.68 
L 88.457883 -42.68 
L 89.648427 -42.68 
L 90.83897 -42.68 
L 92.029514 -42.68 
L 93.220058 -42.68 
L 94.410602 -42.68 
L 95.601146 -42.68 
L 96.79169 -42.68 
L 97.982234 -42.68 
L 99.172778 -42.68 
L 100.363322 -42.68 
L 101.553865 -42.68 
L 102.744409 -42.68 
L 103.934953 -42.68 
L 105.125497 -42.68 
L 106.316041 -42.68 
L 107.506585 -42.68 
L 108.697129 -42.68 
L 109.887673 -42.68 
L 111.078217 -42.68 
L 112.268761 -42.68 
L 113.459304 -42.68 
L 114.649848 -42.68 
L 115.840392 -42.68 
L 117.030936 -42.68 
L 118.22148 -42.68 
L 119.412024 -42.68 
L 120.602568 -42.68 
L 121.793112 -42.68 
L 122.983656 -42.68 
L 124.1742 -42.68 
L 125.364743 -42.68 
L 126.555287 -42.68 
L 127.745831 -42.68 
L 128.936375 -42.68 
L 130.126919 -42.68 
L 131.317463 -42.68 
L 132.508007 -42.68 
L 133.698551 -42.68 
L 134.889095 -42.68 
L 136.079639 -42.68 
L 137.270182 -42.68 
L 138.460726 -42.68 
L 139.65127 -42.68 
L 140.841814 -42.68 
L 142.032358 -42.68 
L 143.222902 -42.68 
L 144.413446 -42.68 
L 145.60399 -42.68 
L 146.794534 -42.68 
L 147.985077 -42.68 
L 149.175621 -42.68 
L 150.366165 -42.68 
L 151.556709 -42.68 
L 152.747253 -42.68 
L 153.937797 -42.68 
L 155.128341 -42.68 
L 156.318885 -42.68 
L 157.509429 -42.68 
L 158.699973 -42.68 
L 159.890516 -42.68 
L 161.08106 -42.68 
L 162.271604 -42.68 
L 163.462148 -42.68 
L 164.652692 -42.68 
L 165.843236 -42.68 
L 167.03378 -42.68 
L 168.224324 -42.68 
L 169.414868 -42.68 
L 170.605412 -42.68 
L 171.795955 -42.68 
L 172.986499 -42.68 
L 174.177043 -42.68 
L 175.367587 -42.68 
L 176.558131 -42.68 
L 177.748675 -42.68 
L 178.939219 -42.68 
L 180.129763 -42.68 
L 181.320307 -42.68 
L 182.510851 -42.68 
L 183.701394 -42.68 
L 184.891938 -42.68 
L 186.082482 -42.68 
L 187.273026 -42.68 
L 188.46357 -42.68 
L 189.654114 -42.68 
L 190.844658 -42.68 
L 192.035202 -42.68 
L 193.225746 -42.68 
L 194.416289 -42.68 
L 195.606833 -42.68 
L 196.797377 -42.68 
L 197.987921 -42.68 
L 199.178465 -42.68 
L 200.369009 -42.68 
L 201.559553 -42.68 
L 202.750097 -42.68 
L 203.940641 -42.68 
L 205.131185 -42.68 
L 206.321728 -42.68 
L 207.512272 -42.68 
L 208.702816 -42.68 
L 209.89336 -42.68 
L 211.083904 -42.68 
L 212.274448 -42.68 
L 213.464992 -42.68 
L 214.655536 -42.68 
L 215.84608 -42.68 
L 217.036624 -42.68 
L 218.227167 -42.68 
L 219.417711 -42.68 
L 220.608255 -42.68 
L 221.798799 -42.68 
L 222.989343 -42.68 
L 224.179887 -42.68 
L 225.370431 -42.68 
L 226.560975 -42.68 
L 227.751519 -42.68 
L 228.942063 -42.68 
L 230.132606 -42.68 
L 231.32315 -42.68 
L 232.513694 -42.68 
L 233.704238 -42.68 
L 234.894782 -42.68 
L 236.085326 -42.68 
L 237.27587 -42.68 
L 238.466414 -42.68 
L 239.656958 -42.68 
L 240.847501 -42.68 
L 242.038045 -42.68 
L 243.228589 -42.68 
L 244.419133 -42.68 
L 245.609677 -42.68 
L 246.800221 -42.68 
L 247.990765 -42.68 
L 249.181309 -42.68 
L 250.371853 -42.68 
L 251.562397 -42.68 
L 252.75294 -42.68 
L 253.943484 -42.68 
L 255.134028 -42.68 
L 256.324572 -42.68 
L 257.515116 -42.68 
L 258.70566 -42.68 
L 259.896204 -42.68 
L 261.086748 -42.68 
L 262.277292 -42.68 
L 263.467836 -42.68 
L 264.658379 -42.68 
L 265.848923 -42.68 
L 267.039467 -42.68 
L 268.230011 -42.68 
L 269.420555 -42.68 
L 270.611099 -42.68 
L 271.801643 -42.68 
L 272.992187 -42.68 
L 274.182731 -42.68 
L 275.373275 -42.68 
L 276.563818 -42.68 
L 277.754362 -42.68 
L 278.944906 -42.68 
L 280.13545 -42.68 
L 281.325994 -42.68 
L 282.516538 -42.68 
L 283.707082 -42.68 
L 284.897626 -42.68 
L 286.08817 -42.68 
L 287.278713 -42.68 
L 288.469257 -42.68 
L 289.659801 -42.68 
L 290.850345 -42.68 
L 292.040889 -42.68 
L 293.231433 -42.68 
L 294.421977 -42.68 
L 295.612521 -42.68 
L 296.803065 -42.68 
L 297.993609 -42.68 
L 299.184152 -42.68 
L 300.374696 -42.68 
L 301.56524 -42.68 
L 302.755784 -42.68 
L 303.946328 -42.68 
L 305.136872 -42.68 
L 305.136872 -42.685399 
L 305.136872 -42.685399 
L 303.946328 -42.689222 
L 302.755784 -42.695243 
L 301.56524 -42.704385 
L 300.374696 -42.717767 
L 299.184152 -42.736647 
L 297.993609 -42.762318 
L 296.803065 -42.795959 
L 295.612521 -42.838445 
L 294.421977 -42.890176 
L 293.231433 -42.95093 
L 292.040889 -43.019815 
L 290.850345 -43.095323 
L 289.659801 -43.1755 
L 288.469257 -43.258196 
L 287.278713 -43.341336 
L 286.08817 -43.423141 
L 284.897626 -43.502236 
L 283.707082 -43.577643 
L 282.516538 -43.648661 
L 281.325994 -43.714734 
L 280.13545 -43.775372 
L 278.944906 -43.83022 
L 277.754362 -43.879287 
L 276.563818 -43.923301 
L 275.373275 -43.964086 
L 274.182731 -44.004824 
L 272.992187 -44.050081 
L 271.801643 -44.105528 
L 270.611099 -44.177369 
L 269.420555 -44.271572 
L 268.230011 -44.39306 
L 267.039467 -44.545063 
L 265.848923 -44.728773 
L 264.658379 -44.943445 
L 263.467836 -45.186925 
L 262.277292 -45.456578 
L 261.086748 -45.750425 
L 259.896204 -46.068325 
L 258.70566 -46.412968 
L 257.515116 -46.790507 
L 256.324572 -47.210698 
L 255.134028 -47.686523 
L 253.943484 -48.233322 
L 252.75294 -48.867558 
L 251.562397 -49.605378 
L 250.371853 -50.461166 
L 249.181309 -51.44628 
L 247.990765 -52.568171 
L 246.800221 -53.830032 
L 245.609677 -55.231068 
L 244.419133 -56.767378 
L 243.228589 -58.433329 
L 242.038045 -60.223146 
L 240.847501 -62.132371 
L 239.656958 -64.158801 
L 238.466414 -66.302577 
L 237.27587 -68.565287 
L 236.085326 -70.948165 
L 234.894782 -73.449722 
L 233.704238 -76.063312 
L 232.513694 -78.775196 
L 231.32315 -81.563611 
L 230.132606 -84.399128 
L 228.942063 -87.246403 
L 227.751519 -90.067172 
L 226.560975 -92.824217 
L 225.370431 -95.485912 
L 224.179887 -98.030931 
L 222.989343 -100.452617 
L 221.798799 -102.762445 
L 220.608255 -104.991915 
L 219.417711 -107.192209 
L 218.227167 -109.431064 
L 217.036624 -111.786642 
L 215.84608 -114.338706 
L 214.655536 -117.158021 
L 213.464992 -120.295443 
L 212.274448 -123.772472 
L 211.083904 -127.574966 
L 209.89336 -131.651275 
L 208.702816 -135.915283 
L 207.512272 -140.253984 
L 206.321728 -144.538455 
L 205.131185 -148.63659 
L 203.940641 -152.425831 
L 202.750097 -155.804316 
L 201.559553 -158.699262 
L 200.369009 -161.071875 
L 199.178465 -162.918519 
L 197.987921 -164.268214 
L 196.797377 -165.176821 
L 195.606833 -165.718534 
L 194.416289 -165.975536 
L 193.225746 -166.026981 
L 192.035202 -165.938608 
L 190.844658 -165.754385 
L 189.654114 -165.491361 
L 188.46357 -165.138484 
L 187.273026 -164.659554 
L 186.082482 -163.999766 
L 184.891938 -163.094747 
L 183.701394 -161.880567 
L 182.510851 -160.303203 
L 181.320307 -158.326085 
L 180.129763 -155.934926 
L 178.939219 -153.139534 
L 177.748675 -149.972905 
L 176.558131 -146.488184 
L 175.367587 -142.754223 
L 174.177043 -138.850302 
L 172.986499 -134.860366 
L 171.795955 -130.866945 
L 170.605412 -126.94492 
L 169.414868 -123.155486 
L 168.224324 -119.540973 
L 167.03378 -116.12143 
L 165.843236 -112.893867 
L 164.652692 -109.834687 
L 163.462148 -106.905195 
L 162.271604 -104.059284 
L 161.08106 -101.25185 
L 159.890516 -98.446234 
L 158.699973 -95.619295 
L 157.509429 -92.763369 
L 156.318885 -89.88515 
L 155.128341 -87.002289 
L 153.937797 -84.138827 
L 152.747253 -81.320653 
L 151.556709 -78.571856 
L 150.366165 -75.912424 
L 149.175621 -73.357327 
L 147.985077 -70.916709 
L 146.794534 -68.596793 
L 145.60399 -66.401071 
L 144.413446 -64.331414 
L 143.222902 -62.38887 
L 142.032358 -60.574039 
L 140.841814 -58.887051 
L 139.65127 -57.3273 
L 138.460726 -55.893126 
L 137.270182 -54.58163 
L 136.079639 -53.388726 
L 134.889095 -52.309384 
L 133.698551 -51.33795 
L 132.508007 -50.468363 
L 131.317463 -49.694146 
L 130.126919 -49.008175 
L 128.936375 -48.402329 
L 127.745831 -47.867219 
L 126.555287 -47.39221 
L 125.364743 -46.965836 
L 124.1742 -46.576618 
L 122.983656 -46.214131 
L 121.793112 -45.870113 
L 120.602568 -45.539356 
L 119.412024 -45.220206 
L 118.22148 -44.914549 
L 117.030936 -44.627316 
L 115.840392 -44.365574 
L 114.649848 -44.137376 
L 113.459304 -43.950527 
L 112.268761 -43.811441 
L 111.078217 -43.724201 
L 109.887673 -43.689948 
L 108.697129 -43.706611 
L 107.506585 -43.76903 
L 106.316041 -43.869405 
L 105.125497 -43.998013 
L 103.934953 -44.144069 
L 102.744409 -44.296607 
L 101.553865 -44.445257 
L 100.363322 -44.580814 
L 99.172778 -44.695576 
L 97.982234 -44.783469 
L 96.79169 -44.840014 
L 95.601146 -44.862241 
L 94.410602 -44.848616 
L 93.220058 -44.799033 
L 92.029514 -44.714851 
L 90.83897 -44.598948 
L 89.648427 -44.455707 
L 88.457883 -44.290873 
L 87.267339 -44.111263 
L 86.076795 -43.924301 
L 84.886251 -43.737465 
L 83.695707 -43.557691 
L 82.505163 -43.390838 
L 81.314619 -43.241298 
L 80.124075 -43.111793 
L 78.933531 -43.003372 
L 77.742988 -42.915607 
L 76.552444 -42.846905 
L 75.3619 -42.794894 
L 74.171356 -42.756818 
L 72.980812 -42.72986 
L 71.790268 -42.711405 
L 70.599724 -42.699188 
L 69.40918 -42.691369 
L 68.218636 -42.68653 
z
" style="stroke: #bdbdbd; stroke-width: 2.5"/>
    </defs>
    <g clip-path="url(#pbf502002b8)">
     <use xlink:href="#m56efd28b8b" x="0" y="432" style="fill: #bdbdbd; fill-opacity: 0.5; stroke: #bdbdbd; stroke-width: 2.5"/>
    </g>
   </g>
   <g id="PolyCollection_2">
    <defs>
     <path id="me478063611" d="M 303.393659 -42.692085 
L 303.393659 -42.68 
L 303.901185 -42.68 
L 304.408712 -42.68 
L 304.916238 -42.68 
L 305.423764 -42.68 
L 305.93129 -42.68 
L 306.438816 -42.68 
L 306.946342 -42.68 
L 307.453868 -42.68 
L 307.961395 -42.68 
L 308.468921 -42.68 
L 308.976447 -42.68 
L 309.483973 -42.68 
L 309.991499 -42.68 
L 310.499025 -42.68 
L 311.006552 -42.68 
L 311.514078 -42.68 
L 312.021604 -42.68 
L 312.52913 -42.68 
L 313.036656 -42.68 
L 313.544182 -42.68 
L 314.051708 -42.68 
L 314.559235 -42.68 
L 315.066761 -42.68 
L 315.574287 -42.68 
L 316.081813 -42.68 
L 316.589339 -42.68 
L 317.096865 -42.68 
L 317.604392 -42.68 
L 318.111918 -42.68 
L 318.619444 -42.68 
L 319.12697 -42.68 
L 319.634496 -42.68 
L 320.142022 -42.68 
L 320.649548 -42.68 
L 321.157075 -42.68 
L 321.664601 -42.68 
L 322.172127 -42.68 
L 322.679653 -42.68 
L 323.187179 -42.68 
L 323.694705 -42.68 
L 324.202232 -42.68 
L 324.709758 -42.68 
L 325.217284 -42.68 
L 325.72481 -42.68 
L 326.232336 -42.68 
L 326.739862 -42.68 
L 327.247388 -42.68 
L 327.754915 -42.68 
L 328.262441 -42.68 
L 328.769967 -42.68 
L 329.277493 -42.68 
L 329.785019 -42.68 
L 330.292545 -42.68 
L 330.800071 -42.68 
L 331.307598 -42.68 
L 331.815124 -42.68 
L 332.32265 -42.68 
L 332.830176 -42.68 
L 333.337702 -42.68 
L 333.845228 -42.68 
L 334.352755 -42.68 
L 334.860281 -42.68 
L 335.367807 -42.68 
L 335.875333 -42.68 
L 336.382859 -42.68 
L 336.890385 -42.68 
L 337.397911 -42.68 
L 337.905438 -42.68 
L 338.412964 -42.68 
L 338.92049 -42.68 
L 339.428016 -42.68 
L 339.935542 -42.68 
L 340.443068 -42.68 
L 340.950595 -42.68 
L 341.458121 -42.68 
L 341.965647 -42.68 
L 342.473173 -42.68 
L 342.980699 -42.68 
L 343.488225 -42.68 
L 343.995751 -42.68 
L 344.503278 -42.68 
L 345.010804 -42.68 
L 345.51833 -42.68 
L 346.025856 -42.68 
L 346.533382 -42.68 
L 347.040908 -42.68 
L 347.548435 -42.68 
L 348.055961 -42.68 
L 348.563487 -42.68 
L 349.071013 -42.68 
L 349.578539 -42.68 
L 350.086065 -42.68 
L 350.593591 -42.68 
L 351.101118 -42.68 
L 351.608644 -42.68 
L 352.11617 -42.68 
L 352.623696 -42.68 
L 353.131222 -42.68 
L 353.638748 -42.68 
L 354.146275 -42.68 
L 354.653801 -42.68 
L 355.161327 -42.68 
L 355.668853 -42.68 
L 356.176379 -42.68 
L 356.683905 -42.68 
L 357.191431 -42.68 
L 357.698958 -42.68 
L 358.206484 -42.68 
L 358.71401 -42.68 
L 359.221536 -42.68 
L 359.729062 -42.68 
L 360.236588 -42.68 
L 360.744115 -42.68 
L 361.251641 -42.68 
L 361.759167 -42.68 
L 362.266693 -42.68 
L 362.774219 -42.68 
L 363.281745 -42.68 
L 363.789271 -42.68 
L 364.296798 -42.68 
L 364.804324 -42.68 
L 365.31185 -42.68 
L 365.819376 -42.68 
L 366.326902 -42.68 
L 366.834428 -42.68 
L 367.341954 -42.68 
L 367.849481 -42.68 
L 368.357007 -42.68 
L 368.864533 -42.68 
L 369.372059 -42.68 
L 369.879585 -42.68 
L 370.387111 -42.68 
L 370.894638 -42.68 
L 371.402164 -42.68 
L 371.90969 -42.68 
L 372.417216 -42.68 
L 372.924742 -42.68 
L 373.432268 -42.68 
L 373.939794 -42.68 
L 374.447321 -42.68 
L 374.954847 -42.68 
L 375.462373 -42.68 
L 375.969899 -42.68 
L 376.477425 -42.68 
L 376.984951 -42.68 
L 377.492478 -42.68 
L 378.000004 -42.68 
L 378.50753 -42.68 
L 379.015056 -42.68 
L 379.522582 -42.68 
L 380.030108 -42.68 
L 380.537634 -42.68 
L 381.045161 -42.68 
L 381.552687 -42.68 
L 382.060213 -42.68 
L 382.567739 -42.68 
L 383.075265 -42.68 
L 383.582791 -42.68 
L 384.090318 -42.68 
L 384.597844 -42.68 
L 385.10537 -42.68 
L 385.612896 -42.68 
L 386.120422 -42.68 
L 386.627948 -42.68 
L 387.135474 -42.68 
L 387.643001 -42.68 
L 388.150527 -42.68 
L 388.658053 -42.68 
L 389.165579 -42.68 
L 389.673105 -42.68 
L 390.180631 -42.68 
L 390.688158 -42.68 
L 391.195684 -42.68 
L 391.70321 -42.68 
L 392.210736 -42.68 
L 392.718262 -42.68 
L 393.225788 -42.68 
L 393.733314 -42.68 
L 394.240841 -42.68 
L 394.748367 -42.68 
L 395.255893 -42.68 
L 395.763419 -42.68 
L 396.270945 -42.68 
L 396.778471 -42.68 
L 397.285997 -42.68 
L 397.793524 -42.68 
L 398.30105 -42.68 
L 398.808576 -42.68 
L 399.316102 -42.68 
L 399.823628 -42.68 
L 400.331154 -42.68 
L 400.838681 -42.68 
L 401.346207 -42.68 
L 401.853733 -42.68 
L 402.361259 -42.68 
L 402.868785 -42.68 
L 403.376311 -42.68 
L 403.883837 -42.68 
L 404.391364 -42.68 
L 404.391364 -42.700545 
L 404.391364 -42.700545 
L 403.883837 -42.715286 
L 403.376311 -42.738879 
L 402.868785 -42.77548 
L 402.361259 -42.830526 
L 401.853733 -42.910788 
L 401.346207 -43.024284 
L 400.838681 -43.179963 
L 400.331154 -43.387178 
L 399.823628 -43.654926 
L 399.316102 -43.990939 
L 398.808576 -44.400732 
L 398.30105 -44.886721 
L 397.793524 -45.44757 
L 397.285997 -46.077843 
L 396.778471 -46.76801 
L 396.270945 -47.504784 
L 395.763419 -48.271707 
L 395.255893 -49.049891 
L 394.748367 -49.818836 
L 394.240841 -50.557295 
L 393.733314 -51.244213 
L 393.225788 -51.859786 
L 392.718262 -52.386668 
L 392.210736 -52.81132 
L 391.70321 -53.125366 
L 391.195684 -53.326786 
L 390.688158 -53.42073 
L 390.180631 -53.4198 
L 389.673105 -53.343742 
L 389.165579 -53.218645 
L 388.658053 -53.075857 
L 388.150527 -52.950864 
L 387.643001 -52.882331 
L 387.135474 -52.911375 
L 386.627948 -53.080984 
L 386.120422 -53.435347 
L 385.612896 -54.01884 
L 385.10537 -54.874473 
L 384.597844 -56.041739 
L 384.090318 -57.554013 
L 383.582791 -59.4358 
L 383.075265 -61.700191 
L 382.567739 -64.346917 
L 382.060213 -67.361275 
L 381.552687 -70.714091 
L 381.045161 -74.362735 
L 380.537634 -78.253117 
L 380.030108 -82.322448 
L 379.522582 -86.50251 
L 379.015056 -90.723081 
L 378.50753 -94.915196 
L 378.000004 -99.013988 
L 377.492478 -102.961021 
L 376.984951 -106.706294 
L 376.477425 -110.210307 
L 375.969899 -113.446681 
L 375.462373 -116.405671 
L 374.954847 -119.09853 
L 374.447321 -121.56206 
L 373.939794 -123.862127 
L 373.432268 -126.094586 
L 372.924742 -128.382169 
L 372.417216 -130.866551 
L 371.90969 -133.695829 
L 371.402164 -137.008869 
L 370.894638 -140.918891 
L 370.387111 -145.49914 
L 369.879585 -150.773183 
L 369.372059 -156.711507 
L 368.864533 -163.234736 
L 368.357007 -170.222506 
L 367.849481 -177.525954 
L 367.341954 -184.981412 
L 366.834428 -192.423059 
L 366.326902 -199.692979 
L 365.819376 -206.648024 
L 365.31185 -213.163668 
L 364.804324 -219.135577 
L 364.296798 -224.479748 
L 363.789271 -229.131878 
L 363.281745 -233.046347 
L 362.774219 -236.195001 
L 362.266693 -238.565886 
L 361.759167 -240.16225 
L 361.251641 -241.00227 
L 360.744115 -241.120012 
L 360.236588 -240.567904 
L 359.729062 -239.420512 
L 359.221536 -237.778924 
L 358.71401 -235.774585 
L 358.206484 -233.571355 
L 357.698958 -231.364875 
L 357.191431 -229.378927 
L 356.683905 -227.859203 
L 356.176379 -227.065416 
L 355.668853 -227.262794 
L 355.161327 -228.713576 
L 354.653801 -231.668234 
L 354.146275 -236.355167 
L 353.638748 -242.966921 
L 353.131222 -251.64104 
L 352.623696 -262.434774 
L 352.11617 -275.294981 
L 351.608644 -290.02726 
L 351.101118 -306.270776 
L 350.593591 -323.486583 
L 350.086065 -340.966564 
L 349.578539 -357.867244 
L 349.071013 -373.268017 
L 348.563487 -386.247895 
L 348.055961 -395.970173 
L 347.548435 -401.761873 
L 347.040908 -403.175238 
L 346.533382 -400.022035 
L 346.025856 -392.376857 
L 345.51833 -380.551686 
L 345.010804 -365.048927 
L 344.503278 -346.502834 
L 343.995751 -325.619382 
L 343.488225 -303.122453 
L 342.980699 -279.710925 
L 342.473173 -256.027848 
L 341.965647 -232.640425 
L 341.458121 -210.028386 
L 340.950595 -188.578358 
L 340.443068 -168.582651 
L 339.935542 -150.241758 
L 339.428016 -133.670417 
L 338.92049 -118.907114 
L 338.412964 -105.926544 
L 337.905438 -94.653947 
L 337.397911 -84.979887 
L 336.890385 -76.773924 
L 336.382859 -69.895968 
L 335.875333 -64.204593 
L 335.367807 -59.56229 
L 334.860281 -55.838089 
L 334.352755 -52.908362 
L 333.845228 -50.656666 
L 333.337702 -48.973379 
L 332.830176 -47.755651 
L 332.32265 -46.907917 
L 331.815124 -46.342964 
L 331.307598 -45.983332 
L 330.800071 -45.762737 
L 330.292545 -45.627146 
L 329.785019 -45.535205 
L 329.277493 -45.457838 
L 328.769967 -45.377014 
L 328.262441 -45.28385 
L 327.754915 -45.176367 
L 327.247388 -45.057242 
L 326.739862 -44.931883 
L 326.232336 -44.807013 
L 325.72481 -44.689782 
L 325.217284 -44.587264 
L 324.709758 -44.50612 
L 324.202232 -44.452186 
L 323.694705 -44.42986 
L 323.187179 -44.44129 
L 322.679653 -44.485534 
L 322.172127 -44.557927 
L 321.664601 -44.649963 
L 321.157075 -44.749846 
L 320.649548 -44.84377 
L 320.142022 -44.917762 
L 319.634496 -44.959785 
L 319.12697 -44.961668 
L 318.619444 -44.920483 
L 318.111918 -44.83905 
L 317.604392 -44.725442 
L 317.096865 -44.591587 
L 316.589339 -44.451216 
L 316.081813 -44.317564 
L 315.574287 -44.201254 
L 315.066761 -44.108743 
L 314.559235 -44.041589 
L 314.051708 -43.996612 
L 313.544182 -43.966881 
L 313.036656 -43.943266 
L 312.52913 -43.916237 
L 312.021604 -43.877564 
L 311.514078 -43.821621 
L 311.006552 -43.746087 
L 310.499025 -43.651999 
L 309.991499 -43.543229 
L 309.483973 -43.425548 
L 308.976447 -43.305523 
L 308.468921 -43.189464 
L 307.961395 -43.082603 
L 307.453868 -42.9886 
L 306.946342 -42.909392 
L 306.438816 -42.845334 
L 305.93129 -42.795534 
L 305.423764 -42.75827 
L 304.916238 -42.731404 
L 304.408712 -42.712727 
L 303.901185 -42.700199 
L 303.393659 -42.692085 
z
" style="stroke: #92c5de; stroke-width: 2.5"/>
    </defs>
    <g clip-path="url(#pbf502002b8)">
     <use xlink:href="#me478063611" x="0" y="432" style="fill: #92c5de; fill-opacity: 0.5; stroke: #92c5de; stroke-width: 2.5"/>
    </g>
   </g>
   <g id="matplotlib.axis_1">
    <g id="xtick_1">
     <g id="line2d_1">
      <defs>
       <path id="mf8c96562bb" d="M 0 0 
L 0 3.5 
" style="stroke: #000000; stroke-width: 0.8"/>
      </defs>
      <g>
       <use xlink:href="#mf8c96562bb" x="69.176328" y="389.32" style="stroke: #000000; stroke-width: 0.8"/>
      </g>
     </g>
     <g id="text_1">
      <!-- −2 -->
      <g transform="translate(61.805234 403.918437) scale(0.1 -0.1)">
       <defs>
        <path id="DejaVuSans-2212" d="M 678 2272 
L 4684 2272 
L 4684 1741 
L 678 1741 
L 678 2272 
z
" transform="scale(0.015625)"/>
        <path id="DejaVuSans-32" d="M 1228 531 
L 3431 531 
L 3431 0 
L 469 0 
L 469 531 
Q 828 903 1448 1529 
Q 2069 2156 2228 2338 
Q 2531 2678 2651 2914 
Q 2772 3150 2772 3378 
Q 2772 3750 2511 3984 
Q 2250 4219 1831 4219 
Q 1534 4219 1204 4116 
Q 875 4013 500 3803 
L 500 4441 
Q 881 4594 1212 4672 
Q 1544 4750 1819 4750 
Q 2544 4750 2975 4387 
Q 3406 4025 3406 3419 
Q 3406 3131 3298 2873 
Q 3191 2616 2906 2266 
Q 2828 2175 2409 1742 
Q 1991 1309 1228 531 
z
" transform="scale(0.015625)"/>
       </defs>
       <use xlink:href="#DejaVuSans-2212"/>
       <use xlink:href="#DejaVuSans-32" x="83.789062"/>
      </g>
     </g>
    </g>
    <g id="xtick_2">
     <g id="line2d_2">
      <g>
       <use xlink:href="#mf8c96562bb" x="129.495274" y="389.32" style="stroke: #000000; stroke-width: 0.8"/>
      </g>
     </g>
     <g id="text_2">
      <!-- 0 -->
      <g transform="translate(126.314024 403.918437) scale(0.1 -0.1)">
       <defs>
        <path id="DejaVuSans-30" d="M 2034 4250 
Q 1547 4250 1301 3770 
Q 1056 3291 1056 2328 
Q 1056 1369 1301 889 
Q 1547 409 2034 409 
Q 2525 409 2770 889 
Q 3016 1369 3016 2328 
Q 3016 3291 2770 3770 
Q 2525 4250 2034 4250 
z
M 2034 4750 
Q 2819 4750 3233 4129 
Q 3647 3509 3647 2328 
Q 3647 1150 3233 529 
Q 2819 -91 2034 -91 
Q 1250 -91 836 529 
Q 422 1150 422 2328 
Q 422 3509 836 4129 
Q 1250 4750 2034 4750 
z
" transform="scale(0.015625)"/>
       </defs>
       <use xlink:href="#DejaVuSans-30"/>
      </g>
     </g>
    </g>
    <g id="xtick_3">
     <g id="line2d_3">
      <g>
       <use xlink:href="#mf8c96562bb" x="189.81422" y="389.32" style="stroke: #000000; stroke-width: 0.8"/>
      </g>
     </g>
     <g id="text_3">
      <!-- 2 -->
      <g transform="translate(186.63297 403.918437) scale(0.1 -0.1)">
       <use xlink:href="#DejaVuSans-32"/>
      </g>
     </g>
    </g>
    <g id="xtick_4">
     <g id="line2d_4">
      <g>
       <use xlink:href="#mf8c96562bb" x="250.133166" y="389.32" style="stroke: #000000; stroke-width: 0.8"/>
      </g>
     </g>
     <g id="text_4">
      <!-- 4 -->
      <g transform="translate(246.951916 403.918437) scale(0.1 -0.1)">
       <defs>
        <path id="DejaVuSans-34" d="M 2419 4116 
L 825 1625 
L 2419 1625 
L 2419 4116 
z
M 2253 4666 
L 3047 4666 
L 3047 1625 
L 3713 1625 
L 3713 1100 
L 3047 1100 
L 3047 0 
L 2419 0 
L 2419 1100 
L 313 1100 
L 313 1709 
L 2253 4666 
z
" transform="scale(0.015625)"/>
       </defs>
       <use xlink:href="#DejaVuSans-34"/>
      </g>
     </g>
    </g>
    <g id="xtick_5">
     <g id="line2d_5">
      <g>
       <use xlink:href="#mf8c96562bb" x="310.452112" y="389.32" style="stroke: #000000; stroke-width: 0.8"/>
      </g>
     </g>
     <g id="text_5">
      <!-- 6 -->
      <g transform="translate(307.270862 403.918437) scale(0.1 -0.1)">
       <defs>
        <path id="DejaVuSans-36" d="M 2113 2584 
Q 1688 2584 1439 2293 
Q 1191 2003 1191 1497 
Q 1191 994 1439 701 
Q 1688 409 2113 409 
Q 2538 409 2786 701 
Q 3034 994 3034 1497 
Q 3034 2003 2786 2293 
Q 2538 2584 2113 2584 
z
M 3366 4563 
L 3366 3988 
Q 3128 4100 2886 4159 
Q 2644 4219 2406 4219 
Q 1781 4219 1451 3797 
Q 1122 3375 1075 2522 
Q 1259 2794 1537 2939 
Q 1816 3084 2150 3084 
Q 2853 3084 3261 2657 
Q 3669 2231 3669 1497 
Q 3669 778 3244 343 
Q 2819 -91 2113 -91 
Q 1303 -91 875 529 
Q 447 1150 447 2328 
Q 447 3434 972 4092 
Q 1497 4750 2381 4750 
Q 2619 4750 2861 4703 
Q 3103 4656 3366 4563 
z
" transform="scale(0.015625)"/>
       </defs>
       <use xlink:href="#DejaVuSans-36"/>
      </g>
     </g>
    </g>
    <g id="xtick_6">
     <g id="line2d_6">
      <g>
       <use xlink:href="#mf8c96562bb" x="370.771057" y="389.32" style="stroke: #000000; stroke-width: 0.8"/>
      </g>
     </g>
     <g id="text_6">
      <!-- 8 -->
      <g transform="translate(367.589807 403.918437) scale(0.1 -0.1)">
       <defs>
        <path id="DejaVuSans-38" d="M 2034 2216 
Q 1584 2216 1326 1975 
Q 1069 1734 1069 1313 
Q 1069 891 1326 650 
Q 1584 409 2034 409 
Q 2484 409 2743 651 
Q 3003 894 3003 1313 
Q 3003 1734 2745 1975 
Q 2488 2216 2034 2216 
z
M 1403 2484 
Q 997 2584 770 2862 
Q 544 3141 544 3541 
Q 544 4100 942 4425 
Q 1341 4750 2034 4750 
Q 2731 4750 3128 4425 
Q 3525 4100 3525 3541 
Q 3525 3141 3298 2862 
Q 3072 2584 2669 2484 
Q 3125 2378 3379 2068 
Q 3634 1759 3634 1313 
Q 3634 634 3220 271 
Q 2806 -91 2034 -91 
Q 1263 -91 848 271 
Q 434 634 434 1313 
Q 434 1759 690 2068 
Q 947 2378 1403 2484 
z
M 1172 3481 
Q 1172 3119 1398 2916 
Q 1625 2713 2034 2713 
Q 2441 2713 2670 2916 
Q 2900 3119 2900 3481 
Q 2900 3844 2670 4047 
Q 2441 4250 2034 4250 
Q 1625 4250 1398 4047 
Q 1172 3844 1172 3481 
z
" transform="scale(0.015625)"/>
       </defs>
       <use xlink:href="#DejaVuSans-38"/>
      </g>
     </g>
    </g>
    <g id="text_7">
     <!-- Predicted Fluorescence -->
     <g transform="translate(166.70875 419.11625) scale(0.12 -0.12)">
      <defs>
       <path id="DejaVuSans-50" d="M 1259 4147 
L 1259 2394 
L 2053 2394 
Q 2494 2394 2734 2622 
Q 2975 2850 2975 3272 
Q 2975 3691 2734 3919 
Q 2494 4147 2053 4147 
L 1259 4147 
z
M 628 4666 
L 2053 4666 
Q 2838 4666 3239 4311 
Q 3641 3956 3641 3272 
Q 3641 2581 3239 2228 
Q 2838 1875 2053 1875 
L 1259 1875 
L 1259 0 
L 628 0 
L 628 4666 
z
" transform="scale(0.015625)"/>
       <path id="DejaVuSans-72" d="M 2631 2963 
Q 2534 3019 2420 3045 
Q 2306 3072 2169 3072 
Q 1681 3072 1420 2755 
Q 1159 2438 1159 1844 
L 1159 0 
L 581 0 
L 581 3500 
L 1159 3500 
L 1159 2956 
Q 1341 3275 1631 3429 
Q 1922 3584 2338 3584 
Q 2397 3584 2469 3576 
Q 2541 3569 2628 3553 
L 2631 2963 
z
" transform="scale(0.015625)"/>
       <path id="DejaVuSans-65" d="M 3597 1894 
L 3597 1613 
L 953 1613 
Q 991 1019 1311 708 
Q 1631 397 2203 397 
Q 2534 397 2845 478 
Q 3156 559 3463 722 
L 3463 178 
Q 3153 47 2828 -22 
Q 2503 -91 2169 -91 
Q 1331 -91 842 396 
Q 353 884 353 1716 
Q 353 2575 817 3079 
Q 1281 3584 2069 3584 
Q 2775 3584 3186 3129 
Q 3597 2675 3597 1894 
z
M 3022 2063 
Q 3016 2534 2758 2815 
Q 2500 3097 2075 3097 
Q 1594 3097 1305 2825 
Q 1016 2553 972 2059 
L 3022 2063 
z
" transform="scale(0.015625)"/>
       <path id="DejaVuSans-64" d="M 2906 2969 
L 2906 4863 
L 3481 4863 
L 3481 0 
L 2906 0 
L 2906 525 
Q 2725 213 2448 61 
Q 2172 -91 1784 -91 
Q 1150 -91 751 415 
Q 353 922 353 1747 
Q 353 2572 751 3078 
Q 1150 3584 1784 3584 
Q 2172 3584 2448 3432 
Q 2725 3281 2906 2969 
z
M 947 1747 
Q 947 1113 1208 752 
Q 1469 391 1925 391 
Q 2381 391 2643 752 
Q 2906 1113 2906 1747 
Q 2906 2381 2643 2742 
Q 2381 3103 1925 3103 
Q 1469 3103 1208 2742 
Q 947 2381 947 1747 
z
" transform="scale(0.015625)"/>
       <path id="DejaVuSans-69" d="M 603 3500 
L 1178 3500 
L 1178 0 
L 603 0 
L 603 3500 
z
M 603 4863 
L 1178 4863 
L 1178 4134 
L 603 4134 
L 603 4863 
z
" transform="scale(0.015625)"/>
       <path id="DejaVuSans-63" d="M 3122 3366 
L 3122 2828 
Q 2878 2963 2633 3030 
Q 2388 3097 2138 3097 
Q 1578 3097 1268 2742 
Q 959 2388 959 1747 
Q 959 1106 1268 751 
Q 1578 397 2138 397 
Q 2388 397 2633 464 
Q 2878 531 3122 666 
L 3122 134 
Q 2881 22 2623 -34 
Q 2366 -91 2075 -91 
Q 1284 -91 818 406 
Q 353 903 353 1747 
Q 353 2603 823 3093 
Q 1294 3584 2113 3584 
Q 2378 3584 2631 3529 
Q 2884 3475 3122 3366 
z
" transform="scale(0.015625)"/>
       <path id="DejaVuSans-74" d="M 1172 4494 
L 1172 3500 
L 2356 3500 
L 2356 3053 
L 1172 3053 
L 1172 1153 
Q 1172 725 1289 603 
Q 1406 481 1766 481 
L 2356 481 
L 2356 0 
L 1766 0 
Q 1100 0 847 248 
Q 594 497 594 1153 
L 594 3053 
L 172 3053 
L 172 3500 
L 594 3500 
L 594 4494 
L 1172 4494 
z
" transform="scale(0.015625)"/>
       <path id="DejaVuSans-20" transform="scale(0.015625)"/>
       <path id="DejaVuSans-46" d="M 628 4666 
L 3309 4666 
L 3309 4134 
L 1259 4134 
L 1259 2759 
L 3109 2759 
L 3109 2228 
L 1259 2228 
L 1259 0 
L 628 0 
L 628 4666 
z
" transform="scale(0.015625)"/>
       <path id="DejaVuSans-6c" d="M 603 4863 
L 1178 4863 
L 1178 0 
L 603 0 
L 603 4863 
z
" transform="scale(0.015625)"/>
       <path id="DejaVuSans-75" d="M 544 1381 
L 544 3500 
L 1119 3500 
L 1119 1403 
Q 1119 906 1312 657 
Q 1506 409 1894 409 
Q 2359 409 2629 706 
Q 2900 1003 2900 1516 
L 2900 3500 
L 3475 3500 
L 3475 0 
L 2900 0 
L 2900 538 
Q 2691 219 2414 64 
Q 2138 -91 1772 -91 
Q 1169 -91 856 284 
Q 544 659 544 1381 
z
M 1991 3584 
L 1991 3584 
z
" transform="scale(0.015625)"/>
       <path id="DejaVuSans-6f" d="M 1959 3097 
Q 1497 3097 1228 2736 
Q 959 2375 959 1747 
Q 959 1119 1226 758 
Q 1494 397 1959 397 
Q 2419 397 2687 759 
Q 2956 1122 2956 1747 
Q 2956 2369 2687 2733 
Q 2419 3097 1959 3097 
z
M 1959 3584 
Q 2709 3584 3137 3096 
Q 3566 2609 3566 1747 
Q 3566 888 3137 398 
Q 2709 -91 1959 -91 
Q 1206 -91 779 398 
Q 353 888 353 1747 
Q 353 2609 779 3096 
Q 1206 3584 1959 3584 
z
" transform="scale(0.015625)"/>
       <path id="DejaVuSans-73" d="M 2834 3397 
L 2834 2853 
Q 2591 2978 2328 3040 
Q 2066 3103 1784 3103 
Q 1356 3103 1142 2972 
Q 928 2841 928 2578 
Q 928 2378 1081 2264 
Q 1234 2150 1697 2047 
L 1894 2003 
Q 2506 1872 2764 1633 
Q 3022 1394 3022 966 
Q 3022 478 2636 193 
Q 2250 -91 1575 -91 
Q 1294 -91 989 -36 
Q 684 19 347 128 
L 347 722 
Q 666 556 975 473 
Q 1284 391 1588 391 
Q 1994 391 2212 530 
Q 2431 669 2431 922 
Q 2431 1156 2273 1281 
Q 2116 1406 1581 1522 
L 1381 1569 
Q 847 1681 609 1914 
Q 372 2147 372 2553 
Q 372 3047 722 3315 
Q 1072 3584 1716 3584 
Q 2034 3584 2315 3537 
Q 2597 3491 2834 3397 
z
" transform="scale(0.015625)"/>
       <path id="DejaVuSans-6e" d="M 3513 2113 
L 3513 0 
L 2938 0 
L 2938 2094 
Q 2938 2591 2744 2837 
Q 2550 3084 2163 3084 
Q 1697 3084 1428 2787 
Q 1159 2491 1159 1978 
L 1159 0 
L 581 0 
L 581 3500 
L 1159 3500 
L 1159 2956 
Q 1366 3272 1645 3428 
Q 1925 3584 2291 3584 
Q 2894 3584 3203 3211 
Q 3513 2838 3513 2113 
z
" transform="scale(0.015625)"/>
      </defs>
      <use xlink:href="#DejaVuSans-50"/>
      <use xlink:href="#DejaVuSans-72" x="58.552734"/>
      <use xlink:href="#DejaVuSans-65" x="97.416016"/>
      <use xlink:href="#DejaVuSans-64" x="158.939453"/>
      <use xlink:href="#DejaVuSans-69" x="222.416016"/>
      <use xlink:href="#DejaVuSans-63" x="250.199219"/>
      <use xlink:href="#DejaVuSans-74" x="305.179688"/>
      <use xlink:href="#DejaVuSans-65" x="344.388672"/>
      <use xlink:href="#DejaVuSans-64" x="405.912109"/>
      <use xlink:href="#DejaVuSans-20" x="469.388672"/>
      <use xlink:href="#DejaVuSans-46" x="501.175781"/>
      <use xlink:href="#DejaVuSans-6c" x="558.695312"/>
      <use xlink:href="#DejaVuSans-75" x="586.478516"/>
      <use xlink:href="#DejaVuSans-6f" x="649.857422"/>
      <use xlink:href="#DejaVuSans-72" x="711.039062"/>
      <use xlink:href="#DejaVuSans-65" x="749.902344"/>
      <use xlink:href="#DejaVuSans-73" x="811.425781"/>
      <use xlink:href="#DejaVuSans-63" x="863.525391"/>
      <use xlink:href="#DejaVuSans-65" x="918.505859"/>
      <use xlink:href="#DejaVuSans-6e" x="980.029297"/>
      <use xlink:href="#DejaVuSans-63" x="1043.408203"/>
      <use xlink:href="#DejaVuSans-65" x="1098.388672"/>
     </g>
    </g>
   </g>
   <g id="matplotlib.axis_2">
    <g id="ytick_1">
     <g id="line2d_7">
      <defs>
       <path id="m43d960f976" d="M 0 0 
L -3.5 0 
" style="stroke: #000000; stroke-width: 0.8"/>
      </defs>
      <g>
       <use xlink:href="#m43d960f976" x="51.41" y="389.32" style="stroke: #000000; stroke-width: 0.8"/>
      </g>
     </g>
     <g id="text_8">
      <!-- 0.0 -->
      <g transform="translate(28.506875 393.119219) scale(0.1 -0.1)">
       <defs>
        <path id="DejaVuSans-2e" d="M 684 794 
L 1344 794 
L 1344 0 
L 684 0 
L 684 794 
z
" transform="scale(0.015625)"/>
       </defs>
       <use xlink:href="#DejaVuSans-30"/>
       <use xlink:href="#DejaVuSans-2e" x="63.623047"/>
       <use xlink:href="#DejaVuSans-30" x="95.410156"/>
      </g>
     </g>
    </g>
    <g id="ytick_2">
     <g id="line2d_8">
      <g>
       <use xlink:href="#m43d960f976" x="51.41" y="337.29933" style="stroke: #000000; stroke-width: 0.8"/>
      </g>
     </g>
     <g id="text_9">
      <!-- 0.2 -->
      <g transform="translate(28.506875 341.098549) scale(0.1 -0.1)">
       <use xlink:href="#DejaVuSans-30"/>
       <use xlink:href="#DejaVuSans-2e" x="63.623047"/>
       <use xlink:href="#DejaVuSans-32" x="95.410156"/>
      </g>
     </g>
    </g>
    <g id="ytick_3">
     <g id="line2d_9">
      <g>
       <use xlink:href="#m43d960f976" x="51.41" y="285.27866" style="stroke: #000000; stroke-width: 0.8"/>
      </g>
     </g>
     <g id="text_10">
      <!-- 0.4 -->
      <g transform="translate(28.506875 289.077879) scale(0.1 -0.1)">
       <use xlink:href="#DejaVuSans-30"/>
       <use xlink:href="#DejaVuSans-2e" x="63.623047"/>
       <use xlink:href="#DejaVuSans-34" x="95.410156"/>
      </g>
     </g>
    </g>
    <g id="ytick_4">
     <g id="line2d_10">
      <g>
       <use xlink:href="#m43d960f976" x="51.41" y="233.25799" style="stroke: #000000; stroke-width: 0.8"/>
      </g>
     </g>
     <g id="text_11">
      <!-- 0.6 -->
      <g transform="translate(28.506875 237.057209) scale(0.1 -0.1)">
       <use xlink:href="#DejaVuSans-30"/>
       <use xlink:href="#DejaVuSans-2e" x="63.623047"/>
       <use xlink:href="#DejaVuSans-36" x="95.410156"/>
      </g>
     </g>
    </g>
    <g id="ytick_5">
     <g id="line2d_11">
      <g>
       <use xlink:href="#m43d960f976" x="51.41" y="181.23732" style="stroke: #000000; stroke-width: 0.8"/>
      </g>
     </g>
     <g id="text_12">
      <!-- 0.8 -->
      <g transform="translate(28.506875 185.036539) scale(0.1 -0.1)">
       <use xlink:href="#DejaVuSans-30"/>
       <use xlink:href="#DejaVuSans-2e" x="63.623047"/>
       <use xlink:href="#DejaVuSans-38" x="95.410156"/>
      </g>
     </g>
    </g>
    <g id="ytick_6">
     <g id="line2d_12">
      <g>
       <use xlink:href="#m43d960f976" x="51.41" y="129.21665" style="stroke: #000000; stroke-width: 0.8"/>
      </g>
     </g>
     <g id="text_13">
      <!-- 1.0 -->
      <g transform="translate(28.506875 133.015869) scale(0.1 -0.1)">
       <defs>
        <path id="DejaVuSans-31" d="M 794 531 
L 1825 531 
L 1825 4091 
L 703 3866 
L 703 4441 
L 1819 4666 
L 2450 4666 
L 2450 531 
L 3481 531 
L 3481 0 
L 794 0 
L 794 531 
z
" transform="scale(0.015625)"/>
       </defs>
       <use xlink:href="#DejaVuSans-31"/>
       <use xlink:href="#DejaVuSans-2e" x="63.623047"/>
       <use xlink:href="#DejaVuSans-30" x="95.410156"/>
      </g>
     </g>
    </g>
    <g id="ytick_7">
     <g id="line2d_13">
      <g>
       <use xlink:href="#m43d960f976" x="51.41" y="77.19598" style="stroke: #000000; stroke-width: 0.8"/>
      </g>
     </g>
     <g id="text_14">
      <!-- 1.2 -->
      <g transform="translate(28.506875 80.995199) scale(0.1 -0.1)">
       <use xlink:href="#DejaVuSans-31"/>
       <use xlink:href="#DejaVuSans-2e" x="63.623047"/>
       <use xlink:href="#DejaVuSans-32" x="95.410156"/>
      </g>
     </g>
    </g>
    <g id="ytick_8">
     <g id="line2d_14">
      <g>
       <use xlink:href="#m43d960f976" x="51.41" y="25.17531" style="stroke: #000000; stroke-width: 0.8"/>
      </g>
     </g>
     <g id="text_15">
      <!-- 1.4 -->
      <g transform="translate(28.506875 28.974529) scale(0.1 -0.1)">
       <use xlink:href="#DejaVuSans-31"/>
       <use xlink:href="#DejaVuSans-2e" x="63.623047"/>
       <use xlink:href="#DejaVuSans-34" x="95.410156"/>
      </g>
     </g>
    </g>
    <g id="text_16">
     <!-- Density -->
     <g transform="translate(21.595313 226.672031) rotate(-90) scale(0.14 -0.14)">
      <defs>
       <path id="DejaVuSans-44" d="M 1259 4147 
L 1259 519 
L 2022 519 
Q 2988 519 3436 956 
Q 3884 1394 3884 2338 
Q 3884 3275 3436 3711 
Q 2988 4147 2022 4147 
L 1259 4147 
z
M 628 4666 
L 1925 4666 
Q 3281 4666 3915 4102 
Q 4550 3538 4550 2338 
Q 4550 1131 3912 565 
Q 3275 0 1925 0 
L 628 0 
L 628 4666 
z
" transform="scale(0.015625)"/>
       <path id="DejaVuSans-79" d="M 2059 -325 
Q 1816 -950 1584 -1140 
Q 1353 -1331 966 -1331 
L 506 -1331 
L 506 -850 
L 844 -850 
Q 1081 -850 1212 -737 
Q 1344 -625 1503 -206 
L 1606 56 
L 191 3500 
L 800 3500 
L 1894 763 
L 2988 3500 
L 3597 3500 
L 2059 -325 
z
" transform="scale(0.015625)"/>
      </defs>
      <use xlink:href="#DejaVuSans-44"/>
      <use xlink:href="#DejaVuSans-65" x="77.001953"/>
      <use xlink:href="#DejaVuSans-6e" x="138.525391"/>
      <use xlink:href="#DejaVuSans-73" x="201.904297"/>
      <use xlink:href="#DejaVuSans-69" x="254.003906"/>
      <use xlink:href="#DejaVuSans-74" x="281.787109"/>
      <use xlink:href="#DejaVuSans-79" x="320.996094"/>
     </g>
    </g>
   </g>
   <g id="line2d_15">
    <path d="M 115.060816 389.32 
L 115.060816 10.8 
" clip-path="url(#pbf502002b8)" style="fill: none; stroke-dasharray: 3.7,1.6; stroke-dashoffset: 0; stroke: #000000"/>
   </g>
   <g id="patch_3">
    <path d="M 51.41 389.32 
L 51.41 10.8 
" style="fill: none; stroke: #000000; stroke-width: 0.8; stroke-linejoin: miter; stroke-linecap: square"/>
   </g>
   <g id="patch_4">
    <path d="M 51.41 389.32 
L 421.2 389.32 
" style="fill: none; stroke: #000000; stroke-width: 0.8; stroke-linejoin: miter; stroke-linecap: square"/>
   </g>
   <g id="legend_1">
    <g id="patch_5">
     <path d="M 257.389062 62.834375 
L 414.2 62.834375 
Q 416.2 62.834375 416.2 60.834375 
L 416.2 17.8 
Q 416.2 15.8 414.2 15.8 
L 257.389062 15.8 
Q 255.389062 15.8 255.389062 17.8 
L 255.389062 60.834375 
Q 255.389062 62.834375 257.389062 62.834375 
z
" style="fill: #ffffff; opacity: 0.8; stroke: #cccccc; stroke-linejoin: miter"/>
    </g>
    <g id="patch_6">
     <path d="M 259.389062 27.398438 
L 279.389062 27.398438 
L 279.389062 20.398438 
L 259.389062 20.398438 
z
" style="fill: #bdbdbd; fill-opacity: 0.5; stroke: #bdbdbd; stroke-width: 2.5; stroke-linejoin: miter"/>
    </g>
    <g id="text_17">
     <!-- Pre-trained ESM2 (650M) -->
     <g transform="translate(287.389062 27.398438) scale(0.1 -0.1)">
      <defs>
       <path id="DejaVuSans-2d" d="M 313 2009 
L 1997 2009 
L 1997 1497 
L 313 1497 
L 313 2009 
z
" transform="scale(0.015625)"/>
       <path id="DejaVuSans-61" d="M 2194 1759 
Q 1497 1759 1228 1600 
Q 959 1441 959 1056 
Q 959 750 1161 570 
Q 1363 391 1709 391 
Q 2188 391 2477 730 
Q 2766 1069 2766 1631 
L 2766 1759 
L 2194 1759 
z
M 3341 1997 
L 3341 0 
L 2766 0 
L 2766 531 
Q 2569 213 2275 61 
Q 1981 -91 1556 -91 
Q 1019 -91 701 211 
Q 384 513 384 1019 
Q 384 1609 779 1909 
Q 1175 2209 1959 2209 
L 2766 2209 
L 2766 2266 
Q 2766 2663 2505 2880 
Q 2244 3097 1772 3097 
Q 1472 3097 1187 3025 
Q 903 2953 641 2809 
L 641 3341 
Q 956 3463 1253 3523 
Q 1550 3584 1831 3584 
Q 2591 3584 2966 3190 
Q 3341 2797 3341 1997 
z
" transform="scale(0.015625)"/>
       <path id="DejaVuSans-45" d="M 628 4666 
L 3578 4666 
L 3578 4134 
L 1259 4134 
L 1259 2753 
L 3481 2753 
L 3481 2222 
L 1259 2222 
L 1259 531 
L 3634 531 
L 3634 0 
L 628 0 
L 628 4666 
z
" transform="scale(0.015625)"/>
       <path id="DejaVuSans-53" d="M 3425 4513 
L 3425 3897 
Q 3066 4069 2747 4153 
Q 2428 4238 2131 4238 
Q 1616 4238 1336 4038 
Q 1056 3838 1056 3469 
Q 1056 3159 1242 3001 
Q 1428 2844 1947 2747 
L 2328 2669 
Q 3034 2534 3370 2195 
Q 3706 1856 3706 1288 
Q 3706 609 3251 259 
Q 2797 -91 1919 -91 
Q 1588 -91 1214 -16 
Q 841 59 441 206 
L 441 856 
Q 825 641 1194 531 
Q 1563 422 1919 422 
Q 2459 422 2753 634 
Q 3047 847 3047 1241 
Q 3047 1584 2836 1778 
Q 2625 1972 2144 2069 
L 1759 2144 
Q 1053 2284 737 2584 
Q 422 2884 422 3419 
Q 422 4038 858 4394 
Q 1294 4750 2059 4750 
Q 2388 4750 2728 4690 
Q 3069 4631 3425 4513 
z
" transform="scale(0.015625)"/>
       <path id="DejaVuSans-4d" d="M 628 4666 
L 1569 4666 
L 2759 1491 
L 3956 4666 
L 4897 4666 
L 4897 0 
L 4281 0 
L 4281 4097 
L 3078 897 
L 2444 897 
L 1241 4097 
L 1241 0 
L 628 0 
L 628 4666 
z
" transform="scale(0.015625)"/>
       <path id="DejaVuSans-28" d="M 1984 4856 
Q 1566 4138 1362 3434 
Q 1159 2731 1159 2009 
Q 1159 1288 1364 580 
Q 1569 -128 1984 -844 
L 1484 -844 
Q 1016 -109 783 600 
Q 550 1309 550 2009 
Q 550 2706 781 3412 
Q 1013 4119 1484 4856 
L 1984 4856 
z
" transform="scale(0.015625)"/>
       <path id="DejaVuSans-35" d="M 691 4666 
L 3169 4666 
L 3169 4134 
L 1269 4134 
L 1269 2991 
Q 1406 3038 1543 3061 
Q 1681 3084 1819 3084 
Q 2600 3084 3056 2656 
Q 3513 2228 3513 1497 
Q 3513 744 3044 326 
Q 2575 -91 1722 -91 
Q 1428 -91 1123 -41 
Q 819 9 494 109 
L 494 744 
Q 775 591 1075 516 
Q 1375 441 1709 441 
Q 2250 441 2565 725 
Q 2881 1009 2881 1497 
Q 2881 1984 2565 2268 
Q 2250 2553 1709 2553 
Q 1456 2553 1204 2497 
Q 953 2441 691 2322 
L 691 4666 
z
" transform="scale(0.015625)"/>
       <path id="DejaVuSans-29" d="M 513 4856 
L 1013 4856 
Q 1481 4119 1714 3412 
Q 1947 2706 1947 2009 
Q 1947 1309 1714 600 
Q 1481 -109 1013 -844 
L 513 -844 
Q 928 -128 1133 580 
Q 1338 1288 1338 2009 
Q 1338 2731 1133 3434 
Q 928 4138 513 4856 
z
" transform="scale(0.015625)"/>
      </defs>
      <use xlink:href="#DejaVuSans-50"/>
      <use xlink:href="#DejaVuSans-72" x="58.552734"/>
      <use xlink:href="#DejaVuSans-65" x="97.416016"/>
      <use xlink:href="#DejaVuSans-2d" x="158.939453"/>
      <use xlink:href="#DejaVuSans-74" x="195.023438"/>
      <use xlink:href="#DejaVuSans-72" x="234.232422"/>
      <use xlink:href="#DejaVuSans-61" x="275.345703"/>
      <use xlink:href="#DejaVuSans-69" x="336.625"/>
      <use xlink:href="#DejaVuSans-6e" x="364.408203"/>
      <use xlink:href="#DejaVuSans-65" x="427.787109"/>
      <use xlink:href="#DejaVuSans-64" x="489.310547"/>
      <use xlink:href="#DejaVuSans-20" x="552.787109"/>
      <use xlink:href="#DejaVuSans-45" x="584.574219"/>
      <use xlink:href="#DejaVuSans-53" x="647.757812"/>
      <use xlink:href="#DejaVuSans-4d" x="711.234375"/>
      <use xlink:href="#DejaVuSans-32" x="797.513672"/>
      <use xlink:href="#DejaVuSans-20" x="861.136719"/>
      <use xlink:href="#DejaVuSans-28" x="892.923828"/>
      <use xlink:href="#DejaVuSans-36" x="931.9375"/>
      <use xlink:href="#DejaVuSans-35" x="995.560547"/>
      <use xlink:href="#DejaVuSans-30" x="1059.183594"/>
      <use xlink:href="#DejaVuSans-4d" x="1122.806641"/>
      <use xlink:href="#DejaVuSans-29" x="1209.085938"/>
     </g>
    </g>
    <g id="patch_7">
     <path d="M 259.389062 42.076563 
L 279.389062 42.076563 
L 279.389062 35.076563 
L 259.389062 35.076563 
z
" style="fill: #92c5de; fill-opacity: 0.5; stroke: #92c5de; stroke-width: 2.5; stroke-linejoin: miter"/>
    </g>
    <g id="text_18">
     <!-- SFT ESM2 (650M) -->
     <g transform="translate(287.389062 42.076563) scale(0.1 -0.1)">
      <defs>
       <path id="DejaVuSans-54" d="M -19 4666 
L 3928 4666 
L 3928 4134 
L 2272 4134 
L 2272 0 
L 1638 0 
L 1638 4134 
L -19 4134 
L -19 4666 
z
" transform="scale(0.015625)"/>
      </defs>
      <use xlink:href="#DejaVuSans-53"/>
      <use xlink:href="#DejaVuSans-46" x="63.476562"/>
      <use xlink:href="#DejaVuSans-54" x="119.246094"/>
      <use xlink:href="#DejaVuSans-20" x="180.330078"/>
      <use xlink:href="#DejaVuSans-45" x="212.117188"/>
      <use xlink:href="#DejaVuSans-53" x="275.300781"/>
      <use xlink:href="#DejaVuSans-4d" x="338.777344"/>
      <use xlink:href="#DejaVuSans-32" x="425.056641"/>
      <use xlink:href="#DejaVuSans-20" x="488.679688"/>
      <use xlink:href="#DejaVuSans-28" x="520.466797"/>
      <use xlink:href="#DejaVuSans-36" x="559.480469"/>
      <use xlink:href="#DejaVuSans-35" x="623.103516"/>
      <use xlink:href="#DejaVuSans-30" x="686.726562"/>
      <use xlink:href="#DejaVuSans-4d" x="750.349609"/>
      <use xlink:href="#DejaVuSans-29" x="836.628906"/>
     </g>
    </g>
    <g id="line2d_16">
     <path d="M 259.389062 53.254687 
L 269.389062 53.254687 
L 279.389062 53.254687 
" style="fill: none; stroke-dasharray: 3.7,1.6; stroke-dashoffset: 0; stroke: #000000"/>
    </g>
    <g id="text_19">
     <!-- Predicted bgl3 score -->
     <g transform="translate(287.389062 56.754687) scale(0.1 -0.1)">
      <defs>
       <path id="DejaVuSans-62" d="M 3116 1747 
Q 3116 2381 2855 2742 
Q 2594 3103 2138 3103 
Q 1681 3103 1420 2742 
Q 1159 2381 1159 1747 
Q 1159 1113 1420 752 
Q 1681 391 2138 391 
Q 2594 391 2855 752 
Q 3116 1113 3116 1747 
z
M 1159 2969 
Q 1341 3281 1617 3432 
Q 1894 3584 2278 3584 
Q 2916 3584 3314 3078 
Q 3713 2572 3713 1747 
Q 3713 922 3314 415 
Q 2916 -91 2278 -91 
Q 1894 -91 1617 61 
Q 1341 213 1159 525 
L 1159 0 
L 581 0 
L 581 4863 
L 1159 4863 
L 1159 2969 
z
" transform="scale(0.015625)"/>
       <path id="DejaVuSans-67" d="M 2906 1791 
Q 2906 2416 2648 2759 
Q 2391 3103 1925 3103 
Q 1463 3103 1205 2759 
Q 947 2416 947 1791 
Q 947 1169 1205 825 
Q 1463 481 1925 481 
Q 2391 481 2648 825 
Q 2906 1169 2906 1791 
z
M 3481 434 
Q 3481 -459 3084 -895 
Q 2688 -1331 1869 -1331 
Q 1566 -1331 1297 -1286 
Q 1028 -1241 775 -1147 
L 775 -588 
Q 1028 -725 1275 -790 
Q 1522 -856 1778 -856 
Q 2344 -856 2625 -561 
Q 2906 -266 2906 331 
L 2906 616 
Q 2728 306 2450 153 
Q 2172 0 1784 0 
Q 1141 0 747 490 
Q 353 981 353 1791 
Q 353 2603 747 3093 
Q 1141 3584 1784 3584 
Q 2172 3584 2450 3431 
Q 2728 3278 2906 2969 
L 2906 3500 
L 3481 3500 
L 3481 434 
z
" transform="scale(0.015625)"/>
       <path id="DejaVuSans-33" d="M 2597 2516 
Q 3050 2419 3304 2112 
Q 3559 1806 3559 1356 
Q 3559 666 3084 287 
Q 2609 -91 1734 -91 
Q 1441 -91 1130 -33 
Q 819 25 488 141 
L 488 750 
Q 750 597 1062 519 
Q 1375 441 1716 441 
Q 2309 441 2620 675 
Q 2931 909 2931 1356 
Q 2931 1769 2642 2001 
Q 2353 2234 1838 2234 
L 1294 2234 
L 1294 2753 
L 1863 2753 
Q 2328 2753 2575 2939 
Q 2822 3125 2822 3475 
Q 2822 3834 2567 4026 
Q 2313 4219 1838 4219 
Q 1578 4219 1281 4162 
Q 984 4106 628 3988 
L 628 4550 
Q 988 4650 1302 4700 
Q 1616 4750 1894 4750 
Q 2613 4750 3031 4423 
Q 3450 4097 3450 3541 
Q 3450 3153 3228 2886 
Q 3006 2619 2597 2516 
z
" transform="scale(0.015625)"/>
      </defs>
      <use xlink:href="#DejaVuSans-50"/>
      <use xlink:href="#DejaVuSans-72" x="58.552734"/>
      <use xlink:href="#DejaVuSans-65" x="97.416016"/>
      <use xlink:href="#DejaVuSans-64" x="158.939453"/>
      <use xlink:href="#DejaVuSans-69" x="222.416016"/>
      <use xlink:href="#DejaVuSans-63" x="250.199219"/>
      <use xlink:href="#DejaVuSans-74" x="305.179688"/>
      <use xlink:href="#DejaVuSans-65" x="344.388672"/>
      <use xlink:href="#DejaVuSans-64" x="405.912109"/>
      <use xlink:href="#DejaVuSans-20" x="469.388672"/>
      <use xlink:href="#DejaVuSans-62" x="501.175781"/>
      <use xlink:href="#DejaVuSans-67" x="564.652344"/>
      <use xlink:href="#DejaVuSans-6c" x="628.128906"/>
      <use xlink:href="#DejaVuSans-33" x="655.912109"/>
      <use xlink:href="#DejaVuSans-20" x="719.535156"/>
      <use xlink:href="#DejaVuSans-73" x="751.322266"/>
      <use xlink:href="#DejaVuSans-63" x="803.421875"/>
      <use xlink:href="#DejaVuSans-6f" x="858.402344"/>
      <use xlink:href="#DejaVuSans-72" x="919.583984"/>
      <use xlink:href="#DejaVuSans-65" x="958.447266"/>
     </g>
    </g>
   </g>
  </g>
 </g>
 <defs>
  <clipPath id="pbf502002b8">
   <rect x="51.41" y="10.8" width="369.79" height="378.52"/>
  </clipPath>
 </defs>
</svg>
