<?xml version="1.0" encoding="utf-8" standalone="no"?>
<!DOCTYPE svg PUBLIC "-//W3C//DTD SVG 1.1//EN"
  "http://www.w3.org/Graphics/SVG/1.1/DTD/svg11.dtd">
<svg xmlns:xlink="http://www.w3.org/1999/xlink" width="432pt" height="432pt" viewBox="0 0 432 432" xmlns="http://www.w3.org/2000/svg" version="1.1">
 <metadata>
  <rdf:RDF xmlns:dc="http://purl.org/dc/elements/1.1/" xmlns:cc="http://creativecommons.org/ns#" xmlns:rdf="http://www.w3.org/1999/02/22-rdf-syntax-ns#">
   <cc:Work>
    <dc:type rdf:resource="http://purl.org/dc/dcmitype/StillImage"/>
    <dc:date>2025-04-25T09:27:08.815888</dc:date>
    <dc:format>image/svg+xml</dc:format>
    <dc:creator>
     <cc:Agent>
      <dc:title>Matplotlib v3.7.1, https://matplotlib.org/</dc:title>
     </cc:Agent>
    </dc:creator>
   </cc:Work>
  </rdf:RDF>
 </metadata>
 <defs>
  <style type="text/css">*{stroke-linejoin: round; stroke-linecap: butt}</style>
 </defs>
 <g id="figure_1">
  <g id="patch_1">
   <path d="M 0 432 
L 432 432 
L 432 0 
L 0 0 
z
" style="fill: #ffffff"/>
  </g>
  <g id="axes_1">
   <g id="patch_2">
    <path d="M 51.455 388.24 
L 421.2 388.24 
L 421.2 10.8 
L 51.455 10.8 
z
" style="fill: #ffffff"/>
   </g>
   <g id="PolyCollection_1">
    <defs>
     <path id="m705612a423" d="M 68.261591 -43.774298 
L 68.261591 -43.76 
L 69.770603 -43.76 
L 71.279615 -43.76 
L 72.788627 -43.76 
L 74.297639 -43.76 
L 75.806652 -43.76 
L 77.315664 -43.76 
L 78.824676 -43.76 
L 80.333688 -43.76 
L 81.8427 -43.76 
L 83.351712 -43.76 
L 84.860725 -43.76 
L 86.369737 -43.76 
L 87.878749 -43.76 
L 89.387761 -43.76 
L 90.896773 -43.76 
L 92.405785 -43.76 
L 93.914797 -43.76 
L 95.42381 -43.76 
L 96.932822 -43.76 
L 98.441834 -43.76 
L 99.950846 -43.76 
L 101.459858 -43.76 
L 102.96887 -43.76 
L 104.477882 -43.76 
L 105.986895 -43.76 
L 107.495907 -43.76 
L 109.004919 -43.76 
L 110.513931 -43.76 
L 112.022943 -43.76 
L 113.531955 -43.76 
L 115.040967 -43.76 
L 116.54998 -43.76 
L 118.058992 -43.76 
L 119.568004 -43.76 
L 121.077016 -43.76 
L 122.586028 -43.76 
L 124.09504 -43.76 
L 125.604052 -43.76 
L 127.113065 -43.76 
L 128.622077 -43.76 
L 130.131089 -43.76 
L 131.640101 -43.76 
L 133.149113 -43.76 
L 134.658125 -43.76 
L 136.167137 -43.76 
L 137.67615 -43.76 
L 139.185162 -43.76 
L 140.694174 -43.76 
L 142.203186 -43.76 
L 143.712198 -43.76 
L 145.22121 -43.76 
L 146.730222 -43.76 
L 148.239235 -43.76 
L 149.748247 -43.76 
L 151.257259 -43.76 
L 152.766271 -43.76 
L 154.275283 -43.76 
L 155.784295 -43.76 
L 157.293307 -43.76 
L 158.80232 -43.76 
L 160.311332 -43.76 
L 161.820344 -43.76 
L 163.329356 -43.76 
L 164.838368 -43.76 
L 166.34738 -43.76 
L 167.856393 -43.76 
L 169.365405 -43.76 
L 170.874417 -43.76 
L 172.383429 -43.76 
L 173.892441 -43.76 
L 175.401453 -43.76 
L 176.910465 -43.76 
L 178.419478 -43.76 
L 179.92849 -43.76 
L 181.437502 -43.76 
L 182.946514 -43.76 
L 184.455526 -43.76 
L 185.964538 -43.76 
L 187.47355 -43.76 
L 188.982563 -43.76 
L 190.491575 -43.76 
L 192.000587 -43.76 
L 193.509599 -43.76 
L 195.018611 -43.76 
L 196.527623 -43.76 
L 198.036635 -43.76 
L 199.545648 -43.76 
L 201.05466 -43.76 
L 202.563672 -43.76 
L 204.072684 -43.76 
L 205.581696 -43.76 
L 207.090708 -43.76 
L 208.59972 -43.76 
L 210.108733 -43.76 
L 211.617745 -43.76 
L 213.126757 -43.76 
L 214.635769 -43.76 
L 216.144781 -43.76 
L 217.653793 -43.76 
L 219.162805 -43.76 
L 220.671818 -43.76 
L 222.18083 -43.76 
L 223.689842 -43.76 
L 225.198854 -43.76 
L 226.707866 -43.76 
L 228.216878 -43.76 
L 229.72589 -43.76 
L 231.234903 -43.76 
L 232.743915 -43.76 
L 234.252927 -43.76 
L 235.761939 -43.76 
L 237.270951 -43.76 
L 238.779963 -43.76 
L 240.288975 -43.76 
L 241.797988 -43.76 
L 243.307 -43.76 
L 244.816012 -43.76 
L 246.325024 -43.76 
L 247.834036 -43.76 
L 249.343048 -43.76 
L 250.852061 -43.76 
L 252.361073 -43.76 
L 253.870085 -43.76 
L 255.379097 -43.76 
L 256.888109 -43.76 
L 258.397121 -43.76 
L 259.906133 -43.76 
L 261.415146 -43.76 
L 262.924158 -43.76 
L 264.43317 -43.76 
L 265.942182 -43.76 
L 267.451194 -43.76 
L 268.960206 -43.76 
L 270.469218 -43.76 
L 271.978231 -43.76 
L 273.487243 -43.76 
L 274.996255 -43.76 
L 276.505267 -43.76 
L 278.014279 -43.76 
L 279.523291 -43.76 
L 281.032303 -43.76 
L 282.541316 -43.76 
L 284.050328 -43.76 
L 285.55934 -43.76 
L 287.068352 -43.76 
L 288.577364 -43.76 
L 290.086376 -43.76 
L 291.595388 -43.76 
L 293.104401 -43.76 
L 294.613413 -43.76 
L 296.122425 -43.76 
L 297.631437 -43.76 
L 299.140449 -43.76 
L 300.649461 -43.76 
L 302.158473 -43.76 
L 303.667486 -43.76 
L 305.176498 -43.76 
L 306.68551 -43.76 
L 308.194522 -43.76 
L 309.703534 -43.76 
L 311.212546 -43.76 
L 312.721558 -43.76 
L 314.230571 -43.76 
L 315.739583 -43.76 
L 317.248595 -43.76 
L 318.757607 -43.76 
L 320.266619 -43.76 
L 321.775631 -43.76 
L 323.284643 -43.76 
L 324.793656 -43.76 
L 326.302668 -43.76 
L 327.81168 -43.76 
L 329.320692 -43.76 
L 330.829704 -43.76 
L 332.338716 -43.76 
L 333.847729 -43.76 
L 335.356741 -43.76 
L 336.865753 -43.76 
L 338.374765 -43.76 
L 339.883777 -43.76 
L 341.392789 -43.76 
L 342.901801 -43.76 
L 344.410814 -43.76 
L 345.919826 -43.76 
L 347.428838 -43.76 
L 348.93785 -43.76 
L 350.446862 -43.76 
L 351.955874 -43.76 
L 353.464886 -43.76 
L 354.973899 -43.76 
L 356.482911 -43.76 
L 357.991923 -43.76 
L 359.500935 -43.76 
L 361.009947 -43.76 
L 362.518959 -43.76 
L 364.027971 -43.76 
L 365.536984 -43.76 
L 367.045996 -43.76 
L 368.555008 -43.76 
L 368.555008 -43.805874 
L 368.555008 -43.805874 
L 367.045996 -43.868198 
L 365.536984 -44.000711 
L 364.027971 -44.265752 
L 362.518959 -44.764988 
L 361.009947 -45.651807 
L 359.500935 -47.139907 
L 357.991923 -49.503527 
L 356.482911 -53.065648 
L 354.973899 -58.173157 
L 353.464886 -65.161391 
L 351.955874 -74.313027 
L 350.446862 -85.816647 
L 348.93785 -99.728958 
L 347.428838 -115.943567 
L 345.919826 -134.170281 
L 344.410814 -153.931514 
L 342.901801 -174.583358 
L 341.392789 -195.364912 
L 339.883777 -215.470739 
L 338.374765 -234.132731 
L 336.865753 -250.694919 
L 335.356741 -264.66984 
L 333.847729 -275.773437 
L 332.338716 -283.940335 
L 330.829704 -289.319576 
L 329.320692 -292.24629 
L 327.81168 -293.18469 
L 326.302668 -292.645878 
L 324.793656 -291.096405 
L 323.284643 -288.881613 
L 321.775631 -286.184856 
L 320.266619 -283.030537 
L 318.757607 -279.323421 
L 317.248595 -274.907321 
L 315.739583 -269.626853 
L 314.230571 -263.38252 
L 312.721558 -256.174789 
L 311.212546 -248.132028 
L 309.703534 -239.512672 
L 308.194522 -230.671691 
L 306.68551 -221.992055 
L 305.176498 -213.800857 
L 303.667486 -206.30472 
L 302.158473 -199.575968 
L 300.649461 -193.596749 
L 299.140449 -188.33554 
L 297.631437 -183.810827 
L 296.122425 -180.104267 
L 294.613413 -177.316104 
L 293.104401 -175.488964 
L 291.595388 -174.541713 
L 290.086376 -174.24577 
L 288.577364 -174.25211 
L 287.068352 -174.155014 
L 285.55934 -173.569045 
L 284.050328 -172.197958 
L 282.541316 -169.881116 
L 281.032303 -166.609375 
L 279.523291 -162.508482 
L 278.014279 -157.795921 
L 276.505267 -152.725735 
L 274.996255 -147.5402 
L 273.487243 -142.443136 
L 271.978231 -137.597752 
L 270.469218 -133.139032 
L 268.960206 -129.184648 
L 267.451194 -125.832904 
L 265.942182 -123.147457 
L 264.43317 -121.138417 
L 262.924158 -119.751392 
L 261.415146 -118.870418 
L 259.906133 -118.333486 
L 258.397121 -117.956485 
L 256.888109 -117.563529 
L 255.379097 -117.023592 
L 253.870085 -116.290113 
L 252.361073 -115.431689 
L 250.852061 -114.635041 
L 249.343048 -114.164054 
L 247.834036 -114.273793 
L 246.325024 -115.100336 
L 244.816012 -116.564785 
L 243.307 -118.332628 
L 241.797988 -119.854454 
L 240.288975 -120.485946 
L 238.779963 -119.655196 
L 237.270951 -117.025567 
L 235.761939 -112.601162 
L 234.252927 -106.74067 
L 232.743915 -100.077178 
L 231.234903 -93.373291 
L 229.72589 -87.359417 
L 228.216878 -82.601651 
L 226.707866 -79.427804 
L 225.198854 -77.916287 
L 223.689842 -77.933461 
L 222.18083 -79.196471 
L 220.671818 -81.339804 
L 219.162805 -83.971293 
L 217.653793 -86.712472 
L 216.144781 -89.225614 
L 214.635769 -91.233114 
L 213.126757 -92.533642 
L 211.617745 -93.015378 
L 210.108733 -92.66274 
L 208.59972 -91.55175 
L 207.090708 -89.831092 
L 205.581696 -87.690122 
L 204.072684 -85.319761 
L 202.563672 -82.875805 
L 201.05466 -80.454964 
L 199.545648 -78.090731 
L 198.036635 -75.769296 
L 196.527623 -73.457893 
L 195.018611 -71.133304 
L 193.509599 -68.799489 
L 192.000587 -66.489832 
L 190.491575 -64.25744 
L 188.982563 -62.161746 
L 187.47355 -60.259155 
L 185.964538 -58.600777 
L 184.455526 -57.234684 
L 182.946514 -56.20698 
L 181.437502 -55.55665 
L 179.92849 -55.303079 
L 178.419478 -55.429927 
L 176.910465 -55.872594 
L 175.401453 -56.516847 
L 173.892441 -57.213107 
L 172.383429 -57.805036 
L 170.874417 -58.164674 
L 169.365405 -58.222203 
L 167.856393 -57.979123 
L 166.34738 -57.499657 
L 164.838368 -56.884113 
L 163.329356 -56.235169 
L 161.820344 -55.629678 
L 160.311332 -55.104045 
L 158.80232 -54.653804 
L 157.293307 -54.242504 
L 155.784295 -53.814208 
L 154.275283 -53.306683 
L 152.766271 -52.665184 
L 151.257259 -51.856686 
L 149.748247 -50.881914 
L 148.239235 -49.780312 
L 146.730222 -48.624211 
L 145.22121 -47.502849 
L 143.712198 -46.501875 
L 142.203186 -45.686106 
L 140.694174 -45.0912 
L 139.185162 -44.725026 
L 137.67615 -44.574936 
L 136.167137 -44.615337 
L 134.658125 -44.811606 
L 133.149113 -45.11997 
L 131.640101 -45.486421 
L 130.131089 -45.84891 
L 128.622077 -46.14554 
L 127.113065 -46.327756 
L 125.604052 -46.373944 
L 124.09504 -46.297204 
L 122.586028 -46.142759 
L 121.077016 -45.97455 
L 119.568004 -45.855197 
L 118.058992 -45.826367 
L 116.54998 -45.896426 
L 115.040967 -46.039521 
L 113.531955 -46.206023 
L 112.022943 -46.340322 
L 110.513931 -46.399512 
L 109.004919 -46.366353 
L 107.495907 -46.252122 
L 105.986895 -46.088901 
L 104.477882 -45.915086 
L 102.96887 -45.760569 
L 101.459858 -45.637911 
L 99.950846 -45.542707 
L 98.441834 -45.461824 
L 96.932822 -45.384363 
L 95.42381 -45.309197 
L 93.914797 -45.245183 
L 92.405785 -45.204374 
L 90.896773 -45.192432 
L 89.387761 -45.201863 
L 87.878749 -45.212024 
L 86.369737 -45.196073 
L 84.860725 -45.131428 
L 83.351712 -45.008624 
L 81.8427 -44.834641 
L 80.333688 -44.62971 
L 78.824676 -44.41978 
L 77.315664 -44.228319 
L 75.806652 -44.070704 
L 74.297639 -43.952554 
L 72.788627 -43.871433 
L 71.279615 -43.820207 
L 69.770603 -43.790367 
L 68.261591 -43.774298 
z
" style="stroke: #bdbdbd; stroke-width: 2.5"/>
    </defs>
    <g clip-path="url(#p939905d066)">
     <use xlink:href="#m705612a423" x="0" y="432" style="fill: #bdbdbd; fill-opacity: 0.5; stroke: #bdbdbd; stroke-width: 2.5"/>
    </g>
   </g>
   <g id="PolyCollection_2">
    <defs>
     <path id="m75a165f1e3" d="M 99.198783 -43.765863 
L 99.198783 -43.76 
L 100.721009 -43.76 
L 102.243234 -43.76 
L 103.765459 -43.76 
L 105.287685 -43.76 
L 106.80991 -43.76 
L 108.332136 -43.76 
L 109.854361 -43.76 
L 111.376586 -43.76 
L 112.898812 -43.76 
L 114.421037 -43.76 
L 115.943262 -43.76 
L 117.465488 -43.76 
L 118.987713 -43.76 
L 120.509938 -43.76 
L 122.032164 -43.76 
L 123.554389 -43.76 
L 125.076614 -43.76 
L 126.59884 -43.76 
L 128.121065 -43.76 
L 129.64329 -43.76 
L 131.165516 -43.76 
L 132.687741 -43.76 
L 134.209966 -43.76 
L 135.732192 -43.76 
L 137.254417 -43.76 
L 138.776642 -43.76 
L 140.298868 -43.76 
L 141.821093 -43.76 
L 143.343318 -43.76 
L 144.865544 -43.76 
L 146.387769 -43.76 
L 147.909994 -43.76 
L 149.43222 -43.76 
L 150.954445 -43.76 
L 152.47667 -43.76 
L 153.998896 -43.76 
L 155.521121 -43.76 
L 157.043347 -43.76 
L 158.565572 -43.76 
L 160.087797 -43.76 
L 161.610023 -43.76 
L 163.132248 -43.76 
L 164.654473 -43.76 
L 166.176699 -43.76 
L 167.698924 -43.76 
L 169.221149 -43.76 
L 170.743375 -43.76 
L 172.2656 -43.76 
L 173.787825 -43.76 
L 175.310051 -43.76 
L 176.832276 -43.76 
L 178.354501 -43.76 
L 179.876727 -43.76 
L 181.398952 -43.76 
L 182.921177 -43.76 
L 184.443403 -43.76 
L 185.965628 -43.76 
L 187.487853 -43.76 
L 189.010079 -43.76 
L 190.532304 -43.76 
L 192.054529 -43.76 
L 193.576755 -43.76 
L 195.09898 -43.76 
L 196.621205 -43.76 
L 198.143431 -43.76 
L 199.665656 -43.76 
L 201.187882 -43.76 
L 202.710107 -43.76 
L 204.232332 -43.76 
L 205.754558 -43.76 
L 207.276783 -43.76 
L 208.799008 -43.76 
L 210.321234 -43.76 
L 211.843459 -43.76 
L 213.365684 -43.76 
L 214.88791 -43.76 
L 216.410135 -43.76 
L 217.93236 -43.76 
L 219.454586 -43.76 
L 220.976811 -43.76 
L 222.499036 -43.76 
L 224.021262 -43.76 
L 225.543487 -43.76 
L 227.065712 -43.76 
L 228.587938 -43.76 
L 230.110163 -43.76 
L 231.632388 -43.76 
L 233.154614 -43.76 
L 234.676839 -43.76 
L 236.199064 -43.76 
L 237.72129 -43.76 
L 239.243515 -43.76 
L 240.76574 -43.76 
L 242.287966 -43.76 
L 243.810191 -43.76 
L 245.332416 -43.76 
L 246.854642 -43.76 
L 248.376867 -43.76 
L 249.899093 -43.76 
L 251.421318 -43.76 
L 252.943543 -43.76 
L 254.465769 -43.76 
L 255.987994 -43.76 
L 257.510219 -43.76 
L 259.032445 -43.76 
L 260.55467 -43.76 
L 262.076895 -43.76 
L 263.599121 -43.76 
L 265.121346 -43.76 
L 266.643571 -43.76 
L 268.165797 -43.76 
L 269.688022 -43.76 
L 271.210247 -43.76 
L 272.732473 -43.76 
L 274.254698 -43.76 
L 275.776923 -43.76 
L 277.299149 -43.76 
L 278.821374 -43.76 
L 280.343599 -43.76 
L 281.865825 -43.76 
L 283.38805 -43.76 
L 284.910275 -43.76 
L 286.432501 -43.76 
L 287.954726 -43.76 
L 289.476951 -43.76 
L 290.999177 -43.76 
L 292.521402 -43.76 
L 294.043627 -43.76 
L 295.565853 -43.76 
L 297.088078 -43.76 
L 298.610304 -43.76 
L 300.132529 -43.76 
L 301.654754 -43.76 
L 303.17698 -43.76 
L 304.699205 -43.76 
L 306.22143 -43.76 
L 307.743656 -43.76 
L 309.265881 -43.76 
L 310.788106 -43.76 
L 312.310332 -43.76 
L 313.832557 -43.76 
L 315.354782 -43.76 
L 316.877008 -43.76 
L 318.399233 -43.76 
L 319.921458 -43.76 
L 321.443684 -43.76 
L 322.965909 -43.76 
L 324.488134 -43.76 
L 326.01036 -43.76 
L 327.532585 -43.76 
L 329.05481 -43.76 
L 330.577036 -43.76 
L 332.099261 -43.76 
L 333.621486 -43.76 
L 335.143712 -43.76 
L 336.665937 -43.76 
L 338.188162 -43.76 
L 339.710388 -43.76 
L 341.232613 -43.76 
L 342.754838 -43.76 
L 344.277064 -43.76 
L 345.799289 -43.76 
L 347.321515 -43.76 
L 348.84374 -43.76 
L 350.365965 -43.76 
L 351.888191 -43.76 
L 353.410416 -43.76 
L 354.932641 -43.76 
L 356.454867 -43.76 
L 357.977092 -43.76 
L 359.499317 -43.76 
L 361.021543 -43.76 
L 362.543768 -43.76 
L 364.065993 -43.76 
L 365.588219 -43.76 
L 367.110444 -43.76 
L 368.632669 -43.76 
L 370.154895 -43.76 
L 371.67712 -43.76 
L 373.199345 -43.76 
L 374.721571 -43.76 
L 376.243796 -43.76 
L 377.766021 -43.76 
L 379.288247 -43.76 
L 380.810472 -43.76 
L 382.332697 -43.76 
L 383.854923 -43.76 
L 385.377148 -43.76 
L 386.899373 -43.76 
L 388.421599 -43.76 
L 389.943824 -43.76 
L 391.46605 -43.76 
L 392.988275 -43.76 
L 394.5105 -43.76 
L 396.032726 -43.76 
L 397.554951 -43.76 
L 399.077176 -43.76 
L 400.599402 -43.76 
L 402.121627 -43.76 
L 402.121627 -44.303562 
L 402.121627 -44.303562 
L 400.599402 -44.54134 
L 399.077176 -44.870921 
L 397.554951 -45.322393 
L 396.032726 -45.933567 
L 394.5105 -46.751187 
L 392.988275 -47.832069 
L 391.46605 -49.244049 
L 389.943824 -51.066619 
L 388.421599 -53.391095 
L 386.899373 -56.32015 
L 385.377148 -59.966559 
L 383.854923 -64.450998 
L 382.332697 -69.89879 
L 380.810472 -76.435552 
L 379.288247 -84.181735 
L 377.766021 -93.246189 
L 376.243796 -103.718946 
L 374.721571 -115.663545 
L 373.199345 -129.109308 
L 371.67712 -144.044059 
L 370.154895 -160.407847 
L 368.632669 -178.088215 
L 367.110444 -196.917555 
L 365.588219 -216.672984 
L 364.065993 -237.079056 
L 362.543768 -257.813436 
L 361.021543 -278.515482 
L 359.499317 -298.797437 
L 357.977092 -318.257752 
L 356.454867 -336.495857 
L 354.932641 -353.127573 
L 353.410416 -367.800283 
L 351.888191 -380.206972 
L 350.365965 -390.09829 
L 348.84374 -397.291969 
L 347.321515 -401.679053 
L 345.799289 -403.226667 
L 344.277064 -401.977247 
L 342.754838 -398.044435 
L 341.232613 -391.60599 
L 339.710388 -382.894285 
L 338.188162 -372.185043 
L 336.665937 -359.785024 
L 335.143712 -346.019397 
L 333.621486 -331.219442 
L 332.099261 -315.711173 
L 330.577036 -299.805333 
L 329.05481 -283.789071 
L 327.532585 -267.919508 
L 326.01036 -252.419222 
L 324.488134 -237.473621 
L 322.965909 -223.230056 
L 321.443684 -209.798454 
L 319.921458 -197.253253 
L 318.399233 -185.636337 
L 316.877008 -174.960736 
L 315.354782 -165.214807 
L 313.832557 -156.36668 
L 312.310332 -148.368744 
L 310.788106 -141.162006 
L 309.265881 -134.68017 
L 307.743656 -128.853315 
L 306.22143 -123.611088 
L 304.699205 -118.885359 
L 303.17698 -114.612292 
L 301.654754 -110.73384 
L 300.132529 -107.198678 
L 298.610304 -103.962616 
L 297.088078 -100.988544 
L 295.565853 -98.246003 
L 294.043627 -95.710455 
L 292.521402 -93.362345 
L 290.999177 -91.186062 
L 289.476951 -89.168875 
L 287.954726 -87.299929 
L 286.432501 -85.569363 
L 284.910275 -83.9676 
L 283.38805 -82.484831 
L 281.865825 -81.11071 
L 280.343599 -79.834239 
L 278.821374 -78.643827 
L 277.299149 -77.527492 
L 275.776923 -76.473145 
L 274.254698 -75.468941 
L 272.732473 -74.50363 
L 271.210247 -73.566889 
L 269.688022 -72.649602 
L 268.165797 -71.74406 
L 266.643571 -70.844096 
L 265.121346 -69.945128 
L 263.599121 -69.044129 
L 262.076895 -68.139543 
L 260.55467 -67.231146 
L 259.032445 -66.319874 
L 257.510219 -65.407641 
L 255.987994 -64.497145 
L 254.465769 -63.59168 
L 252.943543 -62.694961 
L 251.421318 -61.810958 
L 249.899093 -60.943749 
L 248.376867 -60.097383 
L 246.854642 -59.275757 
L 245.332416 -58.482504 
L 243.810191 -57.720887 
L 242.287966 -56.99371 
L 240.76574 -56.303232 
L 239.243515 -55.651101 
L 237.72129 -55.038302 
L 236.199064 -54.465128 
L 234.676839 -53.931171 
L 233.154614 -53.435343 
L 231.632388 -52.975922 
L 230.110163 -52.550621 
L 228.587938 -52.156684 
L 227.065712 -51.790995 
L 225.543487 -51.450206 
L 224.021262 -51.130859 
L 222.499036 -50.829515 
L 220.976811 -50.542869 
L 219.454586 -50.267848 
L 217.93236 -50.001688 
L 216.410135 -49.741996 
L 214.88791 -49.486772 
L 213.365684 -49.23443 
L 211.843459 -48.983779 
L 210.321234 -48.734006 
L 208.799008 -48.484634 
L 207.276783 -48.235491 
L 205.754558 -47.98666 
L 204.232332 -47.738446 
L 202.710107 -47.49134 
L 201.187882 -47.245987 
L 199.665656 -47.003161 
L 198.143431 -46.763746 
L 196.621205 -46.52871 
L 195.09898 -46.29909 
L 193.576755 -46.075964 
L 192.054529 -45.860427 
L 190.532304 -45.653565 
L 189.010079 -45.456422 
L 187.487853 -45.26997 
L 185.965628 -45.095078 
L 184.443403 -44.932487 
L 182.921177 -44.782787 
L 181.398952 -44.646401 
L 179.876727 -44.523577 
L 178.354501 -44.414391 
L 176.832276 -44.318751 
L 175.310051 -44.236412 
L 173.787825 -44.166995 
L 172.2656 -44.110005 
L 170.743375 -44.064853 
L 169.221149 -44.030874 
L 167.698924 -44.007341 
L 166.176699 -43.993476 
L 164.654473 -43.988456 
L 163.132248 -43.991412 
L 161.610023 -44.001429 
L 160.087797 -44.017542 
L 158.565572 -44.038733 
L 157.043347 -44.063927 
L 155.521121 -44.092002 
L 153.998896 -44.121791 
L 152.47667 -44.152108 
L 150.954445 -44.181767 
L 149.43222 -44.209611 
L 147.909994 -44.234555 
L 146.387769 -44.255615 
L 144.865544 -44.271951 
L 143.343318 -44.282901 
L 141.821093 -44.288006 
L 140.298868 -44.287028 
L 138.776642 -44.27996 
L 137.254417 -44.267022 
L 135.732192 -44.248638 
L 134.209966 -44.225418 
L 132.687741 -44.198114 
L 131.165516 -44.167583 
L 129.64329 -44.134737 
L 128.121065 -44.100499 
L 126.59884 -44.065763 
L 125.076614 -44.031351 
L 123.554389 -43.997988 
L 122.032164 -43.966279 
L 120.509938 -43.936698 
L 118.987713 -43.909584 
L 117.465488 -43.885145 
L 115.943262 -43.863472 
L 114.421037 -43.844548 
L 112.898812 -43.828275 
L 111.376586 -43.814487 
L 109.854361 -43.802974 
L 108.332136 -43.793496 
L 106.80991 -43.785802 
L 105.287685 -43.779643 
L 103.765459 -43.774778 
L 102.243234 -43.770988 
L 100.721009 -43.768074 
L 99.198783 -43.765863 
z
" style="stroke: #92c5de; stroke-width: 2.5"/>
    </defs>
    <g clip-path="url(#p939905d066)">
     <use xlink:href="#m75a165f1e3" x="0" y="432" style="fill: #92c5de; fill-opacity: 0.5; stroke: #92c5de; stroke-width: 2.5"/>
    </g>
   </g>
   <g id="PolyCollection_3">
    <defs>
     <path id="m49c29ed5b6" d="M 136.654661 -43.766195 
L 136.654661 -43.76 
L 138.000082 -43.76 
L 139.345503 -43.76 
L 140.690924 -43.76 
L 142.036345 -43.76 
L 143.381766 -43.76 
L 144.727186 -43.76 
L 146.072607 -43.76 
L 147.418028 -43.76 
L 148.763449 -43.76 
L 150.10887 -43.76 
L 151.454291 -43.76 
L 152.799711 -43.76 
L 154.145132 -43.76 
L 155.490553 -43.76 
L 156.835974 -43.76 
L 158.181395 -43.76 
L 159.526816 -43.76 
L 160.872236 -43.76 
L 162.217657 -43.76 
L 163.563078 -43.76 
L 164.908499 -43.76 
L 166.25392 -43.76 
L 167.599341 -43.76 
L 168.944762 -43.76 
L 170.290182 -43.76 
L 171.635603 -43.76 
L 172.981024 -43.76 
L 174.326445 -43.76 
L 175.671866 -43.76 
L 177.017287 -43.76 
L 178.362707 -43.76 
L 179.708128 -43.76 
L 181.053549 -43.76 
L 182.39897 -43.76 
L 183.744391 -43.76 
L 185.089812 -43.76 
L 186.435233 -43.76 
L 187.780653 -43.76 
L 189.126074 -43.76 
L 190.471495 -43.76 
L 191.816916 -43.76 
L 193.162337 -43.76 
L 194.507758 -43.76 
L 195.853178 -43.76 
L 197.198599 -43.76 
L 198.54402 -43.76 
L 199.889441 -43.76 
L 201.234862 -43.76 
L 202.580283 -43.76 
L 203.925703 -43.76 
L 205.271124 -43.76 
L 206.616545 -43.76 
L 207.961966 -43.76 
L 209.307387 -43.76 
L 210.652808 -43.76 
L 211.998229 -43.76 
L 213.343649 -43.76 
L 214.68907 -43.76 
L 216.034491 -43.76 
L 217.379912 -43.76 
L 218.725333 -43.76 
L 220.070754 -43.76 
L 221.416174 -43.76 
L 222.761595 -43.76 
L 224.107016 -43.76 
L 225.452437 -43.76 
L 226.797858 -43.76 
L 228.143279 -43.76 
L 229.488699 -43.76 
L 230.83412 -43.76 
L 232.179541 -43.76 
L 233.524962 -43.76 
L 234.870383 -43.76 
L 236.215804 -43.76 
L 237.561225 -43.76 
L 238.906645 -43.76 
L 240.252066 -43.76 
L 241.597487 -43.76 
L 242.942908 -43.76 
L 244.288329 -43.76 
L 245.63375 -43.76 
L 246.97917 -43.76 
L 248.324591 -43.76 
L 249.670012 -43.76 
L 251.015433 -43.76 
L 252.360854 -43.76 
L 253.706275 -43.76 
L 255.051696 -43.76 
L 256.397116 -43.76 
L 257.742537 -43.76 
L 259.087958 -43.76 
L 260.433379 -43.76 
L 261.7788 -43.76 
L 263.124221 -43.76 
L 264.469641 -43.76 
L 265.815062 -43.76 
L 267.160483 -43.76 
L 268.505904 -43.76 
L 269.851325 -43.76 
L 271.196746 -43.76 
L 272.542166 -43.76 
L 273.887587 -43.76 
L 275.233008 -43.76 
L 276.578429 -43.76 
L 277.92385 -43.76 
L 279.269271 -43.76 
L 280.614692 -43.76 
L 281.960112 -43.76 
L 283.305533 -43.76 
L 284.650954 -43.76 
L 285.996375 -43.76 
L 287.341796 -43.76 
L 288.687217 -43.76 
L 290.032637 -43.76 
L 291.378058 -43.76 
L 292.723479 -43.76 
L 294.0689 -43.76 
L 295.414321 -43.76 
L 296.759742 -43.76 
L 298.105162 -43.76 
L 299.450583 -43.76 
L 300.796004 -43.76 
L 302.141425 -43.76 
L 303.486846 -43.76 
L 304.832267 -43.76 
L 306.177688 -43.76 
L 307.523108 -43.76 
L 308.868529 -43.76 
L 310.21395 -43.76 
L 311.559371 -43.76 
L 312.904792 -43.76 
L 314.250213 -43.76 
L 315.595633 -43.76 
L 316.941054 -43.76 
L 318.286475 -43.76 
L 319.631896 -43.76 
L 320.977317 -43.76 
L 322.322738 -43.76 
L 323.668159 -43.76 
L 325.013579 -43.76 
L 326.359 -43.76 
L 327.704421 -43.76 
L 329.049842 -43.76 
L 330.395263 -43.76 
L 331.740684 -43.76 
L 333.086104 -43.76 
L 334.431525 -43.76 
L 335.776946 -43.76 
L 337.122367 -43.76 
L 338.467788 -43.76 
L 339.813209 -43.76 
L 341.158629 -43.76 
L 342.50405 -43.76 
L 343.849471 -43.76 
L 345.194892 -43.76 
L 346.540313 -43.76 
L 347.885734 -43.76 
L 349.231155 -43.76 
L 350.576575 -43.76 
L 351.921996 -43.76 
L 353.267417 -43.76 
L 354.612838 -43.76 
L 355.958259 -43.76 
L 357.30368 -43.76 
L 358.6491 -43.76 
L 359.994521 -43.76 
L 361.339942 -43.76 
L 362.685363 -43.76 
L 364.030784 -43.76 
L 365.376205 -43.76 
L 366.721625 -43.76 
L 368.067046 -43.76 
L 369.412467 -43.76 
L 370.757888 -43.76 
L 372.103309 -43.76 
L 373.44873 -43.76 
L 374.794151 -43.76 
L 376.139571 -43.76 
L 377.484992 -43.76 
L 378.830413 -43.76 
L 380.175834 -43.76 
L 381.521255 -43.76 
L 382.866676 -43.76 
L 384.212096 -43.76 
L 385.557517 -43.76 
L 386.902938 -43.76 
L 388.248359 -43.76 
L 389.59378 -43.76 
L 390.939201 -43.76 
L 392.284622 -43.76 
L 393.630042 -43.76 
L 394.975463 -43.76 
L 396.320884 -43.76 
L 397.666305 -43.76 
L 399.011726 -43.76 
L 400.357147 -43.76 
L 401.702567 -43.76 
L 403.047988 -43.76 
L 404.393409 -43.76 
L 404.393409 -44.116528 
L 404.393409 -44.116528 
L 403.047988 -44.253769 
L 401.702567 -44.438217 
L 400.357147 -44.683923 
L 399.011726 -45.008334 
L 397.666305 -45.432868 
L 396.320884 -45.983493 
L 394.975463 -46.691305 
L 393.630042 -47.593061 
L 392.284622 -48.731629 
L 390.939201 -50.156305 
L 389.59378 -51.92294 
L 388.248359 -54.09383 
L 386.902938 -56.737286 
L 385.557517 -59.926856 
L 384.212096 -63.740123 
L 382.866676 -68.257065 
L 381.521255 -73.557949 
L 380.175834 -79.720761 
L 378.830413 -86.818219 
L 377.484992 -94.914429 
L 376.139571 -104.06128 
L 374.794151 -114.294715 
L 373.44873 -125.631043 
L 372.103309 -138.063467 
L 370.757888 -151.559034 
L 369.412467 -166.056212 
L 368.067046 -181.463282 
L 366.721625 -197.657723 
L 365.376205 -214.486722 
L 364.030784 -231.768894 
L 362.685363 -249.297256 
L 361.339942 -266.84339 
L 359.994521 -284.162725 
L 358.6491 -301.000739 
L 357.30368 -317.099871 
L 355.958259 -332.206854 
L 354.612838 -346.080171 
L 353.267417 -358.497299 
L 351.921996 -369.261414 
L 350.576575 -378.207285 
L 349.231155 -385.206063 
L 347.885734 -390.168793 
L 346.540313 -393.0485 
L 345.194892 -393.840782 
L 343.849471 -392.582946 
L 342.50405 -389.351739 
L 341.158629 -384.259847 
L 339.813209 -377.451358 
L 338.467788 -369.096414 
L 337.122367 -359.385328 
L 335.776946 -348.522424 
L 334.431525 -336.719866 
L 333.086104 -324.191703 
L 331.740684 -311.148351 
L 330.395263 -297.791666 
L 329.049842 -284.310745 
L 327.704421 -270.878519 
L 326.359 -257.649189 
L 325.013579 -244.756496 
L 323.668159 -232.31278 
L 322.322738 -220.408783 
L 320.977317 -209.114088 
L 319.631896 -198.478112 
L 318.286475 -188.531539 
L 316.941054 -179.288091 
L 315.595633 -170.746526 
L 314.250213 -162.892778 
L 312.904792 -155.702142 
L 311.559371 -149.141439 
L 310.21395 -143.171086 
L 308.868529 -137.747044 
L 307.523108 -132.822578 
L 306.177688 -128.349834 
L 304.832267 -124.281187 
L 303.486846 -120.570379 
L 302.141425 -117.173431 
L 300.796004 -114.049344 
L 299.450583 -111.160602 
L 298.105162 -108.473479 
L 296.759742 -105.958202 
L 295.414321 -103.588948 
L 294.0689 -101.343742 
L 292.723479 -99.204241 
L 291.378058 -97.155465 
L 290.032637 -95.185458 
L 288.687217 -93.284942 
L 287.341796 -91.446941 
L 285.996375 -89.666429 
L 284.650954 -87.939982 
L 283.305533 -86.265473 
L 281.960112 -84.641786 
L 280.614692 -83.068581 
L 279.269271 -81.546082 
L 277.92385 -80.074912 
L 276.578429 -78.655944 
L 275.233008 -77.290181 
L 273.887587 -75.978662 
L 272.542166 -74.722365 
L 271.196746 -73.52213 
L 269.851325 -72.378583 
L 268.505904 -71.292072 
L 267.160483 -70.262594 
L 265.815062 -69.289745 
L 264.469641 -68.372665 
L 263.124221 -67.510013 
L 261.7788 -66.699938 
L 260.433379 -65.940087 
L 259.087958 -65.227618 
L 257.742537 -64.55925 
L 256.397116 -63.931318 
L 255.051696 -63.339852 
L 253.706275 -62.78067 
L 252.360854 -62.24948 
L 251.015433 -61.741984 
L 249.670012 -61.253978 
L 248.324591 -60.781456 
L 246.97917 -60.32069 
L 245.63375 -59.868305 
L 244.288329 -59.421336 
L 242.942908 -58.977267 
L 241.597487 -58.534054 
L 240.252066 -58.090134 
L 238.906645 -57.644414 
L 237.561225 -57.196258 
L 236.215804 -56.74546 
L 234.870383 -56.292208 
L 233.524962 -55.837047 
L 232.179541 -55.380841 
L 230.83412 -54.924723 
L 229.488699 -54.470057 
L 228.143279 -54.018389 
L 226.797858 -53.571398 
L 225.452437 -53.130846 
L 224.107016 -52.69853 
L 222.761595 -52.276225 
L 221.416174 -51.865635 
L 220.070754 -51.468337 
L 218.725333 -51.08573 
L 217.379912 -50.718995 
L 216.034491 -50.36905 
L 214.68907 -50.036519 
L 213.343649 -49.72172 
L 211.998229 -49.424651 
L 210.652808 -49.144998 
L 209.307387 -48.882156 
L 207.961966 -48.635261 
L 206.616545 -48.403231 
L 205.271124 -48.184817 
L 203.925703 -47.978662 
L 202.580283 -47.783355 
L 201.234862 -47.59749 
L 199.889441 -47.41972 
L 198.54402 -47.248798 
L 197.198599 -47.083613 
L 195.853178 -46.923219 
L 194.507758 -46.766845 
L 193.162337 -46.613902 
L 191.816916 -46.463975 
L 190.471495 -46.316812 
L 189.126074 -46.172304 
L 187.780653 -46.030463 
L 186.435233 -45.891397 
L 185.089812 -45.755286 
L 183.744391 -45.622362 
L 182.39897 -45.492887 
L 181.053549 -45.367137 
L 179.708128 -45.245391 
L 178.362707 -45.127917 
L 177.017287 -45.014971 
L 175.671866 -44.906784 
L 174.326445 -44.803567 
L 172.981024 -44.705501 
L 171.635603 -44.612738 
L 170.290182 -44.5254 
L 168.944762 -44.443575 
L 167.599341 -44.367312 
L 166.25392 -44.296624 
L 164.908499 -44.231484 
L 163.563078 -44.171821 
L 162.217657 -44.117524 
L 160.872236 -44.068438 
L 159.526816 -44.024371 
L 158.181395 -43.985093 
L 156.835974 -43.950344 
L 155.490553 -43.919835 
L 154.145132 -43.893258 
L 152.799711 -43.870291 
L 151.454291 -43.850606 
L 150.10887 -43.833874 
L 148.763449 -43.819771 
L 147.418028 -43.807986 
L 146.072607 -43.798222 
L 144.727186 -43.790203 
L 143.381766 -43.783675 
L 142.036345 -43.778408 
L 140.690924 -43.774196 
L 139.345503 -43.770858 
L 138.000082 -43.768236 
L 136.654661 -43.766195 
z
" style="stroke: #2166ac; stroke-width: 2.5"/>
    </defs>
    <g clip-path="url(#p939905d066)">
     <use xlink:href="#m49c29ed5b6" x="0" y="432" style="fill: #2166ac; fill-opacity: 0.5; stroke: #2166ac; stroke-width: 2.5"/>
    </g>
   </g>
   <g id="matplotlib.axis_1">
    <g id="xtick_1">
     <g id="line2d_1">
      <defs>
       <path id="m086d0e2d62" d="M 0 0 
L 0 3.5 
" style="stroke: #000000; stroke-width: 0.8"/>
      </defs>
      <g>
       <use xlink:href="#m086d0e2d62" x="71.999524" y="388.24" style="stroke: #000000; stroke-width: 0.8"/>
      </g>
     </g>
     <g id="text_1">
      <!-- 0 -->
      <g transform="translate(68.818274 402.838437) scale(0.1 -0.1)">
       <defs>
        <path id="DejaVuSans-30" d="M 2034 4250 
Q 1547 4250 1301 3770 
Q 1056 3291 1056 2328 
Q 1056 1369 1301 889 
Q 1547 409 2034 409 
Q 2525 409 2770 889 
Q 3016 1369 3016 2328 
Q 3016 3291 2770 3770 
Q 2525 4250 2034 4250 
z
M 2034 4750 
Q 2819 4750 3233 4129 
Q 3647 3509 3647 2328 
Q 3647 1150 3233 529 
Q 2819 -91 2034 -91 
Q 1250 -91 836 529 
Q 422 1150 422 2328 
Q 422 3509 836 4129 
Q 1250 4750 2034 4750 
z
" transform="scale(0.015625)"/>
       </defs>
       <use xlink:href="#DejaVuSans-30"/>
      </g>
     </g>
    </g>
    <g id="xtick_2">
     <g id="line2d_2">
      <g>
       <use xlink:href="#m086d0e2d62" x="145.059542" y="388.24" style="stroke: #000000; stroke-width: 0.8"/>
      </g>
     </g>
     <g id="text_2">
      <!-- 1 -->
      <g transform="translate(141.878292 402.838437) scale(0.1 -0.1)">
       <defs>
        <path id="DejaVuSans-31" d="M 794 531 
L 1825 531 
L 1825 4091 
L 703 3866 
L 703 4441 
L 1819 4666 
L 2450 4666 
L 2450 531 
L 3481 531 
L 3481 0 
L 794 0 
L 794 531 
z
" transform="scale(0.015625)"/>
       </defs>
       <use xlink:href="#DejaVuSans-31"/>
      </g>
     </g>
    </g>
    <g id="xtick_3">
     <g id="line2d_3">
      <g>
       <use xlink:href="#m086d0e2d62" x="218.11956" y="388.24" style="stroke: #000000; stroke-width: 0.8"/>
      </g>
     </g>
     <g id="text_3">
      <!-- 2 -->
      <g transform="translate(214.93831 402.838437) scale(0.1 -0.1)">
       <defs>
        <path id="DejaVuSans-32" d="M 1228 531 
L 3431 531 
L 3431 0 
L 469 0 
L 469 531 
Q 828 903 1448 1529 
Q 2069 2156 2228 2338 
Q 2531 2678 2651 2914 
Q 2772 3150 2772 3378 
Q 2772 3750 2511 3984 
Q 2250 4219 1831 4219 
Q 1534 4219 1204 4116 
Q 875 4013 500 3803 
L 500 4441 
Q 881 4594 1212 4672 
Q 1544 4750 1819 4750 
Q 2544 4750 2975 4387 
Q 3406 4025 3406 3419 
Q 3406 3131 3298 2873 
Q 3191 2616 2906 2266 
Q 2828 2175 2409 1742 
Q 1991 1309 1228 531 
z
" transform="scale(0.015625)"/>
       </defs>
       <use xlink:href="#DejaVuSans-32"/>
      </g>
     </g>
    </g>
    <g id="xtick_4">
     <g id="line2d_4">
      <g>
       <use xlink:href="#m086d0e2d62" x="291.179579" y="388.24" style="stroke: #000000; stroke-width: 0.8"/>
      </g>
     </g>
     <g id="text_4">
      <!-- 3 -->
      <g transform="translate(287.998329 402.838437) scale(0.1 -0.1)">
       <defs>
        <path id="DejaVuSans-33" d="M 2597 2516 
Q 3050 2419 3304 2112 
Q 3559 1806 3559 1356 
Q 3559 666 3084 287 
Q 2609 -91 1734 -91 
Q 1441 -91 1130 -33 
Q 819 25 488 141 
L 488 750 
Q 750 597 1062 519 
Q 1375 441 1716 441 
Q 2309 441 2620 675 
Q 2931 909 2931 1356 
Q 2931 1769 2642 2001 
Q 2353 2234 1838 2234 
L 1294 2234 
L 1294 2753 
L 1863 2753 
Q 2328 2753 2575 2939 
Q 2822 3125 2822 3475 
Q 2822 3834 2567 4026 
Q 2313 4219 1838 4219 
Q 1578 4219 1281 4162 
Q 984 4106 628 3988 
L 628 4550 
Q 988 4650 1302 4700 
Q 1616 4750 1894 4750 
Q 2613 4750 3031 4423 
Q 3450 4097 3450 3541 
Q 3450 3153 3228 2886 
Q 3006 2619 2597 2516 
z
" transform="scale(0.015625)"/>
       </defs>
       <use xlink:href="#DejaVuSans-33"/>
      </g>
     </g>
    </g>
    <g id="xtick_5">
     <g id="line2d_5">
      <g>
       <use xlink:href="#m086d0e2d62" x="364.239597" y="388.24" style="stroke: #000000; stroke-width: 0.8"/>
      </g>
     </g>
     <g id="text_5">
      <!-- 4 -->
      <g transform="translate(361.058347 402.838437) scale(0.1 -0.1)">
       <defs>
        <path id="DejaVuSans-34" d="M 2419 4116 
L 825 1625 
L 2419 1625 
L 2419 4116 
z
M 2253 4666 
L 3047 4666 
L 3047 1625 
L 3713 1625 
L 3713 1100 
L 3047 1100 
L 3047 0 
L 2419 0 
L 2419 1100 
L 313 1100 
L 313 1709 
L 2253 4666 
z
" transform="scale(0.015625)"/>
       </defs>
       <use xlink:href="#DejaVuSans-34"/>
      </g>
     </g>
    </g>
    <g id="text_6">
     <!-- Predicted Fluorescence -->
     <g transform="translate(166.73125 418.03625) scale(0.12 -0.12)">
      <defs>
       <path id="DejaVuSans-50" d="M 1259 4147 
L 1259 2394 
L 2053 2394 
Q 2494 2394 2734 2622 
Q 2975 2850 2975 3272 
Q 2975 3691 2734 3919 
Q 2494 4147 2053 4147 
L 1259 4147 
z
M 628 4666 
L 2053 4666 
Q 2838 4666 3239 4311 
Q 3641 3956 3641 3272 
Q 3641 2581 3239 2228 
Q 2838 1875 2053 1875 
L 1259 1875 
L 1259 0 
L 628 0 
L 628 4666 
z
" transform="scale(0.015625)"/>
       <path id="DejaVuSans-72" d="M 2631 2963 
Q 2534 3019 2420 3045 
Q 2306 3072 2169 3072 
Q 1681 3072 1420 2755 
Q 1159 2438 1159 1844 
L 1159 0 
L 581 0 
L 581 3500 
L 1159 3500 
L 1159 2956 
Q 1341 3275 1631 3429 
Q 1922 3584 2338 3584 
Q 2397 3584 2469 3576 
Q 2541 3569 2628 3553 
L 2631 2963 
z
" transform="scale(0.015625)"/>
       <path id="DejaVuSans-65" d="M 3597 1894 
L 3597 1613 
L 953 1613 
Q 991 1019 1311 708 
Q 1631 397 2203 397 
Q 2534 397 2845 478 
Q 3156 559 3463 722 
L 3463 178 
Q 3153 47 2828 -22 
Q 2503 -91 2169 -91 
Q 1331 -91 842 396 
Q 353 884 353 1716 
Q 353 2575 817 3079 
Q 1281 3584 2069 3584 
Q 2775 3584 3186 3129 
Q 3597 2675 3597 1894 
z
M 3022 2063 
Q 3016 2534 2758 2815 
Q 2500 3097 2075 3097 
Q 1594 3097 1305 2825 
Q 1016 2553 972 2059 
L 3022 2063 
z
" transform="scale(0.015625)"/>
       <path id="DejaVuSans-64" d="M 2906 2969 
L 2906 4863 
L 3481 4863 
L 3481 0 
L 2906 0 
L 2906 525 
Q 2725 213 2448 61 
Q 2172 -91 1784 -91 
Q 1150 -91 751 415 
Q 353 922 353 1747 
Q 353 2572 751 3078 
Q 1150 3584 1784 3584 
Q 2172 3584 2448 3432 
Q 2725 3281 2906 2969 
z
M 947 1747 
Q 947 1113 1208 752 
Q 1469 391 1925 391 
Q 2381 391 2643 752 
Q 2906 1113 2906 1747 
Q 2906 2381 2643 2742 
Q 2381 3103 1925 3103 
Q 1469 3103 1208 2742 
Q 947 2381 947 1747 
z
" transform="scale(0.015625)"/>
       <path id="DejaVuSans-69" d="M 603 3500 
L 1178 3500 
L 1178 0 
L 603 0 
L 603 3500 
z
M 603 4863 
L 1178 4863 
L 1178 4134 
L 603 4134 
L 603 4863 
z
" transform="scale(0.015625)"/>
       <path id="DejaVuSans-63" d="M 3122 3366 
L 3122 2828 
Q 2878 2963 2633 3030 
Q 2388 3097 2138 3097 
Q 1578 3097 1268 2742 
Q 959 2388 959 1747 
Q 959 1106 1268 751 
Q 1578 397 2138 397 
Q 2388 397 2633 464 
Q 2878 531 3122 666 
L 3122 134 
Q 2881 22 2623 -34 
Q 2366 -91 2075 -91 
Q 1284 -91 818 406 
Q 353 903 353 1747 
Q 353 2603 823 3093 
Q 1294 3584 2113 3584 
Q 2378 3584 2631 3529 
Q 2884 3475 3122 3366 
z
" transform="scale(0.015625)"/>
       <path id="DejaVuSans-74" d="M 1172 4494 
L 1172 3500 
L 2356 3500 
L 2356 3053 
L 1172 3053 
L 1172 1153 
Q 1172 725 1289 603 
Q 1406 481 1766 481 
L 2356 481 
L 2356 0 
L 1766 0 
Q 1100 0 847 248 
Q 594 497 594 1153 
L 594 3053 
L 172 3053 
L 172 3500 
L 594 3500 
L 594 4494 
L 1172 4494 
z
" transform="scale(0.015625)"/>
       <path id="DejaVuSans-20" transform="scale(0.015625)"/>
       <path id="DejaVuSans-46" d="M 628 4666 
L 3309 4666 
L 3309 4134 
L 1259 4134 
L 1259 2759 
L 3109 2759 
L 3109 2228 
L 1259 2228 
L 1259 0 
L 628 0 
L 628 4666 
z
" transform="scale(0.015625)"/>
       <path id="DejaVuSans-6c" d="M 603 4863 
L 1178 4863 
L 1178 0 
L 603 0 
L 603 4863 
z
" transform="scale(0.015625)"/>
       <path id="DejaVuSans-75" d="M 544 1381 
L 544 3500 
L 1119 3500 
L 1119 1403 
Q 1119 906 1312 657 
Q 1506 409 1894 409 
Q 2359 409 2629 706 
Q 2900 1003 2900 1516 
L 2900 3500 
L 3475 3500 
L 3475 0 
L 2900 0 
L 2900 538 
Q 2691 219 2414 64 
Q 2138 -91 1772 -91 
Q 1169 -91 856 284 
Q 544 659 544 1381 
z
M 1991 3584 
L 1991 3584 
z
" transform="scale(0.015625)"/>
       <path id="DejaVuSans-6f" d="M 1959 3097 
Q 1497 3097 1228 2736 
Q 959 2375 959 1747 
Q 959 1119 1226 758 
Q 1494 397 1959 397 
Q 2419 397 2687 759 
Q 2956 1122 2956 1747 
Q 2956 2369 2687 2733 
Q 2419 3097 1959 3097 
z
M 1959 3584 
Q 2709 3584 3137 3096 
Q 3566 2609 3566 1747 
Q 3566 888 3137 398 
Q 2709 -91 1959 -91 
Q 1206 -91 779 398 
Q 353 888 353 1747 
Q 353 2609 779 3096 
Q 1206 3584 1959 3584 
z
" transform="scale(0.015625)"/>
       <path id="DejaVuSans-73" d="M 2834 3397 
L 2834 2853 
Q 2591 2978 2328 3040 
Q 2066 3103 1784 3103 
Q 1356 3103 1142 2972 
Q 928 2841 928 2578 
Q 928 2378 1081 2264 
Q 1234 2150 1697 2047 
L 1894 2003 
Q 2506 1872 2764 1633 
Q 3022 1394 3022 966 
Q 3022 478 2636 193 
Q 2250 -91 1575 -91 
Q 1294 -91 989 -36 
Q 684 19 347 128 
L 347 722 
Q 666 556 975 473 
Q 1284 391 1588 391 
Q 1994 391 2212 530 
Q 2431 669 2431 922 
Q 2431 1156 2273 1281 
Q 2116 1406 1581 1522 
L 1381 1569 
Q 847 1681 609 1914 
Q 372 2147 372 2553 
Q 372 3047 722 3315 
Q 1072 3584 1716 3584 
Q 2034 3584 2315 3537 
Q 2597 3491 2834 3397 
z
" transform="scale(0.015625)"/>
       <path id="DejaVuSans-6e" d="M 3513 2113 
L 3513 0 
L 2938 0 
L 2938 2094 
Q 2938 2591 2744 2837 
Q 2550 3084 2163 3084 
Q 1697 3084 1428 2787 
Q 1159 2491 1159 1978 
L 1159 0 
L 581 0 
L 581 3500 
L 1159 3500 
L 1159 2956 
Q 1366 3272 1645 3428 
Q 1925 3584 2291 3584 
Q 2894 3584 3203 3211 
Q 3513 2838 3513 2113 
z
" transform="scale(0.015625)"/>
      </defs>
      <use xlink:href="#DejaVuSans-50"/>
      <use xlink:href="#DejaVuSans-72" x="58.552734"/>
      <use xlink:href="#DejaVuSans-65" x="97.416016"/>
      <use xlink:href="#DejaVuSans-64" x="158.939453"/>
      <use xlink:href="#DejaVuSans-69" x="222.416016"/>
      <use xlink:href="#DejaVuSans-63" x="250.199219"/>
      <use xlink:href="#DejaVuSans-74" x="305.179688"/>
      <use xlink:href="#DejaVuSans-65" x="344.388672"/>
      <use xlink:href="#DejaVuSans-64" x="405.912109"/>
      <use xlink:href="#DejaVuSans-20" x="469.388672"/>
      <use xlink:href="#DejaVuSans-46" x="501.175781"/>
      <use xlink:href="#DejaVuSans-6c" x="558.695312"/>
      <use xlink:href="#DejaVuSans-75" x="586.478516"/>
      <use xlink:href="#DejaVuSans-6f" x="649.857422"/>
      <use xlink:href="#DejaVuSans-72" x="711.039062"/>
      <use xlink:href="#DejaVuSans-65" x="749.902344"/>
      <use xlink:href="#DejaVuSans-73" x="811.425781"/>
      <use xlink:href="#DejaVuSans-63" x="863.525391"/>
      <use xlink:href="#DejaVuSans-65" x="918.505859"/>
      <use xlink:href="#DejaVuSans-6e" x="980.029297"/>
      <use xlink:href="#DejaVuSans-63" x="1043.408203"/>
      <use xlink:href="#DejaVuSans-65" x="1098.388672"/>
     </g>
    </g>
   </g>
   <g id="matplotlib.axis_2">
    <g id="ytick_1">
     <g id="line2d_6">
      <defs>
       <path id="m2009b642eb" d="M 0 0 
L -3.5 0 
" style="stroke: #000000; stroke-width: 0.8"/>
      </defs>
      <g>
       <use xlink:href="#m2009b642eb" x="51.455" y="388.24" style="stroke: #000000; stroke-width: 0.8"/>
      </g>
     </g>
     <g id="text_7">
      <!-- 0.0 -->
      <g transform="translate(28.551875 392.039219) scale(0.1 -0.1)">
       <defs>
        <path id="DejaVuSans-2e" d="M 684 794 
L 1344 794 
L 1344 0 
L 684 0 
L 684 794 
z
" transform="scale(0.015625)"/>
       </defs>
       <use xlink:href="#DejaVuSans-30"/>
       <use xlink:href="#DejaVuSans-2e" x="63.623047"/>
       <use xlink:href="#DejaVuSans-30" x="95.410156"/>
      </g>
     </g>
    </g>
    <g id="ytick_2">
     <g id="line2d_7">
      <g>
       <use xlink:href="#m2009b642eb" x="51.455" y="337.487634" style="stroke: #000000; stroke-width: 0.8"/>
      </g>
     </g>
     <g id="text_8">
      <!-- 0.2 -->
      <g transform="translate(28.551875 341.286853) scale(0.1 -0.1)">
       <use xlink:href="#DejaVuSans-30"/>
       <use xlink:href="#DejaVuSans-2e" x="63.623047"/>
       <use xlink:href="#DejaVuSans-32" x="95.410156"/>
      </g>
     </g>
    </g>
    <g id="ytick_3">
     <g id="line2d_8">
      <g>
       <use xlink:href="#m2009b642eb" x="51.455" y="286.735268" style="stroke: #000000; stroke-width: 0.8"/>
      </g>
     </g>
     <g id="text_9">
      <!-- 0.4 -->
      <g transform="translate(28.551875 290.534487) scale(0.1 -0.1)">
       <use xlink:href="#DejaVuSans-30"/>
       <use xlink:href="#DejaVuSans-2e" x="63.623047"/>
       <use xlink:href="#DejaVuSans-34" x="95.410156"/>
      </g>
     </g>
    </g>
    <g id="ytick_4">
     <g id="line2d_9">
      <g>
       <use xlink:href="#m2009b642eb" x="51.455" y="235.982902" style="stroke: #000000; stroke-width: 0.8"/>
      </g>
     </g>
     <g id="text_10">
      <!-- 0.6 -->
      <g transform="translate(28.551875 239.782121) scale(0.1 -0.1)">
       <defs>
        <path id="DejaVuSans-36" d="M 2113 2584 
Q 1688 2584 1439 2293 
Q 1191 2003 1191 1497 
Q 1191 994 1439 701 
Q 1688 409 2113 409 
Q 2538 409 2786 701 
Q 3034 994 3034 1497 
Q 3034 2003 2786 2293 
Q 2538 2584 2113 2584 
z
M 3366 4563 
L 3366 3988 
Q 3128 4100 2886 4159 
Q 2644 4219 2406 4219 
Q 1781 4219 1451 3797 
Q 1122 3375 1075 2522 
Q 1259 2794 1537 2939 
Q 1816 3084 2150 3084 
Q 2853 3084 3261 2657 
Q 3669 2231 3669 1497 
Q 3669 778 3244 343 
Q 2819 -91 2113 -91 
Q 1303 -91 875 529 
Q 447 1150 447 2328 
Q 447 3434 972 4092 
Q 1497 4750 2381 4750 
Q 2619 4750 2861 4703 
Q 3103 4656 3366 4563 
z
" transform="scale(0.015625)"/>
       </defs>
       <use xlink:href="#DejaVuSans-30"/>
       <use xlink:href="#DejaVuSans-2e" x="63.623047"/>
       <use xlink:href="#DejaVuSans-36" x="95.410156"/>
      </g>
     </g>
    </g>
    <g id="ytick_5">
     <g id="line2d_10">
      <g>
       <use xlink:href="#m2009b642eb" x="51.455" y="185.230536" style="stroke: #000000; stroke-width: 0.8"/>
      </g>
     </g>
     <g id="text_11">
      <!-- 0.8 -->
      <g transform="translate(28.551875 189.029755) scale(0.1 -0.1)">
       <defs>
        <path id="DejaVuSans-38" d="M 2034 2216 
Q 1584 2216 1326 1975 
Q 1069 1734 1069 1313 
Q 1069 891 1326 650 
Q 1584 409 2034 409 
Q 2484 409 2743 651 
Q 3003 894 3003 1313 
Q 3003 1734 2745 1975 
Q 2488 2216 2034 2216 
z
M 1403 2484 
Q 997 2584 770 2862 
Q 544 3141 544 3541 
Q 544 4100 942 4425 
Q 1341 4750 2034 4750 
Q 2731 4750 3128 4425 
Q 3525 4100 3525 3541 
Q 3525 3141 3298 2862 
Q 3072 2584 2669 2484 
Q 3125 2378 3379 2068 
Q 3634 1759 3634 1313 
Q 3634 634 3220 271 
Q 2806 -91 2034 -91 
Q 1263 -91 848 271 
Q 434 634 434 1313 
Q 434 1759 690 2068 
Q 947 2378 1403 2484 
z
M 1172 3481 
Q 1172 3119 1398 2916 
Q 1625 2713 2034 2713 
Q 2441 2713 2670 2916 
Q 2900 3119 2900 3481 
Q 2900 3844 2670 4047 
Q 2441 4250 2034 4250 
Q 1625 4250 1398 4047 
Q 1172 3844 1172 3481 
z
" transform="scale(0.015625)"/>
       </defs>
       <use xlink:href="#DejaVuSans-30"/>
       <use xlink:href="#DejaVuSans-2e" x="63.623047"/>
       <use xlink:href="#DejaVuSans-38" x="95.410156"/>
      </g>
     </g>
    </g>
    <g id="ytick_6">
     <g id="line2d_11">
      <g>
       <use xlink:href="#m2009b642eb" x="51.455" y="134.478171" style="stroke: #000000; stroke-width: 0.8"/>
      </g>
     </g>
     <g id="text_12">
      <!-- 1.0 -->
      <g transform="translate(28.551875 138.277389) scale(0.1 -0.1)">
       <use xlink:href="#DejaVuSans-31"/>
       <use xlink:href="#DejaVuSans-2e" x="63.623047"/>
       <use xlink:href="#DejaVuSans-30" x="95.410156"/>
      </g>
     </g>
    </g>
    <g id="ytick_7">
     <g id="line2d_12">
      <g>
       <use xlink:href="#m2009b642eb" x="51.455" y="83.725805" style="stroke: #000000; stroke-width: 0.8"/>
      </g>
     </g>
     <g id="text_13">
      <!-- 1.2 -->
      <g transform="translate(28.551875 87.525023) scale(0.1 -0.1)">
       <use xlink:href="#DejaVuSans-31"/>
       <use xlink:href="#DejaVuSans-2e" x="63.623047"/>
       <use xlink:href="#DejaVuSans-32" x="95.410156"/>
      </g>
     </g>
    </g>
    <g id="ytick_8">
     <g id="line2d_13">
      <g>
       <use xlink:href="#m2009b642eb" x="51.455" y="32.973439" style="stroke: #000000; stroke-width: 0.8"/>
      </g>
     </g>
     <g id="text_14">
      <!-- 1.4 -->
      <g transform="translate(28.551875 36.772658) scale(0.1 -0.1)">
       <use xlink:href="#DejaVuSans-31"/>
       <use xlink:href="#DejaVuSans-2e" x="63.623047"/>
       <use xlink:href="#DejaVuSans-34" x="95.410156"/>
      </g>
     </g>
    </g>
    <g id="text_15">
     <!-- Density -->
     <g transform="translate(21.640313 226.132031) rotate(-90) scale(0.14 -0.14)">
      <defs>
       <path id="DejaVuSans-44" d="M 1259 4147 
L 1259 519 
L 2022 519 
Q 2988 519 3436 956 
Q 3884 1394 3884 2338 
Q 3884 3275 3436 3711 
Q 2988 4147 2022 4147 
L 1259 4147 
z
M 628 4666 
L 1925 4666 
Q 3281 4666 3915 4102 
Q 4550 3538 4550 2338 
Q 4550 1131 3912 565 
Q 3275 0 1925 0 
L 628 0 
L 628 4666 
z
" transform="scale(0.015625)"/>
       <path id="DejaVuSans-79" d="M 2059 -325 
Q 1816 -950 1584 -1140 
Q 1353 -1331 966 -1331 
L 506 -1331 
L 506 -850 
L 844 -850 
Q 1081 -850 1212 -737 
Q 1344 -625 1503 -206 
L 1606 56 
L 191 3500 
L 800 3500 
L 1894 763 
L 2988 3500 
L 3597 3500 
L 2059 -325 
z
" transform="scale(0.015625)"/>
      </defs>
      <use xlink:href="#DejaVuSans-44"/>
      <use xlink:href="#DejaVuSans-65" x="77.001953"/>
      <use xlink:href="#DejaVuSans-6e" x="138.525391"/>
      <use xlink:href="#DejaVuSans-73" x="201.904297"/>
      <use xlink:href="#DejaVuSans-69" x="254.003906"/>
      <use xlink:href="#DejaVuSans-74" x="281.787109"/>
      <use xlink:href="#DejaVuSans-79" x="320.996094"/>
     </g>
    </g>
   </g>
   <g id="line2d_14">
    <path d="M 340.709497 388.24 
L 340.709497 10.8 
" clip-path="url(#p939905d066)" style="fill: none; stroke-dasharray: 3.7,1.6; stroke-dashoffset: 0; stroke: #000000"/>
   </g>
   <g id="patch_3">
    <path d="M 51.455 388.24 
L 51.455 10.8 
" style="fill: none; stroke: #000000; stroke-width: 0.8; stroke-linejoin: miter; stroke-linecap: square"/>
   </g>
   <g id="patch_4">
    <path d="M 51.455 388.24 
L 421.2 388.24 
" style="fill: none; stroke: #000000; stroke-width: 0.8; stroke-linejoin: miter; stroke-linecap: square"/>
   </g>
   <g id="legend_1">
    <g id="patch_5">
     <path d="M 58.455 77.5125 
L 215.265938 77.5125 
Q 217.265938 77.5125 217.265938 75.5125 
L 217.265938 17.8 
Q 217.265938 15.8 215.265938 15.8 
L 58.455 15.8 
Q 56.455 15.8 56.455 17.8 
L 56.455 75.5125 
Q 56.455 77.5125 58.455 77.5125 
z
" style="fill: #ffffff; opacity: 0.8; stroke: #cccccc; stroke-linejoin: miter"/>
    </g>
    <g id="patch_6">
     <path d="M 60.455 27.398438 
L 80.455 27.398438 
L 80.455 20.398438 
L 60.455 20.398438 
z
" style="fill: #bdbdbd; fill-opacity: 0.5; stroke: #bdbdbd; stroke-width: 2.5; stroke-linejoin: miter"/>
    </g>
    <g id="text_16">
     <!-- Pre-trained ESM2 (650M) -->
     <g transform="translate(88.455 27.398438) scale(0.1 -0.1)">
      <defs>
       <path id="DejaVuSans-2d" d="M 313 2009 
L 1997 2009 
L 1997 1497 
L 313 1497 
L 313 2009 
z
" transform="scale(0.015625)"/>
       <path id="DejaVuSans-61" d="M 2194 1759 
Q 1497 1759 1228 1600 
Q 959 1441 959 1056 
Q 959 750 1161 570 
Q 1363 391 1709 391 
Q 2188 391 2477 730 
Q 2766 1069 2766 1631 
L 2766 1759 
L 2194 1759 
z
M 3341 1997 
L 3341 0 
L 2766 0 
L 2766 531 
Q 2569 213 2275 61 
Q 1981 -91 1556 -91 
Q 1019 -91 701 211 
Q 384 513 384 1019 
Q 384 1609 779 1909 
Q 1175 2209 1959 2209 
L 2766 2209 
L 2766 2266 
Q 2766 2663 2505 2880 
Q 2244 3097 1772 3097 
Q 1472 3097 1187 3025 
Q 903 2953 641 2809 
L 641 3341 
Q 956 3463 1253 3523 
Q 1550 3584 1831 3584 
Q 2591 3584 2966 3190 
Q 3341 2797 3341 1997 
z
" transform="scale(0.015625)"/>
       <path id="DejaVuSans-45" d="M 628 4666 
L 3578 4666 
L 3578 4134 
L 1259 4134 
L 1259 2753 
L 3481 2753 
L 3481 2222 
L 1259 2222 
L 1259 531 
L 3634 531 
L 3634 0 
L 628 0 
L 628 4666 
z
" transform="scale(0.015625)"/>
       <path id="DejaVuSans-53" d="M 3425 4513 
L 3425 3897 
Q 3066 4069 2747 4153 
Q 2428 4238 2131 4238 
Q 1616 4238 1336 4038 
Q 1056 3838 1056 3469 
Q 1056 3159 1242 3001 
Q 1428 2844 1947 2747 
L 2328 2669 
Q 3034 2534 3370 2195 
Q 3706 1856 3706 1288 
Q 3706 609 3251 259 
Q 2797 -91 1919 -91 
Q 1588 -91 1214 -16 
Q 841 59 441 206 
L 441 856 
Q 825 641 1194 531 
Q 1563 422 1919 422 
Q 2459 422 2753 634 
Q 3047 847 3047 1241 
Q 3047 1584 2836 1778 
Q 2625 1972 2144 2069 
L 1759 2144 
Q 1053 2284 737 2584 
Q 422 2884 422 3419 
Q 422 4038 858 4394 
Q 1294 4750 2059 4750 
Q 2388 4750 2728 4690 
Q 3069 4631 3425 4513 
z
" transform="scale(0.015625)"/>
       <path id="DejaVuSans-4d" d="M 628 4666 
L 1569 4666 
L 2759 1491 
L 3956 4666 
L 4897 4666 
L 4897 0 
L 4281 0 
L 4281 4097 
L 3078 897 
L 2444 897 
L 1241 4097 
L 1241 0 
L 628 0 
L 628 4666 
z
" transform="scale(0.015625)"/>
       <path id="DejaVuSans-28" d="M 1984 4856 
Q 1566 4138 1362 3434 
Q 1159 2731 1159 2009 
Q 1159 1288 1364 580 
Q 1569 -128 1984 -844 
L 1484 -844 
Q 1016 -109 783 600 
Q 550 1309 550 2009 
Q 550 2706 781 3412 
Q 1013 4119 1484 4856 
L 1984 4856 
z
" transform="scale(0.015625)"/>
       <path id="DejaVuSans-35" d="M 691 4666 
L 3169 4666 
L 3169 4134 
L 1269 4134 
L 1269 2991 
Q 1406 3038 1543 3061 
Q 1681 3084 1819 3084 
Q 2600 3084 3056 2656 
Q 3513 2228 3513 1497 
Q 3513 744 3044 326 
Q 2575 -91 1722 -91 
Q 1428 -91 1123 -41 
Q 819 9 494 109 
L 494 744 
Q 775 591 1075 516 
Q 1375 441 1709 441 
Q 2250 441 2565 725 
Q 2881 1009 2881 1497 
Q 2881 1984 2565 2268 
Q 2250 2553 1709 2553 
Q 1456 2553 1204 2497 
Q 953 2441 691 2322 
L 691 4666 
z
" transform="scale(0.015625)"/>
       <path id="DejaVuSans-29" d="M 513 4856 
L 1013 4856 
Q 1481 4119 1714 3412 
Q 1947 2706 1947 2009 
Q 1947 1309 1714 600 
Q 1481 -109 1013 -844 
L 513 -844 
Q 928 -128 1133 580 
Q 1338 1288 1338 2009 
Q 1338 2731 1133 3434 
Q 928 4138 513 4856 
z
" transform="scale(0.015625)"/>
      </defs>
      <use xlink:href="#DejaVuSans-50"/>
      <use xlink:href="#DejaVuSans-72" x="58.552734"/>
      <use xlink:href="#DejaVuSans-65" x="97.416016"/>
      <use xlink:href="#DejaVuSans-2d" x="158.939453"/>
      <use xlink:href="#DejaVuSans-74" x="195.023438"/>
      <use xlink:href="#DejaVuSans-72" x="234.232422"/>
      <use xlink:href="#DejaVuSans-61" x="275.345703"/>
      <use xlink:href="#DejaVuSans-69" x="336.625"/>
      <use xlink:href="#DejaVuSans-6e" x="364.408203"/>
      <use xlink:href="#DejaVuSans-65" x="427.787109"/>
      <use xlink:href="#DejaVuSans-64" x="489.310547"/>
      <use xlink:href="#DejaVuSans-20" x="552.787109"/>
      <use xlink:href="#DejaVuSans-45" x="584.574219"/>
      <use xlink:href="#DejaVuSans-53" x="647.757812"/>
      <use xlink:href="#DejaVuSans-4d" x="711.234375"/>
      <use xlink:href="#DejaVuSans-32" x="797.513672"/>
      <use xlink:href="#DejaVuSans-20" x="861.136719"/>
      <use xlink:href="#DejaVuSans-28" x="892.923828"/>
      <use xlink:href="#DejaVuSans-36" x="931.9375"/>
      <use xlink:href="#DejaVuSans-35" x="995.560547"/>
      <use xlink:href="#DejaVuSans-30" x="1059.183594"/>
      <use xlink:href="#DejaVuSans-4d" x="1122.806641"/>
      <use xlink:href="#DejaVuSans-29" x="1209.085938"/>
     </g>
    </g>
    <g id="patch_7">
     <path d="M 60.455 42.076563 
L 80.455 42.076563 
L 80.455 35.076563 
L 60.455 35.076563 
z
" style="fill: #92c5de; fill-opacity: 0.5; stroke: #92c5de; stroke-width: 2.5; stroke-linejoin: miter"/>
    </g>
    <g id="text_17">
     <!-- SFT ESM2 (650M) -->
     <g transform="translate(88.455 42.076563) scale(0.1 -0.1)">
      <defs>
       <path id="DejaVuSans-54" d="M -19 4666 
L 3928 4666 
L 3928 4134 
L 2272 4134 
L 2272 0 
L 1638 0 
L 1638 4134 
L -19 4134 
L -19 4666 
z
" transform="scale(0.015625)"/>
      </defs>
      <use xlink:href="#DejaVuSans-53"/>
      <use xlink:href="#DejaVuSans-46" x="63.476562"/>
      <use xlink:href="#DejaVuSans-54" x="119.246094"/>
      <use xlink:href="#DejaVuSans-20" x="180.330078"/>
      <use xlink:href="#DejaVuSans-45" x="212.117188"/>
      <use xlink:href="#DejaVuSans-53" x="275.300781"/>
      <use xlink:href="#DejaVuSans-4d" x="338.777344"/>
      <use xlink:href="#DejaVuSans-32" x="425.056641"/>
      <use xlink:href="#DejaVuSans-20" x="488.679688"/>
      <use xlink:href="#DejaVuSans-28" x="520.466797"/>
      <use xlink:href="#DejaVuSans-36" x="559.480469"/>
      <use xlink:href="#DejaVuSans-35" x="623.103516"/>
      <use xlink:href="#DejaVuSans-30" x="686.726562"/>
      <use xlink:href="#DejaVuSans-4d" x="750.349609"/>
      <use xlink:href="#DejaVuSans-29" x="836.628906"/>
     </g>
    </g>
    <g id="patch_8">
     <path d="M 60.455 56.754688 
L 80.455 56.754688 
L 80.455 49.754688 
L 60.455 49.754688 
z
" style="fill: #2166ac; fill-opacity: 0.5; stroke: #2166ac; stroke-width: 2.5; stroke-linejoin: miter"/>
    </g>
    <g id="text_18">
     <!-- Aligned ESM2 (650M) -->
     <g transform="translate(88.455 56.754688) scale(0.1 -0.1)">
      <defs>
       <path id="DejaVuSans-41" d="M 2188 4044 
L 1331 1722 
L 3047 1722 
L 2188 4044 
z
M 1831 4666 
L 2547 4666 
L 4325 0 
L 3669 0 
L 3244 1197 
L 1141 1197 
L 716 0 
L 50 0 
L 1831 4666 
z
" transform="scale(0.015625)"/>
       <path id="DejaVuSans-67" d="M 2906 1791 
Q 2906 2416 2648 2759 
Q 2391 3103 1925 3103 
Q 1463 3103 1205 2759 
Q 947 2416 947 1791 
Q 947 1169 1205 825 
Q 1463 481 1925 481 
Q 2391 481 2648 825 
Q 2906 1169 2906 1791 
z
M 3481 434 
Q 3481 -459 3084 -895 
Q 2688 -1331 1869 -1331 
Q 1566 -1331 1297 -1286 
Q 1028 -1241 775 -1147 
L 775 -588 
Q 1028 -725 1275 -790 
Q 1522 -856 1778 -856 
Q 2344 -856 2625 -561 
Q 2906 -266 2906 331 
L 2906 616 
Q 2728 306 2450 153 
Q 2172 0 1784 0 
Q 1141 0 747 490 
Q 353 981 353 1791 
Q 353 2603 747 3093 
Q 1141 3584 1784 3584 
Q 2172 3584 2450 3431 
Q 2728 3278 2906 2969 
L 2906 3500 
L 3481 3500 
L 3481 434 
z
" transform="scale(0.015625)"/>
      </defs>
      <use xlink:href="#DejaVuSans-41"/>
      <use xlink:href="#DejaVuSans-6c" x="68.408203"/>
      <use xlink:href="#DejaVuSans-69" x="96.191406"/>
      <use xlink:href="#DejaVuSans-67" x="123.974609"/>
      <use xlink:href="#DejaVuSans-6e" x="187.451172"/>
      <use xlink:href="#DejaVuSans-65" x="250.830078"/>
      <use xlink:href="#DejaVuSans-64" x="312.353516"/>
      <use xlink:href="#DejaVuSans-20" x="375.830078"/>
      <use xlink:href="#DejaVuSans-45" x="407.617188"/>
      <use xlink:href="#DejaVuSans-53" x="470.800781"/>
      <use xlink:href="#DejaVuSans-4d" x="534.277344"/>
      <use xlink:href="#DejaVuSans-32" x="620.556641"/>
      <use xlink:href="#DejaVuSans-20" x="684.179688"/>
      <use xlink:href="#DejaVuSans-28" x="715.966797"/>
      <use xlink:href="#DejaVuSans-36" x="754.980469"/>
      <use xlink:href="#DejaVuSans-35" x="818.603516"/>
      <use xlink:href="#DejaVuSans-30" x="882.226562"/>
      <use xlink:href="#DejaVuSans-4d" x="945.849609"/>
      <use xlink:href="#DejaVuSans-29" x="1032.128906"/>
     </g>
    </g>
    <g id="line2d_15">
     <path d="M 60.455 67.932813 
L 70.455 67.932813 
L 80.455 67.932813 
" style="fill: none; stroke-dasharray: 3.7,1.6; stroke-dashoffset: 0; stroke: #000000"/>
    </g>
    <g id="text_19">
     <!-- Predicted avGFP score -->
     <g transform="translate(88.455 71.432813) scale(0.1 -0.1)">
      <defs>
       <path id="DejaVuSans-76" d="M 191 3500 
L 800 3500 
L 1894 563 
L 2988 3500 
L 3597 3500 
L 2284 0 
L 1503 0 
L 191 3500 
z
" transform="scale(0.015625)"/>
       <path id="DejaVuSans-47" d="M 3809 666 
L 3809 1919 
L 2778 1919 
L 2778 2438 
L 4434 2438 
L 4434 434 
Q 4069 175 3628 42 
Q 3188 -91 2688 -91 
Q 1594 -91 976 548 
Q 359 1188 359 2328 
Q 359 3472 976 4111 
Q 1594 4750 2688 4750 
Q 3144 4750 3555 4637 
Q 3966 4525 4313 4306 
L 4313 3634 
Q 3963 3931 3569 4081 
Q 3175 4231 2741 4231 
Q 1884 4231 1454 3753 
Q 1025 3275 1025 2328 
Q 1025 1384 1454 906 
Q 1884 428 2741 428 
Q 3075 428 3337 486 
Q 3600 544 3809 666 
z
" transform="scale(0.015625)"/>
      </defs>
      <use xlink:href="#DejaVuSans-50"/>
      <use xlink:href="#DejaVuSans-72" x="58.552734"/>
      <use xlink:href="#DejaVuSans-65" x="97.416016"/>
      <use xlink:href="#DejaVuSans-64" x="158.939453"/>
      <use xlink:href="#DejaVuSans-69" x="222.416016"/>
      <use xlink:href="#DejaVuSans-63" x="250.199219"/>
      <use xlink:href="#DejaVuSans-74" x="305.179688"/>
      <use xlink:href="#DejaVuSans-65" x="344.388672"/>
      <use xlink:href="#DejaVuSans-64" x="405.912109"/>
      <use xlink:href="#DejaVuSans-20" x="469.388672"/>
      <use xlink:href="#DejaVuSans-61" x="501.175781"/>
      <use xlink:href="#DejaVuSans-76" x="562.455078"/>
      <use xlink:href="#DejaVuSans-47" x="621.634766"/>
      <use xlink:href="#DejaVuSans-46" x="699.125"/>
      <use xlink:href="#DejaVuSans-50" x="756.644531"/>
      <use xlink:href="#DejaVuSans-20" x="816.947266"/>
      <use xlink:href="#DejaVuSans-73" x="848.734375"/>
      <use xlink:href="#DejaVuSans-63" x="900.833984"/>
      <use xlink:href="#DejaVuSans-6f" x="955.814453"/>
      <use xlink:href="#DejaVuSans-72" x="1016.996094"/>
      <use xlink:href="#DejaVuSans-65" x="1055.859375"/>
     </g>
    </g>
   </g>
  </g>
 </g>
 <defs>
  <clipPath id="p939905d066">
   <rect x="51.455" y="10.8" width="369.745" height="377.44"/>
  </clipPath>
 </defs>
</svg>
