<?xml version="1.0" encoding="utf-8" standalone="no"?>
<!DOCTYPE svg PUBLIC "-//W3C//DTD SVG 1.1//EN"
  "http://www.w3.org/Graphics/SVG/1.1/DTD/svg11.dtd">
<svg xmlns:xlink="http://www.w3.org/1999/xlink" width="432pt" height="432pt" viewBox="0 0 432 432" xmlns="http://www.w3.org/2000/svg" version="1.1">
 <metadata>
  <rdf:RDF xmlns:dc="http://purl.org/dc/elements/1.1/" xmlns:cc="http://creativecommons.org/ns#" xmlns:rdf="http://www.w3.org/1999/02/22-rdf-syntax-ns#">
   <cc:Work>
    <dc:type rdf:resource="http://purl.org/dc/dcmitype/StillImage"/>
    <dc:date>2025-04-02T18:12:51.933650</dc:date>
    <dc:format>image/svg+xml</dc:format>
    <dc:creator>
     <cc:Agent>
      <dc:title>Matplotlib v3.8.0, https://matplotlib.org/</dc:title>
     </cc:Agent>
    </dc:creator>
   </cc:Work>
  </rdf:RDF>
 </metadata>
 <defs>
  <style type="text/css">*{stroke-linejoin: round; stroke-linecap: butt}</style>
 </defs>
 <g id="figure_1">
  <g id="patch_1">
   <path d="M 0 432 
L 432 432 
L 432 0 
L 0 0 
z
" style="fill: #ffffff"/>
  </g>
  <g id="axes_1">
   <g id="patch_2">
    <path d="M 57.8 389.32 
L 421.2 389.32 
L 421.2 10.8 
L 57.8 10.8 
z
" style="fill: #ffffff"/>
   </g>
   <g id="PolyCollection_1">
    <defs>
     <path id="m141883e83b" d="M 74.318182 -42.685013 
L 74.318182 -42.68 
L 75.978301 -42.68 
L 77.638419 -42.68 
L 79.298538 -42.68 
L 80.958657 -42.68 
L 82.618776 -42.68 
L 84.278894 -42.68 
L 85.939013 -42.68 
L 87.599132 -42.68 
L 89.259251 -42.68 
L 90.91937 -42.68 
L 92.579488 -42.68 
L 94.239607 -42.68 
L 95.899726 -42.68 
L 97.559845 -42.68 
L 99.219963 -42.68 
L 100.880082 -42.68 
L 102.540201 -42.68 
L 104.20032 -42.68 
L 105.860439 -42.68 
L 107.520557 -42.68 
L 109.180676 -42.68 
L 110.840795 -42.68 
L 112.500914 -42.68 
L 114.161032 -42.68 
L 115.821151 -42.68 
L 117.48127 -42.68 
L 119.141389 -42.68 
L 120.801508 -42.68 
L 122.461626 -42.68 
L 124.121745 -42.68 
L 125.781864 -42.68 
L 127.441983 -42.68 
L 129.102101 -42.68 
L 130.76222 -42.68 
L 132.422339 -42.68 
L 134.082458 -42.68 
L 135.742577 -42.68 
L 137.402695 -42.68 
L 139.062814 -42.68 
L 140.722933 -42.68 
L 142.383052 -42.68 
L 144.04317 -42.68 
L 145.703289 -42.68 
L 147.363408 -42.68 
L 149.023527 -42.68 
L 150.683646 -42.68 
L 152.343764 -42.68 
L 154.003883 -42.68 
L 155.664002 -42.68 
L 157.324121 -42.68 
L 158.984239 -42.68 
L 160.644358 -42.68 
L 162.304477 -42.68 
L 163.964596 -42.68 
L 165.624714 -42.68 
L 167.284833 -42.68 
L 168.944952 -42.68 
L 170.605071 -42.68 
L 172.26519 -42.68 
L 173.925308 -42.68 
L 175.585427 -42.68 
L 177.245546 -42.68 
L 178.905665 -42.68 
L 180.565783 -42.68 
L 182.225902 -42.68 
L 183.886021 -42.68 
L 185.54614 -42.68 
L 187.206259 -42.68 
L 188.866377 -42.68 
L 190.526496 -42.68 
L 192.186615 -42.68 
L 193.846734 -42.68 
L 195.506852 -42.68 
L 197.166971 -42.68 
L 198.82709 -42.68 
L 200.487209 -42.68 
L 202.147328 -42.68 
L 203.807446 -42.68 
L 205.467565 -42.68 
L 207.127684 -42.68 
L 208.787803 -42.68 
L 210.447921 -42.68 
L 212.10804 -42.68 
L 213.768159 -42.68 
L 215.428278 -42.68 
L 217.088397 -42.68 
L 218.748515 -42.68 
L 220.408634 -42.68 
L 222.068753 -42.68 
L 223.728872 -42.68 
L 225.38899 -42.68 
L 227.049109 -42.68 
L 228.709228 -42.68 
L 230.369347 -42.68 
L 232.029466 -42.68 
L 233.689584 -42.68 
L 235.349703 -42.68 
L 237.009822 -42.68 
L 238.669941 -42.68 
L 240.330059 -42.68 
L 241.990178 -42.68 
L 243.650297 -42.68 
L 245.310416 -42.68 
L 246.970534 -42.68 
L 248.630653 -42.68 
L 250.290772 -42.68 
L 251.950891 -42.68 
L 253.61101 -42.68 
L 255.271128 -42.68 
L 256.931247 -42.68 
L 258.591366 -42.68 
L 260.251485 -42.68 
L 261.911603 -42.68 
L 263.571722 -42.68 
L 265.231841 -42.68 
L 266.89196 -42.68 
L 268.552079 -42.68 
L 270.212197 -42.68 
L 271.872316 -42.68 
L 273.532435 -42.68 
L 275.192554 -42.68 
L 276.852672 -42.68 
L 278.512791 -42.68 
L 280.17291 -42.68 
L 281.833029 -42.68 
L 283.493148 -42.68 
L 285.153266 -42.68 
L 286.813385 -42.68 
L 288.473504 -42.68 
L 290.133623 -42.68 
L 291.793741 -42.68 
L 293.45386 -42.68 
L 295.113979 -42.68 
L 296.774098 -42.68 
L 298.434217 -42.68 
L 300.094335 -42.68 
L 301.754454 -42.68 
L 303.414573 -42.68 
L 305.074692 -42.68 
L 306.73481 -42.68 
L 308.394929 -42.68 
L 310.055048 -42.68 
L 311.715167 -42.68 
L 313.375286 -42.68 
L 315.035404 -42.68 
L 316.695523 -42.68 
L 318.355642 -42.68 
L 320.015761 -42.68 
L 321.675879 -42.68 
L 323.335998 -42.68 
L 324.996117 -42.68 
L 326.656236 -42.68 
L 328.316354 -42.68 
L 329.976473 -42.68 
L 331.636592 -42.68 
L 333.296711 -42.68 
L 334.95683 -42.68 
L 336.616948 -42.68 
L 338.277067 -42.68 
L 339.937186 -42.68 
L 341.597305 -42.68 
L 343.257423 -42.68 
L 344.917542 -42.68 
L 346.577661 -42.68 
L 348.23778 -42.68 
L 349.897899 -42.68 
L 351.558017 -42.68 
L 353.218136 -42.68 
L 354.878255 -42.68 
L 356.538374 -42.68 
L 358.198492 -42.68 
L 359.858611 -42.68 
L 361.51873 -42.68 
L 363.178849 -42.68 
L 364.838968 -42.68 
L 366.499086 -42.68 
L 368.159205 -42.68 
L 369.819324 -42.68 
L 371.479443 -42.68 
L 373.139561 -42.68 
L 374.79968 -42.68 
L 376.459799 -42.68 
L 378.119918 -42.68 
L 379.780037 -42.68 
L 381.440155 -42.68 
L 383.100274 -42.68 
L 384.760393 -42.68 
L 386.420512 -42.68 
L 388.08063 -42.68 
L 389.740749 -42.68 
L 391.400868 -42.68 
L 393.060987 -42.68 
L 394.721106 -42.68 
L 396.381224 -42.68 
L 398.041343 -42.68 
L 399.701462 -42.68 
L 401.361581 -42.68 
L 403.021699 -42.68 
L 404.681818 -42.68 
L 404.681818 -42.729255 
L 404.681818 -42.729255 
L 403.021699 -42.761273 
L 401.361581 -42.811662 
L 399.701462 -42.889437 
L 398.041343 -43.007186 
L 396.381224 -43.182061 
L 394.721106 -43.436859 
L 393.060987 -43.801111 
L 391.400868 -44.312067 
L 389.740749 -45.015434 
L 388.08063 -45.965675 
L 386.420512 -47.225688 
L 384.760393 -48.86566 
L 383.100274 -50.960967 
L 381.440155 -53.589007 
L 379.780037 -56.825008 
L 378.119918 -60.736924 
L 376.459799 -65.379721 
L 374.79968 -70.789444 
L 373.139561 -76.977592 
L 371.479443 -83.92638 
L 369.819324 -91.585461 
L 368.159205 -99.870614 
L 366.499086 -108.664737 
L 364.838968 -117.821289 
L 363.178849 -127.170054 
L 361.51873 -136.524864 
L 359.858611 -145.692655 
L 358.198492 -154.483115 
L 356.538374 -162.718052 
L 354.878255 -170.239709 
L 353.218136 -176.917322 
L 351.558017 -182.651499 
L 349.897899 -187.376216 
L 348.23778 -191.058538 
L 346.577661 -193.696404 
L 344.917542 -195.314984 
L 343.257423 -195.962212 
L 341.597305 -195.704076 
L 339.937186 -194.620137 
L 338.277067 -192.799618 
L 336.616948 -190.338183 
L 334.95683 -187.335393 
L 333.296711 -183.892651 
L 331.636592 -180.111437 
L 329.976473 -176.091558 
L 328.316354 -171.929256 
L 326.656236 -167.715079 
L 324.996117 -163.531516 
L 323.335998 -159.450548 
L 321.675879 -155.531313 
L 320.015761 -151.818138 
L 318.355642 -148.339212 
L 316.695523 -145.106115 
L 315.035404 -142.114361 
L 313.375286 -139.345017 
L 311.715167 -136.767324 
L 310.055048 -134.342172 
L 308.394929 -132.026123 
L 306.73481 -129.775658 
L 305.074692 -127.551249 
L 303.414573 -125.320874 
L 301.754454 -123.062646 
L 300.094335 -120.766343 
L 298.434217 -118.433715 
L 296.774098 -116.077616 
L 295.113979 -113.720115 
L 293.45386 -111.389862 
L 291.793741 -109.119044 
L 290.133623 -106.940263 
L 288.473504 -104.883668 
L 286.813385 -102.974584 
L 285.153266 -101.231763 
L 283.493148 -99.666326 
L 281.833029 -98.281313 
L 280.17291 -97.07175 
L 278.512791 -96.025066 
L 276.852672 -95.121742 
L 275.192554 -94.336124 
L 273.532435 -93.637375 
L 271.872316 -92.990637 
L 270.212197 -92.358499 
L 268.552079 -91.70286 
L 266.89196 -90.987229 
L 265.231841 -90.179396 
L 263.571722 -89.25428 
L 261.911603 -88.196653 
L 260.251485 -87.003329 
L 258.591366 -85.684415 
L 256.931247 -84.263286 
L 255.271128 -82.77509 
L 253.61101 -81.263796 
L 251.950891 -79.778043 
L 250.290772 -78.366234 
L 248.630653 -77.071491 
L 246.970534 -75.927096 
L 245.310416 -74.953017 
L 243.650297 -74.153959 
L 241.990178 -73.519135 
L 240.330059 -73.023745 
L 238.669941 -72.631895 
L 237.009822 -72.300512 
L 235.349703 -71.983739 
L 233.689584 -71.63725 
L 232.029466 -71.222022 
L 230.369347 -70.707216 
L 228.709228 -70.071977 
L 227.049109 -69.306124 
L 225.38899 -68.409849 
L 223.728872 -67.392618 
L 222.068753 -66.271537 
L 220.408634 -65.069422 
L 218.748515 -63.812811 
L 217.088397 -62.530063 
L 215.428278 -61.249651 
L 213.768159 -59.998693 
L 212.10804 -58.801732 
L 210.447921 -57.67974 
L 208.787803 -56.649356 
L 207.127684 -55.722336 
L 205.467565 -54.905234 
L 203.807446 -54.199342 
L 202.147328 -53.600902 
L 200.487209 -53.101596 
L 198.82709 -52.689302 
L 197.166971 -52.349061 
L 195.506852 -52.064183 
L 193.846734 -51.817394 
L 192.186615 -51.591918 
L 190.526496 -51.372415 
L 188.866377 -51.145687 
L 187.206259 -50.901143 
L 185.54614 -50.631018 
L 183.886021 -50.330381 
L 182.225902 -49.996995 
L 180.565783 -49.631087 
L 178.905665 -49.235079 
L 177.245546 -48.81331 
L 175.585427 -48.371764 
L 173.925308 -47.917781 
L 172.26519 -47.45974 
L 170.605071 -47.006674 
L 168.944952 -46.56783 
L 167.284833 -46.152153 
L 165.624714 -45.767755 
L 163.964596 -45.421396 
L 162.304477 -45.118044 
L 160.644358 -44.860575 
L 158.984239 -44.649648 
L 157.324121 -44.483779 
L 155.664002 -44.359599 
L 154.003883 -44.272262 
L 152.343764 -44.215952 
L 150.683646 -44.18441 
L 149.023527 -44.171424 
L 147.363408 -44.171227 
L 145.703289 -44.17877 
L 144.04317 -44.189868 
L 142.383052 -44.201219 
L 140.722933 -44.21034 
L 139.062814 -44.215452 
L 137.402695 -44.215347 
L 135.742577 -44.209262 
L 134.082458 -44.196797 
L 132.422339 -44.177841 
L 130.76222 -44.152537 
L 129.102101 -44.12125 
L 127.441983 -44.084525 
L 125.781864 -44.04304 
L 124.121745 -43.997539 
L 122.461626 -43.948753 
L 120.801508 -43.897326 
L 119.141389 -43.843752 
L 117.48127 -43.788345 
L 115.821151 -43.731231 
L 114.161032 -43.672392 
L 112.500914 -43.611731 
L 110.840795 -43.549158 
L 109.180676 -43.484682 
L 107.520557 -43.418486 
L 105.860439 -43.350985 
L 104.20032 -43.282833 
L 102.540201 -43.214908 
L 100.880082 -43.148246 
L 99.219963 -43.083958 
L 97.559845 -43.023135 
L 95.899726 -42.96675 
L 94.239607 -42.91558 
L 92.579488 -42.87015 
L 90.91937 -42.830709 
L 89.259251 -42.797236 
L 87.599132 -42.769473 
L 85.939013 -42.74697 
L 84.278894 -42.729147 
L 82.618776 -42.715354 
L 80.958657 -42.704923 
L 79.298538 -42.697215 
L 77.638419 -42.691649 
L 75.978301 -42.687722 
L 74.318182 -42.685013 
z
" style="stroke: #bdbdbd; stroke-width: 2.5"/>
    </defs>
    <g clip-path="url(#pbe47542799)">
     <use xlink:href="#m141883e83b" x="0" y="432" style="fill: #bdbdbd; fill-opacity: 0.5; stroke: #bdbdbd; stroke-width: 2.5"/>
    </g>
   </g>
   <g id="PolyCollection_2">
    <defs>
     <path id="mb63c2b383c" d="M 142.607031 -42.688053 
L 142.607031 -42.68 
L 143.900694 -42.68 
L 145.194358 -42.68 
L 146.488021 -42.68 
L 147.781684 -42.68 
L 149.075348 -42.68 
L 150.369011 -42.68 
L 151.662675 -42.68 
L 152.956338 -42.68 
L 154.250001 -42.68 
L 155.543665 -42.68 
L 156.837328 -42.68 
L 158.130992 -42.68 
L 159.424655 -42.68 
L 160.718318 -42.68 
L 162.011982 -42.68 
L 163.305645 -42.68 
L 164.599309 -42.68 
L 165.892972 -42.68 
L 167.186636 -42.68 
L 168.480299 -42.68 
L 169.773962 -42.68 
L 171.067626 -42.68 
L 172.361289 -42.68 
L 173.654953 -42.68 
L 174.948616 -42.68 
L 176.242279 -42.68 
L 177.535943 -42.68 
L 178.829606 -42.68 
L 180.12327 -42.68 
L 181.416933 -42.68 
L 182.710596 -42.68 
L 184.00426 -42.68 
L 185.297923 -42.68 
L 186.591587 -42.68 
L 187.88525 -42.68 
L 189.178913 -42.68 
L 190.472577 -42.68 
L 191.76624 -42.68 
L 193.059904 -42.68 
L 194.353567 -42.68 
L 195.64723 -42.68 
L 196.940894 -42.68 
L 198.234557 -42.68 
L 199.528221 -42.68 
L 200.821884 -42.68 
L 202.115548 -42.68 
L 203.409211 -42.68 
L 204.702874 -42.68 
L 205.996538 -42.68 
L 207.290201 -42.68 
L 208.583865 -42.68 
L 209.877528 -42.68 
L 211.171191 -42.68 
L 212.464855 -42.68 
L 213.758518 -42.68 
L 215.052182 -42.68 
L 216.345845 -42.68 
L 217.639508 -42.68 
L 218.933172 -42.68 
L 220.226835 -42.68 
L 221.520499 -42.68 
L 222.814162 -42.68 
L 224.107825 -42.68 
L 225.401489 -42.68 
L 226.695152 -42.68 
L 227.988816 -42.68 
L 229.282479 -42.68 
L 230.576142 -42.68 
L 231.869806 -42.68 
L 233.163469 -42.68 
L 234.457133 -42.68 
L 235.750796 -42.68 
L 237.044459 -42.68 
L 238.338123 -42.68 
L 239.631786 -42.68 
L 240.92545 -42.68 
L 242.219113 -42.68 
L 243.512777 -42.68 
L 244.80644 -42.68 
L 246.100103 -42.68 
L 247.393767 -42.68 
L 248.68743 -42.68 
L 249.981094 -42.68 
L 251.274757 -42.68 
L 252.56842 -42.68 
L 253.862084 -42.68 
L 255.155747 -42.68 
L 256.449411 -42.68 
L 257.743074 -42.68 
L 259.036737 -42.68 
L 260.330401 -42.68 
L 261.624064 -42.68 
L 262.917728 -42.68 
L 264.211391 -42.68 
L 265.505054 -42.68 
L 266.798718 -42.68 
L 268.092381 -42.68 
L 269.386045 -42.68 
L 270.679708 -42.68 
L 271.973371 -42.68 
L 273.267035 -42.68 
L 274.560698 -42.68 
L 275.854362 -42.68 
L 277.148025 -42.68 
L 278.441689 -42.68 
L 279.735352 -42.68 
L 281.029015 -42.68 
L 282.322679 -42.68 
L 283.616342 -42.68 
L 284.910006 -42.68 
L 286.203669 -42.68 
L 287.497332 -42.68 
L 288.790996 -42.68 
L 290.084659 -42.68 
L 291.378323 -42.68 
L 292.671986 -42.68 
L 293.965649 -42.68 
L 295.259313 -42.68 
L 296.552976 -42.68 
L 297.84664 -42.68 
L 299.140303 -42.68 
L 300.433966 -42.68 
L 301.72763 -42.68 
L 303.021293 -42.68 
L 304.314957 -42.68 
L 305.60862 -42.68 
L 306.902283 -42.68 
L 308.195947 -42.68 
L 309.48961 -42.68 
L 310.783274 -42.68 
L 312.076937 -42.68 
L 313.370601 -42.68 
L 314.664264 -42.68 
L 315.957927 -42.68 
L 317.251591 -42.68 
L 318.545254 -42.68 
L 319.838918 -42.68 
L 321.132581 -42.68 
L 322.426244 -42.68 
L 323.719908 -42.68 
L 325.013571 -42.68 
L 326.307235 -42.68 
L 327.600898 -42.68 
L 328.894561 -42.68 
L 330.188225 -42.68 
L 331.481888 -42.68 
L 332.775552 -42.68 
L 334.069215 -42.68 
L 335.362878 -42.68 
L 336.656542 -42.68 
L 337.950205 -42.68 
L 339.243869 -42.68 
L 340.537532 -42.68 
L 341.831195 -42.68 
L 343.124859 -42.68 
L 344.418522 -42.68 
L 345.712186 -42.68 
L 347.005849 -42.68 
L 348.299512 -42.68 
L 349.593176 -42.68 
L 350.886839 -42.68 
L 352.180503 -42.68 
L 353.474166 -42.68 
L 354.76783 -42.68 
L 356.061493 -42.68 
L 357.355156 -42.68 
L 358.64882 -42.68 
L 359.942483 -42.68 
L 361.236147 -42.68 
L 362.52981 -42.68 
L 363.823473 -42.68 
L 365.117137 -42.68 
L 366.4108 -42.68 
L 367.704464 -42.68 
L 368.998127 -42.68 
L 370.29179 -42.68 
L 371.585454 -42.68 
L 372.879117 -42.68 
L 374.172781 -42.68 
L 375.466444 -42.68 
L 376.760107 -42.68 
L 378.053771 -42.68 
L 379.347434 -42.68 
L 380.641098 -42.68 
L 381.934761 -42.68 
L 383.228424 -42.68 
L 384.522088 -42.68 
L 385.815751 -42.68 
L 387.109415 -42.68 
L 388.403078 -42.68 
L 389.696742 -42.68 
L 390.990405 -42.68 
L 392.284068 -42.68 
L 393.577732 -42.68 
L 394.871395 -42.68 
L 396.165059 -42.68 
L 397.458722 -42.68 
L 398.752385 -42.68 
L 400.046049 -42.68 
L 400.046049 -42.943988 
L 400.046049 -42.943988 
L 398.752385 -43.172754 
L 397.458722 -43.57168 
L 396.165059 -44.24473 
L 394.871395 -45.343471 
L 393.577732 -47.079161 
L 392.284068 -49.732579 
L 390.990405 -53.658268 
L 389.696742 -59.279235 
L 388.403078 -67.068232 
L 387.109415 -77.512909 
L 385.815751 -91.064422 
L 384.522088 -108.072459 
L 383.228424 -128.71352 
L 381.934761 -152.922819 
L 380.641098 -180.342337 
L 379.347434 -210.297454 
L 378.053771 -241.811663 
L 376.760107 -273.663383 
L 375.466444 -304.481565 
L 374.172781 -332.869242 
L 372.879117 -357.538052 
L 371.585454 -377.43362 
L 370.29179 -391.832504 
L 368.998127 -400.396175 
L 367.704464 -403.175238 
L 366.4108 -400.566153 
L 365.117137 -393.230991 
L 363.823473 -381.996448 
L 362.52981 -367.750289 
L 361.236147 -351.351479 
L 359.942483 -333.565225 
L 358.64882 -315.027551 
L 357.355156 -296.237588 
L 356.061493 -277.570874 
L 354.76783 -259.304558 
L 353.474166 -241.645535 
L 352.180503 -224.754579 
L 350.886839 -208.76269 
L 349.593176 -193.778934 
L 348.299512 -179.891494 
L 347.005849 -167.164868 
L 345.712186 -155.636306 
L 344.418522 -145.313832 
L 343.124859 -136.177075 
L 341.831195 -128.180901 
L 340.537532 -121.260959 
L 339.243869 -115.339803 
L 337.950205 -110.332243 
L 336.656542 -106.149046 
L 335.362878 -102.698714 
L 334.069215 -99.887687 
L 332.775552 -97.619806 
L 331.481888 -95.795958 
L 330.188225 -94.314685 
L 328.894561 -93.074088 
L 327.600898 -91.97496 
L 326.307235 -90.924677 
L 325.013571 -89.841286 
L 323.719908 -88.657284 
L 322.426244 -87.322764 
L 321.132581 -85.807795 
L 319.838918 -84.103939 
L 318.545254 -82.224759 
L 317.251591 -80.205056 
L 315.957927 -78.09847 
L 314.664264 -75.973183 
L 313.370601 -73.905719 
L 312.076937 -71.97323 
L 310.783274 -70.245106 
L 309.48961 -68.775036 
L 308.195947 -67.594784 
L 306.902283 -66.710722 
L 305.60862 -66.103803 
L 304.314957 -65.73299 
L 303.021293 -65.541585 
L 301.72763 -65.465316 
L 300.433966 -65.440745 
L 299.140303 -65.412567 
L 297.84664 -65.338633 
L 296.552976 -65.192135 
L 295.259313 -64.960977 
L 293.965649 -64.644974 
L 292.671986 -64.251867 
L 291.378323 -63.79324 
L 290.084659 -63.281227 
L 288.790996 -62.726528 
L 287.497332 -62.137792 
L 286.203669 -61.522089 
L 284.910006 -60.885904 
L 283.616342 -60.236091 
L 282.322679 -59.580328 
L 281.029015 -58.926817 
L 279.735352 -58.283321 
L 278.441689 -57.655794 
L 277.148025 -57.047094 
L 275.854362 -56.456225 
L 274.560698 -55.878471 
L 273.267035 -55.306521 
L 271.973371 -54.732373 
L 270.679708 -54.149595 
L 269.386045 -53.55532 
L 268.092381 -52.951457 
L 266.798718 -52.344771 
L 265.505054 -51.74581 
L 264.211391 -51.167 
L 262.917728 -50.62041 
L 261.624064 -50.115795 
L 260.330401 -49.659383 
L 259.036737 -49.253619 
L 257.743074 -48.897835 
L 256.449411 -48.589508 
L 255.155747 -48.325664 
L 253.862084 -48.103964 
L 252.56842 -47.923115 
L 251.274757 -47.782485 
L 249.981094 -47.681019 
L 248.68743 -47.615822 
L 247.393767 -47.580858 
L 246.100103 -47.566287 
L 244.80644 -47.558782 
L 243.512777 -47.542928 
L 242.219113 -47.503508 
L 240.92545 -47.428171 
L 239.631786 -47.30983 
L 238.338123 -47.148152 
L 237.044459 -46.949706 
L 235.750796 -46.726656 
L 234.457133 -46.494306 
L 233.163469 -46.268045 
L 231.869806 -46.060437 
L 230.576142 -45.879104 
L 229.282479 -45.725827 
L 227.988816 -45.596944 
L 226.695152 -45.484817 
L 225.401489 -45.379882 
L 224.107825 -45.272746 
L 222.814162 -45.155846 
L 221.520499 -45.024419 
L 220.226835 -44.876702 
L 218.933172 -44.713554 
L 217.639508 -44.537737 
L 216.345845 -44.353136 
L 215.052182 -44.164126 
L 213.758518 -43.975145 
L 212.464855 -43.790465 
L 211.171191 -43.614067 
L 209.877528 -43.449529 
L 208.583865 -43.299876 
L 207.290201 -43.167399 
L 205.996538 -43.053481 
L 204.702874 -42.958494 
L 203.409211 -42.881817 
L 202.115548 -42.821972 
L 200.821884 -42.776857 
L 199.528221 -42.744031 
L 198.234557 -42.720991 
L 196.940894 -42.705401 
L 195.64723 -42.695234 
L 194.353567 -42.688853 
L 193.059904 -42.685014 
L 191.76624 -42.682833 
L 190.472577 -42.681732 
L 189.178913 -42.681386 
L 187.88525 -42.681685 
L 186.591587 -42.682718 
L 185.297923 -42.684783 
L 184.00426 -42.688411 
L 182.710596 -42.69441 
L 181.416933 -42.70389 
L 180.12327 -42.718266 
L 178.829606 -42.739193 
L 177.535943 -42.768417 
L 176.242279 -42.807529 
L 174.948616 -42.857616 
L 173.654953 -42.918865 
L 172.361289 -42.990187 
L 171.067626 -43.068949 
L 169.773962 -43.150935 
L 168.480299 -43.23059 
L 167.186636 -43.301577 
L 165.892972 -43.35758 
L 164.599309 -43.393222 
L 163.305645 -43.404917 
L 162.011982 -43.391461 
L 160.718318 -43.354237 
L 159.424655 -43.296983 
L 158.130992 -43.225171 
L 156.837328 -43.145149 
L 155.543665 -43.063221 
L 154.250001 -42.984864 
L 152.956338 -42.914186 
L 151.662675 -42.853707 
L 150.369011 -42.804414 
L 149.075348 -42.766045 
L 147.781684 -42.737461 
L 146.488021 -42.717053 
L 145.194358 -42.703072 
L 143.900694 -42.693872 
L 142.607031 -42.688053 
z
" style="stroke: #92c5de; stroke-width: 2.5"/>
    </defs>
    <g clip-path="url(#pbe47542799)">
     <use xlink:href="#mb63c2b383c" x="0" y="432" style="fill: #92c5de; fill-opacity: 0.5; stroke: #92c5de; stroke-width: 2.5"/>
    </g>
   </g>
   <g id="PolyCollection_3">
    <defs>
     <path id="m85aea52cbd" d="M 179.932242 -42.687933 
L 179.932242 -42.68 
L 181.047781 -42.68 
L 182.16332 -42.68 
L 183.278859 -42.68 
L 184.394398 -42.68 
L 185.509937 -42.68 
L 186.625477 -42.68 
L 187.741016 -42.68 
L 188.856555 -42.68 
L 189.972094 -42.68 
L 191.087633 -42.68 
L 192.203172 -42.68 
L 193.318712 -42.68 
L 194.434251 -42.68 
L 195.54979 -42.68 
L 196.665329 -42.68 
L 197.780868 -42.68 
L 198.896407 -42.68 
L 200.011947 -42.68 
L 201.127486 -42.68 
L 202.243025 -42.68 
L 203.358564 -42.68 
L 204.474103 -42.68 
L 205.589642 -42.68 
L 206.705182 -42.68 
L 207.820721 -42.68 
L 208.93626 -42.68 
L 210.051799 -42.68 
L 211.167338 -42.68 
L 212.282877 -42.68 
L 213.398417 -42.68 
L 214.513956 -42.68 
L 215.629495 -42.68 
L 216.745034 -42.68 
L 217.860573 -42.68 
L 218.976112 -42.68 
L 220.091651 -42.68 
L 221.207191 -42.68 
L 222.32273 -42.68 
L 223.438269 -42.68 
L 224.553808 -42.68 
L 225.669347 -42.68 
L 226.784886 -42.68 
L 227.900426 -42.68 
L 229.015965 -42.68 
L 230.131504 -42.68 
L 231.247043 -42.68 
L 232.362582 -42.68 
L 233.478121 -42.68 
L 234.593661 -42.68 
L 235.7092 -42.68 
L 236.824739 -42.68 
L 237.940278 -42.68 
L 239.055817 -42.68 
L 240.171356 -42.68 
L 241.286896 -42.68 
L 242.402435 -42.68 
L 243.517974 -42.68 
L 244.633513 -42.68 
L 245.749052 -42.68 
L 246.864591 -42.68 
L 247.980131 -42.68 
L 249.09567 -42.68 
L 250.211209 -42.68 
L 251.326748 -42.68 
L 252.442287 -42.68 
L 253.557826 -42.68 
L 254.673366 -42.68 
L 255.788905 -42.68 
L 256.904444 -42.68 
L 258.019983 -42.68 
L 259.135522 -42.68 
L 260.251061 -42.68 
L 261.366601 -42.68 
L 262.48214 -42.68 
L 263.597679 -42.68 
L 264.713218 -42.68 
L 265.828757 -42.68 
L 266.944296 -42.68 
L 268.059836 -42.68 
L 269.175375 -42.68 
L 270.290914 -42.68 
L 271.406453 -42.68 
L 272.521992 -42.68 
L 273.637531 -42.68 
L 274.753071 -42.68 
L 275.86861 -42.68 
L 276.984149 -42.68 
L 278.099688 -42.68 
L 279.215227 -42.68 
L 280.330766 -42.68 
L 281.446306 -42.68 
L 282.561845 -42.68 
L 283.677384 -42.68 
L 284.792923 -42.68 
L 285.908462 -42.68 
L 287.024001 -42.68 
L 288.139541 -42.68 
L 289.25508 -42.68 
L 290.370619 -42.68 
L 291.486158 -42.68 
L 292.601697 -42.68 
L 293.717236 -42.68 
L 294.832776 -42.68 
L 295.948315 -42.68 
L 297.063854 -42.68 
L 298.179393 -42.68 
L 299.294932 -42.68 
L 300.410471 -42.68 
L 301.526011 -42.68 
L 302.64155 -42.68 
L 303.757089 -42.68 
L 304.872628 -42.68 
L 305.988167 -42.68 
L 307.103706 -42.68 
L 308.219245 -42.68 
L 309.334785 -42.68 
L 310.450324 -42.68 
L 311.565863 -42.68 
L 312.681402 -42.68 
L 313.796941 -42.68 
L 314.91248 -42.68 
L 316.02802 -42.68 
L 317.143559 -42.68 
L 318.259098 -42.68 
L 319.374637 -42.68 
L 320.490176 -42.68 
L 321.605715 -42.68 
L 322.721255 -42.68 
L 323.836794 -42.68 
L 324.952333 -42.68 
L 326.067872 -42.68 
L 327.183411 -42.68 
L 328.29895 -42.68 
L 329.41449 -42.68 
L 330.530029 -42.68 
L 331.645568 -42.68 
L 332.761107 -42.68 
L 333.876646 -42.68 
L 334.992185 -42.68 
L 336.107725 -42.68 
L 337.223264 -42.68 
L 338.338803 -42.68 
L 339.454342 -42.68 
L 340.569881 -42.68 
L 341.68542 -42.68 
L 342.80096 -42.68 
L 343.916499 -42.68 
L 345.032038 -42.68 
L 346.147577 -42.68 
L 347.263116 -42.68 
L 348.378655 -42.68 
L 349.494195 -42.68 
L 350.609734 -42.68 
L 351.725273 -42.68 
L 352.840812 -42.68 
L 353.956351 -42.68 
L 355.07189 -42.68 
L 356.18743 -42.68 
L 357.302969 -42.68 
L 358.418508 -42.68 
L 359.534047 -42.68 
L 360.649586 -42.68 
L 361.765125 -42.68 
L 362.880665 -42.68 
L 363.996204 -42.68 
L 365.111743 -42.68 
L 366.227282 -42.68 
L 367.342821 -42.68 
L 368.45836 -42.68 
L 369.5739 -42.68 
L 370.689439 -42.68 
L 371.804978 -42.68 
L 372.920517 -42.68 
L 374.036056 -42.68 
L 375.151595 -42.68 
L 376.267135 -42.68 
L 377.382674 -42.68 
L 378.498213 -42.68 
L 379.613752 -42.68 
L 380.729291 -42.68 
L 381.84483 -42.68 
L 382.96037 -42.68 
L 384.075909 -42.68 
L 385.191448 -42.68 
L 386.306987 -42.68 
L 387.422526 -42.68 
L 388.538065 -42.68 
L 389.653604 -42.68 
L 390.769144 -42.68 
L 391.884683 -42.68 
L 393.000222 -42.68 
L 394.115761 -42.68 
L 395.2313 -42.68 
L 396.346839 -42.68 
L 397.462379 -42.68 
L 398.577918 -42.68 
L 399.693457 -42.68 
L 400.808996 -42.68 
L 401.924535 -42.68 
L 401.924535 -42.797955 
L 401.924535 -42.797955 
L 400.808996 -42.885961 
L 399.693457 -43.031917 
L 398.577918 -43.268474 
L 397.462379 -43.643146 
L 396.346839 -44.223057 
L 395.2313 -45.100171 
L 394.115761 -46.396514 
L 393.000222 -48.268628 
L 391.884683 -50.910231 
L 390.769144 -54.551839 
L 389.653604 -59.456057 
L 388.538065 -65.907392 
L 387.422526 -74.195874 
L 386.306987 -84.594503 
L 385.191448 -97.331528 
L 384.075909 -112.559649 
L 382.96037 -130.325304 
L 381.84483 -150.541947 
L 380.729291 -172.971474 
L 379.613752 -197.217512 
L 378.498213 -222.733195 
L 377.382674 -248.844257 
L 376.267135 -274.786251 
L 375.151595 -299.752596 
L 374.036056 -322.948499 
L 372.920517 -343.644858 
L 371.804978 -361.226229 
L 370.689439 -375.227803 
L 369.5739 -385.358018 
L 368.45836 -391.505398 
L 367.342821 -393.730343 
L 366.227282 -392.244299 
L 365.111743 -387.379922 
L 363.996204 -379.556365 
L 362.880665 -369.243679 
L 361.765125 -356.929699 
L 360.649586 -343.091904 
L 359.534047 -328.175711 
L 358.418508 -312.579771 
L 357.302969 -296.648029 
L 356.18743 -280.667723 
L 355.07189 -264.872124 
L 353.956351 -249.446556 
L 352.840812 -234.536215 
L 351.725273 -220.25436 
L 350.609734 -206.689689 
L 349.494195 -193.912054 
L 348.378655 -181.976087 
L 347.263116 -170.922741 
L 346.147577 -160.779164 
L 345.032038 -151.557572 
L 343.916499 -143.253935 
L 342.80096 -135.84721 
L 341.68542 -129.299667 
L 340.569881 -123.558548 
L 339.454342 -118.559 
L 338.338803 -114.227952 
L 337.223264 -110.488436 
L 336.107725 -107.263829 
L 334.992185 -104.481521 
L 333.876646 -102.075665 
L 332.761107 -99.988834 
L 331.645568 -98.172517 
L 330.530029 -96.586579 
L 329.41449 -95.197846 
L 328.29895 -93.978092 
L 327.183411 -92.901731 
L 326.067872 -91.943562 
L 324.952333 -91.07695 
L 323.836794 -90.272758 
L 322.721255 -89.499294 
L 321.605715 -88.723379 
L 320.490176 -87.912427 
L 319.374637 -87.037258 
L 318.259098 -86.075128 
L 317.143559 -85.012419 
L 316.02802 -83.846411 
L 314.91248 -82.585724 
L 313.796941 -81.249253 
L 312.681402 -79.86373 
L 311.565863 -78.460296 
L 310.450324 -77.070685 
L 309.334785 -75.72364 
L 308.219245 -74.442124 
L 307.103706 -73.241671 
L 305.988167 -72.129962 
L 304.872628 -71.107462 
L 303.757089 -70.168757 
L 302.64155 -69.304179 
L 301.526011 -68.501316 
L 300.410471 -67.746188 
L 299.294932 -67.024008 
L 298.179393 -66.319665 
L 297.063854 -65.618156 
L 295.948315 -64.905219 
L 294.832776 -64.168342 
L 293.717236 -63.398175 
L 292.601697 -62.59016 
L 291.486158 -61.746083 
L 290.370619 -60.875105 
L 289.25508 -59.99391 
L 288.139541 -59.125702 
L 287.024001 -58.298002 
L 285.908462 -57.539483 
L 284.792923 -56.876254 
L 283.677384 -56.328207 
L 282.561845 -55.906054 
L 281.446306 -55.609587 
L 280.330766 -55.427498 
L 279.215227 -55.338833 
L 278.099688 -55.315823 
L 276.984149 -55.327638 
L 275.86861 -55.344417 
L 274.753071 -55.340894 
L 273.637531 -55.299051 
L 272.521992 -55.209402 
L 271.406453 -55.070804 
L 270.290914 -54.888938 
L 269.175375 -54.673874 
L 268.059836 -54.437238 
L 266.944296 -54.18957 
L 265.828757 -53.938355 
L 264.713218 -53.68704 
L 263.597679 -53.435126 
L 262.48214 -53.179199 
L 261.366601 -52.914558 
L 260.251061 -52.637045 
L 259.135522 -52.344594 
L 258.019983 -52.038183 
L 256.904444 -51.721963 
L 255.788905 -51.402554 
L 254.673366 -51.087682 
L 253.557826 -50.78447 
L 252.442287 -50.497751 
L 251.326748 -50.228812 
L 250.211209 -49.97482 
L 249.09567 -49.729104 
L 247.980131 -49.482236 
L 246.864591 -49.223729 
L 245.749052 -48.944026 
L 244.633513 -48.636413 
L 243.517974 -48.298501 
L 242.402435 -47.933024 
L 241.286896 -47.547823 
L 240.171356 -47.155035 
L 239.055817 -46.769656 
L 237.940278 -46.407701 
L 236.824739 -46.084275 
L 235.7092 -45.811805 
L 234.593661 -45.598675 
L 233.478121 -45.448386 
L 232.362582 -45.359308 
L 231.247043 -45.325004 
L 230.131504 -45.335037 
L 229.015965 -45.376146 
L 227.900426 -45.433629 
L 226.784886 -45.492796 
L 225.669347 -45.540326 
L 224.553808 -45.565398 
L 223.438269 -45.560486 
L 222.32273 -45.521756 
L 221.207191 -45.449028 
L 220.091651 -45.345366 
L 218.976112 -45.216348 
L 217.860573 -45.069169 
L 216.745034 -44.911686 
L 215.629495 -44.751553 
L 214.513956 -44.595524 
L 213.398417 -44.448991 
L 212.282877 -44.315748 
L 211.167338 -44.19795 
L 210.051799 -44.096222 
L 208.93626 -44.00985 
L 207.820721 -43.937021 
L 206.705182 -43.875088 
L 205.589642 -43.820845 
L 204.474103 -43.770831 
L 203.358564 -43.721638 
L 202.243025 -43.670233 
L 201.127486 -43.614244 
L 200.011947 -43.552193 
L 198.896407 -43.483623 
L 197.780868 -43.409106 
L 196.665329 -43.330118 
L 195.54979 -43.248808 
L 194.434251 -43.167696 
L 193.318712 -43.089346 
L 192.203172 -43.016068 
L 191.087633 -42.949696 
L 189.972094 -42.89145 
L 188.856555 -42.841901 
L 187.741016 -42.80102 
L 186.625477 -42.768294 
L 185.509937 -42.742861 
L 184.394398 -42.723666 
L 183.278859 -42.709591 
L 182.16332 -42.699562 
L 181.047781 -42.692613 
L 179.932242 -42.687933 
z
" style="stroke: #2166ac; stroke-width: 2.5"/>
    </defs>
    <g clip-path="url(#pbe47542799)">
     <use xlink:href="#m85aea52cbd" x="0" y="432" style="fill: #2166ac; fill-opacity: 0.5; stroke: #2166ac; stroke-width: 2.5"/>
    </g>
   </g>
   <g id="matplotlib.axis_1">
    <g id="xtick_1">
     <g id="line2d_1">
      <defs>
       <path id="mdfbf55150b" d="M 0 0 
L 0 3.5 
" style="stroke: #000000; stroke-width: 0.8"/>
      </defs>
      <g>
       <use xlink:href="#mdfbf55150b" x="95.02219" y="389.32" style="stroke: #000000; stroke-width: 0.8"/>
      </g>
     </g>
     <g id="text_1">
      <!-- 0 -->
      <g transform="translate(91.84094 403.918437) scale(0.1 -0.1)">
       <defs>
        <path id="DejaVuSans-30" d="M 2034 4250 
Q 1547 4250 1301 3770 
Q 1056 3291 1056 2328 
Q 1056 1369 1301 889 
Q 1547 409 2034 409 
Q 2525 409 2770 889 
Q 3016 1369 3016 2328 
Q 3016 3291 2770 3770 
Q 2525 4250 2034 4250 
z
M 2034 4750 
Q 2819 4750 3233 4129 
Q 3647 3509 3647 2328 
Q 3647 1150 3233 529 
Q 2819 -91 2034 -91 
Q 1250 -91 836 529 
Q 422 1150 422 2328 
Q 422 3509 836 4129 
Q 1250 4750 2034 4750 
z
" transform="scale(0.015625)"/>
       </defs>
       <use xlink:href="#DejaVuSans-30"/>
      </g>
     </g>
    </g>
    <g id="xtick_2">
     <g id="line2d_2">
      <g>
       <use xlink:href="#mdfbf55150b" x="167.11863" y="389.32" style="stroke: #000000; stroke-width: 0.8"/>
      </g>
     </g>
     <g id="text_2">
      <!-- 1 -->
      <g transform="translate(163.93738 403.918437) scale(0.1 -0.1)">
       <defs>
        <path id="DejaVuSans-31" d="M 794 531 
L 1825 531 
L 1825 4091 
L 703 3866 
L 703 4441 
L 1819 4666 
L 2450 4666 
L 2450 531 
L 3481 531 
L 3481 0 
L 794 0 
L 794 531 
z
" transform="scale(0.015625)"/>
       </defs>
       <use xlink:href="#DejaVuSans-31"/>
      </g>
     </g>
    </g>
    <g id="xtick_3">
     <g id="line2d_3">
      <g>
       <use xlink:href="#mdfbf55150b" x="239.215069" y="389.32" style="stroke: #000000; stroke-width: 0.8"/>
      </g>
     </g>
     <g id="text_3">
      <!-- 2 -->
      <g transform="translate(236.033819 403.918437) scale(0.1 -0.1)">
       <defs>
        <path id="DejaVuSans-32" d="M 1228 531 
L 3431 531 
L 3431 0 
L 469 0 
L 469 531 
Q 828 903 1448 1529 
Q 2069 2156 2228 2338 
Q 2531 2678 2651 2914 
Q 2772 3150 2772 3378 
Q 2772 3750 2511 3984 
Q 2250 4219 1831 4219 
Q 1534 4219 1204 4116 
Q 875 4013 500 3803 
L 500 4441 
Q 881 4594 1212 4672 
Q 1544 4750 1819 4750 
Q 2544 4750 2975 4387 
Q 3406 4025 3406 3419 
Q 3406 3131 3298 2873 
Q 3191 2616 2906 2266 
Q 2828 2175 2409 1742 
Q 1991 1309 1228 531 
z
" transform="scale(0.015625)"/>
       </defs>
       <use xlink:href="#DejaVuSans-32"/>
      </g>
     </g>
    </g>
    <g id="xtick_4">
     <g id="line2d_4">
      <g>
       <use xlink:href="#mdfbf55150b" x="311.311509" y="389.32" style="stroke: #000000; stroke-width: 0.8"/>
      </g>
     </g>
     <g id="text_4">
      <!-- 3 -->
      <g transform="translate(308.130259 403.918437) scale(0.1 -0.1)">
       <defs>
        <path id="DejaVuSans-33" d="M 2597 2516 
Q 3050 2419 3304 2112 
Q 3559 1806 3559 1356 
Q 3559 666 3084 287 
Q 2609 -91 1734 -91 
Q 1441 -91 1130 -33 
Q 819 25 488 141 
L 488 750 
Q 750 597 1062 519 
Q 1375 441 1716 441 
Q 2309 441 2620 675 
Q 2931 909 2931 1356 
Q 2931 1769 2642 2001 
Q 2353 2234 1838 2234 
L 1294 2234 
L 1294 2753 
L 1863 2753 
Q 2328 2753 2575 2939 
Q 2822 3125 2822 3475 
Q 2822 3834 2567 4026 
Q 2313 4219 1838 4219 
Q 1578 4219 1281 4162 
Q 984 4106 628 3988 
L 628 4550 
Q 988 4650 1302 4700 
Q 1616 4750 1894 4750 
Q 2613 4750 3031 4423 
Q 3450 4097 3450 3541 
Q 3450 3153 3228 2886 
Q 3006 2619 2597 2516 
z
" transform="scale(0.015625)"/>
       </defs>
       <use xlink:href="#DejaVuSans-33"/>
      </g>
     </g>
    </g>
    <g id="xtick_5">
     <g id="line2d_5">
      <g>
       <use xlink:href="#mdfbf55150b" x="383.407949" y="389.32" style="stroke: #000000; stroke-width: 0.8"/>
      </g>
     </g>
     <g id="text_5">
      <!-- 4 -->
      <g transform="translate(380.226699 403.918437) scale(0.1 -0.1)">
       <defs>
        <path id="DejaVuSans-34" d="M 2419 4116 
L 825 1625 
L 2419 1625 
L 2419 4116 
z
M 2253 4666 
L 3047 4666 
L 3047 1625 
L 3713 1625 
L 3713 1100 
L 3047 1100 
L 3047 0 
L 2419 0 
L 2419 1100 
L 313 1100 
L 313 1709 
L 2253 4666 
z
" transform="scale(0.015625)"/>
       </defs>
       <use xlink:href="#DejaVuSans-34"/>
      </g>
     </g>
    </g>
    <g id="text_6">
     <!-- Predicted Fluorescence -->
     <g transform="translate(169.90375 419.11625) scale(0.12 -0.12)">
      <defs>
       <path id="DejaVuSans-50" d="M 1259 4147 
L 1259 2394 
L 2053 2394 
Q 2494 2394 2734 2622 
Q 2975 2850 2975 3272 
Q 2975 3691 2734 3919 
Q 2494 4147 2053 4147 
L 1259 4147 
z
M 628 4666 
L 2053 4666 
Q 2838 4666 3239 4311 
Q 3641 3956 3641 3272 
Q 3641 2581 3239 2228 
Q 2838 1875 2053 1875 
L 1259 1875 
L 1259 0 
L 628 0 
L 628 4666 
z
" transform="scale(0.015625)"/>
       <path id="DejaVuSans-72" d="M 2631 2963 
Q 2534 3019 2420 3045 
Q 2306 3072 2169 3072 
Q 1681 3072 1420 2755 
Q 1159 2438 1159 1844 
L 1159 0 
L 581 0 
L 581 3500 
L 1159 3500 
L 1159 2956 
Q 1341 3275 1631 3429 
Q 1922 3584 2338 3584 
Q 2397 3584 2469 3576 
Q 2541 3569 2628 3553 
L 2631 2963 
z
" transform="scale(0.015625)"/>
       <path id="DejaVuSans-65" d="M 3597 1894 
L 3597 1613 
L 953 1613 
Q 991 1019 1311 708 
Q 1631 397 2203 397 
Q 2534 397 2845 478 
Q 3156 559 3463 722 
L 3463 178 
Q 3153 47 2828 -22 
Q 2503 -91 2169 -91 
Q 1331 -91 842 396 
Q 353 884 353 1716 
Q 353 2575 817 3079 
Q 1281 3584 2069 3584 
Q 2775 3584 3186 3129 
Q 3597 2675 3597 1894 
z
M 3022 2063 
Q 3016 2534 2758 2815 
Q 2500 3097 2075 3097 
Q 1594 3097 1305 2825 
Q 1016 2553 972 2059 
L 3022 2063 
z
" transform="scale(0.015625)"/>
       <path id="DejaVuSans-64" d="M 2906 2969 
L 2906 4863 
L 3481 4863 
L 3481 0 
L 2906 0 
L 2906 525 
Q 2725 213 2448 61 
Q 2172 -91 1784 -91 
Q 1150 -91 751 415 
Q 353 922 353 1747 
Q 353 2572 751 3078 
Q 1150 3584 1784 3584 
Q 2172 3584 2448 3432 
Q 2725 3281 2906 2969 
z
M 947 1747 
Q 947 1113 1208 752 
Q 1469 391 1925 391 
Q 2381 391 2643 752 
Q 2906 1113 2906 1747 
Q 2906 2381 2643 2742 
Q 2381 3103 1925 3103 
Q 1469 3103 1208 2742 
Q 947 2381 947 1747 
z
" transform="scale(0.015625)"/>
       <path id="DejaVuSans-69" d="M 603 3500 
L 1178 3500 
L 1178 0 
L 603 0 
L 603 3500 
z
M 603 4863 
L 1178 4863 
L 1178 4134 
L 603 4134 
L 603 4863 
z
" transform="scale(0.015625)"/>
       <path id="DejaVuSans-63" d="M 3122 3366 
L 3122 2828 
Q 2878 2963 2633 3030 
Q 2388 3097 2138 3097 
Q 1578 3097 1268 2742 
Q 959 2388 959 1747 
Q 959 1106 1268 751 
Q 1578 397 2138 397 
Q 2388 397 2633 464 
Q 2878 531 3122 666 
L 3122 134 
Q 2881 22 2623 -34 
Q 2366 -91 2075 -91 
Q 1284 -91 818 406 
Q 353 903 353 1747 
Q 353 2603 823 3093 
Q 1294 3584 2113 3584 
Q 2378 3584 2631 3529 
Q 2884 3475 3122 3366 
z
" transform="scale(0.015625)"/>
       <path id="DejaVuSans-74" d="M 1172 4494 
L 1172 3500 
L 2356 3500 
L 2356 3053 
L 1172 3053 
L 1172 1153 
Q 1172 725 1289 603 
Q 1406 481 1766 481 
L 2356 481 
L 2356 0 
L 1766 0 
Q 1100 0 847 248 
Q 594 497 594 1153 
L 594 3053 
L 172 3053 
L 172 3500 
L 594 3500 
L 594 4494 
L 1172 4494 
z
" transform="scale(0.015625)"/>
       <path id="DejaVuSans-20" transform="scale(0.015625)"/>
       <path id="DejaVuSans-46" d="M 628 4666 
L 3309 4666 
L 3309 4134 
L 1259 4134 
L 1259 2759 
L 3109 2759 
L 3109 2228 
L 1259 2228 
L 1259 0 
L 628 0 
L 628 4666 
z
" transform="scale(0.015625)"/>
       <path id="DejaVuSans-6c" d="M 603 4863 
L 1178 4863 
L 1178 0 
L 603 0 
L 603 4863 
z
" transform="scale(0.015625)"/>
       <path id="DejaVuSans-75" d="M 544 1381 
L 544 3500 
L 1119 3500 
L 1119 1403 
Q 1119 906 1312 657 
Q 1506 409 1894 409 
Q 2359 409 2629 706 
Q 2900 1003 2900 1516 
L 2900 3500 
L 3475 3500 
L 3475 0 
L 2900 0 
L 2900 538 
Q 2691 219 2414 64 
Q 2138 -91 1772 -91 
Q 1169 -91 856 284 
Q 544 659 544 1381 
z
M 1991 3584 
L 1991 3584 
z
" transform="scale(0.015625)"/>
       <path id="DejaVuSans-6f" d="M 1959 3097 
Q 1497 3097 1228 2736 
Q 959 2375 959 1747 
Q 959 1119 1226 758 
Q 1494 397 1959 397 
Q 2419 397 2687 759 
Q 2956 1122 2956 1747 
Q 2956 2369 2687 2733 
Q 2419 3097 1959 3097 
z
M 1959 3584 
Q 2709 3584 3137 3096 
Q 3566 2609 3566 1747 
Q 3566 888 3137 398 
Q 2709 -91 1959 -91 
Q 1206 -91 779 398 
Q 353 888 353 1747 
Q 353 2609 779 3096 
Q 1206 3584 1959 3584 
z
" transform="scale(0.015625)"/>
       <path id="DejaVuSans-73" d="M 2834 3397 
L 2834 2853 
Q 2591 2978 2328 3040 
Q 2066 3103 1784 3103 
Q 1356 3103 1142 2972 
Q 928 2841 928 2578 
Q 928 2378 1081 2264 
Q 1234 2150 1697 2047 
L 1894 2003 
Q 2506 1872 2764 1633 
Q 3022 1394 3022 966 
Q 3022 478 2636 193 
Q 2250 -91 1575 -91 
Q 1294 -91 989 -36 
Q 684 19 347 128 
L 347 722 
Q 666 556 975 473 
Q 1284 391 1588 391 
Q 1994 391 2212 530 
Q 2431 669 2431 922 
Q 2431 1156 2273 1281 
Q 2116 1406 1581 1522 
L 1381 1569 
Q 847 1681 609 1914 
Q 372 2147 372 2553 
Q 372 3047 722 3315 
Q 1072 3584 1716 3584 
Q 2034 3584 2315 3537 
Q 2597 3491 2834 3397 
z
" transform="scale(0.015625)"/>
       <path id="DejaVuSans-6e" d="M 3513 2113 
L 3513 0 
L 2938 0 
L 2938 2094 
Q 2938 2591 2744 2837 
Q 2550 3084 2163 3084 
Q 1697 3084 1428 2787 
Q 1159 2491 1159 1978 
L 1159 0 
L 581 0 
L 581 3500 
L 1159 3500 
L 1159 2956 
Q 1366 3272 1645 3428 
Q 1925 3584 2291 3584 
Q 2894 3584 3203 3211 
Q 3513 2838 3513 2113 
z
" transform="scale(0.015625)"/>
      </defs>
      <use xlink:href="#DejaVuSans-50"/>
      <use xlink:href="#DejaVuSans-72" x="58.552734"/>
      <use xlink:href="#DejaVuSans-65" x="97.416016"/>
      <use xlink:href="#DejaVuSans-64" x="158.939453"/>
      <use xlink:href="#DejaVuSans-69" x="222.416016"/>
      <use xlink:href="#DejaVuSans-63" x="250.199219"/>
      <use xlink:href="#DejaVuSans-74" x="305.179688"/>
      <use xlink:href="#DejaVuSans-65" x="344.388672"/>
      <use xlink:href="#DejaVuSans-64" x="405.912109"/>
      <use xlink:href="#DejaVuSans-20" x="469.388672"/>
      <use xlink:href="#DejaVuSans-46" x="501.175781"/>
      <use xlink:href="#DejaVuSans-6c" x="558.695312"/>
      <use xlink:href="#DejaVuSans-75" x="586.478516"/>
      <use xlink:href="#DejaVuSans-6f" x="649.857422"/>
      <use xlink:href="#DejaVuSans-72" x="711.039062"/>
      <use xlink:href="#DejaVuSans-65" x="749.902344"/>
      <use xlink:href="#DejaVuSans-73" x="811.425781"/>
      <use xlink:href="#DejaVuSans-63" x="863.525391"/>
      <use xlink:href="#DejaVuSans-65" x="918.505859"/>
      <use xlink:href="#DejaVuSans-6e" x="980.029297"/>
      <use xlink:href="#DejaVuSans-63" x="1043.408203"/>
      <use xlink:href="#DejaVuSans-65" x="1098.388672"/>
     </g>
    </g>
   </g>
   <g id="matplotlib.axis_2">
    <g id="ytick_1">
     <g id="line2d_6">
      <defs>
       <path id="m8f9ab0619a" d="M 0 0 
L -3.5 0 
" style="stroke: #000000; stroke-width: 0.8"/>
      </defs>
      <g>
       <use xlink:href="#m8f9ab0619a" x="57.8" y="389.32" style="stroke: #000000; stroke-width: 0.8"/>
      </g>
     </g>
     <g id="text_7">
      <!-- 0.00 -->
      <g transform="translate(28.534375 393.119219) scale(0.1 -0.1)">
       <defs>
        <path id="DejaVuSans-2e" d="M 684 794 
L 1344 794 
L 1344 0 
L 684 0 
L 684 794 
z
" transform="scale(0.015625)"/>
       </defs>
       <use xlink:href="#DejaVuSans-30"/>
       <use xlink:href="#DejaVuSans-2e" x="63.623047"/>
       <use xlink:href="#DejaVuSans-30" x="95.410156"/>
       <use xlink:href="#DejaVuSans-30" x="159.033203"/>
      </g>
     </g>
    </g>
    <g id="ytick_2">
     <g id="line2d_7">
      <g>
       <use xlink:href="#m8f9ab0619a" x="57.8" y="345.749579" style="stroke: #000000; stroke-width: 0.8"/>
      </g>
     </g>
     <g id="text_8">
      <!-- 0.25 -->
      <g transform="translate(28.534375 349.548798) scale(0.1 -0.1)">
       <defs>
        <path id="DejaVuSans-35" d="M 691 4666 
L 3169 4666 
L 3169 4134 
L 1269 4134 
L 1269 2991 
Q 1406 3038 1543 3061 
Q 1681 3084 1819 3084 
Q 2600 3084 3056 2656 
Q 3513 2228 3513 1497 
Q 3513 744 3044 326 
Q 2575 -91 1722 -91 
Q 1428 -91 1123 -41 
Q 819 9 494 109 
L 494 744 
Q 775 591 1075 516 
Q 1375 441 1709 441 
Q 2250 441 2565 725 
Q 2881 1009 2881 1497 
Q 2881 1984 2565 2268 
Q 2250 2553 1709 2553 
Q 1456 2553 1204 2497 
Q 953 2441 691 2322 
L 691 4666 
z
" transform="scale(0.015625)"/>
       </defs>
       <use xlink:href="#DejaVuSans-30"/>
       <use xlink:href="#DejaVuSans-2e" x="63.623047"/>
       <use xlink:href="#DejaVuSans-32" x="95.410156"/>
       <use xlink:href="#DejaVuSans-35" x="159.033203"/>
      </g>
     </g>
    </g>
    <g id="ytick_3">
     <g id="line2d_8">
      <g>
       <use xlink:href="#m8f9ab0619a" x="57.8" y="302.179158" style="stroke: #000000; stroke-width: 0.8"/>
      </g>
     </g>
     <g id="text_9">
      <!-- 0.50 -->
      <g transform="translate(28.534375 305.978377) scale(0.1 -0.1)">
       <use xlink:href="#DejaVuSans-30"/>
       <use xlink:href="#DejaVuSans-2e" x="63.623047"/>
       <use xlink:href="#DejaVuSans-35" x="95.410156"/>
       <use xlink:href="#DejaVuSans-30" x="159.033203"/>
      </g>
     </g>
    </g>
    <g id="ytick_4">
     <g id="line2d_9">
      <g>
       <use xlink:href="#m8f9ab0619a" x="57.8" y="258.608737" style="stroke: #000000; stroke-width: 0.8"/>
      </g>
     </g>
     <g id="text_10">
      <!-- 0.75 -->
      <g transform="translate(28.534375 262.407956) scale(0.1 -0.1)">
       <defs>
        <path id="DejaVuSans-37" d="M 525 4666 
L 3525 4666 
L 3525 4397 
L 1831 0 
L 1172 0 
L 2766 4134 
L 525 4134 
L 525 4666 
z
" transform="scale(0.015625)"/>
       </defs>
       <use xlink:href="#DejaVuSans-30"/>
       <use xlink:href="#DejaVuSans-2e" x="63.623047"/>
       <use xlink:href="#DejaVuSans-37" x="95.410156"/>
       <use xlink:href="#DejaVuSans-35" x="159.033203"/>
      </g>
     </g>
    </g>
    <g id="ytick_5">
     <g id="line2d_10">
      <g>
       <use xlink:href="#m8f9ab0619a" x="57.8" y="215.038316" style="stroke: #000000; stroke-width: 0.8"/>
      </g>
     </g>
     <g id="text_11">
      <!-- 1.00 -->
      <g transform="translate(28.534375 218.837535) scale(0.1 -0.1)">
       <use xlink:href="#DejaVuSans-31"/>
       <use xlink:href="#DejaVuSans-2e" x="63.623047"/>
       <use xlink:href="#DejaVuSans-30" x="95.410156"/>
       <use xlink:href="#DejaVuSans-30" x="159.033203"/>
      </g>
     </g>
    </g>
    <g id="ytick_6">
     <g id="line2d_11">
      <g>
       <use xlink:href="#m8f9ab0619a" x="57.8" y="171.467895" style="stroke: #000000; stroke-width: 0.8"/>
      </g>
     </g>
     <g id="text_12">
      <!-- 1.25 -->
      <g transform="translate(28.534375 175.267114) scale(0.1 -0.1)">
       <use xlink:href="#DejaVuSans-31"/>
       <use xlink:href="#DejaVuSans-2e" x="63.623047"/>
       <use xlink:href="#DejaVuSans-32" x="95.410156"/>
       <use xlink:href="#DejaVuSans-35" x="159.033203"/>
      </g>
     </g>
    </g>
    <g id="ytick_7">
     <g id="line2d_12">
      <g>
       <use xlink:href="#m8f9ab0619a" x="57.8" y="127.897474" style="stroke: #000000; stroke-width: 0.8"/>
      </g>
     </g>
     <g id="text_13">
      <!-- 1.50 -->
      <g transform="translate(28.534375 131.696693) scale(0.1 -0.1)">
       <use xlink:href="#DejaVuSans-31"/>
       <use xlink:href="#DejaVuSans-2e" x="63.623047"/>
       <use xlink:href="#DejaVuSans-35" x="95.410156"/>
       <use xlink:href="#DejaVuSans-30" x="159.033203"/>
      </g>
     </g>
    </g>
    <g id="ytick_8">
     <g id="line2d_13">
      <g>
       <use xlink:href="#m8f9ab0619a" x="57.8" y="84.327053" style="stroke: #000000; stroke-width: 0.8"/>
      </g>
     </g>
     <g id="text_14">
      <!-- 1.75 -->
      <g transform="translate(28.534375 88.126272) scale(0.1 -0.1)">
       <use xlink:href="#DejaVuSans-31"/>
       <use xlink:href="#DejaVuSans-2e" x="63.623047"/>
       <use xlink:href="#DejaVuSans-37" x="95.410156"/>
       <use xlink:href="#DejaVuSans-35" x="159.033203"/>
      </g>
     </g>
    </g>
    <g id="ytick_9">
     <g id="line2d_14">
      <g>
       <use xlink:href="#m8f9ab0619a" x="57.8" y="40.756632" style="stroke: #000000; stroke-width: 0.8"/>
      </g>
     </g>
     <g id="text_15">
      <!-- 2.00 -->
      <g transform="translate(28.534375 44.555851) scale(0.1 -0.1)">
       <use xlink:href="#DejaVuSans-32"/>
       <use xlink:href="#DejaVuSans-2e" x="63.623047"/>
       <use xlink:href="#DejaVuSans-30" x="95.410156"/>
       <use xlink:href="#DejaVuSans-30" x="159.033203"/>
      </g>
     </g>
    </g>
    <g id="text_16">
     <!-- Density -->
     <g transform="translate(21.622813 226.672031) rotate(-90) scale(0.14 -0.14)">
      <defs>
       <path id="DejaVuSans-44" d="M 1259 4147 
L 1259 519 
L 2022 519 
Q 2988 519 3436 956 
Q 3884 1394 3884 2338 
Q 3884 3275 3436 3711 
Q 2988 4147 2022 4147 
L 1259 4147 
z
M 628 4666 
L 1925 4666 
Q 3281 4666 3915 4102 
Q 4550 3538 4550 2338 
Q 4550 1131 3912 565 
Q 3275 0 1925 0 
L 628 0 
L 628 4666 
z
" transform="scale(0.015625)"/>
       <path id="DejaVuSans-79" d="M 2059 -325 
Q 1816 -950 1584 -1140 
Q 1353 -1331 966 -1331 
L 506 -1331 
L 506 -850 
L 844 -850 
Q 1081 -850 1212 -737 
Q 1344 -625 1503 -206 
L 1606 56 
L 191 3500 
L 800 3500 
L 1894 763 
L 2988 3500 
L 3597 3500 
L 2059 -325 
z
" transform="scale(0.015625)"/>
      </defs>
      <use xlink:href="#DejaVuSans-44"/>
      <use xlink:href="#DejaVuSans-65" x="77.001953"/>
      <use xlink:href="#DejaVuSans-6e" x="138.525391"/>
      <use xlink:href="#DejaVuSans-73" x="201.904297"/>
      <use xlink:href="#DejaVuSans-69" x="254.003906"/>
      <use xlink:href="#DejaVuSans-74" x="281.787109"/>
      <use xlink:href="#DejaVuSans-79" x="320.996094"/>
     </g>
    </g>
   </g>
   <g id="line2d_15">
    <path d="M 360.188218 389.32 
L 360.188218 10.8 
" clip-path="url(#pbe47542799)" style="fill: none; stroke-dasharray: 3.7,1.6; stroke-dashoffset: 0; stroke: #000000"/>
   </g>
   <g id="patch_3">
    <path d="M 57.8 389.32 
L 57.8 10.8 
" style="fill: none; stroke: #000000; stroke-width: 0.8; stroke-linejoin: miter; stroke-linecap: square"/>
   </g>
   <g id="patch_4">
    <path d="M 57.8 389.32 
L 421.2 389.32 
" style="fill: none; stroke: #000000; stroke-width: 0.8; stroke-linejoin: miter; stroke-linecap: square"/>
   </g>
   <g id="legend_1">
    <g id="patch_5">
     <path d="M 64.8 77.5125 
L 221.610938 77.5125 
Q 223.610938 77.5125 223.610938 75.5125 
L 223.610938 17.8 
Q 223.610938 15.8 221.610938 15.8 
L 64.8 15.8 
Q 62.8 15.8 62.8 17.8 
L 62.8 75.5125 
Q 62.8 77.5125 64.8 77.5125 
z
" style="fill: #ffffff; opacity: 0.8; stroke: #cccccc; stroke-linejoin: miter"/>
    </g>
    <g id="patch_6">
     <path d="M 66.8 27.398438 
L 86.8 27.398438 
L 86.8 20.398438 
L 66.8 20.398438 
z
" style="fill: #bdbdbd; fill-opacity: 0.5; stroke: #bdbdbd; stroke-width: 2.5; stroke-linejoin: miter"/>
    </g>
    <g id="text_17">
     <!-- Pre-trained ESM2 (650M) -->
     <g transform="translate(94.8 27.398438) scale(0.1 -0.1)">
      <defs>
       <path id="DejaVuSans-2d" d="M 313 2009 
L 1997 2009 
L 1997 1497 
L 313 1497 
L 313 2009 
z
" transform="scale(0.015625)"/>
       <path id="DejaVuSans-61" d="M 2194 1759 
Q 1497 1759 1228 1600 
Q 959 1441 959 1056 
Q 959 750 1161 570 
Q 1363 391 1709 391 
Q 2188 391 2477 730 
Q 2766 1069 2766 1631 
L 2766 1759 
L 2194 1759 
z
M 3341 1997 
L 3341 0 
L 2766 0 
L 2766 531 
Q 2569 213 2275 61 
Q 1981 -91 1556 -91 
Q 1019 -91 701 211 
Q 384 513 384 1019 
Q 384 1609 779 1909 
Q 1175 2209 1959 2209 
L 2766 2209 
L 2766 2266 
Q 2766 2663 2505 2880 
Q 2244 3097 1772 3097 
Q 1472 3097 1187 3025 
Q 903 2953 641 2809 
L 641 3341 
Q 956 3463 1253 3523 
Q 1550 3584 1831 3584 
Q 2591 3584 2966 3190 
Q 3341 2797 3341 1997 
z
" transform="scale(0.015625)"/>
       <path id="DejaVuSans-45" d="M 628 4666 
L 3578 4666 
L 3578 4134 
L 1259 4134 
L 1259 2753 
L 3481 2753 
L 3481 2222 
L 1259 2222 
L 1259 531 
L 3634 531 
L 3634 0 
L 628 0 
L 628 4666 
z
" transform="scale(0.015625)"/>
       <path id="DejaVuSans-53" d="M 3425 4513 
L 3425 3897 
Q 3066 4069 2747 4153 
Q 2428 4238 2131 4238 
Q 1616 4238 1336 4038 
Q 1056 3838 1056 3469 
Q 1056 3159 1242 3001 
Q 1428 2844 1947 2747 
L 2328 2669 
Q 3034 2534 3370 2195 
Q 3706 1856 3706 1288 
Q 3706 609 3251 259 
Q 2797 -91 1919 -91 
Q 1588 -91 1214 -16 
Q 841 59 441 206 
L 441 856 
Q 825 641 1194 531 
Q 1563 422 1919 422 
Q 2459 422 2753 634 
Q 3047 847 3047 1241 
Q 3047 1584 2836 1778 
Q 2625 1972 2144 2069 
L 1759 2144 
Q 1053 2284 737 2584 
Q 422 2884 422 3419 
Q 422 4038 858 4394 
Q 1294 4750 2059 4750 
Q 2388 4750 2728 4690 
Q 3069 4631 3425 4513 
z
" transform="scale(0.015625)"/>
       <path id="DejaVuSans-4d" d="M 628 4666 
L 1569 4666 
L 2759 1491 
L 3956 4666 
L 4897 4666 
L 4897 0 
L 4281 0 
L 4281 4097 
L 3078 897 
L 2444 897 
L 1241 4097 
L 1241 0 
L 628 0 
L 628 4666 
z
" transform="scale(0.015625)"/>
       <path id="DejaVuSans-28" d="M 1984 4856 
Q 1566 4138 1362 3434 
Q 1159 2731 1159 2009 
Q 1159 1288 1364 580 
Q 1569 -128 1984 -844 
L 1484 -844 
Q 1016 -109 783 600 
Q 550 1309 550 2009 
Q 550 2706 781 3412 
Q 1013 4119 1484 4856 
L 1984 4856 
z
" transform="scale(0.015625)"/>
       <path id="DejaVuSans-36" d="M 2113 2584 
Q 1688 2584 1439 2293 
Q 1191 2003 1191 1497 
Q 1191 994 1439 701 
Q 1688 409 2113 409 
Q 2538 409 2786 701 
Q 3034 994 3034 1497 
Q 3034 2003 2786 2293 
Q 2538 2584 2113 2584 
z
M 3366 4563 
L 3366 3988 
Q 3128 4100 2886 4159 
Q 2644 4219 2406 4219 
Q 1781 4219 1451 3797 
Q 1122 3375 1075 2522 
Q 1259 2794 1537 2939 
Q 1816 3084 2150 3084 
Q 2853 3084 3261 2657 
Q 3669 2231 3669 1497 
Q 3669 778 3244 343 
Q 2819 -91 2113 -91 
Q 1303 -91 875 529 
Q 447 1150 447 2328 
Q 447 3434 972 4092 
Q 1497 4750 2381 4750 
Q 2619 4750 2861 4703 
Q 3103 4656 3366 4563 
z
" transform="scale(0.015625)"/>
       <path id="DejaVuSans-29" d="M 513 4856 
L 1013 4856 
Q 1481 4119 1714 3412 
Q 1947 2706 1947 2009 
Q 1947 1309 1714 600 
Q 1481 -109 1013 -844 
L 513 -844 
Q 928 -128 1133 580 
Q 1338 1288 1338 2009 
Q 1338 2731 1133 3434 
Q 928 4138 513 4856 
z
" transform="scale(0.015625)"/>
      </defs>
      <use xlink:href="#DejaVuSans-50"/>
      <use xlink:href="#DejaVuSans-72" x="58.552734"/>
      <use xlink:href="#DejaVuSans-65" x="97.416016"/>
      <use xlink:href="#DejaVuSans-2d" x="158.939453"/>
      <use xlink:href="#DejaVuSans-74" x="195.023438"/>
      <use xlink:href="#DejaVuSans-72" x="234.232422"/>
      <use xlink:href="#DejaVuSans-61" x="275.345703"/>
      <use xlink:href="#DejaVuSans-69" x="336.625"/>
      <use xlink:href="#DejaVuSans-6e" x="364.408203"/>
      <use xlink:href="#DejaVuSans-65" x="427.787109"/>
      <use xlink:href="#DejaVuSans-64" x="489.310547"/>
      <use xlink:href="#DejaVuSans-20" x="552.787109"/>
      <use xlink:href="#DejaVuSans-45" x="584.574219"/>
      <use xlink:href="#DejaVuSans-53" x="647.757812"/>
      <use xlink:href="#DejaVuSans-4d" x="711.234375"/>
      <use xlink:href="#DejaVuSans-32" x="797.513672"/>
      <use xlink:href="#DejaVuSans-20" x="861.136719"/>
      <use xlink:href="#DejaVuSans-28" x="892.923828"/>
      <use xlink:href="#DejaVuSans-36" x="931.9375"/>
      <use xlink:href="#DejaVuSans-35" x="995.560547"/>
      <use xlink:href="#DejaVuSans-30" x="1059.183594"/>
      <use xlink:href="#DejaVuSans-4d" x="1122.806641"/>
      <use xlink:href="#DejaVuSans-29" x="1209.085938"/>
     </g>
    </g>
    <g id="patch_7">
     <path d="M 66.8 42.076563 
L 86.8 42.076563 
L 86.8 35.076563 
L 66.8 35.076563 
z
" style="fill: #92c5de; fill-opacity: 0.5; stroke: #92c5de; stroke-width: 2.5; stroke-linejoin: miter"/>
    </g>
    <g id="text_18">
     <!-- SFT ESM2 (650M) -->
     <g transform="translate(94.8 42.076563) scale(0.1 -0.1)">
      <defs>
       <path id="DejaVuSans-54" d="M -19 4666 
L 3928 4666 
L 3928 4134 
L 2272 4134 
L 2272 0 
L 1638 0 
L 1638 4134 
L -19 4134 
L -19 4666 
z
" transform="scale(0.015625)"/>
      </defs>
      <use xlink:href="#DejaVuSans-53"/>
      <use xlink:href="#DejaVuSans-46" x="63.476562"/>
      <use xlink:href="#DejaVuSans-54" x="119.246094"/>
      <use xlink:href="#DejaVuSans-20" x="180.330078"/>
      <use xlink:href="#DejaVuSans-45" x="212.117188"/>
      <use xlink:href="#DejaVuSans-53" x="275.300781"/>
      <use xlink:href="#DejaVuSans-4d" x="338.777344"/>
      <use xlink:href="#DejaVuSans-32" x="425.056641"/>
      <use xlink:href="#DejaVuSans-20" x="488.679688"/>
      <use xlink:href="#DejaVuSans-28" x="520.466797"/>
      <use xlink:href="#DejaVuSans-36" x="559.480469"/>
      <use xlink:href="#DejaVuSans-35" x="623.103516"/>
      <use xlink:href="#DejaVuSans-30" x="686.726562"/>
      <use xlink:href="#DejaVuSans-4d" x="750.349609"/>
      <use xlink:href="#DejaVuSans-29" x="836.628906"/>
     </g>
    </g>
    <g id="patch_8">
     <path d="M 66.8 56.754687 
L 86.8 56.754687 
L 86.8 49.754687 
L 66.8 49.754687 
z
" style="fill: #2166ac; fill-opacity: 0.5; stroke: #2166ac; stroke-width: 2.5; stroke-linejoin: miter"/>
    </g>
    <g id="text_19">
     <!-- Aligned ESM2 (650M) -->
     <g transform="translate(94.8 56.754687) scale(0.1 -0.1)">
      <defs>
       <path id="DejaVuSans-41" d="M 2188 4044 
L 1331 1722 
L 3047 1722 
L 2188 4044 
z
M 1831 4666 
L 2547 4666 
L 4325 0 
L 3669 0 
L 3244 1197 
L 1141 1197 
L 716 0 
L 50 0 
L 1831 4666 
z
" transform="scale(0.015625)"/>
       <path id="DejaVuSans-67" d="M 2906 1791 
Q 2906 2416 2648 2759 
Q 2391 3103 1925 3103 
Q 1463 3103 1205 2759 
Q 947 2416 947 1791 
Q 947 1169 1205 825 
Q 1463 481 1925 481 
Q 2391 481 2648 825 
Q 2906 1169 2906 1791 
z
M 3481 434 
Q 3481 -459 3084 -895 
Q 2688 -1331 1869 -1331 
Q 1566 -1331 1297 -1286 
Q 1028 -1241 775 -1147 
L 775 -588 
Q 1028 -725 1275 -790 
Q 1522 -856 1778 -856 
Q 2344 -856 2625 -561 
Q 2906 -266 2906 331 
L 2906 616 
Q 2728 306 2450 153 
Q 2172 0 1784 0 
Q 1141 0 747 490 
Q 353 981 353 1791 
Q 353 2603 747 3093 
Q 1141 3584 1784 3584 
Q 2172 3584 2450 3431 
Q 2728 3278 2906 2969 
L 2906 3500 
L 3481 3500 
L 3481 434 
z
" transform="scale(0.015625)"/>
      </defs>
      <use xlink:href="#DejaVuSans-41"/>
      <use xlink:href="#DejaVuSans-6c" x="68.408203"/>
      <use xlink:href="#DejaVuSans-69" x="96.191406"/>
      <use xlink:href="#DejaVuSans-67" x="123.974609"/>
      <use xlink:href="#DejaVuSans-6e" x="187.451172"/>
      <use xlink:href="#DejaVuSans-65" x="250.830078"/>
      <use xlink:href="#DejaVuSans-64" x="312.353516"/>
      <use xlink:href="#DejaVuSans-20" x="375.830078"/>
      <use xlink:href="#DejaVuSans-45" x="407.617188"/>
      <use xlink:href="#DejaVuSans-53" x="470.800781"/>
      <use xlink:href="#DejaVuSans-4d" x="534.277344"/>
      <use xlink:href="#DejaVuSans-32" x="620.556641"/>
      <use xlink:href="#DejaVuSans-20" x="684.179688"/>
      <use xlink:href="#DejaVuSans-28" x="715.966797"/>
      <use xlink:href="#DejaVuSans-36" x="754.980469"/>
      <use xlink:href="#DejaVuSans-35" x="818.603516"/>
      <use xlink:href="#DejaVuSans-30" x="882.226562"/>
      <use xlink:href="#DejaVuSans-4d" x="945.849609"/>
      <use xlink:href="#DejaVuSans-29" x="1032.128906"/>
     </g>
    </g>
    <g id="line2d_16">
     <path d="M 66.8 67.932813 
L 76.8 67.932813 
L 86.8 67.932813 
" style="fill: none; stroke-dasharray: 3.7,1.6; stroke-dashoffset: 0; stroke: #000000"/>
    </g>
    <g id="text_20">
     <!-- Predicted avGFP score -->
     <g transform="translate(94.8 71.432813) scale(0.1 -0.1)">
      <defs>
       <path id="DejaVuSans-76" d="M 191 3500 
L 800 3500 
L 1894 563 
L 2988 3500 
L 3597 3500 
L 2284 0 
L 1503 0 
L 191 3500 
z
" transform="scale(0.015625)"/>
       <path id="DejaVuSans-47" d="M 3809 666 
L 3809 1919 
L 2778 1919 
L 2778 2438 
L 4434 2438 
L 4434 434 
Q 4069 175 3628 42 
Q 3188 -91 2688 -91 
Q 1594 -91 976 548 
Q 359 1188 359 2328 
Q 359 3472 976 4111 
Q 1594 4750 2688 4750 
Q 3144 4750 3555 4637 
Q 3966 4525 4313 4306 
L 4313 3634 
Q 3963 3931 3569 4081 
Q 3175 4231 2741 4231 
Q 1884 4231 1454 3753 
Q 1025 3275 1025 2328 
Q 1025 1384 1454 906 
Q 1884 428 2741 428 
Q 3075 428 3337 486 
Q 3600 544 3809 666 
z
" transform="scale(0.015625)"/>
      </defs>
      <use xlink:href="#DejaVuSans-50"/>
      <use xlink:href="#DejaVuSans-72" x="58.552734"/>
      <use xlink:href="#DejaVuSans-65" x="97.416016"/>
      <use xlink:href="#DejaVuSans-64" x="158.939453"/>
      <use xlink:href="#DejaVuSans-69" x="222.416016"/>
      <use xlink:href="#DejaVuSans-63" x="250.199219"/>
      <use xlink:href="#DejaVuSans-74" x="305.179688"/>
      <use xlink:href="#DejaVuSans-65" x="344.388672"/>
      <use xlink:href="#DejaVuSans-64" x="405.912109"/>
      <use xlink:href="#DejaVuSans-20" x="469.388672"/>
      <use xlink:href="#DejaVuSans-61" x="501.175781"/>
      <use xlink:href="#DejaVuSans-76" x="562.455078"/>
      <use xlink:href="#DejaVuSans-47" x="621.634766"/>
      <use xlink:href="#DejaVuSans-46" x="699.125"/>
      <use xlink:href="#DejaVuSans-50" x="756.644531"/>
      <use xlink:href="#DejaVuSans-20" x="816.947266"/>
      <use xlink:href="#DejaVuSans-73" x="848.734375"/>
      <use xlink:href="#DejaVuSans-63" x="900.833984"/>
      <use xlink:href="#DejaVuSans-6f" x="955.814453"/>
      <use xlink:href="#DejaVuSans-72" x="1016.996094"/>
      <use xlink:href="#DejaVuSans-65" x="1055.859375"/>
     </g>
    </g>
   </g>
  </g>
 </g>
 <defs>
  <clipPath id="pbe47542799">
   <rect x="57.8" y="10.8" width="363.4" height="378.52"/>
  </clipPath>
 </defs>
</svg>
