<?xml version="1.0" encoding="utf-8" standalone="no"?>
<!DOCTYPE svg PUBLIC "-//W3C//DTD SVG 1.1//EN"
  "http://www.w3.org/Graphics/SVG/1.1/DTD/svg11.dtd">
<svg xmlns:xlink="http://www.w3.org/1999/xlink" width="864pt" height="432pt" viewBox="0 0 864 432" xmlns="http://www.w3.org/2000/svg" version="1.1">
 <metadata>
  <rdf:RDF xmlns:dc="http://purl.org/dc/elements/1.1/" xmlns:cc="http://creativecommons.org/ns#" xmlns:rdf="http://www.w3.org/1999/02/22-rdf-syntax-ns#">
   <cc:Work>
    <dc:type rdf:resource="http://purl.org/dc/dcmitype/StillImage"/>
    <dc:date>2024-12-10T16:03:19.333847</dc:date>
    <dc:format>image/svg+xml</dc:format>
    <dc:creator>
     <cc:Agent>
      <dc:title>Matplotlib v3.8.0, https://matplotlib.org/</dc:title>
     </cc:Agent>
    </dc:creator>
   </cc:Work>
  </rdf:RDF>
 </metadata>
 <defs>
  <style type="text/css">*{stroke-linejoin: round; stroke-linecap: butt}</style>
 </defs>
 <g id="figure_1">
  <g id="patch_1">
   <path d="M 0 432 
L 864 432 
L 864 0 
L 0 0 
z
" style="fill: #ffffff"/>
  </g>
  <g id="axes_1">
   <g id="patch_2">
    <path d="M 45.38 389.32 
L 425.025 389.32 
L 425.025 14.76 
L 45.38 14.76 
z
" style="fill: #ffffff"/>
   </g>
   <g id="patch_3">
    <path d="M 77.079549 389.32 
L 77.079549 14.76 
L 207.714079 14.76 
L 207.714079 389.32 
z
" clip-path="url(#padb792dbdf)" style="fill: #ff0000; opacity: 0.1; stroke: #ff0000; stroke-linejoin: miter"/>
   </g>
   <g id="patch_4">
    <path d="M 207.714079 389.32 
L 207.714079 14.76 
L 252.459091 14.76 
L 252.459091 389.32 
z
" clip-path="url(#padb792dbdf)" style="fill: #008000; opacity: 0.1; stroke: #008000; stroke-linejoin: miter"/>
   </g>
   <g id="patch_5">
    <path d="M 94.33614 389.32 
L 99.632758 389.32 
L 99.632758 388.390224 
L 94.33614 388.390224 
z
" clip-path="url(#padb792dbdf)" style="fill: #808080; fill-opacity: 0.4; stroke: #000000; stroke-linejoin: miter"/>
   </g>
   <g id="patch_6">
    <path d="M 99.632758 389.32 
L 104.929375 389.32 
L 104.929375 389.32 
L 99.632758 389.32 
z
" clip-path="url(#padb792dbdf)" style="fill: #808080; fill-opacity: 0.4; stroke: #000000; stroke-linejoin: miter"/>
   </g>
   <g id="patch_7">
    <path d="M 104.929375 389.32 
L 110.225993 389.32 
L 110.225993 389.32 
L 104.929375 389.32 
z
" clip-path="url(#padb792dbdf)" style="fill: #808080; fill-opacity: 0.4; stroke: #000000; stroke-linejoin: miter"/>
   </g>
   <g id="patch_8">
    <path d="M 110.225993 389.32 
L 115.522611 389.32 
L 115.522611 389.32 
L 110.225993 389.32 
z
" clip-path="url(#padb792dbdf)" style="fill: #808080; fill-opacity: 0.4; stroke: #000000; stroke-linejoin: miter"/>
   </g>
   <g id="patch_9">
    <path d="M 115.522611 389.32 
L 120.819228 389.32 
L 120.819228 389.32 
L 115.522611 389.32 
z
" clip-path="url(#padb792dbdf)" style="fill: #808080; fill-opacity: 0.4; stroke: #000000; stroke-linejoin: miter"/>
   </g>
   <g id="patch_10">
    <path d="M 120.819228 389.32 
L 126.115846 389.32 
L 126.115846 387.460447 
L 120.819228 387.460447 
z
" clip-path="url(#padb792dbdf)" style="fill: #808080; fill-opacity: 0.4; stroke: #000000; stroke-linejoin: miter"/>
   </g>
   <g id="patch_11">
    <path d="M 126.115846 389.32 
L 131.412463 389.32 
L 131.412463 385.600895 
L 126.115846 385.600895 
z
" clip-path="url(#padb792dbdf)" style="fill: #808080; fill-opacity: 0.4; stroke: #000000; stroke-linejoin: miter"/>
   </g>
   <g id="patch_12">
    <path d="M 131.412463 389.32 
L 136.709081 389.32 
L 136.709081 387.460447 
L 131.412463 387.460447 
z
" clip-path="url(#padb792dbdf)" style="fill: #808080; fill-opacity: 0.4; stroke: #000000; stroke-linejoin: miter"/>
   </g>
   <g id="patch_13">
    <path d="M 136.709081 389.32 
L 142.005698 389.32 
L 142.005698 384.671119 
L 136.709081 384.671119 
z
" clip-path="url(#padb792dbdf)" style="fill: #808080; fill-opacity: 0.4; stroke: #000000; stroke-linejoin: miter"/>
   </g>
   <g id="patch_14">
    <path d="M 142.005698 389.32 
L 147.302316 389.32 
L 147.302316 383.741342 
L 142.005698 383.741342 
z
" clip-path="url(#padb792dbdf)" style="fill: #808080; fill-opacity: 0.4; stroke: #000000; stroke-linejoin: miter"/>
   </g>
   <g id="patch_15">
    <path d="M 147.302316 389.32 
L 152.598934 389.32 
L 152.598934 385.600895 
L 147.302316 385.600895 
z
" clip-path="url(#padb792dbdf)" style="fill: #808080; fill-opacity: 0.4; stroke: #000000; stroke-linejoin: miter"/>
   </g>
   <g id="patch_16">
    <path d="M 152.598934 389.32 
L 157.895551 389.32 
L 157.895551 367.935145 
L 152.598934 367.935145 
z
" clip-path="url(#padb792dbdf)" style="fill: #808080; fill-opacity: 0.4; stroke: #000000; stroke-linejoin: miter"/>
   </g>
   <g id="patch_17">
    <path d="M 157.895551 389.32 
L 163.192169 389.32 
L 163.192169 370.724474 
L 157.895551 370.724474 
z
" clip-path="url(#padb792dbdf)" style="fill: #808080; fill-opacity: 0.4; stroke: #000000; stroke-linejoin: miter"/>
   </g>
   <g id="patch_18">
    <path d="M 163.192169 389.32 
L 168.488786 389.32 
L 168.488786 357.707606 
L 163.192169 357.707606 
z
" clip-path="url(#padb792dbdf)" style="fill: #808080; fill-opacity: 0.4; stroke: #000000; stroke-linejoin: miter"/>
   </g>
   <g id="patch_19">
    <path d="M 168.488786 389.32 
L 173.785404 389.32 
L 173.785404 351.199172 
L 168.488786 351.199172 
z
" clip-path="url(#padb792dbdf)" style="fill: #808080; fill-opacity: 0.4; stroke: #000000; stroke-linejoin: miter"/>
   </g>
   <g id="patch_20">
    <path d="M 173.785404 389.32 
L 179.082022 389.32 
L 179.082022 324.235659 
L 173.785404 324.235659 
z
" clip-path="url(#padb792dbdf)" style="fill: #808080; fill-opacity: 0.4; stroke: #000000; stroke-linejoin: miter"/>
   </g>
   <g id="patch_21">
    <path d="M 179.082022 389.32 
L 184.378639 389.32 
L 184.378639 299.131699 
L 179.082022 299.131699 
z
" clip-path="url(#padb792dbdf)" style="fill: #808080; fill-opacity: 0.4; stroke: #000000; stroke-linejoin: miter"/>
   </g>
   <g id="patch_22">
    <path d="M 184.378639 389.32 
L 189.675257 389.32 
L 189.675257 263.8002 
L 184.378639 263.8002 
z
" clip-path="url(#padb792dbdf)" style="fill: #808080; fill-opacity: 0.4; stroke: #000000; stroke-linejoin: miter"/>
   </g>
   <g id="patch_23">
    <path d="M 189.675257 389.32 
L 194.971874 389.32 
L 194.971874 247.064227 
L 189.675257 247.064227 
z
" clip-path="url(#padb792dbdf)" style="fill: #808080; fill-opacity: 0.4; stroke: #000000; stroke-linejoin: miter"/>
   </g>
   <g id="patch_24">
    <path d="M 194.971874 389.32 
L 200.268492 389.32 
L 200.268492 242.415345 
L 194.971874 242.415345 
z
" clip-path="url(#padb792dbdf)" style="fill: #808080; fill-opacity: 0.4; stroke: #000000; stroke-linejoin: miter"/>
   </g>
   <g id="patch_25">
    <path d="M 200.268492 389.32 
L 205.56511 389.32 
L 205.56511 241.485569 
L 200.268492 241.485569 
z
" clip-path="url(#padb792dbdf)" style="fill: #808080; fill-opacity: 0.4; stroke: #000000; stroke-linejoin: miter"/>
   </g>
   <g id="patch_26">
    <path d="M 205.56511 389.32 
L 210.861727 389.32 
L 210.861727 326.095212 
L 205.56511 326.095212 
z
" clip-path="url(#padb792dbdf)" style="fill: #808080; fill-opacity: 0.4; stroke: #000000; stroke-linejoin: miter"/>
   </g>
   <g id="patch_27">
    <path d="M 210.861727 389.32 
L 216.158345 389.32 
L 216.158345 377.232908 
L 210.861727 377.232908 
z
" clip-path="url(#padb792dbdf)" style="fill: #808080; fill-opacity: 0.4; stroke: #000000; stroke-linejoin: miter"/>
   </g>
   <g id="patch_28">
    <path d="M 216.158345 389.32 
L 221.454962 389.32 
L 221.454962 386.530671 
L 216.158345 386.530671 
z
" clip-path="url(#padb792dbdf)" style="fill: #808080; fill-opacity: 0.4; stroke: #000000; stroke-linejoin: miter"/>
   </g>
   <g id="patch_29">
    <path d="M 221.454962 389.32 
L 226.75158 389.32 
L 226.75158 387.460447 
L 221.454962 387.460447 
z
" clip-path="url(#padb792dbdf)" style="fill: #808080; fill-opacity: 0.4; stroke: #000000; stroke-linejoin: miter"/>
   </g>
   <g id="patch_30">
    <path d="M 62.636591 389.32 
L 76.441864 389.32 
L 76.441864 389.32 
L 62.636591 389.32 
z
" clip-path="url(#padb792dbdf)" style="fill: #ffa500; fill-opacity: 0.6; stroke: #000000; stroke-linejoin: miter"/>
   </g>
   <g id="patch_31">
    <path d="M 76.441864 389.32 
L 90.247136 389.32 
L 90.247136 389.32 
L 76.441864 389.32 
z
" clip-path="url(#padb792dbdf)" style="fill: #ffa500; fill-opacity: 0.6; stroke: #000000; stroke-linejoin: miter"/>
   </g>
   <g id="patch_32">
    <path d="M 90.247136 389.32 
L 104.052409 389.32 
L 104.052409 389.32 
L 90.247136 389.32 
z
" clip-path="url(#padb792dbdf)" style="fill: #ffa500; fill-opacity: 0.6; stroke: #000000; stroke-linejoin: miter"/>
   </g>
   <g id="patch_33">
    <path d="M 104.052409 389.32 
L 117.857682 389.32 
L 117.857682 389.32 
L 104.052409 389.32 
z
" clip-path="url(#padb792dbdf)" style="fill: #ffa500; fill-opacity: 0.6; stroke: #000000; stroke-linejoin: miter"/>
   </g>
   <g id="patch_34">
    <path d="M 117.857682 389.32 
L 131.662955 389.32 
L 131.662955 389.32 
L 117.857682 389.32 
z
" clip-path="url(#padb792dbdf)" style="fill: #ffa500; fill-opacity: 0.6; stroke: #000000; stroke-linejoin: miter"/>
   </g>
   <g id="patch_35">
    <path d="M 131.662955 389.32 
L 145.468227 389.32 
L 145.468227 389.32 
L 131.662955 389.32 
z
" clip-path="url(#padb792dbdf)" style="fill: #ffa500; fill-opacity: 0.6; stroke: #000000; stroke-linejoin: miter"/>
   </g>
   <g id="patch_36">
    <path d="M 145.468227 389.32 
L 159.2735 389.32 
L 159.2735 389.32 
L 145.468227 389.32 
z
" clip-path="url(#padb792dbdf)" style="fill: #ffa500; fill-opacity: 0.6; stroke: #000000; stroke-linejoin: miter"/>
   </g>
   <g id="patch_37">
    <path d="M 159.2735 389.32 
L 173.078773 389.32 
L 173.078773 389.32 
L 159.2735 389.32 
z
" clip-path="url(#padb792dbdf)" style="fill: #ffa500; fill-opacity: 0.6; stroke: #000000; stroke-linejoin: miter"/>
   </g>
   <g id="patch_38">
    <path d="M 173.078773 389.32 
L 186.884045 389.32 
L 186.884045 389.32 
L 173.078773 389.32 
z
" clip-path="url(#padb792dbdf)" style="fill: #ffa500; fill-opacity: 0.6; stroke: #000000; stroke-linejoin: miter"/>
   </g>
   <g id="patch_39">
    <path d="M 186.884045 389.32 
L 200.689318 389.32 
L 200.689318 389.32 
L 186.884045 389.32 
z
" clip-path="url(#padb792dbdf)" style="fill: #ffa500; fill-opacity: 0.6; stroke: #000000; stroke-linejoin: miter"/>
   </g>
   <g id="patch_40">
    <path d="M 200.689318 389.32 
L 214.494591 389.32 
L 214.494591 389.32 
L 200.689318 389.32 
z
" clip-path="url(#padb792dbdf)" style="fill: #ffa500; fill-opacity: 0.6; stroke: #000000; stroke-linejoin: miter"/>
   </g>
   <g id="patch_41">
    <path d="M 214.494591 389.32 
L 228.299864 389.32 
L 228.299864 389.32 
L 214.494591 389.32 
z
" clip-path="url(#padb792dbdf)" style="fill: #ffa500; fill-opacity: 0.6; stroke: #000000; stroke-linejoin: miter"/>
   </g>
   <g id="patch_42">
    <path d="M 228.299864 389.32 
L 242.105136 389.32 
L 242.105136 32.59619 
L 228.299864 32.59619 
z
" clip-path="url(#padb792dbdf)" style="fill: #ffa500; fill-opacity: 0.6; stroke: #000000; stroke-linejoin: miter"/>
   </g>
   <g id="patch_43">
    <path d="M 242.105136 389.32 
L 255.910409 389.32 
L 255.910409 389.32 
L 242.105136 389.32 
z
" clip-path="url(#padb792dbdf)" style="fill: #ffa500; fill-opacity: 0.6; stroke: #000000; stroke-linejoin: miter"/>
   </g>
   <g id="patch_44">
    <path d="M 255.910409 389.32 
L 269.715682 389.32 
L 269.715682 389.32 
L 255.910409 389.32 
z
" clip-path="url(#padb792dbdf)" style="fill: #ffa500; fill-opacity: 0.6; stroke: #000000; stroke-linejoin: miter"/>
   </g>
   <g id="patch_45">
    <path d="M 269.715682 389.32 
L 283.520955 389.32 
L 283.520955 389.32 
L 269.715682 389.32 
z
" clip-path="url(#padb792dbdf)" style="fill: #ffa500; fill-opacity: 0.6; stroke: #000000; stroke-linejoin: miter"/>
   </g>
   <g id="patch_46">
    <path d="M 283.520955 389.32 
L 297.326227 389.32 
L 297.326227 389.32 
L 283.520955 389.32 
z
" clip-path="url(#padb792dbdf)" style="fill: #ffa500; fill-opacity: 0.6; stroke: #000000; stroke-linejoin: miter"/>
   </g>
   <g id="patch_47">
    <path d="M 297.326227 389.32 
L 311.1315 389.32 
L 311.1315 389.32 
L 297.326227 389.32 
z
" clip-path="url(#padb792dbdf)" style="fill: #ffa500; fill-opacity: 0.6; stroke: #000000; stroke-linejoin: miter"/>
   </g>
   <g id="patch_48">
    <path d="M 311.1315 389.32 
L 324.936773 389.32 
L 324.936773 389.32 
L 311.1315 389.32 
z
" clip-path="url(#padb792dbdf)" style="fill: #ffa500; fill-opacity: 0.6; stroke: #000000; stroke-linejoin: miter"/>
   </g>
   <g id="patch_49">
    <path d="M 324.936773 389.32 
L 338.742045 389.32 
L 338.742045 389.32 
L 324.936773 389.32 
z
" clip-path="url(#padb792dbdf)" style="fill: #ffa500; fill-opacity: 0.6; stroke: #000000; stroke-linejoin: miter"/>
   </g>
   <g id="patch_50">
    <path d="M 338.742045 389.32 
L 352.547318 389.32 
L 352.547318 389.32 
L 338.742045 389.32 
z
" clip-path="url(#padb792dbdf)" style="fill: #ffa500; fill-opacity: 0.6; stroke: #000000; stroke-linejoin: miter"/>
   </g>
   <g id="patch_51">
    <path d="M 352.547318 389.32 
L 366.352591 389.32 
L 366.352591 389.32 
L 352.547318 389.32 
z
" clip-path="url(#padb792dbdf)" style="fill: #ffa500; fill-opacity: 0.6; stroke: #000000; stroke-linejoin: miter"/>
   </g>
   <g id="patch_52">
    <path d="M 366.352591 389.32 
L 380.157864 389.32 
L 380.157864 389.32 
L 366.352591 389.32 
z
" clip-path="url(#padb792dbdf)" style="fill: #ffa500; fill-opacity: 0.6; stroke: #000000; stroke-linejoin: miter"/>
   </g>
   <g id="patch_53">
    <path d="M 380.157864 389.32 
L 393.963136 389.32 
L 393.963136 389.32 
L 380.157864 389.32 
z
" clip-path="url(#padb792dbdf)" style="fill: #ffa500; fill-opacity: 0.6; stroke: #000000; stroke-linejoin: miter"/>
   </g>
   <g id="patch_54">
    <path d="M 393.963136 389.32 
L 407.768409 389.32 
L 407.768409 389.32 
L 393.963136 389.32 
z
" clip-path="url(#padb792dbdf)" style="fill: #ffa500; fill-opacity: 0.6; stroke: #000000; stroke-linejoin: miter"/>
   </g>
   <g id="patch_55">
    <path d="M 62.636591 389.32 
L 76.441864 389.32 
L 76.441864 389.32 
L 62.636591 389.32 
z
" clip-path="url(#padb792dbdf)" style="fill: #0000ff; fill-opacity: 0.6; stroke: #000000; stroke-linejoin: miter"/>
   </g>
   <g id="patch_56">
    <path d="M 76.441864 389.32 
L 90.247136 389.32 
L 90.247136 389.32 
L 76.441864 389.32 
z
" clip-path="url(#padb792dbdf)" style="fill: #0000ff; fill-opacity: 0.6; stroke: #000000; stroke-linejoin: miter"/>
   </g>
   <g id="patch_57">
    <path d="M 90.247136 389.32 
L 104.052409 389.32 
L 104.052409 389.32 
L 90.247136 389.32 
z
" clip-path="url(#padb792dbdf)" style="fill: #0000ff; fill-opacity: 0.6; stroke: #000000; stroke-linejoin: miter"/>
   </g>
   <g id="patch_58">
    <path d="M 104.052409 389.32 
L 117.857682 389.32 
L 117.857682 389.32 
L 104.052409 389.32 
z
" clip-path="url(#padb792dbdf)" style="fill: #0000ff; fill-opacity: 0.6; stroke: #000000; stroke-linejoin: miter"/>
   </g>
   <g id="patch_59">
    <path d="M 117.857682 389.32 
L 131.662955 389.32 
L 131.662955 389.32 
L 117.857682 389.32 
z
" clip-path="url(#padb792dbdf)" style="fill: #0000ff; fill-opacity: 0.6; stroke: #000000; stroke-linejoin: miter"/>
   </g>
   <g id="patch_60">
    <path d="M 131.662955 389.32 
L 145.468227 389.32 
L 145.468227 389.32 
L 131.662955 389.32 
z
" clip-path="url(#padb792dbdf)" style="fill: #0000ff; fill-opacity: 0.6; stroke: #000000; stroke-linejoin: miter"/>
   </g>
   <g id="patch_61">
    <path d="M 145.468227 389.32 
L 159.2735 389.32 
L 159.2735 389.32 
L 145.468227 389.32 
z
" clip-path="url(#padb792dbdf)" style="fill: #0000ff; fill-opacity: 0.6; stroke: #000000; stroke-linejoin: miter"/>
   </g>
   <g id="patch_62">
    <path d="M 159.2735 389.32 
L 173.078773 389.32 
L 173.078773 389.32 
L 159.2735 389.32 
z
" clip-path="url(#padb792dbdf)" style="fill: #0000ff; fill-opacity: 0.6; stroke: #000000; stroke-linejoin: miter"/>
   </g>
   <g id="patch_63">
    <path d="M 173.078773 389.32 
L 186.884045 389.32 
L 186.884045 389.32 
L 173.078773 389.32 
z
" clip-path="url(#padb792dbdf)" style="fill: #0000ff; fill-opacity: 0.6; stroke: #000000; stroke-linejoin: miter"/>
   </g>
   <g id="patch_64">
    <path d="M 186.884045 389.32 
L 200.689318 389.32 
L 200.689318 389.32 
L 186.884045 389.32 
z
" clip-path="url(#padb792dbdf)" style="fill: #0000ff; fill-opacity: 0.6; stroke: #000000; stroke-linejoin: miter"/>
   </g>
   <g id="patch_65">
    <path d="M 200.689318 389.32 
L 214.494591 389.32 
L 214.494591 389.32 
L 200.689318 389.32 
z
" clip-path="url(#padb792dbdf)" style="fill: #0000ff; fill-opacity: 0.6; stroke: #000000; stroke-linejoin: miter"/>
   </g>
   <g id="patch_66">
    <path d="M 214.494591 389.32 
L 228.299864 389.32 
L 228.299864 389.32 
L 214.494591 389.32 
z
" clip-path="url(#padb792dbdf)" style="fill: #0000ff; fill-opacity: 0.6; stroke: #000000; stroke-linejoin: miter"/>
   </g>
   <g id="patch_67">
    <path d="M 228.299864 389.32 
L 242.105136 389.32 
L 242.105136 32.59619 
L 228.299864 32.59619 
z
" clip-path="url(#padb792dbdf)" style="fill: #0000ff; fill-opacity: 0.6; stroke: #000000; stroke-linejoin: miter"/>
   </g>
   <g id="patch_68">
    <path d="M 242.105136 389.32 
L 255.910409 389.32 
L 255.910409 389.32 
L 242.105136 389.32 
z
" clip-path="url(#padb792dbdf)" style="fill: #0000ff; fill-opacity: 0.6; stroke: #000000; stroke-linejoin: miter"/>
   </g>
   <g id="patch_69">
    <path d="M 255.910409 389.32 
L 269.715682 389.32 
L 269.715682 389.32 
L 255.910409 389.32 
z
" clip-path="url(#padb792dbdf)" style="fill: #0000ff; fill-opacity: 0.6; stroke: #000000; stroke-linejoin: miter"/>
   </g>
   <g id="patch_70">
    <path d="M 269.715682 389.32 
L 283.520955 389.32 
L 283.520955 389.32 
L 269.715682 389.32 
z
" clip-path="url(#padb792dbdf)" style="fill: #0000ff; fill-opacity: 0.6; stroke: #000000; stroke-linejoin: miter"/>
   </g>
   <g id="patch_71">
    <path d="M 283.520955 389.32 
L 297.326227 389.32 
L 297.326227 389.32 
L 283.520955 389.32 
z
" clip-path="url(#padb792dbdf)" style="fill: #0000ff; fill-opacity: 0.6; stroke: #000000; stroke-linejoin: miter"/>
   </g>
   <g id="patch_72">
    <path d="M 297.326227 389.32 
L 311.1315 389.32 
L 311.1315 389.32 
L 297.326227 389.32 
z
" clip-path="url(#padb792dbdf)" style="fill: #0000ff; fill-opacity: 0.6; stroke: #000000; stroke-linejoin: miter"/>
   </g>
   <g id="patch_73">
    <path d="M 311.1315 389.32 
L 324.936773 389.32 
L 324.936773 389.32 
L 311.1315 389.32 
z
" clip-path="url(#padb792dbdf)" style="fill: #0000ff; fill-opacity: 0.6; stroke: #000000; stroke-linejoin: miter"/>
   </g>
   <g id="patch_74">
    <path d="M 324.936773 389.32 
L 338.742045 389.32 
L 338.742045 389.32 
L 324.936773 389.32 
z
" clip-path="url(#padb792dbdf)" style="fill: #0000ff; fill-opacity: 0.6; stroke: #000000; stroke-linejoin: miter"/>
   </g>
   <g id="patch_75">
    <path d="M 338.742045 389.32 
L 352.547318 389.32 
L 352.547318 389.32 
L 338.742045 389.32 
z
" clip-path="url(#padb792dbdf)" style="fill: #0000ff; fill-opacity: 0.6; stroke: #000000; stroke-linejoin: miter"/>
   </g>
   <g id="patch_76">
    <path d="M 352.547318 389.32 
L 366.352591 389.32 
L 366.352591 389.32 
L 352.547318 389.32 
z
" clip-path="url(#padb792dbdf)" style="fill: #0000ff; fill-opacity: 0.6; stroke: #000000; stroke-linejoin: miter"/>
   </g>
   <g id="patch_77">
    <path d="M 366.352591 389.32 
L 380.157864 389.32 
L 380.157864 389.32 
L 366.352591 389.32 
z
" clip-path="url(#padb792dbdf)" style="fill: #0000ff; fill-opacity: 0.6; stroke: #000000; stroke-linejoin: miter"/>
   </g>
   <g id="patch_78">
    <path d="M 380.157864 389.32 
L 393.963136 389.32 
L 393.963136 389.32 
L 380.157864 389.32 
z
" clip-path="url(#padb792dbdf)" style="fill: #0000ff; fill-opacity: 0.6; stroke: #000000; stroke-linejoin: miter"/>
   </g>
   <g id="patch_79">
    <path d="M 393.963136 389.32 
L 407.768409 389.32 
L 407.768409 389.32 
L 393.963136 389.32 
z
" clip-path="url(#padb792dbdf)" style="fill: #0000ff; fill-opacity: 0.6; stroke: #000000; stroke-linejoin: miter"/>
   </g>
   <g id="matplotlib.axis_1">
    <g id="xtick_1">
     <g id="line2d_1">
      <defs>
       <path id="m243848194e" d="M 0 0 
L 0 3.5 
" style="stroke: #000000; stroke-width: 0.8"/>
      </defs>
      <g>
       <use xlink:href="#m243848194e" x="106.102702" y="389.32" style="stroke: #000000; stroke-width: 0.8"/>
      </g>
     </g>
     <g id="text_1">
      <!-- 3.8 -->
      <g transform="translate(98.15114 403.918437) scale(0.1 -0.1)">
       <defs>
        <path id="DejaVuSans-33" d="M 2597 2516 
Q 3050 2419 3304 2112 
Q 3559 1806 3559 1356 
Q 3559 666 3084 287 
Q 2609 -91 1734 -91 
Q 1441 -91 1130 -33 
Q 819 25 488 141 
L 488 750 
Q 750 597 1062 519 
Q 1375 441 1716 441 
Q 2309 441 2620 675 
Q 2931 909 2931 1356 
Q 2931 1769 2642 2001 
Q 2353 2234 1838 2234 
L 1294 2234 
L 1294 2753 
L 1863 2753 
Q 2328 2753 2575 2939 
Q 2822 3125 2822 3475 
Q 2822 3834 2567 4026 
Q 2313 4219 1838 4219 
Q 1578 4219 1281 4162 
Q 984 4106 628 3988 
L 628 4550 
Q 988 4650 1302 4700 
Q 1616 4750 1894 4750 
Q 2613 4750 3031 4423 
Q 3450 4097 3450 3541 
Q 3450 3153 3228 2886 
Q 3006 2619 2597 2516 
z
" transform="scale(0.015625)"/>
        <path id="DejaVuSans-2e" d="M 684 794 
L 1344 794 
L 1344 0 
L 684 0 
L 684 794 
z
" transform="scale(0.015625)"/>
        <path id="DejaVuSans-38" d="M 2034 2216 
Q 1584 2216 1326 1975 
Q 1069 1734 1069 1313 
Q 1069 891 1326 650 
Q 1584 409 2034 409 
Q 2484 409 2743 651 
Q 3003 894 3003 1313 
Q 3003 1734 2745 1975 
Q 2488 2216 2034 2216 
z
M 1403 2484 
Q 997 2584 770 2862 
Q 544 3141 544 3541 
Q 544 4100 942 4425 
Q 1341 4750 2034 4750 
Q 2731 4750 3128 4425 
Q 3525 4100 3525 3541 
Q 3525 3141 3298 2862 
Q 3072 2584 2669 2484 
Q 3125 2378 3379 2068 
Q 3634 1759 3634 1313 
Q 3634 634 3220 271 
Q 2806 -91 2034 -91 
Q 1263 -91 848 271 
Q 434 634 434 1313 
Q 434 1759 690 2068 
Q 947 2378 1403 2484 
z
M 1172 3481 
Q 1172 3119 1398 2916 
Q 1625 2713 2034 2713 
Q 2441 2713 2670 2916 
Q 2900 3119 2900 3481 
Q 2900 3844 2670 4047 
Q 2441 4250 2034 4250 
Q 1625 4250 1398 4047 
Q 1172 3844 1172 3481 
z
" transform="scale(0.015625)"/>
       </defs>
       <use xlink:href="#DejaVuSans-33"/>
       <use xlink:href="#DejaVuSans-2e" x="63.623047"/>
       <use xlink:href="#DejaVuSans-38" x="95.410156"/>
      </g>
     </g>
    </g>
    <g id="xtick_2">
     <g id="line2d_2">
      <g>
       <use xlink:href="#m243848194e" x="175.129066" y="389.32" style="stroke: #000000; stroke-width: 0.8"/>
      </g>
     </g>
     <g id="text_2">
      <!-- 4.0 -->
      <g transform="translate(167.177503 403.918437) scale(0.1 -0.1)">
       <defs>
        <path id="DejaVuSans-34" d="M 2419 4116 
L 825 1625 
L 2419 1625 
L 2419 4116 
z
M 2253 4666 
L 3047 4666 
L 3047 1625 
L 3713 1625 
L 3713 1100 
L 3047 1100 
L 3047 0 
L 2419 0 
L 2419 1100 
L 313 1100 
L 313 1709 
L 2253 4666 
z
" transform="scale(0.015625)"/>
        <path id="DejaVuSans-30" d="M 2034 4250 
Q 1547 4250 1301 3770 
Q 1056 3291 1056 2328 
Q 1056 1369 1301 889 
Q 1547 409 2034 409 
Q 2525 409 2770 889 
Q 3016 1369 3016 2328 
Q 3016 3291 2770 3770 
Q 2525 4250 2034 4250 
z
M 2034 4750 
Q 2819 4750 3233 4129 
Q 3647 3509 3647 2328 
Q 3647 1150 3233 529 
Q 2819 -91 2034 -91 
Q 1250 -91 836 529 
Q 422 1150 422 2328 
Q 422 3509 836 4129 
Q 1250 4750 2034 4750 
z
" transform="scale(0.015625)"/>
       </defs>
       <use xlink:href="#DejaVuSans-34"/>
       <use xlink:href="#DejaVuSans-2e" x="63.623047"/>
       <use xlink:href="#DejaVuSans-30" x="95.410156"/>
      </g>
     </g>
    </g>
    <g id="xtick_3">
     <g id="line2d_3">
      <g>
       <use xlink:href="#m243848194e" x="244.15543" y="389.32" style="stroke: #000000; stroke-width: 0.8"/>
      </g>
     </g>
     <g id="text_3">
      <!-- 4.2 -->
      <g transform="translate(236.203867 403.918437) scale(0.1 -0.1)">
       <defs>
        <path id="DejaVuSans-32" d="M 1228 531 
L 3431 531 
L 3431 0 
L 469 0 
L 469 531 
Q 828 903 1448 1529 
Q 2069 2156 2228 2338 
Q 2531 2678 2651 2914 
Q 2772 3150 2772 3378 
Q 2772 3750 2511 3984 
Q 2250 4219 1831 4219 
Q 1534 4219 1204 4116 
Q 875 4013 500 3803 
L 500 4441 
Q 881 4594 1212 4672 
Q 1544 4750 1819 4750 
Q 2544 4750 2975 4387 
Q 3406 4025 3406 3419 
Q 3406 3131 3298 2873 
Q 3191 2616 2906 2266 
Q 2828 2175 2409 1742 
Q 1991 1309 1228 531 
z
" transform="scale(0.015625)"/>
       </defs>
       <use xlink:href="#DejaVuSans-34"/>
       <use xlink:href="#DejaVuSans-2e" x="63.623047"/>
       <use xlink:href="#DejaVuSans-32" x="95.410156"/>
      </g>
     </g>
    </g>
    <g id="xtick_4">
     <g id="line2d_4">
      <g>
       <use xlink:href="#m243848194e" x="313.181793" y="389.32" style="stroke: #000000; stroke-width: 0.8"/>
      </g>
     </g>
     <g id="text_4">
      <!-- 4.4 -->
      <g transform="translate(305.230231 403.918437) scale(0.1 -0.1)">
       <use xlink:href="#DejaVuSans-34"/>
       <use xlink:href="#DejaVuSans-2e" x="63.623047"/>
       <use xlink:href="#DejaVuSans-34" x="95.410156"/>
      </g>
     </g>
    </g>
    <g id="xtick_5">
     <g id="line2d_5">
      <g>
       <use xlink:href="#m243848194e" x="382.208157" y="389.32" style="stroke: #000000; stroke-width: 0.8"/>
      </g>
     </g>
     <g id="text_5">
      <!-- 4.6 -->
      <g transform="translate(374.256594 403.918437) scale(0.1 -0.1)">
       <defs>
        <path id="DejaVuSans-36" d="M 2113 2584 
Q 1688 2584 1439 2293 
Q 1191 2003 1191 1497 
Q 1191 994 1439 701 
Q 1688 409 2113 409 
Q 2538 409 2786 701 
Q 3034 994 3034 1497 
Q 3034 2003 2786 2293 
Q 2538 2584 2113 2584 
z
M 3366 4563 
L 3366 3988 
Q 3128 4100 2886 4159 
Q 2644 4219 2406 4219 
Q 1781 4219 1451 3797 
Q 1122 3375 1075 2522 
Q 1259 2794 1537 2939 
Q 1816 3084 2150 3084 
Q 2853 3084 3261 2657 
Q 3669 2231 3669 1497 
Q 3669 778 3244 343 
Q 2819 -91 2113 -91 
Q 1303 -91 875 529 
Q 447 1150 447 2328 
Q 447 3434 972 4092 
Q 1497 4750 2381 4750 
Q 2619 4750 2861 4703 
Q 3103 4656 3366 4563 
z
" transform="scale(0.015625)"/>
       </defs>
       <use xlink:href="#DejaVuSans-34"/>
       <use xlink:href="#DejaVuSans-2e" x="63.623047"/>
       <use xlink:href="#DejaVuSans-36" x="95.410156"/>
      </g>
     </g>
    </g>
    <g id="text_6">
     <!-- Predicted Fluorescence -->
     <g transform="translate(165.60625 419.11625) scale(0.12 -0.12)">
      <defs>
       <path id="DejaVuSans-50" d="M 1259 4147 
L 1259 2394 
L 2053 2394 
Q 2494 2394 2734 2622 
Q 2975 2850 2975 3272 
Q 2975 3691 2734 3919 
Q 2494 4147 2053 4147 
L 1259 4147 
z
M 628 4666 
L 2053 4666 
Q 2838 4666 3239 4311 
Q 3641 3956 3641 3272 
Q 3641 2581 3239 2228 
Q 2838 1875 2053 1875 
L 1259 1875 
L 1259 0 
L 628 0 
L 628 4666 
z
" transform="scale(0.015625)"/>
       <path id="DejaVuSans-72" d="M 2631 2963 
Q 2534 3019 2420 3045 
Q 2306 3072 2169 3072 
Q 1681 3072 1420 2755 
Q 1159 2438 1159 1844 
L 1159 0 
L 581 0 
L 581 3500 
L 1159 3500 
L 1159 2956 
Q 1341 3275 1631 3429 
Q 1922 3584 2338 3584 
Q 2397 3584 2469 3576 
Q 2541 3569 2628 3553 
L 2631 2963 
z
" transform="scale(0.015625)"/>
       <path id="DejaVuSans-65" d="M 3597 1894 
L 3597 1613 
L 953 1613 
Q 991 1019 1311 708 
Q 1631 397 2203 397 
Q 2534 397 2845 478 
Q 3156 559 3463 722 
L 3463 178 
Q 3153 47 2828 -22 
Q 2503 -91 2169 -91 
Q 1331 -91 842 396 
Q 353 884 353 1716 
Q 353 2575 817 3079 
Q 1281 3584 2069 3584 
Q 2775 3584 3186 3129 
Q 3597 2675 3597 1894 
z
M 3022 2063 
Q 3016 2534 2758 2815 
Q 2500 3097 2075 3097 
Q 1594 3097 1305 2825 
Q 1016 2553 972 2059 
L 3022 2063 
z
" transform="scale(0.015625)"/>
       <path id="DejaVuSans-64" d="M 2906 2969 
L 2906 4863 
L 3481 4863 
L 3481 0 
L 2906 0 
L 2906 525 
Q 2725 213 2448 61 
Q 2172 -91 1784 -91 
Q 1150 -91 751 415 
Q 353 922 353 1747 
Q 353 2572 751 3078 
Q 1150 3584 1784 3584 
Q 2172 3584 2448 3432 
Q 2725 3281 2906 2969 
z
M 947 1747 
Q 947 1113 1208 752 
Q 1469 391 1925 391 
Q 2381 391 2643 752 
Q 2906 1113 2906 1747 
Q 2906 2381 2643 2742 
Q 2381 3103 1925 3103 
Q 1469 3103 1208 2742 
Q 947 2381 947 1747 
z
" transform="scale(0.015625)"/>
       <path id="DejaVuSans-69" d="M 603 3500 
L 1178 3500 
L 1178 0 
L 603 0 
L 603 3500 
z
M 603 4863 
L 1178 4863 
L 1178 4134 
L 603 4134 
L 603 4863 
z
" transform="scale(0.015625)"/>
       <path id="DejaVuSans-63" d="M 3122 3366 
L 3122 2828 
Q 2878 2963 2633 3030 
Q 2388 3097 2138 3097 
Q 1578 3097 1268 2742 
Q 959 2388 959 1747 
Q 959 1106 1268 751 
Q 1578 397 2138 397 
Q 2388 397 2633 464 
Q 2878 531 3122 666 
L 3122 134 
Q 2881 22 2623 -34 
Q 2366 -91 2075 -91 
Q 1284 -91 818 406 
Q 353 903 353 1747 
Q 353 2603 823 3093 
Q 1294 3584 2113 3584 
Q 2378 3584 2631 3529 
Q 2884 3475 3122 3366 
z
" transform="scale(0.015625)"/>
       <path id="DejaVuSans-74" d="M 1172 4494 
L 1172 3500 
L 2356 3500 
L 2356 3053 
L 1172 3053 
L 1172 1153 
Q 1172 725 1289 603 
Q 1406 481 1766 481 
L 2356 481 
L 2356 0 
L 1766 0 
Q 1100 0 847 248 
Q 594 497 594 1153 
L 594 3053 
L 172 3053 
L 172 3500 
L 594 3500 
L 594 4494 
L 1172 4494 
z
" transform="scale(0.015625)"/>
       <path id="DejaVuSans-20" transform="scale(0.015625)"/>
       <path id="DejaVuSans-46" d="M 628 4666 
L 3309 4666 
L 3309 4134 
L 1259 4134 
L 1259 2759 
L 3109 2759 
L 3109 2228 
L 1259 2228 
L 1259 0 
L 628 0 
L 628 4666 
z
" transform="scale(0.015625)"/>
       <path id="DejaVuSans-6c" d="M 603 4863 
L 1178 4863 
L 1178 0 
L 603 0 
L 603 4863 
z
" transform="scale(0.015625)"/>
       <path id="DejaVuSans-75" d="M 544 1381 
L 544 3500 
L 1119 3500 
L 1119 1403 
Q 1119 906 1312 657 
Q 1506 409 1894 409 
Q 2359 409 2629 706 
Q 2900 1003 2900 1516 
L 2900 3500 
L 3475 3500 
L 3475 0 
L 2900 0 
L 2900 538 
Q 2691 219 2414 64 
Q 2138 -91 1772 -91 
Q 1169 -91 856 284 
Q 544 659 544 1381 
z
M 1991 3584 
L 1991 3584 
z
" transform="scale(0.015625)"/>
       <path id="DejaVuSans-6f" d="M 1959 3097 
Q 1497 3097 1228 2736 
Q 959 2375 959 1747 
Q 959 1119 1226 758 
Q 1494 397 1959 397 
Q 2419 397 2687 759 
Q 2956 1122 2956 1747 
Q 2956 2369 2687 2733 
Q 2419 3097 1959 3097 
z
M 1959 3584 
Q 2709 3584 3137 3096 
Q 3566 2609 3566 1747 
Q 3566 888 3137 398 
Q 2709 -91 1959 -91 
Q 1206 -91 779 398 
Q 353 888 353 1747 
Q 353 2609 779 3096 
Q 1206 3584 1959 3584 
z
" transform="scale(0.015625)"/>
       <path id="DejaVuSans-73" d="M 2834 3397 
L 2834 2853 
Q 2591 2978 2328 3040 
Q 2066 3103 1784 3103 
Q 1356 3103 1142 2972 
Q 928 2841 928 2578 
Q 928 2378 1081 2264 
Q 1234 2150 1697 2047 
L 1894 2003 
Q 2506 1872 2764 1633 
Q 3022 1394 3022 966 
Q 3022 478 2636 193 
Q 2250 -91 1575 -91 
Q 1294 -91 989 -36 
Q 684 19 347 128 
L 347 722 
Q 666 556 975 473 
Q 1284 391 1588 391 
Q 1994 391 2212 530 
Q 2431 669 2431 922 
Q 2431 1156 2273 1281 
Q 2116 1406 1581 1522 
L 1381 1569 
Q 847 1681 609 1914 
Q 372 2147 372 2553 
Q 372 3047 722 3315 
Q 1072 3584 1716 3584 
Q 2034 3584 2315 3537 
Q 2597 3491 2834 3397 
z
" transform="scale(0.015625)"/>
       <path id="DejaVuSans-6e" d="M 3513 2113 
L 3513 0 
L 2938 0 
L 2938 2094 
Q 2938 2591 2744 2837 
Q 2550 3084 2163 3084 
Q 1697 3084 1428 2787 
Q 1159 2491 1159 1978 
L 1159 0 
L 581 0 
L 581 3500 
L 1159 3500 
L 1159 2956 
Q 1366 3272 1645 3428 
Q 1925 3584 2291 3584 
Q 2894 3584 3203 3211 
Q 3513 2838 3513 2113 
z
" transform="scale(0.015625)"/>
      </defs>
      <use xlink:href="#DejaVuSans-50"/>
      <use xlink:href="#DejaVuSans-72" x="58.552734"/>
      <use xlink:href="#DejaVuSans-65" x="97.416016"/>
      <use xlink:href="#DejaVuSans-64" x="158.939453"/>
      <use xlink:href="#DejaVuSans-69" x="222.416016"/>
      <use xlink:href="#DejaVuSans-63" x="250.199219"/>
      <use xlink:href="#DejaVuSans-74" x="305.179688"/>
      <use xlink:href="#DejaVuSans-65" x="344.388672"/>
      <use xlink:href="#DejaVuSans-64" x="405.912109"/>
      <use xlink:href="#DejaVuSans-20" x="469.388672"/>
      <use xlink:href="#DejaVuSans-46" x="501.175781"/>
      <use xlink:href="#DejaVuSans-6c" x="558.695312"/>
      <use xlink:href="#DejaVuSans-75" x="586.478516"/>
      <use xlink:href="#DejaVuSans-6f" x="649.857422"/>
      <use xlink:href="#DejaVuSans-72" x="711.039062"/>
      <use xlink:href="#DejaVuSans-65" x="749.902344"/>
      <use xlink:href="#DejaVuSans-73" x="811.425781"/>
      <use xlink:href="#DejaVuSans-63" x="863.525391"/>
      <use xlink:href="#DejaVuSans-65" x="918.505859"/>
      <use xlink:href="#DejaVuSans-6e" x="980.029297"/>
      <use xlink:href="#DejaVuSans-63" x="1043.408203"/>
      <use xlink:href="#DejaVuSans-65" x="1098.388672"/>
     </g>
    </g>
   </g>
   <g id="matplotlib.axis_2">
    <g id="ytick_1">
     <g id="line2d_6">
      <defs>
       <path id="m1185baabf0" d="M 0 0 
L -3.5 0 
" style="stroke: #000000; stroke-width: 0.8"/>
      </defs>
      <g>
       <use xlink:href="#m1185baabf0" x="45.38" y="389.32" style="stroke: #000000; stroke-width: 0.8"/>
      </g>
     </g>
     <g id="text_7">
      <!-- 0 -->
      <g transform="translate(32.0175 393.119219) scale(0.1 -0.1)">
       <use xlink:href="#DejaVuSans-30"/>
      </g>
     </g>
    </g>
    <g id="ytick_2">
     <g id="line2d_7">
      <g>
       <use xlink:href="#m1185baabf0" x="45.38" y="317.975238" style="stroke: #000000; stroke-width: 0.8"/>
      </g>
     </g>
     <g id="text_8">
      <!-- 5 -->
      <g transform="translate(32.0175 321.774457) scale(0.1 -0.1)">
       <defs>
        <path id="DejaVuSans-35" d="M 691 4666 
L 3169 4666 
L 3169 4134 
L 1269 4134 
L 1269 2991 
Q 1406 3038 1543 3061 
Q 1681 3084 1819 3084 
Q 2600 3084 3056 2656 
Q 3513 2228 3513 1497 
Q 3513 744 3044 326 
Q 2575 -91 1722 -91 
Q 1428 -91 1123 -41 
Q 819 9 494 109 
L 494 744 
Q 775 591 1075 516 
Q 1375 441 1709 441 
Q 2250 441 2565 725 
Q 2881 1009 2881 1497 
Q 2881 1984 2565 2268 
Q 2250 2553 1709 2553 
Q 1456 2553 1204 2497 
Q 953 2441 691 2322 
L 691 4666 
z
" transform="scale(0.015625)"/>
       </defs>
       <use xlink:href="#DejaVuSans-35"/>
      </g>
     </g>
    </g>
    <g id="ytick_3">
     <g id="line2d_8">
      <g>
       <use xlink:href="#m1185baabf0" x="45.38" y="246.630476" style="stroke: #000000; stroke-width: 0.8"/>
      </g>
     </g>
     <g id="text_9">
      <!-- 10 -->
      <g transform="translate(25.655 250.429695) scale(0.1 -0.1)">
       <defs>
        <path id="DejaVuSans-31" d="M 794 531 
L 1825 531 
L 1825 4091 
L 703 3866 
L 703 4441 
L 1819 4666 
L 2450 4666 
L 2450 531 
L 3481 531 
L 3481 0 
L 794 0 
L 794 531 
z
" transform="scale(0.015625)"/>
       </defs>
       <use xlink:href="#DejaVuSans-31"/>
       <use xlink:href="#DejaVuSans-30" x="63.623047"/>
      </g>
     </g>
    </g>
    <g id="ytick_4">
     <g id="line2d_9">
      <g>
       <use xlink:href="#m1185baabf0" x="45.38" y="175.285714" style="stroke: #000000; stroke-width: 0.8"/>
      </g>
     </g>
     <g id="text_10">
      <!-- 15 -->
      <g transform="translate(25.655 179.084933) scale(0.1 -0.1)">
       <use xlink:href="#DejaVuSans-31"/>
       <use xlink:href="#DejaVuSans-35" x="63.623047"/>
      </g>
     </g>
    </g>
    <g id="ytick_5">
     <g id="line2d_10">
      <g>
       <use xlink:href="#m1185baabf0" x="45.38" y="103.940952" style="stroke: #000000; stroke-width: 0.8"/>
      </g>
     </g>
     <g id="text_11">
      <!-- 20 -->
      <g transform="translate(25.655 107.740171) scale(0.1 -0.1)">
       <use xlink:href="#DejaVuSans-32"/>
       <use xlink:href="#DejaVuSans-30" x="63.623047"/>
      </g>
     </g>
    </g>
    <g id="ytick_6">
     <g id="line2d_11">
      <g>
       <use xlink:href="#m1185baabf0" x="45.38" y="32.59619" style="stroke: #000000; stroke-width: 0.8"/>
      </g>
     </g>
     <g id="text_12">
      <!-- 25 -->
      <g transform="translate(25.655 36.395409) scale(0.1 -0.1)">
       <use xlink:href="#DejaVuSans-32"/>
       <use xlink:href="#DejaVuSans-35" x="63.623047"/>
      </g>
     </g>
    </g>
    <g id="text_13">
     <!-- Probability Density -->
     <g transform="translate(19.159375 258.471875) rotate(-90) scale(0.12 -0.12)">
      <defs>
       <path id="DejaVuSans-62" d="M 3116 1747 
Q 3116 2381 2855 2742 
Q 2594 3103 2138 3103 
Q 1681 3103 1420 2742 
Q 1159 2381 1159 1747 
Q 1159 1113 1420 752 
Q 1681 391 2138 391 
Q 2594 391 2855 752 
Q 3116 1113 3116 1747 
z
M 1159 2969 
Q 1341 3281 1617 3432 
Q 1894 3584 2278 3584 
Q 2916 3584 3314 3078 
Q 3713 2572 3713 1747 
Q 3713 922 3314 415 
Q 2916 -91 2278 -91 
Q 1894 -91 1617 61 
Q 1341 213 1159 525 
L 1159 0 
L 581 0 
L 581 4863 
L 1159 4863 
L 1159 2969 
z
" transform="scale(0.015625)"/>
       <path id="DejaVuSans-61" d="M 2194 1759 
Q 1497 1759 1228 1600 
Q 959 1441 959 1056 
Q 959 750 1161 570 
Q 1363 391 1709 391 
Q 2188 391 2477 730 
Q 2766 1069 2766 1631 
L 2766 1759 
L 2194 1759 
z
M 3341 1997 
L 3341 0 
L 2766 0 
L 2766 531 
Q 2569 213 2275 61 
Q 1981 -91 1556 -91 
Q 1019 -91 701 211 
Q 384 513 384 1019 
Q 384 1609 779 1909 
Q 1175 2209 1959 2209 
L 2766 2209 
L 2766 2266 
Q 2766 2663 2505 2880 
Q 2244 3097 1772 3097 
Q 1472 3097 1187 3025 
Q 903 2953 641 2809 
L 641 3341 
Q 956 3463 1253 3523 
Q 1550 3584 1831 3584 
Q 2591 3584 2966 3190 
Q 3341 2797 3341 1997 
z
" transform="scale(0.015625)"/>
       <path id="DejaVuSans-79" d="M 2059 -325 
Q 1816 -950 1584 -1140 
Q 1353 -1331 966 -1331 
L 506 -1331 
L 506 -850 
L 844 -850 
Q 1081 -850 1212 -737 
Q 1344 -625 1503 -206 
L 1606 56 
L 191 3500 
L 800 3500 
L 1894 763 
L 2988 3500 
L 3597 3500 
L 2059 -325 
z
" transform="scale(0.015625)"/>
       <path id="DejaVuSans-44" d="M 1259 4147 
L 1259 519 
L 2022 519 
Q 2988 519 3436 956 
Q 3884 1394 3884 2338 
Q 3884 3275 3436 3711 
Q 2988 4147 2022 4147 
L 1259 4147 
z
M 628 4666 
L 1925 4666 
Q 3281 4666 3915 4102 
Q 4550 3538 4550 2338 
Q 4550 1131 3912 565 
Q 3275 0 1925 0 
L 628 0 
L 628 4666 
z
" transform="scale(0.015625)"/>
      </defs>
      <use xlink:href="#DejaVuSans-50"/>
      <use xlink:href="#DejaVuSans-72" x="58.552734"/>
      <use xlink:href="#DejaVuSans-6f" x="97.416016"/>
      <use xlink:href="#DejaVuSans-62" x="158.597656"/>
      <use xlink:href="#DejaVuSans-61" x="222.074219"/>
      <use xlink:href="#DejaVuSans-62" x="283.353516"/>
      <use xlink:href="#DejaVuSans-69" x="346.830078"/>
      <use xlink:href="#DejaVuSans-6c" x="374.613281"/>
      <use xlink:href="#DejaVuSans-69" x="402.396484"/>
      <use xlink:href="#DejaVuSans-74" x="430.179688"/>
      <use xlink:href="#DejaVuSans-79" x="469.388672"/>
      <use xlink:href="#DejaVuSans-20" x="528.568359"/>
      <use xlink:href="#DejaVuSans-44" x="560.355469"/>
      <use xlink:href="#DejaVuSans-65" x="637.357422"/>
      <use xlink:href="#DejaVuSans-6e" x="698.880859"/>
      <use xlink:href="#DejaVuSans-73" x="762.259766"/>
      <use xlink:href="#DejaVuSans-69" x="814.359375"/>
      <use xlink:href="#DejaVuSans-74" x="842.142578"/>
      <use xlink:href="#DejaVuSans-79" x="881.351562"/>
     </g>
    </g>
   </g>
   <g id="line2d_12">
    <path d="M 207.714079 389.32 
L 207.714079 14.76 
" clip-path="url(#padb792dbdf)" style="fill: none; stroke-dasharray: 11.1,4.8; stroke-dashoffset: 0; stroke: #ffa500; stroke-width: 3"/>
   </g>
   <g id="patch_80">
    <path d="M 45.38 389.32 
L 45.38 14.76 
" style="fill: none; stroke: #000000; stroke-width: 0.8; stroke-linejoin: miter; stroke-linecap: square"/>
   </g>
   <g id="patch_81">
    <path d="M 45.38 389.32 
L 425.025 389.32 
" style="fill: none; stroke: #000000; stroke-width: 0.8; stroke-linejoin: miter; stroke-linecap: square"/>
   </g>
   <g id="legend_1">
    <g id="patch_82">
     <path d="M 299.910938 66.794375 
L 418.025 66.794375 
Q 420.025 66.794375 420.025 64.794375 
L 420.025 21.76 
Q 420.025 19.76 418.025 19.76 
L 299.910938 19.76 
Q 297.910938 19.76 297.910938 21.76 
L 297.910938 64.794375 
Q 297.910938 66.794375 299.910938 66.794375 
z
" style="fill: #ffffff; opacity: 0.8; stroke: #cccccc; stroke-linejoin: miter"/>
    </g>
    <g id="patch_83">
     <path d="M 301.910938 31.358438 
L 321.910938 31.358438 
L 321.910938 24.358438 
L 301.910938 24.358438 
z
" style="fill: #808080; fill-opacity: 0.4; stroke: #000000; stroke-linejoin: miter"/>
    </g>
    <g id="text_14">
     <!-- Pre-trained ESM2 -->
     <g transform="translate(329.910938 31.358438) scale(0.1 -0.1)">
      <defs>
       <path id="DejaVuSans-2d" d="M 313 2009 
L 1997 2009 
L 1997 1497 
L 313 1497 
L 313 2009 
z
" transform="scale(0.015625)"/>
       <path id="DejaVuSans-45" d="M 628 4666 
L 3578 4666 
L 3578 4134 
L 1259 4134 
L 1259 2753 
L 3481 2753 
L 3481 2222 
L 1259 2222 
L 1259 531 
L 3634 531 
L 3634 0 
L 628 0 
L 628 4666 
z
" transform="scale(0.015625)"/>
       <path id="DejaVuSans-53" d="M 3425 4513 
L 3425 3897 
Q 3066 4069 2747 4153 
Q 2428 4238 2131 4238 
Q 1616 4238 1336 4038 
Q 1056 3838 1056 3469 
Q 1056 3159 1242 3001 
Q 1428 2844 1947 2747 
L 2328 2669 
Q 3034 2534 3370 2195 
Q 3706 1856 3706 1288 
Q 3706 609 3251 259 
Q 2797 -91 1919 -91 
Q 1588 -91 1214 -16 
Q 841 59 441 206 
L 441 856 
Q 825 641 1194 531 
Q 1563 422 1919 422 
Q 2459 422 2753 634 
Q 3047 847 3047 1241 
Q 3047 1584 2836 1778 
Q 2625 1972 2144 2069 
L 1759 2144 
Q 1053 2284 737 2584 
Q 422 2884 422 3419 
Q 422 4038 858 4394 
Q 1294 4750 2059 4750 
Q 2388 4750 2728 4690 
Q 3069 4631 3425 4513 
z
" transform="scale(0.015625)"/>
       <path id="DejaVuSans-4d" d="M 628 4666 
L 1569 4666 
L 2759 1491 
L 3956 4666 
L 4897 4666 
L 4897 0 
L 4281 0 
L 4281 4097 
L 3078 897 
L 2444 897 
L 1241 4097 
L 1241 0 
L 628 0 
L 628 4666 
z
" transform="scale(0.015625)"/>
      </defs>
      <use xlink:href="#DejaVuSans-50"/>
      <use xlink:href="#DejaVuSans-72" x="58.552734"/>
      <use xlink:href="#DejaVuSans-65" x="97.416016"/>
      <use xlink:href="#DejaVuSans-2d" x="158.939453"/>
      <use xlink:href="#DejaVuSans-74" x="195.023438"/>
      <use xlink:href="#DejaVuSans-72" x="234.232422"/>
      <use xlink:href="#DejaVuSans-61" x="275.345703"/>
      <use xlink:href="#DejaVuSans-69" x="336.625"/>
      <use xlink:href="#DejaVuSans-6e" x="364.408203"/>
      <use xlink:href="#DejaVuSans-65" x="427.787109"/>
      <use xlink:href="#DejaVuSans-64" x="489.310547"/>
      <use xlink:href="#DejaVuSans-20" x="552.787109"/>
      <use xlink:href="#DejaVuSans-45" x="584.574219"/>
      <use xlink:href="#DejaVuSans-53" x="647.757812"/>
      <use xlink:href="#DejaVuSans-4d" x="711.234375"/>
      <use xlink:href="#DejaVuSans-32" x="797.513672"/>
     </g>
    </g>
    <g id="patch_84">
     <path d="M 301.910938 46.036563 
L 321.910938 46.036563 
L 321.910938 39.036563 
L 301.910938 39.036563 
z
" style="fill: #ffa500; fill-opacity: 0.6; stroke: #000000; stroke-linejoin: miter"/>
    </g>
    <g id="text_15">
     <!-- SFT ESM2 -->
     <g transform="translate(329.910938 46.036563) scale(0.1 -0.1)">
      <defs>
       <path id="DejaVuSans-54" d="M -19 4666 
L 3928 4666 
L 3928 4134 
L 2272 4134 
L 2272 0 
L 1638 0 
L 1638 4134 
L -19 4134 
L -19 4666 
z
" transform="scale(0.015625)"/>
      </defs>
      <use xlink:href="#DejaVuSans-53"/>
      <use xlink:href="#DejaVuSans-46" x="63.476562"/>
      <use xlink:href="#DejaVuSans-54" x="119.246094"/>
      <use xlink:href="#DejaVuSans-20" x="180.330078"/>
      <use xlink:href="#DejaVuSans-45" x="212.117188"/>
      <use xlink:href="#DejaVuSans-53" x="275.300781"/>
      <use xlink:href="#DejaVuSans-4d" x="338.777344"/>
      <use xlink:href="#DejaVuSans-32" x="425.056641"/>
     </g>
    </g>
    <g id="patch_85">
     <path d="M 301.910938 60.714688 
L 321.910938 60.714688 
L 321.910938 53.714688 
L 301.910938 53.714688 
z
" style="fill: #0000ff; fill-opacity: 0.6; stroke: #000000; stroke-linejoin: miter"/>
    </g>
    <g id="text_16">
     <!-- Aligned ESM2 -->
     <g transform="translate(329.910938 60.714688) scale(0.1 -0.1)">
      <defs>
       <path id="DejaVuSans-41" d="M 2188 4044 
L 1331 1722 
L 3047 1722 
L 2188 4044 
z
M 1831 4666 
L 2547 4666 
L 4325 0 
L 3669 0 
L 3244 1197 
L 1141 1197 
L 716 0 
L 50 0 
L 1831 4666 
z
" transform="scale(0.015625)"/>
       <path id="DejaVuSans-67" d="M 2906 1791 
Q 2906 2416 2648 2759 
Q 2391 3103 1925 3103 
Q 1463 3103 1205 2759 
Q 947 2416 947 1791 
Q 947 1169 1205 825 
Q 1463 481 1925 481 
Q 2391 481 2648 825 
Q 2906 1169 2906 1791 
z
M 3481 434 
Q 3481 -459 3084 -895 
Q 2688 -1331 1869 -1331 
Q 1566 -1331 1297 -1286 
Q 1028 -1241 775 -1147 
L 775 -588 
Q 1028 -725 1275 -790 
Q 1522 -856 1778 -856 
Q 2344 -856 2625 -561 
Q 2906 -266 2906 331 
L 2906 616 
Q 2728 306 2450 153 
Q 2172 0 1784 0 
Q 1141 0 747 490 
Q 353 981 353 1791 
Q 353 2603 747 3093 
Q 1141 3584 1784 3584 
Q 2172 3584 2450 3431 
Q 2728 3278 2906 2969 
L 2906 3500 
L 3481 3500 
L 3481 434 
z
" transform="scale(0.015625)"/>
      </defs>
      <use xlink:href="#DejaVuSans-41"/>
      <use xlink:href="#DejaVuSans-6c" x="68.408203"/>
      <use xlink:href="#DejaVuSans-69" x="96.191406"/>
      <use xlink:href="#DejaVuSans-67" x="123.974609"/>
      <use xlink:href="#DejaVuSans-6e" x="187.451172"/>
      <use xlink:href="#DejaVuSans-65" x="250.830078"/>
      <use xlink:href="#DejaVuSans-64" x="312.353516"/>
      <use xlink:href="#DejaVuSans-20" x="375.830078"/>
      <use xlink:href="#DejaVuSans-45" x="407.617188"/>
      <use xlink:href="#DejaVuSans-53" x="470.800781"/>
      <use xlink:href="#DejaVuSans-4d" x="534.277344"/>
      <use xlink:href="#DejaVuSans-32" x="620.556641"/>
     </g>
    </g>
   </g>
  </g>
  <g id="axes_2">
   <g id="patch_86">
    <path d="M 473.555 389.32 
L 853.2 389.32 
L 853.2 14.76 
L 473.555 14.76 
z
" style="fill: #ffffff"/>
   </g>
   <g id="patch_87">
    <path d="M 490.811591 389.32 
L 490.811591 14.76 
L 747.889084 14.76 
L 747.889084 389.32 
z
" clip-path="url(#pea0b7f60e4)" style="fill: #ff0000; opacity: 0.1; stroke: #ff0000; stroke-linejoin: miter"/>
   </g>
   <g id="patch_88">
    <path d="M 747.889084 389.32 
L 747.889084 14.76 
L 835.943409 14.76 
L 835.943409 389.32 
z
" clip-path="url(#pea0b7f60e4)" style="fill: #008000; opacity: 0.1; stroke: #008000; stroke-linejoin: miter"/>
   </g>
   <g id="matplotlib.axis_3">
    <g id="xtick_6">
     <g id="line2d_13">
      <g>
       <use xlink:href="#m243848194e" x="480.007688" y="389.32" style="stroke: #000000; stroke-width: 0.8"/>
      </g>
     </g>
     <g id="text_17">
      <!-- 3.7 -->
      <g transform="translate(472.056125 403.918437) scale(0.1 -0.1)">
       <defs>
        <path id="DejaVuSans-37" d="M 525 4666 
L 3525 4666 
L 3525 4397 
L 1831 0 
L 1172 0 
L 2766 4134 
L 525 4134 
L 525 4666 
z
" transform="scale(0.015625)"/>
       </defs>
       <use xlink:href="#DejaVuSans-33"/>
       <use xlink:href="#DejaVuSans-2e" x="63.623047"/>
       <use xlink:href="#DejaVuSans-37" x="95.410156"/>
      </g>
     </g>
    </g>
    <g id="xtick_7">
     <g id="line2d_14">
      <g>
       <use xlink:href="#m243848194e" x="547.926654" y="389.32" style="stroke: #000000; stroke-width: 0.8"/>
      </g>
     </g>
     <g id="text_18">
      <!-- 3.8 -->
      <g transform="translate(539.975091 403.918437) scale(0.1 -0.1)">
       <use xlink:href="#DejaVuSans-33"/>
       <use xlink:href="#DejaVuSans-2e" x="63.623047"/>
       <use xlink:href="#DejaVuSans-38" x="95.410156"/>
      </g>
     </g>
    </g>
    <g id="xtick_8">
     <g id="line2d_15">
      <g>
       <use xlink:href="#m243848194e" x="615.84562" y="389.32" style="stroke: #000000; stroke-width: 0.8"/>
      </g>
     </g>
     <g id="text_19">
      <!-- 3.9 -->
      <g transform="translate(607.894058 403.918437) scale(0.1 -0.1)">
       <defs>
        <path id="DejaVuSans-39" d="M 703 97 
L 703 672 
Q 941 559 1184 500 
Q 1428 441 1663 441 
Q 2288 441 2617 861 
Q 2947 1281 2994 2138 
Q 2813 1869 2534 1725 
Q 2256 1581 1919 1581 
Q 1219 1581 811 2004 
Q 403 2428 403 3163 
Q 403 3881 828 4315 
Q 1253 4750 1959 4750 
Q 2769 4750 3195 4129 
Q 3622 3509 3622 2328 
Q 3622 1225 3098 567 
Q 2575 -91 1691 -91 
Q 1453 -91 1209 -44 
Q 966 3 703 97 
z
M 1959 2075 
Q 2384 2075 2632 2365 
Q 2881 2656 2881 3163 
Q 2881 3666 2632 3958 
Q 2384 4250 1959 4250 
Q 1534 4250 1286 3958 
Q 1038 3666 1038 3163 
Q 1038 2656 1286 2365 
Q 1534 2075 1959 2075 
z
" transform="scale(0.015625)"/>
       </defs>
       <use xlink:href="#DejaVuSans-33"/>
       <use xlink:href="#DejaVuSans-2e" x="63.623047"/>
       <use xlink:href="#DejaVuSans-39" x="95.410156"/>
      </g>
     </g>
    </g>
    <g id="xtick_9">
     <g id="line2d_16">
      <g>
       <use xlink:href="#m243848194e" x="683.764587" y="389.32" style="stroke: #000000; stroke-width: 0.8"/>
      </g>
     </g>
     <g id="text_20">
      <!-- 4.0 -->
      <g transform="translate(675.813024 403.918437) scale(0.1 -0.1)">
       <use xlink:href="#DejaVuSans-34"/>
       <use xlink:href="#DejaVuSans-2e" x="63.623047"/>
       <use xlink:href="#DejaVuSans-30" x="95.410156"/>
      </g>
     </g>
    </g>
    <g id="xtick_10">
     <g id="line2d_17">
      <g>
       <use xlink:href="#m243848194e" x="751.683553" y="389.32" style="stroke: #000000; stroke-width: 0.8"/>
      </g>
     </g>
     <g id="text_21">
      <!-- 4.1 -->
      <g transform="translate(743.731991 403.918437) scale(0.1 -0.1)">
       <use xlink:href="#DejaVuSans-34"/>
       <use xlink:href="#DejaVuSans-2e" x="63.623047"/>
       <use xlink:href="#DejaVuSans-31" x="95.410156"/>
      </g>
     </g>
    </g>
    <g id="xtick_11">
     <g id="line2d_18">
      <g>
       <use xlink:href="#m243848194e" x="819.602519" y="389.32" style="stroke: #000000; stroke-width: 0.8"/>
      </g>
     </g>
     <g id="text_22">
      <!-- 4.2 -->
      <g transform="translate(811.650957 403.918437) scale(0.1 -0.1)">
       <use xlink:href="#DejaVuSans-34"/>
       <use xlink:href="#DejaVuSans-2e" x="63.623047"/>
       <use xlink:href="#DejaVuSans-32" x="95.410156"/>
      </g>
     </g>
    </g>
    <g id="text_23">
     <!-- Predicted Fluorescence -->
     <g transform="translate(593.78125 419.11625) scale(0.12 -0.12)">
      <use xlink:href="#DejaVuSans-50"/>
      <use xlink:href="#DejaVuSans-72" x="58.552734"/>
      <use xlink:href="#DejaVuSans-65" x="97.416016"/>
      <use xlink:href="#DejaVuSans-64" x="158.939453"/>
      <use xlink:href="#DejaVuSans-69" x="222.416016"/>
      <use xlink:href="#DejaVuSans-63" x="250.199219"/>
      <use xlink:href="#DejaVuSans-74" x="305.179688"/>
      <use xlink:href="#DejaVuSans-65" x="344.388672"/>
      <use xlink:href="#DejaVuSans-64" x="405.912109"/>
      <use xlink:href="#DejaVuSans-20" x="469.388672"/>
      <use xlink:href="#DejaVuSans-46" x="501.175781"/>
      <use xlink:href="#DejaVuSans-6c" x="558.695312"/>
      <use xlink:href="#DejaVuSans-75" x="586.478516"/>
      <use xlink:href="#DejaVuSans-6f" x="649.857422"/>
      <use xlink:href="#DejaVuSans-72" x="711.039062"/>
      <use xlink:href="#DejaVuSans-65" x="749.902344"/>
      <use xlink:href="#DejaVuSans-73" x="811.425781"/>
      <use xlink:href="#DejaVuSans-63" x="863.525391"/>
      <use xlink:href="#DejaVuSans-65" x="918.505859"/>
      <use xlink:href="#DejaVuSans-6e" x="980.029297"/>
      <use xlink:href="#DejaVuSans-63" x="1043.408203"/>
      <use xlink:href="#DejaVuSans-65" x="1098.388672"/>
     </g>
    </g>
   </g>
   <g id="matplotlib.axis_4">
    <g id="ytick_7">
     <g id="line2d_19">
      <g>
       <use xlink:href="#m1185baabf0" x="473.555" y="389.32" style="stroke: #000000; stroke-width: 0.8"/>
      </g>
     </g>
     <g id="text_24">
      <!-- 0.0 -->
      <g transform="translate(450.651875 393.119219) scale(0.1 -0.1)">
       <use xlink:href="#DejaVuSans-30"/>
       <use xlink:href="#DejaVuSans-2e" x="63.623047"/>
       <use xlink:href="#DejaVuSans-30" x="95.410156"/>
      </g>
     </g>
    </g>
    <g id="ytick_8">
     <g id="line2d_20">
      <g>
       <use xlink:href="#m1185baabf0" x="473.555" y="314.408" style="stroke: #000000; stroke-width: 0.8"/>
      </g>
     </g>
     <g id="text_25">
      <!-- 0.2 -->
      <g transform="translate(450.651875 318.207219) scale(0.1 -0.1)">
       <use xlink:href="#DejaVuSans-30"/>
       <use xlink:href="#DejaVuSans-2e" x="63.623047"/>
       <use xlink:href="#DejaVuSans-32" x="95.410156"/>
      </g>
     </g>
    </g>
    <g id="ytick_9">
     <g id="line2d_21">
      <g>
       <use xlink:href="#m1185baabf0" x="473.555" y="239.496" style="stroke: #000000; stroke-width: 0.8"/>
      </g>
     </g>
     <g id="text_26">
      <!-- 0.4 -->
      <g transform="translate(450.651875 243.295219) scale(0.1 -0.1)">
       <use xlink:href="#DejaVuSans-30"/>
       <use xlink:href="#DejaVuSans-2e" x="63.623047"/>
       <use xlink:href="#DejaVuSans-34" x="95.410156"/>
      </g>
     </g>
    </g>
    <g id="ytick_10">
     <g id="line2d_22">
      <g>
       <use xlink:href="#m1185baabf0" x="473.555" y="164.584" style="stroke: #000000; stroke-width: 0.8"/>
      </g>
     </g>
     <g id="text_27">
      <!-- 0.6 -->
      <g transform="translate(450.651875 168.383219) scale(0.1 -0.1)">
       <use xlink:href="#DejaVuSans-30"/>
       <use xlink:href="#DejaVuSans-2e" x="63.623047"/>
       <use xlink:href="#DejaVuSans-36" x="95.410156"/>
      </g>
     </g>
    </g>
    <g id="ytick_11">
     <g id="line2d_23">
      <g>
       <use xlink:href="#m1185baabf0" x="473.555" y="89.672" style="stroke: #000000; stroke-width: 0.8"/>
      </g>
     </g>
     <g id="text_28">
      <!-- 0.8 -->
      <g transform="translate(450.651875 93.471219) scale(0.1 -0.1)">
       <use xlink:href="#DejaVuSans-30"/>
       <use xlink:href="#DejaVuSans-2e" x="63.623047"/>
       <use xlink:href="#DejaVuSans-38" x="95.410156"/>
      </g>
     </g>
    </g>
    <g id="ytick_12">
     <g id="line2d_24">
      <g>
       <use xlink:href="#m1185baabf0" x="473.555" y="14.76" style="stroke: #000000; stroke-width: 0.8"/>
      </g>
     </g>
     <g id="text_29">
      <!-- 1.0 -->
      <g transform="translate(450.651875 18.559219) scale(0.1 -0.1)">
       <use xlink:href="#DejaVuSans-31"/>
       <use xlink:href="#DejaVuSans-2e" x="63.623047"/>
       <use xlink:href="#DejaVuSans-30" x="95.410156"/>
      </g>
     </g>
    </g>
    <g id="text_30">
     <!-- Cumulative Density -->
     <g transform="translate(444.15625 261.002187) rotate(-90) scale(0.12 -0.12)">
      <defs>
       <path id="DejaVuSans-43" d="M 4122 4306 
L 4122 3641 
Q 3803 3938 3442 4084 
Q 3081 4231 2675 4231 
Q 1875 4231 1450 3742 
Q 1025 3253 1025 2328 
Q 1025 1406 1450 917 
Q 1875 428 2675 428 
Q 3081 428 3442 575 
Q 3803 722 4122 1019 
L 4122 359 
Q 3791 134 3420 21 
Q 3050 -91 2638 -91 
Q 1578 -91 968 557 
Q 359 1206 359 2328 
Q 359 3453 968 4101 
Q 1578 4750 2638 4750 
Q 3056 4750 3426 4639 
Q 3797 4528 4122 4306 
z
" transform="scale(0.015625)"/>
       <path id="DejaVuSans-6d" d="M 3328 2828 
Q 3544 3216 3844 3400 
Q 4144 3584 4550 3584 
Q 5097 3584 5394 3201 
Q 5691 2819 5691 2113 
L 5691 0 
L 5113 0 
L 5113 2094 
Q 5113 2597 4934 2840 
Q 4756 3084 4391 3084 
Q 3944 3084 3684 2787 
Q 3425 2491 3425 1978 
L 3425 0 
L 2847 0 
L 2847 2094 
Q 2847 2600 2669 2842 
Q 2491 3084 2119 3084 
Q 1678 3084 1418 2786 
Q 1159 2488 1159 1978 
L 1159 0 
L 581 0 
L 581 3500 
L 1159 3500 
L 1159 2956 
Q 1356 3278 1631 3431 
Q 1906 3584 2284 3584 
Q 2666 3584 2933 3390 
Q 3200 3197 3328 2828 
z
" transform="scale(0.015625)"/>
       <path id="DejaVuSans-76" d="M 191 3500 
L 800 3500 
L 1894 563 
L 2988 3500 
L 3597 3500 
L 2284 0 
L 1503 0 
L 191 3500 
z
" transform="scale(0.015625)"/>
      </defs>
      <use xlink:href="#DejaVuSans-43"/>
      <use xlink:href="#DejaVuSans-75" x="69.824219"/>
      <use xlink:href="#DejaVuSans-6d" x="133.203125"/>
      <use xlink:href="#DejaVuSans-75" x="230.615234"/>
      <use xlink:href="#DejaVuSans-6c" x="293.994141"/>
      <use xlink:href="#DejaVuSans-61" x="321.777344"/>
      <use xlink:href="#DejaVuSans-74" x="383.056641"/>
      <use xlink:href="#DejaVuSans-69" x="422.265625"/>
      <use xlink:href="#DejaVuSans-76" x="450.048828"/>
      <use xlink:href="#DejaVuSans-65" x="509.228516"/>
      <use xlink:href="#DejaVuSans-20" x="570.751953"/>
      <use xlink:href="#DejaVuSans-44" x="602.539062"/>
      <use xlink:href="#DejaVuSans-65" x="679.541016"/>
      <use xlink:href="#DejaVuSans-6e" x="741.064453"/>
      <use xlink:href="#DejaVuSans-73" x="804.443359"/>
      <use xlink:href="#DejaVuSans-69" x="856.542969"/>
      <use xlink:href="#DejaVuSans-74" x="884.326172"/>
      <use xlink:href="#DejaVuSans-79" x="923.535156"/>
     </g>
    </g>
   </g>
   <g id="line2d_25">
    <path d="M 524.771074 14.76 
L 524.771074 15.13456 
L 581.180051 15.13456 
L 581.180051 15.50912 
L 581.322551 15.50912 
L 581.322551 15.88368 
L 590.849463 15.88368 
L 590.849463 16.25824 
L 593.703019 16.25824 
L 593.703019 16.6328 
L 595.446858 16.6328 
L 595.446858 17.00736 
L 597.551157 17.00736 
L 597.551157 17.38192 
L 601.362214 17.38192 
L 601.362214 17.75648 
L 607.788625 17.75648 
L 607.788625 18.13104 
L 611.614093 18.13104 
L 611.614093 18.5056 
L 612.202228 18.5056 
L 612.202228 18.88016 
L 614.85515 18.88016 
L 614.85515 19.25472 
L 616.284195 19.25472 
L 616.284195 19.62928 
L 618.132481 19.62928 
L 618.132481 20.00384 
L 621.286095 20.00384 
L 621.286095 20.3784 
L 623.669564 20.3784 
L 623.669564 20.75296 
L 625.077234 20.75296 
L 625.077234 21.12752 
L 625.973849 21.12752 
L 625.973849 21.50208 
L 626.261115 21.50208 
L 626.261115 21.87664 
L 627.446453 21.87664 
L 627.446453 22.2512 
L 632.097124 22.2512 
L 632.097124 22.62576 
L 632.701452 22.62576 
L 632.701452 23.00032 
L 634.385053 23.00032 
L 634.385053 23.37488 
L 638.625875 23.37488 
L 638.625875 23.74944 
L 639.50322 23.74944 
L 639.505163 24.49856 
L 639.680373 24.49856 
L 639.680373 24.87312 
L 641.737064 24.87312 
L 641.737064 25.24768 
L 641.908064 25.24768 
L 641.908064 25.62224 
L 642.316941 25.62224 
L 642.3605 26.37136 
L 642.630602 26.37136 
L 642.630602 26.74592 
L 642.846618 26.74592 
L 642.846618 27.12048 
L 643.379858 27.12048 
L 643.404472 28.24416 
L 644.337197 28.24416 
L 644.337197 28.61872 
L 644.507225 28.61872 
L 644.507225 28.99328 
L 645.094388 28.99328 
L 645.094388 29.36784 
L 645.20936 29.36784 
L 645.220047 30.11696 
L 646.737669 30.11696 
L 646.737669 30.49152 
L 647.866655 30.49152 
L 647.866655 30.86608 
L 648.683923 30.86608 
L 648.751124 31.6152 
L 649.307035 31.6152 
L 649.307035 31.98976 
L 649.775179 31.98976 
L 649.775179 32.36432 
L 649.920917 32.36432 
L 649.920917 32.73888 
L 650.371086 32.73888 
L 650.371086 33.11344 
L 652.560237 33.11344 
L 652.560237 33.488 
L 653.887265 33.488 
L 653.994464 34.23712 
L 654.158177 34.23712 
L 654.158177 34.61168 
L 654.555718 34.61168 
L 654.555718 34.98624 
L 656.278021 34.98624 
L 656.365788 36.10992 
L 657.266774 36.10992 
L 657.266774 36.48448 
L 657.554689 36.48448 
L 657.554689 36.85904 
L 657.680995 36.85904 
L 657.680995 37.2336 
L 658.073193 37.2336 
L 658.073193 37.60816 
L 658.253908 37.60816 
L 658.256661 38.35728 
L 658.471382 38.35728 
L 658.471382 38.73184 
L 658.872163 38.73184 
L 658.872163 39.1064 
L 659.793876 39.1064 
L 659.793876 39.48096 
L 660.228662 39.48096 
L 660.228662 39.85552 
L 660.341205 39.85552 
L 660.413264 40.60464 
L 660.826999 40.60464 
L 660.826999 40.9792 
L 661.785147 40.9792 
L 661.785147 41.35376 
L 662.575858 41.35376 
L 662.575858 41.72832 
L 662.734713 41.72832 
L 662.734713 42.10288 
L 663.166908 42.10288 
L 663.166908 42.47744 
L 663.37078 42.47744 
L 663.458871 43.60112 
L 663.692861 43.60112 
L 663.692861 43.97568 
L 663.807833 43.97568 
L 663.807833 44.35024 
L 663.95098 44.35024 
L 663.95098 44.7248 
L 664.202622 44.7248 
L 664.202622 45.09936 
L 664.319536 45.09936 
L 664.319536 45.47392 
L 664.730518 45.47392 
L 664.731328 46.22304 
L 665.123364 46.22304 
L 665.222466 46.97216 
L 665.64122 46.97216 
L 665.656766 47.72128 
L 666.617181 47.72128 
L 666.617181 48.09584 
L 666.979584 48.09584 
L 667.038203 48.84496 
L 667.268955 48.84496 
L 667.268955 49.21952 
L 667.384898 49.21952 
L 667.400767 49.96864 
L 668.131726 49.96864 
L 668.131726 50.3432 
L 668.296248 50.3432 
L 668.296248 50.71776 
L 668.679054 50.71776 
L 668.679054 51.09232 
L 669.877347 51.09232 
L 669.877347 51.46688 
L 670.400061 51.46688 
L 670.405891 52.216 
L 670.614459 52.216 
L 670.614459 52.59056 
L 670.820435 52.59056 
L 670.820435 52.96512 
L 671.702314 52.96512 
L 671.721746 53.71424 
L 672.257253 53.71424 
L 672.257253 54.0888 
L 672.395057 54.0888 
L 672.395057 54.46336 
L 672.518449 54.46336 
L 672.534318 55.21248 
L 673.1516 55.21248 
L 673.1516 55.58704 
L 673.702977 55.58704 
L 673.760139 56.33616 
L 674.642503 56.33616 
L 674.702904 57.08528 
L 675.019965 57.08528 
L 675.019965 57.45984 
L 675.135584 57.45984 
L 675.135584 57.8344 
L 675.529725 57.8344 
L 675.529725 58.20896 
L 675.916742 58.20896 
L 675.94427 58.95808 
L 676.436056 58.95808 
L 676.538558 60.08176 
L 676.725103 60.08176 
L 676.725103 60.45632 
L 677.413312 60.45632 
L 677.413312 60.83088 
L 678.102978 60.83088 
L 678.102978 61.20544 
L 678.284827 61.20544 
L 678.376318 61.95456 
L 679.113106 61.95456 
L 679.199416 62.70368 
L 679.323779 62.70368 
L 679.367662 63.4528 
L 679.45883 63.4528 
L 679.45883 63.82736 
L 679.781073 63.82736 
L 679.792409 64.57648 
L 679.99126 64.57648 
L 680.026885 65.3256 
L 680.328402 65.3256 
L 680.393174 66.07472 
L 680.615992 66.07472 
L 680.615992 66.44928 
L 680.777599 66.44928 
L 680.777599 66.82384 
L 680.913946 66.82384 
L 680.913946 67.1984 
L 681.076687 67.1984 
L 681.125428 68.32208 
L 681.293513 68.32208 
L 681.379499 69.0712 
L 681.575921 69.0712 
L 681.679234 69.82032 
L 681.733966 69.82032 
L 681.733966 70.19488 
L 681.869665 70.19488 
L 681.869665 70.56944 
L 682.034025 70.56944 
L 682.034025 70.944 
L 682.283886 70.944 
L 682.283886 71.31856 
L 682.730493 71.31856 
L 682.730493 71.69312 
L 682.916714 71.69312 
L 683.003509 72.44224 
L 683.032657 72.44224 
L 683.132568 73.56592 
L 683.214182 73.56592 
L 683.214182 73.94048 
L 683.428093 73.94048 
L 683.44121 74.6896 
L 683.763615 74.6896 
L 683.763615 75.06416 
L 684.075819 75.06416 
L 684.075819 75.43872 
L 684.300904 75.43872 
L 684.311267 76.18784 
L 684.454415 76.18784 
L 684.454415 76.5624 
L 684.670107 76.5624 
L 684.670107 76.93696 
L 685.082709 76.93696 
L 685.082709 77.31152 
L 685.293219 77.31152 
L 685.40398 78.06064 
L 685.479441 78.06064 
L 685.58081 79.18432 
L 685.750514 79.18432 
L 685.750514 79.55888 
L 685.940297 79.55888 
L 685.940297 79.93344 
L 686.11324 79.93344 
L 686.11324 80.308 
L 686.330228 80.308 
L 686.359052 81.05712 
L 686.461717 81.05712 
L 686.481148 81.80624 
L 686.763881 81.80624 
L 686.763881 82.1808 
L 686.908647 82.1808 
L 686.984755 83.67904 
L 687.113329 83.67904 
L 687.173567 84.42816 
L 687.277851 84.42816 
L 687.31801 85.17728 
L 687.429743 85.17728 
L 687.444317 85.9264 
L 687.773037 85.9264 
L 687.773037 86.30096 
L 688.069372 86.30096 
L 688.069372 86.67552 
L 688.389996 86.67552 
L 688.389996 87.05008 
L 688.569416 87.05008 
L 688.569416 87.42464 
L 688.697342 87.42464 
L 688.697342 87.7992 
L 688.930847 87.7992 
L 688.935381 88.54832 
L 689.353164 88.54832 
L 689.436073 89.29744 
L 689.49113 89.29744 
L 689.49113 89.672 
L 689.782606 89.672 
L 689.782606 90.04656 
L 689.968504 90.04656 
L 690.031333 90.79568 
L 690.42515 90.79568 
L 690.515184 91.5448 
L 690.764559 91.5448 
L 690.764559 91.91936 
L 690.938797 91.91936 
L 690.938797 92.29392 
L 691.077086 92.29392 
L 691.121132 93.04304 
L 691.295046 93.04304 
L 691.295046 93.4176 
L 691.410989 93.4176 
L 691.410989 93.79216 
L 691.535352 93.79216 
L 691.535352 94.16672 
L 691.946982 94.16672 
L 692.012726 94.91584 
L 692.270197 94.91584 
L 692.314566 95.66496 
L 692.466458 95.66496 
L 692.466458 96.03952 
L 692.662395 96.03952 
L 692.662395 96.41408 
L 692.915656 96.41408 
L 692.972008 97.91232 
L 693.3872 97.91232 
L 693.46428 98.66144 
L 693.518365 98.66144 
L 693.605484 99.78512 
L 693.670256 99.78512 
L 693.733086 100.9088 
L 694.03104 100.9088 
L 694.123988 102.40704 
L 694.145039 102.40704 
L 694.231511 103.15616 
L 694.275232 103.15616 
L 694.368505 103.90528 
L 694.61205 103.90528 
L 694.659334 105.02896 
L 694.78985 105.02896 
L 694.89543 106.5272 
L 695.149014 106.5272 
L 695.149014 106.90176 
L 695.325843 106.90176 
L 695.375071 107.65088 
L 695.4379 107.65088 
L 695.4379 108.02544 
L 695.673996 108.02544 
L 695.673996 108.4 
L 695.879001 108.4 
L 695.967092 109.89824 
L 696.068137 109.89824 
L 696.172421 110.64736 
L 696.190557 110.64736 
L 696.190557 111.02192 
L 696.336296 111.02192 
L 696.336296 111.39648 
L 696.465517 111.39648 
L 696.465517 111.77104 
L 696.592795 111.77104 
L 696.64267 112.52016 
L 696.771567 112.52016 
L 696.771567 112.89472 
L 696.889129 112.89472 
L 696.889129 113.26928 
L 697.091544 113.26928 
L 697.091544 113.64384 
L 697.569565 113.64384 
L 697.569565 114.0184 
L 697.778781 114.0184 
L 697.782667 114.76752 
L 698.048882 114.76752 
L 698.103291 116.26576 
L 698.191382 116.26576 
L 698.191382 116.64032 
L 698.707619 116.64032 
L 698.724784 117.38944 
L 698.890602 117.38944 
L 698.922664 118.51312 
L 699.142891 118.51312 
L 699.142891 118.88768 
L 699.311948 118.88768 
L 699.388703 120.01136 
L 699.509504 120.01136 
L 699.572657 121.5096 
L 699.756935 121.5096 
L 699.859924 122.63328 
L 700.028332 122.63328 
L 700.028332 123.00784 
L 700.189292 123.00784 
L 700.189292 123.3824 
L 700.450973 123.3824 
L 700.450973 123.75696 
L 700.676058 123.75696 
L 700.741154 124.88064 
L 700.825683 124.88064 
L 700.907944 125.62976 
L 701.063398 125.62976 
L 701.15829 127.50256 
L 701.321193 127.50256 
L 701.375926 128.25168 
L 701.580931 128.25168 
L 701.580931 128.62624 
L 701.742215 128.62624 
L 701.848765 129.37536 
L 701.858157 129.37536 
L 701.946248 130.49904 
L 702.057009 130.49904 
L 702.135384 131.24816 
L 702.301202 131.24816 
L 702.328406 132.37184 
L 702.504588 132.37184 
L 702.606281 133.49552 
L 702.648059 133.49552 
L 702.701172 134.24464 
L 702.770803 134.24464 
L 702.770803 134.6192 
L 703.016291 134.6192 
L 703.123814 135.74288 
L 703.283802 135.74288 
L 703.373512 136.492 
L 703.577222 136.492 
L 703.577222 136.86656 
L 703.791943 136.86656 
L 703.84959 137.61568 
L 703.921488 137.61568 
L 703.921488 137.99024 
L 704.035164 137.99024 
L 704.035164 138.3648 
L 704.149811 138.3648 
L 704.233044 139.11392 
L 704.62427 139.11392 
L 704.735355 140.2376 
L 704.849355 140.2376 
L 704.950724 142.85952 
L 704.969184 142.85952 
L 705.066343 144.73232 
L 705.089013 144.73232 
L 705.17257 145.48144 
L 705.226007 145.48144 
L 705.302439 146.97968 
L 705.367535 146.97968 
L 705.374337 147.7288 
L 705.491251 147.7288 
L 705.500967 148.47792 
L 705.603308 148.47792 
L 705.669052 149.22704 
L 705.888955 149.22704 
L 705.977693 150.72528 
L 706.026273 150.72528 
L 706.11242 151.84896 
L 706.248442 151.84896 
L 706.248442 152.22352 
L 706.446323 152.22352 
L 706.521135 153.3472 
L 706.624771 153.3472 
L 706.70768 154.47088 
L 706.78897 154.47088 
L 706.865725 155.22 
L 706.922725 155.22 
L 706.961912 157.0928 
L 707.045145 157.0928 
L 707.102145 158.21648 
L 707.160764 158.21648 
L 707.264076 159.34016 
L 707.303588 159.34016 
L 707.380019 160.46384 
L 707.424389 160.46384 
L 707.424389 160.8384 
L 707.564621 160.8384 
L 707.603485 161.96208 
L 707.722019 161.96208 
L 707.817234 163.08576 
L 707.856745 163.08576 
L 707.856745 163.46032 
L 708.031631 163.46032 
L 708.141745 164.20944 
L 708.194534 164.20944 
L 708.194534 164.584 
L 708.314364 164.584 
L 708.325699 165.33312 
L 708.427716 165.33312 
L 708.495079 166.08224 
L 708.702675 166.08224 
L 708.702675 166.4568 
L 708.827039 166.4568 
L 708.853595 167.20592 
L 709.212112 167.20592 
L 709.222151 167.95504 
L 709.374691 167.95504 
L 709.440435 168.70416 
L 709.591355 168.70416 
L 709.591355 169.07872 
L 709.818059 169.07872 
L 709.904854 169.82784 
L 709.979019 169.82784 
L 710.086865 170.95152 
L 710.184672 170.95152 
L 710.191149 171.70064 
L 710.303206 171.70064 
L 710.303206 172.0752 
L 710.42433 172.0752 
L 710.470319 173.19888 
L 710.610551 173.19888 
L 710.618 173.948 
L 710.784466 173.948 
L 710.877414 175.44624 
L 710.995624 175.44624 
L 710.995624 175.8208 
L 711.175044 175.8208 
L 711.252124 177.6936 
L 711.408873 177.6936 
L 711.471703 178.44272 
L 711.625214 178.44272 
L 711.712657 179.19184 
L 711.801719 179.19184 
L 711.841554 179.94096 
L 712.051417 179.94096 
L 712.138213 180.69008 
L 712.265815 180.69008 
L 712.265815 181.06464 
L 712.423212 181.06464 
L 712.423212 181.4392 
L 712.703029 181.4392 
L 712.789501 182.93744 
L 712.954671 182.93744 
L 712.97475 183.68656 
L 713.118869 183.68656 
L 713.214085 184.43568 
L 713.372778 184.43568 
L 713.372778 184.81024 
L 713.648385 184.81024 
L 713.75105 187.0576 
L 713.773072 187.0576 
L 713.773072 187.43216 
L 713.944072 187.43216 
L 713.976458 188.18128 
L 714.065844 188.18128 
L 714.097259 188.9304 
L 714.259191 188.9304 
L 714.273764 189.67952 
L 714.396832 189.67952 
L 714.396832 190.05408 
L 714.544838 190.05408 
L 714.587264 190.8032 
L 714.70936 190.8032 
L 714.70936 191.17776 
L 714.852183 191.17776 
L 714.916632 192.30144 
L 715.007638 192.30144 
L 715.038728 193.05056 
L 715.130706 193.05056 
L 715.130706 193.42512 
L 715.430279 193.42512 
L 715.531 194.92336 
L 715.648238 194.92336 
L 715.747988 196.04704 
L 715.784585 196.04704 
L 715.872999 196.79616 
L 715.905062 196.79616 
L 715.911863 197.54528 
L 716.046914 197.54528 
L 716.063431 198.66896 
L 716.17743 198.66896 
L 716.260987 199.79264 
L 716.289811 199.79264 
L 716.320578 200.91632 
L 716.439435 200.91632 
L 716.522992 202.04 
L 716.558293 202.04 
L 716.658691 203.53824 
L 716.682333 203.53824 
L 716.746134 204.66192 
L 716.959883 204.66192 
L 717.068053 205.7856 
L 717.107888 205.7856 
L 717.191769 206.53472 
L 717.219297 206.53472 
L 717.302854 207.28384 
L 717.3537 207.28384 
L 717.455069 208.03296 
L 717.477416 208.03296 
L 717.477416 208.40752 
L 717.614734 208.40752 
L 717.663961 209.5312 
L 717.829131 209.5312 
L 717.829131 209.90576 
L 717.957381 209.90576 
L 718.067494 212.15312 
L 718.072676 212.15312 
L 718.072676 212.52768 
L 718.3363 212.52768 
L 718.435402 213.2768 
L 718.654334 213.2768 
L 718.742748 214.02592 
L 718.959088 214.02592 
L 719.044264 215.1496 
L 719.078594 215.1496 
L 719.084423 215.89872 
L 719.291696 215.89872 
L 719.383673 216.64784 
L 719.454923 216.64784 
L 719.45557 217.39696 
L 719.570218 217.39696 
L 719.570218 217.77152 
L 719.87724 217.77152 
L 719.954967 218.52064 
L 719.989296 218.52064 
L 720.090989 219.26976 
L 720.205637 219.26976 
L 720.259398 220.768 
L 720.383761 220.768 
L 720.494198 222.26624 
L 720.495494 222.26624 
L 720.593624 223.01536 
L 720.631192 223.01536 
L 720.721874 224.5136 
L 720.792476 224.5136 
L 720.792476 224.88816 
L 720.983231 224.88816 
L 721.055129 226.01184 
L 721.150345 226.01184 
L 721.253657 227.88464 
L 721.28993 227.88464 
L 721.28993 228.2592 
L 721.424657 228.2592 
L 721.424657 228.63376 
L 721.539304 228.63376 
L 721.6329 230.132 
L 721.688929 230.132 
L 721.736213 230.88112 
L 721.806167 230.88112 
L 721.846326 232.0048 
L 721.920491 232.0048 
L 721.973928 233.12848 
L 722.0957 233.12848 
L 722.164035 234.25216 
L 722.251802 234.25216 
L 722.358029 235.00128 
L 722.382643 235.00128 
L 722.453569 236.49952 
L 722.499234 236.49952 
L 722.499234 236.87408 
L 722.681892 236.87408 
L 722.767392 238.37232 
L 722.884306 238.37232 
L 722.884306 238.74688 
L 723.03555 238.74688 
L 723.13951 240.24512 
L 723.280391 240.24512 
L 723.280391 240.61968 
L 723.3918 240.61968 
L 723.489282 242.11792 
L 723.538833 242.11792 
L 723.58806 242.86704 
L 723.664816 242.86704 
L 723.695583 243.61616 
L 724.063491 243.61616 
L 724.152877 244.73984 
L 724.285661 244.73984 
L 724.379581 246.61264 
L 724.408729 246.61264 
L 724.423627 247.36176 
L 724.560297 247.36176 
L 724.560297 247.73632 
L 724.794126 247.73632 
L 724.876387 249.23456 
L 724.915898 249.23456 
L 724.915898 249.60912 
L 725.066818 249.60912 
L 725.149727 250.35824 
L 725.195716 250.35824 
L 725.195716 250.7328 
L 725.362181 250.7328 
L 725.454158 251.85648 
L 725.497232 251.85648 
L 725.506948 252.6056 
L 725.701266 252.6056 
L 725.761828 253.35472 
L 725.86676 253.35472 
L 725.915987 254.4784 
L 726.06043 254.4784 
L 726.06043 254.85296 
L 726.291668 254.85296 
L 726.33798 255.60208 
L 726.472383 255.60208 
L 726.565008 257.84944 
L 726.598042 257.84944 
L 726.695849 259.72224 
L 726.745076 259.72224 
L 726.80078 260.47136 
L 727.124319 260.47136 
L 727.169336 261.22048 
L 727.260342 261.22048 
L 727.3575 262.34416 
L 727.406404 262.34416 
L 727.515546 263.8424 
L 727.607199 263.8424 
L 727.709539 264.96608 
L 727.72638 264.96608 
L 727.835846 265.7152 
L 727.889607 265.7152 
L 727.889607 266.08976 
L 728.012675 266.08976 
L 728.112749 267.96256 
L 728.137686 267.96256 
L 728.20505 269.08624 
L 728.326174 269.08624 
L 728.334271 269.83536 
L 728.493935 269.83536 
L 728.581378 270.95904 
L 728.673355 270.95904 
L 728.681776 271.70816 
L 728.892287 271.70816 
L 728.969366 272.83184 
L 729.086604 272.83184 
L 729.191536 274.33008 
L 729.240115 274.33008 
L 729.297763 275.0792 
L 729.363831 275.0792 
L 729.363831 275.45376 
L 729.480745 275.45376 
L 729.570779 278.07568 
L 729.663728 278.07568 
L 729.685103 278.8248 
L 729.816915 278.8248 
L 729.820478 279.57392 
L 729.946136 279.57392 
L 729.994068 280.6976 
L 730.255102 280.6976 
L 730.316312 281.44672 
L 730.44197 281.44672 
L 730.52326 282.19584 
L 730.617828 282.19584 
L 730.661873 282.94496 
L 730.78818 282.94496 
L 730.846475 284.06864 
L 731.074475 284.06864 
L 731.15544 285.19232 
L 731.252275 285.19232 
L 731.321906 287.06512 
L 731.462462 287.06512 
L 731.462462 287.43968 
L 731.645121 287.43968 
L 731.669735 288.1888 
L 731.757177 288.1888 
L 731.757177 288.56336 
L 731.874416 288.56336 
L 731.954086 290.0616 
L 732.224512 290.0616 
L 732.238438 290.81072 
L 732.363773 290.81072 
L 732.396159 291.9344 
L 732.520198 291.9344 
L 732.627073 293.8072 
L 732.638732 293.8072 
L 732.638732 294.18176 
L 732.765686 294.18176 
L 732.852482 296.05456 
L 732.97393 296.05456 
L 732.993038 296.80368 
L 733.107686 296.80368 
L 733.161771 297.5528 
L 733.269617 297.5528 
L 733.368071 298.67648 
L 733.393333 298.67648 
L 733.461992 299.80016 
L 733.520611 299.80016 
L 733.520611 300.17472 
L 733.770309 300.17472 
L 733.770309 300.54928 
L 733.978877 300.54928 
L 734.006081 301.2984 
L 734.127854 301.2984 
L 734.21141 302.04752 
L 734.386944 302.04752 
L 734.489609 302.79664 
L 734.507421 302.79664 
L 734.600046 304.66944 
L 734.662227 304.66944 
L 734.691699 305.41856 
L 734.781409 305.41856 
L 734.836142 306.9168 
L 734.912573 306.9168 
L 735.006818 308.04048 
L 735.077096 308.04048 
L 735.167454 309.16416 
L 735.234169 309.16416 
L 735.234169 309.53872 
L 735.528884 309.53872 
L 735.598191 310.28784 
L 735.741339 310.28784 
L 735.811941 311.78608 
L 735.893554 311.78608 
L 735.998486 312.90976 
L 736.036054 312.90976 
L 736.111514 314.408 
L 736.156531 314.408 
L 736.156531 314.78256 
L 736.31911 314.78256 
L 736.375462 315.90624 
L 736.509541 315.90624 
L 736.59245 317.40448 
L 736.661757 317.40448 
L 736.73916 318.1536 
L 736.774785 318.1536 
L 736.818183 319.27728 
L 737.067233 319.27728 
L 737.143341 321.52464 
L 737.200665 321.52464 
L 737.304301 323.39744 
L 737.410528 323.39744 
L 737.48113 325.6448 
L 737.630754 325.6448 
L 737.630754 326.01936 
L 737.763214 326.01936 
L 737.763214 326.39392 
L 737.893083 326.39392 
L 737.993157 327.89216 
L 738.03364 327.89216 
L 738.03364 328.26672 
L 738.319935 328.26672 
L 738.402844 329.01584 
L 738.450128 329.01584 
L 738.536923 330.51408 
L 738.602667 330.51408 
L 738.67165 332.01232 
L 738.783382 332.01232 
L 738.875036 332.76144 
L 738.932683 332.76144 
L 738.977376 333.51056 
L 739.136393 333.51056 
L 739.136393 333.88512 
L 739.258489 333.88512 
L 739.345285 335.0088 
L 739.373137 335.0088 
L 739.417506 336.13248 
L 739.56292 336.13248 
L 739.597574 337.25616 
L 739.736511 337.25616 
L 739.736511 337.63072 
L 739.851158 337.63072 
L 739.940544 338.7544 
L 740.623247 338.7544 
L 740.725588 339.87808 
L 740.767366 339.87808 
L 740.872622 341.00176 
L 740.933184 341.00176 
L 741.035201 341.75088 
L 741.074712 341.75088 
L 741.117462 342.87456 
L 741.352587 342.87456 
L 741.439706 343.62368 
L 741.467234 343.62368 
L 741.513546 344.74736 
L 741.723733 344.74736 
L 741.832551 346.99472 
L 741.947847 346.99472 
L 742.000636 348.1184 
L 742.126619 348.1184 
L 742.18038 349.24208 
L 742.377289 349.24208 
L 742.377289 349.61664 
L 742.494851 349.61664 
L 742.519788 350.36576 
L 742.611118 350.36576 
L 742.682368 352.61312 
L 742.84689 352.61312 
L 742.929799 354.86048 
L 743.042503 354.86048 
L 743.146463 355.98416 
L 743.297707 355.98416 
L 743.407496 356.73328 
L 743.438911 356.73328 
L 743.438911 357.10784 
L 743.703183 357.10784 
L 743.703183 357.4824 
L 743.859933 357.4824 
L 743.891024 358.23152 
L 744.006319 358.23152 
L 744.012148 358.98064 
L 744.188006 358.98064 
L 744.188006 359.3552 
L 744.586033 359.3552 
L 744.621658 360.85344 
L 744.729829 360.85344 
L 744.729829 361.228 
L 744.850953 361.228 
L 744.942283 362.35168 
L 745.029078 362.35168 
L 745.049481 363.1008 
L 745.444918 363.1008 
L 745.444918 363.47536 
L 745.61527 363.47536 
L 745.656076 364.22448 
L 745.909337 364.22448 
L 745.998076 365.72272 
L 746.082928 365.72272 
L 746.177496 366.47184 
L 746.307688 366.47184 
L 746.3472 367.22096 
L 746.433347 367.22096 
L 746.480631 368.34464 
L 746.768221 368.34464 
L 746.768221 368.7192 
L 747.042857 368.7192 
L 747.042857 369.09376 
L 747.276038 369.09376 
L 747.304215 369.84288 
L 747.529947 369.84288 
L 747.578203 370.96656 
L 747.645242 370.96656 
L 747.71131 371.71568 
L 748.030963 371.71568 
L 748.090877 372.4648 
L 748.195809 372.4648 
L 748.227871 373.21392 
L 748.395956 373.21392 
L 748.495382 374.71216 
L 748.775524 374.71216 
L 748.775524 375.08672 
L 749.249335 375.08672 
L 749.249335 375.46128 
L 749.386329 375.46128 
L 749.401227 376.2104 
L 749.690112 376.2104 
L 749.692703 376.95952 
L 749.853339 376.95952 
L 749.864351 377.70864 
L 750.443741 377.70864 
L 750.493292 378.45776 
L 750.665587 378.45776 
L 750.665587 378.83232 
L 751.098916 378.83232 
L 751.098916 379.20688 
L 751.710693 379.20688 
L 751.710693 379.58144 
L 751.931891 379.58144 
L 751.931891 379.956 
L 752.743491 379.956 
L 752.830934 380.70512 
L 753.123059 380.70512 
L 753.123059 381.07968 
L 753.360774 381.07968 
L 753.360774 381.45424 
L 753.603023 381.45424 
L 753.603023 381.8288 
L 754.036352 381.8288 
L 754.077159 382.57792 
L 754.441828 382.57792 
L 754.441828 382.95248 
L 755.147849 382.95248 
L 755.147849 383.32704 
L 755.455519 383.32704 
L 755.455519 383.7016 
L 755.742462 383.7016 
L 755.742462 384.07616 
L 756.225989 384.07616 
L 756.225989 384.45072 
L 756.586448 384.45072 
L 756.586448 384.82528 
L 757.450514 384.82528 
L 757.450514 385.19984 
L 757.722883 385.19984 
L 757.722883 385.5744 
L 758.449955 385.5744 
L 758.449955 385.94896 
L 759.269976 385.94896 
L 759.323737 386.69808 
L 763.030024 386.69808 
L 763.030024 387.07264 
L 764.481253 387.07264 
L 764.481253 387.4472 
L 767.318616 387.4472 
L 767.318616 387.82176 
L 767.51682 387.82176 
L 767.51682 388.19632 
L 769.390691 388.19632 
L 769.390691 388.57088 
L 781.274515 388.57088 
L 781.274515 388.94544 
L 785.353244 388.94544 
L 785.353244 389.32 
L 785.353244 389.32 
" clip-path="url(#pea0b7f60e4)" style="fill: none; stroke: #808080; stroke-width: 1.5; stroke-linecap: square"/>
   </g>
   <g id="line2d_26">
    <path d="M 801.983926 14.76 
L 801.983926 389.32 
L 801.983926 389.32 
" clip-path="url(#pea0b7f60e4)" style="fill: none; stroke: #ffa500; stroke-width: 1.5; stroke-linecap: square"/>
   </g>
   <g id="line2d_27">
    <path d="M 801.983926 14.76 
L 801.983926 389.32 
L 801.983926 389.32 
" clip-path="url(#pea0b7f60e4)" style="fill: none; stroke: #0000ff; stroke-width: 1.5; stroke-linecap: square"/>
   </g>
   <g id="line2d_28">
    <path d="M 747.889084 389.32 
L 747.889084 14.76 
" clip-path="url(#pea0b7f60e4)" style="fill: none; stroke-dasharray: 11.1,4.8; stroke-dashoffset: 0; stroke: #ffa500; stroke-width: 3"/>
   </g>
   <g id="patch_89">
    <path d="M 473.555 389.32 
L 473.555 14.76 
" style="fill: none; stroke: #000000; stroke-width: 0.8; stroke-linejoin: miter; stroke-linecap: square"/>
   </g>
   <g id="patch_90">
    <path d="M 473.555 389.32 
L 853.2 389.32 
" style="fill: none; stroke: #000000; stroke-width: 0.8; stroke-linejoin: miter; stroke-linecap: square"/>
   </g>
   <g id="legend_2">
    <g id="patch_91">
     <path d="M 480.555 384.32 
L 685.825312 384.32 
Q 687.825312 384.32 687.825312 382.32 
L 687.825312 339.285625 
Q 687.825312 337.285625 685.825312 337.285625 
L 480.555 337.285625 
Q 478.555 337.285625 478.555 339.285625 
L 478.555 382.32 
Q 478.555 384.32 480.555 384.32 
z
" style="fill: #ffffff; opacity: 0.8; stroke: #000000; stroke-linejoin: miter"/>
    </g>
    <g id="patch_92">
     <path d="M 482.555 348.884063 
L 502.555 348.884063 
L 502.555 341.884063 
L 482.555 341.884063 
z
" style="fill: #ff0000; opacity: 0.8; stroke: #ff0000; stroke-linejoin: miter"/>
    </g>
    <g id="text_31">
     <!-- Less than WT Log Fluorescence -->
     <g transform="translate(510.555 348.884063) scale(0.1 -0.1)">
      <defs>
       <path id="DejaVuSans-4c" d="M 628 4666 
L 1259 4666 
L 1259 531 
L 3531 531 
L 3531 0 
L 628 0 
L 628 4666 
z
" transform="scale(0.015625)"/>
       <path id="DejaVuSans-68" d="M 3513 2113 
L 3513 0 
L 2938 0 
L 2938 2094 
Q 2938 2591 2744 2837 
Q 2550 3084 2163 3084 
Q 1697 3084 1428 2787 
Q 1159 2491 1159 1978 
L 1159 0 
L 581 0 
L 581 4863 
L 1159 4863 
L 1159 2956 
Q 1366 3272 1645 3428 
Q 1925 3584 2291 3584 
Q 2894 3584 3203 3211 
Q 3513 2838 3513 2113 
z
" transform="scale(0.015625)"/>
       <path id="DejaVuSans-57" d="M 213 4666 
L 850 4666 
L 1831 722 
L 2809 4666 
L 3519 4666 
L 4500 722 
L 5478 4666 
L 6119 4666 
L 4947 0 
L 4153 0 
L 3169 4050 
L 2175 0 
L 1381 0 
L 213 4666 
z
" transform="scale(0.015625)"/>
      </defs>
      <use xlink:href="#DejaVuSans-4c"/>
      <use xlink:href="#DejaVuSans-65" x="53.962891"/>
      <use xlink:href="#DejaVuSans-73" x="115.486328"/>
      <use xlink:href="#DejaVuSans-73" x="167.585938"/>
      <use xlink:href="#DejaVuSans-20" x="219.685547"/>
      <use xlink:href="#DejaVuSans-74" x="251.472656"/>
      <use xlink:href="#DejaVuSans-68" x="290.681641"/>
      <use xlink:href="#DejaVuSans-61" x="354.060547"/>
      <use xlink:href="#DejaVuSans-6e" x="415.339844"/>
      <use xlink:href="#DejaVuSans-20" x="478.71875"/>
      <use xlink:href="#DejaVuSans-57" x="510.505859"/>
      <use xlink:href="#DejaVuSans-54" x="609.382812"/>
      <use xlink:href="#DejaVuSans-20" x="670.466797"/>
      <use xlink:href="#DejaVuSans-4c" x="702.253906"/>
      <use xlink:href="#DejaVuSans-6f" x="756.216797"/>
      <use xlink:href="#DejaVuSans-67" x="817.398438"/>
      <use xlink:href="#DejaVuSans-20" x="880.875"/>
      <use xlink:href="#DejaVuSans-46" x="912.662109"/>
      <use xlink:href="#DejaVuSans-6c" x="970.181641"/>
      <use xlink:href="#DejaVuSans-75" x="997.964844"/>
      <use xlink:href="#DejaVuSans-6f" x="1061.34375"/>
      <use xlink:href="#DejaVuSans-72" x="1122.525391"/>
      <use xlink:href="#DejaVuSans-65" x="1161.388672"/>
      <use xlink:href="#DejaVuSans-73" x="1222.912109"/>
      <use xlink:href="#DejaVuSans-63" x="1275.011719"/>
      <use xlink:href="#DejaVuSans-65" x="1329.992188"/>
      <use xlink:href="#DejaVuSans-6e" x="1391.515625"/>
      <use xlink:href="#DejaVuSans-63" x="1454.894531"/>
      <use xlink:href="#DejaVuSans-65" x="1509.875"/>
     </g>
    </g>
    <g id="patch_93">
     <path d="M 482.555 363.562187 
L 502.555 363.562187 
L 502.555 356.562187 
L 482.555 356.562187 
z
" style="fill: #ffa500; opacity: 0.8; stroke: #ffa500; stroke-linejoin: miter"/>
    </g>
    <g id="text_32">
     <!-- Mean WT Log Fluorescence -->
     <g transform="translate(510.555 363.562187) scale(0.1 -0.1)">
      <use xlink:href="#DejaVuSans-4d"/>
      <use xlink:href="#DejaVuSans-65" x="86.279297"/>
      <use xlink:href="#DejaVuSans-61" x="147.802734"/>
      <use xlink:href="#DejaVuSans-6e" x="209.082031"/>
      <use xlink:href="#DejaVuSans-20" x="272.460938"/>
      <use xlink:href="#DejaVuSans-57" x="304.248047"/>
      <use xlink:href="#DejaVuSans-54" x="403.125"/>
      <use xlink:href="#DejaVuSans-20" x="464.208984"/>
      <use xlink:href="#DejaVuSans-4c" x="495.996094"/>
      <use xlink:href="#DejaVuSans-6f" x="549.958984"/>
      <use xlink:href="#DejaVuSans-67" x="611.140625"/>
      <use xlink:href="#DejaVuSans-20" x="674.617188"/>
      <use xlink:href="#DejaVuSans-46" x="706.404297"/>
      <use xlink:href="#DejaVuSans-6c" x="763.923828"/>
      <use xlink:href="#DejaVuSans-75" x="791.707031"/>
      <use xlink:href="#DejaVuSans-6f" x="855.085938"/>
      <use xlink:href="#DejaVuSans-72" x="916.267578"/>
      <use xlink:href="#DejaVuSans-65" x="955.130859"/>
      <use xlink:href="#DejaVuSans-73" x="1016.654297"/>
      <use xlink:href="#DejaVuSans-63" x="1068.753906"/>
      <use xlink:href="#DejaVuSans-65" x="1123.734375"/>
      <use xlink:href="#DejaVuSans-6e" x="1185.257812"/>
      <use xlink:href="#DejaVuSans-63" x="1248.636719"/>
      <use xlink:href="#DejaVuSans-65" x="1303.617188"/>
     </g>
    </g>
    <g id="patch_94">
     <path d="M 482.555 378.240313 
L 502.555 378.240313 
L 502.555 371.240313 
L 482.555 371.240313 
z
" style="fill: #008000; opacity: 0.8; stroke: #008000; stroke-linejoin: miter"/>
    </g>
    <g id="text_33">
     <!-- Greater than WT Log Fluorescence -->
     <g transform="translate(510.555 378.240313) scale(0.1 -0.1)">
      <defs>
       <path id="DejaVuSans-47" d="M 3809 666 
L 3809 1919 
L 2778 1919 
L 2778 2438 
L 4434 2438 
L 4434 434 
Q 4069 175 3628 42 
Q 3188 -91 2688 -91 
Q 1594 -91 976 548 
Q 359 1188 359 2328 
Q 359 3472 976 4111 
Q 1594 4750 2688 4750 
Q 3144 4750 3555 4637 
Q 3966 4525 4313 4306 
L 4313 3634 
Q 3963 3931 3569 4081 
Q 3175 4231 2741 4231 
Q 1884 4231 1454 3753 
Q 1025 3275 1025 2328 
Q 1025 1384 1454 906 
Q 1884 428 2741 428 
Q 3075 428 3337 486 
Q 3600 544 3809 666 
z
" transform="scale(0.015625)"/>
      </defs>
      <use xlink:href="#DejaVuSans-47"/>
      <use xlink:href="#DejaVuSans-72" x="77.490234"/>
      <use xlink:href="#DejaVuSans-65" x="116.353516"/>
      <use xlink:href="#DejaVuSans-61" x="177.876953"/>
      <use xlink:href="#DejaVuSans-74" x="239.15625"/>
      <use xlink:href="#DejaVuSans-65" x="278.365234"/>
      <use xlink:href="#DejaVuSans-72" x="339.888672"/>
      <use xlink:href="#DejaVuSans-20" x="381.001953"/>
      <use xlink:href="#DejaVuSans-74" x="412.789062"/>
      <use xlink:href="#DejaVuSans-68" x="451.998047"/>
      <use xlink:href="#DejaVuSans-61" x="515.376953"/>
      <use xlink:href="#DejaVuSans-6e" x="576.65625"/>
      <use xlink:href="#DejaVuSans-20" x="640.035156"/>
      <use xlink:href="#DejaVuSans-57" x="671.822266"/>
      <use xlink:href="#DejaVuSans-54" x="770.699219"/>
      <use xlink:href="#DejaVuSans-20" x="831.783203"/>
      <use xlink:href="#DejaVuSans-4c" x="863.570312"/>
      <use xlink:href="#DejaVuSans-6f" x="917.533203"/>
      <use xlink:href="#DejaVuSans-67" x="978.714844"/>
      <use xlink:href="#DejaVuSans-20" x="1042.191406"/>
      <use xlink:href="#DejaVuSans-46" x="1073.978516"/>
      <use xlink:href="#DejaVuSans-6c" x="1131.498047"/>
      <use xlink:href="#DejaVuSans-75" x="1159.28125"/>
      <use xlink:href="#DejaVuSans-6f" x="1222.660156"/>
      <use xlink:href="#DejaVuSans-72" x="1283.841797"/>
      <use xlink:href="#DejaVuSans-65" x="1322.705078"/>
      <use xlink:href="#DejaVuSans-73" x="1384.228516"/>
      <use xlink:href="#DejaVuSans-63" x="1436.328125"/>
      <use xlink:href="#DejaVuSans-65" x="1491.308594"/>
      <use xlink:href="#DejaVuSans-6e" x="1552.832031"/>
      <use xlink:href="#DejaVuSans-63" x="1616.210938"/>
      <use xlink:href="#DejaVuSans-65" x="1671.191406"/>
     </g>
    </g>
   </g>
  </g>
 </g>
 <defs>
  <clipPath id="padb792dbdf">
   <rect x="45.38" y="14.76" width="379.645" height="374.56"/>
  </clipPath>
  <clipPath id="pea0b7f60e4">
   <rect x="473.555" y="14.76" width="379.645" height="374.56"/>
  </clipPath>
 </defs>
</svg>
