<?xml version="1.0" encoding="utf-8" standalone="no"?>
<!DOCTYPE svg PUBLIC "-//W3C//DTD SVG 1.1//EN"
  "http://www.w3.org/Graphics/SVG/1.1/DTD/svg11.dtd">
<svg xmlns:xlink="http://www.w3.org/1999/xlink" width="432pt" height="432pt" viewBox="0 0 432 432" xmlns="http://www.w3.org/2000/svg" version="1.1">
 <metadata>
  <rdf:RDF xmlns:dc="http://purl.org/dc/elements/1.1/" xmlns:cc="http://creativecommons.org/ns#" xmlns:rdf="http://www.w3.org/1999/02/22-rdf-syntax-ns#">
   <cc:Work>
    <dc:type rdf:resource="http://purl.org/dc/dcmitype/StillImage"/>
    <dc:date>2025-04-04T13:12:32.594084</dc:date>
    <dc:format>image/svg+xml</dc:format>
    <dc:creator>
     <cc:Agent>
      <dc:title>Matplotlib v3.8.0, https://matplotlib.org/</dc:title>
     </cc:Agent>
    </dc:creator>
   </cc:Work>
  </rdf:RDF>
 </metadata>
 <defs>
  <style type="text/css">*{stroke-linejoin: round; stroke-linecap: butt}</style>
 </defs>
 <g id="figure_1">
  <g id="patch_1">
   <path d="M 0 432 
L 432 432 
L 432 0 
L 0 0 
z
" style="fill: #ffffff"/>
  </g>
  <g id="axes_1">
   <g id="patch_2">
    <path d="M 57.8 389.32 
L 421.2 389.32 
L 421.2 10.8 
L 57.8 10.8 
z
" style="fill: #ffffff"/>
   </g>
   <g id="PolyCollection_1">
    <defs>
     <path id="m258e18669a" d="M 74.318182 -42.685052 
L 74.318182 -42.68 
L 75.978301 -42.68 
L 77.638419 -42.68 
L 79.298538 -42.68 
L 80.958657 -42.68 
L 82.618776 -42.68 
L 84.278894 -42.68 
L 85.939013 -42.68 
L 87.599132 -42.68 
L 89.259251 -42.68 
L 90.91937 -42.68 
L 92.579488 -42.68 
L 94.239607 -42.68 
L 95.899726 -42.68 
L 97.559845 -42.68 
L 99.219963 -42.68 
L 100.880082 -42.68 
L 102.540201 -42.68 
L 104.20032 -42.68 
L 105.860439 -42.68 
L 107.520557 -42.68 
L 109.180676 -42.68 
L 110.840795 -42.68 
L 112.500914 -42.68 
L 114.161032 -42.68 
L 115.821151 -42.68 
L 117.48127 -42.68 
L 119.141389 -42.68 
L 120.801508 -42.68 
L 122.461626 -42.68 
L 124.121745 -42.68 
L 125.781864 -42.68 
L 127.441983 -42.68 
L 129.102101 -42.68 
L 130.76222 -42.68 
L 132.422339 -42.68 
L 134.082458 -42.68 
L 135.742577 -42.68 
L 137.402695 -42.68 
L 139.062814 -42.68 
L 140.722933 -42.68 
L 142.383052 -42.68 
L 144.04317 -42.68 
L 145.703289 -42.68 
L 147.363408 -42.68 
L 149.023527 -42.68 
L 150.683646 -42.68 
L 152.343764 -42.68 
L 154.003883 -42.68 
L 155.664002 -42.68 
L 157.324121 -42.68 
L 158.984239 -42.68 
L 160.644358 -42.68 
L 162.304477 -42.68 
L 163.964596 -42.68 
L 165.624714 -42.68 
L 167.284833 -42.68 
L 168.944952 -42.68 
L 170.605071 -42.68 
L 172.26519 -42.68 
L 173.925308 -42.68 
L 175.585427 -42.68 
L 177.245546 -42.68 
L 178.905665 -42.68 
L 180.565783 -42.68 
L 182.225902 -42.68 
L 183.886021 -42.68 
L 185.54614 -42.68 
L 187.206259 -42.68 
L 188.866377 -42.68 
L 190.526496 -42.68 
L 192.186615 -42.68 
L 193.846734 -42.68 
L 195.506852 -42.68 
L 197.166971 -42.68 
L 198.82709 -42.68 
L 200.487209 -42.68 
L 202.147328 -42.68 
L 203.807446 -42.68 
L 205.467565 -42.68 
L 207.127684 -42.68 
L 208.787803 -42.68 
L 210.447921 -42.68 
L 212.10804 -42.68 
L 213.768159 -42.68 
L 215.428278 -42.68 
L 217.088397 -42.68 
L 218.748515 -42.68 
L 220.408634 -42.68 
L 222.068753 -42.68 
L 223.728872 -42.68 
L 225.38899 -42.68 
L 227.049109 -42.68 
L 228.709228 -42.68 
L 230.369347 -42.68 
L 232.029466 -42.68 
L 233.689584 -42.68 
L 235.349703 -42.68 
L 237.009822 -42.68 
L 238.669941 -42.68 
L 240.330059 -42.68 
L 241.990178 -42.68 
L 243.650297 -42.68 
L 245.310416 -42.68 
L 246.970534 -42.68 
L 248.630653 -42.68 
L 250.290772 -42.68 
L 251.950891 -42.68 
L 253.61101 -42.68 
L 255.271128 -42.68 
L 256.931247 -42.68 
L 258.591366 -42.68 
L 260.251485 -42.68 
L 261.911603 -42.68 
L 263.571722 -42.68 
L 265.231841 -42.68 
L 266.89196 -42.68 
L 268.552079 -42.68 
L 270.212197 -42.68 
L 271.872316 -42.68 
L 273.532435 -42.68 
L 275.192554 -42.68 
L 276.852672 -42.68 
L 278.512791 -42.68 
L 280.17291 -42.68 
L 281.833029 -42.68 
L 283.493148 -42.68 
L 285.153266 -42.68 
L 286.813385 -42.68 
L 288.473504 -42.68 
L 290.133623 -42.68 
L 291.793741 -42.68 
L 293.45386 -42.68 
L 295.113979 -42.68 
L 296.774098 -42.68 
L 298.434217 -42.68 
L 300.094335 -42.68 
L 301.754454 -42.68 
L 303.414573 -42.68 
L 305.074692 -42.68 
L 306.73481 -42.68 
L 308.394929 -42.68 
L 310.055048 -42.68 
L 311.715167 -42.68 
L 313.375286 -42.68 
L 315.035404 -42.68 
L 316.695523 -42.68 
L 318.355642 -42.68 
L 320.015761 -42.68 
L 321.675879 -42.68 
L 323.335998 -42.68 
L 324.996117 -42.68 
L 326.656236 -42.68 
L 328.316354 -42.68 
L 329.976473 -42.68 
L 331.636592 -42.68 
L 333.296711 -42.68 
L 334.95683 -42.68 
L 336.616948 -42.68 
L 338.277067 -42.68 
L 339.937186 -42.68 
L 341.597305 -42.68 
L 343.257423 -42.68 
L 344.917542 -42.68 
L 346.577661 -42.68 
L 348.23778 -42.68 
L 349.897899 -42.68 
L 351.558017 -42.68 
L 353.218136 -42.68 
L 354.878255 -42.68 
L 356.538374 -42.68 
L 358.198492 -42.68 
L 359.858611 -42.68 
L 361.51873 -42.68 
L 363.178849 -42.68 
L 364.838968 -42.68 
L 366.499086 -42.68 
L 368.159205 -42.68 
L 369.819324 -42.68 
L 371.479443 -42.68 
L 373.139561 -42.68 
L 374.79968 -42.68 
L 376.459799 -42.68 
L 378.119918 -42.68 
L 379.780037 -42.68 
L 381.440155 -42.68 
L 383.100274 -42.68 
L 384.760393 -42.68 
L 386.420512 -42.68 
L 388.08063 -42.68 
L 389.740749 -42.68 
L 391.400868 -42.68 
L 393.060987 -42.68 
L 394.721106 -42.68 
L 396.381224 -42.68 
L 398.041343 -42.68 
L 399.701462 -42.68 
L 401.361581 -42.68 
L 403.021699 -42.68 
L 404.681818 -42.68 
L 404.681818 -42.711107 
L 404.681818 -42.711107 
L 403.021699 -42.73214 
L 401.361581 -42.765804 
L 399.701462 -42.818652 
L 398.041343 -42.900023 
L 396.381224 -43.02292 
L 394.721106 -43.204991 
L 393.060987 -43.469599 
L 391.400868 -43.846863 
L 389.740749 -44.374568 
L 388.08063 -45.098776 
L 386.420512 -46.073955 
L 384.760393 -47.362432 
L 383.100274 -49.032988 
L 381.440155 -51.158467 
L 379.780037 -53.812343 
L 378.119918 -57.064313 
L 376.459799 -60.975093 
L 374.79968 -65.590759 
L 373.139561 -70.937078 
L 371.479443 -77.014362 
L 369.819324 -83.793424 
L 368.159205 -91.213154 
L 366.499086 -99.180136 
L 364.838968 -107.570552 
L 363.178849 -116.234392 
L 361.51873 -125.001762 
L 359.858611 -133.690847 
L 358.198492 -142.11695 
L 356.538374 -150.101856 
L 354.878255 -157.482836 
L 353.218136 -164.120561 
L 351.558017 -169.905393 
L 349.897899 -174.761632 
L 348.23778 -178.649484 
L 346.577661 -181.564714 
L 344.917542 -183.5361 
L 343.257423 -184.620954 
L 341.597305 -184.899103 
L 339.937186 -184.46585 
L 338.277067 -183.424471 
L 336.616948 -181.878884 
L 334.95683 -179.927104 
L 333.296711 -177.656031 
L 331.636592 -175.138005 
L 329.976473 -172.429344 
L 328.316354 -169.570893 
L 326.656236 -166.590312 
L 324.996117 -163.505649 
L 323.335998 -160.329569 
L 321.675879 -157.073532 
L 320.015761 -153.751278 
L 318.355642 -150.381119 
L 316.695523 -146.986746 
L 315.035404 -143.59658 
L 313.375286 -140.241906 
L 311.715167 -136.954268 
L 310.055048 -133.76268 
L 308.394929 -130.691217 
L 306.73481 -127.757414 
L 305.074692 -124.971711 
L 303.414573 -122.337944 
L 301.754454 -119.854651 
L 300.094335 -117.516849 
L 298.434217 -115.317832 
L 296.774098 -113.250607 
L 295.113979 -111.308725 
L 293.45386 -109.486402 
L 291.793741 -107.778049 
L 290.133623 -106.177434 
L 288.473504 -104.6768 
L 286.813385 -103.266236 
L 285.153266 -101.933529 
L 283.493148 -100.664577 
L 281.833029 -99.44432 
L 280.17291 -98.258001 
L 278.512791 -97.092511 
L 276.852672 -95.93755 
L 275.192554 -94.786392 
L 273.532435 -93.636106 
L 271.872316 -92.487231 
L 270.212197 -91.342957 
L 268.552079 -90.207983 
L 266.89196 -89.087233 
L 265.231841 -87.984631 
L 263.571722 -86.902094 
L 261.911603 -85.83888 
L 260.251485 -84.791344 
L 258.591366 -83.753119 
L 256.931247 -82.715688 
L 255.271128 -81.669265 
L 253.61101 -80.603885 
L 251.950891 -79.510572 
L 250.290772 -78.382454 
L 248.630653 -77.215685 
L 246.970534 -76.010089 
L 245.310416 -74.769427 
L 243.650297 -73.501278 
L 241.990178 -72.216538 
L 240.330059 -70.928622 
L 238.669941 -69.652438 
L 237.009822 -68.403282 
L 235.349703 -67.195724 
L 233.689584 -66.042631 
L 232.029466 -64.95435 
L 230.369347 -63.938144 
L 228.709228 -62.99787 
L 227.049109 -62.133914 
L 225.38899 -61.343376 
L 223.728872 -60.620468 
L 222.068753 -59.957087 
L 220.408634 -59.343517 
L 218.748515 -58.76919 
L 217.088397 -58.223433 
L 215.428278 -57.696126 
L 213.768159 -57.178219 
L 212.10804 -56.662064 
L 210.447921 -56.141557 
L 208.787803 -55.612131 
L 207.127684 -55.070638 
L 205.467565 -54.515212 
L 203.807446 -53.945174 
L 202.147328 -53.361028 
L 200.487209 -52.764564 
L 198.82709 -52.15906 
L 197.166971 -51.549495 
L 195.506852 -50.942717 
L 193.846734 -50.347467 
L 192.186615 -49.774171 
L 190.526496 -49.234481 
L 188.866377 -48.740538 
L 187.206259 -48.304028 
L 185.54614 -47.935104 
L 183.886021 -47.641321 
L 182.225902 -47.426701 
L 180.565783 -47.291068 
L 178.905665 -47.22976 
L 177.245546 -47.233764 
L 175.585427 -47.290284 
L 173.925308 -47.383686 
L 172.26519 -47.496709 
L 170.605071 -47.61182 
L 168.944952 -47.712546 
L 167.284833 -47.784644 
L 165.624714 -47.817008 
L 163.964596 -47.802216 
L 162.304477 -47.736719 
L 160.644358 -47.620673 
L 158.984239 -47.457491 
L 157.324121 -47.253186 
L 155.664002 -47.015604 
L 154.003883 -46.753638 
L 152.343764 -46.476486 
L 150.683646 -46.193017 
L 149.023527 -45.911272 
L 147.363408 -45.638113 
L 145.703289 -45.379022 
L 144.04317 -45.138032 
L 142.383052 -44.917779 
L 140.722933 -44.719642 
L 139.062814 -44.543943 
L 137.402695 -44.390188 
L 135.742577 -44.2573 
L 134.082458 -44.143838 
L 132.422339 -44.04817 
L 130.76222 -43.968582 
L 129.102101 -43.903334 
L 127.441983 -43.850662 
L 125.781864 -43.808744 
L 124.121745 -43.775645 
L 122.461626 -43.749288 
L 120.801508 -43.72744 
L 119.141389 -43.707755 
L 117.48127 -43.687862 
L 115.821151 -43.66549 
L 114.161032 -43.638626 
L 112.500914 -43.60567 
L 110.840795 -43.565569 
L 109.180676 -43.517907 
L 107.520557 -43.462935 
L 105.860439 -43.401537 
L 104.20032 -43.335131 
L 102.540201 -43.265523 
L 100.880082 -43.194732 
L 99.219963 -43.124804 
L 97.559845 -43.05764 
L 95.899726 -42.99486 
L 94.239607 -42.937706 
L 92.579488 -42.886995 
L 90.91937 -42.843118 
L 89.259251 -42.80608 
L 87.599132 -42.775566 
L 85.939013 -42.75102 
L 84.278894 -42.731739 
L 82.618776 -42.716943 
L 80.958657 -42.705851 
L 79.298538 -42.697725 
L 77.638419 -42.691908 
L 75.978301 -42.687837 
L 74.318182 -42.685052 
z
" style="stroke: #bdbdbd; stroke-width: 2.5"/>
    </defs>
    <g clip-path="url(#pcadb283ea1)">
     <use xlink:href="#m258e18669a" x="0" y="432" style="fill: #bdbdbd; fill-opacity: 0.5; stroke: #bdbdbd; stroke-width: 2.5"/>
    </g>
   </g>
   <g id="PolyCollection_2">
    <defs>
     <path id="mab1f74c31e" d="M 117.125109 -42.687762 
L 117.125109 -42.68 
L 118.531117 -42.68 
L 119.937124 -42.68 
L 121.343132 -42.68 
L 122.749139 -42.68 
L 124.155147 -42.68 
L 125.561154 -42.68 
L 126.967161 -42.68 
L 128.373169 -42.68 
L 129.779176 -42.68 
L 131.185184 -42.68 
L 132.591191 -42.68 
L 133.997199 -42.68 
L 135.403206 -42.68 
L 136.809214 -42.68 
L 138.215221 -42.68 
L 139.621228 -42.68 
L 141.027236 -42.68 
L 142.433243 -42.68 
L 143.839251 -42.68 
L 145.245258 -42.68 
L 146.651266 -42.68 
L 148.057273 -42.68 
L 149.46328 -42.68 
L 150.869288 -42.68 
L 152.275295 -42.68 
L 153.681303 -42.68 
L 155.08731 -42.68 
L 156.493318 -42.68 
L 157.899325 -42.68 
L 159.305332 -42.68 
L 160.71134 -42.68 
L 162.117347 -42.68 
L 163.523355 -42.68 
L 164.929362 -42.68 
L 166.33537 -42.68 
L 167.741377 -42.68 
L 169.147385 -42.68 
L 170.553392 -42.68 
L 171.959399 -42.68 
L 173.365407 -42.68 
L 174.771414 -42.68 
L 176.177422 -42.68 
L 177.583429 -42.68 
L 178.989437 -42.68 
L 180.395444 -42.68 
L 181.801451 -42.68 
L 183.207459 -42.68 
L 184.613466 -42.68 
L 186.019474 -42.68 
L 187.425481 -42.68 
L 188.831489 -42.68 
L 190.237496 -42.68 
L 191.643504 -42.68 
L 193.049511 -42.68 
L 194.455518 -42.68 
L 195.861526 -42.68 
L 197.267533 -42.68 
L 198.673541 -42.68 
L 200.079548 -42.68 
L 201.485556 -42.68 
L 202.891563 -42.68 
L 204.29757 -42.68 
L 205.703578 -42.68 
L 207.109585 -42.68 
L 208.515593 -42.68 
L 209.9216 -42.68 
L 211.327608 -42.68 
L 212.733615 -42.68 
L 214.139622 -42.68 
L 215.54563 -42.68 
L 216.951637 -42.68 
L 218.357645 -42.68 
L 219.763652 -42.68 
L 221.16966 -42.68 
L 222.575667 -42.68 
L 223.981675 -42.68 
L 225.387682 -42.68 
L 226.793689 -42.68 
L 228.199697 -42.68 
L 229.605704 -42.68 
L 231.011712 -42.68 
L 232.417719 -42.68 
L 233.823727 -42.68 
L 235.229734 -42.68 
L 236.635741 -42.68 
L 238.041749 -42.68 
L 239.447756 -42.68 
L 240.853764 -42.68 
L 242.259771 -42.68 
L 243.665779 -42.68 
L 245.071786 -42.68 
L 246.477794 -42.68 
L 247.883801 -42.68 
L 249.289808 -42.68 
L 250.695816 -42.68 
L 252.101823 -42.68 
L 253.507831 -42.68 
L 254.913838 -42.68 
L 256.319846 -42.68 
L 257.725853 -42.68 
L 259.13186 -42.68 
L 260.537868 -42.68 
L 261.943875 -42.68 
L 263.349883 -42.68 
L 264.75589 -42.68 
L 266.161898 -42.68 
L 267.567905 -42.68 
L 268.973912 -42.68 
L 270.37992 -42.68 
L 271.785927 -42.68 
L 273.191935 -42.68 
L 274.597942 -42.68 
L 276.00395 -42.68 
L 277.409957 -42.68 
L 278.815965 -42.68 
L 280.221972 -42.68 
L 281.627979 -42.68 
L 283.033987 -42.68 
L 284.439994 -42.68 
L 285.846002 -42.68 
L 287.252009 -42.68 
L 288.658017 -42.68 
L 290.064024 -42.68 
L 291.470031 -42.68 
L 292.876039 -42.68 
L 294.282046 -42.68 
L 295.688054 -42.68 
L 297.094061 -42.68 
L 298.500069 -42.68 
L 299.906076 -42.68 
L 301.312084 -42.68 
L 302.718091 -42.68 
L 304.124098 -42.68 
L 305.530106 -42.68 
L 306.936113 -42.68 
L 308.342121 -42.68 
L 309.748128 -42.68 
L 311.154136 -42.68 
L 312.560143 -42.68 
L 313.96615 -42.68 
L 315.372158 -42.68 
L 316.778165 -42.68 
L 318.184173 -42.68 
L 319.59018 -42.68 
L 320.996188 -42.68 
L 322.402195 -42.68 
L 323.808202 -42.68 
L 325.21421 -42.68 
L 326.620217 -42.68 
L 328.026225 -42.68 
L 329.432232 -42.68 
L 330.83824 -42.68 
L 332.244247 -42.68 
L 333.650255 -42.68 
L 335.056262 -42.68 
L 336.462269 -42.68 
L 337.868277 -42.68 
L 339.274284 -42.68 
L 340.680292 -42.68 
L 342.086299 -42.68 
L 343.492307 -42.68 
L 344.898314 -42.68 
L 346.304321 -42.68 
L 347.710329 -42.68 
L 349.116336 -42.68 
L 350.522344 -42.68 
L 351.928351 -42.68 
L 353.334359 -42.68 
L 354.740366 -42.68 
L 356.146373 -42.68 
L 357.552381 -42.68 
L 358.958388 -42.68 
L 360.364396 -42.68 
L 361.770403 -42.68 
L 363.176411 -42.68 
L 364.582418 -42.68 
L 365.988426 -42.68 
L 367.394433 -42.68 
L 368.80044 -42.68 
L 370.206448 -42.68 
L 371.612455 -42.68 
L 373.018463 -42.68 
L 374.42447 -42.68 
L 375.830478 -42.68 
L 377.236485 -42.68 
L 378.642492 -42.68 
L 380.0485 -42.68 
L 381.454507 -42.68 
L 382.860515 -42.68 
L 384.266522 -42.68 
L 385.67253 -42.68 
L 387.078537 -42.68 
L 388.484545 -42.68 
L 389.890552 -42.68 
L 391.296559 -42.68 
L 392.702567 -42.68 
L 394.108574 -42.68 
L 395.514582 -42.68 
L 396.920589 -42.68 
L 396.920589 -42.825581 
L 396.920589 -42.825581 
L 395.514582 -42.976115 
L 394.108574 -43.260297 
L 392.702567 -43.776098 
L 391.296559 -44.67638 
L 389.890552 -46.187713 
L 388.484545 -48.62831 
L 387.078537 -52.420046 
L 385.67253 -58.087875 
L 384.266522 -66.239308 
L 382.860515 -77.517829 
L 381.454507 -92.527874 
L 380.0485 -111.735069 
L 378.642492 -135.353117 
L 377.236485 -163.236 
L 375.830478 -194.798821 
L 374.42447 -228.990426 
L 373.018463 -264.334595 
L 371.612455 -299.044717 
L 370.206448 -331.20151 
L 368.80044 -358.968436 
L 367.394433 -380.808853 
L 365.988426 -395.666057 
L 364.582418 -403.073367 
L 363.176411 -403.175238 
L 361.770403 -396.658732 
L 360.364396 -384.61291 
L 358.958388 -368.347326 
L 357.552381 -349.206498 
L 356.146373 -328.414044 
L 354.740366 -306.969524 
L 353.334359 -285.606292 
L 351.928351 -264.804143 
L 350.522344 -244.839994 
L 349.116336 -225.855419 
L 347.710329 -207.921599 
L 346.304321 -191.088429 
L 344.898314 -175.412241 
L 343.492307 -160.963408 
L 342.086299 -147.819322 
L 340.680292 -136.04964 
L 339.274284 -125.699995 
L 337.868277 -116.778642 
L 336.462269 -109.248644 
L 335.056262 -103.026587 
L 333.650255 -97.98758 
L 332.244247 -93.975263 
L 330.83824 -90.81488 
L 329.432232 -88.327116 
L 328.026225 -86.340674 
L 326.620217 -84.702173 
L 325.21421 -83.282803 
L 323.808202 -81.981908 
L 322.402195 -80.727976 
L 320.996188 -79.477566 
L 319.59018 -78.212475 
L 318.184173 -76.93533 
L 316.778165 -75.663825 
L 315.372158 -74.424092 
L 313.96615 -73.243983 
L 312.560143 -72.147186 
L 311.154136 -71.149027 
L 309.748128 -70.254446 
L 308.342121 -69.458197 
L 306.936113 -68.746868 
L 305.530106 -68.10206 
L 304.124098 -67.503983 
L 302.718091 -66.934786 
L 301.312084 -66.381135 
L 299.906076 -65.835703 
L 298.500069 -65.297404 
L 297.094061 -64.770337 
L 295.688054 -64.261628 
L 294.282046 -63.778544 
L 292.876039 -63.3255 
L 291.470031 -62.90168 
L 290.064024 -62.499887 
L 288.658017 -62.106913 
L 287.252009 -61.705246 
L 285.846002 -61.275555 
L 284.439994 -60.799208 
L 283.033987 -60.26027 
L 281.627979 -59.646804 
L 280.221972 -58.951669 
L 278.815965 -58.173195 
L 277.409957 -57.315935 
L 276.00395 -56.391348 
L 274.597942 -55.417928 
L 273.191935 -54.4202 
L 271.785927 -53.426321 
L 270.37992 -52.464523 
L 268.973912 -51.559207 
L 267.567905 -50.727722 
L 266.161898 -49.978761 
L 264.75589 -49.312783 
L 263.349883 -48.724201 
L 261.943875 -48.2046 
L 260.537868 -47.745972 
L 259.13186 -47.343117 
L 257.725853 -46.994693 
L 256.319846 -46.702827 
L 254.913838 -46.471586 
L 253.507831 -46.304794 
L 252.101823 -46.203819 
L 250.695816 -46.165861 
L 249.289808 -46.183162 
L 247.883801 -46.243267 
L 246.477794 -46.330214 
L 245.071786 -46.42626 
L 243.665779 -46.513669 
L 242.259771 -46.576169 
L 240.853764 -46.599958 
L 239.447756 -46.574392 
L 238.041749 -46.492628 
L 236.635741 -46.352421 
L 235.229734 -46.157 
L 233.823727 -45.915653 
L 232.417719 -45.643497 
L 231.011712 -45.360025 
L 229.605704 -45.086402 
L 228.199697 -44.841937 
L 226.793689 -44.640566 
L 225.387682 -44.488261 
L 223.981675 -44.382108 
L 222.575667 -44.311313 
L 221.16966 -44.25989 
L 219.763652 -44.210308 
L 218.357645 -44.14719 
L 216.951637 -44.060193 
L 215.54563 -43.945501 
L 214.139622 -43.805771 
L 212.733615 -43.64877 
L 211.327608 -43.485231 
L 209.9216 -43.326544 
L 208.515593 -43.182847 
L 207.109585 -43.061836 
L 205.703578 -42.968377 
L 204.29757 -42.904756 
L 202.891563 -42.871257 
L 201.485556 -42.866758 
L 200.079548 -42.889083 
L 198.673541 -42.935027 
L 197.267533 -43.000121 
L 195.861526 -43.078359 
L 194.455518 -43.162137 
L 193.049511 -43.242627 
L 191.643504 -43.310644 
L 190.237496 -43.357902 
L 188.831489 -43.378367 
L 187.425481 -43.369339 
L 186.019474 -43.331954 
L 184.613466 -43.27094 
L 183.207459 -43.193707 
L 181.801451 -43.10902 
L 180.395444 -43.025616 
L 178.989437 -42.95111 
L 177.583429 -42.891372 
L 176.177422 -42.850398 
L 174.771414 -42.830528 
L 173.365407 -42.832771 
L 171.959399 -42.857017 
L 170.553392 -42.902014 
L 169.147385 -42.965119 
L 167.741377 -43.041972 
L 166.33537 -43.126342 
L 164.929362 -43.210354 
L 163.523355 -43.285229 
L 162.117347 -43.342485 
L 160.71134 -43.375378 
L 159.305332 -43.380223 
L 157.899325 -43.357256 
L 156.493318 -43.310769 
L 155.08731 -43.248496 
L 153.681303 -43.180371 
L 152.275295 -43.116954 
L 150.869288 -43.067847 
L 149.46328 -43.040341 
L 148.057273 -43.038469 
L 146.651266 -43.062505 
L 145.245258 -43.108928 
L 143.839251 -43.17086 
L 142.433243 -43.238952 
L 141.027236 -43.302685 
L 139.621228 -43.351931 
L 138.215221 -43.378548 
L 136.809214 -43.377675 
L 135.403206 -43.348441 
L 133.997199 -43.29391 
L 132.591191 -43.220277 
L 131.185184 -43.135527 
L 129.779176 -43.047924 
L 128.373169 -42.964661 
L 126.967161 -42.890965 
L 125.561154 -42.829762 
L 124.155147 -42.781836 
L 122.749139 -42.746329 
L 121.343132 -42.721382 
L 119.937124 -42.70473 
L 118.531117 -42.694156 
L 117.125109 -42.687762 
z
" style="stroke: #92c5de; stroke-width: 2.5"/>
    </defs>
    <g clip-path="url(#pcadb283ea1)">
     <use xlink:href="#mab1f74c31e" x="0" y="432" style="fill: #92c5de; fill-opacity: 0.5; stroke: #92c5de; stroke-width: 2.5"/>
    </g>
   </g>
   <g id="PolyCollection_3">
    <defs>
     <path id="m7b762a1364" d="M 77.795479 -42.68746 
L 77.795479 -42.68 
L 79.406818 -42.68 
L 81.018157 -42.68 
L 82.629496 -42.68 
L 84.240835 -42.68 
L 85.852174 -42.68 
L 87.463513 -42.68 
L 89.074852 -42.68 
L 90.686191 -42.68 
L 92.29753 -42.68 
L 93.908869 -42.68 
L 95.520208 -42.68 
L 97.131547 -42.68 
L 98.742886 -42.68 
L 100.354225 -42.68 
L 101.965564 -42.68 
L 103.576903 -42.68 
L 105.188242 -42.68 
L 106.799582 -42.68 
L 108.410921 -42.68 
L 110.02226 -42.68 
L 111.633599 -42.68 
L 113.244938 -42.68 
L 114.856277 -42.68 
L 116.467616 -42.68 
L 118.078955 -42.68 
L 119.690294 -42.68 
L 121.301633 -42.68 
L 122.912972 -42.68 
L 124.524311 -42.68 
L 126.13565 -42.68 
L 127.746989 -42.68 
L 129.358328 -42.68 
L 130.969667 -42.68 
L 132.581006 -42.68 
L 134.192345 -42.68 
L 135.803684 -42.68 
L 137.415023 -42.68 
L 139.026362 -42.68 
L 140.637702 -42.68 
L 142.249041 -42.68 
L 143.86038 -42.68 
L 145.471719 -42.68 
L 147.083058 -42.68 
L 148.694397 -42.68 
L 150.305736 -42.68 
L 151.917075 -42.68 
L 153.528414 -42.68 
L 155.139753 -42.68 
L 156.751092 -42.68 
L 158.362431 -42.68 
L 159.97377 -42.68 
L 161.585109 -42.68 
L 163.196448 -42.68 
L 164.807787 -42.68 
L 166.419126 -42.68 
L 168.030465 -42.68 
L 169.641804 -42.68 
L 171.253143 -42.68 
L 172.864482 -42.68 
L 174.475822 -42.68 
L 176.087161 -42.68 
L 177.6985 -42.68 
L 179.309839 -42.68 
L 180.921178 -42.68 
L 182.532517 -42.68 
L 184.143856 -42.68 
L 185.755195 -42.68 
L 187.366534 -42.68 
L 188.977873 -42.68 
L 190.589212 -42.68 
L 192.200551 -42.68 
L 193.81189 -42.68 
L 195.423229 -42.68 
L 197.034568 -42.68 
L 198.645907 -42.68 
L 200.257246 -42.68 
L 201.868585 -42.68 
L 203.479924 -42.68 
L 205.091263 -42.68 
L 206.702602 -42.68 
L 208.313942 -42.68 
L 209.925281 -42.68 
L 211.53662 -42.68 
L 213.147959 -42.68 
L 214.759298 -42.68 
L 216.370637 -42.68 
L 217.981976 -42.68 
L 219.593315 -42.68 
L 221.204654 -42.68 
L 222.815993 -42.68 
L 224.427332 -42.68 
L 226.038671 -42.68 
L 227.65001 -42.68 
L 229.261349 -42.68 
L 230.872688 -42.68 
L 232.484027 -42.68 
L 234.095366 -42.68 
L 235.706705 -42.68 
L 237.318044 -42.68 
L 238.929383 -42.68 
L 240.540722 -42.68 
L 242.152061 -42.68 
L 243.763401 -42.68 
L 245.37474 -42.68 
L 246.986079 -42.68 
L 248.597418 -42.68 
L 250.208757 -42.68 
L 251.820096 -42.68 
L 253.431435 -42.68 
L 255.042774 -42.68 
L 256.654113 -42.68 
L 258.265452 -42.68 
L 259.876791 -42.68 
L 261.48813 -42.68 
L 263.099469 -42.68 
L 264.710808 -42.68 
L 266.322147 -42.68 
L 267.933486 -42.68 
L 269.544825 -42.68 
L 271.156164 -42.68 
L 272.767503 -42.68 
L 274.378842 -42.68 
L 275.990181 -42.68 
L 277.601521 -42.68 
L 279.21286 -42.68 
L 280.824199 -42.68 
L 282.435538 -42.68 
L 284.046877 -42.68 
L 285.658216 -42.68 
L 287.269555 -42.68 
L 288.880894 -42.68 
L 290.492233 -42.68 
L 292.103572 -42.68 
L 293.714911 -42.68 
L 295.32625 -42.68 
L 296.937589 -42.68 
L 298.548928 -42.68 
L 300.160267 -42.68 
L 301.771606 -42.68 
L 303.382945 -42.68 
L 304.994284 -42.68 
L 306.605623 -42.68 
L 308.216962 -42.68 
L 309.828301 -42.68 
L 311.439641 -42.68 
L 313.05098 -42.68 
L 314.662319 -42.68 
L 316.273658 -42.68 
L 317.884997 -42.68 
L 319.496336 -42.68 
L 321.107675 -42.68 
L 322.719014 -42.68 
L 324.330353 -42.68 
L 325.941692 -42.68 
L 327.553031 -42.68 
L 329.16437 -42.68 
L 330.775709 -42.68 
L 332.387048 -42.68 
L 333.998387 -42.68 
L 335.609726 -42.68 
L 337.221065 -42.68 
L 338.832404 -42.68 
L 340.443743 -42.68 
L 342.055082 -42.68 
L 343.666421 -42.68 
L 345.277761 -42.68 
L 346.8891 -42.68 
L 348.500439 -42.68 
L 350.111778 -42.68 
L 351.723117 -42.68 
L 353.334456 -42.68 
L 354.945795 -42.68 
L 356.557134 -42.68 
L 358.168473 -42.68 
L 359.779812 -42.68 
L 361.391151 -42.68 
L 363.00249 -42.68 
L 364.613829 -42.68 
L 366.225168 -42.68 
L 367.836507 -42.68 
L 369.447846 -42.68 
L 371.059185 -42.68 
L 372.670524 -42.68 
L 374.281863 -42.68 
L 375.893202 -42.68 
L 377.504541 -42.68 
L 379.11588 -42.68 
L 380.72722 -42.68 
L 382.338559 -42.68 
L 383.949898 -42.68 
L 385.561237 -42.68 
L 387.172576 -42.68 
L 388.783915 -42.68 
L 390.395254 -42.68 
L 392.006593 -42.68 
L 393.617932 -42.68 
L 395.229271 -42.68 
L 396.84061 -42.68 
L 398.451949 -42.68 
L 398.451949 -42.775653 
L 398.451949 -42.775653 
L 396.84061 -42.893698 
L 395.229271 -43.136447 
L 393.617932 -43.612416 
L 392.006593 -44.502262 
L 390.395254 -46.088475 
L 388.783915 -48.784381 
L 387.172576 -53.152679 
L 385.561237 -59.899999 
L 383.949898 -69.83296 
L 382.338559 -83.765417 
L 380.72722 -102.377231 
L 379.11588 -126.040722 
L 377.504541 -154.647932 
L 375.893202 -187.483244 
L 374.281863 -223.185591 
L 372.670524 -259.829229 
L 371.059185 -295.124243 
L 369.447846 -326.705639 
L 367.836507 -352.453837 
L 366.225168 -370.779119 
L 364.613829 -380.81174 
L 363.00249 -382.464772 
L 361.391151 -376.369225 
L 359.779812 -363.709973 
L 358.168473 -346.008161 
L 356.557134 -324.89829 
L 354.945795 -301.938238 
L 353.334456 -278.473997 
L 351.723117 -255.564255 
L 350.111778 -233.957814 
L 348.500439 -214.11092 
L 346.8891 -196.230992 
L 345.277761 -180.33523 
L 343.666421 -166.314735 
L 342.055082 -153.99579 
L 340.443743 -143.190333 
L 338.832404 -133.729159 
L 337.221065 -125.475042 
L 335.609726 -118.318516 
L 333.998387 -112.164186 
L 332.387048 -106.917519 
L 330.775709 -102.479654 
L 329.16437 -98.751912 
L 327.553031 -95.645522 
L 325.941692 -93.088891 
L 324.330353 -91.026184 
L 322.719014 -89.405974 
L 321.107675 -88.164413 
L 319.496336 -87.210722 
L 317.884997 -86.422343 
L 316.273658 -85.653363 
L 314.662319 -84.754761 
L 313.05098 -83.600767 
L 311.439641 -82.113469 
L 309.828301 -80.278257 
L 308.216962 -78.145324 
L 306.605623 -75.816537 
L 304.994284 -73.42133 
L 303.382945 -71.088608 
L 301.771606 -68.922649 
L 300.160267 -66.989227 
L 298.548928 -65.314121 
L 296.937589 -63.891556 
L 295.32625 -62.696997 
L 293.714911 -61.698311 
L 292.103572 -60.861613 
L 290.492233 -60.151726 
L 288.880894 -59.530058 
L 287.269555 -58.953622 
L 285.658216 -58.377586 
L 284.046877 -57.76126 
L 282.435538 -57.075241 
L 280.824199 -56.306661 
L 279.21286 -55.4604 
L 277.601521 -54.556022 
L 275.990181 -53.621958 
L 274.378842 -52.689276 
L 272.767503 -51.786928 
L 271.156164 -50.939206 
L 269.544825 -50.165001 
L 267.933486 -49.478005 
L 266.322147 -48.887173 
L 264.710808 -48.397324 
L 263.099469 -48.01004 
L 261.48813 -47.724842 
L 259.876791 -47.540186 
L 258.265452 -47.453535 
L 256.654113 -47.460002 
L 255.042774 -47.54989 
L 253.431435 -47.706246 
L 251.820096 -47.903986 
L 250.208757 -48.111663 
L 248.597418 -48.295845 
L 246.986079 -48.426846 
L 245.37474 -48.483863 
L 243.763401 -48.457883 
L 242.152061 -48.351663 
L 240.540722 -48.177316 
L 238.929383 -47.952704 
L 237.318044 -47.697816 
L 235.706705 -47.43172 
L 234.095366 -47.170108 
L 232.484027 -46.92325 
L 230.872688 -46.694509 
L 229.261349 -46.479912 
L 227.65001 -46.26944 
L 226.038671 -46.050195 
L 224.427332 -45.81083 
L 222.815993 -45.545859 
L 221.204654 -45.258291 
L 219.593315 -44.959486 
L 217.981976 -44.666179 
L 216.370637 -44.395696 
L 214.759298 -44.161053 
L 213.147959 -43.967626 
L 211.53662 -43.81245 
L 209.925281 -43.686138 
L 208.313942 -43.576517 
L 206.702602 -43.472568 
L 205.091263 -43.367321 
L 203.479924 -43.258964 
L 201.868585 -43.150142 
L 200.257246 -43.046068 
L 198.645907 -42.952315 
L 197.034568 -42.873074 
L 195.423229 -42.810272 
L 193.81189 -42.763566 
L 192.200551 -42.730931 
L 190.589212 -42.709482 
L 188.977873 -42.696204 
L 187.366534 -42.688455 
L 185.755195 -42.684188 
L 184.143856 -42.681969 
L 182.532517 -42.680879 
L 180.921178 -42.680372 
L 179.309839 -42.68015 
L 177.6985 -42.680057 
L 176.087161 -42.680021 
L 174.475822 -42.680008 
L 172.864482 -42.680005 
L 171.253143 -42.680008 
L 169.641804 -42.68002 
L 168.030465 -42.680055 
L 166.419126 -42.680145 
L 164.807787 -42.680362 
L 163.196448 -42.680855 
L 161.585109 -42.68192 
L 159.97377 -42.684089 
L 158.362431 -42.688267 
L 156.751092 -42.695862 
L 155.139753 -42.708887 
L 153.528414 -42.729928 
L 151.917075 -42.761904 
L 150.305736 -42.80752 
L 148.694397 -42.868437 
L 147.083058 -42.944283 
L 145.471719 -43.031792 
L 143.86038 -43.124444 
L 142.249041 -43.21292 
L 140.637702 -43.286487 
L 139.026362 -43.335081 
L 137.415023 -43.351557 
L 135.803684 -43.333408 
L 134.192345 -43.283395 
L 132.581006 -43.208855 
L 130.969667 -43.119943 
L 129.358328 -43.027383 
L 127.746989 -42.940418 
L 126.13565 -42.865489 
L 124.524311 -42.805868 
L 122.912972 -42.762118 
L 121.301633 -42.73307 
L 119.690294 -42.716939 
L 118.078955 -42.712282 
L 116.467616 -42.718608 
L 114.856277 -42.736574 
L 113.244938 -42.767725 
L 111.633599 -42.81382 
L 110.02226 -42.875839 
L 108.410921 -42.952866 
L 106.799582 -43.041163 
L 105.188242 -43.13382 
L 103.576903 -43.221265 
L 101.965564 -43.292718 
L 100.354225 -43.338305 
L 98.742886 -43.351288 
L 97.131547 -43.329689 
L 95.520208 -43.276782 
L 93.908869 -43.200284 
L 92.29753 -43.110506 
L 90.686191 -43.01809 
L 89.074852 -42.931999 
L 87.463513 -42.858271 
L 85.852174 -42.799695 
L 84.240835 -42.756275 
L 82.629496 -42.726133 
L 81.018157 -42.706482 
L 79.406818 -42.694428 
L 77.795479 -42.68746 
z
" style="stroke: #2166ac; stroke-width: 2.5"/>
    </defs>
    <g clip-path="url(#pcadb283ea1)">
     <use xlink:href="#m7b762a1364" x="0" y="432" style="fill: #2166ac; fill-opacity: 0.5; stroke: #2166ac; stroke-width: 2.5"/>
    </g>
   </g>
   <g id="matplotlib.axis_1">
    <g id="xtick_1">
     <g id="line2d_1">
      <defs>
       <path id="m228b21e357" d="M 0 0 
L 0 3.5 
" style="stroke: #000000; stroke-width: 0.8"/>
      </defs>
      <g>
       <use xlink:href="#m228b21e357" x="109.279331" y="389.32" style="stroke: #000000; stroke-width: 0.8"/>
      </g>
     </g>
     <g id="text_1">
      <!-- 0 -->
      <g transform="translate(106.098081 403.918437) scale(0.1 -0.1)">
       <defs>
        <path id="DejaVuSans-30" d="M 2034 4250 
Q 1547 4250 1301 3770 
Q 1056 3291 1056 2328 
Q 1056 1369 1301 889 
Q 1547 409 2034 409 
Q 2525 409 2770 889 
Q 3016 1369 3016 2328 
Q 3016 3291 2770 3770 
Q 2525 4250 2034 4250 
z
M 2034 4750 
Q 2819 4750 3233 4129 
Q 3647 3509 3647 2328 
Q 3647 1150 3233 529 
Q 2819 -91 2034 -91 
Q 1250 -91 836 529 
Q 422 1150 422 2328 
Q 422 3509 836 4129 
Q 1250 4750 2034 4750 
z
" transform="scale(0.015625)"/>
       </defs>
       <use xlink:href="#DejaVuSans-30"/>
      </g>
     </g>
    </g>
    <g id="xtick_2">
     <g id="line2d_2">
      <g>
       <use xlink:href="#m228b21e357" x="176.885119" y="389.32" style="stroke: #000000; stroke-width: 0.8"/>
      </g>
     </g>
     <g id="text_2">
      <!-- 1 -->
      <g transform="translate(173.703869 403.918437) scale(0.1 -0.1)">
       <defs>
        <path id="DejaVuSans-31" d="M 794 531 
L 1825 531 
L 1825 4091 
L 703 3866 
L 703 4441 
L 1819 4666 
L 2450 4666 
L 2450 531 
L 3481 531 
L 3481 0 
L 794 0 
L 794 531 
z
" transform="scale(0.015625)"/>
       </defs>
       <use xlink:href="#DejaVuSans-31"/>
      </g>
     </g>
    </g>
    <g id="xtick_3">
     <g id="line2d_3">
      <g>
       <use xlink:href="#m228b21e357" x="244.490906" y="389.32" style="stroke: #000000; stroke-width: 0.8"/>
      </g>
     </g>
     <g id="text_3">
      <!-- 2 -->
      <g transform="translate(241.309656 403.918437) scale(0.1 -0.1)">
       <defs>
        <path id="DejaVuSans-32" d="M 1228 531 
L 3431 531 
L 3431 0 
L 469 0 
L 469 531 
Q 828 903 1448 1529 
Q 2069 2156 2228 2338 
Q 2531 2678 2651 2914 
Q 2772 3150 2772 3378 
Q 2772 3750 2511 3984 
Q 2250 4219 1831 4219 
Q 1534 4219 1204 4116 
Q 875 4013 500 3803 
L 500 4441 
Q 881 4594 1212 4672 
Q 1544 4750 1819 4750 
Q 2544 4750 2975 4387 
Q 3406 4025 3406 3419 
Q 3406 3131 3298 2873 
Q 3191 2616 2906 2266 
Q 2828 2175 2409 1742 
Q 1991 1309 1228 531 
z
" transform="scale(0.015625)"/>
       </defs>
       <use xlink:href="#DejaVuSans-32"/>
      </g>
     </g>
    </g>
    <g id="xtick_4">
     <g id="line2d_4">
      <g>
       <use xlink:href="#m228b21e357" x="312.096693" y="389.32" style="stroke: #000000; stroke-width: 0.8"/>
      </g>
     </g>
     <g id="text_4">
      <!-- 3 -->
      <g transform="translate(308.915443 403.918437) scale(0.1 -0.1)">
       <defs>
        <path id="DejaVuSans-33" d="M 2597 2516 
Q 3050 2419 3304 2112 
Q 3559 1806 3559 1356 
Q 3559 666 3084 287 
Q 2609 -91 1734 -91 
Q 1441 -91 1130 -33 
Q 819 25 488 141 
L 488 750 
Q 750 597 1062 519 
Q 1375 441 1716 441 
Q 2309 441 2620 675 
Q 2931 909 2931 1356 
Q 2931 1769 2642 2001 
Q 2353 2234 1838 2234 
L 1294 2234 
L 1294 2753 
L 1863 2753 
Q 2328 2753 2575 2939 
Q 2822 3125 2822 3475 
Q 2822 3834 2567 4026 
Q 2313 4219 1838 4219 
Q 1578 4219 1281 4162 
Q 984 4106 628 3988 
L 628 4550 
Q 988 4650 1302 4700 
Q 1616 4750 1894 4750 
Q 2613 4750 3031 4423 
Q 3450 4097 3450 3541 
Q 3450 3153 3228 2886 
Q 3006 2619 2597 2516 
z
" transform="scale(0.015625)"/>
       </defs>
       <use xlink:href="#DejaVuSans-33"/>
      </g>
     </g>
    </g>
    <g id="xtick_5">
     <g id="line2d_5">
      <g>
       <use xlink:href="#m228b21e357" x="379.70248" y="389.32" style="stroke: #000000; stroke-width: 0.8"/>
      </g>
     </g>
     <g id="text_5">
      <!-- 4 -->
      <g transform="translate(376.52123 403.918437) scale(0.1 -0.1)">
       <defs>
        <path id="DejaVuSans-34" d="M 2419 4116 
L 825 1625 
L 2419 1625 
L 2419 4116 
z
M 2253 4666 
L 3047 4666 
L 3047 1625 
L 3713 1625 
L 3713 1100 
L 3047 1100 
L 3047 0 
L 2419 0 
L 2419 1100 
L 313 1100 
L 313 1709 
L 2253 4666 
z
" transform="scale(0.015625)"/>
       </defs>
       <use xlink:href="#DejaVuSans-34"/>
      </g>
     </g>
    </g>
    <g id="text_6">
     <!-- Predicted Fluorescence -->
     <g transform="translate(169.90375 419.11625) scale(0.12 -0.12)">
      <defs>
       <path id="DejaVuSans-50" d="M 1259 4147 
L 1259 2394 
L 2053 2394 
Q 2494 2394 2734 2622 
Q 2975 2850 2975 3272 
Q 2975 3691 2734 3919 
Q 2494 4147 2053 4147 
L 1259 4147 
z
M 628 4666 
L 2053 4666 
Q 2838 4666 3239 4311 
Q 3641 3956 3641 3272 
Q 3641 2581 3239 2228 
Q 2838 1875 2053 1875 
L 1259 1875 
L 1259 0 
L 628 0 
L 628 4666 
z
" transform="scale(0.015625)"/>
       <path id="DejaVuSans-72" d="M 2631 2963 
Q 2534 3019 2420 3045 
Q 2306 3072 2169 3072 
Q 1681 3072 1420 2755 
Q 1159 2438 1159 1844 
L 1159 0 
L 581 0 
L 581 3500 
L 1159 3500 
L 1159 2956 
Q 1341 3275 1631 3429 
Q 1922 3584 2338 3584 
Q 2397 3584 2469 3576 
Q 2541 3569 2628 3553 
L 2631 2963 
z
" transform="scale(0.015625)"/>
       <path id="DejaVuSans-65" d="M 3597 1894 
L 3597 1613 
L 953 1613 
Q 991 1019 1311 708 
Q 1631 397 2203 397 
Q 2534 397 2845 478 
Q 3156 559 3463 722 
L 3463 178 
Q 3153 47 2828 -22 
Q 2503 -91 2169 -91 
Q 1331 -91 842 396 
Q 353 884 353 1716 
Q 353 2575 817 3079 
Q 1281 3584 2069 3584 
Q 2775 3584 3186 3129 
Q 3597 2675 3597 1894 
z
M 3022 2063 
Q 3016 2534 2758 2815 
Q 2500 3097 2075 3097 
Q 1594 3097 1305 2825 
Q 1016 2553 972 2059 
L 3022 2063 
z
" transform="scale(0.015625)"/>
       <path id="DejaVuSans-64" d="M 2906 2969 
L 2906 4863 
L 3481 4863 
L 3481 0 
L 2906 0 
L 2906 525 
Q 2725 213 2448 61 
Q 2172 -91 1784 -91 
Q 1150 -91 751 415 
Q 353 922 353 1747 
Q 353 2572 751 3078 
Q 1150 3584 1784 3584 
Q 2172 3584 2448 3432 
Q 2725 3281 2906 2969 
z
M 947 1747 
Q 947 1113 1208 752 
Q 1469 391 1925 391 
Q 2381 391 2643 752 
Q 2906 1113 2906 1747 
Q 2906 2381 2643 2742 
Q 2381 3103 1925 3103 
Q 1469 3103 1208 2742 
Q 947 2381 947 1747 
z
" transform="scale(0.015625)"/>
       <path id="DejaVuSans-69" d="M 603 3500 
L 1178 3500 
L 1178 0 
L 603 0 
L 603 3500 
z
M 603 4863 
L 1178 4863 
L 1178 4134 
L 603 4134 
L 603 4863 
z
" transform="scale(0.015625)"/>
       <path id="DejaVuSans-63" d="M 3122 3366 
L 3122 2828 
Q 2878 2963 2633 3030 
Q 2388 3097 2138 3097 
Q 1578 3097 1268 2742 
Q 959 2388 959 1747 
Q 959 1106 1268 751 
Q 1578 397 2138 397 
Q 2388 397 2633 464 
Q 2878 531 3122 666 
L 3122 134 
Q 2881 22 2623 -34 
Q 2366 -91 2075 -91 
Q 1284 -91 818 406 
Q 353 903 353 1747 
Q 353 2603 823 3093 
Q 1294 3584 2113 3584 
Q 2378 3584 2631 3529 
Q 2884 3475 3122 3366 
z
" transform="scale(0.015625)"/>
       <path id="DejaVuSans-74" d="M 1172 4494 
L 1172 3500 
L 2356 3500 
L 2356 3053 
L 1172 3053 
L 1172 1153 
Q 1172 725 1289 603 
Q 1406 481 1766 481 
L 2356 481 
L 2356 0 
L 1766 0 
Q 1100 0 847 248 
Q 594 497 594 1153 
L 594 3053 
L 172 3053 
L 172 3500 
L 594 3500 
L 594 4494 
L 1172 4494 
z
" transform="scale(0.015625)"/>
       <path id="DejaVuSans-20" transform="scale(0.015625)"/>
       <path id="DejaVuSans-46" d="M 628 4666 
L 3309 4666 
L 3309 4134 
L 1259 4134 
L 1259 2759 
L 3109 2759 
L 3109 2228 
L 1259 2228 
L 1259 0 
L 628 0 
L 628 4666 
z
" transform="scale(0.015625)"/>
       <path id="DejaVuSans-6c" d="M 603 4863 
L 1178 4863 
L 1178 0 
L 603 0 
L 603 4863 
z
" transform="scale(0.015625)"/>
       <path id="DejaVuSans-75" d="M 544 1381 
L 544 3500 
L 1119 3500 
L 1119 1403 
Q 1119 906 1312 657 
Q 1506 409 1894 409 
Q 2359 409 2629 706 
Q 2900 1003 2900 1516 
L 2900 3500 
L 3475 3500 
L 3475 0 
L 2900 0 
L 2900 538 
Q 2691 219 2414 64 
Q 2138 -91 1772 -91 
Q 1169 -91 856 284 
Q 544 659 544 1381 
z
M 1991 3584 
L 1991 3584 
z
" transform="scale(0.015625)"/>
       <path id="DejaVuSans-6f" d="M 1959 3097 
Q 1497 3097 1228 2736 
Q 959 2375 959 1747 
Q 959 1119 1226 758 
Q 1494 397 1959 397 
Q 2419 397 2687 759 
Q 2956 1122 2956 1747 
Q 2956 2369 2687 2733 
Q 2419 3097 1959 3097 
z
M 1959 3584 
Q 2709 3584 3137 3096 
Q 3566 2609 3566 1747 
Q 3566 888 3137 398 
Q 2709 -91 1959 -91 
Q 1206 -91 779 398 
Q 353 888 353 1747 
Q 353 2609 779 3096 
Q 1206 3584 1959 3584 
z
" transform="scale(0.015625)"/>
       <path id="DejaVuSans-73" d="M 2834 3397 
L 2834 2853 
Q 2591 2978 2328 3040 
Q 2066 3103 1784 3103 
Q 1356 3103 1142 2972 
Q 928 2841 928 2578 
Q 928 2378 1081 2264 
Q 1234 2150 1697 2047 
L 1894 2003 
Q 2506 1872 2764 1633 
Q 3022 1394 3022 966 
Q 3022 478 2636 193 
Q 2250 -91 1575 -91 
Q 1294 -91 989 -36 
Q 684 19 347 128 
L 347 722 
Q 666 556 975 473 
Q 1284 391 1588 391 
Q 1994 391 2212 530 
Q 2431 669 2431 922 
Q 2431 1156 2273 1281 
Q 2116 1406 1581 1522 
L 1381 1569 
Q 847 1681 609 1914 
Q 372 2147 372 2553 
Q 372 3047 722 3315 
Q 1072 3584 1716 3584 
Q 2034 3584 2315 3537 
Q 2597 3491 2834 3397 
z
" transform="scale(0.015625)"/>
       <path id="DejaVuSans-6e" d="M 3513 2113 
L 3513 0 
L 2938 0 
L 2938 2094 
Q 2938 2591 2744 2837 
Q 2550 3084 2163 3084 
Q 1697 3084 1428 2787 
Q 1159 2491 1159 1978 
L 1159 0 
L 581 0 
L 581 3500 
L 1159 3500 
L 1159 2956 
Q 1366 3272 1645 3428 
Q 1925 3584 2291 3584 
Q 2894 3584 3203 3211 
Q 3513 2838 3513 2113 
z
" transform="scale(0.015625)"/>
      </defs>
      <use xlink:href="#DejaVuSans-50"/>
      <use xlink:href="#DejaVuSans-72" x="58.552734"/>
      <use xlink:href="#DejaVuSans-65" x="97.416016"/>
      <use xlink:href="#DejaVuSans-64" x="158.939453"/>
      <use xlink:href="#DejaVuSans-69" x="222.416016"/>
      <use xlink:href="#DejaVuSans-63" x="250.199219"/>
      <use xlink:href="#DejaVuSans-74" x="305.179688"/>
      <use xlink:href="#DejaVuSans-65" x="344.388672"/>
      <use xlink:href="#DejaVuSans-64" x="405.912109"/>
      <use xlink:href="#DejaVuSans-20" x="469.388672"/>
      <use xlink:href="#DejaVuSans-46" x="501.175781"/>
      <use xlink:href="#DejaVuSans-6c" x="558.695312"/>
      <use xlink:href="#DejaVuSans-75" x="586.478516"/>
      <use xlink:href="#DejaVuSans-6f" x="649.857422"/>
      <use xlink:href="#DejaVuSans-72" x="711.039062"/>
      <use xlink:href="#DejaVuSans-65" x="749.902344"/>
      <use xlink:href="#DejaVuSans-73" x="811.425781"/>
      <use xlink:href="#DejaVuSans-63" x="863.525391"/>
      <use xlink:href="#DejaVuSans-65" x="918.505859"/>
      <use xlink:href="#DejaVuSans-6e" x="980.029297"/>
      <use xlink:href="#DejaVuSans-63" x="1043.408203"/>
      <use xlink:href="#DejaVuSans-65" x="1098.388672"/>
     </g>
    </g>
   </g>
   <g id="matplotlib.axis_2">
    <g id="ytick_1">
     <g id="line2d_6">
      <defs>
       <path id="maf95589e58" d="M 0 0 
L -3.5 0 
" style="stroke: #000000; stroke-width: 0.8"/>
      </defs>
      <g>
       <use xlink:href="#maf95589e58" x="57.8" y="389.32" style="stroke: #000000; stroke-width: 0.8"/>
      </g>
     </g>
     <g id="text_7">
      <!-- 0.00 -->
      <g transform="translate(28.534375 393.119219) scale(0.1 -0.1)">
       <defs>
        <path id="DejaVuSans-2e" d="M 684 794 
L 1344 794 
L 1344 0 
L 684 0 
L 684 794 
z
" transform="scale(0.015625)"/>
       </defs>
       <use xlink:href="#DejaVuSans-30"/>
       <use xlink:href="#DejaVuSans-2e" x="63.623047"/>
       <use xlink:href="#DejaVuSans-30" x="95.410156"/>
       <use xlink:href="#DejaVuSans-30" x="159.033203"/>
      </g>
     </g>
    </g>
    <g id="ytick_2">
     <g id="line2d_7">
      <g>
       <use xlink:href="#maf95589e58" x="57.8" y="345.432888" style="stroke: #000000; stroke-width: 0.8"/>
      </g>
     </g>
     <g id="text_8">
      <!-- 0.25 -->
      <g transform="translate(28.534375 349.232107) scale(0.1 -0.1)">
       <defs>
        <path id="DejaVuSans-35" d="M 691 4666 
L 3169 4666 
L 3169 4134 
L 1269 4134 
L 1269 2991 
Q 1406 3038 1543 3061 
Q 1681 3084 1819 3084 
Q 2600 3084 3056 2656 
Q 3513 2228 3513 1497 
Q 3513 744 3044 326 
Q 2575 -91 1722 -91 
Q 1428 -91 1123 -41 
Q 819 9 494 109 
L 494 744 
Q 775 591 1075 516 
Q 1375 441 1709 441 
Q 2250 441 2565 725 
Q 2881 1009 2881 1497 
Q 2881 1984 2565 2268 
Q 2250 2553 1709 2553 
Q 1456 2553 1204 2497 
Q 953 2441 691 2322 
L 691 4666 
z
" transform="scale(0.015625)"/>
       </defs>
       <use xlink:href="#DejaVuSans-30"/>
       <use xlink:href="#DejaVuSans-2e" x="63.623047"/>
       <use xlink:href="#DejaVuSans-32" x="95.410156"/>
       <use xlink:href="#DejaVuSans-35" x="159.033203"/>
      </g>
     </g>
    </g>
    <g id="ytick_3">
     <g id="line2d_8">
      <g>
       <use xlink:href="#maf95589e58" x="57.8" y="301.545776" style="stroke: #000000; stroke-width: 0.8"/>
      </g>
     </g>
     <g id="text_9">
      <!-- 0.50 -->
      <g transform="translate(28.534375 305.344995) scale(0.1 -0.1)">
       <use xlink:href="#DejaVuSans-30"/>
       <use xlink:href="#DejaVuSans-2e" x="63.623047"/>
       <use xlink:href="#DejaVuSans-35" x="95.410156"/>
       <use xlink:href="#DejaVuSans-30" x="159.033203"/>
      </g>
     </g>
    </g>
    <g id="ytick_4">
     <g id="line2d_9">
      <g>
       <use xlink:href="#maf95589e58" x="57.8" y="257.658665" style="stroke: #000000; stroke-width: 0.8"/>
      </g>
     </g>
     <g id="text_10">
      <!-- 0.75 -->
      <g transform="translate(28.534375 261.457883) scale(0.1 -0.1)">
       <defs>
        <path id="DejaVuSans-37" d="M 525 4666 
L 3525 4666 
L 3525 4397 
L 1831 0 
L 1172 0 
L 2766 4134 
L 525 4134 
L 525 4666 
z
" transform="scale(0.015625)"/>
       </defs>
       <use xlink:href="#DejaVuSans-30"/>
       <use xlink:href="#DejaVuSans-2e" x="63.623047"/>
       <use xlink:href="#DejaVuSans-37" x="95.410156"/>
       <use xlink:href="#DejaVuSans-35" x="159.033203"/>
      </g>
     </g>
    </g>
    <g id="ytick_5">
     <g id="line2d_10">
      <g>
       <use xlink:href="#maf95589e58" x="57.8" y="213.771553" style="stroke: #000000; stroke-width: 0.8"/>
      </g>
     </g>
     <g id="text_11">
      <!-- 1.00 -->
      <g transform="translate(28.534375 217.570772) scale(0.1 -0.1)">
       <use xlink:href="#DejaVuSans-31"/>
       <use xlink:href="#DejaVuSans-2e" x="63.623047"/>
       <use xlink:href="#DejaVuSans-30" x="95.410156"/>
       <use xlink:href="#DejaVuSans-30" x="159.033203"/>
      </g>
     </g>
    </g>
    <g id="ytick_6">
     <g id="line2d_11">
      <g>
       <use xlink:href="#maf95589e58" x="57.8" y="169.884441" style="stroke: #000000; stroke-width: 0.8"/>
      </g>
     </g>
     <g id="text_12">
      <!-- 1.25 -->
      <g transform="translate(28.534375 173.68366) scale(0.1 -0.1)">
       <use xlink:href="#DejaVuSans-31"/>
       <use xlink:href="#DejaVuSans-2e" x="63.623047"/>
       <use xlink:href="#DejaVuSans-32" x="95.410156"/>
       <use xlink:href="#DejaVuSans-35" x="159.033203"/>
      </g>
     </g>
    </g>
    <g id="ytick_7">
     <g id="line2d_12">
      <g>
       <use xlink:href="#maf95589e58" x="57.8" y="125.997329" style="stroke: #000000; stroke-width: 0.8"/>
      </g>
     </g>
     <g id="text_13">
      <!-- 1.50 -->
      <g transform="translate(28.534375 129.796548) scale(0.1 -0.1)">
       <use xlink:href="#DejaVuSans-31"/>
       <use xlink:href="#DejaVuSans-2e" x="63.623047"/>
       <use xlink:href="#DejaVuSans-35" x="95.410156"/>
       <use xlink:href="#DejaVuSans-30" x="159.033203"/>
      </g>
     </g>
    </g>
    <g id="ytick_8">
     <g id="line2d_13">
      <g>
       <use xlink:href="#maf95589e58" x="57.8" y="82.110218" style="stroke: #000000; stroke-width: 0.8"/>
      </g>
     </g>
     <g id="text_14">
      <!-- 1.75 -->
      <g transform="translate(28.534375 85.909436) scale(0.1 -0.1)">
       <use xlink:href="#DejaVuSans-31"/>
       <use xlink:href="#DejaVuSans-2e" x="63.623047"/>
       <use xlink:href="#DejaVuSans-37" x="95.410156"/>
       <use xlink:href="#DejaVuSans-35" x="159.033203"/>
      </g>
     </g>
    </g>
    <g id="ytick_9">
     <g id="line2d_14">
      <g>
       <use xlink:href="#maf95589e58" x="57.8" y="38.223106" style="stroke: #000000; stroke-width: 0.8"/>
      </g>
     </g>
     <g id="text_15">
      <!-- 2.00 -->
      <g transform="translate(28.534375 42.022325) scale(0.1 -0.1)">
       <use xlink:href="#DejaVuSans-32"/>
       <use xlink:href="#DejaVuSans-2e" x="63.623047"/>
       <use xlink:href="#DejaVuSans-30" x="95.410156"/>
       <use xlink:href="#DejaVuSans-30" x="159.033203"/>
      </g>
     </g>
    </g>
    <g id="text_16">
     <!-- Density -->
     <g transform="translate(21.622813 226.672031) rotate(-90) scale(0.14 -0.14)">
      <defs>
       <path id="DejaVuSans-44" d="M 1259 4147 
L 1259 519 
L 2022 519 
Q 2988 519 3436 956 
Q 3884 1394 3884 2338 
Q 3884 3275 3436 3711 
Q 2988 4147 2022 4147 
L 1259 4147 
z
M 628 4666 
L 1925 4666 
Q 3281 4666 3915 4102 
Q 4550 3538 4550 2338 
Q 4550 1131 3912 565 
Q 3275 0 1925 0 
L 628 0 
L 628 4666 
z
" transform="scale(0.015625)"/>
       <path id="DejaVuSans-79" d="M 2059 -325 
Q 1816 -950 1584 -1140 
Q 1353 -1331 966 -1331 
L 506 -1331 
L 506 -850 
L 844 -850 
Q 1081 -850 1212 -737 
Q 1344 -625 1503 -206 
L 1606 56 
L 191 3500 
L 800 3500 
L 1894 763 
L 2988 3500 
L 3597 3500 
L 2059 -325 
z
" transform="scale(0.015625)"/>
      </defs>
      <use xlink:href="#DejaVuSans-44"/>
      <use xlink:href="#DejaVuSans-65" x="77.001953"/>
      <use xlink:href="#DejaVuSans-6e" x="138.525391"/>
      <use xlink:href="#DejaVuSans-73" x="201.904297"/>
      <use xlink:href="#DejaVuSans-69" x="254.003906"/>
      <use xlink:href="#DejaVuSans-74" x="281.787109"/>
      <use xlink:href="#DejaVuSans-79" x="320.996094"/>
     </g>
    </g>
   </g>
   <g id="line2d_15">
    <path d="M 357.92903 389.32 
L 357.92903 10.8 
" clip-path="url(#pcadb283ea1)" style="fill: none; stroke-dasharray: 3.7,1.6; stroke-dashoffset: 0; stroke: #000000"/>
   </g>
   <g id="patch_3">
    <path d="M 57.8 389.32 
L 57.8 10.8 
" style="fill: none; stroke: #000000; stroke-width: 0.8; stroke-linejoin: miter; stroke-linecap: square"/>
   </g>
   <g id="patch_4">
    <path d="M 57.8 389.32 
L 421.2 389.32 
" style="fill: none; stroke: #000000; stroke-width: 0.8; stroke-linejoin: miter; stroke-linecap: square"/>
   </g>
   <g id="legend_1">
    <g id="patch_5">
     <path d="M 64.8 77.5125 
L 221.610938 77.5125 
Q 223.610938 77.5125 223.610938 75.5125 
L 223.610938 17.8 
Q 223.610938 15.8 221.610938 15.8 
L 64.8 15.8 
Q 62.8 15.8 62.8 17.8 
L 62.8 75.5125 
Q 62.8 77.5125 64.8 77.5125 
z
" style="fill: #ffffff; opacity: 0.8; stroke: #cccccc; stroke-linejoin: miter"/>
    </g>
    <g id="patch_6">
     <path d="M 66.8 27.398438 
L 86.8 27.398438 
L 86.8 20.398438 
L 66.8 20.398438 
z
" style="fill: #bdbdbd; fill-opacity: 0.5; stroke: #bdbdbd; stroke-width: 2.5; stroke-linejoin: miter"/>
    </g>
    <g id="text_17">
     <!-- Pre-trained ESM2 (150M) -->
     <g transform="translate(94.8 27.398438) scale(0.1 -0.1)">
      <defs>
       <path id="DejaVuSans-2d" d="M 313 2009 
L 1997 2009 
L 1997 1497 
L 313 1497 
L 313 2009 
z
" transform="scale(0.015625)"/>
       <path id="DejaVuSans-61" d="M 2194 1759 
Q 1497 1759 1228 1600 
Q 959 1441 959 1056 
Q 959 750 1161 570 
Q 1363 391 1709 391 
Q 2188 391 2477 730 
Q 2766 1069 2766 1631 
L 2766 1759 
L 2194 1759 
z
M 3341 1997 
L 3341 0 
L 2766 0 
L 2766 531 
Q 2569 213 2275 61 
Q 1981 -91 1556 -91 
Q 1019 -91 701 211 
Q 384 513 384 1019 
Q 384 1609 779 1909 
Q 1175 2209 1959 2209 
L 2766 2209 
L 2766 2266 
Q 2766 2663 2505 2880 
Q 2244 3097 1772 3097 
Q 1472 3097 1187 3025 
Q 903 2953 641 2809 
L 641 3341 
Q 956 3463 1253 3523 
Q 1550 3584 1831 3584 
Q 2591 3584 2966 3190 
Q 3341 2797 3341 1997 
z
" transform="scale(0.015625)"/>
       <path id="DejaVuSans-45" d="M 628 4666 
L 3578 4666 
L 3578 4134 
L 1259 4134 
L 1259 2753 
L 3481 2753 
L 3481 2222 
L 1259 2222 
L 1259 531 
L 3634 531 
L 3634 0 
L 628 0 
L 628 4666 
z
" transform="scale(0.015625)"/>
       <path id="DejaVuSans-53" d="M 3425 4513 
L 3425 3897 
Q 3066 4069 2747 4153 
Q 2428 4238 2131 4238 
Q 1616 4238 1336 4038 
Q 1056 3838 1056 3469 
Q 1056 3159 1242 3001 
Q 1428 2844 1947 2747 
L 2328 2669 
Q 3034 2534 3370 2195 
Q 3706 1856 3706 1288 
Q 3706 609 3251 259 
Q 2797 -91 1919 -91 
Q 1588 -91 1214 -16 
Q 841 59 441 206 
L 441 856 
Q 825 641 1194 531 
Q 1563 422 1919 422 
Q 2459 422 2753 634 
Q 3047 847 3047 1241 
Q 3047 1584 2836 1778 
Q 2625 1972 2144 2069 
L 1759 2144 
Q 1053 2284 737 2584 
Q 422 2884 422 3419 
Q 422 4038 858 4394 
Q 1294 4750 2059 4750 
Q 2388 4750 2728 4690 
Q 3069 4631 3425 4513 
z
" transform="scale(0.015625)"/>
       <path id="DejaVuSans-4d" d="M 628 4666 
L 1569 4666 
L 2759 1491 
L 3956 4666 
L 4897 4666 
L 4897 0 
L 4281 0 
L 4281 4097 
L 3078 897 
L 2444 897 
L 1241 4097 
L 1241 0 
L 628 0 
L 628 4666 
z
" transform="scale(0.015625)"/>
       <path id="DejaVuSans-28" d="M 1984 4856 
Q 1566 4138 1362 3434 
Q 1159 2731 1159 2009 
Q 1159 1288 1364 580 
Q 1569 -128 1984 -844 
L 1484 -844 
Q 1016 -109 783 600 
Q 550 1309 550 2009 
Q 550 2706 781 3412 
Q 1013 4119 1484 4856 
L 1984 4856 
z
" transform="scale(0.015625)"/>
       <path id="DejaVuSans-29" d="M 513 4856 
L 1013 4856 
Q 1481 4119 1714 3412 
Q 1947 2706 1947 2009 
Q 1947 1309 1714 600 
Q 1481 -109 1013 -844 
L 513 -844 
Q 928 -128 1133 580 
Q 1338 1288 1338 2009 
Q 1338 2731 1133 3434 
Q 928 4138 513 4856 
z
" transform="scale(0.015625)"/>
      </defs>
      <use xlink:href="#DejaVuSans-50"/>
      <use xlink:href="#DejaVuSans-72" x="58.552734"/>
      <use xlink:href="#DejaVuSans-65" x="97.416016"/>
      <use xlink:href="#DejaVuSans-2d" x="158.939453"/>
      <use xlink:href="#DejaVuSans-74" x="195.023438"/>
      <use xlink:href="#DejaVuSans-72" x="234.232422"/>
      <use xlink:href="#DejaVuSans-61" x="275.345703"/>
      <use xlink:href="#DejaVuSans-69" x="336.625"/>
      <use xlink:href="#DejaVuSans-6e" x="364.408203"/>
      <use xlink:href="#DejaVuSans-65" x="427.787109"/>
      <use xlink:href="#DejaVuSans-64" x="489.310547"/>
      <use xlink:href="#DejaVuSans-20" x="552.787109"/>
      <use xlink:href="#DejaVuSans-45" x="584.574219"/>
      <use xlink:href="#DejaVuSans-53" x="647.757812"/>
      <use xlink:href="#DejaVuSans-4d" x="711.234375"/>
      <use xlink:href="#DejaVuSans-32" x="797.513672"/>
      <use xlink:href="#DejaVuSans-20" x="861.136719"/>
      <use xlink:href="#DejaVuSans-28" x="892.923828"/>
      <use xlink:href="#DejaVuSans-31" x="931.9375"/>
      <use xlink:href="#DejaVuSans-35" x="995.560547"/>
      <use xlink:href="#DejaVuSans-30" x="1059.183594"/>
      <use xlink:href="#DejaVuSans-4d" x="1122.806641"/>
      <use xlink:href="#DejaVuSans-29" x="1209.085938"/>
     </g>
    </g>
    <g id="patch_7">
     <path d="M 66.8 42.076563 
L 86.8 42.076563 
L 86.8 35.076563 
L 66.8 35.076563 
z
" style="fill: #92c5de; fill-opacity: 0.5; stroke: #92c5de; stroke-width: 2.5; stroke-linejoin: miter"/>
    </g>
    <g id="text_18">
     <!-- SFT ESM2 (150M) -->
     <g transform="translate(94.8 42.076563) scale(0.1 -0.1)">
      <defs>
       <path id="DejaVuSans-54" d="M -19 4666 
L 3928 4666 
L 3928 4134 
L 2272 4134 
L 2272 0 
L 1638 0 
L 1638 4134 
L -19 4134 
L -19 4666 
z
" transform="scale(0.015625)"/>
      </defs>
      <use xlink:href="#DejaVuSans-53"/>
      <use xlink:href="#DejaVuSans-46" x="63.476562"/>
      <use xlink:href="#DejaVuSans-54" x="119.246094"/>
      <use xlink:href="#DejaVuSans-20" x="180.330078"/>
      <use xlink:href="#DejaVuSans-45" x="212.117188"/>
      <use xlink:href="#DejaVuSans-53" x="275.300781"/>
      <use xlink:href="#DejaVuSans-4d" x="338.777344"/>
      <use xlink:href="#DejaVuSans-32" x="425.056641"/>
      <use xlink:href="#DejaVuSans-20" x="488.679688"/>
      <use xlink:href="#DejaVuSans-28" x="520.466797"/>
      <use xlink:href="#DejaVuSans-31" x="559.480469"/>
      <use xlink:href="#DejaVuSans-35" x="623.103516"/>
      <use xlink:href="#DejaVuSans-30" x="686.726562"/>
      <use xlink:href="#DejaVuSans-4d" x="750.349609"/>
      <use xlink:href="#DejaVuSans-29" x="836.628906"/>
     </g>
    </g>
    <g id="patch_8">
     <path d="M 66.8 56.754687 
L 86.8 56.754687 
L 86.8 49.754687 
L 66.8 49.754687 
z
" style="fill: #2166ac; fill-opacity: 0.5; stroke: #2166ac; stroke-width: 2.5; stroke-linejoin: miter"/>
    </g>
    <g id="text_19">
     <!-- Aligned ESM2 (150M) -->
     <g transform="translate(94.8 56.754687) scale(0.1 -0.1)">
      <defs>
       <path id="DejaVuSans-41" d="M 2188 4044 
L 1331 1722 
L 3047 1722 
L 2188 4044 
z
M 1831 4666 
L 2547 4666 
L 4325 0 
L 3669 0 
L 3244 1197 
L 1141 1197 
L 716 0 
L 50 0 
L 1831 4666 
z
" transform="scale(0.015625)"/>
       <path id="DejaVuSans-67" d="M 2906 1791 
Q 2906 2416 2648 2759 
Q 2391 3103 1925 3103 
Q 1463 3103 1205 2759 
Q 947 2416 947 1791 
Q 947 1169 1205 825 
Q 1463 481 1925 481 
Q 2391 481 2648 825 
Q 2906 1169 2906 1791 
z
M 3481 434 
Q 3481 -459 3084 -895 
Q 2688 -1331 1869 -1331 
Q 1566 -1331 1297 -1286 
Q 1028 -1241 775 -1147 
L 775 -588 
Q 1028 -725 1275 -790 
Q 1522 -856 1778 -856 
Q 2344 -856 2625 -561 
Q 2906 -266 2906 331 
L 2906 616 
Q 2728 306 2450 153 
Q 2172 0 1784 0 
Q 1141 0 747 490 
Q 353 981 353 1791 
Q 353 2603 747 3093 
Q 1141 3584 1784 3584 
Q 2172 3584 2450 3431 
Q 2728 3278 2906 2969 
L 2906 3500 
L 3481 3500 
L 3481 434 
z
" transform="scale(0.015625)"/>
      </defs>
      <use xlink:href="#DejaVuSans-41"/>
      <use xlink:href="#DejaVuSans-6c" x="68.408203"/>
      <use xlink:href="#DejaVuSans-69" x="96.191406"/>
      <use xlink:href="#DejaVuSans-67" x="123.974609"/>
      <use xlink:href="#DejaVuSans-6e" x="187.451172"/>
      <use xlink:href="#DejaVuSans-65" x="250.830078"/>
      <use xlink:href="#DejaVuSans-64" x="312.353516"/>
      <use xlink:href="#DejaVuSans-20" x="375.830078"/>
      <use xlink:href="#DejaVuSans-45" x="407.617188"/>
      <use xlink:href="#DejaVuSans-53" x="470.800781"/>
      <use xlink:href="#DejaVuSans-4d" x="534.277344"/>
      <use xlink:href="#DejaVuSans-32" x="620.556641"/>
      <use xlink:href="#DejaVuSans-20" x="684.179688"/>
      <use xlink:href="#DejaVuSans-28" x="715.966797"/>
      <use xlink:href="#DejaVuSans-31" x="754.980469"/>
      <use xlink:href="#DejaVuSans-35" x="818.603516"/>
      <use xlink:href="#DejaVuSans-30" x="882.226562"/>
      <use xlink:href="#DejaVuSans-4d" x="945.849609"/>
      <use xlink:href="#DejaVuSans-29" x="1032.128906"/>
     </g>
    </g>
    <g id="line2d_16">
     <path d="M 66.8 67.932813 
L 76.8 67.932813 
L 86.8 67.932813 
" style="fill: none; stroke-dasharray: 3.7,1.6; stroke-dashoffset: 0; stroke: #000000"/>
    </g>
    <g id="text_20">
     <!-- Predicted avGFP score -->
     <g transform="translate(94.8 71.432813) scale(0.1 -0.1)">
      <defs>
       <path id="DejaVuSans-76" d="M 191 3500 
L 800 3500 
L 1894 563 
L 2988 3500 
L 3597 3500 
L 2284 0 
L 1503 0 
L 191 3500 
z
" transform="scale(0.015625)"/>
       <path id="DejaVuSans-47" d="M 3809 666 
L 3809 1919 
L 2778 1919 
L 2778 2438 
L 4434 2438 
L 4434 434 
Q 4069 175 3628 42 
Q 3188 -91 2688 -91 
Q 1594 -91 976 548 
Q 359 1188 359 2328 
Q 359 3472 976 4111 
Q 1594 4750 2688 4750 
Q 3144 4750 3555 4637 
Q 3966 4525 4313 4306 
L 4313 3634 
Q 3963 3931 3569 4081 
Q 3175 4231 2741 4231 
Q 1884 4231 1454 3753 
Q 1025 3275 1025 2328 
Q 1025 1384 1454 906 
Q 1884 428 2741 428 
Q 3075 428 3337 486 
Q 3600 544 3809 666 
z
" transform="scale(0.015625)"/>
      </defs>
      <use xlink:href="#DejaVuSans-50"/>
      <use xlink:href="#DejaVuSans-72" x="58.552734"/>
      <use xlink:href="#DejaVuSans-65" x="97.416016"/>
      <use xlink:href="#DejaVuSans-64" x="158.939453"/>
      <use xlink:href="#DejaVuSans-69" x="222.416016"/>
      <use xlink:href="#DejaVuSans-63" x="250.199219"/>
      <use xlink:href="#DejaVuSans-74" x="305.179688"/>
      <use xlink:href="#DejaVuSans-65" x="344.388672"/>
      <use xlink:href="#DejaVuSans-64" x="405.912109"/>
      <use xlink:href="#DejaVuSans-20" x="469.388672"/>
      <use xlink:href="#DejaVuSans-61" x="501.175781"/>
      <use xlink:href="#DejaVuSans-76" x="562.455078"/>
      <use xlink:href="#DejaVuSans-47" x="621.634766"/>
      <use xlink:href="#DejaVuSans-46" x="699.125"/>
      <use xlink:href="#DejaVuSans-50" x="756.644531"/>
      <use xlink:href="#DejaVuSans-20" x="816.947266"/>
      <use xlink:href="#DejaVuSans-73" x="848.734375"/>
      <use xlink:href="#DejaVuSans-63" x="900.833984"/>
      <use xlink:href="#DejaVuSans-6f" x="955.814453"/>
      <use xlink:href="#DejaVuSans-72" x="1016.996094"/>
      <use xlink:href="#DejaVuSans-65" x="1055.859375"/>
     </g>
    </g>
   </g>
  </g>
 </g>
 <defs>
  <clipPath id="pcadb283ea1">
   <rect x="57.8" y="10.8" width="363.4" height="378.52"/>
  </clipPath>
 </defs>
</svg>
