<?xml version="1.0" encoding="utf-8" standalone="no"?>
<!DOCTYPE svg PUBLIC "-//W3C//DTD SVG 1.1//EN"
  "http://www.w3.org/Graphics/SVG/1.1/DTD/svg11.dtd">
<svg xmlns:xlink="http://www.w3.org/1999/xlink" width="432pt" height="432pt" viewBox="0 0 432 432" xmlns="http://www.w3.org/2000/svg" version="1.1">
 <metadata>
  <rdf:RDF xmlns:dc="http://purl.org/dc/elements/1.1/" xmlns:cc="http://creativecommons.org/ns#" xmlns:rdf="http://www.w3.org/1999/02/22-rdf-syntax-ns#">
   <cc:Work>
    <dc:type rdf:resource="http://purl.org/dc/dcmitype/StillImage"/>
    <dc:date>2025-04-02T15:05:27.239569</dc:date>
    <dc:format>image/svg+xml</dc:format>
    <dc:creator>
     <cc:Agent>
      <dc:title>Matplotlib v3.8.0, https://matplotlib.org/</dc:title>
     </cc:Agent>
    </dc:creator>
   </cc:Work>
  </rdf:RDF>
 </metadata>
 <defs>
  <style type="text/css">*{stroke-linejoin: round; stroke-linecap: butt}</style>
 </defs>
 <g id="figure_1">
  <g id="patch_1">
   <path d="M 0 432 
L 432 432 
L 432 0 
L 0 0 
z
" style="fill: #ffffff"/>
  </g>
  <g id="axes_1">
   <g id="patch_2">
    <path d="M 57.8 389.32 
L 421.2 389.32 
L 421.2 14.297122 
L 57.8 14.297122 
z
" style="fill: #ffffff"/>
   </g>
   <g id="PolyCollection_1">
    <defs>
     <path id="mbfdcb5c73a" d="M 74.318182 -42.722428 
L 74.318182 -42.68 
L 75.754118 -42.68 
L 77.190055 -42.68 
L 78.625991 -42.68 
L 80.061928 -42.68 
L 81.497864 -42.68 
L 82.9338 -42.68 
L 84.369737 -42.68 
L 85.805673 -42.68 
L 87.24161 -42.68 
L 88.677546 -42.68 
L 90.113483 -42.68 
L 91.549419 -42.68 
L 92.985355 -42.68 
L 94.421292 -42.68 
L 95.857228 -42.68 
L 97.293165 -42.68 
L 98.729101 -42.68 
L 100.165038 -42.68 
L 101.600974 -42.68 
L 103.03691 -42.68 
L 104.472847 -42.68 
L 105.908783 -42.68 
L 107.34472 -42.68 
L 108.780656 -42.68 
L 110.216593 -42.68 
L 111.652529 -42.68 
L 113.088465 -42.68 
L 114.524402 -42.68 
L 115.960338 -42.68 
L 117.396275 -42.68 
L 118.832211 -42.68 
L 120.268148 -42.68 
L 121.704084 -42.68 
L 123.14002 -42.68 
L 124.575957 -42.68 
L 126.011893 -42.68 
L 127.44783 -42.68 
L 128.883766 -42.68 
L 130.319703 -42.68 
L 131.755639 -42.68 
L 133.191576 -42.68 
L 134.627512 -42.68 
L 136.063448 -42.68 
L 137.499385 -42.68 
L 138.935321 -42.68 
L 140.371258 -42.68 
L 141.807194 -42.68 
L 143.243131 -42.68 
L 144.679067 -42.68 
L 146.115003 -42.68 
L 147.55094 -42.68 
L 148.986876 -42.68 
L 150.422813 -42.68 
L 151.858749 -42.68 
L 153.294686 -42.68 
L 154.730622 -42.68 
L 156.166558 -42.68 
L 157.602495 -42.68 
L 159.038431 -42.68 
L 160.474368 -42.68 
L 161.910304 -42.68 
L 163.346241 -42.68 
L 164.782177 -42.68 
L 166.218113 -42.68 
L 167.65405 -42.68 
L 169.089986 -42.68 
L 170.525923 -42.68 
L 171.961859 -42.68 
L 173.397796 -42.68 
L 174.833732 -42.68 
L 176.269668 -42.68 
L 177.705605 -42.68 
L 179.141541 -42.68 
L 180.577478 -42.68 
L 182.013414 -42.68 
L 183.449351 -42.68 
L 184.885287 -42.68 
L 186.321223 -42.68 
L 187.75716 -42.68 
L 189.193096 -42.68 
L 190.629033 -42.68 
L 192.064969 -42.68 
L 193.500906 -42.68 
L 194.936842 -42.68 
L 196.372779 -42.68 
L 197.808715 -42.68 
L 199.244651 -42.68 
L 200.680588 -42.68 
L 202.116524 -42.68 
L 203.552461 -42.68 
L 204.988397 -42.68 
L 206.424334 -42.68 
L 207.86027 -42.68 
L 209.296206 -42.68 
L 210.732143 -42.68 
L 212.168079 -42.68 
L 213.604016 -42.68 
L 215.039952 -42.68 
L 216.475889 -42.68 
L 217.911825 -42.68 
L 219.347761 -42.68 
L 220.783698 -42.68 
L 222.219634 -42.68 
L 223.655571 -42.68 
L 225.091507 -42.68 
L 226.527444 -42.68 
L 227.96338 -42.68 
L 229.399316 -42.68 
L 230.835253 -42.68 
L 232.271189 -42.68 
L 233.707126 -42.68 
L 235.143062 -42.68 
L 236.578999 -42.68 
L 238.014935 -42.68 
L 239.450871 -42.68 
L 240.886808 -42.68 
L 242.322744 -42.68 
L 243.758681 -42.68 
L 245.194617 -42.68 
L 246.630554 -42.68 
L 248.06649 -42.68 
L 249.502426 -42.68 
L 250.938363 -42.68 
L 252.374299 -42.68 
L 253.810236 -42.68 
L 255.246172 -42.68 
L 256.682109 -42.68 
L 258.118045 -42.68 
L 259.553982 -42.68 
L 260.989918 -42.68 
L 262.425854 -42.68 
L 263.861791 -42.68 
L 265.297727 -42.68 
L 266.733664 -42.68 
L 268.1696 -42.68 
L 269.605537 -42.68 
L 271.041473 -42.68 
L 272.477409 -42.68 
L 273.913346 -42.68 
L 275.349282 -42.68 
L 276.785219 -42.68 
L 278.221155 -42.68 
L 279.657092 -42.68 
L 281.093028 -42.68 
L 282.528964 -42.68 
L 283.964901 -42.68 
L 285.400837 -42.68 
L 286.836774 -42.68 
L 288.27271 -42.68 
L 289.708647 -42.68 
L 291.144583 -42.68 
L 292.580519 -42.68 
L 294.016456 -42.68 
L 295.452392 -42.68 
L 296.888329 -42.68 
L 298.324265 -42.68 
L 299.760202 -42.68 
L 301.196138 -42.68 
L 302.632074 -42.68 
L 304.068011 -42.68 
L 305.503947 -42.68 
L 306.939884 -42.68 
L 308.37582 -42.68 
L 309.811757 -42.68 
L 311.247693 -42.68 
L 312.683629 -42.68 
L 314.119566 -42.68 
L 315.555502 -42.68 
L 316.991439 -42.68 
L 318.427375 -42.68 
L 319.863312 -42.68 
L 321.299248 -42.68 
L 322.735185 -42.68 
L 324.171121 -42.68 
L 325.607057 -42.68 
L 327.042994 -42.68 
L 328.47893 -42.68 
L 329.914867 -42.68 
L 331.350803 -42.68 
L 332.78674 -42.68 
L 334.222676 -42.68 
L 335.658612 -42.68 
L 337.094549 -42.68 
L 338.530485 -42.68 
L 339.966422 -42.68 
L 341.402358 -42.68 
L 342.838295 -42.68 
L 344.274231 -42.68 
L 345.710167 -42.68 
L 347.146104 -42.68 
L 348.58204 -42.68 
L 350.017977 -42.68 
L 351.453913 -42.68 
L 352.88985 -42.68 
L 354.325786 -42.68 
L 355.761722 -42.68 
L 357.197659 -42.68 
L 358.633595 -42.68 
L 360.069532 -42.68 
L 360.069532 -42.696431 
L 360.069532 -42.696431 
L 358.633595 -42.703413 
L 357.197659 -42.712944 
L 355.761722 -42.725783 
L 354.325786 -42.742852 
L 352.88985 -42.765256 
L 351.453913 -42.794295 
L 350.017977 -42.831479 
L 348.58204 -42.878537 
L 347.146104 -42.93742 
L 345.710167 -43.010319 
L 344.274231 -43.099662 
L 342.838295 -43.208143 
L 341.402358 -43.338739 
L 339.966422 -43.494754 
L 338.530485 -43.67988 
L 337.094549 -43.898278 
L 335.658612 -44.154684 
L 334.222676 -44.45454 
L 332.78674 -44.804148 
L 331.350803 -45.210843 
L 329.914867 -45.683177 
L 328.47893 -46.231106 
L 327.042994 -46.86616 
L 325.607057 -47.601604 
L 324.171121 -48.452535 
L 322.735185 -49.43594 
L 321.299248 -50.570647 
L 319.863312 -51.877186 
L 318.427375 -53.377496 
L 316.991439 -55.094492 
L 315.555502 -57.051429 
L 314.119566 -59.271089 
L 312.683629 -61.774758 
L 311.247693 -64.581041 
L 309.811757 -67.704521 
L 308.37582 -71.15436 
L 306.939884 -74.932908 
L 305.503947 -79.034443 
L 304.068011 -83.444171 
L 302.632074 -88.137605 
L 301.196138 -93.080455 
L 299.760202 -98.229121 
L 298.324265 -103.531829 
L 296.888329 -108.930438 
L 295.452392 -114.362824 
L 294.016456 -119.765753 
L 292.580519 -125.078043 
L 291.144583 -130.243819 
L 289.708647 -135.2156 
L 288.27271 -139.957003 
L 286.836774 -144.444815 
L 285.400837 -148.670286 
L 283.964901 -152.639498 
L 282.528964 -156.37278 
L 281.093028 -159.903181 
L 279.657092 -163.274096 
L 278.221155 -166.536201 
L 276.785219 -169.743903 
L 275.349282 -172.951529 
L 273.913346 -176.209536 
L 272.477409 -179.560971 
L 271.041473 -183.038436 
L 269.605537 -186.66177 
L 268.1696 -190.4366 
L 266.733664 -194.353869 
L 265.297727 -198.390383 
L 263.861791 -202.510324 
L 262.425854 -206.667618 
L 260.989918 -210.808975 
L 259.553982 -214.877356 
L 258.118045 -218.815596 
L 256.682109 -222.569893 
L 255.246172 -226.092894 
L 253.810236 -229.346167 
L 252.374299 -232.301892 
L 250.938363 -234.943698 
L 249.502426 -237.266664 
L 248.06649 -239.276568 
L 246.630554 -240.988531 
L 245.194617 -242.425258 
L 243.758681 -243.615067 
L 242.322744 -244.589909 
L 240.886808 -245.383537 
L 239.450871 -246.029926 
L 238.014935 -246.562026 
L 236.578999 -247.010857 
L 235.143062 -247.404924 
L 233.707126 -247.769904 
L 232.271189 -248.128562 
L 230.835253 -248.50083 
L 229.399316 -248.904008 
L 227.96338 -249.353063 
L 226.527444 -249.860985 
L 225.091507 -250.439216 
L 223.655571 -251.098105 
L 222.219634 -251.847401 
L 220.783698 -252.69673 
L 219.347761 -253.656033 
L 217.911825 -254.735903 
L 216.475889 -255.947775 
L 215.039952 -257.303916 
L 213.604016 -258.817169 
L 212.168079 -260.500443 
L 210.732143 -262.36596 
L 209.296206 -264.424283 
L 207.86027 -266.683225 
L 206.424334 -269.146714 
L 204.988397 -271.813754 
L 203.552461 -274.677606 
L 202.116524 -277.72529 
L 200.680588 -280.937535 
L 199.244651 -284.289211 
L 197.808715 -287.750266 
L 196.372779 -291.287121 
L 194.936842 -294.864442 
L 193.500906 -298.447134 
L 192.064969 -302.002412 
L 190.629033 -305.501754 
L 189.193096 -308.922574 
L 187.75716 -312.249474 
L 186.321223 -315.474962 
L 184.885287 -318.599606 
L 183.449351 -321.631622 
L 182.013414 -324.585968 
L 180.577478 -327.483044 
L 179.141541 -330.347142 
L 177.705605 -333.204795 
L 176.269668 -336.083139 
L 174.833732 -339.008431 
L 173.397796 -342.004761 
L 171.961859 -345.093 
L 170.525923 -348.289958 
L 169.089986 -351.607678 
L 167.65405 -355.052802 
L 166.218113 -358.625892 
L 164.782177 -362.320639 
L 163.346241 -366.122901 
L 161.910304 -370.009556 
L 160.474368 -373.947218 
L 159.038431 -377.890908 
L 157.602495 -381.782818 
L 156.166558 -385.551342 
L 154.730622 -389.110565 
L 153.294686 -392.360389 
L 151.858749 -395.187454 
L 150.422813 -397.466969 
L 148.986876 -399.065491 
L 147.55094 -399.844646 
L 146.115003 -399.665687 
L 144.679067 -398.394725 
L 143.243131 -395.908396 
L 141.807194 -392.099692 
L 140.371258 -386.883617 
L 138.935321 -380.202354 
L 137.499385 -372.029596 
L 136.063448 -362.373763 
L 134.627512 -351.279842 
L 133.191576 -338.829695 
L 131.755639 -325.140739 
L 130.319703 -310.363031 
L 128.883766 -294.674852 
L 127.44783 -278.277023 
L 126.011893 -261.386233 
L 124.575957 -244.227747 
L 123.14002 -227.027867 
L 121.704084 -210.006553 
L 120.268148 -193.370585 
L 118.832211 -177.307571 
L 117.396275 -161.981086 
L 115.960338 -147.527097 
L 114.524402 -134.051771 
L 113.088465 -121.63067 
L 111.652529 -110.309237 
L 110.216593 -100.104445 
L 108.780656 -91.007392 
L 107.34472 -82.986629 
L 105.908783 -75.991958 
L 104.472847 -69.958473 
L 103.03691 -64.810615 
L 101.600974 -60.466049 
L 100.165038 -56.839203 
L 98.729101 -53.844365 
L 97.293165 -51.398256 
L 95.857228 -49.422046 
L 94.421292 -47.842838 
L 92.985355 -46.594622 
L 91.549419 -45.61878 
L 90.113483 -44.864204 
L 88.677546 -44.2871 
L 87.24161 -43.850554 
L 85.805673 -43.523948 
L 84.369737 -43.282271 
L 82.9338 -43.105401 
L 81.497864 -42.97738 
L 80.061928 -42.885735 
L 78.625991 -42.820853 
L 77.190055 -42.775425 
L 75.754118 -42.743969 
L 74.318182 -42.722428 
z
" style="stroke: #bdbdbd; stroke-width: 2.5"/>
    </defs>
    <g clip-path="url(#pa5b276f08a)">
     <use xlink:href="#mbfdcb5c73a" x="0" y="432" style="fill: #bdbdbd; fill-opacity: 0.5; stroke: #bdbdbd; stroke-width: 2.5"/>
    </g>
   </g>
   <g id="PolyCollection_2">
    <defs>
     <path id="m4c4ac62052" d="M 85.666802 -42.762751 
L 85.666802 -42.68 
L 87.252296 -42.68 
L 88.837791 -42.68 
L 90.423285 -42.68 
L 92.008779 -42.68 
L 93.594273 -42.68 
L 95.179767 -42.68 
L 96.765261 -42.68 
L 98.350756 -42.68 
L 99.93625 -42.68 
L 101.521744 -42.68 
L 103.107238 -42.68 
L 104.692732 -42.68 
L 106.278226 -42.68 
L 107.863721 -42.68 
L 109.449215 -42.68 
L 111.034709 -42.68 
L 112.620203 -42.68 
L 114.205697 -42.68 
L 115.791192 -42.68 
L 117.376686 -42.68 
L 118.96218 -42.68 
L 120.547674 -42.68 
L 122.133168 -42.68 
L 123.718662 -42.68 
L 125.304157 -42.68 
L 126.889651 -42.68 
L 128.475145 -42.68 
L 130.060639 -42.68 
L 131.646133 -42.68 
L 133.231627 -42.68 
L 134.817122 -42.68 
L 136.402616 -42.68 
L 137.98811 -42.68 
L 139.573604 -42.68 
L 141.159098 -42.68 
L 142.744592 -42.68 
L 144.330087 -42.68 
L 145.915581 -42.68 
L 147.501075 -42.68 
L 149.086569 -42.68 
L 150.672063 -42.68 
L 152.257558 -42.68 
L 153.843052 -42.68 
L 155.428546 -42.68 
L 157.01404 -42.68 
L 158.599534 -42.68 
L 160.185028 -42.68 
L 161.770523 -42.68 
L 163.356017 -42.68 
L 164.941511 -42.68 
L 166.527005 -42.68 
L 168.112499 -42.68 
L 169.697993 -42.68 
L 171.283488 -42.68 
L 172.868982 -42.68 
L 174.454476 -42.68 
L 176.03997 -42.68 
L 177.625464 -42.68 
L 179.210958 -42.68 
L 180.796453 -42.68 
L 182.381947 -42.68 
L 183.967441 -42.68 
L 185.552935 -42.68 
L 187.138429 -42.68 
L 188.723923 -42.68 
L 190.309418 -42.68 
L 191.894912 -42.68 
L 193.480406 -42.68 
L 195.0659 -42.68 
L 196.651394 -42.68 
L 198.236889 -42.68 
L 199.822383 -42.68 
L 201.407877 -42.68 
L 202.993371 -42.68 
L 204.578865 -42.68 
L 206.164359 -42.68 
L 207.749854 -42.68 
L 209.335348 -42.68 
L 210.920842 -42.68 
L 212.506336 -42.68 
L 214.09183 -42.68 
L 215.677324 -42.68 
L 217.262819 -42.68 
L 218.848313 -42.68 
L 220.433807 -42.68 
L 222.019301 -42.68 
L 223.604795 -42.68 
L 225.190289 -42.68 
L 226.775784 -42.68 
L 228.361278 -42.68 
L 229.946772 -42.68 
L 231.532266 -42.68 
L 233.11776 -42.68 
L 234.703255 -42.68 
L 236.288749 -42.68 
L 237.874243 -42.68 
L 239.459737 -42.68 
L 241.045231 -42.68 
L 242.630725 -42.68 
L 244.21622 -42.68 
L 245.801714 -42.68 
L 247.387208 -42.68 
L 248.972702 -42.68 
L 250.558196 -42.68 
L 252.14369 -42.68 
L 253.729185 -42.68 
L 255.314679 -42.68 
L 256.900173 -42.68 
L 258.485667 -42.68 
L 260.071161 -42.68 
L 261.656655 -42.68 
L 263.24215 -42.68 
L 264.827644 -42.68 
L 266.413138 -42.68 
L 267.998632 -42.68 
L 269.584126 -42.68 
L 271.16962 -42.68 
L 272.755115 -42.68 
L 274.340609 -42.68 
L 275.926103 -42.68 
L 277.511597 -42.68 
L 279.097091 -42.68 
L 280.682586 -42.68 
L 282.26808 -42.68 
L 283.853574 -42.68 
L 285.439068 -42.68 
L 287.024562 -42.68 
L 288.610056 -42.68 
L 290.195551 -42.68 
L 291.781045 -42.68 
L 293.366539 -42.68 
L 294.952033 -42.68 
L 296.537527 -42.68 
L 298.123021 -42.68 
L 299.708516 -42.68 
L 301.29401 -42.68 
L 302.879504 -42.68 
L 304.464998 -42.68 
L 306.050492 -42.68 
L 307.635986 -42.68 
L 309.221481 -42.68 
L 310.806975 -42.68 
L 312.392469 -42.68 
L 313.977963 -42.68 
L 315.563457 -42.68 
L 317.148952 -42.68 
L 318.734446 -42.68 
L 320.31994 -42.68 
L 321.905434 -42.68 
L 323.490928 -42.68 
L 325.076422 -42.68 
L 326.661917 -42.68 
L 328.247411 -42.68 
L 329.832905 -42.68 
L 331.418399 -42.68 
L 333.003893 -42.68 
L 334.589387 -42.68 
L 336.174882 -42.68 
L 337.760376 -42.68 
L 339.34587 -42.68 
L 340.931364 -42.68 
L 342.516858 -42.68 
L 344.102352 -42.68 
L 345.687847 -42.68 
L 347.273341 -42.68 
L 348.858835 -42.68 
L 350.444329 -42.68 
L 352.029823 -42.68 
L 353.615317 -42.68 
L 355.200812 -42.68 
L 356.786306 -42.68 
L 358.3718 -42.68 
L 359.957294 -42.68 
L 361.542788 -42.68 
L 363.128283 -42.68 
L 364.713777 -42.68 
L 366.299271 -42.68 
L 367.884765 -42.68 
L 369.470259 -42.68 
L 371.055753 -42.68 
L 372.641248 -42.68 
L 374.226742 -42.68 
L 375.812236 -42.68 
L 377.39773 -42.68 
L 378.983224 -42.68 
L 380.568718 -42.68 
L 382.154213 -42.68 
L 383.739707 -42.68 
L 385.325201 -42.68 
L 386.910695 -42.68 
L 388.496189 -42.68 
L 390.081683 -42.68 
L 391.667178 -42.68 
L 393.252672 -42.68 
L 394.838166 -42.68 
L 396.42366 -42.68 
L 398.009154 -42.68 
L 399.594649 -42.68 
L 401.180143 -42.68 
L 401.180143 -42.69811 
L 401.180143 -42.69811 
L 399.594649 -42.706267 
L 398.009154 -42.717667 
L 396.42366 -42.733415 
L 394.838166 -42.754921 
L 393.252672 -42.783963 
L 391.667178 -42.822752 
L 390.081683 -42.874003 
L 388.496189 -42.941009 
L 386.910695 -43.027706 
L 385.325201 -43.138747 
L 383.739707 -43.27955 
L 382.154213 -43.45634 
L 380.568718 -43.676164 
L 378.983224 -43.946878 
L 377.39773 -44.277099 
L 375.812236 -44.676108 
L 374.226742 -45.153718 
L 372.641248 -45.720082 
L 371.055753 -46.385468 
L 369.470259 -47.16 
L 367.884765 -48.053376 
L 366.299271 -49.074596 
L 364.713777 -50.231722 
L 363.128283 -51.531701 
L 361.542788 -52.980283 
L 359.957294 -54.582072 
L 358.3718 -56.340715 
L 356.786306 -58.259253 
L 355.200812 -60.340627 
L 353.615317 -62.588309 
L 352.029823 -65.00702 
L 350.444329 -67.603483 
L 348.858835 -70.387126 
L 347.273341 -73.370665 
L 345.687847 -76.570491 
L 344.102352 -80.00678 
L 342.516858 -83.703276 
L 340.931364 -87.686724 
L 339.34587 -91.985924 
L 337.760376 -96.630456 
L 336.174882 -101.649107 
L 334.589387 -107.068076 
L 333.003893 -112.909063 
L 331.418399 -119.187335 
L 329.832905 -125.909875 
L 328.247411 -133.073736 
L 326.661917 -140.664676 
L 325.076422 -148.656173 
L 323.490928 -157.008871 
L 321.905434 -165.670512 
L 320.31994 -174.576379 
L 318.734446 -183.650241 
L 317.148952 -192.805812 
L 315.563457 -201.948677 
L 313.977963 -210.978648 
L 312.392469 -219.79248 
L 310.806975 -228.286887 
L 309.221481 -236.361746 
L 307.635986 -243.92339 
L 306.050492 -250.887867 
L 304.464998 -257.18403 
L 302.879504 -262.756297 
L 301.29401 -267.566971 
L 299.708516 -271.597935 
L 298.123021 -274.85164 
L 296.537527 -277.351256 
L 294.952033 -279.139951 
L 293.366539 -280.27927 
L 291.781045 -280.846659 
L 290.195551 -280.932229 
L 288.610056 -280.634918 
L 287.024562 -280.058234 
L 285.439068 -279.305825 
L 283.853574 -278.477128 
L 282.26808 -277.663342 
L 280.682586 -276.943972 
L 279.097091 -276.384129 
L 277.511597 -276.032736 
L 275.926103 -275.921704 
L 274.340609 -276.066097 
L 272.755115 -276.465203 
L 271.16962 -277.104392 
L 269.584126 -277.957588 
L 267.998632 -278.990144 
L 266.413138 -280.161913 
L 264.827644 -281.430299 
L 263.24215 -282.753104 
L 261.656655 -284.091026 
L 260.071161 -285.409696 
L 258.485667 -286.681168 
L 256.900173 -287.884862 
L 255.314679 -289.007934 
L 253.729185 -290.045117 
L 252.14369 -290.998096 
L 250.558196 -291.874467 
L 248.972702 -292.686371 
L 247.387208 -293.448903 
L 245.801714 -294.178369 
L 244.21622 -294.890511 
L 242.630725 -295.598793 
L 241.045231 -296.312836 
L 239.459737 -297.037111 
L 237.874243 -297.769948 
L 236.288749 -298.502948 
L 234.703255 -299.220822 
L 233.11776 -299.901696 
L 231.532266 -300.517872 
L 229.946772 -301.037014 
L 228.361278 -301.423707 
L 226.775784 -301.641309 
L 225.190289 -301.653977 
L 223.604795 -301.42877 
L 222.019301 -300.937653 
L 220.433807 -300.159309 
L 218.848313 -299.080589 
L 217.262819 -297.697504 
L 215.677324 -296.015681 
L 214.09183 -294.050212 
L 212.506336 -291.82493 
L 210.920842 -289.371127 
L 209.335348 -286.725824 
L 207.749854 -283.929721 
L 206.164359 -281.024977 
L 204.578865 -278.052986 
L 202.993371 -275.052316 
L 201.407877 -272.056946 
L 199.822383 -269.094913 
L 198.236889 -266.187437 
L 196.651394 -263.348543 
L 195.0659 -260.585177 
L 193.480406 -257.897754 
L 191.894912 -255.281064 
L 190.309418 -252.725455 
L 188.723923 -250.218179 
L 187.138429 -247.744814 
L 185.552935 -245.290673 
L 183.967441 -242.842113 
L 182.381947 -240.387661 
L 180.796453 -237.918903 
L 179.210958 -235.431062 
L 177.625464 -232.923216 
L 176.03997 -230.398116 
L 174.454476 -227.861588 
L 172.868982 -225.321519 
L 171.283488 -222.786476 
L 169.697993 -220.264046 
L 168.112499 -217.759006 
L 166.527005 -215.271489 
L 164.941511 -212.795334 
L 163.356017 -210.31679 
L 161.770523 -207.813758 
L 160.185028 -205.255704 
L 158.599534 -202.604324 
L 157.01404 -199.814983 
L 155.428546 -196.838842 
L 153.843052 -193.625575 
L 152.257558 -190.126454 
L 150.672063 -186.297575 
L 149.086569 -182.102979 
L 147.501075 -177.517413 
L 145.915581 -172.528526 
L 144.330087 -167.13833 
L 142.744592 -161.363835 
L 141.159098 -155.236832 
L 139.573604 -148.802852 
L 137.98811 -142.11941 
L 136.402616 -135.253678 
L 134.817122 -128.279741 
L 133.231627 -121.275636 
L 131.646133 -114.320349 
L 130.060639 -107.490922 
L 128.475145 -100.859825 
L 126.889651 -94.492695 
L 125.304157 -88.446511 
L 123.718662 -82.768272 
L 122.133168 -77.494168 
L 120.547674 -72.649258 
L 118.96218 -68.247607 
L 117.376686 -64.292839 
L 115.791192 -60.779037 
L 114.205697 -57.691922 
L 112.620203 -55.010216 
L 111.034709 -52.707126 
L 109.449215 -50.751853 
L 107.863721 -49.111059 
L 106.278226 -47.750236 
L 104.692732 -46.634908 
L 103.107238 -45.731661 
L 101.521744 -45.008946 
L 99.93625 -44.437683 
L 98.350756 -43.991648 
L 96.765261 -43.647677 
L 95.179767 -43.385705 
L 93.594273 -43.188678 
L 92.008779 -43.042359 
L 90.423285 -42.935072 
L 88.837791 -42.857407 
L 87.252296 -42.801905 
L 85.666802 -42.762751 
z
" style="stroke: #92c5de; stroke-width: 2.5"/>
    </defs>
    <g clip-path="url(#pa5b276f08a)">
     <use xlink:href="#m4c4ac62052" x="0" y="432" style="fill: #92c5de; fill-opacity: 0.5; stroke: #92c5de; stroke-width: 2.5"/>
    </g>
   </g>
   <g id="PolyCollection_3">
    <defs>
     <path id="m3571b784d5" d="M 82.966761 -42.714129 
L 82.966761 -42.68 
L 84.58342 -42.68 
L 86.200079 -42.68 
L 87.816737 -42.68 
L 89.433396 -42.68 
L 91.050054 -42.68 
L 92.666713 -42.68 
L 94.283372 -42.68 
L 95.90003 -42.68 
L 97.516689 -42.68 
L 99.133347 -42.68 
L 100.750006 -42.68 
L 102.366664 -42.68 
L 103.983323 -42.68 
L 105.599982 -42.68 
L 107.21664 -42.68 
L 108.833299 -42.68 
L 110.449957 -42.68 
L 112.066616 -42.68 
L 113.683274 -42.68 
L 115.299933 -42.68 
L 116.916592 -42.68 
L 118.53325 -42.68 
L 120.149909 -42.68 
L 121.766567 -42.68 
L 123.383226 -42.68 
L 124.999884 -42.68 
L 126.616543 -42.68 
L 128.233202 -42.68 
L 129.84986 -42.68 
L 131.466519 -42.68 
L 133.083177 -42.68 
L 134.699836 -42.68 
L 136.316494 -42.68 
L 137.933153 -42.68 
L 139.549812 -42.68 
L 141.16647 -42.68 
L 142.783129 -42.68 
L 144.399787 -42.68 
L 146.016446 -42.68 
L 147.633105 -42.68 
L 149.249763 -42.68 
L 150.866422 -42.68 
L 152.48308 -42.68 
L 154.099739 -42.68 
L 155.716397 -42.68 
L 157.333056 -42.68 
L 158.949715 -42.68 
L 160.566373 -42.68 
L 162.183032 -42.68 
L 163.79969 -42.68 
L 165.416349 -42.68 
L 167.033007 -42.68 
L 168.649666 -42.68 
L 170.266325 -42.68 
L 171.882983 -42.68 
L 173.499642 -42.68 
L 175.1163 -42.68 
L 176.732959 -42.68 
L 178.349617 -42.68 
L 179.966276 -42.68 
L 181.582935 -42.68 
L 183.199593 -42.68 
L 184.816252 -42.68 
L 186.43291 -42.68 
L 188.049569 -42.68 
L 189.666228 -42.68 
L 191.282886 -42.68 
L 192.899545 -42.68 
L 194.516203 -42.68 
L 196.132862 -42.68 
L 197.74952 -42.68 
L 199.366179 -42.68 
L 200.982838 -42.68 
L 202.599496 -42.68 
L 204.216155 -42.68 
L 205.832813 -42.68 
L 207.449472 -42.68 
L 209.06613 -42.68 
L 210.682789 -42.68 
L 212.299448 -42.68 
L 213.916106 -42.68 
L 215.532765 -42.68 
L 217.149423 -42.68 
L 218.766082 -42.68 
L 220.38274 -42.68 
L 221.999399 -42.68 
L 223.616058 -42.68 
L 225.232716 -42.68 
L 226.849375 -42.68 
L 228.466033 -42.68 
L 230.082692 -42.68 
L 231.699351 -42.68 
L 233.316009 -42.68 
L 234.932668 -42.68 
L 236.549326 -42.68 
L 238.165985 -42.68 
L 239.782643 -42.68 
L 241.399302 -42.68 
L 243.015961 -42.68 
L 244.632619 -42.68 
L 246.249278 -42.68 
L 247.865936 -42.68 
L 249.482595 -42.68 
L 251.099253 -42.68 
L 252.715912 -42.68 
L 254.332571 -42.68 
L 255.949229 -42.68 
L 257.565888 -42.68 
L 259.182546 -42.68 
L 260.799205 -42.68 
L 262.415863 -42.68 
L 264.032522 -42.68 
L 265.649181 -42.68 
L 267.265839 -42.68 
L 268.882498 -42.68 
L 270.499156 -42.68 
L 272.115815 -42.68 
L 273.732473 -42.68 
L 275.349132 -42.68 
L 276.965791 -42.68 
L 278.582449 -42.68 
L 280.199108 -42.68 
L 281.815766 -42.68 
L 283.432425 -42.68 
L 285.049084 -42.68 
L 286.665742 -42.68 
L 288.282401 -42.68 
L 289.899059 -42.68 
L 291.515718 -42.68 
L 293.132376 -42.68 
L 294.749035 -42.68 
L 296.365694 -42.68 
L 297.982352 -42.68 
L 299.599011 -42.68 
L 301.215669 -42.68 
L 302.832328 -42.68 
L 304.448986 -42.68 
L 306.065645 -42.68 
L 307.682304 -42.68 
L 309.298962 -42.68 
L 310.915621 -42.68 
L 312.532279 -42.68 
L 314.148938 -42.68 
L 315.765596 -42.68 
L 317.382255 -42.68 
L 318.998914 -42.68 
L 320.615572 -42.68 
L 322.232231 -42.68 
L 323.848889 -42.68 
L 325.465548 -42.68 
L 327.082207 -42.68 
L 328.698865 -42.68 
L 330.315524 -42.68 
L 331.932182 -42.68 
L 333.548841 -42.68 
L 335.165499 -42.68 
L 336.782158 -42.68 
L 338.398817 -42.68 
L 340.015475 -42.68 
L 341.632134 -42.68 
L 343.248792 -42.68 
L 344.865451 -42.68 
L 346.482109 -42.68 
L 348.098768 -42.68 
L 349.715427 -42.68 
L 351.332085 -42.68 
L 352.948744 -42.68 
L 354.565402 -42.68 
L 356.182061 -42.68 
L 357.798719 -42.68 
L 359.415378 -42.68 
L 361.032037 -42.68 
L 362.648695 -42.68 
L 364.265354 -42.68 
L 365.882012 -42.68 
L 367.498671 -42.68 
L 369.115329 -42.68 
L 370.731988 -42.68 
L 372.348647 -42.68 
L 373.965305 -42.68 
L 375.581964 -42.68 
L 377.198622 -42.68 
L 378.815281 -42.68 
L 380.43194 -42.68 
L 382.048598 -42.68 
L 383.665257 -42.68 
L 385.281915 -42.68 
L 386.898574 -42.68 
L 388.515232 -42.68 
L 390.131891 -42.68 
L 391.74855 -42.68 
L 393.365208 -42.68 
L 394.981867 -42.68 
L 396.598525 -42.68 
L 398.215184 -42.68 
L 399.831842 -42.68 
L 401.448501 -42.68 
L 403.06516 -42.68 
L 404.681818 -42.68 
L 404.681818 -42.699772 
L 404.681818 -42.699772 
L 403.06516 -42.708821 
L 401.448501 -42.721449 
L 399.831842 -42.738813 
L 398.215184 -42.762348 
L 396.598525 -42.793789 
L 394.981867 -42.835191 
L 393.365208 -42.888941 
L 391.74855 -42.957744 
L 390.131891 -43.0446 
L 388.515232 -43.152756 
L 386.898574 -43.285642 
L 385.281915 -43.446804 
L 383.665257 -43.639814 
L 382.048598 -43.868209 
L 380.43194 -44.135428 
L 378.815281 -44.444802 
L 377.198622 -44.799573 
L 375.581964 -45.202983 
L 373.965305 -45.658412 
L 372.348647 -46.169584 
L 370.731988 -46.740806 
L 369.115329 -47.377244 
L 367.498671 -48.085184 
L 365.882012 -48.872264 
L 364.265354 -49.747629 
L 362.648695 -50.721987 
L 361.032037 -51.807549 
L 359.415378 -53.017837 
L 357.798719 -54.367389 
L 356.182061 -55.871386 
L 354.565402 -57.545256 
L 352.948744 -59.404326 
L 351.332085 -61.463573 
L 349.715427 -63.737562 
L 348.098768 -66.240585 
L 346.482109 -68.987031 
L 344.865451 -71.991948 
L 343.248792 -75.271723 
L 341.632134 -78.84478 
L 340.015475 -82.73213 
L 338.398817 -86.957629 
L 336.782158 -91.547797 
L 335.165499 -96.531049 
L 333.548841 -101.936303 
L 331.932182 -107.79094 
L 330.315524 -114.118222 
L 328.698865 -120.934332 
L 327.082207 -128.245269 
L 325.465548 -136.043917 
L 323.848889 -144.307582 
L 322.232231 -152.996303 
L 320.615572 -162.052201 
L 318.998914 -171.400012 
L 317.382255 -180.948886 
L 315.765596 -190.595376 
L 314.148938 -200.22746 
L 312.532279 -209.729306 
L 310.915621 -218.986437 
L 309.298962 -227.890889 
L 307.682304 -236.345974 
L 306.065645 -244.270275 
L 304.448986 -251.600575 
L 302.832328 -258.293516 
L 301.215669 -264.325916 
L 299.599011 -269.693759 
L 297.982352 -274.410027 
L 296.365694 -278.501615 
L 294.749035 -282.005669 
L 293.132376 -284.9657 
L 291.515718 -287.427866 
L 289.899059 -289.437736 
L 288.282401 -291.037822 
L 286.665742 -292.266034 
L 285.049084 -293.155113 
L 283.432425 -293.732986 
L 281.815766 -294.023869 
L 280.199108 -294.049875 
L 278.582449 -293.832844 
L 276.965791 -293.396085 
L 275.349132 -292.765773 
L 273.732473 -291.971806 
L 272.115815 -291.047997 
L 270.499156 -290.031596 
L 268.882498 -288.96221 
L 267.265839 -287.880273 
L 265.649181 -286.825278 
L 264.032522 -285.83398 
L 262.415863 -284.938813 
L 260.799205 -284.166675 
L 259.182546 -283.53823 
L 257.565888 -283.067772 
L 255.949229 -282.763641 
L 254.332571 -282.629112 
L 252.715912 -282.663612 
L 251.099253 -282.864096 
L 249.482595 -283.226388 
L 247.865936 -283.746295 
L 246.249278 -284.42035 
L 244.632619 -285.246045 
L 243.015961 -286.221533 
L 241.399302 -287.344795 
L 239.782643 -288.612367 
L 238.165985 -290.017779 
L 236.549326 -291.549903 
L 234.932668 -293.191423 
L 233.316009 -294.917663 
L 231.699351 -296.695949 
L 230.082692 -298.485652 
L 228.466033 -300.238974 
L 226.849375 -301.902453 
L 225.232716 -303.419087 
L 223.616058 -304.7309 
L 221.999399 -305.781719 
L 220.38274 -306.519913 
L 218.766082 -306.900848 
L 217.149423 -306.88885 
L 215.532765 -306.45854 
L 213.916106 -305.595453 
L 212.299448 -304.295976 
L 210.682789 -302.566661 
L 209.06613 -300.423071 
L 207.449472 -297.888319 
L 205.832813 -294.991471 
L 204.216155 -291.765998 
L 202.599496 -288.248372 
L 200.982838 -284.476923 
L 199.366179 -280.490969 
L 197.74952 -276.330226 
L 196.132862 -272.034462 
L 194.516203 -267.643315 
L 192.899545 -263.196221 
L 191.282886 -258.732369 
L 189.666228 -254.290622 
L 188.049569 -249.909346 
L 186.43291 -245.626107 
L 184.816252 -241.47722 
L 183.199593 -237.497122 
L 181.582935 -233.717576 
L 179.966276 -230.166735 
L 178.349617 -226.868056 
L 176.732959 -223.839143 
L 175.1163 -221.090541 
L 173.499642 -218.624553 
L 171.882983 -216.434162 
L 170.266325 -214.502129 
L 168.649666 -212.800358 
L 167.033007 -211.289607 
L 165.416349 -209.919646 
L 163.79969 -208.629899 
L 162.183032 -207.350648 
L 160.566373 -206.004809 
L 158.949715 -204.510275 
L 157.333056 -202.782776 
L 155.716397 -200.73917 
L 154.099739 -198.301024 
L 152.48308 -195.398311 
L 150.866422 -191.973022 
L 149.249763 -187.982453 
L 147.633105 -183.401942 
L 146.016446 -178.226853 
L 144.399787 -172.473616 
L 142.783129 -166.179726 
L 141.16647 -159.402647 
L 139.549812 -152.217669 
L 137.933153 -144.71483 
L 136.316494 -136.995093 
L 134.699836 -129.166026 
L 133.083177 -121.337266 
L 131.466519 -113.616041 
L 129.84986 -106.103038 
L 128.233202 -98.88883 
L 126.616543 -92.051055 
L 124.999884 -85.652438 
L 123.383226 -79.739719 
L 121.766567 -74.343437 
L 120.149909 -69.478513 
L 118.53325 -65.14548 
L 116.916592 -61.332235 
L 115.299933 -58.016119 
L 113.683274 -55.16618 
L 112.066616 -52.745466 
L 110.449957 -50.713209 
L 108.833299 -49.026811 
L 107.21664 -47.643559 
L 105.599982 -46.522036 
L 103.983323 -45.623191 
L 102.366664 -44.911116 
L 100.750006 -44.353511 
L 99.133347 -43.921921 
L 97.516689 -43.591743 
L 95.90003 -43.342091 
L 94.283372 -43.155536 
L 92.666713 -43.01777 
L 91.050054 -42.917237 
L 89.433396 -42.844748 
L 87.816737 -42.793105 
L 86.200079 -42.756757 
L 84.58342 -42.731485 
L 82.966761 -42.714129 
z
" style="stroke: #2166ac; stroke-width: 2.5"/>
    </defs>
    <g clip-path="url(#pa5b276f08a)">
     <use xlink:href="#m3571b784d5" x="0" y="432" style="fill: #2166ac; fill-opacity: 0.5; stroke: #2166ac; stroke-width: 2.5"/>
    </g>
   </g>
   <g id="matplotlib.axis_1">
    <g id="xtick_1">
     <g id="line2d_1">
      <defs>
       <path id="mae9710d6e0" d="M 0 0 
L 0 3.5 
" style="stroke: #000000; stroke-width: 0.8"/>
      </defs>
      <g>
       <use xlink:href="#mae9710d6e0" x="65.392591" y="389.32" style="stroke: #000000; stroke-width: 0.8"/>
      </g>
     </g>
     <g id="text_1">
      <!-- −10 -->
      <g transform="translate(54.840247 403.918437) scale(0.1 -0.1)">
       <defs>
        <path id="DejaVuSans-2212" d="M 678 2272 
L 4684 2272 
L 4684 1741 
L 678 1741 
L 678 2272 
z
" transform="scale(0.015625)"/>
        <path id="DejaVuSans-31" d="M 794 531 
L 1825 531 
L 1825 4091 
L 703 3866 
L 703 4441 
L 1819 4666 
L 2450 4666 
L 2450 531 
L 3481 531 
L 3481 0 
L 794 0 
L 794 531 
z
" transform="scale(0.015625)"/>
        <path id="DejaVuSans-30" d="M 2034 4250 
Q 1547 4250 1301 3770 
Q 1056 3291 1056 2328 
Q 1056 1369 1301 889 
Q 1547 409 2034 409 
Q 2525 409 2770 889 
Q 3016 1369 3016 2328 
Q 3016 3291 2770 3770 
Q 2525 4250 2034 4250 
z
M 2034 4750 
Q 2819 4750 3233 4129 
Q 3647 3509 3647 2328 
Q 3647 1150 3233 529 
Q 2819 -91 2034 -91 
Q 1250 -91 836 529 
Q 422 1150 422 2328 
Q 422 3509 836 4129 
Q 1250 4750 2034 4750 
z
" transform="scale(0.015625)"/>
       </defs>
       <use xlink:href="#DejaVuSans-2212"/>
       <use xlink:href="#DejaVuSans-31" x="83.789062"/>
       <use xlink:href="#DejaVuSans-30" x="147.412109"/>
      </g>
     </g>
    </g>
    <g id="xtick_2">
     <g id="line2d_2">
      <g>
       <use xlink:href="#mae9710d6e0" x="145.079269" y="389.32" style="stroke: #000000; stroke-width: 0.8"/>
      </g>
     </g>
     <g id="text_2">
      <!-- −5 -->
      <g transform="translate(137.708176 403.918437) scale(0.1 -0.1)">
       <defs>
        <path id="DejaVuSans-35" d="M 691 4666 
L 3169 4666 
L 3169 4134 
L 1269 4134 
L 1269 2991 
Q 1406 3038 1543 3061 
Q 1681 3084 1819 3084 
Q 2600 3084 3056 2656 
Q 3513 2228 3513 1497 
Q 3513 744 3044 326 
Q 2575 -91 1722 -91 
Q 1428 -91 1123 -41 
Q 819 9 494 109 
L 494 744 
Q 775 591 1075 516 
Q 1375 441 1709 441 
Q 2250 441 2565 725 
Q 2881 1009 2881 1497 
Q 2881 1984 2565 2268 
Q 2250 2553 1709 2553 
Q 1456 2553 1204 2497 
Q 953 2441 691 2322 
L 691 4666 
z
" transform="scale(0.015625)"/>
       </defs>
       <use xlink:href="#DejaVuSans-2212"/>
       <use xlink:href="#DejaVuSans-35" x="83.789062"/>
      </g>
     </g>
    </g>
    <g id="xtick_3">
     <g id="line2d_3">
      <g>
       <use xlink:href="#mae9710d6e0" x="224.765948" y="389.32" style="stroke: #000000; stroke-width: 0.8"/>
      </g>
     </g>
     <g id="text_3">
      <!-- 0 -->
      <g transform="translate(221.584698 403.918437) scale(0.1 -0.1)">
       <use xlink:href="#DejaVuSans-30"/>
      </g>
     </g>
    </g>
    <g id="xtick_4">
     <g id="line2d_4">
      <g>
       <use xlink:href="#mae9710d6e0" x="304.452626" y="389.32" style="stroke: #000000; stroke-width: 0.8"/>
      </g>
     </g>
     <g id="text_4">
      <!-- 5 -->
      <g transform="translate(301.271376 403.918437) scale(0.1 -0.1)">
       <use xlink:href="#DejaVuSans-35"/>
      </g>
     </g>
    </g>
    <g id="xtick_5">
     <g id="line2d_5">
      <g>
       <use xlink:href="#mae9710d6e0" x="384.139305" y="389.32" style="stroke: #000000; stroke-width: 0.8"/>
      </g>
     </g>
     <g id="text_5">
      <!-- 10 -->
      <g transform="translate(377.776805 403.918437) scale(0.1 -0.1)">
       <use xlink:href="#DejaVuSans-31"/>
       <use xlink:href="#DejaVuSans-30" x="63.623047"/>
      </g>
     </g>
    </g>
    <g id="text_6">
     <!-- Predicted Fluorescence -->
     <g transform="translate(169.90375 419.11625) scale(0.12 -0.12)">
      <defs>
       <path id="DejaVuSans-50" d="M 1259 4147 
L 1259 2394 
L 2053 2394 
Q 2494 2394 2734 2622 
Q 2975 2850 2975 3272 
Q 2975 3691 2734 3919 
Q 2494 4147 2053 4147 
L 1259 4147 
z
M 628 4666 
L 2053 4666 
Q 2838 4666 3239 4311 
Q 3641 3956 3641 3272 
Q 3641 2581 3239 2228 
Q 2838 1875 2053 1875 
L 1259 1875 
L 1259 0 
L 628 0 
L 628 4666 
z
" transform="scale(0.015625)"/>
       <path id="DejaVuSans-72" d="M 2631 2963 
Q 2534 3019 2420 3045 
Q 2306 3072 2169 3072 
Q 1681 3072 1420 2755 
Q 1159 2438 1159 1844 
L 1159 0 
L 581 0 
L 581 3500 
L 1159 3500 
L 1159 2956 
Q 1341 3275 1631 3429 
Q 1922 3584 2338 3584 
Q 2397 3584 2469 3576 
Q 2541 3569 2628 3553 
L 2631 2963 
z
" transform="scale(0.015625)"/>
       <path id="DejaVuSans-65" d="M 3597 1894 
L 3597 1613 
L 953 1613 
Q 991 1019 1311 708 
Q 1631 397 2203 397 
Q 2534 397 2845 478 
Q 3156 559 3463 722 
L 3463 178 
Q 3153 47 2828 -22 
Q 2503 -91 2169 -91 
Q 1331 -91 842 396 
Q 353 884 353 1716 
Q 353 2575 817 3079 
Q 1281 3584 2069 3584 
Q 2775 3584 3186 3129 
Q 3597 2675 3597 1894 
z
M 3022 2063 
Q 3016 2534 2758 2815 
Q 2500 3097 2075 3097 
Q 1594 3097 1305 2825 
Q 1016 2553 972 2059 
L 3022 2063 
z
" transform="scale(0.015625)"/>
       <path id="DejaVuSans-64" d="M 2906 2969 
L 2906 4863 
L 3481 4863 
L 3481 0 
L 2906 0 
L 2906 525 
Q 2725 213 2448 61 
Q 2172 -91 1784 -91 
Q 1150 -91 751 415 
Q 353 922 353 1747 
Q 353 2572 751 3078 
Q 1150 3584 1784 3584 
Q 2172 3584 2448 3432 
Q 2725 3281 2906 2969 
z
M 947 1747 
Q 947 1113 1208 752 
Q 1469 391 1925 391 
Q 2381 391 2643 752 
Q 2906 1113 2906 1747 
Q 2906 2381 2643 2742 
Q 2381 3103 1925 3103 
Q 1469 3103 1208 2742 
Q 947 2381 947 1747 
z
" transform="scale(0.015625)"/>
       <path id="DejaVuSans-69" d="M 603 3500 
L 1178 3500 
L 1178 0 
L 603 0 
L 603 3500 
z
M 603 4863 
L 1178 4863 
L 1178 4134 
L 603 4134 
L 603 4863 
z
" transform="scale(0.015625)"/>
       <path id="DejaVuSans-63" d="M 3122 3366 
L 3122 2828 
Q 2878 2963 2633 3030 
Q 2388 3097 2138 3097 
Q 1578 3097 1268 2742 
Q 959 2388 959 1747 
Q 959 1106 1268 751 
Q 1578 397 2138 397 
Q 2388 397 2633 464 
Q 2878 531 3122 666 
L 3122 134 
Q 2881 22 2623 -34 
Q 2366 -91 2075 -91 
Q 1284 -91 818 406 
Q 353 903 353 1747 
Q 353 2603 823 3093 
Q 1294 3584 2113 3584 
Q 2378 3584 2631 3529 
Q 2884 3475 3122 3366 
z
" transform="scale(0.015625)"/>
       <path id="DejaVuSans-74" d="M 1172 4494 
L 1172 3500 
L 2356 3500 
L 2356 3053 
L 1172 3053 
L 1172 1153 
Q 1172 725 1289 603 
Q 1406 481 1766 481 
L 2356 481 
L 2356 0 
L 1766 0 
Q 1100 0 847 248 
Q 594 497 594 1153 
L 594 3053 
L 172 3053 
L 172 3500 
L 594 3500 
L 594 4494 
L 1172 4494 
z
" transform="scale(0.015625)"/>
       <path id="DejaVuSans-20" transform="scale(0.015625)"/>
       <path id="DejaVuSans-46" d="M 628 4666 
L 3309 4666 
L 3309 4134 
L 1259 4134 
L 1259 2759 
L 3109 2759 
L 3109 2228 
L 1259 2228 
L 1259 0 
L 628 0 
L 628 4666 
z
" transform="scale(0.015625)"/>
       <path id="DejaVuSans-6c" d="M 603 4863 
L 1178 4863 
L 1178 0 
L 603 0 
L 603 4863 
z
" transform="scale(0.015625)"/>
       <path id="DejaVuSans-75" d="M 544 1381 
L 544 3500 
L 1119 3500 
L 1119 1403 
Q 1119 906 1312 657 
Q 1506 409 1894 409 
Q 2359 409 2629 706 
Q 2900 1003 2900 1516 
L 2900 3500 
L 3475 3500 
L 3475 0 
L 2900 0 
L 2900 538 
Q 2691 219 2414 64 
Q 2138 -91 1772 -91 
Q 1169 -91 856 284 
Q 544 659 544 1381 
z
M 1991 3584 
L 1991 3584 
z
" transform="scale(0.015625)"/>
       <path id="DejaVuSans-6f" d="M 1959 3097 
Q 1497 3097 1228 2736 
Q 959 2375 959 1747 
Q 959 1119 1226 758 
Q 1494 397 1959 397 
Q 2419 397 2687 759 
Q 2956 1122 2956 1747 
Q 2956 2369 2687 2733 
Q 2419 3097 1959 3097 
z
M 1959 3584 
Q 2709 3584 3137 3096 
Q 3566 2609 3566 1747 
Q 3566 888 3137 398 
Q 2709 -91 1959 -91 
Q 1206 -91 779 398 
Q 353 888 353 1747 
Q 353 2609 779 3096 
Q 1206 3584 1959 3584 
z
" transform="scale(0.015625)"/>
       <path id="DejaVuSans-73" d="M 2834 3397 
L 2834 2853 
Q 2591 2978 2328 3040 
Q 2066 3103 1784 3103 
Q 1356 3103 1142 2972 
Q 928 2841 928 2578 
Q 928 2378 1081 2264 
Q 1234 2150 1697 2047 
L 1894 2003 
Q 2506 1872 2764 1633 
Q 3022 1394 3022 966 
Q 3022 478 2636 193 
Q 2250 -91 1575 -91 
Q 1294 -91 989 -36 
Q 684 19 347 128 
L 347 722 
Q 666 556 975 473 
Q 1284 391 1588 391 
Q 1994 391 2212 530 
Q 2431 669 2431 922 
Q 2431 1156 2273 1281 
Q 2116 1406 1581 1522 
L 1381 1569 
Q 847 1681 609 1914 
Q 372 2147 372 2553 
Q 372 3047 722 3315 
Q 1072 3584 1716 3584 
Q 2034 3584 2315 3537 
Q 2597 3491 2834 3397 
z
" transform="scale(0.015625)"/>
       <path id="DejaVuSans-6e" d="M 3513 2113 
L 3513 0 
L 2938 0 
L 2938 2094 
Q 2938 2591 2744 2837 
Q 2550 3084 2163 3084 
Q 1697 3084 1428 2787 
Q 1159 2491 1159 1978 
L 1159 0 
L 581 0 
L 581 3500 
L 1159 3500 
L 1159 2956 
Q 1366 3272 1645 3428 
Q 1925 3584 2291 3584 
Q 2894 3584 3203 3211 
Q 3513 2838 3513 2113 
z
" transform="scale(0.015625)"/>
      </defs>
      <use xlink:href="#DejaVuSans-50"/>
      <use xlink:href="#DejaVuSans-72" x="58.552734"/>
      <use xlink:href="#DejaVuSans-65" x="97.416016"/>
      <use xlink:href="#DejaVuSans-64" x="158.939453"/>
      <use xlink:href="#DejaVuSans-69" x="222.416016"/>
      <use xlink:href="#DejaVuSans-63" x="250.199219"/>
      <use xlink:href="#DejaVuSans-74" x="305.179688"/>
      <use xlink:href="#DejaVuSans-65" x="344.388672"/>
      <use xlink:href="#DejaVuSans-64" x="405.912109"/>
      <use xlink:href="#DejaVuSans-20" x="469.388672"/>
      <use xlink:href="#DejaVuSans-46" x="501.175781"/>
      <use xlink:href="#DejaVuSans-6c" x="558.695312"/>
      <use xlink:href="#DejaVuSans-75" x="586.478516"/>
      <use xlink:href="#DejaVuSans-6f" x="649.857422"/>
      <use xlink:href="#DejaVuSans-72" x="711.039062"/>
      <use xlink:href="#DejaVuSans-65" x="749.902344"/>
      <use xlink:href="#DejaVuSans-73" x="811.425781"/>
      <use xlink:href="#DejaVuSans-63" x="863.525391"/>
      <use xlink:href="#DejaVuSans-65" x="918.505859"/>
      <use xlink:href="#DejaVuSans-6e" x="980.029297"/>
      <use xlink:href="#DejaVuSans-63" x="1043.408203"/>
      <use xlink:href="#DejaVuSans-65" x="1098.388672"/>
     </g>
    </g>
   </g>
   <g id="matplotlib.axis_2">
    <g id="ytick_1">
     <g id="line2d_6">
      <defs>
       <path id="m3dcd8814cf" d="M 0 0 
L -3.5 0 
" style="stroke: #000000; stroke-width: 0.8"/>
      </defs>
      <g>
       <use xlink:href="#m3dcd8814cf" x="57.8" y="389.32" style="stroke: #000000; stroke-width: 0.8"/>
      </g>
     </g>
     <g id="text_7">
      <!-- 0.00 -->
      <g transform="translate(28.534375 393.119219) scale(0.1 -0.1)">
       <defs>
        <path id="DejaVuSans-2e" d="M 684 794 
L 1344 794 
L 1344 0 
L 684 0 
L 684 794 
z
" transform="scale(0.015625)"/>
       </defs>
       <use xlink:href="#DejaVuSans-30"/>
       <use xlink:href="#DejaVuSans-2e" x="63.623047"/>
       <use xlink:href="#DejaVuSans-30" x="95.410156"/>
       <use xlink:href="#DejaVuSans-30" x="159.033203"/>
      </g>
     </g>
    </g>
    <g id="ytick_2">
     <g id="line2d_7">
      <g>
       <use xlink:href="#m3dcd8814cf" x="57.8" y="335.819854" style="stroke: #000000; stroke-width: 0.8"/>
      </g>
     </g>
     <g id="text_8">
      <!-- 0.02 -->
      <g transform="translate(28.534375 339.619073) scale(0.1 -0.1)">
       <defs>
        <path id="DejaVuSans-32" d="M 1228 531 
L 3431 531 
L 3431 0 
L 469 0 
L 469 531 
Q 828 903 1448 1529 
Q 2069 2156 2228 2338 
Q 2531 2678 2651 2914 
Q 2772 3150 2772 3378 
Q 2772 3750 2511 3984 
Q 2250 4219 1831 4219 
Q 1534 4219 1204 4116 
Q 875 4013 500 3803 
L 500 4441 
Q 881 4594 1212 4672 
Q 1544 4750 1819 4750 
Q 2544 4750 2975 4387 
Q 3406 4025 3406 3419 
Q 3406 3131 3298 2873 
Q 3191 2616 2906 2266 
Q 2828 2175 2409 1742 
Q 1991 1309 1228 531 
z
" transform="scale(0.015625)"/>
       </defs>
       <use xlink:href="#DejaVuSans-30"/>
       <use xlink:href="#DejaVuSans-2e" x="63.623047"/>
       <use xlink:href="#DejaVuSans-30" x="95.410156"/>
       <use xlink:href="#DejaVuSans-32" x="159.033203"/>
      </g>
     </g>
    </g>
    <g id="ytick_3">
     <g id="line2d_8">
      <g>
       <use xlink:href="#m3dcd8814cf" x="57.8" y="282.319708" style="stroke: #000000; stroke-width: 0.8"/>
      </g>
     </g>
     <g id="text_9">
      <!-- 0.04 -->
      <g transform="translate(28.534375 286.118926) scale(0.1 -0.1)">
       <defs>
        <path id="DejaVuSans-34" d="M 2419 4116 
L 825 1625 
L 2419 1625 
L 2419 4116 
z
M 2253 4666 
L 3047 4666 
L 3047 1625 
L 3713 1625 
L 3713 1100 
L 3047 1100 
L 3047 0 
L 2419 0 
L 2419 1100 
L 313 1100 
L 313 1709 
L 2253 4666 
z
" transform="scale(0.015625)"/>
       </defs>
       <use xlink:href="#DejaVuSans-30"/>
       <use xlink:href="#DejaVuSans-2e" x="63.623047"/>
       <use xlink:href="#DejaVuSans-30" x="95.410156"/>
       <use xlink:href="#DejaVuSans-34" x="159.033203"/>
      </g>
     </g>
    </g>
    <g id="ytick_4">
     <g id="line2d_9">
      <g>
       <use xlink:href="#m3dcd8814cf" x="57.8" y="228.819562" style="stroke: #000000; stroke-width: 0.8"/>
      </g>
     </g>
     <g id="text_10">
      <!-- 0.06 -->
      <g transform="translate(28.534375 232.61878) scale(0.1 -0.1)">
       <defs>
        <path id="DejaVuSans-36" d="M 2113 2584 
Q 1688 2584 1439 2293 
Q 1191 2003 1191 1497 
Q 1191 994 1439 701 
Q 1688 409 2113 409 
Q 2538 409 2786 701 
Q 3034 994 3034 1497 
Q 3034 2003 2786 2293 
Q 2538 2584 2113 2584 
z
M 3366 4563 
L 3366 3988 
Q 3128 4100 2886 4159 
Q 2644 4219 2406 4219 
Q 1781 4219 1451 3797 
Q 1122 3375 1075 2522 
Q 1259 2794 1537 2939 
Q 1816 3084 2150 3084 
Q 2853 3084 3261 2657 
Q 3669 2231 3669 1497 
Q 3669 778 3244 343 
Q 2819 -91 2113 -91 
Q 1303 -91 875 529 
Q 447 1150 447 2328 
Q 447 3434 972 4092 
Q 1497 4750 2381 4750 
Q 2619 4750 2861 4703 
Q 3103 4656 3366 4563 
z
" transform="scale(0.015625)"/>
       </defs>
       <use xlink:href="#DejaVuSans-30"/>
       <use xlink:href="#DejaVuSans-2e" x="63.623047"/>
       <use xlink:href="#DejaVuSans-30" x="95.410156"/>
       <use xlink:href="#DejaVuSans-36" x="159.033203"/>
      </g>
     </g>
    </g>
    <g id="ytick_5">
     <g id="line2d_10">
      <g>
       <use xlink:href="#m3dcd8814cf" x="57.8" y="175.319415" style="stroke: #000000; stroke-width: 0.8"/>
      </g>
     </g>
     <g id="text_11">
      <!-- 0.08 -->
      <g transform="translate(28.534375 179.118634) scale(0.1 -0.1)">
       <defs>
        <path id="DejaVuSans-38" d="M 2034 2216 
Q 1584 2216 1326 1975 
Q 1069 1734 1069 1313 
Q 1069 891 1326 650 
Q 1584 409 2034 409 
Q 2484 409 2743 651 
Q 3003 894 3003 1313 
Q 3003 1734 2745 1975 
Q 2488 2216 2034 2216 
z
M 1403 2484 
Q 997 2584 770 2862 
Q 544 3141 544 3541 
Q 544 4100 942 4425 
Q 1341 4750 2034 4750 
Q 2731 4750 3128 4425 
Q 3525 4100 3525 3541 
Q 3525 3141 3298 2862 
Q 3072 2584 2669 2484 
Q 3125 2378 3379 2068 
Q 3634 1759 3634 1313 
Q 3634 634 3220 271 
Q 2806 -91 2034 -91 
Q 1263 -91 848 271 
Q 434 634 434 1313 
Q 434 1759 690 2068 
Q 947 2378 1403 2484 
z
M 1172 3481 
Q 1172 3119 1398 2916 
Q 1625 2713 2034 2713 
Q 2441 2713 2670 2916 
Q 2900 3119 2900 3481 
Q 2900 3844 2670 4047 
Q 2441 4250 2034 4250 
Q 1625 4250 1398 4047 
Q 1172 3844 1172 3481 
z
" transform="scale(0.015625)"/>
       </defs>
       <use xlink:href="#DejaVuSans-30"/>
       <use xlink:href="#DejaVuSans-2e" x="63.623047"/>
       <use xlink:href="#DejaVuSans-30" x="95.410156"/>
       <use xlink:href="#DejaVuSans-38" x="159.033203"/>
      </g>
     </g>
    </g>
    <g id="ytick_6">
     <g id="line2d_11">
      <g>
       <use xlink:href="#m3dcd8814cf" x="57.8" y="121.819269" style="stroke: #000000; stroke-width: 0.8"/>
      </g>
     </g>
     <g id="text_12">
      <!-- 0.10 -->
      <g transform="translate(28.534375 125.618488) scale(0.1 -0.1)">
       <use xlink:href="#DejaVuSans-30"/>
       <use xlink:href="#DejaVuSans-2e" x="63.623047"/>
       <use xlink:href="#DejaVuSans-31" x="95.410156"/>
       <use xlink:href="#DejaVuSans-30" x="159.033203"/>
      </g>
     </g>
    </g>
    <g id="ytick_7">
     <g id="line2d_12">
      <g>
       <use xlink:href="#m3dcd8814cf" x="57.8" y="68.319123" style="stroke: #000000; stroke-width: 0.8"/>
      </g>
     </g>
     <g id="text_13">
      <!-- 0.12 -->
      <g transform="translate(28.534375 72.118342) scale(0.1 -0.1)">
       <use xlink:href="#DejaVuSans-30"/>
       <use xlink:href="#DejaVuSans-2e" x="63.623047"/>
       <use xlink:href="#DejaVuSans-31" x="95.410156"/>
       <use xlink:href="#DejaVuSans-32" x="159.033203"/>
      </g>
     </g>
    </g>
    <g id="ytick_8">
     <g id="line2d_13">
      <g>
       <use xlink:href="#m3dcd8814cf" x="57.8" y="14.818977" style="stroke: #000000; stroke-width: 0.8"/>
      </g>
     </g>
     <g id="text_14">
      <!-- 0.14 -->
      <g transform="translate(28.534375 18.618196) scale(0.1 -0.1)">
       <use xlink:href="#DejaVuSans-30"/>
       <use xlink:href="#DejaVuSans-2e" x="63.623047"/>
       <use xlink:href="#DejaVuSans-31" x="95.410156"/>
       <use xlink:href="#DejaVuSans-34" x="159.033203"/>
      </g>
     </g>
    </g>
    <g id="text_15">
     <!-- Density -->
     <g transform="translate(21.622813 228.420592) rotate(-90) scale(0.14 -0.14)">
      <defs>
       <path id="DejaVuSans-44" d="M 1259 4147 
L 1259 519 
L 2022 519 
Q 2988 519 3436 956 
Q 3884 1394 3884 2338 
Q 3884 3275 3436 3711 
Q 2988 4147 2022 4147 
L 1259 4147 
z
M 628 4666 
L 1925 4666 
Q 3281 4666 3915 4102 
Q 4550 3538 4550 2338 
Q 4550 1131 3912 565 
Q 3275 0 1925 0 
L 628 0 
L 628 4666 
z
" transform="scale(0.015625)"/>
       <path id="DejaVuSans-79" d="M 2059 -325 
Q 1816 -950 1584 -1140 
Q 1353 -1331 966 -1331 
L 506 -1331 
L 506 -850 
L 844 -850 
Q 1081 -850 1212 -737 
Q 1344 -625 1503 -206 
L 1606 56 
L 191 3500 
L 800 3500 
L 1894 763 
L 2988 3500 
L 3597 3500 
L 2059 -325 
z
" transform="scale(0.015625)"/>
      </defs>
      <use xlink:href="#DejaVuSans-44"/>
      <use xlink:href="#DejaVuSans-65" x="77.001953"/>
      <use xlink:href="#DejaVuSans-6e" x="138.525391"/>
      <use xlink:href="#DejaVuSans-73" x="201.904297"/>
      <use xlink:href="#DejaVuSans-69" x="254.003906"/>
      <use xlink:href="#DejaVuSans-74" x="281.787109"/>
      <use xlink:href="#DejaVuSans-79" x="320.996094"/>
     </g>
    </g>
   </g>
   <g id="line2d_14">
    <path d="M 183.54767 389.32 
L 183.54767 14.297122 
" clip-path="url(#pa5b276f08a)" style="fill: none; stroke-dasharray: 3.7,1.6; stroke-dashoffset: 0; stroke: #000000"/>
   </g>
   <g id="patch_3">
    <path d="M 57.8 389.32 
L 57.8 14.297122 
" style="fill: none; stroke: #000000; stroke-width: 0.8; stroke-linejoin: miter; stroke-linecap: square"/>
   </g>
   <g id="patch_4">
    <path d="M 57.8 389.32 
L 421.2 389.32 
" style="fill: none; stroke: #000000; stroke-width: 0.8; stroke-linejoin: miter; stroke-linecap: square"/>
   </g>
   <g id="legend_1">
    <g id="patch_5">
     <path d="M 257.389062 81.009622 
L 414.2 81.009622 
Q 416.2 81.009622 416.2 79.009622 
L 416.2 21.297122 
Q 416.2 19.297122 414.2 19.297122 
L 257.389062 19.297122 
Q 255.389062 19.297122 255.389062 21.297122 
L 255.389062 79.009622 
Q 255.389062 81.009622 257.389062 81.009622 
z
" style="fill: #ffffff; opacity: 0.8; stroke: #cccccc; stroke-linejoin: miter"/>
    </g>
    <g id="patch_6">
     <path d="M 259.389062 30.89556 
L 279.389062 30.89556 
L 279.389062 23.89556 
L 259.389062 23.89556 
z
" style="fill: #bdbdbd; fill-opacity: 0.5; stroke: #bdbdbd; stroke-width: 2.5; stroke-linejoin: miter"/>
    </g>
    <g id="text_16">
     <!-- Pre-trained ESM2 (150M) -->
     <g transform="translate(287.389062 30.89556) scale(0.1 -0.1)">
      <defs>
       <path id="DejaVuSans-2d" d="M 313 2009 
L 1997 2009 
L 1997 1497 
L 313 1497 
L 313 2009 
z
" transform="scale(0.015625)"/>
       <path id="DejaVuSans-61" d="M 2194 1759 
Q 1497 1759 1228 1600 
Q 959 1441 959 1056 
Q 959 750 1161 570 
Q 1363 391 1709 391 
Q 2188 391 2477 730 
Q 2766 1069 2766 1631 
L 2766 1759 
L 2194 1759 
z
M 3341 1997 
L 3341 0 
L 2766 0 
L 2766 531 
Q 2569 213 2275 61 
Q 1981 -91 1556 -91 
Q 1019 -91 701 211 
Q 384 513 384 1019 
Q 384 1609 779 1909 
Q 1175 2209 1959 2209 
L 2766 2209 
L 2766 2266 
Q 2766 2663 2505 2880 
Q 2244 3097 1772 3097 
Q 1472 3097 1187 3025 
Q 903 2953 641 2809 
L 641 3341 
Q 956 3463 1253 3523 
Q 1550 3584 1831 3584 
Q 2591 3584 2966 3190 
Q 3341 2797 3341 1997 
z
" transform="scale(0.015625)"/>
       <path id="DejaVuSans-45" d="M 628 4666 
L 3578 4666 
L 3578 4134 
L 1259 4134 
L 1259 2753 
L 3481 2753 
L 3481 2222 
L 1259 2222 
L 1259 531 
L 3634 531 
L 3634 0 
L 628 0 
L 628 4666 
z
" transform="scale(0.015625)"/>
       <path id="DejaVuSans-53" d="M 3425 4513 
L 3425 3897 
Q 3066 4069 2747 4153 
Q 2428 4238 2131 4238 
Q 1616 4238 1336 4038 
Q 1056 3838 1056 3469 
Q 1056 3159 1242 3001 
Q 1428 2844 1947 2747 
L 2328 2669 
Q 3034 2534 3370 2195 
Q 3706 1856 3706 1288 
Q 3706 609 3251 259 
Q 2797 -91 1919 -91 
Q 1588 -91 1214 -16 
Q 841 59 441 206 
L 441 856 
Q 825 641 1194 531 
Q 1563 422 1919 422 
Q 2459 422 2753 634 
Q 3047 847 3047 1241 
Q 3047 1584 2836 1778 
Q 2625 1972 2144 2069 
L 1759 2144 
Q 1053 2284 737 2584 
Q 422 2884 422 3419 
Q 422 4038 858 4394 
Q 1294 4750 2059 4750 
Q 2388 4750 2728 4690 
Q 3069 4631 3425 4513 
z
" transform="scale(0.015625)"/>
       <path id="DejaVuSans-4d" d="M 628 4666 
L 1569 4666 
L 2759 1491 
L 3956 4666 
L 4897 4666 
L 4897 0 
L 4281 0 
L 4281 4097 
L 3078 897 
L 2444 897 
L 1241 4097 
L 1241 0 
L 628 0 
L 628 4666 
z
" transform="scale(0.015625)"/>
       <path id="DejaVuSans-28" d="M 1984 4856 
Q 1566 4138 1362 3434 
Q 1159 2731 1159 2009 
Q 1159 1288 1364 580 
Q 1569 -128 1984 -844 
L 1484 -844 
Q 1016 -109 783 600 
Q 550 1309 550 2009 
Q 550 2706 781 3412 
Q 1013 4119 1484 4856 
L 1984 4856 
z
" transform="scale(0.015625)"/>
       <path id="DejaVuSans-29" d="M 513 4856 
L 1013 4856 
Q 1481 4119 1714 3412 
Q 1947 2706 1947 2009 
Q 1947 1309 1714 600 
Q 1481 -109 1013 -844 
L 513 -844 
Q 928 -128 1133 580 
Q 1338 1288 1338 2009 
Q 1338 2731 1133 3434 
Q 928 4138 513 4856 
z
" transform="scale(0.015625)"/>
      </defs>
      <use xlink:href="#DejaVuSans-50"/>
      <use xlink:href="#DejaVuSans-72" x="58.552734"/>
      <use xlink:href="#DejaVuSans-65" x="97.416016"/>
      <use xlink:href="#DejaVuSans-2d" x="158.939453"/>
      <use xlink:href="#DejaVuSans-74" x="195.023438"/>
      <use xlink:href="#DejaVuSans-72" x="234.232422"/>
      <use xlink:href="#DejaVuSans-61" x="275.345703"/>
      <use xlink:href="#DejaVuSans-69" x="336.625"/>
      <use xlink:href="#DejaVuSans-6e" x="364.408203"/>
      <use xlink:href="#DejaVuSans-65" x="427.787109"/>
      <use xlink:href="#DejaVuSans-64" x="489.310547"/>
      <use xlink:href="#DejaVuSans-20" x="552.787109"/>
      <use xlink:href="#DejaVuSans-45" x="584.574219"/>
      <use xlink:href="#DejaVuSans-53" x="647.757812"/>
      <use xlink:href="#DejaVuSans-4d" x="711.234375"/>
      <use xlink:href="#DejaVuSans-32" x="797.513672"/>
      <use xlink:href="#DejaVuSans-20" x="861.136719"/>
      <use xlink:href="#DejaVuSans-28" x="892.923828"/>
      <use xlink:href="#DejaVuSans-31" x="931.9375"/>
      <use xlink:href="#DejaVuSans-35" x="995.560547"/>
      <use xlink:href="#DejaVuSans-30" x="1059.183594"/>
      <use xlink:href="#DejaVuSans-4d" x="1122.806641"/>
      <use xlink:href="#DejaVuSans-29" x="1209.085938"/>
     </g>
    </g>
    <g id="patch_7">
     <path d="M 259.389062 45.573685 
L 279.389062 45.573685 
L 279.389062 38.573685 
L 259.389062 38.573685 
z
" style="fill: #92c5de; fill-opacity: 0.5; stroke: #92c5de; stroke-width: 2.5; stroke-linejoin: miter"/>
    </g>
    <g id="text_17">
     <!-- SFT ESM2 (150M) -->
     <g transform="translate(287.389062 45.573685) scale(0.1 -0.1)">
      <defs>
       <path id="DejaVuSans-54" d="M -19 4666 
L 3928 4666 
L 3928 4134 
L 2272 4134 
L 2272 0 
L 1638 0 
L 1638 4134 
L -19 4134 
L -19 4666 
z
" transform="scale(0.015625)"/>
      </defs>
      <use xlink:href="#DejaVuSans-53"/>
      <use xlink:href="#DejaVuSans-46" x="63.476562"/>
      <use xlink:href="#DejaVuSans-54" x="119.246094"/>
      <use xlink:href="#DejaVuSans-20" x="180.330078"/>
      <use xlink:href="#DejaVuSans-45" x="212.117188"/>
      <use xlink:href="#DejaVuSans-53" x="275.300781"/>
      <use xlink:href="#DejaVuSans-4d" x="338.777344"/>
      <use xlink:href="#DejaVuSans-32" x="425.056641"/>
      <use xlink:href="#DejaVuSans-20" x="488.679688"/>
      <use xlink:href="#DejaVuSans-28" x="520.466797"/>
      <use xlink:href="#DejaVuSans-31" x="559.480469"/>
      <use xlink:href="#DejaVuSans-35" x="623.103516"/>
      <use xlink:href="#DejaVuSans-30" x="686.726562"/>
      <use xlink:href="#DejaVuSans-4d" x="750.349609"/>
      <use xlink:href="#DejaVuSans-29" x="836.628906"/>
     </g>
    </g>
    <g id="patch_8">
     <path d="M 259.389062 60.25181 
L 279.389062 60.25181 
L 279.389062 53.25181 
L 259.389062 53.25181 
z
" style="fill: #2166ac; fill-opacity: 0.5; stroke: #2166ac; stroke-width: 2.5; stroke-linejoin: miter"/>
    </g>
    <g id="text_18">
     <!-- Aligned ESM2 (150M) -->
     <g transform="translate(287.389062 60.25181) scale(0.1 -0.1)">
      <defs>
       <path id="DejaVuSans-41" d="M 2188 4044 
L 1331 1722 
L 3047 1722 
L 2188 4044 
z
M 1831 4666 
L 2547 4666 
L 4325 0 
L 3669 0 
L 3244 1197 
L 1141 1197 
L 716 0 
L 50 0 
L 1831 4666 
z
" transform="scale(0.015625)"/>
       <path id="DejaVuSans-67" d="M 2906 1791 
Q 2906 2416 2648 2759 
Q 2391 3103 1925 3103 
Q 1463 3103 1205 2759 
Q 947 2416 947 1791 
Q 947 1169 1205 825 
Q 1463 481 1925 481 
Q 2391 481 2648 825 
Q 2906 1169 2906 1791 
z
M 3481 434 
Q 3481 -459 3084 -895 
Q 2688 -1331 1869 -1331 
Q 1566 -1331 1297 -1286 
Q 1028 -1241 775 -1147 
L 775 -588 
Q 1028 -725 1275 -790 
Q 1522 -856 1778 -856 
Q 2344 -856 2625 -561 
Q 2906 -266 2906 331 
L 2906 616 
Q 2728 306 2450 153 
Q 2172 0 1784 0 
Q 1141 0 747 490 
Q 353 981 353 1791 
Q 353 2603 747 3093 
Q 1141 3584 1784 3584 
Q 2172 3584 2450 3431 
Q 2728 3278 2906 2969 
L 2906 3500 
L 3481 3500 
L 3481 434 
z
" transform="scale(0.015625)"/>
      </defs>
      <use xlink:href="#DejaVuSans-41"/>
      <use xlink:href="#DejaVuSans-6c" x="68.408203"/>
      <use xlink:href="#DejaVuSans-69" x="96.191406"/>
      <use xlink:href="#DejaVuSans-67" x="123.974609"/>
      <use xlink:href="#DejaVuSans-6e" x="187.451172"/>
      <use xlink:href="#DejaVuSans-65" x="250.830078"/>
      <use xlink:href="#DejaVuSans-64" x="312.353516"/>
      <use xlink:href="#DejaVuSans-20" x="375.830078"/>
      <use xlink:href="#DejaVuSans-45" x="407.617188"/>
      <use xlink:href="#DejaVuSans-53" x="470.800781"/>
      <use xlink:href="#DejaVuSans-4d" x="534.277344"/>
      <use xlink:href="#DejaVuSans-32" x="620.556641"/>
      <use xlink:href="#DejaVuSans-20" x="684.179688"/>
      <use xlink:href="#DejaVuSans-28" x="715.966797"/>
      <use xlink:href="#DejaVuSans-31" x="754.980469"/>
      <use xlink:href="#DejaVuSans-35" x="818.603516"/>
      <use xlink:href="#DejaVuSans-30" x="882.226562"/>
      <use xlink:href="#DejaVuSans-4d" x="945.849609"/>
      <use xlink:href="#DejaVuSans-29" x="1032.128906"/>
     </g>
    </g>
    <g id="line2d_15">
     <path d="M 259.389062 71.429935 
L 269.389062 71.429935 
L 279.389062 71.429935 
" style="fill: none; stroke-dasharray: 3.7,1.6; stroke-dashoffset: 0; stroke: #000000"/>
    </g>
    <g id="text_19">
     <!-- Predicted gb1 score -->
     <g transform="translate(287.389062 74.929935) scale(0.1 -0.1)">
      <defs>
       <path id="DejaVuSans-62" d="M 3116 1747 
Q 3116 2381 2855 2742 
Q 2594 3103 2138 3103 
Q 1681 3103 1420 2742 
Q 1159 2381 1159 1747 
Q 1159 1113 1420 752 
Q 1681 391 2138 391 
Q 2594 391 2855 752 
Q 3116 1113 3116 1747 
z
M 1159 2969 
Q 1341 3281 1617 3432 
Q 1894 3584 2278 3584 
Q 2916 3584 3314 3078 
Q 3713 2572 3713 1747 
Q 3713 922 3314 415 
Q 2916 -91 2278 -91 
Q 1894 -91 1617 61 
Q 1341 213 1159 525 
L 1159 0 
L 581 0 
L 581 4863 
L 1159 4863 
L 1159 2969 
z
" transform="scale(0.015625)"/>
      </defs>
      <use xlink:href="#DejaVuSans-50"/>
      <use xlink:href="#DejaVuSans-72" x="58.552734"/>
      <use xlink:href="#DejaVuSans-65" x="97.416016"/>
      <use xlink:href="#DejaVuSans-64" x="158.939453"/>
      <use xlink:href="#DejaVuSans-69" x="222.416016"/>
      <use xlink:href="#DejaVuSans-63" x="250.199219"/>
      <use xlink:href="#DejaVuSans-74" x="305.179688"/>
      <use xlink:href="#DejaVuSans-65" x="344.388672"/>
      <use xlink:href="#DejaVuSans-64" x="405.912109"/>
      <use xlink:href="#DejaVuSans-20" x="469.388672"/>
      <use xlink:href="#DejaVuSans-67" x="501.175781"/>
      <use xlink:href="#DejaVuSans-62" x="564.652344"/>
      <use xlink:href="#DejaVuSans-31" x="628.128906"/>
      <use xlink:href="#DejaVuSans-20" x="691.751953"/>
      <use xlink:href="#DejaVuSans-73" x="723.539062"/>
      <use xlink:href="#DejaVuSans-63" x="775.638672"/>
      <use xlink:href="#DejaVuSans-6f" x="830.619141"/>
      <use xlink:href="#DejaVuSans-72" x="891.800781"/>
      <use xlink:href="#DejaVuSans-65" x="930.664062"/>
     </g>
    </g>
   </g>
  </g>
 </g>
 <defs>
  <clipPath id="pa5b276f08a">
   <rect x="57.8" y="14.297122" width="363.4" height="375.022878"/>
  </clipPath>
 </defs>
</svg>
