<?xml version="1.0" encoding="utf-8" standalone="no"?>
<!DOCTYPE svg PUBLIC "-//W3C//DTD SVG 1.1//EN"
  "http://www.w3.org/Graphics/SVG/1.1/DTD/svg11.dtd">
<svg xmlns:xlink="http://www.w3.org/1999/xlink" width="432pt" height="432pt" viewBox="0 0 432 432" xmlns="http://www.w3.org/2000/svg" version="1.1">
 <metadata>
  <rdf:RDF xmlns:dc="http://purl.org/dc/elements/1.1/" xmlns:cc="http://creativecommons.org/ns#" xmlns:rdf="http://www.w3.org/1999/02/22-rdf-syntax-ns#">
   <cc:Work>
    <dc:type rdf:resource="http://purl.org/dc/dcmitype/StillImage"/>
    <dc:date>2025-04-03T13:58:40.094964</dc:date>
    <dc:format>image/svg+xml</dc:format>
    <dc:creator>
     <cc:Agent>
      <dc:title>Matplotlib v3.8.0, https://matplotlib.org/</dc:title>
     </cc:Agent>
    </dc:creator>
   </cc:Work>
  </rdf:RDF>
 </metadata>
 <defs>
  <style type="text/css">*{stroke-linejoin: round; stroke-linecap: butt}</style>
 </defs>
 <g id="figure_1">
  <g id="patch_1">
   <path d="M 0 432 
L 432 432 
L 432 0 
L 0 0 
z
" style="fill: #ffffff"/>
  </g>
  <g id="axes_1">
   <g id="patch_2">
    <path d="M 51.41 389.32 
L 421.2 389.32 
L 421.2 10.8 
L 51.41 10.8 
z
" style="fill: #ffffff"/>
   </g>
   <g id="PolyCollection_1">
    <defs>
     <path id="m379a89d543" d="M 68.218636 -42.689047 
L 68.218636 -42.68 
L 69.434742 -42.68 
L 70.650847 -42.68 
L 71.866953 -42.68 
L 73.083058 -42.68 
L 74.299164 -42.68 
L 75.515269 -42.68 
L 76.731374 -42.68 
L 77.94748 -42.68 
L 79.163585 -42.68 
L 80.379691 -42.68 
L 81.595796 -42.68 
L 82.811902 -42.68 
L 84.028007 -42.68 
L 85.244112 -42.68 
L 86.460218 -42.68 
L 87.676323 -42.68 
L 88.892429 -42.68 
L 90.108534 -42.68 
L 91.32464 -42.68 
L 92.540745 -42.68 
L 93.75685 -42.68 
L 94.972956 -42.68 
L 96.189061 -42.68 
L 97.405167 -42.68 
L 98.621272 -42.68 
L 99.837378 -42.68 
L 101.053483 -42.68 
L 102.269589 -42.68 
L 103.485694 -42.68 
L 104.701799 -42.68 
L 105.917905 -42.68 
L 107.13401 -42.68 
L 108.350116 -42.68 
L 109.566221 -42.68 
L 110.782327 -42.68 
L 111.998432 -42.68 
L 113.214537 -42.68 
L 114.430643 -42.68 
L 115.646748 -42.68 
L 116.862854 -42.68 
L 118.078959 -42.68 
L 119.295065 -42.68 
L 120.51117 -42.68 
L 121.727276 -42.68 
L 122.943381 -42.68 
L 124.159486 -42.68 
L 125.375592 -42.68 
L 126.591697 -42.68 
L 127.807803 -42.68 
L 129.023908 -42.68 
L 130.240014 -42.68 
L 131.456119 -42.68 
L 132.672224 -42.68 
L 133.88833 -42.68 
L 135.104435 -42.68 
L 136.320541 -42.68 
L 137.536646 -42.68 
L 138.752752 -42.68 
L 139.968857 -42.68 
L 141.184962 -42.68 
L 142.401068 -42.68 
L 143.617173 -42.68 
L 144.833279 -42.68 
L 146.049384 -42.68 
L 147.26549 -42.68 
L 148.481595 -42.68 
L 149.697701 -42.68 
L 150.913806 -42.68 
L 152.129911 -42.68 
L 153.346017 -42.68 
L 154.562122 -42.68 
L 155.778228 -42.68 
L 156.994333 -42.68 
L 158.210439 -42.68 
L 159.426544 -42.68 
L 160.642649 -42.68 
L 161.858755 -42.68 
L 163.07486 -42.68 
L 164.290966 -42.68 
L 165.507071 -42.68 
L 166.723177 -42.68 
L 167.939282 -42.68 
L 169.155387 -42.68 
L 170.371493 -42.68 
L 171.587598 -42.68 
L 172.803704 -42.68 
L 174.019809 -42.68 
L 175.235915 -42.68 
L 176.45202 -42.68 
L 177.668126 -42.68 
L 178.884231 -42.68 
L 180.100336 -42.68 
L 181.316442 -42.68 
L 182.532547 -42.68 
L 183.748653 -42.68 
L 184.964758 -42.68 
L 186.180864 -42.68 
L 187.396969 -42.68 
L 188.613074 -42.68 
L 189.82918 -42.68 
L 191.045285 -42.68 
L 192.261391 -42.68 
L 193.477496 -42.68 
L 194.693602 -42.68 
L 195.909707 -42.68 
L 197.125812 -42.68 
L 198.341918 -42.68 
L 199.558023 -42.68 
L 200.774129 -42.68 
L 201.990234 -42.68 
L 203.20634 -42.68 
L 204.422445 -42.68 
L 205.638551 -42.68 
L 206.854656 -42.68 
L 208.070761 -42.68 
L 209.286867 -42.68 
L 210.502972 -42.68 
L 211.719078 -42.68 
L 212.935183 -42.68 
L 214.151289 -42.68 
L 215.367394 -42.68 
L 216.583499 -42.68 
L 217.799605 -42.68 
L 219.01571 -42.68 
L 220.231816 -42.68 
L 221.447921 -42.68 
L 222.664027 -42.68 
L 223.880132 -42.68 
L 225.096237 -42.68 
L 226.312343 -42.68 
L 227.528448 -42.68 
L 228.744554 -42.68 
L 229.960659 -42.68 
L 231.176765 -42.68 
L 232.39287 -42.68 
L 233.608976 -42.68 
L 234.825081 -42.68 
L 236.041186 -42.68 
L 237.257292 -42.68 
L 238.473397 -42.68 
L 239.689503 -42.68 
L 240.905608 -42.68 
L 242.121714 -42.68 
L 243.337819 -42.68 
L 244.553924 -42.68 
L 245.77003 -42.68 
L 246.986135 -42.68 
L 248.202241 -42.68 
L 249.418346 -42.68 
L 250.634452 -42.68 
L 251.850557 -42.68 
L 253.066662 -42.68 
L 254.282768 -42.68 
L 255.498873 -42.68 
L 256.714979 -42.68 
L 257.931084 -42.68 
L 259.14719 -42.68 
L 260.363295 -42.68 
L 261.579401 -42.68 
L 262.795506 -42.68 
L 264.011611 -42.68 
L 265.227717 -42.68 
L 266.443822 -42.68 
L 267.659928 -42.68 
L 268.876033 -42.68 
L 270.092139 -42.68 
L 271.308244 -42.68 
L 272.524349 -42.68 
L 273.740455 -42.68 
L 274.95656 -42.68 
L 276.172666 -42.68 
L 277.388771 -42.68 
L 278.604877 -42.68 
L 279.820982 -42.68 
L 281.037087 -42.68 
L 282.253193 -42.68 
L 283.469298 -42.68 
L 284.685404 -42.68 
L 285.901509 -42.68 
L 287.117615 -42.68 
L 288.33372 -42.68 
L 289.549826 -42.68 
L 290.765931 -42.68 
L 291.982036 -42.68 
L 293.198142 -42.68 
L 294.414247 -42.68 
L 295.630353 -42.68 
L 296.846458 -42.68 
L 298.062564 -42.68 
L 299.278669 -42.68 
L 300.494774 -42.68 
L 301.71088 -42.68 
L 302.926985 -42.68 
L 304.143091 -42.68 
L 305.359196 -42.68 
L 306.575302 -42.68 
L 307.791407 -42.68 
L 309.007512 -42.68 
L 310.223618 -42.68 
L 310.223618 -42.692927 
L 310.223618 -42.692927 
L 309.007512 -42.70105 
L 307.791407 -42.713401 
L 306.575302 -42.731652 
L 305.359196 -42.75785 
L 304.143091 -42.794369 
L 302.926985 -42.843798 
L 301.71088 -42.908735 
L 300.494774 -42.991522 
L 299.278669 -43.093921 
L 298.062564 -43.216791 
L 296.846458 -43.359836 
L 295.630353 -43.521483 
L 294.414247 -43.698985 
L 293.198142 -43.888779 
L 291.982036 -44.087097 
L 290.765931 -44.290793 
L 289.549826 -44.498251 
L 288.33372 -44.71023 
L 287.117615 -44.930459 
L 285.901509 -45.165835 
L 284.685404 -45.42612 
L 283.469298 -45.723127 
L 282.253193 -46.06948 
L 281.037087 -46.477129 
L 279.820982 -46.955857 
L 278.604877 -47.512032 
L 277.388771 -48.14784 
L 276.172666 -48.861131 
L 274.95656 -49.64596 
L 273.740455 -50.493714 
L 272.524349 -51.394693 
L 271.308244 -52.339866 
L 270.092139 -53.322522 
L 268.876033 -54.339522 
L 267.659928 -55.39193 
L 266.443822 -56.484886 
L 265.227717 -57.626722 
L 264.011611 -58.827461 
L 262.795506 -60.096969 
L 261.579401 -61.443136 
L 260.363295 -62.870464 
L 259.14719 -64.379453 
L 257.931084 -65.967013 
L 256.714979 -67.627987 
L 255.498873 -69.357635 
L 254.282768 -71.154738 
L 253.066662 -73.024777 
L 251.850557 -74.982585 
L 250.634452 -77.053872 
L 249.418346 -79.275197 
L 248.202241 -81.692165 
L 246.986135 -84.355978 
L 245.77003 -87.318716 
L 244.553924 -90.62798 
L 243.337819 -94.321611 
L 242.121714 -98.423153 
L 240.905608 -102.938606 
L 239.689503 -107.854727 
L 238.473397 -113.138966 
L 237.257292 -118.74086 
L 236.041186 -124.594649 
L 234.825081 -130.622762 
L 233.608976 -136.739895 
L 232.39287 -142.857352 
L 231.176765 -148.887395 
L 229.960659 -154.747342 
L 228.744554 -160.363165 
L 227.528448 -165.672412 
L 226.312343 -170.626352 
L 225.096237 -175.191363 
L 223.880132 -179.349669 
L 222.664027 -183.099618 
L 221.447921 -186.455622 
L 220.231816 -189.447782 
L 219.01571 -192.121024 
L 217.799605 -194.533406 
L 216.583499 -196.753192 
L 215.367394 -198.854389 
L 214.151289 -200.910708 
L 212.935183 -202.988352 
L 211.719078 -205.138488 
L 210.502972 -207.390632 
L 209.286867 -209.748272 
L 208.070761 -212.187892 
L 206.854656 -214.662039 
L 205.638551 -217.106314 
L 204.422445 -219.449368 
L 203.20634 -221.624288 
L 201.990234 -223.579346 
L 200.774129 -225.286083 
L 199.558023 -226.743128 
L 198.341918 -227.974898 
L 197.125812 -229.025261 
L 195.909707 -229.947228 
L 194.693602 -230.790447 
L 193.477496 -231.588742 
L 192.261391 -232.349954 
L 191.045285 -233.049963 
L 189.82918 -233.632051 
L 188.613074 -234.011854 
L 187.396969 -234.087208 
L 186.180864 -233.751364 
L 184.964758 -232.907497 
L 183.748653 -231.482258 
L 182.532547 -229.436306 
L 181.316442 -226.770274 
L 180.100336 -223.525388 
L 178.884231 -219.778769 
L 177.668126 -215.634273 
L 176.45202 -211.210287 
L 175.235915 -206.626304 
L 174.019809 -201.990139 
L 172.803704 -197.387457 
L 171.587598 -192.874834 
L 170.371493 -188.476993 
L 169.155387 -184.188205 
L 167.939282 -179.97724 
L 166.723177 -175.794823 
L 165.507071 -171.582314 
L 164.290966 -167.280324 
L 163.07486 -162.83624 
L 161.858755 -158.209974 
L 160.642649 -153.377687 
L 159.426544 -148.333574 
L 158.210439 -143.090042 
L 156.994333 -137.67665 
L 155.778228 -132.138143 
L 154.562122 -126.531756 
L 153.346017 -120.923896 
L 152.129911 -115.38622 
L 150.913806 -109.991231 
L 149.697701 -104.807603 
L 148.481595 -99.895599 
L 147.26549 -95.303038 
L 146.049384 -91.062296 
L 144.833279 -87.188723 
L 143.617173 -83.680693 
L 142.401068 -80.521288 
L 141.184962 -77.681405 
L 139.968857 -75.123861 
L 138.752752 -72.807977 
L 137.536646 -70.694043 
L 136.320541 -68.747108 
L 135.104435 -66.939625 
L 133.88833 -65.252675 
L 132.672224 -63.675679 
L 131.456119 -62.204773 
L 130.240014 -60.840228 
L 129.023908 -59.583466 
L 127.807803 -58.434259 
L 126.591697 -57.388664 
L 125.375592 -56.438069 
L 124.159486 -55.569464 
L 122.943381 -54.766807 
L 121.727276 -54.013137 
L 120.51117 -53.292931 
L 119.295065 -52.594206 
L 118.078959 -51.909939 
L 116.862854 -51.238575 
L 115.646748 -50.583559 
L 114.430643 -49.952064 
L 113.214537 -49.353193 
L 111.998432 -48.796022 
L 110.782327 -48.287847 
L 109.566221 -47.832909 
L 108.350116 -47.431764 
L 107.13401 -47.081343 
L 105.917905 -46.775585 
L 104.701799 -46.506484 
L 103.485694 -46.265296 
L 102.269589 -46.043672 
L 101.053483 -45.834546 
L 99.837378 -45.632637 
L 98.621272 -45.434575 
L 97.405167 -45.238691 
L 96.189061 -45.044598 
L 94.972956 -44.852698 
L 93.75685 -44.663755 
L 92.540745 -44.478588 
L 91.32464 -44.297953 
L 90.108534 -44.122551 
L 88.892429 -43.953138 
L 87.676323 -43.79063 
L 86.460218 -43.636174 
L 85.244112 -43.491125 
L 84.028007 -43.356936 
L 82.811902 -43.234985 
L 81.595796 -43.126387 
L 80.379691 -43.031822 
L 79.163585 -42.951438 
L 77.94748 -42.884819 
L 76.731374 -42.831043 
L 75.515269 -42.788791 
L 74.299164 -42.756494 
L 73.083058 -42.732482 
L 71.866953 -42.715124 
L 70.650847 -42.702924 
L 69.434742 -42.694586 
L 68.218636 -42.689047 
z
" style="stroke: #bdbdbd; stroke-width: 2.5"/>
    </defs>
    <g clip-path="url(#p140041c282)">
     <use xlink:href="#m379a89d543" x="0" y="432" style="fill: #bdbdbd; fill-opacity: 0.5; stroke: #bdbdbd; stroke-width: 2.5"/>
    </g>
   </g>
   <g id="PolyCollection_2">
    <defs>
     <path id="m2fa6bb8e1f" d="M 119.384128 -42.689802 
L 119.384128 -42.68 
L 120.720946 -42.68 
L 122.057763 -42.68 
L 123.394581 -42.68 
L 124.731398 -42.68 
L 126.068216 -42.68 
L 127.405034 -42.68 
L 128.741851 -42.68 
L 130.078669 -42.68 
L 131.415486 -42.68 
L 132.752304 -42.68 
L 134.089121 -42.68 
L 135.425939 -42.68 
L 136.762756 -42.68 
L 138.099574 -42.68 
L 139.436391 -42.68 
L 140.773209 -42.68 
L 142.110026 -42.68 
L 143.446844 -42.68 
L 144.783661 -42.68 
L 146.120479 -42.68 
L 147.457296 -42.68 
L 148.794114 -42.68 
L 150.130931 -42.68 
L 151.467749 -42.68 
L 152.804566 -42.68 
L 154.141384 -42.68 
L 155.478201 -42.68 
L 156.815019 -42.68 
L 158.151836 -42.68 
L 159.488654 -42.68 
L 160.825471 -42.68 
L 162.162289 -42.68 
L 163.499107 -42.68 
L 164.835924 -42.68 
L 166.172742 -42.68 
L 167.509559 -42.68 
L 168.846377 -42.68 
L 170.183194 -42.68 
L 171.520012 -42.68 
L 172.856829 -42.68 
L 174.193647 -42.68 
L 175.530464 -42.68 
L 176.867282 -42.68 
L 178.204099 -42.68 
L 179.540917 -42.68 
L 180.877734 -42.68 
L 182.214552 -42.68 
L 183.551369 -42.68 
L 184.888187 -42.68 
L 186.225004 -42.68 
L 187.561822 -42.68 
L 188.898639 -42.68 
L 190.235457 -42.68 
L 191.572274 -42.68 
L 192.909092 -42.68 
L 194.245909 -42.68 
L 195.582727 -42.68 
L 196.919544 -42.68 
L 198.256362 -42.68 
L 199.59318 -42.68 
L 200.929997 -42.68 
L 202.266815 -42.68 
L 203.603632 -42.68 
L 204.94045 -42.68 
L 206.277267 -42.68 
L 207.614085 -42.68 
L 208.950902 -42.68 
L 210.28772 -42.68 
L 211.624537 -42.68 
L 212.961355 -42.68 
L 214.298172 -42.68 
L 215.63499 -42.68 
L 216.971807 -42.68 
L 218.308625 -42.68 
L 219.645442 -42.68 
L 220.98226 -42.68 
L 222.319077 -42.68 
L 223.655895 -42.68 
L 224.992712 -42.68 
L 226.32953 -42.68 
L 227.666347 -42.68 
L 229.003165 -42.68 
L 230.339982 -42.68 
L 231.6768 -42.68 
L 233.013617 -42.68 
L 234.350435 -42.68 
L 235.687253 -42.68 
L 237.02407 -42.68 
L 238.360888 -42.68 
L 239.697705 -42.68 
L 241.034523 -42.68 
L 242.37134 -42.68 
L 243.708158 -42.68 
L 245.044975 -42.68 
L 246.381793 -42.68 
L 247.71861 -42.68 
L 249.055428 -42.68 
L 250.392245 -42.68 
L 251.729063 -42.68 
L 253.06588 -42.68 
L 254.402698 -42.68 
L 255.739515 -42.68 
L 257.076333 -42.68 
L 258.41315 -42.68 
L 259.749968 -42.68 
L 261.086785 -42.68 
L 262.423603 -42.68 
L 263.76042 -42.68 
L 265.097238 -42.68 
L 266.434055 -42.68 
L 267.770873 -42.68 
L 269.10769 -42.68 
L 270.444508 -42.68 
L 271.781326 -42.68 
L 273.118143 -42.68 
L 274.454961 -42.68 
L 275.791778 -42.68 
L 277.128596 -42.68 
L 278.465413 -42.68 
L 279.802231 -42.68 
L 281.139048 -42.68 
L 282.475866 -42.68 
L 283.812683 -42.68 
L 285.149501 -42.68 
L 286.486318 -42.68 
L 287.823136 -42.68 
L 289.159953 -42.68 
L 290.496771 -42.68 
L 291.833588 -42.68 
L 293.170406 -42.68 
L 294.507223 -42.68 
L 295.844041 -42.68 
L 297.180858 -42.68 
L 298.517676 -42.68 
L 299.854493 -42.68 
L 301.191311 -42.68 
L 302.528128 -42.68 
L 303.864946 -42.68 
L 305.201763 -42.68 
L 306.538581 -42.68 
L 307.875398 -42.68 
L 309.212216 -42.68 
L 310.549034 -42.68 
L 311.885851 -42.68 
L 313.222669 -42.68 
L 314.559486 -42.68 
L 315.896304 -42.68 
L 317.233121 -42.68 
L 318.569939 -42.68 
L 319.906756 -42.68 
L 321.243574 -42.68 
L 322.580391 -42.68 
L 323.917209 -42.68 
L 325.254026 -42.68 
L 326.590844 -42.68 
L 327.927661 -42.68 
L 329.264479 -42.68 
L 330.601296 -42.68 
L 331.938114 -42.68 
L 333.274931 -42.68 
L 334.611749 -42.68 
L 335.948566 -42.68 
L 337.285384 -42.68 
L 338.622201 -42.68 
L 339.959019 -42.68 
L 341.295836 -42.68 
L 342.632654 -42.68 
L 343.969471 -42.68 
L 345.306289 -42.68 
L 346.643107 -42.68 
L 347.979924 -42.68 
L 349.316742 -42.68 
L 350.653559 -42.68 
L 351.990377 -42.68 
L 353.327194 -42.68 
L 354.664012 -42.68 
L 356.000829 -42.68 
L 357.337647 -42.68 
L 358.674464 -42.68 
L 360.011282 -42.68 
L 361.348099 -42.68 
L 362.684917 -42.68 
L 364.021734 -42.68 
L 365.358552 -42.68 
L 366.695369 -42.68 
L 368.032187 -42.68 
L 369.369004 -42.68 
L 370.705822 -42.68 
L 372.042639 -42.68 
L 373.379457 -42.68 
L 374.716274 -42.68 
L 376.053092 -42.68 
L 377.389909 -42.68 
L 378.726727 -42.68 
L 380.063544 -42.68 
L 381.400362 -42.68 
L 382.73718 -42.68 
L 384.073997 -42.68 
L 385.410815 -42.68 
L 385.410815 -42.689802 
L 385.410815 -42.689802 
L 384.073997 -42.697343 
L 382.73718 -42.70952 
L 381.400362 -42.728343 
L 380.063544 -42.756165 
L 378.726727 -42.795448 
L 377.389909 -42.848353 
L 376.053092 -42.916192 
L 374.716274 -42.9988 
L 373.379457 -43.093979 
L 372.042639 -43.197187 
L 370.705822 -43.301623 
L 369.369004 -43.39882 
L 368.032187 -43.479716 
L 366.695369 -43.536032 
L 365.358552 -43.5617 
L 364.021734 -43.553999 
L 362.684917 -43.514145 
L 361.348099 -43.447203 
L 360.011282 -43.361371 
L 358.674464 -43.266855 
L 357.337647 -43.174626 
L 356.000829 -43.095354 
L 354.664012 -43.038688 
L 353.327194 -43.012903 
L 351.990377 -43.024803 
L 350.653559 -43.079687 
L 349.316742 -43.181205 
L 347.979924 -43.331034 
L 346.643107 -43.528477 
L 345.306289 -43.770168 
L 343.969471 -44.050182 
L 342.632654 -44.360719 
L 341.295836 -44.693414 
L 339.959019 -45.04105 
L 338.622201 -45.399295 
L 337.285384 -45.767985 
L 335.948566 -46.151589 
L 334.611749 -46.558726 
L 333.274931 -47.000907 
L 331.938114 -47.490922 
L 330.601296 -48.041373 
L 329.264479 -48.663729 
L 327.927661 -49.368044 
L 326.590844 -50.163152 
L 325.254026 -51.057003 
L 323.917209 -52.056766 
L 322.580391 -53.168524 
L 321.243574 -54.396631 
L 319.906756 -55.743058 
L 318.569939 -57.207123 
L 317.233121 -58.785888 
L 315.896304 -60.475245 
L 314.559486 -62.271421 
L 313.222669 -64.172434 
L 311.885851 -66.179068 
L 310.549034 -68.295111 
L 309.212216 -70.526946 
L 307.875398 -72.882795 
L 306.538581 -75.372081 
L 305.201763 -78.005188 
L 303.864946 -80.793625 
L 302.528128 -83.750288 
L 301.191311 -86.889262 
L 299.854493 -90.22475 
L 298.517676 -93.768992 
L 297.180858 -97.529632 
L 295.844041 -101.507441 
L 294.507223 -105.695531 
L 293.170406 -110.08093 
L 291.833588 -114.648676 
L 290.496771 -119.387592 
L 289.159953 -124.29599 
L 287.823136 -129.385118 
L 286.486318 -134.678466 
L 285.149501 -140.206089 
L 283.812683 -145.99458 
L 282.475866 -152.054775 
L 281.139048 -158.370191 
L 279.802231 -164.889294 
L 278.465413 -171.523959 
L 277.128596 -178.155224 
L 275.791778 -184.645957 
L 274.454961 -190.858719 
L 273.118143 -196.676087 
L 271.781326 -202.020051 
L 270.444508 -206.866875 
L 269.10769 -211.254114 
L 267.770873 -215.277446 
L 266.434055 -219.076627 
L 265.097238 -222.812078 
L 263.76042 -226.635839 
L 262.423603 -230.662294 
L 261.086785 -234.944562 
L 259.749968 -239.461468 
L 258.41315 -244.11777 
L 257.076333 -248.757424 
L 255.739515 -253.186902 
L 254.402698 -257.203785 
L 253.06588 -260.62524 
L 251.729063 -263.311589 
L 250.392245 -265.181534 
L 249.055428 -266.217207 
L 247.71861 -266.458824 
L 246.381793 -265.990094 
L 245.044975 -264.916885 
L 243.708158 -263.342763 
L 242.37134 -261.34584 
L 241.034523 -258.96148 
L 239.697705 -256.174518 
L 238.360888 -252.922821 
L 237.02407 -249.111518 
L 235.687253 -244.634895 
L 234.350435 -239.401288 
L 233.013617 -233.355963 
L 231.6768 -226.497792 
L 230.339982 -218.887188 
L 229.003165 -210.644679 
L 227.666347 -201.941138 
L 226.32953 -192.981696 
L 224.992712 -183.985863 
L 223.655895 -175.16638 
L 222.319077 -166.709172 
L 220.98226 -158.756554 
L 219.645442 -151.395528 
L 218.308625 -144.652589 
L 216.971807 -138.495765 
L 215.63499 -132.843694 
L 214.298172 -127.580476 
L 212.961355 -122.574118 
L 211.624537 -117.695786 
L 210.28772 -112.837055 
L 208.950902 -107.922801 
L 207.614085 -102.918313 
L 206.277267 -97.830228 
L 204.94045 -92.701945 
L 203.603632 -87.604854 
L 202.266815 -82.627161 
L 200.929997 -77.862066 
L 199.59318 -73.396858 
L 198.256362 -69.304057 
L 196.919544 -65.635301 
L 195.582727 -62.418237 
L 194.245909 -59.656321 
L 192.909092 -57.331154 
L 191.572274 -55.40675 
L 190.235457 -53.834984 
L 188.898639 -52.561422 
L 187.561822 -51.530782 
L 186.225004 -50.691457 
L 184.888187 -49.99875 
L 183.551369 -49.416701 
L 182.214552 -48.918581 
L 180.877734 -48.48618 
L 179.540917 -48.108093 
L 178.204099 -47.777271 
L 176.867282 -47.488226 
L 175.530464 -47.234422 
L 174.193647 -47.006448 
L 172.856829 -46.791517 
L 171.520012 -46.574495 
L 170.183194 -46.340247 
L 168.846377 -46.076656 
L 167.509559 -45.777393 
L 166.172742 -45.443579 
L 164.835924 -45.083825 
L 163.499107 -44.712624 
L 162.162289 -44.347594 
L 160.825471 -44.006342 
L 159.488654 -43.703753 
L 158.151836 -43.45027 
L 156.815019 -43.251356 
L 155.478201 -43.107979 
L 154.141384 -43.017696 
L 152.804566 -42.975867 
L 151.467749 -42.976603 
L 150.130931 -43.013254 
L 148.794114 -43.078457 
L 147.457296 -43.163953 
L 146.120479 -43.260433 
L 144.783661 -43.357684 
L 143.446844 -43.44518 
L 142.110026 -43.513084 
L 140.773209 -43.553466 
L 139.436391 -43.561444 
L 138.099574 -43.535914 
L 136.762756 -43.479664 
L 135.425939 -43.398798 
L 134.089121 -43.301614 
L 132.752304 -43.197183 
L 131.415486 -43.093978 
L 130.078669 -42.998799 
L 128.741851 -42.916192 
L 127.405034 -42.848353 
L 126.068216 -42.795448 
L 124.731398 -42.756165 
L 123.394581 -42.728343 
L 122.057763 -42.70952 
L 120.720946 -42.697343 
L 119.384128 -42.689802 
z
" style="stroke: #92c5de; stroke-width: 2.5"/>
    </defs>
    <g clip-path="url(#p140041c282)">
     <use xlink:href="#m2fa6bb8e1f" x="0" y="432" style="fill: #92c5de; fill-opacity: 0.5; stroke: #92c5de; stroke-width: 2.5"/>
    </g>
   </g>
   <g id="PolyCollection_3">
    <defs>
     <path id="m0743a3530d" d="M 261.190413 -42.71002 
L 261.190413 -42.68 
L 261.910016 -42.68 
L 262.629619 -42.68 
L 263.349222 -42.68 
L 264.068825 -42.68 
L 264.788427 -42.68 
L 265.50803 -42.68 
L 266.227633 -42.68 
L 266.947236 -42.68 
L 267.666838 -42.68 
L 268.386441 -42.68 
L 269.106044 -42.68 
L 269.825647 -42.68 
L 270.545249 -42.68 
L 271.264852 -42.68 
L 271.984455 -42.68 
L 272.704058 -42.68 
L 273.42366 -42.68 
L 274.143263 -42.68 
L 274.862866 -42.68 
L 275.582469 -42.68 
L 276.302072 -42.68 
L 277.021674 -42.68 
L 277.741277 -42.68 
L 278.46088 -42.68 
L 279.180483 -42.68 
L 279.900085 -42.68 
L 280.619688 -42.68 
L 281.339291 -42.68 
L 282.058894 -42.68 
L 282.778496 -42.68 
L 283.498099 -42.68 
L 284.217702 -42.68 
L 284.937305 -42.68 
L 285.656907 -42.68 
L 286.37651 -42.68 
L 287.096113 -42.68 
L 287.815716 -42.68 
L 288.535319 -42.68 
L 289.254921 -42.68 
L 289.974524 -42.68 
L 290.694127 -42.68 
L 291.41373 -42.68 
L 292.133332 -42.68 
L 292.852935 -42.68 
L 293.572538 -42.68 
L 294.292141 -42.68 
L 295.011743 -42.68 
L 295.731346 -42.68 
L 296.450949 -42.68 
L 297.170552 -42.68 
L 297.890154 -42.68 
L 298.609757 -42.68 
L 299.32936 -42.68 
L 300.048963 -42.68 
L 300.768566 -42.68 
L 301.488168 -42.68 
L 302.207771 -42.68 
L 302.927374 -42.68 
L 303.646977 -42.68 
L 304.366579 -42.68 
L 305.086182 -42.68 
L 305.805785 -42.68 
L 306.525388 -42.68 
L 307.24499 -42.68 
L 307.964593 -42.68 
L 308.684196 -42.68 
L 309.403799 -42.68 
L 310.123401 -42.68 
L 310.843004 -42.68 
L 311.562607 -42.68 
L 312.28221 -42.68 
L 313.001813 -42.68 
L 313.721415 -42.68 
L 314.441018 -42.68 
L 315.160621 -42.68 
L 315.880224 -42.68 
L 316.599826 -42.68 
L 317.319429 -42.68 
L 318.039032 -42.68 
L 318.758635 -42.68 
L 319.478237 -42.68 
L 320.19784 -42.68 
L 320.917443 -42.68 
L 321.637046 -42.68 
L 322.356648 -42.68 
L 323.076251 -42.68 
L 323.795854 -42.68 
L 324.515457 -42.68 
L 325.23506 -42.68 
L 325.954662 -42.68 
L 326.674265 -42.68 
L 327.393868 -42.68 
L 328.113471 -42.68 
L 328.833073 -42.68 
L 329.552676 -42.68 
L 330.272279 -42.68 
L 330.991882 -42.68 
L 331.711484 -42.68 
L 332.431087 -42.68 
L 333.15069 -42.68 
L 333.870293 -42.68 
L 334.589895 -42.68 
L 335.309498 -42.68 
L 336.029101 -42.68 
L 336.748704 -42.68 
L 337.468307 -42.68 
L 338.187909 -42.68 
L 338.907512 -42.68 
L 339.627115 -42.68 
L 340.346718 -42.68 
L 341.06632 -42.68 
L 341.785923 -42.68 
L 342.505526 -42.68 
L 343.225129 -42.68 
L 343.944731 -42.68 
L 344.664334 -42.68 
L 345.383937 -42.68 
L 346.10354 -42.68 
L 346.823142 -42.68 
L 347.542745 -42.68 
L 348.262348 -42.68 
L 348.981951 -42.68 
L 349.701554 -42.68 
L 350.421156 -42.68 
L 351.140759 -42.68 
L 351.860362 -42.68 
L 352.579965 -42.68 
L 353.299567 -42.68 
L 354.01917 -42.68 
L 354.738773 -42.68 
L 355.458376 -42.68 
L 356.177978 -42.68 
L 356.897581 -42.68 
L 357.617184 -42.68 
L 358.336787 -42.68 
L 359.056389 -42.68 
L 359.775992 -42.68 
L 360.495595 -42.68 
L 361.215198 -42.68 
L 361.934801 -42.68 
L 362.654403 -42.68 
L 363.374006 -42.68 
L 364.093609 -42.68 
L 364.813212 -42.68 
L 365.532814 -42.68 
L 366.252417 -42.68 
L 366.97202 -42.68 
L 367.691623 -42.68 
L 368.411225 -42.68 
L 369.130828 -42.68 
L 369.850431 -42.68 
L 370.570034 -42.68 
L 371.289636 -42.68 
L 372.009239 -42.68 
L 372.728842 -42.68 
L 373.448445 -42.68 
L 374.168048 -42.68 
L 374.88765 -42.68 
L 375.607253 -42.68 
L 376.326856 -42.68 
L 377.046459 -42.68 
L 377.766061 -42.68 
L 378.485664 -42.68 
L 379.205267 -42.68 
L 379.92487 -42.68 
L 380.644472 -42.68 
L 381.364075 -42.68 
L 382.083678 -42.68 
L 382.803281 -42.68 
L 383.522883 -42.68 
L 384.242486 -42.68 
L 384.962089 -42.68 
L 385.681692 -42.68 
L 386.401295 -42.68 
L 387.120897 -42.68 
L 387.8405 -42.68 
L 388.560103 -42.68 
L 389.279706 -42.68 
L 389.999308 -42.68 
L 390.718911 -42.68 
L 391.438514 -42.68 
L 392.158117 -42.68 
L 392.877719 -42.68 
L 393.597322 -42.68 
L 394.316925 -42.68 
L 395.036528 -42.68 
L 395.75613 -42.68 
L 396.475733 -42.68 
L 397.195336 -42.68 
L 397.914939 -42.68 
L 398.634542 -42.68 
L 399.354144 -42.68 
L 400.073747 -42.68 
L 400.79335 -42.68 
L 401.512953 -42.68 
L 402.232555 -42.68 
L 402.952158 -42.68 
L 403.671761 -42.68 
L 404.391364 -42.68 
L 404.391364 -42.695781 
L 404.391364 -42.695781 
L 403.671761 -42.705933 
L 402.952158 -42.721399 
L 402.232555 -42.744197 
L 401.512953 -42.776706 
L 400.79335 -42.82152 
L 400.073747 -42.881196 
L 399.354144 -42.957897 
L 398.634542 -43.052945 
L 397.914939 -43.166358 
L 397.195336 -43.296451 
L 396.475733 -43.439611 
L 395.75613 -43.590366 
L 395.036528 -43.741808 
L 394.316925 -43.886398 
L 393.597322 -44.017098 
L 392.877719 -44.128683 
L 392.158117 -44.219027 
L 391.438514 -44.29014 
L 390.718911 -44.348736 
L 389.999308 -44.406177 
L 389.279706 -44.477752 
L 388.560103 -44.581328 
L 387.8405 -44.735558 
L 387.120897 -44.957851 
L 386.401295 -45.26238 
L 385.681692 -45.658393 
L 384.962089 -46.149023 
L 384.242486 -46.730785 
L 383.522883 -47.393841 
L 382.803281 -48.123054 
L 382.083678 -48.899783 
L 381.364075 -49.704252 
L 380.644472 -50.518278 
L 379.92487 -51.328009 
L 379.205267 -52.126309 
L 378.485664 -52.914373 
L 377.766061 -53.702255 
L 377.046459 -54.508129 
L 376.326856 -55.356323 
L 375.607253 -56.274448 
L 374.88765 -57.290174 
L 374.168048 -58.428348 
L 373.448445 -59.709133 
L 372.728842 -61.147664 
L 372.009239 -62.755349 
L 371.289636 -64.542521 
L 370.570034 -66.52174 
L 369.850431 -68.710815 
L 369.130828 -71.13459 
L 368.411225 -73.824815 
L 367.691623 -76.817858 
L 366.97202 -80.150554 
L 366.252417 -83.854938 
L 365.532814 -87.952857 
L 364.813212 -92.451446 
L 364.093609 -97.340187 
L 363.374006 -102.589868 
L 362.654403 -108.153388 
L 361.934801 -113.968047 
L 361.215198 -119.958917 
L 360.495595 -126.04299 
L 359.775992 -132.133983 
L 359.056389 -138.147832 
L 358.336787 -144.008868 
L 357.617184 -149.656478 
L 356.897581 -155.051648 
L 356.177978 -160.182448 
L 355.458376 -165.067315 
L 354.738773 -169.755105 
L 354.01917 -174.321398 
L 353.299567 -178.861264 
L 352.579965 -183.479525 
L 351.860362 -188.280116 
L 351.140759 -193.356351 
L 350.421156 -198.783599 
L 349.701554 -204.615169 
L 348.981951 -210.881385 
L 348.262348 -217.591097 
L 347.542745 -224.734539 
L 346.823142 -232.286478 
L 346.10354 -240.209 
L 345.383937 -248.453771 
L 344.664334 -256.963972 
L 343.944731 -265.676223 
L 343.225129 -274.52262 
L 342.505526 -283.432696 
L 341.785923 -292.334875 
L 341.06632 -301.156962 
L 340.346718 -309.825522 
L 339.627115 -318.264477 
L 338.907512 -326.393772 
L 338.187909 -334.129217 
L 337.468307 -341.384533 
L 336.748704 -348.076091 
L 336.029101 -354.130092 
L 335.309498 -359.491129 
L 334.589895 -364.130474 
L 333.870293 -368.052331 
L 333.15069 -371.296548 
L 332.431087 -373.93703 
L 331.711484 -376.075955 
L 330.991882 -377.834774 
L 330.272279 -379.343537 
L 329.552676 -380.730257 
L 328.833073 -382.111723 
L 328.113471 -383.586507 
L 327.393868 -385.23003 
L 326.674265 -387.090846 
L 325.954662 -389.1869 
L 325.23506 -391.50075 
L 324.515457 -393.973496 
L 323.795854 -396.498324 
L 323.076251 -398.915702 
L 322.356648 -401.012873 
L 321.637046 -402.530137 
L 320.917443 -403.175238 
L 320.19784 -402.645389 
L 319.478237 -400.654395 
L 318.758635 -396.960814 
L 318.039032 -391.392402 
L 317.319429 -383.862733 
L 316.599826 -374.377427 
L 315.880224 -363.029668 
L 315.160621 -349.986811 
L 314.441018 -335.471422 
L 313.721415 -319.740677 
L 313.001813 -303.067632 
L 312.28221 -285.726738 
L 311.562607 -267.984483 
L 310.843004 -250.094694 
L 310.123401 -232.297026 
L 309.403799 -214.816812 
L 308.684196 -197.864588 
L 307.964593 -181.634119 
L 307.24499 -166.29856 
L 306.525388 -152.005055 
L 305.805785 -138.868685 
L 305.086182 -126.96699 
L 304.366579 -116.336288 
L 303.646977 -106.970806 
L 302.927374 -98.825162 
L 302.207771 -91.820177 
L 301.488168 -85.851434 
L 300.768566 -80.799529 
L 300.048963 -76.540669 
L 299.32936 -72.956284 
L 298.609757 -69.940478 
L 297.890154 -67.404612 
L 297.170552 -65.278788 
L 296.450949 -63.510531 
L 295.731346 -62.06136 
L 295.011743 -60.902181 
L 294.292141 -60.008465 
L 293.572538 -59.356045 
L 292.852935 -58.918116 
L 292.133332 -58.66372 
L 291.41373 -58.557724 
L 290.694127 -58.562055 
L 289.974524 -58.637816 
L 289.254921 -58.747838 
L 288.535319 -58.859194 
L 287.815716 -58.945284 
L 287.096113 -58.987169 
L 286.37651 -58.973962 
L 285.656907 -58.902227 
L 284.937305 -58.774483 
L 284.217702 -58.597037 
L 283.498099 -58.377491 
L 282.778496 -58.122315 
L 282.058894 -57.834865 
L 281.339291 -57.514172 
L 280.619688 -57.154691 
L 279.900085 -56.74704 
L 279.180483 -56.279596 
L 278.46088 -55.740666 
L 277.741277 -55.12085 
L 277.021674 -54.415212 
L 276.302072 -53.624875 
L 275.582469 -52.75782 
L 274.862866 -51.82875 
L 274.143263 -50.85807 
L 273.42366 -49.870163 
L 272.704058 -48.891216 
L 271.984455 -47.946908 
L 271.264852 -47.060277 
L 270.545249 -46.250003 
L 269.825647 -45.52928 
L 269.106044 -44.905362 
L 268.386441 -44.379744 
L 267.666838 -43.948876 
L 266.947236 -43.605251 
L 266.227633 -43.338677 
L 265.50803 -43.137554 
L 264.788427 -42.990005 
L 264.068825 -42.88477 
L 263.349222 -42.811816 
L 262.629619 -42.762664 
L 261.910016 -42.730487 
L 261.190413 -42.71002 
z
" style="stroke: #2166ac; stroke-width: 2.5"/>
    </defs>
    <g clip-path="url(#p140041c282)">
     <use xlink:href="#m0743a3530d" x="0" y="432" style="fill: #2166ac; fill-opacity: 0.5; stroke: #2166ac; stroke-width: 2.5"/>
    </g>
   </g>
   <g id="matplotlib.axis_1">
    <g id="xtick_1">
     <g id="line2d_1">
      <defs>
       <path id="mda286e0e32" d="M 0 0 
L 0 3.5 
" style="stroke: #000000; stroke-width: 0.8"/>
      </defs>
      <g>
       <use xlink:href="#mda286e0e32" x="102.784137" y="389.32" style="stroke: #000000; stroke-width: 0.8"/>
      </g>
     </g>
     <g id="text_1">
      <!-- −2 -->
      <g transform="translate(95.413043 403.918437) scale(0.1 -0.1)">
       <defs>
        <path id="DejaVuSans-2212" d="M 678 2272 
L 4684 2272 
L 4684 1741 
L 678 1741 
L 678 2272 
z
" transform="scale(0.015625)"/>
        <path id="DejaVuSans-32" d="M 1228 531 
L 3431 531 
L 3431 0 
L 469 0 
L 469 531 
Q 828 903 1448 1529 
Q 2069 2156 2228 2338 
Q 2531 2678 2651 2914 
Q 2772 3150 2772 3378 
Q 2772 3750 2511 3984 
Q 2250 4219 1831 4219 
Q 1534 4219 1204 4116 
Q 875 4013 500 3803 
L 500 4441 
Q 881 4594 1212 4672 
Q 1544 4750 1819 4750 
Q 2544 4750 2975 4387 
Q 3406 4025 3406 3419 
Q 3406 3131 3298 2873 
Q 3191 2616 2906 2266 
Q 2828 2175 2409 1742 
Q 1991 1309 1228 531 
z
" transform="scale(0.015625)"/>
       </defs>
       <use xlink:href="#DejaVuSans-2212"/>
       <use xlink:href="#DejaVuSans-32" x="83.789062"/>
      </g>
     </g>
    </g>
    <g id="xtick_2">
     <g id="line2d_2">
      <g>
       <use xlink:href="#mda286e0e32" x="162.324454" y="389.32" style="stroke: #000000; stroke-width: 0.8"/>
      </g>
     </g>
     <g id="text_2">
      <!-- 0 -->
      <g transform="translate(159.143204 403.918437) scale(0.1 -0.1)">
       <defs>
        <path id="DejaVuSans-30" d="M 2034 4250 
Q 1547 4250 1301 3770 
Q 1056 3291 1056 2328 
Q 1056 1369 1301 889 
Q 1547 409 2034 409 
Q 2525 409 2770 889 
Q 3016 1369 3016 2328 
Q 3016 3291 2770 3770 
Q 2525 4250 2034 4250 
z
M 2034 4750 
Q 2819 4750 3233 4129 
Q 3647 3509 3647 2328 
Q 3647 1150 3233 529 
Q 2819 -91 2034 -91 
Q 1250 -91 836 529 
Q 422 1150 422 2328 
Q 422 3509 836 4129 
Q 1250 4750 2034 4750 
z
" transform="scale(0.015625)"/>
       </defs>
       <use xlink:href="#DejaVuSans-30"/>
      </g>
     </g>
    </g>
    <g id="xtick_3">
     <g id="line2d_3">
      <g>
       <use xlink:href="#mda286e0e32" x="221.864771" y="389.32" style="stroke: #000000; stroke-width: 0.8"/>
      </g>
     </g>
     <g id="text_3">
      <!-- 2 -->
      <g transform="translate(218.683521 403.918437) scale(0.1 -0.1)">
       <use xlink:href="#DejaVuSans-32"/>
      </g>
     </g>
    </g>
    <g id="xtick_4">
     <g id="line2d_4">
      <g>
       <use xlink:href="#mda286e0e32" x="281.405088" y="389.32" style="stroke: #000000; stroke-width: 0.8"/>
      </g>
     </g>
     <g id="text_4">
      <!-- 4 -->
      <g transform="translate(278.223838 403.918437) scale(0.1 -0.1)">
       <defs>
        <path id="DejaVuSans-34" d="M 2419 4116 
L 825 1625 
L 2419 1625 
L 2419 4116 
z
M 2253 4666 
L 3047 4666 
L 3047 1625 
L 3713 1625 
L 3713 1100 
L 3047 1100 
L 3047 0 
L 2419 0 
L 2419 1100 
L 313 1100 
L 313 1709 
L 2253 4666 
z
" transform="scale(0.015625)"/>
       </defs>
       <use xlink:href="#DejaVuSans-34"/>
      </g>
     </g>
    </g>
    <g id="xtick_5">
     <g id="line2d_5">
      <g>
       <use xlink:href="#mda286e0e32" x="340.945404" y="389.32" style="stroke: #000000; stroke-width: 0.8"/>
      </g>
     </g>
     <g id="text_5">
      <!-- 6 -->
      <g transform="translate(337.764154 403.918437) scale(0.1 -0.1)">
       <defs>
        <path id="DejaVuSans-36" d="M 2113 2584 
Q 1688 2584 1439 2293 
Q 1191 2003 1191 1497 
Q 1191 994 1439 701 
Q 1688 409 2113 409 
Q 2538 409 2786 701 
Q 3034 994 3034 1497 
Q 3034 2003 2786 2293 
Q 2538 2584 2113 2584 
z
M 3366 4563 
L 3366 3988 
Q 3128 4100 2886 4159 
Q 2644 4219 2406 4219 
Q 1781 4219 1451 3797 
Q 1122 3375 1075 2522 
Q 1259 2794 1537 2939 
Q 1816 3084 2150 3084 
Q 2853 3084 3261 2657 
Q 3669 2231 3669 1497 
Q 3669 778 3244 343 
Q 2819 -91 2113 -91 
Q 1303 -91 875 529 
Q 447 1150 447 2328 
Q 447 3434 972 4092 
Q 1497 4750 2381 4750 
Q 2619 4750 2861 4703 
Q 3103 4656 3366 4563 
z
" transform="scale(0.015625)"/>
       </defs>
       <use xlink:href="#DejaVuSans-36"/>
      </g>
     </g>
    </g>
    <g id="xtick_6">
     <g id="line2d_6">
      <g>
       <use xlink:href="#mda286e0e32" x="400.485721" y="389.32" style="stroke: #000000; stroke-width: 0.8"/>
      </g>
     </g>
     <g id="text_6">
      <!-- 8 -->
      <g transform="translate(397.304471 403.918437) scale(0.1 -0.1)">
       <defs>
        <path id="DejaVuSans-38" d="M 2034 2216 
Q 1584 2216 1326 1975 
Q 1069 1734 1069 1313 
Q 1069 891 1326 650 
Q 1584 409 2034 409 
Q 2484 409 2743 651 
Q 3003 894 3003 1313 
Q 3003 1734 2745 1975 
Q 2488 2216 2034 2216 
z
M 1403 2484 
Q 997 2584 770 2862 
Q 544 3141 544 3541 
Q 544 4100 942 4425 
Q 1341 4750 2034 4750 
Q 2731 4750 3128 4425 
Q 3525 4100 3525 3541 
Q 3525 3141 3298 2862 
Q 3072 2584 2669 2484 
Q 3125 2378 3379 2068 
Q 3634 1759 3634 1313 
Q 3634 634 3220 271 
Q 2806 -91 2034 -91 
Q 1263 -91 848 271 
Q 434 634 434 1313 
Q 434 1759 690 2068 
Q 947 2378 1403 2484 
z
M 1172 3481 
Q 1172 3119 1398 2916 
Q 1625 2713 2034 2713 
Q 2441 2713 2670 2916 
Q 2900 3119 2900 3481 
Q 2900 3844 2670 4047 
Q 2441 4250 2034 4250 
Q 1625 4250 1398 4047 
Q 1172 3844 1172 3481 
z
" transform="scale(0.015625)"/>
       </defs>
       <use xlink:href="#DejaVuSans-38"/>
      </g>
     </g>
    </g>
    <g id="text_7">
     <!-- Predicted Fluorescence -->
     <g transform="translate(166.70875 419.11625) scale(0.12 -0.12)">
      <defs>
       <path id="DejaVuSans-50" d="M 1259 4147 
L 1259 2394 
L 2053 2394 
Q 2494 2394 2734 2622 
Q 2975 2850 2975 3272 
Q 2975 3691 2734 3919 
Q 2494 4147 2053 4147 
L 1259 4147 
z
M 628 4666 
L 2053 4666 
Q 2838 4666 3239 4311 
Q 3641 3956 3641 3272 
Q 3641 2581 3239 2228 
Q 2838 1875 2053 1875 
L 1259 1875 
L 1259 0 
L 628 0 
L 628 4666 
z
" transform="scale(0.015625)"/>
       <path id="DejaVuSans-72" d="M 2631 2963 
Q 2534 3019 2420 3045 
Q 2306 3072 2169 3072 
Q 1681 3072 1420 2755 
Q 1159 2438 1159 1844 
L 1159 0 
L 581 0 
L 581 3500 
L 1159 3500 
L 1159 2956 
Q 1341 3275 1631 3429 
Q 1922 3584 2338 3584 
Q 2397 3584 2469 3576 
Q 2541 3569 2628 3553 
L 2631 2963 
z
" transform="scale(0.015625)"/>
       <path id="DejaVuSans-65" d="M 3597 1894 
L 3597 1613 
L 953 1613 
Q 991 1019 1311 708 
Q 1631 397 2203 397 
Q 2534 397 2845 478 
Q 3156 559 3463 722 
L 3463 178 
Q 3153 47 2828 -22 
Q 2503 -91 2169 -91 
Q 1331 -91 842 396 
Q 353 884 353 1716 
Q 353 2575 817 3079 
Q 1281 3584 2069 3584 
Q 2775 3584 3186 3129 
Q 3597 2675 3597 1894 
z
M 3022 2063 
Q 3016 2534 2758 2815 
Q 2500 3097 2075 3097 
Q 1594 3097 1305 2825 
Q 1016 2553 972 2059 
L 3022 2063 
z
" transform="scale(0.015625)"/>
       <path id="DejaVuSans-64" d="M 2906 2969 
L 2906 4863 
L 3481 4863 
L 3481 0 
L 2906 0 
L 2906 525 
Q 2725 213 2448 61 
Q 2172 -91 1784 -91 
Q 1150 -91 751 415 
Q 353 922 353 1747 
Q 353 2572 751 3078 
Q 1150 3584 1784 3584 
Q 2172 3584 2448 3432 
Q 2725 3281 2906 2969 
z
M 947 1747 
Q 947 1113 1208 752 
Q 1469 391 1925 391 
Q 2381 391 2643 752 
Q 2906 1113 2906 1747 
Q 2906 2381 2643 2742 
Q 2381 3103 1925 3103 
Q 1469 3103 1208 2742 
Q 947 2381 947 1747 
z
" transform="scale(0.015625)"/>
       <path id="DejaVuSans-69" d="M 603 3500 
L 1178 3500 
L 1178 0 
L 603 0 
L 603 3500 
z
M 603 4863 
L 1178 4863 
L 1178 4134 
L 603 4134 
L 603 4863 
z
" transform="scale(0.015625)"/>
       <path id="DejaVuSans-63" d="M 3122 3366 
L 3122 2828 
Q 2878 2963 2633 3030 
Q 2388 3097 2138 3097 
Q 1578 3097 1268 2742 
Q 959 2388 959 1747 
Q 959 1106 1268 751 
Q 1578 397 2138 397 
Q 2388 397 2633 464 
Q 2878 531 3122 666 
L 3122 134 
Q 2881 22 2623 -34 
Q 2366 -91 2075 -91 
Q 1284 -91 818 406 
Q 353 903 353 1747 
Q 353 2603 823 3093 
Q 1294 3584 2113 3584 
Q 2378 3584 2631 3529 
Q 2884 3475 3122 3366 
z
" transform="scale(0.015625)"/>
       <path id="DejaVuSans-74" d="M 1172 4494 
L 1172 3500 
L 2356 3500 
L 2356 3053 
L 1172 3053 
L 1172 1153 
Q 1172 725 1289 603 
Q 1406 481 1766 481 
L 2356 481 
L 2356 0 
L 1766 0 
Q 1100 0 847 248 
Q 594 497 594 1153 
L 594 3053 
L 172 3053 
L 172 3500 
L 594 3500 
L 594 4494 
L 1172 4494 
z
" transform="scale(0.015625)"/>
       <path id="DejaVuSans-20" transform="scale(0.015625)"/>
       <path id="DejaVuSans-46" d="M 628 4666 
L 3309 4666 
L 3309 4134 
L 1259 4134 
L 1259 2759 
L 3109 2759 
L 3109 2228 
L 1259 2228 
L 1259 0 
L 628 0 
L 628 4666 
z
" transform="scale(0.015625)"/>
       <path id="DejaVuSans-6c" d="M 603 4863 
L 1178 4863 
L 1178 0 
L 603 0 
L 603 4863 
z
" transform="scale(0.015625)"/>
       <path id="DejaVuSans-75" d="M 544 1381 
L 544 3500 
L 1119 3500 
L 1119 1403 
Q 1119 906 1312 657 
Q 1506 409 1894 409 
Q 2359 409 2629 706 
Q 2900 1003 2900 1516 
L 2900 3500 
L 3475 3500 
L 3475 0 
L 2900 0 
L 2900 538 
Q 2691 219 2414 64 
Q 2138 -91 1772 -91 
Q 1169 -91 856 284 
Q 544 659 544 1381 
z
M 1991 3584 
L 1991 3584 
z
" transform="scale(0.015625)"/>
       <path id="DejaVuSans-6f" d="M 1959 3097 
Q 1497 3097 1228 2736 
Q 959 2375 959 1747 
Q 959 1119 1226 758 
Q 1494 397 1959 397 
Q 2419 397 2687 759 
Q 2956 1122 2956 1747 
Q 2956 2369 2687 2733 
Q 2419 3097 1959 3097 
z
M 1959 3584 
Q 2709 3584 3137 3096 
Q 3566 2609 3566 1747 
Q 3566 888 3137 398 
Q 2709 -91 1959 -91 
Q 1206 -91 779 398 
Q 353 888 353 1747 
Q 353 2609 779 3096 
Q 1206 3584 1959 3584 
z
" transform="scale(0.015625)"/>
       <path id="DejaVuSans-73" d="M 2834 3397 
L 2834 2853 
Q 2591 2978 2328 3040 
Q 2066 3103 1784 3103 
Q 1356 3103 1142 2972 
Q 928 2841 928 2578 
Q 928 2378 1081 2264 
Q 1234 2150 1697 2047 
L 1894 2003 
Q 2506 1872 2764 1633 
Q 3022 1394 3022 966 
Q 3022 478 2636 193 
Q 2250 -91 1575 -91 
Q 1294 -91 989 -36 
Q 684 19 347 128 
L 347 722 
Q 666 556 975 473 
Q 1284 391 1588 391 
Q 1994 391 2212 530 
Q 2431 669 2431 922 
Q 2431 1156 2273 1281 
Q 2116 1406 1581 1522 
L 1381 1569 
Q 847 1681 609 1914 
Q 372 2147 372 2553 
Q 372 3047 722 3315 
Q 1072 3584 1716 3584 
Q 2034 3584 2315 3537 
Q 2597 3491 2834 3397 
z
" transform="scale(0.015625)"/>
       <path id="DejaVuSans-6e" d="M 3513 2113 
L 3513 0 
L 2938 0 
L 2938 2094 
Q 2938 2591 2744 2837 
Q 2550 3084 2163 3084 
Q 1697 3084 1428 2787 
Q 1159 2491 1159 1978 
L 1159 0 
L 581 0 
L 581 3500 
L 1159 3500 
L 1159 2956 
Q 1366 3272 1645 3428 
Q 1925 3584 2291 3584 
Q 2894 3584 3203 3211 
Q 3513 2838 3513 2113 
z
" transform="scale(0.015625)"/>
      </defs>
      <use xlink:href="#DejaVuSans-50"/>
      <use xlink:href="#DejaVuSans-72" x="58.552734"/>
      <use xlink:href="#DejaVuSans-65" x="97.416016"/>
      <use xlink:href="#DejaVuSans-64" x="158.939453"/>
      <use xlink:href="#DejaVuSans-69" x="222.416016"/>
      <use xlink:href="#DejaVuSans-63" x="250.199219"/>
      <use xlink:href="#DejaVuSans-74" x="305.179688"/>
      <use xlink:href="#DejaVuSans-65" x="344.388672"/>
      <use xlink:href="#DejaVuSans-64" x="405.912109"/>
      <use xlink:href="#DejaVuSans-20" x="469.388672"/>
      <use xlink:href="#DejaVuSans-46" x="501.175781"/>
      <use xlink:href="#DejaVuSans-6c" x="558.695312"/>
      <use xlink:href="#DejaVuSans-75" x="586.478516"/>
      <use xlink:href="#DejaVuSans-6f" x="649.857422"/>
      <use xlink:href="#DejaVuSans-72" x="711.039062"/>
      <use xlink:href="#DejaVuSans-65" x="749.902344"/>
      <use xlink:href="#DejaVuSans-73" x="811.425781"/>
      <use xlink:href="#DejaVuSans-63" x="863.525391"/>
      <use xlink:href="#DejaVuSans-65" x="918.505859"/>
      <use xlink:href="#DejaVuSans-6e" x="980.029297"/>
      <use xlink:href="#DejaVuSans-63" x="1043.408203"/>
      <use xlink:href="#DejaVuSans-65" x="1098.388672"/>
     </g>
    </g>
   </g>
   <g id="matplotlib.axis_2">
    <g id="ytick_1">
     <g id="line2d_7">
      <defs>
       <path id="m2828cd5513" d="M 0 0 
L -3.5 0 
" style="stroke: #000000; stroke-width: 0.8"/>
      </defs>
      <g>
       <use xlink:href="#m2828cd5513" x="51.41" y="389.32" style="stroke: #000000; stroke-width: 0.8"/>
      </g>
     </g>
     <g id="text_8">
      <!-- 0.0 -->
      <g transform="translate(28.506875 393.119219) scale(0.1 -0.1)">
       <defs>
        <path id="DejaVuSans-2e" d="M 684 794 
L 1344 794 
L 1344 0 
L 684 0 
L 684 794 
z
" transform="scale(0.015625)"/>
       </defs>
       <use xlink:href="#DejaVuSans-30"/>
       <use xlink:href="#DejaVuSans-2e" x="63.623047"/>
       <use xlink:href="#DejaVuSans-30" x="95.410156"/>
      </g>
     </g>
    </g>
    <g id="ytick_2">
     <g id="line2d_8">
      <g>
       <use xlink:href="#m2828cd5513" x="51.41" y="338.812434" style="stroke: #000000; stroke-width: 0.8"/>
      </g>
     </g>
     <g id="text_9">
      <!-- 0.1 -->
      <g transform="translate(28.506875 342.611652) scale(0.1 -0.1)">
       <defs>
        <path id="DejaVuSans-31" d="M 794 531 
L 1825 531 
L 1825 4091 
L 703 3866 
L 703 4441 
L 1819 4666 
L 2450 4666 
L 2450 531 
L 3481 531 
L 3481 0 
L 794 0 
L 794 531 
z
" transform="scale(0.015625)"/>
       </defs>
       <use xlink:href="#DejaVuSans-30"/>
       <use xlink:href="#DejaVuSans-2e" x="63.623047"/>
       <use xlink:href="#DejaVuSans-31" x="95.410156"/>
      </g>
     </g>
    </g>
    <g id="ytick_3">
     <g id="line2d_9">
      <g>
       <use xlink:href="#m2828cd5513" x="51.41" y="288.304867" style="stroke: #000000; stroke-width: 0.8"/>
      </g>
     </g>
     <g id="text_10">
      <!-- 0.2 -->
      <g transform="translate(28.506875 292.104086) scale(0.1 -0.1)">
       <use xlink:href="#DejaVuSans-30"/>
       <use xlink:href="#DejaVuSans-2e" x="63.623047"/>
       <use xlink:href="#DejaVuSans-32" x="95.410156"/>
      </g>
     </g>
    </g>
    <g id="ytick_4">
     <g id="line2d_10">
      <g>
       <use xlink:href="#m2828cd5513" x="51.41" y="237.797301" style="stroke: #000000; stroke-width: 0.8"/>
      </g>
     </g>
     <g id="text_11">
      <!-- 0.3 -->
      <g transform="translate(28.506875 241.596519) scale(0.1 -0.1)">
       <defs>
        <path id="DejaVuSans-33" d="M 2597 2516 
Q 3050 2419 3304 2112 
Q 3559 1806 3559 1356 
Q 3559 666 3084 287 
Q 2609 -91 1734 -91 
Q 1441 -91 1130 -33 
Q 819 25 488 141 
L 488 750 
Q 750 597 1062 519 
Q 1375 441 1716 441 
Q 2309 441 2620 675 
Q 2931 909 2931 1356 
Q 2931 1769 2642 2001 
Q 2353 2234 1838 2234 
L 1294 2234 
L 1294 2753 
L 1863 2753 
Q 2328 2753 2575 2939 
Q 2822 3125 2822 3475 
Q 2822 3834 2567 4026 
Q 2313 4219 1838 4219 
Q 1578 4219 1281 4162 
Q 984 4106 628 3988 
L 628 4550 
Q 988 4650 1302 4700 
Q 1616 4750 1894 4750 
Q 2613 4750 3031 4423 
Q 3450 4097 3450 3541 
Q 3450 3153 3228 2886 
Q 3006 2619 2597 2516 
z
" transform="scale(0.015625)"/>
       </defs>
       <use xlink:href="#DejaVuSans-30"/>
       <use xlink:href="#DejaVuSans-2e" x="63.623047"/>
       <use xlink:href="#DejaVuSans-33" x="95.410156"/>
      </g>
     </g>
    </g>
    <g id="ytick_5">
     <g id="line2d_11">
      <g>
       <use xlink:href="#m2828cd5513" x="51.41" y="187.289734" style="stroke: #000000; stroke-width: 0.8"/>
      </g>
     </g>
     <g id="text_12">
      <!-- 0.4 -->
      <g transform="translate(28.506875 191.088953) scale(0.1 -0.1)">
       <use xlink:href="#DejaVuSans-30"/>
       <use xlink:href="#DejaVuSans-2e" x="63.623047"/>
       <use xlink:href="#DejaVuSans-34" x="95.410156"/>
      </g>
     </g>
    </g>
    <g id="ytick_6">
     <g id="line2d_12">
      <g>
       <use xlink:href="#m2828cd5513" x="51.41" y="136.782168" style="stroke: #000000; stroke-width: 0.8"/>
      </g>
     </g>
     <g id="text_13">
      <!-- 0.5 -->
      <g transform="translate(28.506875 140.581386) scale(0.1 -0.1)">
       <defs>
        <path id="DejaVuSans-35" d="M 691 4666 
L 3169 4666 
L 3169 4134 
L 1269 4134 
L 1269 2991 
Q 1406 3038 1543 3061 
Q 1681 3084 1819 3084 
Q 2600 3084 3056 2656 
Q 3513 2228 3513 1497 
Q 3513 744 3044 326 
Q 2575 -91 1722 -91 
Q 1428 -91 1123 -41 
Q 819 9 494 109 
L 494 744 
Q 775 591 1075 516 
Q 1375 441 1709 441 
Q 2250 441 2565 725 
Q 2881 1009 2881 1497 
Q 2881 1984 2565 2268 
Q 2250 2553 1709 2553 
Q 1456 2553 1204 2497 
Q 953 2441 691 2322 
L 691 4666 
z
" transform="scale(0.015625)"/>
       </defs>
       <use xlink:href="#DejaVuSans-30"/>
       <use xlink:href="#DejaVuSans-2e" x="63.623047"/>
       <use xlink:href="#DejaVuSans-35" x="95.410156"/>
      </g>
     </g>
    </g>
    <g id="ytick_7">
     <g id="line2d_13">
      <g>
       <use xlink:href="#m2828cd5513" x="51.41" y="86.274601" style="stroke: #000000; stroke-width: 0.8"/>
      </g>
     </g>
     <g id="text_14">
      <!-- 0.6 -->
      <g transform="translate(28.506875 90.07382) scale(0.1 -0.1)">
       <use xlink:href="#DejaVuSans-30"/>
       <use xlink:href="#DejaVuSans-2e" x="63.623047"/>
       <use xlink:href="#DejaVuSans-36" x="95.410156"/>
      </g>
     </g>
    </g>
    <g id="ytick_8">
     <g id="line2d_14">
      <g>
       <use xlink:href="#m2828cd5513" x="51.41" y="35.767035" style="stroke: #000000; stroke-width: 0.8"/>
      </g>
     </g>
     <g id="text_15">
      <!-- 0.7 -->
      <g transform="translate(28.506875 39.566253) scale(0.1 -0.1)">
       <defs>
        <path id="DejaVuSans-37" d="M 525 4666 
L 3525 4666 
L 3525 4397 
L 1831 0 
L 1172 0 
L 2766 4134 
L 525 4134 
L 525 4666 
z
" transform="scale(0.015625)"/>
       </defs>
       <use xlink:href="#DejaVuSans-30"/>
       <use xlink:href="#DejaVuSans-2e" x="63.623047"/>
       <use xlink:href="#DejaVuSans-37" x="95.410156"/>
      </g>
     </g>
    </g>
    <g id="text_16">
     <!-- Density -->
     <g transform="translate(21.595313 226.672031) rotate(-90) scale(0.14 -0.14)">
      <defs>
       <path id="DejaVuSans-44" d="M 1259 4147 
L 1259 519 
L 2022 519 
Q 2988 519 3436 956 
Q 3884 1394 3884 2338 
Q 3884 3275 3436 3711 
Q 2988 4147 2022 4147 
L 1259 4147 
z
M 628 4666 
L 1925 4666 
Q 3281 4666 3915 4102 
Q 4550 3538 4550 2338 
Q 4550 1131 3912 565 
Q 3275 0 1925 0 
L 628 0 
L 628 4666 
z
" transform="scale(0.015625)"/>
       <path id="DejaVuSans-79" d="M 2059 -325 
Q 1816 -950 1584 -1140 
Q 1353 -1331 966 -1331 
L 506 -1331 
L 506 -850 
L 844 -850 
Q 1081 -850 1212 -737 
Q 1344 -625 1503 -206 
L 1606 56 
L 191 3500 
L 800 3500 
L 1894 763 
L 2988 3500 
L 3597 3500 
L 2059 -325 
z
" transform="scale(0.015625)"/>
      </defs>
      <use xlink:href="#DejaVuSans-44"/>
      <use xlink:href="#DejaVuSans-65" x="77.001953"/>
      <use xlink:href="#DejaVuSans-6e" x="138.525391"/>
      <use xlink:href="#DejaVuSans-73" x="201.904297"/>
      <use xlink:href="#DejaVuSans-69" x="254.003906"/>
      <use xlink:href="#DejaVuSans-74" x="281.787109"/>
      <use xlink:href="#DejaVuSans-79" x="320.996094"/>
     </g>
    </g>
   </g>
   <g id="line2d_15">
    <path d="M 148.076323 389.32 
L 148.076323 10.8 
" clip-path="url(#p140041c282)" style="fill: none; stroke-dasharray: 3.7,1.6; stroke-dashoffset: 0; stroke: #000000"/>
   </g>
   <g id="patch_3">
    <path d="M 51.41 389.32 
L 51.41 10.8 
" style="fill: none; stroke: #000000; stroke-width: 0.8; stroke-linejoin: miter; stroke-linecap: square"/>
   </g>
   <g id="patch_4">
    <path d="M 51.41 389.32 
L 421.2 389.32 
" style="fill: none; stroke: #000000; stroke-width: 0.8; stroke-linejoin: miter; stroke-linecap: square"/>
   </g>
   <g id="legend_1">
    <g id="patch_5">
     <path d="M 257.389062 77.5125 
L 414.2 77.5125 
Q 416.2 77.5125 416.2 75.5125 
L 416.2 17.8 
Q 416.2 15.8 414.2 15.8 
L 257.389062 15.8 
Q 255.389062 15.8 255.389062 17.8 
L 255.389062 75.5125 
Q 255.389062 77.5125 257.389062 77.5125 
z
" style="fill: #ffffff; opacity: 0.8; stroke: #cccccc; stroke-linejoin: miter"/>
    </g>
    <g id="patch_6">
     <path d="M 259.389062 27.398438 
L 279.389062 27.398438 
L 279.389062 20.398438 
L 259.389062 20.398438 
z
" style="fill: #bdbdbd; fill-opacity: 0.5; stroke: #bdbdbd; stroke-width: 2.5; stroke-linejoin: miter"/>
    </g>
    <g id="text_17">
     <!-- Pre-trained ESM2 (150M) -->
     <g transform="translate(287.389062 27.398438) scale(0.1 -0.1)">
      <defs>
       <path id="DejaVuSans-2d" d="M 313 2009 
L 1997 2009 
L 1997 1497 
L 313 1497 
L 313 2009 
z
" transform="scale(0.015625)"/>
       <path id="DejaVuSans-61" d="M 2194 1759 
Q 1497 1759 1228 1600 
Q 959 1441 959 1056 
Q 959 750 1161 570 
Q 1363 391 1709 391 
Q 2188 391 2477 730 
Q 2766 1069 2766 1631 
L 2766 1759 
L 2194 1759 
z
M 3341 1997 
L 3341 0 
L 2766 0 
L 2766 531 
Q 2569 213 2275 61 
Q 1981 -91 1556 -91 
Q 1019 -91 701 211 
Q 384 513 384 1019 
Q 384 1609 779 1909 
Q 1175 2209 1959 2209 
L 2766 2209 
L 2766 2266 
Q 2766 2663 2505 2880 
Q 2244 3097 1772 3097 
Q 1472 3097 1187 3025 
Q 903 2953 641 2809 
L 641 3341 
Q 956 3463 1253 3523 
Q 1550 3584 1831 3584 
Q 2591 3584 2966 3190 
Q 3341 2797 3341 1997 
z
" transform="scale(0.015625)"/>
       <path id="DejaVuSans-45" d="M 628 4666 
L 3578 4666 
L 3578 4134 
L 1259 4134 
L 1259 2753 
L 3481 2753 
L 3481 2222 
L 1259 2222 
L 1259 531 
L 3634 531 
L 3634 0 
L 628 0 
L 628 4666 
z
" transform="scale(0.015625)"/>
       <path id="DejaVuSans-53" d="M 3425 4513 
L 3425 3897 
Q 3066 4069 2747 4153 
Q 2428 4238 2131 4238 
Q 1616 4238 1336 4038 
Q 1056 3838 1056 3469 
Q 1056 3159 1242 3001 
Q 1428 2844 1947 2747 
L 2328 2669 
Q 3034 2534 3370 2195 
Q 3706 1856 3706 1288 
Q 3706 609 3251 259 
Q 2797 -91 1919 -91 
Q 1588 -91 1214 -16 
Q 841 59 441 206 
L 441 856 
Q 825 641 1194 531 
Q 1563 422 1919 422 
Q 2459 422 2753 634 
Q 3047 847 3047 1241 
Q 3047 1584 2836 1778 
Q 2625 1972 2144 2069 
L 1759 2144 
Q 1053 2284 737 2584 
Q 422 2884 422 3419 
Q 422 4038 858 4394 
Q 1294 4750 2059 4750 
Q 2388 4750 2728 4690 
Q 3069 4631 3425 4513 
z
" transform="scale(0.015625)"/>
       <path id="DejaVuSans-4d" d="M 628 4666 
L 1569 4666 
L 2759 1491 
L 3956 4666 
L 4897 4666 
L 4897 0 
L 4281 0 
L 4281 4097 
L 3078 897 
L 2444 897 
L 1241 4097 
L 1241 0 
L 628 0 
L 628 4666 
z
" transform="scale(0.015625)"/>
       <path id="DejaVuSans-28" d="M 1984 4856 
Q 1566 4138 1362 3434 
Q 1159 2731 1159 2009 
Q 1159 1288 1364 580 
Q 1569 -128 1984 -844 
L 1484 -844 
Q 1016 -109 783 600 
Q 550 1309 550 2009 
Q 550 2706 781 3412 
Q 1013 4119 1484 4856 
L 1984 4856 
z
" transform="scale(0.015625)"/>
       <path id="DejaVuSans-29" d="M 513 4856 
L 1013 4856 
Q 1481 4119 1714 3412 
Q 1947 2706 1947 2009 
Q 1947 1309 1714 600 
Q 1481 -109 1013 -844 
L 513 -844 
Q 928 -128 1133 580 
Q 1338 1288 1338 2009 
Q 1338 2731 1133 3434 
Q 928 4138 513 4856 
z
" transform="scale(0.015625)"/>
      </defs>
      <use xlink:href="#DejaVuSans-50"/>
      <use xlink:href="#DejaVuSans-72" x="58.552734"/>
      <use xlink:href="#DejaVuSans-65" x="97.416016"/>
      <use xlink:href="#DejaVuSans-2d" x="158.939453"/>
      <use xlink:href="#DejaVuSans-74" x="195.023438"/>
      <use xlink:href="#DejaVuSans-72" x="234.232422"/>
      <use xlink:href="#DejaVuSans-61" x="275.345703"/>
      <use xlink:href="#DejaVuSans-69" x="336.625"/>
      <use xlink:href="#DejaVuSans-6e" x="364.408203"/>
      <use xlink:href="#DejaVuSans-65" x="427.787109"/>
      <use xlink:href="#DejaVuSans-64" x="489.310547"/>
      <use xlink:href="#DejaVuSans-20" x="552.787109"/>
      <use xlink:href="#DejaVuSans-45" x="584.574219"/>
      <use xlink:href="#DejaVuSans-53" x="647.757812"/>
      <use xlink:href="#DejaVuSans-4d" x="711.234375"/>
      <use xlink:href="#DejaVuSans-32" x="797.513672"/>
      <use xlink:href="#DejaVuSans-20" x="861.136719"/>
      <use xlink:href="#DejaVuSans-28" x="892.923828"/>
      <use xlink:href="#DejaVuSans-31" x="931.9375"/>
      <use xlink:href="#DejaVuSans-35" x="995.560547"/>
      <use xlink:href="#DejaVuSans-30" x="1059.183594"/>
      <use xlink:href="#DejaVuSans-4d" x="1122.806641"/>
      <use xlink:href="#DejaVuSans-29" x="1209.085938"/>
     </g>
    </g>
    <g id="patch_7">
     <path d="M 259.389062 42.076563 
L 279.389062 42.076563 
L 279.389062 35.076563 
L 259.389062 35.076563 
z
" style="fill: #92c5de; fill-opacity: 0.5; stroke: #92c5de; stroke-width: 2.5; stroke-linejoin: miter"/>
    </g>
    <g id="text_18">
     <!-- SFT ESM2 (150M) -->
     <g transform="translate(287.389062 42.076563) scale(0.1 -0.1)">
      <defs>
       <path id="DejaVuSans-54" d="M -19 4666 
L 3928 4666 
L 3928 4134 
L 2272 4134 
L 2272 0 
L 1638 0 
L 1638 4134 
L -19 4134 
L -19 4666 
z
" transform="scale(0.015625)"/>
      </defs>
      <use xlink:href="#DejaVuSans-53"/>
      <use xlink:href="#DejaVuSans-46" x="63.476562"/>
      <use xlink:href="#DejaVuSans-54" x="119.246094"/>
      <use xlink:href="#DejaVuSans-20" x="180.330078"/>
      <use xlink:href="#DejaVuSans-45" x="212.117188"/>
      <use xlink:href="#DejaVuSans-53" x="275.300781"/>
      <use xlink:href="#DejaVuSans-4d" x="338.777344"/>
      <use xlink:href="#DejaVuSans-32" x="425.056641"/>
      <use xlink:href="#DejaVuSans-20" x="488.679688"/>
      <use xlink:href="#DejaVuSans-28" x="520.466797"/>
      <use xlink:href="#DejaVuSans-31" x="559.480469"/>
      <use xlink:href="#DejaVuSans-35" x="623.103516"/>
      <use xlink:href="#DejaVuSans-30" x="686.726562"/>
      <use xlink:href="#DejaVuSans-4d" x="750.349609"/>
      <use xlink:href="#DejaVuSans-29" x="836.628906"/>
     </g>
    </g>
    <g id="patch_8">
     <path d="M 259.389062 56.754687 
L 279.389062 56.754687 
L 279.389062 49.754687 
L 259.389062 49.754687 
z
" style="fill: #2166ac; fill-opacity: 0.5; stroke: #2166ac; stroke-width: 2.5; stroke-linejoin: miter"/>
    </g>
    <g id="text_19">
     <!-- Aligned ESM2 (150M) -->
     <g transform="translate(287.389062 56.754687) scale(0.1 -0.1)">
      <defs>
       <path id="DejaVuSans-41" d="M 2188 4044 
L 1331 1722 
L 3047 1722 
L 2188 4044 
z
M 1831 4666 
L 2547 4666 
L 4325 0 
L 3669 0 
L 3244 1197 
L 1141 1197 
L 716 0 
L 50 0 
L 1831 4666 
z
" transform="scale(0.015625)"/>
       <path id="DejaVuSans-67" d="M 2906 1791 
Q 2906 2416 2648 2759 
Q 2391 3103 1925 3103 
Q 1463 3103 1205 2759 
Q 947 2416 947 1791 
Q 947 1169 1205 825 
Q 1463 481 1925 481 
Q 2391 481 2648 825 
Q 2906 1169 2906 1791 
z
M 3481 434 
Q 3481 -459 3084 -895 
Q 2688 -1331 1869 -1331 
Q 1566 -1331 1297 -1286 
Q 1028 -1241 775 -1147 
L 775 -588 
Q 1028 -725 1275 -790 
Q 1522 -856 1778 -856 
Q 2344 -856 2625 -561 
Q 2906 -266 2906 331 
L 2906 616 
Q 2728 306 2450 153 
Q 2172 0 1784 0 
Q 1141 0 747 490 
Q 353 981 353 1791 
Q 353 2603 747 3093 
Q 1141 3584 1784 3584 
Q 2172 3584 2450 3431 
Q 2728 3278 2906 2969 
L 2906 3500 
L 3481 3500 
L 3481 434 
z
" transform="scale(0.015625)"/>
      </defs>
      <use xlink:href="#DejaVuSans-41"/>
      <use xlink:href="#DejaVuSans-6c" x="68.408203"/>
      <use xlink:href="#DejaVuSans-69" x="96.191406"/>
      <use xlink:href="#DejaVuSans-67" x="123.974609"/>
      <use xlink:href="#DejaVuSans-6e" x="187.451172"/>
      <use xlink:href="#DejaVuSans-65" x="250.830078"/>
      <use xlink:href="#DejaVuSans-64" x="312.353516"/>
      <use xlink:href="#DejaVuSans-20" x="375.830078"/>
      <use xlink:href="#DejaVuSans-45" x="407.617188"/>
      <use xlink:href="#DejaVuSans-53" x="470.800781"/>
      <use xlink:href="#DejaVuSans-4d" x="534.277344"/>
      <use xlink:href="#DejaVuSans-32" x="620.556641"/>
      <use xlink:href="#DejaVuSans-20" x="684.179688"/>
      <use xlink:href="#DejaVuSans-28" x="715.966797"/>
      <use xlink:href="#DejaVuSans-31" x="754.980469"/>
      <use xlink:href="#DejaVuSans-35" x="818.603516"/>
      <use xlink:href="#DejaVuSans-30" x="882.226562"/>
      <use xlink:href="#DejaVuSans-4d" x="945.849609"/>
      <use xlink:href="#DejaVuSans-29" x="1032.128906"/>
     </g>
    </g>
    <g id="line2d_16">
     <path d="M 259.389062 67.932813 
L 269.389062 67.932813 
L 279.389062 67.932813 
" style="fill: none; stroke-dasharray: 3.7,1.6; stroke-dashoffset: 0; stroke: #000000"/>
    </g>
    <g id="text_20">
     <!-- Predicted bgl3 score -->
     <g transform="translate(287.389062 71.432813) scale(0.1 -0.1)">
      <defs>
       <path id="DejaVuSans-62" d="M 3116 1747 
Q 3116 2381 2855 2742 
Q 2594 3103 2138 3103 
Q 1681 3103 1420 2742 
Q 1159 2381 1159 1747 
Q 1159 1113 1420 752 
Q 1681 391 2138 391 
Q 2594 391 2855 752 
Q 3116 1113 3116 1747 
z
M 1159 2969 
Q 1341 3281 1617 3432 
Q 1894 3584 2278 3584 
Q 2916 3584 3314 3078 
Q 3713 2572 3713 1747 
Q 3713 922 3314 415 
Q 2916 -91 2278 -91 
Q 1894 -91 1617 61 
Q 1341 213 1159 525 
L 1159 0 
L 581 0 
L 581 4863 
L 1159 4863 
L 1159 2969 
z
" transform="scale(0.015625)"/>
      </defs>
      <use xlink:href="#DejaVuSans-50"/>
      <use xlink:href="#DejaVuSans-72" x="58.552734"/>
      <use xlink:href="#DejaVuSans-65" x="97.416016"/>
      <use xlink:href="#DejaVuSans-64" x="158.939453"/>
      <use xlink:href="#DejaVuSans-69" x="222.416016"/>
      <use xlink:href="#DejaVuSans-63" x="250.199219"/>
      <use xlink:href="#DejaVuSans-74" x="305.179688"/>
      <use xlink:href="#DejaVuSans-65" x="344.388672"/>
      <use xlink:href="#DejaVuSans-64" x="405.912109"/>
      <use xlink:href="#DejaVuSans-20" x="469.388672"/>
      <use xlink:href="#DejaVuSans-62" x="501.175781"/>
      <use xlink:href="#DejaVuSans-67" x="564.652344"/>
      <use xlink:href="#DejaVuSans-6c" x="628.128906"/>
      <use xlink:href="#DejaVuSans-33" x="655.912109"/>
      <use xlink:href="#DejaVuSans-20" x="719.535156"/>
      <use xlink:href="#DejaVuSans-73" x="751.322266"/>
      <use xlink:href="#DejaVuSans-63" x="803.421875"/>
      <use xlink:href="#DejaVuSans-6f" x="858.402344"/>
      <use xlink:href="#DejaVuSans-72" x="919.583984"/>
      <use xlink:href="#DejaVuSans-65" x="958.447266"/>
     </g>
    </g>
   </g>
  </g>
 </g>
 <defs>
  <clipPath id="p140041c282">
   <rect x="51.41" y="10.8" width="369.79" height="378.52"/>
  </clipPath>
 </defs>
</svg>
