<?xml version="1.0" encoding="utf-8" standalone="no"?>
<!DOCTYPE svg PUBLIC "-//W3C//DTD SVG 1.1//EN"
  "http://www.w3.org/Graphics/SVG/1.1/DTD/svg11.dtd">
<svg xmlns:xlink="http://www.w3.org/1999/xlink" width="432pt" height="432pt" viewBox="0 0 432 432" xmlns="http://www.w3.org/2000/svg" version="1.1">
 <metadata>
  <rdf:RDF xmlns:dc="http://purl.org/dc/elements/1.1/" xmlns:cc="http://creativecommons.org/ns#" xmlns:rdf="http://www.w3.org/1999/02/22-rdf-syntax-ns#">
   <cc:Work>
    <dc:type rdf:resource="http://purl.org/dc/dcmitype/StillImage"/>
    <dc:date>2025-04-02T23:37:25.177966</dc:date>
    <dc:format>image/svg+xml</dc:format>
    <dc:creator>
     <cc:Agent>
      <dc:title>Matplotlib v3.8.0, https://matplotlib.org/</dc:title>
     </cc:Agent>
    </dc:creator>
   </cc:Work>
  </rdf:RDF>
 </metadata>
 <defs>
  <style type="text/css">*{stroke-linejoin: round; stroke-linecap: butt}</style>
 </defs>
 <g id="figure_1">
  <g id="patch_1">
   <path d="M 0 432 
L 432 432 
L 432 0 
L 0 0 
z
" style="fill: #ffffff"/>
  </g>
  <g id="axes_1">
   <g id="patch_2">
    <path d="M 57.8 389.32 
L 421.2 389.32 
L 421.2 10.8 
L 57.8 10.8 
z
" style="fill: #ffffff"/>
   </g>
   <g id="PolyCollection_1">
    <defs>
     <path id="m216058e41e" d="M 82.692114 -42.72845 
L 82.692114 -42.68 
L 83.637049 -42.68 
L 84.581984 -42.68 
L 85.52692 -42.68 
L 86.471855 -42.68 
L 87.41679 -42.68 
L 88.361725 -42.68 
L 89.30666 -42.68 
L 90.251596 -42.68 
L 91.196531 -42.68 
L 92.141466 -42.68 
L 93.086401 -42.68 
L 94.031336 -42.68 
L 94.976271 -42.68 
L 95.921207 -42.68 
L 96.866142 -42.68 
L 97.811077 -42.68 
L 98.756012 -42.68 
L 99.700947 -42.68 
L 100.645883 -42.68 
L 101.590818 -42.68 
L 102.535753 -42.68 
L 103.480688 -42.68 
L 104.425623 -42.68 
L 105.370559 -42.68 
L 106.315494 -42.68 
L 107.260429 -42.68 
L 108.205364 -42.68 
L 109.150299 -42.68 
L 110.095234 -42.68 
L 111.04017 -42.68 
L 111.985105 -42.68 
L 112.93004 -42.68 
L 113.874975 -42.68 
L 114.81991 -42.68 
L 115.764846 -42.68 
L 116.709781 -42.68 
L 117.654716 -42.68 
L 118.599651 -42.68 
L 119.544586 -42.68 
L 120.489522 -42.68 
L 121.434457 -42.68 
L 122.379392 -42.68 
L 123.324327 -42.68 
L 124.269262 -42.68 
L 125.214197 -42.68 
L 126.159133 -42.68 
L 127.104068 -42.68 
L 128.049003 -42.68 
L 128.993938 -42.68 
L 129.938873 -42.68 
L 130.883809 -42.68 
L 131.828744 -42.68 
L 132.773679 -42.68 
L 133.718614 -42.68 
L 134.663549 -42.68 
L 135.608485 -42.68 
L 136.55342 -42.68 
L 137.498355 -42.68 
L 138.44329 -42.68 
L 139.388225 -42.68 
L 140.33316 -42.68 
L 141.278096 -42.68 
L 142.223031 -42.68 
L 143.167966 -42.68 
L 144.112901 -42.68 
L 145.057836 -42.68 
L 146.002772 -42.68 
L 146.947707 -42.68 
L 147.892642 -42.68 
L 148.837577 -42.68 
L 149.782512 -42.68 
L 150.727447 -42.68 
L 151.672383 -42.68 
L 152.617318 -42.68 
L 153.562253 -42.68 
L 154.507188 -42.68 
L 155.452123 -42.68 
L 156.397059 -42.68 
L 157.341994 -42.68 
L 158.286929 -42.68 
L 159.231864 -42.68 
L 160.176799 -42.68 
L 161.121735 -42.68 
L 162.06667 -42.68 
L 163.011605 -42.68 
L 163.95654 -42.68 
L 164.901475 -42.68 
L 165.84641 -42.68 
L 166.791346 -42.68 
L 167.736281 -42.68 
L 168.681216 -42.68 
L 169.626151 -42.68 
L 170.571086 -42.68 
L 171.516022 -42.68 
L 172.460957 -42.68 
L 173.405892 -42.68 
L 174.350827 -42.68 
L 175.295762 -42.68 
L 176.240698 -42.68 
L 177.185633 -42.68 
L 178.130568 -42.68 
L 179.075503 -42.68 
L 180.020438 -42.68 
L 180.965373 -42.68 
L 181.910309 -42.68 
L 182.855244 -42.68 
L 183.800179 -42.68 
L 184.745114 -42.68 
L 185.690049 -42.68 
L 186.634985 -42.68 
L 187.57992 -42.68 
L 188.524855 -42.68 
L 189.46979 -42.68 
L 190.414725 -42.68 
L 191.359661 -42.68 
L 192.304596 -42.68 
L 193.249531 -42.68 
L 194.194466 -42.68 
L 195.139401 -42.68 
L 196.084336 -42.68 
L 197.029272 -42.68 
L 197.974207 -42.68 
L 198.919142 -42.68 
L 199.864077 -42.68 
L 200.809012 -42.68 
L 201.753948 -42.68 
L 202.698883 -42.68 
L 203.643818 -42.68 
L 204.588753 -42.68 
L 205.533688 -42.68 
L 206.478624 -42.68 
L 207.423559 -42.68 
L 208.368494 -42.68 
L 209.313429 -42.68 
L 210.258364 -42.68 
L 211.203299 -42.68 
L 212.148235 -42.68 
L 213.09317 -42.68 
L 214.038105 -42.68 
L 214.98304 -42.68 
L 215.927975 -42.68 
L 216.872911 -42.68 
L 217.817846 -42.68 
L 218.762781 -42.68 
L 219.707716 -42.68 
L 220.652651 -42.68 
L 221.597587 -42.68 
L 222.542522 -42.68 
L 223.487457 -42.68 
L 224.432392 -42.68 
L 225.377327 -42.68 
L 226.322262 -42.68 
L 227.267198 -42.68 
L 228.212133 -42.68 
L 229.157068 -42.68 
L 230.102003 -42.68 
L 231.046938 -42.68 
L 231.991874 -42.68 
L 232.936809 -42.68 
L 233.881744 -42.68 
L 234.826679 -42.68 
L 235.771614 -42.68 
L 236.716549 -42.68 
L 237.661485 -42.68 
L 238.60642 -42.68 
L 239.551355 -42.68 
L 240.49629 -42.68 
L 241.441225 -42.68 
L 242.386161 -42.68 
L 243.331096 -42.68 
L 244.276031 -42.68 
L 245.220966 -42.68 
L 246.165901 -42.68 
L 247.110837 -42.68 
L 248.055772 -42.68 
L 249.000707 -42.68 
L 249.945642 -42.68 
L 250.890577 -42.68 
L 251.835512 -42.68 
L 252.780448 -42.68 
L 253.725383 -42.68 
L 254.670318 -42.68 
L 255.615253 -42.68 
L 256.560188 -42.68 
L 257.505124 -42.68 
L 258.450059 -42.68 
L 259.394994 -42.68 
L 260.339929 -42.68 
L 261.284864 -42.68 
L 262.2298 -42.68 
L 263.174735 -42.68 
L 264.11967 -42.68 
L 265.064605 -42.68 
L 266.00954 -42.68 
L 266.954475 -42.68 
L 267.899411 -42.68 
L 268.844346 -42.68 
L 269.789281 -42.68 
L 270.734216 -42.68 
L 270.734216 -42.711596 
L 270.734216 -42.711596 
L 269.789281 -42.728384 
L 268.844346 -42.752817 
L 267.899411 -42.787707 
L 266.954475 -42.836594 
L 266.00954 -42.903798 
L 265.064605 -42.994433 
L 264.11967 -43.114345 
L 263.174735 -43.269961 
L 262.2298 -43.468034 
L 261.284864 -43.715286 
L 260.339929 -44.017936 
L 259.394994 -44.381159 
L 258.450059 -44.808505 
L 257.505124 -45.301338 
L 256.560188 -45.858355 
L 255.615253 -46.475276 
L 254.670318 -47.144748 
L 253.725383 -47.856532 
L 252.780448 -48.597987 
L 251.835512 -49.35484 
L 250.890577 -50.112206 
L 249.945642 -50.855763 
L 249.000707 -51.572995 
L 248.055772 -52.25437 
L 247.110837 -52.894348 
L 246.165901 -53.492127 
L 245.220966 -54.052041 
L 244.276031 -54.58361 
L 243.331096 -55.101216 
L 242.386161 -55.623473 
L 241.441225 -56.172334 
L 240.49629 -56.772016 
L 239.551355 -57.447821 
L 238.60642 -58.224909 
L 237.661485 -59.127096 
L 236.716549 -60.175715 
L 235.771614 -61.38857 
L 234.826679 -62.779032 
L 233.881744 -64.355298 
L 232.936809 -66.119828 
L 231.991874 -68.069012 
L 231.046938 -70.193056 
L 230.102003 -72.476126 
L 229.157068 -74.896745 
L 228.212133 -77.428453 
L 227.267198 -80.040722 
L 226.322262 -82.700127 
L 225.377327 -85.371767 
L 224.432392 -88.020895 
L 223.487457 -90.614739 
L 222.542522 -93.124414 
L 221.597587 -95.526846 
L 220.652651 -97.806541 
L 219.707716 -99.957053 
L 218.762781 -101.981979 
L 217.817846 -103.895332 
L 216.872911 -105.721215 
L 215.927975 -107.492781 
L 214.98304 -109.250559 
L 214.038105 -111.04032 
L 213.09317 -112.910706 
L 212.148235 -114.910883 
L 211.203299 -117.088447 
L 210.258364 -119.487759 
L 209.313429 -122.148802 
L 208.368494 -125.106514 
L 207.423559 -128.390509 
L 206.478624 -132.024999 
L 205.533688 -136.028742 
L 204.588753 -140.414841 
L 203.643818 -145.19031 
L 202.698883 -150.355406 
L 201.753948 -155.902789 
L 200.809012 -161.816693 
L 199.864077 -168.072266 
L 198.919142 -174.635285 
L 197.974207 -181.462393 
L 197.029272 -188.50195 
L 196.084336 -195.6955 
L 195.139401 -202.979814 
L 194.194466 -210.289379 
L 193.249531 -217.559176 
L 192.304596 -224.727582 
L 191.359661 -231.739194 
L 190.414725 -238.547429 
L 189.46979 -245.116733 
L 188.524855 -251.424277 
L 187.57992 -257.461029 
L 186.634985 -263.232147 
L 185.690049 -268.756629 
L 184.745114 -274.066239 
L 183.800179 -279.203729 
L 182.855244 -284.220438 
L 181.910309 -289.173356 
L 180.965373 -294.121799 
L 180.020438 -299.123826 
L 179.075503 -304.232556 
L 178.130568 -309.492565 
L 177.185633 -314.93653 
L 176.240698 -320.58233 
L 175.295762 -326.430795 
L 174.350827 -332.464306 
L 173.405892 -338.646458 
L 172.460957 -344.922901 
L 171.516022 -351.223454 
L 170.571086 -357.465466 
L 169.626151 -363.558262 
L 168.681216 -369.408429 
L 167.736281 -374.925541 
L 166.791346 -380.027874 
L 165.84641 -384.647619 
L 164.901475 -388.735121 
L 163.95654 -392.261744 
L 163.011605 -395.221073 
L 162.06667 -397.628325 
L 161.121735 -399.517987 
L 160.176799 -400.939874 
L 159.231864 -401.95395 
L 158.286929 -402.624379 
L 157.341994 -403.013345 
L 156.397059 -403.175238 
L 155.452123 -403.151772 
L 154.507188 -402.968512 
L 153.562253 -402.633164 
L 152.617318 -402.135782 
L 151.672383 -401.45082 
L 150.727447 -400.540756 
L 149.782512 -399.360785 
L 148.837577 -397.863975 
L 147.892642 -396.006177 
L 146.947707 -393.750076 
L 146.002772 -391.067873 
L 145.057836 -387.942328 
L 144.112901 -384.366168 
L 143.167966 -380.340128 
L 142.223031 -375.870165 
L 141.278096 -370.964479 
L 140.33316 -365.631056 
L 139.388225 -359.876301 
L 138.44329 -353.705158 
L 137.498355 -347.12276 
L 136.55342 -340.13737 
L 135.608485 -332.764056 
L 134.663549 -325.02834 
L 133.718614 -316.969014 
L 132.773679 -308.639379 
L 131.828744 -300.106425 
L 130.883809 -291.44777 
L 129.938873 -282.746597 
L 128.993938 -274.085143 
L 128.049003 -265.537602 
L 127.104068 -257.163407 
L 126.159133 -249.001842 
L 125.214197 -241.068761 
L 124.269262 -233.355869 
L 123.324327 -225.832682 
L 122.379392 -218.450889 
L 121.434457 -211.150539 
L 120.489522 -203.867254 
L 119.544586 -196.539592 
L 118.599651 -189.115728 
L 117.654716 -181.558765 
L 116.709781 -173.850254 
L 115.764846 -165.991719 
L 114.81991 -158.004279 
L 113.874975 -149.926638 
L 112.93004 -141.81186 
L 111.985105 -133.723396 
L 111.04017 -125.730832 
L 110.095234 -117.905753 
L 109.150299 -110.318005 
L 108.205364 -103.032561 
L 107.260429 -96.107071 
L 106.315494 -89.590098 
L 105.370559 -83.520005 
L 104.425623 -77.924411 
L 103.480688 -72.820126 
L 102.535753 -68.213492 
L 101.590818 -64.101051 
L 100.645883 -60.470472 
L 99.700947 -57.301691 
L 98.756012 -54.568196 
L 97.811077 -52.238415 
L 96.866142 -50.277141 
L 95.921207 -48.646951 
L 94.976271 -47.309537 
L 94.031336 -46.226931 
L 93.086401 -45.362554 
L 92.141466 -44.682069 
L 91.196531 -44.154019 
L 90.251596 -43.750247 
L 89.30666 -43.44611 
L 88.361725 -43.220504 
L 87.41679 -43.05574 
L 86.471855 -42.937302 
L 85.52692 -42.853524 
L 84.581984 -42.795222 
L 83.637049 -42.755314 
L 82.692114 -42.72845 
z
" style="stroke: #bdbdbd; stroke-width: 2.5"/>
    </defs>
    <g clip-path="url(#p962e7771a0)">
     <use xlink:href="#m216058e41e" x="0" y="432" style="fill: #bdbdbd; fill-opacity: 0.5; stroke: #bdbdbd; stroke-width: 2.5"/>
    </g>
   </g>
   <g id="PolyCollection_2">
    <defs>
     <path id="mdc116eb148" d="M 74.318182 -42.700863 
L 74.318182 -42.68 
L 75.854644 -42.68 
L 77.391107 -42.68 
L 78.927569 -42.68 
L 80.464032 -42.68 
L 82.000494 -42.68 
L 83.536957 -42.68 
L 85.073419 -42.68 
L 86.609882 -42.68 
L 88.146344 -42.68 
L 89.682807 -42.68 
L 91.219269 -42.68 
L 92.755731 -42.68 
L 94.292194 -42.68 
L 95.828656 -42.68 
L 97.365119 -42.68 
L 98.901581 -42.68 
L 100.438044 -42.68 
L 101.974506 -42.68 
L 103.510969 -42.68 
L 105.047431 -42.68 
L 106.583894 -42.68 
L 108.120356 -42.68 
L 109.656819 -42.68 
L 111.193281 -42.68 
L 112.729744 -42.68 
L 114.266206 -42.68 
L 115.802669 -42.68 
L 117.339131 -42.68 
L 118.875593 -42.68 
L 120.412056 -42.68 
L 121.948518 -42.68 
L 123.484981 -42.68 
L 125.021443 -42.68 
L 126.557906 -42.68 
L 128.094368 -42.68 
L 129.630831 -42.68 
L 131.167293 -42.68 
L 132.703756 -42.68 
L 134.240218 -42.68 
L 135.776681 -42.68 
L 137.313143 -42.68 
L 138.849606 -42.68 
L 140.386068 -42.68 
L 141.92253 -42.68 
L 143.458993 -42.68 
L 144.995455 -42.68 
L 146.531918 -42.68 
L 148.06838 -42.68 
L 149.604843 -42.68 
L 151.141305 -42.68 
L 152.677768 -42.68 
L 154.21423 -42.68 
L 155.750693 -42.68 
L 157.287155 -42.68 
L 158.823618 -42.68 
L 160.36008 -42.68 
L 161.896543 -42.68 
L 163.433005 -42.68 
L 164.969468 -42.68 
L 166.50593 -42.68 
L 168.042392 -42.68 
L 169.578855 -42.68 
L 171.115317 -42.68 
L 172.65178 -42.68 
L 174.188242 -42.68 
L 175.724705 -42.68 
L 177.261167 -42.68 
L 178.79763 -42.68 
L 180.334092 -42.68 
L 181.870555 -42.68 
L 183.407017 -42.68 
L 184.94348 -42.68 
L 186.479942 -42.68 
L 188.016405 -42.68 
L 189.552867 -42.68 
L 191.08933 -42.68 
L 192.625792 -42.68 
L 194.162254 -42.68 
L 195.698717 -42.68 
L 197.235179 -42.68 
L 198.771642 -42.68 
L 200.308104 -42.68 
L 201.844567 -42.68 
L 203.381029 -42.68 
L 204.917492 -42.68 
L 206.453954 -42.68 
L 207.990417 -42.68 
L 209.526879 -42.68 
L 211.063342 -42.68 
L 212.599804 -42.68 
L 214.136267 -42.68 
L 215.672729 -42.68 
L 217.209192 -42.68 
L 218.745654 -42.68 
L 220.282116 -42.68 
L 221.818579 -42.68 
L 223.355041 -42.68 
L 224.891504 -42.68 
L 226.427966 -42.68 
L 227.964429 -42.68 
L 229.500891 -42.68 
L 231.037354 -42.68 
L 232.573816 -42.68 
L 234.110279 -42.68 
L 235.646741 -42.68 
L 237.183204 -42.68 
L 238.719666 -42.68 
L 240.256129 -42.68 
L 241.792591 -42.68 
L 243.329053 -42.68 
L 244.865516 -42.68 
L 246.401978 -42.68 
L 247.938441 -42.68 
L 249.474903 -42.68 
L 251.011366 -42.68 
L 252.547828 -42.68 
L 254.084291 -42.68 
L 255.620753 -42.68 
L 257.157216 -42.68 
L 258.693678 -42.68 
L 260.230141 -42.68 
L 261.766603 -42.68 
L 263.303066 -42.68 
L 264.839528 -42.68 
L 266.375991 -42.68 
L 267.912453 -42.68 
L 269.448915 -42.68 
L 270.985378 -42.68 
L 272.52184 -42.68 
L 274.058303 -42.68 
L 275.594765 -42.68 
L 277.131228 -42.68 
L 278.66769 -42.68 
L 280.204153 -42.68 
L 281.740615 -42.68 
L 283.277078 -42.68 
L 284.81354 -42.68 
L 286.350003 -42.68 
L 287.886465 -42.68 
L 289.422928 -42.68 
L 290.95939 -42.68 
L 292.495853 -42.68 
L 294.032315 -42.68 
L 295.568777 -42.68 
L 297.10524 -42.68 
L 298.641702 -42.68 
L 300.178165 -42.68 
L 301.714627 -42.68 
L 303.25109 -42.68 
L 304.787552 -42.68 
L 306.324015 -42.68 
L 307.860477 -42.68 
L 309.39694 -42.68 
L 310.933402 -42.68 
L 312.469865 -42.68 
L 314.006327 -42.68 
L 315.54279 -42.68 
L 317.079252 -42.68 
L 318.615715 -42.68 
L 320.152177 -42.68 
L 321.688639 -42.68 
L 323.225102 -42.68 
L 324.761564 -42.68 
L 326.298027 -42.68 
L 327.834489 -42.68 
L 329.370952 -42.68 
L 330.907414 -42.68 
L 332.443877 -42.68 
L 333.980339 -42.68 
L 335.516802 -42.68 
L 337.053264 -42.68 
L 338.589727 -42.68 
L 340.126189 -42.68 
L 341.662652 -42.68 
L 343.199114 -42.68 
L 344.735576 -42.68 
L 346.272039 -42.68 
L 347.808501 -42.68 
L 349.344964 -42.68 
L 350.881426 -42.68 
L 352.417889 -42.68 
L 353.954351 -42.68 
L 355.490814 -42.68 
L 357.027276 -42.68 
L 358.563739 -42.68 
L 360.100201 -42.68 
L 361.636664 -42.68 
L 363.173126 -42.68 
L 364.709589 -42.68 
L 366.246051 -42.68 
L 367.782514 -42.68 
L 369.318976 -42.68 
L 370.855438 -42.68 
L 372.391901 -42.68 
L 373.928363 -42.68 
L 375.464826 -42.68 
L 377.001288 -42.68 
L 378.537751 -42.68 
L 380.074213 -42.68 
L 380.074213 -42.696751 
L 380.074213 -42.696751 
L 378.537751 -42.70647 
L 377.001288 -42.721056 
L 375.464826 -42.742515 
L 373.928363 -42.773469 
L 372.391901 -42.817245 
L 370.855438 -42.877949 
L 369.318976 -42.96049 
L 367.782514 -43.070544 
L 366.246051 -43.21443 
L 364.709589 -43.39888 
L 363.173126 -43.6307 
L 361.636664 -43.916305 
L 360.100201 -44.26116 
L 358.563739 -44.669147 
L 357.027276 -45.141909 
L 355.490814 -45.678261 
L 353.954351 -46.273721 
L 352.417889 -46.92028 
L 350.881426 -47.606473 
L 349.344964 -48.317817 
L 347.808501 -49.037648 
L 346.272039 -49.748309 
L 344.735576 -50.43263 
L 343.199114 -51.075531 
L 341.662652 -51.665588 
L 340.126189 -52.196332 
L 338.589727 -52.667097 
L 337.053264 -53.083238 
L 335.516802 -53.455647 
L 333.980339 -53.799579 
L 332.443877 -54.132882 
L 330.907414 -54.473875 
L 329.370952 -54.839131 
L 327.834489 -55.241504 
L 326.298027 -55.688684 
L 324.761564 -56.182518 
L 323.225102 -56.719242 
L 321.688639 -57.290617 
L 320.152177 -57.885851 
L 318.615715 -58.494074 
L 317.079252 -59.10704 
L 315.54279 -59.72171 
L 314.006327 -60.342367 
L 312.469865 -60.981995 
L 310.933402 -61.662733 
L 309.39694 -62.415333 
L 307.860477 -63.277681 
L 306.324015 -64.292532 
L 304.787552 -65.504683 
L 303.25109 -66.957862 
L 301.714627 -68.691607 
L 300.178165 -70.738394 
L 298.641702 -73.121232 
L 297.10524 -75.85188 
L 295.568777 -78.929791 
L 294.032315 -82.341828 
L 292.495853 -86.062731 
L 290.95939 -90.056281 
L 289.422928 -94.277026 
L 287.886465 -98.672418 
L 286.350003 -103.18515 
L 284.81354 -107.755506 
L 283.277078 -112.323503 
L 281.740615 -116.830696 
L 280.204153 -121.221558 
L 278.66769 -125.444471 
L 277.131228 -129.452431 
L 275.594765 -133.203684 
L 274.058303 -136.662506 
L 272.52184 -139.800348 
L 270.985378 -142.597457 
L 269.448915 -145.044939 
L 267.912453 -147.14707 
L 266.375991 -148.923467 
L 264.839528 -150.410674 
L 263.303066 -151.662626 
L 261.766603 -152.749623 
L 260.230141 -153.755581 
L 258.693678 -154.773644 
L 257.157216 -155.900511 
L 255.620753 -157.230097 
L 254.084291 -158.847322 
L 252.547828 -160.822791 
L 251.011366 -163.209042 
L 249.474903 -166.038751 
L 247.938441 -169.324942 
L 246.401978 -173.062936 
L 244.865516 -177.233494 
L 243.329053 -181.806497 
L 241.792591 -186.744491 
L 240.256129 -192.005602 
L 238.719666 -197.54556 
L 237.183204 -203.318796 
L 235.646741 -209.278852 
L 234.110279 -215.378393 
L 232.573816 -221.569187 
L 231.037354 -227.802281 
L 229.500891 -234.028488 
L 227.964429 -240.199123 
L 226.427966 -246.266841 
L 224.891504 -252.186365 
L 223.355041 -257.914942 
L 221.818579 -263.412456 
L 220.282116 -268.641245 
L 218.745654 -273.565785 
L 217.209192 -278.152431 
L 215.672729 -282.369468 
L 214.136267 -286.187608 
L 212.599804 -289.581008 
L 211.063342 -292.528742 
L 209.526879 -295.016553 
L 207.990417 -297.038587 
L 206.453954 -298.598769 
L 204.917492 -299.71146 
L 203.381029 -300.401067 
L 201.844567 -300.700416 
L 200.308104 -300.647802 
L 198.771642 -300.282883 
L 197.235179 -299.641742 
L 195.698717 -298.751667 
L 194.162254 -297.626297 
L 192.625792 -296.26185 
L 191.08933 -294.635074 
L 189.552867 -292.703387 
L 188.016405 -290.407401 
L 186.479942 -287.675746 
L 184.94348 -284.43174 
L 183.407017 -280.601221 
L 181.870555 -276.120673 
L 180.334092 -270.944721 
L 178.79763 -265.05215 
L 177.261167 -258.449803 
L 175.724705 -251.173978 
L 174.188242 -243.289273 
L 172.65178 -234.885114 
L 171.115317 -226.070452 
L 169.578855 -216.967295 
L 168.042392 -207.703765 
L 166.50593 -198.407382 
L 164.969468 -189.199125 
L 163.433005 -180.188661 
L 161.896543 -171.470962 
L 160.36008 -163.12431 
L 158.823618 -155.209573 
L 157.287155 -147.77049 
L 155.750693 -140.834705 
L 154.21423 -134.41522 
L 152.677768 -128.512046 
L 151.141305 -123.113861 
L 149.604843 -118.199575 
L 148.06838 -113.739801 
L 146.531918 -109.698251 
L 144.995455 -106.033142 
L 143.458993 -102.698682 
L 141.92253 -99.646655 
L 140.386068 -96.828132 
L 138.849606 -94.195232 
L 137.313143 -91.702846 
L 135.776681 -89.310218 
L 134.240218 -86.982258 
L 132.703756 -84.690498 
L 131.167293 -82.413646 
L 129.630831 -80.137711 
L 128.094368 -77.855745 
L 126.557906 -75.567248 
L 125.021443 -73.277322 
L 123.484981 -70.995654 
L 121.948518 -68.735391 
L 120.412056 -66.511986 
L 118.875593 -64.342059 
L 117.339131 -62.24232 
L 115.802669 -60.228607 
L 114.266206 -58.315056 
L 112.729744 -56.513474 
L 111.193281 -54.832903 
L 109.656819 -53.279425 
L 108.120356 -51.856169 
L 106.583894 -50.563514 
L 105.047431 -49.39943 
L 103.510969 -48.359903 
L 101.974506 -47.43939 
L 100.438044 -46.631237 
L 98.901581 -45.928048 
L 97.365119 -45.321962 
L 95.828656 -44.804864 
L 94.292194 -44.368527 
L 92.755731 -44.004719 
L 91.219269 -43.705291 
L 89.682807 -43.462268 
L 88.146344 -43.267953 
L 86.609882 -43.115029 
L 85.073419 -42.996676 
L 83.536957 -42.906668 
L 82.000494 -42.839448 
L 80.464032 -42.790181 
L 78.927569 -42.75476 
L 77.391107 -42.729792 
L 75.854644 -42.712541 
L 74.318182 -42.700863 
z
" style="stroke: #92c5de; stroke-width: 2.5"/>
    </defs>
    <g clip-path="url(#p962e7771a0)">
     <use xlink:href="#mdc116eb148" x="0" y="432" style="fill: #92c5de; fill-opacity: 0.5; stroke: #92c5de; stroke-width: 2.5"/>
    </g>
   </g>
   <g id="PolyCollection_3">
    <defs>
     <path id="m0112142d00" d="M 76.959584 -42.694923 
L 76.959584 -42.68 
L 78.606429 -42.68 
L 80.253275 -42.68 
L 81.90012 -42.68 
L 83.546966 -42.68 
L 85.193811 -42.68 
L 86.840656 -42.68 
L 88.487502 -42.68 
L 90.134347 -42.68 
L 91.781193 -42.68 
L 93.428038 -42.68 
L 95.074883 -42.68 
L 96.721729 -42.68 
L 98.368574 -42.68 
L 100.01542 -42.68 
L 101.662265 -42.68 
L 103.30911 -42.68 
L 104.955956 -42.68 
L 106.602801 -42.68 
L 108.249647 -42.68 
L 109.896492 -42.68 
L 111.543337 -42.68 
L 113.190183 -42.68 
L 114.837028 -42.68 
L 116.483874 -42.68 
L 118.130719 -42.68 
L 119.777564 -42.68 
L 121.42441 -42.68 
L 123.071255 -42.68 
L 124.718101 -42.68 
L 126.364946 -42.68 
L 128.011791 -42.68 
L 129.658637 -42.68 
L 131.305482 -42.68 
L 132.952328 -42.68 
L 134.599173 -42.68 
L 136.246018 -42.68 
L 137.892864 -42.68 
L 139.539709 -42.68 
L 141.186554 -42.68 
L 142.8334 -42.68 
L 144.480245 -42.68 
L 146.127091 -42.68 
L 147.773936 -42.68 
L 149.420781 -42.68 
L 151.067627 -42.68 
L 152.714472 -42.68 
L 154.361318 -42.68 
L 156.008163 -42.68 
L 157.655008 -42.68 
L 159.301854 -42.68 
L 160.948699 -42.68 
L 162.595545 -42.68 
L 164.24239 -42.68 
L 165.889235 -42.68 
L 167.536081 -42.68 
L 169.182926 -42.68 
L 170.829772 -42.68 
L 172.476617 -42.68 
L 174.123462 -42.68 
L 175.770308 -42.68 
L 177.417153 -42.68 
L 179.063999 -42.68 
L 180.710844 -42.68 
L 182.357689 -42.68 
L 184.004535 -42.68 
L 185.65138 -42.68 
L 187.298226 -42.68 
L 188.945071 -42.68 
L 190.591916 -42.68 
L 192.238762 -42.68 
L 193.885607 -42.68 
L 195.532453 -42.68 
L 197.179298 -42.68 
L 198.826143 -42.68 
L 200.472989 -42.68 
L 202.119834 -42.68 
L 203.76668 -42.68 
L 205.413525 -42.68 
L 207.06037 -42.68 
L 208.707216 -42.68 
L 210.354061 -42.68 
L 212.000907 -42.68 
L 213.647752 -42.68 
L 215.294597 -42.68 
L 216.941443 -42.68 
L 218.588288 -42.68 
L 220.235134 -42.68 
L 221.881979 -42.68 
L 223.528824 -42.68 
L 225.17567 -42.68 
L 226.822515 -42.68 
L 228.469361 -42.68 
L 230.116206 -42.68 
L 231.763051 -42.68 
L 233.409897 -42.68 
L 235.056742 -42.68 
L 236.703588 -42.68 
L 238.350433 -42.68 
L 239.997278 -42.68 
L 241.644124 -42.68 
L 243.290969 -42.68 
L 244.937815 -42.68 
L 246.58466 -42.68 
L 248.231505 -42.68 
L 249.878351 -42.68 
L 251.525196 -42.68 
L 253.172042 -42.68 
L 254.818887 -42.68 
L 256.465732 -42.68 
L 258.112578 -42.68 
L 259.759423 -42.68 
L 261.406269 -42.68 
L 263.053114 -42.68 
L 264.699959 -42.68 
L 266.346805 -42.68 
L 267.99365 -42.68 
L 269.640496 -42.68 
L 271.287341 -42.68 
L 272.934186 -42.68 
L 274.581032 -42.68 
L 276.227877 -42.68 
L 277.874723 -42.68 
L 279.521568 -42.68 
L 281.168413 -42.68 
L 282.815259 -42.68 
L 284.462104 -42.68 
L 286.10895 -42.68 
L 287.755795 -42.68 
L 289.40264 -42.68 
L 291.049486 -42.68 
L 292.696331 -42.68 
L 294.343177 -42.68 
L 295.990022 -42.68 
L 297.636867 -42.68 
L 299.283713 -42.68 
L 300.930558 -42.68 
L 302.577404 -42.68 
L 304.224249 -42.68 
L 305.871094 -42.68 
L 307.51794 -42.68 
L 309.164785 -42.68 
L 310.81163 -42.68 
L 312.458476 -42.68 
L 314.105321 -42.68 
L 315.752167 -42.68 
L 317.399012 -42.68 
L 319.045857 -42.68 
L 320.692703 -42.68 
L 322.339548 -42.68 
L 323.986394 -42.68 
L 325.633239 -42.68 
L 327.280084 -42.68 
L 328.92693 -42.68 
L 330.573775 -42.68 
L 332.220621 -42.68 
L 333.867466 -42.68 
L 335.514311 -42.68 
L 337.161157 -42.68 
L 338.808002 -42.68 
L 340.454848 -42.68 
L 342.101693 -42.68 
L 343.748538 -42.68 
L 345.395384 -42.68 
L 347.042229 -42.68 
L 348.689075 -42.68 
L 350.33592 -42.68 
L 351.982765 -42.68 
L 353.629611 -42.68 
L 355.276456 -42.68 
L 356.923302 -42.68 
L 358.570147 -42.68 
L 360.216992 -42.68 
L 361.863838 -42.68 
L 363.510683 -42.68 
L 365.157529 -42.68 
L 366.804374 -42.68 
L 368.451219 -42.68 
L 370.098065 -42.68 
L 371.74491 -42.68 
L 373.391756 -42.68 
L 375.038601 -42.68 
L 376.685446 -42.68 
L 378.332292 -42.68 
L 379.979137 -42.68 
L 381.625983 -42.68 
L 383.272828 -42.68 
L 384.919673 -42.68 
L 386.566519 -42.68 
L 388.213364 -42.68 
L 389.86021 -42.68 
L 391.507055 -42.68 
L 393.1539 -42.68 
L 394.800746 -42.68 
L 396.447591 -42.68 
L 398.094437 -42.68 
L 399.741282 -42.68 
L 401.388127 -42.68 
L 403.034973 -42.68 
L 404.681818 -42.68 
L 404.681818 -42.691011 
L 404.681818 -42.691011 
L 403.034973 -42.697396 
L 401.388127 -42.706825 
L 399.741282 -42.720374 
L 398.094437 -42.739313 
L 396.447591 -42.765061 
L 394.800746 -42.799091 
L 393.1539 -42.842801 
L 391.507055 -42.897335 
L 389.86021 -42.963393 
L 388.213364 -43.041039 
L 386.566519 -43.129545 
L 384.919673 -43.227314 
L 383.272828 -43.331912 
L 381.625983 -43.440213 
L 379.979137 -43.548679 
L 378.332292 -43.653732 
L 376.685446 -43.752165 
L 375.038601 -43.841547 
L 373.391756 -43.92054 
L 371.74491 -43.989092 
L 370.098065 -44.048471 
L 368.451219 -44.101159 
L 366.804374 -44.150639 
L 365.157529 -44.201126 
L 363.510683 -44.257322 
L 361.863838 -44.324203 
L 360.216992 -44.406881 
L 358.570147 -44.510494 
L 356.923302 -44.640083 
L 355.276456 -44.800398 
L 353.629611 -44.995599 
L 351.982765 -45.228838 
L 350.33592 -45.501802 
L 348.689075 -45.814295 
L 347.042229 -46.164006 
L 345.395384 -46.546594 
L 343.748538 -46.956186 
L 342.101693 -47.386289 
L 340.454848 -47.83106 
L 338.808002 -48.286753 
L 337.161157 -48.75309 
L 335.514311 -49.234309 
L 333.867466 -49.739615 
L 332.220621 -50.282869 
L 330.573775 -50.881463 
L 328.92693 -51.554456 
L 327.280084 -52.320185 
L 325.633239 -53.193699 
L 323.986394 -54.184385 
L 322.339548 -55.294196 
L 320.692703 -56.516818 
L 319.045857 -57.837991 
L 317.399012 -59.237061 
L 315.752167 -60.689642 
L 314.105321 -62.171083 
L 312.458476 -63.660325 
L 310.81163 -65.143572 
L 309.164785 -66.617244 
L 307.51794 -68.08971 
L 305.871094 -69.581453 
L 304.224249 -71.123563 
L 302.577404 -72.754672 
L 300.930558 -74.516717 
L 299.283713 -76.450109 
L 297.636867 -78.588954 
L 295.990022 -80.957026 
L 294.343177 -83.565009 
L 292.696331 -86.409362 
L 291.049486 -89.472903 
L 289.40264 -92.72693 
L 287.755795 -96.134517 
L 286.10895 -99.654441 
L 284.462104 -103.245178 
L 282.815259 -106.868426 
L 281.168413 -110.491725 
L 279.521568 -114.089956 
L 277.874723 -117.645654 
L 276.227877 -121.148348 
L 274.581032 -124.59324 
L 272.934186 -127.979693 
L 271.287341 -131.309975 
L 269.640496 -134.588605 
L 267.99365 -137.822459 
L 266.346805 -141.021522 
L 264.699959 -144.199932 
L 263.053114 -147.37678 
L 261.406269 -150.57609 
L 259.759423 -153.825556 
L 258.112578 -157.153891 
L 256.465732 -160.587083 
L 254.818887 -164.144191 
L 253.172042 -167.833656 
L 251.525196 -171.651097 
L 249.878351 -175.579407 
L 248.231505 -179.591468 
L 246.58466 -183.655267 
L 244.937815 -187.740548 
L 243.290969 -191.825736 
L 241.644124 -195.903675 
L 239.997278 -199.984879 
L 238.350433 -204.097468 
L 236.703588 -208.283619 
L 235.056742 -212.593059 
L 233.409897 -217.074746 
L 231.763051 -221.768239 
L 230.116206 -226.696274 
L 228.469361 -231.859835 
L 226.822515 -237.23644 
L 225.17567 -242.781779 
L 223.528824 -248.434205 
L 221.881979 -254.12109 
L 220.235134 -259.765851 
L 218.588288 -265.29441 
L 216.941443 -270.640115 
L 215.294597 -275.746539 
L 213.647752 -280.568009 
L 212.000907 -285.068181 
L 210.354061 -289.217275 
L 208.707216 -292.988745 
L 207.06037 -296.356152 
L 205.413525 -299.290824 
L 203.76668 -301.760649 
L 202.119834 -303.730027 
L 200.472989 -305.160769 
L 198.826143 -306.013599 
L 197.179298 -306.249851 
L 195.532453 -305.833068 
L 193.885607 -304.730349 
L 192.238762 -302.913458 
L 190.591916 -300.359854 
L 188.945071 -297.053844 
L 187.298226 -292.988006 
L 185.65138 -288.164949 
L 184.004535 -282.599261 
L 182.357689 -276.319425 
L 180.710844 -269.369338 
L 179.063999 -261.809084 
L 177.417153 -253.714692 
L 175.770308 -245.176723 
L 174.123462 -236.297716 
L 172.476617 -227.188678 
L 170.829772 -217.964911 
L 169.182926 -208.741554 
L 167.536081 -199.629205 
L 165.889235 -190.729969 
L 164.24239 -182.134156 
L 162.595545 -173.917788 
L 160.948699 -166.140963 
L 159.301854 -158.847029 
L 157.655008 -152.062479 
L 156.008163 -145.797423 
L 154.361318 -140.046507 
L 152.714472 -134.790164 
L 151.067627 -129.996113 
L 149.420781 -125.621098 
L 147.773936 -121.612859 
L 146.127091 -117.912394 
L 144.480245 -114.456528 
L 142.8334 -111.180789 
L 141.186554 -108.02251 
L 139.539709 -104.924016 
L 137.892864 -101.835656 
L 136.246018 -98.718423 
L 134.599173 -95.545879 
L 132.952328 -92.305177 
L 131.305482 -88.997019 
L 129.658637 -85.634581 
L 128.011791 -82.241494 
L 126.364946 -78.849146 
L 124.718101 -75.493615 
L 123.071255 -72.212567 
L 121.42441 -69.042438 
L 119.777564 -66.01613 
L 118.130719 -63.161368 
L 116.483874 -60.499731 
L 114.837028 -58.046321 
L 113.190183 -55.809933 
L 111.543337 -53.793591 
L 109.896492 -51.99529 
L 108.249647 -50.408826 
L 106.602801 -49.024629 
L 104.955956 -47.83053 
L 103.30911 -46.812454 
L 101.662265 -45.955036 
L 100.01542 -45.242153 
L 98.368574 -44.657403 
L 96.721729 -44.184537 
L 95.074883 -43.807827 
L 93.428038 -43.5124 
L 91.781193 -43.284495 
L 90.134347 -43.111674 
L 88.487502 -42.982942 
L 86.840656 -42.888812 
L 85.193811 -42.821288 
L 83.546966 -42.773797 
L 81.90012 -42.741065 
L 80.253275 -42.71897 
L 78.606429 -42.704367 
L 76.959584 -42.694923 
z
" style="stroke: #2166ac; stroke-width: 2.5"/>
    </defs>
    <g clip-path="url(#p962e7771a0)">
     <use xlink:href="#m0112142d00" x="0" y="432" style="fill: #2166ac; fill-opacity: 0.5; stroke: #2166ac; stroke-width: 2.5"/>
    </g>
   </g>
   <g id="matplotlib.axis_1">
    <g id="xtick_1">
     <g id="line2d_1">
      <defs>
       <path id="md880acc797" d="M 0 0 
L 0 3.5 
" style="stroke: #000000; stroke-width: 0.8"/>
      </defs>
      <g>
       <use xlink:href="#md880acc797" x="62.457825" y="389.32" style="stroke: #000000; stroke-width: 0.8"/>
      </g>
     </g>
     <g id="text_1">
      <!-- −5.0 -->
      <g transform="translate(50.316419 403.918437) scale(0.1 -0.1)">
       <defs>
        <path id="DejaVuSans-2212" d="M 678 2272 
L 4684 2272 
L 4684 1741 
L 678 1741 
L 678 2272 
z
" transform="scale(0.015625)"/>
        <path id="DejaVuSans-35" d="M 691 4666 
L 3169 4666 
L 3169 4134 
L 1269 4134 
L 1269 2991 
Q 1406 3038 1543 3061 
Q 1681 3084 1819 3084 
Q 2600 3084 3056 2656 
Q 3513 2228 3513 1497 
Q 3513 744 3044 326 
Q 2575 -91 1722 -91 
Q 1428 -91 1123 -41 
Q 819 9 494 109 
L 494 744 
Q 775 591 1075 516 
Q 1375 441 1709 441 
Q 2250 441 2565 725 
Q 2881 1009 2881 1497 
Q 2881 1984 2565 2268 
Q 2250 2553 1709 2553 
Q 1456 2553 1204 2497 
Q 953 2441 691 2322 
L 691 4666 
z
" transform="scale(0.015625)"/>
        <path id="DejaVuSans-2e" d="M 684 794 
L 1344 794 
L 1344 0 
L 684 0 
L 684 794 
z
" transform="scale(0.015625)"/>
        <path id="DejaVuSans-30" d="M 2034 4250 
Q 1547 4250 1301 3770 
Q 1056 3291 1056 2328 
Q 1056 1369 1301 889 
Q 1547 409 2034 409 
Q 2525 409 2770 889 
Q 3016 1369 3016 2328 
Q 3016 3291 2770 3770 
Q 2525 4250 2034 4250 
z
M 2034 4750 
Q 2819 4750 3233 4129 
Q 3647 3509 3647 2328 
Q 3647 1150 3233 529 
Q 2819 -91 2034 -91 
Q 1250 -91 836 529 
Q 422 1150 422 2328 
Q 422 3509 836 4129 
Q 1250 4750 2034 4750 
z
" transform="scale(0.015625)"/>
       </defs>
       <use xlink:href="#DejaVuSans-2212"/>
       <use xlink:href="#DejaVuSans-35" x="83.789062"/>
       <use xlink:href="#DejaVuSans-2e" x="147.412109"/>
       <use xlink:href="#DejaVuSans-30" x="179.199219"/>
      </g>
     </g>
    </g>
    <g id="xtick_2">
     <g id="line2d_2">
      <g>
       <use xlink:href="#md880acc797" x="109.514379" y="389.32" style="stroke: #000000; stroke-width: 0.8"/>
      </g>
     </g>
     <g id="text_2">
      <!-- −2.5 -->
      <g transform="translate(97.372973 403.918437) scale(0.1 -0.1)">
       <defs>
        <path id="DejaVuSans-32" d="M 1228 531 
L 3431 531 
L 3431 0 
L 469 0 
L 469 531 
Q 828 903 1448 1529 
Q 2069 2156 2228 2338 
Q 2531 2678 2651 2914 
Q 2772 3150 2772 3378 
Q 2772 3750 2511 3984 
Q 2250 4219 1831 4219 
Q 1534 4219 1204 4116 
Q 875 4013 500 3803 
L 500 4441 
Q 881 4594 1212 4672 
Q 1544 4750 1819 4750 
Q 2544 4750 2975 4387 
Q 3406 4025 3406 3419 
Q 3406 3131 3298 2873 
Q 3191 2616 2906 2266 
Q 2828 2175 2409 1742 
Q 1991 1309 1228 531 
z
" transform="scale(0.015625)"/>
       </defs>
       <use xlink:href="#DejaVuSans-2212"/>
       <use xlink:href="#DejaVuSans-32" x="83.789062"/>
       <use xlink:href="#DejaVuSans-2e" x="147.412109"/>
       <use xlink:href="#DejaVuSans-35" x="179.199219"/>
      </g>
     </g>
    </g>
    <g id="xtick_3">
     <g id="line2d_3">
      <g>
       <use xlink:href="#md880acc797" x="156.570933" y="389.32" style="stroke: #000000; stroke-width: 0.8"/>
      </g>
     </g>
     <g id="text_3">
      <!-- 0.0 -->
      <g transform="translate(148.61937 403.918437) scale(0.1 -0.1)">
       <use xlink:href="#DejaVuSans-30"/>
       <use xlink:href="#DejaVuSans-2e" x="63.623047"/>
       <use xlink:href="#DejaVuSans-30" x="95.410156"/>
      </g>
     </g>
    </g>
    <g id="xtick_4">
     <g id="line2d_4">
      <g>
       <use xlink:href="#md880acc797" x="203.627487" y="389.32" style="stroke: #000000; stroke-width: 0.8"/>
      </g>
     </g>
     <g id="text_4">
      <!-- 2.5 -->
      <g transform="translate(195.675924 403.918437) scale(0.1 -0.1)">
       <use xlink:href="#DejaVuSans-32"/>
       <use xlink:href="#DejaVuSans-2e" x="63.623047"/>
       <use xlink:href="#DejaVuSans-35" x="95.410156"/>
      </g>
     </g>
    </g>
    <g id="xtick_5">
     <g id="line2d_5">
      <g>
       <use xlink:href="#md880acc797" x="250.684041" y="389.32" style="stroke: #000000; stroke-width: 0.8"/>
      </g>
     </g>
     <g id="text_5">
      <!-- 5.0 -->
      <g transform="translate(242.732478 403.918437) scale(0.1 -0.1)">
       <use xlink:href="#DejaVuSans-35"/>
       <use xlink:href="#DejaVuSans-2e" x="63.623047"/>
       <use xlink:href="#DejaVuSans-30" x="95.410156"/>
      </g>
     </g>
    </g>
    <g id="xtick_6">
     <g id="line2d_6">
      <g>
       <use xlink:href="#md880acc797" x="297.740595" y="389.32" style="stroke: #000000; stroke-width: 0.8"/>
      </g>
     </g>
     <g id="text_6">
      <!-- 7.5 -->
      <g transform="translate(289.789032 403.918437) scale(0.1 -0.1)">
       <defs>
        <path id="DejaVuSans-37" d="M 525 4666 
L 3525 4666 
L 3525 4397 
L 1831 0 
L 1172 0 
L 2766 4134 
L 525 4134 
L 525 4666 
z
" transform="scale(0.015625)"/>
       </defs>
       <use xlink:href="#DejaVuSans-37"/>
       <use xlink:href="#DejaVuSans-2e" x="63.623047"/>
       <use xlink:href="#DejaVuSans-35" x="95.410156"/>
      </g>
     </g>
    </g>
    <g id="xtick_7">
     <g id="line2d_7">
      <g>
       <use xlink:href="#md880acc797" x="344.797148" y="389.32" style="stroke: #000000; stroke-width: 0.8"/>
      </g>
     </g>
     <g id="text_7">
      <!-- 10.0 -->
      <g transform="translate(333.664336 403.918437) scale(0.1 -0.1)">
       <defs>
        <path id="DejaVuSans-31" d="M 794 531 
L 1825 531 
L 1825 4091 
L 703 3866 
L 703 4441 
L 1819 4666 
L 2450 4666 
L 2450 531 
L 3481 531 
L 3481 0 
L 794 0 
L 794 531 
z
" transform="scale(0.015625)"/>
       </defs>
       <use xlink:href="#DejaVuSans-31"/>
       <use xlink:href="#DejaVuSans-30" x="63.623047"/>
       <use xlink:href="#DejaVuSans-2e" x="127.246094"/>
       <use xlink:href="#DejaVuSans-30" x="159.033203"/>
      </g>
     </g>
    </g>
    <g id="xtick_8">
     <g id="line2d_8">
      <g>
       <use xlink:href="#md880acc797" x="391.853702" y="389.32" style="stroke: #000000; stroke-width: 0.8"/>
      </g>
     </g>
     <g id="text_8">
      <!-- 12.5 -->
      <g transform="translate(380.72089 403.918437) scale(0.1 -0.1)">
       <use xlink:href="#DejaVuSans-31"/>
       <use xlink:href="#DejaVuSans-32" x="63.623047"/>
       <use xlink:href="#DejaVuSans-2e" x="127.246094"/>
       <use xlink:href="#DejaVuSans-35" x="159.033203"/>
      </g>
     </g>
    </g>
    <g id="text_9">
     <!-- Predicted Fluorescence -->
     <g transform="translate(169.90375 419.11625) scale(0.12 -0.12)">
      <defs>
       <path id="DejaVuSans-50" d="M 1259 4147 
L 1259 2394 
L 2053 2394 
Q 2494 2394 2734 2622 
Q 2975 2850 2975 3272 
Q 2975 3691 2734 3919 
Q 2494 4147 2053 4147 
L 1259 4147 
z
M 628 4666 
L 2053 4666 
Q 2838 4666 3239 4311 
Q 3641 3956 3641 3272 
Q 3641 2581 3239 2228 
Q 2838 1875 2053 1875 
L 1259 1875 
L 1259 0 
L 628 0 
L 628 4666 
z
" transform="scale(0.015625)"/>
       <path id="DejaVuSans-72" d="M 2631 2963 
Q 2534 3019 2420 3045 
Q 2306 3072 2169 3072 
Q 1681 3072 1420 2755 
Q 1159 2438 1159 1844 
L 1159 0 
L 581 0 
L 581 3500 
L 1159 3500 
L 1159 2956 
Q 1341 3275 1631 3429 
Q 1922 3584 2338 3584 
Q 2397 3584 2469 3576 
Q 2541 3569 2628 3553 
L 2631 2963 
z
" transform="scale(0.015625)"/>
       <path id="DejaVuSans-65" d="M 3597 1894 
L 3597 1613 
L 953 1613 
Q 991 1019 1311 708 
Q 1631 397 2203 397 
Q 2534 397 2845 478 
Q 3156 559 3463 722 
L 3463 178 
Q 3153 47 2828 -22 
Q 2503 -91 2169 -91 
Q 1331 -91 842 396 
Q 353 884 353 1716 
Q 353 2575 817 3079 
Q 1281 3584 2069 3584 
Q 2775 3584 3186 3129 
Q 3597 2675 3597 1894 
z
M 3022 2063 
Q 3016 2534 2758 2815 
Q 2500 3097 2075 3097 
Q 1594 3097 1305 2825 
Q 1016 2553 972 2059 
L 3022 2063 
z
" transform="scale(0.015625)"/>
       <path id="DejaVuSans-64" d="M 2906 2969 
L 2906 4863 
L 3481 4863 
L 3481 0 
L 2906 0 
L 2906 525 
Q 2725 213 2448 61 
Q 2172 -91 1784 -91 
Q 1150 -91 751 415 
Q 353 922 353 1747 
Q 353 2572 751 3078 
Q 1150 3584 1784 3584 
Q 2172 3584 2448 3432 
Q 2725 3281 2906 2969 
z
M 947 1747 
Q 947 1113 1208 752 
Q 1469 391 1925 391 
Q 2381 391 2643 752 
Q 2906 1113 2906 1747 
Q 2906 2381 2643 2742 
Q 2381 3103 1925 3103 
Q 1469 3103 1208 2742 
Q 947 2381 947 1747 
z
" transform="scale(0.015625)"/>
       <path id="DejaVuSans-69" d="M 603 3500 
L 1178 3500 
L 1178 0 
L 603 0 
L 603 3500 
z
M 603 4863 
L 1178 4863 
L 1178 4134 
L 603 4134 
L 603 4863 
z
" transform="scale(0.015625)"/>
       <path id="DejaVuSans-63" d="M 3122 3366 
L 3122 2828 
Q 2878 2963 2633 3030 
Q 2388 3097 2138 3097 
Q 1578 3097 1268 2742 
Q 959 2388 959 1747 
Q 959 1106 1268 751 
Q 1578 397 2138 397 
Q 2388 397 2633 464 
Q 2878 531 3122 666 
L 3122 134 
Q 2881 22 2623 -34 
Q 2366 -91 2075 -91 
Q 1284 -91 818 406 
Q 353 903 353 1747 
Q 353 2603 823 3093 
Q 1294 3584 2113 3584 
Q 2378 3584 2631 3529 
Q 2884 3475 3122 3366 
z
" transform="scale(0.015625)"/>
       <path id="DejaVuSans-74" d="M 1172 4494 
L 1172 3500 
L 2356 3500 
L 2356 3053 
L 1172 3053 
L 1172 1153 
Q 1172 725 1289 603 
Q 1406 481 1766 481 
L 2356 481 
L 2356 0 
L 1766 0 
Q 1100 0 847 248 
Q 594 497 594 1153 
L 594 3053 
L 172 3053 
L 172 3500 
L 594 3500 
L 594 4494 
L 1172 4494 
z
" transform="scale(0.015625)"/>
       <path id="DejaVuSans-20" transform="scale(0.015625)"/>
       <path id="DejaVuSans-46" d="M 628 4666 
L 3309 4666 
L 3309 4134 
L 1259 4134 
L 1259 2759 
L 3109 2759 
L 3109 2228 
L 1259 2228 
L 1259 0 
L 628 0 
L 628 4666 
z
" transform="scale(0.015625)"/>
       <path id="DejaVuSans-6c" d="M 603 4863 
L 1178 4863 
L 1178 0 
L 603 0 
L 603 4863 
z
" transform="scale(0.015625)"/>
       <path id="DejaVuSans-75" d="M 544 1381 
L 544 3500 
L 1119 3500 
L 1119 1403 
Q 1119 906 1312 657 
Q 1506 409 1894 409 
Q 2359 409 2629 706 
Q 2900 1003 2900 1516 
L 2900 3500 
L 3475 3500 
L 3475 0 
L 2900 0 
L 2900 538 
Q 2691 219 2414 64 
Q 2138 -91 1772 -91 
Q 1169 -91 856 284 
Q 544 659 544 1381 
z
M 1991 3584 
L 1991 3584 
z
" transform="scale(0.015625)"/>
       <path id="DejaVuSans-6f" d="M 1959 3097 
Q 1497 3097 1228 2736 
Q 959 2375 959 1747 
Q 959 1119 1226 758 
Q 1494 397 1959 397 
Q 2419 397 2687 759 
Q 2956 1122 2956 1747 
Q 2956 2369 2687 2733 
Q 2419 3097 1959 3097 
z
M 1959 3584 
Q 2709 3584 3137 3096 
Q 3566 2609 3566 1747 
Q 3566 888 3137 398 
Q 2709 -91 1959 -91 
Q 1206 -91 779 398 
Q 353 888 353 1747 
Q 353 2609 779 3096 
Q 1206 3584 1959 3584 
z
" transform="scale(0.015625)"/>
       <path id="DejaVuSans-73" d="M 2834 3397 
L 2834 2853 
Q 2591 2978 2328 3040 
Q 2066 3103 1784 3103 
Q 1356 3103 1142 2972 
Q 928 2841 928 2578 
Q 928 2378 1081 2264 
Q 1234 2150 1697 2047 
L 1894 2003 
Q 2506 1872 2764 1633 
Q 3022 1394 3022 966 
Q 3022 478 2636 193 
Q 2250 -91 1575 -91 
Q 1294 -91 989 -36 
Q 684 19 347 128 
L 347 722 
Q 666 556 975 473 
Q 1284 391 1588 391 
Q 1994 391 2212 530 
Q 2431 669 2431 922 
Q 2431 1156 2273 1281 
Q 2116 1406 1581 1522 
L 1381 1569 
Q 847 1681 609 1914 
Q 372 2147 372 2553 
Q 372 3047 722 3315 
Q 1072 3584 1716 3584 
Q 2034 3584 2315 3537 
Q 2597 3491 2834 3397 
z
" transform="scale(0.015625)"/>
       <path id="DejaVuSans-6e" d="M 3513 2113 
L 3513 0 
L 2938 0 
L 2938 2094 
Q 2938 2591 2744 2837 
Q 2550 3084 2163 3084 
Q 1697 3084 1428 2787 
Q 1159 2491 1159 1978 
L 1159 0 
L 581 0 
L 581 3500 
L 1159 3500 
L 1159 2956 
Q 1366 3272 1645 3428 
Q 1925 3584 2291 3584 
Q 2894 3584 3203 3211 
Q 3513 2838 3513 2113 
z
" transform="scale(0.015625)"/>
      </defs>
      <use xlink:href="#DejaVuSans-50"/>
      <use xlink:href="#DejaVuSans-72" x="58.552734"/>
      <use xlink:href="#DejaVuSans-65" x="97.416016"/>
      <use xlink:href="#DejaVuSans-64" x="158.939453"/>
      <use xlink:href="#DejaVuSans-69" x="222.416016"/>
      <use xlink:href="#DejaVuSans-63" x="250.199219"/>
      <use xlink:href="#DejaVuSans-74" x="305.179688"/>
      <use xlink:href="#DejaVuSans-65" x="344.388672"/>
      <use xlink:href="#DejaVuSans-64" x="405.912109"/>
      <use xlink:href="#DejaVuSans-20" x="469.388672"/>
      <use xlink:href="#DejaVuSans-46" x="501.175781"/>
      <use xlink:href="#DejaVuSans-6c" x="558.695312"/>
      <use xlink:href="#DejaVuSans-75" x="586.478516"/>
      <use xlink:href="#DejaVuSans-6f" x="649.857422"/>
      <use xlink:href="#DejaVuSans-72" x="711.039062"/>
      <use xlink:href="#DejaVuSans-65" x="749.902344"/>
      <use xlink:href="#DejaVuSans-73" x="811.425781"/>
      <use xlink:href="#DejaVuSans-63" x="863.525391"/>
      <use xlink:href="#DejaVuSans-65" x="918.505859"/>
      <use xlink:href="#DejaVuSans-6e" x="980.029297"/>
      <use xlink:href="#DejaVuSans-63" x="1043.408203"/>
      <use xlink:href="#DejaVuSans-65" x="1098.388672"/>
     </g>
    </g>
   </g>
   <g id="matplotlib.axis_2">
    <g id="ytick_1">
     <g id="line2d_9">
      <defs>
       <path id="m00a5db4caa" d="M 0 0 
L -3.5 0 
" style="stroke: #000000; stroke-width: 0.8"/>
      </defs>
      <g>
       <use xlink:href="#m00a5db4caa" x="57.8" y="389.32" style="stroke: #000000; stroke-width: 0.8"/>
      </g>
     </g>
     <g id="text_10">
      <!-- 0.00 -->
      <g transform="translate(28.534375 393.119219) scale(0.1 -0.1)">
       <use xlink:href="#DejaVuSans-30"/>
       <use xlink:href="#DejaVuSans-2e" x="63.623047"/>
       <use xlink:href="#DejaVuSans-30" x="95.410156"/>
       <use xlink:href="#DejaVuSans-30" x="159.033203"/>
      </g>
     </g>
    </g>
    <g id="ytick_2">
     <g id="line2d_10">
      <g>
       <use xlink:href="#m00a5db4caa" x="57.8" y="319.934381" style="stroke: #000000; stroke-width: 0.8"/>
      </g>
     </g>
     <g id="text_11">
      <!-- 0.05 -->
      <g transform="translate(28.534375 323.7336) scale(0.1 -0.1)">
       <use xlink:href="#DejaVuSans-30"/>
       <use xlink:href="#DejaVuSans-2e" x="63.623047"/>
       <use xlink:href="#DejaVuSans-30" x="95.410156"/>
       <use xlink:href="#DejaVuSans-35" x="159.033203"/>
      </g>
     </g>
    </g>
    <g id="ytick_3">
     <g id="line2d_11">
      <g>
       <use xlink:href="#m00a5db4caa" x="57.8" y="250.548762" style="stroke: #000000; stroke-width: 0.8"/>
      </g>
     </g>
     <g id="text_12">
      <!-- 0.10 -->
      <g transform="translate(28.534375 254.347981) scale(0.1 -0.1)">
       <use xlink:href="#DejaVuSans-30"/>
       <use xlink:href="#DejaVuSans-2e" x="63.623047"/>
       <use xlink:href="#DejaVuSans-31" x="95.410156"/>
       <use xlink:href="#DejaVuSans-30" x="159.033203"/>
      </g>
     </g>
    </g>
    <g id="ytick_4">
     <g id="line2d_12">
      <g>
       <use xlink:href="#m00a5db4caa" x="57.8" y="181.163144" style="stroke: #000000; stroke-width: 0.8"/>
      </g>
     </g>
     <g id="text_13">
      <!-- 0.15 -->
      <g transform="translate(28.534375 184.962362) scale(0.1 -0.1)">
       <use xlink:href="#DejaVuSans-30"/>
       <use xlink:href="#DejaVuSans-2e" x="63.623047"/>
       <use xlink:href="#DejaVuSans-31" x="95.410156"/>
       <use xlink:href="#DejaVuSans-35" x="159.033203"/>
      </g>
     </g>
    </g>
    <g id="ytick_5">
     <g id="line2d_13">
      <g>
       <use xlink:href="#m00a5db4caa" x="57.8" y="111.777525" style="stroke: #000000; stroke-width: 0.8"/>
      </g>
     </g>
     <g id="text_14">
      <!-- 0.20 -->
      <g transform="translate(28.534375 115.576743) scale(0.1 -0.1)">
       <use xlink:href="#DejaVuSans-30"/>
       <use xlink:href="#DejaVuSans-2e" x="63.623047"/>
       <use xlink:href="#DejaVuSans-32" x="95.410156"/>
       <use xlink:href="#DejaVuSans-30" x="159.033203"/>
      </g>
     </g>
    </g>
    <g id="ytick_6">
     <g id="line2d_14">
      <g>
       <use xlink:href="#m00a5db4caa" x="57.8" y="42.391906" style="stroke: #000000; stroke-width: 0.8"/>
      </g>
     </g>
     <g id="text_15">
      <!-- 0.25 -->
      <g transform="translate(28.534375 46.191125) scale(0.1 -0.1)">
       <use xlink:href="#DejaVuSans-30"/>
       <use xlink:href="#DejaVuSans-2e" x="63.623047"/>
       <use xlink:href="#DejaVuSans-32" x="95.410156"/>
       <use xlink:href="#DejaVuSans-35" x="159.033203"/>
      </g>
     </g>
    </g>
    <g id="text_16">
     <!-- Density -->
     <g transform="translate(21.622813 226.672031) rotate(-90) scale(0.14 -0.14)">
      <defs>
       <path id="DejaVuSans-44" d="M 1259 4147 
L 1259 519 
L 2022 519 
Q 2988 519 3436 956 
Q 3884 1394 3884 2338 
Q 3884 3275 3436 3711 
Q 2988 4147 2022 4147 
L 1259 4147 
z
M 628 4666 
L 1925 4666 
Q 3281 4666 3915 4102 
Q 4550 3538 4550 2338 
Q 4550 1131 3912 565 
Q 3275 0 1925 0 
L 628 0 
L 628 4666 
z
" transform="scale(0.015625)"/>
       <path id="DejaVuSans-79" d="M 2059 -325 
Q 1816 -950 1584 -1140 
Q 1353 -1331 966 -1331 
L 506 -1331 
L 506 -850 
L 844 -850 
Q 1081 -850 1212 -737 
Q 1344 -625 1503 -206 
L 1606 56 
L 191 3500 
L 800 3500 
L 1894 763 
L 2988 3500 
L 3597 3500 
L 2059 -325 
z
" transform="scale(0.015625)"/>
      </defs>
      <use xlink:href="#DejaVuSans-44"/>
      <use xlink:href="#DejaVuSans-65" x="77.001953"/>
      <use xlink:href="#DejaVuSans-6e" x="138.525391"/>
      <use xlink:href="#DejaVuSans-73" x="201.904297"/>
      <use xlink:href="#DejaVuSans-69" x="254.003906"/>
      <use xlink:href="#DejaVuSans-74" x="281.787109"/>
      <use xlink:href="#DejaVuSans-79" x="320.996094"/>
     </g>
    </g>
   </g>
   <g id="line2d_15">
    <path d="M 145.692216 389.32 
L 145.692216 10.8 
" clip-path="url(#p962e7771a0)" style="fill: none; stroke-dasharray: 3.7,1.6; stroke-dashoffset: 0; stroke: #000000"/>
   </g>
   <g id="patch_3">
    <path d="M 57.8 389.32 
L 57.8 10.8 
" style="fill: none; stroke: #000000; stroke-width: 0.8; stroke-linejoin: miter; stroke-linecap: square"/>
   </g>
   <g id="patch_4">
    <path d="M 57.8 389.32 
L 421.2 389.32 
" style="fill: none; stroke: #000000; stroke-width: 0.8; stroke-linejoin: miter; stroke-linecap: square"/>
   </g>
   <g id="legend_1">
    <g id="patch_5">
     <path d="M 257.389062 77.5125 
L 414.2 77.5125 
Q 416.2 77.5125 416.2 75.5125 
L 416.2 17.8 
Q 416.2 15.8 414.2 15.8 
L 257.389062 15.8 
Q 255.389062 15.8 255.389062 17.8 
L 255.389062 75.5125 
Q 255.389062 77.5125 257.389062 77.5125 
z
" style="fill: #ffffff; opacity: 0.8; stroke: #cccccc; stroke-linejoin: miter"/>
    </g>
    <g id="patch_6">
     <path d="M 259.389062 27.398438 
L 279.389062 27.398438 
L 279.389062 20.398438 
L 259.389062 20.398438 
z
" style="fill: #bdbdbd; fill-opacity: 0.5; stroke: #bdbdbd; stroke-width: 2.5; stroke-linejoin: miter"/>
    </g>
    <g id="text_17">
     <!-- Pre-trained ESM2 (150M) -->
     <g transform="translate(287.389062 27.398438) scale(0.1 -0.1)">
      <defs>
       <path id="DejaVuSans-2d" d="M 313 2009 
L 1997 2009 
L 1997 1497 
L 313 1497 
L 313 2009 
z
" transform="scale(0.015625)"/>
       <path id="DejaVuSans-61" d="M 2194 1759 
Q 1497 1759 1228 1600 
Q 959 1441 959 1056 
Q 959 750 1161 570 
Q 1363 391 1709 391 
Q 2188 391 2477 730 
Q 2766 1069 2766 1631 
L 2766 1759 
L 2194 1759 
z
M 3341 1997 
L 3341 0 
L 2766 0 
L 2766 531 
Q 2569 213 2275 61 
Q 1981 -91 1556 -91 
Q 1019 -91 701 211 
Q 384 513 384 1019 
Q 384 1609 779 1909 
Q 1175 2209 1959 2209 
L 2766 2209 
L 2766 2266 
Q 2766 2663 2505 2880 
Q 2244 3097 1772 3097 
Q 1472 3097 1187 3025 
Q 903 2953 641 2809 
L 641 3341 
Q 956 3463 1253 3523 
Q 1550 3584 1831 3584 
Q 2591 3584 2966 3190 
Q 3341 2797 3341 1997 
z
" transform="scale(0.015625)"/>
       <path id="DejaVuSans-45" d="M 628 4666 
L 3578 4666 
L 3578 4134 
L 1259 4134 
L 1259 2753 
L 3481 2753 
L 3481 2222 
L 1259 2222 
L 1259 531 
L 3634 531 
L 3634 0 
L 628 0 
L 628 4666 
z
" transform="scale(0.015625)"/>
       <path id="DejaVuSans-53" d="M 3425 4513 
L 3425 3897 
Q 3066 4069 2747 4153 
Q 2428 4238 2131 4238 
Q 1616 4238 1336 4038 
Q 1056 3838 1056 3469 
Q 1056 3159 1242 3001 
Q 1428 2844 1947 2747 
L 2328 2669 
Q 3034 2534 3370 2195 
Q 3706 1856 3706 1288 
Q 3706 609 3251 259 
Q 2797 -91 1919 -91 
Q 1588 -91 1214 -16 
Q 841 59 441 206 
L 441 856 
Q 825 641 1194 531 
Q 1563 422 1919 422 
Q 2459 422 2753 634 
Q 3047 847 3047 1241 
Q 3047 1584 2836 1778 
Q 2625 1972 2144 2069 
L 1759 2144 
Q 1053 2284 737 2584 
Q 422 2884 422 3419 
Q 422 4038 858 4394 
Q 1294 4750 2059 4750 
Q 2388 4750 2728 4690 
Q 3069 4631 3425 4513 
z
" transform="scale(0.015625)"/>
       <path id="DejaVuSans-4d" d="M 628 4666 
L 1569 4666 
L 2759 1491 
L 3956 4666 
L 4897 4666 
L 4897 0 
L 4281 0 
L 4281 4097 
L 3078 897 
L 2444 897 
L 1241 4097 
L 1241 0 
L 628 0 
L 628 4666 
z
" transform="scale(0.015625)"/>
       <path id="DejaVuSans-28" d="M 1984 4856 
Q 1566 4138 1362 3434 
Q 1159 2731 1159 2009 
Q 1159 1288 1364 580 
Q 1569 -128 1984 -844 
L 1484 -844 
Q 1016 -109 783 600 
Q 550 1309 550 2009 
Q 550 2706 781 3412 
Q 1013 4119 1484 4856 
L 1984 4856 
z
" transform="scale(0.015625)"/>
       <path id="DejaVuSans-29" d="M 513 4856 
L 1013 4856 
Q 1481 4119 1714 3412 
Q 1947 2706 1947 2009 
Q 1947 1309 1714 600 
Q 1481 -109 1013 -844 
L 513 -844 
Q 928 -128 1133 580 
Q 1338 1288 1338 2009 
Q 1338 2731 1133 3434 
Q 928 4138 513 4856 
z
" transform="scale(0.015625)"/>
      </defs>
      <use xlink:href="#DejaVuSans-50"/>
      <use xlink:href="#DejaVuSans-72" x="58.552734"/>
      <use xlink:href="#DejaVuSans-65" x="97.416016"/>
      <use xlink:href="#DejaVuSans-2d" x="158.939453"/>
      <use xlink:href="#DejaVuSans-74" x="195.023438"/>
      <use xlink:href="#DejaVuSans-72" x="234.232422"/>
      <use xlink:href="#DejaVuSans-61" x="275.345703"/>
      <use xlink:href="#DejaVuSans-69" x="336.625"/>
      <use xlink:href="#DejaVuSans-6e" x="364.408203"/>
      <use xlink:href="#DejaVuSans-65" x="427.787109"/>
      <use xlink:href="#DejaVuSans-64" x="489.310547"/>
      <use xlink:href="#DejaVuSans-20" x="552.787109"/>
      <use xlink:href="#DejaVuSans-45" x="584.574219"/>
      <use xlink:href="#DejaVuSans-53" x="647.757812"/>
      <use xlink:href="#DejaVuSans-4d" x="711.234375"/>
      <use xlink:href="#DejaVuSans-32" x="797.513672"/>
      <use xlink:href="#DejaVuSans-20" x="861.136719"/>
      <use xlink:href="#DejaVuSans-28" x="892.923828"/>
      <use xlink:href="#DejaVuSans-31" x="931.9375"/>
      <use xlink:href="#DejaVuSans-35" x="995.560547"/>
      <use xlink:href="#DejaVuSans-30" x="1059.183594"/>
      <use xlink:href="#DejaVuSans-4d" x="1122.806641"/>
      <use xlink:href="#DejaVuSans-29" x="1209.085938"/>
     </g>
    </g>
    <g id="patch_7">
     <path d="M 259.389062 42.076563 
L 279.389062 42.076563 
L 279.389062 35.076563 
L 259.389062 35.076563 
z
" style="fill: #92c5de; fill-opacity: 0.5; stroke: #92c5de; stroke-width: 2.5; stroke-linejoin: miter"/>
    </g>
    <g id="text_18">
     <!-- SFT ESM2 (150M) -->
     <g transform="translate(287.389062 42.076563) scale(0.1 -0.1)">
      <defs>
       <path id="DejaVuSans-54" d="M -19 4666 
L 3928 4666 
L 3928 4134 
L 2272 4134 
L 2272 0 
L 1638 0 
L 1638 4134 
L -19 4134 
L -19 4666 
z
" transform="scale(0.015625)"/>
      </defs>
      <use xlink:href="#DejaVuSans-53"/>
      <use xlink:href="#DejaVuSans-46" x="63.476562"/>
      <use xlink:href="#DejaVuSans-54" x="119.246094"/>
      <use xlink:href="#DejaVuSans-20" x="180.330078"/>
      <use xlink:href="#DejaVuSans-45" x="212.117188"/>
      <use xlink:href="#DejaVuSans-53" x="275.300781"/>
      <use xlink:href="#DejaVuSans-4d" x="338.777344"/>
      <use xlink:href="#DejaVuSans-32" x="425.056641"/>
      <use xlink:href="#DejaVuSans-20" x="488.679688"/>
      <use xlink:href="#DejaVuSans-28" x="520.466797"/>
      <use xlink:href="#DejaVuSans-31" x="559.480469"/>
      <use xlink:href="#DejaVuSans-35" x="623.103516"/>
      <use xlink:href="#DejaVuSans-30" x="686.726562"/>
      <use xlink:href="#DejaVuSans-4d" x="750.349609"/>
      <use xlink:href="#DejaVuSans-29" x="836.628906"/>
     </g>
    </g>
    <g id="patch_8">
     <path d="M 259.389062 56.754687 
L 279.389062 56.754687 
L 279.389062 49.754687 
L 259.389062 49.754687 
z
" style="fill: #2166ac; fill-opacity: 0.5; stroke: #2166ac; stroke-width: 2.5; stroke-linejoin: miter"/>
    </g>
    <g id="text_19">
     <!-- Aligned ESM2 (150M) -->
     <g transform="translate(287.389062 56.754687) scale(0.1 -0.1)">
      <defs>
       <path id="DejaVuSans-41" d="M 2188 4044 
L 1331 1722 
L 3047 1722 
L 2188 4044 
z
M 1831 4666 
L 2547 4666 
L 4325 0 
L 3669 0 
L 3244 1197 
L 1141 1197 
L 716 0 
L 50 0 
L 1831 4666 
z
" transform="scale(0.015625)"/>
       <path id="DejaVuSans-67" d="M 2906 1791 
Q 2906 2416 2648 2759 
Q 2391 3103 1925 3103 
Q 1463 3103 1205 2759 
Q 947 2416 947 1791 
Q 947 1169 1205 825 
Q 1463 481 1925 481 
Q 2391 481 2648 825 
Q 2906 1169 2906 1791 
z
M 3481 434 
Q 3481 -459 3084 -895 
Q 2688 -1331 1869 -1331 
Q 1566 -1331 1297 -1286 
Q 1028 -1241 775 -1147 
L 775 -588 
Q 1028 -725 1275 -790 
Q 1522 -856 1778 -856 
Q 2344 -856 2625 -561 
Q 2906 -266 2906 331 
L 2906 616 
Q 2728 306 2450 153 
Q 2172 0 1784 0 
Q 1141 0 747 490 
Q 353 981 353 1791 
Q 353 2603 747 3093 
Q 1141 3584 1784 3584 
Q 2172 3584 2450 3431 
Q 2728 3278 2906 2969 
L 2906 3500 
L 3481 3500 
L 3481 434 
z
" transform="scale(0.015625)"/>
      </defs>
      <use xlink:href="#DejaVuSans-41"/>
      <use xlink:href="#DejaVuSans-6c" x="68.408203"/>
      <use xlink:href="#DejaVuSans-69" x="96.191406"/>
      <use xlink:href="#DejaVuSans-67" x="123.974609"/>
      <use xlink:href="#DejaVuSans-6e" x="187.451172"/>
      <use xlink:href="#DejaVuSans-65" x="250.830078"/>
      <use xlink:href="#DejaVuSans-64" x="312.353516"/>
      <use xlink:href="#DejaVuSans-20" x="375.830078"/>
      <use xlink:href="#DejaVuSans-45" x="407.617188"/>
      <use xlink:href="#DejaVuSans-53" x="470.800781"/>
      <use xlink:href="#DejaVuSans-4d" x="534.277344"/>
      <use xlink:href="#DejaVuSans-32" x="620.556641"/>
      <use xlink:href="#DejaVuSans-20" x="684.179688"/>
      <use xlink:href="#DejaVuSans-28" x="715.966797"/>
      <use xlink:href="#DejaVuSans-31" x="754.980469"/>
      <use xlink:href="#DejaVuSans-35" x="818.603516"/>
      <use xlink:href="#DejaVuSans-30" x="882.226562"/>
      <use xlink:href="#DejaVuSans-4d" x="945.849609"/>
      <use xlink:href="#DejaVuSans-29" x="1032.128906"/>
     </g>
    </g>
    <g id="line2d_16">
     <path d="M 259.389062 67.932813 
L 269.389062 67.932813 
L 279.389062 67.932813 
" style="fill: none; stroke-dasharray: 3.7,1.6; stroke-dashoffset: 0; stroke: #000000"/>
    </g>
    <g id="text_20">
     <!-- Predicted ube4b score -->
     <g transform="translate(287.389062 71.432813) scale(0.1 -0.1)">
      <defs>
       <path id="DejaVuSans-62" d="M 3116 1747 
Q 3116 2381 2855 2742 
Q 2594 3103 2138 3103 
Q 1681 3103 1420 2742 
Q 1159 2381 1159 1747 
Q 1159 1113 1420 752 
Q 1681 391 2138 391 
Q 2594 391 2855 752 
Q 3116 1113 3116 1747 
z
M 1159 2969 
Q 1341 3281 1617 3432 
Q 1894 3584 2278 3584 
Q 2916 3584 3314 3078 
Q 3713 2572 3713 1747 
Q 3713 922 3314 415 
Q 2916 -91 2278 -91 
Q 1894 -91 1617 61 
Q 1341 213 1159 525 
L 1159 0 
L 581 0 
L 581 4863 
L 1159 4863 
L 1159 2969 
z
" transform="scale(0.015625)"/>
       <path id="DejaVuSans-34" d="M 2419 4116 
L 825 1625 
L 2419 1625 
L 2419 4116 
z
M 2253 4666 
L 3047 4666 
L 3047 1625 
L 3713 1625 
L 3713 1100 
L 3047 1100 
L 3047 0 
L 2419 0 
L 2419 1100 
L 313 1100 
L 313 1709 
L 2253 4666 
z
" transform="scale(0.015625)"/>
      </defs>
      <use xlink:href="#DejaVuSans-50"/>
      <use xlink:href="#DejaVuSans-72" x="58.552734"/>
      <use xlink:href="#DejaVuSans-65" x="97.416016"/>
      <use xlink:href="#DejaVuSans-64" x="158.939453"/>
      <use xlink:href="#DejaVuSans-69" x="222.416016"/>
      <use xlink:href="#DejaVuSans-63" x="250.199219"/>
      <use xlink:href="#DejaVuSans-74" x="305.179688"/>
      <use xlink:href="#DejaVuSans-65" x="344.388672"/>
      <use xlink:href="#DejaVuSans-64" x="405.912109"/>
      <use xlink:href="#DejaVuSans-20" x="469.388672"/>
      <use xlink:href="#DejaVuSans-75" x="501.175781"/>
      <use xlink:href="#DejaVuSans-62" x="564.554688"/>
      <use xlink:href="#DejaVuSans-65" x="628.03125"/>
      <use xlink:href="#DejaVuSans-34" x="689.554688"/>
      <use xlink:href="#DejaVuSans-62" x="753.177734"/>
      <use xlink:href="#DejaVuSans-20" x="816.654297"/>
      <use xlink:href="#DejaVuSans-73" x="848.441406"/>
      <use xlink:href="#DejaVuSans-63" x="900.541016"/>
      <use xlink:href="#DejaVuSans-6f" x="955.521484"/>
      <use xlink:href="#DejaVuSans-72" x="1016.703125"/>
      <use xlink:href="#DejaVuSans-65" x="1055.566406"/>
     </g>
    </g>
   </g>
  </g>
 </g>
 <defs>
  <clipPath id="p962e7771a0">
   <rect x="57.8" y="10.8" width="363.4" height="378.52"/>
  </clipPath>
 </defs>
</svg>
