<?xml version="1.0" encoding="utf-8" standalone="no"?>
<!DOCTYPE svg PUBLIC "-//W3C//DTD SVG 1.1//EN"
  "http://www.w3.org/Graphics/SVG/1.1/DTD/svg11.dtd">
<svg xmlns:xlink="http://www.w3.org/1999/xlink" width="864pt" height="432pt" viewBox="0 0 864 432" xmlns="http://www.w3.org/2000/svg" version="1.1">
 <metadata>
  <rdf:RDF xmlns:dc="http://purl.org/dc/elements/1.1/" xmlns:cc="http://creativecommons.org/ns#" xmlns:rdf="http://www.w3.org/1999/02/22-rdf-syntax-ns#">
   <cc:Work>
    <dc:type rdf:resource="http://purl.org/dc/dcmitype/StillImage"/>
    <dc:date>2025-03-27T14:44:28.047336</dc:date>
    <dc:format>image/svg+xml</dc:format>
    <dc:creator>
     <cc:Agent>
      <dc:title>Matplotlib v3.8.0, https://matplotlib.org/</dc:title>
     </cc:Agent>
    </dc:creator>
   </cc:Work>
  </rdf:RDF>
 </metadata>
 <defs>
  <style type="text/css">*{stroke-linejoin: round; stroke-linecap: butt}</style>
 </defs>
 <g id="figure_1">
  <g id="patch_1">
   <path d="M 0 432 
L 864 432 
L 864 0 
L 0 0 
z
" style="fill: #ffffff"/>
  </g>
  <g id="axes_1">
   <g id="patch_2">
    <path d="M 48.53 389.32 
L 426.6 389.32 
L 426.6 14.76 
L 48.53 14.76 
z
" style="fill: #ffffff"/>
   </g>
   <g id="patch_3">
    <path d="M 65.715 389.32 
L 65.715 14.76 
L 168.876839 14.76 
L 168.876839 389.32 
z
" clip-path="url(#p40ff91e05e)" style="fill: #ff0000; opacity: 0.1; stroke: #ff0000; stroke-linejoin: miter"/>
   </g>
   <g id="patch_4">
    <path d="M 168.876839 389.32 
L 168.876839 14.76 
L 409.415 14.76 
L 409.415 389.32 
z
" clip-path="url(#p40ff91e05e)" style="fill: #008000; opacity: 0.1; stroke: #008000; stroke-linejoin: miter"/>
   </g>
   <g id="patch_5">
    <path d="M 67.450091 389.32 
L 73.85008 389.32 
L 73.85008 369.508374 
L 67.450091 369.508374 
z
" clip-path="url(#p40ff91e05e)" style="fill: #808080; fill-opacity: 0.4; stroke: #000000; stroke-linejoin: miter"/>
   </g>
   <g id="patch_6">
    <path d="M 73.85008 389.32 
L 80.250069 389.32 
L 80.250069 369.508374 
L 73.85008 369.508374 
z
" clip-path="url(#p40ff91e05e)" style="fill: #808080; fill-opacity: 0.4; stroke: #000000; stroke-linejoin: miter"/>
   </g>
   <g id="patch_7">
    <path d="M 80.250069 389.32 
L 86.650057 389.32 
L 86.650057 329.885121 
L 80.250069 329.885121 
z
" clip-path="url(#p40ff91e05e)" style="fill: #808080; fill-opacity: 0.4; stroke: #000000; stroke-linejoin: miter"/>
   </g>
   <g id="patch_8">
    <path d="M 86.650057 389.32 
L 93.050046 389.32 
L 93.050046 389.32 
L 86.650057 389.32 
z
" clip-path="url(#p40ff91e05e)" style="fill: #808080; fill-opacity: 0.4; stroke: #000000; stroke-linejoin: miter"/>
   </g>
   <g id="patch_9">
    <path d="M 93.050046 389.32 
L 99.450035 389.32 
L 99.450035 290.261868 
L 93.050046 290.261868 
z
" clip-path="url(#p40ff91e05e)" style="fill: #808080; fill-opacity: 0.4; stroke: #000000; stroke-linejoin: miter"/>
   </g>
   <g id="patch_10">
    <path d="M 99.450035 389.32 
L 105.850024 389.32 
L 105.850024 389.32 
L 99.450035 389.32 
z
" clip-path="url(#p40ff91e05e)" style="fill: #808080; fill-opacity: 0.4; stroke: #000000; stroke-linejoin: miter"/>
   </g>
   <g id="patch_11">
    <path d="M 105.850024 389.32 
L 112.250013 389.32 
L 112.250013 329.885121 
L 105.850024 329.885121 
z
" clip-path="url(#p40ff91e05e)" style="fill: #808080; fill-opacity: 0.4; stroke: #000000; stroke-linejoin: miter"/>
   </g>
   <g id="patch_12">
    <path d="M 112.250013 389.32 
L 118.650002 389.32 
L 118.650002 270.450242 
L 112.250013 270.450242 
z
" clip-path="url(#p40ff91e05e)" style="fill: #808080; fill-opacity: 0.4; stroke: #000000; stroke-linejoin: miter"/>
   </g>
   <g id="patch_13">
    <path d="M 118.650002 389.32 
L 125.049991 389.32 
L 125.049991 230.826989 
L 118.650002 230.826989 
z
" clip-path="url(#p40ff91e05e)" style="fill: #808080; fill-opacity: 0.4; stroke: #000000; stroke-linejoin: miter"/>
   </g>
   <g id="patch_14">
    <path d="M 125.049991 389.32 
L 131.44998 389.32 
L 131.44998 191.203737 
L 125.049991 191.203737 
z
" clip-path="url(#p40ff91e05e)" style="fill: #808080; fill-opacity: 0.4; stroke: #000000; stroke-linejoin: miter"/>
   </g>
   <g id="patch_15">
    <path d="M 131.44998 389.32 
L 137.849969 389.32 
L 137.849969 191.203737 
L 131.44998 191.203737 
z
" clip-path="url(#p40ff91e05e)" style="fill: #808080; fill-opacity: 0.4; stroke: #000000; stroke-linejoin: miter"/>
   </g>
   <g id="patch_16">
    <path d="M 137.849969 389.32 
L 144.249957 389.32 
L 144.249957 270.450242 
L 137.849969 270.450242 
z
" clip-path="url(#p40ff91e05e)" style="fill: #808080; fill-opacity: 0.4; stroke: #000000; stroke-linejoin: miter"/>
   </g>
   <g id="patch_17">
    <path d="M 144.249957 389.32 
L 150.649946 389.32 
L 150.649946 290.261868 
L 144.249957 290.261868 
z
" clip-path="url(#p40ff91e05e)" style="fill: #808080; fill-opacity: 0.4; stroke: #000000; stroke-linejoin: miter"/>
   </g>
   <g id="patch_18">
    <path d="M 150.649946 389.32 
L 157.049935 389.32 
L 157.049935 171.39211 
L 150.649946 171.39211 
z
" clip-path="url(#p40ff91e05e)" style="fill: #808080; fill-opacity: 0.4; stroke: #000000; stroke-linejoin: miter"/>
   </g>
   <g id="patch_19">
    <path d="M 157.049935 389.32 
L 163.449924 389.32 
L 163.449924 329.885121 
L 157.049935 329.885121 
z
" clip-path="url(#p40ff91e05e)" style="fill: #808080; fill-opacity: 0.4; stroke: #000000; stroke-linejoin: miter"/>
   </g>
   <g id="patch_20">
    <path d="M 163.449924 389.32 
L 169.849913 389.32 
L 169.849913 329.885121 
L 163.449924 329.885121 
z
" clip-path="url(#p40ff91e05e)" style="fill: #808080; fill-opacity: 0.4; stroke: #000000; stroke-linejoin: miter"/>
   </g>
   <g id="patch_21">
    <path d="M 169.849913 389.32 
L 176.249902 389.32 
L 176.249902 230.826989 
L 169.849913 230.826989 
z
" clip-path="url(#p40ff91e05e)" style="fill: #808080; fill-opacity: 0.4; stroke: #000000; stroke-linejoin: miter"/>
   </g>
   <g id="patch_22">
    <path d="M 176.249902 389.32 
L 182.649891 389.32 
L 182.649891 230.826989 
L 176.249902 230.826989 
z
" clip-path="url(#p40ff91e05e)" style="fill: #808080; fill-opacity: 0.4; stroke: #000000; stroke-linejoin: miter"/>
   </g>
   <g id="patch_23">
    <path d="M 182.649891 389.32 
L 189.04988 389.32 
L 189.04988 349.696747 
L 182.649891 349.696747 
z
" clip-path="url(#p40ff91e05e)" style="fill: #808080; fill-opacity: 0.4; stroke: #000000; stroke-linejoin: miter"/>
   </g>
   <g id="patch_24">
    <path d="M 189.04988 389.32 
L 195.449869 389.32 
L 195.449869 369.508374 
L 189.04988 369.508374 
z
" clip-path="url(#p40ff91e05e)" style="fill: #808080; fill-opacity: 0.4; stroke: #000000; stroke-linejoin: miter"/>
   </g>
   <g id="patch_25">
    <path d="M 195.449869 389.32 
L 201.849857 389.32 
L 201.849857 329.885121 
L 195.449869 329.885121 
z
" clip-path="url(#p40ff91e05e)" style="fill: #808080; fill-opacity: 0.4; stroke: #000000; stroke-linejoin: miter"/>
   </g>
   <g id="patch_26">
    <path d="M 201.849857 389.32 
L 208.249846 389.32 
L 208.249846 369.508374 
L 201.849857 369.508374 
z
" clip-path="url(#p40ff91e05e)" style="fill: #808080; fill-opacity: 0.4; stroke: #000000; stroke-linejoin: miter"/>
   </g>
   <g id="patch_27">
    <path d="M 208.249846 389.32 
L 214.649835 389.32 
L 214.649835 369.508374 
L 208.249846 369.508374 
z
" clip-path="url(#p40ff91e05e)" style="fill: #808080; fill-opacity: 0.4; stroke: #000000; stroke-linejoin: miter"/>
   </g>
   <g id="patch_28">
    <path d="M 214.649835 389.32 
L 221.049824 389.32 
L 221.049824 389.32 
L 214.649835 389.32 
z
" clip-path="url(#p40ff91e05e)" style="fill: #808080; fill-opacity: 0.4; stroke: #000000; stroke-linejoin: miter"/>
   </g>
   <g id="patch_29">
    <path d="M 221.049824 389.32 
L 227.449813 389.32 
L 227.449813 369.508374 
L 221.049824 369.508374 
z
" clip-path="url(#p40ff91e05e)" style="fill: #808080; fill-opacity: 0.4; stroke: #000000; stroke-linejoin: miter"/>
   </g>
   <g id="patch_30">
    <path d="M 292.161656 389.32 
L 296.782387 389.32 
L 296.782387 306.999121 
L 292.161656 306.999121 
z
" clip-path="url(#p40ff91e05e)" style="fill: #ffff00; fill-opacity: 0.6; stroke: #000000; stroke-width: 0.375784; stroke-linejoin: miter"/>
   </g>
   <g id="patch_31">
    <path d="M 296.782387 389.32 
L 301.403117 389.32 
L 301.403117 306.999121 
L 296.782387 306.999121 
z
" clip-path="url(#p40ff91e05e)" style="fill: #ffff00; fill-opacity: 0.6; stroke: #000000; stroke-width: 0.375784; stroke-linejoin: miter"/>
   </g>
   <g id="patch_32">
    <path d="M 301.403117 389.32 
L 306.023847 389.32 
L 306.023847 361.879707 
L 301.403117 361.879707 
z
" clip-path="url(#p40ff91e05e)" style="fill: #ffff00; fill-opacity: 0.6; stroke: #000000; stroke-width: 0.375784; stroke-linejoin: miter"/>
   </g>
   <g id="patch_33">
    <path d="M 306.023847 389.32 
L 310.644577 389.32 
L 310.644577 306.999121 
L 306.023847 306.999121 
z
" clip-path="url(#p40ff91e05e)" style="fill: #ffff00; fill-opacity: 0.6; stroke: #000000; stroke-width: 0.375784; stroke-linejoin: miter"/>
   </g>
   <g id="patch_34">
    <path d="M 310.644577 389.32 
L 315.265307 389.32 
L 315.265307 197.237949 
L 310.644577 197.237949 
z
" clip-path="url(#p40ff91e05e)" style="fill: #ffff00; fill-opacity: 0.6; stroke: #000000; stroke-width: 0.375784; stroke-linejoin: miter"/>
   </g>
   <g id="patch_35">
    <path d="M 315.265307 389.32 
L 319.886037 389.32 
L 319.886037 114.91707 
L 315.265307 114.91707 
z
" clip-path="url(#p40ff91e05e)" style="fill: #ffff00; fill-opacity: 0.6; stroke: #000000; stroke-width: 0.375784; stroke-linejoin: miter"/>
   </g>
   <g id="patch_36">
    <path d="M 319.886037 389.32 
L 324.506767 389.32 
L 324.506767 32.59619 
L 319.886037 32.59619 
z
" clip-path="url(#p40ff91e05e)" style="fill: #ffff00; fill-opacity: 0.6; stroke: #000000; stroke-width: 0.375784; stroke-linejoin: miter"/>
   </g>
   <g id="patch_37">
    <path d="M 324.506767 389.32 
L 329.127497 389.32 
L 329.127497 142.357363 
L 324.506767 142.357363 
z
" clip-path="url(#p40ff91e05e)" style="fill: #ffff00; fill-opacity: 0.6; stroke: #000000; stroke-width: 0.375784; stroke-linejoin: miter"/>
   </g>
   <g id="patch_38">
    <path d="M 329.127497 389.32 
L 333.748227 389.32 
L 333.748227 60.036484 
L 329.127497 60.036484 
z
" clip-path="url(#p40ff91e05e)" style="fill: #ffff00; fill-opacity: 0.6; stroke: #000000; stroke-width: 0.375784; stroke-linejoin: miter"/>
   </g>
   <g id="patch_39">
    <path d="M 333.748227 389.32 
L 338.368958 389.32 
L 338.368958 197.237949 
L 333.748227 197.237949 
z
" clip-path="url(#p40ff91e05e)" style="fill: #ffff00; fill-opacity: 0.6; stroke: #000000; stroke-width: 0.375784; stroke-linejoin: miter"/>
   </g>
   <g id="patch_40">
    <path d="M 338.368958 389.32 
L 342.989688 389.32 
L 342.989688 169.797656 
L 338.368958 169.797656 
z
" clip-path="url(#p40ff91e05e)" style="fill: #ffff00; fill-opacity: 0.6; stroke: #000000; stroke-width: 0.375784; stroke-linejoin: miter"/>
   </g>
   <g id="patch_41">
    <path d="M 342.989688 389.32 
L 347.610418 389.32 
L 347.610418 252.118535 
L 342.989688 252.118535 
z
" clip-path="url(#p40ff91e05e)" style="fill: #ffff00; fill-opacity: 0.6; stroke: #000000; stroke-width: 0.375784; stroke-linejoin: miter"/>
   </g>
   <g id="patch_42">
    <path d="M 347.610418 389.32 
L 352.231148 389.32 
L 352.231148 197.237949 
L 347.610418 197.237949 
z
" clip-path="url(#p40ff91e05e)" style="fill: #ffff00; fill-opacity: 0.6; stroke: #000000; stroke-width: 0.375784; stroke-linejoin: miter"/>
   </g>
   <g id="patch_43">
    <path d="M 352.231148 389.32 
L 356.851878 389.32 
L 356.851878 279.558828 
L 352.231148 279.558828 
z
" clip-path="url(#p40ff91e05e)" style="fill: #ffff00; fill-opacity: 0.6; stroke: #000000; stroke-width: 0.375784; stroke-linejoin: miter"/>
   </g>
   <g id="patch_44">
    <path d="M 356.851878 389.32 
L 361.472608 389.32 
L 361.472608 389.32 
L 356.851878 389.32 
z
" clip-path="url(#p40ff91e05e)" style="fill: #ffff00; fill-opacity: 0.6; stroke: #000000; stroke-width: 0.375784; stroke-linejoin: miter"/>
   </g>
   <g id="patch_45">
    <path d="M 361.472608 389.32 
L 366.093338 389.32 
L 366.093338 334.439414 
L 361.472608 334.439414 
z
" clip-path="url(#p40ff91e05e)" style="fill: #ffff00; fill-opacity: 0.6; stroke: #000000; stroke-width: 0.375784; stroke-linejoin: miter"/>
   </g>
   <g id="patch_46">
    <path d="M 366.093338 389.32 
L 370.714068 389.32 
L 370.714068 334.439414 
L 366.093338 334.439414 
z
" clip-path="url(#p40ff91e05e)" style="fill: #ffff00; fill-opacity: 0.6; stroke: #000000; stroke-width: 0.375784; stroke-linejoin: miter"/>
   </g>
   <g id="patch_47">
    <path d="M 370.714068 389.32 
L 375.334798 389.32 
L 375.334798 334.439414 
L 370.714068 334.439414 
z
" clip-path="url(#p40ff91e05e)" style="fill: #ffff00; fill-opacity: 0.6; stroke: #000000; stroke-width: 0.375784; stroke-linejoin: miter"/>
   </g>
   <g id="patch_48">
    <path d="M 375.334798 389.32 
L 379.955529 389.32 
L 379.955529 389.32 
L 375.334798 389.32 
z
" clip-path="url(#p40ff91e05e)" style="fill: #ffff00; fill-opacity: 0.6; stroke: #000000; stroke-width: 0.375784; stroke-linejoin: miter"/>
   </g>
   <g id="patch_49">
    <path d="M 379.955529 389.32 
L 384.576259 389.32 
L 384.576259 389.32 
L 379.955529 389.32 
z
" clip-path="url(#p40ff91e05e)" style="fill: #ffff00; fill-opacity: 0.6; stroke: #000000; stroke-width: 0.375784; stroke-linejoin: miter"/>
   </g>
   <g id="patch_50">
    <path d="M 384.576259 389.32 
L 389.196989 389.32 
L 389.196989 389.32 
L 384.576259 389.32 
z
" clip-path="url(#p40ff91e05e)" style="fill: #ffff00; fill-opacity: 0.6; stroke: #000000; stroke-width: 0.375784; stroke-linejoin: miter"/>
   </g>
   <g id="patch_51">
    <path d="M 389.196989 389.32 
L 393.817719 389.32 
L 393.817719 389.32 
L 389.196989 389.32 
z
" clip-path="url(#p40ff91e05e)" style="fill: #ffff00; fill-opacity: 0.6; stroke: #000000; stroke-width: 0.375784; stroke-linejoin: miter"/>
   </g>
   <g id="patch_52">
    <path d="M 393.817719 389.32 
L 398.438449 389.32 
L 398.438449 389.32 
L 393.817719 389.32 
z
" clip-path="url(#p40ff91e05e)" style="fill: #ffff00; fill-opacity: 0.6; stroke: #000000; stroke-width: 0.375784; stroke-linejoin: miter"/>
   </g>
   <g id="patch_53">
    <path d="M 398.438449 389.32 
L 403.059179 389.32 
L 403.059179 389.32 
L 398.438449 389.32 
z
" clip-path="url(#p40ff91e05e)" style="fill: #ffff00; fill-opacity: 0.6; stroke: #000000; stroke-width: 0.375784; stroke-linejoin: miter"/>
   </g>
   <g id="patch_54">
    <path d="M 403.059179 389.32 
L 407.679909 389.32 
L 407.679909 334.439414 
L 403.059179 334.439414 
z
" clip-path="url(#p40ff91e05e)" style="fill: #ffff00; fill-opacity: 0.6; stroke: #000000; stroke-width: 0.375784; stroke-linejoin: miter"/>
   </g>
   <g id="matplotlib.axis_1">
    <g id="xtick_1">
     <g id="line2d_1">
      <defs>
       <path id="m87123e6524" d="M 0 0 
L 0 3.5 
" style="stroke: #000000; stroke-width: 0.8"/>
      </defs>
      <g>
       <use xlink:href="#m87123e6524" x="59.573064" y="389.32" style="stroke: #000000; stroke-width: 0.8"/>
      </g>
     </g>
     <g id="text_1">
      <!-- −2 -->
      <g transform="translate(52.201971 403.918437) scale(0.1 -0.1)">
       <defs>
        <path id="DejaVuSans-2212" d="M 678 2272 
L 4684 2272 
L 4684 1741 
L 678 1741 
L 678 2272 
z
" transform="scale(0.015625)"/>
        <path id="DejaVuSans-32" d="M 1228 531 
L 3431 531 
L 3431 0 
L 469 0 
L 469 531 
Q 828 903 1448 1529 
Q 2069 2156 2228 2338 
Q 2531 2678 2651 2914 
Q 2772 3150 2772 3378 
Q 2772 3750 2511 3984 
Q 2250 4219 1831 4219 
Q 1534 4219 1204 4116 
Q 875 4013 500 3803 
L 500 4441 
Q 881 4594 1212 4672 
Q 1544 4750 1819 4750 
Q 2544 4750 2975 4387 
Q 3406 4025 3406 3419 
Q 3406 3131 3298 2873 
Q 3191 2616 2906 2266 
Q 2828 2175 2409 1742 
Q 1991 1309 1228 531 
z
" transform="scale(0.015625)"/>
       </defs>
       <use xlink:href="#DejaVuSans-2212"/>
       <use xlink:href="#DejaVuSans-32" x="83.789062"/>
      </g>
     </g>
    </g>
    <g id="xtick_2">
     <g id="line2d_2">
      <g>
       <use xlink:href="#m87123e6524" x="128.976693" y="389.32" style="stroke: #000000; stroke-width: 0.8"/>
      </g>
     </g>
     <g id="text_2">
      <!-- 0 -->
      <g transform="translate(125.795443 403.918437) scale(0.1 -0.1)">
       <defs>
        <path id="DejaVuSans-30" d="M 2034 4250 
Q 1547 4250 1301 3770 
Q 1056 3291 1056 2328 
Q 1056 1369 1301 889 
Q 1547 409 2034 409 
Q 2525 409 2770 889 
Q 3016 1369 3016 2328 
Q 3016 3291 2770 3770 
Q 2525 4250 2034 4250 
z
M 2034 4750 
Q 2819 4750 3233 4129 
Q 3647 3509 3647 2328 
Q 3647 1150 3233 529 
Q 2819 -91 2034 -91 
Q 1250 -91 836 529 
Q 422 1150 422 2328 
Q 422 3509 836 4129 
Q 1250 4750 2034 4750 
z
" transform="scale(0.015625)"/>
       </defs>
       <use xlink:href="#DejaVuSans-30"/>
      </g>
     </g>
    </g>
    <g id="xtick_3">
     <g id="line2d_3">
      <g>
       <use xlink:href="#m87123e6524" x="198.380322" y="389.32" style="stroke: #000000; stroke-width: 0.8"/>
      </g>
     </g>
     <g id="text_3">
      <!-- 2 -->
      <g transform="translate(195.199072 403.918437) scale(0.1 -0.1)">
       <use xlink:href="#DejaVuSans-32"/>
      </g>
     </g>
    </g>
    <g id="xtick_4">
     <g id="line2d_4">
      <g>
       <use xlink:href="#m87123e6524" x="267.783951" y="389.32" style="stroke: #000000; stroke-width: 0.8"/>
      </g>
     </g>
     <g id="text_4">
      <!-- 4 -->
      <g transform="translate(264.602701 403.918437) scale(0.1 -0.1)">
       <defs>
        <path id="DejaVuSans-34" d="M 2419 4116 
L 825 1625 
L 2419 1625 
L 2419 4116 
z
M 2253 4666 
L 3047 4666 
L 3047 1625 
L 3713 1625 
L 3713 1100 
L 3047 1100 
L 3047 0 
L 2419 0 
L 2419 1100 
L 313 1100 
L 313 1709 
L 2253 4666 
z
" transform="scale(0.015625)"/>
       </defs>
       <use xlink:href="#DejaVuSans-34"/>
      </g>
     </g>
    </g>
    <g id="xtick_5">
     <g id="line2d_5">
      <g>
       <use xlink:href="#m87123e6524" x="337.18758" y="389.32" style="stroke: #000000; stroke-width: 0.8"/>
      </g>
     </g>
     <g id="text_5">
      <!-- 6 -->
      <g transform="translate(334.00633 403.918437) scale(0.1 -0.1)">
       <defs>
        <path id="DejaVuSans-36" d="M 2113 2584 
Q 1688 2584 1439 2293 
Q 1191 2003 1191 1497 
Q 1191 994 1439 701 
Q 1688 409 2113 409 
Q 2538 409 2786 701 
Q 3034 994 3034 1497 
Q 3034 2003 2786 2293 
Q 2538 2584 2113 2584 
z
M 3366 4563 
L 3366 3988 
Q 3128 4100 2886 4159 
Q 2644 4219 2406 4219 
Q 1781 4219 1451 3797 
Q 1122 3375 1075 2522 
Q 1259 2794 1537 2939 
Q 1816 3084 2150 3084 
Q 2853 3084 3261 2657 
Q 3669 2231 3669 1497 
Q 3669 778 3244 343 
Q 2819 -91 2113 -91 
Q 1303 -91 875 529 
Q 447 1150 447 2328 
Q 447 3434 972 4092 
Q 1497 4750 2381 4750 
Q 2619 4750 2861 4703 
Q 3103 4656 3366 4563 
z
" transform="scale(0.015625)"/>
       </defs>
       <use xlink:href="#DejaVuSans-36"/>
      </g>
     </g>
    </g>
    <g id="xtick_6">
     <g id="line2d_6">
      <g>
       <use xlink:href="#m87123e6524" x="406.591208" y="389.32" style="stroke: #000000; stroke-width: 0.8"/>
      </g>
     </g>
     <g id="text_6">
      <!-- 8 -->
      <g transform="translate(403.409958 403.918437) scale(0.1 -0.1)">
       <defs>
        <path id="DejaVuSans-38" d="M 2034 2216 
Q 1584 2216 1326 1975 
Q 1069 1734 1069 1313 
Q 1069 891 1326 650 
Q 1584 409 2034 409 
Q 2484 409 2743 651 
Q 3003 894 3003 1313 
Q 3003 1734 2745 1975 
Q 2488 2216 2034 2216 
z
M 1403 2484 
Q 997 2584 770 2862 
Q 544 3141 544 3541 
Q 544 4100 942 4425 
Q 1341 4750 2034 4750 
Q 2731 4750 3128 4425 
Q 3525 4100 3525 3541 
Q 3525 3141 3298 2862 
Q 3072 2584 2669 2484 
Q 3125 2378 3379 2068 
Q 3634 1759 3634 1313 
Q 3634 634 3220 271 
Q 2806 -91 2034 -91 
Q 1263 -91 848 271 
Q 434 634 434 1313 
Q 434 1759 690 2068 
Q 947 2378 1403 2484 
z
M 1172 3481 
Q 1172 3119 1398 2916 
Q 1625 2713 2034 2713 
Q 2441 2713 2670 2916 
Q 2900 3119 2900 3481 
Q 2900 3844 2670 4047 
Q 2441 4250 2034 4250 
Q 1625 4250 1398 4047 
Q 1172 3844 1172 3481 
z
" transform="scale(0.015625)"/>
       </defs>
       <use xlink:href="#DejaVuSans-38"/>
      </g>
     </g>
    </g>
    <g id="text_7">
     <!-- Predicted Fluorescence -->
     <g transform="translate(167.96875 419.11625) scale(0.12 -0.12)">
      <defs>
       <path id="DejaVuSans-50" d="M 1259 4147 
L 1259 2394 
L 2053 2394 
Q 2494 2394 2734 2622 
Q 2975 2850 2975 3272 
Q 2975 3691 2734 3919 
Q 2494 4147 2053 4147 
L 1259 4147 
z
M 628 4666 
L 2053 4666 
Q 2838 4666 3239 4311 
Q 3641 3956 3641 3272 
Q 3641 2581 3239 2228 
Q 2838 1875 2053 1875 
L 1259 1875 
L 1259 0 
L 628 0 
L 628 4666 
z
" transform="scale(0.015625)"/>
       <path id="DejaVuSans-72" d="M 2631 2963 
Q 2534 3019 2420 3045 
Q 2306 3072 2169 3072 
Q 1681 3072 1420 2755 
Q 1159 2438 1159 1844 
L 1159 0 
L 581 0 
L 581 3500 
L 1159 3500 
L 1159 2956 
Q 1341 3275 1631 3429 
Q 1922 3584 2338 3584 
Q 2397 3584 2469 3576 
Q 2541 3569 2628 3553 
L 2631 2963 
z
" transform="scale(0.015625)"/>
       <path id="DejaVuSans-65" d="M 3597 1894 
L 3597 1613 
L 953 1613 
Q 991 1019 1311 708 
Q 1631 397 2203 397 
Q 2534 397 2845 478 
Q 3156 559 3463 722 
L 3463 178 
Q 3153 47 2828 -22 
Q 2503 -91 2169 -91 
Q 1331 -91 842 396 
Q 353 884 353 1716 
Q 353 2575 817 3079 
Q 1281 3584 2069 3584 
Q 2775 3584 3186 3129 
Q 3597 2675 3597 1894 
z
M 3022 2063 
Q 3016 2534 2758 2815 
Q 2500 3097 2075 3097 
Q 1594 3097 1305 2825 
Q 1016 2553 972 2059 
L 3022 2063 
z
" transform="scale(0.015625)"/>
       <path id="DejaVuSans-64" d="M 2906 2969 
L 2906 4863 
L 3481 4863 
L 3481 0 
L 2906 0 
L 2906 525 
Q 2725 213 2448 61 
Q 2172 -91 1784 -91 
Q 1150 -91 751 415 
Q 353 922 353 1747 
Q 353 2572 751 3078 
Q 1150 3584 1784 3584 
Q 2172 3584 2448 3432 
Q 2725 3281 2906 2969 
z
M 947 1747 
Q 947 1113 1208 752 
Q 1469 391 1925 391 
Q 2381 391 2643 752 
Q 2906 1113 2906 1747 
Q 2906 2381 2643 2742 
Q 2381 3103 1925 3103 
Q 1469 3103 1208 2742 
Q 947 2381 947 1747 
z
" transform="scale(0.015625)"/>
       <path id="DejaVuSans-69" d="M 603 3500 
L 1178 3500 
L 1178 0 
L 603 0 
L 603 3500 
z
M 603 4863 
L 1178 4863 
L 1178 4134 
L 603 4134 
L 603 4863 
z
" transform="scale(0.015625)"/>
       <path id="DejaVuSans-63" d="M 3122 3366 
L 3122 2828 
Q 2878 2963 2633 3030 
Q 2388 3097 2138 3097 
Q 1578 3097 1268 2742 
Q 959 2388 959 1747 
Q 959 1106 1268 751 
Q 1578 397 2138 397 
Q 2388 397 2633 464 
Q 2878 531 3122 666 
L 3122 134 
Q 2881 22 2623 -34 
Q 2366 -91 2075 -91 
Q 1284 -91 818 406 
Q 353 903 353 1747 
Q 353 2603 823 3093 
Q 1294 3584 2113 3584 
Q 2378 3584 2631 3529 
Q 2884 3475 3122 3366 
z
" transform="scale(0.015625)"/>
       <path id="DejaVuSans-74" d="M 1172 4494 
L 1172 3500 
L 2356 3500 
L 2356 3053 
L 1172 3053 
L 1172 1153 
Q 1172 725 1289 603 
Q 1406 481 1766 481 
L 2356 481 
L 2356 0 
L 1766 0 
Q 1100 0 847 248 
Q 594 497 594 1153 
L 594 3053 
L 172 3053 
L 172 3500 
L 594 3500 
L 594 4494 
L 1172 4494 
z
" transform="scale(0.015625)"/>
       <path id="DejaVuSans-20" transform="scale(0.015625)"/>
       <path id="DejaVuSans-46" d="M 628 4666 
L 3309 4666 
L 3309 4134 
L 1259 4134 
L 1259 2759 
L 3109 2759 
L 3109 2228 
L 1259 2228 
L 1259 0 
L 628 0 
L 628 4666 
z
" transform="scale(0.015625)"/>
       <path id="DejaVuSans-6c" d="M 603 4863 
L 1178 4863 
L 1178 0 
L 603 0 
L 603 4863 
z
" transform="scale(0.015625)"/>
       <path id="DejaVuSans-75" d="M 544 1381 
L 544 3500 
L 1119 3500 
L 1119 1403 
Q 1119 906 1312 657 
Q 1506 409 1894 409 
Q 2359 409 2629 706 
Q 2900 1003 2900 1516 
L 2900 3500 
L 3475 3500 
L 3475 0 
L 2900 0 
L 2900 538 
Q 2691 219 2414 64 
Q 2138 -91 1772 -91 
Q 1169 -91 856 284 
Q 544 659 544 1381 
z
M 1991 3584 
L 1991 3584 
z
" transform="scale(0.015625)"/>
       <path id="DejaVuSans-6f" d="M 1959 3097 
Q 1497 3097 1228 2736 
Q 959 2375 959 1747 
Q 959 1119 1226 758 
Q 1494 397 1959 397 
Q 2419 397 2687 759 
Q 2956 1122 2956 1747 
Q 2956 2369 2687 2733 
Q 2419 3097 1959 3097 
z
M 1959 3584 
Q 2709 3584 3137 3096 
Q 3566 2609 3566 1747 
Q 3566 888 3137 398 
Q 2709 -91 1959 -91 
Q 1206 -91 779 398 
Q 353 888 353 1747 
Q 353 2609 779 3096 
Q 1206 3584 1959 3584 
z
" transform="scale(0.015625)"/>
       <path id="DejaVuSans-73" d="M 2834 3397 
L 2834 2853 
Q 2591 2978 2328 3040 
Q 2066 3103 1784 3103 
Q 1356 3103 1142 2972 
Q 928 2841 928 2578 
Q 928 2378 1081 2264 
Q 1234 2150 1697 2047 
L 1894 2003 
Q 2506 1872 2764 1633 
Q 3022 1394 3022 966 
Q 3022 478 2636 193 
Q 2250 -91 1575 -91 
Q 1294 -91 989 -36 
Q 684 19 347 128 
L 347 722 
Q 666 556 975 473 
Q 1284 391 1588 391 
Q 1994 391 2212 530 
Q 2431 669 2431 922 
Q 2431 1156 2273 1281 
Q 2116 1406 1581 1522 
L 1381 1569 
Q 847 1681 609 1914 
Q 372 2147 372 2553 
Q 372 3047 722 3315 
Q 1072 3584 1716 3584 
Q 2034 3584 2315 3537 
Q 2597 3491 2834 3397 
z
" transform="scale(0.015625)"/>
       <path id="DejaVuSans-6e" d="M 3513 2113 
L 3513 0 
L 2938 0 
L 2938 2094 
Q 2938 2591 2744 2837 
Q 2550 3084 2163 3084 
Q 1697 3084 1428 2787 
Q 1159 2491 1159 1978 
L 1159 0 
L 581 0 
L 581 3500 
L 1159 3500 
L 1159 2956 
Q 1366 3272 1645 3428 
Q 1925 3584 2291 3584 
Q 2894 3584 3203 3211 
Q 3513 2838 3513 2113 
z
" transform="scale(0.015625)"/>
      </defs>
      <use xlink:href="#DejaVuSans-50"/>
      <use xlink:href="#DejaVuSans-72" x="58.552734"/>
      <use xlink:href="#DejaVuSans-65" x="97.416016"/>
      <use xlink:href="#DejaVuSans-64" x="158.939453"/>
      <use xlink:href="#DejaVuSans-69" x="222.416016"/>
      <use xlink:href="#DejaVuSans-63" x="250.199219"/>
      <use xlink:href="#DejaVuSans-74" x="305.179688"/>
      <use xlink:href="#DejaVuSans-65" x="344.388672"/>
      <use xlink:href="#DejaVuSans-64" x="405.912109"/>
      <use xlink:href="#DejaVuSans-20" x="469.388672"/>
      <use xlink:href="#DejaVuSans-46" x="501.175781"/>
      <use xlink:href="#DejaVuSans-6c" x="558.695312"/>
      <use xlink:href="#DejaVuSans-75" x="586.478516"/>
      <use xlink:href="#DejaVuSans-6f" x="649.857422"/>
      <use xlink:href="#DejaVuSans-72" x="711.039062"/>
      <use xlink:href="#DejaVuSans-65" x="749.902344"/>
      <use xlink:href="#DejaVuSans-73" x="811.425781"/>
      <use xlink:href="#DejaVuSans-63" x="863.525391"/>
      <use xlink:href="#DejaVuSans-65" x="918.505859"/>
      <use xlink:href="#DejaVuSans-6e" x="980.029297"/>
      <use xlink:href="#DejaVuSans-63" x="1043.408203"/>
      <use xlink:href="#DejaVuSans-65" x="1098.388672"/>
     </g>
    </g>
   </g>
   <g id="matplotlib.axis_2">
    <g id="ytick_1">
     <g id="line2d_7">
      <defs>
       <path id="mec59b142e0" d="M 0 0 
L -3.5 0 
" style="stroke: #000000; stroke-width: 0.8"/>
      </defs>
      <g>
       <use xlink:href="#mec59b142e0" x="48.53" y="389.32" style="stroke: #000000; stroke-width: 0.8"/>
      </g>
     </g>
     <g id="text_8">
      <!-- 0.0 -->
      <g transform="translate(25.626875 393.119219) scale(0.1 -0.1)">
       <defs>
        <path id="DejaVuSans-2e" d="M 684 794 
L 1344 794 
L 1344 0 
L 684 0 
L 684 794 
z
" transform="scale(0.015625)"/>
       </defs>
       <use xlink:href="#DejaVuSans-30"/>
       <use xlink:href="#DejaVuSans-2e" x="63.623047"/>
       <use xlink:href="#DejaVuSans-30" x="95.410156"/>
      </g>
     </g>
    </g>
    <g id="ytick_2">
     <g id="line2d_8">
      <g>
       <use xlink:href="#mec59b142e0" x="48.53" y="316.243597" style="stroke: #000000; stroke-width: 0.8"/>
      </g>
     </g>
     <g id="text_9">
      <!-- 0.2 -->
      <g transform="translate(25.626875 320.042816) scale(0.1 -0.1)">
       <use xlink:href="#DejaVuSans-30"/>
       <use xlink:href="#DejaVuSans-2e" x="63.623047"/>
       <use xlink:href="#DejaVuSans-32" x="95.410156"/>
      </g>
     </g>
    </g>
    <g id="ytick_3">
     <g id="line2d_9">
      <g>
       <use xlink:href="#mec59b142e0" x="48.53" y="243.167194" style="stroke: #000000; stroke-width: 0.8"/>
      </g>
     </g>
     <g id="text_10">
      <!-- 0.4 -->
      <g transform="translate(25.626875 246.966413) scale(0.1 -0.1)">
       <use xlink:href="#DejaVuSans-30"/>
       <use xlink:href="#DejaVuSans-2e" x="63.623047"/>
       <use xlink:href="#DejaVuSans-34" x="95.410156"/>
      </g>
     </g>
    </g>
    <g id="ytick_4">
     <g id="line2d_10">
      <g>
       <use xlink:href="#mec59b142e0" x="48.53" y="170.090791" style="stroke: #000000; stroke-width: 0.8"/>
      </g>
     </g>
     <g id="text_11">
      <!-- 0.6 -->
      <g transform="translate(25.626875 173.89001) scale(0.1 -0.1)">
       <use xlink:href="#DejaVuSans-30"/>
       <use xlink:href="#DejaVuSans-2e" x="63.623047"/>
       <use xlink:href="#DejaVuSans-36" x="95.410156"/>
      </g>
     </g>
    </g>
    <g id="ytick_5">
     <g id="line2d_11">
      <g>
       <use xlink:href="#mec59b142e0" x="48.53" y="97.014389" style="stroke: #000000; stroke-width: 0.8"/>
      </g>
     </g>
     <g id="text_12">
      <!-- 0.8 -->
      <g transform="translate(25.626875 100.813607) scale(0.1 -0.1)">
       <use xlink:href="#DejaVuSans-30"/>
       <use xlink:href="#DejaVuSans-2e" x="63.623047"/>
       <use xlink:href="#DejaVuSans-38" x="95.410156"/>
      </g>
     </g>
    </g>
    <g id="ytick_6">
     <g id="line2d_12">
      <g>
       <use xlink:href="#mec59b142e0" x="48.53" y="23.937986" style="stroke: #000000; stroke-width: 0.8"/>
      </g>
     </g>
     <g id="text_13">
      <!-- 1.0 -->
      <g transform="translate(25.626875 27.737205) scale(0.1 -0.1)">
       <defs>
        <path id="DejaVuSans-31" d="M 794 531 
L 1825 531 
L 1825 4091 
L 703 3866 
L 703 4441 
L 1819 4666 
L 2450 4666 
L 2450 531 
L 3481 531 
L 3481 0 
L 794 0 
L 794 531 
z
" transform="scale(0.015625)"/>
       </defs>
       <use xlink:href="#DejaVuSans-31"/>
       <use xlink:href="#DejaVuSans-2e" x="63.623047"/>
       <use xlink:href="#DejaVuSans-30" x="95.410156"/>
      </g>
     </g>
    </g>
    <g id="text_14">
     <!-- Probability Density -->
     <g transform="translate(19.13125 258.471875) rotate(-90) scale(0.12 -0.12)">
      <defs>
       <path id="DejaVuSans-62" d="M 3116 1747 
Q 3116 2381 2855 2742 
Q 2594 3103 2138 3103 
Q 1681 3103 1420 2742 
Q 1159 2381 1159 1747 
Q 1159 1113 1420 752 
Q 1681 391 2138 391 
Q 2594 391 2855 752 
Q 3116 1113 3116 1747 
z
M 1159 2969 
Q 1341 3281 1617 3432 
Q 1894 3584 2278 3584 
Q 2916 3584 3314 3078 
Q 3713 2572 3713 1747 
Q 3713 922 3314 415 
Q 2916 -91 2278 -91 
Q 1894 -91 1617 61 
Q 1341 213 1159 525 
L 1159 0 
L 581 0 
L 581 4863 
L 1159 4863 
L 1159 2969 
z
" transform="scale(0.015625)"/>
       <path id="DejaVuSans-61" d="M 2194 1759 
Q 1497 1759 1228 1600 
Q 959 1441 959 1056 
Q 959 750 1161 570 
Q 1363 391 1709 391 
Q 2188 391 2477 730 
Q 2766 1069 2766 1631 
L 2766 1759 
L 2194 1759 
z
M 3341 1997 
L 3341 0 
L 2766 0 
L 2766 531 
Q 2569 213 2275 61 
Q 1981 -91 1556 -91 
Q 1019 -91 701 211 
Q 384 513 384 1019 
Q 384 1609 779 1909 
Q 1175 2209 1959 2209 
L 2766 2209 
L 2766 2266 
Q 2766 2663 2505 2880 
Q 2244 3097 1772 3097 
Q 1472 3097 1187 3025 
Q 903 2953 641 2809 
L 641 3341 
Q 956 3463 1253 3523 
Q 1550 3584 1831 3584 
Q 2591 3584 2966 3190 
Q 3341 2797 3341 1997 
z
" transform="scale(0.015625)"/>
       <path id="DejaVuSans-79" d="M 2059 -325 
Q 1816 -950 1584 -1140 
Q 1353 -1331 966 -1331 
L 506 -1331 
L 506 -850 
L 844 -850 
Q 1081 -850 1212 -737 
Q 1344 -625 1503 -206 
L 1606 56 
L 191 3500 
L 800 3500 
L 1894 763 
L 2988 3500 
L 3597 3500 
L 2059 -325 
z
" transform="scale(0.015625)"/>
       <path id="DejaVuSans-44" d="M 1259 4147 
L 1259 519 
L 2022 519 
Q 2988 519 3436 956 
Q 3884 1394 3884 2338 
Q 3884 3275 3436 3711 
Q 2988 4147 2022 4147 
L 1259 4147 
z
M 628 4666 
L 1925 4666 
Q 3281 4666 3915 4102 
Q 4550 3538 4550 2338 
Q 4550 1131 3912 565 
Q 3275 0 1925 0 
L 628 0 
L 628 4666 
z
" transform="scale(0.015625)"/>
      </defs>
      <use xlink:href="#DejaVuSans-50"/>
      <use xlink:href="#DejaVuSans-72" x="58.552734"/>
      <use xlink:href="#DejaVuSans-6f" x="97.416016"/>
      <use xlink:href="#DejaVuSans-62" x="158.597656"/>
      <use xlink:href="#DejaVuSans-61" x="222.074219"/>
      <use xlink:href="#DejaVuSans-62" x="283.353516"/>
      <use xlink:href="#DejaVuSans-69" x="346.830078"/>
      <use xlink:href="#DejaVuSans-6c" x="374.613281"/>
      <use xlink:href="#DejaVuSans-69" x="402.396484"/>
      <use xlink:href="#DejaVuSans-74" x="430.179688"/>
      <use xlink:href="#DejaVuSans-79" x="469.388672"/>
      <use xlink:href="#DejaVuSans-20" x="528.568359"/>
      <use xlink:href="#DejaVuSans-44" x="560.355469"/>
      <use xlink:href="#DejaVuSans-65" x="637.357422"/>
      <use xlink:href="#DejaVuSans-6e" x="698.880859"/>
      <use xlink:href="#DejaVuSans-73" x="762.259766"/>
      <use xlink:href="#DejaVuSans-69" x="814.359375"/>
      <use xlink:href="#DejaVuSans-74" x="842.142578"/>
      <use xlink:href="#DejaVuSans-79" x="881.351562"/>
     </g>
    </g>
   </g>
   <g id="line2d_13">
    <path d="M 168.876839 389.32 
L 168.876839 14.76 
" clip-path="url(#p40ff91e05e)" style="fill: none; stroke-dasharray: 11.1,4.8; stroke-dashoffset: 0; stroke: #ffa500; stroke-width: 3"/>
   </g>
   <g id="patch_55">
    <path d="M 48.53 389.32 
L 48.53 14.76 
" style="fill: none; stroke: #000000; stroke-width: 0.8; stroke-linejoin: miter; stroke-linecap: square"/>
   </g>
   <g id="patch_56">
    <path d="M 48.53 389.32 
L 426.6 389.32 
" style="fill: none; stroke: #000000; stroke-width: 0.8; stroke-linejoin: miter; stroke-linecap: square"/>
   </g>
   <g id="legend_1">
    <g id="patch_57">
     <path d="M 178.507969 52.11625 
L 296.622031 52.11625 
Q 298.622031 52.11625 298.622031 50.11625 
L 298.622031 21.76 
Q 298.622031 19.76 296.622031 19.76 
L 178.507969 19.76 
Q 176.507969 19.76 176.507969 21.76 
L 176.507969 50.11625 
Q 176.507969 52.11625 178.507969 52.11625 
z
" style="fill: #ffffff; opacity: 0.8; stroke: #cccccc; stroke-linejoin: miter"/>
    </g>
    <g id="patch_58">
     <path d="M 180.507969 31.358438 
L 200.507969 31.358438 
L 200.507969 24.358438 
L 180.507969 24.358438 
z
" style="fill: #808080; fill-opacity: 0.4; stroke: #000000; stroke-linejoin: miter"/>
    </g>
    <g id="text_15">
     <!-- Pre-trained ESM2 -->
     <g transform="translate(208.507969 31.358438) scale(0.1 -0.1)">
      <defs>
       <path id="DejaVuSans-2d" d="M 313 2009 
L 1997 2009 
L 1997 1497 
L 313 1497 
L 313 2009 
z
" transform="scale(0.015625)"/>
       <path id="DejaVuSans-45" d="M 628 4666 
L 3578 4666 
L 3578 4134 
L 1259 4134 
L 1259 2753 
L 3481 2753 
L 3481 2222 
L 1259 2222 
L 1259 531 
L 3634 531 
L 3634 0 
L 628 0 
L 628 4666 
z
" transform="scale(0.015625)"/>
       <path id="DejaVuSans-53" d="M 3425 4513 
L 3425 3897 
Q 3066 4069 2747 4153 
Q 2428 4238 2131 4238 
Q 1616 4238 1336 4038 
Q 1056 3838 1056 3469 
Q 1056 3159 1242 3001 
Q 1428 2844 1947 2747 
L 2328 2669 
Q 3034 2534 3370 2195 
Q 3706 1856 3706 1288 
Q 3706 609 3251 259 
Q 2797 -91 1919 -91 
Q 1588 -91 1214 -16 
Q 841 59 441 206 
L 441 856 
Q 825 641 1194 531 
Q 1563 422 1919 422 
Q 2459 422 2753 634 
Q 3047 847 3047 1241 
Q 3047 1584 2836 1778 
Q 2625 1972 2144 2069 
L 1759 2144 
Q 1053 2284 737 2584 
Q 422 2884 422 3419 
Q 422 4038 858 4394 
Q 1294 4750 2059 4750 
Q 2388 4750 2728 4690 
Q 3069 4631 3425 4513 
z
" transform="scale(0.015625)"/>
       <path id="DejaVuSans-4d" d="M 628 4666 
L 1569 4666 
L 2759 1491 
L 3956 4666 
L 4897 4666 
L 4897 0 
L 4281 0 
L 4281 4097 
L 3078 897 
L 2444 897 
L 1241 4097 
L 1241 0 
L 628 0 
L 628 4666 
z
" transform="scale(0.015625)"/>
      </defs>
      <use xlink:href="#DejaVuSans-50"/>
      <use xlink:href="#DejaVuSans-72" x="58.552734"/>
      <use xlink:href="#DejaVuSans-65" x="97.416016"/>
      <use xlink:href="#DejaVuSans-2d" x="158.939453"/>
      <use xlink:href="#DejaVuSans-74" x="195.023438"/>
      <use xlink:href="#DejaVuSans-72" x="234.232422"/>
      <use xlink:href="#DejaVuSans-61" x="275.345703"/>
      <use xlink:href="#DejaVuSans-69" x="336.625"/>
      <use xlink:href="#DejaVuSans-6e" x="364.408203"/>
      <use xlink:href="#DejaVuSans-65" x="427.787109"/>
      <use xlink:href="#DejaVuSans-64" x="489.310547"/>
      <use xlink:href="#DejaVuSans-20" x="552.787109"/>
      <use xlink:href="#DejaVuSans-45" x="584.574219"/>
      <use xlink:href="#DejaVuSans-53" x="647.757812"/>
      <use xlink:href="#DejaVuSans-4d" x="711.234375"/>
      <use xlink:href="#DejaVuSans-32" x="797.513672"/>
     </g>
    </g>
    <g id="patch_59">
     <path d="M 180.507969 46.036563 
L 200.507969 46.036563 
L 200.507969 39.036563 
L 180.507969 39.036563 
z
" style="fill: #ffff00; fill-opacity: 0.6; stroke: #000000; stroke-width: 0.375784; stroke-linejoin: miter"/>
    </g>
    <g id="text_16">
     <!-- SFT ESM2 -->
     <g transform="translate(208.507969 46.036563) scale(0.1 -0.1)">
      <defs>
       <path id="DejaVuSans-54" d="M -19 4666 
L 3928 4666 
L 3928 4134 
L 2272 4134 
L 2272 0 
L 1638 0 
L 1638 4134 
L -19 4134 
L -19 4666 
z
" transform="scale(0.015625)"/>
      </defs>
      <use xlink:href="#DejaVuSans-53"/>
      <use xlink:href="#DejaVuSans-46" x="63.476562"/>
      <use xlink:href="#DejaVuSans-54" x="119.246094"/>
      <use xlink:href="#DejaVuSans-20" x="180.330078"/>
      <use xlink:href="#DejaVuSans-45" x="212.117188"/>
      <use xlink:href="#DejaVuSans-53" x="275.300781"/>
      <use xlink:href="#DejaVuSans-4d" x="338.777344"/>
      <use xlink:href="#DejaVuSans-32" x="425.056641"/>
     </g>
    </g>
   </g>
  </g>
  <g id="axes_2">
   <g id="patch_60">
    <path d="M 475.13 389.32 
L 853.2 389.32 
L 853.2 14.76 
L 475.13 14.76 
z
" style="fill: #ffffff"/>
   </g>
   <g id="patch_61">
    <path d="M 492.315 389.32 
L 492.315 14.76 
L 595.476839 14.76 
L 595.476839 389.32 
z
" clip-path="url(#p382d9a8016)" style="fill: #ff0000; opacity: 0.1; stroke: #ff0000; stroke-linejoin: miter"/>
   </g>
   <g id="patch_62">
    <path d="M 595.476839 389.32 
L 595.476839 14.76 
L 836.015 14.76 
L 836.015 389.32 
z
" clip-path="url(#p382d9a8016)" style="fill: #008000; opacity: 0.1; stroke: #008000; stroke-linejoin: miter"/>
   </g>
   <g id="matplotlib.axis_3">
    <g id="xtick_7">
     <g id="line2d_14">
      <g>
       <use xlink:href="#m87123e6524" x="486.173064" y="389.32" style="stroke: #000000; stroke-width: 0.8"/>
      </g>
     </g>
     <g id="text_17">
      <!-- −2 -->
      <g transform="translate(478.801971 403.918437) scale(0.1 -0.1)">
       <use xlink:href="#DejaVuSans-2212"/>
       <use xlink:href="#DejaVuSans-32" x="83.789062"/>
      </g>
     </g>
    </g>
    <g id="xtick_8">
     <g id="line2d_15">
      <g>
       <use xlink:href="#m87123e6524" x="555.576693" y="389.32" style="stroke: #000000; stroke-width: 0.8"/>
      </g>
     </g>
     <g id="text_18">
      <!-- 0 -->
      <g transform="translate(552.395443 403.918437) scale(0.1 -0.1)">
       <use xlink:href="#DejaVuSans-30"/>
      </g>
     </g>
    </g>
    <g id="xtick_9">
     <g id="line2d_16">
      <g>
       <use xlink:href="#m87123e6524" x="624.980322" y="389.32" style="stroke: #000000; stroke-width: 0.8"/>
      </g>
     </g>
     <g id="text_19">
      <!-- 2 -->
      <g transform="translate(621.799072 403.918437) scale(0.1 -0.1)">
       <use xlink:href="#DejaVuSans-32"/>
      </g>
     </g>
    </g>
    <g id="xtick_10">
     <g id="line2d_17">
      <g>
       <use xlink:href="#m87123e6524" x="694.383951" y="389.32" style="stroke: #000000; stroke-width: 0.8"/>
      </g>
     </g>
     <g id="text_20">
      <!-- 4 -->
      <g transform="translate(691.202701 403.918437) scale(0.1 -0.1)">
       <use xlink:href="#DejaVuSans-34"/>
      </g>
     </g>
    </g>
    <g id="xtick_11">
     <g id="line2d_18">
      <g>
       <use xlink:href="#m87123e6524" x="763.78758" y="389.32" style="stroke: #000000; stroke-width: 0.8"/>
      </g>
     </g>
     <g id="text_21">
      <!-- 6 -->
      <g transform="translate(760.60633 403.918437) scale(0.1 -0.1)">
       <use xlink:href="#DejaVuSans-36"/>
      </g>
     </g>
    </g>
    <g id="xtick_12">
     <g id="line2d_19">
      <g>
       <use xlink:href="#m87123e6524" x="833.191208" y="389.32" style="stroke: #000000; stroke-width: 0.8"/>
      </g>
     </g>
     <g id="text_22">
      <!-- 8 -->
      <g transform="translate(830.009958 403.918437) scale(0.1 -0.1)">
       <use xlink:href="#DejaVuSans-38"/>
      </g>
     </g>
    </g>
    <g id="text_23">
     <!-- Predicted Fluorescence -->
     <g transform="translate(594.56875 419.11625) scale(0.12 -0.12)">
      <use xlink:href="#DejaVuSans-50"/>
      <use xlink:href="#DejaVuSans-72" x="58.552734"/>
      <use xlink:href="#DejaVuSans-65" x="97.416016"/>
      <use xlink:href="#DejaVuSans-64" x="158.939453"/>
      <use xlink:href="#DejaVuSans-69" x="222.416016"/>
      <use xlink:href="#DejaVuSans-63" x="250.199219"/>
      <use xlink:href="#DejaVuSans-74" x="305.179688"/>
      <use xlink:href="#DejaVuSans-65" x="344.388672"/>
      <use xlink:href="#DejaVuSans-64" x="405.912109"/>
      <use xlink:href="#DejaVuSans-20" x="469.388672"/>
      <use xlink:href="#DejaVuSans-46" x="501.175781"/>
      <use xlink:href="#DejaVuSans-6c" x="558.695312"/>
      <use xlink:href="#DejaVuSans-75" x="586.478516"/>
      <use xlink:href="#DejaVuSans-6f" x="649.857422"/>
      <use xlink:href="#DejaVuSans-72" x="711.039062"/>
      <use xlink:href="#DejaVuSans-65" x="749.902344"/>
      <use xlink:href="#DejaVuSans-73" x="811.425781"/>
      <use xlink:href="#DejaVuSans-63" x="863.525391"/>
      <use xlink:href="#DejaVuSans-65" x="918.505859"/>
      <use xlink:href="#DejaVuSans-6e" x="980.029297"/>
      <use xlink:href="#DejaVuSans-63" x="1043.408203"/>
      <use xlink:href="#DejaVuSans-65" x="1098.388672"/>
     </g>
    </g>
   </g>
   <g id="matplotlib.axis_4">
    <g id="ytick_7">
     <g id="line2d_20">
      <g>
       <use xlink:href="#mec59b142e0" x="475.13" y="389.32" style="stroke: #000000; stroke-width: 0.8"/>
      </g>
     </g>
     <g id="text_24">
      <!-- 0.0 -->
      <g transform="translate(452.226875 393.119219) scale(0.1 -0.1)">
       <use xlink:href="#DejaVuSans-30"/>
       <use xlink:href="#DejaVuSans-2e" x="63.623047"/>
       <use xlink:href="#DejaVuSans-30" x="95.410156"/>
      </g>
     </g>
    </g>
    <g id="ytick_8">
     <g id="line2d_21">
      <g>
       <use xlink:href="#mec59b142e0" x="475.13" y="314.408" style="stroke: #000000; stroke-width: 0.8"/>
      </g>
     </g>
     <g id="text_25">
      <!-- 0.2 -->
      <g transform="translate(452.226875 318.207219) scale(0.1 -0.1)">
       <use xlink:href="#DejaVuSans-30"/>
       <use xlink:href="#DejaVuSans-2e" x="63.623047"/>
       <use xlink:href="#DejaVuSans-32" x="95.410156"/>
      </g>
     </g>
    </g>
    <g id="ytick_9">
     <g id="line2d_22">
      <g>
       <use xlink:href="#mec59b142e0" x="475.13" y="239.496" style="stroke: #000000; stroke-width: 0.8"/>
      </g>
     </g>
     <g id="text_26">
      <!-- 0.4 -->
      <g transform="translate(452.226875 243.295219) scale(0.1 -0.1)">
       <use xlink:href="#DejaVuSans-30"/>
       <use xlink:href="#DejaVuSans-2e" x="63.623047"/>
       <use xlink:href="#DejaVuSans-34" x="95.410156"/>
      </g>
     </g>
    </g>
    <g id="ytick_10">
     <g id="line2d_23">
      <g>
       <use xlink:href="#mec59b142e0" x="475.13" y="164.584" style="stroke: #000000; stroke-width: 0.8"/>
      </g>
     </g>
     <g id="text_27">
      <!-- 0.6 -->
      <g transform="translate(452.226875 168.383219) scale(0.1 -0.1)">
       <use xlink:href="#DejaVuSans-30"/>
       <use xlink:href="#DejaVuSans-2e" x="63.623047"/>
       <use xlink:href="#DejaVuSans-36" x="95.410156"/>
      </g>
     </g>
    </g>
    <g id="ytick_11">
     <g id="line2d_24">
      <g>
       <use xlink:href="#mec59b142e0" x="475.13" y="89.672" style="stroke: #000000; stroke-width: 0.8"/>
      </g>
     </g>
     <g id="text_28">
      <!-- 0.8 -->
      <g transform="translate(452.226875 93.471219) scale(0.1 -0.1)">
       <use xlink:href="#DejaVuSans-30"/>
       <use xlink:href="#DejaVuSans-2e" x="63.623047"/>
       <use xlink:href="#DejaVuSans-38" x="95.410156"/>
      </g>
     </g>
    </g>
    <g id="ytick_12">
     <g id="line2d_25">
      <g>
       <use xlink:href="#mec59b142e0" x="475.13" y="14.76" style="stroke: #000000; stroke-width: 0.8"/>
      </g>
     </g>
     <g id="text_29">
      <!-- 1.0 -->
      <g transform="translate(452.226875 18.559219) scale(0.1 -0.1)">
       <use xlink:href="#DejaVuSans-31"/>
       <use xlink:href="#DejaVuSans-2e" x="63.623047"/>
       <use xlink:href="#DejaVuSans-30" x="95.410156"/>
      </g>
     </g>
    </g>
    <g id="text_30">
     <!-- Cumulative Density -->
     <g transform="translate(445.73125 261.002187) rotate(-90) scale(0.12 -0.12)">
      <defs>
       <path id="DejaVuSans-43" d="M 4122 4306 
L 4122 3641 
Q 3803 3938 3442 4084 
Q 3081 4231 2675 4231 
Q 1875 4231 1450 3742 
Q 1025 3253 1025 2328 
Q 1025 1406 1450 917 
Q 1875 428 2675 428 
Q 3081 428 3442 575 
Q 3803 722 4122 1019 
L 4122 359 
Q 3791 134 3420 21 
Q 3050 -91 2638 -91 
Q 1578 -91 968 557 
Q 359 1206 359 2328 
Q 359 3453 968 4101 
Q 1578 4750 2638 4750 
Q 3056 4750 3426 4639 
Q 3797 4528 4122 4306 
z
" transform="scale(0.015625)"/>
       <path id="DejaVuSans-6d" d="M 3328 2828 
Q 3544 3216 3844 3400 
Q 4144 3584 4550 3584 
Q 5097 3584 5394 3201 
Q 5691 2819 5691 2113 
L 5691 0 
L 5113 0 
L 5113 2094 
Q 5113 2597 4934 2840 
Q 4756 3084 4391 3084 
Q 3944 3084 3684 2787 
Q 3425 2491 3425 1978 
L 3425 0 
L 2847 0 
L 2847 2094 
Q 2847 2600 2669 2842 
Q 2491 3084 2119 3084 
Q 1678 3084 1418 2786 
Q 1159 2488 1159 1978 
L 1159 0 
L 581 0 
L 581 3500 
L 1159 3500 
L 1159 2956 
Q 1356 3278 1631 3431 
Q 1906 3584 2284 3584 
Q 2666 3584 2933 3390 
Q 3200 3197 3328 2828 
z
" transform="scale(0.015625)"/>
       <path id="DejaVuSans-76" d="M 191 3500 
L 800 3500 
L 1894 563 
L 2988 3500 
L 3597 3500 
L 2284 0 
L 1503 0 
L 191 3500 
z
" transform="scale(0.015625)"/>
      </defs>
      <use xlink:href="#DejaVuSans-43"/>
      <use xlink:href="#DejaVuSans-75" x="69.824219"/>
      <use xlink:href="#DejaVuSans-6d" x="133.203125"/>
      <use xlink:href="#DejaVuSans-75" x="230.615234"/>
      <use xlink:href="#DejaVuSans-6c" x="293.994141"/>
      <use xlink:href="#DejaVuSans-61" x="321.777344"/>
      <use xlink:href="#DejaVuSans-74" x="383.056641"/>
      <use xlink:href="#DejaVuSans-69" x="422.265625"/>
      <use xlink:href="#DejaVuSans-76" x="450.048828"/>
      <use xlink:href="#DejaVuSans-65" x="509.228516"/>
      <use xlink:href="#DejaVuSans-20" x="570.751953"/>
      <use xlink:href="#DejaVuSans-44" x="602.539062"/>
      <use xlink:href="#DejaVuSans-65" x="679.541016"/>
      <use xlink:href="#DejaVuSans-6e" x="741.064453"/>
      <use xlink:href="#DejaVuSans-73" x="804.443359"/>
      <use xlink:href="#DejaVuSans-69" x="856.542969"/>
      <use xlink:href="#DejaVuSans-74" x="884.326172"/>
      <use xlink:href="#DejaVuSans-79" x="923.535156"/>
     </g>
    </g>
   </g>
   <g id="line2d_26">
    <path d="M 494.050091 14.76 
L 494.050091 18.5056 
L 506.806332 18.5056 
L 506.806332 22.2512 
L 508.829026 22.2512 
L 508.829026 25.9968 
L 512.605144 25.9968 
L 512.605144 29.7424 
L 513.171097 29.7424 
L 513.171097 33.488 
L 520.599489 33.488 
L 520.599489 37.2336 
L 520.778897 37.2336 
L 520.778897 40.9792 
L 523.428578 40.9792 
L 523.428578 44.7248 
L 523.926487 44.7248 
L 523.926487 48.4704 
L 524.522161 48.4704 
L 524.522161 52.216 
L 535.314108 52.216 
L 535.314108 55.9616 
L 537.507997 55.9616 
L 537.507997 59.7072 
L 538.060513 59.7072 
L 538.060513 63.4528 
L 540.988608 63.4528 
L 540.988608 67.1984 
L 541.526848 67.1984 
L 541.526848 70.944 
L 542.488012 70.944 
L 542.488012 74.6896 
L 542.827487 74.6896 
L 542.827487 78.4352 
L 544.134736 78.4352 
L 544.238947 85.9264 
L 545.296773 85.9264 
L 545.296773 89.672 
L 545.818208 89.672 
L 545.818208 93.4176 
L 545.9912 93.4176 
L 545.9912 97.1632 
L 546.257834 97.1632 
L 546.299521 104.6544 
L 548.751309 104.6544 
L 548.751309 108.4 
L 549.415702 108.4 
L 549.415702 112.1456 
L 551.428552 112.1456 
L 551.428552 115.8912 
L 552.073893 115.8912 
L 552.073893 119.6368 
L 552.281089 119.6368 
L 552.310615 127.128 
L 553.920555 127.128 
L 553.920555 130.8736 
L 555.302446 130.8736 
L 555.302446 134.6192 
L 555.550964 134.6192 
L 555.550964 138.3648 
L 555.896523 138.3648 
L 555.896523 142.1104 
L 556.774258 142.1104 
L 556.774258 145.856 
L 556.923499 145.856 
L 556.923499 149.6016 
L 557.257866 149.6016 
L 557.257866 153.3472 
L 559.078375 153.3472 
L 559.078375 157.0928 
L 559.610378 157.0928 
L 559.610378 160.8384 
L 559.739621 160.8384 
L 559.739621 164.584 
L 560.002928 164.584 
L 560.002928 168.3296 
L 561.081033 168.3296 
L 561.081033 172.0752 
L 561.205398 172.0752 
L 561.205398 175.8208 
L 562.28388 175.8208 
L 562.28388 179.5664 
L 563.727498 179.5664 
L 563.727498 183.312 
L 564.042453 183.312 
L 564.042453 187.0576 
L 564.166206 187.0576 
L 564.166206 190.8032 
L 565.689191 190.8032 
L 565.689191 194.5488 
L 567.868388 194.5488 
L 567.868388 198.2944 
L 568.857666 198.2944 
L 568.857666 202.04 
L 569.645197 202.04 
L 569.645197 205.7856 
L 570.527801 205.7856 
L 570.527801 209.5312 
L 570.676715 209.5312 
L 570.676715 213.2768 
L 575.071275 213.2768 
L 575.174765 220.768 
L 575.929388 220.768 
L 576.03653 228.2592 
L 576.585282 228.2592 
L 576.585282 232.0048 
L 577.954078 232.0048 
L 577.954078 235.7504 
L 578.813703 235.7504 
L 578.813703 239.496 
L 578.93714 239.496 
L 578.93714 243.2416 
L 579.759544 243.2416 
L 579.860661 250.7328 
L 580.061864 250.7328 
L 580.061864 254.4784 
L 581.176966 254.4784 
L 581.219835 261.9696 
L 581.352134 261.9696 
L 581.352134 265.7152 
L 582.829874 265.7152 
L 582.829874 269.4608 
L 583.405825 269.4608 
L 583.405825 273.2064 
L 584.50483 273.2064 
L 584.50483 276.952 
L 588.822833 276.952 
L 588.822833 280.6976 
L 589.738976 280.6976 
L 589.738976 284.4432 
L 590.177525 284.4432 
L 590.177525 288.1888 
L 590.479158 288.1888 
L 590.479158 291.9344 
L 592.146718 291.9344 
L 592.146718 295.68 
L 596.8875 295.68 
L 596.8875 299.4256 
L 597.234319 299.4256 
L 597.234319 303.1712 
L 597.598256 303.1712 
L 597.640393 310.6624 
L 598.813 310.6624 
L 598.813 314.408 
L 600.849735 314.408 
L 600.849735 318.1536 
L 601.942329 318.1536 
L 601.942329 321.8992 
L 602.302237 321.8992 
L 602.302237 325.6448 
L 603.014375 325.6448 
L 603.014375 329.3904 
L 604.208059 329.3904 
L 604.23901 336.8816 
L 606.08111 336.8816 
L 606.08111 340.6272 
L 606.320339 340.6272 
L 606.320339 344.3728 
L 606.936802 344.3728 
L 606.936802 348.1184 
L 608.024295 348.1184 
L 608.024295 351.864 
L 608.219965 351.864 
L 608.219965 355.6096 
L 610.669943 355.6096 
L 610.669943 359.3552 
L 615.034306 359.3552 
L 615.034306 363.1008 
L 618.712155 363.1008 
L 618.712155 366.8464 
L 622.302544 366.8464 
L 622.302544 370.592 
L 622.447554 370.592 
L 622.447554 374.3376 
L 623.317122 374.3376 
L 623.317122 378.0832 
L 632.890596 378.0832 
L 632.890596 381.8288 
L 638.877209 381.8288 
L 638.877209 385.5744 
L 654.049813 385.5744 
L 654.049813 389.32 
L 654.049813 389.32 
" clip-path="url(#p382d9a8016)" style="fill: none; stroke: #808080; stroke-width: 1.5; stroke-linecap: square"/>
   </g>
   <g id="line2d_27">
    <path d="M 718.761656 14.76 
L 718.761656 18.5056 
L 719.217827 18.5056 
L 719.217827 22.2512 
L 722.607206 22.2512 
L 722.607206 25.9968 
L 725.120828 25.9968 
L 725.120828 29.7424 
L 725.373255 29.7424 
L 725.373255 33.488 
L 727.341368 33.488 
L 727.341368 37.2336 
L 730.326369 37.2336 
L 730.326369 40.9792 
L 734.794917 40.9792 
L 734.794917 44.7248 
L 734.971475 44.7248 
L 734.971475 48.4704 
L 736.252585 48.4704 
L 736.252585 52.216 
L 738.584934 52.216 
L 738.584934 55.9616 
L 738.781845 55.9616 
L 738.781845 59.7072 
L 738.941425 59.7072 
L 738.941425 63.4528 
L 739.495241 63.4528 
L 739.495241 67.1984 
L 740.681073 67.1984 
L 740.681073 70.944 
L 741.434149 70.944 
L 741.478098 78.4352 
L 742.387527 78.4352 
L 742.387527 82.1808 
L 742.554091 82.1808 
L 742.554091 85.9264 
L 742.680113 85.9264 
L 742.680113 89.672 
L 744.58184 89.672 
L 744.661432 97.1632 
L 745.127316 97.1632 
L 745.213774 104.6544 
L 745.60556 104.6544 
L 745.60556 108.4 
L 746.222321 108.4 
L 746.245636 115.8912 
L 746.699027 115.8912 
L 746.77056 123.3824 
L 747.052324 123.3824 
L 747.052324 127.128 
L 747.809818 127.128 
L 747.914164 134.6192 
L 749.561099 134.6192 
L 749.561099 138.3648 
L 749.82716 138.3648 
L 749.82716 142.1104 
L 749.998191 142.1104 
L 749.998191 145.856 
L 750.330242 145.856 
L 750.330242 149.6016 
L 750.568735 149.6016 
L 750.612138 157.0928 
L 750.9634 157.0928 
L 751.030085 164.584 
L 751.75465 164.584 
L 751.75465 168.3296 
L 751.890899 168.3296 
L 751.890899 172.0752 
L 752.222603 172.0752 
L 752.222603 175.8208 
L 753.868842 175.8208 
L 753.868842 179.5664 
L 754.042984 179.5664 
L 754.042984 183.312 
L 754.429045 183.312 
L 754.429045 187.0576 
L 754.6036 187.0576 
L 754.6036 190.8032 
L 755.590718 190.8032 
L 755.590718 194.5488 
L 755.713796 194.5488 
L 755.713796 198.2944 
L 756.083375 198.2944 
L 756.083375 202.04 
L 756.558311 202.04 
L 756.558311 205.7856 
L 756.84681 205.7856 
L 756.920759 220.768 
L 757.612958 220.768 
L 757.612958 224.5136 
L 758.875304 224.5136 
L 758.980113 232.0048 
L 759.020058 232.0048 
L 759.093924 239.496 
L 759.430559 239.496 
L 759.430559 243.2416 
L 761.418231 243.2416 
L 761.418231 246.9872 
L 761.826151 246.9872 
L 761.826151 250.7328 
L 762.278019 250.7328 
L 762.278019 254.4784 
L 762.490683 254.4784 
L 762.490683 258.224 
L 763.924689 258.224 
L 763.986774 265.7152 
L 764.311825 265.7152 
L 764.311825 269.4608 
L 765.575992 269.4608 
L 765.575992 273.2064 
L 765.962963 273.2064 
L 765.997778 280.6976 
L 766.77953 280.6976 
L 766.77953 284.4432 
L 767.384078 284.4432 
L 767.384078 288.1888 
L 768.238588 288.1888 
L 768.238588 291.9344 
L 769.31334 291.9344 
L 769.320041 299.4256 
L 769.672329 299.4256 
L 769.672329 303.1712 
L 769.950354 303.1712 
L 769.950354 306.9168 
L 770.201076 306.9168 
L 770.201076 310.6624 
L 771.499793 310.6624 
L 771.499793 314.408 
L 774.167287 314.408 
L 774.167287 318.1536 
L 774.861504 318.1536 
L 774.861504 321.8992 
L 775.057687 321.8992 
L 775.057687 325.6448 
L 776.313414 325.6448 
L 776.313414 329.3904 
L 777.38249 329.3904 
L 777.460924 336.8816 
L 777.759334 336.8816 
L 777.759334 340.6272 
L 777.881783 340.6272 
L 777.881783 344.3728 
L 780.063719 344.3728 
L 780.063719 348.1184 
L 781.505171 348.1184 
L 781.505171 351.864 
L 781.709296 351.864 
L 781.709296 355.6096 
L 782.926733 355.6096 
L 782.926733 359.3552 
L 789.200241 359.3552 
L 789.200241 363.1008 
L 789.385701 363.1008 
L 789.385701 366.8464 
L 792.868852 366.8464 
L 792.868852 370.592 
L 797.073424 370.592 
L 797.073424 374.3376 
L 797.797493 374.3376 
L 797.797493 378.0832 
L 801.653666 378.0832 
L 801.653666 381.8288 
L 831.274358 381.8288 
L 831.274358 385.5744 
L 834.279909 385.5744 
L 834.279909 389.32 
L 834.279909 389.32 
" clip-path="url(#p382d9a8016)" style="fill: none; stroke: #ffff00; stroke-width: 1.5; stroke-linecap: square"/>
   </g>
   <g id="line2d_28">
    <path d="M 595.476839 389.32 
L 595.476839 14.76 
" clip-path="url(#p382d9a8016)" style="fill: none; stroke-dasharray: 11.1,4.8; stroke-dashoffset: 0; stroke: #ffa500; stroke-width: 3"/>
   </g>
   <g id="patch_63">
    <path d="M 475.13 389.32 
L 475.13 14.76 
" style="fill: none; stroke: #000000; stroke-width: 0.8; stroke-linejoin: miter; stroke-linecap: square"/>
   </g>
   <g id="patch_64">
    <path d="M 475.13 389.32 
L 853.2 389.32 
" style="fill: none; stroke: #000000; stroke-width: 0.8; stroke-linejoin: miter; stroke-linecap: square"/>
   </g>
   <g id="legend_2">
    <g id="patch_65">
     <path d="M 590.810937 66.794375 
L 846.2 66.794375 
Q 848.2 66.794375 848.2 64.794375 
L 848.2 21.76 
Q 848.2 19.76 846.2 19.76 
L 590.810937 19.76 
Q 588.810937 19.76 588.810937 21.76 
L 588.810937 64.794375 
Q 588.810937 66.794375 590.810937 66.794375 
z
" style="fill: #ffffff; opacity: 0.8; stroke: #000000; stroke-linejoin: miter"/>
    </g>
    <g id="patch_66">
     <path d="M 592.810937 31.358438 
L 612.810937 31.358438 
L 612.810937 24.358438 
L 592.810937 24.358438 
z
" style="fill: #ff0000; opacity: 0.8; stroke: #ff0000; stroke-linejoin: miter"/>
    </g>
    <g id="text_31">
     <!-- Less than Predicted WT Log Fluorescence -->
     <g transform="translate(620.810937 31.358438) scale(0.1 -0.1)">
      <defs>
       <path id="DejaVuSans-4c" d="M 628 4666 
L 1259 4666 
L 1259 531 
L 3531 531 
L 3531 0 
L 628 0 
L 628 4666 
z
" transform="scale(0.015625)"/>
       <path id="DejaVuSans-68" d="M 3513 2113 
L 3513 0 
L 2938 0 
L 2938 2094 
Q 2938 2591 2744 2837 
Q 2550 3084 2163 3084 
Q 1697 3084 1428 2787 
Q 1159 2491 1159 1978 
L 1159 0 
L 581 0 
L 581 4863 
L 1159 4863 
L 1159 2956 
Q 1366 3272 1645 3428 
Q 1925 3584 2291 3584 
Q 2894 3584 3203 3211 
Q 3513 2838 3513 2113 
z
" transform="scale(0.015625)"/>
       <path id="DejaVuSans-57" d="M 213 4666 
L 850 4666 
L 1831 722 
L 2809 4666 
L 3519 4666 
L 4500 722 
L 5478 4666 
L 6119 4666 
L 4947 0 
L 4153 0 
L 3169 4050 
L 2175 0 
L 1381 0 
L 213 4666 
z
" transform="scale(0.015625)"/>
       <path id="DejaVuSans-67" d="M 2906 1791 
Q 2906 2416 2648 2759 
Q 2391 3103 1925 3103 
Q 1463 3103 1205 2759 
Q 947 2416 947 1791 
Q 947 1169 1205 825 
Q 1463 481 1925 481 
Q 2391 481 2648 825 
Q 2906 1169 2906 1791 
z
M 3481 434 
Q 3481 -459 3084 -895 
Q 2688 -1331 1869 -1331 
Q 1566 -1331 1297 -1286 
Q 1028 -1241 775 -1147 
L 775 -588 
Q 1028 -725 1275 -790 
Q 1522 -856 1778 -856 
Q 2344 -856 2625 -561 
Q 2906 -266 2906 331 
L 2906 616 
Q 2728 306 2450 153 
Q 2172 0 1784 0 
Q 1141 0 747 490 
Q 353 981 353 1791 
Q 353 2603 747 3093 
Q 1141 3584 1784 3584 
Q 2172 3584 2450 3431 
Q 2728 3278 2906 2969 
L 2906 3500 
L 3481 3500 
L 3481 434 
z
" transform="scale(0.015625)"/>
      </defs>
      <use xlink:href="#DejaVuSans-4c"/>
      <use xlink:href="#DejaVuSans-65" x="53.962891"/>
      <use xlink:href="#DejaVuSans-73" x="115.486328"/>
      <use xlink:href="#DejaVuSans-73" x="167.585938"/>
      <use xlink:href="#DejaVuSans-20" x="219.685547"/>
      <use xlink:href="#DejaVuSans-74" x="251.472656"/>
      <use xlink:href="#DejaVuSans-68" x="290.681641"/>
      <use xlink:href="#DejaVuSans-61" x="354.060547"/>
      <use xlink:href="#DejaVuSans-6e" x="415.339844"/>
      <use xlink:href="#DejaVuSans-20" x="478.71875"/>
      <use xlink:href="#DejaVuSans-50" x="510.505859"/>
      <use xlink:href="#DejaVuSans-72" x="569.058594"/>
      <use xlink:href="#DejaVuSans-65" x="607.921875"/>
      <use xlink:href="#DejaVuSans-64" x="669.445312"/>
      <use xlink:href="#DejaVuSans-69" x="732.921875"/>
      <use xlink:href="#DejaVuSans-63" x="760.705078"/>
      <use xlink:href="#DejaVuSans-74" x="815.685547"/>
      <use xlink:href="#DejaVuSans-65" x="854.894531"/>
      <use xlink:href="#DejaVuSans-64" x="916.417969"/>
      <use xlink:href="#DejaVuSans-20" x="979.894531"/>
      <use xlink:href="#DejaVuSans-57" x="1011.681641"/>
      <use xlink:href="#DejaVuSans-54" x="1110.558594"/>
      <use xlink:href="#DejaVuSans-20" x="1171.642578"/>
      <use xlink:href="#DejaVuSans-4c" x="1203.429688"/>
      <use xlink:href="#DejaVuSans-6f" x="1257.392578"/>
      <use xlink:href="#DejaVuSans-67" x="1318.574219"/>
      <use xlink:href="#DejaVuSans-20" x="1382.050781"/>
      <use xlink:href="#DejaVuSans-46" x="1413.837891"/>
      <use xlink:href="#DejaVuSans-6c" x="1471.357422"/>
      <use xlink:href="#DejaVuSans-75" x="1499.140625"/>
      <use xlink:href="#DejaVuSans-6f" x="1562.519531"/>
      <use xlink:href="#DejaVuSans-72" x="1623.701172"/>
      <use xlink:href="#DejaVuSans-65" x="1662.564453"/>
      <use xlink:href="#DejaVuSans-73" x="1724.087891"/>
      <use xlink:href="#DejaVuSans-63" x="1776.1875"/>
      <use xlink:href="#DejaVuSans-65" x="1831.167969"/>
      <use xlink:href="#DejaVuSans-6e" x="1892.691406"/>
      <use xlink:href="#DejaVuSans-63" x="1956.070312"/>
      <use xlink:href="#DejaVuSans-65" x="2011.050781"/>
     </g>
    </g>
    <g id="patch_67">
     <path d="M 592.810937 46.036563 
L 612.810937 46.036563 
L 612.810937 39.036563 
L 592.810937 39.036563 
z
" style="fill: #ffa500; opacity: 0.8; stroke: #ffa500; stroke-linejoin: miter"/>
    </g>
    <g id="text_32">
     <!-- Predicted WT Log Fluorescence -->
     <g transform="translate(620.810937 46.036563) scale(0.1 -0.1)">
      <use xlink:href="#DejaVuSans-50"/>
      <use xlink:href="#DejaVuSans-72" x="58.552734"/>
      <use xlink:href="#DejaVuSans-65" x="97.416016"/>
      <use xlink:href="#DejaVuSans-64" x="158.939453"/>
      <use xlink:href="#DejaVuSans-69" x="222.416016"/>
      <use xlink:href="#DejaVuSans-63" x="250.199219"/>
      <use xlink:href="#DejaVuSans-74" x="305.179688"/>
      <use xlink:href="#DejaVuSans-65" x="344.388672"/>
      <use xlink:href="#DejaVuSans-64" x="405.912109"/>
      <use xlink:href="#DejaVuSans-20" x="469.388672"/>
      <use xlink:href="#DejaVuSans-57" x="501.175781"/>
      <use xlink:href="#DejaVuSans-54" x="600.052734"/>
      <use xlink:href="#DejaVuSans-20" x="661.136719"/>
      <use xlink:href="#DejaVuSans-4c" x="692.923828"/>
      <use xlink:href="#DejaVuSans-6f" x="746.886719"/>
      <use xlink:href="#DejaVuSans-67" x="808.068359"/>
      <use xlink:href="#DejaVuSans-20" x="871.544922"/>
      <use xlink:href="#DejaVuSans-46" x="903.332031"/>
      <use xlink:href="#DejaVuSans-6c" x="960.851562"/>
      <use xlink:href="#DejaVuSans-75" x="988.634766"/>
      <use xlink:href="#DejaVuSans-6f" x="1052.013672"/>
      <use xlink:href="#DejaVuSans-72" x="1113.195312"/>
      <use xlink:href="#DejaVuSans-65" x="1152.058594"/>
      <use xlink:href="#DejaVuSans-73" x="1213.582031"/>
      <use xlink:href="#DejaVuSans-63" x="1265.681641"/>
      <use xlink:href="#DejaVuSans-65" x="1320.662109"/>
      <use xlink:href="#DejaVuSans-6e" x="1382.185547"/>
      <use xlink:href="#DejaVuSans-63" x="1445.564453"/>
      <use xlink:href="#DejaVuSans-65" x="1500.544922"/>
     </g>
    </g>
    <g id="patch_68">
     <path d="M 592.810937 60.714688 
L 612.810937 60.714688 
L 612.810937 53.714688 
L 592.810937 53.714688 
z
" style="fill: #008000; opacity: 0.8; stroke: #008000; stroke-linejoin: miter"/>
    </g>
    <g id="text_33">
     <!-- Greater than Predicted WT Log Fluorescence -->
     <g transform="translate(620.810937 60.714688) scale(0.1 -0.1)">
      <defs>
       <path id="DejaVuSans-47" d="M 3809 666 
L 3809 1919 
L 2778 1919 
L 2778 2438 
L 4434 2438 
L 4434 434 
Q 4069 175 3628 42 
Q 3188 -91 2688 -91 
Q 1594 -91 976 548 
Q 359 1188 359 2328 
Q 359 3472 976 4111 
Q 1594 4750 2688 4750 
Q 3144 4750 3555 4637 
Q 3966 4525 4313 4306 
L 4313 3634 
Q 3963 3931 3569 4081 
Q 3175 4231 2741 4231 
Q 1884 4231 1454 3753 
Q 1025 3275 1025 2328 
Q 1025 1384 1454 906 
Q 1884 428 2741 428 
Q 3075 428 3337 486 
Q 3600 544 3809 666 
z
" transform="scale(0.015625)"/>
      </defs>
      <use xlink:href="#DejaVuSans-47"/>
      <use xlink:href="#DejaVuSans-72" x="77.490234"/>
      <use xlink:href="#DejaVuSans-65" x="116.353516"/>
      <use xlink:href="#DejaVuSans-61" x="177.876953"/>
      <use xlink:href="#DejaVuSans-74" x="239.15625"/>
      <use xlink:href="#DejaVuSans-65" x="278.365234"/>
      <use xlink:href="#DejaVuSans-72" x="339.888672"/>
      <use xlink:href="#DejaVuSans-20" x="381.001953"/>
      <use xlink:href="#DejaVuSans-74" x="412.789062"/>
      <use xlink:href="#DejaVuSans-68" x="451.998047"/>
      <use xlink:href="#DejaVuSans-61" x="515.376953"/>
      <use xlink:href="#DejaVuSans-6e" x="576.65625"/>
      <use xlink:href="#DejaVuSans-20" x="640.035156"/>
      <use xlink:href="#DejaVuSans-50" x="671.822266"/>
      <use xlink:href="#DejaVuSans-72" x="730.375"/>
      <use xlink:href="#DejaVuSans-65" x="769.238281"/>
      <use xlink:href="#DejaVuSans-64" x="830.761719"/>
      <use xlink:href="#DejaVuSans-69" x="894.238281"/>
      <use xlink:href="#DejaVuSans-63" x="922.021484"/>
      <use xlink:href="#DejaVuSans-74" x="977.001953"/>
      <use xlink:href="#DejaVuSans-65" x="1016.210938"/>
      <use xlink:href="#DejaVuSans-64" x="1077.734375"/>
      <use xlink:href="#DejaVuSans-20" x="1141.210938"/>
      <use xlink:href="#DejaVuSans-57" x="1172.998047"/>
      <use xlink:href="#DejaVuSans-54" x="1271.875"/>
      <use xlink:href="#DejaVuSans-20" x="1332.958984"/>
      <use xlink:href="#DejaVuSans-4c" x="1364.746094"/>
      <use xlink:href="#DejaVuSans-6f" x="1418.708984"/>
      <use xlink:href="#DejaVuSans-67" x="1479.890625"/>
      <use xlink:href="#DejaVuSans-20" x="1543.367188"/>
      <use xlink:href="#DejaVuSans-46" x="1575.154297"/>
      <use xlink:href="#DejaVuSans-6c" x="1632.673828"/>
      <use xlink:href="#DejaVuSans-75" x="1660.457031"/>
      <use xlink:href="#DejaVuSans-6f" x="1723.835938"/>
      <use xlink:href="#DejaVuSans-72" x="1785.017578"/>
      <use xlink:href="#DejaVuSans-65" x="1823.880859"/>
      <use xlink:href="#DejaVuSans-73" x="1885.404297"/>
      <use xlink:href="#DejaVuSans-63" x="1937.503906"/>
      <use xlink:href="#DejaVuSans-65" x="1992.484375"/>
      <use xlink:href="#DejaVuSans-6e" x="2054.007812"/>
      <use xlink:href="#DejaVuSans-63" x="2117.386719"/>
      <use xlink:href="#DejaVuSans-65" x="2172.367188"/>
     </g>
    </g>
   </g>
  </g>
 </g>
 <defs>
  <clipPath id="p40ff91e05e">
   <rect x="48.53" y="14.76" width="378.07" height="374.56"/>
  </clipPath>
  <clipPath id="p382d9a8016">
   <rect x="475.13" y="14.76" width="378.07" height="374.56"/>
  </clipPath>
 </defs>
</svg>
