<?xml version="1.0" encoding="utf-8" standalone="no"?>
<!DOCTYPE svg PUBLIC "-//W3C//DTD SVG 1.1//EN"
  "http://www.w3.org/Graphics/SVG/1.1/DTD/svg11.dtd">
<svg xmlns:xlink="http://www.w3.org/1999/xlink" width="864pt" height="432pt" viewBox="0 0 864 432" xmlns="http://www.w3.org/2000/svg" version="1.1">
 <metadata>
  <rdf:RDF xmlns:dc="http://purl.org/dc/elements/1.1/" xmlns:cc="http://creativecommons.org/ns#" xmlns:rdf="http://www.w3.org/1999/02/22-rdf-syntax-ns#">
   <cc:Work>
    <dc:type rdf:resource="http://purl.org/dc/dcmitype/StillImage"/>
    <dc:date>2025-03-26T13:54:20.039928</dc:date>
    <dc:format>image/svg+xml</dc:format>
    <dc:creator>
     <cc:Agent>
      <dc:title>Matplotlib v3.8.0, https://matplotlib.org/</dc:title>
     </cc:Agent>
    </dc:creator>
   </cc:Work>
  </rdf:RDF>
 </metadata>
 <defs>
  <style type="text/css">*{stroke-linejoin: round; stroke-linecap: butt}</style>
 </defs>
 <g id="figure_1">
  <g id="patch_1">
   <path d="M 0 432 
L 864 432 
L 864 0 
L 0 0 
z
" style="fill: #ffffff"/>
  </g>
  <g id="axes_1">
   <g id="patch_2">
    <path d="M 48.53 389.32 
L 426.6 389.32 
L 426.6 14.76 
L 48.53 14.76 
z
" style="fill: #ffffff"/>
   </g>
   <g id="patch_3">
    <path d="M 65.715 389.32 
L 65.715 14.76 
L 145.404813 14.76 
L 145.404813 389.32 
z
" clip-path="url(#p955288e209)" style="fill: #ff0000; opacity: 0.1; stroke: #ff0000; stroke-linejoin: miter"/>
   </g>
   <g id="patch_4">
    <path d="M 145.404813 389.32 
L 145.404813 14.76 
L 409.415 14.76 
L 409.415 389.32 
z
" clip-path="url(#p955288e209)" style="fill: #008000; opacity: 0.1; stroke: #008000; stroke-linejoin: miter"/>
   </g>
   <g id="patch_5">
    <path d="M 66.744955 389.32 
L 73.519501 389.32 
L 73.519501 343.394034 
L 66.744955 343.394034 
z
" clip-path="url(#p955288e209)" style="fill: #808080; fill-opacity: 0.4; stroke: #000000; stroke-linejoin: miter"/>
   </g>
   <g id="patch_6">
    <path d="M 73.519501 389.32 
L 80.294047 389.32 
L 80.294047 366.357017 
L 73.519501 366.357017 
z
" clip-path="url(#p955288e209)" style="fill: #808080; fill-opacity: 0.4; stroke: #000000; stroke-linejoin: miter"/>
   </g>
   <g id="patch_7">
    <path d="M 80.294047 389.32 
L 87.068593 389.32 
L 87.068593 343.394034 
L 80.294047 343.394034 
z
" clip-path="url(#p955288e209)" style="fill: #808080; fill-opacity: 0.4; stroke: #000000; stroke-linejoin: miter"/>
   </g>
   <g id="patch_8">
    <path d="M 87.068593 389.32 
L 93.84314 389.32 
L 93.84314 320.431052 
L 87.068593 320.431052 
z
" clip-path="url(#p955288e209)" style="fill: #808080; fill-opacity: 0.4; stroke: #000000; stroke-linejoin: miter"/>
   </g>
   <g id="patch_9">
    <path d="M 93.84314 389.32 
L 100.617686 389.32 
L 100.617686 343.394034 
L 93.84314 343.394034 
z
" clip-path="url(#p955288e209)" style="fill: #808080; fill-opacity: 0.4; stroke: #000000; stroke-linejoin: miter"/>
   </g>
   <g id="patch_10">
    <path d="M 100.617686 389.32 
L 107.392232 389.32 
L 107.392232 274.505086 
L 100.617686 274.505086 
z
" clip-path="url(#p955288e209)" style="fill: #808080; fill-opacity: 0.4; stroke: #000000; stroke-linejoin: miter"/>
   </g>
   <g id="patch_11">
    <path d="M 107.392232 389.32 
L 114.166778 389.32 
L 114.166778 343.394034 
L 107.392232 343.394034 
z
" clip-path="url(#p955288e209)" style="fill: #808080; fill-opacity: 0.4; stroke: #000000; stroke-linejoin: miter"/>
   </g>
   <g id="patch_12">
    <path d="M 114.166778 389.32 
L 120.941325 389.32 
L 120.941325 228.579121 
L 114.166778 228.579121 
z
" clip-path="url(#p955288e209)" style="fill: #808080; fill-opacity: 0.4; stroke: #000000; stroke-linejoin: miter"/>
   </g>
   <g id="patch_13">
    <path d="M 120.941325 389.32 
L 127.715871 389.32 
L 127.715871 113.764207 
L 120.941325 113.764207 
z
" clip-path="url(#p955288e209)" style="fill: #808080; fill-opacity: 0.4; stroke: #000000; stroke-linejoin: miter"/>
   </g>
   <g id="patch_14">
    <path d="M 127.715871 389.32 
L 134.490417 389.32 
L 134.490417 136.72719 
L 127.715871 136.72719 
z
" clip-path="url(#p955288e209)" style="fill: #808080; fill-opacity: 0.4; stroke: #000000; stroke-linejoin: miter"/>
   </g>
   <g id="patch_15">
    <path d="M 134.490417 389.32 
L 141.264964 389.32 
L 141.264964 182.653155 
L 134.490417 182.653155 
z
" clip-path="url(#p955288e209)" style="fill: #808080; fill-opacity: 0.4; stroke: #000000; stroke-linejoin: miter"/>
   </g>
   <g id="patch_16">
    <path d="M 141.264964 389.32 
L 148.03951 389.32 
L 148.03951 228.579121 
L 141.264964 228.579121 
z
" clip-path="url(#p955288e209)" style="fill: #808080; fill-opacity: 0.4; stroke: #000000; stroke-linejoin: miter"/>
   </g>
   <g id="patch_17">
    <path d="M 148.03951 389.32 
L 154.814056 389.32 
L 154.814056 297.468069 
L 148.03951 297.468069 
z
" clip-path="url(#p955288e209)" style="fill: #808080; fill-opacity: 0.4; stroke: #000000; stroke-linejoin: miter"/>
   </g>
   <g id="patch_18">
    <path d="M 154.814056 389.32 
L 161.588602 389.32 
L 161.588602 182.653155 
L 154.814056 182.653155 
z
" clip-path="url(#p955288e209)" style="fill: #808080; fill-opacity: 0.4; stroke: #000000; stroke-linejoin: miter"/>
   </g>
   <g id="patch_19">
    <path d="M 161.588602 389.32 
L 168.363149 389.32 
L 168.363149 205.616138 
L 161.588602 205.616138 
z
" clip-path="url(#p955288e209)" style="fill: #808080; fill-opacity: 0.4; stroke: #000000; stroke-linejoin: miter"/>
   </g>
   <g id="patch_20">
    <path d="M 168.363149 389.32 
L 175.137695 389.32 
L 175.137695 228.579121 
L 168.363149 228.579121 
z
" clip-path="url(#p955288e209)" style="fill: #808080; fill-opacity: 0.4; stroke: #000000; stroke-linejoin: miter"/>
   </g>
   <g id="patch_21">
    <path d="M 175.137695 389.32 
L 181.912241 389.32 
L 181.912241 343.394034 
L 175.137695 343.394034 
z
" clip-path="url(#p955288e209)" style="fill: #808080; fill-opacity: 0.4; stroke: #000000; stroke-linejoin: miter"/>
   </g>
   <g id="patch_22">
    <path d="M 181.912241 389.32 
L 188.686787 389.32 
L 188.686787 343.394034 
L 181.912241 343.394034 
z
" clip-path="url(#p955288e209)" style="fill: #808080; fill-opacity: 0.4; stroke: #000000; stroke-linejoin: miter"/>
   </g>
   <g id="patch_23">
    <path d="M 188.686787 389.32 
L 195.461334 389.32 
L 195.461334 320.431052 
L 188.686787 320.431052 
z
" clip-path="url(#p955288e209)" style="fill: #808080; fill-opacity: 0.4; stroke: #000000; stroke-linejoin: miter"/>
   </g>
   <g id="patch_24">
    <path d="M 195.461334 389.32 
L 202.23588 389.32 
L 202.23588 389.32 
L 195.461334 389.32 
z
" clip-path="url(#p955288e209)" style="fill: #808080; fill-opacity: 0.4; stroke: #000000; stroke-linejoin: miter"/>
   </g>
   <g id="patch_25">
    <path d="M 202.23588 389.32 
L 209.010426 389.32 
L 209.010426 366.357017 
L 202.23588 366.357017 
z
" clip-path="url(#p955288e209)" style="fill: #808080; fill-opacity: 0.4; stroke: #000000; stroke-linejoin: miter"/>
   </g>
   <g id="patch_26">
    <path d="M 209.010426 389.32 
L 215.784972 389.32 
L 215.784972 389.32 
L 209.010426 389.32 
z
" clip-path="url(#p955288e209)" style="fill: #808080; fill-opacity: 0.4; stroke: #000000; stroke-linejoin: miter"/>
   </g>
   <g id="patch_27">
    <path d="M 215.784972 389.32 
L 222.559519 389.32 
L 222.559519 389.32 
L 215.784972 389.32 
z
" clip-path="url(#p955288e209)" style="fill: #808080; fill-opacity: 0.4; stroke: #000000; stroke-linejoin: miter"/>
   </g>
   <g id="patch_28">
    <path d="M 222.559519 389.32 
L 229.334065 389.32 
L 229.334065 389.32 
L 222.559519 389.32 
z
" clip-path="url(#p955288e209)" style="fill: #808080; fill-opacity: 0.4; stroke: #000000; stroke-linejoin: miter"/>
   </g>
   <g id="patch_29">
    <path d="M 229.334065 389.32 
L 236.108611 389.32 
L 236.108611 366.357017 
L 229.334065 366.357017 
z
" clip-path="url(#p955288e209)" style="fill: #808080; fill-opacity: 0.4; stroke: #000000; stroke-linejoin: miter"/>
   </g>
   <g id="patch_30">
    <path d="M 299.362473 389.32 
L 303.723376 389.32 
L 303.723376 353.647619 
L 299.362473 353.647619 
z
" clip-path="url(#p955288e209)" style="fill: #ffa500; fill-opacity: 0.6; stroke: #000000; stroke-width: 0.353189; stroke-linejoin: miter"/>
   </g>
   <g id="patch_31">
    <path d="M 303.723376 389.32 
L 308.084279 389.32 
L 308.084279 353.647619 
L 303.723376 353.647619 
z
" clip-path="url(#p955288e209)" style="fill: #ffa500; fill-opacity: 0.6; stroke: #000000; stroke-width: 0.353189; stroke-linejoin: miter"/>
   </g>
   <g id="patch_32">
    <path d="M 308.084279 389.32 
L 312.445182 389.32 
L 312.445182 389.32 
L 308.084279 389.32 
z
" clip-path="url(#p955288e209)" style="fill: #ffa500; fill-opacity: 0.6; stroke: #000000; stroke-width: 0.353189; stroke-linejoin: miter"/>
   </g>
   <g id="patch_33">
    <path d="M 312.445182 389.32 
L 316.806085 389.32 
L 316.806085 389.32 
L 312.445182 389.32 
z
" clip-path="url(#p955288e209)" style="fill: #ffa500; fill-opacity: 0.6; stroke: #000000; stroke-width: 0.353189; stroke-linejoin: miter"/>
   </g>
   <g id="patch_34">
    <path d="M 316.806085 389.32 
L 321.166988 389.32 
L 321.166988 317.975238 
L 316.806085 317.975238 
z
" clip-path="url(#p955288e209)" style="fill: #ffa500; fill-opacity: 0.6; stroke: #000000; stroke-width: 0.353189; stroke-linejoin: miter"/>
   </g>
   <g id="patch_35">
    <path d="M 321.166988 389.32 
L 325.527891 389.32 
L 325.527891 353.647619 
L 321.166988 353.647619 
z
" clip-path="url(#p955288e209)" style="fill: #ffa500; fill-opacity: 0.6; stroke: #000000; stroke-width: 0.353189; stroke-linejoin: miter"/>
   </g>
   <g id="patch_36">
    <path d="M 325.527891 389.32 
L 329.888793 389.32 
L 329.888793 389.32 
L 325.527891 389.32 
z
" clip-path="url(#p955288e209)" style="fill: #ffa500; fill-opacity: 0.6; stroke: #000000; stroke-width: 0.353189; stroke-linejoin: miter"/>
   </g>
   <g id="patch_37">
    <path d="M 329.888793 389.32 
L 334.249696 389.32 
L 334.249696 317.975238 
L 329.888793 317.975238 
z
" clip-path="url(#p955288e209)" style="fill: #ffa500; fill-opacity: 0.6; stroke: #000000; stroke-width: 0.353189; stroke-linejoin: miter"/>
   </g>
   <g id="patch_38">
    <path d="M 334.249696 389.32 
L 338.610599 389.32 
L 338.610599 317.975238 
L 334.249696 317.975238 
z
" clip-path="url(#p955288e209)" style="fill: #ffa500; fill-opacity: 0.6; stroke: #000000; stroke-width: 0.353189; stroke-linejoin: miter"/>
   </g>
   <g id="patch_39">
    <path d="M 338.610599 389.32 
L 342.971502 389.32 
L 342.971502 246.630476 
L 338.610599 246.630476 
z
" clip-path="url(#p955288e209)" style="fill: #ffa500; fill-opacity: 0.6; stroke: #000000; stroke-width: 0.353189; stroke-linejoin: miter"/>
   </g>
   <g id="patch_40">
    <path d="M 342.971502 389.32 
L 347.332405 389.32 
L 347.332405 210.958095 
L 342.971502 210.958095 
z
" clip-path="url(#p955288e209)" style="fill: #ffa500; fill-opacity: 0.6; stroke: #000000; stroke-width: 0.353189; stroke-linejoin: miter"/>
   </g>
   <g id="patch_41">
    <path d="M 347.332405 389.32 
L 351.693308 389.32 
L 351.693308 317.975238 
L 347.332405 317.975238 
z
" clip-path="url(#p955288e209)" style="fill: #ffa500; fill-opacity: 0.6; stroke: #000000; stroke-width: 0.353189; stroke-linejoin: miter"/>
   </g>
   <g id="patch_42">
    <path d="M 351.693308 389.32 
L 356.054211 389.32 
L 356.054211 139.613333 
L 351.693308 139.613333 
z
" clip-path="url(#p955288e209)" style="fill: #ffa500; fill-opacity: 0.6; stroke: #000000; stroke-width: 0.353189; stroke-linejoin: miter"/>
   </g>
   <g id="patch_43">
    <path d="M 356.054211 389.32 
L 360.415114 389.32 
L 360.415114 32.59619 
L 356.054211 32.59619 
z
" clip-path="url(#p955288e209)" style="fill: #ffa500; fill-opacity: 0.6; stroke: #000000; stroke-width: 0.353189; stroke-linejoin: miter"/>
   </g>
   <g id="patch_44">
    <path d="M 360.415114 389.32 
L 364.776017 389.32 
L 364.776017 175.285714 
L 360.415114 175.285714 
z
" clip-path="url(#p955288e209)" style="fill: #ffa500; fill-opacity: 0.6; stroke: #000000; stroke-width: 0.353189; stroke-linejoin: miter"/>
   </g>
   <g id="patch_45">
    <path d="M 364.776017 389.32 
L 369.136919 389.32 
L 369.136919 103.940952 
L 364.776017 103.940952 
z
" clip-path="url(#p955288e209)" style="fill: #ffa500; fill-opacity: 0.6; stroke: #000000; stroke-width: 0.353189; stroke-linejoin: miter"/>
   </g>
   <g id="patch_46">
    <path d="M 369.136919 389.32 
L 373.497822 389.32 
L 373.497822 210.958095 
L 369.136919 210.958095 
z
" clip-path="url(#p955288e209)" style="fill: #ffa500; fill-opacity: 0.6; stroke: #000000; stroke-width: 0.353189; stroke-linejoin: miter"/>
   </g>
   <g id="patch_47">
    <path d="M 373.497822 389.32 
L 377.858725 389.32 
L 377.858725 210.958095 
L 373.497822 210.958095 
z
" clip-path="url(#p955288e209)" style="fill: #ffa500; fill-opacity: 0.6; stroke: #000000; stroke-width: 0.353189; stroke-linejoin: miter"/>
   </g>
   <g id="patch_48">
    <path d="M 377.858725 389.32 
L 382.219628 389.32 
L 382.219628 210.958095 
L 377.858725 210.958095 
z
" clip-path="url(#p955288e209)" style="fill: #ffa500; fill-opacity: 0.6; stroke: #000000; stroke-width: 0.353189; stroke-linejoin: miter"/>
   </g>
   <g id="patch_49">
    <path d="M 382.219628 389.32 
L 386.580531 389.32 
L 386.580531 103.940952 
L 382.219628 103.940952 
z
" clip-path="url(#p955288e209)" style="fill: #ffa500; fill-opacity: 0.6; stroke: #000000; stroke-width: 0.353189; stroke-linejoin: miter"/>
   </g>
   <g id="patch_50">
    <path d="M 386.580531 389.32 
L 390.941434 389.32 
L 390.941434 139.613333 
L 386.580531 139.613333 
z
" clip-path="url(#p955288e209)" style="fill: #ffa500; fill-opacity: 0.6; stroke: #000000; stroke-width: 0.353189; stroke-linejoin: miter"/>
   </g>
   <g id="patch_51">
    <path d="M 390.941434 389.32 
L 395.302337 389.32 
L 395.302337 139.613333 
L 390.941434 139.613333 
z
" clip-path="url(#p955288e209)" style="fill: #ffa500; fill-opacity: 0.6; stroke: #000000; stroke-width: 0.353189; stroke-linejoin: miter"/>
   </g>
   <g id="patch_52">
    <path d="M 395.302337 389.32 
L 399.66324 389.32 
L 399.66324 210.958095 
L 395.302337 210.958095 
z
" clip-path="url(#p955288e209)" style="fill: #ffa500; fill-opacity: 0.6; stroke: #000000; stroke-width: 0.353189; stroke-linejoin: miter"/>
   </g>
   <g id="patch_53">
    <path d="M 399.66324 389.32 
L 404.024142 389.32 
L 404.024142 282.302857 
L 399.66324 282.302857 
z
" clip-path="url(#p955288e209)" style="fill: #ffa500; fill-opacity: 0.6; stroke: #000000; stroke-width: 0.353189; stroke-linejoin: miter"/>
   </g>
   <g id="patch_54">
    <path d="M 404.024142 389.32 
L 408.385045 389.32 
L 408.385045 246.630476 
L 404.024142 246.630476 
z
" clip-path="url(#p955288e209)" style="fill: #ffa500; fill-opacity: 0.6; stroke: #000000; stroke-width: 0.353189; stroke-linejoin: miter"/>
   </g>
   <g id="patch_55">
    <path d="M 213.157955 389.32 
L 220.069502 389.32 
L 220.069502 366.812189 
L 213.157955 366.812189 
z
" clip-path="url(#p955288e209)" style="fill: #0000ff; fill-opacity: 0.6; stroke: #000000; stroke-width: 0.559766; stroke-linejoin: miter"/>
   </g>
   <g id="patch_56">
    <path d="M 220.069502 389.32 
L 226.981049 389.32 
L 226.981049 389.32 
L 220.069502 389.32 
z
" clip-path="url(#p955288e209)" style="fill: #0000ff; fill-opacity: 0.6; stroke: #000000; stroke-width: 0.559766; stroke-linejoin: miter"/>
   </g>
   <g id="patch_57">
    <path d="M 226.981049 389.32 
L 233.892596 389.32 
L 233.892596 389.32 
L 226.981049 389.32 
z
" clip-path="url(#p955288e209)" style="fill: #0000ff; fill-opacity: 0.6; stroke: #000000; stroke-width: 0.559766; stroke-linejoin: miter"/>
   </g>
   <g id="patch_58">
    <path d="M 233.892596 389.32 
L 240.804143 389.32 
L 240.804143 389.32 
L 233.892596 389.32 
z
" clip-path="url(#p955288e209)" style="fill: #0000ff; fill-opacity: 0.6; stroke: #000000; stroke-width: 0.559766; stroke-linejoin: miter"/>
   </g>
   <g id="patch_59">
    <path d="M 240.804143 389.32 
L 247.715689 389.32 
L 247.715689 389.32 
L 240.804143 389.32 
z
" clip-path="url(#p955288e209)" style="fill: #0000ff; fill-opacity: 0.6; stroke: #000000; stroke-width: 0.559766; stroke-linejoin: miter"/>
   </g>
   <g id="patch_60">
    <path d="M 247.715689 389.32 
L 254.627236 389.32 
L 254.627236 389.32 
L 247.715689 389.32 
z
" clip-path="url(#p955288e209)" style="fill: #0000ff; fill-opacity: 0.6; stroke: #000000; stroke-width: 0.559766; stroke-linejoin: miter"/>
   </g>
   <g id="patch_61">
    <path d="M 254.627236 389.32 
L 261.538783 389.32 
L 261.538783 366.812189 
L 254.627236 366.812189 
z
" clip-path="url(#p955288e209)" style="fill: #0000ff; fill-opacity: 0.6; stroke: #000000; stroke-width: 0.559766; stroke-linejoin: miter"/>
   </g>
   <g id="patch_62">
    <path d="M 261.538783 389.32 
L 268.45033 389.32 
L 268.45033 389.32 
L 261.538783 389.32 
z
" clip-path="url(#p955288e209)" style="fill: #0000ff; fill-opacity: 0.6; stroke: #000000; stroke-width: 0.559766; stroke-linejoin: miter"/>
   </g>
   <g id="patch_63">
    <path d="M 268.45033 389.32 
L 275.361877 389.32 
L 275.361877 366.812189 
L 268.45033 366.812189 
z
" clip-path="url(#p955288e209)" style="fill: #0000ff; fill-opacity: 0.6; stroke: #000000; stroke-width: 0.559766; stroke-linejoin: miter"/>
   </g>
   <g id="patch_64">
    <path d="M 275.361877 389.32 
L 282.273424 389.32 
L 282.273424 389.32 
L 275.361877 389.32 
z
" clip-path="url(#p955288e209)" style="fill: #0000ff; fill-opacity: 0.6; stroke: #000000; stroke-width: 0.559766; stroke-linejoin: miter"/>
   </g>
   <g id="patch_65">
    <path d="M 282.273424 389.32 
L 289.184971 389.32 
L 289.184971 231.765326 
L 282.273424 231.765326 
z
" clip-path="url(#p955288e209)" style="fill: #0000ff; fill-opacity: 0.6; stroke: #000000; stroke-width: 0.559766; stroke-linejoin: miter"/>
   </g>
   <g id="patch_66">
    <path d="M 289.184971 389.32 
L 296.096518 389.32 
L 296.096518 276.780947 
L 289.184971 276.780947 
z
" clip-path="url(#p955288e209)" style="fill: #0000ff; fill-opacity: 0.6; stroke: #000000; stroke-width: 0.559766; stroke-linejoin: miter"/>
   </g>
   <g id="patch_67">
    <path d="M 296.096518 389.32 
L 303.008065 389.32 
L 303.008065 209.257515 
L 296.096518 209.257515 
z
" clip-path="url(#p955288e209)" style="fill: #0000ff; fill-opacity: 0.6; stroke: #000000; stroke-width: 0.559766; stroke-linejoin: miter"/>
   </g>
   <g id="patch_68">
    <path d="M 303.008065 389.32 
L 309.919612 389.32 
L 309.919612 276.780947 
L 303.008065 276.780947 
z
" clip-path="url(#p955288e209)" style="fill: #0000ff; fill-opacity: 0.6; stroke: #000000; stroke-width: 0.559766; stroke-linejoin: miter"/>
   </g>
   <g id="patch_69">
    <path d="M 309.919612 389.32 
L 316.831159 389.32 
L 316.831159 186.749704 
L 309.919612 186.749704 
z
" clip-path="url(#p955288e209)" style="fill: #0000ff; fill-opacity: 0.6; stroke: #000000; stroke-width: 0.559766; stroke-linejoin: miter"/>
   </g>
   <g id="patch_70">
    <path d="M 316.831159 389.32 
L 323.742706 389.32 
L 323.742706 321.796568 
L 316.831159 321.796568 
z
" clip-path="url(#p955288e209)" style="fill: #0000ff; fill-opacity: 0.6; stroke: #000000; stroke-width: 0.559766; stroke-linejoin: miter"/>
   </g>
   <g id="patch_71">
    <path d="M 323.742706 389.32 
L 330.654252 389.32 
L 330.654252 231.765326 
L 323.742706 231.765326 
z
" clip-path="url(#p955288e209)" style="fill: #0000ff; fill-opacity: 0.6; stroke: #000000; stroke-width: 0.559766; stroke-linejoin: miter"/>
   </g>
   <g id="patch_72">
    <path d="M 330.654252 389.32 
L 337.565799 389.32 
L 337.565799 141.734083 
L 330.654252 141.734083 
z
" clip-path="url(#p955288e209)" style="fill: #0000ff; fill-opacity: 0.6; stroke: #000000; stroke-width: 0.559766; stroke-linejoin: miter"/>
   </g>
   <g id="patch_73">
    <path d="M 337.565799 389.32 
L 344.477346 389.32 
L 344.477346 186.749704 
L 337.565799 186.749704 
z
" clip-path="url(#p955288e209)" style="fill: #0000ff; fill-opacity: 0.6; stroke: #000000; stroke-width: 0.559766; stroke-linejoin: miter"/>
   </g>
   <g id="patch_74">
    <path d="M 344.477346 389.32 
L 351.388893 389.32 
L 351.388893 96.718462 
L 344.477346 96.718462 
z
" clip-path="url(#p955288e209)" style="fill: #0000ff; fill-opacity: 0.6; stroke: #000000; stroke-width: 0.559766; stroke-linejoin: miter"/>
   </g>
   <g id="patch_75">
    <path d="M 351.388893 389.32 
L 358.30044 389.32 
L 358.30044 276.780947 
L 351.388893 276.780947 
z
" clip-path="url(#p955288e209)" style="fill: #0000ff; fill-opacity: 0.6; stroke: #000000; stroke-width: 0.559766; stroke-linejoin: miter"/>
   </g>
   <g id="patch_76">
    <path d="M 358.30044 389.32 
L 365.211987 389.32 
L 365.211987 299.288758 
L 358.30044 299.288758 
z
" clip-path="url(#p955288e209)" style="fill: #0000ff; fill-opacity: 0.6; stroke: #000000; stroke-width: 0.559766; stroke-linejoin: miter"/>
   </g>
   <g id="patch_77">
    <path d="M 365.211987 389.32 
L 372.123534 389.32 
L 372.123534 276.780947 
L 365.211987 276.780947 
z
" clip-path="url(#p955288e209)" style="fill: #0000ff; fill-opacity: 0.6; stroke: #000000; stroke-width: 0.559766; stroke-linejoin: miter"/>
   </g>
   <g id="patch_78">
    <path d="M 372.123534 389.32 
L 379.035081 389.32 
L 379.035081 321.796568 
L 372.123534 321.796568 
z
" clip-path="url(#p955288e209)" style="fill: #0000ff; fill-opacity: 0.6; stroke: #000000; stroke-width: 0.559766; stroke-linejoin: miter"/>
   </g>
   <g id="patch_79">
    <path d="M 379.035081 389.32 
L 385.946628 389.32 
L 385.946628 321.796568 
L 379.035081 321.796568 
z
" clip-path="url(#p955288e209)" style="fill: #0000ff; fill-opacity: 0.6; stroke: #000000; stroke-width: 0.559766; stroke-linejoin: miter"/>
   </g>
   <g id="matplotlib.axis_1">
    <g id="xtick_1">
     <g id="line2d_1">
      <defs>
       <path id="mcfb75171eb" d="M 0 0 
L 0 3.5 
" style="stroke: #000000; stroke-width: 0.8"/>
      </defs>
      <g>
       <use xlink:href="#mcfb75171eb" x="70.222246" y="389.32" style="stroke: #000000; stroke-width: 0.8"/>
      </g>
     </g>
     <g id="text_1">
      <!-- −2.5 -->
      <g transform="translate(58.08084 403.918437) scale(0.1 -0.1)">
       <defs>
        <path id="DejaVuSans-2212" d="M 678 2272 
L 4684 2272 
L 4684 1741 
L 678 1741 
L 678 2272 
z
" transform="scale(0.015625)"/>
        <path id="DejaVuSans-32" d="M 1228 531 
L 3431 531 
L 3431 0 
L 469 0 
L 469 531 
Q 828 903 1448 1529 
Q 2069 2156 2228 2338 
Q 2531 2678 2651 2914 
Q 2772 3150 2772 3378 
Q 2772 3750 2511 3984 
Q 2250 4219 1831 4219 
Q 1534 4219 1204 4116 
Q 875 4013 500 3803 
L 500 4441 
Q 881 4594 1212 4672 
Q 1544 4750 1819 4750 
Q 2544 4750 2975 4387 
Q 3406 4025 3406 3419 
Q 3406 3131 3298 2873 
Q 3191 2616 2906 2266 
Q 2828 2175 2409 1742 
Q 1991 1309 1228 531 
z
" transform="scale(0.015625)"/>
        <path id="DejaVuSans-2e" d="M 684 794 
L 1344 794 
L 1344 0 
L 684 0 
L 684 794 
z
" transform="scale(0.015625)"/>
        <path id="DejaVuSans-35" d="M 691 4666 
L 3169 4666 
L 3169 4134 
L 1269 4134 
L 1269 2991 
Q 1406 3038 1543 3061 
Q 1681 3084 1819 3084 
Q 2600 3084 3056 2656 
Q 3513 2228 3513 1497 
Q 3513 744 3044 326 
Q 2575 -91 1722 -91 
Q 1428 -91 1123 -41 
Q 819 9 494 109 
L 494 744 
Q 775 591 1075 516 
Q 1375 441 1709 441 
Q 2250 441 2565 725 
Q 2881 1009 2881 1497 
Q 2881 1984 2565 2268 
Q 2250 2553 1709 2553 
Q 1456 2553 1204 2497 
Q 953 2441 691 2322 
L 691 4666 
z
" transform="scale(0.015625)"/>
       </defs>
       <use xlink:href="#DejaVuSans-2212"/>
       <use xlink:href="#DejaVuSans-32" x="83.789062"/>
       <use xlink:href="#DejaVuSans-2e" x="147.412109"/>
       <use xlink:href="#DejaVuSans-35" x="179.199219"/>
      </g>
     </g>
    </g>
    <g id="xtick_2">
     <g id="line2d_2">
      <g>
       <use xlink:href="#mcfb75171eb" x="121.719976" y="389.32" style="stroke: #000000; stroke-width: 0.8"/>
      </g>
     </g>
     <g id="text_2">
      <!-- 0.0 -->
      <g transform="translate(113.768414 403.918437) scale(0.1 -0.1)">
       <defs>
        <path id="DejaVuSans-30" d="M 2034 4250 
Q 1547 4250 1301 3770 
Q 1056 3291 1056 2328 
Q 1056 1369 1301 889 
Q 1547 409 2034 409 
Q 2525 409 2770 889 
Q 3016 1369 3016 2328 
Q 3016 3291 2770 3770 
Q 2525 4250 2034 4250 
z
M 2034 4750 
Q 2819 4750 3233 4129 
Q 3647 3509 3647 2328 
Q 3647 1150 3233 529 
Q 2819 -91 2034 -91 
Q 1250 -91 836 529 
Q 422 1150 422 2328 
Q 422 3509 836 4129 
Q 1250 4750 2034 4750 
z
" transform="scale(0.015625)"/>
       </defs>
       <use xlink:href="#DejaVuSans-30"/>
       <use xlink:href="#DejaVuSans-2e" x="63.623047"/>
       <use xlink:href="#DejaVuSans-30" x="95.410156"/>
      </g>
     </g>
    </g>
    <g id="xtick_3">
     <g id="line2d_3">
      <g>
       <use xlink:href="#mcfb75171eb" x="173.217707" y="389.32" style="stroke: #000000; stroke-width: 0.8"/>
      </g>
     </g>
     <g id="text_3">
      <!-- 2.5 -->
      <g transform="translate(165.266145 403.918437) scale(0.1 -0.1)">
       <use xlink:href="#DejaVuSans-32"/>
       <use xlink:href="#DejaVuSans-2e" x="63.623047"/>
       <use xlink:href="#DejaVuSans-35" x="95.410156"/>
      </g>
     </g>
    </g>
    <g id="xtick_4">
     <g id="line2d_4">
      <g>
       <use xlink:href="#mcfb75171eb" x="224.715438" y="389.32" style="stroke: #000000; stroke-width: 0.8"/>
      </g>
     </g>
     <g id="text_4">
      <!-- 5.0 -->
      <g transform="translate(216.763875 403.918437) scale(0.1 -0.1)">
       <use xlink:href="#DejaVuSans-35"/>
       <use xlink:href="#DejaVuSans-2e" x="63.623047"/>
       <use xlink:href="#DejaVuSans-30" x="95.410156"/>
      </g>
     </g>
    </g>
    <g id="xtick_5">
     <g id="line2d_5">
      <g>
       <use xlink:href="#mcfb75171eb" x="276.213168" y="389.32" style="stroke: #000000; stroke-width: 0.8"/>
      </g>
     </g>
     <g id="text_5">
      <!-- 7.5 -->
      <g transform="translate(268.261606 403.918437) scale(0.1 -0.1)">
       <defs>
        <path id="DejaVuSans-37" d="M 525 4666 
L 3525 4666 
L 3525 4397 
L 1831 0 
L 1172 0 
L 2766 4134 
L 525 4134 
L 525 4666 
z
" transform="scale(0.015625)"/>
       </defs>
       <use xlink:href="#DejaVuSans-37"/>
       <use xlink:href="#DejaVuSans-2e" x="63.623047"/>
       <use xlink:href="#DejaVuSans-35" x="95.410156"/>
      </g>
     </g>
    </g>
    <g id="xtick_6">
     <g id="line2d_6">
      <g>
       <use xlink:href="#mcfb75171eb" x="327.710899" y="389.32" style="stroke: #000000; stroke-width: 0.8"/>
      </g>
     </g>
     <g id="text_6">
      <!-- 10.0 -->
      <g transform="translate(316.578086 403.918437) scale(0.1 -0.1)">
       <defs>
        <path id="DejaVuSans-31" d="M 794 531 
L 1825 531 
L 1825 4091 
L 703 3866 
L 703 4441 
L 1819 4666 
L 2450 4666 
L 2450 531 
L 3481 531 
L 3481 0 
L 794 0 
L 794 531 
z
" transform="scale(0.015625)"/>
       </defs>
       <use xlink:href="#DejaVuSans-31"/>
       <use xlink:href="#DejaVuSans-30" x="63.623047"/>
       <use xlink:href="#DejaVuSans-2e" x="127.246094"/>
       <use xlink:href="#DejaVuSans-30" x="159.033203"/>
      </g>
     </g>
    </g>
    <g id="xtick_7">
     <g id="line2d_7">
      <g>
       <use xlink:href="#mcfb75171eb" x="379.20863" y="389.32" style="stroke: #000000; stroke-width: 0.8"/>
      </g>
     </g>
     <g id="text_7">
      <!-- 12.5 -->
      <g transform="translate(368.075817 403.918437) scale(0.1 -0.1)">
       <use xlink:href="#DejaVuSans-31"/>
       <use xlink:href="#DejaVuSans-32" x="63.623047"/>
       <use xlink:href="#DejaVuSans-2e" x="127.246094"/>
       <use xlink:href="#DejaVuSans-35" x="159.033203"/>
      </g>
     </g>
    </g>
    <g id="text_8">
     <!-- Predicted Fluorescence -->
     <g transform="translate(167.96875 419.11625) scale(0.12 -0.12)">
      <defs>
       <path id="DejaVuSans-50" d="M 1259 4147 
L 1259 2394 
L 2053 2394 
Q 2494 2394 2734 2622 
Q 2975 2850 2975 3272 
Q 2975 3691 2734 3919 
Q 2494 4147 2053 4147 
L 1259 4147 
z
M 628 4666 
L 2053 4666 
Q 2838 4666 3239 4311 
Q 3641 3956 3641 3272 
Q 3641 2581 3239 2228 
Q 2838 1875 2053 1875 
L 1259 1875 
L 1259 0 
L 628 0 
L 628 4666 
z
" transform="scale(0.015625)"/>
       <path id="DejaVuSans-72" d="M 2631 2963 
Q 2534 3019 2420 3045 
Q 2306 3072 2169 3072 
Q 1681 3072 1420 2755 
Q 1159 2438 1159 1844 
L 1159 0 
L 581 0 
L 581 3500 
L 1159 3500 
L 1159 2956 
Q 1341 3275 1631 3429 
Q 1922 3584 2338 3584 
Q 2397 3584 2469 3576 
Q 2541 3569 2628 3553 
L 2631 2963 
z
" transform="scale(0.015625)"/>
       <path id="DejaVuSans-65" d="M 3597 1894 
L 3597 1613 
L 953 1613 
Q 991 1019 1311 708 
Q 1631 397 2203 397 
Q 2534 397 2845 478 
Q 3156 559 3463 722 
L 3463 178 
Q 3153 47 2828 -22 
Q 2503 -91 2169 -91 
Q 1331 -91 842 396 
Q 353 884 353 1716 
Q 353 2575 817 3079 
Q 1281 3584 2069 3584 
Q 2775 3584 3186 3129 
Q 3597 2675 3597 1894 
z
M 3022 2063 
Q 3016 2534 2758 2815 
Q 2500 3097 2075 3097 
Q 1594 3097 1305 2825 
Q 1016 2553 972 2059 
L 3022 2063 
z
" transform="scale(0.015625)"/>
       <path id="DejaVuSans-64" d="M 2906 2969 
L 2906 4863 
L 3481 4863 
L 3481 0 
L 2906 0 
L 2906 525 
Q 2725 213 2448 61 
Q 2172 -91 1784 -91 
Q 1150 -91 751 415 
Q 353 922 353 1747 
Q 353 2572 751 3078 
Q 1150 3584 1784 3584 
Q 2172 3584 2448 3432 
Q 2725 3281 2906 2969 
z
M 947 1747 
Q 947 1113 1208 752 
Q 1469 391 1925 391 
Q 2381 391 2643 752 
Q 2906 1113 2906 1747 
Q 2906 2381 2643 2742 
Q 2381 3103 1925 3103 
Q 1469 3103 1208 2742 
Q 947 2381 947 1747 
z
" transform="scale(0.015625)"/>
       <path id="DejaVuSans-69" d="M 603 3500 
L 1178 3500 
L 1178 0 
L 603 0 
L 603 3500 
z
M 603 4863 
L 1178 4863 
L 1178 4134 
L 603 4134 
L 603 4863 
z
" transform="scale(0.015625)"/>
       <path id="DejaVuSans-63" d="M 3122 3366 
L 3122 2828 
Q 2878 2963 2633 3030 
Q 2388 3097 2138 3097 
Q 1578 3097 1268 2742 
Q 959 2388 959 1747 
Q 959 1106 1268 751 
Q 1578 397 2138 397 
Q 2388 397 2633 464 
Q 2878 531 3122 666 
L 3122 134 
Q 2881 22 2623 -34 
Q 2366 -91 2075 -91 
Q 1284 -91 818 406 
Q 353 903 353 1747 
Q 353 2603 823 3093 
Q 1294 3584 2113 3584 
Q 2378 3584 2631 3529 
Q 2884 3475 3122 3366 
z
" transform="scale(0.015625)"/>
       <path id="DejaVuSans-74" d="M 1172 4494 
L 1172 3500 
L 2356 3500 
L 2356 3053 
L 1172 3053 
L 1172 1153 
Q 1172 725 1289 603 
Q 1406 481 1766 481 
L 2356 481 
L 2356 0 
L 1766 0 
Q 1100 0 847 248 
Q 594 497 594 1153 
L 594 3053 
L 172 3053 
L 172 3500 
L 594 3500 
L 594 4494 
L 1172 4494 
z
" transform="scale(0.015625)"/>
       <path id="DejaVuSans-20" transform="scale(0.015625)"/>
       <path id="DejaVuSans-46" d="M 628 4666 
L 3309 4666 
L 3309 4134 
L 1259 4134 
L 1259 2759 
L 3109 2759 
L 3109 2228 
L 1259 2228 
L 1259 0 
L 628 0 
L 628 4666 
z
" transform="scale(0.015625)"/>
       <path id="DejaVuSans-6c" d="M 603 4863 
L 1178 4863 
L 1178 0 
L 603 0 
L 603 4863 
z
" transform="scale(0.015625)"/>
       <path id="DejaVuSans-75" d="M 544 1381 
L 544 3500 
L 1119 3500 
L 1119 1403 
Q 1119 906 1312 657 
Q 1506 409 1894 409 
Q 2359 409 2629 706 
Q 2900 1003 2900 1516 
L 2900 3500 
L 3475 3500 
L 3475 0 
L 2900 0 
L 2900 538 
Q 2691 219 2414 64 
Q 2138 -91 1772 -91 
Q 1169 -91 856 284 
Q 544 659 544 1381 
z
M 1991 3584 
L 1991 3584 
z
" transform="scale(0.015625)"/>
       <path id="DejaVuSans-6f" d="M 1959 3097 
Q 1497 3097 1228 2736 
Q 959 2375 959 1747 
Q 959 1119 1226 758 
Q 1494 397 1959 397 
Q 2419 397 2687 759 
Q 2956 1122 2956 1747 
Q 2956 2369 2687 2733 
Q 2419 3097 1959 3097 
z
M 1959 3584 
Q 2709 3584 3137 3096 
Q 3566 2609 3566 1747 
Q 3566 888 3137 398 
Q 2709 -91 1959 -91 
Q 1206 -91 779 398 
Q 353 888 353 1747 
Q 353 2609 779 3096 
Q 1206 3584 1959 3584 
z
" transform="scale(0.015625)"/>
       <path id="DejaVuSans-73" d="M 2834 3397 
L 2834 2853 
Q 2591 2978 2328 3040 
Q 2066 3103 1784 3103 
Q 1356 3103 1142 2972 
Q 928 2841 928 2578 
Q 928 2378 1081 2264 
Q 1234 2150 1697 2047 
L 1894 2003 
Q 2506 1872 2764 1633 
Q 3022 1394 3022 966 
Q 3022 478 2636 193 
Q 2250 -91 1575 -91 
Q 1294 -91 989 -36 
Q 684 19 347 128 
L 347 722 
Q 666 556 975 473 
Q 1284 391 1588 391 
Q 1994 391 2212 530 
Q 2431 669 2431 922 
Q 2431 1156 2273 1281 
Q 2116 1406 1581 1522 
L 1381 1569 
Q 847 1681 609 1914 
Q 372 2147 372 2553 
Q 372 3047 722 3315 
Q 1072 3584 1716 3584 
Q 2034 3584 2315 3537 
Q 2597 3491 2834 3397 
z
" transform="scale(0.015625)"/>
       <path id="DejaVuSans-6e" d="M 3513 2113 
L 3513 0 
L 2938 0 
L 2938 2094 
Q 2938 2591 2744 2837 
Q 2550 3084 2163 3084 
Q 1697 3084 1428 2787 
Q 1159 2491 1159 1978 
L 1159 0 
L 581 0 
L 581 3500 
L 1159 3500 
L 1159 2956 
Q 1366 3272 1645 3428 
Q 1925 3584 2291 3584 
Q 2894 3584 3203 3211 
Q 3513 2838 3513 2113 
z
" transform="scale(0.015625)"/>
      </defs>
      <use xlink:href="#DejaVuSans-50"/>
      <use xlink:href="#DejaVuSans-72" x="58.552734"/>
      <use xlink:href="#DejaVuSans-65" x="97.416016"/>
      <use xlink:href="#DejaVuSans-64" x="158.939453"/>
      <use xlink:href="#DejaVuSans-69" x="222.416016"/>
      <use xlink:href="#DejaVuSans-63" x="250.199219"/>
      <use xlink:href="#DejaVuSans-74" x="305.179688"/>
      <use xlink:href="#DejaVuSans-65" x="344.388672"/>
      <use xlink:href="#DejaVuSans-64" x="405.912109"/>
      <use xlink:href="#DejaVuSans-20" x="469.388672"/>
      <use xlink:href="#DejaVuSans-46" x="501.175781"/>
      <use xlink:href="#DejaVuSans-6c" x="558.695312"/>
      <use xlink:href="#DejaVuSans-75" x="586.478516"/>
      <use xlink:href="#DejaVuSans-6f" x="649.857422"/>
      <use xlink:href="#DejaVuSans-72" x="711.039062"/>
      <use xlink:href="#DejaVuSans-65" x="749.902344"/>
      <use xlink:href="#DejaVuSans-73" x="811.425781"/>
      <use xlink:href="#DejaVuSans-63" x="863.525391"/>
      <use xlink:href="#DejaVuSans-65" x="918.505859"/>
      <use xlink:href="#DejaVuSans-6e" x="980.029297"/>
      <use xlink:href="#DejaVuSans-63" x="1043.408203"/>
      <use xlink:href="#DejaVuSans-65" x="1098.388672"/>
     </g>
    </g>
   </g>
   <g id="matplotlib.axis_2">
    <g id="ytick_1">
     <g id="line2d_8">
      <defs>
       <path id="m0662a00744" d="M 0 0 
L -3.5 0 
" style="stroke: #000000; stroke-width: 0.8"/>
      </defs>
      <g>
       <use xlink:href="#m0662a00744" x="48.53" y="389.32" style="stroke: #000000; stroke-width: 0.8"/>
      </g>
     </g>
     <g id="text_9">
      <!-- 0.0 -->
      <g transform="translate(25.626875 393.119219) scale(0.1 -0.1)">
       <use xlink:href="#DejaVuSans-30"/>
       <use xlink:href="#DejaVuSans-2e" x="63.623047"/>
       <use xlink:href="#DejaVuSans-30" x="95.410156"/>
      </g>
     </g>
    </g>
    <g id="ytick_2">
     <g id="line2d_9">
      <g>
       <use xlink:href="#m0662a00744" x="48.53" y="313.80027" style="stroke: #000000; stroke-width: 0.8"/>
      </g>
     </g>
     <g id="text_10">
      <!-- 0.1 -->
      <g transform="translate(25.626875 317.599488) scale(0.1 -0.1)">
       <use xlink:href="#DejaVuSans-30"/>
       <use xlink:href="#DejaVuSans-2e" x="63.623047"/>
       <use xlink:href="#DejaVuSans-31" x="95.410156"/>
      </g>
     </g>
    </g>
    <g id="ytick_3">
     <g id="line2d_10">
      <g>
       <use xlink:href="#m0662a00744" x="48.53" y="238.280539" style="stroke: #000000; stroke-width: 0.8"/>
      </g>
     </g>
     <g id="text_11">
      <!-- 0.2 -->
      <g transform="translate(25.626875 242.079758) scale(0.1 -0.1)">
       <use xlink:href="#DejaVuSans-30"/>
       <use xlink:href="#DejaVuSans-2e" x="63.623047"/>
       <use xlink:href="#DejaVuSans-32" x="95.410156"/>
      </g>
     </g>
    </g>
    <g id="ytick_4">
     <g id="line2d_11">
      <g>
       <use xlink:href="#m0662a00744" x="48.53" y="162.760809" style="stroke: #000000; stroke-width: 0.8"/>
      </g>
     </g>
     <g id="text_12">
      <!-- 0.3 -->
      <g transform="translate(25.626875 166.560028) scale(0.1 -0.1)">
       <defs>
        <path id="DejaVuSans-33" d="M 2597 2516 
Q 3050 2419 3304 2112 
Q 3559 1806 3559 1356 
Q 3559 666 3084 287 
Q 2609 -91 1734 -91 
Q 1441 -91 1130 -33 
Q 819 25 488 141 
L 488 750 
Q 750 597 1062 519 
Q 1375 441 1716 441 
Q 2309 441 2620 675 
Q 2931 909 2931 1356 
Q 2931 1769 2642 2001 
Q 2353 2234 1838 2234 
L 1294 2234 
L 1294 2753 
L 1863 2753 
Q 2328 2753 2575 2939 
Q 2822 3125 2822 3475 
Q 2822 3834 2567 4026 
Q 2313 4219 1838 4219 
Q 1578 4219 1281 4162 
Q 984 4106 628 3988 
L 628 4550 
Q 988 4650 1302 4700 
Q 1616 4750 1894 4750 
Q 2613 4750 3031 4423 
Q 3450 4097 3450 3541 
Q 3450 3153 3228 2886 
Q 3006 2619 2597 2516 
z
" transform="scale(0.015625)"/>
       </defs>
       <use xlink:href="#DejaVuSans-30"/>
       <use xlink:href="#DejaVuSans-2e" x="63.623047"/>
       <use xlink:href="#DejaVuSans-33" x="95.410156"/>
      </g>
     </g>
    </g>
    <g id="ytick_5">
     <g id="line2d_12">
      <g>
       <use xlink:href="#m0662a00744" x="48.53" y="87.241079" style="stroke: #000000; stroke-width: 0.8"/>
      </g>
     </g>
     <g id="text_13">
      <!-- 0.4 -->
      <g transform="translate(25.626875 91.040298) scale(0.1 -0.1)">
       <defs>
        <path id="DejaVuSans-34" d="M 2419 4116 
L 825 1625 
L 2419 1625 
L 2419 4116 
z
M 2253 4666 
L 3047 4666 
L 3047 1625 
L 3713 1625 
L 3713 1100 
L 3047 1100 
L 3047 0 
L 2419 0 
L 2419 1100 
L 313 1100 
L 313 1709 
L 2253 4666 
z
" transform="scale(0.015625)"/>
       </defs>
       <use xlink:href="#DejaVuSans-30"/>
       <use xlink:href="#DejaVuSans-2e" x="63.623047"/>
       <use xlink:href="#DejaVuSans-34" x="95.410156"/>
      </g>
     </g>
    </g>
    <g id="text_14">
     <!-- Probability Density -->
     <g transform="translate(19.13125 258.471875) rotate(-90) scale(0.12 -0.12)">
      <defs>
       <path id="DejaVuSans-62" d="M 3116 1747 
Q 3116 2381 2855 2742 
Q 2594 3103 2138 3103 
Q 1681 3103 1420 2742 
Q 1159 2381 1159 1747 
Q 1159 1113 1420 752 
Q 1681 391 2138 391 
Q 2594 391 2855 752 
Q 3116 1113 3116 1747 
z
M 1159 2969 
Q 1341 3281 1617 3432 
Q 1894 3584 2278 3584 
Q 2916 3584 3314 3078 
Q 3713 2572 3713 1747 
Q 3713 922 3314 415 
Q 2916 -91 2278 -91 
Q 1894 -91 1617 61 
Q 1341 213 1159 525 
L 1159 0 
L 581 0 
L 581 4863 
L 1159 4863 
L 1159 2969 
z
" transform="scale(0.015625)"/>
       <path id="DejaVuSans-61" d="M 2194 1759 
Q 1497 1759 1228 1600 
Q 959 1441 959 1056 
Q 959 750 1161 570 
Q 1363 391 1709 391 
Q 2188 391 2477 730 
Q 2766 1069 2766 1631 
L 2766 1759 
L 2194 1759 
z
M 3341 1997 
L 3341 0 
L 2766 0 
L 2766 531 
Q 2569 213 2275 61 
Q 1981 -91 1556 -91 
Q 1019 -91 701 211 
Q 384 513 384 1019 
Q 384 1609 779 1909 
Q 1175 2209 1959 2209 
L 2766 2209 
L 2766 2266 
Q 2766 2663 2505 2880 
Q 2244 3097 1772 3097 
Q 1472 3097 1187 3025 
Q 903 2953 641 2809 
L 641 3341 
Q 956 3463 1253 3523 
Q 1550 3584 1831 3584 
Q 2591 3584 2966 3190 
Q 3341 2797 3341 1997 
z
" transform="scale(0.015625)"/>
       <path id="DejaVuSans-79" d="M 2059 -325 
Q 1816 -950 1584 -1140 
Q 1353 -1331 966 -1331 
L 506 -1331 
L 506 -850 
L 844 -850 
Q 1081 -850 1212 -737 
Q 1344 -625 1503 -206 
L 1606 56 
L 191 3500 
L 800 3500 
L 1894 763 
L 2988 3500 
L 3597 3500 
L 2059 -325 
z
" transform="scale(0.015625)"/>
       <path id="DejaVuSans-44" d="M 1259 4147 
L 1259 519 
L 2022 519 
Q 2988 519 3436 956 
Q 3884 1394 3884 2338 
Q 3884 3275 3436 3711 
Q 2988 4147 2022 4147 
L 1259 4147 
z
M 628 4666 
L 1925 4666 
Q 3281 4666 3915 4102 
Q 4550 3538 4550 2338 
Q 4550 1131 3912 565 
Q 3275 0 1925 0 
L 628 0 
L 628 4666 
z
" transform="scale(0.015625)"/>
      </defs>
      <use xlink:href="#DejaVuSans-50"/>
      <use xlink:href="#DejaVuSans-72" x="58.552734"/>
      <use xlink:href="#DejaVuSans-6f" x="97.416016"/>
      <use xlink:href="#DejaVuSans-62" x="158.597656"/>
      <use xlink:href="#DejaVuSans-61" x="222.074219"/>
      <use xlink:href="#DejaVuSans-62" x="283.353516"/>
      <use xlink:href="#DejaVuSans-69" x="346.830078"/>
      <use xlink:href="#DejaVuSans-6c" x="374.613281"/>
      <use xlink:href="#DejaVuSans-69" x="402.396484"/>
      <use xlink:href="#DejaVuSans-74" x="430.179688"/>
      <use xlink:href="#DejaVuSans-79" x="469.388672"/>
      <use xlink:href="#DejaVuSans-20" x="528.568359"/>
      <use xlink:href="#DejaVuSans-44" x="560.355469"/>
      <use xlink:href="#DejaVuSans-65" x="637.357422"/>
      <use xlink:href="#DejaVuSans-6e" x="698.880859"/>
      <use xlink:href="#DejaVuSans-73" x="762.259766"/>
      <use xlink:href="#DejaVuSans-69" x="814.359375"/>
      <use xlink:href="#DejaVuSans-74" x="842.142578"/>
      <use xlink:href="#DejaVuSans-79" x="881.351562"/>
     </g>
    </g>
   </g>
   <g id="line2d_13">
    <path d="M 145.404813 389.32 
L 145.404813 14.76 
" clip-path="url(#p955288e209)" style="fill: none; stroke-dasharray: 11.1,4.8; stroke-dashoffset: 0; stroke: #ffa500; stroke-width: 3"/>
   </g>
   <g id="patch_80">
    <path d="M 48.53 389.32 
L 48.53 14.76 
" style="fill: none; stroke: #000000; stroke-width: 0.8; stroke-linejoin: miter; stroke-linecap: square"/>
   </g>
   <g id="patch_81">
    <path d="M 48.53 389.32 
L 426.6 389.32 
" style="fill: none; stroke: #000000; stroke-width: 0.8; stroke-linejoin: miter; stroke-linecap: square"/>
   </g>
   <g id="legend_1">
    <g id="patch_82">
     <path d="M 178.507969 66.794375 
L 296.622031 66.794375 
Q 298.622031 66.794375 298.622031 64.794375 
L 298.622031 21.76 
Q 298.622031 19.76 296.622031 19.76 
L 178.507969 19.76 
Q 176.507969 19.76 176.507969 21.76 
L 176.507969 64.794375 
Q 176.507969 66.794375 178.507969 66.794375 
z
" style="fill: #ffffff; opacity: 0.8; stroke: #cccccc; stroke-linejoin: miter"/>
    </g>
    <g id="patch_83">
     <path d="M 180.507969 31.358438 
L 200.507969 31.358438 
L 200.507969 24.358438 
L 180.507969 24.358438 
z
" style="fill: #808080; fill-opacity: 0.4; stroke: #000000; stroke-linejoin: miter"/>
    </g>
    <g id="text_15">
     <!-- Pre-trained ESM2 -->
     <g transform="translate(208.507969 31.358438) scale(0.1 -0.1)">
      <defs>
       <path id="DejaVuSans-2d" d="M 313 2009 
L 1997 2009 
L 1997 1497 
L 313 1497 
L 313 2009 
z
" transform="scale(0.015625)"/>
       <path id="DejaVuSans-45" d="M 628 4666 
L 3578 4666 
L 3578 4134 
L 1259 4134 
L 1259 2753 
L 3481 2753 
L 3481 2222 
L 1259 2222 
L 1259 531 
L 3634 531 
L 3634 0 
L 628 0 
L 628 4666 
z
" transform="scale(0.015625)"/>
       <path id="DejaVuSans-53" d="M 3425 4513 
L 3425 3897 
Q 3066 4069 2747 4153 
Q 2428 4238 2131 4238 
Q 1616 4238 1336 4038 
Q 1056 3838 1056 3469 
Q 1056 3159 1242 3001 
Q 1428 2844 1947 2747 
L 2328 2669 
Q 3034 2534 3370 2195 
Q 3706 1856 3706 1288 
Q 3706 609 3251 259 
Q 2797 -91 1919 -91 
Q 1588 -91 1214 -16 
Q 841 59 441 206 
L 441 856 
Q 825 641 1194 531 
Q 1563 422 1919 422 
Q 2459 422 2753 634 
Q 3047 847 3047 1241 
Q 3047 1584 2836 1778 
Q 2625 1972 2144 2069 
L 1759 2144 
Q 1053 2284 737 2584 
Q 422 2884 422 3419 
Q 422 4038 858 4394 
Q 1294 4750 2059 4750 
Q 2388 4750 2728 4690 
Q 3069 4631 3425 4513 
z
" transform="scale(0.015625)"/>
       <path id="DejaVuSans-4d" d="M 628 4666 
L 1569 4666 
L 2759 1491 
L 3956 4666 
L 4897 4666 
L 4897 0 
L 4281 0 
L 4281 4097 
L 3078 897 
L 2444 897 
L 1241 4097 
L 1241 0 
L 628 0 
L 628 4666 
z
" transform="scale(0.015625)"/>
      </defs>
      <use xlink:href="#DejaVuSans-50"/>
      <use xlink:href="#DejaVuSans-72" x="58.552734"/>
      <use xlink:href="#DejaVuSans-65" x="97.416016"/>
      <use xlink:href="#DejaVuSans-2d" x="158.939453"/>
      <use xlink:href="#DejaVuSans-74" x="195.023438"/>
      <use xlink:href="#DejaVuSans-72" x="234.232422"/>
      <use xlink:href="#DejaVuSans-61" x="275.345703"/>
      <use xlink:href="#DejaVuSans-69" x="336.625"/>
      <use xlink:href="#DejaVuSans-6e" x="364.408203"/>
      <use xlink:href="#DejaVuSans-65" x="427.787109"/>
      <use xlink:href="#DejaVuSans-64" x="489.310547"/>
      <use xlink:href="#DejaVuSans-20" x="552.787109"/>
      <use xlink:href="#DejaVuSans-45" x="584.574219"/>
      <use xlink:href="#DejaVuSans-53" x="647.757812"/>
      <use xlink:href="#DejaVuSans-4d" x="711.234375"/>
      <use xlink:href="#DejaVuSans-32" x="797.513672"/>
     </g>
    </g>
    <g id="patch_84">
     <path d="M 180.507969 46.036563 
L 200.507969 46.036563 
L 200.507969 39.036563 
L 180.507969 39.036563 
z
" style="fill: #ffa500; fill-opacity: 0.6; stroke: #000000; stroke-width: 0.353189; stroke-linejoin: miter"/>
    </g>
    <g id="text_16">
     <!-- SFT ESM2 -->
     <g transform="translate(208.507969 46.036563) scale(0.1 -0.1)">
      <defs>
       <path id="DejaVuSans-54" d="M -19 4666 
L 3928 4666 
L 3928 4134 
L 2272 4134 
L 2272 0 
L 1638 0 
L 1638 4134 
L -19 4134 
L -19 4666 
z
" transform="scale(0.015625)"/>
      </defs>
      <use xlink:href="#DejaVuSans-53"/>
      <use xlink:href="#DejaVuSans-46" x="63.476562"/>
      <use xlink:href="#DejaVuSans-54" x="119.246094"/>
      <use xlink:href="#DejaVuSans-20" x="180.330078"/>
      <use xlink:href="#DejaVuSans-45" x="212.117188"/>
      <use xlink:href="#DejaVuSans-53" x="275.300781"/>
      <use xlink:href="#DejaVuSans-4d" x="338.777344"/>
      <use xlink:href="#DejaVuSans-32" x="425.056641"/>
     </g>
    </g>
    <g id="patch_85">
     <path d="M 180.507969 60.714688 
L 200.507969 60.714688 
L 200.507969 53.714688 
L 180.507969 53.714688 
z
" style="fill: #0000ff; fill-opacity: 0.6; stroke: #000000; stroke-width: 0.559766; stroke-linejoin: miter"/>
    </g>
    <g id="text_17">
     <!-- Aligned ESM2 -->
     <g transform="translate(208.507969 60.714688) scale(0.1 -0.1)">
      <defs>
       <path id="DejaVuSans-41" d="M 2188 4044 
L 1331 1722 
L 3047 1722 
L 2188 4044 
z
M 1831 4666 
L 2547 4666 
L 4325 0 
L 3669 0 
L 3244 1197 
L 1141 1197 
L 716 0 
L 50 0 
L 1831 4666 
z
" transform="scale(0.015625)"/>
       <path id="DejaVuSans-67" d="M 2906 1791 
Q 2906 2416 2648 2759 
Q 2391 3103 1925 3103 
Q 1463 3103 1205 2759 
Q 947 2416 947 1791 
Q 947 1169 1205 825 
Q 1463 481 1925 481 
Q 2391 481 2648 825 
Q 2906 1169 2906 1791 
z
M 3481 434 
Q 3481 -459 3084 -895 
Q 2688 -1331 1869 -1331 
Q 1566 -1331 1297 -1286 
Q 1028 -1241 775 -1147 
L 775 -588 
Q 1028 -725 1275 -790 
Q 1522 -856 1778 -856 
Q 2344 -856 2625 -561 
Q 2906 -266 2906 331 
L 2906 616 
Q 2728 306 2450 153 
Q 2172 0 1784 0 
Q 1141 0 747 490 
Q 353 981 353 1791 
Q 353 2603 747 3093 
Q 1141 3584 1784 3584 
Q 2172 3584 2450 3431 
Q 2728 3278 2906 2969 
L 2906 3500 
L 3481 3500 
L 3481 434 
z
" transform="scale(0.015625)"/>
      </defs>
      <use xlink:href="#DejaVuSans-41"/>
      <use xlink:href="#DejaVuSans-6c" x="68.408203"/>
      <use xlink:href="#DejaVuSans-69" x="96.191406"/>
      <use xlink:href="#DejaVuSans-67" x="123.974609"/>
      <use xlink:href="#DejaVuSans-6e" x="187.451172"/>
      <use xlink:href="#DejaVuSans-65" x="250.830078"/>
      <use xlink:href="#DejaVuSans-64" x="312.353516"/>
      <use xlink:href="#DejaVuSans-20" x="375.830078"/>
      <use xlink:href="#DejaVuSans-45" x="407.617188"/>
      <use xlink:href="#DejaVuSans-53" x="470.800781"/>
      <use xlink:href="#DejaVuSans-4d" x="534.277344"/>
      <use xlink:href="#DejaVuSans-32" x="620.556641"/>
     </g>
    </g>
   </g>
  </g>
  <g id="axes_2">
   <g id="patch_86">
    <path d="M 475.13 389.32 
L 853.2 389.32 
L 853.2 14.76 
L 475.13 14.76 
z
" style="fill: #ffffff"/>
   </g>
   <g id="patch_87">
    <path d="M 492.315 389.32 
L 492.315 14.76 
L 572.004813 14.76 
L 572.004813 389.32 
z
" clip-path="url(#pea502b7548)" style="fill: #ff0000; opacity: 0.1; stroke: #ff0000; stroke-linejoin: miter"/>
   </g>
   <g id="patch_88">
    <path d="M 572.004813 389.32 
L 572.004813 14.76 
L 836.015 14.76 
L 836.015 389.32 
z
" clip-path="url(#pea502b7548)" style="fill: #008000; opacity: 0.1; stroke: #008000; stroke-linejoin: miter"/>
   </g>
   <g id="matplotlib.axis_3">
    <g id="xtick_8">
     <g id="line2d_14">
      <g>
       <use xlink:href="#mcfb75171eb" x="496.822246" y="389.32" style="stroke: #000000; stroke-width: 0.8"/>
      </g>
     </g>
     <g id="text_18">
      <!-- −2.5 -->
      <g transform="translate(484.68084 403.918437) scale(0.1 -0.1)">
       <use xlink:href="#DejaVuSans-2212"/>
       <use xlink:href="#DejaVuSans-32" x="83.789062"/>
       <use xlink:href="#DejaVuSans-2e" x="147.412109"/>
       <use xlink:href="#DejaVuSans-35" x="179.199219"/>
      </g>
     </g>
    </g>
    <g id="xtick_9">
     <g id="line2d_15">
      <g>
       <use xlink:href="#mcfb75171eb" x="548.319976" y="389.32" style="stroke: #000000; stroke-width: 0.8"/>
      </g>
     </g>
     <g id="text_19">
      <!-- 0.0 -->
      <g transform="translate(540.368414 403.918437) scale(0.1 -0.1)">
       <use xlink:href="#DejaVuSans-30"/>
       <use xlink:href="#DejaVuSans-2e" x="63.623047"/>
       <use xlink:href="#DejaVuSans-30" x="95.410156"/>
      </g>
     </g>
    </g>
    <g id="xtick_10">
     <g id="line2d_16">
      <g>
       <use xlink:href="#mcfb75171eb" x="599.817707" y="389.32" style="stroke: #000000; stroke-width: 0.8"/>
      </g>
     </g>
     <g id="text_20">
      <!-- 2.5 -->
      <g transform="translate(591.866145 403.918437) scale(0.1 -0.1)">
       <use xlink:href="#DejaVuSans-32"/>
       <use xlink:href="#DejaVuSans-2e" x="63.623047"/>
       <use xlink:href="#DejaVuSans-35" x="95.410156"/>
      </g>
     </g>
    </g>
    <g id="xtick_11">
     <g id="line2d_17">
      <g>
       <use xlink:href="#mcfb75171eb" x="651.315438" y="389.32" style="stroke: #000000; stroke-width: 0.8"/>
      </g>
     </g>
     <g id="text_21">
      <!-- 5.0 -->
      <g transform="translate(643.363875 403.918437) scale(0.1 -0.1)">
       <use xlink:href="#DejaVuSans-35"/>
       <use xlink:href="#DejaVuSans-2e" x="63.623047"/>
       <use xlink:href="#DejaVuSans-30" x="95.410156"/>
      </g>
     </g>
    </g>
    <g id="xtick_12">
     <g id="line2d_18">
      <g>
       <use xlink:href="#mcfb75171eb" x="702.813168" y="389.32" style="stroke: #000000; stroke-width: 0.8"/>
      </g>
     </g>
     <g id="text_22">
      <!-- 7.5 -->
      <g transform="translate(694.861606 403.918437) scale(0.1 -0.1)">
       <use xlink:href="#DejaVuSans-37"/>
       <use xlink:href="#DejaVuSans-2e" x="63.623047"/>
       <use xlink:href="#DejaVuSans-35" x="95.410156"/>
      </g>
     </g>
    </g>
    <g id="xtick_13">
     <g id="line2d_19">
      <g>
       <use xlink:href="#mcfb75171eb" x="754.310899" y="389.32" style="stroke: #000000; stroke-width: 0.8"/>
      </g>
     </g>
     <g id="text_23">
      <!-- 10.0 -->
      <g transform="translate(743.178086 403.918437) scale(0.1 -0.1)">
       <use xlink:href="#DejaVuSans-31"/>
       <use xlink:href="#DejaVuSans-30" x="63.623047"/>
       <use xlink:href="#DejaVuSans-2e" x="127.246094"/>
       <use xlink:href="#DejaVuSans-30" x="159.033203"/>
      </g>
     </g>
    </g>
    <g id="xtick_14">
     <g id="line2d_20">
      <g>
       <use xlink:href="#mcfb75171eb" x="805.80863" y="389.32" style="stroke: #000000; stroke-width: 0.8"/>
      </g>
     </g>
     <g id="text_24">
      <!-- 12.5 -->
      <g transform="translate(794.675817 403.918437) scale(0.1 -0.1)">
       <use xlink:href="#DejaVuSans-31"/>
       <use xlink:href="#DejaVuSans-32" x="63.623047"/>
       <use xlink:href="#DejaVuSans-2e" x="127.246094"/>
       <use xlink:href="#DejaVuSans-35" x="159.033203"/>
      </g>
     </g>
    </g>
    <g id="text_25">
     <!-- Predicted Fluorescence -->
     <g transform="translate(594.56875 419.11625) scale(0.12 -0.12)">
      <use xlink:href="#DejaVuSans-50"/>
      <use xlink:href="#DejaVuSans-72" x="58.552734"/>
      <use xlink:href="#DejaVuSans-65" x="97.416016"/>
      <use xlink:href="#DejaVuSans-64" x="158.939453"/>
      <use xlink:href="#DejaVuSans-69" x="222.416016"/>
      <use xlink:href="#DejaVuSans-63" x="250.199219"/>
      <use xlink:href="#DejaVuSans-74" x="305.179688"/>
      <use xlink:href="#DejaVuSans-65" x="344.388672"/>
      <use xlink:href="#DejaVuSans-64" x="405.912109"/>
      <use xlink:href="#DejaVuSans-20" x="469.388672"/>
      <use xlink:href="#DejaVuSans-46" x="501.175781"/>
      <use xlink:href="#DejaVuSans-6c" x="558.695312"/>
      <use xlink:href="#DejaVuSans-75" x="586.478516"/>
      <use xlink:href="#DejaVuSans-6f" x="649.857422"/>
      <use xlink:href="#DejaVuSans-72" x="711.039062"/>
      <use xlink:href="#DejaVuSans-65" x="749.902344"/>
      <use xlink:href="#DejaVuSans-73" x="811.425781"/>
      <use xlink:href="#DejaVuSans-63" x="863.525391"/>
      <use xlink:href="#DejaVuSans-65" x="918.505859"/>
      <use xlink:href="#DejaVuSans-6e" x="980.029297"/>
      <use xlink:href="#DejaVuSans-63" x="1043.408203"/>
      <use xlink:href="#DejaVuSans-65" x="1098.388672"/>
     </g>
    </g>
   </g>
   <g id="matplotlib.axis_4">
    <g id="ytick_6">
     <g id="line2d_21">
      <g>
       <use xlink:href="#m0662a00744" x="475.13" y="389.32" style="stroke: #000000; stroke-width: 0.8"/>
      </g>
     </g>
     <g id="text_26">
      <!-- 0.0 -->
      <g transform="translate(452.226875 393.119219) scale(0.1 -0.1)">
       <use xlink:href="#DejaVuSans-30"/>
       <use xlink:href="#DejaVuSans-2e" x="63.623047"/>
       <use xlink:href="#DejaVuSans-30" x="95.410156"/>
      </g>
     </g>
    </g>
    <g id="ytick_7">
     <g id="line2d_22">
      <g>
       <use xlink:href="#m0662a00744" x="475.13" y="314.408" style="stroke: #000000; stroke-width: 0.8"/>
      </g>
     </g>
     <g id="text_27">
      <!-- 0.2 -->
      <g transform="translate(452.226875 318.207219) scale(0.1 -0.1)">
       <use xlink:href="#DejaVuSans-30"/>
       <use xlink:href="#DejaVuSans-2e" x="63.623047"/>
       <use xlink:href="#DejaVuSans-32" x="95.410156"/>
      </g>
     </g>
    </g>
    <g id="ytick_8">
     <g id="line2d_23">
      <g>
       <use xlink:href="#m0662a00744" x="475.13" y="239.496" style="stroke: #000000; stroke-width: 0.8"/>
      </g>
     </g>
     <g id="text_28">
      <!-- 0.4 -->
      <g transform="translate(452.226875 243.295219) scale(0.1 -0.1)">
       <use xlink:href="#DejaVuSans-30"/>
       <use xlink:href="#DejaVuSans-2e" x="63.623047"/>
       <use xlink:href="#DejaVuSans-34" x="95.410156"/>
      </g>
     </g>
    </g>
    <g id="ytick_9">
     <g id="line2d_24">
      <g>
       <use xlink:href="#m0662a00744" x="475.13" y="164.584" style="stroke: #000000; stroke-width: 0.8"/>
      </g>
     </g>
     <g id="text_29">
      <!-- 0.6 -->
      <g transform="translate(452.226875 168.383219) scale(0.1 -0.1)">
       <defs>
        <path id="DejaVuSans-36" d="M 2113 2584 
Q 1688 2584 1439 2293 
Q 1191 2003 1191 1497 
Q 1191 994 1439 701 
Q 1688 409 2113 409 
Q 2538 409 2786 701 
Q 3034 994 3034 1497 
Q 3034 2003 2786 2293 
Q 2538 2584 2113 2584 
z
M 3366 4563 
L 3366 3988 
Q 3128 4100 2886 4159 
Q 2644 4219 2406 4219 
Q 1781 4219 1451 3797 
Q 1122 3375 1075 2522 
Q 1259 2794 1537 2939 
Q 1816 3084 2150 3084 
Q 2853 3084 3261 2657 
Q 3669 2231 3669 1497 
Q 3669 778 3244 343 
Q 2819 -91 2113 -91 
Q 1303 -91 875 529 
Q 447 1150 447 2328 
Q 447 3434 972 4092 
Q 1497 4750 2381 4750 
Q 2619 4750 2861 4703 
Q 3103 4656 3366 4563 
z
" transform="scale(0.015625)"/>
       </defs>
       <use xlink:href="#DejaVuSans-30"/>
       <use xlink:href="#DejaVuSans-2e" x="63.623047"/>
       <use xlink:href="#DejaVuSans-36" x="95.410156"/>
      </g>
     </g>
    </g>
    <g id="ytick_10">
     <g id="line2d_25">
      <g>
       <use xlink:href="#m0662a00744" x="475.13" y="89.672" style="stroke: #000000; stroke-width: 0.8"/>
      </g>
     </g>
     <g id="text_30">
      <!-- 0.8 -->
      <g transform="translate(452.226875 93.471219) scale(0.1 -0.1)">
       <defs>
        <path id="DejaVuSans-38" d="M 2034 2216 
Q 1584 2216 1326 1975 
Q 1069 1734 1069 1313 
Q 1069 891 1326 650 
Q 1584 409 2034 409 
Q 2484 409 2743 651 
Q 3003 894 3003 1313 
Q 3003 1734 2745 1975 
Q 2488 2216 2034 2216 
z
M 1403 2484 
Q 997 2584 770 2862 
Q 544 3141 544 3541 
Q 544 4100 942 4425 
Q 1341 4750 2034 4750 
Q 2731 4750 3128 4425 
Q 3525 4100 3525 3541 
Q 3525 3141 3298 2862 
Q 3072 2584 2669 2484 
Q 3125 2378 3379 2068 
Q 3634 1759 3634 1313 
Q 3634 634 3220 271 
Q 2806 -91 2034 -91 
Q 1263 -91 848 271 
Q 434 634 434 1313 
Q 434 1759 690 2068 
Q 947 2378 1403 2484 
z
M 1172 3481 
Q 1172 3119 1398 2916 
Q 1625 2713 2034 2713 
Q 2441 2713 2670 2916 
Q 2900 3119 2900 3481 
Q 2900 3844 2670 4047 
Q 2441 4250 2034 4250 
Q 1625 4250 1398 4047 
Q 1172 3844 1172 3481 
z
" transform="scale(0.015625)"/>
       </defs>
       <use xlink:href="#DejaVuSans-30"/>
       <use xlink:href="#DejaVuSans-2e" x="63.623047"/>
       <use xlink:href="#DejaVuSans-38" x="95.410156"/>
      </g>
     </g>
    </g>
    <g id="ytick_11">
     <g id="line2d_26">
      <g>
       <use xlink:href="#m0662a00744" x="475.13" y="14.76" style="stroke: #000000; stroke-width: 0.8"/>
      </g>
     </g>
     <g id="text_31">
      <!-- 1.0 -->
      <g transform="translate(452.226875 18.559219) scale(0.1 -0.1)">
       <use xlink:href="#DejaVuSans-31"/>
       <use xlink:href="#DejaVuSans-2e" x="63.623047"/>
       <use xlink:href="#DejaVuSans-30" x="95.410156"/>
      </g>
     </g>
    </g>
    <g id="text_32">
     <!-- Cumulative Density -->
     <g transform="translate(445.73125 261.002187) rotate(-90) scale(0.12 -0.12)">
      <defs>
       <path id="DejaVuSans-43" d="M 4122 4306 
L 4122 3641 
Q 3803 3938 3442 4084 
Q 3081 4231 2675 4231 
Q 1875 4231 1450 3742 
Q 1025 3253 1025 2328 
Q 1025 1406 1450 917 
Q 1875 428 2675 428 
Q 3081 428 3442 575 
Q 3803 722 4122 1019 
L 4122 359 
Q 3791 134 3420 21 
Q 3050 -91 2638 -91 
Q 1578 -91 968 557 
Q 359 1206 359 2328 
Q 359 3453 968 4101 
Q 1578 4750 2638 4750 
Q 3056 4750 3426 4639 
Q 3797 4528 4122 4306 
z
" transform="scale(0.015625)"/>
       <path id="DejaVuSans-6d" d="M 3328 2828 
Q 3544 3216 3844 3400 
Q 4144 3584 4550 3584 
Q 5097 3584 5394 3201 
Q 5691 2819 5691 2113 
L 5691 0 
L 5113 0 
L 5113 2094 
Q 5113 2597 4934 2840 
Q 4756 3084 4391 3084 
Q 3944 3084 3684 2787 
Q 3425 2491 3425 1978 
L 3425 0 
L 2847 0 
L 2847 2094 
Q 2847 2600 2669 2842 
Q 2491 3084 2119 3084 
Q 1678 3084 1418 2786 
Q 1159 2488 1159 1978 
L 1159 0 
L 581 0 
L 581 3500 
L 1159 3500 
L 1159 2956 
Q 1356 3278 1631 3431 
Q 1906 3584 2284 3584 
Q 2666 3584 2933 3390 
Q 3200 3197 3328 2828 
z
" transform="scale(0.015625)"/>
       <path id="DejaVuSans-76" d="M 191 3500 
L 800 3500 
L 1894 563 
L 2988 3500 
L 3597 3500 
L 2284 0 
L 1503 0 
L 191 3500 
z
" transform="scale(0.015625)"/>
      </defs>
      <use xlink:href="#DejaVuSans-43"/>
      <use xlink:href="#DejaVuSans-75" x="69.824219"/>
      <use xlink:href="#DejaVuSans-6d" x="133.203125"/>
      <use xlink:href="#DejaVuSans-75" x="230.615234"/>
      <use xlink:href="#DejaVuSans-6c" x="293.994141"/>
      <use xlink:href="#DejaVuSans-61" x="321.777344"/>
      <use xlink:href="#DejaVuSans-74" x="383.056641"/>
      <use xlink:href="#DejaVuSans-69" x="422.265625"/>
      <use xlink:href="#DejaVuSans-76" x="450.048828"/>
      <use xlink:href="#DejaVuSans-65" x="509.228516"/>
      <use xlink:href="#DejaVuSans-20" x="570.751953"/>
      <use xlink:href="#DejaVuSans-44" x="602.539062"/>
      <use xlink:href="#DejaVuSans-65" x="679.541016"/>
      <use xlink:href="#DejaVuSans-6e" x="741.064453"/>
      <use xlink:href="#DejaVuSans-73" x="804.443359"/>
      <use xlink:href="#DejaVuSans-69" x="856.542969"/>
      <use xlink:href="#DejaVuSans-74" x="884.326172"/>
      <use xlink:href="#DejaVuSans-79" x="923.535156"/>
     </g>
    </g>
   </g>
   <g id="line2d_27">
    <path d="M 493.344955 14.76 
L 493.344955 18.5056 
L 495.612007 18.5056 
L 495.612007 22.2512 
L 501.400394 22.2512 
L 501.400394 25.9968 
L 509.531814 25.9968 
L 509.531814 29.7424 
L 512.370391 29.7424 
L 512.370391 33.488 
L 515.015235 33.488 
L 515.015235 37.2336 
L 518.211539 37.2336 
L 518.211539 40.9792 
L 520.200226 40.9792 
L 520.200226 44.7248 
L 520.725829 44.7248 
L 520.725829 48.4704 
L 521.248017 48.4704 
L 521.248017 52.216 
L 527.587948 52.216 
L 527.587948 55.9616 
L 529.871163 55.9616 
L 529.871163 59.7072 
L 530.470565 59.7072 
L 530.470565 63.4528 
L 530.662391 63.4528 
L 530.662391 67.1984 
L 532.905772 67.1984 
L 532.905772 70.944 
L 534.922568 70.944 
L 534.922568 74.6896 
L 539.184451 74.6896 
L 539.184451 78.4352 
L 541.84731 78.4352 
L 541.84731 82.1808 
L 542.500481 82.1808 
L 542.500481 85.9264 
L 542.765404 85.9264 
L 542.765404 89.672 
L 543.944847 89.672 
L 544.0112 97.1632 
L 544.252994 97.1632 
L 544.340551 104.6544 
L 549.893145 104.6544 
L 549.893145 108.4 
L 550.204684 108.4 
L 550.204684 112.1456 
L 550.462251 112.1456 
L 550.462251 115.8912 
L 550.837896 115.8912 
L 550.837896 119.6368 
L 551.153349 119.6368 
L 551.153349 123.3824 
L 551.346513 123.3824 
L 551.346513 127.128 
L 551.522026 127.128 
L 551.522026 130.8736 
L 552.128135 130.8736 
L 552.128135 134.6192 
L 552.325314 134.6192 
L 552.325314 138.3648 
L 553.411521 138.3648 
L 553.46043 145.856 
L 553.697048 145.856 
L 553.697048 149.6016 
L 556.089978 149.6016 
L 556.112646 160.8384 
L 558.625718 160.8384 
L 558.625718 164.584 
L 558.909641 164.584 
L 558.909641 168.3296 
L 559.849682 168.3296 
L 559.849682 172.0752 
L 560.776033 172.0752 
L 560.798636 179.5664 
L 560.88864 179.5664 
L 560.94807 190.8032 
L 561.753088 190.8032 
L 561.793907 198.2944 
L 562.256708 198.2944 
L 562.256708 202.04 
L 562.734256 202.04 
L 562.734256 205.7856 
L 563.790138 205.7856 
L 563.790138 209.5312 
L 564.74199 209.5312 
L 564.74199 213.2768 
L 565.440167 213.2768 
L 565.440167 217.0224 
L 565.701114 217.0224 
L 565.701114 220.768 
L 566.697458 220.768 
L 566.697458 224.5136 
L 567.988414 224.5136 
L 567.988414 228.2592 
L 568.752088 228.2592 
L 568.752088 232.0048 
L 569.456713 232.0048 
L 569.456713 235.7504 
L 570.213908 235.7504 
L 570.213908 239.496 
L 570.840863 239.496 
L 570.840863 243.2416 
L 572.974964 243.2416 
L 572.974964 246.9872 
L 574.412403 246.9872 
L 574.412403 250.7328 
L 576.114394 250.7328 
L 576.114394 254.4784 
L 576.832918 254.4784 
L 576.832918 258.224 
L 578.047439 258.224 
L 578.047439 261.9696 
L 579.389603 261.9696 
L 579.389603 265.7152 
L 582.059561 265.7152 
L 582.169803 273.2064 
L 583.791783 273.2064 
L 583.791783 276.952 
L 584.773607 276.952 
L 584.773607 280.6976 
L 586.145692 280.6976 
L 586.145692 284.4432 
L 586.483954 284.4432 
L 586.483954 288.1888 
L 587.393637 288.1888 
L 587.393637 291.9344 
L 587.708445 291.9344 
L 587.708445 295.68 
L 588.052623 295.68 
L 588.052623 299.4256 
L 588.606246 299.4256 
L 588.606246 303.1712 
L 589.521348 303.1712 
L 589.521348 306.9168 
L 590.490884 306.9168 
L 590.490884 310.6624 
L 590.647306 310.6624 
L 590.647306 314.408 
L 591.01103 314.408 
L 591.01103 318.1536 
L 593.18061 318.1536 
L 593.18061 321.8992 
L 593.486764 321.8992 
L 593.486764 325.6448 
L 593.619853 325.6448 
L 593.619853 329.3904 
L 598.085102 329.3904 
L 598.085102 333.136 
L 599.020692 333.136 
L 599.086114 340.6272 
L 600.014519 340.6272 
L 600.014519 344.3728 
L 600.319063 344.3728 
L 600.319063 348.1184 
L 600.784409 348.1184 
L 600.784409 351.864 
L 601.112959 351.864 
L 601.112959 355.6096 
L 605.016848 355.6096 
L 605.016848 359.3552 
L 606.728457 359.3552 
L 606.728457 363.1008 
L 608.860613 363.1008 
L 608.860613 366.8464 
L 610.408281 366.8464 
L 610.408281 370.592 
L 615.588327 370.592 
L 615.588327 374.3376 
L 617.46541 374.3376 
L 617.46541 378.0832 
L 618.360831 378.0832 
L 618.360831 381.8288 
L 629.975181 381.8288 
L 629.975181 385.5744 
L 662.708611 385.5744 
L 662.708611 389.32 
L 662.708611 389.32 
" clip-path="url(#pea502b7548)" style="fill: none; stroke: #808080; stroke-width: 1.5; stroke-linecap: square"/>
   </g>
   <g id="line2d_28">
    <path d="M 725.962473 14.76 
L 725.962473 18.5056 
L 731.529679 18.5056 
L 731.529679 22.2512 
L 744.621796 22.2512 
L 744.621796 25.9968 
L 747.192007 25.9968 
L 747.192007 29.7424 
L 751.003535 29.7424 
L 751.003535 33.488 
L 757.675016 33.488 
L 757.675016 37.2336 
L 758.684466 37.2336 
L 758.684466 40.9792 
L 761.316008 40.9792 
L 761.316008 44.7248 
L 764.419065 44.7248 
L 764.419065 48.4704 
L 765.999059 48.4704 
L 765.999059 52.216 
L 766.82312 52.216 
L 766.82312 55.9616 
L 767.647771 55.9616 
L 767.647771 59.7072 
L 768.190047 59.7072 
L 768.190047 63.4528 
L 769.927572 63.4528 
L 769.927572 67.1984 
L 770.252714 67.1984 
L 770.252714 70.944 
L 772.35086 70.944 
L 772.35086 74.6896 
L 772.583494 74.6896 
L 772.583494 78.4352 
L 772.700164 78.4352 
L 772.700164 82.1808 
L 775.313732 82.1808 
L 775.313732 85.9264 
L 775.987078 85.9264 
L 775.987078 89.672 
L 778.344771 89.672 
L 778.344771 93.4176 
L 779.725527 93.4176 
L 779.822966 100.9088 
L 780.064892 100.9088 
L 780.064892 104.6544 
L 780.399463 104.6544 
L 780.399463 108.4 
L 781.830097 108.4 
L 781.830097 112.1456 
L 782.50967 112.1456 
L 782.50967 115.8912 
L 783.101687 115.8912 
L 783.101687 119.6368 
L 783.531516 119.6368 
L 783.635201 127.128 
L 783.72928 127.128 
L 783.72928 130.8736 
L 783.877225 130.8736 
L 783.877225 134.6192 
L 784.925237 134.6192 
L 784.925237 138.3648 
L 785.163058 138.3648 
L 785.163058 142.1104 
L 785.276644 142.1104 
L 785.276644 145.856 
L 785.686592 145.856 
L 785.686592 149.6016 
L 786.1353 149.6016 
L 786.1353 153.3472 
L 788.194097 153.3472 
L 788.211581 160.8384 
L 789.151213 160.8384 
L 789.151213 164.584 
L 789.267805 164.584 
L 789.267805 168.3296 
L 789.493465 168.3296 
L 789.493465 172.0752 
L 790.065031 172.0752 
L 790.065031 175.8208 
L 791.58609 175.8208 
L 791.58609 179.5664 
L 791.785878 179.5664 
L 791.785878 183.312 
L 792.553598 183.312 
L 792.610136 190.8032 
L 793.480657 190.8032 
L 793.587741 198.2944 
L 794.142236 198.2944 
L 794.142236 202.04 
L 795.044248 202.04 
L 795.044248 205.7856 
L 796.159366 205.7856 
L 796.159366 209.5312 
L 796.770753 209.5312 
L 796.770753 213.2768 
L 797.350157 213.2768 
L 797.350157 217.0224 
L 797.679129 217.0224 
L 797.785722 224.5136 
L 800.339942 224.5136 
L 800.339942 228.2592 
L 802.018652 228.2592 
L 802.018652 232.0048 
L 802.385126 232.0048 
L 802.385126 235.7504 
L 802.597251 235.7504 
L 802.597251 239.496 
L 803.133771 239.496 
L 803.133771 243.2416 
L 805.421626 243.2416 
L 805.501051 250.7328 
L 805.595915 250.7328 
L 805.595915 254.4784 
L 805.895656 254.4784 
L 805.895656 258.224 
L 808.197146 258.224 
L 808.197146 261.9696 
L 808.925556 261.9696 
L 808.98286 269.4608 
L 810.837194 269.4608 
L 810.837194 273.2064 
L 811.361495 273.2064 
L 811.361495 276.952 
L 811.94968 276.952 
L 811.981485 284.4432 
L 812.135756 284.4432 
L 812.135756 288.1888 
L 812.986456 288.1888 
L 812.986456 291.9344 
L 813.244785 291.9344 
L 813.244785 295.68 
L 815.101221 295.68 
L 815.101221 299.4256 
L 815.686814 299.4256 
L 815.686814 303.1712 
L 816.901689 303.1712 
L 816.901689 306.9168 
L 817.167464 306.9168 
L 817.256573 314.408 
L 817.380964 314.408 
L 817.380964 318.1536 
L 818.043741 318.1536 
L 818.043741 321.8992 
L 818.278615 321.8992 
L 818.365288 329.3904 
L 818.946814 329.3904 
L 818.946814 333.136 
L 819.97687 333.136 
L 819.97687 336.8816 
L 820.456204 336.8816 
L 820.456204 340.6272 
L 821.161905 340.6272 
L 821.161905 344.3728 
L 821.937424 344.3728 
L 821.937424 348.1184 
L 822.67988 348.1184 
L 822.67988 351.864 
L 823.215025 351.864 
L 823.215025 355.6096 
L 824.478345 355.6096 
L 824.478345 359.3552 
L 824.842206 359.3552 
L 824.842206 363.1008 
L 827.823033 363.1008 
L 827.823033 366.8464 
L 828.011407 366.8464 
L 828.011407 370.592 
L 829.015612 370.592 
L 829.015612 374.3376 
L 831.354092 374.3376 
L 831.354092 378.0832 
L 831.680354 378.0832 
L 831.680354 381.8288 
L 832.261173 381.8288 
L 832.261173 385.5744 
L 834.985045 385.5744 
L 834.985045 389.32 
L 834.985045 389.32 
" clip-path="url(#pea502b7548)" style="fill: none; stroke: #ffa500; stroke-width: 1.5; stroke-linecap: square"/>
   </g>
   <g id="line2d_29">
    <path d="M 639.757955 14.76 
L 639.757955 18.5056 
L 683.284935 18.5056 
L 683.284935 22.2512 
L 695.46232 22.2512 
L 695.46232 25.9968 
L 709.060213 25.9968 
L 709.060213 29.7424 
L 712.643508 29.7424 
L 712.643508 33.488 
L 712.826018 33.488 
L 712.826018 37.2336 
L 712.978363 37.2336 
L 712.978363 40.9792 
L 713.809241 40.9792 
L 713.809241 44.7248 
L 715.449663 44.7248 
L 715.449663 48.4704 
L 715.782682 48.4704 
L 715.782682 52.216 
L 718.551424 52.216 
L 718.551424 55.9616 
L 719.311148 55.9616 
L 719.311148 59.7072 
L 720.803271 59.7072 
L 720.803271 63.4528 
L 721.458642 63.4528 
L 721.458642 67.1984 
L 721.835862 67.1984 
L 721.835862 70.944 
L 723.376114 70.944 
L 723.376114 74.6896 
L 725.205283 74.6896 
L 725.229073 82.1808 
L 726.629886 82.1808 
L 726.629886 85.9264 
L 728.087199 85.9264 
L 728.087199 89.672 
L 728.248463 89.672 
L 728.248463 93.4176 
L 728.732865 93.4176 
L 728.732865 97.1632 
L 729.377923 97.1632 
L 729.377923 100.9088 
L 733.081719 100.9088 
L 733.081719 104.6544 
L 733.639789 104.6544 
L 733.639789 108.4 
L 734.254024 108.4 
L 734.254024 112.1456 
L 736.259937 112.1456 
L 736.259937 115.8912 
L 736.421142 115.8912 
L 736.421142 119.6368 
L 736.637078 119.6368 
L 736.637078 123.3824 
L 738.01534 123.3824 
L 738.01534 127.128 
L 738.577142 127.128 
L 738.577142 130.8736 
L 738.862955 130.8736 
L 738.862955 134.6192 
L 739.033511 134.6192 
L 739.033511 138.3648 
L 739.334391 138.3648 
L 739.404072 145.856 
L 741.609301 145.856 
L 741.609301 149.6016 
L 742.590875 149.6016 
L 742.590875 153.3472 
L 743.849126 153.3472 
L 743.849126 157.0928 
L 746.143013 157.0928 
L 746.143013 160.8384 
L 748.194168 160.8384 
L 748.194168 164.584 
L 750.561389 164.584 
L 750.561389 168.3296 
L 750.747956 168.3296 
L 750.747956 172.0752 
L 750.95075 172.0752 
L 750.95075 175.8208 
L 751.438393 175.8208 
L 751.438393 179.5664 
L 753.907316 179.5664 
L 753.907316 183.312 
L 754.816262 183.312 
L 754.816262 187.0576 
L 756.99835 187.0576 
L 756.99835 190.8032 
L 758.482065 190.8032 
L 758.482065 194.5488 
L 758.620168 194.5488 
L 758.620168 198.2944 
L 758.814043 198.2944 
L 758.814043 202.04 
L 759.012966 202.04 
L 759.012966 205.7856 
L 759.563414 205.7856 
L 759.563414 209.5312 
L 759.813532 209.5312 
L 759.813532 213.2768 
L 760.432344 213.2768 
L 760.432344 217.0224 
L 761.27163 217.0224 
L 761.27163 220.768 
L 761.405038 220.768 
L 761.405038 224.5136 
L 761.695212 224.5136 
L 761.695212 228.2592 
L 764.042945 228.2592 
L 764.042945 232.0048 
L 764.563651 232.0048 
L 764.563651 235.7504 
L 764.978275 235.7504 
L 764.978275 239.496 
L 765.135178 239.496 
L 765.135178 243.2416 
L 767.674056 243.2416 
L 767.674056 246.9872 
L 768.307523 246.9872 
L 768.307523 250.7328 
L 768.853413 250.7328 
L 768.853413 254.4784 
L 769.069035 254.4784 
L 769.069035 258.224 
L 770.871604 258.224 
L 770.940322 265.7152 
L 771.950243 265.7152 
L 771.950243 269.4608 
L 774.122273 269.4608 
L 774.122273 273.2064 
L 774.38461 273.2064 
L 774.481341 280.6976 
L 774.652133 280.6976 
L 774.652133 284.4432 
L 774.854632 284.4432 
L 774.854632 288.1888 
L 775.367794 288.1888 
L 775.367794 291.9344 
L 775.520199 291.9344 
L 775.520199 295.68 
L 775.733934 295.68 
L 775.81216 303.1712 
L 776.23364 303.1712 
L 776.23364 306.9168 
L 776.860212 306.9168 
L 776.860212 310.6624 
L 777.532516 310.6624 
L 777.532516 314.408 
L 781.13636 314.408 
L 781.13636 318.1536 
L 781.927634 318.1536 
L 781.927634 321.8992 
L 782.328427 321.8992 
L 782.328427 325.6448 
L 783.594968 325.6448 
L 783.594968 329.3904 
L 784.151349 329.3904 
L 784.151349 333.136 
L 786.602198 333.136 
L 786.602198 336.8816 
L 787.476609 336.8816 
L 787.476609 340.6272 
L 789.879486 340.6272 
L 789.879486 344.3728 
L 791.239163 344.3728 
L 791.239163 348.1184 
L 793.695984 348.1184 
L 793.695984 351.864 
L 795.806349 351.864 
L 795.806349 355.6096 
L 797.852554 355.6096 
L 797.852554 359.3552 
L 798.541793 359.3552 
L 798.541793 363.1008 
L 798.700582 363.1008 
L 798.700582 366.8464 
L 799.656676 366.8464 
L 799.656676 370.592 
L 803.442725 370.592 
L 803.442725 374.3376 
L 804.169289 374.3376 
L 804.169289 378.0832 
L 806.048768 378.0832 
L 806.048768 381.8288 
L 807.642769 381.8288 
L 807.642769 385.5744 
L 812.546628 385.5744 
L 812.546628 389.32 
L 812.546628 389.32 
" clip-path="url(#pea502b7548)" style="fill: none; stroke: #0000ff; stroke-width: 1.5; stroke-linecap: square"/>
   </g>
   <g id="line2d_30">
    <path d="M 572.004813 389.32 
L 572.004813 14.76 
" clip-path="url(#pea502b7548)" style="fill: none; stroke-dasharray: 11.1,4.8; stroke-dashoffset: 0; stroke: #ffa500; stroke-width: 3"/>
   </g>
   <g id="patch_89">
    <path d="M 475.13 389.32 
L 475.13 14.76 
" style="fill: none; stroke: #000000; stroke-width: 0.8; stroke-linejoin: miter; stroke-linecap: square"/>
   </g>
   <g id="patch_90">
    <path d="M 475.13 389.32 
L 853.2 389.32 
" style="fill: none; stroke: #000000; stroke-width: 0.8; stroke-linejoin: miter; stroke-linecap: square"/>
   </g>
   <g id="legend_2">
    <g id="patch_91">
     <path d="M 482.13 384.32 
L 687.400312 384.32 
Q 689.400312 384.32 689.400312 382.32 
L 689.400312 339.285625 
Q 689.400312 337.285625 687.400312 337.285625 
L 482.13 337.285625 
Q 480.13 337.285625 480.13 339.285625 
L 480.13 382.32 
Q 480.13 384.32 482.13 384.32 
z
" style="fill: #ffffff; opacity: 0.8; stroke: #000000; stroke-linejoin: miter"/>
    </g>
    <g id="patch_92">
     <path d="M 484.13 348.884063 
L 504.13 348.884063 
L 504.13 341.884063 
L 484.13 341.884063 
z
" style="fill: #ff0000; opacity: 0.8; stroke: #ff0000; stroke-linejoin: miter"/>
    </g>
    <g id="text_33">
     <!-- Less than WT Log Fluorescence -->
     <g transform="translate(512.13 348.884063) scale(0.1 -0.1)">
      <defs>
       <path id="DejaVuSans-4c" d="M 628 4666 
L 1259 4666 
L 1259 531 
L 3531 531 
L 3531 0 
L 628 0 
L 628 4666 
z
" transform="scale(0.015625)"/>
       <path id="DejaVuSans-68" d="M 3513 2113 
L 3513 0 
L 2938 0 
L 2938 2094 
Q 2938 2591 2744 2837 
Q 2550 3084 2163 3084 
Q 1697 3084 1428 2787 
Q 1159 2491 1159 1978 
L 1159 0 
L 581 0 
L 581 4863 
L 1159 4863 
L 1159 2956 
Q 1366 3272 1645 3428 
Q 1925 3584 2291 3584 
Q 2894 3584 3203 3211 
Q 3513 2838 3513 2113 
z
" transform="scale(0.015625)"/>
       <path id="DejaVuSans-57" d="M 213 4666 
L 850 4666 
L 1831 722 
L 2809 4666 
L 3519 4666 
L 4500 722 
L 5478 4666 
L 6119 4666 
L 4947 0 
L 4153 0 
L 3169 4050 
L 2175 0 
L 1381 0 
L 213 4666 
z
" transform="scale(0.015625)"/>
      </defs>
      <use xlink:href="#DejaVuSans-4c"/>
      <use xlink:href="#DejaVuSans-65" x="53.962891"/>
      <use xlink:href="#DejaVuSans-73" x="115.486328"/>
      <use xlink:href="#DejaVuSans-73" x="167.585938"/>
      <use xlink:href="#DejaVuSans-20" x="219.685547"/>
      <use xlink:href="#DejaVuSans-74" x="251.472656"/>
      <use xlink:href="#DejaVuSans-68" x="290.681641"/>
      <use xlink:href="#DejaVuSans-61" x="354.060547"/>
      <use xlink:href="#DejaVuSans-6e" x="415.339844"/>
      <use xlink:href="#DejaVuSans-20" x="478.71875"/>
      <use xlink:href="#DejaVuSans-57" x="510.505859"/>
      <use xlink:href="#DejaVuSans-54" x="609.382812"/>
      <use xlink:href="#DejaVuSans-20" x="670.466797"/>
      <use xlink:href="#DejaVuSans-4c" x="702.253906"/>
      <use xlink:href="#DejaVuSans-6f" x="756.216797"/>
      <use xlink:href="#DejaVuSans-67" x="817.398438"/>
      <use xlink:href="#DejaVuSans-20" x="880.875"/>
      <use xlink:href="#DejaVuSans-46" x="912.662109"/>
      <use xlink:href="#DejaVuSans-6c" x="970.181641"/>
      <use xlink:href="#DejaVuSans-75" x="997.964844"/>
      <use xlink:href="#DejaVuSans-6f" x="1061.34375"/>
      <use xlink:href="#DejaVuSans-72" x="1122.525391"/>
      <use xlink:href="#DejaVuSans-65" x="1161.388672"/>
      <use xlink:href="#DejaVuSans-73" x="1222.912109"/>
      <use xlink:href="#DejaVuSans-63" x="1275.011719"/>
      <use xlink:href="#DejaVuSans-65" x="1329.992188"/>
      <use xlink:href="#DejaVuSans-6e" x="1391.515625"/>
      <use xlink:href="#DejaVuSans-63" x="1454.894531"/>
      <use xlink:href="#DejaVuSans-65" x="1509.875"/>
     </g>
    </g>
    <g id="patch_93">
     <path d="M 484.13 363.562187 
L 504.13 363.562187 
L 504.13 356.562187 
L 484.13 356.562187 
z
" style="fill: #ffa500; opacity: 0.8; stroke: #ffa500; stroke-linejoin: miter"/>
    </g>
    <g id="text_34">
     <!-- Mean WT Log Fluorescence -->
     <g transform="translate(512.13 363.562187) scale(0.1 -0.1)">
      <use xlink:href="#DejaVuSans-4d"/>
      <use xlink:href="#DejaVuSans-65" x="86.279297"/>
      <use xlink:href="#DejaVuSans-61" x="147.802734"/>
      <use xlink:href="#DejaVuSans-6e" x="209.082031"/>
      <use xlink:href="#DejaVuSans-20" x="272.460938"/>
      <use xlink:href="#DejaVuSans-57" x="304.248047"/>
      <use xlink:href="#DejaVuSans-54" x="403.125"/>
      <use xlink:href="#DejaVuSans-20" x="464.208984"/>
      <use xlink:href="#DejaVuSans-4c" x="495.996094"/>
      <use xlink:href="#DejaVuSans-6f" x="549.958984"/>
      <use xlink:href="#DejaVuSans-67" x="611.140625"/>
      <use xlink:href="#DejaVuSans-20" x="674.617188"/>
      <use xlink:href="#DejaVuSans-46" x="706.404297"/>
      <use xlink:href="#DejaVuSans-6c" x="763.923828"/>
      <use xlink:href="#DejaVuSans-75" x="791.707031"/>
      <use xlink:href="#DejaVuSans-6f" x="855.085938"/>
      <use xlink:href="#DejaVuSans-72" x="916.267578"/>
      <use xlink:href="#DejaVuSans-65" x="955.130859"/>
      <use xlink:href="#DejaVuSans-73" x="1016.654297"/>
      <use xlink:href="#DejaVuSans-63" x="1068.753906"/>
      <use xlink:href="#DejaVuSans-65" x="1123.734375"/>
      <use xlink:href="#DejaVuSans-6e" x="1185.257812"/>
      <use xlink:href="#DejaVuSans-63" x="1248.636719"/>
      <use xlink:href="#DejaVuSans-65" x="1303.617188"/>
     </g>
    </g>
    <g id="patch_94">
     <path d="M 484.13 378.240313 
L 504.13 378.240313 
L 504.13 371.240313 
L 484.13 371.240313 
z
" style="fill: #008000; opacity: 0.8; stroke: #008000; stroke-linejoin: miter"/>
    </g>
    <g id="text_35">
     <!-- Greater than WT Log Fluorescence -->
     <g transform="translate(512.13 378.240313) scale(0.1 -0.1)">
      <defs>
       <path id="DejaVuSans-47" d="M 3809 666 
L 3809 1919 
L 2778 1919 
L 2778 2438 
L 4434 2438 
L 4434 434 
Q 4069 175 3628 42 
Q 3188 -91 2688 -91 
Q 1594 -91 976 548 
Q 359 1188 359 2328 
Q 359 3472 976 4111 
Q 1594 4750 2688 4750 
Q 3144 4750 3555 4637 
Q 3966 4525 4313 4306 
L 4313 3634 
Q 3963 3931 3569 4081 
Q 3175 4231 2741 4231 
Q 1884 4231 1454 3753 
Q 1025 3275 1025 2328 
Q 1025 1384 1454 906 
Q 1884 428 2741 428 
Q 3075 428 3337 486 
Q 3600 544 3809 666 
z
" transform="scale(0.015625)"/>
      </defs>
      <use xlink:href="#DejaVuSans-47"/>
      <use xlink:href="#DejaVuSans-72" x="77.490234"/>
      <use xlink:href="#DejaVuSans-65" x="116.353516"/>
      <use xlink:href="#DejaVuSans-61" x="177.876953"/>
      <use xlink:href="#DejaVuSans-74" x="239.15625"/>
      <use xlink:href="#DejaVuSans-65" x="278.365234"/>
      <use xlink:href="#DejaVuSans-72" x="339.888672"/>
      <use xlink:href="#DejaVuSans-20" x="381.001953"/>
      <use xlink:href="#DejaVuSans-74" x="412.789062"/>
      <use xlink:href="#DejaVuSans-68" x="451.998047"/>
      <use xlink:href="#DejaVuSans-61" x="515.376953"/>
      <use xlink:href="#DejaVuSans-6e" x="576.65625"/>
      <use xlink:href="#DejaVuSans-20" x="640.035156"/>
      <use xlink:href="#DejaVuSans-57" x="671.822266"/>
      <use xlink:href="#DejaVuSans-54" x="770.699219"/>
      <use xlink:href="#DejaVuSans-20" x="831.783203"/>
      <use xlink:href="#DejaVuSans-4c" x="863.570312"/>
      <use xlink:href="#DejaVuSans-6f" x="917.533203"/>
      <use xlink:href="#DejaVuSans-67" x="978.714844"/>
      <use xlink:href="#DejaVuSans-20" x="1042.191406"/>
      <use xlink:href="#DejaVuSans-46" x="1073.978516"/>
      <use xlink:href="#DejaVuSans-6c" x="1131.498047"/>
      <use xlink:href="#DejaVuSans-75" x="1159.28125"/>
      <use xlink:href="#DejaVuSans-6f" x="1222.660156"/>
      <use xlink:href="#DejaVuSans-72" x="1283.841797"/>
      <use xlink:href="#DejaVuSans-65" x="1322.705078"/>
      <use xlink:href="#DejaVuSans-73" x="1384.228516"/>
      <use xlink:href="#DejaVuSans-63" x="1436.328125"/>
      <use xlink:href="#DejaVuSans-65" x="1491.308594"/>
      <use xlink:href="#DejaVuSans-6e" x="1552.832031"/>
      <use xlink:href="#DejaVuSans-63" x="1616.210938"/>
      <use xlink:href="#DejaVuSans-65" x="1671.191406"/>
     </g>
    </g>
   </g>
  </g>
 </g>
 <defs>
  <clipPath id="p955288e209">
   <rect x="48.53" y="14.76" width="378.07" height="374.56"/>
  </clipPath>
  <clipPath id="pea502b7548">
   <rect x="475.13" y="14.76" width="378.07" height="374.56"/>
  </clipPath>
 </defs>
</svg>
