<?xml version="1.0" encoding="utf-8" standalone="no"?>
<!DOCTYPE svg PUBLIC "-//W3C//DTD SVG 1.1//EN"
  "http://www.w3.org/Graphics/SVG/1.1/DTD/svg11.dtd">
<svg xmlns:xlink="http://www.w3.org/1999/xlink" width="432pt" height="432pt" viewBox="0 0 432 432" xmlns="http://www.w3.org/2000/svg" version="1.1">
 <metadata>
  <rdf:RDF xmlns:dc="http://purl.org/dc/elements/1.1/" xmlns:cc="http://creativecommons.org/ns#" xmlns:rdf="http://www.w3.org/1999/02/22-rdf-syntax-ns#">
   <cc:Work>
    <dc:type rdf:resource="http://purl.org/dc/dcmitype/StillImage"/>
    <dc:date>2025-04-01T13:16:12.956728</dc:date>
    <dc:format>image/svg+xml</dc:format>
    <dc:creator>
     <cc:Agent>
      <dc:title>Matplotlib v3.7.1, https://matplotlib.org/</dc:title>
     </cc:Agent>
    </dc:creator>
   </cc:Work>
  </rdf:RDF>
 </metadata>
 <defs>
  <style type="text/css">*{stroke-linejoin: round; stroke-linecap: butt}</style>
 </defs>
 <g id="figure_1">
  <g id="patch_1">
   <path d="M 0 432 
L 432 432 
L 432 0 
L 0 0 
z
" style="fill: #ffffff"/>
  </g>
  <g id="axes_1">
   <g id="patch_2">
    <path d="M 48.17 387.16 
L 421.2 387.16 
L 421.2 10.8 
L 48.17 10.8 
z
" style="fill: #ffffff"/>
   </g>
   <g id="PolyCollection_1">
    <defs>
     <path id="md95c59f136" d="M 342.245424 -44.923883 
L 342.245424 -44.84 
L 342.473381 -44.84 
L 342.701338 -44.84 
L 342.929295 -44.84 
L 343.157252 -44.84 
L 343.385209 -44.84 
L 343.613167 -44.84 
L 343.841124 -44.84 
L 344.069081 -44.84 
L 344.297038 -44.84 
L 344.524995 -44.84 
L 344.752952 -44.84 
L 344.980909 -44.84 
L 345.208867 -44.84 
L 345.436824 -44.84 
L 345.664781 -44.84 
L 345.892738 -44.84 
L 346.120695 -44.84 
L 346.348652 -44.84 
L 346.576609 -44.84 
L 346.804567 -44.84 
L 347.032524 -44.84 
L 347.260481 -44.84 
L 347.488438 -44.84 
L 347.716395 -44.84 
L 347.944352 -44.84 
L 348.172309 -44.84 
L 348.400267 -44.84 
L 348.628224 -44.84 
L 348.856181 -44.84 
L 349.084138 -44.84 
L 349.312095 -44.84 
L 349.540052 -44.84 
L 349.768009 -44.84 
L 349.995967 -44.84 
L 350.223924 -44.84 
L 350.451881 -44.84 
L 350.679838 -44.84 
L 350.907795 -44.84 
L 351.135752 -44.84 
L 351.363709 -44.84 
L 351.591667 -44.84 
L 351.819624 -44.84 
L 352.047581 -44.84 
L 352.275538 -44.84 
L 352.503495 -44.84 
L 352.731452 -44.84 
L 352.959409 -44.84 
L 353.187366 -44.84 
L 353.415324 -44.84 
L 353.643281 -44.84 
L 353.871238 -44.84 
L 354.099195 -44.84 
L 354.327152 -44.84 
L 354.555109 -44.84 
L 354.783066 -44.84 
L 355.011024 -44.84 
L 355.238981 -44.84 
L 355.466938 -44.84 
L 355.694895 -44.84 
L 355.922852 -44.84 
L 356.150809 -44.84 
L 356.378766 -44.84 
L 356.606724 -44.84 
L 356.834681 -44.84 
L 357.062638 -44.84 
L 357.290595 -44.84 
L 357.518552 -44.84 
L 357.746509 -44.84 
L 357.974466 -44.84 
L 358.202424 -44.84 
L 358.430381 -44.84 
L 358.658338 -44.84 
L 358.886295 -44.84 
L 359.114252 -44.84 
L 359.342209 -44.84 
L 359.570166 -44.84 
L 359.798124 -44.84 
L 360.026081 -44.84 
L 360.254038 -44.84 
L 360.481995 -44.84 
L 360.709952 -44.84 
L 360.937909 -44.84 
L 361.165866 -44.84 
L 361.393824 -44.84 
L 361.621781 -44.84 
L 361.849738 -44.84 
L 362.077695 -44.84 
L 362.305652 -44.84 
L 362.533609 -44.84 
L 362.761566 -44.84 
L 362.989524 -44.84 
L 363.217481 -44.84 
L 363.445438 -44.84 
L 363.673395 -44.84 
L 363.901352 -44.84 
L 364.129309 -44.84 
L 364.357266 -44.84 
L 364.585223 -44.84 
L 364.813181 -44.84 
L 365.041138 -44.84 
L 365.269095 -44.84 
L 365.497052 -44.84 
L 365.725009 -44.84 
L 365.952966 -44.84 
L 366.180923 -44.84 
L 366.408881 -44.84 
L 366.636838 -44.84 
L 366.864795 -44.84 
L 367.092752 -44.84 
L 367.320709 -44.84 
L 367.548666 -44.84 
L 367.776623 -44.84 
L 368.004581 -44.84 
L 368.232538 -44.84 
L 368.460495 -44.84 
L 368.688452 -44.84 
L 368.916409 -44.84 
L 369.144366 -44.84 
L 369.372323 -44.84 
L 369.600281 -44.84 
L 369.828238 -44.84 
L 370.056195 -44.84 
L 370.284152 -44.84 
L 370.512109 -44.84 
L 370.740066 -44.84 
L 370.968023 -44.84 
L 371.195981 -44.84 
L 371.423938 -44.84 
L 371.651895 -44.84 
L 371.879852 -44.84 
L 372.107809 -44.84 
L 372.335766 -44.84 
L 372.563723 -44.84 
L 372.791681 -44.84 
L 373.019638 -44.84 
L 373.247595 -44.84 
L 373.475552 -44.84 
L 373.703509 -44.84 
L 373.931466 -44.84 
L 374.159423 -44.84 
L 374.387381 -44.84 
L 374.615338 -44.84 
L 374.843295 -44.84 
L 375.071252 -44.84 
L 375.299209 -44.84 
L 375.527166 -44.84 
L 375.755123 -44.84 
L 375.98308 -44.84 
L 376.211038 -44.84 
L 376.438995 -44.84 
L 376.666952 -44.84 
L 376.894909 -44.84 
L 377.122866 -44.84 
L 377.350823 -44.84 
L 377.57878 -44.84 
L 377.806738 -44.84 
L 378.034695 -44.84 
L 378.262652 -44.84 
L 378.490609 -44.84 
L 378.718566 -44.84 
L 378.946523 -44.84 
L 379.17448 -44.84 
L 379.402438 -44.84 
L 379.630395 -44.84 
L 379.858352 -44.84 
L 380.086309 -44.84 
L 380.314266 -44.84 
L 380.542223 -44.84 
L 380.77018 -44.84 
L 380.998138 -44.84 
L 381.226095 -44.84 
L 381.454052 -44.84 
L 381.682009 -44.84 
L 381.909966 -44.84 
L 382.137923 -44.84 
L 382.36588 -44.84 
L 382.593838 -44.84 
L 382.821795 -44.84 
L 383.049752 -44.84 
L 383.277709 -44.84 
L 383.505666 -44.84 
L 383.733623 -44.84 
L 383.96158 -44.84 
L 384.189538 -44.84 
L 384.417495 -44.84 
L 384.645452 -44.84 
L 384.873409 -44.84 
L 385.101366 -44.84 
L 385.329323 -44.84 
L 385.55728 -44.84 
L 385.785237 -44.84 
L 386.013195 -44.84 
L 386.241152 -44.84 
L 386.469109 -44.84 
L 386.697066 -44.84 
L 386.925023 -44.84 
L 387.15298 -44.84 
L 387.380937 -44.84 
L 387.608895 -44.84 
L 387.608895 -44.90301 
L 387.608895 -44.90301 
L 387.380937 -44.929426 
L 387.15298 -44.965131 
L 386.925023 -45.012625 
L 386.697066 -45.074795 
L 386.469109 -45.154859 
L 386.241152 -45.25628 
L 386.013195 -45.382623 
L 385.785237 -45.537353 
L 385.55728 -45.723589 
L 385.329323 -45.943801 
L 385.101366 -46.199483 
L 384.873409 -46.490818 
L 384.645452 -46.816367 
L 384.417495 -47.172806 
L 384.189538 -47.554765 
L 383.96158 -47.954789 
L 383.733623 -48.363446 
L 383.505666 -48.769609 
L 383.277709 -49.160895 
L 383.049752 -49.524258 
L 382.821795 -49.846688 
L 382.593838 -50.115977 
L 382.36588 -50.321482 
L 382.137923 -50.454819 
L 381.909966 -50.510432 
L 381.682009 -50.485979 
L 381.454052 -50.382492 
L 381.226095 -50.204306 
L 380.998138 -49.958759 
L 380.77018 -49.65569 
L 380.542223 -49.306784 
L 380.314266 -48.924831 
L 380.086309 -48.522951 
L 379.858352 -48.113863 
L 379.630395 -47.709246 
L 379.402438 -47.319235 
L 379.17448 -46.95208 
L 378.946523 -46.613968 
L 378.718566 -46.309008 
L 378.490609 -46.039351 
L 378.262652 -45.805412 
L 378.034695 -45.606172 
L 377.806738 -45.439506 
L 377.57878 -45.302518 
L 377.350823 -45.19186 
L 377.122866 -45.103999 
L 376.894909 -45.03545 
L 376.666952 -44.982947 
L 376.438995 -44.943564 
L 376.211038 -44.914807 
L 375.98308 -44.894664 
L 375.755123 -44.881645 
L 375.527166 -44.874824 
L 375.299209 -44.873892 
L 375.071252 -44.879236 
L 374.843295 -44.892061 
L 374.615338 -44.914576 
L 374.387381 -44.950234 
L 374.159423 -45.004055 
L 373.931466 -45.083031 
L 373.703509 -45.196606 
L 373.475552 -45.357235 
L 373.247595 -45.58099 
L 373.019638 -45.888196 
L 372.791681 -46.304052 
L 372.563723 -46.859181 
L 372.335766 -47.590045 
L 372.107809 -48.539152 
L 371.879852 -49.754995 
L 371.651895 -51.29163 
L 371.423938 -53.207867 
L 371.195981 -55.566036 
L 370.968023 -58.430322 
L 370.740066 -61.864732 
L 370.512109 -65.93075 
L 370.284152 -70.684813 
L 370.056195 -76.175746 
L 369.828238 -82.442314 
L 369.600281 -89.511044 
L 369.372323 -97.394454 
L 369.144366 -106.089791 
L 368.916409 -115.578311 
L 368.688452 -125.825114 
L 368.460495 -136.779453 
L 368.232538 -148.37543 
L 368.004581 -160.53295 
L 367.776623 -173.158802 
L 367.548666 -186.147793 
L 367.320709 -199.383848 
L 367.092752 -212.74112 
L 366.864795 -226.085147 
L 366.636838 -239.274182 
L 366.408881 -252.16084 
L 366.180923 -264.594189 
L 365.952966 -276.4224 
L 365.725009 -287.495975 
L 365.497052 -297.671508 
L 365.269095 -306.815814 
L 365.041138 -314.810187 
L 364.813181 -321.554468 
L 364.585223 -326.970571 
L 364.357266 -331.005148 
L 364.129309 -333.631107 
L 363.901352 -334.847818 
L 363.673395 -334.679962 
L 363.445438 -333.17512 
L 363.217481 -330.400319 
L 362.989524 -326.437881 
L 362.761566 -321.380932 
L 362.533609 -315.32901 
L 362.305652 -308.384102 
L 362.077695 -300.647421 
L 361.849738 -292.217107 
L 361.621781 -283.186895 
L 361.393824 -273.645735 
L 361.165866 -263.678185 
L 360.937909 -253.36539 
L 360.709952 -242.786383 
L 360.481995 -232.019461 
L 360.254038 -221.143407 
L 360.026081 -210.238364 
L 359.798124 -199.386243 
L 359.570166 -188.670577 
L 359.342209 -178.175822 
L 359.114252 -167.986117 
L 358.886295 -158.183598 
L 358.658338 -148.846373 
L 358.430381 -140.046285 
L 358.202424 -131.846636 
L 357.974466 -124.300029 
L 357.746509 -117.4465 
L 357.518552 -111.312095 
L 357.290595 -105.908021 
L 357.062638 -101.230471 
L 356.834681 -97.261149 
L 356.606724 -93.9685 
L 356.378766 -91.309532 
L 356.150809 -89.232111 
L 355.922852 -87.677527 
L 355.694895 -86.583119 
L 355.466938 -85.884727 
L 355.238981 -85.518794 
L 355.011024 -85.423953 
L 354.783066 -85.542048 
L 354.555109 -85.818568 
L 354.327152 -86.202617 
L 354.099195 -86.646549 
L 353.871238 -87.105479 
L 353.643281 -87.536875 
L 353.415324 -87.900416 
L 353.187366 -88.158249 
L 352.959409 -88.275679 
L 352.731452 -88.22227 
L 352.503495 -87.97322 
L 352.275538 -87.510804 
L 352.047581 -86.825678 
L 351.819624 -85.917783 
L 351.591667 -84.796663 
L 351.363709 -83.48108 
L 351.135752 -81.997865 
L 350.907795 -80.380097 
L 350.679838 -78.664749 
L 350.451881 -76.890046 
L 350.223924 -75.092788 
L 349.995967 -73.305936 
L 349.768009 -71.556685 
L 349.540052 -69.865207 
L 349.312095 -68.244159 
L 349.084138 -66.698956 
L 348.856181 -65.228713 
L 348.628224 -63.827704 
L 348.400267 -62.487119 
L 348.172309 -61.196913 
L 347.944352 -59.947512 
L 347.716395 -58.731216 
L 347.488438 -57.543174 
L 347.260481 -56.38187 
L 347.032524 -55.249138 
L 346.804567 -54.149758 
L 346.576609 -53.090732 
L 346.348652 -52.080381 
L 346.120695 -51.127366 
L 345.892738 -50.239781 
L 345.664781 -49.424374 
L 345.436824 -48.685992 
L 345.208867 -48.027255 
L 344.980909 -47.448462 
L 344.752952 -46.947712 
L 344.524995 -46.521179 
L 344.297038 -46.163498 
L 344.069081 -45.868212 
L 343.841124 -45.628216 
L 343.613167 -45.436171 
L 343.385209 -45.284865 
L 343.157252 -45.167483 
L 342.929295 -45.077811 
L 342.701338 -45.010348 
L 342.473381 -44.960362 
L 342.245424 -44.923883 
z
" style="stroke: #bdbdbd; stroke-width: 2.5"/>
    </defs>
    <g clip-path="url(#pf57a2add6a)">
     <use xlink:href="#md95c59f136" x="0" y="432" style="fill: #bdbdbd; fill-opacity: 0.5; stroke: #bdbdbd; stroke-width: 2.5"/>
    </g>
   </g>
   <g id="PolyCollection_2">
    <defs>
     <path id="mb76a9a51cc" d="M 380.014889 -44.93128 
L 380.014889 -44.84 
L 380.136643 -44.84 
L 380.258398 -44.84 
L 380.380153 -44.84 
L 380.501908 -44.84 
L 380.623662 -44.84 
L 380.745417 -44.84 
L 380.867172 -44.84 
L 380.988927 -44.84 
L 381.110682 -44.84 
L 381.232436 -44.84 
L 381.354191 -44.84 
L 381.475946 -44.84 
L 381.597701 -44.84 
L 381.719456 -44.84 
L 381.84121 -44.84 
L 381.962965 -44.84 
L 382.08472 -44.84 
L 382.206475 -44.84 
L 382.328229 -44.84 
L 382.449984 -44.84 
L 382.571739 -44.84 
L 382.693494 -44.84 
L 382.815249 -44.84 
L 382.937003 -44.84 
L 383.058758 -44.84 
L 383.180513 -44.84 
L 383.302268 -44.84 
L 383.424023 -44.84 
L 383.545777 -44.84 
L 383.667532 -44.84 
L 383.789287 -44.84 
L 383.911042 -44.84 
L 384.032796 -44.84 
L 384.154551 -44.84 
L 384.276306 -44.84 
L 384.398061 -44.84 
L 384.519816 -44.84 
L 384.64157 -44.84 
L 384.763325 -44.84 
L 384.88508 -44.84 
L 385.006835 -44.84 
L 385.12859 -44.84 
L 385.250344 -44.84 
L 385.372099 -44.84 
L 385.493854 -44.84 
L 385.615609 -44.84 
L 385.737363 -44.84 
L 385.859118 -44.84 
L 385.980873 -44.84 
L 386.102628 -44.84 
L 386.224383 -44.84 
L 386.346137 -44.84 
L 386.467892 -44.84 
L 386.589647 -44.84 
L 386.711402 -44.84 
L 386.833157 -44.84 
L 386.954911 -44.84 
L 387.076666 -44.84 
L 387.198421 -44.84 
L 387.320176 -44.84 
L 387.44193 -44.84 
L 387.563685 -44.84 
L 387.68544 -44.84 
L 387.807195 -44.84 
L 387.92895 -44.84 
L 388.050704 -44.84 
L 388.172459 -44.84 
L 388.294214 -44.84 
L 388.415969 -44.84 
L 388.537724 -44.84 
L 388.659478 -44.84 
L 388.781233 -44.84 
L 388.902988 -44.84 
L 389.024743 -44.84 
L 389.146497 -44.84 
L 389.268252 -44.84 
L 389.390007 -44.84 
L 389.511762 -44.84 
L 389.633517 -44.84 
L 389.755271 -44.84 
L 389.877026 -44.84 
L 389.998781 -44.84 
L 390.120536 -44.84 
L 390.242291 -44.84 
L 390.364045 -44.84 
L 390.4858 -44.84 
L 390.607555 -44.84 
L 390.72931 -44.84 
L 390.851064 -44.84 
L 390.972819 -44.84 
L 391.094574 -44.84 
L 391.216329 -44.84 
L 391.338084 -44.84 
L 391.459838 -44.84 
L 391.581593 -44.84 
L 391.703348 -44.84 
L 391.825103 -44.84 
L 391.946858 -44.84 
L 392.068612 -44.84 
L 392.190367 -44.84 
L 392.312122 -44.84 
L 392.433877 -44.84 
L 392.555631 -44.84 
L 392.677386 -44.84 
L 392.799141 -44.84 
L 392.920896 -44.84 
L 393.042651 -44.84 
L 393.164405 -44.84 
L 393.28616 -44.84 
L 393.407915 -44.84 
L 393.52967 -44.84 
L 393.651425 -44.84 
L 393.773179 -44.84 
L 393.894934 -44.84 
L 394.016689 -44.84 
L 394.138444 -44.84 
L 394.260198 -44.84 
L 394.381953 -44.84 
L 394.503708 -44.84 
L 394.625463 -44.84 
L 394.747218 -44.84 
L 394.868972 -44.84 
L 394.990727 -44.84 
L 395.112482 -44.84 
L 395.234237 -44.84 
L 395.355992 -44.84 
L 395.477746 -44.84 
L 395.599501 -44.84 
L 395.721256 -44.84 
L 395.843011 -44.84 
L 395.964765 -44.84 
L 396.08652 -44.84 
L 396.208275 -44.84 
L 396.33003 -44.84 
L 396.451785 -44.84 
L 396.573539 -44.84 
L 396.695294 -44.84 
L 396.817049 -44.84 
L 396.938804 -44.84 
L 397.060559 -44.84 
L 397.182313 -44.84 
L 397.304068 -44.84 
L 397.425823 -44.84 
L 397.547578 -44.84 
L 397.669332 -44.84 
L 397.791087 -44.84 
L 397.912842 -44.84 
L 398.034597 -44.84 
L 398.156352 -44.84 
L 398.278106 -44.84 
L 398.399861 -44.84 
L 398.521616 -44.84 
L 398.643371 -44.84 
L 398.765126 -44.84 
L 398.88688 -44.84 
L 399.008635 -44.84 
L 399.13039 -44.84 
L 399.252145 -44.84 
L 399.373899 -44.84 
L 399.495654 -44.84 
L 399.617409 -44.84 
L 399.739164 -44.84 
L 399.860919 -44.84 
L 399.982673 -44.84 
L 400.104428 -44.84 
L 400.226183 -44.84 
L 400.347938 -44.84 
L 400.469693 -44.84 
L 400.591447 -44.84 
L 400.713202 -44.84 
L 400.834957 -44.84 
L 400.956712 -44.84 
L 401.078466 -44.84 
L 401.200221 -44.84 
L 401.321976 -44.84 
L 401.443731 -44.84 
L 401.565486 -44.84 
L 401.68724 -44.84 
L 401.808995 -44.84 
L 401.93075 -44.84 
L 402.052505 -44.84 
L 402.17426 -44.84 
L 402.296014 -44.84 
L 402.417769 -44.84 
L 402.539524 -44.84 
L 402.661279 -44.84 
L 402.783033 -44.84 
L 402.904788 -44.84 
L 403.026543 -44.84 
L 403.148298 -44.84 
L 403.270053 -44.84 
L 403.391807 -44.84 
L 403.513562 -44.84 
L 403.635317 -44.84 
L 403.757072 -44.84 
L 403.878827 -44.84 
L 404.000581 -44.84 
L 404.122336 -44.84 
L 404.244091 -44.84 
L 404.244091 -45.023055 
L 404.244091 -45.023055 
L 404.122336 -45.083468 
L 404.000581 -45.161373 
L 403.878827 -45.261033 
L 403.757072 -45.387516 
L 403.635317 -45.546784 
L 403.513562 -45.745784 
L 403.391807 -45.992531 
L 403.270053 -46.29618 
L 403.148298 -46.667095 
L 403.026543 -47.116889 
L 402.904788 -47.658466 
L 402.783033 -48.306032 
L 402.661279 -49.075098 
L 402.539524 -49.982461 
L 402.417769 -51.046179 
L 402.296014 -52.285526 
L 402.17426 -53.720945 
L 402.052505 -55.373991 
L 401.93075 -57.267275 
L 401.808995 -59.424401 
L 401.68724 -61.869898 
L 401.565486 -64.629149 
L 401.443731 -67.728301 
L 401.321976 -71.19415 
L 401.200221 -75.053985 
L 401.078466 -79.335386 
L 400.956712 -84.065939 
L 400.834957 -89.272868 
L 400.713202 -94.982559 
L 400.591447 -101.219964 
L 400.469693 -108.007872 
L 400.347938 -115.366053 
L 400.226183 -123.310279 
L 400.104428 -131.851235 
L 399.982673 -140.993361 
L 399.860919 -150.733647 
L 399.739164 -161.060455 
L 399.617409 -171.952408 
L 399.495654 -183.377428 
L 399.373899 -195.291986 
L 399.252145 -207.640637 
L 399.13039 -220.355903 
L 399.008635 -233.358561 
L 398.88688 -246.558372 
L 398.765126 -259.855275 
L 398.643371 -273.141032 
L 398.521616 -286.30131 
L 398.399861 -299.218132 
L 398.278106 -311.772626 
L 398.156352 -323.847958 
L 398.034597 -335.332342 
L 397.912842 -346.121985 
L 397.791087 -356.12384 
L 397.669332 -365.258019 
L 397.547578 -373.459773 
L 397.425823 -380.680916 
L 397.304068 -386.890632 
L 397.182313 -392.075635 
L 397.060559 -396.239657 
L 396.938804 -399.402322 
L 396.817049 -401.597449 
L 396.695294 -402.870904 
L 396.573539 -403.278095 
L 396.451785 -402.881273 
L 396.33003 -401.746755 
L 396.208275 -399.942232 
L 396.08652 -397.534281 
L 395.964765 -394.586196 
L 395.843011 -391.156223 
L 395.721256 -387.296279 
L 395.599501 -383.051158 
L 395.477746 -378.458254 
L 395.355992 -373.54776 
L 395.234237 -368.343297 
L 395.112482 -362.862905 
L 394.990727 -357.12031 
L 394.868972 -351.126366 
L 394.747218 -344.890581 
L 394.625463 -338.42263 
L 394.503708 -331.733762 
L 394.381953 -324.838013 
L 394.260198 -317.753188 
L 394.138444 -310.501523 
L 394.016689 -303.110038 
L 393.894934 -295.610544 
L 393.773179 -288.039319 
L 393.651425 -280.436482 
L 393.52967 -272.84511 
L 393.407915 -265.310136 
L 393.28616 -257.877099 
L 393.164405 -250.590824 
L 393.042651 -243.494077 
L 392.920896 -236.626278 
L 392.799141 -230.022332 
L 392.677386 -223.71162 
L 392.555631 -217.717195 
L 392.433877 -212.055221 
L 392.312122 -206.734652 
L 392.190367 -201.757174 
L 392.068612 -197.117391 
L 391.946858 -192.803236 
L 391.825103 -188.796586 
L 391.703348 -185.074048 
L 391.581593 -181.607872 
L 391.459838 -178.366957 
L 391.338084 -175.317916 
L 391.216329 -172.426148 
L 391.094574 -169.656892 
L 390.972819 -166.976231 
L 390.851064 -164.352015 
L 390.72931 -161.754682 
L 390.607555 -159.157959 
L 390.4858 -156.53944 
L 390.364045 -153.881013 
L 390.242291 -151.169157 
L 390.120536 -148.39509 
L 389.998781 -145.554781 
L 389.877026 -142.648831 
L 389.755271 -139.682222 
L 389.633517 -136.663961 
L 389.511762 -133.606607 
L 389.390007 -130.525715 
L 389.268252 -127.439194 
L 389.146497 -124.366608 
L 389.024743 -121.328432 
L 388.902988 -118.345282 
L 388.781233 -115.437148 
L 388.659478 -112.622648 
L 388.537724 -109.918337 
L 388.415969 -107.338092 
L 388.294214 -104.892595 
L 388.172459 -102.588947 
L 388.050704 -100.430429 
L 387.92895 -98.416417 
L 387.807195 -96.542467 
L 387.68544 -94.800565 
L 387.563685 -93.179535 
L 387.44193 -91.665586 
L 387.320176 -90.242966 
L 387.198421 -88.894708 
L 387.076666 -87.603409 
L 386.954911 -86.352016 
L 386.833157 -85.124572 
L 386.711402 -83.906885 
L 386.589647 -82.687078 
L 386.467892 -81.456006 
L 386.346137 -80.207503 
L 386.224383 -78.938465 
L 386.102628 -77.648763 
L 385.980873 -76.340987 
L 385.859118 -75.020071 
L 385.737363 -73.69279 
L 385.615609 -72.367201 
L 385.493854 -71.052033 
L 385.372099 -69.756095 
L 385.250344 -68.487716 
L 385.12859 -67.254267 
L 385.006835 -66.06178 
L 384.88508 -64.914684 
L 384.763325 -63.815677 
L 384.64157 -62.765718 
L 384.519816 -61.764138 
L 384.398061 -60.808863 
L 384.276306 -59.896697 
L 384.154551 -59.023672 
L 384.032796 -58.185417 
L 383.911042 -57.377515 
L 383.789287 -56.59584 
L 383.667532 -55.836832 
L 383.545777 -55.097712 
L 383.424023 -54.376619 
L 383.302268 -53.672665 
L 383.180513 -52.985919 
L 383.058758 -52.317317 
L 382.937003 -51.668526 
L 382.815249 -51.041761 
L 382.693494 -50.439584 
L 382.571739 -49.864692 
L 382.449984 -49.31972 
L 382.328229 -48.807057 
L 382.206475 -48.3287 
L 382.08472 -47.886139 
L 381.962965 -47.480284 
L 381.84121 -47.111435 
L 381.719456 -46.779284 
L 381.597701 -46.482949 
L 381.475946 -46.221037 
L 381.354191 -45.991722 
L 381.232436 -45.792839 
L 381.110682 -45.621977 
L 380.988927 -45.47657 
L 380.867172 -45.353993 
L 380.745417 -45.251631 
L 380.623662 -45.166953 
L 380.501908 -45.097559 
L 380.380153 -45.041219 
L 380.258398 -44.995903 
L 380.136643 -44.959792 
L 380.014889 -44.93128 
z
" style="stroke: #2166ac; stroke-width: 2.5"/>
    </defs>
    <g clip-path="url(#pf57a2add6a)">
     <use xlink:href="#mb76a9a51cc" x="0" y="432" style="fill: #2166ac; fill-opacity: 0.5; stroke: #2166ac; stroke-width: 2.5"/>
    </g>
   </g>
   <g id="matplotlib.axis_1">
    <g id="xtick_1">
     <g id="line2d_1">
      <defs>
       <path id="m883bfa97f4" d="M 0 0 
L 0 3.5 
" style="stroke: #000000; stroke-width: 0.8"/>
      </defs>
      <g>
       <use xlink:href="#m883bfa97f4" x="60.53344" y="387.16" style="stroke: #000000; stroke-width: 0.8"/>
      </g>
     </g>
     <g id="text_1">
      <!-- 2.6 -->
      <g transform="translate(52.581878 401.758438) scale(0.1 -0.1)">
       <defs>
        <path id="DejaVuSans-32" d="M 1228 531 
L 3431 531 
L 3431 0 
L 469 0 
L 469 531 
Q 828 903 1448 1529 
Q 2069 2156 2228 2338 
Q 2531 2678 2651 2914 
Q 2772 3150 2772 3378 
Q 2772 3750 2511 3984 
Q 2250 4219 1831 4219 
Q 1534 4219 1204 4116 
Q 875 4013 500 3803 
L 500 4441 
Q 881 4594 1212 4672 
Q 1544 4750 1819 4750 
Q 2544 4750 2975 4387 
Q 3406 4025 3406 3419 
Q 3406 3131 3298 2873 
Q 3191 2616 2906 2266 
Q 2828 2175 2409 1742 
Q 1991 1309 1228 531 
z
" transform="scale(0.015625)"/>
        <path id="DejaVuSans-2e" d="M 684 794 
L 1344 794 
L 1344 0 
L 684 0 
L 684 794 
z
" transform="scale(0.015625)"/>
        <path id="DejaVuSans-36" d="M 2113 2584 
Q 1688 2584 1439 2293 
Q 1191 2003 1191 1497 
Q 1191 994 1439 701 
Q 1688 409 2113 409 
Q 2538 409 2786 701 
Q 3034 994 3034 1497 
Q 3034 2003 2786 2293 
Q 2538 2584 2113 2584 
z
M 3366 4563 
L 3366 3988 
Q 3128 4100 2886 4159 
Q 2644 4219 2406 4219 
Q 1781 4219 1451 3797 
Q 1122 3375 1075 2522 
Q 1259 2794 1537 2939 
Q 1816 3084 2150 3084 
Q 2853 3084 3261 2657 
Q 3669 2231 3669 1497 
Q 3669 778 3244 343 
Q 2819 -91 2113 -91 
Q 1303 -91 875 529 
Q 447 1150 447 2328 
Q 447 3434 972 4092 
Q 1497 4750 2381 4750 
Q 2619 4750 2861 4703 
Q 3103 4656 3366 4563 
z
" transform="scale(0.015625)"/>
       </defs>
       <use xlink:href="#DejaVuSans-32"/>
       <use xlink:href="#DejaVuSans-2e" x="63.623047"/>
       <use xlink:href="#DejaVuSans-36" x="95.410156"/>
      </g>
     </g>
    </g>
    <g id="xtick_2">
     <g id="line2d_2">
      <g>
       <use xlink:href="#m883bfa97f4" x="102.734132" y="387.16" style="stroke: #000000; stroke-width: 0.8"/>
      </g>
     </g>
     <g id="text_2">
      <!-- 2.8 -->
      <g transform="translate(94.782569 401.758438) scale(0.1 -0.1)">
       <defs>
        <path id="DejaVuSans-38" d="M 2034 2216 
Q 1584 2216 1326 1975 
Q 1069 1734 1069 1313 
Q 1069 891 1326 650 
Q 1584 409 2034 409 
Q 2484 409 2743 651 
Q 3003 894 3003 1313 
Q 3003 1734 2745 1975 
Q 2488 2216 2034 2216 
z
M 1403 2484 
Q 997 2584 770 2862 
Q 544 3141 544 3541 
Q 544 4100 942 4425 
Q 1341 4750 2034 4750 
Q 2731 4750 3128 4425 
Q 3525 4100 3525 3541 
Q 3525 3141 3298 2862 
Q 3072 2584 2669 2484 
Q 3125 2378 3379 2068 
Q 3634 1759 3634 1313 
Q 3634 634 3220 271 
Q 2806 -91 2034 -91 
Q 1263 -91 848 271 
Q 434 634 434 1313 
Q 434 1759 690 2068 
Q 947 2378 1403 2484 
z
M 1172 3481 
Q 1172 3119 1398 2916 
Q 1625 2713 2034 2713 
Q 2441 2713 2670 2916 
Q 2900 3119 2900 3481 
Q 2900 3844 2670 4047 
Q 2441 4250 2034 4250 
Q 1625 4250 1398 4047 
Q 1172 3844 1172 3481 
z
" transform="scale(0.015625)"/>
       </defs>
       <use xlink:href="#DejaVuSans-32"/>
       <use xlink:href="#DejaVuSans-2e" x="63.623047"/>
       <use xlink:href="#DejaVuSans-38" x="95.410156"/>
      </g>
     </g>
    </g>
    <g id="xtick_3">
     <g id="line2d_3">
      <g>
       <use xlink:href="#m883bfa97f4" x="144.934823" y="387.16" style="stroke: #000000; stroke-width: 0.8"/>
      </g>
     </g>
     <g id="text_3">
      <!-- 3.0 -->
      <g transform="translate(136.98326 401.758438) scale(0.1 -0.1)">
       <defs>
        <path id="DejaVuSans-33" d="M 2597 2516 
Q 3050 2419 3304 2112 
Q 3559 1806 3559 1356 
Q 3559 666 3084 287 
Q 2609 -91 1734 -91 
Q 1441 -91 1130 -33 
Q 819 25 488 141 
L 488 750 
Q 750 597 1062 519 
Q 1375 441 1716 441 
Q 2309 441 2620 675 
Q 2931 909 2931 1356 
Q 2931 1769 2642 2001 
Q 2353 2234 1838 2234 
L 1294 2234 
L 1294 2753 
L 1863 2753 
Q 2328 2753 2575 2939 
Q 2822 3125 2822 3475 
Q 2822 3834 2567 4026 
Q 2313 4219 1838 4219 
Q 1578 4219 1281 4162 
Q 984 4106 628 3988 
L 628 4550 
Q 988 4650 1302 4700 
Q 1616 4750 1894 4750 
Q 2613 4750 3031 4423 
Q 3450 4097 3450 3541 
Q 3450 3153 3228 2886 
Q 3006 2619 2597 2516 
z
" transform="scale(0.015625)"/>
        <path id="DejaVuSans-30" d="M 2034 4250 
Q 1547 4250 1301 3770 
Q 1056 3291 1056 2328 
Q 1056 1369 1301 889 
Q 1547 409 2034 409 
Q 2525 409 2770 889 
Q 3016 1369 3016 2328 
Q 3016 3291 2770 3770 
Q 2525 4250 2034 4250 
z
M 2034 4750 
Q 2819 4750 3233 4129 
Q 3647 3509 3647 2328 
Q 3647 1150 3233 529 
Q 2819 -91 2034 -91 
Q 1250 -91 836 529 
Q 422 1150 422 2328 
Q 422 3509 836 4129 
Q 1250 4750 2034 4750 
z
" transform="scale(0.015625)"/>
       </defs>
       <use xlink:href="#DejaVuSans-33"/>
       <use xlink:href="#DejaVuSans-2e" x="63.623047"/>
       <use xlink:href="#DejaVuSans-30" x="95.410156"/>
      </g>
     </g>
    </g>
    <g id="xtick_4">
     <g id="line2d_4">
      <g>
       <use xlink:href="#m883bfa97f4" x="187.135514" y="387.16" style="stroke: #000000; stroke-width: 0.8"/>
      </g>
     </g>
     <g id="text_4">
      <!-- 3.2 -->
      <g transform="translate(179.183951 401.758438) scale(0.1 -0.1)">
       <use xlink:href="#DejaVuSans-33"/>
       <use xlink:href="#DejaVuSans-2e" x="63.623047"/>
       <use xlink:href="#DejaVuSans-32" x="95.410156"/>
      </g>
     </g>
    </g>
    <g id="xtick_5">
     <g id="line2d_5">
      <g>
       <use xlink:href="#m883bfa97f4" x="229.336205" y="387.16" style="stroke: #000000; stroke-width: 0.8"/>
      </g>
     </g>
     <g id="text_5">
      <!-- 3.4 -->
      <g transform="translate(221.384643 401.758438) scale(0.1 -0.1)">
       <defs>
        <path id="DejaVuSans-34" d="M 2419 4116 
L 825 1625 
L 2419 1625 
L 2419 4116 
z
M 2253 4666 
L 3047 4666 
L 3047 1625 
L 3713 1625 
L 3713 1100 
L 3047 1100 
L 3047 0 
L 2419 0 
L 2419 1100 
L 313 1100 
L 313 1709 
L 2253 4666 
z
" transform="scale(0.015625)"/>
       </defs>
       <use xlink:href="#DejaVuSans-33"/>
       <use xlink:href="#DejaVuSans-2e" x="63.623047"/>
       <use xlink:href="#DejaVuSans-34" x="95.410156"/>
      </g>
     </g>
    </g>
    <g id="xtick_6">
     <g id="line2d_6">
      <g>
       <use xlink:href="#m883bfa97f4" x="271.536896" y="387.16" style="stroke: #000000; stroke-width: 0.8"/>
      </g>
     </g>
     <g id="text_6">
      <!-- 3.6 -->
      <g transform="translate(263.585334 401.758438) scale(0.1 -0.1)">
       <use xlink:href="#DejaVuSans-33"/>
       <use xlink:href="#DejaVuSans-2e" x="63.623047"/>
       <use xlink:href="#DejaVuSans-36" x="95.410156"/>
      </g>
     </g>
    </g>
    <g id="xtick_7">
     <g id="line2d_7">
      <g>
       <use xlink:href="#m883bfa97f4" x="313.737587" y="387.16" style="stroke: #000000; stroke-width: 0.8"/>
      </g>
     </g>
     <g id="text_7">
      <!-- 3.8 -->
      <g transform="translate(305.786025 401.758438) scale(0.1 -0.1)">
       <use xlink:href="#DejaVuSans-33"/>
       <use xlink:href="#DejaVuSans-2e" x="63.623047"/>
       <use xlink:href="#DejaVuSans-38" x="95.410156"/>
      </g>
     </g>
    </g>
    <g id="xtick_8">
     <g id="line2d_8">
      <g>
       <use xlink:href="#m883bfa97f4" x="355.938279" y="387.16" style="stroke: #000000; stroke-width: 0.8"/>
      </g>
     </g>
     <g id="text_8">
      <!-- 4.0 -->
      <g transform="translate(347.986716 401.758438) scale(0.1 -0.1)">
       <use xlink:href="#DejaVuSans-34"/>
       <use xlink:href="#DejaVuSans-2e" x="63.623047"/>
       <use xlink:href="#DejaVuSans-30" x="95.410156"/>
      </g>
     </g>
    </g>
    <g id="xtick_9">
     <g id="line2d_9">
      <g>
       <use xlink:href="#m883bfa97f4" x="398.13897" y="387.16" style="stroke: #000000; stroke-width: 0.8"/>
      </g>
     </g>
     <g id="text_9">
      <!-- 4.2 -->
      <g transform="translate(390.187407 401.758438) scale(0.1 -0.1)">
       <use xlink:href="#DejaVuSans-34"/>
       <use xlink:href="#DejaVuSans-2e" x="63.623047"/>
       <use xlink:href="#DejaVuSans-32" x="95.410156"/>
      </g>
     </g>
    </g>
    <g id="text_10">
     <!-- Predicted Fluorescence -->
     <g transform="translate(165.08875 416.95625) scale(0.12 -0.12)">
      <defs>
       <path id="DejaVuSans-50" d="M 1259 4147 
L 1259 2394 
L 2053 2394 
Q 2494 2394 2734 2622 
Q 2975 2850 2975 3272 
Q 2975 3691 2734 3919 
Q 2494 4147 2053 4147 
L 1259 4147 
z
M 628 4666 
L 2053 4666 
Q 2838 4666 3239 4311 
Q 3641 3956 3641 3272 
Q 3641 2581 3239 2228 
Q 2838 1875 2053 1875 
L 1259 1875 
L 1259 0 
L 628 0 
L 628 4666 
z
" transform="scale(0.015625)"/>
       <path id="DejaVuSans-72" d="M 2631 2963 
Q 2534 3019 2420 3045 
Q 2306 3072 2169 3072 
Q 1681 3072 1420 2755 
Q 1159 2438 1159 1844 
L 1159 0 
L 581 0 
L 581 3500 
L 1159 3500 
L 1159 2956 
Q 1341 3275 1631 3429 
Q 1922 3584 2338 3584 
Q 2397 3584 2469 3576 
Q 2541 3569 2628 3553 
L 2631 2963 
z
" transform="scale(0.015625)"/>
       <path id="DejaVuSans-65" d="M 3597 1894 
L 3597 1613 
L 953 1613 
Q 991 1019 1311 708 
Q 1631 397 2203 397 
Q 2534 397 2845 478 
Q 3156 559 3463 722 
L 3463 178 
Q 3153 47 2828 -22 
Q 2503 -91 2169 -91 
Q 1331 -91 842 396 
Q 353 884 353 1716 
Q 353 2575 817 3079 
Q 1281 3584 2069 3584 
Q 2775 3584 3186 3129 
Q 3597 2675 3597 1894 
z
M 3022 2063 
Q 3016 2534 2758 2815 
Q 2500 3097 2075 3097 
Q 1594 3097 1305 2825 
Q 1016 2553 972 2059 
L 3022 2063 
z
" transform="scale(0.015625)"/>
       <path id="DejaVuSans-64" d="M 2906 2969 
L 2906 4863 
L 3481 4863 
L 3481 0 
L 2906 0 
L 2906 525 
Q 2725 213 2448 61 
Q 2172 -91 1784 -91 
Q 1150 -91 751 415 
Q 353 922 353 1747 
Q 353 2572 751 3078 
Q 1150 3584 1784 3584 
Q 2172 3584 2448 3432 
Q 2725 3281 2906 2969 
z
M 947 1747 
Q 947 1113 1208 752 
Q 1469 391 1925 391 
Q 2381 391 2643 752 
Q 2906 1113 2906 1747 
Q 2906 2381 2643 2742 
Q 2381 3103 1925 3103 
Q 1469 3103 1208 2742 
Q 947 2381 947 1747 
z
" transform="scale(0.015625)"/>
       <path id="DejaVuSans-69" d="M 603 3500 
L 1178 3500 
L 1178 0 
L 603 0 
L 603 3500 
z
M 603 4863 
L 1178 4863 
L 1178 4134 
L 603 4134 
L 603 4863 
z
" transform="scale(0.015625)"/>
       <path id="DejaVuSans-63" d="M 3122 3366 
L 3122 2828 
Q 2878 2963 2633 3030 
Q 2388 3097 2138 3097 
Q 1578 3097 1268 2742 
Q 959 2388 959 1747 
Q 959 1106 1268 751 
Q 1578 397 2138 397 
Q 2388 397 2633 464 
Q 2878 531 3122 666 
L 3122 134 
Q 2881 22 2623 -34 
Q 2366 -91 2075 -91 
Q 1284 -91 818 406 
Q 353 903 353 1747 
Q 353 2603 823 3093 
Q 1294 3584 2113 3584 
Q 2378 3584 2631 3529 
Q 2884 3475 3122 3366 
z
" transform="scale(0.015625)"/>
       <path id="DejaVuSans-74" d="M 1172 4494 
L 1172 3500 
L 2356 3500 
L 2356 3053 
L 1172 3053 
L 1172 1153 
Q 1172 725 1289 603 
Q 1406 481 1766 481 
L 2356 481 
L 2356 0 
L 1766 0 
Q 1100 0 847 248 
Q 594 497 594 1153 
L 594 3053 
L 172 3053 
L 172 3500 
L 594 3500 
L 594 4494 
L 1172 4494 
z
" transform="scale(0.015625)"/>
       <path id="DejaVuSans-20" transform="scale(0.015625)"/>
       <path id="DejaVuSans-46" d="M 628 4666 
L 3309 4666 
L 3309 4134 
L 1259 4134 
L 1259 2759 
L 3109 2759 
L 3109 2228 
L 1259 2228 
L 1259 0 
L 628 0 
L 628 4666 
z
" transform="scale(0.015625)"/>
       <path id="DejaVuSans-6c" d="M 603 4863 
L 1178 4863 
L 1178 0 
L 603 0 
L 603 4863 
z
" transform="scale(0.015625)"/>
       <path id="DejaVuSans-75" d="M 544 1381 
L 544 3500 
L 1119 3500 
L 1119 1403 
Q 1119 906 1312 657 
Q 1506 409 1894 409 
Q 2359 409 2629 706 
Q 2900 1003 2900 1516 
L 2900 3500 
L 3475 3500 
L 3475 0 
L 2900 0 
L 2900 538 
Q 2691 219 2414 64 
Q 2138 -91 1772 -91 
Q 1169 -91 856 284 
Q 544 659 544 1381 
z
M 1991 3584 
L 1991 3584 
z
" transform="scale(0.015625)"/>
       <path id="DejaVuSans-6f" d="M 1959 3097 
Q 1497 3097 1228 2736 
Q 959 2375 959 1747 
Q 959 1119 1226 758 
Q 1494 397 1959 397 
Q 2419 397 2687 759 
Q 2956 1122 2956 1747 
Q 2956 2369 2687 2733 
Q 2419 3097 1959 3097 
z
M 1959 3584 
Q 2709 3584 3137 3096 
Q 3566 2609 3566 1747 
Q 3566 888 3137 398 
Q 2709 -91 1959 -91 
Q 1206 -91 779 398 
Q 353 888 353 1747 
Q 353 2609 779 3096 
Q 1206 3584 1959 3584 
z
" transform="scale(0.015625)"/>
       <path id="DejaVuSans-73" d="M 2834 3397 
L 2834 2853 
Q 2591 2978 2328 3040 
Q 2066 3103 1784 3103 
Q 1356 3103 1142 2972 
Q 928 2841 928 2578 
Q 928 2378 1081 2264 
Q 1234 2150 1697 2047 
L 1894 2003 
Q 2506 1872 2764 1633 
Q 3022 1394 3022 966 
Q 3022 478 2636 193 
Q 2250 -91 1575 -91 
Q 1294 -91 989 -36 
Q 684 19 347 128 
L 347 722 
Q 666 556 975 473 
Q 1284 391 1588 391 
Q 1994 391 2212 530 
Q 2431 669 2431 922 
Q 2431 1156 2273 1281 
Q 2116 1406 1581 1522 
L 1381 1569 
Q 847 1681 609 1914 
Q 372 2147 372 2553 
Q 372 3047 722 3315 
Q 1072 3584 1716 3584 
Q 2034 3584 2315 3537 
Q 2597 3491 2834 3397 
z
" transform="scale(0.015625)"/>
       <path id="DejaVuSans-6e" d="M 3513 2113 
L 3513 0 
L 2938 0 
L 2938 2094 
Q 2938 2591 2744 2837 
Q 2550 3084 2163 3084 
Q 1697 3084 1428 2787 
Q 1159 2491 1159 1978 
L 1159 0 
L 581 0 
L 581 3500 
L 1159 3500 
L 1159 2956 
Q 1366 3272 1645 3428 
Q 1925 3584 2291 3584 
Q 2894 3584 3203 3211 
Q 3513 2838 3513 2113 
z
" transform="scale(0.015625)"/>
      </defs>
      <use xlink:href="#DejaVuSans-50"/>
      <use xlink:href="#DejaVuSans-72" x="58.552734"/>
      <use xlink:href="#DejaVuSans-65" x="97.416016"/>
      <use xlink:href="#DejaVuSans-64" x="158.939453"/>
      <use xlink:href="#DejaVuSans-69" x="222.416016"/>
      <use xlink:href="#DejaVuSans-63" x="250.199219"/>
      <use xlink:href="#DejaVuSans-74" x="305.179688"/>
      <use xlink:href="#DejaVuSans-65" x="344.388672"/>
      <use xlink:href="#DejaVuSans-64" x="405.912109"/>
      <use xlink:href="#DejaVuSans-20" x="469.388672"/>
      <use xlink:href="#DejaVuSans-46" x="501.175781"/>
      <use xlink:href="#DejaVuSans-6c" x="558.695312"/>
      <use xlink:href="#DejaVuSans-75" x="586.478516"/>
      <use xlink:href="#DejaVuSans-6f" x="649.857422"/>
      <use xlink:href="#DejaVuSans-72" x="711.039062"/>
      <use xlink:href="#DejaVuSans-65" x="749.902344"/>
      <use xlink:href="#DejaVuSans-73" x="811.425781"/>
      <use xlink:href="#DejaVuSans-63" x="863.525391"/>
      <use xlink:href="#DejaVuSans-65" x="918.505859"/>
      <use xlink:href="#DejaVuSans-6e" x="980.029297"/>
      <use xlink:href="#DejaVuSans-63" x="1043.408203"/>
      <use xlink:href="#DejaVuSans-65" x="1098.388672"/>
     </g>
    </g>
   </g>
   <g id="matplotlib.axis_2">
    <g id="ytick_1">
     <g id="line2d_10">
      <defs>
       <path id="m9f89ec9a89" d="M 0 0 
L -3.5 0 
" style="stroke: #000000; stroke-width: 0.8"/>
      </defs>
      <g>
       <use xlink:href="#m9f89ec9a89" x="48.17" y="387.16" style="stroke: #000000; stroke-width: 0.8"/>
      </g>
     </g>
     <g id="text_11">
      <!-- 0 -->
      <g transform="translate(34.8075 390.959219) scale(0.1 -0.1)">
       <use xlink:href="#DejaVuSans-30"/>
      </g>
     </g>
    </g>
    <g id="ytick_2">
     <g id="line2d_11">
      <g>
       <use xlink:href="#m9f89ec9a89" x="48.17" y="322.66097" style="stroke: #000000; stroke-width: 0.8"/>
      </g>
     </g>
     <g id="text_12">
      <!-- 5 -->
      <g transform="translate(34.8075 326.460188) scale(0.1 -0.1)">
       <defs>
        <path id="DejaVuSans-35" d="M 691 4666 
L 3169 4666 
L 3169 4134 
L 1269 4134 
L 1269 2991 
Q 1406 3038 1543 3061 
Q 1681 3084 1819 3084 
Q 2600 3084 3056 2656 
Q 3513 2228 3513 1497 
Q 3513 744 3044 326 
Q 2575 -91 1722 -91 
Q 1428 -91 1123 -41 
Q 819 9 494 109 
L 494 744 
Q 775 591 1075 516 
Q 1375 441 1709 441 
Q 2250 441 2565 725 
Q 2881 1009 2881 1497 
Q 2881 1984 2565 2268 
Q 2250 2553 1709 2553 
Q 1456 2553 1204 2497 
Q 953 2441 691 2322 
L 691 4666 
z
" transform="scale(0.015625)"/>
       </defs>
       <use xlink:href="#DejaVuSans-35"/>
      </g>
     </g>
    </g>
    <g id="ytick_3">
     <g id="line2d_12">
      <g>
       <use xlink:href="#m9f89ec9a89" x="48.17" y="258.161939" style="stroke: #000000; stroke-width: 0.8"/>
      </g>
     </g>
     <g id="text_13">
      <!-- 10 -->
      <g transform="translate(28.445 261.961158) scale(0.1 -0.1)">
       <defs>
        <path id="DejaVuSans-31" d="M 794 531 
L 1825 531 
L 1825 4091 
L 703 3866 
L 703 4441 
L 1819 4666 
L 2450 4666 
L 2450 531 
L 3481 531 
L 3481 0 
L 794 0 
L 794 531 
z
" transform="scale(0.015625)"/>
       </defs>
       <use xlink:href="#DejaVuSans-31"/>
       <use xlink:href="#DejaVuSans-30" x="63.623047"/>
      </g>
     </g>
    </g>
    <g id="ytick_4">
     <g id="line2d_13">
      <g>
       <use xlink:href="#m9f89ec9a89" x="48.17" y="193.662909" style="stroke: #000000; stroke-width: 0.8"/>
      </g>
     </g>
     <g id="text_14">
      <!-- 15 -->
      <g transform="translate(28.445 197.462127) scale(0.1 -0.1)">
       <use xlink:href="#DejaVuSans-31"/>
       <use xlink:href="#DejaVuSans-35" x="63.623047"/>
      </g>
     </g>
    </g>
    <g id="ytick_5">
     <g id="line2d_14">
      <g>
       <use xlink:href="#m9f89ec9a89" x="48.17" y="129.163878" style="stroke: #000000; stroke-width: 0.8"/>
      </g>
     </g>
     <g id="text_15">
      <!-- 20 -->
      <g transform="translate(28.445 132.963097) scale(0.1 -0.1)">
       <use xlink:href="#DejaVuSans-32"/>
       <use xlink:href="#DejaVuSans-30" x="63.623047"/>
      </g>
     </g>
    </g>
    <g id="ytick_6">
     <g id="line2d_15">
      <g>
       <use xlink:href="#m9f89ec9a89" x="48.17" y="64.664848" style="stroke: #000000; stroke-width: 0.8"/>
      </g>
     </g>
     <g id="text_16">
      <!-- 25 -->
      <g transform="translate(28.445 68.464067) scale(0.1 -0.1)">
       <use xlink:href="#DejaVuSans-32"/>
       <use xlink:href="#DejaVuSans-35" x="63.623047"/>
      </g>
     </g>
    </g>
    <g id="text_17">
     <!-- Density -->
     <g transform="translate(21.533438 225.592031) rotate(-90) scale(0.14 -0.14)">
      <defs>
       <path id="DejaVuSans-44" d="M 1259 4147 
L 1259 519 
L 2022 519 
Q 2988 519 3436 956 
Q 3884 1394 3884 2338 
Q 3884 3275 3436 3711 
Q 2988 4147 2022 4147 
L 1259 4147 
z
M 628 4666 
L 1925 4666 
Q 3281 4666 3915 4102 
Q 4550 3538 4550 2338 
Q 4550 1131 3912 565 
Q 3275 0 1925 0 
L 628 0 
L 628 4666 
z
" transform="scale(0.015625)"/>
       <path id="DejaVuSans-79" d="M 2059 -325 
Q 1816 -950 1584 -1140 
Q 1353 -1331 966 -1331 
L 506 -1331 
L 506 -850 
L 844 -850 
Q 1081 -850 1212 -737 
Q 1344 -625 1503 -206 
L 1606 56 
L 191 3500 
L 800 3500 
L 1894 763 
L 2988 3500 
L 3597 3500 
L 2059 -325 
z
" transform="scale(0.015625)"/>
      </defs>
      <use xlink:href="#DejaVuSans-44"/>
      <use xlink:href="#DejaVuSans-65" x="77.001953"/>
      <use xlink:href="#DejaVuSans-6e" x="138.525391"/>
      <use xlink:href="#DejaVuSans-73" x="201.904297"/>
      <use xlink:href="#DejaVuSans-69" x="254.003906"/>
      <use xlink:href="#DejaVuSans-74" x="281.787109"/>
      <use xlink:href="#DejaVuSans-79" x="320.996094"/>
     </g>
    </g>
   </g>
   <g id="line2d_16">
    <path d="M 65.125909 387.16 
L 65.125909 10.8 
" clip-path="url(#pf57a2add6a)" style="fill: none; stroke-dasharray: 3.7,1.6; stroke-dashoffset: 0; stroke: #b2182b"/>
   </g>
   <g id="line2d_17">
    <path d="M 387.546596 387.16 
L 387.546596 10.8 
" clip-path="url(#pf57a2add6a)" style="fill: none; stroke-dasharray: 3.7,1.6; stroke-dashoffset: 0; stroke: #000000"/>
   </g>
   <g id="patch_3">
    <path d="M 48.17 387.16 
L 48.17 10.8 
" style="fill: none; stroke: #000000; stroke-width: 0.8; stroke-linejoin: miter; stroke-linecap: square"/>
   </g>
   <g id="patch_4">
    <path d="M 48.17 387.16 
L 421.2 387.16 
" style="fill: none; stroke: #000000; stroke-width: 0.8; stroke-linejoin: miter; stroke-linecap: square"/>
   </g>
   <g id="legend_1">
    <g id="patch_5">
     <path d="M 130.213906 382.16 
L 339.156094 382.16 
Q 341.156094 382.16 341.156094 380.16 
L 341.156094 322.4475 
Q 341.156094 320.4475 339.156094 320.4475 
L 130.213906 320.4475 
Q 128.213906 320.4475 128.213906 322.4475 
L 128.213906 380.16 
Q 128.213906 382.16 130.213906 382.16 
z
" style="fill: #ffffff; opacity: 0.8; stroke: #cccccc; stroke-linejoin: miter"/>
    </g>
    <g id="patch_6">
     <path d="M 132.213906 332.045938 
L 152.213906 332.045938 
L 152.213906 325.045938 
L 132.213906 325.045938 
z
" style="fill: #bdbdbd; fill-opacity: 0.5; stroke: #bdbdbd; stroke-width: 2.5; stroke-linejoin: miter"/>
    </g>
    <g id="text_18">
     <!-- Pre-trained ESM2 (650M) -->
     <g transform="translate(160.213906 332.045938) scale(0.1 -0.1)">
      <defs>
       <path id="DejaVuSans-2d" d="M 313 2009 
L 1997 2009 
L 1997 1497 
L 313 1497 
L 313 2009 
z
" transform="scale(0.015625)"/>
       <path id="DejaVuSans-61" d="M 2194 1759 
Q 1497 1759 1228 1600 
Q 959 1441 959 1056 
Q 959 750 1161 570 
Q 1363 391 1709 391 
Q 2188 391 2477 730 
Q 2766 1069 2766 1631 
L 2766 1759 
L 2194 1759 
z
M 3341 1997 
L 3341 0 
L 2766 0 
L 2766 531 
Q 2569 213 2275 61 
Q 1981 -91 1556 -91 
Q 1019 -91 701 211 
Q 384 513 384 1019 
Q 384 1609 779 1909 
Q 1175 2209 1959 2209 
L 2766 2209 
L 2766 2266 
Q 2766 2663 2505 2880 
Q 2244 3097 1772 3097 
Q 1472 3097 1187 3025 
Q 903 2953 641 2809 
L 641 3341 
Q 956 3463 1253 3523 
Q 1550 3584 1831 3584 
Q 2591 3584 2966 3190 
Q 3341 2797 3341 1997 
z
" transform="scale(0.015625)"/>
       <path id="DejaVuSans-45" d="M 628 4666 
L 3578 4666 
L 3578 4134 
L 1259 4134 
L 1259 2753 
L 3481 2753 
L 3481 2222 
L 1259 2222 
L 1259 531 
L 3634 531 
L 3634 0 
L 628 0 
L 628 4666 
z
" transform="scale(0.015625)"/>
       <path id="DejaVuSans-53" d="M 3425 4513 
L 3425 3897 
Q 3066 4069 2747 4153 
Q 2428 4238 2131 4238 
Q 1616 4238 1336 4038 
Q 1056 3838 1056 3469 
Q 1056 3159 1242 3001 
Q 1428 2844 1947 2747 
L 2328 2669 
Q 3034 2534 3370 2195 
Q 3706 1856 3706 1288 
Q 3706 609 3251 259 
Q 2797 -91 1919 -91 
Q 1588 -91 1214 -16 
Q 841 59 441 206 
L 441 856 
Q 825 641 1194 531 
Q 1563 422 1919 422 
Q 2459 422 2753 634 
Q 3047 847 3047 1241 
Q 3047 1584 2836 1778 
Q 2625 1972 2144 2069 
L 1759 2144 
Q 1053 2284 737 2584 
Q 422 2884 422 3419 
Q 422 4038 858 4394 
Q 1294 4750 2059 4750 
Q 2388 4750 2728 4690 
Q 3069 4631 3425 4513 
z
" transform="scale(0.015625)"/>
       <path id="DejaVuSans-4d" d="M 628 4666 
L 1569 4666 
L 2759 1491 
L 3956 4666 
L 4897 4666 
L 4897 0 
L 4281 0 
L 4281 4097 
L 3078 897 
L 2444 897 
L 1241 4097 
L 1241 0 
L 628 0 
L 628 4666 
z
" transform="scale(0.015625)"/>
       <path id="DejaVuSans-28" d="M 1984 4856 
Q 1566 4138 1362 3434 
Q 1159 2731 1159 2009 
Q 1159 1288 1364 580 
Q 1569 -128 1984 -844 
L 1484 -844 
Q 1016 -109 783 600 
Q 550 1309 550 2009 
Q 550 2706 781 3412 
Q 1013 4119 1484 4856 
L 1984 4856 
z
" transform="scale(0.015625)"/>
       <path id="DejaVuSans-29" d="M 513 4856 
L 1013 4856 
Q 1481 4119 1714 3412 
Q 1947 2706 1947 2009 
Q 1947 1309 1714 600 
Q 1481 -109 1013 -844 
L 513 -844 
Q 928 -128 1133 580 
Q 1338 1288 1338 2009 
Q 1338 2731 1133 3434 
Q 928 4138 513 4856 
z
" transform="scale(0.015625)"/>
      </defs>
      <use xlink:href="#DejaVuSans-50"/>
      <use xlink:href="#DejaVuSans-72" x="58.552734"/>
      <use xlink:href="#DejaVuSans-65" x="97.416016"/>
      <use xlink:href="#DejaVuSans-2d" x="158.939453"/>
      <use xlink:href="#DejaVuSans-74" x="195.023438"/>
      <use xlink:href="#DejaVuSans-72" x="234.232422"/>
      <use xlink:href="#DejaVuSans-61" x="275.345703"/>
      <use xlink:href="#DejaVuSans-69" x="336.625"/>
      <use xlink:href="#DejaVuSans-6e" x="364.408203"/>
      <use xlink:href="#DejaVuSans-65" x="427.787109"/>
      <use xlink:href="#DejaVuSans-64" x="489.310547"/>
      <use xlink:href="#DejaVuSans-20" x="552.787109"/>
      <use xlink:href="#DejaVuSans-45" x="584.574219"/>
      <use xlink:href="#DejaVuSans-53" x="647.757812"/>
      <use xlink:href="#DejaVuSans-4d" x="711.234375"/>
      <use xlink:href="#DejaVuSans-32" x="797.513672"/>
      <use xlink:href="#DejaVuSans-20" x="861.136719"/>
      <use xlink:href="#DejaVuSans-28" x="892.923828"/>
      <use xlink:href="#DejaVuSans-36" x="931.9375"/>
      <use xlink:href="#DejaVuSans-35" x="995.560547"/>
      <use xlink:href="#DejaVuSans-30" x="1059.183594"/>
      <use xlink:href="#DejaVuSans-4d" x="1122.806641"/>
      <use xlink:href="#DejaVuSans-29" x="1209.085938"/>
     </g>
    </g>
    <g id="patch_7">
     <path d="M 132.213906 346.724063 
L 152.213906 346.724063 
L 152.213906 339.724063 
L 132.213906 339.724063 
z
" style="fill: #2166ac; fill-opacity: 0.5; stroke: #2166ac; stroke-width: 2.5; stroke-linejoin: miter"/>
    </g>
    <g id="text_19">
     <!-- Dataset 1 -->
     <g transform="translate(160.213906 346.724063) scale(0.1 -0.1)">
      <use xlink:href="#DejaVuSans-44"/>
      <use xlink:href="#DejaVuSans-61" x="77.001953"/>
      <use xlink:href="#DejaVuSans-74" x="138.28125"/>
      <use xlink:href="#DejaVuSans-61" x="177.490234"/>
      <use xlink:href="#DejaVuSans-73" x="238.769531"/>
      <use xlink:href="#DejaVuSans-65" x="290.869141"/>
      <use xlink:href="#DejaVuSans-74" x="352.392578"/>
      <use xlink:href="#DejaVuSans-20" x="391.601562"/>
      <use xlink:href="#DejaVuSans-31" x="423.388672"/>
     </g>
    </g>
    <g id="line2d_18">
     <path d="M 132.213906 357.902188 
L 142.213906 357.902188 
L 152.213906 357.902188 
" style="fill: none; stroke-dasharray: 3.7,1.6; stroke-dashoffset: 0; stroke: #b2182b"/>
    </g>
    <g id="text_20">
     <!-- Dataset 5 without random masking -->
     <g transform="translate(160.213906 361.402188) scale(0.1 -0.1)">
      <defs>
       <path id="DejaVuSans-77" d="M 269 3500 
L 844 3500 
L 1563 769 
L 2278 3500 
L 2956 3500 
L 3675 769 
L 4391 3500 
L 4966 3500 
L 4050 0 
L 3372 0 
L 2619 2869 
L 1863 0 
L 1184 0 
L 269 3500 
z
" transform="scale(0.015625)"/>
       <path id="DejaVuSans-68" d="M 3513 2113 
L 3513 0 
L 2938 0 
L 2938 2094 
Q 2938 2591 2744 2837 
Q 2550 3084 2163 3084 
Q 1697 3084 1428 2787 
Q 1159 2491 1159 1978 
L 1159 0 
L 581 0 
L 581 4863 
L 1159 4863 
L 1159 2956 
Q 1366 3272 1645 3428 
Q 1925 3584 2291 3584 
Q 2894 3584 3203 3211 
Q 3513 2838 3513 2113 
z
" transform="scale(0.015625)"/>
       <path id="DejaVuSans-6d" d="M 3328 2828 
Q 3544 3216 3844 3400 
Q 4144 3584 4550 3584 
Q 5097 3584 5394 3201 
Q 5691 2819 5691 2113 
L 5691 0 
L 5113 0 
L 5113 2094 
Q 5113 2597 4934 2840 
Q 4756 3084 4391 3084 
Q 3944 3084 3684 2787 
Q 3425 2491 3425 1978 
L 3425 0 
L 2847 0 
L 2847 2094 
Q 2847 2600 2669 2842 
Q 2491 3084 2119 3084 
Q 1678 3084 1418 2786 
Q 1159 2488 1159 1978 
L 1159 0 
L 581 0 
L 581 3500 
L 1159 3500 
L 1159 2956 
Q 1356 3278 1631 3431 
Q 1906 3584 2284 3584 
Q 2666 3584 2933 3390 
Q 3200 3197 3328 2828 
z
" transform="scale(0.015625)"/>
       <path id="DejaVuSans-6b" d="M 581 4863 
L 1159 4863 
L 1159 1991 
L 2875 3500 
L 3609 3500 
L 1753 1863 
L 3688 0 
L 2938 0 
L 1159 1709 
L 1159 0 
L 581 0 
L 581 4863 
z
" transform="scale(0.015625)"/>
       <path id="DejaVuSans-67" d="M 2906 1791 
Q 2906 2416 2648 2759 
Q 2391 3103 1925 3103 
Q 1463 3103 1205 2759 
Q 947 2416 947 1791 
Q 947 1169 1205 825 
Q 1463 481 1925 481 
Q 2391 481 2648 825 
Q 2906 1169 2906 1791 
z
M 3481 434 
Q 3481 -459 3084 -895 
Q 2688 -1331 1869 -1331 
Q 1566 -1331 1297 -1286 
Q 1028 -1241 775 -1147 
L 775 -588 
Q 1028 -725 1275 -790 
Q 1522 -856 1778 -856 
Q 2344 -856 2625 -561 
Q 2906 -266 2906 331 
L 2906 616 
Q 2728 306 2450 153 
Q 2172 0 1784 0 
Q 1141 0 747 490 
Q 353 981 353 1791 
Q 353 2603 747 3093 
Q 1141 3584 1784 3584 
Q 2172 3584 2450 3431 
Q 2728 3278 2906 2969 
L 2906 3500 
L 3481 3500 
L 3481 434 
z
" transform="scale(0.015625)"/>
      </defs>
      <use xlink:href="#DejaVuSans-44"/>
      <use xlink:href="#DejaVuSans-61" x="77.001953"/>
      <use xlink:href="#DejaVuSans-74" x="138.28125"/>
      <use xlink:href="#DejaVuSans-61" x="177.490234"/>
      <use xlink:href="#DejaVuSans-73" x="238.769531"/>
      <use xlink:href="#DejaVuSans-65" x="290.869141"/>
      <use xlink:href="#DejaVuSans-74" x="352.392578"/>
      <use xlink:href="#DejaVuSans-20" x="391.601562"/>
      <use xlink:href="#DejaVuSans-35" x="423.388672"/>
      <use xlink:href="#DejaVuSans-20" x="487.011719"/>
      <use xlink:href="#DejaVuSans-77" x="518.798828"/>
      <use xlink:href="#DejaVuSans-69" x="600.585938"/>
      <use xlink:href="#DejaVuSans-74" x="628.369141"/>
      <use xlink:href="#DejaVuSans-68" x="667.578125"/>
      <use xlink:href="#DejaVuSans-6f" x="730.957031"/>
      <use xlink:href="#DejaVuSans-75" x="792.138672"/>
      <use xlink:href="#DejaVuSans-74" x="855.517578"/>
      <use xlink:href="#DejaVuSans-20" x="894.726562"/>
      <use xlink:href="#DejaVuSans-72" x="926.513672"/>
      <use xlink:href="#DejaVuSans-61" x="967.626953"/>
      <use xlink:href="#DejaVuSans-6e" x="1028.90625"/>
      <use xlink:href="#DejaVuSans-64" x="1092.285156"/>
      <use xlink:href="#DejaVuSans-6f" x="1155.761719"/>
      <use xlink:href="#DejaVuSans-6d" x="1216.943359"/>
      <use xlink:href="#DejaVuSans-20" x="1314.355469"/>
      <use xlink:href="#DejaVuSans-6d" x="1346.142578"/>
      <use xlink:href="#DejaVuSans-61" x="1443.554688"/>
      <use xlink:href="#DejaVuSans-73" x="1504.833984"/>
      <use xlink:href="#DejaVuSans-6b" x="1556.933594"/>
      <use xlink:href="#DejaVuSans-69" x="1614.84375"/>
      <use xlink:href="#DejaVuSans-6e" x="1642.626953"/>
      <use xlink:href="#DejaVuSans-67" x="1706.005859"/>
     </g>
    </g>
    <g id="line2d_19">
     <path d="M 132.213906 372.580312 
L 142.213906 372.580312 
L 152.213906 372.580312 
" style="fill: none; stroke-dasharray: 3.7,1.6; stroke-dashoffset: 0; stroke: #000000"/>
    </g>
    <g id="text_21">
     <!-- Predicted CreiLOV log fluorescence -->
     <g transform="translate(160.213906 376.080312) scale(0.1 -0.1)">
      <defs>
       <path id="DejaVuSans-43" d="M 4122 4306 
L 4122 3641 
Q 3803 3938 3442 4084 
Q 3081 4231 2675 4231 
Q 1875 4231 1450 3742 
Q 1025 3253 1025 2328 
Q 1025 1406 1450 917 
Q 1875 428 2675 428 
Q 3081 428 3442 575 
Q 3803 722 4122 1019 
L 4122 359 
Q 3791 134 3420 21 
Q 3050 -91 2638 -91 
Q 1578 -91 968 557 
Q 359 1206 359 2328 
Q 359 3453 968 4101 
Q 1578 4750 2638 4750 
Q 3056 4750 3426 4639 
Q 3797 4528 4122 4306 
z
" transform="scale(0.015625)"/>
       <path id="DejaVuSans-4c" d="M 628 4666 
L 1259 4666 
L 1259 531 
L 3531 531 
L 3531 0 
L 628 0 
L 628 4666 
z
" transform="scale(0.015625)"/>
       <path id="DejaVuSans-4f" d="M 2522 4238 
Q 1834 4238 1429 3725 
Q 1025 3213 1025 2328 
Q 1025 1447 1429 934 
Q 1834 422 2522 422 
Q 3209 422 3611 934 
Q 4013 1447 4013 2328 
Q 4013 3213 3611 3725 
Q 3209 4238 2522 4238 
z
M 2522 4750 
Q 3503 4750 4090 4092 
Q 4678 3434 4678 2328 
Q 4678 1225 4090 567 
Q 3503 -91 2522 -91 
Q 1538 -91 948 565 
Q 359 1222 359 2328 
Q 359 3434 948 4092 
Q 1538 4750 2522 4750 
z
" transform="scale(0.015625)"/>
       <path id="DejaVuSans-56" d="M 1831 0 
L 50 4666 
L 709 4666 
L 2188 738 
L 3669 4666 
L 4325 4666 
L 2547 0 
L 1831 0 
z
" transform="scale(0.015625)"/>
       <path id="DejaVuSans-66" d="M 2375 4863 
L 2375 4384 
L 1825 4384 
Q 1516 4384 1395 4259 
Q 1275 4134 1275 3809 
L 1275 3500 
L 2222 3500 
L 2222 3053 
L 1275 3053 
L 1275 0 
L 697 0 
L 697 3053 
L 147 3053 
L 147 3500 
L 697 3500 
L 697 3744 
Q 697 4328 969 4595 
Q 1241 4863 1831 4863 
L 2375 4863 
z
" transform="scale(0.015625)"/>
      </defs>
      <use xlink:href="#DejaVuSans-50"/>
      <use xlink:href="#DejaVuSans-72" x="58.552734"/>
      <use xlink:href="#DejaVuSans-65" x="97.416016"/>
      <use xlink:href="#DejaVuSans-64" x="158.939453"/>
      <use xlink:href="#DejaVuSans-69" x="222.416016"/>
      <use xlink:href="#DejaVuSans-63" x="250.199219"/>
      <use xlink:href="#DejaVuSans-74" x="305.179688"/>
      <use xlink:href="#DejaVuSans-65" x="344.388672"/>
      <use xlink:href="#DejaVuSans-64" x="405.912109"/>
      <use xlink:href="#DejaVuSans-20" x="469.388672"/>
      <use xlink:href="#DejaVuSans-43" x="501.175781"/>
      <use xlink:href="#DejaVuSans-72" x="571"/>
      <use xlink:href="#DejaVuSans-65" x="609.863281"/>
      <use xlink:href="#DejaVuSans-69" x="671.386719"/>
      <use xlink:href="#DejaVuSans-4c" x="699.169922"/>
      <use xlink:href="#DejaVuSans-4f" x="751.257812"/>
      <use xlink:href="#DejaVuSans-56" x="828.21875"/>
      <use xlink:href="#DejaVuSans-20" x="896.626953"/>
      <use xlink:href="#DejaVuSans-6c" x="928.414062"/>
      <use xlink:href="#DejaVuSans-6f" x="956.197266"/>
      <use xlink:href="#DejaVuSans-67" x="1017.378906"/>
      <use xlink:href="#DejaVuSans-20" x="1080.855469"/>
      <use xlink:href="#DejaVuSans-66" x="1112.642578"/>
      <use xlink:href="#DejaVuSans-6c" x="1147.847656"/>
      <use xlink:href="#DejaVuSans-75" x="1175.630859"/>
      <use xlink:href="#DejaVuSans-6f" x="1239.009766"/>
      <use xlink:href="#DejaVuSans-72" x="1300.191406"/>
      <use xlink:href="#DejaVuSans-65" x="1339.054688"/>
      <use xlink:href="#DejaVuSans-73" x="1400.578125"/>
      <use xlink:href="#DejaVuSans-63" x="1452.677734"/>
      <use xlink:href="#DejaVuSans-65" x="1507.658203"/>
      <use xlink:href="#DejaVuSans-6e" x="1569.181641"/>
      <use xlink:href="#DejaVuSans-63" x="1632.560547"/>
      <use xlink:href="#DejaVuSans-65" x="1687.541016"/>
     </g>
    </g>
   </g>
  </g>
 </g>
 <defs>
  <clipPath id="pf57a2add6a">
   <rect x="48.17" y="10.8" width="373.03" height="376.36"/>
  </clipPath>
 </defs>
</svg>
