<?xml version="1.0" encoding="utf-8" standalone="no"?>
<!DOCTYPE svg PUBLIC "-//W3C//DTD SVG 1.1//EN"
  "http://www.w3.org/Graphics/SVG/1.1/DTD/svg11.dtd">
<svg xmlns:xlink="http://www.w3.org/1999/xlink" width="432pt" height="432pt" viewBox="0 0 432 432" xmlns="http://www.w3.org/2000/svg" version="1.1">
 <metadata>
  <rdf:RDF xmlns:dc="http://purl.org/dc/elements/1.1/" xmlns:cc="http://creativecommons.org/ns#" xmlns:rdf="http://www.w3.org/1999/02/22-rdf-syntax-ns#">
   <cc:Work>
    <dc:type rdf:resource="http://purl.org/dc/dcmitype/StillImage"/>
    <dc:date>2025-04-01T13:21:52.623793</dc:date>
    <dc:format>image/svg+xml</dc:format>
    <dc:creator>
     <cc:Agent>
      <dc:title>Matplotlib v3.7.1, https://matplotlib.org/</dc:title>
     </cc:Agent>
    </dc:creator>
   </cc:Work>
  </rdf:RDF>
 </metadata>
 <defs>
  <style type="text/css">*{stroke-linejoin: round; stroke-linecap: butt}</style>
 </defs>
 <g id="figure_1">
  <g id="patch_1">
   <path d="M 0 432 
L 432 432 
L 432 0 
L 0 0 
z
" style="fill: #ffffff"/>
  </g>
  <g id="axes_1">
   <g id="patch_2">
    <path d="M 48.17 387.16 
L 420.808727 387.16 
L 420.808727 10.8 
L 48.17 10.8 
z
" style="fill: #ffffff"/>
   </g>
   <g id="PolyCollection_1">
    <defs>
     <path id="m5412a9eccb" d="M 101.21875 -44.923883 
L 101.21875 -44.84 
L 102.274603 -44.84 
L 103.330456 -44.84 
L 104.38631 -44.84 
L 105.442163 -44.84 
L 106.498016 -44.84 
L 107.55387 -44.84 
L 108.609723 -44.84 
L 109.665576 -44.84 
L 110.72143 -44.84 
L 111.777283 -44.84 
L 112.833136 -44.84 
L 113.88899 -44.84 
L 114.944843 -44.84 
L 116.000696 -44.84 
L 117.05655 -44.84 
L 118.112403 -44.84 
L 119.168256 -44.84 
L 120.22411 -44.84 
L 121.279963 -44.84 
L 122.335816 -44.84 
L 123.39167 -44.84 
L 124.447523 -44.84 
L 125.503376 -44.84 
L 126.55923 -44.84 
L 127.615083 -44.84 
L 128.670936 -44.84 
L 129.72679 -44.84 
L 130.782643 -44.84 
L 131.838496 -44.84 
L 132.89435 -44.84 
L 133.950203 -44.84 
L 135.006056 -44.84 
L 136.06191 -44.84 
L 137.117763 -44.84 
L 138.173616 -44.84 
L 139.22947 -44.84 
L 140.285323 -44.84 
L 141.341176 -44.84 
L 142.397029 -44.84 
L 143.452883 -44.84 
L 144.508736 -44.84 
L 145.564589 -44.84 
L 146.620443 -44.84 
L 147.676296 -44.84 
L 148.732149 -44.84 
L 149.788003 -44.84 
L 150.843856 -44.84 
L 151.899709 -44.84 
L 152.955563 -44.84 
L 154.011416 -44.84 
L 155.067269 -44.84 
L 156.123123 -44.84 
L 157.178976 -44.84 
L 158.234829 -44.84 
L 159.290683 -44.84 
L 160.346536 -44.84 
L 161.402389 -44.84 
L 162.458243 -44.84 
L 163.514096 -44.84 
L 164.569949 -44.84 
L 165.625803 -44.84 
L 166.681656 -44.84 
L 167.737509 -44.84 
L 168.793363 -44.84 
L 169.849216 -44.84 
L 170.905069 -44.84 
L 171.960923 -44.84 
L 173.016776 -44.84 
L 174.072629 -44.84 
L 175.128483 -44.84 
L 176.184336 -44.84 
L 177.240189 -44.84 
L 178.296043 -44.84 
L 179.351896 -44.84 
L 180.407749 -44.84 
L 181.463602 -44.84 
L 182.519456 -44.84 
L 183.575309 -44.84 
L 184.631162 -44.84 
L 185.687016 -44.84 
L 186.742869 -44.84 
L 187.798722 -44.84 
L 188.854576 -44.84 
L 189.910429 -44.84 
L 190.966282 -44.84 
L 192.022136 -44.84 
L 193.077989 -44.84 
L 194.133842 -44.84 
L 195.189696 -44.84 
L 196.245549 -44.84 
L 197.301402 -44.84 
L 198.357256 -44.84 
L 199.413109 -44.84 
L 200.468962 -44.84 
L 201.524816 -44.84 
L 202.580669 -44.84 
L 203.636522 -44.84 
L 204.692376 -44.84 
L 205.748229 -44.84 
L 206.804082 -44.84 
L 207.859936 -44.84 
L 208.915789 -44.84 
L 209.971642 -44.84 
L 211.027496 -44.84 
L 212.083349 -44.84 
L 213.139202 -44.84 
L 214.195056 -44.84 
L 215.250909 -44.84 
L 216.306762 -44.84 
L 217.362616 -44.84 
L 218.418469 -44.84 
L 219.474322 -44.84 
L 220.530175 -44.84 
L 221.586029 -44.84 
L 222.641882 -44.84 
L 223.697735 -44.84 
L 224.753589 -44.84 
L 225.809442 -44.84 
L 226.865295 -44.84 
L 227.921149 -44.84 
L 228.977002 -44.84 
L 230.032855 -44.84 
L 231.088709 -44.84 
L 232.144562 -44.84 
L 233.200415 -44.84 
L 234.256269 -44.84 
L 235.312122 -44.84 
L 236.367975 -44.84 
L 237.423829 -44.84 
L 238.479682 -44.84 
L 239.535535 -44.84 
L 240.591389 -44.84 
L 241.647242 -44.84 
L 242.703095 -44.84 
L 243.758949 -44.84 
L 244.814802 -44.84 
L 245.870655 -44.84 
L 246.926509 -44.84 
L 247.982362 -44.84 
L 249.038215 -44.84 
L 250.094069 -44.84 
L 251.149922 -44.84 
L 252.205775 -44.84 
L 253.261629 -44.84 
L 254.317482 -44.84 
L 255.373335 -44.84 
L 256.429189 -44.84 
L 257.485042 -44.84 
L 258.540895 -44.84 
L 259.596748 -44.84 
L 260.652602 -44.84 
L 261.708455 -44.84 
L 262.764308 -44.84 
L 263.820162 -44.84 
L 264.876015 -44.84 
L 265.931868 -44.84 
L 266.987722 -44.84 
L 268.043575 -44.84 
L 269.099428 -44.84 
L 270.155282 -44.84 
L 271.211135 -44.84 
L 272.266988 -44.84 
L 273.322842 -44.84 
L 274.378695 -44.84 
L 275.434548 -44.84 
L 276.490402 -44.84 
L 277.546255 -44.84 
L 278.602108 -44.84 
L 279.657962 -44.84 
L 280.713815 -44.84 
L 281.769668 -44.84 
L 282.825522 -44.84 
L 283.881375 -44.84 
L 284.937228 -44.84 
L 285.993082 -44.84 
L 287.048935 -44.84 
L 288.104788 -44.84 
L 289.160642 -44.84 
L 290.216495 -44.84 
L 291.272348 -44.84 
L 292.328202 -44.84 
L 293.384055 -44.84 
L 294.439908 -44.84 
L 295.495762 -44.84 
L 296.551615 -44.84 
L 297.607468 -44.84 
L 298.663322 -44.84 
L 299.719175 -44.84 
L 300.775028 -44.84 
L 301.830881 -44.84 
L 302.886735 -44.84 
L 303.942588 -44.84 
L 304.998441 -44.84 
L 306.054295 -44.84 
L 307.110148 -44.84 
L 308.166001 -44.84 
L 309.221855 -44.84 
L 310.277708 -44.84 
L 311.333561 -44.84 
L 311.333561 -44.90301 
L 311.333561 -44.90301 
L 310.277708 -44.929426 
L 309.221855 -44.965131 
L 308.166001 -45.012625 
L 307.110148 -45.074795 
L 306.054295 -45.154859 
L 304.998441 -45.25628 
L 303.942588 -45.382623 
L 302.886735 -45.537353 
L 301.830881 -45.723589 
L 300.775028 -45.943801 
L 299.719175 -46.199483 
L 298.663322 -46.490818 
L 297.607468 -46.816367 
L 296.551615 -47.172806 
L 295.495762 -47.554765 
L 294.439908 -47.954789 
L 293.384055 -48.363446 
L 292.328202 -48.769609 
L 291.272348 -49.160895 
L 290.216495 -49.524258 
L 289.160642 -49.846688 
L 288.104788 -50.115977 
L 287.048935 -50.321482 
L 285.993082 -50.454819 
L 284.937228 -50.510432 
L 283.881375 -50.485979 
L 282.825522 -50.382492 
L 281.769668 -50.204306 
L 280.713815 -49.958759 
L 279.657962 -49.65569 
L 278.602108 -49.306784 
L 277.546255 -48.924831 
L 276.490402 -48.522951 
L 275.434548 -48.113863 
L 274.378695 -47.709246 
L 273.322842 -47.319235 
L 272.266988 -46.95208 
L 271.211135 -46.613968 
L 270.155282 -46.309008 
L 269.099428 -46.039351 
L 268.043575 -45.805412 
L 266.987722 -45.606172 
L 265.931868 -45.439506 
L 264.876015 -45.302518 
L 263.820162 -45.19186 
L 262.764308 -45.103999 
L 261.708455 -45.03545 
L 260.652602 -44.982947 
L 259.596748 -44.943564 
L 258.540895 -44.914807 
L 257.485042 -44.894664 
L 256.429189 -44.881645 
L 255.373335 -44.874824 
L 254.317482 -44.873892 
L 253.261629 -44.879236 
L 252.205775 -44.892061 
L 251.149922 -44.914576 
L 250.094069 -44.950234 
L 249.038215 -45.004055 
L 247.982362 -45.083031 
L 246.926509 -45.196606 
L 245.870655 -45.357235 
L 244.814802 -45.58099 
L 243.758949 -45.888196 
L 242.703095 -46.304052 
L 241.647242 -46.859181 
L 240.591389 -47.590045 
L 239.535535 -48.539152 
L 238.479682 -49.754995 
L 237.423829 -51.29163 
L 236.367975 -53.207867 
L 235.312122 -55.566036 
L 234.256269 -58.430322 
L 233.200415 -61.864732 
L 232.144562 -65.93075 
L 231.088709 -70.684813 
L 230.032855 -76.175746 
L 228.977002 -82.442314 
L 227.921149 -89.511044 
L 226.865295 -97.394454 
L 225.809442 -106.089791 
L 224.753589 -115.578311 
L 223.697735 -125.825114 
L 222.641882 -136.779453 
L 221.586029 -148.37543 
L 220.530175 -160.53295 
L 219.474322 -173.158802 
L 218.418469 -186.147793 
L 217.362616 -199.383848 
L 216.306762 -212.74112 
L 215.250909 -226.085147 
L 214.195056 -239.274182 
L 213.139202 -252.16084 
L 212.083349 -264.594189 
L 211.027496 -276.4224 
L 209.971642 -287.495975 
L 208.915789 -297.671508 
L 207.859936 -306.815814 
L 206.804082 -314.810187 
L 205.748229 -321.554468 
L 204.692376 -326.970571 
L 203.636522 -331.005148 
L 202.580669 -333.631107 
L 201.524816 -334.847818 
L 200.468962 -334.679962 
L 199.413109 -333.17512 
L 198.357256 -330.400319 
L 197.301402 -326.437881 
L 196.245549 -321.380932 
L 195.189696 -315.32901 
L 194.133842 -308.384102 
L 193.077989 -300.647421 
L 192.022136 -292.217107 
L 190.966282 -283.186895 
L 189.910429 -273.645735 
L 188.854576 -263.678185 
L 187.798722 -253.36539 
L 186.742869 -242.786383 
L 185.687016 -232.019461 
L 184.631162 -221.143407 
L 183.575309 -210.238364 
L 182.519456 -199.386243 
L 181.463602 -188.670577 
L 180.407749 -178.175822 
L 179.351896 -167.986117 
L 178.296043 -158.183598 
L 177.240189 -148.846373 
L 176.184336 -140.046285 
L 175.128483 -131.846636 
L 174.072629 -124.300029 
L 173.016776 -117.4465 
L 171.960923 -111.312095 
L 170.905069 -105.908021 
L 169.849216 -101.230471 
L 168.793363 -97.261149 
L 167.737509 -93.9685 
L 166.681656 -91.309532 
L 165.625803 -89.232111 
L 164.569949 -87.677527 
L 163.514096 -86.583119 
L 162.458243 -85.884727 
L 161.402389 -85.518794 
L 160.346536 -85.423953 
L 159.290683 -85.542048 
L 158.234829 -85.818568 
L 157.178976 -86.202617 
L 156.123123 -86.646549 
L 155.067269 -87.105479 
L 154.011416 -87.536875 
L 152.955563 -87.900416 
L 151.899709 -88.158249 
L 150.843856 -88.275679 
L 149.788003 -88.22227 
L 148.732149 -87.97322 
L 147.676296 -87.510804 
L 146.620443 -86.825678 
L 145.564589 -85.917783 
L 144.508736 -84.796663 
L 143.452883 -83.48108 
L 142.397029 -81.997865 
L 141.341176 -80.380097 
L 140.285323 -78.664749 
L 139.22947 -76.890046 
L 138.173616 -75.092788 
L 137.117763 -73.305936 
L 136.06191 -71.556685 
L 135.006056 -69.865207 
L 133.950203 -68.244159 
L 132.89435 -66.698956 
L 131.838496 -65.228713 
L 130.782643 -63.827704 
L 129.72679 -62.487119 
L 128.670936 -61.196913 
L 127.615083 -59.947512 
L 126.55923 -58.731216 
L 125.503376 -57.543174 
L 124.447523 -56.38187 
L 123.39167 -55.249138 
L 122.335816 -54.149758 
L 121.279963 -53.090732 
L 120.22411 -52.080381 
L 119.168256 -51.127366 
L 118.112403 -50.239781 
L 117.05655 -49.424374 
L 116.000696 -48.685992 
L 114.944843 -48.027255 
L 113.88899 -47.448462 
L 112.833136 -46.947712 
L 111.777283 -46.521179 
L 110.72143 -46.163498 
L 109.665576 -45.868212 
L 108.609723 -45.628216 
L 107.55387 -45.436171 
L 106.498016 -45.284865 
L 105.442163 -45.167483 
L 104.38631 -45.077811 
L 103.330456 -45.010348 
L 102.274603 -44.960362 
L 101.21875 -44.923883 
z
" style="stroke: #bdbdbd; stroke-width: 2.5"/>
    </defs>
    <g clip-path="url(#p0ed19ec07d)">
     <use xlink:href="#m5412a9eccb" x="0" y="432" style="fill: #bdbdbd; fill-opacity: 0.5; stroke: #bdbdbd; stroke-width: 2.5"/>
    </g>
   </g>
   <g id="PolyCollection_2">
    <defs>
     <path id="mb15f930375" d="M 276.159596 -44.93128 
L 276.159596 -44.84 
L 276.723541 -44.84 
L 277.287485 -44.84 
L 277.85143 -44.84 
L 278.415374 -44.84 
L 278.979319 -44.84 
L 279.543263 -44.84 
L 280.107208 -44.84 
L 280.671153 -44.84 
L 281.235097 -44.84 
L 281.799042 -44.84 
L 282.362986 -44.84 
L 282.926931 -44.84 
L 283.490876 -44.84 
L 284.05482 -44.84 
L 284.618765 -44.84 
L 285.182709 -44.84 
L 285.746654 -44.84 
L 286.310599 -44.84 
L 286.874543 -44.84 
L 287.438488 -44.84 
L 288.002432 -44.84 
L 288.566377 -44.84 
L 289.130321 -44.84 
L 289.694266 -44.84 
L 290.258211 -44.84 
L 290.822155 -44.84 
L 291.3861 -44.84 
L 291.950044 -44.84 
L 292.513989 -44.84 
L 293.077934 -44.84 
L 293.641878 -44.84 
L 294.205823 -44.84 
L 294.769767 -44.84 
L 295.333712 -44.84 
L 295.897657 -44.84 
L 296.461601 -44.84 
L 297.025546 -44.84 
L 297.58949 -44.84 
L 298.153435 -44.84 
L 298.717379 -44.84 
L 299.281324 -44.84 
L 299.845269 -44.84 
L 300.409213 -44.84 
L 300.973158 -44.84 
L 301.537102 -44.84 
L 302.101047 -44.84 
L 302.664992 -44.84 
L 303.228936 -44.84 
L 303.792881 -44.84 
L 304.356825 -44.84 
L 304.92077 -44.84 
L 305.484715 -44.84 
L 306.048659 -44.84 
L 306.612604 -44.84 
L 307.176548 -44.84 
L 307.740493 -44.84 
L 308.304437 -44.84 
L 308.868382 -44.84 
L 309.432327 -44.84 
L 309.996271 -44.84 
L 310.560216 -44.84 
L 311.12416 -44.84 
L 311.688105 -44.84 
L 312.25205 -44.84 
L 312.815994 -44.84 
L 313.379939 -44.84 
L 313.943883 -44.84 
L 314.507828 -44.84 
L 315.071773 -44.84 
L 315.635717 -44.84 
L 316.199662 -44.84 
L 316.763606 -44.84 
L 317.327551 -44.84 
L 317.891495 -44.84 
L 318.45544 -44.84 
L 319.019385 -44.84 
L 319.583329 -44.84 
L 320.147274 -44.84 
L 320.711218 -44.84 
L 321.275163 -44.84 
L 321.839108 -44.84 
L 322.403052 -44.84 
L 322.966997 -44.84 
L 323.530941 -44.84 
L 324.094886 -44.84 
L 324.658831 -44.84 
L 325.222775 -44.84 
L 325.78672 -44.84 
L 326.350664 -44.84 
L 326.914609 -44.84 
L 327.478553 -44.84 
L 328.042498 -44.84 
L 328.606443 -44.84 
L 329.170387 -44.84 
L 329.734332 -44.84 
L 330.298276 -44.84 
L 330.862221 -44.84 
L 331.426166 -44.84 
L 331.99011 -44.84 
L 332.554055 -44.84 
L 333.117999 -44.84 
L 333.681944 -44.84 
L 334.245889 -44.84 
L 334.809833 -44.84 
L 335.373778 -44.84 
L 335.937722 -44.84 
L 336.501667 -44.84 
L 337.065611 -44.84 
L 337.629556 -44.84 
L 338.193501 -44.84 
L 338.757445 -44.84 
L 339.32139 -44.84 
L 339.885334 -44.84 
L 340.449279 -44.84 
L 341.013224 -44.84 
L 341.577168 -44.84 
L 342.141113 -44.84 
L 342.705057 -44.84 
L 343.269002 -44.84 
L 343.832947 -44.84 
L 344.396891 -44.84 
L 344.960836 -44.84 
L 345.52478 -44.84 
L 346.088725 -44.84 
L 346.652669 -44.84 
L 347.216614 -44.84 
L 347.780559 -44.84 
L 348.344503 -44.84 
L 348.908448 -44.84 
L 349.472392 -44.84 
L 350.036337 -44.84 
L 350.600282 -44.84 
L 351.164226 -44.84 
L 351.728171 -44.84 
L 352.292115 -44.84 
L 352.85606 -44.84 
L 353.420005 -44.84 
L 353.983949 -44.84 
L 354.547894 -44.84 
L 355.111838 -44.84 
L 355.675783 -44.84 
L 356.239727 -44.84 
L 356.803672 -44.84 
L 357.367617 -44.84 
L 357.931561 -44.84 
L 358.495506 -44.84 
L 359.05945 -44.84 
L 359.623395 -44.84 
L 360.18734 -44.84 
L 360.751284 -44.84 
L 361.315229 -44.84 
L 361.879173 -44.84 
L 362.443118 -44.84 
L 363.007063 -44.84 
L 363.571007 -44.84 
L 364.134952 -44.84 
L 364.698896 -44.84 
L 365.262841 -44.84 
L 365.826785 -44.84 
L 366.39073 -44.84 
L 366.954675 -44.84 
L 367.518619 -44.84 
L 368.082564 -44.84 
L 368.646508 -44.84 
L 369.210453 -44.84 
L 369.774398 -44.84 
L 370.338342 -44.84 
L 370.902287 -44.84 
L 371.466231 -44.84 
L 372.030176 -44.84 
L 372.594121 -44.84 
L 373.158065 -44.84 
L 373.72201 -44.84 
L 374.285954 -44.84 
L 374.849899 -44.84 
L 375.413843 -44.84 
L 375.977788 -44.84 
L 376.541733 -44.84 
L 377.105677 -44.84 
L 377.669622 -44.84 
L 378.233566 -44.84 
L 378.797511 -44.84 
L 379.361456 -44.84 
L 379.9254 -44.84 
L 380.489345 -44.84 
L 381.053289 -44.84 
L 381.617234 -44.84 
L 382.181179 -44.84 
L 382.745123 -44.84 
L 383.309068 -44.84 
L 383.873012 -44.84 
L 384.436957 -44.84 
L 385.000901 -44.84 
L 385.564846 -44.84 
L 386.128791 -44.84 
L 386.692735 -44.84 
L 387.25668 -44.84 
L 387.820624 -44.84 
L 388.384569 -44.84 
L 388.384569 -45.023055 
L 388.384569 -45.023055 
L 387.820624 -45.083468 
L 387.25668 -45.161373 
L 386.692735 -45.261033 
L 386.128791 -45.387516 
L 385.564846 -45.546784 
L 385.000901 -45.745784 
L 384.436957 -45.992531 
L 383.873012 -46.29618 
L 383.309068 -46.667095 
L 382.745123 -47.116889 
L 382.181179 -47.658466 
L 381.617234 -48.306032 
L 381.053289 -49.075098 
L 380.489345 -49.982461 
L 379.9254 -51.046179 
L 379.361456 -52.285526 
L 378.797511 -53.720945 
L 378.233566 -55.373991 
L 377.669622 -57.267275 
L 377.105677 -59.424401 
L 376.541733 -61.869898 
L 375.977788 -64.629149 
L 375.413843 -67.728301 
L 374.849899 -71.19415 
L 374.285954 -75.053985 
L 373.72201 -79.335386 
L 373.158065 -84.065939 
L 372.594121 -89.272868 
L 372.030176 -94.982559 
L 371.466231 -101.219964 
L 370.902287 -108.007872 
L 370.338342 -115.366053 
L 369.774398 -123.310279 
L 369.210453 -131.851235 
L 368.646508 -140.993361 
L 368.082564 -150.733647 
L 367.518619 -161.060455 
L 366.954675 -171.952408 
L 366.39073 -183.377428 
L 365.826785 -195.291986 
L 365.262841 -207.640637 
L 364.698896 -220.355903 
L 364.134952 -233.358561 
L 363.571007 -246.558372 
L 363.007063 -259.855275 
L 362.443118 -273.141032 
L 361.879173 -286.30131 
L 361.315229 -299.218132 
L 360.751284 -311.772626 
L 360.18734 -323.847958 
L 359.623395 -335.332342 
L 359.05945 -346.121985 
L 358.495506 -356.12384 
L 357.931561 -365.258019 
L 357.367617 -373.459773 
L 356.803672 -380.680916 
L 356.239727 -386.890632 
L 355.675783 -392.075635 
L 355.111838 -396.239657 
L 354.547894 -399.402322 
L 353.983949 -401.597449 
L 353.420005 -402.870904 
L 352.85606 -403.278095 
L 352.292115 -402.881273 
L 351.728171 -401.746755 
L 351.164226 -399.942232 
L 350.600282 -397.534281 
L 350.036337 -394.586196 
L 349.472392 -391.156223 
L 348.908448 -387.296279 
L 348.344503 -383.051158 
L 347.780559 -378.458254 
L 347.216614 -373.54776 
L 346.652669 -368.343297 
L 346.088725 -362.862905 
L 345.52478 -357.12031 
L 344.960836 -351.126366 
L 344.396891 -344.890581 
L 343.832947 -338.42263 
L 343.269002 -331.733762 
L 342.705057 -324.838013 
L 342.141113 -317.753188 
L 341.577168 -310.501523 
L 341.013224 -303.110038 
L 340.449279 -295.610544 
L 339.885334 -288.039319 
L 339.32139 -280.436482 
L 338.757445 -272.84511 
L 338.193501 -265.310136 
L 337.629556 -257.877099 
L 337.065611 -250.590824 
L 336.501667 -243.494077 
L 335.937722 -236.626278 
L 335.373778 -230.022332 
L 334.809833 -223.71162 
L 334.245889 -217.717195 
L 333.681944 -212.055221 
L 333.117999 -206.734652 
L 332.554055 -201.757174 
L 331.99011 -197.117391 
L 331.426166 -192.803236 
L 330.862221 -188.796586 
L 330.298276 -185.074048 
L 329.734332 -181.607872 
L 329.170387 -178.366957 
L 328.606443 -175.317916 
L 328.042498 -172.426148 
L 327.478553 -169.656892 
L 326.914609 -166.976231 
L 326.350664 -164.352015 
L 325.78672 -161.754682 
L 325.222775 -159.157959 
L 324.658831 -156.53944 
L 324.094886 -153.881013 
L 323.530941 -151.169157 
L 322.966997 -148.39509 
L 322.403052 -145.554781 
L 321.839108 -142.648831 
L 321.275163 -139.682222 
L 320.711218 -136.663961 
L 320.147274 -133.606607 
L 319.583329 -130.525715 
L 319.019385 -127.439194 
L 318.45544 -124.366608 
L 317.891495 -121.328432 
L 317.327551 -118.345282 
L 316.763606 -115.437148 
L 316.199662 -112.622648 
L 315.635717 -109.918337 
L 315.071773 -107.338092 
L 314.507828 -104.892595 
L 313.943883 -102.588947 
L 313.379939 -100.430429 
L 312.815994 -98.416417 
L 312.25205 -96.542467 
L 311.688105 -94.800565 
L 311.12416 -93.179535 
L 310.560216 -91.665586 
L 309.996271 -90.242966 
L 309.432327 -88.894708 
L 308.868382 -87.603409 
L 308.304437 -86.352016 
L 307.740493 -85.124572 
L 307.176548 -83.906885 
L 306.612604 -82.687078 
L 306.048659 -81.456006 
L 305.484715 -80.207503 
L 304.92077 -78.938465 
L 304.356825 -77.648763 
L 303.792881 -76.340987 
L 303.228936 -75.020071 
L 302.664992 -73.69279 
L 302.101047 -72.367201 
L 301.537102 -71.052033 
L 300.973158 -69.756095 
L 300.409213 -68.487716 
L 299.845269 -67.254267 
L 299.281324 -66.06178 
L 298.717379 -64.914684 
L 298.153435 -63.815677 
L 297.58949 -62.765718 
L 297.025546 -61.764138 
L 296.461601 -60.808863 
L 295.897657 -59.896697 
L 295.333712 -59.023672 
L 294.769767 -58.185417 
L 294.205823 -57.377515 
L 293.641878 -56.59584 
L 293.077934 -55.836832 
L 292.513989 -55.097712 
L 291.950044 -54.376619 
L 291.3861 -53.672665 
L 290.822155 -52.985919 
L 290.258211 -52.317317 
L 289.694266 -51.668526 
L 289.130321 -51.041761 
L 288.566377 -50.439584 
L 288.002432 -49.864692 
L 287.438488 -49.31972 
L 286.874543 -48.807057 
L 286.310599 -48.3287 
L 285.746654 -47.886139 
L 285.182709 -47.480284 
L 284.618765 -47.111435 
L 284.05482 -46.779284 
L 283.490876 -46.482949 
L 282.926931 -46.221037 
L 282.362986 -45.991722 
L 281.799042 -45.792839 
L 281.235097 -45.621977 
L 280.671153 -45.47657 
L 280.107208 -45.353993 
L 279.543263 -45.251631 
L 278.979319 -45.166953 
L 278.415374 -45.097559 
L 277.85143 -45.041219 
L 277.287485 -44.995903 
L 276.723541 -44.959792 
L 276.159596 -44.93128 
z
" style="stroke: #2166ac; stroke-width: 2.5"/>
    </defs>
    <g clip-path="url(#p0ed19ec07d)">
     <use xlink:href="#mb15f930375" x="0" y="432" style="fill: #2166ac; fill-opacity: 0.5; stroke: #2166ac; stroke-width: 2.5"/>
    </g>
   </g>
   <g id="PolyCollection_3">
    <defs>
     <path id="mf9c6079d86" d="M 65.108124 -44.875541 
L 65.108124 -44.84 
L 66.810448 -44.84 
L 68.512772 -44.84 
L 70.215096 -44.84 
L 71.91742 -44.84 
L 73.619744 -44.84 
L 75.322068 -44.84 
L 77.024392 -44.84 
L 78.726716 -44.84 
L 80.42904 -44.84 
L 82.131364 -44.84 
L 83.833688 -44.84 
L 85.536012 -44.84 
L 87.238336 -44.84 
L 88.94066 -44.84 
L 90.642984 -44.84 
L 92.345308 -44.84 
L 94.047632 -44.84 
L 95.749956 -44.84 
L 97.45228 -44.84 
L 99.154604 -44.84 
L 100.856928 -44.84 
L 102.559252 -44.84 
L 104.261576 -44.84 
L 105.9639 -44.84 
L 107.666224 -44.84 
L 109.368548 -44.84 
L 111.070872 -44.84 
L 112.773196 -44.84 
L 114.47552 -44.84 
L 116.177844 -44.84 
L 117.880168 -44.84 
L 119.582492 -44.84 
L 121.284816 -44.84 
L 122.98714 -44.84 
L 124.689464 -44.84 
L 126.391789 -44.84 
L 128.094113 -44.84 
L 129.796437 -44.84 
L 131.498761 -44.84 
L 133.201085 -44.84 
L 134.903409 -44.84 
L 136.605733 -44.84 
L 138.308057 -44.84 
L 140.010381 -44.84 
L 141.712705 -44.84 
L 143.415029 -44.84 
L 145.117353 -44.84 
L 146.819677 -44.84 
L 148.522001 -44.84 
L 150.224325 -44.84 
L 151.926649 -44.84 
L 153.628973 -44.84 
L 155.331297 -44.84 
L 157.033621 -44.84 
L 158.735945 -44.84 
L 160.438269 -44.84 
L 162.140593 -44.84 
L 163.842917 -44.84 
L 165.545241 -44.84 
L 167.247565 -44.84 
L 168.949889 -44.84 
L 170.652213 -44.84 
L 172.354537 -44.84 
L 174.056861 -44.84 
L 175.759185 -44.84 
L 177.461509 -44.84 
L 179.163833 -44.84 
L 180.866157 -44.84 
L 182.568481 -44.84 
L 184.270805 -44.84 
L 185.973129 -44.84 
L 187.675453 -44.84 
L 189.377777 -44.84 
L 191.080101 -44.84 
L 192.782425 -44.84 
L 194.484749 -44.84 
L 196.187073 -44.84 
L 197.889397 -44.84 
L 199.591721 -44.84 
L 201.294045 -44.84 
L 202.996369 -44.84 
L 204.698693 -44.84 
L 206.401017 -44.84 
L 208.103341 -44.84 
L 209.805665 -44.84 
L 211.507989 -44.84 
L 213.210313 -44.84 
L 214.912637 -44.84 
L 216.614961 -44.84 
L 218.317285 -44.84 
L 220.019609 -44.84 
L 221.721933 -44.84 
L 223.424257 -44.84 
L 225.126581 -44.84 
L 226.828905 -44.84 
L 228.531229 -44.84 
L 230.233553 -44.84 
L 231.935877 -44.84 
L 233.638201 -44.84 
L 235.340525 -44.84 
L 237.04285 -44.84 
L 238.745174 -44.84 
L 240.447498 -44.84 
L 242.149822 -44.84 
L 243.852146 -44.84 
L 245.55447 -44.84 
L 247.256794 -44.84 
L 248.959118 -44.84 
L 250.661442 -44.84 
L 252.363766 -44.84 
L 254.06609 -44.84 
L 255.768414 -44.84 
L 257.470738 -44.84 
L 259.173062 -44.84 
L 260.875386 -44.84 
L 262.57771 -44.84 
L 264.280034 -44.84 
L 265.982358 -44.84 
L 267.684682 -44.84 
L 269.387006 -44.84 
L 271.08933 -44.84 
L 272.791654 -44.84 
L 274.493978 -44.84 
L 276.196302 -44.84 
L 277.898626 -44.84 
L 279.60095 -44.84 
L 281.303274 -44.84 
L 283.005598 -44.84 
L 284.707922 -44.84 
L 286.410246 -44.84 
L 288.11257 -44.84 
L 289.814894 -44.84 
L 291.517218 -44.84 
L 293.219542 -44.84 
L 294.921866 -44.84 
L 296.62419 -44.84 
L 298.326514 -44.84 
L 300.028838 -44.84 
L 301.731162 -44.84 
L 303.433486 -44.84 
L 305.13581 -44.84 
L 306.838134 -44.84 
L 308.540458 -44.84 
L 310.242782 -44.84 
L 311.945106 -44.84 
L 313.64743 -44.84 
L 315.349754 -44.84 
L 317.052078 -44.84 
L 318.754402 -44.84 
L 320.456726 -44.84 
L 322.15905 -44.84 
L 323.861374 -44.84 
L 325.563698 -44.84 
L 327.266022 -44.84 
L 328.968346 -44.84 
L 330.67067 -44.84 
L 332.372994 -44.84 
L 334.075318 -44.84 
L 335.777642 -44.84 
L 337.479966 -44.84 
L 339.18229 -44.84 
L 340.884614 -44.84 
L 342.586938 -44.84 
L 344.289262 -44.84 
L 345.991586 -44.84 
L 347.69391 -44.84 
L 349.396235 -44.84 
L 351.098559 -44.84 
L 352.800883 -44.84 
L 354.503207 -44.84 
L 356.205531 -44.84 
L 357.907855 -44.84 
L 359.610179 -44.84 
L 361.312503 -44.84 
L 363.014827 -44.84 
L 364.717151 -44.84 
L 366.419475 -44.84 
L 368.121799 -44.84 
L 369.824123 -44.84 
L 371.526447 -44.84 
L 373.228771 -44.84 
L 374.931095 -44.84 
L 376.633419 -44.84 
L 378.335743 -44.84 
L 380.038067 -44.84 
L 381.740391 -44.84 
L 383.442715 -44.84 
L 385.145039 -44.84 
L 386.847363 -44.84 
L 388.549687 -44.84 
L 390.252011 -44.84 
L 391.954335 -44.84 
L 393.656659 -44.84 
L 395.358983 -44.84 
L 397.061307 -44.84 
L 398.763631 -44.84 
L 400.465955 -44.84 
L 402.168279 -44.84 
L 403.870603 -44.84 
L 403.870603 -44.963109 
L 403.870603 -44.963109 
L 402.168279 -45.014027 
L 400.465955 -45.083471 
L 398.763631 -45.177139 
L 397.061307 -45.302103 
L 395.358983 -45.467004 
L 393.656659 -45.682246 
L 391.954335 -45.96017 
L 390.252011 -46.315179 
L 388.549687 -46.763812 
L 386.847363 -47.324743 
L 385.145039 -48.01868 
L 383.442715 -48.868159 
L 381.740391 -49.897208 
L 380.038067 -51.130893 
L 378.335743 -52.59472 
L 376.633419 -54.313938 
L 374.931095 -56.312722 
L 373.228771 -58.613302 
L 371.526447 -61.235043 
L 369.824123 -64.193546 
L 368.121799 -67.499789 
L 366.419475 -71.159376 
L 364.717151 -75.171922 
L 363.014827 -79.530617 
L 361.312503 -84.221981 
L 359.610179 -89.225827 
L 357.907855 -94.515424 
L 356.205531 -100.057843 
L 354.503207 -105.814448 
L 352.800883 -111.741502 
L 351.098559 -117.790845 
L 349.396235 -123.910599 
L 347.69391 -130.045885 
L 345.991586 -136.139525 
L 344.289262 -142.132725 
L 342.586938 -147.965759 
L 340.884614 -153.578675 
L 339.18229 -158.912046 
L 337.479966 -163.907819 
L 335.777642 -168.510257 
L 334.075318 -172.667021 
L 332.372994 -176.330357 
L 330.67067 -179.458375 
L 328.968346 -182.016371 
L 327.266022 -183.978115 
L 325.563698 -185.327033 
L 323.861374 -186.057198 
L 322.15905 -186.174032 
L 320.456726 -185.694676 
L 318.754402 -184.647952 
L 317.052078 -183.073911 
L 315.349754 -181.022952 
L 313.64743 -178.55455 
L 311.945106 -175.735635 
L 310.242782 -172.638684 
L 308.540458 -169.339616 
L 306.838134 -165.915555 
L 305.13581 -162.442561 
L 303.433486 -158.993394 
L 301.731162 -155.635399 
L 300.028838 -152.428569 
L 298.326514 -149.423847 
L 296.62419 -146.661725 
L 294.921866 -144.171176 
L 293.219542 -141.96897 
L 291.517218 -140.05939 
L 289.814894 -138.434368 
L 288.11257 -137.074063 
L 286.410246 -135.947852 
L 284.707922 -135.015729 
L 283.005598 -134.230057 
L 281.303274 -133.537622 
L 279.60095 -132.881909 
L 277.898626 -132.205505 
L 276.196302 -131.452533 
L 274.493978 -130.571001 
L 272.791654 -129.514953 
L 271.08933 -128.246332 
L 269.387006 -126.736451 
L 267.684682 -124.966999 
L 265.982358 -122.930556 
L 264.280034 -120.630569 
L 262.57771 -118.080831 
L 260.875386 -115.304482 
L 259.173062 -112.332614 
L 257.470738 -109.202572 
L 255.768414 -105.956041 
L 254.06609 -102.637061 
L 252.363766 -99.290056 
L 250.661442 -95.958 
L 248.959118 -92.680806 
L 247.256794 -89.494007 
L 245.55447 -86.427774 
L 243.852146 -83.506302 
L 242.149822 -80.74755 
L 240.447498 -78.163316 
L 238.745174 -75.7596 
L 237.04285 -73.537213 
L 235.340525 -71.49254 
L 233.638201 -69.61842 
L 231.935877 -67.905047 
L 230.233553 -66.34086 
L 228.531229 -64.913348 
L 226.828905 -63.609747 
L 225.126581 -62.417594 
L 223.424257 -61.325132 
L 221.721933 -60.321572 
L 220.019609 -59.397205 
L 218.317285 -58.54341 
L 216.614961 -57.752569 
L 214.912637 -57.017924 
L 213.210313 -56.333406 
L 211.507989 -55.693465 
L 209.805665 -55.092924 
L 208.103341 -54.526871 
L 206.401017 -53.9906 
L 204.698693 -53.47961 
L 202.996369 -52.989644 
L 201.294045 -52.516772 
L 199.591721 -52.057498 
L 197.889397 -51.608872 
L 196.187073 -51.168596 
L 194.484749 -50.735109 
L 192.782425 -50.307634 
L 191.080101 -49.88618 
L 189.377777 -49.471504 
L 187.675453 -49.06502 
L 185.973129 -48.668673 
L 184.270805 -48.284785 
L 182.568481 -47.915876 
L 180.866157 -47.564493 
L 179.163833 -47.233034 
L 177.461509 -46.923606 
L 175.759185 -46.637906 
L 174.056861 -46.377139 
L 172.354537 -46.141983 
L 170.652213 -45.932582 
L 168.949889 -45.748588 
L 167.247565 -45.589223 
L 165.545241 -45.453372 
L 163.842917 -45.339683 
L 162.140593 -45.246683 
L 160.438269 -45.172886 
L 158.735945 -45.116893 
L 157.033621 -45.077483 
L 155.331297 -45.053682 
L 153.628973 -45.044809 
L 151.926649 -45.050503 
L 150.224325 -45.070717 
L 148.522001 -45.10569 
L 146.819677 -45.155896 
L 145.117353 -45.221959 
L 143.415029 -45.304559 
L 141.712705 -45.404304 
L 140.010381 -45.521607 
L 138.308057 -45.65654 
L 136.605733 -45.808707 
L 134.903409 -45.977118 
L 133.201085 -46.16009 
L 131.498761 -46.355187 
L 129.796437 -46.559196 
L 128.094113 -46.768156 
L 126.391789 -46.977445 
L 124.689464 -47.181917 
L 122.98714 -47.376089 
L 121.284816 -47.554378 
L 119.582492 -47.711354 
L 117.880168 -47.842011 
L 116.177844 -47.942032 
L 114.47552 -48.008024 
L 112.773196 -48.037706 
L 111.070872 -48.030042 
L 109.368548 -47.985299 
L 107.666224 -47.905033 
L 105.9639 -47.791997 
L 104.261576 -47.649987 
L 102.559252 -47.483628 
L 100.856928 -47.298125 
L 99.154604 -47.098995 
L 97.45228 -46.891795 
L 95.749956 -46.681876 
L 94.047632 -46.47416 
L 92.345308 -46.272967 
L 90.642984 -46.081896 
L 88.94066 -45.903756 
L 87.238336 -45.740547 
L 85.536012 -45.593492 
L 83.833688 -45.4631 
L 82.131364 -45.349267 
L 80.42904 -45.251377 
L 78.726716 -45.16843 
L 77.024392 -45.099151 
L 75.322068 -45.042102 
L 73.619744 -44.995774 
L 71.91742 -44.958666 
L 70.215096 -44.929345 
L 68.512772 -44.906484 
L 66.810448 -44.888896 
L 65.108124 -44.875541 
z
" style="stroke: #b2182b; stroke-width: 2.5"/>
    </defs>
    <g clip-path="url(#p0ed19ec07d)">
     <use xlink:href="#mf9c6079d86" x="0" y="432" style="fill: #b2182b; fill-opacity: 0.5; stroke: #b2182b; stroke-width: 2.5"/>
    </g>
   </g>
   <g id="PolyCollection_4">
    <defs>
     <path id="m0da29628c8" d="M 236.734846 -44.910253 
L 236.734846 -44.84 
L 237.550638 -44.84 
L 238.36643 -44.84 
L 239.182222 -44.84 
L 239.998013 -44.84 
L 240.813805 -44.84 
L 241.629597 -44.84 
L 242.445389 -44.84 
L 243.261181 -44.84 
L 244.076973 -44.84 
L 244.892764 -44.84 
L 245.708556 -44.84 
L 246.524348 -44.84 
L 247.34014 -44.84 
L 248.155932 -44.84 
L 248.971724 -44.84 
L 249.787516 -44.84 
L 250.603307 -44.84 
L 251.419099 -44.84 
L 252.234891 -44.84 
L 253.050683 -44.84 
L 253.866475 -44.84 
L 254.682267 -44.84 
L 255.498059 -44.84 
L 256.31385 -44.84 
L 257.129642 -44.84 
L 257.945434 -44.84 
L 258.761226 -44.84 
L 259.577018 -44.84 
L 260.39281 -44.84 
L 261.208601 -44.84 
L 262.024393 -44.84 
L 262.840185 -44.84 
L 263.655977 -44.84 
L 264.471769 -44.84 
L 265.287561 -44.84 
L 266.103353 -44.84 
L 266.919144 -44.84 
L 267.734936 -44.84 
L 268.550728 -44.84 
L 269.36652 -44.84 
L 270.182312 -44.84 
L 270.998104 -44.84 
L 271.813896 -44.84 
L 272.629687 -44.84 
L 273.445479 -44.84 
L 274.261271 -44.84 
L 275.077063 -44.84 
L 275.892855 -44.84 
L 276.708647 -44.84 
L 277.524439 -44.84 
L 278.34023 -44.84 
L 279.156022 -44.84 
L 279.971814 -44.84 
L 280.787606 -44.84 
L 281.603398 -44.84 
L 282.41919 -44.84 
L 283.234981 -44.84 
L 284.050773 -44.84 
L 284.866565 -44.84 
L 285.682357 -44.84 
L 286.498149 -44.84 
L 287.313941 -44.84 
L 288.129733 -44.84 
L 288.945524 -44.84 
L 289.761316 -44.84 
L 290.577108 -44.84 
L 291.3929 -44.84 
L 292.208692 -44.84 
L 293.024484 -44.84 
L 293.840276 -44.84 
L 294.656067 -44.84 
L 295.471859 -44.84 
L 296.287651 -44.84 
L 297.103443 -44.84 
L 297.919235 -44.84 
L 298.735027 -44.84 
L 299.550818 -44.84 
L 300.36661 -44.84 
L 301.182402 -44.84 
L 301.998194 -44.84 
L 302.813986 -44.84 
L 303.629778 -44.84 
L 304.44557 -44.84 
L 305.261361 -44.84 
L 306.077153 -44.84 
L 306.892945 -44.84 
L 307.708737 -44.84 
L 308.524529 -44.84 
L 309.340321 -44.84 
L 310.156113 -44.84 
L 310.971904 -44.84 
L 311.787696 -44.84 
L 312.603488 -44.84 
L 313.41928 -44.84 
L 314.235072 -44.84 
L 315.050864 -44.84 
L 315.866655 -44.84 
L 316.682447 -44.84 
L 317.498239 -44.84 
L 318.314031 -44.84 
L 319.129823 -44.84 
L 319.945615 -44.84 
L 320.761407 -44.84 
L 321.577198 -44.84 
L 322.39299 -44.84 
L 323.208782 -44.84 
L 324.024574 -44.84 
L 324.840366 -44.84 
L 325.656158 -44.84 
L 326.47195 -44.84 
L 327.287741 -44.84 
L 328.103533 -44.84 
L 328.919325 -44.84 
L 329.735117 -44.84 
L 330.550909 -44.84 
L 331.366701 -44.84 
L 332.182493 -44.84 
L 332.998284 -44.84 
L 333.814076 -44.84 
L 334.629868 -44.84 
L 335.44566 -44.84 
L 336.261452 -44.84 
L 337.077244 -44.84 
L 337.893035 -44.84 
L 338.708827 -44.84 
L 339.524619 -44.84 
L 340.340411 -44.84 
L 341.156203 -44.84 
L 341.971995 -44.84 
L 342.787787 -44.84 
L 343.603578 -44.84 
L 344.41937 -44.84 
L 345.235162 -44.84 
L 346.050954 -44.84 
L 346.866746 -44.84 
L 347.682538 -44.84 
L 348.49833 -44.84 
L 349.314121 -44.84 
L 350.129913 -44.84 
L 350.945705 -44.84 
L 351.761497 -44.84 
L 352.577289 -44.84 
L 353.393081 -44.84 
L 354.208872 -44.84 
L 355.024664 -44.84 
L 355.840456 -44.84 
L 356.656248 -44.84 
L 357.47204 -44.84 
L 358.287832 -44.84 
L 359.103624 -44.84 
L 359.919415 -44.84 
L 360.735207 -44.84 
L 361.550999 -44.84 
L 362.366791 -44.84 
L 363.182583 -44.84 
L 363.998375 -44.84 
L 364.814167 -44.84 
L 365.629958 -44.84 
L 366.44575 -44.84 
L 367.261542 -44.84 
L 368.077334 -44.84 
L 368.893126 -44.84 
L 369.708918 -44.84 
L 370.524709 -44.84 
L 371.340501 -44.84 
L 372.156293 -44.84 
L 372.972085 -44.84 
L 373.787877 -44.84 
L 374.603669 -44.84 
L 375.419461 -44.84 
L 376.235252 -44.84 
L 377.051044 -44.84 
L 377.866836 -44.84 
L 378.682628 -44.84 
L 379.49842 -44.84 
L 380.314212 -44.84 
L 381.130004 -44.84 
L 381.945795 -44.84 
L 382.761587 -44.84 
L 383.577379 -44.84 
L 384.393171 -44.84 
L 385.208963 -44.84 
L 386.024755 -44.84 
L 386.840547 -44.84 
L 387.656338 -44.84 
L 388.47213 -44.84 
L 389.287922 -44.84 
L 390.103714 -44.84 
L 390.919506 -44.84 
L 391.735298 -44.84 
L 392.551089 -44.84 
L 393.366881 -44.84 
L 394.182673 -44.84 
L 394.998465 -44.84 
L 395.814257 -44.84 
L 396.630049 -44.84 
L 397.445841 -44.84 
L 398.261632 -44.84 
L 399.077424 -44.84 
L 399.077424 -45.21554 
L 399.077424 -45.21554 
L 398.261632 -45.358559 
L 397.445841 -45.549906 
L 396.630049 -45.803565 
L 395.814257 -46.136751 
L 394.998465 -46.570397 
L 394.182673 -47.129643 
L 393.366881 -47.844297 
L 392.551089 -48.749239 
L 391.735298 -49.884728 
L 390.919506 -51.296579 
L 390.103714 -53.036156 
L 389.287922 -55.160145 
L 388.47213 -57.730056 
L 387.656338 -60.811429 
L 386.840547 -64.472702 
L 386.024755 -68.783733 
L 385.208963 -73.813977 
L 384.393171 -79.630326 
L 383.577379 -86.294671 
L 382.761587 -93.861218 
L 381.945795 -102.373672 
L 381.130004 -111.862371 
L 380.314212 -122.341494 
L 379.49842 -133.806478 
L 378.682628 -146.231787 
L 377.866836 -159.569149 
L 377.051044 -173.746415 
L 376.235252 -188.66714 
L 375.419461 -204.210965 
L 374.603669 -220.234877 
L 373.787877 -236.57535 
L 372.972085 -253.051348 
L 372.156293 -269.468134 
L 371.340501 -285.621769 
L 370.524709 -301.304161 
L 369.708918 -316.308475 
L 368.893126 -330.434702 
L 368.077334 -343.495162 
L 367.261542 -355.319701 
L 366.44575 -365.760365 
L 365.629958 -374.695347 
L 364.814167 -382.032018 
L 363.998375 -387.70892 
L 363.182583 -391.696641 
L 362.366791 -393.997529 
L 361.550999 -394.644289 
L 360.735207 -393.697547 
L 359.919415 -391.242519 
L 359.103624 -387.384972 
L 358.287832 -382.246685 
L 357.47204 -375.960664 
L 356.656248 -368.666318 
L 355.840456 -360.50486 
L 355.024664 -351.615114 
L 354.208872 -342.129902 
L 353.393081 -332.173147 
L 352.577289 -321.857758 
L 351.761497 -311.284321 
L 350.945705 -300.540587 
L 350.129913 -289.701669 
L 349.314121 -278.830862 
L 348.49833 -267.980949 
L 347.682538 -257.195846 
L 346.866746 -246.512437 
L 346.050954 -235.962463 
L 345.235162 -225.574313 
L 344.41937 -215.374626 
L 343.603578 -205.389607 
L 342.787787 -195.646001 
L 341.971995 -186.171693 
L 341.156203 -176.995935 
L 340.340411 -168.14922 
L 339.524619 -159.662835 
L 338.708827 -151.568165 
L 337.893035 -143.89581 
L 337.077244 -136.674579 
L 336.261452 -129.930456 
L 335.44566 -123.685591 
L 334.629868 -117.95739 
L 333.814076 -112.757761 
L 332.998284 -108.092546 
L 332.182493 -103.961172 
L 331.366701 -100.356538 
L 330.550909 -97.265113 
L 329.735117 -94.667257 
L 328.919325 -92.537704 
L 328.103533 -90.846195 
L 327.287741 -89.558206 
L 326.47195 -88.635732 
L 325.656158 -88.038085 
L 324.840366 -87.722682 
L 324.024574 -87.645786 
L 323.208782 -87.763198 
L 322.39299 -88.030884 
L 321.577198 -88.405559 
L 320.761407 -88.845213 
L 319.945615 -89.309625 
L 319.129823 -89.76085 
L 318.314031 -90.163706 
L 317.498239 -90.486262 
L 316.682447 -90.700314 
L 315.866655 -90.78185 
L 315.050864 -90.711465 
L 314.235072 -90.47471 
L 313.41928 -90.062334 
L 312.603488 -89.470401 
L 311.787696 -88.700243 
L 310.971904 -87.758233 
L 310.156113 -86.655388 
L 309.340321 -85.406784 
L 308.524529 -84.030828 
L 307.708737 -82.548404 
L 306.892945 -80.981947 
L 306.077153 -79.354487 
L 305.261361 -77.68873 
L 304.44557 -76.006207 
L 303.629778 -74.326551 
L 302.813986 -72.66694 
L 301.998194 -71.041711 
L 301.182402 -69.462175 
L 300.36661 -67.936615 
L 299.550818 -66.470463 
L 298.735027 -65.066609 
L 297.919235 -63.725837 
L 297.103443 -62.447318 
L 296.287651 -61.229141 
L 295.471859 -60.068836 
L 294.656067 -58.963854 
L 293.840276 -57.911983 
L 293.024484 -56.911668 
L 292.208692 -55.962242 
L 291.3929 -55.06405 
L 290.577108 -54.21847 
L 289.761316 -53.427858 
L 288.945524 -52.695402 
L 288.129733 -52.024929 
L 287.313941 -51.42067 
L 286.498149 -50.886992 
L 285.682357 -50.428134 
L 284.866565 -50.047936 
L 284.050773 -49.749594 
L 283.234981 -49.535434 
L 282.41919 -49.406717 
L 281.603398 -49.36348 
L 280.787606 -49.404415 
L 279.971814 -49.526785 
L 279.156022 -49.726382 
L 278.34023 -49.997525 
L 277.524439 -50.333102 
L 276.708647 -50.724651 
L 275.892855 -51.162482 
L 275.077063 -51.635842 
L 274.261271 -52.13312 
L 273.445479 -52.642077 
L 272.629687 -53.150122 
L 271.813896 -53.644595 
L 270.998104 -54.113078 
L 270.182312 -54.5437 
L 269.36652 -54.925451 
L 268.550728 -55.248464 
L 267.734936 -55.504284 
L 266.919144 -55.686091 
L 266.103353 -55.788878 
L 265.287561 -55.809575 
L 264.471769 -55.747109 
L 263.655977 -55.602408 
L 262.840185 -55.378328 
L 262.024393 -55.079535 
L 261.208601 -54.712308 
L 260.39281 -54.284316 
L 259.577018 -53.804337 
L 258.761226 -53.281957 
L 257.945434 -52.727252 
L 257.129642 -52.150468 
L 256.31385 -51.561709 
L 255.498059 -50.970651 
L 254.682267 -50.386288 
L 253.866475 -49.81672 
L 253.050683 -49.268989 
L 252.234891 -48.748966 
L 251.419099 -48.261294 
L 250.603307 -47.809379 
L 249.787516 -47.395426 
L 248.971724 -47.020516 
L 248.155932 -46.68472 
L 247.34014 -46.387226 
L 246.524348 -46.126492 
L 245.708556 -45.900399 
L 244.892764 -45.706402 
L 244.076973 -45.541679 
L 243.261181 -45.403257 
L 242.445389 -45.288132 
L 241.629597 -45.193362 
L 240.813805 -45.116142 
L 239.998013 -45.053859 
L 239.182222 -45.004132 
L 238.36643 -44.964828 
L 237.550638 -44.934074 
L 236.734846 -44.910253 
z
" style="stroke: #92c5de; stroke-width: 2.5"/>
    </defs>
    <g clip-path="url(#p0ed19ec07d)">
     <use xlink:href="#m0da29628c8" x="0" y="432" style="fill: #92c5de; fill-opacity: 0.5; stroke: #92c5de; stroke-width: 2.5"/>
    </g>
   </g>
   <g id="PolyCollection_5">
    <defs>
     <path id="md6cc67b3f9" d="M 72.150905 -44.873399 
L 72.150905 -44.84 
L 73.81672 -44.84 
L 75.482535 -44.84 
L 77.14835 -44.84 
L 78.814165 -44.84 
L 80.47998 -44.84 
L 82.145795 -44.84 
L 83.81161 -44.84 
L 85.477426 -44.84 
L 87.143241 -44.84 
L 88.809056 -44.84 
L 90.474871 -44.84 
L 92.140686 -44.84 
L 93.806501 -44.84 
L 95.472316 -44.84 
L 97.138131 -44.84 
L 98.803946 -44.84 
L 100.469762 -44.84 
L 102.135577 -44.84 
L 103.801392 -44.84 
L 105.467207 -44.84 
L 107.133022 -44.84 
L 108.798837 -44.84 
L 110.464652 -44.84 
L 112.130467 -44.84 
L 113.796282 -44.84 
L 115.462097 -44.84 
L 117.127913 -44.84 
L 118.793728 -44.84 
L 120.459543 -44.84 
L 122.125358 -44.84 
L 123.791173 -44.84 
L 125.456988 -44.84 
L 127.122803 -44.84 
L 128.788618 -44.84 
L 130.454433 -44.84 
L 132.120249 -44.84 
L 133.786064 -44.84 
L 135.451879 -44.84 
L 137.117694 -44.84 
L 138.783509 -44.84 
L 140.449324 -44.84 
L 142.115139 -44.84 
L 143.780954 -44.84 
L 145.446769 -44.84 
L 147.112585 -44.84 
L 148.7784 -44.84 
L 150.444215 -44.84 
L 152.11003 -44.84 
L 153.775845 -44.84 
L 155.44166 -44.84 
L 157.107475 -44.84 
L 158.77329 -44.84 
L 160.439105 -44.84 
L 162.104921 -44.84 
L 163.770736 -44.84 
L 165.436551 -44.84 
L 167.102366 -44.84 
L 168.768181 -44.84 
L 170.433996 -44.84 
L 172.099811 -44.84 
L 173.765626 -44.84 
L 175.431441 -44.84 
L 177.097257 -44.84 
L 178.763072 -44.84 
L 180.428887 -44.84 
L 182.094702 -44.84 
L 183.760517 -44.84 
L 185.426332 -44.84 
L 187.092147 -44.84 
L 188.757962 -44.84 
L 190.423777 -44.84 
L 192.089592 -44.84 
L 193.755408 -44.84 
L 195.421223 -44.84 
L 197.087038 -44.84 
L 198.752853 -44.84 
L 200.418668 -44.84 
L 202.084483 -44.84 
L 203.750298 -44.84 
L 205.416113 -44.84 
L 207.081928 -44.84 
L 208.747744 -44.84 
L 210.413559 -44.84 
L 212.079374 -44.84 
L 213.745189 -44.84 
L 215.411004 -44.84 
L 217.076819 -44.84 
L 218.742634 -44.84 
L 220.408449 -44.84 
L 222.074264 -44.84 
L 223.74008 -44.84 
L 225.405895 -44.84 
L 227.07171 -44.84 
L 228.737525 -44.84 
L 230.40334 -44.84 
L 232.069155 -44.84 
L 233.73497 -44.84 
L 235.400785 -44.84 
L 237.0666 -44.84 
L 238.732416 -44.84 
L 240.398231 -44.84 
L 242.064046 -44.84 
L 243.729861 -44.84 
L 245.395676 -44.84 
L 247.061491 -44.84 
L 248.727306 -44.84 
L 250.393121 -44.84 
L 252.058936 -44.84 
L 253.724752 -44.84 
L 255.390567 -44.84 
L 257.056382 -44.84 
L 258.722197 -44.84 
L 260.388012 -44.84 
L 262.053827 -44.84 
L 263.719642 -44.84 
L 265.385457 -44.84 
L 267.051272 -44.84 
L 268.717087 -44.84 
L 270.382903 -44.84 
L 272.048718 -44.84 
L 273.714533 -44.84 
L 275.380348 -44.84 
L 277.046163 -44.84 
L 278.711978 -44.84 
L 280.377793 -44.84 
L 282.043608 -44.84 
L 283.709423 -44.84 
L 285.375239 -44.84 
L 287.041054 -44.84 
L 288.706869 -44.84 
L 290.372684 -44.84 
L 292.038499 -44.84 
L 293.704314 -44.84 
L 295.370129 -44.84 
L 297.035944 -44.84 
L 298.701759 -44.84 
L 300.367575 -44.84 
L 302.03339 -44.84 
L 303.699205 -44.84 
L 305.36502 -44.84 
L 307.030835 -44.84 
L 308.69665 -44.84 
L 310.362465 -44.84 
L 312.02828 -44.84 
L 313.694095 -44.84 
L 315.359911 -44.84 
L 317.025726 -44.84 
L 318.691541 -44.84 
L 320.357356 -44.84 
L 322.023171 -44.84 
L 323.688986 -44.84 
L 325.354801 -44.84 
L 327.020616 -44.84 
L 328.686431 -44.84 
L 330.352247 -44.84 
L 332.018062 -44.84 
L 333.683877 -44.84 
L 335.349692 -44.84 
L 337.015507 -44.84 
L 338.681322 -44.84 
L 340.347137 -44.84 
L 342.012952 -44.84 
L 343.678767 -44.84 
L 345.344583 -44.84 
L 347.010398 -44.84 
L 348.676213 -44.84 
L 350.342028 -44.84 
L 352.007843 -44.84 
L 353.673658 -44.84 
L 355.339473 -44.84 
L 357.005288 -44.84 
L 358.671103 -44.84 
L 360.336918 -44.84 
L 362.002734 -44.84 
L 363.668549 -44.84 
L 365.334364 -44.84 
L 367.000179 -44.84 
L 368.665994 -44.84 
L 370.331809 -44.84 
L 371.997624 -44.84 
L 373.663439 -44.84 
L 375.329254 -44.84 
L 376.99507 -44.84 
L 378.660885 -44.84 
L 380.3267 -44.84 
L 381.992515 -44.84 
L 383.65833 -44.84 
L 385.324145 -44.84 
L 386.98996 -44.84 
L 388.655775 -44.84 
L 390.32159 -44.84 
L 391.987406 -44.84 
L 393.653221 -44.84 
L 395.319036 -44.84 
L 396.984851 -44.84 
L 398.650666 -44.84 
L 400.316481 -44.84 
L 401.982296 -44.84 
L 403.648111 -44.84 
L 403.648111 -44.95249 
L 403.648111 -44.95249 
L 401.982296 -44.996835 
L 400.316481 -45.056749 
L 398.650666 -45.136939 
L 396.984851 -45.243267 
L 395.319036 -45.382933 
L 393.653221 -45.564681 
L 391.987406 -45.798986 
L 390.32159 -46.098232 
L 388.655775 -46.47686 
L 386.98996 -46.951473 
L 385.324145 -47.540872 
L 383.65833 -48.266016 
L 381.992515 -49.149881 
L 380.3267 -50.217201 
L 378.660885 -51.494083 
L 376.99507 -53.00748 
L 375.329254 -54.784526 
L 373.663439 -56.851737 
L 371.997624 -59.234085 
L 370.331809 -61.953982 
L 368.665994 -65.030194 
L 367.000179 -68.476728 
L 365.334364 -72.301752 
L 363.668549 -76.506584 
L 362.002734 -81.084822 
L 360.336918 -86.021653 
L 358.671103 -91.293414 
L 357.005288 -96.867422 
L 355.339473 -102.702125 
L 353.673658 -108.747586 
L 352.007843 -114.946301 
L 350.342028 -121.234336 
L 348.676213 -127.542762 
L 347.010398 -133.799329 
L 345.344583 -139.930335 
L 343.678767 -145.862603 
L 342.012952 -151.525503 
L 340.347137 -156.852924 
L 338.681322 -161.785126 
L 337.015507 -166.270389 
L 335.349692 -170.26639 
L 333.683877 -173.741254 
L 332.018062 -176.674233 
L 330.352247 -179.05599 
L 328.686431 -180.888475 
L 327.020616 -182.184415 
L 325.354801 -182.966423 
L 323.688986 -183.265799 
L 322.023171 -183.121051 
L 320.357356 -182.576233 
L 318.691541 -181.679152 
L 317.025726 -180.479541 
L 315.359911 -179.027266 
L 313.694095 -177.370648 
L 312.02828 -175.55495 
L 310.362465 -173.621107 
L 308.69665 -171.604709 
L 307.030835 -169.535283 
L 305.36502 -167.435868 
L 303.699205 -165.322886 
L 302.03339 -163.206292 
L 300.367575 -161.089968 
L 298.701759 -158.972339 
L 297.035944 -156.847162 
L 295.370129 -154.704457 
L 293.704314 -152.531538 
L 292.038499 -150.314099 
L 290.372684 -148.037327 
L 288.706869 -145.686997 
L 287.041054 -143.250518 
L 285.375239 -140.717887 
L 283.709423 -138.082529 
L 282.043608 -135.341967 
L 280.377793 -132.498311 
L 278.711978 -129.558521 
L 277.046163 -126.534435 
L 275.380348 -123.44254 
L 273.714533 -120.303488 
L 272.048718 -117.141379 
L 270.382903 -113.982833 
L 268.717087 -110.855888 
L 267.051272 -107.788804 
L 265.385457 -104.808817 
L 263.719642 -101.940924 
L 262.053827 -99.206777 
L 260.388012 -96.623747 
L 258.722197 -94.204215 
L 257.056382 -91.955128 
L 255.390567 -89.877861 
L 253.724752 -87.968351 
L 252.058936 -86.217531 
L 250.393121 -84.611985 
L 248.727306 -83.134807 
L 247.061491 -81.766585 
L 245.395676 -80.486457 
L 243.729861 -79.273158 
L 242.064046 -78.106028 
L 240.398231 -76.965897 
L 238.732416 -75.835846 
L 237.0666 -74.701783 
L 235.400785 -73.552856 
L 233.73497 -72.38168 
L 232.069155 -71.184403 
L 230.40334 -69.96062 
L 228.737525 -68.713161 
L 227.07171 -67.447776 
L 225.405895 -66.172738 
L 223.74008 -64.89839 
L 222.074264 -63.63665 
L 220.408449 -62.400491 
L 218.742634 -61.203407 
L 217.076819 -60.058888 
L 215.411004 -58.979898 
L 213.745189 -57.978383 
L 212.079374 -57.064805 
L 210.413559 -56.247735 
L 208.747744 -55.533492 
L 207.081928 -54.92587 
L 205.416113 -54.425939 
L 203.750298 -54.031951 
L 202.084483 -53.739343 
L 200.418668 -53.540855 
L 198.752853 -53.426751 
L 197.087038 -53.385148 
L 195.421223 -53.402425 
L 193.755408 -53.463716 
L 192.089592 -53.553453 
L 190.423777 -53.655939 
L 188.757962 -53.755918 
L 187.092147 -53.839137 
L 185.426332 -53.892835 
L 183.760517 -53.906184 
L 182.094702 -53.870619 
L 180.428887 -53.780074 
L 178.763072 -53.631098 
L 177.097257 -53.42286 
L 175.431441 -53.15704 
L 173.765626 -52.837624 
L 172.099811 -52.470613 
L 170.433996 -52.063665 
L 168.768181 -51.625697 
L 167.102366 -51.166461 
L 165.436551 -50.696125 
L 163.770736 -50.224869 
L 162.104921 -49.762514 
L 160.439105 -49.318204 
L 158.77329 -48.900138 
L 157.107475 -48.515364 
L 155.44166 -48.169632 
L 153.775845 -47.867304 
L 152.11003 -47.611314 
L 150.444215 -47.403172 
L 148.7784 -47.243014 
L 147.112585 -47.129673 
L 145.446769 -47.060783 
L 143.780954 -47.032902 
L 142.115139 -47.041646 
L 140.449324 -47.081853 
L 138.783509 -47.147739 
L 137.117694 -47.233083 
L 135.451879 -47.331412 
L 133.786064 -47.436189 
L 132.120249 -47.541011 
L 130.454433 -47.639801 
L 128.788618 -47.726986 
L 127.122803 -47.797668 
L 125.456988 -47.84776 
L 123.791173 -47.874105 
L 122.125358 -47.874551 
L 120.459543 -47.847981 
L 118.793728 -47.794314 
L 117.127913 -47.714449 
L 115.462097 -47.610178 
L 113.796282 -47.484061 
L 112.130467 -47.339274 
L 110.464652 -47.179437 
L 108.798837 -47.008439 
L 107.133022 -46.830256 
L 105.467207 -46.64879 
L 103.801392 -46.467713 
L 102.135577 -46.290353 
L 100.469762 -46.119595 
L 98.803946 -45.957819 
L 97.138131 -45.806872 
L 95.472316 -45.668063 
L 93.806501 -45.54219 
L 92.140686 -45.429578 
L 90.474871 -45.330143 
L 88.809056 -45.243459 
L 87.143241 -45.168829 
L 85.477426 -45.10536 
L 83.81161 -45.052028 
L 82.145795 -45.007744 
L 80.47998 -44.9714 
L 78.814165 -44.941914 
L 77.14835 -44.918266 
L 75.482535 -44.899511 
L 73.81672 -44.884805 
L 72.150905 -44.873399 
z
" style="stroke: #f4a582; stroke-width: 2.5"/>
    </defs>
    <g clip-path="url(#p0ed19ec07d)">
     <use xlink:href="#md6cc67b3f9" x="0" y="432" style="fill: #f4a582; fill-opacity: 0.5; stroke: #f4a582; stroke-width: 2.5"/>
    </g>
   </g>
   <g id="matplotlib.axis_1">
    <g id="xtick_1">
     <g id="line2d_1">
      <defs>
       <path id="mffe8f1e14d" d="M 0 0 
L 0 3.5 
" style="stroke: #000000; stroke-width: 0.8"/>
      </defs>
      <g>
       <use xlink:href="#mffe8f1e14d" x="66.908687" y="387.16" style="stroke: #000000; stroke-width: 0.8"/>
      </g>
     </g>
     <g id="text_1">
      <!-- 3.90 -->
      <g transform="translate(55.775875 401.758438) scale(0.1 -0.1)">
       <defs>
        <path id="DejaVuSans-33" d="M 2597 2516 
Q 3050 2419 3304 2112 
Q 3559 1806 3559 1356 
Q 3559 666 3084 287 
Q 2609 -91 1734 -91 
Q 1441 -91 1130 -33 
Q 819 25 488 141 
L 488 750 
Q 750 597 1062 519 
Q 1375 441 1716 441 
Q 2309 441 2620 675 
Q 2931 909 2931 1356 
Q 2931 1769 2642 2001 
Q 2353 2234 1838 2234 
L 1294 2234 
L 1294 2753 
L 1863 2753 
Q 2328 2753 2575 2939 
Q 2822 3125 2822 3475 
Q 2822 3834 2567 4026 
Q 2313 4219 1838 4219 
Q 1578 4219 1281 4162 
Q 984 4106 628 3988 
L 628 4550 
Q 988 4650 1302 4700 
Q 1616 4750 1894 4750 
Q 2613 4750 3031 4423 
Q 3450 4097 3450 3541 
Q 3450 3153 3228 2886 
Q 3006 2619 2597 2516 
z
" transform="scale(0.015625)"/>
        <path id="DejaVuSans-2e" d="M 684 794 
L 1344 794 
L 1344 0 
L 684 0 
L 684 794 
z
" transform="scale(0.015625)"/>
        <path id="DejaVuSans-39" d="M 703 97 
L 703 672 
Q 941 559 1184 500 
Q 1428 441 1663 441 
Q 2288 441 2617 861 
Q 2947 1281 2994 2138 
Q 2813 1869 2534 1725 
Q 2256 1581 1919 1581 
Q 1219 1581 811 2004 
Q 403 2428 403 3163 
Q 403 3881 828 4315 
Q 1253 4750 1959 4750 
Q 2769 4750 3195 4129 
Q 3622 3509 3622 2328 
Q 3622 1225 3098 567 
Q 2575 -91 1691 -91 
Q 1453 -91 1209 -44 
Q 966 3 703 97 
z
M 1959 2075 
Q 2384 2075 2632 2365 
Q 2881 2656 2881 3163 
Q 2881 3666 2632 3958 
Q 2384 4250 1959 4250 
Q 1534 4250 1286 3958 
Q 1038 3666 1038 3163 
Q 1038 2656 1286 2365 
Q 1534 2075 1959 2075 
z
" transform="scale(0.015625)"/>
        <path id="DejaVuSans-30" d="M 2034 4250 
Q 1547 4250 1301 3770 
Q 1056 3291 1056 2328 
Q 1056 1369 1301 889 
Q 1547 409 2034 409 
Q 2525 409 2770 889 
Q 3016 1369 3016 2328 
Q 3016 3291 2770 3770 
Q 2525 4250 2034 4250 
z
M 2034 4750 
Q 2819 4750 3233 4129 
Q 3647 3509 3647 2328 
Q 3647 1150 3233 529 
Q 2819 -91 2034 -91 
Q 1250 -91 836 529 
Q 422 1150 422 2328 
Q 422 3509 836 4129 
Q 1250 4750 2034 4750 
z
" transform="scale(0.015625)"/>
       </defs>
       <use xlink:href="#DejaVuSans-33"/>
       <use xlink:href="#DejaVuSans-2e" x="63.623047"/>
       <use xlink:href="#DejaVuSans-39" x="95.410156"/>
       <use xlink:href="#DejaVuSans-30" x="159.033203"/>
      </g>
     </g>
    </g>
    <g id="xtick_2">
     <g id="line2d_2">
      <g>
       <use xlink:href="#mffe8f1e14d" x="115.775045" y="387.16" style="stroke: #000000; stroke-width: 0.8"/>
      </g>
     </g>
     <g id="text_2">
      <!-- 3.95 -->
      <g transform="translate(104.642232 401.758438) scale(0.1 -0.1)">
       <defs>
        <path id="DejaVuSans-35" d="M 691 4666 
L 3169 4666 
L 3169 4134 
L 1269 4134 
L 1269 2991 
Q 1406 3038 1543 3061 
Q 1681 3084 1819 3084 
Q 2600 3084 3056 2656 
Q 3513 2228 3513 1497 
Q 3513 744 3044 326 
Q 2575 -91 1722 -91 
Q 1428 -91 1123 -41 
Q 819 9 494 109 
L 494 744 
Q 775 591 1075 516 
Q 1375 441 1709 441 
Q 2250 441 2565 725 
Q 2881 1009 2881 1497 
Q 2881 1984 2565 2268 
Q 2250 2553 1709 2553 
Q 1456 2553 1204 2497 
Q 953 2441 691 2322 
L 691 4666 
z
" transform="scale(0.015625)"/>
       </defs>
       <use xlink:href="#DejaVuSans-33"/>
       <use xlink:href="#DejaVuSans-2e" x="63.623047"/>
       <use xlink:href="#DejaVuSans-39" x="95.410156"/>
       <use xlink:href="#DejaVuSans-35" x="159.033203"/>
      </g>
     </g>
    </g>
    <g id="xtick_3">
     <g id="line2d_3">
      <g>
       <use xlink:href="#mffe8f1e14d" x="164.641402" y="387.16" style="stroke: #000000; stroke-width: 0.8"/>
      </g>
     </g>
     <g id="text_3">
      <!-- 4.00 -->
      <g transform="translate(153.508589 401.758438) scale(0.1 -0.1)">
       <defs>
        <path id="DejaVuSans-34" d="M 2419 4116 
L 825 1625 
L 2419 1625 
L 2419 4116 
z
M 2253 4666 
L 3047 4666 
L 3047 1625 
L 3713 1625 
L 3713 1100 
L 3047 1100 
L 3047 0 
L 2419 0 
L 2419 1100 
L 313 1100 
L 313 1709 
L 2253 4666 
z
" transform="scale(0.015625)"/>
       </defs>
       <use xlink:href="#DejaVuSans-34"/>
       <use xlink:href="#DejaVuSans-2e" x="63.623047"/>
       <use xlink:href="#DejaVuSans-30" x="95.410156"/>
       <use xlink:href="#DejaVuSans-30" x="159.033203"/>
      </g>
     </g>
    </g>
    <g id="xtick_4">
     <g id="line2d_4">
      <g>
       <use xlink:href="#mffe8f1e14d" x="213.507759" y="387.16" style="stroke: #000000; stroke-width: 0.8"/>
      </g>
     </g>
     <g id="text_4">
      <!-- 4.05 -->
      <g transform="translate(202.374947 401.758438) scale(0.1 -0.1)">
       <use xlink:href="#DejaVuSans-34"/>
       <use xlink:href="#DejaVuSans-2e" x="63.623047"/>
       <use xlink:href="#DejaVuSans-30" x="95.410156"/>
       <use xlink:href="#DejaVuSans-35" x="159.033203"/>
      </g>
     </g>
    </g>
    <g id="xtick_5">
     <g id="line2d_5">
      <g>
       <use xlink:href="#mffe8f1e14d" x="262.374116" y="387.16" style="stroke: #000000; stroke-width: 0.8"/>
      </g>
     </g>
     <g id="text_5">
      <!-- 4.10 -->
      <g transform="translate(251.241304 401.758438) scale(0.1 -0.1)">
       <defs>
        <path id="DejaVuSans-31" d="M 794 531 
L 1825 531 
L 1825 4091 
L 703 3866 
L 703 4441 
L 1819 4666 
L 2450 4666 
L 2450 531 
L 3481 531 
L 3481 0 
L 794 0 
L 794 531 
z
" transform="scale(0.015625)"/>
       </defs>
       <use xlink:href="#DejaVuSans-34"/>
       <use xlink:href="#DejaVuSans-2e" x="63.623047"/>
       <use xlink:href="#DejaVuSans-31" x="95.410156"/>
       <use xlink:href="#DejaVuSans-30" x="159.033203"/>
      </g>
     </g>
    </g>
    <g id="xtick_6">
     <g id="line2d_6">
      <g>
       <use xlink:href="#mffe8f1e14d" x="311.240473" y="387.16" style="stroke: #000000; stroke-width: 0.8"/>
      </g>
     </g>
     <g id="text_6">
      <!-- 4.15 -->
      <g transform="translate(300.107661 401.758438) scale(0.1 -0.1)">
       <use xlink:href="#DejaVuSans-34"/>
       <use xlink:href="#DejaVuSans-2e" x="63.623047"/>
       <use xlink:href="#DejaVuSans-31" x="95.410156"/>
       <use xlink:href="#DejaVuSans-35" x="159.033203"/>
      </g>
     </g>
    </g>
    <g id="xtick_7">
     <g id="line2d_7">
      <g>
       <use xlink:href="#mffe8f1e14d" x="360.106831" y="387.16" style="stroke: #000000; stroke-width: 0.8"/>
      </g>
     </g>
     <g id="text_7">
      <!-- 4.20 -->
      <g transform="translate(348.974018 401.758438) scale(0.1 -0.1)">
       <defs>
        <path id="DejaVuSans-32" d="M 1228 531 
L 3431 531 
L 3431 0 
L 469 0 
L 469 531 
Q 828 903 1448 1529 
Q 2069 2156 2228 2338 
Q 2531 2678 2651 2914 
Q 2772 3150 2772 3378 
Q 2772 3750 2511 3984 
Q 2250 4219 1831 4219 
Q 1534 4219 1204 4116 
Q 875 4013 500 3803 
L 500 4441 
Q 881 4594 1212 4672 
Q 1544 4750 1819 4750 
Q 2544 4750 2975 4387 
Q 3406 4025 3406 3419 
Q 3406 3131 3298 2873 
Q 3191 2616 2906 2266 
Q 2828 2175 2409 1742 
Q 1991 1309 1228 531 
z
" transform="scale(0.015625)"/>
       </defs>
       <use xlink:href="#DejaVuSans-34"/>
       <use xlink:href="#DejaVuSans-2e" x="63.623047"/>
       <use xlink:href="#DejaVuSans-32" x="95.410156"/>
       <use xlink:href="#DejaVuSans-30" x="159.033203"/>
      </g>
     </g>
    </g>
    <g id="xtick_8">
     <g id="line2d_8">
      <g>
       <use xlink:href="#mffe8f1e14d" x="408.973188" y="387.16" style="stroke: #000000; stroke-width: 0.8"/>
      </g>
     </g>
     <g id="text_8">
      <!-- 4.25 -->
      <g transform="translate(397.840375 401.758438) scale(0.1 -0.1)">
       <use xlink:href="#DejaVuSans-34"/>
       <use xlink:href="#DejaVuSans-2e" x="63.623047"/>
       <use xlink:href="#DejaVuSans-32" x="95.410156"/>
       <use xlink:href="#DejaVuSans-35" x="159.033203"/>
      </g>
     </g>
    </g>
    <g id="text_9">
     <!-- Predicted Fluorescence -->
     <g transform="translate(164.893113 416.95625) scale(0.12 -0.12)">
      <defs>
       <path id="DejaVuSans-50" d="M 1259 4147 
L 1259 2394 
L 2053 2394 
Q 2494 2394 2734 2622 
Q 2975 2850 2975 3272 
Q 2975 3691 2734 3919 
Q 2494 4147 2053 4147 
L 1259 4147 
z
M 628 4666 
L 2053 4666 
Q 2838 4666 3239 4311 
Q 3641 3956 3641 3272 
Q 3641 2581 3239 2228 
Q 2838 1875 2053 1875 
L 1259 1875 
L 1259 0 
L 628 0 
L 628 4666 
z
" transform="scale(0.015625)"/>
       <path id="DejaVuSans-72" d="M 2631 2963 
Q 2534 3019 2420 3045 
Q 2306 3072 2169 3072 
Q 1681 3072 1420 2755 
Q 1159 2438 1159 1844 
L 1159 0 
L 581 0 
L 581 3500 
L 1159 3500 
L 1159 2956 
Q 1341 3275 1631 3429 
Q 1922 3584 2338 3584 
Q 2397 3584 2469 3576 
Q 2541 3569 2628 3553 
L 2631 2963 
z
" transform="scale(0.015625)"/>
       <path id="DejaVuSans-65" d="M 3597 1894 
L 3597 1613 
L 953 1613 
Q 991 1019 1311 708 
Q 1631 397 2203 397 
Q 2534 397 2845 478 
Q 3156 559 3463 722 
L 3463 178 
Q 3153 47 2828 -22 
Q 2503 -91 2169 -91 
Q 1331 -91 842 396 
Q 353 884 353 1716 
Q 353 2575 817 3079 
Q 1281 3584 2069 3584 
Q 2775 3584 3186 3129 
Q 3597 2675 3597 1894 
z
M 3022 2063 
Q 3016 2534 2758 2815 
Q 2500 3097 2075 3097 
Q 1594 3097 1305 2825 
Q 1016 2553 972 2059 
L 3022 2063 
z
" transform="scale(0.015625)"/>
       <path id="DejaVuSans-64" d="M 2906 2969 
L 2906 4863 
L 3481 4863 
L 3481 0 
L 2906 0 
L 2906 525 
Q 2725 213 2448 61 
Q 2172 -91 1784 -91 
Q 1150 -91 751 415 
Q 353 922 353 1747 
Q 353 2572 751 3078 
Q 1150 3584 1784 3584 
Q 2172 3584 2448 3432 
Q 2725 3281 2906 2969 
z
M 947 1747 
Q 947 1113 1208 752 
Q 1469 391 1925 391 
Q 2381 391 2643 752 
Q 2906 1113 2906 1747 
Q 2906 2381 2643 2742 
Q 2381 3103 1925 3103 
Q 1469 3103 1208 2742 
Q 947 2381 947 1747 
z
" transform="scale(0.015625)"/>
       <path id="DejaVuSans-69" d="M 603 3500 
L 1178 3500 
L 1178 0 
L 603 0 
L 603 3500 
z
M 603 4863 
L 1178 4863 
L 1178 4134 
L 603 4134 
L 603 4863 
z
" transform="scale(0.015625)"/>
       <path id="DejaVuSans-63" d="M 3122 3366 
L 3122 2828 
Q 2878 2963 2633 3030 
Q 2388 3097 2138 3097 
Q 1578 3097 1268 2742 
Q 959 2388 959 1747 
Q 959 1106 1268 751 
Q 1578 397 2138 397 
Q 2388 397 2633 464 
Q 2878 531 3122 666 
L 3122 134 
Q 2881 22 2623 -34 
Q 2366 -91 2075 -91 
Q 1284 -91 818 406 
Q 353 903 353 1747 
Q 353 2603 823 3093 
Q 1294 3584 2113 3584 
Q 2378 3584 2631 3529 
Q 2884 3475 3122 3366 
z
" transform="scale(0.015625)"/>
       <path id="DejaVuSans-74" d="M 1172 4494 
L 1172 3500 
L 2356 3500 
L 2356 3053 
L 1172 3053 
L 1172 1153 
Q 1172 725 1289 603 
Q 1406 481 1766 481 
L 2356 481 
L 2356 0 
L 1766 0 
Q 1100 0 847 248 
Q 594 497 594 1153 
L 594 3053 
L 172 3053 
L 172 3500 
L 594 3500 
L 594 4494 
L 1172 4494 
z
" transform="scale(0.015625)"/>
       <path id="DejaVuSans-20" transform="scale(0.015625)"/>
       <path id="DejaVuSans-46" d="M 628 4666 
L 3309 4666 
L 3309 4134 
L 1259 4134 
L 1259 2759 
L 3109 2759 
L 3109 2228 
L 1259 2228 
L 1259 0 
L 628 0 
L 628 4666 
z
" transform="scale(0.015625)"/>
       <path id="DejaVuSans-6c" d="M 603 4863 
L 1178 4863 
L 1178 0 
L 603 0 
L 603 4863 
z
" transform="scale(0.015625)"/>
       <path id="DejaVuSans-75" d="M 544 1381 
L 544 3500 
L 1119 3500 
L 1119 1403 
Q 1119 906 1312 657 
Q 1506 409 1894 409 
Q 2359 409 2629 706 
Q 2900 1003 2900 1516 
L 2900 3500 
L 3475 3500 
L 3475 0 
L 2900 0 
L 2900 538 
Q 2691 219 2414 64 
Q 2138 -91 1772 -91 
Q 1169 -91 856 284 
Q 544 659 544 1381 
z
M 1991 3584 
L 1991 3584 
z
" transform="scale(0.015625)"/>
       <path id="DejaVuSans-6f" d="M 1959 3097 
Q 1497 3097 1228 2736 
Q 959 2375 959 1747 
Q 959 1119 1226 758 
Q 1494 397 1959 397 
Q 2419 397 2687 759 
Q 2956 1122 2956 1747 
Q 2956 2369 2687 2733 
Q 2419 3097 1959 3097 
z
M 1959 3584 
Q 2709 3584 3137 3096 
Q 3566 2609 3566 1747 
Q 3566 888 3137 398 
Q 2709 -91 1959 -91 
Q 1206 -91 779 398 
Q 353 888 353 1747 
Q 353 2609 779 3096 
Q 1206 3584 1959 3584 
z
" transform="scale(0.015625)"/>
       <path id="DejaVuSans-73" d="M 2834 3397 
L 2834 2853 
Q 2591 2978 2328 3040 
Q 2066 3103 1784 3103 
Q 1356 3103 1142 2972 
Q 928 2841 928 2578 
Q 928 2378 1081 2264 
Q 1234 2150 1697 2047 
L 1894 2003 
Q 2506 1872 2764 1633 
Q 3022 1394 3022 966 
Q 3022 478 2636 193 
Q 2250 -91 1575 -91 
Q 1294 -91 989 -36 
Q 684 19 347 128 
L 347 722 
Q 666 556 975 473 
Q 1284 391 1588 391 
Q 1994 391 2212 530 
Q 2431 669 2431 922 
Q 2431 1156 2273 1281 
Q 2116 1406 1581 1522 
L 1381 1569 
Q 847 1681 609 1914 
Q 372 2147 372 2553 
Q 372 3047 722 3315 
Q 1072 3584 1716 3584 
Q 2034 3584 2315 3537 
Q 2597 3491 2834 3397 
z
" transform="scale(0.015625)"/>
       <path id="DejaVuSans-6e" d="M 3513 2113 
L 3513 0 
L 2938 0 
L 2938 2094 
Q 2938 2591 2744 2837 
Q 2550 3084 2163 3084 
Q 1697 3084 1428 2787 
Q 1159 2491 1159 1978 
L 1159 0 
L 581 0 
L 581 3500 
L 1159 3500 
L 1159 2956 
Q 1366 3272 1645 3428 
Q 1925 3584 2291 3584 
Q 2894 3584 3203 3211 
Q 3513 2838 3513 2113 
z
" transform="scale(0.015625)"/>
      </defs>
      <use xlink:href="#DejaVuSans-50"/>
      <use xlink:href="#DejaVuSans-72" x="58.552734"/>
      <use xlink:href="#DejaVuSans-65" x="97.416016"/>
      <use xlink:href="#DejaVuSans-64" x="158.939453"/>
      <use xlink:href="#DejaVuSans-69" x="222.416016"/>
      <use xlink:href="#DejaVuSans-63" x="250.199219"/>
      <use xlink:href="#DejaVuSans-74" x="305.179688"/>
      <use xlink:href="#DejaVuSans-65" x="344.388672"/>
      <use xlink:href="#DejaVuSans-64" x="405.912109"/>
      <use xlink:href="#DejaVuSans-20" x="469.388672"/>
      <use xlink:href="#DejaVuSans-46" x="501.175781"/>
      <use xlink:href="#DejaVuSans-6c" x="558.695312"/>
      <use xlink:href="#DejaVuSans-75" x="586.478516"/>
      <use xlink:href="#DejaVuSans-6f" x="649.857422"/>
      <use xlink:href="#DejaVuSans-72" x="711.039062"/>
      <use xlink:href="#DejaVuSans-65" x="749.902344"/>
      <use xlink:href="#DejaVuSans-73" x="811.425781"/>
      <use xlink:href="#DejaVuSans-63" x="863.525391"/>
      <use xlink:href="#DejaVuSans-65" x="918.505859"/>
      <use xlink:href="#DejaVuSans-6e" x="980.029297"/>
      <use xlink:href="#DejaVuSans-63" x="1043.408203"/>
      <use xlink:href="#DejaVuSans-65" x="1098.388672"/>
     </g>
    </g>
   </g>
   <g id="matplotlib.axis_2">
    <g id="ytick_1">
     <g id="line2d_9">
      <defs>
       <path id="m463dbf0389" d="M 0 0 
L -3.5 0 
" style="stroke: #000000; stroke-width: 0.8"/>
      </defs>
      <g>
       <use xlink:href="#m463dbf0389" x="48.17" y="387.16" style="stroke: #000000; stroke-width: 0.8"/>
      </g>
     </g>
     <g id="text_10">
      <!-- 0 -->
      <g transform="translate(34.8075 390.959219) scale(0.1 -0.1)">
       <use xlink:href="#DejaVuSans-30"/>
      </g>
     </g>
    </g>
    <g id="ytick_2">
     <g id="line2d_10">
      <g>
       <use xlink:href="#m463dbf0389" x="48.17" y="322.66097" style="stroke: #000000; stroke-width: 0.8"/>
      </g>
     </g>
     <g id="text_11">
      <!-- 5 -->
      <g transform="translate(34.8075 326.460188) scale(0.1 -0.1)">
       <use xlink:href="#DejaVuSans-35"/>
      </g>
     </g>
    </g>
    <g id="ytick_3">
     <g id="line2d_11">
      <g>
       <use xlink:href="#m463dbf0389" x="48.17" y="258.161939" style="stroke: #000000; stroke-width: 0.8"/>
      </g>
     </g>
     <g id="text_12">
      <!-- 10 -->
      <g transform="translate(28.445 261.961158) scale(0.1 -0.1)">
       <use xlink:href="#DejaVuSans-31"/>
       <use xlink:href="#DejaVuSans-30" x="63.623047"/>
      </g>
     </g>
    </g>
    <g id="ytick_4">
     <g id="line2d_12">
      <g>
       <use xlink:href="#m463dbf0389" x="48.17" y="193.662909" style="stroke: #000000; stroke-width: 0.8"/>
      </g>
     </g>
     <g id="text_13">
      <!-- 15 -->
      <g transform="translate(28.445 197.462127) scale(0.1 -0.1)">
       <use xlink:href="#DejaVuSans-31"/>
       <use xlink:href="#DejaVuSans-35" x="63.623047"/>
      </g>
     </g>
    </g>
    <g id="ytick_5">
     <g id="line2d_13">
      <g>
       <use xlink:href="#m463dbf0389" x="48.17" y="129.163878" style="stroke: #000000; stroke-width: 0.8"/>
      </g>
     </g>
     <g id="text_14">
      <!-- 20 -->
      <g transform="translate(28.445 132.963097) scale(0.1 -0.1)">
       <use xlink:href="#DejaVuSans-32"/>
       <use xlink:href="#DejaVuSans-30" x="63.623047"/>
      </g>
     </g>
    </g>
    <g id="ytick_6">
     <g id="line2d_14">
      <g>
       <use xlink:href="#m463dbf0389" x="48.17" y="64.664848" style="stroke: #000000; stroke-width: 0.8"/>
      </g>
     </g>
     <g id="text_15">
      <!-- 25 -->
      <g transform="translate(28.445 68.464067) scale(0.1 -0.1)">
       <use xlink:href="#DejaVuSans-32"/>
       <use xlink:href="#DejaVuSans-35" x="63.623047"/>
      </g>
     </g>
    </g>
    <g id="text_16">
     <!-- Density -->
     <g transform="translate(21.533438 225.592031) rotate(-90) scale(0.14 -0.14)">
      <defs>
       <path id="DejaVuSans-44" d="M 1259 4147 
L 1259 519 
L 2022 519 
Q 2988 519 3436 956 
Q 3884 1394 3884 2338 
Q 3884 3275 3436 3711 
Q 2988 4147 2022 4147 
L 1259 4147 
z
M 628 4666 
L 1925 4666 
Q 3281 4666 3915 4102 
Q 4550 3538 4550 2338 
Q 4550 1131 3912 565 
Q 3275 0 1925 0 
L 628 0 
L 628 4666 
z
" transform="scale(0.015625)"/>
       <path id="DejaVuSans-79" d="M 2059 -325 
Q 1816 -950 1584 -1140 
Q 1353 -1331 966 -1331 
L 506 -1331 
L 506 -850 
L 844 -850 
Q 1081 -850 1212 -737 
Q 1344 -625 1503 -206 
L 1606 56 
L 191 3500 
L 800 3500 
L 1894 763 
L 2988 3500 
L 3597 3500 
L 2059 -325 
z
" transform="scale(0.015625)"/>
      </defs>
      <use xlink:href="#DejaVuSans-44"/>
      <use xlink:href="#DejaVuSans-65" x="77.001953"/>
      <use xlink:href="#DejaVuSans-6e" x="138.525391"/>
      <use xlink:href="#DejaVuSans-73" x="201.904297"/>
      <use xlink:href="#DejaVuSans-69" x="254.003906"/>
      <use xlink:href="#DejaVuSans-74" x="281.787109"/>
      <use xlink:href="#DejaVuSans-79" x="320.996094"/>
     </g>
    </g>
   </g>
   <g id="line2d_15">
    <path d="M 311.045008 387.16 
L 311.045008 10.8 
" clip-path="url(#p0ed19ec07d)" style="fill: none; stroke-dasharray: 3.7,1.6; stroke-dashoffset: 0; stroke: #000000"/>
   </g>
   <g id="patch_3">
    <path d="M 48.17 387.16 
L 48.17 10.8 
" style="fill: none; stroke: #000000; stroke-width: 0.8; stroke-linejoin: miter; stroke-linecap: square"/>
   </g>
   <g id="patch_4">
    <path d="M 48.17 387.16 
L 420.808727 387.16 
" style="fill: none; stroke: #000000; stroke-width: 0.8; stroke-linejoin: miter; stroke-linecap: square"/>
   </g>
   <g id="legend_1">
    <g id="patch_5">
     <path d="M 55.17 106.86875 
L 264.112188 106.86875 
Q 266.112188 106.86875 266.112188 104.86875 
L 266.112188 17.8 
Q 266.112188 15.8 264.112188 15.8 
L 55.17 15.8 
Q 53.17 15.8 53.17 17.8 
L 53.17 104.86875 
Q 53.17 106.86875 55.17 106.86875 
z
" style="fill: #ffffff; opacity: 0.8; stroke: #cccccc; stroke-linejoin: miter"/>
    </g>
    <g id="patch_6">
     <path d="M 57.17 27.398438 
L 77.17 27.398438 
L 77.17 20.398438 
L 57.17 20.398438 
z
" style="fill: #bdbdbd; fill-opacity: 0.5; stroke: #bdbdbd; stroke-width: 2.5; stroke-linejoin: miter"/>
    </g>
    <g id="text_17">
     <!-- Pre-trained ESM2 (650M) -->
     <g transform="translate(85.17 27.398438) scale(0.1 -0.1)">
      <defs>
       <path id="DejaVuSans-2d" d="M 313 2009 
L 1997 2009 
L 1997 1497 
L 313 1497 
L 313 2009 
z
" transform="scale(0.015625)"/>
       <path id="DejaVuSans-61" d="M 2194 1759 
Q 1497 1759 1228 1600 
Q 959 1441 959 1056 
Q 959 750 1161 570 
Q 1363 391 1709 391 
Q 2188 391 2477 730 
Q 2766 1069 2766 1631 
L 2766 1759 
L 2194 1759 
z
M 3341 1997 
L 3341 0 
L 2766 0 
L 2766 531 
Q 2569 213 2275 61 
Q 1981 -91 1556 -91 
Q 1019 -91 701 211 
Q 384 513 384 1019 
Q 384 1609 779 1909 
Q 1175 2209 1959 2209 
L 2766 2209 
L 2766 2266 
Q 2766 2663 2505 2880 
Q 2244 3097 1772 3097 
Q 1472 3097 1187 3025 
Q 903 2953 641 2809 
L 641 3341 
Q 956 3463 1253 3523 
Q 1550 3584 1831 3584 
Q 2591 3584 2966 3190 
Q 3341 2797 3341 1997 
z
" transform="scale(0.015625)"/>
       <path id="DejaVuSans-45" d="M 628 4666 
L 3578 4666 
L 3578 4134 
L 1259 4134 
L 1259 2753 
L 3481 2753 
L 3481 2222 
L 1259 2222 
L 1259 531 
L 3634 531 
L 3634 0 
L 628 0 
L 628 4666 
z
" transform="scale(0.015625)"/>
       <path id="DejaVuSans-53" d="M 3425 4513 
L 3425 3897 
Q 3066 4069 2747 4153 
Q 2428 4238 2131 4238 
Q 1616 4238 1336 4038 
Q 1056 3838 1056 3469 
Q 1056 3159 1242 3001 
Q 1428 2844 1947 2747 
L 2328 2669 
Q 3034 2534 3370 2195 
Q 3706 1856 3706 1288 
Q 3706 609 3251 259 
Q 2797 -91 1919 -91 
Q 1588 -91 1214 -16 
Q 841 59 441 206 
L 441 856 
Q 825 641 1194 531 
Q 1563 422 1919 422 
Q 2459 422 2753 634 
Q 3047 847 3047 1241 
Q 3047 1584 2836 1778 
Q 2625 1972 2144 2069 
L 1759 2144 
Q 1053 2284 737 2584 
Q 422 2884 422 3419 
Q 422 4038 858 4394 
Q 1294 4750 2059 4750 
Q 2388 4750 2728 4690 
Q 3069 4631 3425 4513 
z
" transform="scale(0.015625)"/>
       <path id="DejaVuSans-4d" d="M 628 4666 
L 1569 4666 
L 2759 1491 
L 3956 4666 
L 4897 4666 
L 4897 0 
L 4281 0 
L 4281 4097 
L 3078 897 
L 2444 897 
L 1241 4097 
L 1241 0 
L 628 0 
L 628 4666 
z
" transform="scale(0.015625)"/>
       <path id="DejaVuSans-28" d="M 1984 4856 
Q 1566 4138 1362 3434 
Q 1159 2731 1159 2009 
Q 1159 1288 1364 580 
Q 1569 -128 1984 -844 
L 1484 -844 
Q 1016 -109 783 600 
Q 550 1309 550 2009 
Q 550 2706 781 3412 
Q 1013 4119 1484 4856 
L 1984 4856 
z
" transform="scale(0.015625)"/>
       <path id="DejaVuSans-36" d="M 2113 2584 
Q 1688 2584 1439 2293 
Q 1191 2003 1191 1497 
Q 1191 994 1439 701 
Q 1688 409 2113 409 
Q 2538 409 2786 701 
Q 3034 994 3034 1497 
Q 3034 2003 2786 2293 
Q 2538 2584 2113 2584 
z
M 3366 4563 
L 3366 3988 
Q 3128 4100 2886 4159 
Q 2644 4219 2406 4219 
Q 1781 4219 1451 3797 
Q 1122 3375 1075 2522 
Q 1259 2794 1537 2939 
Q 1816 3084 2150 3084 
Q 2853 3084 3261 2657 
Q 3669 2231 3669 1497 
Q 3669 778 3244 343 
Q 2819 -91 2113 -91 
Q 1303 -91 875 529 
Q 447 1150 447 2328 
Q 447 3434 972 4092 
Q 1497 4750 2381 4750 
Q 2619 4750 2861 4703 
Q 3103 4656 3366 4563 
z
" transform="scale(0.015625)"/>
       <path id="DejaVuSans-29" d="M 513 4856 
L 1013 4856 
Q 1481 4119 1714 3412 
Q 1947 2706 1947 2009 
Q 1947 1309 1714 600 
Q 1481 -109 1013 -844 
L 513 -844 
Q 928 -128 1133 580 
Q 1338 1288 1338 2009 
Q 1338 2731 1133 3434 
Q 928 4138 513 4856 
z
" transform="scale(0.015625)"/>
      </defs>
      <use xlink:href="#DejaVuSans-50"/>
      <use xlink:href="#DejaVuSans-72" x="58.552734"/>
      <use xlink:href="#DejaVuSans-65" x="97.416016"/>
      <use xlink:href="#DejaVuSans-2d" x="158.939453"/>
      <use xlink:href="#DejaVuSans-74" x="195.023438"/>
      <use xlink:href="#DejaVuSans-72" x="234.232422"/>
      <use xlink:href="#DejaVuSans-61" x="275.345703"/>
      <use xlink:href="#DejaVuSans-69" x="336.625"/>
      <use xlink:href="#DejaVuSans-6e" x="364.408203"/>
      <use xlink:href="#DejaVuSans-65" x="427.787109"/>
      <use xlink:href="#DejaVuSans-64" x="489.310547"/>
      <use xlink:href="#DejaVuSans-20" x="552.787109"/>
      <use xlink:href="#DejaVuSans-45" x="584.574219"/>
      <use xlink:href="#DejaVuSans-53" x="647.757812"/>
      <use xlink:href="#DejaVuSans-4d" x="711.234375"/>
      <use xlink:href="#DejaVuSans-32" x="797.513672"/>
      <use xlink:href="#DejaVuSans-20" x="861.136719"/>
      <use xlink:href="#DejaVuSans-28" x="892.923828"/>
      <use xlink:href="#DejaVuSans-36" x="931.9375"/>
      <use xlink:href="#DejaVuSans-35" x="995.560547"/>
      <use xlink:href="#DejaVuSans-30" x="1059.183594"/>
      <use xlink:href="#DejaVuSans-4d" x="1122.806641"/>
      <use xlink:href="#DejaVuSans-29" x="1209.085938"/>
     </g>
    </g>
    <g id="patch_7">
     <path d="M 57.17 42.076563 
L 77.17 42.076563 
L 77.17 35.076563 
L 57.17 35.076563 
z
" style="fill: #2166ac; fill-opacity: 0.5; stroke: #2166ac; stroke-width: 2.5; stroke-linejoin: miter"/>
    </g>
    <g id="text_18">
     <!-- Dataset 1 without random masking -->
     <g transform="translate(85.17 42.076563) scale(0.1 -0.1)">
      <defs>
       <path id="DejaVuSans-77" d="M 269 3500 
L 844 3500 
L 1563 769 
L 2278 3500 
L 2956 3500 
L 3675 769 
L 4391 3500 
L 4966 3500 
L 4050 0 
L 3372 0 
L 2619 2869 
L 1863 0 
L 1184 0 
L 269 3500 
z
" transform="scale(0.015625)"/>
       <path id="DejaVuSans-68" d="M 3513 2113 
L 3513 0 
L 2938 0 
L 2938 2094 
Q 2938 2591 2744 2837 
Q 2550 3084 2163 3084 
Q 1697 3084 1428 2787 
Q 1159 2491 1159 1978 
L 1159 0 
L 581 0 
L 581 4863 
L 1159 4863 
L 1159 2956 
Q 1366 3272 1645 3428 
Q 1925 3584 2291 3584 
Q 2894 3584 3203 3211 
Q 3513 2838 3513 2113 
z
" transform="scale(0.015625)"/>
       <path id="DejaVuSans-6d" d="M 3328 2828 
Q 3544 3216 3844 3400 
Q 4144 3584 4550 3584 
Q 5097 3584 5394 3201 
Q 5691 2819 5691 2113 
L 5691 0 
L 5113 0 
L 5113 2094 
Q 5113 2597 4934 2840 
Q 4756 3084 4391 3084 
Q 3944 3084 3684 2787 
Q 3425 2491 3425 1978 
L 3425 0 
L 2847 0 
L 2847 2094 
Q 2847 2600 2669 2842 
Q 2491 3084 2119 3084 
Q 1678 3084 1418 2786 
Q 1159 2488 1159 1978 
L 1159 0 
L 581 0 
L 581 3500 
L 1159 3500 
L 1159 2956 
Q 1356 3278 1631 3431 
Q 1906 3584 2284 3584 
Q 2666 3584 2933 3390 
Q 3200 3197 3328 2828 
z
" transform="scale(0.015625)"/>
       <path id="DejaVuSans-6b" d="M 581 4863 
L 1159 4863 
L 1159 1991 
L 2875 3500 
L 3609 3500 
L 1753 1863 
L 3688 0 
L 2938 0 
L 1159 1709 
L 1159 0 
L 581 0 
L 581 4863 
z
" transform="scale(0.015625)"/>
       <path id="DejaVuSans-67" d="M 2906 1791 
Q 2906 2416 2648 2759 
Q 2391 3103 1925 3103 
Q 1463 3103 1205 2759 
Q 947 2416 947 1791 
Q 947 1169 1205 825 
Q 1463 481 1925 481 
Q 2391 481 2648 825 
Q 2906 1169 2906 1791 
z
M 3481 434 
Q 3481 -459 3084 -895 
Q 2688 -1331 1869 -1331 
Q 1566 -1331 1297 -1286 
Q 1028 -1241 775 -1147 
L 775 -588 
Q 1028 -725 1275 -790 
Q 1522 -856 1778 -856 
Q 2344 -856 2625 -561 
Q 2906 -266 2906 331 
L 2906 616 
Q 2728 306 2450 153 
Q 2172 0 1784 0 
Q 1141 0 747 490 
Q 353 981 353 1791 
Q 353 2603 747 3093 
Q 1141 3584 1784 3584 
Q 2172 3584 2450 3431 
Q 2728 3278 2906 2969 
L 2906 3500 
L 3481 3500 
L 3481 434 
z
" transform="scale(0.015625)"/>
      </defs>
      <use xlink:href="#DejaVuSans-44"/>
      <use xlink:href="#DejaVuSans-61" x="77.001953"/>
      <use xlink:href="#DejaVuSans-74" x="138.28125"/>
      <use xlink:href="#DejaVuSans-61" x="177.490234"/>
      <use xlink:href="#DejaVuSans-73" x="238.769531"/>
      <use xlink:href="#DejaVuSans-65" x="290.869141"/>
      <use xlink:href="#DejaVuSans-74" x="352.392578"/>
      <use xlink:href="#DejaVuSans-20" x="391.601562"/>
      <use xlink:href="#DejaVuSans-31" x="423.388672"/>
      <use xlink:href="#DejaVuSans-20" x="487.011719"/>
      <use xlink:href="#DejaVuSans-77" x="518.798828"/>
      <use xlink:href="#DejaVuSans-69" x="600.585938"/>
      <use xlink:href="#DejaVuSans-74" x="628.369141"/>
      <use xlink:href="#DejaVuSans-68" x="667.578125"/>
      <use xlink:href="#DejaVuSans-6f" x="730.957031"/>
      <use xlink:href="#DejaVuSans-75" x="792.138672"/>
      <use xlink:href="#DejaVuSans-74" x="855.517578"/>
      <use xlink:href="#DejaVuSans-20" x="894.726562"/>
      <use xlink:href="#DejaVuSans-72" x="926.513672"/>
      <use xlink:href="#DejaVuSans-61" x="967.626953"/>
      <use xlink:href="#DejaVuSans-6e" x="1028.90625"/>
      <use xlink:href="#DejaVuSans-64" x="1092.285156"/>
      <use xlink:href="#DejaVuSans-6f" x="1155.761719"/>
      <use xlink:href="#DejaVuSans-6d" x="1216.943359"/>
      <use xlink:href="#DejaVuSans-20" x="1314.355469"/>
      <use xlink:href="#DejaVuSans-6d" x="1346.142578"/>
      <use xlink:href="#DejaVuSans-61" x="1443.554688"/>
      <use xlink:href="#DejaVuSans-73" x="1504.833984"/>
      <use xlink:href="#DejaVuSans-6b" x="1556.933594"/>
      <use xlink:href="#DejaVuSans-69" x="1614.84375"/>
      <use xlink:href="#DejaVuSans-6e" x="1642.626953"/>
      <use xlink:href="#DejaVuSans-67" x="1706.005859"/>
     </g>
    </g>
    <g id="patch_8">
     <path d="M 57.17 56.754688 
L 77.17 56.754688 
L 77.17 49.754688 
L 57.17 49.754688 
z
" style="fill: #b2182b; fill-opacity: 0.5; stroke: #b2182b; stroke-width: 2.5; stroke-linejoin: miter"/>
    </g>
    <g id="text_19">
     <!-- Dataset 2 without random masking -->
     <g transform="translate(85.17 56.754688) scale(0.1 -0.1)">
      <use xlink:href="#DejaVuSans-44"/>
      <use xlink:href="#DejaVuSans-61" x="77.001953"/>
      <use xlink:href="#DejaVuSans-74" x="138.28125"/>
      <use xlink:href="#DejaVuSans-61" x="177.490234"/>
      <use xlink:href="#DejaVuSans-73" x="238.769531"/>
      <use xlink:href="#DejaVuSans-65" x="290.869141"/>
      <use xlink:href="#DejaVuSans-74" x="352.392578"/>
      <use xlink:href="#DejaVuSans-20" x="391.601562"/>
      <use xlink:href="#DejaVuSans-32" x="423.388672"/>
      <use xlink:href="#DejaVuSans-20" x="487.011719"/>
      <use xlink:href="#DejaVuSans-77" x="518.798828"/>
      <use xlink:href="#DejaVuSans-69" x="600.585938"/>
      <use xlink:href="#DejaVuSans-74" x="628.369141"/>
      <use xlink:href="#DejaVuSans-68" x="667.578125"/>
      <use xlink:href="#DejaVuSans-6f" x="730.957031"/>
      <use xlink:href="#DejaVuSans-75" x="792.138672"/>
      <use xlink:href="#DejaVuSans-74" x="855.517578"/>
      <use xlink:href="#DejaVuSans-20" x="894.726562"/>
      <use xlink:href="#DejaVuSans-72" x="926.513672"/>
      <use xlink:href="#DejaVuSans-61" x="967.626953"/>
      <use xlink:href="#DejaVuSans-6e" x="1028.90625"/>
      <use xlink:href="#DejaVuSans-64" x="1092.285156"/>
      <use xlink:href="#DejaVuSans-6f" x="1155.761719"/>
      <use xlink:href="#DejaVuSans-6d" x="1216.943359"/>
      <use xlink:href="#DejaVuSans-20" x="1314.355469"/>
      <use xlink:href="#DejaVuSans-6d" x="1346.142578"/>
      <use xlink:href="#DejaVuSans-61" x="1443.554688"/>
      <use xlink:href="#DejaVuSans-73" x="1504.833984"/>
      <use xlink:href="#DejaVuSans-6b" x="1556.933594"/>
      <use xlink:href="#DejaVuSans-69" x="1614.84375"/>
      <use xlink:href="#DejaVuSans-6e" x="1642.626953"/>
      <use xlink:href="#DejaVuSans-67" x="1706.005859"/>
     </g>
    </g>
    <g id="patch_9">
     <path d="M 57.17 71.432813 
L 77.17 71.432813 
L 77.17 64.432813 
L 57.17 64.432813 
z
" style="fill: #92c5de; fill-opacity: 0.5; stroke: #92c5de; stroke-width: 2.5; stroke-linejoin: miter"/>
    </g>
    <g id="text_20">
     <!-- Dataset 3 without random masking -->
     <g transform="translate(85.17 71.432813) scale(0.1 -0.1)">
      <use xlink:href="#DejaVuSans-44"/>
      <use xlink:href="#DejaVuSans-61" x="77.001953"/>
      <use xlink:href="#DejaVuSans-74" x="138.28125"/>
      <use xlink:href="#DejaVuSans-61" x="177.490234"/>
      <use xlink:href="#DejaVuSans-73" x="238.769531"/>
      <use xlink:href="#DejaVuSans-65" x="290.869141"/>
      <use xlink:href="#DejaVuSans-74" x="352.392578"/>
      <use xlink:href="#DejaVuSans-20" x="391.601562"/>
      <use xlink:href="#DejaVuSans-33" x="423.388672"/>
      <use xlink:href="#DejaVuSans-20" x="487.011719"/>
      <use xlink:href="#DejaVuSans-77" x="518.798828"/>
      <use xlink:href="#DejaVuSans-69" x="600.585938"/>
      <use xlink:href="#DejaVuSans-74" x="628.369141"/>
      <use xlink:href="#DejaVuSans-68" x="667.578125"/>
      <use xlink:href="#DejaVuSans-6f" x="730.957031"/>
      <use xlink:href="#DejaVuSans-75" x="792.138672"/>
      <use xlink:href="#DejaVuSans-74" x="855.517578"/>
      <use xlink:href="#DejaVuSans-20" x="894.726562"/>
      <use xlink:href="#DejaVuSans-72" x="926.513672"/>
      <use xlink:href="#DejaVuSans-61" x="967.626953"/>
      <use xlink:href="#DejaVuSans-6e" x="1028.90625"/>
      <use xlink:href="#DejaVuSans-64" x="1092.285156"/>
      <use xlink:href="#DejaVuSans-6f" x="1155.761719"/>
      <use xlink:href="#DejaVuSans-6d" x="1216.943359"/>
      <use xlink:href="#DejaVuSans-20" x="1314.355469"/>
      <use xlink:href="#DejaVuSans-6d" x="1346.142578"/>
      <use xlink:href="#DejaVuSans-61" x="1443.554688"/>
      <use xlink:href="#DejaVuSans-73" x="1504.833984"/>
      <use xlink:href="#DejaVuSans-6b" x="1556.933594"/>
      <use xlink:href="#DejaVuSans-69" x="1614.84375"/>
      <use xlink:href="#DejaVuSans-6e" x="1642.626953"/>
      <use xlink:href="#DejaVuSans-67" x="1706.005859"/>
     </g>
    </g>
    <g id="patch_10">
     <path d="M 57.17 86.110938 
L 77.17 86.110938 
L 77.17 79.110938 
L 57.17 79.110938 
z
" style="fill: #f4a582; fill-opacity: 0.5; stroke: #f4a582; stroke-width: 2.5; stroke-linejoin: miter"/>
    </g>
    <g id="text_21">
     <!-- Dataset 4 without random masking -->
     <g transform="translate(85.17 86.110938) scale(0.1 -0.1)">
      <use xlink:href="#DejaVuSans-44"/>
      <use xlink:href="#DejaVuSans-61" x="77.001953"/>
      <use xlink:href="#DejaVuSans-74" x="138.28125"/>
      <use xlink:href="#DejaVuSans-61" x="177.490234"/>
      <use xlink:href="#DejaVuSans-73" x="238.769531"/>
      <use xlink:href="#DejaVuSans-65" x="290.869141"/>
      <use xlink:href="#DejaVuSans-74" x="352.392578"/>
      <use xlink:href="#DejaVuSans-20" x="391.601562"/>
      <use xlink:href="#DejaVuSans-34" x="423.388672"/>
      <use xlink:href="#DejaVuSans-20" x="487.011719"/>
      <use xlink:href="#DejaVuSans-77" x="518.798828"/>
      <use xlink:href="#DejaVuSans-69" x="600.585938"/>
      <use xlink:href="#DejaVuSans-74" x="628.369141"/>
      <use xlink:href="#DejaVuSans-68" x="667.578125"/>
      <use xlink:href="#DejaVuSans-6f" x="730.957031"/>
      <use xlink:href="#DejaVuSans-75" x="792.138672"/>
      <use xlink:href="#DejaVuSans-74" x="855.517578"/>
      <use xlink:href="#DejaVuSans-20" x="894.726562"/>
      <use xlink:href="#DejaVuSans-72" x="926.513672"/>
      <use xlink:href="#DejaVuSans-61" x="967.626953"/>
      <use xlink:href="#DejaVuSans-6e" x="1028.90625"/>
      <use xlink:href="#DejaVuSans-64" x="1092.285156"/>
      <use xlink:href="#DejaVuSans-6f" x="1155.761719"/>
      <use xlink:href="#DejaVuSans-6d" x="1216.943359"/>
      <use xlink:href="#DejaVuSans-20" x="1314.355469"/>
      <use xlink:href="#DejaVuSans-6d" x="1346.142578"/>
      <use xlink:href="#DejaVuSans-61" x="1443.554688"/>
      <use xlink:href="#DejaVuSans-73" x="1504.833984"/>
      <use xlink:href="#DejaVuSans-6b" x="1556.933594"/>
      <use xlink:href="#DejaVuSans-69" x="1614.84375"/>
      <use xlink:href="#DejaVuSans-6e" x="1642.626953"/>
      <use xlink:href="#DejaVuSans-67" x="1706.005859"/>
     </g>
    </g>
    <g id="line2d_16">
     <path d="M 57.17 97.289063 
L 67.17 97.289063 
L 77.17 97.289063 
" style="fill: none; stroke-dasharray: 3.7,1.6; stroke-dashoffset: 0; stroke: #000000"/>
    </g>
    <g id="text_22">
     <!-- Predicted CreiLOV log fluorescence -->
     <g transform="translate(85.17 100.789063) scale(0.1 -0.1)">
      <defs>
       <path id="DejaVuSans-43" d="M 4122 4306 
L 4122 3641 
Q 3803 3938 3442 4084 
Q 3081 4231 2675 4231 
Q 1875 4231 1450 3742 
Q 1025 3253 1025 2328 
Q 1025 1406 1450 917 
Q 1875 428 2675 428 
Q 3081 428 3442 575 
Q 3803 722 4122 1019 
L 4122 359 
Q 3791 134 3420 21 
Q 3050 -91 2638 -91 
Q 1578 -91 968 557 
Q 359 1206 359 2328 
Q 359 3453 968 4101 
Q 1578 4750 2638 4750 
Q 3056 4750 3426 4639 
Q 3797 4528 4122 4306 
z
" transform="scale(0.015625)"/>
       <path id="DejaVuSans-4c" d="M 628 4666 
L 1259 4666 
L 1259 531 
L 3531 531 
L 3531 0 
L 628 0 
L 628 4666 
z
" transform="scale(0.015625)"/>
       <path id="DejaVuSans-4f" d="M 2522 4238 
Q 1834 4238 1429 3725 
Q 1025 3213 1025 2328 
Q 1025 1447 1429 934 
Q 1834 422 2522 422 
Q 3209 422 3611 934 
Q 4013 1447 4013 2328 
Q 4013 3213 3611 3725 
Q 3209 4238 2522 4238 
z
M 2522 4750 
Q 3503 4750 4090 4092 
Q 4678 3434 4678 2328 
Q 4678 1225 4090 567 
Q 3503 -91 2522 -91 
Q 1538 -91 948 565 
Q 359 1222 359 2328 
Q 359 3434 948 4092 
Q 1538 4750 2522 4750 
z
" transform="scale(0.015625)"/>
       <path id="DejaVuSans-56" d="M 1831 0 
L 50 4666 
L 709 4666 
L 2188 738 
L 3669 4666 
L 4325 4666 
L 2547 0 
L 1831 0 
z
" transform="scale(0.015625)"/>
       <path id="DejaVuSans-66" d="M 2375 4863 
L 2375 4384 
L 1825 4384 
Q 1516 4384 1395 4259 
Q 1275 4134 1275 3809 
L 1275 3500 
L 2222 3500 
L 2222 3053 
L 1275 3053 
L 1275 0 
L 697 0 
L 697 3053 
L 147 3053 
L 147 3500 
L 697 3500 
L 697 3744 
Q 697 4328 969 4595 
Q 1241 4863 1831 4863 
L 2375 4863 
z
" transform="scale(0.015625)"/>
      </defs>
      <use xlink:href="#DejaVuSans-50"/>
      <use xlink:href="#DejaVuSans-72" x="58.552734"/>
      <use xlink:href="#DejaVuSans-65" x="97.416016"/>
      <use xlink:href="#DejaVuSans-64" x="158.939453"/>
      <use xlink:href="#DejaVuSans-69" x="222.416016"/>
      <use xlink:href="#DejaVuSans-63" x="250.199219"/>
      <use xlink:href="#DejaVuSans-74" x="305.179688"/>
      <use xlink:href="#DejaVuSans-65" x="344.388672"/>
      <use xlink:href="#DejaVuSans-64" x="405.912109"/>
      <use xlink:href="#DejaVuSans-20" x="469.388672"/>
      <use xlink:href="#DejaVuSans-43" x="501.175781"/>
      <use xlink:href="#DejaVuSans-72" x="571"/>
      <use xlink:href="#DejaVuSans-65" x="609.863281"/>
      <use xlink:href="#DejaVuSans-69" x="671.386719"/>
      <use xlink:href="#DejaVuSans-4c" x="699.169922"/>
      <use xlink:href="#DejaVuSans-4f" x="751.257812"/>
      <use xlink:href="#DejaVuSans-56" x="828.21875"/>
      <use xlink:href="#DejaVuSans-20" x="896.626953"/>
      <use xlink:href="#DejaVuSans-6c" x="928.414062"/>
      <use xlink:href="#DejaVuSans-6f" x="956.197266"/>
      <use xlink:href="#DejaVuSans-67" x="1017.378906"/>
      <use xlink:href="#DejaVuSans-20" x="1080.855469"/>
      <use xlink:href="#DejaVuSans-66" x="1112.642578"/>
      <use xlink:href="#DejaVuSans-6c" x="1147.847656"/>
      <use xlink:href="#DejaVuSans-75" x="1175.630859"/>
      <use xlink:href="#DejaVuSans-6f" x="1239.009766"/>
      <use xlink:href="#DejaVuSans-72" x="1300.191406"/>
      <use xlink:href="#DejaVuSans-65" x="1339.054688"/>
      <use xlink:href="#DejaVuSans-73" x="1400.578125"/>
      <use xlink:href="#DejaVuSans-63" x="1452.677734"/>
      <use xlink:href="#DejaVuSans-65" x="1507.658203"/>
      <use xlink:href="#DejaVuSans-6e" x="1569.181641"/>
      <use xlink:href="#DejaVuSans-63" x="1632.560547"/>
      <use xlink:href="#DejaVuSans-65" x="1687.541016"/>
     </g>
    </g>
   </g>
  </g>
 </g>
 <defs>
  <clipPath id="p0ed19ec07d">
   <rect x="48.17" y="10.8" width="372.638727" height="376.36"/>
  </clipPath>
 </defs>
</svg>
