<?xml version="1.0" encoding="utf-8" standalone="no"?>
<!DOCTYPE svg PUBLIC "-//W3C//DTD SVG 1.1//EN"
  "http://www.w3.org/Graphics/SVG/1.1/DTD/svg11.dtd">
<svg xmlns:xlink="http://www.w3.org/1999/xlink" width="432pt" height="432pt" viewBox="0 0 432 432" xmlns="http://www.w3.org/2000/svg" version="1.1">
 <metadata>
  <rdf:RDF xmlns:dc="http://purl.org/dc/elements/1.1/" xmlns:cc="http://creativecommons.org/ns#" xmlns:rdf="http://www.w3.org/1999/02/22-rdf-syntax-ns#">
   <cc:Work>
    <dc:type rdf:resource="http://purl.org/dc/dcmitype/StillImage"/>
    <dc:date>2025-04-01T13:16:14.450753</dc:date>
    <dc:format>image/svg+xml</dc:format>
    <dc:creator>
     <cc:Agent>
      <dc:title>Matplotlib v3.7.1, https://matplotlib.org/</dc:title>
     </cc:Agent>
    </dc:creator>
   </cc:Work>
  </rdf:RDF>
 </metadata>
 <defs>
  <style type="text/css">*{stroke-linejoin: round; stroke-linecap: butt}</style>
 </defs>
 <g id="figure_1">
  <g id="patch_1">
   <path d="M 0 432 
L 432 432 
L 432 0 
L 0 0 
z
" style="fill: #ffffff"/>
  </g>
  <g id="axes_1">
   <g id="patch_2">
    <path d="M 54.47 387.16 
L 420.808727 387.16 
L 420.808727 10.8 
L 54.47 10.8 
z
" style="fill: #ffffff"/>
   </g>
   <g id="PolyCollection_1">
    <defs>
     <path id="mdba830ebb2" d="M 330.750481 -44.908898 
L 330.750481 -44.84 
L 331.011822 -44.84 
L 331.273164 -44.84 
L 331.534505 -44.84 
L 331.795846 -44.84 
L 332.057187 -44.84 
L 332.318528 -44.84 
L 332.57987 -44.84 
L 332.841211 -44.84 
L 333.102552 -44.84 
L 333.363893 -44.84 
L 333.625235 -44.84 
L 333.886576 -44.84 
L 334.147917 -44.84 
L 334.409258 -44.84 
L 334.670599 -44.84 
L 334.931941 -44.84 
L 335.193282 -44.84 
L 335.454623 -44.84 
L 335.715964 -44.84 
L 335.977305 -44.84 
L 336.238647 -44.84 
L 336.499988 -44.84 
L 336.761329 -44.84 
L 337.02267 -44.84 
L 337.284012 -44.84 
L 337.545353 -44.84 
L 337.806694 -44.84 
L 338.068035 -44.84 
L 338.329376 -44.84 
L 338.590718 -44.84 
L 338.852059 -44.84 
L 339.1134 -44.84 
L 339.374741 -44.84 
L 339.636082 -44.84 
L 339.897424 -44.84 
L 340.158765 -44.84 
L 340.420106 -44.84 
L 340.681447 -44.84 
L 340.942788 -44.84 
L 341.20413 -44.84 
L 341.465471 -44.84 
L 341.726812 -44.84 
L 341.988153 -44.84 
L 342.249495 -44.84 
L 342.510836 -44.84 
L 342.772177 -44.84 
L 343.033518 -44.84 
L 343.294859 -44.84 
L 343.556201 -44.84 
L 343.817542 -44.84 
L 344.078883 -44.84 
L 344.340224 -44.84 
L 344.601565 -44.84 
L 344.862907 -44.84 
L 345.124248 -44.84 
L 345.385589 -44.84 
L 345.64693 -44.84 
L 345.908272 -44.84 
L 346.169613 -44.84 
L 346.430954 -44.84 
L 346.692295 -44.84 
L 346.953636 -44.84 
L 347.214978 -44.84 
L 347.476319 -44.84 
L 347.73766 -44.84 
L 347.999001 -44.84 
L 348.260342 -44.84 
L 348.521684 -44.84 
L 348.783025 -44.84 
L 349.044366 -44.84 
L 349.305707 -44.84 
L 349.567048 -44.84 
L 349.82839 -44.84 
L 350.089731 -44.84 
L 350.351072 -44.84 
L 350.612413 -44.84 
L 350.873755 -44.84 
L 351.135096 -44.84 
L 351.396437 -44.84 
L 351.657778 -44.84 
L 351.919119 -44.84 
L 352.180461 -44.84 
L 352.441802 -44.84 
L 352.703143 -44.84 
L 352.964484 -44.84 
L 353.225825 -44.84 
L 353.487167 -44.84 
L 353.748508 -44.84 
L 354.009849 -44.84 
L 354.27119 -44.84 
L 354.532532 -44.84 
L 354.793873 -44.84 
L 355.055214 -44.84 
L 355.316555 -44.84 
L 355.577896 -44.84 
L 355.839238 -44.84 
L 356.100579 -44.84 
L 356.36192 -44.84 
L 356.623261 -44.84 
L 356.884602 -44.84 
L 357.145944 -44.84 
L 357.407285 -44.84 
L 357.668626 -44.84 
L 357.929967 -44.84 
L 358.191308 -44.84 
L 358.45265 -44.84 
L 358.713991 -44.84 
L 358.975332 -44.84 
L 359.236673 -44.84 
L 359.498015 -44.84 
L 359.759356 -44.84 
L 360.020697 -44.84 
L 360.282038 -44.84 
L 360.543379 -44.84 
L 360.804721 -44.84 
L 361.066062 -44.84 
L 361.327403 -44.84 
L 361.588744 -44.84 
L 361.850085 -44.84 
L 362.111427 -44.84 
L 362.372768 -44.84 
L 362.634109 -44.84 
L 362.89545 -44.84 
L 363.156792 -44.84 
L 363.418133 -44.84 
L 363.679474 -44.84 
L 363.940815 -44.84 
L 364.202156 -44.84 
L 364.463498 -44.84 
L 364.724839 -44.84 
L 364.98618 -44.84 
L 365.247521 -44.84 
L 365.508862 -44.84 
L 365.770204 -44.84 
L 366.031545 -44.84 
L 366.292886 -44.84 
L 366.554227 -44.84 
L 366.815568 -44.84 
L 367.07691 -44.84 
L 367.338251 -44.84 
L 367.599592 -44.84 
L 367.860933 -44.84 
L 368.122275 -44.84 
L 368.383616 -44.84 
L 368.644957 -44.84 
L 368.906298 -44.84 
L 369.167639 -44.84 
L 369.428981 -44.84 
L 369.690322 -44.84 
L 369.951663 -44.84 
L 370.213004 -44.84 
L 370.474345 -44.84 
L 370.735687 -44.84 
L 370.997028 -44.84 
L 371.258369 -44.84 
L 371.51971 -44.84 
L 371.781052 -44.84 
L 372.042393 -44.84 
L 372.303734 -44.84 
L 372.565075 -44.84 
L 372.826416 -44.84 
L 373.087758 -44.84 
L 373.349099 -44.84 
L 373.61044 -44.84 
L 373.871781 -44.84 
L 374.133122 -44.84 
L 374.394464 -44.84 
L 374.655805 -44.84 
L 374.917146 -44.84 
L 375.178487 -44.84 
L 375.439828 -44.84 
L 375.70117 -44.84 
L 375.962511 -44.84 
L 376.223852 -44.84 
L 376.485193 -44.84 
L 376.746535 -44.84 
L 377.007876 -44.84 
L 377.269217 -44.84 
L 377.530558 -44.84 
L 377.791899 -44.84 
L 378.053241 -44.84 
L 378.314582 -44.84 
L 378.575923 -44.84 
L 378.837264 -44.84 
L 379.098605 -44.84 
L 379.359947 -44.84 
L 379.621288 -44.84 
L 379.882629 -44.84 
L 380.14397 -44.84 
L 380.405312 -44.84 
L 380.666653 -44.84 
L 380.927994 -44.84 
L 381.189335 -44.84 
L 381.450676 -44.84 
L 381.712018 -44.84 
L 381.973359 -44.84 
L 382.2347 -44.84 
L 382.496041 -44.84 
L 382.757382 -44.84 
L 382.757382 -44.963586 
L 382.757382 -44.963586 
L 382.496041 -45.006184 
L 382.2347 -45.061587 
L 381.973359 -45.132993 
L 381.712018 -45.224196 
L 381.450676 -45.339644 
L 381.189335 -45.484479 
L 380.927994 -45.664578 
L 380.666653 -45.88656 
L 380.405312 -46.157789 
L 380.14397 -46.48634 
L 379.882629 -46.880947 
L 379.621288 -47.35092 
L 379.359947 -47.906044 
L 379.098605 -48.556447 
L 378.837264 -49.31246 
L 378.575923 -50.184463 
L 378.314582 -51.182734 
L 378.053241 -52.317305 
L 377.791899 -53.597839 
L 377.530558 -55.033542 
L 377.269217 -56.63311 
L 377.007876 -58.404721 
L 376.746535 -60.356081 
L 376.485193 -62.494512 
L 376.223852 -64.827084 
L 375.962511 -67.36078 
L 375.70117 -70.102672 
L 375.439828 -73.060095 
L 375.178487 -76.240795 
L 374.917146 -79.653024 
L 374.655805 -83.305561 
L 374.394464 -87.207632 
L 374.133122 -91.368718 
L 373.871781 -95.798229 
L 373.61044 -100.505045 
L 373.349099 -105.496926 
L 373.087758 -110.779798 
L 372.826416 -116.356948 
L 372.565075 -122.228151 
L 372.303734 -128.388765 
L 372.042393 -134.828864 
L 371.781052 -141.53243 
L 371.51971 -148.476683 
L 371.258369 -155.631599 
L 370.997028 -162.959653 
L 370.735687 -170.415845 
L 370.474345 -177.948038 
L 370.213004 -185.49762 
L 369.951663 -193.000498 
L 369.690322 -200.388407 
L 369.428981 -207.590502 
L 369.167639 -214.535178 
L 368.906298 -221.152052 
L 368.644957 -227.374022 
L 368.383616 -233.139316 
L 368.122275 -238.39344 
L 367.860933 -243.090917 
L 367.599592 -247.196747 
L 367.338251 -250.687506 
L 367.07691 -253.552024 
L 366.815568 -255.791611 
L 366.554227 -257.419828 
L 366.292886 -258.461786 
L 366.031545 -258.953041 
L 365.770204 -258.938111 
L 365.508862 -258.468698 
L 365.247521 -257.601697 
L 364.98618 -256.397066 
L 364.724839 -254.915663 
L 364.463498 -253.217117 
L 364.202156 -251.357823 
L 363.940815 -249.389127 
L 363.679474 -247.355748 
L 363.418133 -245.294491 
L 363.156792 -243.233287 
L 362.89545 -241.190561 
L 362.634109 -239.174968 
L 362.372768 -237.18547 
L 362.111427 -235.211769 
L 361.850085 -233.235062 
L 361.588744 -231.229111 
L 361.327403 -229.161573 
L 361.066062 -226.995565 
L 360.804721 -224.691405 
L 360.543379 -222.208466 
L 360.282038 -219.507079 
L 360.020697 -216.550409 
L 359.759356 -213.30624 
L 359.498015 -209.748581 
L 359.236673 -205.859039 
L 358.975332 -201.627894 
L 358.713991 -197.054832 
L 358.45265 -192.149307 
L 358.191308 -186.930519 
L 357.929967 -181.427012 
L 357.668626 -175.675915 
L 357.407285 -169.721862 
L 357.145944 -163.615652 
L 356.884602 -157.412688 
L 356.623261 -151.171296 
L 356.36192 -144.950961 
L 356.100579 -138.810575 
L 355.839238 -132.806747 
L 355.577896 -126.992248 
L 355.316555 -121.41463 
L 355.055214 -116.115078 
L 354.793873 -111.127503 
L 354.532532 -106.477929 
L 354.27119 -102.18415 
L 354.009849 -98.255685 
L 353.748508 -94.694007 
L 353.487167 -91.493026 
L 353.225825 -88.639802 
L 352.964484 -86.115449 
L 352.703143 -83.896186 
L 352.441802 -81.954496 
L 352.180461 -80.260326 
L 351.919119 -78.782298 
L 351.657778 -77.488868 
L 351.396437 -76.349386 
L 351.135096 -75.335031 
L 350.873755 -74.419571 
L 350.612413 -73.579946 
L 350.351072 -72.796641 
L 350.089731 -72.053859 
L 349.82839 -71.339503 
L 349.567048 -70.644982 
L 349.305707 -69.964866 
L 349.044366 -69.29643 
L 348.783025 -68.639113 
L 348.521684 -67.993949 
L 348.260342 -67.36299 
L 347.999001 -66.748772 
L 347.73766 -66.153846 
L 347.476319 -65.580403 
L 347.214978 -65.030006 
L 346.953636 -64.503444 
L 346.692295 -64.000695 
L 346.430954 -63.520991 
L 346.169613 -63.062976 
L 345.908272 -62.624919 
L 345.64693 -62.204964 
L 345.385589 -61.80138 
L 345.124248 -61.412785 
L 344.862907 -61.038327 
L 344.601565 -60.677786 
L 344.340224 -60.331595 
L 344.078883 -60.000774 
L 343.817542 -59.686784 
L 343.556201 -59.391303 
L 343.294859 -59.115958 
L 343.033518 -58.862029 
L 342.772177 -58.630155 
L 342.510836 -58.420068 
L 342.249495 -58.230389 
L 341.988153 -58.058501 
L 341.726812 -57.900514 
L 341.465471 -57.751329 
L 341.20413 -57.604812 
L 340.942788 -57.454047 
L 340.681447 -57.291669 
L 340.420106 -57.110243 
L 340.158765 -56.902671 
L 339.897424 -56.662589 
L 339.636082 -56.384732 
L 339.374741 -56.065241 
L 339.1134 -55.701888 
L 338.852059 -55.294213 
L 338.590718 -54.843554 
L 338.329376 -54.352989 
L 338.068035 -53.827175 
L 337.806694 -53.272115 
L 337.545353 -52.694861 
L 337.284012 -52.103185 
L 337.02267 -51.50522 
L 336.761329 -50.909118 
L 336.499988 -50.322721 
L 336.238647 -49.753281 
L 335.977305 -49.207221 
L 335.715964 -48.689968 
L 335.454623 -48.205842 
L 335.193282 -47.758005 
L 334.931941 -47.348471 
L 334.670599 -46.978168 
L 334.409258 -46.647033 
L 334.147917 -46.354138 
L 333.886576 -46.097844 
L 333.625235 -45.875947 
L 333.363893 -45.685837 
L 333.102552 -45.524645 
L 332.841211 -45.38937 
L 332.57987 -45.276997 
L 332.318528 -45.184585 
L 332.057187 -45.109349 
L 331.795846 -45.048703 
L 331.534505 -45.000298 
L 331.273164 -44.962043 
L 331.011822 -44.932103 
L 330.750481 -44.908898 
z
" style="stroke: #2166ac; stroke-width: 2.5"/>
    </defs>
    <g clip-path="url(#pc02eff5c61)">
     <use xlink:href="#mdba830ebb2" x="0" y="432" style="fill: #2166ac; fill-opacity: 0.5; stroke: #2166ac; stroke-width: 2.5"/>
    </g>
   </g>
   <g id="PolyCollection_2">
    <defs>
     <path id="m7220f5801e" d="M 71.12176 -44.849944 
L 71.12176 -44.84 
L 72.795304 -44.84 
L 74.468848 -44.84 
L 76.142392 -44.84 
L 77.815935 -44.84 
L 79.489479 -44.84 
L 81.163023 -44.84 
L 82.836567 -44.84 
L 84.51011 -44.84 
L 86.183654 -44.84 
L 87.857198 -44.84 
L 89.530742 -44.84 
L 91.204285 -44.84 
L 92.877829 -44.84 
L 94.551373 -44.84 
L 96.224917 -44.84 
L 97.89846 -44.84 
L 99.572004 -44.84 
L 101.245548 -44.84 
L 102.919092 -44.84 
L 104.592635 -44.84 
L 106.266179 -44.84 
L 107.939723 -44.84 
L 109.613267 -44.84 
L 111.28681 -44.84 
L 112.960354 -44.84 
L 114.633898 -44.84 
L 116.307442 -44.84 
L 117.980985 -44.84 
L 119.654529 -44.84 
L 121.328073 -44.84 
L 123.001617 -44.84 
L 124.67516 -44.84 
L 126.348704 -44.84 
L 128.022248 -44.84 
L 129.695792 -44.84 
L 131.369335 -44.84 
L 133.042879 -44.84 
L 134.716423 -44.84 
L 136.389967 -44.84 
L 138.06351 -44.84 
L 139.737054 -44.84 
L 141.410598 -44.84 
L 143.084142 -44.84 
L 144.757685 -44.84 
L 146.431229 -44.84 
L 148.104773 -44.84 
L 149.778317 -44.84 
L 151.45186 -44.84 
L 153.125404 -44.84 
L 154.798948 -44.84 
L 156.472492 -44.84 
L 158.146035 -44.84 
L 159.819579 -44.84 
L 161.493123 -44.84 
L 163.166667 -44.84 
L 164.84021 -44.84 
L 166.513754 -44.84 
L 168.187298 -44.84 
L 169.860842 -44.84 
L 171.534385 -44.84 
L 173.207929 -44.84 
L 174.881473 -44.84 
L 176.555017 -44.84 
L 178.22856 -44.84 
L 179.902104 -44.84 
L 181.575648 -44.84 
L 183.249192 -44.84 
L 184.922735 -44.84 
L 186.596279 -44.84 
L 188.269823 -44.84 
L 189.943367 -44.84 
L 191.61691 -44.84 
L 193.290454 -44.84 
L 194.963998 -44.84 
L 196.637542 -44.84 
L 198.311085 -44.84 
L 199.984629 -44.84 
L 201.658173 -44.84 
L 203.331717 -44.84 
L 205.00526 -44.84 
L 206.678804 -44.84 
L 208.352348 -44.84 
L 210.025892 -44.84 
L 211.699435 -44.84 
L 213.372979 -44.84 
L 215.046523 -44.84 
L 216.720067 -44.84 
L 218.39361 -44.84 
L 220.067154 -44.84 
L 221.740698 -44.84 
L 223.414242 -44.84 
L 225.087785 -44.84 
L 226.761329 -44.84 
L 228.434873 -44.84 
L 230.108417 -44.84 
L 231.78196 -44.84 
L 233.455504 -44.84 
L 235.129048 -44.84 
L 236.802592 -44.84 
L 238.476135 -44.84 
L 240.149679 -44.84 
L 241.823223 -44.84 
L 243.496767 -44.84 
L 245.17031 -44.84 
L 246.843854 -44.84 
L 248.517398 -44.84 
L 250.190942 -44.84 
L 251.864485 -44.84 
L 253.538029 -44.84 
L 255.211573 -44.84 
L 256.885117 -44.84 
L 258.55866 -44.84 
L 260.232204 -44.84 
L 261.905748 -44.84 
L 263.579292 -44.84 
L 265.252835 -44.84 
L 266.926379 -44.84 
L 268.599923 -44.84 
L 270.273467 -44.84 
L 271.94701 -44.84 
L 273.620554 -44.84 
L 275.294098 -44.84 
L 276.967642 -44.84 
L 278.641185 -44.84 
L 280.314729 -44.84 
L 281.988273 -44.84 
L 283.661817 -44.84 
L 285.33536 -44.84 
L 287.008904 -44.84 
L 288.682448 -44.84 
L 290.355992 -44.84 
L 292.029535 -44.84 
L 293.703079 -44.84 
L 295.376623 -44.84 
L 297.050167 -44.84 
L 298.72371 -44.84 
L 300.397254 -44.84 
L 302.070798 -44.84 
L 303.744342 -44.84 
L 305.417885 -44.84 
L 307.091429 -44.84 
L 308.764973 -44.84 
L 310.438517 -44.84 
L 312.11206 -44.84 
L 313.785604 -44.84 
L 315.459148 -44.84 
L 317.132692 -44.84 
L 318.806235 -44.84 
L 320.479779 -44.84 
L 322.153323 -44.84 
L 323.826867 -44.84 
L 325.50041 -44.84 
L 327.173954 -44.84 
L 328.847498 -44.84 
L 330.521042 -44.84 
L 332.194585 -44.84 
L 333.868129 -44.84 
L 335.541673 -44.84 
L 337.215217 -44.84 
L 338.88876 -44.84 
L 340.562304 -44.84 
L 342.235848 -44.84 
L 343.909392 -44.84 
L 345.582935 -44.84 
L 347.256479 -44.84 
L 348.930023 -44.84 
L 350.603567 -44.84 
L 352.27711 -44.84 
L 353.950654 -44.84 
L 355.624198 -44.84 
L 357.297742 -44.84 
L 358.971285 -44.84 
L 360.644829 -44.84 
L 362.318373 -44.84 
L 363.991917 -44.84 
L 365.66546 -44.84 
L 367.339004 -44.84 
L 369.012548 -44.84 
L 370.686092 -44.84 
L 372.359635 -44.84 
L 374.033179 -44.84 
L 375.706723 -44.84 
L 377.380267 -44.84 
L 379.05381 -44.84 
L 380.727354 -44.84 
L 382.400898 -44.84 
L 384.074442 -44.84 
L 385.747985 -44.84 
L 387.421529 -44.84 
L 389.095073 -44.84 
L 390.768617 -44.84 
L 392.44216 -44.84 
L 394.115704 -44.84 
L 395.789248 -44.84 
L 397.462792 -44.84 
L 399.136335 -44.84 
L 400.809879 -44.84 
L 402.483423 -44.84 
L 404.156967 -44.84 
L 404.156967 -44.874445 
L 404.156967 -44.874445 
L 402.483423 -44.888692 
L 400.809879 -44.908121 
L 399.136335 -44.934329 
L 397.462792 -44.969293 
L 395.789248 -45.015431 
L 394.115704 -45.075654 
L 392.44216 -45.153415 
L 390.768617 -45.252744 
L 389.095073 -45.378268 
L 387.421529 -45.535213 
L 385.747985 -45.729371 
L 384.074442 -45.967049 
L 382.400898 -46.25497 
L 380.727354 -46.600146 
L 379.05381 -47.009714 
L 377.380267 -47.490738 
L 375.706723 -48.049983 
L 374.033179 -48.693669 
L 372.359635 -49.427213 
L 370.686092 -50.25498 
L 369.012548 -51.180042 
L 367.339004 -52.203968 
L 365.66546 -53.326649 
L 363.991917 -54.54618 
L 362.318373 -55.858789 
L 360.644829 -57.258828 
L 358.971285 -58.738818 
L 357.297742 -60.289547 
L 355.624198 -61.900202 
L 353.950654 -63.558549 
L 352.27711 -65.25111 
L 350.603567 -66.963372 
L 348.930023 -68.67998 
L 347.256479 -70.384936 
L 345.582935 -72.061789 
L 343.909392 -73.693829 
L 342.235848 -75.264282 
L 340.562304 -76.75652 
L 338.88876 -78.154301 
L 337.215217 -79.442029 
L 335.541673 -80.605061 
L 333.868129 -81.630036 
L 332.194585 -82.505232 
L 330.521042 -83.22094 
L 328.847498 -83.769822 
L 327.173954 -84.147239 
L 325.50041 -84.351534 
L 323.826867 -84.384224 
L 322.153323 -84.250103 
L 320.479779 -83.957237 
L 318.806235 -83.516832 
L 317.132692 -82.942989 
L 315.459148 -82.252348 
L 313.785604 -81.463637 
L 312.11206 -80.597133 
L 310.438517 -79.674078 
L 308.764973 -78.716051 
L 307.091429 -77.744332 
L 305.417885 -76.779281 
L 303.744342 -75.839738 
L 302.070798 -74.942491 
L 300.397254 -74.101792 
L 298.72371 -73.32897 
L 297.050167 -72.632133 
L 295.376623 -72.015972 
L 293.703079 -71.481685 
L 292.029535 -71.027016 
L 290.355992 -70.646413 
L 288.682448 -70.331307 
L 287.008904 -70.070506 
L 285.33536 -69.850681 
L 283.661817 -69.656943 
L 281.988273 -69.473479 
L 280.314729 -69.284226 
L 278.641185 -69.07355 
L 276.967642 -68.826904 
L 275.294098 -68.531429 
L 273.620554 -68.176479 
L 271.94701 -67.754025 
L 270.273467 -67.258946 
L 268.599923 -66.689164 
L 266.926379 -66.045644 
L 265.252835 -65.332246 
L 263.579292 -64.555444 
L 261.905748 -63.723937 
L 260.232204 -62.848175 
L 258.55866 -61.939819 
L 256.885117 -61.011193 
L 255.211573 -60.074726 
L 253.538029 -59.142441 
L 251.864485 -58.225506 
L 250.190942 -57.333863 
L 248.517398 -56.475953 
L 246.843854 -55.658547 
L 245.17031 -54.886669 
L 243.496767 -54.163619 
L 241.823223 -53.491077 
L 240.149679 -52.869269 
L 238.476135 -52.297185 
L 236.802592 -51.77282 
L 235.129048 -51.293431 
L 233.455504 -50.855783 
L 231.78196 -50.456375 
L 230.108417 -50.091637 
L 228.434873 -49.758082 
L 226.761329 -49.452419 
L 225.087785 -49.17163 
L 223.414242 -48.912999 
L 221.740698 -48.674113 
L 220.067154 -48.452842 
L 218.39361 -48.247294 
L 216.720067 -48.055771 
L 215.046523 -47.87672 
L 213.372979 -47.708693 
L 211.699435 -47.550315 
L 210.025892 -47.400271 
L 208.352348 -47.257299 
L 206.678804 -47.12021 
L 205.00526 -46.987904 
L 203.331717 -46.859403 
L 201.658173 -46.733881 
L 199.984629 -46.610695 
L 198.311085 -46.489408 
L 196.637542 -46.369804 
L 194.963998 -46.251884 
L 193.290454 -46.135861 
L 191.61691 -46.02213 
L 189.943367 -45.911235 
L 188.269823 -45.803826 
L 186.596279 -45.700608 
L 184.922735 -45.602293 
L 183.249192 -45.509553 
L 181.575648 -45.422978 
L 179.902104 -45.343041 
L 178.22856 -45.27008 
L 176.555017 -45.204285 
L 174.881473 -45.145696 
L 173.207929 -45.094216 
L 171.534385 -45.049627 
L 169.860842 -45.011617 
L 168.187298 -44.979808 
L 166.513754 -44.953787 
L 164.84021 -44.933139 
L 163.166667 -44.917473 
L 161.493123 -44.906446 
L 159.819579 -44.899787 
L 158.146035 -44.897304 
L 156.472492 -44.898897 
L 154.798948 -44.904553 
L 153.125404 -44.914338 
L 151.45186 -44.928385 
L 149.778317 -44.946869 
L 148.104773 -44.96998 
L 146.431229 -44.997888 
L 144.757685 -45.030709 
L 143.084142 -45.068462 
L 141.410598 -45.111037 
L 139.737054 -45.158157 
L 138.06351 -45.209351 
L 136.389967 -45.263938 
L 134.716423 -45.321018 
L 133.042879 -45.379484 
L 131.369335 -45.438041 
L 129.695792 -45.495251 
L 128.022248 -45.549579 
L 126.348704 -45.599463 
L 124.67516 -45.643384 
L 123.001617 -45.679941 
L 121.328073 -45.707926 
L 119.654529 -45.72639 
L 117.980985 -45.734695 
L 116.307442 -45.73255 
L 114.633898 -45.720032 
L 112.960354 -45.697574 
L 111.28681 -45.665947 
L 109.613267 -45.626214 
L 107.939723 -45.579668 
L 106.266179 -45.527765 
L 104.592635 -45.47205 
L 102.919092 -45.414077 
L 101.245548 -45.355343 
L 99.572004 -45.297226 
L 97.89846 -45.240934 
L 96.224917 -45.187473 
L 94.551373 -45.137631 
L 92.877829 -45.091966 
L 91.204285 -45.050821 
L 89.530742 -45.014339 
L 87.857198 -44.982489 
L 86.183654 -44.9551 
L 84.51011 -44.931892 
L 82.836567 -44.912508 
L 81.163023 -44.896547 
L 79.489479 -44.883584 
L 77.815935 -44.873202 
L 76.142392 -44.864998 
L 74.468848 -44.858602 
L 72.795304 -44.853681 
L 71.12176 -44.849944 
z
" style="stroke: #b2182b; stroke-width: 2.5"/>
    </defs>
    <g clip-path="url(#pc02eff5c61)">
     <use xlink:href="#m7220f5801e" x="0" y="432" style="fill: #b2182b; fill-opacity: 0.5; stroke: #b2182b; stroke-width: 2.5"/>
    </g>
   </g>
   <g id="PolyCollection_3">
    <defs>
     <path id="m9295bbad5c" d="M 313.416216 -44.89384 
L 313.416216 -44.84 
L 313.773168 -44.84 
L 314.130119 -44.84 
L 314.487071 -44.84 
L 314.844023 -44.84 
L 315.200974 -44.84 
L 315.557926 -44.84 
L 315.914877 -44.84 
L 316.271829 -44.84 
L 316.628781 -44.84 
L 316.985732 -44.84 
L 317.342684 -44.84 
L 317.699636 -44.84 
L 318.056587 -44.84 
L 318.413539 -44.84 
L 318.770491 -44.84 
L 319.127442 -44.84 
L 319.484394 -44.84 
L 319.841345 -44.84 
L 320.198297 -44.84 
L 320.555249 -44.84 
L 320.9122 -44.84 
L 321.269152 -44.84 
L 321.626104 -44.84 
L 321.983055 -44.84 
L 322.340007 -44.84 
L 322.696958 -44.84 
L 323.05391 -44.84 
L 323.410862 -44.84 
L 323.767813 -44.84 
L 324.124765 -44.84 
L 324.481717 -44.84 
L 324.838668 -44.84 
L 325.19562 -44.84 
L 325.552572 -44.84 
L 325.909523 -44.84 
L 326.266475 -44.84 
L 326.623426 -44.84 
L 326.980378 -44.84 
L 327.33733 -44.84 
L 327.694281 -44.84 
L 328.051233 -44.84 
L 328.408185 -44.84 
L 328.765136 -44.84 
L 329.122088 -44.84 
L 329.47904 -44.84 
L 329.835991 -44.84 
L 330.192943 -44.84 
L 330.549894 -44.84 
L 330.906846 -44.84 
L 331.263798 -44.84 
L 331.620749 -44.84 
L 331.977701 -44.84 
L 332.334653 -44.84 
L 332.691604 -44.84 
L 333.048556 -44.84 
L 333.405507 -44.84 
L 333.762459 -44.84 
L 334.119411 -44.84 
L 334.476362 -44.84 
L 334.833314 -44.84 
L 335.190266 -44.84 
L 335.547217 -44.84 
L 335.904169 -44.84 
L 336.261121 -44.84 
L 336.618072 -44.84 
L 336.975024 -44.84 
L 337.331975 -44.84 
L 337.688927 -44.84 
L 338.045879 -44.84 
L 338.40283 -44.84 
L 338.759782 -44.84 
L 339.116734 -44.84 
L 339.473685 -44.84 
L 339.830637 -44.84 
L 340.187588 -44.84 
L 340.54454 -44.84 
L 340.901492 -44.84 
L 341.258443 -44.84 
L 341.615395 -44.84 
L 341.972347 -44.84 
L 342.329298 -44.84 
L 342.68625 -44.84 
L 343.043202 -44.84 
L 343.400153 -44.84 
L 343.757105 -44.84 
L 344.114056 -44.84 
L 344.471008 -44.84 
L 344.82796 -44.84 
L 345.184911 -44.84 
L 345.541863 -44.84 
L 345.898815 -44.84 
L 346.255766 -44.84 
L 346.612718 -44.84 
L 346.96967 -44.84 
L 347.326621 -44.84 
L 347.683573 -44.84 
L 348.040524 -44.84 
L 348.397476 -44.84 
L 348.754428 -44.84 
L 349.111379 -44.84 
L 349.468331 -44.84 
L 349.825283 -44.84 
L 350.182234 -44.84 
L 350.539186 -44.84 
L 350.896137 -44.84 
L 351.253089 -44.84 
L 351.610041 -44.84 
L 351.966992 -44.84 
L 352.323944 -44.84 
L 352.680896 -44.84 
L 353.037847 -44.84 
L 353.394799 -44.84 
L 353.751751 -44.84 
L 354.108702 -44.84 
L 354.465654 -44.84 
L 354.822605 -44.84 
L 355.179557 -44.84 
L 355.536509 -44.84 
L 355.89346 -44.84 
L 356.250412 -44.84 
L 356.607364 -44.84 
L 356.964315 -44.84 
L 357.321267 -44.84 
L 357.678218 -44.84 
L 358.03517 -44.84 
L 358.392122 -44.84 
L 358.749073 -44.84 
L 359.106025 -44.84 
L 359.462977 -44.84 
L 359.819928 -44.84 
L 360.17688 -44.84 
L 360.533832 -44.84 
L 360.890783 -44.84 
L 361.247735 -44.84 
L 361.604686 -44.84 
L 361.961638 -44.84 
L 362.31859 -44.84 
L 362.675541 -44.84 
L 363.032493 -44.84 
L 363.389445 -44.84 
L 363.746396 -44.84 
L 364.103348 -44.84 
L 364.4603 -44.84 
L 364.817251 -44.84 
L 365.174203 -44.84 
L 365.531154 -44.84 
L 365.888106 -44.84 
L 366.245058 -44.84 
L 366.602009 -44.84 
L 366.958961 -44.84 
L 367.315913 -44.84 
L 367.672864 -44.84 
L 368.029816 -44.84 
L 368.386767 -44.84 
L 368.743719 -44.84 
L 369.100671 -44.84 
L 369.457622 -44.84 
L 369.814574 -44.84 
L 370.171526 -44.84 
L 370.528477 -44.84 
L 370.885429 -44.84 
L 371.242381 -44.84 
L 371.599332 -44.84 
L 371.956284 -44.84 
L 372.313235 -44.84 
L 372.670187 -44.84 
L 373.027139 -44.84 
L 373.38409 -44.84 
L 373.741042 -44.84 
L 374.097994 -44.84 
L 374.454945 -44.84 
L 374.811897 -44.84 
L 375.168849 -44.84 
L 375.5258 -44.84 
L 375.882752 -44.84 
L 376.239703 -44.84 
L 376.596655 -44.84 
L 376.953607 -44.84 
L 377.310558 -44.84 
L 377.66751 -44.84 
L 378.024462 -44.84 
L 378.381413 -44.84 
L 378.738365 -44.84 
L 379.095316 -44.84 
L 379.452268 -44.84 
L 379.80922 -44.84 
L 380.166171 -44.84 
L 380.523123 -44.84 
L 380.880075 -44.84 
L 381.237026 -44.84 
L 381.593978 -44.84 
L 381.95093 -44.84 
L 382.307881 -44.84 
L 382.664833 -44.84 
L 383.021784 -44.84 
L 383.378736 -44.84 
L 383.735688 -44.84 
L 384.092639 -44.84 
L 384.449591 -44.84 
L 384.449591 -45.79805 
L 384.449591 -45.79805 
L 384.092639 -46.24641 
L 383.735688 -46.87466 
L 383.378736 -47.741128 
L 383.021784 -48.91736 
L 382.664833 -50.489042 
L 382.307881 -52.556229 
L 381.95093 -55.232636 
L 381.593978 -58.643774 
L 381.237026 -62.923749 
L 380.880075 -68.210656 
L 380.523123 -74.640611 
L 380.166171 -82.340617 
L 379.80922 -91.420612 
L 379.452268 -101.965205 
L 379.095316 -114.025668 
L 378.738365 -127.612847 
L 378.381413 -142.691589 
L 378.024462 -159.177188 
L 377.66751 -176.934171 
L 377.310558 -195.777539 
L 376.953607 -215.476293 
L 376.596655 -235.758917 
L 376.239703 -256.320275 
L 375.882752 -276.829349 
L 375.5258 -296.937271 
L 375.168849 -316.285228 
L 374.811897 -334.512021 
L 374.454945 -351.261311 
L 374.097994 -366.188765 
L 373.741042 -378.969451 
L 373.38409 -389.30586 
L 373.027139 -396.936791 
L 372.670187 -401.647112 
L 372.313235 -403.278095 
L 371.956284 -401.737652 
L 371.599332 -397.009517 
L 371.242381 -389.160241 
L 370.885429 -378.342813 
L 370.528477 -364.79594 
L 370.171526 -348.838312 
L 369.814574 -330.857737 
L 369.457622 -311.295515 
L 369.100671 -290.627061 
L 368.743719 -269.34016 
L 368.386767 -247.912581 
L 368.029816 -226.790871 
L 367.672864 -206.371961 
L 367.315913 -186.988981 
L 366.958961 -168.902128 
L 366.602009 -152.294947 
L 366.245058 -137.275805 
L 365.888106 -123.883885 
L 365.531154 -112.098648 
L 365.174203 -101.851527 
L 364.817251 -93.038574 
L 364.4603 -85.532862 
L 364.103348 -79.195704 
L 363.746396 -73.885989 
L 363.389445 -69.467289 
L 363.032493 -65.812671 
L 362.675541 -62.807385 
L 362.31859 -60.349796 
L 361.961638 -58.351028 
L 361.604686 -56.733776 
L 361.247735 -55.430758 
L 360.890783 -54.383155 
L 360.533832 -53.539275 
L 360.17688 -52.853596 
L 359.819928 -52.286203 
L 359.462977 -51.802562 
L 359.106025 -51.373522 
L 358.749073 -50.975416 
L 358.392122 -50.590117 
L 358.03517 -50.20496 
L 357.678218 -49.812445 
L 357.321267 -49.409716 
L 356.964315 -48.997824 
L 356.607364 -48.580831 
L 356.250412 -48.16484 
L 355.89346 -47.757018 
L 355.536509 -47.364708 
L 355.179557 -46.994681 
L 354.822605 -46.652578 
L 354.465654 -46.342554 
L 354.108702 -46.067127 
L 353.751751 -45.827192 
L 353.394799 -45.622188 
L 353.037847 -45.450344 
L 352.680896 -45.308986 
L 352.323944 -45.194847 
L 351.966992 -45.104362 
L 351.610041 -45.033918 
L 351.253089 -44.980051 
L 350.896137 -44.939585 
L 350.539186 -44.909717 
L 350.182234 -44.888052 
L 349.825283 -44.872606 
L 349.468331 -44.861783 
L 349.111379 -44.854327 
L 348.754428 -44.849277 
L 348.397476 -44.845914 
L 348.040524 -44.843712 
L 347.683573 -44.842293 
L 347.326621 -44.841395 
L 346.96967 -44.840835 
L 346.612718 -44.840493 
L 346.255766 -44.840286 
L 345.898815 -44.840163 
L 345.541863 -44.840092 
L 345.184911 -44.840051 
L 344.82796 -44.840028 
L 344.471008 -44.840016 
L 344.114056 -44.840009 
L 343.757105 -44.840007 
L 343.400153 -44.840007 
L 343.043202 -44.840011 
L 342.68625 -44.84002 
L 342.329298 -44.840036 
L 341.972347 -44.840064 
L 341.615395 -44.840115 
L 341.258443 -44.840204 
L 340.901492 -44.840355 
L 340.54454 -44.840607 
L 340.187588 -44.841023 
L 339.830637 -44.841698 
L 339.473685 -44.842775 
L 339.116734 -44.844464 
L 338.759782 -44.847068 
L 338.40283 -44.85102 
L 338.045879 -44.856914 
L 337.688927 -44.865558 
L 337.331975 -44.87802 
L 336.975024 -44.895682 
L 336.618072 -44.920284 
L 336.261121 -44.953961 
L 335.904169 -44.999258 
L 335.547217 -45.059111 
L 335.190266 -45.136789 
L 334.833314 -45.23578 
L 334.476362 -45.359621 
L 334.119411 -45.511665 
L 333.762459 -45.694789 
L 333.405507 -45.911063 
L 333.048556 -46.161398 
L 332.691604 -46.445213 
L 332.334653 -46.760145 
L 331.977701 -47.101874 
L 331.620749 -47.464069 
L 331.263798 -47.83852 
L 330.906846 -48.215458 
L 330.549894 -48.584063 
L 330.192943 -48.933147 
L 329.835991 -49.251949 
L 329.47904 -49.530987 
L 329.122088 -49.762867 
L 328.765136 -49.942977 
L 328.408185 -50.069962 
L 328.051233 -50.145927 
L 327.694281 -50.17631 
L 327.33733 -50.169431 
L 326.980378 -50.13574 
L 326.623426 -50.086831 
L 326.266475 -50.034311 
L 325.909523 -49.988656 
L 325.552572 -49.958155 
L 325.19562 -49.948074 
L 324.838668 -49.960115 
L 324.481717 -49.992241 
L 324.124765 -50.038891 
L 323.767813 -50.09154 
L 323.410862 -50.139565 
L 323.05391 -50.171311 
L 322.696958 -50.175245 
L 322.340007 -50.141069 
L 321.983055 -50.060696 
L 321.626104 -49.928973 
L 321.269152 -49.744107 
L 320.9122 -49.507756 
L 320.555249 -49.224808 
L 320.198297 -48.902873 
L 319.841345 -48.551583 
L 319.484394 -48.181772 
L 319.127442 -47.804627 
L 318.770491 -47.430897 
L 318.413539 -47.070231 
L 318.056587 -46.730681 
L 317.699636 -46.418396 
L 317.342684 -46.137521 
L 316.985732 -45.890246 
L 316.628781 -45.677007 
L 316.271829 -45.496774 
L 315.914877 -45.347391 
L 315.557926 -45.225924 
L 315.200974 -45.128993 
L 314.844023 -45.053057 
L 314.487071 -44.99464 
L 314.130119 -44.950501 
L 313.773168 -44.917737 
L 313.416216 -44.89384 
z
" style="stroke: #92c5de; stroke-width: 2.5"/>
    </defs>
    <g clip-path="url(#pc02eff5c61)">
     <use xlink:href="#m9295bbad5c" x="0" y="432" style="fill: #92c5de; fill-opacity: 0.5; stroke: #92c5de; stroke-width: 2.5"/>
    </g>
   </g>
   <g id="PolyCollection_4">
    <defs>
     <path id="meabeccac7b" d="M 301.874197 -44.876075 
L 301.874197 -44.84 
L 302.279781 -44.84 
L 302.685364 -44.84 
L 303.090948 -44.84 
L 303.496531 -44.84 
L 303.902115 -44.84 
L 304.307698 -44.84 
L 304.713282 -44.84 
L 305.118865 -44.84 
L 305.524448 -44.84 
L 305.930032 -44.84 
L 306.335615 -44.84 
L 306.741199 -44.84 
L 307.146782 -44.84 
L 307.552366 -44.84 
L 307.957949 -44.84 
L 308.363533 -44.84 
L 308.769116 -44.84 
L 309.1747 -44.84 
L 309.580283 -44.84 
L 309.985867 -44.84 
L 310.39145 -44.84 
L 310.797034 -44.84 
L 311.202617 -44.84 
L 311.608201 -44.84 
L 312.013784 -44.84 
L 312.419368 -44.84 
L 312.824951 -44.84 
L 313.230535 -44.84 
L 313.636118 -44.84 
L 314.041702 -44.84 
L 314.447285 -44.84 
L 314.852869 -44.84 
L 315.258452 -44.84 
L 315.664036 -44.84 
L 316.069619 -44.84 
L 316.475203 -44.84 
L 316.880786 -44.84 
L 317.28637 -44.84 
L 317.691953 -44.84 
L 318.097537 -44.84 
L 318.50312 -44.84 
L 318.908704 -44.84 
L 319.314287 -44.84 
L 319.719871 -44.84 
L 320.125454 -44.84 
L 320.531037 -44.84 
L 320.936621 -44.84 
L 321.342204 -44.84 
L 321.747788 -44.84 
L 322.153371 -44.84 
L 322.558955 -44.84 
L 322.964538 -44.84 
L 323.370122 -44.84 
L 323.775705 -44.84 
L 324.181289 -44.84 
L 324.586872 -44.84 
L 324.992456 -44.84 
L 325.398039 -44.84 
L 325.803623 -44.84 
L 326.209206 -44.84 
L 326.61479 -44.84 
L 327.020373 -44.84 
L 327.425957 -44.84 
L 327.83154 -44.84 
L 328.237124 -44.84 
L 328.642707 -44.84 
L 329.048291 -44.84 
L 329.453874 -44.84 
L 329.859458 -44.84 
L 330.265041 -44.84 
L 330.670625 -44.84 
L 331.076208 -44.84 
L 331.481792 -44.84 
L 331.887375 -44.84 
L 332.292959 -44.84 
L 332.698542 -44.84 
L 333.104126 -44.84 
L 333.509709 -44.84 
L 333.915293 -44.84 
L 334.320876 -44.84 
L 334.726459 -44.84 
L 335.132043 -44.84 
L 335.537626 -44.84 
L 335.94321 -44.84 
L 336.348793 -44.84 
L 336.754377 -44.84 
L 337.15996 -44.84 
L 337.565544 -44.84 
L 337.971127 -44.84 
L 338.376711 -44.84 
L 338.782294 -44.84 
L 339.187878 -44.84 
L 339.593461 -44.84 
L 339.999045 -44.84 
L 340.404628 -44.84 
L 340.810212 -44.84 
L 341.215795 -44.84 
L 341.621379 -44.84 
L 342.026962 -44.84 
L 342.432546 -44.84 
L 342.838129 -44.84 
L 343.243713 -44.84 
L 343.649296 -44.84 
L 344.05488 -44.84 
L 344.460463 -44.84 
L 344.866047 -44.84 
L 345.27163 -44.84 
L 345.677214 -44.84 
L 346.082797 -44.84 
L 346.488381 -44.84 
L 346.893964 -44.84 
L 347.299548 -44.84 
L 347.705131 -44.84 
L 348.110715 -44.84 
L 348.516298 -44.84 
L 348.921881 -44.84 
L 349.327465 -44.84 
L 349.733048 -44.84 
L 350.138632 -44.84 
L 350.544215 -44.84 
L 350.949799 -44.84 
L 351.355382 -44.84 
L 351.760966 -44.84 
L 352.166549 -44.84 
L 352.572133 -44.84 
L 352.977716 -44.84 
L 353.3833 -44.84 
L 353.788883 -44.84 
L 354.194467 -44.84 
L 354.60005 -44.84 
L 355.005634 -44.84 
L 355.411217 -44.84 
L 355.816801 -44.84 
L 356.222384 -44.84 
L 356.627968 -44.84 
L 357.033551 -44.84 
L 357.439135 -44.84 
L 357.844718 -44.84 
L 358.250302 -44.84 
L 358.655885 -44.84 
L 359.061469 -44.84 
L 359.467052 -44.84 
L 359.872636 -44.84 
L 360.278219 -44.84 
L 360.683803 -44.84 
L 361.089386 -44.84 
L 361.49497 -44.84 
L 361.900553 -44.84 
L 362.306137 -44.84 
L 362.71172 -44.84 
L 363.117303 -44.84 
L 363.522887 -44.84 
L 363.92847 -44.84 
L 364.334054 -44.84 
L 364.739637 -44.84 
L 365.145221 -44.84 
L 365.550804 -44.84 
L 365.956388 -44.84 
L 366.361971 -44.84 
L 366.767555 -44.84 
L 367.173138 -44.84 
L 367.578722 -44.84 
L 367.984305 -44.84 
L 368.389889 -44.84 
L 368.795472 -44.84 
L 369.201056 -44.84 
L 369.606639 -44.84 
L 370.012223 -44.84 
L 370.417806 -44.84 
L 370.82339 -44.84 
L 371.228973 -44.84 
L 371.634557 -44.84 
L 372.04014 -44.84 
L 372.445724 -44.84 
L 372.851307 -44.84 
L 373.256891 -44.84 
L 373.662474 -44.84 
L 374.068058 -44.84 
L 374.473641 -44.84 
L 374.879225 -44.84 
L 375.284808 -44.84 
L 375.690392 -44.84 
L 376.095975 -44.84 
L 376.501559 -44.84 
L 376.907142 -44.84 
L 377.312726 -44.84 
L 377.718309 -44.84 
L 378.123892 -44.84 
L 378.529476 -44.84 
L 378.935059 -44.84 
L 379.340643 -44.84 
L 379.746226 -44.84 
L 380.15181 -44.84 
L 380.557393 -44.84 
L 380.962977 -44.84 
L 381.36856 -44.84 
L 381.774144 -44.84 
L 382.179727 -44.84 
L 382.585311 -44.84 
L 382.585311 -44.977468 
L 382.585311 -44.977468 
L 382.179727 -45.025337 
L 381.774144 -45.087944 
L 381.36856 -45.169155 
L 380.962977 -45.273636 
L 380.557393 -45.40696 
L 380.15181 -45.57571 
L 379.746226 -45.787581 
L 379.340643 -46.051463 
L 378.935059 -46.377512 
L 378.529476 -46.777197 
L 378.123892 -47.263311 
L 377.718309 -47.849958 
L 377.312726 -48.55248 
L 376.907142 -49.387354 
L 376.501559 -50.372028 
L 376.095975 -51.524706 
L 375.690392 -52.864079 
L 375.284808 -54.409009 
L 374.879225 -56.178158 
L 374.473641 -58.18958 
L 374.068058 -60.460275 
L 373.662474 -63.005719 
L 373.256891 -65.839374 
L 372.851307 -68.972199 
L 372.445724 -72.412166 
L 372.04014 -76.163791 
L 371.634557 -80.227703 
L 371.228973 -84.600253 
L 370.82339 -89.273186 
L 370.417806 -94.233371 
L 370.012223 -99.46263 
L 369.606639 -104.937647 
L 369.201056 -110.62999 
L 368.795472 -116.506254 
L 368.389889 -122.528321 
L 367.984305 -128.653763 
L 367.578722 -134.836372 
L 367.173138 -141.026831 
L 366.767555 -147.173506 
L 366.361971 -153.223355 
L 365.956388 -159.122926 
L 365.550804 -164.819424 
L 365.145221 -170.261803 
L 364.739637 -175.40186 
L 364.334054 -180.195273 
L 363.92847 -184.602555 
L 363.522887 -188.589869 
L 363.117303 -192.129686 
L 362.71172 -195.201235 
L 362.306137 -197.790741 
L 361.900553 -199.891437 
L 361.49497 -201.503343 
L 361.089386 -202.632846 
L 360.683803 -203.292082 
L 360.278219 -203.498175 
L 359.872636 -203.272363 
L 359.467052 -202.639066 
L 359.061469 -201.624932 
L 358.655885 -200.257923 
L 358.250302 -198.566471 
L 357.844718 -196.578743 
L 357.439135 -194.322036 
L 357.033551 -191.82233 
L 356.627968 -189.103987 
L 356.222384 -186.189604 
L 355.816801 -183.100001 
L 355.411217 -179.854325 
L 355.005634 -176.470244 
L 354.60005 -172.964194 
L 354.194467 -169.351668 
L 353.788883 -165.647498 
L 353.3833 -161.866125 
L 352.977716 -158.02182 
L 352.572133 -154.128861 
L 352.166549 -150.201637 
L 351.760966 -146.254703 
L 351.355382 -142.302763 
L 350.949799 -138.360609 
L 350.544215 -134.443015 
L 350.138632 -130.564595 
L 349.733048 -126.739653 
L 349.327465 -122.982011 
L 348.921881 -119.304849 
L 348.516298 -115.720536 
L 348.110715 -112.240487 
L 347.705131 -108.875023 
L 347.299548 -105.633249 
L 346.893964 -102.522943 
L 346.488381 -99.550465 
L 346.082797 -96.720672 
L 345.677214 -94.036862 
L 345.27163 -91.500724 
L 344.866047 -89.112324 
L 344.460463 -86.870112 
L 344.05488 -84.770961 
L 343.649296 -82.810246 
L 343.243713 -80.981964 
L 342.838129 -79.278893 
L 342.432546 -77.692787 
L 342.026962 -76.214618 
L 341.621379 -74.834835 
L 341.215795 -73.543649 
L 340.810212 -72.331327 
L 340.404628 -71.188476 
L 339.999045 -70.106314 
L 339.593461 -69.07691 
L 339.187878 -68.093376 
L 338.782294 -67.150015 
L 338.376711 -66.242401 
L 337.971127 -65.367407 
L 337.565544 -64.523166 
L 337.15996 -63.708976 
L 336.754377 -62.925156 
L 336.348793 -62.172866 
L 335.94321 -61.453892 
L 335.537626 -60.770428 
L 335.132043 -60.124851 
L 334.726459 -59.519512 
L 334.320876 -58.956548 
L 333.915293 -58.437731 
L 333.509709 -57.964354 
L 333.104126 -57.537155 
L 332.698542 -57.156284 
L 332.292959 -56.821303 
L 331.887375 -56.531224 
L 331.481792 -56.284557 
L 331.076208 -56.079381 
L 330.670625 -55.913416 
L 330.265041 -55.78409 
L 329.859458 -55.6886 
L 329.453874 -55.623956 
L 329.048291 -55.587013 
L 328.642707 -55.574486 
L 328.237124 -55.582954 
L 327.83154 -55.60886 
L 327.425957 -55.648507 
L 327.020373 -55.698064 
L 326.61479 -55.753577 
L 326.209206 -55.811006 
L 325.803623 -55.866266 
L 325.398039 -55.915302 
L 324.992456 -55.954165 
L 324.586872 -55.979115 
L 324.181289 -55.986718 
L 323.775705 -55.973946 
L 323.370122 -55.938273 
L 322.964538 -55.877745 
L 322.558955 -55.791037 
L 322.153371 -55.677471 
L 321.747788 -55.537016 
L 321.342204 -55.37025 
L 320.936621 -55.178292 
L 320.531037 -54.962722 
L 320.125454 -54.725469 
L 319.719871 -54.4687 
L 319.314287 -54.194708 
L 318.908704 -53.905796 
L 318.50312 -53.60419 
L 318.097537 -53.291964 
L 317.691953 -52.970982 
L 317.28637 -52.642883 
L 316.880786 -52.309073 
L 316.475203 -51.970751 
L 316.069619 -51.628951 
L 315.664036 -51.284593 
L 315.258452 -50.938542 
L 314.852869 -50.591674 
L 314.447285 -50.244926 
L 314.041702 -49.899343 
L 313.636118 -49.556103 
L 313.230535 -49.216532 
L 312.824951 -48.882094 
L 312.419368 -48.554372 
L 312.013784 -48.235025 
L 311.608201 -47.925741 
L 311.202617 -47.628178 
L 310.797034 -47.343904 
L 310.39145 -47.074342 
L 309.985867 -46.820714 
L 309.580283 -46.584001 
L 309.1747 -46.364908 
L 308.769116 -46.16385 
L 308.363533 -45.980945 
L 307.957949 -45.816024 
L 307.552366 -45.668648 
L 307.146782 -45.538141 
L 306.741199 -45.423626 
L 306.335615 -45.324065 
L 305.930032 -45.238303 
L 305.524448 -45.16511 
L 305.118865 -45.103224 
L 304.713282 -45.051384 
L 304.307698 -45.008363 
L 303.902115 -44.972992 
L 303.496531 -44.944182 
L 303.090948 -44.920933 
L 302.685364 -44.902347 
L 302.279781 -44.887626 
L 301.874197 -44.876075 
z
" style="stroke: #f4a582; stroke-width: 2.5"/>
    </defs>
    <g clip-path="url(#pc02eff5c61)">
     <use xlink:href="#meabeccac7b" x="0" y="432" style="fill: #f4a582; fill-opacity: 0.5; stroke: #f4a582; stroke-width: 2.5"/>
    </g>
   </g>
   <g id="matplotlib.axis_1">
    <g id="xtick_1">
     <g id="line2d_1">
      <defs>
       <path id="mda389d2b47" d="M 0 0 
L 0 3.5 
" style="stroke: #000000; stroke-width: 0.8"/>
      </defs>
      <g>
       <use xlink:href="#mda389d2b47" x="72.891883" y="387.16" style="stroke: #000000; stroke-width: 0.8"/>
      </g>
     </g>
     <g id="text_1">
      <!-- 3.90 -->
      <g transform="translate(61.75907 401.758438) scale(0.1 -0.1)">
       <defs>
        <path id="DejaVuSans-33" d="M 2597 2516 
Q 3050 2419 3304 2112 
Q 3559 1806 3559 1356 
Q 3559 666 3084 287 
Q 2609 -91 1734 -91 
Q 1441 -91 1130 -33 
Q 819 25 488 141 
L 488 750 
Q 750 597 1062 519 
Q 1375 441 1716 441 
Q 2309 441 2620 675 
Q 2931 909 2931 1356 
Q 2931 1769 2642 2001 
Q 2353 2234 1838 2234 
L 1294 2234 
L 1294 2753 
L 1863 2753 
Q 2328 2753 2575 2939 
Q 2822 3125 2822 3475 
Q 2822 3834 2567 4026 
Q 2313 4219 1838 4219 
Q 1578 4219 1281 4162 
Q 984 4106 628 3988 
L 628 4550 
Q 988 4650 1302 4700 
Q 1616 4750 1894 4750 
Q 2613 4750 3031 4423 
Q 3450 4097 3450 3541 
Q 3450 3153 3228 2886 
Q 3006 2619 2597 2516 
z
" transform="scale(0.015625)"/>
        <path id="DejaVuSans-2e" d="M 684 794 
L 1344 794 
L 1344 0 
L 684 0 
L 684 794 
z
" transform="scale(0.015625)"/>
        <path id="DejaVuSans-39" d="M 703 97 
L 703 672 
Q 941 559 1184 500 
Q 1428 441 1663 441 
Q 2288 441 2617 861 
Q 2947 1281 2994 2138 
Q 2813 1869 2534 1725 
Q 2256 1581 1919 1581 
Q 1219 1581 811 2004 
Q 403 2428 403 3163 
Q 403 3881 828 4315 
Q 1253 4750 1959 4750 
Q 2769 4750 3195 4129 
Q 3622 3509 3622 2328 
Q 3622 1225 3098 567 
Q 2575 -91 1691 -91 
Q 1453 -91 1209 -44 
Q 966 3 703 97 
z
M 1959 2075 
Q 2384 2075 2632 2365 
Q 2881 2656 2881 3163 
Q 2881 3666 2632 3958 
Q 2384 4250 1959 4250 
Q 1534 4250 1286 3958 
Q 1038 3666 1038 3163 
Q 1038 2656 1286 2365 
Q 1534 2075 1959 2075 
z
" transform="scale(0.015625)"/>
        <path id="DejaVuSans-30" d="M 2034 4250 
Q 1547 4250 1301 3770 
Q 1056 3291 1056 2328 
Q 1056 1369 1301 889 
Q 1547 409 2034 409 
Q 2525 409 2770 889 
Q 3016 1369 3016 2328 
Q 3016 3291 2770 3770 
Q 2525 4250 2034 4250 
z
M 2034 4750 
Q 2819 4750 3233 4129 
Q 3647 3509 3647 2328 
Q 3647 1150 3233 529 
Q 2819 -91 2034 -91 
Q 1250 -91 836 529 
Q 422 1150 422 2328 
Q 422 3509 836 4129 
Q 1250 4750 2034 4750 
z
" transform="scale(0.015625)"/>
       </defs>
       <use xlink:href="#DejaVuSans-33"/>
       <use xlink:href="#DejaVuSans-2e" x="63.623047"/>
       <use xlink:href="#DejaVuSans-39" x="95.410156"/>
       <use xlink:href="#DejaVuSans-30" x="159.033203"/>
      </g>
     </g>
    </g>
    <g id="xtick_2">
     <g id="line2d_2">
      <g>
       <use xlink:href="#mda389d2b47" x="120.932083" y="387.16" style="stroke: #000000; stroke-width: 0.8"/>
      </g>
     </g>
     <g id="text_2">
      <!-- 3.95 -->
      <g transform="translate(109.799271 401.758438) scale(0.1 -0.1)">
       <defs>
        <path id="DejaVuSans-35" d="M 691 4666 
L 3169 4666 
L 3169 4134 
L 1269 4134 
L 1269 2991 
Q 1406 3038 1543 3061 
Q 1681 3084 1819 3084 
Q 2600 3084 3056 2656 
Q 3513 2228 3513 1497 
Q 3513 744 3044 326 
Q 2575 -91 1722 -91 
Q 1428 -91 1123 -41 
Q 819 9 494 109 
L 494 744 
Q 775 591 1075 516 
Q 1375 441 1709 441 
Q 2250 441 2565 725 
Q 2881 1009 2881 1497 
Q 2881 1984 2565 2268 
Q 2250 2553 1709 2553 
Q 1456 2553 1204 2497 
Q 953 2441 691 2322 
L 691 4666 
z
" transform="scale(0.015625)"/>
       </defs>
       <use xlink:href="#DejaVuSans-33"/>
       <use xlink:href="#DejaVuSans-2e" x="63.623047"/>
       <use xlink:href="#DejaVuSans-39" x="95.410156"/>
       <use xlink:href="#DejaVuSans-35" x="159.033203"/>
      </g>
     </g>
    </g>
    <g id="xtick_3">
     <g id="line2d_3">
      <g>
       <use xlink:href="#mda389d2b47" x="168.972283" y="387.16" style="stroke: #000000; stroke-width: 0.8"/>
      </g>
     </g>
     <g id="text_3">
      <!-- 4.00 -->
      <g transform="translate(157.839471 401.758438) scale(0.1 -0.1)">
       <defs>
        <path id="DejaVuSans-34" d="M 2419 4116 
L 825 1625 
L 2419 1625 
L 2419 4116 
z
M 2253 4666 
L 3047 4666 
L 3047 1625 
L 3713 1625 
L 3713 1100 
L 3047 1100 
L 3047 0 
L 2419 0 
L 2419 1100 
L 313 1100 
L 313 1709 
L 2253 4666 
z
" transform="scale(0.015625)"/>
       </defs>
       <use xlink:href="#DejaVuSans-34"/>
       <use xlink:href="#DejaVuSans-2e" x="63.623047"/>
       <use xlink:href="#DejaVuSans-30" x="95.410156"/>
       <use xlink:href="#DejaVuSans-30" x="159.033203"/>
      </g>
     </g>
    </g>
    <g id="xtick_4">
     <g id="line2d_4">
      <g>
       <use xlink:href="#mda389d2b47" x="217.012484" y="387.16" style="stroke: #000000; stroke-width: 0.8"/>
      </g>
     </g>
     <g id="text_4">
      <!-- 4.05 -->
      <g transform="translate(205.879671 401.758438) scale(0.1 -0.1)">
       <use xlink:href="#DejaVuSans-34"/>
       <use xlink:href="#DejaVuSans-2e" x="63.623047"/>
       <use xlink:href="#DejaVuSans-30" x="95.410156"/>
       <use xlink:href="#DejaVuSans-35" x="159.033203"/>
      </g>
     </g>
    </g>
    <g id="xtick_5">
     <g id="line2d_5">
      <g>
       <use xlink:href="#mda389d2b47" x="265.052684" y="387.16" style="stroke: #000000; stroke-width: 0.8"/>
      </g>
     </g>
     <g id="text_5">
      <!-- 4.10 -->
      <g transform="translate(253.919871 401.758438) scale(0.1 -0.1)">
       <defs>
        <path id="DejaVuSans-31" d="M 794 531 
L 1825 531 
L 1825 4091 
L 703 3866 
L 703 4441 
L 1819 4666 
L 2450 4666 
L 2450 531 
L 3481 531 
L 3481 0 
L 794 0 
L 794 531 
z
" transform="scale(0.015625)"/>
       </defs>
       <use xlink:href="#DejaVuSans-34"/>
       <use xlink:href="#DejaVuSans-2e" x="63.623047"/>
       <use xlink:href="#DejaVuSans-31" x="95.410156"/>
       <use xlink:href="#DejaVuSans-30" x="159.033203"/>
      </g>
     </g>
    </g>
    <g id="xtick_6">
     <g id="line2d_6">
      <g>
       <use xlink:href="#mda389d2b47" x="313.092884" y="387.16" style="stroke: #000000; stroke-width: 0.8"/>
      </g>
     </g>
     <g id="text_6">
      <!-- 4.15 -->
      <g transform="translate(301.960072 401.758438) scale(0.1 -0.1)">
       <use xlink:href="#DejaVuSans-34"/>
       <use xlink:href="#DejaVuSans-2e" x="63.623047"/>
       <use xlink:href="#DejaVuSans-31" x="95.410156"/>
       <use xlink:href="#DejaVuSans-35" x="159.033203"/>
      </g>
     </g>
    </g>
    <g id="xtick_7">
     <g id="line2d_7">
      <g>
       <use xlink:href="#mda389d2b47" x="361.133085" y="387.16" style="stroke: #000000; stroke-width: 0.8"/>
      </g>
     </g>
     <g id="text_7">
      <!-- 4.20 -->
      <g transform="translate(350.000272 401.758438) scale(0.1 -0.1)">
       <defs>
        <path id="DejaVuSans-32" d="M 1228 531 
L 3431 531 
L 3431 0 
L 469 0 
L 469 531 
Q 828 903 1448 1529 
Q 2069 2156 2228 2338 
Q 2531 2678 2651 2914 
Q 2772 3150 2772 3378 
Q 2772 3750 2511 3984 
Q 2250 4219 1831 4219 
Q 1534 4219 1204 4116 
Q 875 4013 500 3803 
L 500 4441 
Q 881 4594 1212 4672 
Q 1544 4750 1819 4750 
Q 2544 4750 2975 4387 
Q 3406 4025 3406 3419 
Q 3406 3131 3298 2873 
Q 3191 2616 2906 2266 
Q 2828 2175 2409 1742 
Q 1991 1309 1228 531 
z
" transform="scale(0.015625)"/>
       </defs>
       <use xlink:href="#DejaVuSans-34"/>
       <use xlink:href="#DejaVuSans-2e" x="63.623047"/>
       <use xlink:href="#DejaVuSans-32" x="95.410156"/>
       <use xlink:href="#DejaVuSans-30" x="159.033203"/>
      </g>
     </g>
    </g>
    <g id="xtick_8">
     <g id="line2d_8">
      <g>
       <use xlink:href="#mda389d2b47" x="409.173285" y="387.16" style="stroke: #000000; stroke-width: 0.8"/>
      </g>
     </g>
     <g id="text_8">
      <!-- 4.25 -->
      <g transform="translate(398.040472 401.758438) scale(0.1 -0.1)">
       <use xlink:href="#DejaVuSans-34"/>
       <use xlink:href="#DejaVuSans-2e" x="63.623047"/>
       <use xlink:href="#DejaVuSans-32" x="95.410156"/>
       <use xlink:href="#DejaVuSans-35" x="159.033203"/>
      </g>
     </g>
    </g>
    <g id="text_9">
     <!-- Predicted Fluorescence -->
     <g transform="translate(168.043113 416.95625) scale(0.12 -0.12)">
      <defs>
       <path id="DejaVuSans-50" d="M 1259 4147 
L 1259 2394 
L 2053 2394 
Q 2494 2394 2734 2622 
Q 2975 2850 2975 3272 
Q 2975 3691 2734 3919 
Q 2494 4147 2053 4147 
L 1259 4147 
z
M 628 4666 
L 2053 4666 
Q 2838 4666 3239 4311 
Q 3641 3956 3641 3272 
Q 3641 2581 3239 2228 
Q 2838 1875 2053 1875 
L 1259 1875 
L 1259 0 
L 628 0 
L 628 4666 
z
" transform="scale(0.015625)"/>
       <path id="DejaVuSans-72" d="M 2631 2963 
Q 2534 3019 2420 3045 
Q 2306 3072 2169 3072 
Q 1681 3072 1420 2755 
Q 1159 2438 1159 1844 
L 1159 0 
L 581 0 
L 581 3500 
L 1159 3500 
L 1159 2956 
Q 1341 3275 1631 3429 
Q 1922 3584 2338 3584 
Q 2397 3584 2469 3576 
Q 2541 3569 2628 3553 
L 2631 2963 
z
" transform="scale(0.015625)"/>
       <path id="DejaVuSans-65" d="M 3597 1894 
L 3597 1613 
L 953 1613 
Q 991 1019 1311 708 
Q 1631 397 2203 397 
Q 2534 397 2845 478 
Q 3156 559 3463 722 
L 3463 178 
Q 3153 47 2828 -22 
Q 2503 -91 2169 -91 
Q 1331 -91 842 396 
Q 353 884 353 1716 
Q 353 2575 817 3079 
Q 1281 3584 2069 3584 
Q 2775 3584 3186 3129 
Q 3597 2675 3597 1894 
z
M 3022 2063 
Q 3016 2534 2758 2815 
Q 2500 3097 2075 3097 
Q 1594 3097 1305 2825 
Q 1016 2553 972 2059 
L 3022 2063 
z
" transform="scale(0.015625)"/>
       <path id="DejaVuSans-64" d="M 2906 2969 
L 2906 4863 
L 3481 4863 
L 3481 0 
L 2906 0 
L 2906 525 
Q 2725 213 2448 61 
Q 2172 -91 1784 -91 
Q 1150 -91 751 415 
Q 353 922 353 1747 
Q 353 2572 751 3078 
Q 1150 3584 1784 3584 
Q 2172 3584 2448 3432 
Q 2725 3281 2906 2969 
z
M 947 1747 
Q 947 1113 1208 752 
Q 1469 391 1925 391 
Q 2381 391 2643 752 
Q 2906 1113 2906 1747 
Q 2906 2381 2643 2742 
Q 2381 3103 1925 3103 
Q 1469 3103 1208 2742 
Q 947 2381 947 1747 
z
" transform="scale(0.015625)"/>
       <path id="DejaVuSans-69" d="M 603 3500 
L 1178 3500 
L 1178 0 
L 603 0 
L 603 3500 
z
M 603 4863 
L 1178 4863 
L 1178 4134 
L 603 4134 
L 603 4863 
z
" transform="scale(0.015625)"/>
       <path id="DejaVuSans-63" d="M 3122 3366 
L 3122 2828 
Q 2878 2963 2633 3030 
Q 2388 3097 2138 3097 
Q 1578 3097 1268 2742 
Q 959 2388 959 1747 
Q 959 1106 1268 751 
Q 1578 397 2138 397 
Q 2388 397 2633 464 
Q 2878 531 3122 666 
L 3122 134 
Q 2881 22 2623 -34 
Q 2366 -91 2075 -91 
Q 1284 -91 818 406 
Q 353 903 353 1747 
Q 353 2603 823 3093 
Q 1294 3584 2113 3584 
Q 2378 3584 2631 3529 
Q 2884 3475 3122 3366 
z
" transform="scale(0.015625)"/>
       <path id="DejaVuSans-74" d="M 1172 4494 
L 1172 3500 
L 2356 3500 
L 2356 3053 
L 1172 3053 
L 1172 1153 
Q 1172 725 1289 603 
Q 1406 481 1766 481 
L 2356 481 
L 2356 0 
L 1766 0 
Q 1100 0 847 248 
Q 594 497 594 1153 
L 594 3053 
L 172 3053 
L 172 3500 
L 594 3500 
L 594 4494 
L 1172 4494 
z
" transform="scale(0.015625)"/>
       <path id="DejaVuSans-20" transform="scale(0.015625)"/>
       <path id="DejaVuSans-46" d="M 628 4666 
L 3309 4666 
L 3309 4134 
L 1259 4134 
L 1259 2759 
L 3109 2759 
L 3109 2228 
L 1259 2228 
L 1259 0 
L 628 0 
L 628 4666 
z
" transform="scale(0.015625)"/>
       <path id="DejaVuSans-6c" d="M 603 4863 
L 1178 4863 
L 1178 0 
L 603 0 
L 603 4863 
z
" transform="scale(0.015625)"/>
       <path id="DejaVuSans-75" d="M 544 1381 
L 544 3500 
L 1119 3500 
L 1119 1403 
Q 1119 906 1312 657 
Q 1506 409 1894 409 
Q 2359 409 2629 706 
Q 2900 1003 2900 1516 
L 2900 3500 
L 3475 3500 
L 3475 0 
L 2900 0 
L 2900 538 
Q 2691 219 2414 64 
Q 2138 -91 1772 -91 
Q 1169 -91 856 284 
Q 544 659 544 1381 
z
M 1991 3584 
L 1991 3584 
z
" transform="scale(0.015625)"/>
       <path id="DejaVuSans-6f" d="M 1959 3097 
Q 1497 3097 1228 2736 
Q 959 2375 959 1747 
Q 959 1119 1226 758 
Q 1494 397 1959 397 
Q 2419 397 2687 759 
Q 2956 1122 2956 1747 
Q 2956 2369 2687 2733 
Q 2419 3097 1959 3097 
z
M 1959 3584 
Q 2709 3584 3137 3096 
Q 3566 2609 3566 1747 
Q 3566 888 3137 398 
Q 2709 -91 1959 -91 
Q 1206 -91 779 398 
Q 353 888 353 1747 
Q 353 2609 779 3096 
Q 1206 3584 1959 3584 
z
" transform="scale(0.015625)"/>
       <path id="DejaVuSans-73" d="M 2834 3397 
L 2834 2853 
Q 2591 2978 2328 3040 
Q 2066 3103 1784 3103 
Q 1356 3103 1142 2972 
Q 928 2841 928 2578 
Q 928 2378 1081 2264 
Q 1234 2150 1697 2047 
L 1894 2003 
Q 2506 1872 2764 1633 
Q 3022 1394 3022 966 
Q 3022 478 2636 193 
Q 2250 -91 1575 -91 
Q 1294 -91 989 -36 
Q 684 19 347 128 
L 347 722 
Q 666 556 975 473 
Q 1284 391 1588 391 
Q 1994 391 2212 530 
Q 2431 669 2431 922 
Q 2431 1156 2273 1281 
Q 2116 1406 1581 1522 
L 1381 1569 
Q 847 1681 609 1914 
Q 372 2147 372 2553 
Q 372 3047 722 3315 
Q 1072 3584 1716 3584 
Q 2034 3584 2315 3537 
Q 2597 3491 2834 3397 
z
" transform="scale(0.015625)"/>
       <path id="DejaVuSans-6e" d="M 3513 2113 
L 3513 0 
L 2938 0 
L 2938 2094 
Q 2938 2591 2744 2837 
Q 2550 3084 2163 3084 
Q 1697 3084 1428 2787 
Q 1159 2491 1159 1978 
L 1159 0 
L 581 0 
L 581 3500 
L 1159 3500 
L 1159 2956 
Q 1366 3272 1645 3428 
Q 1925 3584 2291 3584 
Q 2894 3584 3203 3211 
Q 3513 2838 3513 2113 
z
" transform="scale(0.015625)"/>
      </defs>
      <use xlink:href="#DejaVuSans-50"/>
      <use xlink:href="#DejaVuSans-72" x="58.552734"/>
      <use xlink:href="#DejaVuSans-65" x="97.416016"/>
      <use xlink:href="#DejaVuSans-64" x="158.939453"/>
      <use xlink:href="#DejaVuSans-69" x="222.416016"/>
      <use xlink:href="#DejaVuSans-63" x="250.199219"/>
      <use xlink:href="#DejaVuSans-74" x="305.179688"/>
      <use xlink:href="#DejaVuSans-65" x="344.388672"/>
      <use xlink:href="#DejaVuSans-64" x="405.912109"/>
      <use xlink:href="#DejaVuSans-20" x="469.388672"/>
      <use xlink:href="#DejaVuSans-46" x="501.175781"/>
      <use xlink:href="#DejaVuSans-6c" x="558.695312"/>
      <use xlink:href="#DejaVuSans-75" x="586.478516"/>
      <use xlink:href="#DejaVuSans-6f" x="649.857422"/>
      <use xlink:href="#DejaVuSans-72" x="711.039062"/>
      <use xlink:href="#DejaVuSans-65" x="749.902344"/>
      <use xlink:href="#DejaVuSans-73" x="811.425781"/>
      <use xlink:href="#DejaVuSans-63" x="863.525391"/>
      <use xlink:href="#DejaVuSans-65" x="918.505859"/>
      <use xlink:href="#DejaVuSans-6e" x="980.029297"/>
      <use xlink:href="#DejaVuSans-63" x="1043.408203"/>
      <use xlink:href="#DejaVuSans-65" x="1098.388672"/>
     </g>
    </g>
   </g>
   <g id="matplotlib.axis_2">
    <g id="ytick_1">
     <g id="line2d_9">
      <defs>
       <path id="mf32cd6fe9d" d="M 0 0 
L -3.5 0 
" style="stroke: #000000; stroke-width: 0.8"/>
      </defs>
      <g>
       <use xlink:href="#mf32cd6fe9d" x="54.47" y="387.16" style="stroke: #000000; stroke-width: 0.8"/>
      </g>
     </g>
     <g id="text_10">
      <!-- 0 -->
      <g transform="translate(41.1075 390.959219) scale(0.1 -0.1)">
       <use xlink:href="#DejaVuSans-30"/>
      </g>
     </g>
    </g>
    <g id="ytick_2">
     <g id="line2d_10">
      <g>
       <use xlink:href="#mf32cd6fe9d" x="54.47" y="314.974581" style="stroke: #000000; stroke-width: 0.8"/>
      </g>
     </g>
     <g id="text_11">
      <!-- 20 -->
      <g transform="translate(34.745 318.7738) scale(0.1 -0.1)">
       <use xlink:href="#DejaVuSans-32"/>
       <use xlink:href="#DejaVuSans-30" x="63.623047"/>
      </g>
     </g>
    </g>
    <g id="ytick_3">
     <g id="line2d_11">
      <g>
       <use xlink:href="#mf32cd6fe9d" x="54.47" y="242.789163" style="stroke: #000000; stroke-width: 0.8"/>
      </g>
     </g>
     <g id="text_12">
      <!-- 40 -->
      <g transform="translate(34.745 246.588381) scale(0.1 -0.1)">
       <use xlink:href="#DejaVuSans-34"/>
       <use xlink:href="#DejaVuSans-30" x="63.623047"/>
      </g>
     </g>
    </g>
    <g id="ytick_4">
     <g id="line2d_12">
      <g>
       <use xlink:href="#mf32cd6fe9d" x="54.47" y="170.603744" style="stroke: #000000; stroke-width: 0.8"/>
      </g>
     </g>
     <g id="text_13">
      <!-- 60 -->
      <g transform="translate(34.745 174.402963) scale(0.1 -0.1)">
       <defs>
        <path id="DejaVuSans-36" d="M 2113 2584 
Q 1688 2584 1439 2293 
Q 1191 2003 1191 1497 
Q 1191 994 1439 701 
Q 1688 409 2113 409 
Q 2538 409 2786 701 
Q 3034 994 3034 1497 
Q 3034 2003 2786 2293 
Q 2538 2584 2113 2584 
z
M 3366 4563 
L 3366 3988 
Q 3128 4100 2886 4159 
Q 2644 4219 2406 4219 
Q 1781 4219 1451 3797 
Q 1122 3375 1075 2522 
Q 1259 2794 1537 2939 
Q 1816 3084 2150 3084 
Q 2853 3084 3261 2657 
Q 3669 2231 3669 1497 
Q 3669 778 3244 343 
Q 2819 -91 2113 -91 
Q 1303 -91 875 529 
Q 447 1150 447 2328 
Q 447 3434 972 4092 
Q 1497 4750 2381 4750 
Q 2619 4750 2861 4703 
Q 3103 4656 3366 4563 
z
" transform="scale(0.015625)"/>
       </defs>
       <use xlink:href="#DejaVuSans-36"/>
       <use xlink:href="#DejaVuSans-30" x="63.623047"/>
      </g>
     </g>
    </g>
    <g id="ytick_5">
     <g id="line2d_13">
      <g>
       <use xlink:href="#mf32cd6fe9d" x="54.47" y="98.418325" style="stroke: #000000; stroke-width: 0.8"/>
      </g>
     </g>
     <g id="text_14">
      <!-- 80 -->
      <g transform="translate(34.745 102.217544) scale(0.1 -0.1)">
       <defs>
        <path id="DejaVuSans-38" d="M 2034 2216 
Q 1584 2216 1326 1975 
Q 1069 1734 1069 1313 
Q 1069 891 1326 650 
Q 1584 409 2034 409 
Q 2484 409 2743 651 
Q 3003 894 3003 1313 
Q 3003 1734 2745 1975 
Q 2488 2216 2034 2216 
z
M 1403 2484 
Q 997 2584 770 2862 
Q 544 3141 544 3541 
Q 544 4100 942 4425 
Q 1341 4750 2034 4750 
Q 2731 4750 3128 4425 
Q 3525 4100 3525 3541 
Q 3525 3141 3298 2862 
Q 3072 2584 2669 2484 
Q 3125 2378 3379 2068 
Q 3634 1759 3634 1313 
Q 3634 634 3220 271 
Q 2806 -91 2034 -91 
Q 1263 -91 848 271 
Q 434 634 434 1313 
Q 434 1759 690 2068 
Q 947 2378 1403 2484 
z
M 1172 3481 
Q 1172 3119 1398 2916 
Q 1625 2713 2034 2713 
Q 2441 2713 2670 2916 
Q 2900 3119 2900 3481 
Q 2900 3844 2670 4047 
Q 2441 4250 2034 4250 
Q 1625 4250 1398 4047 
Q 1172 3844 1172 3481 
z
" transform="scale(0.015625)"/>
       </defs>
       <use xlink:href="#DejaVuSans-38"/>
       <use xlink:href="#DejaVuSans-30" x="63.623047"/>
      </g>
     </g>
    </g>
    <g id="ytick_6">
     <g id="line2d_14">
      <g>
       <use xlink:href="#mf32cd6fe9d" x="54.47" y="26.232907" style="stroke: #000000; stroke-width: 0.8"/>
      </g>
     </g>
     <g id="text_15">
      <!-- 100 -->
      <g transform="translate(28.3825 30.032125) scale(0.1 -0.1)">
       <use xlink:href="#DejaVuSans-31"/>
       <use xlink:href="#DejaVuSans-30" x="63.623047"/>
       <use xlink:href="#DejaVuSans-30" x="127.246094"/>
      </g>
     </g>
    </g>
    <g id="text_16">
     <!-- Density -->
     <g transform="translate(21.470938 225.592031) rotate(-90) scale(0.14 -0.14)">
      <defs>
       <path id="DejaVuSans-44" d="M 1259 4147 
L 1259 519 
L 2022 519 
Q 2988 519 3436 956 
Q 3884 1394 3884 2338 
Q 3884 3275 3436 3711 
Q 2988 4147 2022 4147 
L 1259 4147 
z
M 628 4666 
L 1925 4666 
Q 3281 4666 3915 4102 
Q 4550 3538 4550 2338 
Q 4550 1131 3912 565 
Q 3275 0 1925 0 
L 628 0 
L 628 4666 
z
" transform="scale(0.015625)"/>
       <path id="DejaVuSans-79" d="M 2059 -325 
Q 1816 -950 1584 -1140 
Q 1353 -1331 966 -1331 
L 506 -1331 
L 506 -850 
L 844 -850 
Q 1081 -850 1212 -737 
Q 1344 -625 1503 -206 
L 1606 56 
L 191 3500 
L 800 3500 
L 1894 763 
L 2988 3500 
L 3597 3500 
L 2059 -325 
z
" transform="scale(0.015625)"/>
      </defs>
      <use xlink:href="#DejaVuSans-44"/>
      <use xlink:href="#DejaVuSans-65" x="77.001953"/>
      <use xlink:href="#DejaVuSans-6e" x="138.525391"/>
      <use xlink:href="#DejaVuSans-73" x="201.904297"/>
      <use xlink:href="#DejaVuSans-69" x="254.003906"/>
      <use xlink:href="#DejaVuSans-74" x="281.787109"/>
      <use xlink:href="#DejaVuSans-79" x="320.996094"/>
     </g>
    </g>
   </g>
   <g id="line2d_15">
    <path d="M 312.900723 387.16 
L 312.900723 10.8 
" clip-path="url(#pc02eff5c61)" style="fill: none; stroke-dasharray: 3.7,1.6; stroke-dashoffset: 0; stroke: #000000"/>
   </g>
   <g id="patch_3">
    <path d="M 54.47 387.16 
L 54.47 10.8 
" style="fill: none; stroke: #000000; stroke-width: 0.8; stroke-linejoin: miter; stroke-linecap: square"/>
   </g>
   <g id="patch_4">
    <path d="M 54.47 387.16 
L 420.808727 387.16 
" style="fill: none; stroke: #000000; stroke-width: 0.8; stroke-linejoin: miter; stroke-linecap: square"/>
   </g>
   <g id="legend_1">
    <g id="patch_5">
     <path d="M 61.47 92.190625 
L 268.380938 92.190625 
Q 270.380938 92.190625 270.380938 90.190625 
L 270.380938 17.8 
Q 270.380938 15.8 268.380938 15.8 
L 61.47 15.8 
Q 59.47 15.8 59.47 17.8 
L 59.47 90.190625 
Q 59.47 92.190625 61.47 92.190625 
z
" style="fill: #ffffff; opacity: 0.8; stroke: #cccccc; stroke-linejoin: miter"/>
    </g>
    <g id="patch_6">
     <path d="M 63.47 27.398438 
L 83.47 27.398438 
L 83.47 20.398438 
L 63.47 20.398438 
z
" style="fill: #2166ac; fill-opacity: 0.5; stroke: #2166ac; stroke-width: 2.5; stroke-linejoin: miter"/>
    </g>
    <g id="text_17">
     <!-- Dataset 1 with random masking -->
     <g transform="translate(91.47 27.398438) scale(0.1 -0.1)">
      <defs>
       <path id="DejaVuSans-61" d="M 2194 1759 
Q 1497 1759 1228 1600 
Q 959 1441 959 1056 
Q 959 750 1161 570 
Q 1363 391 1709 391 
Q 2188 391 2477 730 
Q 2766 1069 2766 1631 
L 2766 1759 
L 2194 1759 
z
M 3341 1997 
L 3341 0 
L 2766 0 
L 2766 531 
Q 2569 213 2275 61 
Q 1981 -91 1556 -91 
Q 1019 -91 701 211 
Q 384 513 384 1019 
Q 384 1609 779 1909 
Q 1175 2209 1959 2209 
L 2766 2209 
L 2766 2266 
Q 2766 2663 2505 2880 
Q 2244 3097 1772 3097 
Q 1472 3097 1187 3025 
Q 903 2953 641 2809 
L 641 3341 
Q 956 3463 1253 3523 
Q 1550 3584 1831 3584 
Q 2591 3584 2966 3190 
Q 3341 2797 3341 1997 
z
" transform="scale(0.015625)"/>
       <path id="DejaVuSans-77" d="M 269 3500 
L 844 3500 
L 1563 769 
L 2278 3500 
L 2956 3500 
L 3675 769 
L 4391 3500 
L 4966 3500 
L 4050 0 
L 3372 0 
L 2619 2869 
L 1863 0 
L 1184 0 
L 269 3500 
z
" transform="scale(0.015625)"/>
       <path id="DejaVuSans-68" d="M 3513 2113 
L 3513 0 
L 2938 0 
L 2938 2094 
Q 2938 2591 2744 2837 
Q 2550 3084 2163 3084 
Q 1697 3084 1428 2787 
Q 1159 2491 1159 1978 
L 1159 0 
L 581 0 
L 581 4863 
L 1159 4863 
L 1159 2956 
Q 1366 3272 1645 3428 
Q 1925 3584 2291 3584 
Q 2894 3584 3203 3211 
Q 3513 2838 3513 2113 
z
" transform="scale(0.015625)"/>
       <path id="DejaVuSans-6d" d="M 3328 2828 
Q 3544 3216 3844 3400 
Q 4144 3584 4550 3584 
Q 5097 3584 5394 3201 
Q 5691 2819 5691 2113 
L 5691 0 
L 5113 0 
L 5113 2094 
Q 5113 2597 4934 2840 
Q 4756 3084 4391 3084 
Q 3944 3084 3684 2787 
Q 3425 2491 3425 1978 
L 3425 0 
L 2847 0 
L 2847 2094 
Q 2847 2600 2669 2842 
Q 2491 3084 2119 3084 
Q 1678 3084 1418 2786 
Q 1159 2488 1159 1978 
L 1159 0 
L 581 0 
L 581 3500 
L 1159 3500 
L 1159 2956 
Q 1356 3278 1631 3431 
Q 1906 3584 2284 3584 
Q 2666 3584 2933 3390 
Q 3200 3197 3328 2828 
z
" transform="scale(0.015625)"/>
       <path id="DejaVuSans-6b" d="M 581 4863 
L 1159 4863 
L 1159 1991 
L 2875 3500 
L 3609 3500 
L 1753 1863 
L 3688 0 
L 2938 0 
L 1159 1709 
L 1159 0 
L 581 0 
L 581 4863 
z
" transform="scale(0.015625)"/>
       <path id="DejaVuSans-67" d="M 2906 1791 
Q 2906 2416 2648 2759 
Q 2391 3103 1925 3103 
Q 1463 3103 1205 2759 
Q 947 2416 947 1791 
Q 947 1169 1205 825 
Q 1463 481 1925 481 
Q 2391 481 2648 825 
Q 2906 1169 2906 1791 
z
M 3481 434 
Q 3481 -459 3084 -895 
Q 2688 -1331 1869 -1331 
Q 1566 -1331 1297 -1286 
Q 1028 -1241 775 -1147 
L 775 -588 
Q 1028 -725 1275 -790 
Q 1522 -856 1778 -856 
Q 2344 -856 2625 -561 
Q 2906 -266 2906 331 
L 2906 616 
Q 2728 306 2450 153 
Q 2172 0 1784 0 
Q 1141 0 747 490 
Q 353 981 353 1791 
Q 353 2603 747 3093 
Q 1141 3584 1784 3584 
Q 2172 3584 2450 3431 
Q 2728 3278 2906 2969 
L 2906 3500 
L 3481 3500 
L 3481 434 
z
" transform="scale(0.015625)"/>
      </defs>
      <use xlink:href="#DejaVuSans-44"/>
      <use xlink:href="#DejaVuSans-61" x="77.001953"/>
      <use xlink:href="#DejaVuSans-74" x="138.28125"/>
      <use xlink:href="#DejaVuSans-61" x="177.490234"/>
      <use xlink:href="#DejaVuSans-73" x="238.769531"/>
      <use xlink:href="#DejaVuSans-65" x="290.869141"/>
      <use xlink:href="#DejaVuSans-74" x="352.392578"/>
      <use xlink:href="#DejaVuSans-20" x="391.601562"/>
      <use xlink:href="#DejaVuSans-31" x="423.388672"/>
      <use xlink:href="#DejaVuSans-20" x="487.011719"/>
      <use xlink:href="#DejaVuSans-77" x="518.798828"/>
      <use xlink:href="#DejaVuSans-69" x="600.585938"/>
      <use xlink:href="#DejaVuSans-74" x="628.369141"/>
      <use xlink:href="#DejaVuSans-68" x="667.578125"/>
      <use xlink:href="#DejaVuSans-20" x="730.957031"/>
      <use xlink:href="#DejaVuSans-72" x="762.744141"/>
      <use xlink:href="#DejaVuSans-61" x="803.857422"/>
      <use xlink:href="#DejaVuSans-6e" x="865.136719"/>
      <use xlink:href="#DejaVuSans-64" x="928.515625"/>
      <use xlink:href="#DejaVuSans-6f" x="991.992188"/>
      <use xlink:href="#DejaVuSans-6d" x="1053.173828"/>
      <use xlink:href="#DejaVuSans-20" x="1150.585938"/>
      <use xlink:href="#DejaVuSans-6d" x="1182.373047"/>
      <use xlink:href="#DejaVuSans-61" x="1279.785156"/>
      <use xlink:href="#DejaVuSans-73" x="1341.064453"/>
      <use xlink:href="#DejaVuSans-6b" x="1393.164062"/>
      <use xlink:href="#DejaVuSans-69" x="1451.074219"/>
      <use xlink:href="#DejaVuSans-6e" x="1478.857422"/>
      <use xlink:href="#DejaVuSans-67" x="1542.236328"/>
     </g>
    </g>
    <g id="patch_7">
     <path d="M 63.47 42.076563 
L 83.47 42.076563 
L 83.47 35.076563 
L 63.47 35.076563 
z
" style="fill: #b2182b; fill-opacity: 0.5; stroke: #b2182b; stroke-width: 2.5; stroke-linejoin: miter"/>
    </g>
    <g id="text_18">
     <!-- Dataset 2 with random masking -->
     <g transform="translate(91.47 42.076563) scale(0.1 -0.1)">
      <use xlink:href="#DejaVuSans-44"/>
      <use xlink:href="#DejaVuSans-61" x="77.001953"/>
      <use xlink:href="#DejaVuSans-74" x="138.28125"/>
      <use xlink:href="#DejaVuSans-61" x="177.490234"/>
      <use xlink:href="#DejaVuSans-73" x="238.769531"/>
      <use xlink:href="#DejaVuSans-65" x="290.869141"/>
      <use xlink:href="#DejaVuSans-74" x="352.392578"/>
      <use xlink:href="#DejaVuSans-20" x="391.601562"/>
      <use xlink:href="#DejaVuSans-32" x="423.388672"/>
      <use xlink:href="#DejaVuSans-20" x="487.011719"/>
      <use xlink:href="#DejaVuSans-77" x="518.798828"/>
      <use xlink:href="#DejaVuSans-69" x="600.585938"/>
      <use xlink:href="#DejaVuSans-74" x="628.369141"/>
      <use xlink:href="#DejaVuSans-68" x="667.578125"/>
      <use xlink:href="#DejaVuSans-20" x="730.957031"/>
      <use xlink:href="#DejaVuSans-72" x="762.744141"/>
      <use xlink:href="#DejaVuSans-61" x="803.857422"/>
      <use xlink:href="#DejaVuSans-6e" x="865.136719"/>
      <use xlink:href="#DejaVuSans-64" x="928.515625"/>
      <use xlink:href="#DejaVuSans-6f" x="991.992188"/>
      <use xlink:href="#DejaVuSans-6d" x="1053.173828"/>
      <use xlink:href="#DejaVuSans-20" x="1150.585938"/>
      <use xlink:href="#DejaVuSans-6d" x="1182.373047"/>
      <use xlink:href="#DejaVuSans-61" x="1279.785156"/>
      <use xlink:href="#DejaVuSans-73" x="1341.064453"/>
      <use xlink:href="#DejaVuSans-6b" x="1393.164062"/>
      <use xlink:href="#DejaVuSans-69" x="1451.074219"/>
      <use xlink:href="#DejaVuSans-6e" x="1478.857422"/>
      <use xlink:href="#DejaVuSans-67" x="1542.236328"/>
     </g>
    </g>
    <g id="patch_8">
     <path d="M 63.47 56.754687 
L 83.47 56.754687 
L 83.47 49.754687 
L 63.47 49.754687 
z
" style="fill: #92c5de; fill-opacity: 0.5; stroke: #92c5de; stroke-width: 2.5; stroke-linejoin: miter"/>
    </g>
    <g id="text_19">
     <!-- Dataset 3 with random masking -->
     <g transform="translate(91.47 56.754687) scale(0.1 -0.1)">
      <use xlink:href="#DejaVuSans-44"/>
      <use xlink:href="#DejaVuSans-61" x="77.001953"/>
      <use xlink:href="#DejaVuSans-74" x="138.28125"/>
      <use xlink:href="#DejaVuSans-61" x="177.490234"/>
      <use xlink:href="#DejaVuSans-73" x="238.769531"/>
      <use xlink:href="#DejaVuSans-65" x="290.869141"/>
      <use xlink:href="#DejaVuSans-74" x="352.392578"/>
      <use xlink:href="#DejaVuSans-20" x="391.601562"/>
      <use xlink:href="#DejaVuSans-33" x="423.388672"/>
      <use xlink:href="#DejaVuSans-20" x="487.011719"/>
      <use xlink:href="#DejaVuSans-77" x="518.798828"/>
      <use xlink:href="#DejaVuSans-69" x="600.585938"/>
      <use xlink:href="#DejaVuSans-74" x="628.369141"/>
      <use xlink:href="#DejaVuSans-68" x="667.578125"/>
      <use xlink:href="#DejaVuSans-20" x="730.957031"/>
      <use xlink:href="#DejaVuSans-72" x="762.744141"/>
      <use xlink:href="#DejaVuSans-61" x="803.857422"/>
      <use xlink:href="#DejaVuSans-6e" x="865.136719"/>
      <use xlink:href="#DejaVuSans-64" x="928.515625"/>
      <use xlink:href="#DejaVuSans-6f" x="991.992188"/>
      <use xlink:href="#DejaVuSans-6d" x="1053.173828"/>
      <use xlink:href="#DejaVuSans-20" x="1150.585938"/>
      <use xlink:href="#DejaVuSans-6d" x="1182.373047"/>
      <use xlink:href="#DejaVuSans-61" x="1279.785156"/>
      <use xlink:href="#DejaVuSans-73" x="1341.064453"/>
      <use xlink:href="#DejaVuSans-6b" x="1393.164062"/>
      <use xlink:href="#DejaVuSans-69" x="1451.074219"/>
      <use xlink:href="#DejaVuSans-6e" x="1478.857422"/>
      <use xlink:href="#DejaVuSans-67" x="1542.236328"/>
     </g>
    </g>
    <g id="patch_9">
     <path d="M 63.47 71.432813 
L 83.47 71.432813 
L 83.47 64.432813 
L 63.47 64.432813 
z
" style="fill: #f4a582; fill-opacity: 0.5; stroke: #f4a582; stroke-width: 2.5; stroke-linejoin: miter"/>
    </g>
    <g id="text_20">
     <!-- Dataset 4 with random masking -->
     <g transform="translate(91.47 71.432813) scale(0.1 -0.1)">
      <use xlink:href="#DejaVuSans-44"/>
      <use xlink:href="#DejaVuSans-61" x="77.001953"/>
      <use xlink:href="#DejaVuSans-74" x="138.28125"/>
      <use xlink:href="#DejaVuSans-61" x="177.490234"/>
      <use xlink:href="#DejaVuSans-73" x="238.769531"/>
      <use xlink:href="#DejaVuSans-65" x="290.869141"/>
      <use xlink:href="#DejaVuSans-74" x="352.392578"/>
      <use xlink:href="#DejaVuSans-20" x="391.601562"/>
      <use xlink:href="#DejaVuSans-34" x="423.388672"/>
      <use xlink:href="#DejaVuSans-20" x="487.011719"/>
      <use xlink:href="#DejaVuSans-77" x="518.798828"/>
      <use xlink:href="#DejaVuSans-69" x="600.585938"/>
      <use xlink:href="#DejaVuSans-74" x="628.369141"/>
      <use xlink:href="#DejaVuSans-68" x="667.578125"/>
      <use xlink:href="#DejaVuSans-20" x="730.957031"/>
      <use xlink:href="#DejaVuSans-72" x="762.744141"/>
      <use xlink:href="#DejaVuSans-61" x="803.857422"/>
      <use xlink:href="#DejaVuSans-6e" x="865.136719"/>
      <use xlink:href="#DejaVuSans-64" x="928.515625"/>
      <use xlink:href="#DejaVuSans-6f" x="991.992188"/>
      <use xlink:href="#DejaVuSans-6d" x="1053.173828"/>
      <use xlink:href="#DejaVuSans-20" x="1150.585938"/>
      <use xlink:href="#DejaVuSans-6d" x="1182.373047"/>
      <use xlink:href="#DejaVuSans-61" x="1279.785156"/>
      <use xlink:href="#DejaVuSans-73" x="1341.064453"/>
      <use xlink:href="#DejaVuSans-6b" x="1393.164062"/>
      <use xlink:href="#DejaVuSans-69" x="1451.074219"/>
      <use xlink:href="#DejaVuSans-6e" x="1478.857422"/>
      <use xlink:href="#DejaVuSans-67" x="1542.236328"/>
     </g>
    </g>
    <g id="line2d_16">
     <path d="M 63.47 82.610937 
L 73.47 82.610937 
L 83.47 82.610937 
" style="fill: none; stroke-dasharray: 3.7,1.6; stroke-dashoffset: 0; stroke: #000000"/>
    </g>
    <g id="text_21">
     <!-- Predicted CreiLOV log fluorescence -->
     <g transform="translate(91.47 86.110937) scale(0.1 -0.1)">
      <defs>
       <path id="DejaVuSans-43" d="M 4122 4306 
L 4122 3641 
Q 3803 3938 3442 4084 
Q 3081 4231 2675 4231 
Q 1875 4231 1450 3742 
Q 1025 3253 1025 2328 
Q 1025 1406 1450 917 
Q 1875 428 2675 428 
Q 3081 428 3442 575 
Q 3803 722 4122 1019 
L 4122 359 
Q 3791 134 3420 21 
Q 3050 -91 2638 -91 
Q 1578 -91 968 557 
Q 359 1206 359 2328 
Q 359 3453 968 4101 
Q 1578 4750 2638 4750 
Q 3056 4750 3426 4639 
Q 3797 4528 4122 4306 
z
" transform="scale(0.015625)"/>
       <path id="DejaVuSans-4c" d="M 628 4666 
L 1259 4666 
L 1259 531 
L 3531 531 
L 3531 0 
L 628 0 
L 628 4666 
z
" transform="scale(0.015625)"/>
       <path id="DejaVuSans-4f" d="M 2522 4238 
Q 1834 4238 1429 3725 
Q 1025 3213 1025 2328 
Q 1025 1447 1429 934 
Q 1834 422 2522 422 
Q 3209 422 3611 934 
Q 4013 1447 4013 2328 
Q 4013 3213 3611 3725 
Q 3209 4238 2522 4238 
z
M 2522 4750 
Q 3503 4750 4090 4092 
Q 4678 3434 4678 2328 
Q 4678 1225 4090 567 
Q 3503 -91 2522 -91 
Q 1538 -91 948 565 
Q 359 1222 359 2328 
Q 359 3434 948 4092 
Q 1538 4750 2522 4750 
z
" transform="scale(0.015625)"/>
       <path id="DejaVuSans-56" d="M 1831 0 
L 50 4666 
L 709 4666 
L 2188 738 
L 3669 4666 
L 4325 4666 
L 2547 0 
L 1831 0 
z
" transform="scale(0.015625)"/>
       <path id="DejaVuSans-66" d="M 2375 4863 
L 2375 4384 
L 1825 4384 
Q 1516 4384 1395 4259 
Q 1275 4134 1275 3809 
L 1275 3500 
L 2222 3500 
L 2222 3053 
L 1275 3053 
L 1275 0 
L 697 0 
L 697 3053 
L 147 3053 
L 147 3500 
L 697 3500 
L 697 3744 
Q 697 4328 969 4595 
Q 1241 4863 1831 4863 
L 2375 4863 
z
" transform="scale(0.015625)"/>
      </defs>
      <use xlink:href="#DejaVuSans-50"/>
      <use xlink:href="#DejaVuSans-72" x="58.552734"/>
      <use xlink:href="#DejaVuSans-65" x="97.416016"/>
      <use xlink:href="#DejaVuSans-64" x="158.939453"/>
      <use xlink:href="#DejaVuSans-69" x="222.416016"/>
      <use xlink:href="#DejaVuSans-63" x="250.199219"/>
      <use xlink:href="#DejaVuSans-74" x="305.179688"/>
      <use xlink:href="#DejaVuSans-65" x="344.388672"/>
      <use xlink:href="#DejaVuSans-64" x="405.912109"/>
      <use xlink:href="#DejaVuSans-20" x="469.388672"/>
      <use xlink:href="#DejaVuSans-43" x="501.175781"/>
      <use xlink:href="#DejaVuSans-72" x="571"/>
      <use xlink:href="#DejaVuSans-65" x="609.863281"/>
      <use xlink:href="#DejaVuSans-69" x="671.386719"/>
      <use xlink:href="#DejaVuSans-4c" x="699.169922"/>
      <use xlink:href="#DejaVuSans-4f" x="751.257812"/>
      <use xlink:href="#DejaVuSans-56" x="828.21875"/>
      <use xlink:href="#DejaVuSans-20" x="896.626953"/>
      <use xlink:href="#DejaVuSans-6c" x="928.414062"/>
      <use xlink:href="#DejaVuSans-6f" x="956.197266"/>
      <use xlink:href="#DejaVuSans-67" x="1017.378906"/>
      <use xlink:href="#DejaVuSans-20" x="1080.855469"/>
      <use xlink:href="#DejaVuSans-66" x="1112.642578"/>
      <use xlink:href="#DejaVuSans-6c" x="1147.847656"/>
      <use xlink:href="#DejaVuSans-75" x="1175.630859"/>
      <use xlink:href="#DejaVuSans-6f" x="1239.009766"/>
      <use xlink:href="#DejaVuSans-72" x="1300.191406"/>
      <use xlink:href="#DejaVuSans-65" x="1339.054688"/>
      <use xlink:href="#DejaVuSans-73" x="1400.578125"/>
      <use xlink:href="#DejaVuSans-63" x="1452.677734"/>
      <use xlink:href="#DejaVuSans-65" x="1507.658203"/>
      <use xlink:href="#DejaVuSans-6e" x="1569.181641"/>
      <use xlink:href="#DejaVuSans-63" x="1632.560547"/>
      <use xlink:href="#DejaVuSans-65" x="1687.541016"/>
     </g>
    </g>
   </g>
  </g>
 </g>
 <defs>
  <clipPath id="pc02eff5c61">
   <rect x="54.47" y="10.8" width="366.338727" height="376.36"/>
  </clipPath>
 </defs>
</svg>
