<?xml version="1.0" encoding="utf-8" standalone="no"?>
<!DOCTYPE svg PUBLIC "-//W3C//DTD SVG 1.1//EN"
  "http://www.w3.org/Graphics/SVG/1.1/DTD/svg11.dtd">
<svg xmlns:xlink="http://www.w3.org/1999/xlink" width="864pt" height="432pt" viewBox="0 0 864 432" xmlns="http://www.w3.org/2000/svg" version="1.1">
 <metadata>
  <rdf:RDF xmlns:dc="http://purl.org/dc/elements/1.1/" xmlns:cc="http://creativecommons.org/ns#" xmlns:rdf="http://www.w3.org/1999/02/22-rdf-syntax-ns#">
   <cc:Work>
    <dc:type rdf:resource="http://purl.org/dc/dcmitype/StillImage"/>
    <dc:date>2025-04-01T11:16:40.331861</dc:date>
    <dc:format>image/svg+xml</dc:format>
    <dc:creator>
     <cc:Agent>
      <dc:title>Matplotlib v3.8.0, https://matplotlib.org/</dc:title>
     </cc:Agent>
    </dc:creator>
   </cc:Work>
  </rdf:RDF>
 </metadata>
 <defs>
  <style type="text/css">*{stroke-linejoin: round; stroke-linecap: butt}</style>
 </defs>
 <g id="figure_1">
  <g id="patch_1">
   <path d="M 0 432 
L 864 432 
L 864 0 
L 0 0 
z
" style="fill: #ffffff"/>
  </g>
  <g id="axes_1">
   <g id="patch_2">
    <path d="M 48.53 389.32 
L 426.6 389.32 
L 426.6 14.76 
L 48.53 14.76 
z
" style="fill: #ffffff"/>
   </g>
   <g id="patch_3">
    <path d="M 65.715 389.32 
L 65.715 14.76 
L 275.067808 14.76 
L 275.067808 389.32 
z
" clip-path="url(#p27a07651da)" style="fill: #ff0000; opacity: 0.1; stroke: #ff0000; stroke-linejoin: miter"/>
   </g>
   <g id="patch_4">
    <path d="M 275.067808 389.32 
L 275.067808 14.76 
L 409.415 14.76 
L 409.415 389.32 
z
" clip-path="url(#p27a07651da)" style="fill: #008000; opacity: 0.1; stroke: #008000; stroke-linejoin: miter"/>
   </g>
   <g id="patch_5">
    <path d="M 91.018151 389.32 
L 102.631614 389.32 
L 102.631614 356.890563 
L 91.018151 356.890563 
z
" clip-path="url(#p27a07651da)" style="fill: #808080; fill-opacity: 0.4; stroke: #000000; stroke-linejoin: miter"/>
   </g>
   <g id="patch_6">
    <path d="M 102.631614 389.32 
L 114.245076 389.32 
L 114.245076 356.890563 
L 102.631614 356.890563 
z
" clip-path="url(#p27a07651da)" style="fill: #808080; fill-opacity: 0.4; stroke: #000000; stroke-linejoin: miter"/>
   </g>
   <g id="patch_7">
    <path d="M 114.245076 389.32 
L 125.858539 389.32 
L 125.858539 292.031688 
L 114.245076 292.031688 
z
" clip-path="url(#p27a07651da)" style="fill: #808080; fill-opacity: 0.4; stroke: #000000; stroke-linejoin: miter"/>
   </g>
   <g id="patch_8">
    <path d="M 125.858539 389.32 
L 137.472002 389.32 
L 137.472002 389.32 
L 125.858539 389.32 
z
" clip-path="url(#p27a07651da)" style="fill: #808080; fill-opacity: 0.4; stroke: #000000; stroke-linejoin: miter"/>
   </g>
   <g id="patch_9">
    <path d="M 137.472002 389.32 
L 149.085464 389.32 
L 149.085464 227.172814 
L 137.472002 227.172814 
z
" clip-path="url(#p27a07651da)" style="fill: #808080; fill-opacity: 0.4; stroke: #000000; stroke-linejoin: miter"/>
   </g>
   <g id="patch_10">
    <path d="M 149.085464 389.32 
L 160.698927 389.32 
L 160.698927 389.32 
L 149.085464 389.32 
z
" clip-path="url(#p27a07651da)" style="fill: #808080; fill-opacity: 0.4; stroke: #000000; stroke-linejoin: miter"/>
   </g>
   <g id="patch_11">
    <path d="M 160.698927 389.32 
L 172.31239 389.32 
L 172.31239 292.031688 
L 160.698927 292.031688 
z
" clip-path="url(#p27a07651da)" style="fill: #808080; fill-opacity: 0.4; stroke: #000000; stroke-linejoin: miter"/>
   </g>
   <g id="patch_12">
    <path d="M 172.31239 389.32 
L 183.925852 389.32 
L 183.925852 194.743377 
L 172.31239 194.743377 
z
" clip-path="url(#p27a07651da)" style="fill: #808080; fill-opacity: 0.4; stroke: #000000; stroke-linejoin: miter"/>
   </g>
   <g id="patch_13">
    <path d="M 183.925852 389.32 
L 195.539315 389.32 
L 195.539315 129.884502 
L 183.925852 129.884502 
z
" clip-path="url(#p27a07651da)" style="fill: #808080; fill-opacity: 0.4; stroke: #000000; stroke-linejoin: miter"/>
   </g>
   <g id="patch_14">
    <path d="M 195.539315 389.32 
L 207.152778 389.32 
L 207.152778 65.025628 
L 195.539315 65.025628 
z
" clip-path="url(#p27a07651da)" style="fill: #808080; fill-opacity: 0.4; stroke: #000000; stroke-linejoin: miter"/>
   </g>
   <g id="patch_15">
    <path d="M 207.152778 389.32 
L 218.76624 389.32 
L 218.76624 65.025628 
L 207.152778 65.025628 
z
" clip-path="url(#p27a07651da)" style="fill: #808080; fill-opacity: 0.4; stroke: #000000; stroke-linejoin: miter"/>
   </g>
   <g id="patch_16">
    <path d="M 218.76624 389.32 
L 230.379703 389.32 
L 230.379703 194.743377 
L 218.76624 194.743377 
z
" clip-path="url(#p27a07651da)" style="fill: #808080; fill-opacity: 0.4; stroke: #000000; stroke-linejoin: miter"/>
   </g>
   <g id="patch_17">
    <path d="M 230.379703 389.32 
L 241.993166 389.32 
L 241.993166 227.172814 
L 230.379703 227.172814 
z
" clip-path="url(#p27a07651da)" style="fill: #808080; fill-opacity: 0.4; stroke: #000000; stroke-linejoin: miter"/>
   </g>
   <g id="patch_18">
    <path d="M 241.993166 389.32 
L 253.606628 389.32 
L 253.606628 32.59619 
L 241.993166 32.59619 
z
" clip-path="url(#p27a07651da)" style="fill: #808080; fill-opacity: 0.4; stroke: #000000; stroke-linejoin: miter"/>
   </g>
   <g id="patch_19">
    <path d="M 253.606628 389.32 
L 265.220091 389.32 
L 265.220091 292.031688 
L 253.606628 292.031688 
z
" clip-path="url(#p27a07651da)" style="fill: #808080; fill-opacity: 0.4; stroke: #000000; stroke-linejoin: miter"/>
   </g>
   <g id="patch_20">
    <path d="M 265.220091 389.32 
L 276.833554 389.32 
L 276.833554 292.031688 
L 265.220091 292.031688 
z
" clip-path="url(#p27a07651da)" style="fill: #808080; fill-opacity: 0.4; stroke: #000000; stroke-linejoin: miter"/>
   </g>
   <g id="patch_21">
    <path d="M 276.833554 389.32 
L 288.447016 389.32 
L 288.447016 129.884502 
L 276.833554 129.884502 
z
" clip-path="url(#p27a07651da)" style="fill: #808080; fill-opacity: 0.4; stroke: #000000; stroke-linejoin: miter"/>
   </g>
   <g id="patch_22">
    <path d="M 288.447016 389.32 
L 300.060479 389.32 
L 300.060479 129.884502 
L 288.447016 129.884502 
z
" clip-path="url(#p27a07651da)" style="fill: #808080; fill-opacity: 0.4; stroke: #000000; stroke-linejoin: miter"/>
   </g>
   <g id="patch_23">
    <path d="M 300.060479 389.32 
L 311.673942 389.32 
L 311.673942 324.461126 
L 300.060479 324.461126 
z
" clip-path="url(#p27a07651da)" style="fill: #808080; fill-opacity: 0.4; stroke: #000000; stroke-linejoin: miter"/>
   </g>
   <g id="patch_24">
    <path d="M 311.673942 389.32 
L 323.287404 389.32 
L 323.287404 356.890563 
L 311.673942 356.890563 
z
" clip-path="url(#p27a07651da)" style="fill: #808080; fill-opacity: 0.4; stroke: #000000; stroke-linejoin: miter"/>
   </g>
   <g id="patch_25">
    <path d="M 323.287404 389.32 
L 334.900867 389.32 
L 334.900867 292.031688 
L 323.287404 292.031688 
z
" clip-path="url(#p27a07651da)" style="fill: #808080; fill-opacity: 0.4; stroke: #000000; stroke-linejoin: miter"/>
   </g>
   <g id="patch_26">
    <path d="M 334.900867 389.32 
L 346.51433 389.32 
L 346.51433 356.890563 
L 334.900867 356.890563 
z
" clip-path="url(#p27a07651da)" style="fill: #808080; fill-opacity: 0.4; stroke: #000000; stroke-linejoin: miter"/>
   </g>
   <g id="patch_27">
    <path d="M 346.51433 389.32 
L 358.127792 389.32 
L 358.127792 356.890563 
L 346.51433 356.890563 
z
" clip-path="url(#p27a07651da)" style="fill: #808080; fill-opacity: 0.4; stroke: #000000; stroke-linejoin: miter"/>
   </g>
   <g id="patch_28">
    <path d="M 358.127792 389.32 
L 369.741255 389.32 
L 369.741255 389.32 
L 358.127792 389.32 
z
" clip-path="url(#p27a07651da)" style="fill: #808080; fill-opacity: 0.4; stroke: #000000; stroke-linejoin: miter"/>
   </g>
   <g id="patch_29">
    <path d="M 369.741255 389.32 
L 381.354718 389.32 
L 381.354718 356.890563 
L 369.741255 356.890563 
z
" clip-path="url(#p27a07651da)" style="fill: #808080; fill-opacity: 0.4; stroke: #000000; stroke-linejoin: miter"/>
   </g>
   <g id="patch_30">
    <path d="M 68.863507 389.32 
L 82.359627 389.32 
L 82.359627 361.414345 
L 68.863507 361.414345 
z
" clip-path="url(#p27a07651da)" style="fill: #ffff00; fill-opacity: 0.6; stroke: #000000; stroke-linejoin: miter"/>
   </g>
   <g id="patch_31">
    <path d="M 82.359627 389.32 
L 95.855746 389.32 
L 95.855746 361.414345 
L 82.359627 361.414345 
z
" clip-path="url(#p27a07651da)" style="fill: #ffff00; fill-opacity: 0.6; stroke: #000000; stroke-linejoin: miter"/>
   </g>
   <g id="patch_32">
    <path d="M 95.855746 389.32 
L 109.351865 389.32 
L 109.351865 389.32 
L 95.855746 389.32 
z
" clip-path="url(#p27a07651da)" style="fill: #ffff00; fill-opacity: 0.6; stroke: #000000; stroke-linejoin: miter"/>
   </g>
   <g id="patch_33">
    <path d="M 109.351865 389.32 
L 122.847985 389.32 
L 122.847985 333.508689 
L 109.351865 333.508689 
z
" clip-path="url(#p27a07651da)" style="fill: #ffff00; fill-opacity: 0.6; stroke: #000000; stroke-linejoin: miter"/>
   </g>
   <g id="patch_34">
    <path d="M 122.847985 389.32 
L 136.344104 389.32 
L 136.344104 277.697378 
L 122.847985 277.697378 
z
" clip-path="url(#p27a07651da)" style="fill: #ffff00; fill-opacity: 0.6; stroke: #000000; stroke-linejoin: miter"/>
   </g>
   <g id="patch_35">
    <path d="M 136.344104 389.32 
L 149.840224 389.32 
L 149.840224 361.414345 
L 136.344104 361.414345 
z
" clip-path="url(#p27a07651da)" style="fill: #ffff00; fill-opacity: 0.6; stroke: #000000; stroke-linejoin: miter"/>
   </g>
   <g id="patch_36">
    <path d="M 149.840224 389.32 
L 163.336343 389.32 
L 163.336343 333.508689 
L 149.840224 333.508689 
z
" clip-path="url(#p27a07651da)" style="fill: #ffff00; fill-opacity: 0.6; stroke: #000000; stroke-linejoin: miter"/>
   </g>
   <g id="patch_37">
    <path d="M 163.336343 389.32 
L 176.832463 389.32 
L 176.832463 249.791723 
L 163.336343 249.791723 
z
" clip-path="url(#p27a07651da)" style="fill: #ffff00; fill-opacity: 0.6; stroke: #000000; stroke-linejoin: miter"/>
   </g>
   <g id="patch_38">
    <path d="M 176.832463 389.32 
L 190.328582 389.32 
L 190.328582 193.980412 
L 176.832463 193.980412 
z
" clip-path="url(#p27a07651da)" style="fill: #ffff00; fill-opacity: 0.6; stroke: #000000; stroke-linejoin: miter"/>
   </g>
   <g id="patch_39">
    <path d="M 190.328582 389.32 
L 203.824701 389.32 
L 203.824701 193.980412 
L 190.328582 193.980412 
z
" clip-path="url(#p27a07651da)" style="fill: #ffff00; fill-opacity: 0.6; stroke: #000000; stroke-linejoin: miter"/>
   </g>
   <g id="patch_40">
    <path d="M 203.824701 389.32 
L 217.320821 389.32 
L 217.320821 166.074756 
L 203.824701 166.074756 
z
" clip-path="url(#p27a07651da)" style="fill: #ffff00; fill-opacity: 0.6; stroke: #000000; stroke-linejoin: miter"/>
   </g>
   <g id="patch_41">
    <path d="M 217.320821 389.32 
L 230.81694 389.32 
L 230.81694 333.508689 
L 217.320821 333.508689 
z
" clip-path="url(#p27a07651da)" style="fill: #ffff00; fill-opacity: 0.6; stroke: #000000; stroke-linejoin: miter"/>
   </g>
   <g id="patch_42">
    <path d="M 230.81694 389.32 
L 244.31306 389.32 
L 244.31306 82.35779 
L 230.81694 82.35779 
z
" clip-path="url(#p27a07651da)" style="fill: #ffff00; fill-opacity: 0.6; stroke: #000000; stroke-linejoin: miter"/>
   </g>
   <g id="patch_43">
    <path d="M 244.31306 389.32 
L 257.809179 389.32 
L 257.809179 305.603034 
L 244.31306 305.603034 
z
" clip-path="url(#p27a07651da)" style="fill: #ffff00; fill-opacity: 0.6; stroke: #000000; stroke-linejoin: miter"/>
   </g>
   <g id="patch_44">
    <path d="M 257.809179 389.32 
L 271.305299 389.32 
L 271.305299 249.791723 
L 257.809179 249.791723 
z
" clip-path="url(#p27a07651da)" style="fill: #ffff00; fill-opacity: 0.6; stroke: #000000; stroke-linejoin: miter"/>
   </g>
   <g id="patch_45">
    <path d="M 271.305299 389.32 
L 284.801418 389.32 
L 284.801418 54.452134 
L 271.305299 54.452134 
z
" clip-path="url(#p27a07651da)" style="fill: #ffff00; fill-opacity: 0.6; stroke: #000000; stroke-linejoin: miter"/>
   </g>
   <g id="patch_46">
    <path d="M 284.801418 389.32 
L 298.297537 389.32 
L 298.297537 277.697378 
L 284.801418 277.697378 
z
" clip-path="url(#p27a07651da)" style="fill: #ffff00; fill-opacity: 0.6; stroke: #000000; stroke-linejoin: miter"/>
   </g>
   <g id="patch_47">
    <path d="M 298.297537 389.32 
L 311.793657 389.32 
L 311.793657 166.074756 
L 298.297537 166.074756 
z
" clip-path="url(#p27a07651da)" style="fill: #ffff00; fill-opacity: 0.6; stroke: #000000; stroke-linejoin: miter"/>
   </g>
   <g id="patch_48">
    <path d="M 311.793657 389.32 
L 325.289776 389.32 
L 325.289776 221.886067 
L 311.793657 221.886067 
z
" clip-path="url(#p27a07651da)" style="fill: #ffff00; fill-opacity: 0.6; stroke: #000000; stroke-linejoin: miter"/>
   </g>
   <g id="patch_49">
    <path d="M 325.289776 389.32 
L 338.785896 389.32 
L 338.785896 277.697378 
L 325.289776 277.697378 
z
" clip-path="url(#p27a07651da)" style="fill: #ffff00; fill-opacity: 0.6; stroke: #000000; stroke-linejoin: miter"/>
   </g>
   <g id="patch_50">
    <path d="M 338.785896 389.32 
L 352.282015 389.32 
L 352.282015 305.603034 
L 338.785896 305.603034 
z
" clip-path="url(#p27a07651da)" style="fill: #ffff00; fill-opacity: 0.6; stroke: #000000; stroke-linejoin: miter"/>
   </g>
   <g id="patch_51">
    <path d="M 352.282015 389.32 
L 365.778135 389.32 
L 365.778135 361.414345 
L 352.282015 361.414345 
z
" clip-path="url(#p27a07651da)" style="fill: #ffff00; fill-opacity: 0.6; stroke: #000000; stroke-linejoin: miter"/>
   </g>
   <g id="patch_52">
    <path d="M 365.778135 389.32 
L 379.274254 389.32 
L 379.274254 389.32 
L 365.778135 389.32 
z
" clip-path="url(#p27a07651da)" style="fill: #ffff00; fill-opacity: 0.6; stroke: #000000; stroke-linejoin: miter"/>
   </g>
   <g id="patch_53">
    <path d="M 379.274254 389.32 
L 392.770373 389.32 
L 392.770373 361.414345 
L 379.274254 361.414345 
z
" clip-path="url(#p27a07651da)" style="fill: #ffff00; fill-opacity: 0.6; stroke: #000000; stroke-linejoin: miter"/>
   </g>
   <g id="patch_54">
    <path d="M 392.770373 389.32 
L 406.266493 389.32 
L 406.266493 333.508689 
L 392.770373 333.508689 
z
" clip-path="url(#p27a07651da)" style="fill: #ffff00; fill-opacity: 0.6; stroke: #000000; stroke-linejoin: miter"/>
   </g>
   <g id="matplotlib.axis_1">
    <g id="xtick_1">
     <g id="line2d_1">
      <defs>
       <path id="m65cde58496" d="M 0 0 
L 0 3.5 
" style="stroke: #000000; stroke-width: 0.8"/>
      </defs>
      <g>
       <use xlink:href="#m65cde58496" x="76.724446" y="389.32" style="stroke: #000000; stroke-width: 0.8"/>
      </g>
     </g>
     <g id="text_1">
      <!-- −2 -->
      <g transform="translate(69.353352 403.918437) scale(0.1 -0.1)">
       <defs>
        <path id="DejaVuSans-2212" d="M 678 2272 
L 4684 2272 
L 4684 1741 
L 678 1741 
L 678 2272 
z
" transform="scale(0.015625)"/>
        <path id="DejaVuSans-32" d="M 1228 531 
L 3431 531 
L 3431 0 
L 469 0 
L 469 531 
Q 828 903 1448 1529 
Q 2069 2156 2228 2338 
Q 2531 2678 2651 2914 
Q 2772 3150 2772 3378 
Q 2772 3750 2511 3984 
Q 2250 4219 1831 4219 
Q 1534 4219 1204 4116 
Q 875 4013 500 3803 
L 500 4441 
Q 881 4594 1212 4672 
Q 1544 4750 1819 4750 
Q 2544 4750 2975 4387 
Q 3406 4025 3406 3419 
Q 3406 3131 3298 2873 
Q 3191 2616 2906 2266 
Q 2828 2175 2409 1742 
Q 1991 1309 1228 531 
z
" transform="scale(0.015625)"/>
       </defs>
       <use xlink:href="#DejaVuSans-2212"/>
       <use xlink:href="#DejaVuSans-32" x="83.789062"/>
      </g>
     </g>
    </g>
    <g id="xtick_2">
     <g id="line2d_2">
      <g>
       <use xlink:href="#m65cde58496" x="139.694591" y="389.32" style="stroke: #000000; stroke-width: 0.8"/>
      </g>
     </g>
     <g id="text_2">
      <!-- −1 -->
      <g transform="translate(132.323497 403.918437) scale(0.1 -0.1)">
       <defs>
        <path id="DejaVuSans-31" d="M 794 531 
L 1825 531 
L 1825 4091 
L 703 3866 
L 703 4441 
L 1819 4666 
L 2450 4666 
L 2450 531 
L 3481 531 
L 3481 0 
L 794 0 
L 794 531 
z
" transform="scale(0.015625)"/>
       </defs>
       <use xlink:href="#DejaVuSans-2212"/>
       <use xlink:href="#DejaVuSans-31" x="83.789062"/>
      </g>
     </g>
    </g>
    <g id="xtick_3">
     <g id="line2d_3">
      <g>
       <use xlink:href="#m65cde58496" x="202.664736" y="389.32" style="stroke: #000000; stroke-width: 0.8"/>
      </g>
     </g>
     <g id="text_3">
      <!-- 0 -->
      <g transform="translate(199.483486 403.918437) scale(0.1 -0.1)">
       <defs>
        <path id="DejaVuSans-30" d="M 2034 4250 
Q 1547 4250 1301 3770 
Q 1056 3291 1056 2328 
Q 1056 1369 1301 889 
Q 1547 409 2034 409 
Q 2525 409 2770 889 
Q 3016 1369 3016 2328 
Q 3016 3291 2770 3770 
Q 2525 4250 2034 4250 
z
M 2034 4750 
Q 2819 4750 3233 4129 
Q 3647 3509 3647 2328 
Q 3647 1150 3233 529 
Q 2819 -91 2034 -91 
Q 1250 -91 836 529 
Q 422 1150 422 2328 
Q 422 3509 836 4129 
Q 1250 4750 2034 4750 
z
" transform="scale(0.015625)"/>
       </defs>
       <use xlink:href="#DejaVuSans-30"/>
      </g>
     </g>
    </g>
    <g id="xtick_4">
     <g id="line2d_4">
      <g>
       <use xlink:href="#m65cde58496" x="265.63488" y="389.32" style="stroke: #000000; stroke-width: 0.8"/>
      </g>
     </g>
     <g id="text_4">
      <!-- 1 -->
      <g transform="translate(262.45363 403.918437) scale(0.1 -0.1)">
       <use xlink:href="#DejaVuSans-31"/>
      </g>
     </g>
    </g>
    <g id="xtick_5">
     <g id="line2d_5">
      <g>
       <use xlink:href="#m65cde58496" x="328.605025" y="389.32" style="stroke: #000000; stroke-width: 0.8"/>
      </g>
     </g>
     <g id="text_5">
      <!-- 2 -->
      <g transform="translate(325.423775 403.918437) scale(0.1 -0.1)">
       <use xlink:href="#DejaVuSans-32"/>
      </g>
     </g>
    </g>
    <g id="xtick_6">
     <g id="line2d_6">
      <g>
       <use xlink:href="#m65cde58496" x="391.57517" y="389.32" style="stroke: #000000; stroke-width: 0.8"/>
      </g>
     </g>
     <g id="text_6">
      <!-- 3 -->
      <g transform="translate(388.39392 403.918437) scale(0.1 -0.1)">
       <defs>
        <path id="DejaVuSans-33" d="M 2597 2516 
Q 3050 2419 3304 2112 
Q 3559 1806 3559 1356 
Q 3559 666 3084 287 
Q 2609 -91 1734 -91 
Q 1441 -91 1130 -33 
Q 819 25 488 141 
L 488 750 
Q 750 597 1062 519 
Q 1375 441 1716 441 
Q 2309 441 2620 675 
Q 2931 909 2931 1356 
Q 2931 1769 2642 2001 
Q 2353 2234 1838 2234 
L 1294 2234 
L 1294 2753 
L 1863 2753 
Q 2328 2753 2575 2939 
Q 2822 3125 2822 3475 
Q 2822 3834 2567 4026 
Q 2313 4219 1838 4219 
Q 1578 4219 1281 4162 
Q 984 4106 628 3988 
L 628 4550 
Q 988 4650 1302 4700 
Q 1616 4750 1894 4750 
Q 2613 4750 3031 4423 
Q 3450 4097 3450 3541 
Q 3450 3153 3228 2886 
Q 3006 2619 2597 2516 
z
" transform="scale(0.015625)"/>
       </defs>
       <use xlink:href="#DejaVuSans-33"/>
      </g>
     </g>
    </g>
    <g id="text_7">
     <!-- Predicted Fluorescence -->
     <g transform="translate(167.96875 419.11625) scale(0.12 -0.12)">
      <defs>
       <path id="DejaVuSans-50" d="M 1259 4147 
L 1259 2394 
L 2053 2394 
Q 2494 2394 2734 2622 
Q 2975 2850 2975 3272 
Q 2975 3691 2734 3919 
Q 2494 4147 2053 4147 
L 1259 4147 
z
M 628 4666 
L 2053 4666 
Q 2838 4666 3239 4311 
Q 3641 3956 3641 3272 
Q 3641 2581 3239 2228 
Q 2838 1875 2053 1875 
L 1259 1875 
L 1259 0 
L 628 0 
L 628 4666 
z
" transform="scale(0.015625)"/>
       <path id="DejaVuSans-72" d="M 2631 2963 
Q 2534 3019 2420 3045 
Q 2306 3072 2169 3072 
Q 1681 3072 1420 2755 
Q 1159 2438 1159 1844 
L 1159 0 
L 581 0 
L 581 3500 
L 1159 3500 
L 1159 2956 
Q 1341 3275 1631 3429 
Q 1922 3584 2338 3584 
Q 2397 3584 2469 3576 
Q 2541 3569 2628 3553 
L 2631 2963 
z
" transform="scale(0.015625)"/>
       <path id="DejaVuSans-65" d="M 3597 1894 
L 3597 1613 
L 953 1613 
Q 991 1019 1311 708 
Q 1631 397 2203 397 
Q 2534 397 2845 478 
Q 3156 559 3463 722 
L 3463 178 
Q 3153 47 2828 -22 
Q 2503 -91 2169 -91 
Q 1331 -91 842 396 
Q 353 884 353 1716 
Q 353 2575 817 3079 
Q 1281 3584 2069 3584 
Q 2775 3584 3186 3129 
Q 3597 2675 3597 1894 
z
M 3022 2063 
Q 3016 2534 2758 2815 
Q 2500 3097 2075 3097 
Q 1594 3097 1305 2825 
Q 1016 2553 972 2059 
L 3022 2063 
z
" transform="scale(0.015625)"/>
       <path id="DejaVuSans-64" d="M 2906 2969 
L 2906 4863 
L 3481 4863 
L 3481 0 
L 2906 0 
L 2906 525 
Q 2725 213 2448 61 
Q 2172 -91 1784 -91 
Q 1150 -91 751 415 
Q 353 922 353 1747 
Q 353 2572 751 3078 
Q 1150 3584 1784 3584 
Q 2172 3584 2448 3432 
Q 2725 3281 2906 2969 
z
M 947 1747 
Q 947 1113 1208 752 
Q 1469 391 1925 391 
Q 2381 391 2643 752 
Q 2906 1113 2906 1747 
Q 2906 2381 2643 2742 
Q 2381 3103 1925 3103 
Q 1469 3103 1208 2742 
Q 947 2381 947 1747 
z
" transform="scale(0.015625)"/>
       <path id="DejaVuSans-69" d="M 603 3500 
L 1178 3500 
L 1178 0 
L 603 0 
L 603 3500 
z
M 603 4863 
L 1178 4863 
L 1178 4134 
L 603 4134 
L 603 4863 
z
" transform="scale(0.015625)"/>
       <path id="DejaVuSans-63" d="M 3122 3366 
L 3122 2828 
Q 2878 2963 2633 3030 
Q 2388 3097 2138 3097 
Q 1578 3097 1268 2742 
Q 959 2388 959 1747 
Q 959 1106 1268 751 
Q 1578 397 2138 397 
Q 2388 397 2633 464 
Q 2878 531 3122 666 
L 3122 134 
Q 2881 22 2623 -34 
Q 2366 -91 2075 -91 
Q 1284 -91 818 406 
Q 353 903 353 1747 
Q 353 2603 823 3093 
Q 1294 3584 2113 3584 
Q 2378 3584 2631 3529 
Q 2884 3475 3122 3366 
z
" transform="scale(0.015625)"/>
       <path id="DejaVuSans-74" d="M 1172 4494 
L 1172 3500 
L 2356 3500 
L 2356 3053 
L 1172 3053 
L 1172 1153 
Q 1172 725 1289 603 
Q 1406 481 1766 481 
L 2356 481 
L 2356 0 
L 1766 0 
Q 1100 0 847 248 
Q 594 497 594 1153 
L 594 3053 
L 172 3053 
L 172 3500 
L 594 3500 
L 594 4494 
L 1172 4494 
z
" transform="scale(0.015625)"/>
       <path id="DejaVuSans-20" transform="scale(0.015625)"/>
       <path id="DejaVuSans-46" d="M 628 4666 
L 3309 4666 
L 3309 4134 
L 1259 4134 
L 1259 2759 
L 3109 2759 
L 3109 2228 
L 1259 2228 
L 1259 0 
L 628 0 
L 628 4666 
z
" transform="scale(0.015625)"/>
       <path id="DejaVuSans-6c" d="M 603 4863 
L 1178 4863 
L 1178 0 
L 603 0 
L 603 4863 
z
" transform="scale(0.015625)"/>
       <path id="DejaVuSans-75" d="M 544 1381 
L 544 3500 
L 1119 3500 
L 1119 1403 
Q 1119 906 1312 657 
Q 1506 409 1894 409 
Q 2359 409 2629 706 
Q 2900 1003 2900 1516 
L 2900 3500 
L 3475 3500 
L 3475 0 
L 2900 0 
L 2900 538 
Q 2691 219 2414 64 
Q 2138 -91 1772 -91 
Q 1169 -91 856 284 
Q 544 659 544 1381 
z
M 1991 3584 
L 1991 3584 
z
" transform="scale(0.015625)"/>
       <path id="DejaVuSans-6f" d="M 1959 3097 
Q 1497 3097 1228 2736 
Q 959 2375 959 1747 
Q 959 1119 1226 758 
Q 1494 397 1959 397 
Q 2419 397 2687 759 
Q 2956 1122 2956 1747 
Q 2956 2369 2687 2733 
Q 2419 3097 1959 3097 
z
M 1959 3584 
Q 2709 3584 3137 3096 
Q 3566 2609 3566 1747 
Q 3566 888 3137 398 
Q 2709 -91 1959 -91 
Q 1206 -91 779 398 
Q 353 888 353 1747 
Q 353 2609 779 3096 
Q 1206 3584 1959 3584 
z
" transform="scale(0.015625)"/>
       <path id="DejaVuSans-73" d="M 2834 3397 
L 2834 2853 
Q 2591 2978 2328 3040 
Q 2066 3103 1784 3103 
Q 1356 3103 1142 2972 
Q 928 2841 928 2578 
Q 928 2378 1081 2264 
Q 1234 2150 1697 2047 
L 1894 2003 
Q 2506 1872 2764 1633 
Q 3022 1394 3022 966 
Q 3022 478 2636 193 
Q 2250 -91 1575 -91 
Q 1294 -91 989 -36 
Q 684 19 347 128 
L 347 722 
Q 666 556 975 473 
Q 1284 391 1588 391 
Q 1994 391 2212 530 
Q 2431 669 2431 922 
Q 2431 1156 2273 1281 
Q 2116 1406 1581 1522 
L 1381 1569 
Q 847 1681 609 1914 
Q 372 2147 372 2553 
Q 372 3047 722 3315 
Q 1072 3584 1716 3584 
Q 2034 3584 2315 3537 
Q 2597 3491 2834 3397 
z
" transform="scale(0.015625)"/>
       <path id="DejaVuSans-6e" d="M 3513 2113 
L 3513 0 
L 2938 0 
L 2938 2094 
Q 2938 2591 2744 2837 
Q 2550 3084 2163 3084 
Q 1697 3084 1428 2787 
Q 1159 2491 1159 1978 
L 1159 0 
L 581 0 
L 581 3500 
L 1159 3500 
L 1159 2956 
Q 1366 3272 1645 3428 
Q 1925 3584 2291 3584 
Q 2894 3584 3203 3211 
Q 3513 2838 3513 2113 
z
" transform="scale(0.015625)"/>
      </defs>
      <use xlink:href="#DejaVuSans-50"/>
      <use xlink:href="#DejaVuSans-72" x="58.552734"/>
      <use xlink:href="#DejaVuSans-65" x="97.416016"/>
      <use xlink:href="#DejaVuSans-64" x="158.939453"/>
      <use xlink:href="#DejaVuSans-69" x="222.416016"/>
      <use xlink:href="#DejaVuSans-63" x="250.199219"/>
      <use xlink:href="#DejaVuSans-74" x="305.179688"/>
      <use xlink:href="#DejaVuSans-65" x="344.388672"/>
      <use xlink:href="#DejaVuSans-64" x="405.912109"/>
      <use xlink:href="#DejaVuSans-20" x="469.388672"/>
      <use xlink:href="#DejaVuSans-46" x="501.175781"/>
      <use xlink:href="#DejaVuSans-6c" x="558.695312"/>
      <use xlink:href="#DejaVuSans-75" x="586.478516"/>
      <use xlink:href="#DejaVuSans-6f" x="649.857422"/>
      <use xlink:href="#DejaVuSans-72" x="711.039062"/>
      <use xlink:href="#DejaVuSans-65" x="749.902344"/>
      <use xlink:href="#DejaVuSans-73" x="811.425781"/>
      <use xlink:href="#DejaVuSans-63" x="863.525391"/>
      <use xlink:href="#DejaVuSans-65" x="918.505859"/>
      <use xlink:href="#DejaVuSans-6e" x="980.029297"/>
      <use xlink:href="#DejaVuSans-63" x="1043.408203"/>
      <use xlink:href="#DejaVuSans-65" x="1098.388672"/>
     </g>
    </g>
   </g>
   <g id="matplotlib.axis_2">
    <g id="ytick_1">
     <g id="line2d_7">
      <defs>
       <path id="meb405294bd" d="M 0 0 
L -3.5 0 
" style="stroke: #000000; stroke-width: 0.8"/>
      </defs>
      <g>
       <use xlink:href="#meb405294bd" x="48.53" y="389.32" style="stroke: #000000; stroke-width: 0.8"/>
      </g>
     </g>
     <g id="text_8">
      <!-- 0.0 -->
      <g transform="translate(25.626875 393.119219) scale(0.1 -0.1)">
       <defs>
        <path id="DejaVuSans-2e" d="M 684 794 
L 1344 794 
L 1344 0 
L 684 0 
L 684 794 
z
" transform="scale(0.015625)"/>
       </defs>
       <use xlink:href="#DejaVuSans-30"/>
       <use xlink:href="#DejaVuSans-2e" x="63.623047"/>
       <use xlink:href="#DejaVuSans-30" x="95.410156"/>
      </g>
     </g>
    </g>
    <g id="ytick_2">
     <g id="line2d_8">
      <g>
       <use xlink:href="#meb405294bd" x="48.53" y="329.511013" style="stroke: #000000; stroke-width: 0.8"/>
      </g>
     </g>
     <g id="text_9">
      <!-- 0.1 -->
      <g transform="translate(25.626875 333.310231) scale(0.1 -0.1)">
       <use xlink:href="#DejaVuSans-30"/>
       <use xlink:href="#DejaVuSans-2e" x="63.623047"/>
       <use xlink:href="#DejaVuSans-31" x="95.410156"/>
      </g>
     </g>
    </g>
    <g id="ytick_3">
     <g id="line2d_9">
      <g>
       <use xlink:href="#meb405294bd" x="48.53" y="269.702025" style="stroke: #000000; stroke-width: 0.8"/>
      </g>
     </g>
     <g id="text_10">
      <!-- 0.2 -->
      <g transform="translate(25.626875 273.501244) scale(0.1 -0.1)">
       <use xlink:href="#DejaVuSans-30"/>
       <use xlink:href="#DejaVuSans-2e" x="63.623047"/>
       <use xlink:href="#DejaVuSans-32" x="95.410156"/>
      </g>
     </g>
    </g>
    <g id="ytick_4">
     <g id="line2d_10">
      <g>
       <use xlink:href="#meb405294bd" x="48.53" y="209.893038" style="stroke: #000000; stroke-width: 0.8"/>
      </g>
     </g>
     <g id="text_11">
      <!-- 0.3 -->
      <g transform="translate(25.626875 213.692257) scale(0.1 -0.1)">
       <use xlink:href="#DejaVuSans-30"/>
       <use xlink:href="#DejaVuSans-2e" x="63.623047"/>
       <use xlink:href="#DejaVuSans-33" x="95.410156"/>
      </g>
     </g>
    </g>
    <g id="ytick_5">
     <g id="line2d_11">
      <g>
       <use xlink:href="#meb405294bd" x="48.53" y="150.08405" style="stroke: #000000; stroke-width: 0.8"/>
      </g>
     </g>
     <g id="text_12">
      <!-- 0.4 -->
      <g transform="translate(25.626875 153.883269) scale(0.1 -0.1)">
       <defs>
        <path id="DejaVuSans-34" d="M 2419 4116 
L 825 1625 
L 2419 1625 
L 2419 4116 
z
M 2253 4666 
L 3047 4666 
L 3047 1625 
L 3713 1625 
L 3713 1100 
L 3047 1100 
L 3047 0 
L 2419 0 
L 2419 1100 
L 313 1100 
L 313 1709 
L 2253 4666 
z
" transform="scale(0.015625)"/>
       </defs>
       <use xlink:href="#DejaVuSans-30"/>
       <use xlink:href="#DejaVuSans-2e" x="63.623047"/>
       <use xlink:href="#DejaVuSans-34" x="95.410156"/>
      </g>
     </g>
    </g>
    <g id="ytick_6">
     <g id="line2d_12">
      <g>
       <use xlink:href="#meb405294bd" x="48.53" y="90.275063" style="stroke: #000000; stroke-width: 0.8"/>
      </g>
     </g>
     <g id="text_13">
      <!-- 0.5 -->
      <g transform="translate(25.626875 94.074282) scale(0.1 -0.1)">
       <defs>
        <path id="DejaVuSans-35" d="M 691 4666 
L 3169 4666 
L 3169 4134 
L 1269 4134 
L 1269 2991 
Q 1406 3038 1543 3061 
Q 1681 3084 1819 3084 
Q 2600 3084 3056 2656 
Q 3513 2228 3513 1497 
Q 3513 744 3044 326 
Q 2575 -91 1722 -91 
Q 1428 -91 1123 -41 
Q 819 9 494 109 
L 494 744 
Q 775 591 1075 516 
Q 1375 441 1709 441 
Q 2250 441 2565 725 
Q 2881 1009 2881 1497 
Q 2881 1984 2565 2268 
Q 2250 2553 1709 2553 
Q 1456 2553 1204 2497 
Q 953 2441 691 2322 
L 691 4666 
z
" transform="scale(0.015625)"/>
       </defs>
       <use xlink:href="#DejaVuSans-30"/>
       <use xlink:href="#DejaVuSans-2e" x="63.623047"/>
       <use xlink:href="#DejaVuSans-35" x="95.410156"/>
      </g>
     </g>
    </g>
    <g id="ytick_7">
     <g id="line2d_13">
      <g>
       <use xlink:href="#meb405294bd" x="48.53" y="30.466076" style="stroke: #000000; stroke-width: 0.8"/>
      </g>
     </g>
     <g id="text_14">
      <!-- 0.6 -->
      <g transform="translate(25.626875 34.265294) scale(0.1 -0.1)">
       <defs>
        <path id="DejaVuSans-36" d="M 2113 2584 
Q 1688 2584 1439 2293 
Q 1191 2003 1191 1497 
Q 1191 994 1439 701 
Q 1688 409 2113 409 
Q 2538 409 2786 701 
Q 3034 994 3034 1497 
Q 3034 2003 2786 2293 
Q 2538 2584 2113 2584 
z
M 3366 4563 
L 3366 3988 
Q 3128 4100 2886 4159 
Q 2644 4219 2406 4219 
Q 1781 4219 1451 3797 
Q 1122 3375 1075 2522 
Q 1259 2794 1537 2939 
Q 1816 3084 2150 3084 
Q 2853 3084 3261 2657 
Q 3669 2231 3669 1497 
Q 3669 778 3244 343 
Q 2819 -91 2113 -91 
Q 1303 -91 875 529 
Q 447 1150 447 2328 
Q 447 3434 972 4092 
Q 1497 4750 2381 4750 
Q 2619 4750 2861 4703 
Q 3103 4656 3366 4563 
z
" transform="scale(0.015625)"/>
       </defs>
       <use xlink:href="#DejaVuSans-30"/>
       <use xlink:href="#DejaVuSans-2e" x="63.623047"/>
       <use xlink:href="#DejaVuSans-36" x="95.410156"/>
      </g>
     </g>
    </g>
    <g id="text_15">
     <!-- Probability Density -->
     <g transform="translate(19.13125 258.471875) rotate(-90) scale(0.12 -0.12)">
      <defs>
       <path id="DejaVuSans-62" d="M 3116 1747 
Q 3116 2381 2855 2742 
Q 2594 3103 2138 3103 
Q 1681 3103 1420 2742 
Q 1159 2381 1159 1747 
Q 1159 1113 1420 752 
Q 1681 391 2138 391 
Q 2594 391 2855 752 
Q 3116 1113 3116 1747 
z
M 1159 2969 
Q 1341 3281 1617 3432 
Q 1894 3584 2278 3584 
Q 2916 3584 3314 3078 
Q 3713 2572 3713 1747 
Q 3713 922 3314 415 
Q 2916 -91 2278 -91 
Q 1894 -91 1617 61 
Q 1341 213 1159 525 
L 1159 0 
L 581 0 
L 581 4863 
L 1159 4863 
L 1159 2969 
z
" transform="scale(0.015625)"/>
       <path id="DejaVuSans-61" d="M 2194 1759 
Q 1497 1759 1228 1600 
Q 959 1441 959 1056 
Q 959 750 1161 570 
Q 1363 391 1709 391 
Q 2188 391 2477 730 
Q 2766 1069 2766 1631 
L 2766 1759 
L 2194 1759 
z
M 3341 1997 
L 3341 0 
L 2766 0 
L 2766 531 
Q 2569 213 2275 61 
Q 1981 -91 1556 -91 
Q 1019 -91 701 211 
Q 384 513 384 1019 
Q 384 1609 779 1909 
Q 1175 2209 1959 2209 
L 2766 2209 
L 2766 2266 
Q 2766 2663 2505 2880 
Q 2244 3097 1772 3097 
Q 1472 3097 1187 3025 
Q 903 2953 641 2809 
L 641 3341 
Q 956 3463 1253 3523 
Q 1550 3584 1831 3584 
Q 2591 3584 2966 3190 
Q 3341 2797 3341 1997 
z
" transform="scale(0.015625)"/>
       <path id="DejaVuSans-79" d="M 2059 -325 
Q 1816 -950 1584 -1140 
Q 1353 -1331 966 -1331 
L 506 -1331 
L 506 -850 
L 844 -850 
Q 1081 -850 1212 -737 
Q 1344 -625 1503 -206 
L 1606 56 
L 191 3500 
L 800 3500 
L 1894 763 
L 2988 3500 
L 3597 3500 
L 2059 -325 
z
" transform="scale(0.015625)"/>
       <path id="DejaVuSans-44" d="M 1259 4147 
L 1259 519 
L 2022 519 
Q 2988 519 3436 956 
Q 3884 1394 3884 2338 
Q 3884 3275 3436 3711 
Q 2988 4147 2022 4147 
L 1259 4147 
z
M 628 4666 
L 1925 4666 
Q 3281 4666 3915 4102 
Q 4550 3538 4550 2338 
Q 4550 1131 3912 565 
Q 3275 0 1925 0 
L 628 0 
L 628 4666 
z
" transform="scale(0.015625)"/>
      </defs>
      <use xlink:href="#DejaVuSans-50"/>
      <use xlink:href="#DejaVuSans-72" x="58.552734"/>
      <use xlink:href="#DejaVuSans-6f" x="97.416016"/>
      <use xlink:href="#DejaVuSans-62" x="158.597656"/>
      <use xlink:href="#DejaVuSans-61" x="222.074219"/>
      <use xlink:href="#DejaVuSans-62" x="283.353516"/>
      <use xlink:href="#DejaVuSans-69" x="346.830078"/>
      <use xlink:href="#DejaVuSans-6c" x="374.613281"/>
      <use xlink:href="#DejaVuSans-69" x="402.396484"/>
      <use xlink:href="#DejaVuSans-74" x="430.179688"/>
      <use xlink:href="#DejaVuSans-79" x="469.388672"/>
      <use xlink:href="#DejaVuSans-20" x="528.568359"/>
      <use xlink:href="#DejaVuSans-44" x="560.355469"/>
      <use xlink:href="#DejaVuSans-65" x="637.357422"/>
      <use xlink:href="#DejaVuSans-6e" x="698.880859"/>
      <use xlink:href="#DejaVuSans-73" x="762.259766"/>
      <use xlink:href="#DejaVuSans-69" x="814.359375"/>
      <use xlink:href="#DejaVuSans-74" x="842.142578"/>
      <use xlink:href="#DejaVuSans-79" x="881.351562"/>
     </g>
    </g>
   </g>
   <g id="line2d_14">
    <path d="M 275.067808 389.32 
L 275.067808 14.76 
" clip-path="url(#p27a07651da)" style="fill: none; stroke-dasharray: 11.1,4.8; stroke-dashoffset: 0; stroke: #ffa500; stroke-width: 3"/>
   </g>
   <g id="patch_55">
    <path d="M 48.53 389.32 
L 48.53 14.76 
" style="fill: none; stroke: #000000; stroke-width: 0.8; stroke-linejoin: miter; stroke-linecap: square"/>
   </g>
   <g id="patch_56">
    <path d="M 48.53 389.32 
L 426.6 389.32 
" style="fill: none; stroke: #000000; stroke-width: 0.8; stroke-linejoin: miter; stroke-linecap: square"/>
   </g>
   <g id="legend_1">
    <g id="patch_57">
     <path d="M 301.485938 52.11625 
L 419.6 52.11625 
Q 421.6 52.11625 421.6 50.11625 
L 421.6 21.76 
Q 421.6 19.76 419.6 19.76 
L 301.485938 19.76 
Q 299.485938 19.76 299.485938 21.76 
L 299.485938 50.11625 
Q 299.485938 52.11625 301.485938 52.11625 
z
" style="fill: #ffffff; opacity: 0.8; stroke: #cccccc; stroke-linejoin: miter"/>
    </g>
    <g id="patch_58">
     <path d="M 303.485938 31.358438 
L 323.485938 31.358438 
L 323.485938 24.358438 
L 303.485938 24.358438 
z
" style="fill: #808080; fill-opacity: 0.4; stroke: #000000; stroke-linejoin: miter"/>
    </g>
    <g id="text_16">
     <!-- Pre-trained ESM2 -->
     <g transform="translate(331.485938 31.358438) scale(0.1 -0.1)">
      <defs>
       <path id="DejaVuSans-2d" d="M 313 2009 
L 1997 2009 
L 1997 1497 
L 313 1497 
L 313 2009 
z
" transform="scale(0.015625)"/>
       <path id="DejaVuSans-45" d="M 628 4666 
L 3578 4666 
L 3578 4134 
L 1259 4134 
L 1259 2753 
L 3481 2753 
L 3481 2222 
L 1259 2222 
L 1259 531 
L 3634 531 
L 3634 0 
L 628 0 
L 628 4666 
z
" transform="scale(0.015625)"/>
       <path id="DejaVuSans-53" d="M 3425 4513 
L 3425 3897 
Q 3066 4069 2747 4153 
Q 2428 4238 2131 4238 
Q 1616 4238 1336 4038 
Q 1056 3838 1056 3469 
Q 1056 3159 1242 3001 
Q 1428 2844 1947 2747 
L 2328 2669 
Q 3034 2534 3370 2195 
Q 3706 1856 3706 1288 
Q 3706 609 3251 259 
Q 2797 -91 1919 -91 
Q 1588 -91 1214 -16 
Q 841 59 441 206 
L 441 856 
Q 825 641 1194 531 
Q 1563 422 1919 422 
Q 2459 422 2753 634 
Q 3047 847 3047 1241 
Q 3047 1584 2836 1778 
Q 2625 1972 2144 2069 
L 1759 2144 
Q 1053 2284 737 2584 
Q 422 2884 422 3419 
Q 422 4038 858 4394 
Q 1294 4750 2059 4750 
Q 2388 4750 2728 4690 
Q 3069 4631 3425 4513 
z
" transform="scale(0.015625)"/>
       <path id="DejaVuSans-4d" d="M 628 4666 
L 1569 4666 
L 2759 1491 
L 3956 4666 
L 4897 4666 
L 4897 0 
L 4281 0 
L 4281 4097 
L 3078 897 
L 2444 897 
L 1241 4097 
L 1241 0 
L 628 0 
L 628 4666 
z
" transform="scale(0.015625)"/>
      </defs>
      <use xlink:href="#DejaVuSans-50"/>
      <use xlink:href="#DejaVuSans-72" x="58.552734"/>
      <use xlink:href="#DejaVuSans-65" x="97.416016"/>
      <use xlink:href="#DejaVuSans-2d" x="158.939453"/>
      <use xlink:href="#DejaVuSans-74" x="195.023438"/>
      <use xlink:href="#DejaVuSans-72" x="234.232422"/>
      <use xlink:href="#DejaVuSans-61" x="275.345703"/>
      <use xlink:href="#DejaVuSans-69" x="336.625"/>
      <use xlink:href="#DejaVuSans-6e" x="364.408203"/>
      <use xlink:href="#DejaVuSans-65" x="427.787109"/>
      <use xlink:href="#DejaVuSans-64" x="489.310547"/>
      <use xlink:href="#DejaVuSans-20" x="552.787109"/>
      <use xlink:href="#DejaVuSans-45" x="584.574219"/>
      <use xlink:href="#DejaVuSans-53" x="647.757812"/>
      <use xlink:href="#DejaVuSans-4d" x="711.234375"/>
      <use xlink:href="#DejaVuSans-32" x="797.513672"/>
     </g>
    </g>
    <g id="patch_59">
     <path d="M 303.485938 46.036563 
L 323.485938 46.036563 
L 323.485938 39.036563 
L 303.485938 39.036563 
z
" style="fill: #ffff00; fill-opacity: 0.6; stroke: #000000; stroke-linejoin: miter"/>
    </g>
    <g id="text_17">
     <!-- SFT ESM2 -->
     <g transform="translate(331.485938 46.036563) scale(0.1 -0.1)">
      <defs>
       <path id="DejaVuSans-54" d="M -19 4666 
L 3928 4666 
L 3928 4134 
L 2272 4134 
L 2272 0 
L 1638 0 
L 1638 4134 
L -19 4134 
L -19 4666 
z
" transform="scale(0.015625)"/>
      </defs>
      <use xlink:href="#DejaVuSans-53"/>
      <use xlink:href="#DejaVuSans-46" x="63.476562"/>
      <use xlink:href="#DejaVuSans-54" x="119.246094"/>
      <use xlink:href="#DejaVuSans-20" x="180.330078"/>
      <use xlink:href="#DejaVuSans-45" x="212.117188"/>
      <use xlink:href="#DejaVuSans-53" x="275.300781"/>
      <use xlink:href="#DejaVuSans-4d" x="338.777344"/>
      <use xlink:href="#DejaVuSans-32" x="425.056641"/>
     </g>
    </g>
   </g>
  </g>
  <g id="axes_2">
   <g id="patch_60">
    <path d="M 475.13 389.32 
L 853.2 389.32 
L 853.2 14.76 
L 475.13 14.76 
z
" style="fill: #ffffff"/>
   </g>
   <g id="patch_61">
    <path d="M 492.315 389.32 
L 492.315 14.76 
L 701.667808 14.76 
L 701.667808 389.32 
z
" clip-path="url(#p76e9ad822f)" style="fill: #ff0000; opacity: 0.1; stroke: #ff0000; stroke-linejoin: miter"/>
   </g>
   <g id="patch_62">
    <path d="M 701.667808 389.32 
L 701.667808 14.76 
L 836.015 14.76 
L 836.015 389.32 
z
" clip-path="url(#p76e9ad822f)" style="fill: #008000; opacity: 0.1; stroke: #008000; stroke-linejoin: miter"/>
   </g>
   <g id="matplotlib.axis_3">
    <g id="xtick_7">
     <g id="line2d_15">
      <g>
       <use xlink:href="#m65cde58496" x="503.324446" y="389.32" style="stroke: #000000; stroke-width: 0.8"/>
      </g>
     </g>
     <g id="text_18">
      <!-- −2 -->
      <g transform="translate(495.953352 403.918437) scale(0.1 -0.1)">
       <use xlink:href="#DejaVuSans-2212"/>
       <use xlink:href="#DejaVuSans-32" x="83.789062"/>
      </g>
     </g>
    </g>
    <g id="xtick_8">
     <g id="line2d_16">
      <g>
       <use xlink:href="#m65cde58496" x="566.294591" y="389.32" style="stroke: #000000; stroke-width: 0.8"/>
      </g>
     </g>
     <g id="text_19">
      <!-- −1 -->
      <g transform="translate(558.923497 403.918437) scale(0.1 -0.1)">
       <use xlink:href="#DejaVuSans-2212"/>
       <use xlink:href="#DejaVuSans-31" x="83.789062"/>
      </g>
     </g>
    </g>
    <g id="xtick_9">
     <g id="line2d_17">
      <g>
       <use xlink:href="#m65cde58496" x="629.264736" y="389.32" style="stroke: #000000; stroke-width: 0.8"/>
      </g>
     </g>
     <g id="text_20">
      <!-- 0 -->
      <g transform="translate(626.083486 403.918437) scale(0.1 -0.1)">
       <use xlink:href="#DejaVuSans-30"/>
      </g>
     </g>
    </g>
    <g id="xtick_10">
     <g id="line2d_18">
      <g>
       <use xlink:href="#m65cde58496" x="692.23488" y="389.32" style="stroke: #000000; stroke-width: 0.8"/>
      </g>
     </g>
     <g id="text_21">
      <!-- 1 -->
      <g transform="translate(689.05363 403.918437) scale(0.1 -0.1)">
       <use xlink:href="#DejaVuSans-31"/>
      </g>
     </g>
    </g>
    <g id="xtick_11">
     <g id="line2d_19">
      <g>
       <use xlink:href="#m65cde58496" x="755.205025" y="389.32" style="stroke: #000000; stroke-width: 0.8"/>
      </g>
     </g>
     <g id="text_22">
      <!-- 2 -->
      <g transform="translate(752.023775 403.918437) scale(0.1 -0.1)">
       <use xlink:href="#DejaVuSans-32"/>
      </g>
     </g>
    </g>
    <g id="xtick_12">
     <g id="line2d_20">
      <g>
       <use xlink:href="#m65cde58496" x="818.17517" y="389.32" style="stroke: #000000; stroke-width: 0.8"/>
      </g>
     </g>
     <g id="text_23">
      <!-- 3 -->
      <g transform="translate(814.99392 403.918437) scale(0.1 -0.1)">
       <use xlink:href="#DejaVuSans-33"/>
      </g>
     </g>
    </g>
    <g id="text_24">
     <!-- Predicted Fluorescence -->
     <g transform="translate(594.56875 419.11625) scale(0.12 -0.12)">
      <use xlink:href="#DejaVuSans-50"/>
      <use xlink:href="#DejaVuSans-72" x="58.552734"/>
      <use xlink:href="#DejaVuSans-65" x="97.416016"/>
      <use xlink:href="#DejaVuSans-64" x="158.939453"/>
      <use xlink:href="#DejaVuSans-69" x="222.416016"/>
      <use xlink:href="#DejaVuSans-63" x="250.199219"/>
      <use xlink:href="#DejaVuSans-74" x="305.179688"/>
      <use xlink:href="#DejaVuSans-65" x="344.388672"/>
      <use xlink:href="#DejaVuSans-64" x="405.912109"/>
      <use xlink:href="#DejaVuSans-20" x="469.388672"/>
      <use xlink:href="#DejaVuSans-46" x="501.175781"/>
      <use xlink:href="#DejaVuSans-6c" x="558.695312"/>
      <use xlink:href="#DejaVuSans-75" x="586.478516"/>
      <use xlink:href="#DejaVuSans-6f" x="649.857422"/>
      <use xlink:href="#DejaVuSans-72" x="711.039062"/>
      <use xlink:href="#DejaVuSans-65" x="749.902344"/>
      <use xlink:href="#DejaVuSans-73" x="811.425781"/>
      <use xlink:href="#DejaVuSans-63" x="863.525391"/>
      <use xlink:href="#DejaVuSans-65" x="918.505859"/>
      <use xlink:href="#DejaVuSans-6e" x="980.029297"/>
      <use xlink:href="#DejaVuSans-63" x="1043.408203"/>
      <use xlink:href="#DejaVuSans-65" x="1098.388672"/>
     </g>
    </g>
   </g>
   <g id="matplotlib.axis_4">
    <g id="ytick_8">
     <g id="line2d_21">
      <g>
       <use xlink:href="#meb405294bd" x="475.13" y="389.32" style="stroke: #000000; stroke-width: 0.8"/>
      </g>
     </g>
     <g id="text_25">
      <!-- 0.0 -->
      <g transform="translate(452.226875 393.119219) scale(0.1 -0.1)">
       <use xlink:href="#DejaVuSans-30"/>
       <use xlink:href="#DejaVuSans-2e" x="63.623047"/>
       <use xlink:href="#DejaVuSans-30" x="95.410156"/>
      </g>
     </g>
    </g>
    <g id="ytick_9">
     <g id="line2d_22">
      <g>
       <use xlink:href="#meb405294bd" x="475.13" y="314.408" style="stroke: #000000; stroke-width: 0.8"/>
      </g>
     </g>
     <g id="text_26">
      <!-- 0.2 -->
      <g transform="translate(452.226875 318.207219) scale(0.1 -0.1)">
       <use xlink:href="#DejaVuSans-30"/>
       <use xlink:href="#DejaVuSans-2e" x="63.623047"/>
       <use xlink:href="#DejaVuSans-32" x="95.410156"/>
      </g>
     </g>
    </g>
    <g id="ytick_10">
     <g id="line2d_23">
      <g>
       <use xlink:href="#meb405294bd" x="475.13" y="239.496" style="stroke: #000000; stroke-width: 0.8"/>
      </g>
     </g>
     <g id="text_27">
      <!-- 0.4 -->
      <g transform="translate(452.226875 243.295219) scale(0.1 -0.1)">
       <use xlink:href="#DejaVuSans-30"/>
       <use xlink:href="#DejaVuSans-2e" x="63.623047"/>
       <use xlink:href="#DejaVuSans-34" x="95.410156"/>
      </g>
     </g>
    </g>
    <g id="ytick_11">
     <g id="line2d_24">
      <g>
       <use xlink:href="#meb405294bd" x="475.13" y="164.584" style="stroke: #000000; stroke-width: 0.8"/>
      </g>
     </g>
     <g id="text_28">
      <!-- 0.6 -->
      <g transform="translate(452.226875 168.383219) scale(0.1 -0.1)">
       <use xlink:href="#DejaVuSans-30"/>
       <use xlink:href="#DejaVuSans-2e" x="63.623047"/>
       <use xlink:href="#DejaVuSans-36" x="95.410156"/>
      </g>
     </g>
    </g>
    <g id="ytick_12">
     <g id="line2d_25">
      <g>
       <use xlink:href="#meb405294bd" x="475.13" y="89.672" style="stroke: #000000; stroke-width: 0.8"/>
      </g>
     </g>
     <g id="text_29">
      <!-- 0.8 -->
      <g transform="translate(452.226875 93.471219) scale(0.1 -0.1)">
       <defs>
        <path id="DejaVuSans-38" d="M 2034 2216 
Q 1584 2216 1326 1975 
Q 1069 1734 1069 1313 
Q 1069 891 1326 650 
Q 1584 409 2034 409 
Q 2484 409 2743 651 
Q 3003 894 3003 1313 
Q 3003 1734 2745 1975 
Q 2488 2216 2034 2216 
z
M 1403 2484 
Q 997 2584 770 2862 
Q 544 3141 544 3541 
Q 544 4100 942 4425 
Q 1341 4750 2034 4750 
Q 2731 4750 3128 4425 
Q 3525 4100 3525 3541 
Q 3525 3141 3298 2862 
Q 3072 2584 2669 2484 
Q 3125 2378 3379 2068 
Q 3634 1759 3634 1313 
Q 3634 634 3220 271 
Q 2806 -91 2034 -91 
Q 1263 -91 848 271 
Q 434 634 434 1313 
Q 434 1759 690 2068 
Q 947 2378 1403 2484 
z
M 1172 3481 
Q 1172 3119 1398 2916 
Q 1625 2713 2034 2713 
Q 2441 2713 2670 2916 
Q 2900 3119 2900 3481 
Q 2900 3844 2670 4047 
Q 2441 4250 2034 4250 
Q 1625 4250 1398 4047 
Q 1172 3844 1172 3481 
z
" transform="scale(0.015625)"/>
       </defs>
       <use xlink:href="#DejaVuSans-30"/>
       <use xlink:href="#DejaVuSans-2e" x="63.623047"/>
       <use xlink:href="#DejaVuSans-38" x="95.410156"/>
      </g>
     </g>
    </g>
    <g id="ytick_13">
     <g id="line2d_26">
      <g>
       <use xlink:href="#meb405294bd" x="475.13" y="14.76" style="stroke: #000000; stroke-width: 0.8"/>
      </g>
     </g>
     <g id="text_30">
      <!-- 1.0 -->
      <g transform="translate(452.226875 18.559219) scale(0.1 -0.1)">
       <use xlink:href="#DejaVuSans-31"/>
       <use xlink:href="#DejaVuSans-2e" x="63.623047"/>
       <use xlink:href="#DejaVuSans-30" x="95.410156"/>
      </g>
     </g>
    </g>
    <g id="text_31">
     <!-- Cumulative Density -->
     <g transform="translate(445.73125 261.002187) rotate(-90) scale(0.12 -0.12)">
      <defs>
       <path id="DejaVuSans-43" d="M 4122 4306 
L 4122 3641 
Q 3803 3938 3442 4084 
Q 3081 4231 2675 4231 
Q 1875 4231 1450 3742 
Q 1025 3253 1025 2328 
Q 1025 1406 1450 917 
Q 1875 428 2675 428 
Q 3081 428 3442 575 
Q 3803 722 4122 1019 
L 4122 359 
Q 3791 134 3420 21 
Q 3050 -91 2638 -91 
Q 1578 -91 968 557 
Q 359 1206 359 2328 
Q 359 3453 968 4101 
Q 1578 4750 2638 4750 
Q 3056 4750 3426 4639 
Q 3797 4528 4122 4306 
z
" transform="scale(0.015625)"/>
       <path id="DejaVuSans-6d" d="M 3328 2828 
Q 3544 3216 3844 3400 
Q 4144 3584 4550 3584 
Q 5097 3584 5394 3201 
Q 5691 2819 5691 2113 
L 5691 0 
L 5113 0 
L 5113 2094 
Q 5113 2597 4934 2840 
Q 4756 3084 4391 3084 
Q 3944 3084 3684 2787 
Q 3425 2491 3425 1978 
L 3425 0 
L 2847 0 
L 2847 2094 
Q 2847 2600 2669 2842 
Q 2491 3084 2119 3084 
Q 1678 3084 1418 2786 
Q 1159 2488 1159 1978 
L 1159 0 
L 581 0 
L 581 3500 
L 1159 3500 
L 1159 2956 
Q 1356 3278 1631 3431 
Q 1906 3584 2284 3584 
Q 2666 3584 2933 3390 
Q 3200 3197 3328 2828 
z
" transform="scale(0.015625)"/>
       <path id="DejaVuSans-76" d="M 191 3500 
L 800 3500 
L 1894 563 
L 2988 3500 
L 3597 3500 
L 2284 0 
L 1503 0 
L 191 3500 
z
" transform="scale(0.015625)"/>
      </defs>
      <use xlink:href="#DejaVuSans-43"/>
      <use xlink:href="#DejaVuSans-75" x="69.824219"/>
      <use xlink:href="#DejaVuSans-6d" x="133.203125"/>
      <use xlink:href="#DejaVuSans-75" x="230.615234"/>
      <use xlink:href="#DejaVuSans-6c" x="293.994141"/>
      <use xlink:href="#DejaVuSans-61" x="321.777344"/>
      <use xlink:href="#DejaVuSans-74" x="383.056641"/>
      <use xlink:href="#DejaVuSans-69" x="422.265625"/>
      <use xlink:href="#DejaVuSans-76" x="450.048828"/>
      <use xlink:href="#DejaVuSans-65" x="509.228516"/>
      <use xlink:href="#DejaVuSans-20" x="570.751953"/>
      <use xlink:href="#DejaVuSans-44" x="602.539062"/>
      <use xlink:href="#DejaVuSans-65" x="679.541016"/>
      <use xlink:href="#DejaVuSans-6e" x="741.064453"/>
      <use xlink:href="#DejaVuSans-73" x="804.443359"/>
      <use xlink:href="#DejaVuSans-69" x="856.542969"/>
      <use xlink:href="#DejaVuSans-74" x="884.326172"/>
      <use xlink:href="#DejaVuSans-79" x="923.535156"/>
     </g>
    </g>
   </g>
   <g id="line2d_27">
    <path d="M 517.618151 14.76 
L 517.618151 18.5056 
L 540.765711 18.5056 
L 540.765711 22.2512 
L 544.436106 22.2512 
L 544.436106 25.9968 
L 551.288275 25.9968 
L 551.288275 29.7424 
L 552.315256 29.7424 
L 552.315256 33.488 
L 565.794867 33.488 
L 565.794867 37.2336 
L 566.120422 37.2336 
L 566.120422 40.9792 
L 570.928551 40.9792 
L 570.928551 44.7248 
L 571.83206 44.7248 
L 571.83206 48.4704 
L 572.912973 48.4704 
L 572.912973 52.216 
L 592.496113 52.216 
L 592.496113 55.9616 
L 596.477158 55.9616 
L 596.477158 59.7072 
L 597.479758 59.7072 
L 597.479758 63.4528 
L 602.793099 63.4528 
L 602.793099 67.1984 
L 603.769793 67.1984 
L 603.769793 70.944 
L 605.513928 70.944 
L 605.513928 74.6896 
L 606.12994 74.6896 
L 606.12994 78.4352 
L 608.502083 78.4352 
L 608.502083 82.1808 
L 608.691186 82.1808 
L 608.691186 85.9264 
L 610.610724 85.9264 
L 610.610724 89.672 
L 611.556923 89.672 
L 611.556923 93.4176 
L 611.870835 93.4176 
L 611.870835 97.1632 
L 612.354671 97.1632 
L 612.430317 104.6544 
L 616.879348 104.6544 
L 616.879348 108.4 
L 618.084959 108.4 
L 618.084959 112.1456 
L 621.737491 112.1456 
L 621.737491 115.8912 
L 622.908531 115.8912 
L 622.908531 119.6368 
L 623.28451 119.6368 
L 623.338088 127.128 
L 626.259497 127.128 
L 626.259497 130.8736 
L 628.767084 130.8736 
L 628.767084 134.6192 
L 629.218047 134.6192 
L 629.218047 138.3648 
L 629.845101 138.3648 
L 629.845101 142.1104 
L 631.437844 142.1104 
L 631.437844 145.856 
L 631.708658 145.856 
L 631.708658 149.6016 
L 632.315404 149.6016 
L 632.315404 153.3472 
L 635.618911 153.3472 
L 635.618911 157.0928 
L 636.584287 157.0928 
L 636.584287 160.8384 
L 636.818812 160.8384 
L 636.818812 164.584 
L 637.296612 164.584 
L 637.296612 168.3296 
L 639.252947 168.3296 
L 639.252947 172.0752 
L 639.478622 172.0752 
L 639.478622 175.8208 
L 641.435641 175.8208 
L 641.435641 179.5664 
L 644.05524 179.5664 
L 644.05524 183.312 
L 644.626761 183.312 
L 644.626761 187.0576 
L 644.851323 187.0576 
L 644.851323 190.8032 
L 647.614942 190.8032 
L 647.614942 194.5488 
L 651.569328 194.5488 
L 651.569328 198.2944 
L 653.364477 198.2944 
L 653.364477 202.04 
L 654.793536 202.04 
L 654.793536 205.7856 
L 656.395116 205.7856 
L 656.395116 209.5312 
L 656.665336 209.5312 
L 656.665336 213.2768 
L 664.639734 213.2768 
L 664.639734 217.0224 
L 664.827527 217.0224 
L 664.827527 220.768 
L 666.196871 220.768 
L 666.196871 224.5136 
L 666.391293 224.5136 
L 666.391293 228.2592 
L 667.387062 228.2592 
L 667.387062 232.0048 
L 669.870888 232.0048 
L 669.870888 235.7504 
L 671.430769 235.7504 
L 671.430769 239.496 
L 671.654759 239.496 
L 671.654759 243.2416 
L 673.147099 243.2416 
L 673.147099 246.9872 
L 673.330587 246.9872 
L 673.330587 250.7328 
L 673.69569 250.7328 
L 673.69569 254.4784 
L 675.719162 254.4784 
L 675.796953 261.9696 
L 676.037022 261.9696 
L 676.037022 265.7152 
L 678.718539 265.7152 
L 678.718539 269.4608 
L 679.763664 269.4608 
L 679.763664 273.2064 
L 681.757927 273.2064 
L 681.757927 276.952 
L 689.593404 276.952 
L 689.593404 280.6976 
L 691.255843 280.6976 
L 691.255843 284.4432 
L 692.051636 284.4432 
L 692.051636 288.1888 
L 692.598982 288.1888 
L 692.598982 291.9344 
L 695.624948 291.9344 
L 695.624948 295.68 
L 704.227601 295.68 
L 704.227601 299.4256 
L 704.856942 299.4256 
L 704.856942 303.1712 
L 705.517345 303.1712 
L 705.593807 310.6624 
L 707.721628 310.6624 
L 707.721628 314.408 
L 711.4175 314.408 
L 711.4175 318.1536 
L 713.400128 318.1536 
L 713.400128 321.8992 
L 714.05322 321.8992 
L 714.05322 325.6448 
L 715.34547 325.6448 
L 715.34547 329.3904 
L 717.511537 329.3904 
L 717.567702 336.8816 
L 720.910387 336.8816 
L 720.910387 340.6272 
L 721.344496 340.6272 
L 721.344496 344.3728 
L 722.463133 344.3728 
L 722.463133 348.1184 
L 724.436505 348.1184 
L 724.436505 351.864 
L 724.791568 351.864 
L 724.791568 355.6096 
L 729.237315 355.6096 
L 729.237315 359.3552 
L 737.156919 359.3552 
L 737.156919 363.1008 
L 743.830767 363.1008 
L 743.830767 366.8464 
L 750.345911 366.8464 
L 750.345911 370.592 
L 750.609048 370.592 
L 750.609048 374.3376 
L 752.186971 374.3376 
L 752.186971 378.0832 
L 769.55906 378.0832 
L 769.55906 381.8288 
L 780.42241 381.8288 
L 780.42241 385.5744 
L 807.954718 385.5744 
L 807.954718 389.32 
L 807.954718 389.32 
" clip-path="url(#p76e9ad822f)" style="fill: none; stroke: #808080; stroke-width: 1.5; stroke-linecap: square"/>
   </g>
   <g id="line2d_28">
    <path d="M 495.463507 14.76 
L 495.463507 18.5056 
L 516.446802 18.5056 
L 516.446802 22.2512 
L 540.137151 22.2512 
L 540.137151 25.9968 
L 541.614756 25.9968 
L 541.614756 29.7424 
L 549.654945 29.7424 
L 549.654945 33.488 
L 552.839677 33.488 
L 552.839677 37.2336 
L 556.453239 37.2336 
L 556.453239 40.9792 
L 562.363573 40.9792 
L 562.363573 44.7248 
L 576.381717 44.7248 
L 576.381717 48.4704 
L 579.373247 48.4704 
L 579.373247 52.216 
L 584.877101 52.216 
L 584.877101 55.9616 
L 590.312019 55.9616 
L 590.312019 59.7072 
L 591.565303 59.7072 
L 591.565303 63.4528 
L 594.059124 63.4528 
L 594.059124 67.1984 
L 597.346441 67.1984 
L 597.346441 70.944 
L 601.686305 70.944 
L 601.686305 74.6896 
L 607.81265 74.6896 
L 607.81265 78.4352 
L 609.565034 78.4352 
L 609.565034 82.1808 
L 610.69395 82.1808 
L 610.69395 85.9264 
L 611.637317 85.9264 
L 611.637317 89.672 
L 611.994526 89.672 
L 611.994526 93.4176 
L 612.706469 93.4176 
L 612.706469 97.1632 
L 614.126396 97.1632 
L 614.126396 100.9088 
L 619.603693 100.9088 
L 619.603693 104.6544 
L 622.438121 104.6544 
L 622.438121 108.4 
L 622.819084 108.4 
L 622.819084 112.1456 
L 623.082485 112.1456 
L 623.082485 115.8912 
L 625.151499 115.8912 
L 625.151499 119.6368 
L 628.697992 119.6368 
L 628.697992 123.3824 
L 629.821086 123.3824 
L 629.821086 127.128 
L 631.342415 127.128 
L 631.342415 130.8736 
L 632.347126 130.8736 
L 632.347126 134.6192 
L 634.964049 134.6192 
L 634.964049 138.3648 
L 637.949477 138.3648 
L 637.997518 145.856 
L 638.363393 145.856 
L 638.363393 149.6016 
L 639.110899 149.6016 
L 639.110899 153.3472 
L 641.485719 153.3472 
L 641.485719 157.0928 
L 653.638336 157.0928 
L 653.638336 160.8384 
L 655.101978 160.8384 
L 655.101978 164.584 
L 657.647552 164.584 
L 657.647552 168.3296 
L 658.016116 168.3296 
L 658.016116 172.0752 
L 658.87922 172.0752 
L 658.87922 175.8208 
L 661.245744 175.8208 
L 661.245744 179.5664 
L 662.703542 179.5664 
L 662.703542 183.312 
L 662.966034 183.312 
L 662.966034 187.0576 
L 663.525443 187.0576 
L 663.525443 190.8032 
L 664.136047 190.8032 
L 664.136047 194.5488 
L 664.510432 194.5488 
L 664.510432 198.2944 
L 665.204664 198.2944 
L 665.204664 202.04 
L 667.27173 202.04 
L 667.27173 205.7856 
L 675.842128 205.7856 
L 675.842128 209.5312 
L 678.784447 209.5312 
L 678.784447 213.2768 
L 683.435395 213.2768 
L 683.435395 217.0224 
L 684.957687 217.0224 
L 684.957687 220.768 
L 687.236848 220.768 
L 687.236848 224.5136 
L 689.848351 224.5136 
L 689.848351 228.2592 
L 693.429109 228.2592 
L 693.429109 232.0048 
L 694.836842 232.0048 
L 694.836842 235.7504 
L 698.401739 235.7504 
L 698.401739 239.496 
L 699.051077 239.496 
L 699.051077 243.2416 
L 699.732589 243.2416 
L 699.837081 250.7328 
L 701.949836 250.7328 
L 701.949836 254.4784 
L 702.68222 254.4784 
L 702.68222 258.224 
L 704.066802 258.224 
L 704.066802 261.9696 
L 708.675563 261.9696 
L 708.675563 265.7152 
L 709.001816 265.7152 
L 709.001816 269.4608 
L 709.630631 269.4608 
L 709.630631 273.2064 
L 709.755121 273.2064 
L 709.755121 276.952 
L 711.036562 276.952 
L 711.036562 280.6976 
L 716.146698 280.6976 
L 716.16614 288.1888 
L 719.952039 288.1888 
L 719.952039 291.9344 
L 721.874118 291.9344 
L 721.874118 295.68 
L 725.098274 295.68 
L 725.098274 299.4256 
L 725.599754 299.4256 
L 725.599754 303.1712 
L 726.30269 303.1712 
L 726.30269 306.9168 
L 726.606731 306.9168 
L 726.606731 310.6624 
L 728.437837 310.6624 
L 728.437837 314.408 
L 728.760847 314.408 
L 728.760847 318.1536 
L 731.407323 318.1536 
L 731.407323 321.8992 
L 734.163937 321.8992 
L 734.163937 325.6448 
L 740.899122 325.6448 
L 740.899122 329.3904 
L 742.389608 329.3904 
L 742.443325 336.8816 
L 743.536905 336.8816 
L 743.536905 340.6272 
L 748.137221 340.6272 
L 748.137221 344.3728 
L 748.941301 344.3728 
L 748.941301 348.1184 
L 751.951923 348.1184 
L 751.951923 351.864 
L 755.456587 351.864 
L 755.456587 355.6096 
L 757.518672 355.6096 
L 757.518672 359.3552 
L 761.280167 359.3552 
L 761.280167 363.1008 
L 768.003762 363.1008 
L 768.003762 366.8464 
L 770.745393 366.8464 
L 770.745393 370.592 
L 776.798466 370.592 
L 776.798466 374.3376 
L 779.600689 374.3376 
L 779.600689 378.0832 
L 808.950051 378.0832 
L 808.950051 381.8288 
L 819.766304 381.8288 
L 819.766304 385.5744 
L 832.866493 385.5744 
L 832.866493 389.32 
L 832.866493 389.32 
" clip-path="url(#p76e9ad822f)" style="fill: none; stroke: #ffff00; stroke-width: 1.5; stroke-linecap: square"/>
   </g>
   <g id="line2d_29">
    <path d="M 701.667808 389.32 
L 701.667808 14.76 
" clip-path="url(#p76e9ad822f)" style="fill: none; stroke-dasharray: 11.1,4.8; stroke-dashoffset: 0; stroke: #ffa500; stroke-width: 3"/>
   </g>
   <g id="patch_63">
    <path d="M 475.13 389.32 
L 475.13 14.76 
" style="fill: none; stroke: #000000; stroke-width: 0.8; stroke-linejoin: miter; stroke-linecap: square"/>
   </g>
   <g id="patch_64">
    <path d="M 475.13 389.32 
L 853.2 389.32 
" style="fill: none; stroke: #000000; stroke-width: 0.8; stroke-linejoin: miter; stroke-linecap: square"/>
   </g>
   <g id="legend_2">
    <g id="patch_65">
     <path d="M 590.810937 66.794375 
L 846.2 66.794375 
Q 848.2 66.794375 848.2 64.794375 
L 848.2 21.76 
Q 848.2 19.76 846.2 19.76 
L 590.810937 19.76 
Q 588.810937 19.76 588.810937 21.76 
L 588.810937 64.794375 
Q 588.810937 66.794375 590.810937 66.794375 
z
" style="fill: #ffffff; opacity: 0.8; stroke: #000000; stroke-linejoin: miter"/>
    </g>
    <g id="patch_66">
     <path d="M 592.810937 31.358438 
L 612.810937 31.358438 
L 612.810937 24.358438 
L 592.810937 24.358438 
z
" style="fill: #ff0000; opacity: 0.8; stroke: #ff0000; stroke-linejoin: miter"/>
    </g>
    <g id="text_32">
     <!-- Less than Predicted WT Log Fluorescence -->
     <g transform="translate(620.810937 31.358438) scale(0.1 -0.1)">
      <defs>
       <path id="DejaVuSans-4c" d="M 628 4666 
L 1259 4666 
L 1259 531 
L 3531 531 
L 3531 0 
L 628 0 
L 628 4666 
z
" transform="scale(0.015625)"/>
       <path id="DejaVuSans-68" d="M 3513 2113 
L 3513 0 
L 2938 0 
L 2938 2094 
Q 2938 2591 2744 2837 
Q 2550 3084 2163 3084 
Q 1697 3084 1428 2787 
Q 1159 2491 1159 1978 
L 1159 0 
L 581 0 
L 581 4863 
L 1159 4863 
L 1159 2956 
Q 1366 3272 1645 3428 
Q 1925 3584 2291 3584 
Q 2894 3584 3203 3211 
Q 3513 2838 3513 2113 
z
" transform="scale(0.015625)"/>
       <path id="DejaVuSans-57" d="M 213 4666 
L 850 4666 
L 1831 722 
L 2809 4666 
L 3519 4666 
L 4500 722 
L 5478 4666 
L 6119 4666 
L 4947 0 
L 4153 0 
L 3169 4050 
L 2175 0 
L 1381 0 
L 213 4666 
z
" transform="scale(0.015625)"/>
       <path id="DejaVuSans-67" d="M 2906 1791 
Q 2906 2416 2648 2759 
Q 2391 3103 1925 3103 
Q 1463 3103 1205 2759 
Q 947 2416 947 1791 
Q 947 1169 1205 825 
Q 1463 481 1925 481 
Q 2391 481 2648 825 
Q 2906 1169 2906 1791 
z
M 3481 434 
Q 3481 -459 3084 -895 
Q 2688 -1331 1869 -1331 
Q 1566 -1331 1297 -1286 
Q 1028 -1241 775 -1147 
L 775 -588 
Q 1028 -725 1275 -790 
Q 1522 -856 1778 -856 
Q 2344 -856 2625 -561 
Q 2906 -266 2906 331 
L 2906 616 
Q 2728 306 2450 153 
Q 2172 0 1784 0 
Q 1141 0 747 490 
Q 353 981 353 1791 
Q 353 2603 747 3093 
Q 1141 3584 1784 3584 
Q 2172 3584 2450 3431 
Q 2728 3278 2906 2969 
L 2906 3500 
L 3481 3500 
L 3481 434 
z
" transform="scale(0.015625)"/>
      </defs>
      <use xlink:href="#DejaVuSans-4c"/>
      <use xlink:href="#DejaVuSans-65" x="53.962891"/>
      <use xlink:href="#DejaVuSans-73" x="115.486328"/>
      <use xlink:href="#DejaVuSans-73" x="167.585938"/>
      <use xlink:href="#DejaVuSans-20" x="219.685547"/>
      <use xlink:href="#DejaVuSans-74" x="251.472656"/>
      <use xlink:href="#DejaVuSans-68" x="290.681641"/>
      <use xlink:href="#DejaVuSans-61" x="354.060547"/>
      <use xlink:href="#DejaVuSans-6e" x="415.339844"/>
      <use xlink:href="#DejaVuSans-20" x="478.71875"/>
      <use xlink:href="#DejaVuSans-50" x="510.505859"/>
      <use xlink:href="#DejaVuSans-72" x="569.058594"/>
      <use xlink:href="#DejaVuSans-65" x="607.921875"/>
      <use xlink:href="#DejaVuSans-64" x="669.445312"/>
      <use xlink:href="#DejaVuSans-69" x="732.921875"/>
      <use xlink:href="#DejaVuSans-63" x="760.705078"/>
      <use xlink:href="#DejaVuSans-74" x="815.685547"/>
      <use xlink:href="#DejaVuSans-65" x="854.894531"/>
      <use xlink:href="#DejaVuSans-64" x="916.417969"/>
      <use xlink:href="#DejaVuSans-20" x="979.894531"/>
      <use xlink:href="#DejaVuSans-57" x="1011.681641"/>
      <use xlink:href="#DejaVuSans-54" x="1110.558594"/>
      <use xlink:href="#DejaVuSans-20" x="1171.642578"/>
      <use xlink:href="#DejaVuSans-4c" x="1203.429688"/>
      <use xlink:href="#DejaVuSans-6f" x="1257.392578"/>
      <use xlink:href="#DejaVuSans-67" x="1318.574219"/>
      <use xlink:href="#DejaVuSans-20" x="1382.050781"/>
      <use xlink:href="#DejaVuSans-46" x="1413.837891"/>
      <use xlink:href="#DejaVuSans-6c" x="1471.357422"/>
      <use xlink:href="#DejaVuSans-75" x="1499.140625"/>
      <use xlink:href="#DejaVuSans-6f" x="1562.519531"/>
      <use xlink:href="#DejaVuSans-72" x="1623.701172"/>
      <use xlink:href="#DejaVuSans-65" x="1662.564453"/>
      <use xlink:href="#DejaVuSans-73" x="1724.087891"/>
      <use xlink:href="#DejaVuSans-63" x="1776.1875"/>
      <use xlink:href="#DejaVuSans-65" x="1831.167969"/>
      <use xlink:href="#DejaVuSans-6e" x="1892.691406"/>
      <use xlink:href="#DejaVuSans-63" x="1956.070312"/>
      <use xlink:href="#DejaVuSans-65" x="2011.050781"/>
     </g>
    </g>
    <g id="patch_67">
     <path d="M 592.810937 46.036563 
L 612.810937 46.036563 
L 612.810937 39.036563 
L 592.810937 39.036563 
z
" style="fill: #ffa500; opacity: 0.8; stroke: #ffa500; stroke-linejoin: miter"/>
    </g>
    <g id="text_33">
     <!-- Predicted WT Log Fluorescence -->
     <g transform="translate(620.810937 46.036563) scale(0.1 -0.1)">
      <use xlink:href="#DejaVuSans-50"/>
      <use xlink:href="#DejaVuSans-72" x="58.552734"/>
      <use xlink:href="#DejaVuSans-65" x="97.416016"/>
      <use xlink:href="#DejaVuSans-64" x="158.939453"/>
      <use xlink:href="#DejaVuSans-69" x="222.416016"/>
      <use xlink:href="#DejaVuSans-63" x="250.199219"/>
      <use xlink:href="#DejaVuSans-74" x="305.179688"/>
      <use xlink:href="#DejaVuSans-65" x="344.388672"/>
      <use xlink:href="#DejaVuSans-64" x="405.912109"/>
      <use xlink:href="#DejaVuSans-20" x="469.388672"/>
      <use xlink:href="#DejaVuSans-57" x="501.175781"/>
      <use xlink:href="#DejaVuSans-54" x="600.052734"/>
      <use xlink:href="#DejaVuSans-20" x="661.136719"/>
      <use xlink:href="#DejaVuSans-4c" x="692.923828"/>
      <use xlink:href="#DejaVuSans-6f" x="746.886719"/>
      <use xlink:href="#DejaVuSans-67" x="808.068359"/>
      <use xlink:href="#DejaVuSans-20" x="871.544922"/>
      <use xlink:href="#DejaVuSans-46" x="903.332031"/>
      <use xlink:href="#DejaVuSans-6c" x="960.851562"/>
      <use xlink:href="#DejaVuSans-75" x="988.634766"/>
      <use xlink:href="#DejaVuSans-6f" x="1052.013672"/>
      <use xlink:href="#DejaVuSans-72" x="1113.195312"/>
      <use xlink:href="#DejaVuSans-65" x="1152.058594"/>
      <use xlink:href="#DejaVuSans-73" x="1213.582031"/>
      <use xlink:href="#DejaVuSans-63" x="1265.681641"/>
      <use xlink:href="#DejaVuSans-65" x="1320.662109"/>
      <use xlink:href="#DejaVuSans-6e" x="1382.185547"/>
      <use xlink:href="#DejaVuSans-63" x="1445.564453"/>
      <use xlink:href="#DejaVuSans-65" x="1500.544922"/>
     </g>
    </g>
    <g id="patch_68">
     <path d="M 592.810937 60.714688 
L 612.810937 60.714688 
L 612.810937 53.714688 
L 592.810937 53.714688 
z
" style="fill: #008000; opacity: 0.8; stroke: #008000; stroke-linejoin: miter"/>
    </g>
    <g id="text_34">
     <!-- Greater than Predicted WT Log Fluorescence -->
     <g transform="translate(620.810937 60.714688) scale(0.1 -0.1)">
      <defs>
       <path id="DejaVuSans-47" d="M 3809 666 
L 3809 1919 
L 2778 1919 
L 2778 2438 
L 4434 2438 
L 4434 434 
Q 4069 175 3628 42 
Q 3188 -91 2688 -91 
Q 1594 -91 976 548 
Q 359 1188 359 2328 
Q 359 3472 976 4111 
Q 1594 4750 2688 4750 
Q 3144 4750 3555 4637 
Q 3966 4525 4313 4306 
L 4313 3634 
Q 3963 3931 3569 4081 
Q 3175 4231 2741 4231 
Q 1884 4231 1454 3753 
Q 1025 3275 1025 2328 
Q 1025 1384 1454 906 
Q 1884 428 2741 428 
Q 3075 428 3337 486 
Q 3600 544 3809 666 
z
" transform="scale(0.015625)"/>
      </defs>
      <use xlink:href="#DejaVuSans-47"/>
      <use xlink:href="#DejaVuSans-72" x="77.490234"/>
      <use xlink:href="#DejaVuSans-65" x="116.353516"/>
      <use xlink:href="#DejaVuSans-61" x="177.876953"/>
      <use xlink:href="#DejaVuSans-74" x="239.15625"/>
      <use xlink:href="#DejaVuSans-65" x="278.365234"/>
      <use xlink:href="#DejaVuSans-72" x="339.888672"/>
      <use xlink:href="#DejaVuSans-20" x="381.001953"/>
      <use xlink:href="#DejaVuSans-74" x="412.789062"/>
      <use xlink:href="#DejaVuSans-68" x="451.998047"/>
      <use xlink:href="#DejaVuSans-61" x="515.376953"/>
      <use xlink:href="#DejaVuSans-6e" x="576.65625"/>
      <use xlink:href="#DejaVuSans-20" x="640.035156"/>
      <use xlink:href="#DejaVuSans-50" x="671.822266"/>
      <use xlink:href="#DejaVuSans-72" x="730.375"/>
      <use xlink:href="#DejaVuSans-65" x="769.238281"/>
      <use xlink:href="#DejaVuSans-64" x="830.761719"/>
      <use xlink:href="#DejaVuSans-69" x="894.238281"/>
      <use xlink:href="#DejaVuSans-63" x="922.021484"/>
      <use xlink:href="#DejaVuSans-74" x="977.001953"/>
      <use xlink:href="#DejaVuSans-65" x="1016.210938"/>
      <use xlink:href="#DejaVuSans-64" x="1077.734375"/>
      <use xlink:href="#DejaVuSans-20" x="1141.210938"/>
      <use xlink:href="#DejaVuSans-57" x="1172.998047"/>
      <use xlink:href="#DejaVuSans-54" x="1271.875"/>
      <use xlink:href="#DejaVuSans-20" x="1332.958984"/>
      <use xlink:href="#DejaVuSans-4c" x="1364.746094"/>
      <use xlink:href="#DejaVuSans-6f" x="1418.708984"/>
      <use xlink:href="#DejaVuSans-67" x="1479.890625"/>
      <use xlink:href="#DejaVuSans-20" x="1543.367188"/>
      <use xlink:href="#DejaVuSans-46" x="1575.154297"/>
      <use xlink:href="#DejaVuSans-6c" x="1632.673828"/>
      <use xlink:href="#DejaVuSans-75" x="1660.457031"/>
      <use xlink:href="#DejaVuSans-6f" x="1723.835938"/>
      <use xlink:href="#DejaVuSans-72" x="1785.017578"/>
      <use xlink:href="#DejaVuSans-65" x="1823.880859"/>
      <use xlink:href="#DejaVuSans-73" x="1885.404297"/>
      <use xlink:href="#DejaVuSans-63" x="1937.503906"/>
      <use xlink:href="#DejaVuSans-65" x="1992.484375"/>
      <use xlink:href="#DejaVuSans-6e" x="2054.007812"/>
      <use xlink:href="#DejaVuSans-63" x="2117.386719"/>
      <use xlink:href="#DejaVuSans-65" x="2172.367188"/>
     </g>
    </g>
   </g>
  </g>
 </g>
 <defs>
  <clipPath id="p27a07651da">
   <rect x="48.53" y="14.76" width="378.07" height="374.56"/>
  </clipPath>
  <clipPath id="p76e9ad822f">
   <rect x="475.13" y="14.76" width="378.07" height="374.56"/>
  </clipPath>
 </defs>
</svg>
