<?xml version="1.0" encoding="utf-8" standalone="no"?>
<!DOCTYPE svg PUBLIC "-//W3C//DTD SVG 1.1//EN"
  "http://www.w3.org/Graphics/SVG/1.1/DTD/svg11.dtd">
<svg xmlns:xlink="http://www.w3.org/1999/xlink" width="432pt" height="432pt" viewBox="0 0 432 432" xmlns="http://www.w3.org/2000/svg" version="1.1">
 <metadata>
  <rdf:RDF xmlns:dc="http://purl.org/dc/elements/1.1/" xmlns:cc="http://creativecommons.org/ns#" xmlns:rdf="http://www.w3.org/1999/02/22-rdf-syntax-ns#">
   <cc:Work>
    <dc:type rdf:resource="http://purl.org/dc/dcmitype/StillImage"/>
    <dc:date>2025-04-02T15:12:55.930172</dc:date>
    <dc:format>image/svg+xml</dc:format>
    <dc:creator>
     <cc:Agent>
      <dc:title>Matplotlib v3.8.0, https://matplotlib.org/</dc:title>
     </cc:Agent>
    </dc:creator>
   </cc:Work>
  </rdf:RDF>
 </metadata>
 <defs>
  <style type="text/css">*{stroke-linejoin: round; stroke-linecap: butt}</style>
 </defs>
 <g id="figure_1">
  <g id="patch_1">
   <path d="M 0 432 
L 432 432 
L 432 0 
L 0 0 
z
" style="fill: #ffffff"/>
  </g>
  <g id="axes_1">
   <g id="patch_2">
    <path d="M 64.19 389.32 
L 410.438491 389.32 
L 410.438491 10.8 
L 64.19 10.8 
z
" style="fill: #ffffff"/>
   </g>
   <g id="PolyCollection_1">
    <defs>
     <path id="m1c483be5b9" d="M 84.285855 -42.69788 
L 84.285855 -42.68 
L 85.62386 -42.68 
L 86.961866 -42.68 
L 88.299872 -42.68 
L 89.637877 -42.68 
L 90.975883 -42.68 
L 92.313889 -42.68 
L 93.651895 -42.68 
L 94.9899 -42.68 
L 96.327906 -42.68 
L 97.665912 -42.68 
L 99.003917 -42.68 
L 100.341923 -42.68 
L 101.679929 -42.68 
L 103.017934 -42.68 
L 104.35594 -42.68 
L 105.693946 -42.68 
L 107.031951 -42.68 
L 108.369957 -42.68 
L 109.707963 -42.68 
L 111.045969 -42.68 
L 112.383974 -42.68 
L 113.72198 -42.68 
L 115.059986 -42.68 
L 116.397991 -42.68 
L 117.735997 -42.68 
L 119.074003 -42.68 
L 120.412008 -42.68 
L 121.750014 -42.68 
L 123.08802 -42.68 
L 124.426026 -42.68 
L 125.764031 -42.68 
L 127.102037 -42.68 
L 128.440043 -42.68 
L 129.778048 -42.68 
L 131.116054 -42.68 
L 132.45406 -42.68 
L 133.792065 -42.68 
L 135.130071 -42.68 
L 136.468077 -42.68 
L 137.806082 -42.68 
L 139.144088 -42.68 
L 140.482094 -42.68 
L 141.8201 -42.68 
L 143.158105 -42.68 
L 144.496111 -42.68 
L 145.834117 -42.68 
L 147.172122 -42.68 
L 148.510128 -42.68 
L 149.848134 -42.68 
L 151.186139 -42.68 
L 152.524145 -42.68 
L 153.862151 -42.68 
L 155.200157 -42.68 
L 156.538162 -42.68 
L 157.876168 -42.68 
L 159.214174 -42.68 
L 160.552179 -42.68 
L 161.890185 -42.68 
L 163.228191 -42.68 
L 164.566196 -42.68 
L 165.904202 -42.68 
L 167.242208 -42.68 
L 168.580213 -42.68 
L 169.918219 -42.68 
L 171.256225 -42.68 
L 172.594231 -42.68 
L 173.932236 -42.68 
L 175.270242 -42.68 
L 176.608248 -42.68 
L 177.946253 -42.68 
L 179.284259 -42.68 
L 180.622265 -42.68 
L 181.96027 -42.68 
L 183.298276 -42.68 
L 184.636282 -42.68 
L 185.974288 -42.68 
L 187.312293 -42.68 
L 188.650299 -42.68 
L 189.988305 -42.68 
L 191.32631 -42.68 
L 192.664316 -42.68 
L 194.002322 -42.68 
L 195.340327 -42.68 
L 196.678333 -42.68 
L 198.016339 -42.68 
L 199.354344 -42.68 
L 200.69235 -42.68 
L 202.030356 -42.68 
L 203.368362 -42.68 
L 204.706367 -42.68 
L 206.044373 -42.68 
L 207.382379 -42.68 
L 208.720384 -42.68 
L 210.05839 -42.68 
L 211.396396 -42.68 
L 212.734401 -42.68 
L 214.072407 -42.68 
L 215.410413 -42.68 
L 216.748419 -42.68 
L 218.086424 -42.68 
L 219.42443 -42.68 
L 220.762436 -42.68 
L 222.100441 -42.68 
L 223.438447 -42.68 
L 224.776453 -42.68 
L 226.114458 -42.68 
L 227.452464 -42.68 
L 228.79047 -42.68 
L 230.128475 -42.68 
L 231.466481 -42.68 
L 232.804487 -42.68 
L 234.142493 -42.68 
L 235.480498 -42.68 
L 236.818504 -42.68 
L 238.15651 -42.68 
L 239.494515 -42.68 
L 240.832521 -42.68 
L 242.170527 -42.68 
L 243.508532 -42.68 
L 244.846538 -42.68 
L 246.184544 -42.68 
L 247.52255 -42.68 
L 248.860555 -42.68 
L 250.198561 -42.68 
L 251.536567 -42.68 
L 252.874572 -42.68 
L 254.212578 -42.68 
L 255.550584 -42.68 
L 256.888589 -42.68 
L 258.226595 -42.68 
L 259.564601 -42.68 
L 260.902606 -42.68 
L 262.240612 -42.68 
L 263.578618 -42.68 
L 264.916624 -42.68 
L 266.254629 -42.68 
L 267.592635 -42.68 
L 268.930641 -42.68 
L 270.268646 -42.68 
L 271.606652 -42.68 
L 272.944658 -42.68 
L 274.282663 -42.68 
L 275.620669 -42.68 
L 276.958675 -42.68 
L 278.296681 -42.68 
L 279.634686 -42.68 
L 280.972692 -42.68 
L 282.310698 -42.68 
L 283.648703 -42.68 
L 284.986709 -42.68 
L 286.324715 -42.68 
L 287.66272 -42.68 
L 289.000726 -42.68 
L 290.338732 -42.68 
L 291.676737 -42.68 
L 293.014743 -42.68 
L 294.352749 -42.68 
L 295.690755 -42.68 
L 297.02876 -42.68 
L 298.366766 -42.68 
L 299.704772 -42.68 
L 301.042777 -42.68 
L 302.380783 -42.68 
L 303.718789 -42.68 
L 305.056794 -42.68 
L 306.3948 -42.68 
L 307.732806 -42.68 
L 309.070812 -42.68 
L 310.408817 -42.68 
L 311.746823 -42.68 
L 313.084829 -42.68 
L 314.422834 -42.68 
L 315.76084 -42.68 
L 317.098846 -42.68 
L 318.436851 -42.68 
L 319.774857 -42.68 
L 321.112863 -42.68 
L 322.450868 -42.68 
L 323.788874 -42.68 
L 325.12688 -42.68 
L 326.464886 -42.68 
L 327.802891 -42.68 
L 329.140897 -42.68 
L 330.478903 -42.68 
L 331.816908 -42.68 
L 333.154914 -42.68 
L 334.49292 -42.68 
L 335.830925 -42.68 
L 337.168931 -42.68 
L 338.506937 -42.68 
L 339.844943 -42.68 
L 341.182948 -42.68 
L 342.520954 -42.68 
L 343.85896 -42.68 
L 345.196965 -42.68 
L 346.534971 -42.68 
L 347.872977 -42.68 
L 349.210982 -42.68 
L 350.548988 -42.68 
L 350.548988 -42.705502 
L 350.548988 -42.705502 
L 349.210982 -42.719118 
L 347.872977 -42.739163 
L 346.534971 -42.76825 
L 345.196965 -42.809859 
L 343.85896 -42.868551 
L 342.520954 -42.950207 
L 341.182948 -43.062287 
L 339.844943 -43.2141 
L 338.506937 -43.417074 
L 337.168931 -43.685008 
L 335.830925 -44.034295 
L 334.49292 -44.484077 
L 333.154914 -45.056326 
L 331.816908 -45.775809 
L 330.478903 -46.669931 
L 329.140897 -47.768413 
L 327.802891 -49.102803 
L 326.464886 -50.70582 
L 325.12688 -52.610513 
L 323.788874 -54.849285 
L 322.450868 -57.452787 
L 321.112863 -60.448756 
L 319.774857 -63.860844 
L 318.436851 -67.707519 
L 317.098846 -72.001099 
L 315.76084 -76.747 
L 314.422834 -81.94325 
L 313.084829 -87.580301 
L 311.746823 -93.641168 
L 310.408817 -100.101887 
L 309.070812 -106.932266 
L 307.732806 -114.09691 
L 306.3948 -121.556456 
L 305.056794 -129.269004 
L 303.718789 -137.191663 
L 302.380783 -145.2822 
L 301.042777 -153.500704 
L 299.704772 -161.811189 
L 298.366766 -170.183047 
L 297.02876 -178.592187 
L 295.690755 -187.021729 
L 294.352749 -195.462083 
L 293.014743 -203.910291 
L 291.676737 -212.368545 
L 290.338732 -220.841933 
L 289.000726 -229.335522 
L 287.66272 -237.851051 
L 286.324715 -246.383605 
L 284.986709 -254.918685 
L 283.648703 -263.430135 
L 282.310698 -271.879296 
L 280.972692 -280.215645 
L 279.634686 -288.37901 
L 278.296681 -296.303213 
L 276.958675 -303.92083 
L 275.620669 -311.168542 
L 274.282663 -317.992469 
L 272.944658 -324.352852 
L 271.606652 -330.227489 
L 270.268646 -335.61349 
L 268.930641 -340.527104 
L 267.592635 -345.001625 
L 266.254629 -349.083586 
L 264.916624 -352.827689 
L 263.578618 -356.29103 
L 262.240612 -359.527264 
L 260.902606 -362.581343 
L 259.564601 -365.485353 
L 258.226595 -368.255866 
L 256.888589 -370.893011 
L 255.550584 -373.381293 
L 254.212578 -375.691995 
L 252.874572 -377.786861 
L 251.536567 -379.622613 
L 250.198561 -381.155815 
L 248.860555 -382.347551 
L 247.52255 -383.167439 
L 246.184544 -383.596537 
L 244.846538 -383.62885 
L 243.508532 -383.271266 
L 242.170527 -382.541964 
L 240.832521 -381.467476 
L 239.494515 -380.078811 
L 238.15651 -378.407163 
L 236.818504 -376.479807 
L 235.480498 -374.316795 
L 234.142493 -371.928961 
L 232.804487 -369.317571 
L 231.466481 -366.475706 
L 230.128475 -363.391214 
L 228.79047 -360.050791 
L 227.452464 -356.444596 
L 226.114458 -352.570681 
L 224.776453 -348.438552 
L 223.438447 -344.071295 
L 222.100441 -339.505909 
L 220.762436 -334.791755 
L 219.42443 -329.987278 
L 218.086424 -325.155414 
L 216.748419 -320.358215 
L 215.410413 -315.65135 
L 214.072407 -311.079088 
L 212.734401 -306.670293 
L 211.396396 -302.435823 
L 210.05839 -298.367536 
L 208.720384 -294.438913 
L 207.382379 -290.60716 
L 206.044373 -286.816497 
L 204.706367 -283.002267 
L 203.368362 -279.095461 
L 202.030356 -275.027251 
L 200.69235 -270.733223 
L 199.354344 -266.157022 
L 198.016339 -261.253284 
L 196.678333 -255.98977 
L 195.340327 -250.348738 
L 194.002322 -244.327587 
L 192.664316 -237.938882 
L 191.32631 -231.20981 
L 189.988305 -224.181129 
L 188.650299 -216.905645 
L 187.312293 -209.446217 
L 185.974288 -201.873338 
L 184.636282 -194.262328 
L 183.298276 -186.690271 
L 181.96027 -179.232845 
L 180.622265 -171.961264 
L 179.284259 -164.93957 
L 177.946253 -158.222485 
L 176.608248 -151.854012 
L 175.270242 -145.866859 
L 173.932236 -140.282679 
L 172.594231 -135.113 
L 171.256225 -130.360644 
L 169.918219 -126.021376 
L 168.580213 -122.085531 
L 167.242208 -118.539391 
L 165.904202 -115.366184 
L 164.566196 -112.546662 
L 163.228191 -110.059317 
L 161.890185 -107.880365 
L 160.552179 -105.983687 
L 159.214174 -104.340875 
L 157.876168 -102.921539 
L 156.538162 -101.693903 
L 155.200157 -100.625681 
L 153.862151 -99.685115 
L 152.524145 -98.842029 
L 151.186139 -98.068701 
L 149.848134 -97.340428 
L 148.510128 -96.635653 
L 147.172122 -95.935659 
L 145.834117 -95.223867 
L 144.496111 -94.48488 
L 143.158105 -93.703467 
L 141.8201 -92.863678 
L 140.482094 -91.948291 
L 139.144088 -90.938743 
L 137.806082 -89.815595 
L 136.468077 -88.559558 
L 135.130071 -87.152956 
L 133.792065 -85.581471 
L 132.45406 -83.835951 
L 131.116054 -81.91404 
L 129.778048 -79.821399 
L 128.440043 -77.572328 
L 127.102037 -75.189684 
L 125.764031 -72.704041 
L 124.426026 -70.152178 
L 123.08802 -67.575011 
L 121.750014 -65.015194 
L 120.412008 -62.514612 
L 119.074003 -60.112024 
L 117.735997 -57.841059 
L 116.397991 -55.728733 
L 115.059986 -53.794571 
L 113.72198 -52.050362 
L 112.383974 -50.500476 
L 111.045969 -49.142664 
L 109.707963 -47.969161 
L 108.369957 -46.96799 
L 107.031951 -46.124278 
L 105.693946 -45.4215 
L 104.35594 -44.842556 
L 103.017934 -44.370622 
L 101.679929 -43.98979 
L 100.341923 -43.68547 
L 99.003917 -43.444623 
L 97.665912 -43.255837 
L 96.327906 -43.109296 
L 94.9899 -42.996684 
L 93.651895 -42.911045 
L 92.313889 -42.846628 
L 90.975883 -42.798727 
L 89.637877 -42.763538 
L 88.299872 -42.738014 
L 86.961866 -42.719746 
L 85.62386 -42.706851 
L 84.285855 -42.69788 
z
" style="stroke: #bdbdbd; stroke-width: 2.5"/>
    </defs>
    <g clip-path="url(#pa472fa0f04)">
     <use xlink:href="#m1c483be5b9" x="0" y="432" style="fill: #bdbdbd; fill-opacity: 0.5; stroke: #bdbdbd; stroke-width: 2.5"/>
    </g>
   </g>
   <g id="PolyCollection_2">
    <defs>
     <path id="m04106ae24f" d="M 79.928568 -42.695592 
L 79.928568 -42.68 
L 81.510333 -42.68 
L 83.092099 -42.68 
L 84.673865 -42.68 
L 86.25563 -42.68 
L 87.837396 -42.68 
L 89.419161 -42.68 
L 91.000927 -42.68 
L 92.582693 -42.68 
L 94.164458 -42.68 
L 95.746224 -42.68 
L 97.327989 -42.68 
L 98.909755 -42.68 
L 100.491521 -42.68 
L 102.073286 -42.68 
L 103.655052 -42.68 
L 105.236817 -42.68 
L 106.818583 -42.68 
L 108.400349 -42.68 
L 109.982114 -42.68 
L 111.56388 -42.68 
L 113.145645 -42.68 
L 114.727411 -42.68 
L 116.309177 -42.68 
L 117.890942 -42.68 
L 119.472708 -42.68 
L 121.054474 -42.68 
L 122.636239 -42.68 
L 124.218005 -42.68 
L 125.79977 -42.68 
L 127.381536 -42.68 
L 128.963302 -42.68 
L 130.545067 -42.68 
L 132.126833 -42.68 
L 133.708598 -42.68 
L 135.290364 -42.68 
L 136.87213 -42.68 
L 138.453895 -42.68 
L 140.035661 -42.68 
L 141.617426 -42.68 
L 143.199192 -42.68 
L 144.780958 -42.68 
L 146.362723 -42.68 
L 147.944489 -42.68 
L 149.526254 -42.68 
L 151.10802 -42.68 
L 152.689786 -42.68 
L 154.271551 -42.68 
L 155.853317 -42.68 
L 157.435082 -42.68 
L 159.016848 -42.68 
L 160.598614 -42.68 
L 162.180379 -42.68 
L 163.762145 -42.68 
L 165.34391 -42.68 
L 166.925676 -42.68 
L 168.507442 -42.68 
L 170.089207 -42.68 
L 171.670973 -42.68 
L 173.252738 -42.68 
L 174.834504 -42.68 
L 176.41627 -42.68 
L 177.998035 -42.68 
L 179.579801 -42.68 
L 181.161567 -42.68 
L 182.743332 -42.68 
L 184.325098 -42.68 
L 185.906863 -42.68 
L 187.488629 -42.68 
L 189.070395 -42.68 
L 190.65216 -42.68 
L 192.233926 -42.68 
L 193.815691 -42.68 
L 195.397457 -42.68 
L 196.979223 -42.68 
L 198.560988 -42.68 
L 200.142754 -42.68 
L 201.724519 -42.68 
L 203.306285 -42.68 
L 204.888051 -42.68 
L 206.469816 -42.68 
L 208.051582 -42.68 
L 209.633347 -42.68 
L 211.215113 -42.68 
L 212.796879 -42.68 
L 214.378644 -42.68 
L 215.96041 -42.68 
L 217.542175 -42.68 
L 219.123941 -42.68 
L 220.705707 -42.68 
L 222.287472 -42.68 
L 223.869238 -42.68 
L 225.451003 -42.68 
L 227.032769 -42.68 
L 228.614535 -42.68 
L 230.1963 -42.68 
L 231.778066 -42.68 
L 233.359831 -42.68 
L 234.941597 -42.68 
L 236.523363 -42.68 
L 238.105128 -42.68 
L 239.686894 -42.68 
L 241.26866 -42.68 
L 242.850425 -42.68 
L 244.432191 -42.68 
L 246.013956 -42.68 
L 247.595722 -42.68 
L 249.177488 -42.68 
L 250.759253 -42.68 
L 252.341019 -42.68 
L 253.922784 -42.68 
L 255.50455 -42.68 
L 257.086316 -42.68 
L 258.668081 -42.68 
L 260.249847 -42.68 
L 261.831612 -42.68 
L 263.413378 -42.68 
L 264.995144 -42.68 
L 266.576909 -42.68 
L 268.158675 -42.68 
L 269.74044 -42.68 
L 271.322206 -42.68 
L 272.903972 -42.68 
L 274.485737 -42.68 
L 276.067503 -42.68 
L 277.649268 -42.68 
L 279.231034 -42.68 
L 280.8128 -42.68 
L 282.394565 -42.68 
L 283.976331 -42.68 
L 285.558096 -42.68 
L 287.139862 -42.68 
L 288.721628 -42.68 
L 290.303393 -42.68 
L 291.885159 -42.68 
L 293.466924 -42.68 
L 295.04869 -42.68 
L 296.630456 -42.68 
L 298.212221 -42.68 
L 299.793987 -42.68 
L 301.375753 -42.68 
L 302.957518 -42.68 
L 304.539284 -42.68 
L 306.121049 -42.68 
L 307.702815 -42.68 
L 309.284581 -42.68 
L 310.866346 -42.68 
L 312.448112 -42.68 
L 314.029877 -42.68 
L 315.611643 -42.68 
L 317.193409 -42.68 
L 318.775174 -42.68 
L 320.35694 -42.68 
L 321.938705 -42.68 
L 323.520471 -42.68 
L 325.102237 -42.68 
L 326.684002 -42.68 
L 328.265768 -42.68 
L 329.847533 -42.68 
L 331.429299 -42.68 
L 333.011065 -42.68 
L 334.59283 -42.68 
L 336.174596 -42.68 
L 337.756361 -42.68 
L 339.338127 -42.68 
L 340.919893 -42.68 
L 342.501658 -42.68 
L 344.083424 -42.68 
L 345.665189 -42.68 
L 347.246955 -42.68 
L 348.828721 -42.68 
L 350.410486 -42.68 
L 351.992252 -42.68 
L 353.574018 -42.68 
L 355.155783 -42.68 
L 356.737549 -42.68 
L 358.319314 -42.68 
L 359.90108 -42.68 
L 361.482846 -42.68 
L 363.064611 -42.68 
L 364.646377 -42.68 
L 366.228142 -42.68 
L 367.809908 -42.68 
L 369.391674 -42.68 
L 370.973439 -42.68 
L 372.555205 -42.68 
L 374.13697 -42.68 
L 375.718736 -42.68 
L 377.300502 -42.68 
L 378.882267 -42.68 
L 380.464033 -42.68 
L 382.045798 -42.68 
L 383.627564 -42.68 
L 385.20933 -42.68 
L 386.791095 -42.68 
L 388.372861 -42.68 
L 389.954626 -42.68 
L 391.536392 -42.68 
L 393.118158 -42.68 
L 394.699923 -42.68 
L 394.699923 -42.695687 
L 394.699923 -42.695687 
L 393.118158 -42.70458 
L 391.536392 -42.71766 
L 389.954626 -42.736433 
L 388.372861 -42.762737 
L 386.791095 -42.79873 
L 385.20933 -42.846864 
L 383.627564 -42.909837 
L 382.045798 -42.990558 
L 380.464033 -43.09215 
L 378.882267 -43.218043 
L 377.300502 -43.372219 
L 375.718736 -43.55967 
L 374.13697 -43.787116 
L 372.555205 -44.064001 
L 370.973439 -44.403758 
L 369.391674 -44.825259 
L 367.809908 -45.354329 
L 366.228142 -46.025138 
L 364.646377 -46.881268 
L 363.064611 -47.976246 
L 361.482846 -49.373354 
L 359.90108 -51.144619 
L 358.319314 -53.368948 
L 356.737549 -56.129472 
L 355.155783 -59.510278 
L 353.574018 -63.592713 
L 351.992252 -68.451523 
L 350.410486 -74.151022 
L 348.828721 -80.741463 
L 347.246955 -88.255721 
L 345.665189 -96.706335 
L 344.083424 -106.082987 
L 342.501658 -116.350501 
L 340.919893 -127.447551 
L 339.338127 -139.286343 
L 337.756361 -151.753618 
L 336.174596 -164.713288 
L 334.59283 -178.01094 
L 333.011065 -191.480187 
L 331.429299 -204.950579 
L 329.847533 -218.256423 
L 328.265768 -231.245632 
L 326.684002 -243.78755 
L 325.102237 -255.778766 
L 323.520471 -267.146157 
L 321.938705 -277.846821 
L 320.35694 -287.865026 
L 318.775174 -297.206786 
L 317.193409 -305.892995 
L 315.611643 -313.95223 
L 314.029877 -321.414255 
L 312.448112 -328.30505 
L 310.866346 -334.643801 
L 309.284581 -340.441974 
L 307.702815 -345.704225 
L 306.121049 -350.430764 
L 304.539284 -354.620647 
L 302.957518 -358.275511 
L 301.375753 -361.40331 
L 299.793987 -364.021629 
L 298.212221 -366.160206 
L 296.630456 -367.86228 
L 295.04869 -369.184426 
L 293.466924 -370.1946 
L 291.885159 -370.968328 
L 290.303393 -371.583187 
L 288.721628 -372.112053 
L 287.139862 -372.615857 
L 285.558096 -373.136774 
L 283.976331 -373.692787 
L 282.394565 -374.274444 
L 280.8128 -374.844318 
L 279.231034 -375.339273 
L 277.649268 -375.675277 
L 276.067503 -375.754127 
L 274.485737 -375.471303 
L 272.903972 -374.724087 
L 271.322206 -373.419189 
L 269.74044 -371.479303 
L 268.158675 -368.848229 
L 266.576909 -365.494362 
L 264.995144 -361.412493 
L 263.413378 -356.623937 
L 261.831612 -351.175022 
L 260.249847 -345.134029 
L 258.668081 -338.586721 
L 257.086316 -331.63071 
L 255.50455 -324.369038 
L 253.922784 -316.903506 
L 252.341019 -309.328337 
L 250.759253 -301.724836 
L 249.177488 -294.157596 
L 247.595722 -286.672665 
L 246.013956 -279.29788 
L 244.432191 -272.04529 
L 242.850425 -264.915368 
L 241.26866 -257.902461 
L 239.686894 -251.000764 
L 238.105128 -244.209976 
L 236.523363 -237.539789 
L 234.941597 -231.012419 
L 233.359831 -224.662607 
L 231.778066 -218.534841 
L 230.1963 -212.677938 
L 228.614535 -207.137661 
L 227.032769 -201.948402 
L 225.451003 -197.12535 
L 223.869238 -192.658577 
L 222.287472 -188.510363 
L 220.705707 -184.616551 
L 219.123941 -180.892109 
L 217.542175 -177.240249 
L 215.96041 -173.563809 
L 214.378644 -169.777073 
L 212.796879 -165.816099 
L 211.215113 -161.645859 
L 209.633347 -157.263073 
L 208.051582 -152.694446 
L 206.469816 -147.99084 
L 204.888051 -143.218626 
L 203.306285 -138.449888 
L 201.724519 -133.753188 
L 200.142754 -129.186311 
L 198.560988 -124.791879 
L 196.979223 -120.596041 
L 195.397457 -116.609857 
L 193.815691 -112.832541 
L 192.233926 -109.255554 
L 190.65216 -105.866582 
L 189.070395 -102.652678 
L 187.488629 -99.602204 
L 185.906863 -96.705558 
L 184.325098 -93.954919 
L 182.743332 -91.3434 
L 181.161567 -88.864011 
L 179.579801 -86.508749 
L 177.998035 -84.268008 
L 176.41627 -82.130384 
L 174.834504 -80.082847 
L 173.252738 -78.111221 
L 171.670973 -76.200909 
L 170.089207 -74.33779 
L 168.507442 -72.509243 
L 166.925676 -70.705211 
L 165.34391 -68.919222 
L 163.762145 -67.149207 
L 162.180379 -65.397984 
L 160.598614 -63.673285 
L 159.016848 -61.987223 
L 157.435082 -60.355264 
L 155.853317 -58.794764 
L 154.271551 -57.323297 
L 152.689786 -55.956972 
L 151.10802 -54.708972 
L 149.526254 -53.588463 
L 147.944489 -52.599974 
L 146.362723 -51.743229 
L 144.780958 -51.013381 
L 143.199192 -50.40154 
L 141.617426 -49.895482 
L 140.035661 -49.480478 
L 138.453895 -49.14016 
L 136.87213 -48.857429 
L 135.290364 -48.615369 
L 133.708598 -48.39816 
L 132.126833 -48.191925 
L 130.545067 -47.985463 
L 128.963302 -47.770757 
L 127.381536 -47.543196 
L 125.79977 -47.30144 
L 124.218005 -47.046955 
L 122.636239 -46.783253 
L 121.054474 -46.514964 
L 119.472708 -46.246902 
L 117.890942 -45.983247 
L 116.309177 -45.726997 
L 114.727411 -45.479745 
L 113.145645 -45.241773 
L 111.56388 -45.012418 
L 109.982114 -44.79058 
L 108.400349 -44.575264 
L 106.818583 -44.366009 
L 105.236817 -44.163154 
L 103.655052 -43.967879 
L 102.073286 -43.782051 
L 100.491521 -43.607927 
L 98.909755 -43.44779 
L 97.327989 -43.303596 
L 95.746224 -43.176698 
L 94.164458 -43.067683 
L 92.582693 -42.976337 
L 91.000927 -42.90172 
L 89.419161 -42.842314 
L 87.837396 -42.796227 
L 86.25563 -42.761385 
L 84.673865 -42.735716 
L 83.092099 -42.717287 
L 81.510333 -42.70439 
L 79.928568 -42.695592 
z
" style="stroke: #92c5de; stroke-width: 2.5"/>
    </defs>
    <g clip-path="url(#pa472fa0f04)">
     <use xlink:href="#m04106ae24f" x="0" y="432" style="fill: #92c5de; fill-opacity: 0.5; stroke: #92c5de; stroke-width: 2.5"/>
    </g>
   </g>
   <g id="PolyCollection_3">
    <defs>
     <path id="m4731f0e4aa" d="M 80.177359 -42.696023 
L 80.177359 -42.68 
L 81.722549 -42.68 
L 83.267739 -42.68 
L 84.812929 -42.68 
L 86.358118 -42.68 
L 87.903308 -42.68 
L 89.448498 -42.68 
L 90.993688 -42.68 
L 92.538878 -42.68 
L 94.084068 -42.68 
L 95.629258 -42.68 
L 97.174447 -42.68 
L 98.719637 -42.68 
L 100.264827 -42.68 
L 101.810017 -42.68 
L 103.355207 -42.68 
L 104.900397 -42.68 
L 106.445587 -42.68 
L 107.990777 -42.68 
L 109.535966 -42.68 
L 111.081156 -42.68 
L 112.626346 -42.68 
L 114.171536 -42.68 
L 115.716726 -42.68 
L 117.261916 -42.68 
L 118.807106 -42.68 
L 120.352296 -42.68 
L 121.897485 -42.68 
L 123.442675 -42.68 
L 124.987865 -42.68 
L 126.533055 -42.68 
L 128.078245 -42.68 
L 129.623435 -42.68 
L 131.168625 -42.68 
L 132.713814 -42.68 
L 134.259004 -42.68 
L 135.804194 -42.68 
L 137.349384 -42.68 
L 138.894574 -42.68 
L 140.439764 -42.68 
L 141.984954 -42.68 
L 143.530144 -42.68 
L 145.075333 -42.68 
L 146.620523 -42.68 
L 148.165713 -42.68 
L 149.710903 -42.68 
L 151.256093 -42.68 
L 152.801283 -42.68 
L 154.346473 -42.68 
L 155.891662 -42.68 
L 157.436852 -42.68 
L 158.982042 -42.68 
L 160.527232 -42.68 
L 162.072422 -42.68 
L 163.617612 -42.68 
L 165.162802 -42.68 
L 166.707992 -42.68 
L 168.253181 -42.68 
L 169.798371 -42.68 
L 171.343561 -42.68 
L 172.888751 -42.68 
L 174.433941 -42.68 
L 175.979131 -42.68 
L 177.524321 -42.68 
L 179.06951 -42.68 
L 180.6147 -42.68 
L 182.15989 -42.68 
L 183.70508 -42.68 
L 185.25027 -42.68 
L 186.79546 -42.68 
L 188.34065 -42.68 
L 189.88584 -42.68 
L 191.431029 -42.68 
L 192.976219 -42.68 
L 194.521409 -42.68 
L 196.066599 -42.68 
L 197.611789 -42.68 
L 199.156979 -42.68 
L 200.702169 -42.68 
L 202.247359 -42.68 
L 203.792548 -42.68 
L 205.337738 -42.68 
L 206.882928 -42.68 
L 208.428118 -42.68 
L 209.973308 -42.68 
L 211.518498 -42.68 
L 213.063688 -42.68 
L 214.608877 -42.68 
L 216.154067 -42.68 
L 217.699257 -42.68 
L 219.244447 -42.68 
L 220.789637 -42.68 
L 222.334827 -42.68 
L 223.880017 -42.68 
L 225.425207 -42.68 
L 226.970396 -42.68 
L 228.515586 -42.68 
L 230.060776 -42.68 
L 231.605966 -42.68 
L 233.151156 -42.68 
L 234.696346 -42.68 
L 236.241536 -42.68 
L 237.786725 -42.68 
L 239.331915 -42.68 
L 240.877105 -42.68 
L 242.422295 -42.68 
L 243.967485 -42.68 
L 245.512675 -42.68 
L 247.057865 -42.68 
L 248.603055 -42.68 
L 250.148244 -42.68 
L 251.693434 -42.68 
L 253.238624 -42.68 
L 254.783814 -42.68 
L 256.329004 -42.68 
L 257.874194 -42.68 
L 259.419384 -42.68 
L 260.964574 -42.68 
L 262.509763 -42.68 
L 264.054953 -42.68 
L 265.600143 -42.68 
L 267.145333 -42.68 
L 268.690523 -42.68 
L 270.235713 -42.68 
L 271.780903 -42.68 
L 273.326092 -42.68 
L 274.871282 -42.68 
L 276.416472 -42.68 
L 277.961662 -42.68 
L 279.506852 -42.68 
L 281.052042 -42.68 
L 282.597232 -42.68 
L 284.142422 -42.68 
L 285.687611 -42.68 
L 287.232801 -42.68 
L 288.777991 -42.68 
L 290.323181 -42.68 
L 291.868371 -42.68 
L 293.413561 -42.68 
L 294.958751 -42.68 
L 296.50394 -42.68 
L 298.04913 -42.68 
L 299.59432 -42.68 
L 301.13951 -42.68 
L 302.6847 -42.68 
L 304.22989 -42.68 
L 305.77508 -42.68 
L 307.32027 -42.68 
L 308.865459 -42.68 
L 310.410649 -42.68 
L 311.955839 -42.68 
L 313.501029 -42.68 
L 315.046219 -42.68 
L 316.591409 -42.68 
L 318.136599 -42.68 
L 319.681788 -42.68 
L 321.226978 -42.68 
L 322.772168 -42.68 
L 324.317358 -42.68 
L 325.862548 -42.68 
L 327.407738 -42.68 
L 328.952928 -42.68 
L 330.498118 -42.68 
L 332.043307 -42.68 
L 333.588497 -42.68 
L 335.133687 -42.68 
L 336.678877 -42.68 
L 338.224067 -42.68 
L 339.769257 -42.68 
L 341.314447 -42.68 
L 342.859637 -42.68 
L 344.404826 -42.68 
L 345.950016 -42.68 
L 347.495206 -42.68 
L 349.040396 -42.68 
L 350.585586 -42.68 
L 352.130776 -42.68 
L 353.675966 -42.68 
L 355.221155 -42.68 
L 356.766345 -42.68 
L 358.311535 -42.68 
L 359.856725 -42.68 
L 361.401915 -42.68 
L 362.947105 -42.68 
L 364.492295 -42.68 
L 366.037485 -42.68 
L 367.582674 -42.68 
L 369.127864 -42.68 
L 370.673054 -42.68 
L 372.218244 -42.68 
L 373.763434 -42.68 
L 375.308624 -42.68 
L 376.853814 -42.68 
L 378.399003 -42.68 
L 379.944193 -42.68 
L 381.489383 -42.68 
L 383.034573 -42.68 
L 384.579763 -42.68 
L 386.124953 -42.68 
L 387.670143 -42.68 
L 387.670143 -42.700136 
L 387.670143 -42.700136 
L 386.124953 -42.712602 
L 384.579763 -42.731794 
L 383.034573 -42.760776 
L 381.489383 -42.803735 
L 379.944193 -42.866272 
L 378.399003 -42.955741 
L 376.853814 -43.081608 
L 375.308624 -43.255834 
L 373.763434 -43.493246 
L 372.218244 -43.811881 
L 370.673054 -44.233241 
L 369.127864 -44.782429 
L 367.582674 -45.488104 
L 366.037485 -46.38219 
L 364.492295 -47.499311 
L 362.947105 -48.875942 
L 361.401915 -50.549284 
L 359.856725 -52.555976 
L 358.311535 -54.930765 
L 356.766345 -57.705358 
L 355.221155 -60.907656 
L 353.675966 -64.561617 
L 352.130776 -68.687913 
L 350.585586 -73.30542 
L 349.040396 -78.433477 
L 347.495206 -84.094612 
L 345.950016 -90.317288 
L 344.404826 -97.138085 
L 342.859637 -104.602668 
L 341.314447 -112.764967 
L 339.769257 -121.684165 
L 338.224067 -131.419414 
L 336.678877 -142.022538 
L 335.133687 -153.529417 
L 333.588497 -165.951025 
L 332.043307 -179.26529 
L 330.498118 -193.410977 
L 328.952928 -208.284528 
L 327.407738 -223.740494 
L 325.862548 -239.595652 
L 324.317358 -255.636455 
L 322.772168 -271.629024 
L 321.226978 -287.33066 
L 319.681788 -302.501782 
L 318.136599 -316.917296 
L 316.591409 -330.376679 
L 315.046219 -342.712323 
L 313.501029 -353.795963 
L 311.955839 -363.5432 
L 310.410649 -371.916155 
L 308.865459 -378.924288 
L 307.32027 -384.62326 
L 305.77508 -389.111651 
L 304.22989 -392.525281 
L 302.6847 -395.029008 
L 301.13951 -396.806068 
L 299.59432 -398.045369 
L 298.04913 -398.927543 
L 296.50394 -399.6109 
L 294.958751 -400.218687 
L 293.413561 -400.829096 
L 291.868371 -401.469301 
L 290.323181 -402.11445 
L 288.777991 -402.691961 
L 287.232801 -403.090857 
L 285.687611 -403.175238 
L 284.142422 -402.800476 
L 282.597232 -401.830332 
L 281.052042 -400.153095 
L 279.506852 -397.694926 
L 277.961662 -394.428902 
L 276.416472 -390.378786 
L 274.871282 -385.617103 
L 273.326092 -380.257802 
L 271.780903 -374.444375 
L 270.235713 -368.334822 
L 268.690523 -362.085214 
L 267.145333 -355.833756 
L 265.600143 -349.687195 
L 264.054953 -343.711128 
L 262.509763 -337.925329 
L 260.964574 -332.304587 
L 259.419384 -326.784929 
L 257.874194 -321.274402 
L 256.329004 -315.667075 
L 254.783814 -309.858478 
L 253.238624 -303.760542 
L 251.693434 -297.314141 
L 250.148244 -290.497679 
L 248.603055 -283.330696 
L 247.057865 -275.872157 
L 245.512675 -268.213852 
L 243.967485 -260.469982 
L 242.422295 -252.76454 
L 240.877105 -245.218278 
L 239.331915 -237.93702 
L 237.786725 -231.002703 
L 236.241536 -224.467977 
L 234.696346 -218.354582 
L 233.151156 -212.655142 
L 231.605966 -207.337577 
L 230.060776 -202.351152 
L 228.515586 -197.633154 
L 226.970396 -193.115406 
L 225.425207 -188.730032 
L 223.880017 -184.414213 
L 222.334827 -180.11384 
L 220.789637 -175.78614 
L 219.244447 -171.401373 
L 217.699257 -166.943686 
L 216.154067 -162.411176 
L 214.608877 -157.815171 
L 213.063688 -153.178745 
L 211.518498 -148.534488 
L 209.973308 -143.921644 
L 208.428118 -139.382757 
L 206.882928 -134.960076 
L 205.337738 -130.692028 
L 203.792548 -126.610061 
L 202.247359 -122.736221 
L 200.702169 -119.081692 
L 199.156979 -115.646501 
L 197.611789 -112.4204 
L 196.066599 -109.384793 
L 194.521409 -106.515445 
L 192.976219 -103.785566 
L 191.431029 -101.168862 
L 189.88584 -98.64213 
L 188.34065 -96.187108 
L 186.79546 -93.791412 
L 185.25027 -91.448567 
L 183.70508 -89.157251 
L 182.15989 -86.919992 
L 180.6147 -84.741572 
L 179.06951 -82.627392 
L 177.524321 -80.582011 
L 175.979131 -78.607998 
L 174.433941 -76.705197 
L 172.888751 -74.870447 
L 171.343561 -73.09777 
L 169.798371 -71.378985 
L 168.253181 -69.704689 
L 166.707992 -68.065491 
L 165.162802 -66.45334 
L 163.617612 -64.862776 
L 162.072422 -63.291917 
L 160.527232 -61.743037 
L 158.982042 -60.222632 
L 157.436852 -58.740977 
L 155.891662 -57.311224 
L 154.346473 -55.94819 
L 152.801283 -54.666982 
L 151.256093 -53.481647 
L 149.710903 -52.403988 
L 148.165713 -51.442623 
L 146.620523 -50.602361 
L 145.075333 -49.883872 
L 143.530144 -49.283648 
L 141.984954 -48.794208 
L 140.439764 -48.404534 
L 138.894574 -48.100698 
L 137.349384 -47.866684 
L 135.804194 -47.685355 
L 134.259004 -47.53953 
L 132.713814 -47.413086 
L 131.168625 -47.292002 
L 129.623435 -47.165195 
L 128.078245 -47.025081 
L 126.533055 -46.867736 
L 124.987865 -46.692654 
L 123.442675 -46.50212 
L 121.897485 -46.300303 
L 120.352296 -46.092206 
L 118.807106 -45.882661 
L 117.261916 -45.675516 
L 115.716726 -45.473142 
L 114.171536 -45.276316 
L 112.626346 -45.084449 
L 111.081156 -44.896088 
L 109.535966 -44.709539 
L 107.990777 -44.52349 
L 106.445587 -44.337478 
L 104.900397 -44.152144 
L 103.355207 -43.969228 
L 101.810017 -43.791346 
L 100.264827 -43.621603 
L 98.719637 -43.463146 
L 97.174447 -43.318742 
L 95.629258 -43.190446 
L 94.084068 -43.079413 
L 92.538878 -42.98585 
L 90.993688 -42.9091 
L 89.448498 -42.847813 
L 87.903308 -42.80017 
L 86.358118 -42.764111 
L 84.812929 -42.737533 
L 83.267739 -42.718455 
L 81.722549 -42.705113 
L 80.177359 -42.696023 
z
" style="stroke: #2166ac; stroke-width: 2.5"/>
    </defs>
    <g clip-path="url(#pa472fa0f04)">
     <use xlink:href="#m4731f0e4aa" x="0" y="432" style="fill: #2166ac; fill-opacity: 0.5; stroke: #2166ac; stroke-width: 2.5"/>
    </g>
   </g>
   <g id="matplotlib.axis_1">
    <g id="xtick_1">
     <g id="line2d_1">
      <defs>
       <path id="m3a2d757c26" d="M 0 0 
L 0 3.5 
" style="stroke: #000000; stroke-width: 0.8"/>
      </defs>
      <g>
       <use xlink:href="#m3a2d757c26" x="96.740816" y="389.32" style="stroke: #000000; stroke-width: 0.8"/>
      </g>
     </g>
     <g id="text_1">
      <!-- −5.0 -->
      <g transform="translate(84.59941 403.918437) scale(0.1 -0.1)">
       <defs>
        <path id="DejaVuSans-2212" d="M 678 2272 
L 4684 2272 
L 4684 1741 
L 678 1741 
L 678 2272 
z
" transform="scale(0.015625)"/>
        <path id="DejaVuSans-35" d="M 691 4666 
L 3169 4666 
L 3169 4134 
L 1269 4134 
L 1269 2991 
Q 1406 3038 1543 3061 
Q 1681 3084 1819 3084 
Q 2600 3084 3056 2656 
Q 3513 2228 3513 1497 
Q 3513 744 3044 326 
Q 2575 -91 1722 -91 
Q 1428 -91 1123 -41 
Q 819 9 494 109 
L 494 744 
Q 775 591 1075 516 
Q 1375 441 1709 441 
Q 2250 441 2565 725 
Q 2881 1009 2881 1497 
Q 2881 1984 2565 2268 
Q 2250 2553 1709 2553 
Q 1456 2553 1204 2497 
Q 953 2441 691 2322 
L 691 4666 
z
" transform="scale(0.015625)"/>
        <path id="DejaVuSans-2e" d="M 684 794 
L 1344 794 
L 1344 0 
L 684 0 
L 684 794 
z
" transform="scale(0.015625)"/>
        <path id="DejaVuSans-30" d="M 2034 4250 
Q 1547 4250 1301 3770 
Q 1056 3291 1056 2328 
Q 1056 1369 1301 889 
Q 1547 409 2034 409 
Q 2525 409 2770 889 
Q 3016 1369 3016 2328 
Q 3016 3291 2770 3770 
Q 2525 4250 2034 4250 
z
M 2034 4750 
Q 2819 4750 3233 4129 
Q 3647 3509 3647 2328 
Q 3647 1150 3233 529 
Q 2819 -91 2034 -91 
Q 1250 -91 836 529 
Q 422 1150 422 2328 
Q 422 3509 836 4129 
Q 1250 4750 2034 4750 
z
" transform="scale(0.015625)"/>
       </defs>
       <use xlink:href="#DejaVuSans-2212"/>
       <use xlink:href="#DejaVuSans-35" x="83.789062"/>
       <use xlink:href="#DejaVuSans-2e" x="147.412109"/>
       <use xlink:href="#DejaVuSans-30" x="179.199219"/>
      </g>
     </g>
    </g>
    <g id="xtick_2">
     <g id="line2d_2">
      <g>
       <use xlink:href="#m3a2d757c26" x="141.495896" y="389.32" style="stroke: #000000; stroke-width: 0.8"/>
      </g>
     </g>
     <g id="text_2">
      <!-- −2.5 -->
      <g transform="translate(129.354489 403.918437) scale(0.1 -0.1)">
       <defs>
        <path id="DejaVuSans-32" d="M 1228 531 
L 3431 531 
L 3431 0 
L 469 0 
L 469 531 
Q 828 903 1448 1529 
Q 2069 2156 2228 2338 
Q 2531 2678 2651 2914 
Q 2772 3150 2772 3378 
Q 2772 3750 2511 3984 
Q 2250 4219 1831 4219 
Q 1534 4219 1204 4116 
Q 875 4013 500 3803 
L 500 4441 
Q 881 4594 1212 4672 
Q 1544 4750 1819 4750 
Q 2544 4750 2975 4387 
Q 3406 4025 3406 3419 
Q 3406 3131 3298 2873 
Q 3191 2616 2906 2266 
Q 2828 2175 2409 1742 
Q 1991 1309 1228 531 
z
" transform="scale(0.015625)"/>
       </defs>
       <use xlink:href="#DejaVuSans-2212"/>
       <use xlink:href="#DejaVuSans-32" x="83.789062"/>
       <use xlink:href="#DejaVuSans-2e" x="147.412109"/>
       <use xlink:href="#DejaVuSans-35" x="179.199219"/>
      </g>
     </g>
    </g>
    <g id="xtick_3">
     <g id="line2d_3">
      <g>
       <use xlink:href="#m3a2d757c26" x="186.250975" y="389.32" style="stroke: #000000; stroke-width: 0.8"/>
      </g>
     </g>
     <g id="text_3">
      <!-- 0.0 -->
      <g transform="translate(178.299413 403.918437) scale(0.1 -0.1)">
       <use xlink:href="#DejaVuSans-30"/>
       <use xlink:href="#DejaVuSans-2e" x="63.623047"/>
       <use xlink:href="#DejaVuSans-30" x="95.410156"/>
      </g>
     </g>
    </g>
    <g id="xtick_4">
     <g id="line2d_4">
      <g>
       <use xlink:href="#m3a2d757c26" x="231.006055" y="389.32" style="stroke: #000000; stroke-width: 0.8"/>
      </g>
     </g>
     <g id="text_4">
      <!-- 2.5 -->
      <g transform="translate(223.054492 403.918437) scale(0.1 -0.1)">
       <use xlink:href="#DejaVuSans-32"/>
       <use xlink:href="#DejaVuSans-2e" x="63.623047"/>
       <use xlink:href="#DejaVuSans-35" x="95.410156"/>
      </g>
     </g>
    </g>
    <g id="xtick_5">
     <g id="line2d_5">
      <g>
       <use xlink:href="#m3a2d757c26" x="275.761135" y="389.32" style="stroke: #000000; stroke-width: 0.8"/>
      </g>
     </g>
     <g id="text_5">
      <!-- 5.0 -->
      <g transform="translate(267.809572 403.918437) scale(0.1 -0.1)">
       <use xlink:href="#DejaVuSans-35"/>
       <use xlink:href="#DejaVuSans-2e" x="63.623047"/>
       <use xlink:href="#DejaVuSans-30" x="95.410156"/>
      </g>
     </g>
    </g>
    <g id="xtick_6">
     <g id="line2d_6">
      <g>
       <use xlink:href="#m3a2d757c26" x="320.516214" y="389.32" style="stroke: #000000; stroke-width: 0.8"/>
      </g>
     </g>
     <g id="text_6">
      <!-- 7.5 -->
      <g transform="translate(312.564652 403.918437) scale(0.1 -0.1)">
       <defs>
        <path id="DejaVuSans-37" d="M 525 4666 
L 3525 4666 
L 3525 4397 
L 1831 0 
L 1172 0 
L 2766 4134 
L 525 4134 
L 525 4666 
z
" transform="scale(0.015625)"/>
       </defs>
       <use xlink:href="#DejaVuSans-37"/>
       <use xlink:href="#DejaVuSans-2e" x="63.623047"/>
       <use xlink:href="#DejaVuSans-35" x="95.410156"/>
      </g>
     </g>
    </g>
    <g id="xtick_7">
     <g id="line2d_7">
      <g>
       <use xlink:href="#m3a2d757c26" x="365.271294" y="389.32" style="stroke: #000000; stroke-width: 0.8"/>
      </g>
     </g>
     <g id="text_7">
      <!-- 10.0 -->
      <g transform="translate(354.138481 403.918437) scale(0.1 -0.1)">
       <defs>
        <path id="DejaVuSans-31" d="M 794 531 
L 1825 531 
L 1825 4091 
L 703 3866 
L 703 4441 
L 1819 4666 
L 2450 4666 
L 2450 531 
L 3481 531 
L 3481 0 
L 794 0 
L 794 531 
z
" transform="scale(0.015625)"/>
       </defs>
       <use xlink:href="#DejaVuSans-31"/>
       <use xlink:href="#DejaVuSans-30" x="63.623047"/>
       <use xlink:href="#DejaVuSans-2e" x="127.246094"/>
       <use xlink:href="#DejaVuSans-30" x="159.033203"/>
      </g>
     </g>
    </g>
    <g id="xtick_8">
     <g id="line2d_8">
      <g>
       <use xlink:href="#m3a2d757c26" x="410.026374" y="389.32" style="stroke: #000000; stroke-width: 0.8"/>
      </g>
     </g>
     <g id="text_8">
      <!-- 12.5 -->
      <g transform="translate(398.893561 403.918437) scale(0.1 -0.1)">
       <use xlink:href="#DejaVuSans-31"/>
       <use xlink:href="#DejaVuSans-32" x="63.623047"/>
       <use xlink:href="#DejaVuSans-2e" x="127.246094"/>
       <use xlink:href="#DejaVuSans-35" x="159.033203"/>
      </g>
     </g>
    </g>
    <g id="text_9">
     <!-- Predicted Fluorescence -->
     <g transform="translate(167.717996 419.11625) scale(0.12 -0.12)">
      <defs>
       <path id="DejaVuSans-50" d="M 1259 4147 
L 1259 2394 
L 2053 2394 
Q 2494 2394 2734 2622 
Q 2975 2850 2975 3272 
Q 2975 3691 2734 3919 
Q 2494 4147 2053 4147 
L 1259 4147 
z
M 628 4666 
L 2053 4666 
Q 2838 4666 3239 4311 
Q 3641 3956 3641 3272 
Q 3641 2581 3239 2228 
Q 2838 1875 2053 1875 
L 1259 1875 
L 1259 0 
L 628 0 
L 628 4666 
z
" transform="scale(0.015625)"/>
       <path id="DejaVuSans-72" d="M 2631 2963 
Q 2534 3019 2420 3045 
Q 2306 3072 2169 3072 
Q 1681 3072 1420 2755 
Q 1159 2438 1159 1844 
L 1159 0 
L 581 0 
L 581 3500 
L 1159 3500 
L 1159 2956 
Q 1341 3275 1631 3429 
Q 1922 3584 2338 3584 
Q 2397 3584 2469 3576 
Q 2541 3569 2628 3553 
L 2631 2963 
z
" transform="scale(0.015625)"/>
       <path id="DejaVuSans-65" d="M 3597 1894 
L 3597 1613 
L 953 1613 
Q 991 1019 1311 708 
Q 1631 397 2203 397 
Q 2534 397 2845 478 
Q 3156 559 3463 722 
L 3463 178 
Q 3153 47 2828 -22 
Q 2503 -91 2169 -91 
Q 1331 -91 842 396 
Q 353 884 353 1716 
Q 353 2575 817 3079 
Q 1281 3584 2069 3584 
Q 2775 3584 3186 3129 
Q 3597 2675 3597 1894 
z
M 3022 2063 
Q 3016 2534 2758 2815 
Q 2500 3097 2075 3097 
Q 1594 3097 1305 2825 
Q 1016 2553 972 2059 
L 3022 2063 
z
" transform="scale(0.015625)"/>
       <path id="DejaVuSans-64" d="M 2906 2969 
L 2906 4863 
L 3481 4863 
L 3481 0 
L 2906 0 
L 2906 525 
Q 2725 213 2448 61 
Q 2172 -91 1784 -91 
Q 1150 -91 751 415 
Q 353 922 353 1747 
Q 353 2572 751 3078 
Q 1150 3584 1784 3584 
Q 2172 3584 2448 3432 
Q 2725 3281 2906 2969 
z
M 947 1747 
Q 947 1113 1208 752 
Q 1469 391 1925 391 
Q 2381 391 2643 752 
Q 2906 1113 2906 1747 
Q 2906 2381 2643 2742 
Q 2381 3103 1925 3103 
Q 1469 3103 1208 2742 
Q 947 2381 947 1747 
z
" transform="scale(0.015625)"/>
       <path id="DejaVuSans-69" d="M 603 3500 
L 1178 3500 
L 1178 0 
L 603 0 
L 603 3500 
z
M 603 4863 
L 1178 4863 
L 1178 4134 
L 603 4134 
L 603 4863 
z
" transform="scale(0.015625)"/>
       <path id="DejaVuSans-63" d="M 3122 3366 
L 3122 2828 
Q 2878 2963 2633 3030 
Q 2388 3097 2138 3097 
Q 1578 3097 1268 2742 
Q 959 2388 959 1747 
Q 959 1106 1268 751 
Q 1578 397 2138 397 
Q 2388 397 2633 464 
Q 2878 531 3122 666 
L 3122 134 
Q 2881 22 2623 -34 
Q 2366 -91 2075 -91 
Q 1284 -91 818 406 
Q 353 903 353 1747 
Q 353 2603 823 3093 
Q 1294 3584 2113 3584 
Q 2378 3584 2631 3529 
Q 2884 3475 3122 3366 
z
" transform="scale(0.015625)"/>
       <path id="DejaVuSans-74" d="M 1172 4494 
L 1172 3500 
L 2356 3500 
L 2356 3053 
L 1172 3053 
L 1172 1153 
Q 1172 725 1289 603 
Q 1406 481 1766 481 
L 2356 481 
L 2356 0 
L 1766 0 
Q 1100 0 847 248 
Q 594 497 594 1153 
L 594 3053 
L 172 3053 
L 172 3500 
L 594 3500 
L 594 4494 
L 1172 4494 
z
" transform="scale(0.015625)"/>
       <path id="DejaVuSans-20" transform="scale(0.015625)"/>
       <path id="DejaVuSans-46" d="M 628 4666 
L 3309 4666 
L 3309 4134 
L 1259 4134 
L 1259 2759 
L 3109 2759 
L 3109 2228 
L 1259 2228 
L 1259 0 
L 628 0 
L 628 4666 
z
" transform="scale(0.015625)"/>
       <path id="DejaVuSans-6c" d="M 603 4863 
L 1178 4863 
L 1178 0 
L 603 0 
L 603 4863 
z
" transform="scale(0.015625)"/>
       <path id="DejaVuSans-75" d="M 544 1381 
L 544 3500 
L 1119 3500 
L 1119 1403 
Q 1119 906 1312 657 
Q 1506 409 1894 409 
Q 2359 409 2629 706 
Q 2900 1003 2900 1516 
L 2900 3500 
L 3475 3500 
L 3475 0 
L 2900 0 
L 2900 538 
Q 2691 219 2414 64 
Q 2138 -91 1772 -91 
Q 1169 -91 856 284 
Q 544 659 544 1381 
z
M 1991 3584 
L 1991 3584 
z
" transform="scale(0.015625)"/>
       <path id="DejaVuSans-6f" d="M 1959 3097 
Q 1497 3097 1228 2736 
Q 959 2375 959 1747 
Q 959 1119 1226 758 
Q 1494 397 1959 397 
Q 2419 397 2687 759 
Q 2956 1122 2956 1747 
Q 2956 2369 2687 2733 
Q 2419 3097 1959 3097 
z
M 1959 3584 
Q 2709 3584 3137 3096 
Q 3566 2609 3566 1747 
Q 3566 888 3137 398 
Q 2709 -91 1959 -91 
Q 1206 -91 779 398 
Q 353 888 353 1747 
Q 353 2609 779 3096 
Q 1206 3584 1959 3584 
z
" transform="scale(0.015625)"/>
       <path id="DejaVuSans-73" d="M 2834 3397 
L 2834 2853 
Q 2591 2978 2328 3040 
Q 2066 3103 1784 3103 
Q 1356 3103 1142 2972 
Q 928 2841 928 2578 
Q 928 2378 1081 2264 
Q 1234 2150 1697 2047 
L 1894 2003 
Q 2506 1872 2764 1633 
Q 3022 1394 3022 966 
Q 3022 478 2636 193 
Q 2250 -91 1575 -91 
Q 1294 -91 989 -36 
Q 684 19 347 128 
L 347 722 
Q 666 556 975 473 
Q 1284 391 1588 391 
Q 1994 391 2212 530 
Q 2431 669 2431 922 
Q 2431 1156 2273 1281 
Q 2116 1406 1581 1522 
L 1381 1569 
Q 847 1681 609 1914 
Q 372 2147 372 2553 
Q 372 3047 722 3315 
Q 1072 3584 1716 3584 
Q 2034 3584 2315 3537 
Q 2597 3491 2834 3397 
z
" transform="scale(0.015625)"/>
       <path id="DejaVuSans-6e" d="M 3513 2113 
L 3513 0 
L 2938 0 
L 2938 2094 
Q 2938 2591 2744 2837 
Q 2550 3084 2163 3084 
Q 1697 3084 1428 2787 
Q 1159 2491 1159 1978 
L 1159 0 
L 581 0 
L 581 3500 
L 1159 3500 
L 1159 2956 
Q 1366 3272 1645 3428 
Q 1925 3584 2291 3584 
Q 2894 3584 3203 3211 
Q 3513 2838 3513 2113 
z
" transform="scale(0.015625)"/>
      </defs>
      <use xlink:href="#DejaVuSans-50"/>
      <use xlink:href="#DejaVuSans-72" x="58.552734"/>
      <use xlink:href="#DejaVuSans-65" x="97.416016"/>
      <use xlink:href="#DejaVuSans-64" x="158.939453"/>
      <use xlink:href="#DejaVuSans-69" x="222.416016"/>
      <use xlink:href="#DejaVuSans-63" x="250.199219"/>
      <use xlink:href="#DejaVuSans-74" x="305.179688"/>
      <use xlink:href="#DejaVuSans-65" x="344.388672"/>
      <use xlink:href="#DejaVuSans-64" x="405.912109"/>
      <use xlink:href="#DejaVuSans-20" x="469.388672"/>
      <use xlink:href="#DejaVuSans-46" x="501.175781"/>
      <use xlink:href="#DejaVuSans-6c" x="558.695312"/>
      <use xlink:href="#DejaVuSans-75" x="586.478516"/>
      <use xlink:href="#DejaVuSans-6f" x="649.857422"/>
      <use xlink:href="#DejaVuSans-72" x="711.039062"/>
      <use xlink:href="#DejaVuSans-65" x="749.902344"/>
      <use xlink:href="#DejaVuSans-73" x="811.425781"/>
      <use xlink:href="#DejaVuSans-63" x="863.525391"/>
      <use xlink:href="#DejaVuSans-65" x="918.505859"/>
      <use xlink:href="#DejaVuSans-6e" x="980.029297"/>
      <use xlink:href="#DejaVuSans-63" x="1043.408203"/>
      <use xlink:href="#DejaVuSans-65" x="1098.388672"/>
     </g>
    </g>
   </g>
   <g id="matplotlib.axis_2">
    <g id="ytick_1">
     <g id="line2d_9">
      <defs>
       <path id="maf20f8730f" d="M 0 0 
L -3.5 0 
" style="stroke: #000000; stroke-width: 0.8"/>
      </defs>
      <g>
       <use xlink:href="#maf20f8730f" x="64.19" y="389.32" style="stroke: #000000; stroke-width: 0.8"/>
      </g>
     </g>
     <g id="text_10">
      <!-- 0.000 -->
      <g transform="translate(28.561875 393.119219) scale(0.1 -0.1)">
       <use xlink:href="#DejaVuSans-30"/>
       <use xlink:href="#DejaVuSans-2e" x="63.623047"/>
       <use xlink:href="#DejaVuSans-30" x="95.410156"/>
       <use xlink:href="#DejaVuSans-30" x="159.033203"/>
       <use xlink:href="#DejaVuSans-30" x="222.65625"/>
      </g>
     </g>
    </g>
    <g id="ytick_2">
     <g id="line2d_10">
      <g>
       <use xlink:href="#maf20f8730f" x="64.19" y="338.626433" style="stroke: #000000; stroke-width: 0.8"/>
      </g>
     </g>
     <g id="text_11">
      <!-- 0.025 -->
      <g transform="translate(28.561875 342.425651) scale(0.1 -0.1)">
       <use xlink:href="#DejaVuSans-30"/>
       <use xlink:href="#DejaVuSans-2e" x="63.623047"/>
       <use xlink:href="#DejaVuSans-30" x="95.410156"/>
       <use xlink:href="#DejaVuSans-32" x="159.033203"/>
       <use xlink:href="#DejaVuSans-35" x="222.65625"/>
      </g>
     </g>
    </g>
    <g id="ytick_3">
     <g id="line2d_11">
      <g>
       <use xlink:href="#maf20f8730f" x="64.19" y="287.932865" style="stroke: #000000; stroke-width: 0.8"/>
      </g>
     </g>
     <g id="text_12">
      <!-- 0.050 -->
      <g transform="translate(28.561875 291.732084) scale(0.1 -0.1)">
       <use xlink:href="#DejaVuSans-30"/>
       <use xlink:href="#DejaVuSans-2e" x="63.623047"/>
       <use xlink:href="#DejaVuSans-30" x="95.410156"/>
       <use xlink:href="#DejaVuSans-35" x="159.033203"/>
       <use xlink:href="#DejaVuSans-30" x="222.65625"/>
      </g>
     </g>
    </g>
    <g id="ytick_4">
     <g id="line2d_12">
      <g>
       <use xlink:href="#maf20f8730f" x="64.19" y="237.239298" style="stroke: #000000; stroke-width: 0.8"/>
      </g>
     </g>
     <g id="text_13">
      <!-- 0.075 -->
      <g transform="translate(28.561875 241.038516) scale(0.1 -0.1)">
       <use xlink:href="#DejaVuSans-30"/>
       <use xlink:href="#DejaVuSans-2e" x="63.623047"/>
       <use xlink:href="#DejaVuSans-30" x="95.410156"/>
       <use xlink:href="#DejaVuSans-37" x="159.033203"/>
       <use xlink:href="#DejaVuSans-35" x="222.65625"/>
      </g>
     </g>
    </g>
    <g id="ytick_5">
     <g id="line2d_13">
      <g>
       <use xlink:href="#maf20f8730f" x="64.19" y="186.54573" style="stroke: #000000; stroke-width: 0.8"/>
      </g>
     </g>
     <g id="text_14">
      <!-- 0.100 -->
      <g transform="translate(28.561875 190.344949) scale(0.1 -0.1)">
       <use xlink:href="#DejaVuSans-30"/>
       <use xlink:href="#DejaVuSans-2e" x="63.623047"/>
       <use xlink:href="#DejaVuSans-31" x="95.410156"/>
       <use xlink:href="#DejaVuSans-30" x="159.033203"/>
       <use xlink:href="#DejaVuSans-30" x="222.65625"/>
      </g>
     </g>
    </g>
    <g id="ytick_6">
     <g id="line2d_14">
      <g>
       <use xlink:href="#maf20f8730f" x="64.19" y="135.852163" style="stroke: #000000; stroke-width: 0.8"/>
      </g>
     </g>
     <g id="text_15">
      <!-- 0.125 -->
      <g transform="translate(28.561875 139.651381) scale(0.1 -0.1)">
       <use xlink:href="#DejaVuSans-30"/>
       <use xlink:href="#DejaVuSans-2e" x="63.623047"/>
       <use xlink:href="#DejaVuSans-31" x="95.410156"/>
       <use xlink:href="#DejaVuSans-32" x="159.033203"/>
       <use xlink:href="#DejaVuSans-35" x="222.65625"/>
      </g>
     </g>
    </g>
    <g id="ytick_7">
     <g id="line2d_15">
      <g>
       <use xlink:href="#maf20f8730f" x="64.19" y="85.158595" style="stroke: #000000; stroke-width: 0.8"/>
      </g>
     </g>
     <g id="text_16">
      <!-- 0.150 -->
      <g transform="translate(28.561875 88.957814) scale(0.1 -0.1)">
       <use xlink:href="#DejaVuSans-30"/>
       <use xlink:href="#DejaVuSans-2e" x="63.623047"/>
       <use xlink:href="#DejaVuSans-31" x="95.410156"/>
       <use xlink:href="#DejaVuSans-35" x="159.033203"/>
       <use xlink:href="#DejaVuSans-30" x="222.65625"/>
      </g>
     </g>
    </g>
    <g id="ytick_8">
     <g id="line2d_16">
      <g>
       <use xlink:href="#maf20f8730f" x="64.19" y="34.465028" style="stroke: #000000; stroke-width: 0.8"/>
      </g>
     </g>
     <g id="text_17">
      <!-- 0.175 -->
      <g transform="translate(28.561875 38.264247) scale(0.1 -0.1)">
       <use xlink:href="#DejaVuSans-30"/>
       <use xlink:href="#DejaVuSans-2e" x="63.623047"/>
       <use xlink:href="#DejaVuSans-31" x="95.410156"/>
       <use xlink:href="#DejaVuSans-37" x="159.033203"/>
       <use xlink:href="#DejaVuSans-35" x="222.65625"/>
      </g>
     </g>
    </g>
    <g id="text_18">
     <!-- Density -->
     <g transform="translate(21.650313 226.672031) rotate(-90) scale(0.14 -0.14)">
      <defs>
       <path id="DejaVuSans-44" d="M 1259 4147 
L 1259 519 
L 2022 519 
Q 2988 519 3436 956 
Q 3884 1394 3884 2338 
Q 3884 3275 3436 3711 
Q 2988 4147 2022 4147 
L 1259 4147 
z
M 628 4666 
L 1925 4666 
Q 3281 4666 3915 4102 
Q 4550 3538 4550 2338 
Q 4550 1131 3912 565 
Q 3275 0 1925 0 
L 628 0 
L 628 4666 
z
" transform="scale(0.015625)"/>
       <path id="DejaVuSans-79" d="M 2059 -325 
Q 1816 -950 1584 -1140 
Q 1353 -1331 966 -1331 
L 506 -1331 
L 506 -850 
L 844 -850 
Q 1081 -850 1212 -737 
Q 1344 -625 1503 -206 
L 1606 56 
L 191 3500 
L 800 3500 
L 1894 763 
L 2988 3500 
L 3597 3500 
L 2059 -325 
z
" transform="scale(0.015625)"/>
      </defs>
      <use xlink:href="#DejaVuSans-44"/>
      <use xlink:href="#DejaVuSans-65" x="77.001953"/>
      <use xlink:href="#DejaVuSans-6e" x="138.525391"/>
      <use xlink:href="#DejaVuSans-73" x="201.904297"/>
      <use xlink:href="#DejaVuSans-69" x="254.003906"/>
      <use xlink:href="#DejaVuSans-74" x="281.787109"/>
      <use xlink:href="#DejaVuSans-79" x="320.996094"/>
     </g>
    </g>
   </g>
   <g id="line2d_17">
    <path d="M 153.35698 389.32 
L 153.35698 10.8 
" clip-path="url(#pa472fa0f04)" style="fill: none; stroke-dasharray: 3.7,1.6; stroke-dashoffset: 0; stroke: #000000"/>
   </g>
   <g id="patch_3">
    <path d="M 64.19 389.32 
L 64.19 10.8 
" style="fill: none; stroke: #000000; stroke-width: 0.8; stroke-linejoin: miter; stroke-linecap: square"/>
   </g>
   <g id="patch_4">
    <path d="M 64.19 389.32 
L 410.438491 389.32 
" style="fill: none; stroke: #000000; stroke-width: 0.8; stroke-linejoin: miter; stroke-linecap: square"/>
   </g>
   <g id="legend_1">
    <g id="patch_5">
     <path d="M 252.990054 77.5125 
L 403.438491 77.5125 
Q 405.438491 77.5125 405.438491 75.5125 
L 405.438491 17.8 
Q 405.438491 15.8 403.438491 15.8 
L 252.990054 15.8 
Q 250.990054 15.8 250.990054 17.8 
L 250.990054 75.5125 
Q 250.990054 77.5125 252.990054 77.5125 
z
" style="fill: #ffffff; opacity: 0.8; stroke: #cccccc; stroke-linejoin: miter"/>
    </g>
    <g id="patch_6">
     <path d="M 254.990054 27.398438 
L 274.990054 27.398438 
L 274.990054 20.398438 
L 254.990054 20.398438 
z
" style="fill: #bdbdbd; fill-opacity: 0.5; stroke: #bdbdbd; stroke-width: 2.5; stroke-linejoin: miter"/>
    </g>
    <g id="text_19">
     <!-- Pre-trained ESM2 (35M) -->
     <g transform="translate(282.990054 27.398438) scale(0.1 -0.1)">
      <defs>
       <path id="DejaVuSans-2d" d="M 313 2009 
L 1997 2009 
L 1997 1497 
L 313 1497 
L 313 2009 
z
" transform="scale(0.015625)"/>
       <path id="DejaVuSans-61" d="M 2194 1759 
Q 1497 1759 1228 1600 
Q 959 1441 959 1056 
Q 959 750 1161 570 
Q 1363 391 1709 391 
Q 2188 391 2477 730 
Q 2766 1069 2766 1631 
L 2766 1759 
L 2194 1759 
z
M 3341 1997 
L 3341 0 
L 2766 0 
L 2766 531 
Q 2569 213 2275 61 
Q 1981 -91 1556 -91 
Q 1019 -91 701 211 
Q 384 513 384 1019 
Q 384 1609 779 1909 
Q 1175 2209 1959 2209 
L 2766 2209 
L 2766 2266 
Q 2766 2663 2505 2880 
Q 2244 3097 1772 3097 
Q 1472 3097 1187 3025 
Q 903 2953 641 2809 
L 641 3341 
Q 956 3463 1253 3523 
Q 1550 3584 1831 3584 
Q 2591 3584 2966 3190 
Q 3341 2797 3341 1997 
z
" transform="scale(0.015625)"/>
       <path id="DejaVuSans-45" d="M 628 4666 
L 3578 4666 
L 3578 4134 
L 1259 4134 
L 1259 2753 
L 3481 2753 
L 3481 2222 
L 1259 2222 
L 1259 531 
L 3634 531 
L 3634 0 
L 628 0 
L 628 4666 
z
" transform="scale(0.015625)"/>
       <path id="DejaVuSans-53" d="M 3425 4513 
L 3425 3897 
Q 3066 4069 2747 4153 
Q 2428 4238 2131 4238 
Q 1616 4238 1336 4038 
Q 1056 3838 1056 3469 
Q 1056 3159 1242 3001 
Q 1428 2844 1947 2747 
L 2328 2669 
Q 3034 2534 3370 2195 
Q 3706 1856 3706 1288 
Q 3706 609 3251 259 
Q 2797 -91 1919 -91 
Q 1588 -91 1214 -16 
Q 841 59 441 206 
L 441 856 
Q 825 641 1194 531 
Q 1563 422 1919 422 
Q 2459 422 2753 634 
Q 3047 847 3047 1241 
Q 3047 1584 2836 1778 
Q 2625 1972 2144 2069 
L 1759 2144 
Q 1053 2284 737 2584 
Q 422 2884 422 3419 
Q 422 4038 858 4394 
Q 1294 4750 2059 4750 
Q 2388 4750 2728 4690 
Q 3069 4631 3425 4513 
z
" transform="scale(0.015625)"/>
       <path id="DejaVuSans-4d" d="M 628 4666 
L 1569 4666 
L 2759 1491 
L 3956 4666 
L 4897 4666 
L 4897 0 
L 4281 0 
L 4281 4097 
L 3078 897 
L 2444 897 
L 1241 4097 
L 1241 0 
L 628 0 
L 628 4666 
z
" transform="scale(0.015625)"/>
       <path id="DejaVuSans-28" d="M 1984 4856 
Q 1566 4138 1362 3434 
Q 1159 2731 1159 2009 
Q 1159 1288 1364 580 
Q 1569 -128 1984 -844 
L 1484 -844 
Q 1016 -109 783 600 
Q 550 1309 550 2009 
Q 550 2706 781 3412 
Q 1013 4119 1484 4856 
L 1984 4856 
z
" transform="scale(0.015625)"/>
       <path id="DejaVuSans-33" d="M 2597 2516 
Q 3050 2419 3304 2112 
Q 3559 1806 3559 1356 
Q 3559 666 3084 287 
Q 2609 -91 1734 -91 
Q 1441 -91 1130 -33 
Q 819 25 488 141 
L 488 750 
Q 750 597 1062 519 
Q 1375 441 1716 441 
Q 2309 441 2620 675 
Q 2931 909 2931 1356 
Q 2931 1769 2642 2001 
Q 2353 2234 1838 2234 
L 1294 2234 
L 1294 2753 
L 1863 2753 
Q 2328 2753 2575 2939 
Q 2822 3125 2822 3475 
Q 2822 3834 2567 4026 
Q 2313 4219 1838 4219 
Q 1578 4219 1281 4162 
Q 984 4106 628 3988 
L 628 4550 
Q 988 4650 1302 4700 
Q 1616 4750 1894 4750 
Q 2613 4750 3031 4423 
Q 3450 4097 3450 3541 
Q 3450 3153 3228 2886 
Q 3006 2619 2597 2516 
z
" transform="scale(0.015625)"/>
       <path id="DejaVuSans-29" d="M 513 4856 
L 1013 4856 
Q 1481 4119 1714 3412 
Q 1947 2706 1947 2009 
Q 1947 1309 1714 600 
Q 1481 -109 1013 -844 
L 513 -844 
Q 928 -128 1133 580 
Q 1338 1288 1338 2009 
Q 1338 2731 1133 3434 
Q 928 4138 513 4856 
z
" transform="scale(0.015625)"/>
      </defs>
      <use xlink:href="#DejaVuSans-50"/>
      <use xlink:href="#DejaVuSans-72" x="58.552734"/>
      <use xlink:href="#DejaVuSans-65" x="97.416016"/>
      <use xlink:href="#DejaVuSans-2d" x="158.939453"/>
      <use xlink:href="#DejaVuSans-74" x="195.023438"/>
      <use xlink:href="#DejaVuSans-72" x="234.232422"/>
      <use xlink:href="#DejaVuSans-61" x="275.345703"/>
      <use xlink:href="#DejaVuSans-69" x="336.625"/>
      <use xlink:href="#DejaVuSans-6e" x="364.408203"/>
      <use xlink:href="#DejaVuSans-65" x="427.787109"/>
      <use xlink:href="#DejaVuSans-64" x="489.310547"/>
      <use xlink:href="#DejaVuSans-20" x="552.787109"/>
      <use xlink:href="#DejaVuSans-45" x="584.574219"/>
      <use xlink:href="#DejaVuSans-53" x="647.757812"/>
      <use xlink:href="#DejaVuSans-4d" x="711.234375"/>
      <use xlink:href="#DejaVuSans-32" x="797.513672"/>
      <use xlink:href="#DejaVuSans-20" x="861.136719"/>
      <use xlink:href="#DejaVuSans-28" x="892.923828"/>
      <use xlink:href="#DejaVuSans-33" x="931.9375"/>
      <use xlink:href="#DejaVuSans-35" x="995.560547"/>
      <use xlink:href="#DejaVuSans-4d" x="1059.183594"/>
      <use xlink:href="#DejaVuSans-29" x="1145.462891"/>
     </g>
    </g>
    <g id="patch_7">
     <path d="M 254.990054 42.076563 
L 274.990054 42.076563 
L 274.990054 35.076563 
L 254.990054 35.076563 
z
" style="fill: #92c5de; fill-opacity: 0.5; stroke: #92c5de; stroke-width: 2.5; stroke-linejoin: miter"/>
    </g>
    <g id="text_20">
     <!-- SFT ESM2 (35M) -->
     <g transform="translate(282.990054 42.076563) scale(0.1 -0.1)">
      <defs>
       <path id="DejaVuSans-54" d="M -19 4666 
L 3928 4666 
L 3928 4134 
L 2272 4134 
L 2272 0 
L 1638 0 
L 1638 4134 
L -19 4134 
L -19 4666 
z
" transform="scale(0.015625)"/>
      </defs>
      <use xlink:href="#DejaVuSans-53"/>
      <use xlink:href="#DejaVuSans-46" x="63.476562"/>
      <use xlink:href="#DejaVuSans-54" x="119.246094"/>
      <use xlink:href="#DejaVuSans-20" x="180.330078"/>
      <use xlink:href="#DejaVuSans-45" x="212.117188"/>
      <use xlink:href="#DejaVuSans-53" x="275.300781"/>
      <use xlink:href="#DejaVuSans-4d" x="338.777344"/>
      <use xlink:href="#DejaVuSans-32" x="425.056641"/>
      <use xlink:href="#DejaVuSans-20" x="488.679688"/>
      <use xlink:href="#DejaVuSans-28" x="520.466797"/>
      <use xlink:href="#DejaVuSans-33" x="559.480469"/>
      <use xlink:href="#DejaVuSans-35" x="623.103516"/>
      <use xlink:href="#DejaVuSans-4d" x="686.726562"/>
      <use xlink:href="#DejaVuSans-29" x="773.005859"/>
     </g>
    </g>
    <g id="patch_8">
     <path d="M 254.990054 56.754687 
L 274.990054 56.754687 
L 274.990054 49.754687 
L 254.990054 49.754687 
z
" style="fill: #2166ac; fill-opacity: 0.5; stroke: #2166ac; stroke-width: 2.5; stroke-linejoin: miter"/>
    </g>
    <g id="text_21">
     <!-- Aligned ESM2 (35M) -->
     <g transform="translate(282.990054 56.754687) scale(0.1 -0.1)">
      <defs>
       <path id="DejaVuSans-41" d="M 2188 4044 
L 1331 1722 
L 3047 1722 
L 2188 4044 
z
M 1831 4666 
L 2547 4666 
L 4325 0 
L 3669 0 
L 3244 1197 
L 1141 1197 
L 716 0 
L 50 0 
L 1831 4666 
z
" transform="scale(0.015625)"/>
       <path id="DejaVuSans-67" d="M 2906 1791 
Q 2906 2416 2648 2759 
Q 2391 3103 1925 3103 
Q 1463 3103 1205 2759 
Q 947 2416 947 1791 
Q 947 1169 1205 825 
Q 1463 481 1925 481 
Q 2391 481 2648 825 
Q 2906 1169 2906 1791 
z
M 3481 434 
Q 3481 -459 3084 -895 
Q 2688 -1331 1869 -1331 
Q 1566 -1331 1297 -1286 
Q 1028 -1241 775 -1147 
L 775 -588 
Q 1028 -725 1275 -790 
Q 1522 -856 1778 -856 
Q 2344 -856 2625 -561 
Q 2906 -266 2906 331 
L 2906 616 
Q 2728 306 2450 153 
Q 2172 0 1784 0 
Q 1141 0 747 490 
Q 353 981 353 1791 
Q 353 2603 747 3093 
Q 1141 3584 1784 3584 
Q 2172 3584 2450 3431 
Q 2728 3278 2906 2969 
L 2906 3500 
L 3481 3500 
L 3481 434 
z
" transform="scale(0.015625)"/>
      </defs>
      <use xlink:href="#DejaVuSans-41"/>
      <use xlink:href="#DejaVuSans-6c" x="68.408203"/>
      <use xlink:href="#DejaVuSans-69" x="96.191406"/>
      <use xlink:href="#DejaVuSans-67" x="123.974609"/>
      <use xlink:href="#DejaVuSans-6e" x="187.451172"/>
      <use xlink:href="#DejaVuSans-65" x="250.830078"/>
      <use xlink:href="#DejaVuSans-64" x="312.353516"/>
      <use xlink:href="#DejaVuSans-20" x="375.830078"/>
      <use xlink:href="#DejaVuSans-45" x="407.617188"/>
      <use xlink:href="#DejaVuSans-53" x="470.800781"/>
      <use xlink:href="#DejaVuSans-4d" x="534.277344"/>
      <use xlink:href="#DejaVuSans-32" x="620.556641"/>
      <use xlink:href="#DejaVuSans-20" x="684.179688"/>
      <use xlink:href="#DejaVuSans-28" x="715.966797"/>
      <use xlink:href="#DejaVuSans-33" x="754.980469"/>
      <use xlink:href="#DejaVuSans-35" x="818.603516"/>
      <use xlink:href="#DejaVuSans-4d" x="882.226562"/>
      <use xlink:href="#DejaVuSans-29" x="968.505859"/>
     </g>
    </g>
    <g id="line2d_18">
     <path d="M 254.990054 67.932813 
L 264.990054 67.932813 
L 274.990054 67.932813 
" style="fill: none; stroke-dasharray: 3.7,1.6; stroke-dashoffset: 0; stroke: #000000"/>
    </g>
    <g id="text_22">
     <!-- Predicted pab1 score -->
     <g transform="translate(282.990054 71.432813) scale(0.1 -0.1)">
      <defs>
       <path id="DejaVuSans-70" d="M 1159 525 
L 1159 -1331 
L 581 -1331 
L 581 3500 
L 1159 3500 
L 1159 2969 
Q 1341 3281 1617 3432 
Q 1894 3584 2278 3584 
Q 2916 3584 3314 3078 
Q 3713 2572 3713 1747 
Q 3713 922 3314 415 
Q 2916 -91 2278 -91 
Q 1894 -91 1617 61 
Q 1341 213 1159 525 
z
M 3116 1747 
Q 3116 2381 2855 2742 
Q 2594 3103 2138 3103 
Q 1681 3103 1420 2742 
Q 1159 2381 1159 1747 
Q 1159 1113 1420 752 
Q 1681 391 2138 391 
Q 2594 391 2855 752 
Q 3116 1113 3116 1747 
z
" transform="scale(0.015625)"/>
       <path id="DejaVuSans-62" d="M 3116 1747 
Q 3116 2381 2855 2742 
Q 2594 3103 2138 3103 
Q 1681 3103 1420 2742 
Q 1159 2381 1159 1747 
Q 1159 1113 1420 752 
Q 1681 391 2138 391 
Q 2594 391 2855 752 
Q 3116 1113 3116 1747 
z
M 1159 2969 
Q 1341 3281 1617 3432 
Q 1894 3584 2278 3584 
Q 2916 3584 3314 3078 
Q 3713 2572 3713 1747 
Q 3713 922 3314 415 
Q 2916 -91 2278 -91 
Q 1894 -91 1617 61 
Q 1341 213 1159 525 
L 1159 0 
L 581 0 
L 581 4863 
L 1159 4863 
L 1159 2969 
z
" transform="scale(0.015625)"/>
      </defs>
      <use xlink:href="#DejaVuSans-50"/>
      <use xlink:href="#DejaVuSans-72" x="58.552734"/>
      <use xlink:href="#DejaVuSans-65" x="97.416016"/>
      <use xlink:href="#DejaVuSans-64" x="158.939453"/>
      <use xlink:href="#DejaVuSans-69" x="222.416016"/>
      <use xlink:href="#DejaVuSans-63" x="250.199219"/>
      <use xlink:href="#DejaVuSans-74" x="305.179688"/>
      <use xlink:href="#DejaVuSans-65" x="344.388672"/>
      <use xlink:href="#DejaVuSans-64" x="405.912109"/>
      <use xlink:href="#DejaVuSans-20" x="469.388672"/>
      <use xlink:href="#DejaVuSans-70" x="501.175781"/>
      <use xlink:href="#DejaVuSans-61" x="564.652344"/>
      <use xlink:href="#DejaVuSans-62" x="625.931641"/>
      <use xlink:href="#DejaVuSans-31" x="689.408203"/>
      <use xlink:href="#DejaVuSans-20" x="753.03125"/>
      <use xlink:href="#DejaVuSans-73" x="784.818359"/>
      <use xlink:href="#DejaVuSans-63" x="836.917969"/>
      <use xlink:href="#DejaVuSans-6f" x="891.898438"/>
      <use xlink:href="#DejaVuSans-72" x="953.080078"/>
      <use xlink:href="#DejaVuSans-65" x="991.943359"/>
     </g>
    </g>
   </g>
  </g>
 </g>
 <defs>
  <clipPath id="pa472fa0f04">
   <rect x="64.19" y="10.8" width="346.248491" height="378.52"/>
  </clipPath>
 </defs>
</svg>
