<?xml version="1.0" encoding="utf-8" standalone="no"?>
<!DOCTYPE svg PUBLIC "-//W3C//DTD SVG 1.1//EN"
  "http://www.w3.org/Graphics/SVG/1.1/DTD/svg11.dtd">
<svg xmlns:xlink="http://www.w3.org/1999/xlink" width="432pt" height="432pt" viewBox="0 0 432 432" xmlns="http://www.w3.org/2000/svg" version="1.1">
 <metadata>
  <rdf:RDF xmlns:dc="http://purl.org/dc/elements/1.1/" xmlns:cc="http://creativecommons.org/ns#" xmlns:rdf="http://www.w3.org/1999/02/22-rdf-syntax-ns#">
   <cc:Work>
    <dc:type rdf:resource="http://purl.org/dc/dcmitype/StillImage"/>
    <dc:date>2025-04-02T15:19:47.466016</dc:date>
    <dc:format>image/svg+xml</dc:format>
    <dc:creator>
     <cc:Agent>
      <dc:title>Matplotlib v3.8.0, https://matplotlib.org/</dc:title>
     </cc:Agent>
    </dc:creator>
   </cc:Work>
  </rdf:RDF>
 </metadata>
 <defs>
  <style type="text/css">*{stroke-linejoin: round; stroke-linecap: butt}</style>
 </defs>
 <g id="figure_1">
  <g id="patch_1">
   <path d="M 0 432 
L 432 432 
L 432 0 
L 0 0 
z
" style="fill: #ffffff"/>
  </g>
  <g id="axes_1">
   <g id="patch_2">
    <path d="M 51.41 389.32 
L 421.2 389.32 
L 421.2 10.8 
L 51.41 10.8 
z
" style="fill: #ffffff"/>
   </g>
   <g id="PolyCollection_1">
    <defs>
     <path id="m809999f47a" d="M 68.218636 -42.682636 
L 68.218636 -42.68 
L 69.907947 -42.68 
L 71.597257 -42.68 
L 73.286567 -42.68 
L 74.975877 -42.68 
L 76.665187 -42.68 
L 78.354497 -42.68 
L 80.043808 -42.68 
L 81.733118 -42.68 
L 83.422428 -42.68 
L 85.111738 -42.68 
L 86.801048 -42.68 
L 88.490359 -42.68 
L 90.179669 -42.68 
L 91.868979 -42.68 
L 93.558289 -42.68 
L 95.247599 -42.68 
L 96.93691 -42.68 
L 98.62622 -42.68 
L 100.31553 -42.68 
L 102.00484 -42.68 
L 103.69415 -42.68 
L 105.38346 -42.68 
L 107.072771 -42.68 
L 108.762081 -42.68 
L 110.451391 -42.68 
L 112.140701 -42.68 
L 113.830011 -42.68 
L 115.519322 -42.68 
L 117.208632 -42.68 
L 118.897942 -42.68 
L 120.587252 -42.68 
L 122.276562 -42.68 
L 123.965873 -42.68 
L 125.655183 -42.68 
L 127.344493 -42.68 
L 129.033803 -42.68 
L 130.723113 -42.68 
L 132.412423 -42.68 
L 134.101734 -42.68 
L 135.791044 -42.68 
L 137.480354 -42.68 
L 139.169664 -42.68 
L 140.858974 -42.68 
L 142.548285 -42.68 
L 144.237595 -42.68 
L 145.926905 -42.68 
L 147.616215 -42.68 
L 149.305525 -42.68 
L 150.994836 -42.68 
L 152.684146 -42.68 
L 154.373456 -42.68 
L 156.062766 -42.68 
L 157.752076 -42.68 
L 159.441386 -42.68 
L 161.130697 -42.68 
L 162.820007 -42.68 
L 164.509317 -42.68 
L 166.198627 -42.68 
L 167.887937 -42.68 
L 169.577248 -42.68 
L 171.266558 -42.68 
L 172.955868 -42.68 
L 174.645178 -42.68 
L 176.334488 -42.68 
L 178.023799 -42.68 
L 179.713109 -42.68 
L 181.402419 -42.68 
L 183.091729 -42.68 
L 184.781039 -42.68 
L 186.470349 -42.68 
L 188.15966 -42.68 
L 189.84897 -42.68 
L 191.53828 -42.68 
L 193.22759 -42.68 
L 194.9169 -42.68 
L 196.606211 -42.68 
L 198.295521 -42.68 
L 199.984831 -42.68 
L 201.674141 -42.68 
L 203.363451 -42.68 
L 205.052762 -42.68 
L 206.742072 -42.68 
L 208.431382 -42.68 
L 210.120692 -42.68 
L 211.810002 -42.68 
L 213.499312 -42.68 
L 215.188623 -42.68 
L 216.877933 -42.68 
L 218.567243 -42.68 
L 220.256553 -42.68 
L 221.945863 -42.68 
L 223.635174 -42.68 
L 225.324484 -42.68 
L 227.013794 -42.68 
L 228.703104 -42.68 
L 230.392414 -42.68 
L 232.081725 -42.68 
L 233.771035 -42.68 
L 235.460345 -42.68 
L 237.149655 -42.68 
L 238.838965 -42.68 
L 240.528275 -42.68 
L 242.217586 -42.68 
L 243.906896 -42.68 
L 245.596206 -42.68 
L 247.285516 -42.68 
L 248.974826 -42.68 
L 250.664137 -42.68 
L 252.353447 -42.68 
L 254.042757 -42.68 
L 255.732067 -42.68 
L 257.421377 -42.68 
L 259.110688 -42.68 
L 260.799998 -42.68 
L 262.489308 -42.68 
L 264.178618 -42.68 
L 265.867928 -42.68 
L 267.557238 -42.68 
L 269.246549 -42.68 
L 270.935859 -42.68 
L 272.625169 -42.68 
L 274.314479 -42.68 
L 276.003789 -42.68 
L 277.6931 -42.68 
L 279.38241 -42.68 
L 281.07172 -42.68 
L 282.76103 -42.68 
L 284.45034 -42.68 
L 286.139651 -42.68 
L 287.828961 -42.68 
L 289.518271 -42.68 
L 291.207581 -42.68 
L 292.896891 -42.68 
L 294.586201 -42.68 
L 296.275512 -42.68 
L 297.964822 -42.68 
L 299.654132 -42.68 
L 301.343442 -42.68 
L 303.032752 -42.68 
L 304.722063 -42.68 
L 306.411373 -42.68 
L 308.100683 -42.68 
L 309.789993 -42.68 
L 311.479303 -42.68 
L 313.168614 -42.68 
L 314.857924 -42.68 
L 316.547234 -42.68 
L 318.236544 -42.68 
L 319.925854 -42.68 
L 321.615164 -42.68 
L 323.304475 -42.68 
L 324.993785 -42.68 
L 326.683095 -42.68 
L 328.372405 -42.68 
L 330.061715 -42.68 
L 331.751026 -42.68 
L 333.440336 -42.68 
L 335.129646 -42.68 
L 336.818956 -42.68 
L 338.508266 -42.68 
L 340.197577 -42.68 
L 341.886887 -42.68 
L 343.576197 -42.68 
L 345.265507 -42.68 
L 346.954817 -42.68 
L 348.644127 -42.68 
L 350.333438 -42.68 
L 352.022748 -42.68 
L 353.712058 -42.68 
L 355.401368 -42.68 
L 357.090678 -42.68 
L 358.779989 -42.68 
L 360.469299 -42.68 
L 362.158609 -42.68 
L 363.847919 -42.68 
L 365.537229 -42.68 
L 367.22654 -42.68 
L 368.91585 -42.68 
L 370.60516 -42.68 
L 372.29447 -42.68 
L 373.98378 -42.68 
L 375.67309 -42.68 
L 377.362401 -42.68 
L 379.051711 -42.68 
L 380.741021 -42.68 
L 382.430331 -42.68 
L 384.119641 -42.68 
L 385.808952 -42.68 
L 387.498262 -42.68 
L 389.187572 -42.68 
L 390.876882 -42.68 
L 392.566192 -42.68 
L 394.255503 -42.68 
L 395.944813 -42.68 
L 397.634123 -42.68 
L 399.323433 -42.68 
L 401.012743 -42.68 
L 402.702053 -42.68 
L 404.391364 -42.68 
L 404.391364 -42.695724 
L 404.391364 -42.695724 
L 402.702053 -42.707522 
L 401.012743 -42.727181 
L 399.323433 -42.759224 
L 397.634123 -42.810318 
L 395.944813 -42.890022 
L 394.255503 -43.011657 
L 392.566192 -43.193259 
L 390.876882 -43.458524 
L 389.187572 -43.83761 
L 387.498262 -44.36764 
L 385.808952 -45.092699 
L 384.119641 -46.063113 
L 382.430331 -47.333828 
L 380.741021 -48.961762 
L 379.051711 -51.002117 
L 377.362401 -53.503772 
L 375.67309 -56.504031 
L 373.98378 -60.023198 
L 372.29447 -64.059529 
L 370.60516 -68.585214 
L 368.91585 -73.544036 
L 367.22654 -78.851204 
L 365.537229 -84.395701 
L 363.847919 -90.04518 
L 362.158609 -95.653139 
L 360.469299 -101.067788 
L 358.779989 -106.141791 
L 357.090678 -110.741891 
L 355.401368 -114.757414 
L 353.712058 -118.106776 
L 352.022748 -120.741346 
L 350.333438 -122.64636 
L 348.644127 -123.838954 
L 346.954817 -124.363739 
L 345.265507 -124.286584 
L 343.576197 -123.687482 
L 341.886887 -122.653322 
L 340.197577 -121.27134 
L 338.508266 -119.623791 
L 336.818956 -117.78413 
L 335.129646 -115.81477 
L 333.440336 -113.766267 
L 331.751026 -111.677663 
L 330.061715 -109.577668 
L 328.372405 -107.486376 
L 326.683095 -105.417243 
L 324.993785 -103.37914 
L 323.304475 -101.37829 
L 321.615164 -99.419996 
L 319.925854 -97.510018 
L 318.236544 -95.655508 
L 316.547234 -93.865441 
L 314.857924 -92.150503 
L 313.168614 -90.52247 
L 311.479303 -88.993193 
L 309.789993 -87.573335 
L 308.100683 -86.271066 
L 306.411373 -85.090904 
L 304.722063 -84.032872 
L 303.032752 -83.092064 
L 301.343442 -82.258669 
L 299.654132 -81.518414 
L 297.964822 -80.853361 
L 296.275512 -80.242956 
L 294.586201 -79.665239 
L 292.896891 -79.098122 
L 291.207581 -78.52065 
L 289.518271 -77.914193 
L 287.828961 -77.263482 
L 286.139651 -76.557433 
L 284.45034 -75.789688 
L 282.76103 -74.958813 
L 281.07172 -74.068114 
L 279.38241 -73.12507 
L 277.6931 -72.140431 
L 276.003789 -71.127056 
L 274.314479 -70.098639 
L 272.625169 -69.06846 
L 270.935859 -68.048314 
L 269.246549 -67.047754 
L 267.557238 -66.073723 
L 265.867928 -65.130578 
L 264.178618 -64.220481 
L 262.489308 -63.344017 
L 260.799998 -62.500928 
L 259.110688 -61.690783 
L 257.421377 -60.91348 
L 255.732067 -60.16948 
L 254.042757 -59.459769 
L 252.353447 -58.785571 
L 250.664137 -58.147916 
L 248.974826 -57.547145 
L 247.285516 -56.982491 
L 245.596206 -56.451802 
L 243.906896 -55.951482 
L 242.217586 -55.476639 
L 240.528275 -55.021454 
L 238.838965 -54.57968 
L 237.149655 -54.145229 
L 235.460345 -53.712756 
L 233.771035 -53.278157 
L 232.081725 -52.838943 
L 230.392414 -52.394418 
L 228.703104 -51.945669 
L 227.013794 -51.495353 
L 225.324484 -51.047326 
L 223.635174 -50.606155 
L 221.945863 -50.176565 
L 220.256553 -49.762901 
L 218.567243 -49.368652 
L 216.877933 -48.996109 
L 215.188623 -48.646188 
L 213.499312 -48.318454 
L 211.810002 -48.011346 
L 210.120692 -47.72257 
L 208.431382 -47.449614 
L 206.742072 -47.190307 
L 205.052762 -46.943325 
L 203.363451 -46.708566 
L 201.674141 -46.4873 
L 199.984831 -46.282079 
L 198.295521 -46.096385 
L 196.606211 -45.934074 
L 194.9169 -45.798703 
L 193.22759 -45.692838 
L 191.53828 -45.617467 
L 189.84897 -45.571606 
L 188.15966 -45.552168 
L 186.470349 -45.55411 
L 184.781039 -45.570824 
L 183.091729 -45.594731 
L 181.402419 -45.61796 
L 179.713109 -45.633039 
L 178.023799 -45.633506 
L 176.334488 -45.614363 
L 174.645178 -45.572367 
L 172.955868 -45.506118 
L 171.266558 -45.415986 
L 169.577248 -45.303896 
L 167.887937 -45.173018 
L 166.198627 -45.027398 
L 164.509317 -44.871563 
L 162.820007 -44.710137 
L 161.130697 -44.547489 
L 159.441386 -44.387443 
L 157.752076 -44.233062 
L 156.062766 -44.086524 
L 154.373456 -43.949105 
L 152.684146 -43.821256 
L 150.994836 -43.70276 
L 149.305525 -43.592951 
L 147.616215 -43.490944 
L 145.926905 -43.395862 
L 144.237595 -43.307001 
L 142.548285 -43.223937 
L 140.858974 -43.14656 
L 139.169664 -43.075025 
L 137.480354 -43.009679 
L 135.791044 -42.950938 
L 134.101734 -42.899191 
L 132.412423 -42.854708 
L 130.723113 -42.817596 
L 129.033803 -42.787789 
L 127.344493 -42.765064 
L 125.655183 -42.74909 
L 123.965873 -42.739469 
L 122.276562 -42.735771 
L 120.587252 -42.737559 
L 118.897942 -42.744374 
L 117.208632 -42.755708 
L 115.519322 -42.770965 
L 113.830011 -42.789406 
L 112.140701 -42.810123 
L 110.451391 -42.832022 
L 108.762081 -42.853854 
L 107.072771 -42.874269 
L 105.38346 -42.891922 
L 103.69415 -42.905579 
L 102.00484 -42.914248 
L 100.31553 -42.917275 
L 98.62622 -42.914427 
L 96.93691 -42.905905 
L 95.247599 -42.892325 
L 93.558289 -42.87464 
L 91.868979 -42.854027 
L 90.179669 -42.831758 
L 88.490359 -42.809074 
L 86.801048 -42.787072 
L 85.111738 -42.76663 
L 83.422428 -42.748361 
L 81.733118 -42.732614 
L 80.043808 -42.719495 
L 78.354497 -42.708916 
L 76.665187 -42.700648 
L 74.975877 -42.694381 
L 73.286567 -42.689768 
L 71.597257 -42.686472 
L 69.907947 -42.684182 
L 68.218636 -42.682636 
z
" style="stroke: #bdbdbd; stroke-width: 2.5"/>
    </defs>
    <g clip-path="url(#p4c08abda79)">
     <use xlink:href="#m809999f47a" x="0" y="432" style="fill: #bdbdbd; fill-opacity: 0.5; stroke: #bdbdbd; stroke-width: 2.5"/>
    </g>
   </g>
   <g id="PolyCollection_2">
    <defs>
     <path id="me7d56eac1f" d="M 231.474819 -42.687583 
L 231.474819 -42.68 
L 232.277979 -42.68 
L 233.081139 -42.68 
L 233.884299 -42.68 
L 234.687459 -42.68 
L 235.490619 -42.68 
L 236.293779 -42.68 
L 237.096939 -42.68 
L 237.900099 -42.68 
L 238.703258 -42.68 
L 239.506418 -42.68 
L 240.309578 -42.68 
L 241.112738 -42.68 
L 241.915898 -42.68 
L 242.719058 -42.68 
L 243.522218 -42.68 
L 244.325378 -42.68 
L 245.128538 -42.68 
L 245.931697 -42.68 
L 246.734857 -42.68 
L 247.538017 -42.68 
L 248.341177 -42.68 
L 249.144337 -42.68 
L 249.947497 -42.68 
L 250.750657 -42.68 
L 251.553817 -42.68 
L 252.356977 -42.68 
L 253.160137 -42.68 
L 253.963296 -42.68 
L 254.766456 -42.68 
L 255.569616 -42.68 
L 256.372776 -42.68 
L 257.175936 -42.68 
L 257.979096 -42.68 
L 258.782256 -42.68 
L 259.585416 -42.68 
L 260.388576 -42.68 
L 261.191735 -42.68 
L 261.994895 -42.68 
L 262.798055 -42.68 
L 263.601215 -42.68 
L 264.404375 -42.68 
L 265.207535 -42.68 
L 266.010695 -42.68 
L 266.813855 -42.68 
L 267.617015 -42.68 
L 268.420174 -42.68 
L 269.223334 -42.68 
L 270.026494 -42.68 
L 270.829654 -42.68 
L 271.632814 -42.68 
L 272.435974 -42.68 
L 273.239134 -42.68 
L 274.042294 -42.68 
L 274.845454 -42.68 
L 275.648614 -42.68 
L 276.451773 -42.68 
L 277.254933 -42.68 
L 278.058093 -42.68 
L 278.861253 -42.68 
L 279.664413 -42.68 
L 280.467573 -42.68 
L 281.270733 -42.68 
L 282.073893 -42.68 
L 282.877053 -42.68 
L 283.680212 -42.68 
L 284.483372 -42.68 
L 285.286532 -42.68 
L 286.089692 -42.68 
L 286.892852 -42.68 
L 287.696012 -42.68 
L 288.499172 -42.68 
L 289.302332 -42.68 
L 290.105492 -42.68 
L 290.908652 -42.68 
L 291.711811 -42.68 
L 292.514971 -42.68 
L 293.318131 -42.68 
L 294.121291 -42.68 
L 294.924451 -42.68 
L 295.727611 -42.68 
L 296.530771 -42.68 
L 297.333931 -42.68 
L 298.137091 -42.68 
L 298.94025 -42.68 
L 299.74341 -42.68 
L 300.54657 -42.68 
L 301.34973 -42.68 
L 302.15289 -42.68 
L 302.95605 -42.68 
L 303.75921 -42.68 
L 304.56237 -42.68 
L 305.36553 -42.68 
L 306.16869 -42.68 
L 306.971849 -42.68 
L 307.775009 -42.68 
L 308.578169 -42.68 
L 309.381329 -42.68 
L 310.184489 -42.68 
L 310.987649 -42.68 
L 311.790809 -42.68 
L 312.593969 -42.68 
L 313.397129 -42.68 
L 314.200288 -42.68 
L 315.003448 -42.68 
L 315.806608 -42.68 
L 316.609768 -42.68 
L 317.412928 -42.68 
L 318.216088 -42.68 
L 319.019248 -42.68 
L 319.822408 -42.68 
L 320.625568 -42.68 
L 321.428728 -42.68 
L 322.231887 -42.68 
L 323.035047 -42.68 
L 323.838207 -42.68 
L 324.641367 -42.68 
L 325.444527 -42.68 
L 326.247687 -42.68 
L 327.050847 -42.68 
L 327.854007 -42.68 
L 328.657167 -42.68 
L 329.460326 -42.68 
L 330.263486 -42.68 
L 331.066646 -42.68 
L 331.869806 -42.68 
L 332.672966 -42.68 
L 333.476126 -42.68 
L 334.279286 -42.68 
L 335.082446 -42.68 
L 335.885606 -42.68 
L 336.688765 -42.68 
L 337.491925 -42.68 
L 338.295085 -42.68 
L 339.098245 -42.68 
L 339.901405 -42.68 
L 340.704565 -42.68 
L 341.507725 -42.68 
L 342.310885 -42.68 
L 343.114045 -42.68 
L 343.917205 -42.68 
L 344.720364 -42.68 
L 345.523524 -42.68 
L 346.326684 -42.68 
L 347.129844 -42.68 
L 347.933004 -42.68 
L 348.736164 -42.68 
L 349.539324 -42.68 
L 350.342484 -42.68 
L 351.145644 -42.68 
L 351.948803 -42.68 
L 352.751963 -42.68 
L 353.555123 -42.68 
L 354.358283 -42.68 
L 355.161443 -42.68 
L 355.964603 -42.68 
L 356.767763 -42.68 
L 357.570923 -42.68 
L 358.374083 -42.68 
L 359.177243 -42.68 
L 359.980402 -42.68 
L 360.783562 -42.68 
L 361.586722 -42.68 
L 362.389882 -42.68 
L 363.193042 -42.68 
L 363.996202 -42.68 
L 364.799362 -42.68 
L 365.602522 -42.68 
L 366.405682 -42.68 
L 367.208841 -42.68 
L 368.012001 -42.68 
L 368.815161 -42.68 
L 369.618321 -42.68 
L 370.421481 -42.68 
L 371.224641 -42.68 
L 372.027801 -42.68 
L 372.830961 -42.68 
L 373.634121 -42.68 
L 374.437281 -42.68 
L 375.24044 -42.68 
L 376.0436 -42.68 
L 376.84676 -42.68 
L 377.64992 -42.68 
L 378.45308 -42.68 
L 379.25624 -42.68 
L 380.0594 -42.68 
L 380.86256 -42.68 
L 381.66572 -42.68 
L 382.468879 -42.68 
L 383.272039 -42.68 
L 384.075199 -42.68 
L 384.878359 -42.68 
L 385.681519 -42.68 
L 386.484679 -42.68 
L 387.287839 -42.68 
L 388.090999 -42.68 
L 388.894159 -42.68 
L 389.697319 -42.68 
L 390.500478 -42.68 
L 391.303638 -42.68 
L 391.303638 -42.752222 
L 391.303638 -42.752222 
L 390.500478 -42.834406 
L 389.697319 -42.997533 
L 388.894159 -43.308364 
L 388.090999 -43.877008 
L 387.287839 -44.875922 
L 386.484679 -46.561031 
L 385.681519 -49.291048 
L 384.878359 -53.538675 
L 384.075199 -59.885496 
L 383.272039 -68.992002 
L 382.468879 -81.536521 
L 381.66572 -98.12234 
L 380.86256 -119.16056 
L 380.0594 -144.745654 
L 379.25624 -174.548231 
L 378.45308 -207.752364 
L 377.64992 -243.060512 
L 376.84676 -278.777649 
L 376.0436 -312.969674 
L 375.24044 -343.674002 
L 374.437281 -369.127109 
L 373.634121 -387.968606 
L 372.830961 -399.385796 
L 372.027801 -403.175238 
L 371.224641 -399.715428 
L 370.421481 -389.862646 
L 369.618321 -374.796076 
L 368.815161 -355.845371 
L 368.012001 -334.332692 
L 367.208841 -311.452865 
L 366.405682 -288.202564 
L 365.602522 -265.356247 
L 364.799362 -243.476856 
L 363.996202 -222.94537 
L 363.193042 -203.995223 
L 362.389882 -186.743359 
L 361.586722 -171.215884 
L 360.783562 -157.37027 
L 359.980402 -145.116614 
L 359.177243 -134.338387 
L 358.374083 -124.91056 
L 357.570923 -116.71179 
L 356.767763 -109.628511 
L 355.964603 -103.551572 
L 355.161443 -98.369018 
L 354.358283 -93.960086 
L 353.555123 -90.194631 
L 352.751963 -86.939503 
L 351.948803 -84.070056 
L 351.145644 -81.482576 
L 350.342484 -79.103015 
L 349.539324 -76.889052 
L 348.736164 -74.82523 
L 347.933004 -72.913444 
L 347.129844 -71.162241 
L 346.326684 -69.577905 
L 345.523524 -68.158753 
L 344.720364 -66.892492 
L 343.917205 -65.75571 
L 343.114045 -64.714868 
L 342.310885 -63.728911 
L 341.507725 -62.754049 
L 340.704565 -61.750851 
L 339.901405 -60.692565 
L 339.098245 -59.572371 
L 338.295085 -58.406858 
L 337.491925 -57.233859 
L 336.688765 -56.10464 
L 335.885606 -55.072488 
L 335.082446 -54.181003 
L 334.279286 -53.455413 
L 333.476126 -52.899019 
L 332.672966 -52.495055 
L 331.869806 -52.212694 
L 331.066646 -52.015036 
L 330.263486 -51.866891 
L 329.460326 -51.740765 
L 328.657167 -51.620214 
L 327.854007 -51.500423 
L 327.050847 -51.386354 
L 326.247687 -51.289152 
L 325.444527 -51.221723 
L 324.641367 -51.194515 
L 323.838207 -51.21244 
L 323.035047 -51.273512 
L 322.231887 -51.369204 
L 321.428728 -51.485972 
L 320.625568 -51.607074 
L 319.822408 -51.713987 
L 319.019248 -51.787151 
L 318.216088 -51.80641 
L 317.412928 -51.751864 
L 316.609768 -51.605757 
L 315.806608 -51.355484 
L 315.003448 -50.997107 
L 314.200288 -50.538183 
L 313.397129 -49.998644 
L 312.593969 -49.408927 
L 311.790809 -48.805422 
L 310.987649 -48.224225 
L 310.184489 -47.69478 
L 309.381329 -47.23507 
L 308.578169 -46.849536 
L 307.775009 -46.530052 
L 306.971849 -46.259436 
L 306.16869 -46.016369 
L 305.36553 -45.780393 
L 304.56237 -45.535892 
L 303.75921 -45.274426 
L 302.95605 -44.995295 
L 302.15289 -44.704631 
L 301.34973 -44.413521 
L 300.54657 -44.135675 
L 299.74341 -43.885045 
L 298.94025 -43.673679 
L 298.137091 -43.509977 
L 297.333931 -43.39746 
L 296.530771 -43.334185 
L 295.727611 -43.312899 
L 294.924451 -43.321995 
L 294.121291 -43.347234 
L 293.318131 -43.374016 
L 292.514971 -43.389838 
L 291.711811 -43.386494 
L 290.908652 -43.361561 
L 290.105492 -43.318907 
L 289.302332 -43.268188 
L 288.499172 -43.223488 
L 287.696012 -43.201408 
L 286.892852 -43.218874 
L 286.089692 -43.290809 
L 285.286532 -43.42777 
L 284.483372 -43.633658 
L 283.680212 -43.903809 
L 282.877053 -44.223981 
L 282.073893 -44.57087 
L 281.270733 -44.91458 
L 280.467573 -45.222977 
L 279.664413 -45.467166 
L 278.861253 -45.626762 
L 278.058093 -45.693426 
L 277.254933 -45.671584 
L 276.451773 -45.576059 
L 275.648614 -45.427417 
L 274.845454 -45.246541 
L 274.042294 -45.050128 
L 273.239134 -44.848365 
L 272.435974 -44.645128 
L 271.632814 -44.44015 
L 270.829654 -44.232033 
L 270.026494 -44.02086 
L 269.223334 -43.809578 
L 268.420174 -43.60389 
L 267.617015 -43.41101 
L 266.813855 -43.237922 
L 266.010695 -43.089834 
L 265.207535 -42.969266 
L 264.404375 -42.875926 
L 263.601215 -42.807226 
L 262.798055 -42.759147 
L 261.994895 -42.727144 
L 261.191735 -42.706877 
L 260.388576 -42.694664 
L 259.585416 -42.687665 
L 258.782256 -42.683866 
L 257.979096 -42.68195 
L 257.175936 -42.681144 
L 256.372776 -42.681081 
L 255.569616 -42.681717 
L 254.766456 -42.683311 
L 253.963296 -42.686465 
L 253.160137 -42.692188 
L 252.356977 -42.701978 
L 251.553817 -42.71784 
L 250.750657 -42.742178 
L 249.947497 -42.777507 
L 249.144337 -42.825925 
L 248.341177 -42.888413 
L 247.538017 -42.964064 
L 246.734857 -43.049493 
L 245.931697 -43.138664 
L 245.128538 -43.223351 
L 244.325378 -43.294278 
L 243.522218 -43.342747 
L 242.719058 -43.362383 
L 241.915898 -43.350513 
L 241.112738 -43.308759 
L 240.309578 -43.242677 
L 239.506418 -43.160543 
L 238.703258 -43.071655 
L 237.900099 -42.98463 
L 237.096939 -42.906121 
L 236.293779 -42.840179 
L 235.490619 -42.788285 
L 234.687459 -42.749861 
L 233.884299 -42.723012 
L 233.081139 -42.705273 
L 232.277979 -42.694171 
L 231.474819 -42.687583 
z
" style="stroke: #92c5de; stroke-width: 2.5"/>
    </defs>
    <g clip-path="url(#p4c08abda79)">
     <use xlink:href="#me7d56eac1f" x="0" y="432" style="fill: #92c5de; fill-opacity: 0.5; stroke: #92c5de; stroke-width: 2.5"/>
    </g>
   </g>
   <g id="PolyCollection_3">
    <defs>
     <path id="me0088ed9d5" d="M 216.156755 -42.685438 
L 216.156755 -42.68 
L 217.054193 -42.68 
L 217.951631 -42.68 
L 218.849069 -42.68 
L 219.746507 -42.68 
L 220.643945 -42.68 
L 221.541383 -42.68 
L 222.43882 -42.68 
L 223.336258 -42.68 
L 224.233696 -42.68 
L 225.131134 -42.68 
L 226.028572 -42.68 
L 226.92601 -42.68 
L 227.823448 -42.68 
L 228.720886 -42.68 
L 229.618324 -42.68 
L 230.515762 -42.68 
L 231.4132 -42.68 
L 232.310638 -42.68 
L 233.208076 -42.68 
L 234.105514 -42.68 
L 235.002952 -42.68 
L 235.90039 -42.68 
L 236.797828 -42.68 
L 237.695266 -42.68 
L 238.592704 -42.68 
L 239.490142 -42.68 
L 240.38758 -42.68 
L 241.285018 -42.68 
L 242.182456 -42.68 
L 243.079894 -42.68 
L 243.977332 -42.68 
L 244.87477 -42.68 
L 245.772208 -42.68 
L 246.669646 -42.68 
L 247.567084 -42.68 
L 248.464522 -42.68 
L 249.36196 -42.68 
L 250.259398 -42.68 
L 251.156836 -42.68 
L 252.054274 -42.68 
L 252.951712 -42.68 
L 253.84915 -42.68 
L 254.746588 -42.68 
L 255.644026 -42.68 
L 256.541464 -42.68 
L 257.438902 -42.68 
L 258.33634 -42.68 
L 259.233778 -42.68 
L 260.131216 -42.68 
L 261.028654 -42.68 
L 261.926092 -42.68 
L 262.82353 -42.68 
L 263.720968 -42.68 
L 264.618406 -42.68 
L 265.515844 -42.68 
L 266.413282 -42.68 
L 267.31072 -42.68 
L 268.208158 -42.68 
L 269.105596 -42.68 
L 270.003034 -42.68 
L 270.900472 -42.68 
L 271.79791 -42.68 
L 272.695348 -42.68 
L 273.592786 -42.68 
L 274.490224 -42.68 
L 275.387662 -42.68 
L 276.2851 -42.68 
L 277.182538 -42.68 
L 278.079976 -42.68 
L 278.977414 -42.68 
L 279.874852 -42.68 
L 280.77229 -42.68 
L 281.669727 -42.68 
L 282.567165 -42.68 
L 283.464603 -42.68 
L 284.362041 -42.68 
L 285.259479 -42.68 
L 286.156917 -42.68 
L 287.054355 -42.68 
L 287.951793 -42.68 
L 288.849231 -42.68 
L 289.746669 -42.68 
L 290.644107 -42.68 
L 291.541545 -42.68 
L 292.438983 -42.68 
L 293.336421 -42.68 
L 294.233859 -42.68 
L 295.131297 -42.68 
L 296.028735 -42.68 
L 296.926173 -42.68 
L 297.823611 -42.68 
L 298.721049 -42.68 
L 299.618487 -42.68 
L 300.515925 -42.68 
L 301.413363 -42.68 
L 302.310801 -42.68 
L 303.208239 -42.68 
L 304.105677 -42.68 
L 305.003115 -42.68 
L 305.900553 -42.68 
L 306.797991 -42.68 
L 307.695429 -42.68 
L 308.592867 -42.68 
L 309.490305 -42.68 
L 310.387743 -42.68 
L 311.285181 -42.68 
L 312.182619 -42.68 
L 313.080057 -42.68 
L 313.977495 -42.68 
L 314.874933 -42.68 
L 315.772371 -42.68 
L 316.669809 -42.68 
L 317.567247 -42.68 
L 318.464685 -42.68 
L 319.362123 -42.68 
L 320.259561 -42.68 
L 321.156999 -42.68 
L 322.054437 -42.68 
L 322.951875 -42.68 
L 323.849313 -42.68 
L 324.746751 -42.68 
L 325.644189 -42.68 
L 326.541627 -42.68 
L 327.439065 -42.68 
L 328.336503 -42.68 
L 329.233941 -42.68 
L 330.131379 -42.68 
L 331.028817 -42.68 
L 331.926255 -42.68 
L 332.823693 -42.68 
L 333.721131 -42.68 
L 334.618569 -42.68 
L 335.516007 -42.68 
L 336.413445 -42.68 
L 337.310883 -42.68 
L 338.208321 -42.68 
L 339.105759 -42.68 
L 340.003197 -42.68 
L 340.900634 -42.68 
L 341.798072 -42.68 
L 342.69551 -42.68 
L 343.592948 -42.68 
L 344.490386 -42.68 
L 345.387824 -42.68 
L 346.285262 -42.68 
L 347.1827 -42.68 
L 348.080138 -42.68 
L 348.977576 -42.68 
L 349.875014 -42.68 
L 350.772452 -42.68 
L 351.66989 -42.68 
L 352.567328 -42.68 
L 353.464766 -42.68 
L 354.362204 -42.68 
L 355.259642 -42.68 
L 356.15708 -42.68 
L 357.054518 -42.68 
L 357.951956 -42.68 
L 358.849394 -42.68 
L 359.746832 -42.68 
L 360.64427 -42.68 
L 361.541708 -42.68 
L 362.439146 -42.68 
L 363.336584 -42.68 
L 364.234022 -42.68 
L 365.13146 -42.68 
L 366.028898 -42.68 
L 366.926336 -42.68 
L 367.823774 -42.68 
L 368.721212 -42.68 
L 369.61865 -42.68 
L 370.516088 -42.68 
L 371.413526 -42.68 
L 372.310964 -42.68 
L 373.208402 -42.68 
L 374.10584 -42.68 
L 375.003278 -42.68 
L 375.900716 -42.68 
L 376.798154 -42.68 
L 377.695592 -42.68 
L 378.59303 -42.68 
L 379.490468 -42.68 
L 380.387906 -42.68 
L 381.285344 -42.68 
L 382.182782 -42.68 
L 383.08022 -42.68 
L 383.977658 -42.68 
L 384.875096 -42.68 
L 385.772534 -42.68 
L 386.669972 -42.68 
L 387.56741 -42.68 
L 388.464848 -42.68 
L 389.362286 -42.68 
L 390.259724 -42.68 
L 391.157162 -42.68 
L 392.0546 -42.68 
L 392.952038 -42.68 
L 393.849476 -42.68 
L 394.746914 -42.68 
L 394.746914 -42.752303 
L 394.746914 -42.752303 
L 393.849476 -42.806085 
L 392.952038 -42.895037 
L 392.0546 -43.038729 
L 391.157162 -43.265458 
L 390.259724 -43.614922 
L 389.362286 -44.141118 
L 388.464848 -44.915169 
L 387.56741 -46.027661 
L 386.669972 -47.589933 
L 385.772534 -49.733678 
L 384.875096 -52.608216 
L 383.977658 -56.374892 
L 383.08022 -61.198297 
L 382.182782 -67.234395 
L 381.285344 -74.616065 
L 380.387906 -83.43715 
L 379.490468 -93.736493 
L 378.59303 -105.483836 
L 377.695592 -118.569504 
L 376.798154 -132.799632 
L 375.900716 -147.89821 
L 375.003278 -163.516473 
L 374.10584 -179.249277 
L 373.208402 -194.657224 
L 372.310964 -209.292495 
L 371.413526 -222.725891 
L 370.516088 -234.572394 
L 369.61865 -244.51283 
L 368.721212 -252.309734 
L 367.823774 -257.816314 
L 366.926336 -260.978302 
L 366.028898 -261.829258 
L 365.13146 -260.480572 
L 364.234022 -257.107788 
L 363.336584 -251.934998 
L 362.439146 -245.218924 
L 361.541708 -237.233997 
L 360.64427 -228.259353 
L 359.746832 -218.568198 
L 358.849394 -208.419652 
L 357.951956 -198.052859 
L 357.054518 -187.682995 
L 356.15708 -177.498708 
L 355.259642 -167.66057 
L 354.362204 -158.300205 
L 353.464766 -149.51989 
L 352.567328 -141.392586 
L 351.66989 -133.962469 
L 350.772452 -127.246131 
L 349.875014 -121.234624 
L 348.977576 -115.896502 
L 348.080138 -111.181865 
L 347.1827 -107.027282 
L 346.285262 -103.361283 
L 345.387824 -100.109977 
L 344.490386 -97.20226 
L 343.592948 -94.574115 
L 342.69551 -92.171562 
L 341.798072 -89.952052 
L 340.900634 -87.88429 
L 340.003197 -85.946721 
L 339.105759 -84.125097 
L 338.208321 -82.40964 
L 337.310883 -80.792346 
L 336.413445 -79.264862 
L 335.516007 -77.817236 
L 334.618569 -76.437634 
L 333.721131 -75.112954 
L 332.823693 -73.8301 
L 331.926255 -72.577604 
L 331.028817 -71.34726 
L 330.131379 -70.135454 
L 329.233941 -68.943951 
L 328.336503 -67.780009 
L 327.439065 -66.655751 
L 326.541627 -65.586894 
L 325.644189 -64.590959 
L 324.746751 -63.685205 
L 323.849313 -62.884566 
L 322.951875 -62.199849 
L 322.054437 -61.636454 
L 321.156999 -61.193761 
L 320.259561 -60.865238 
L 319.362123 -60.639181 
L 318.464685 -60.499894 
L 317.567247 -60.42906 
L 316.669809 -60.407027 
L 315.772371 -60.41381 
L 314.874933 -60.429719 
L 313.977495 -60.435632 
L 313.080057 -60.413076 
L 312.182619 -60.344309 
L 311.285181 -60.212607 
L 310.387743 -60.00289 
L 309.490305 -59.7027 
L 308.592867 -59.303399 
L 307.695429 -58.80139 
L 306.797991 -58.19905 
L 305.900553 -57.505167 
L 305.003115 -56.734677 
L 304.105677 -55.907679 
L 303.208239 -55.047828 
L 302.310801 -54.180312 
L 301.413363 -53.329701 
L 300.515925 -52.517966 
L 299.618487 -51.762901 
L 298.721049 -51.077124 
L 297.823611 -50.467712 
L 296.926173 -49.936419 
L 296.028735 -49.480381 
L 295.131297 -49.09314 
L 294.233859 -48.765807 
L 293.336421 -48.488227 
L 292.438983 -48.249995 
L 291.541545 -48.041264 
L 290.644107 -47.853288 
L 289.746669 -47.678712 
L 288.849231 -47.511645 
L 287.951793 -47.347578 
L 287.054355 -47.183215 
L 286.156917 -47.016288 
L 285.259479 -46.845419 
L 284.362041 -46.67004 
L 283.464603 -46.490404 
L 282.567165 -46.307632 
L 281.669727 -46.123779 
L 280.77229 -45.941859 
L 279.874852 -45.765782 
L 278.977414 -45.600181 
L 278.079976 -45.45011 
L 277.182538 -45.320639 
L 276.2851 -45.216376 
L 275.387662 -45.140964 
L 274.490224 -45.096628 
L 273.592786 -45.083814 
L 272.695348 -45.100973 
L 271.79791 -45.144534 
L 270.900472 -45.209079 
L 270.003034 -45.287705 
L 269.105596 -45.372562 
L 268.208158 -45.455495 
L 267.31072 -45.528746 
L 266.413282 -45.585612 
L 265.515844 -45.620995 
L 264.618406 -45.631775 
L 263.720968 -45.61696 
L 262.82353 -45.577614 
L 261.926092 -45.516567 
L 261.028654 -45.437996 
L 260.131216 -45.346912 
L 259.233778 -45.248661 
L 258.33634 -45.14849 
L 257.438902 -45.051215 
L 256.541464 -44.961014 
L 255.644026 -44.881323 
L 254.746588 -44.814802 
L 253.84915 -44.763333 
L 252.951712 -44.728022 
L 252.054274 -44.709189 
L 251.156836 -44.706334 
L 250.259398 -44.718114 
L 249.36196 -44.74235 
L 248.464522 -44.776071 
L 247.567084 -44.815635 
L 246.669646 -44.856917 
L 245.772208 -44.895544 
L 244.87477 -44.927176 
L 243.977332 -44.947783 
L 243.079894 -44.953902 
L 242.182456 -44.942845 
L 241.285018 -44.912838 
L 240.38758 -44.863081 
L 239.490142 -44.793735 
L 238.592704 -44.705846 
L 237.695266 -44.601209 
L 236.797828 -44.482213 
L 235.90039 -44.351669 
L 235.002952 -44.212647 
L 234.105514 -44.06833 
L 233.208076 -43.92189 
L 232.310638 -43.776382 
L 231.4132 -43.634653 
L 230.515762 -43.499262 
L 229.618324 -43.372407 
L 228.720886 -43.25586 
L 227.823448 -43.150911 
L 226.92601 -43.058337 
L 226.028572 -42.9784 
L 225.131134 -42.910877 
L 224.233696 -42.855113 
L 223.336258 -42.810117 
L 222.43882 -42.774661 
L 221.541383 -42.747391 
L 220.643945 -42.726926 
L 219.746507 -42.711947 
L 218.849069 -42.701256 
L 217.951631 -42.693817 
L 217.054193 -42.688772 
L 216.156755 -42.685438 
z
" style="stroke: #2166ac; stroke-width: 2.5"/>
    </defs>
    <g clip-path="url(#p4c08abda79)">
     <use xlink:href="#me0088ed9d5" x="0" y="432" style="fill: #2166ac; fill-opacity: 0.5; stroke: #2166ac; stroke-width: 2.5"/>
    </g>
   </g>
   <g id="matplotlib.axis_1">
    <g id="xtick_1">
     <g id="line2d_1">
      <defs>
       <path id="m80df33f136" d="M 0 0 
L 0 3.5 
" style="stroke: #000000; stroke-width: 0.8"/>
      </defs>
      <g>
       <use xlink:href="#m80df33f136" x="63.652799" y="389.32" style="stroke: #000000; stroke-width: 0.8"/>
      </g>
     </g>
     <g id="text_1">
      <!-- −1 -->
      <g transform="translate(56.281705 403.918437) scale(0.1 -0.1)">
       <defs>
        <path id="DejaVuSans-2212" d="M 678 2272 
L 4684 2272 
L 4684 1741 
L 678 1741 
L 678 2272 
z
" transform="scale(0.015625)"/>
        <path id="DejaVuSans-31" d="M 794 531 
L 1825 531 
L 1825 4091 
L 703 3866 
L 703 4441 
L 1819 4666 
L 2450 4666 
L 2450 531 
L 3481 531 
L 3481 0 
L 794 0 
L 794 531 
z
" transform="scale(0.015625)"/>
       </defs>
       <use xlink:href="#DejaVuSans-2212"/>
       <use xlink:href="#DejaVuSans-31" x="83.789062"/>
      </g>
     </g>
    </g>
    <g id="xtick_2">
     <g id="line2d_2">
      <g>
       <use xlink:href="#m80df33f136" x="126.938135" y="389.32" style="stroke: #000000; stroke-width: 0.8"/>
      </g>
     </g>
     <g id="text_2">
      <!-- 0 -->
      <g transform="translate(123.756885 403.918437) scale(0.1 -0.1)">
       <defs>
        <path id="DejaVuSans-30" d="M 2034 4250 
Q 1547 4250 1301 3770 
Q 1056 3291 1056 2328 
Q 1056 1369 1301 889 
Q 1547 409 2034 409 
Q 2525 409 2770 889 
Q 3016 1369 3016 2328 
Q 3016 3291 2770 3770 
Q 2525 4250 2034 4250 
z
M 2034 4750 
Q 2819 4750 3233 4129 
Q 3647 3509 3647 2328 
Q 3647 1150 3233 529 
Q 2819 -91 2034 -91 
Q 1250 -91 836 529 
Q 422 1150 422 2328 
Q 422 3509 836 4129 
Q 1250 4750 2034 4750 
z
" transform="scale(0.015625)"/>
       </defs>
       <use xlink:href="#DejaVuSans-30"/>
      </g>
     </g>
    </g>
    <g id="xtick_3">
     <g id="line2d_3">
      <g>
       <use xlink:href="#m80df33f136" x="190.223471" y="389.32" style="stroke: #000000; stroke-width: 0.8"/>
      </g>
     </g>
     <g id="text_3">
      <!-- 1 -->
      <g transform="translate(187.042221 403.918437) scale(0.1 -0.1)">
       <use xlink:href="#DejaVuSans-31"/>
      </g>
     </g>
    </g>
    <g id="xtick_4">
     <g id="line2d_4">
      <g>
       <use xlink:href="#m80df33f136" x="253.508807" y="389.32" style="stroke: #000000; stroke-width: 0.8"/>
      </g>
     </g>
     <g id="text_4">
      <!-- 2 -->
      <g transform="translate(250.327557 403.918437) scale(0.1 -0.1)">
       <defs>
        <path id="DejaVuSans-32" d="M 1228 531 
L 3431 531 
L 3431 0 
L 469 0 
L 469 531 
Q 828 903 1448 1529 
Q 2069 2156 2228 2338 
Q 2531 2678 2651 2914 
Q 2772 3150 2772 3378 
Q 2772 3750 2511 3984 
Q 2250 4219 1831 4219 
Q 1534 4219 1204 4116 
Q 875 4013 500 3803 
L 500 4441 
Q 881 4594 1212 4672 
Q 1544 4750 1819 4750 
Q 2544 4750 2975 4387 
Q 3406 4025 3406 3419 
Q 3406 3131 3298 2873 
Q 3191 2616 2906 2266 
Q 2828 2175 2409 1742 
Q 1991 1309 1228 531 
z
" transform="scale(0.015625)"/>
       </defs>
       <use xlink:href="#DejaVuSans-32"/>
      </g>
     </g>
    </g>
    <g id="xtick_5">
     <g id="line2d_5">
      <g>
       <use xlink:href="#m80df33f136" x="316.794143" y="389.32" style="stroke: #000000; stroke-width: 0.8"/>
      </g>
     </g>
     <g id="text_5">
      <!-- 3 -->
      <g transform="translate(313.612893 403.918437) scale(0.1 -0.1)">
       <defs>
        <path id="DejaVuSans-33" d="M 2597 2516 
Q 3050 2419 3304 2112 
Q 3559 1806 3559 1356 
Q 3559 666 3084 287 
Q 2609 -91 1734 -91 
Q 1441 -91 1130 -33 
Q 819 25 488 141 
L 488 750 
Q 750 597 1062 519 
Q 1375 441 1716 441 
Q 2309 441 2620 675 
Q 2931 909 2931 1356 
Q 2931 1769 2642 2001 
Q 2353 2234 1838 2234 
L 1294 2234 
L 1294 2753 
L 1863 2753 
Q 2328 2753 2575 2939 
Q 2822 3125 2822 3475 
Q 2822 3834 2567 4026 
Q 2313 4219 1838 4219 
Q 1578 4219 1281 4162 
Q 984 4106 628 3988 
L 628 4550 
Q 988 4650 1302 4700 
Q 1616 4750 1894 4750 
Q 2613 4750 3031 4423 
Q 3450 4097 3450 3541 
Q 3450 3153 3228 2886 
Q 3006 2619 2597 2516 
z
" transform="scale(0.015625)"/>
       </defs>
       <use xlink:href="#DejaVuSans-33"/>
      </g>
     </g>
    </g>
    <g id="xtick_6">
     <g id="line2d_6">
      <g>
       <use xlink:href="#m80df33f136" x="380.079479" y="389.32" style="stroke: #000000; stroke-width: 0.8"/>
      </g>
     </g>
     <g id="text_6">
      <!-- 4 -->
      <g transform="translate(376.898229 403.918437) scale(0.1 -0.1)">
       <defs>
        <path id="DejaVuSans-34" d="M 2419 4116 
L 825 1625 
L 2419 1625 
L 2419 4116 
z
M 2253 4666 
L 3047 4666 
L 3047 1625 
L 3713 1625 
L 3713 1100 
L 3047 1100 
L 3047 0 
L 2419 0 
L 2419 1100 
L 313 1100 
L 313 1709 
L 2253 4666 
z
" transform="scale(0.015625)"/>
       </defs>
       <use xlink:href="#DejaVuSans-34"/>
      </g>
     </g>
    </g>
    <g id="text_7">
     <!-- Predicted Fluorescence -->
     <g transform="translate(166.70875 419.11625) scale(0.12 -0.12)">
      <defs>
       <path id="DejaVuSans-50" d="M 1259 4147 
L 1259 2394 
L 2053 2394 
Q 2494 2394 2734 2622 
Q 2975 2850 2975 3272 
Q 2975 3691 2734 3919 
Q 2494 4147 2053 4147 
L 1259 4147 
z
M 628 4666 
L 2053 4666 
Q 2838 4666 3239 4311 
Q 3641 3956 3641 3272 
Q 3641 2581 3239 2228 
Q 2838 1875 2053 1875 
L 1259 1875 
L 1259 0 
L 628 0 
L 628 4666 
z
" transform="scale(0.015625)"/>
       <path id="DejaVuSans-72" d="M 2631 2963 
Q 2534 3019 2420 3045 
Q 2306 3072 2169 3072 
Q 1681 3072 1420 2755 
Q 1159 2438 1159 1844 
L 1159 0 
L 581 0 
L 581 3500 
L 1159 3500 
L 1159 2956 
Q 1341 3275 1631 3429 
Q 1922 3584 2338 3584 
Q 2397 3584 2469 3576 
Q 2541 3569 2628 3553 
L 2631 2963 
z
" transform="scale(0.015625)"/>
       <path id="DejaVuSans-65" d="M 3597 1894 
L 3597 1613 
L 953 1613 
Q 991 1019 1311 708 
Q 1631 397 2203 397 
Q 2534 397 2845 478 
Q 3156 559 3463 722 
L 3463 178 
Q 3153 47 2828 -22 
Q 2503 -91 2169 -91 
Q 1331 -91 842 396 
Q 353 884 353 1716 
Q 353 2575 817 3079 
Q 1281 3584 2069 3584 
Q 2775 3584 3186 3129 
Q 3597 2675 3597 1894 
z
M 3022 2063 
Q 3016 2534 2758 2815 
Q 2500 3097 2075 3097 
Q 1594 3097 1305 2825 
Q 1016 2553 972 2059 
L 3022 2063 
z
" transform="scale(0.015625)"/>
       <path id="DejaVuSans-64" d="M 2906 2969 
L 2906 4863 
L 3481 4863 
L 3481 0 
L 2906 0 
L 2906 525 
Q 2725 213 2448 61 
Q 2172 -91 1784 -91 
Q 1150 -91 751 415 
Q 353 922 353 1747 
Q 353 2572 751 3078 
Q 1150 3584 1784 3584 
Q 2172 3584 2448 3432 
Q 2725 3281 2906 2969 
z
M 947 1747 
Q 947 1113 1208 752 
Q 1469 391 1925 391 
Q 2381 391 2643 752 
Q 2906 1113 2906 1747 
Q 2906 2381 2643 2742 
Q 2381 3103 1925 3103 
Q 1469 3103 1208 2742 
Q 947 2381 947 1747 
z
" transform="scale(0.015625)"/>
       <path id="DejaVuSans-69" d="M 603 3500 
L 1178 3500 
L 1178 0 
L 603 0 
L 603 3500 
z
M 603 4863 
L 1178 4863 
L 1178 4134 
L 603 4134 
L 603 4863 
z
" transform="scale(0.015625)"/>
       <path id="DejaVuSans-63" d="M 3122 3366 
L 3122 2828 
Q 2878 2963 2633 3030 
Q 2388 3097 2138 3097 
Q 1578 3097 1268 2742 
Q 959 2388 959 1747 
Q 959 1106 1268 751 
Q 1578 397 2138 397 
Q 2388 397 2633 464 
Q 2878 531 3122 666 
L 3122 134 
Q 2881 22 2623 -34 
Q 2366 -91 2075 -91 
Q 1284 -91 818 406 
Q 353 903 353 1747 
Q 353 2603 823 3093 
Q 1294 3584 2113 3584 
Q 2378 3584 2631 3529 
Q 2884 3475 3122 3366 
z
" transform="scale(0.015625)"/>
       <path id="DejaVuSans-74" d="M 1172 4494 
L 1172 3500 
L 2356 3500 
L 2356 3053 
L 1172 3053 
L 1172 1153 
Q 1172 725 1289 603 
Q 1406 481 1766 481 
L 2356 481 
L 2356 0 
L 1766 0 
Q 1100 0 847 248 
Q 594 497 594 1153 
L 594 3053 
L 172 3053 
L 172 3500 
L 594 3500 
L 594 4494 
L 1172 4494 
z
" transform="scale(0.015625)"/>
       <path id="DejaVuSans-20" transform="scale(0.015625)"/>
       <path id="DejaVuSans-46" d="M 628 4666 
L 3309 4666 
L 3309 4134 
L 1259 4134 
L 1259 2759 
L 3109 2759 
L 3109 2228 
L 1259 2228 
L 1259 0 
L 628 0 
L 628 4666 
z
" transform="scale(0.015625)"/>
       <path id="DejaVuSans-6c" d="M 603 4863 
L 1178 4863 
L 1178 0 
L 603 0 
L 603 4863 
z
" transform="scale(0.015625)"/>
       <path id="DejaVuSans-75" d="M 544 1381 
L 544 3500 
L 1119 3500 
L 1119 1403 
Q 1119 906 1312 657 
Q 1506 409 1894 409 
Q 2359 409 2629 706 
Q 2900 1003 2900 1516 
L 2900 3500 
L 3475 3500 
L 3475 0 
L 2900 0 
L 2900 538 
Q 2691 219 2414 64 
Q 2138 -91 1772 -91 
Q 1169 -91 856 284 
Q 544 659 544 1381 
z
M 1991 3584 
L 1991 3584 
z
" transform="scale(0.015625)"/>
       <path id="DejaVuSans-6f" d="M 1959 3097 
Q 1497 3097 1228 2736 
Q 959 2375 959 1747 
Q 959 1119 1226 758 
Q 1494 397 1959 397 
Q 2419 397 2687 759 
Q 2956 1122 2956 1747 
Q 2956 2369 2687 2733 
Q 2419 3097 1959 3097 
z
M 1959 3584 
Q 2709 3584 3137 3096 
Q 3566 2609 3566 1747 
Q 3566 888 3137 398 
Q 2709 -91 1959 -91 
Q 1206 -91 779 398 
Q 353 888 353 1747 
Q 353 2609 779 3096 
Q 1206 3584 1959 3584 
z
" transform="scale(0.015625)"/>
       <path id="DejaVuSans-73" d="M 2834 3397 
L 2834 2853 
Q 2591 2978 2328 3040 
Q 2066 3103 1784 3103 
Q 1356 3103 1142 2972 
Q 928 2841 928 2578 
Q 928 2378 1081 2264 
Q 1234 2150 1697 2047 
L 1894 2003 
Q 2506 1872 2764 1633 
Q 3022 1394 3022 966 
Q 3022 478 2636 193 
Q 2250 -91 1575 -91 
Q 1294 -91 989 -36 
Q 684 19 347 128 
L 347 722 
Q 666 556 975 473 
Q 1284 391 1588 391 
Q 1994 391 2212 530 
Q 2431 669 2431 922 
Q 2431 1156 2273 1281 
Q 2116 1406 1581 1522 
L 1381 1569 
Q 847 1681 609 1914 
Q 372 2147 372 2553 
Q 372 3047 722 3315 
Q 1072 3584 1716 3584 
Q 2034 3584 2315 3537 
Q 2597 3491 2834 3397 
z
" transform="scale(0.015625)"/>
       <path id="DejaVuSans-6e" d="M 3513 2113 
L 3513 0 
L 2938 0 
L 2938 2094 
Q 2938 2591 2744 2837 
Q 2550 3084 2163 3084 
Q 1697 3084 1428 2787 
Q 1159 2491 1159 1978 
L 1159 0 
L 581 0 
L 581 3500 
L 1159 3500 
L 1159 2956 
Q 1366 3272 1645 3428 
Q 1925 3584 2291 3584 
Q 2894 3584 3203 3211 
Q 3513 2838 3513 2113 
z
" transform="scale(0.015625)"/>
      </defs>
      <use xlink:href="#DejaVuSans-50"/>
      <use xlink:href="#DejaVuSans-72" x="58.552734"/>
      <use xlink:href="#DejaVuSans-65" x="97.416016"/>
      <use xlink:href="#DejaVuSans-64" x="158.939453"/>
      <use xlink:href="#DejaVuSans-69" x="222.416016"/>
      <use xlink:href="#DejaVuSans-63" x="250.199219"/>
      <use xlink:href="#DejaVuSans-74" x="305.179688"/>
      <use xlink:href="#DejaVuSans-65" x="344.388672"/>
      <use xlink:href="#DejaVuSans-64" x="405.912109"/>
      <use xlink:href="#DejaVuSans-20" x="469.388672"/>
      <use xlink:href="#DejaVuSans-46" x="501.175781"/>
      <use xlink:href="#DejaVuSans-6c" x="558.695312"/>
      <use xlink:href="#DejaVuSans-75" x="586.478516"/>
      <use xlink:href="#DejaVuSans-6f" x="649.857422"/>
      <use xlink:href="#DejaVuSans-72" x="711.039062"/>
      <use xlink:href="#DejaVuSans-65" x="749.902344"/>
      <use xlink:href="#DejaVuSans-73" x="811.425781"/>
      <use xlink:href="#DejaVuSans-63" x="863.525391"/>
      <use xlink:href="#DejaVuSans-65" x="918.505859"/>
      <use xlink:href="#DejaVuSans-6e" x="980.029297"/>
      <use xlink:href="#DejaVuSans-63" x="1043.408203"/>
      <use xlink:href="#DejaVuSans-65" x="1098.388672"/>
     </g>
    </g>
   </g>
   <g id="matplotlib.axis_2">
    <g id="ytick_1">
     <g id="line2d_7">
      <defs>
       <path id="me17cea8ccc" d="M 0 0 
L -3.5 0 
" style="stroke: #000000; stroke-width: 0.8"/>
      </defs>
      <g>
       <use xlink:href="#me17cea8ccc" x="51.41" y="389.32" style="stroke: #000000; stroke-width: 0.8"/>
      </g>
     </g>
     <g id="text_8">
      <!-- 0.0 -->
      <g transform="translate(28.506875 393.119219) scale(0.1 -0.1)">
       <defs>
        <path id="DejaVuSans-2e" d="M 684 794 
L 1344 794 
L 1344 0 
L 684 0 
L 684 794 
z
" transform="scale(0.015625)"/>
       </defs>
       <use xlink:href="#DejaVuSans-30"/>
       <use xlink:href="#DejaVuSans-2e" x="63.623047"/>
       <use xlink:href="#DejaVuSans-30" x="95.410156"/>
      </g>
     </g>
    </g>
    <g id="ytick_2">
     <g id="line2d_8">
      <g>
       <use xlink:href="#me17cea8ccc" x="51.41" y="339.100895" style="stroke: #000000; stroke-width: 0.8"/>
      </g>
     </g>
     <g id="text_9">
      <!-- 0.5 -->
      <g transform="translate(28.506875 342.900114) scale(0.1 -0.1)">
       <defs>
        <path id="DejaVuSans-35" d="M 691 4666 
L 3169 4666 
L 3169 4134 
L 1269 4134 
L 1269 2991 
Q 1406 3038 1543 3061 
Q 1681 3084 1819 3084 
Q 2600 3084 3056 2656 
Q 3513 2228 3513 1497 
Q 3513 744 3044 326 
Q 2575 -91 1722 -91 
Q 1428 -91 1123 -41 
Q 819 9 494 109 
L 494 744 
Q 775 591 1075 516 
Q 1375 441 1709 441 
Q 2250 441 2565 725 
Q 2881 1009 2881 1497 
Q 2881 1984 2565 2268 
Q 2250 2553 1709 2553 
Q 1456 2553 1204 2497 
Q 953 2441 691 2322 
L 691 4666 
z
" transform="scale(0.015625)"/>
       </defs>
       <use xlink:href="#DejaVuSans-30"/>
       <use xlink:href="#DejaVuSans-2e" x="63.623047"/>
       <use xlink:href="#DejaVuSans-35" x="95.410156"/>
      </g>
     </g>
    </g>
    <g id="ytick_3">
     <g id="line2d_9">
      <g>
       <use xlink:href="#me17cea8ccc" x="51.41" y="288.88179" style="stroke: #000000; stroke-width: 0.8"/>
      </g>
     </g>
     <g id="text_10">
      <!-- 1.0 -->
      <g transform="translate(28.506875 292.681009) scale(0.1 -0.1)">
       <use xlink:href="#DejaVuSans-31"/>
       <use xlink:href="#DejaVuSans-2e" x="63.623047"/>
       <use xlink:href="#DejaVuSans-30" x="95.410156"/>
      </g>
     </g>
    </g>
    <g id="ytick_4">
     <g id="line2d_10">
      <g>
       <use xlink:href="#me17cea8ccc" x="51.41" y="238.662685" style="stroke: #000000; stroke-width: 0.8"/>
      </g>
     </g>
     <g id="text_11">
      <!-- 1.5 -->
      <g transform="translate(28.506875 242.461904) scale(0.1 -0.1)">
       <use xlink:href="#DejaVuSans-31"/>
       <use xlink:href="#DejaVuSans-2e" x="63.623047"/>
       <use xlink:href="#DejaVuSans-35" x="95.410156"/>
      </g>
     </g>
    </g>
    <g id="ytick_5">
     <g id="line2d_11">
      <g>
       <use xlink:href="#me17cea8ccc" x="51.41" y="188.44358" style="stroke: #000000; stroke-width: 0.8"/>
      </g>
     </g>
     <g id="text_12">
      <!-- 2.0 -->
      <g transform="translate(28.506875 192.242799) scale(0.1 -0.1)">
       <use xlink:href="#DejaVuSans-32"/>
       <use xlink:href="#DejaVuSans-2e" x="63.623047"/>
       <use xlink:href="#DejaVuSans-30" x="95.410156"/>
      </g>
     </g>
    </g>
    <g id="ytick_6">
     <g id="line2d_12">
      <g>
       <use xlink:href="#me17cea8ccc" x="51.41" y="138.224475" style="stroke: #000000; stroke-width: 0.8"/>
      </g>
     </g>
     <g id="text_13">
      <!-- 2.5 -->
      <g transform="translate(28.506875 142.023694) scale(0.1 -0.1)">
       <use xlink:href="#DejaVuSans-32"/>
       <use xlink:href="#DejaVuSans-2e" x="63.623047"/>
       <use xlink:href="#DejaVuSans-35" x="95.410156"/>
      </g>
     </g>
    </g>
    <g id="ytick_7">
     <g id="line2d_13">
      <g>
       <use xlink:href="#me17cea8ccc" x="51.41" y="88.00537" style="stroke: #000000; stroke-width: 0.8"/>
      </g>
     </g>
     <g id="text_14">
      <!-- 3.0 -->
      <g transform="translate(28.506875 91.804589) scale(0.1 -0.1)">
       <use xlink:href="#DejaVuSans-33"/>
       <use xlink:href="#DejaVuSans-2e" x="63.623047"/>
       <use xlink:href="#DejaVuSans-30" x="95.410156"/>
      </g>
     </g>
    </g>
    <g id="ytick_8">
     <g id="line2d_14">
      <g>
       <use xlink:href="#me17cea8ccc" x="51.41" y="37.786265" style="stroke: #000000; stroke-width: 0.8"/>
      </g>
     </g>
     <g id="text_15">
      <!-- 3.5 -->
      <g transform="translate(28.506875 41.585484) scale(0.1 -0.1)">
       <use xlink:href="#DejaVuSans-33"/>
       <use xlink:href="#DejaVuSans-2e" x="63.623047"/>
       <use xlink:href="#DejaVuSans-35" x="95.410156"/>
      </g>
     </g>
    </g>
    <g id="text_16">
     <!-- Density -->
     <g transform="translate(21.595313 226.672031) rotate(-90) scale(0.14 -0.14)">
      <defs>
       <path id="DejaVuSans-44" d="M 1259 4147 
L 1259 519 
L 2022 519 
Q 2988 519 3436 956 
Q 3884 1394 3884 2338 
Q 3884 3275 3436 3711 
Q 2988 4147 2022 4147 
L 1259 4147 
z
M 628 4666 
L 1925 4666 
Q 3281 4666 3915 4102 
Q 4550 3538 4550 2338 
Q 4550 1131 3912 565 
Q 3275 0 1925 0 
L 628 0 
L 628 4666 
z
" transform="scale(0.015625)"/>
       <path id="DejaVuSans-79" d="M 2059 -325 
Q 1816 -950 1584 -1140 
Q 1353 -1331 966 -1331 
L 506 -1331 
L 506 -850 
L 844 -850 
Q 1081 -850 1212 -737 
Q 1344 -625 1503 -206 
L 1606 56 
L 191 3500 
L 800 3500 
L 1894 763 
L 2988 3500 
L 3597 3500 
L 2059 -325 
z
" transform="scale(0.015625)"/>
      </defs>
      <use xlink:href="#DejaVuSans-44"/>
      <use xlink:href="#DejaVuSans-65" x="77.001953"/>
      <use xlink:href="#DejaVuSans-6e" x="138.525391"/>
      <use xlink:href="#DejaVuSans-73" x="201.904297"/>
      <use xlink:href="#DejaVuSans-69" x="254.003906"/>
      <use xlink:href="#DejaVuSans-74" x="281.787109"/>
      <use xlink:href="#DejaVuSans-79" x="320.996094"/>
     </g>
    </g>
   </g>
   <g id="line2d_15">
    <path d="M 359.697495 389.32 
L 359.697495 10.8 
" clip-path="url(#p4c08abda79)" style="fill: none; stroke-dasharray: 3.7,1.6; stroke-dashoffset: 0; stroke: #000000"/>
   </g>
   <g id="patch_3">
    <path d="M 51.41 389.32 
L 51.41 10.8 
" style="fill: none; stroke: #000000; stroke-width: 0.8; stroke-linejoin: miter; stroke-linecap: square"/>
   </g>
   <g id="patch_4">
    <path d="M 51.41 389.32 
L 421.2 389.32 
" style="fill: none; stroke: #000000; stroke-width: 0.8; stroke-linejoin: miter; stroke-linecap: square"/>
   </g>
   <g id="legend_1">
    <g id="patch_5">
     <path d="M 58.41 77.5125 
L 208.858438 77.5125 
Q 210.858438 77.5125 210.858438 75.5125 
L 210.858438 17.8 
Q 210.858438 15.8 208.858438 15.8 
L 58.41 15.8 
Q 56.41 15.8 56.41 17.8 
L 56.41 75.5125 
Q 56.41 77.5125 58.41 77.5125 
z
" style="fill: #ffffff; opacity: 0.8; stroke: #cccccc; stroke-linejoin: miter"/>
    </g>
    <g id="patch_6">
     <path d="M 60.41 27.398438 
L 80.41 27.398438 
L 80.41 20.398438 
L 60.41 20.398438 
z
" style="fill: #bdbdbd; fill-opacity: 0.5; stroke: #bdbdbd; stroke-width: 2.5; stroke-linejoin: miter"/>
    </g>
    <g id="text_17">
     <!-- Pre-trained ESM2 (35M) -->
     <g transform="translate(88.41 27.398438) scale(0.1 -0.1)">
      <defs>
       <path id="DejaVuSans-2d" d="M 313 2009 
L 1997 2009 
L 1997 1497 
L 313 1497 
L 313 2009 
z
" transform="scale(0.015625)"/>
       <path id="DejaVuSans-61" d="M 2194 1759 
Q 1497 1759 1228 1600 
Q 959 1441 959 1056 
Q 959 750 1161 570 
Q 1363 391 1709 391 
Q 2188 391 2477 730 
Q 2766 1069 2766 1631 
L 2766 1759 
L 2194 1759 
z
M 3341 1997 
L 3341 0 
L 2766 0 
L 2766 531 
Q 2569 213 2275 61 
Q 1981 -91 1556 -91 
Q 1019 -91 701 211 
Q 384 513 384 1019 
Q 384 1609 779 1909 
Q 1175 2209 1959 2209 
L 2766 2209 
L 2766 2266 
Q 2766 2663 2505 2880 
Q 2244 3097 1772 3097 
Q 1472 3097 1187 3025 
Q 903 2953 641 2809 
L 641 3341 
Q 956 3463 1253 3523 
Q 1550 3584 1831 3584 
Q 2591 3584 2966 3190 
Q 3341 2797 3341 1997 
z
" transform="scale(0.015625)"/>
       <path id="DejaVuSans-45" d="M 628 4666 
L 3578 4666 
L 3578 4134 
L 1259 4134 
L 1259 2753 
L 3481 2753 
L 3481 2222 
L 1259 2222 
L 1259 531 
L 3634 531 
L 3634 0 
L 628 0 
L 628 4666 
z
" transform="scale(0.015625)"/>
       <path id="DejaVuSans-53" d="M 3425 4513 
L 3425 3897 
Q 3066 4069 2747 4153 
Q 2428 4238 2131 4238 
Q 1616 4238 1336 4038 
Q 1056 3838 1056 3469 
Q 1056 3159 1242 3001 
Q 1428 2844 1947 2747 
L 2328 2669 
Q 3034 2534 3370 2195 
Q 3706 1856 3706 1288 
Q 3706 609 3251 259 
Q 2797 -91 1919 -91 
Q 1588 -91 1214 -16 
Q 841 59 441 206 
L 441 856 
Q 825 641 1194 531 
Q 1563 422 1919 422 
Q 2459 422 2753 634 
Q 3047 847 3047 1241 
Q 3047 1584 2836 1778 
Q 2625 1972 2144 2069 
L 1759 2144 
Q 1053 2284 737 2584 
Q 422 2884 422 3419 
Q 422 4038 858 4394 
Q 1294 4750 2059 4750 
Q 2388 4750 2728 4690 
Q 3069 4631 3425 4513 
z
" transform="scale(0.015625)"/>
       <path id="DejaVuSans-4d" d="M 628 4666 
L 1569 4666 
L 2759 1491 
L 3956 4666 
L 4897 4666 
L 4897 0 
L 4281 0 
L 4281 4097 
L 3078 897 
L 2444 897 
L 1241 4097 
L 1241 0 
L 628 0 
L 628 4666 
z
" transform="scale(0.015625)"/>
       <path id="DejaVuSans-28" d="M 1984 4856 
Q 1566 4138 1362 3434 
Q 1159 2731 1159 2009 
Q 1159 1288 1364 580 
Q 1569 -128 1984 -844 
L 1484 -844 
Q 1016 -109 783 600 
Q 550 1309 550 2009 
Q 550 2706 781 3412 
Q 1013 4119 1484 4856 
L 1984 4856 
z
" transform="scale(0.015625)"/>
       <path id="DejaVuSans-29" d="M 513 4856 
L 1013 4856 
Q 1481 4119 1714 3412 
Q 1947 2706 1947 2009 
Q 1947 1309 1714 600 
Q 1481 -109 1013 -844 
L 513 -844 
Q 928 -128 1133 580 
Q 1338 1288 1338 2009 
Q 1338 2731 1133 3434 
Q 928 4138 513 4856 
z
" transform="scale(0.015625)"/>
      </defs>
      <use xlink:href="#DejaVuSans-50"/>
      <use xlink:href="#DejaVuSans-72" x="58.552734"/>
      <use xlink:href="#DejaVuSans-65" x="97.416016"/>
      <use xlink:href="#DejaVuSans-2d" x="158.939453"/>
      <use xlink:href="#DejaVuSans-74" x="195.023438"/>
      <use xlink:href="#DejaVuSans-72" x="234.232422"/>
      <use xlink:href="#DejaVuSans-61" x="275.345703"/>
      <use xlink:href="#DejaVuSans-69" x="336.625"/>
      <use xlink:href="#DejaVuSans-6e" x="364.408203"/>
      <use xlink:href="#DejaVuSans-65" x="427.787109"/>
      <use xlink:href="#DejaVuSans-64" x="489.310547"/>
      <use xlink:href="#DejaVuSans-20" x="552.787109"/>
      <use xlink:href="#DejaVuSans-45" x="584.574219"/>
      <use xlink:href="#DejaVuSans-53" x="647.757812"/>
      <use xlink:href="#DejaVuSans-4d" x="711.234375"/>
      <use xlink:href="#DejaVuSans-32" x="797.513672"/>
      <use xlink:href="#DejaVuSans-20" x="861.136719"/>
      <use xlink:href="#DejaVuSans-28" x="892.923828"/>
      <use xlink:href="#DejaVuSans-33" x="931.9375"/>
      <use xlink:href="#DejaVuSans-35" x="995.560547"/>
      <use xlink:href="#DejaVuSans-4d" x="1059.183594"/>
      <use xlink:href="#DejaVuSans-29" x="1145.462891"/>
     </g>
    </g>
    <g id="patch_7">
     <path d="M 60.41 42.076563 
L 80.41 42.076563 
L 80.41 35.076563 
L 60.41 35.076563 
z
" style="fill: #92c5de; fill-opacity: 0.5; stroke: #92c5de; stroke-width: 2.5; stroke-linejoin: miter"/>
    </g>
    <g id="text_18">
     <!-- SFT ESM2 (35M) -->
     <g transform="translate(88.41 42.076563) scale(0.1 -0.1)">
      <defs>
       <path id="DejaVuSans-54" d="M -19 4666 
L 3928 4666 
L 3928 4134 
L 2272 4134 
L 2272 0 
L 1638 0 
L 1638 4134 
L -19 4134 
L -19 4666 
z
" transform="scale(0.015625)"/>
      </defs>
      <use xlink:href="#DejaVuSans-53"/>
      <use xlink:href="#DejaVuSans-46" x="63.476562"/>
      <use xlink:href="#DejaVuSans-54" x="119.246094"/>
      <use xlink:href="#DejaVuSans-20" x="180.330078"/>
      <use xlink:href="#DejaVuSans-45" x="212.117188"/>
      <use xlink:href="#DejaVuSans-53" x="275.300781"/>
      <use xlink:href="#DejaVuSans-4d" x="338.777344"/>
      <use xlink:href="#DejaVuSans-32" x="425.056641"/>
      <use xlink:href="#DejaVuSans-20" x="488.679688"/>
      <use xlink:href="#DejaVuSans-28" x="520.466797"/>
      <use xlink:href="#DejaVuSans-33" x="559.480469"/>
      <use xlink:href="#DejaVuSans-35" x="623.103516"/>
      <use xlink:href="#DejaVuSans-4d" x="686.726562"/>
      <use xlink:href="#DejaVuSans-29" x="773.005859"/>
     </g>
    </g>
    <g id="patch_8">
     <path d="M 60.41 56.754687 
L 80.41 56.754687 
L 80.41 49.754687 
L 60.41 49.754687 
z
" style="fill: #2166ac; fill-opacity: 0.5; stroke: #2166ac; stroke-width: 2.5; stroke-linejoin: miter"/>
    </g>
    <g id="text_19">
     <!-- Aligned ESM2 (35M) -->
     <g transform="translate(88.41 56.754687) scale(0.1 -0.1)">
      <defs>
       <path id="DejaVuSans-41" d="M 2188 4044 
L 1331 1722 
L 3047 1722 
L 2188 4044 
z
M 1831 4666 
L 2547 4666 
L 4325 0 
L 3669 0 
L 3244 1197 
L 1141 1197 
L 716 0 
L 50 0 
L 1831 4666 
z
" transform="scale(0.015625)"/>
       <path id="DejaVuSans-67" d="M 2906 1791 
Q 2906 2416 2648 2759 
Q 2391 3103 1925 3103 
Q 1463 3103 1205 2759 
Q 947 2416 947 1791 
Q 947 1169 1205 825 
Q 1463 481 1925 481 
Q 2391 481 2648 825 
Q 2906 1169 2906 1791 
z
M 3481 434 
Q 3481 -459 3084 -895 
Q 2688 -1331 1869 -1331 
Q 1566 -1331 1297 -1286 
Q 1028 -1241 775 -1147 
L 775 -588 
Q 1028 -725 1275 -790 
Q 1522 -856 1778 -856 
Q 2344 -856 2625 -561 
Q 2906 -266 2906 331 
L 2906 616 
Q 2728 306 2450 153 
Q 2172 0 1784 0 
Q 1141 0 747 490 
Q 353 981 353 1791 
Q 353 2603 747 3093 
Q 1141 3584 1784 3584 
Q 2172 3584 2450 3431 
Q 2728 3278 2906 2969 
L 2906 3500 
L 3481 3500 
L 3481 434 
z
" transform="scale(0.015625)"/>
      </defs>
      <use xlink:href="#DejaVuSans-41"/>
      <use xlink:href="#DejaVuSans-6c" x="68.408203"/>
      <use xlink:href="#DejaVuSans-69" x="96.191406"/>
      <use xlink:href="#DejaVuSans-67" x="123.974609"/>
      <use xlink:href="#DejaVuSans-6e" x="187.451172"/>
      <use xlink:href="#DejaVuSans-65" x="250.830078"/>
      <use xlink:href="#DejaVuSans-64" x="312.353516"/>
      <use xlink:href="#DejaVuSans-20" x="375.830078"/>
      <use xlink:href="#DejaVuSans-45" x="407.617188"/>
      <use xlink:href="#DejaVuSans-53" x="470.800781"/>
      <use xlink:href="#DejaVuSans-4d" x="534.277344"/>
      <use xlink:href="#DejaVuSans-32" x="620.556641"/>
      <use xlink:href="#DejaVuSans-20" x="684.179688"/>
      <use xlink:href="#DejaVuSans-28" x="715.966797"/>
      <use xlink:href="#DejaVuSans-33" x="754.980469"/>
      <use xlink:href="#DejaVuSans-35" x="818.603516"/>
      <use xlink:href="#DejaVuSans-4d" x="882.226562"/>
      <use xlink:href="#DejaVuSans-29" x="968.505859"/>
     </g>
    </g>
    <g id="line2d_16">
     <path d="M 60.41 67.932813 
L 70.41 67.932813 
L 80.41 67.932813 
" style="fill: none; stroke-dasharray: 3.7,1.6; stroke-dashoffset: 0; stroke: #000000"/>
    </g>
    <g id="text_20">
     <!-- Predicted avGFP score -->
     <g transform="translate(88.41 71.432813) scale(0.1 -0.1)">
      <defs>
       <path id="DejaVuSans-76" d="M 191 3500 
L 800 3500 
L 1894 563 
L 2988 3500 
L 3597 3500 
L 2284 0 
L 1503 0 
L 191 3500 
z
" transform="scale(0.015625)"/>
       <path id="DejaVuSans-47" d="M 3809 666 
L 3809 1919 
L 2778 1919 
L 2778 2438 
L 4434 2438 
L 4434 434 
Q 4069 175 3628 42 
Q 3188 -91 2688 -91 
Q 1594 -91 976 548 
Q 359 1188 359 2328 
Q 359 3472 976 4111 
Q 1594 4750 2688 4750 
Q 3144 4750 3555 4637 
Q 3966 4525 4313 4306 
L 4313 3634 
Q 3963 3931 3569 4081 
Q 3175 4231 2741 4231 
Q 1884 4231 1454 3753 
Q 1025 3275 1025 2328 
Q 1025 1384 1454 906 
Q 1884 428 2741 428 
Q 3075 428 3337 486 
Q 3600 544 3809 666 
z
" transform="scale(0.015625)"/>
      </defs>
      <use xlink:href="#DejaVuSans-50"/>
      <use xlink:href="#DejaVuSans-72" x="58.552734"/>
      <use xlink:href="#DejaVuSans-65" x="97.416016"/>
      <use xlink:href="#DejaVuSans-64" x="158.939453"/>
      <use xlink:href="#DejaVuSans-69" x="222.416016"/>
      <use xlink:href="#DejaVuSans-63" x="250.199219"/>
      <use xlink:href="#DejaVuSans-74" x="305.179688"/>
      <use xlink:href="#DejaVuSans-65" x="344.388672"/>
      <use xlink:href="#DejaVuSans-64" x="405.912109"/>
      <use xlink:href="#DejaVuSans-20" x="469.388672"/>
      <use xlink:href="#DejaVuSans-61" x="501.175781"/>
      <use xlink:href="#DejaVuSans-76" x="562.455078"/>
      <use xlink:href="#DejaVuSans-47" x="621.634766"/>
      <use xlink:href="#DejaVuSans-46" x="699.125"/>
      <use xlink:href="#DejaVuSans-50" x="756.644531"/>
      <use xlink:href="#DejaVuSans-20" x="816.947266"/>
      <use xlink:href="#DejaVuSans-73" x="848.734375"/>
      <use xlink:href="#DejaVuSans-63" x="900.833984"/>
      <use xlink:href="#DejaVuSans-6f" x="955.814453"/>
      <use xlink:href="#DejaVuSans-72" x="1016.996094"/>
      <use xlink:href="#DejaVuSans-65" x="1055.859375"/>
     </g>
    </g>
   </g>
  </g>
 </g>
 <defs>
  <clipPath id="p4c08abda79">
   <rect x="51.41" y="10.8" width="369.79" height="378.52"/>
  </clipPath>
 </defs>
</svg>
