<?xml version="1.0" encoding="utf-8" standalone="no"?>
<!DOCTYPE svg PUBLIC "-//W3C//DTD SVG 1.1//EN"
  "http://www.w3.org/Graphics/SVG/1.1/DTD/svg11.dtd">
<svg xmlns:xlink="http://www.w3.org/1999/xlink" width="432pt" height="432pt" viewBox="0 0 432 432" xmlns="http://www.w3.org/2000/svg" version="1.1">
 <metadata>
  <rdf:RDF xmlns:dc="http://purl.org/dc/elements/1.1/" xmlns:cc="http://creativecommons.org/ns#" xmlns:rdf="http://www.w3.org/1999/02/22-rdf-syntax-ns#">
   <cc:Work>
    <dc:type rdf:resource="http://purl.org/dc/dcmitype/StillImage"/>
    <dc:date>2025-04-02T14:31:01.331380</dc:date>
    <dc:format>image/svg+xml</dc:format>
    <dc:creator>
     <cc:Agent>
      <dc:title>Matplotlib v3.8.0, https://matplotlib.org/</dc:title>
     </cc:Agent>
    </dc:creator>
   </cc:Work>
  </rdf:RDF>
 </metadata>
 <defs>
  <style type="text/css">*{stroke-linejoin: round; stroke-linecap: butt}</style>
 </defs>
 <g id="figure_1">
  <g id="patch_1">
   <path d="M 0 432 
L 432 432 
L 432 0 
L 0 0 
z
" style="fill: #ffffff"/>
  </g>
  <g id="axes_1">
   <g id="patch_2">
    <path d="M 57.8 389.32 
L 421.2 389.32 
L 421.2 10.8 
L 57.8 10.8 
z
" style="fill: #ffffff"/>
   </g>
   <g id="PolyCollection_1">
    <defs>
     <path id="md995ee3ee8" d="M 75.300005 -42.739132 
L 75.300005 -42.68 
L 76.648152 -42.68 
L 77.9963 -42.68 
L 79.344447 -42.68 
L 80.692595 -42.68 
L 82.040743 -42.68 
L 83.38889 -42.68 
L 84.737038 -42.68 
L 86.085185 -42.68 
L 87.433333 -42.68 
L 88.781481 -42.68 
L 90.129628 -42.68 
L 91.477776 -42.68 
L 92.825924 -42.68 
L 94.174071 -42.68 
L 95.522219 -42.68 
L 96.870366 -42.68 
L 98.218514 -42.68 
L 99.566662 -42.68 
L 100.914809 -42.68 
L 102.262957 -42.68 
L 103.611104 -42.68 
L 104.959252 -42.68 
L 106.3074 -42.68 
L 107.655547 -42.68 
L 109.003695 -42.68 
L 110.351842 -42.68 
L 111.69999 -42.68 
L 113.048138 -42.68 
L 114.396285 -42.68 
L 115.744433 -42.68 
L 117.092581 -42.68 
L 118.440728 -42.68 
L 119.788876 -42.68 
L 121.137023 -42.68 
L 122.485171 -42.68 
L 123.833319 -42.68 
L 125.181466 -42.68 
L 126.529614 -42.68 
L 127.877761 -42.68 
L 129.225909 -42.68 
L 130.574057 -42.68 
L 131.922204 -42.68 
L 133.270352 -42.68 
L 134.6185 -42.68 
L 135.966647 -42.68 
L 137.314795 -42.68 
L 138.662942 -42.68 
L 140.01109 -42.68 
L 141.359238 -42.68 
L 142.707385 -42.68 
L 144.055533 -42.68 
L 145.40368 -42.68 
L 146.751828 -42.68 
L 148.099976 -42.68 
L 149.448123 -42.68 
L 150.796271 -42.68 
L 152.144418 -42.68 
L 153.492566 -42.68 
L 154.840714 -42.68 
L 156.188861 -42.68 
L 157.537009 -42.68 
L 158.885157 -42.68 
L 160.233304 -42.68 
L 161.581452 -42.68 
L 162.929599 -42.68 
L 164.277747 -42.68 
L 165.625895 -42.68 
L 166.974042 -42.68 
L 168.32219 -42.68 
L 169.670337 -42.68 
L 171.018485 -42.68 
L 172.366633 -42.68 
L 173.71478 -42.68 
L 175.062928 -42.68 
L 176.411075 -42.68 
L 177.759223 -42.68 
L 179.107371 -42.68 
L 180.455518 -42.68 
L 181.803666 -42.68 
L 183.151814 -42.68 
L 184.499961 -42.68 
L 185.848109 -42.68 
L 187.196256 -42.68 
L 188.544404 -42.68 
L 189.892552 -42.68 
L 191.240699 -42.68 
L 192.588847 -42.68 
L 193.936994 -42.68 
L 195.285142 -42.68 
L 196.63329 -42.68 
L 197.981437 -42.68 
L 199.329585 -42.68 
L 200.677733 -42.68 
L 202.02588 -42.68 
L 203.374028 -42.68 
L 204.722175 -42.68 
L 206.070323 -42.68 
L 207.418471 -42.68 
L 208.766618 -42.68 
L 210.114766 -42.68 
L 211.462913 -42.68 
L 212.811061 -42.68 
L 214.159209 -42.68 
L 215.507356 -42.68 
L 216.855504 -42.68 
L 218.203651 -42.68 
L 219.551799 -42.68 
L 220.899947 -42.68 
L 222.248094 -42.68 
L 223.596242 -42.68 
L 224.94439 -42.68 
L 226.292537 -42.68 
L 227.640685 -42.68 
L 228.988832 -42.68 
L 230.33698 -42.68 
L 231.685128 -42.68 
L 233.033275 -42.68 
L 234.381423 -42.68 
L 235.72957 -42.68 
L 237.077718 -42.68 
L 238.425866 -42.68 
L 239.774013 -42.68 
L 241.122161 -42.68 
L 242.470309 -42.68 
L 243.818456 -42.68 
L 245.166604 -42.68 
L 246.514751 -42.68 
L 247.862899 -42.68 
L 249.211047 -42.68 
L 250.559194 -42.68 
L 251.907342 -42.68 
L 253.255489 -42.68 
L 254.603637 -42.68 
L 255.951785 -42.68 
L 257.299932 -42.68 
L 258.64808 -42.68 
L 259.996227 -42.68 
L 261.344375 -42.68 
L 262.692523 -42.68 
L 264.04067 -42.68 
L 265.388818 -42.68 
L 266.736966 -42.68 
L 268.085113 -42.68 
L 269.433261 -42.68 
L 270.781408 -42.68 
L 272.129556 -42.68 
L 273.477704 -42.68 
L 274.825851 -42.68 
L 276.173999 -42.68 
L 277.522146 -42.68 
L 278.870294 -42.68 
L 280.218442 -42.68 
L 281.566589 -42.68 
L 282.914737 -42.68 
L 284.262885 -42.68 
L 285.611032 -42.68 
L 286.95918 -42.68 
L 288.307327 -42.68 
L 289.655475 -42.68 
L 291.003623 -42.68 
L 292.35177 -42.68 
L 293.699918 -42.68 
L 295.048065 -42.68 
L 296.396213 -42.68 
L 297.744361 -42.68 
L 299.092508 -42.68 
L 300.440656 -42.68 
L 301.788803 -42.68 
L 303.136951 -42.68 
L 304.485099 -42.68 
L 305.833246 -42.68 
L 307.181394 -42.68 
L 308.529542 -42.68 
L 309.877689 -42.68 
L 311.225837 -42.68 
L 312.573984 -42.68 
L 313.922132 -42.68 
L 315.27028 -42.68 
L 316.618427 -42.68 
L 317.966575 -42.68 
L 319.314722 -42.68 
L 320.66287 -42.68 
L 322.011018 -42.68 
L 323.359165 -42.68 
L 324.707313 -42.68 
L 326.055461 -42.68 
L 327.403608 -42.68 
L 328.751756 -42.68 
L 330.099903 -42.68 
L 331.448051 -42.68 
L 332.796199 -42.68 
L 334.144346 -42.68 
L 335.492494 -42.68 
L 336.840641 -42.68 
L 338.188789 -42.68 
L 339.536937 -42.68 
L 340.885084 -42.68 
L 342.233232 -42.68 
L 343.581379 -42.68 
L 343.581379 -42.710593 
L 343.581379 -42.710593 
L 342.233232 -42.724394 
L 340.885084 -42.743708 
L 339.536937 -42.770422 
L 338.188789 -42.806939 
L 336.840641 -42.85628 
L 335.492494 -42.922179 
L 334.144346 -43.009185 
L 332.796199 -43.12275 
L 331.448051 -43.269301 
L 330.099903 -43.456295 
L 328.751756 -43.692226 
L 327.403608 -43.986599 
L 326.055461 -44.349852 
L 324.707313 -44.793214 
L 323.359165 -45.328509 
L 322.011018 -45.9679 
L 320.66287 -46.723579 
L 319.314722 -47.607416 
L 317.966575 -48.630583 
L 316.618427 -49.803176 
L 315.27028 -51.133851 
L 313.922132 -52.629512 
L 312.573984 -54.295058 
L 311.225837 -56.133219 
L 309.877689 -58.144495 
L 308.529542 -60.327193 
L 307.181394 -62.67756 
L 305.833246 -65.189998 
L 304.485099 -67.85734 
L 303.136951 -70.671138 
L 301.788803 -73.621951 
L 300.440656 -76.699598 
L 299.092508 -79.893328 
L 297.744361 -83.19194 
L 296.396213 -86.583808 
L 295.048065 -90.056862 
L 293.699918 -93.59855 
L 292.35177 -97.195814 
L 291.003623 -100.835144 
L 289.655475 -104.502747 
L 288.307327 -108.184861 
L 286.95918 -111.86824 
L 285.611032 -115.540775 
L 284.262885 -119.19224 
L 282.914737 -122.815078 
L 281.566589 -126.405135 
L 280.218442 -129.962267 
L 278.870294 -133.490699 
L 277.522146 -136.999067 
L 276.173999 -140.500091 
L 274.825851 -144.009848 
L 273.477704 -147.546684 
L 272.129556 -151.129828 
L 270.781408 -154.777807 
L 269.433261 -158.506801 
L 268.085113 -162.329071 
L 266.736966 -166.2516 
L 265.388818 -170.275059 
L 264.04067 -174.393189 
L 262.692523 -178.59263 
L 261.344375 -182.853219 
L 259.996227 -187.148687 
L 258.64808 -191.447723 
L 257.299932 -195.715293 
L 255.951785 -199.91412 
L 254.603637 -204.006233 
L 253.255489 -207.954508 
L 251.907342 -211.72411 
L 250.559194 -215.283809 
L 249.211047 -218.607119 
L 247.862899 -221.673229 
L 246.514751 -224.467723 
L 245.166604 -226.983066 
L 243.818456 -229.218837 
L 242.470309 -231.181707 
L 241.122161 -232.885154 
L 239.774013 -234.348915 
L 238.425866 -235.598181 
L 237.077718 -236.662581 
L 235.72957 -237.574987 
L 234.381423 -238.370209 
L 233.033275 -239.083658 
L 231.685128 -239.750048 
L 230.33698 -240.402235 
L 228.988832 -241.070244 
L 227.640685 -241.780547 
L 226.292537 -242.555613 
L 224.94439 -243.413738 
L 223.596242 -244.369118 
L 222.248094 -245.432117 
L 220.899947 -246.609683 
L 219.551799 -247.905816 
L 218.203651 -249.322042 
L 216.855504 -250.857829 
L 215.507356 -252.510908 
L 214.159209 -254.277491 
L 212.811061 -256.152379 
L 211.462913 -258.129009 
L 210.114766 -260.199442 
L 208.766618 -262.35436 
L 207.418471 -264.583097 
L 206.070323 -266.873723 
L 204.722175 -269.2132 
L 203.374028 -271.587598 
L 202.02588 -273.982361 
L 200.677733 -276.382592 
L 199.329585 -278.773329 
L 197.981437 -281.139811 
L 196.63329 -283.467712 
L 195.285142 -285.743363 
L 193.936994 -287.953994 
L 192.588847 -290.088037 
L 191.240699 -292.135525 
L 189.892552 -294.088626 
L 188.544404 -295.942346 
L 187.196256 -297.695358 
L 185.848109 -299.350951 
L 184.499961 -300.91799 
L 183.151814 -302.411801 
L 181.803666 -303.854837 
L 180.455518 -305.277015 
L 179.107371 -306.715583 
L 177.759223 -308.21445 
L 176.411075 -309.822928 
L 175.062928 -311.593898 
L 173.71478 -313.581479 
L 172.366633 -315.838319 
L 171.018485 -318.412676 
L 169.670337 -321.345486 
L 168.32219 -324.66761 
L 166.974042 -328.397452 
L 165.625895 -332.539085 
L 164.277747 -337.08099 
L 162.929599 -341.995448 
L 161.581452 -347.23856 
L 160.233304 -352.750838 
L 158.885157 -358.458251 
L 157.537009 -364.273609 
L 156.188861 -370.098157 
L 154.840714 -375.823281 
L 153.492566 -381.332245 
L 152.144418 -386.50195 
L 150.796271 -391.204711 
L 149.448123 -395.310123 
L 148.099976 -398.687079 
L 146.751828 -401.206029 
L 145.40368 -402.741548 
L 144.055533 -403.175238 
L 142.707385 -402.398959 
L 141.359238 -400.318309 
L 140.01109 -396.856231 
L 138.662942 -391.956562 
L 137.314795 -385.587314 
L 135.966647 -377.74345 
L 134.6185 -368.448926 
L 133.270352 -357.757809 
L 131.922204 -345.754306 
L 130.574057 -332.55163 
L 129.225909 -318.289674 
L 127.877761 -303.131573 
L 126.529614 -287.259275 
L 125.181466 -270.868332 
L 123.833319 -254.162153 
L 122.485171 -237.345998 
L 121.137023 -220.621017 
L 119.788876 -204.178588 
L 118.440728 -188.195243 
L 117.092581 -172.82837 
L 115.744433 -158.212855 
L 114.396285 -144.458771 
L 113.048138 -131.650141 
L 111.69999 -119.844752 
L 110.351842 -109.074943 
L 109.003695 -99.349241 
L 107.655547 -90.654692 
L 106.3074 -82.959705 
L 104.959252 -76.217229 
L 103.611104 -70.368085 
L 102.262957 -65.344276 
L 100.914809 -61.072152 
L 99.566662 -57.475299 
L 98.218514 -54.477069 
L 96.870366 -52.002715 
L 95.522219 -49.981081 
L 94.174071 -48.345875 
L 92.825924 -47.036525 
L 91.477776 -45.998677 
L 90.129628 -45.184376 
L 88.781481 -44.551983 
L 87.433333 -44.065894 
L 86.085185 -43.696112 
L 84.737038 -43.417726 
L 83.38889 -43.210332 
L 82.040743 -43.057449 
L 80.692595 -42.945941 
L 79.344447 -42.865475 
L 77.9963 -42.808032 
L 76.648152 -42.767467 
L 75.300005 -42.739132 
z
" style="stroke: #bdbdbd; stroke-width: 2.5"/>
    </defs>
    <g clip-path="url(#p02ad94725b)">
     <use xlink:href="#md995ee3ee8" x="0" y="432" style="fill: #bdbdbd; fill-opacity: 0.5; stroke: #bdbdbd; stroke-width: 2.5"/>
    </g>
   </g>
   <g id="PolyCollection_2">
    <defs>
     <path id="m50c41cddcb" d="M 74.318182 -42.749552 
L 74.318182 -42.68 
L 75.870867 -42.68 
L 77.423553 -42.68 
L 78.976238 -42.68 
L 80.528923 -42.68 
L 82.081609 -42.68 
L 83.634294 -42.68 
L 85.18698 -42.68 
L 86.739665 -42.68 
L 88.292351 -42.68 
L 89.845036 -42.68 
L 91.397721 -42.68 
L 92.950407 -42.68 
L 94.503092 -42.68 
L 96.055778 -42.68 
L 97.608463 -42.68 
L 99.161148 -42.68 
L 100.713834 -42.68 
L 102.266519 -42.68 
L 103.819205 -42.68 
L 105.37189 -42.68 
L 106.924576 -42.68 
L 108.477261 -42.68 
L 110.029946 -42.68 
L 111.582632 -42.68 
L 113.135317 -42.68 
L 114.688003 -42.68 
L 116.240688 -42.68 
L 117.793373 -42.68 
L 119.346059 -42.68 
L 120.898744 -42.68 
L 122.45143 -42.68 
L 124.004115 -42.68 
L 125.556801 -42.68 
L 127.109486 -42.68 
L 128.662171 -42.68 
L 130.214857 -42.68 
L 131.767542 -42.68 
L 133.320228 -42.68 
L 134.872913 -42.68 
L 136.425598 -42.68 
L 137.978284 -42.68 
L 139.530969 -42.68 
L 141.083655 -42.68 
L 142.63634 -42.68 
L 144.189026 -42.68 
L 145.741711 -42.68 
L 147.294396 -42.68 
L 148.847082 -42.68 
L 150.399767 -42.68 
L 151.952453 -42.68 
L 153.505138 -42.68 
L 155.057824 -42.68 
L 156.610509 -42.68 
L 158.163194 -42.68 
L 159.71588 -42.68 
L 161.268565 -42.68 
L 162.821251 -42.68 
L 164.373936 -42.68 
L 165.926621 -42.68 
L 167.479307 -42.68 
L 169.031992 -42.68 
L 170.584678 -42.68 
L 172.137363 -42.68 
L 173.690049 -42.68 
L 175.242734 -42.68 
L 176.795419 -42.68 
L 178.348105 -42.68 
L 179.90079 -42.68 
L 181.453476 -42.68 
L 183.006161 -42.68 
L 184.558846 -42.68 
L 186.111532 -42.68 
L 187.664217 -42.68 
L 189.216903 -42.68 
L 190.769588 -42.68 
L 192.322274 -42.68 
L 193.874959 -42.68 
L 195.427644 -42.68 
L 196.98033 -42.68 
L 198.533015 -42.68 
L 200.085701 -42.68 
L 201.638386 -42.68 
L 203.191071 -42.68 
L 204.743757 -42.68 
L 206.296442 -42.68 
L 207.849128 -42.68 
L 209.401813 -42.68 
L 210.954499 -42.68 
L 212.507184 -42.68 
L 214.059869 -42.68 
L 215.612555 -42.68 
L 217.16524 -42.68 
L 218.717926 -42.68 
L 220.270611 -42.68 
L 221.823296 -42.68 
L 223.375982 -42.68 
L 224.928667 -42.68 
L 226.481353 -42.68 
L 228.034038 -42.68 
L 229.586724 -42.68 
L 231.139409 -42.68 
L 232.692094 -42.68 
L 234.24478 -42.68 
L 235.797465 -42.68 
L 237.350151 -42.68 
L 238.902836 -42.68 
L 240.455521 -42.68 
L 242.008207 -42.68 
L 243.560892 -42.68 
L 245.113578 -42.68 
L 246.666263 -42.68 
L 248.218949 -42.68 
L 249.771634 -42.68 
L 251.324319 -42.68 
L 252.877005 -42.68 
L 254.42969 -42.68 
L 255.982376 -42.68 
L 257.535061 -42.68 
L 259.087746 -42.68 
L 260.640432 -42.68 
L 262.193117 -42.68 
L 263.745803 -42.68 
L 265.298488 -42.68 
L 266.851174 -42.68 
L 268.403859 -42.68 
L 269.956544 -42.68 
L 271.50923 -42.68 
L 273.061915 -42.68 
L 274.614601 -42.68 
L 276.167286 -42.68 
L 277.719971 -42.68 
L 279.272657 -42.68 
L 280.825342 -42.68 
L 282.378028 -42.68 
L 283.930713 -42.68 
L 285.483399 -42.68 
L 287.036084 -42.68 
L 288.588769 -42.68 
L 290.141455 -42.68 
L 291.69414 -42.68 
L 293.246826 -42.68 
L 294.799511 -42.68 
L 296.352196 -42.68 
L 297.904882 -42.68 
L 299.457567 -42.68 
L 301.010253 -42.68 
L 302.562938 -42.68 
L 304.115624 -42.68 
L 305.668309 -42.68 
L 307.220994 -42.68 
L 308.77368 -42.68 
L 310.326365 -42.68 
L 311.879051 -42.68 
L 313.431736 -42.68 
L 314.984421 -42.68 
L 316.537107 -42.68 
L 318.089792 -42.68 
L 319.642478 -42.68 
L 321.195163 -42.68 
L 322.747849 -42.68 
L 324.300534 -42.68 
L 325.853219 -42.68 
L 327.405905 -42.68 
L 328.95859 -42.68 
L 330.511276 -42.68 
L 332.063961 -42.68 
L 333.616646 -42.68 
L 335.169332 -42.68 
L 336.722017 -42.68 
L 338.274703 -42.68 
L 339.827388 -42.68 
L 341.380074 -42.68 
L 342.932759 -42.68 
L 344.485444 -42.68 
L 346.03813 -42.68 
L 347.590815 -42.68 
L 349.143501 -42.68 
L 350.696186 -42.68 
L 352.248871 -42.68 
L 353.801557 -42.68 
L 355.354242 -42.68 
L 356.906928 -42.68 
L 358.459613 -42.68 
L 360.012299 -42.68 
L 361.564984 -42.68 
L 363.117669 -42.68 
L 364.670355 -42.68 
L 366.22304 -42.68 
L 367.775726 -42.68 
L 369.328411 -42.68 
L 370.881096 -42.68 
L 372.433782 -42.68 
L 373.986467 -42.68 
L 375.539153 -42.68 
L 377.091838 -42.68 
L 378.644524 -42.68 
L 380.197209 -42.68 
L 381.749894 -42.68 
L 383.30258 -42.68 
L 383.30258 -42.698573 
L 383.30258 -42.698573 
L 381.749894 -42.706781 
L 380.197209 -42.718174 
L 378.644524 -42.733798 
L 377.091838 -42.754968 
L 375.539153 -42.783313 
L 373.986467 -42.820818 
L 372.433782 -42.869868 
L 370.881096 -42.93328 
L 369.328411 -43.014329 
L 367.775726 -43.116763 
L 366.22304 -43.2448 
L 364.670355 -43.403109 
L 363.117669 -43.596773 
L 361.564984 -43.831233 
L 360.012299 -44.112225 
L 358.459613 -44.445696 
L 356.906928 -44.83773 
L 355.354242 -45.29447 
L 353.801557 -45.822066 
L 352.248871 -46.426645 
L 350.696186 -47.114319 
L 349.143501 -47.891234 
L 347.590815 -48.763663 
L 346.03813 -49.738137 
L 344.485444 -50.821608 
L 342.932759 -52.021612 
L 341.380074 -53.346418 
L 339.827388 -54.805127 
L 338.274703 -56.407679 
L 336.722017 -58.164747 
L 335.169332 -60.087482 
L 333.616646 -62.187088 
L 332.063961 -64.474236 
L 330.511276 -66.958324 
L 328.95859 -69.646625 
L 327.405905 -72.543376 
L 325.853219 -75.648889 
L 324.300534 -78.958765 
L 322.747849 -82.463306 
L 321.195163 -86.147201 
L 319.642478 -89.989574 
L 318.089792 -93.964409 
L 316.537107 -98.041401 
L 314.984421 -102.187168 
L 313.431736 -106.366794 
L 311.879051 -110.545581 
L 310.326365 -114.690898 
L 308.77368 -118.773963 
L 307.220994 -122.771435 
L 305.668309 -126.666653 
L 304.115624 -130.450425 
L 302.562938 -134.121274 
L 301.010253 -137.685128 
L 299.457567 -141.154446 
L 297.904882 -144.546865 
L 296.352196 -147.883468 
L 294.799511 -151.186809 
L 293.246826 -154.478866 
L 291.69414 -157.779078 
L 290.141455 -161.102627 
L 288.588769 -164.459089 
L 287.036084 -167.851545 
L 285.483399 -171.276217 
L 283.930713 -174.722612 
L 282.378028 -178.174147 
L 280.825342 -181.609175 
L 279.272657 -185.002309 
L 277.719971 -188.325924 
L 276.167286 -191.551716 
L 274.614601 -194.652206 
L 273.061915 -197.602097 
L 271.50923 -200.379426 
L 269.956544 -202.966458 
L 268.403859 -205.350329 
L 266.851174 -207.523445 
L 265.298488 -209.48366 
L 263.745803 -211.234286 
L 262.193117 -212.783963 
L 260.640432 -214.146427 
L 259.087746 -215.340196 
L 257.535061 -216.388197 
L 255.982376 -217.31732 
L 254.42969 -218.157914 
L 252.877005 -218.943203 
L 251.324319 -219.708622 
L 249.771634 -220.491072 
L 248.218949 -221.328094 
L 246.666263 -222.256981 
L 245.113578 -223.313825 
L 243.560892 -224.53254 
L 242.008207 -225.94385 
L 240.455521 -227.57428 
L 238.902836 -229.44514 
L 237.350151 -231.571534 
L 235.797465 -233.961392 
L 234.24478 -236.614573 
L 232.692094 -239.522051 
L 231.139409 -242.665259 
L 229.586724 -246.015659 
L 228.034038 -249.53462 
L 226.481353 -253.173702 
L 224.928667 -256.87542 
L 223.375982 -260.574583 
L 221.823296 -264.200216 
L 220.270611 -267.678071 
L 218.717926 -270.933657 
L 217.16524 -273.89566 
L 215.612555 -276.499569 
L 214.059869 -278.69128 
L 212.507184 -280.430402 
L 210.954499 -281.693014 
L 209.401813 -282.473614 
L 207.849128 -282.786057 
L 206.296442 -282.663365 
L 204.743757 -282.156356 
L 203.191071 -281.331162 
L 201.638386 -280.265784 
L 200.085701 -279.045926 
L 198.533015 -277.760423 
L 196.98033 -276.496573 
L 195.427644 -275.335754 
L 193.874959 -274.349599 
L 192.322274 -273.597011 
L 190.769588 -273.122185 
L 189.216903 -272.95373 
L 187.664217 -273.10487 
L 186.111532 -273.574663 
L 184.558846 -274.350046 
L 183.006161 -275.408504 
L 181.453476 -276.72112 
L 179.90079 -278.255729 
L 178.348105 -279.979952 
L 176.795419 -281.863854 
L 175.242734 -283.882064 
L 173.690049 -286.015175 
L 172.137363 -288.250346 
L 170.584678 -290.581042 
L 169.031992 -293.005903 
L 167.479307 -295.5268 
L 165.926621 -298.146187 
L 164.373936 -300.863883 
L 162.821251 -303.673512 
L 161.268565 -306.558845 
L 159.71588 -309.490321 
L 158.163194 -312.422058 
L 156.610509 -315.289666 
L 155.057824 -318.009122 
L 153.505138 -320.476964 
L 151.952453 -322.571944 
L 150.399767 -324.158204 
L 148.847082 -325.089939 
L 147.294396 -325.217347 
L 145.741711 -324.393608 
L 144.189026 -322.48247 
L 142.63634 -319.365989 
L 141.083655 -314.951884 
L 139.530969 -309.180006 
L 137.978284 -302.027413 
L 136.425598 -293.511662 
L 134.872913 -283.692039 
L 133.320228 -272.668569 
L 131.767542 -260.578856 
L 130.214857 -247.592919 
L 128.662171 -233.90637 
L 127.109486 -219.732365 
L 125.556801 -205.292869 
L 124.004115 -190.809791 
L 122.45143 -176.496524 
L 120.898744 -162.550393 
L 119.346059 -149.146379 
L 117.793373 -136.432415 
L 116.240688 -124.526378 
L 114.688003 -113.514789 
L 113.135317 -103.453115 
L 111.582632 -94.367463 
L 110.029946 -86.25739 
L 108.477261 -79.09953 
L 106.924576 -72.851694 
L 105.37189 -67.457173 
L 103.819205 -62.84895 
L 102.266519 -58.953636 
L 100.713834 -55.694954 
L 99.161148 -52.996689 
L 97.608463 -50.78506 
L 96.055778 -48.990501 
L 94.503092 -47.548908 
L 92.950407 -46.402398 
L 91.397721 -45.499654 
L 89.845036 -44.795942 
L 88.292351 -44.25288 
L 86.739665 -43.838021 
L 85.18698 -43.524322 
L 83.634294 -43.28955 
L 82.081609 -43.115668 
L 80.528923 -42.988237 
L 78.976238 -42.895839 
L 77.423553 -42.829563 
L 75.870867 -42.782543 
L 74.318182 -42.749552 
z
" style="stroke: #92c5de; stroke-width: 2.5"/>
    </defs>
    <g clip-path="url(#p02ad94725b)">
     <use xlink:href="#m50c41cddcb" x="0" y="432" style="fill: #92c5de; fill-opacity: 0.5; stroke: #92c5de; stroke-width: 2.5"/>
    </g>
   </g>
   <g id="PolyCollection_3">
    <defs>
     <path id="maf841df66a" d="M 76.403441 -42.708807 
L 76.403441 -42.68 
L 78.053081 -42.68 
L 79.702721 -42.68 
L 81.352361 -42.68 
L 83.002001 -42.68 
L 84.651642 -42.68 
L 86.301282 -42.68 
L 87.950922 -42.68 
L 89.600562 -42.68 
L 91.250202 -42.68 
L 92.899842 -42.68 
L 94.549482 -42.68 
L 96.199122 -42.68 
L 97.848762 -42.68 
L 99.498402 -42.68 
L 101.148042 -42.68 
L 102.797683 -42.68 
L 104.447323 -42.68 
L 106.096963 -42.68 
L 107.746603 -42.68 
L 109.396243 -42.68 
L 111.045883 -42.68 
L 112.695523 -42.68 
L 114.345163 -42.68 
L 115.994803 -42.68 
L 117.644443 -42.68 
L 119.294083 -42.68 
L 120.943723 -42.68 
L 122.593364 -42.68 
L 124.243004 -42.68 
L 125.892644 -42.68 
L 127.542284 -42.68 
L 129.191924 -42.68 
L 130.841564 -42.68 
L 132.491204 -42.68 
L 134.140844 -42.68 
L 135.790484 -42.68 
L 137.440124 -42.68 
L 139.089764 -42.68 
L 140.739404 -42.68 
L 142.389045 -42.68 
L 144.038685 -42.68 
L 145.688325 -42.68 
L 147.337965 -42.68 
L 148.987605 -42.68 
L 150.637245 -42.68 
L 152.286885 -42.68 
L 153.936525 -42.68 
L 155.586165 -42.68 
L 157.235805 -42.68 
L 158.885445 -42.68 
L 160.535086 -42.68 
L 162.184726 -42.68 
L 163.834366 -42.68 
L 165.484006 -42.68 
L 167.133646 -42.68 
L 168.783286 -42.68 
L 170.432926 -42.68 
L 172.082566 -42.68 
L 173.732206 -42.68 
L 175.381846 -42.68 
L 177.031486 -42.68 
L 178.681126 -42.68 
L 180.330767 -42.68 
L 181.980407 -42.68 
L 183.630047 -42.68 
L 185.279687 -42.68 
L 186.929327 -42.68 
L 188.578967 -42.68 
L 190.228607 -42.68 
L 191.878247 -42.68 
L 193.527887 -42.68 
L 195.177527 -42.68 
L 196.827167 -42.68 
L 198.476807 -42.68 
L 200.126448 -42.68 
L 201.776088 -42.68 
L 203.425728 -42.68 
L 205.075368 -42.68 
L 206.725008 -42.68 
L 208.374648 -42.68 
L 210.024288 -42.68 
L 211.673928 -42.68 
L 213.323568 -42.68 
L 214.973208 -42.68 
L 216.622848 -42.68 
L 218.272489 -42.68 
L 219.922129 -42.68 
L 221.571769 -42.68 
L 223.221409 -42.68 
L 224.871049 -42.68 
L 226.520689 -42.68 
L 228.170329 -42.68 
L 229.819969 -42.68 
L 231.469609 -42.68 
L 233.119249 -42.68 
L 234.768889 -42.68 
L 236.418529 -42.68 
L 238.06817 -42.68 
L 239.71781 -42.68 
L 241.36745 -42.68 
L 243.01709 -42.68 
L 244.66673 -42.68 
L 246.31637 -42.68 
L 247.96601 -42.68 
L 249.61565 -42.68 
L 251.26529 -42.68 
L 252.91493 -42.68 
L 254.56457 -42.68 
L 256.21421 -42.68 
L 257.863851 -42.68 
L 259.513491 -42.68 
L 261.163131 -42.68 
L 262.812771 -42.68 
L 264.462411 -42.68 
L 266.112051 -42.68 
L 267.761691 -42.68 
L 269.411331 -42.68 
L 271.060971 -42.68 
L 272.710611 -42.68 
L 274.360251 -42.68 
L 276.009892 -42.68 
L 277.659532 -42.68 
L 279.309172 -42.68 
L 280.958812 -42.68 
L 282.608452 -42.68 
L 284.258092 -42.68 
L 285.907732 -42.68 
L 287.557372 -42.68 
L 289.207012 -42.68 
L 290.856652 -42.68 
L 292.506292 -42.68 
L 294.155932 -42.68 
L 295.805573 -42.68 
L 297.455213 -42.68 
L 299.104853 -42.68 
L 300.754493 -42.68 
L 302.404133 -42.68 
L 304.053773 -42.68 
L 305.703413 -42.68 
L 307.353053 -42.68 
L 309.002693 -42.68 
L 310.652333 -42.68 
L 312.301973 -42.68 
L 313.951613 -42.68 
L 315.601254 -42.68 
L 317.250894 -42.68 
L 318.900534 -42.68 
L 320.550174 -42.68 
L 322.199814 -42.68 
L 323.849454 -42.68 
L 325.499094 -42.68 
L 327.148734 -42.68 
L 328.798374 -42.68 
L 330.448014 -42.68 
L 332.097654 -42.68 
L 333.747295 -42.68 
L 335.396935 -42.68 
L 337.046575 -42.68 
L 338.696215 -42.68 
L 340.345855 -42.68 
L 341.995495 -42.68 
L 343.645135 -42.68 
L 345.294775 -42.68 
L 346.944415 -42.68 
L 348.594055 -42.68 
L 350.243695 -42.68 
L 351.893335 -42.68 
L 353.542976 -42.68 
L 355.192616 -42.68 
L 356.842256 -42.68 
L 358.491896 -42.68 
L 360.141536 -42.68 
L 361.791176 -42.68 
L 363.440816 -42.68 
L 365.090456 -42.68 
L 366.740096 -42.68 
L 368.389736 -42.68 
L 370.039376 -42.68 
L 371.689016 -42.68 
L 373.338657 -42.68 
L 374.988297 -42.68 
L 376.637937 -42.68 
L 378.287577 -42.68 
L 379.937217 -42.68 
L 381.586857 -42.68 
L 383.236497 -42.68 
L 384.886137 -42.68 
L 386.535777 -42.68 
L 388.185417 -42.68 
L 389.835057 -42.68 
L 391.484697 -42.68 
L 393.134338 -42.68 
L 394.783978 -42.68 
L 396.433618 -42.68 
L 398.083258 -42.68 
L 399.732898 -42.68 
L 401.382538 -42.68 
L 403.032178 -42.68 
L 404.681818 -42.68 
L 404.681818 -42.695996 
L 404.681818 -42.695996 
L 403.032178 -42.703187 
L 401.382538 -42.713191 
L 399.732898 -42.726924 
L 398.083258 -42.745538 
L 396.433618 -42.770446 
L 394.783978 -42.803367 
L 393.134338 -42.846352 
L 391.484697 -42.901823 
L 389.835057 -42.972595 
L 388.185417 -43.061905 
L 386.535777 -43.173431 
L 384.886137 -43.311316 
L 383.236497 -43.480185 
L 381.586857 -43.685178 
L 379.937217 -43.931978 
L 378.287577 -44.226856 
L 376.637937 -44.576734 
L 374.988297 -44.989257 
L 373.338657 -45.472884 
L 371.689016 -46.036998 
L 370.039376 -46.692022 
L 368.389736 -47.449548 
L 366.740096 -48.322451 
L 365.090456 -49.325001 
L 363.440816 -50.472934 
L 361.791176 -51.783486 
L 360.141536 -53.275361 
L 358.491896 -54.968618 
L 356.842256 -56.884461 
L 355.192616 -59.044924 
L 353.542976 -61.472416 
L 351.893335 -64.189156 
L 350.243695 -67.216471 
L 348.594055 -70.573978 
L 346.944415 -74.278677 
L 345.294775 -78.343985 
L 343.645135 -82.778749 
L 341.995495 -87.586306 
L 340.345855 -92.763632 
L 338.696215 -98.300655 
L 337.046575 -104.179799 
L 335.396935 -110.375793 
L 333.747295 -116.855809 
L 332.097654 -123.579946 
L 330.448014 -130.502059 
L 328.798374 -137.570927 
L 327.148734 -144.731707 
L 325.499094 -151.927606 
L 323.849454 -159.101685 
L 322.199814 -166.19869 
L 320.550174 -173.16679 
L 318.900534 -179.959112 
L 317.250894 -186.534967 
L 315.601254 -192.860681 
L 313.951613 -198.909982 
L 312.301973 -204.663923 
L 310.652333 -210.110358 
L 309.002693 -215.243057 
L 307.353053 -220.060547 
L 305.703413 -224.564823 
L 304.053773 -228.760068 
L 302.404133 -232.651542 
L 300.754493 -236.24475 
L 299.104853 -239.544985 
L 297.455213 -242.55729 
L 295.805573 -245.286821 
L 294.155932 -247.739529 
L 292.506292 -249.923058 
L 290.856652 -251.847689 
L 289.207012 -253.527177 
L 287.557372 -254.979321 
L 285.907732 -256.226152 
L 284.258092 -257.293664 
L 282.608452 -258.211096 
L 280.958812 -259.009812 
L 279.309172 -259.721902 
L 277.659532 -260.378668 
L 276.009892 -261.009159 
L 274.360251 -261.638935 
L 272.710611 -262.289197 
L 271.060971 -262.976378 
L 269.411331 -263.712212 
L 267.761691 -264.504265 
L 266.112051 -265.356818 
L 264.462411 -266.271987 
L 262.812771 -267.250892 
L 261.163131 -268.294735 
L 259.513491 -269.40562 
L 257.863851 -270.587003 
L 256.21421 -271.843704 
L 254.56457 -273.181462 
L 252.91493 -274.606056 
L 251.26529 -276.122088 
L 249.61565 -277.731537 
L 247.96601 -279.432235 
L 246.31637 -281.216421 
L 244.66673 -283.069535 
L 243.01709 -284.969396 
L 241.36745 -286.885886 
L 239.71781 -288.781207 
L 238.06817 -290.610757 
L 236.418529 -292.324604 
L 234.768889 -293.869473 
L 233.119249 -295.191143 
L 231.469609 -296.237077 
L 229.819969 -296.959104 
L 228.170329 -297.315944 
L 226.520689 -297.275398 
L 224.871049 -296.816023 
L 223.221409 -295.928183 
L 221.571769 -294.614405 
L 219.922129 -292.889036 
L 218.272489 -290.777239 
L 216.622848 -288.313448 
L 214.973208 -285.539384 
L 213.323568 -282.501806 
L 211.673928 -279.250133 
L 210.024288 -275.834088 
L 208.374648 -272.301468 
L 206.725008 -268.696164 
L 205.075368 -265.056483 
L 203.425728 -261.413834 
L 201.776088 -257.791835 
L 200.126448 -254.205859 
L 198.476807 -250.663055 
L 196.827167 -247.162858 
L 195.177527 -243.697996 
L 193.527887 -240.255952 
L 191.878247 -236.820855 
L 190.228607 -233.375677 
L 188.578967 -229.904633 
L 186.929327 -226.395589 
L 185.279687 -222.842308 
L 183.630047 -219.246322 
L 181.980407 -215.618247 
L 180.330767 -211.978377 
L 178.681126 -208.356457 
L 177.031486 -204.790599 
L 175.381846 -201.325356 
L 173.732206 -198.009084 
L 172.082566 -194.890747 
L 170.432926 -192.01638 
L 168.783286 -189.425475 
L 167.133646 -187.147534 
L 165.484006 -185.19904 
L 163.834366 -183.581059 
L 162.184726 -182.27764 
L 160.535086 -181.255136 
L 158.885445 -180.462509 
L 157.235805 -179.832612 
L 155.586165 -179.284425 
L 153.936525 -178.726133 
L 152.286885 -178.058915 
L 150.637245 -177.181284 
L 148.987605 -175.993749 
L 147.337965 -174.403596 
L 145.688325 -172.32952 
L 144.038685 -169.705866 
L 142.389045 -166.486215 
L 140.739404 -162.646108 
L 139.089764 -158.184701 
L 137.440124 -153.125233 
L 135.790484 -147.514242 
L 134.140844 -141.419553 
L 132.491204 -134.927158 
L 130.841564 -128.137163 
L 129.191924 -121.159075 
L 127.542284 -114.106732 
L 125.892644 -107.093201 
L 124.243004 -100.225975 
L 122.593364 -93.602752 
L 120.943723 -87.308025 
L 119.294083 -81.410644 
L 117.644443 -75.96242 
L 115.994803 -70.997749 
L 114.345163 -66.534187 
L 112.695523 -62.573811 
L 111.045883 -59.105193 
L 109.396243 -56.105762 
L 107.746603 -53.54437 
L 106.096963 -51.383858 
L 104.447323 -49.583471 
L 102.797683 -48.101002 
L 101.148042 -46.894596 
L 99.498402 -45.92417 
L 97.848762 -45.15245 
L 96.199122 -44.545646 
L 94.549482 -44.073818 
L 92.899842 -43.710982 
L 91.250202 -43.435008 
L 89.600562 -43.227378 
L 87.950922 -43.072857 
L 86.301282 -42.9591 
L 84.651642 -42.876257 
L 83.002001 -42.816579 
L 81.352361 -42.774057 
L 79.702721 -42.744089 
L 78.053081 -42.723203 
L 76.403441 -42.708807 
z
" style="stroke: #2166ac; stroke-width: 2.5"/>
    </defs>
    <g clip-path="url(#p02ad94725b)">
     <use xlink:href="#maf841df66a" x="0" y="432" style="fill: #2166ac; fill-opacity: 0.5; stroke: #2166ac; stroke-width: 2.5"/>
    </g>
   </g>
   <g id="matplotlib.axis_1">
    <g id="xtick_1">
     <g id="line2d_1">
      <defs>
       <path id="maa7be3dc5e" d="M 0 0 
L 0 3.5 
" style="stroke: #000000; stroke-width: 0.8"/>
      </defs>
      <g>
       <use xlink:href="#maa7be3dc5e" x="62.451296" y="389.32" style="stroke: #000000; stroke-width: 0.8"/>
      </g>
     </g>
     <g id="text_1">
      <!-- −10 -->
      <g transform="translate(51.898952 403.918437) scale(0.1 -0.1)">
       <defs>
        <path id="DejaVuSans-2212" d="M 678 2272 
L 4684 2272 
L 4684 1741 
L 678 1741 
L 678 2272 
z
" transform="scale(0.015625)"/>
        <path id="DejaVuSans-31" d="M 794 531 
L 1825 531 
L 1825 4091 
L 703 3866 
L 703 4441 
L 1819 4666 
L 2450 4666 
L 2450 531 
L 3481 531 
L 3481 0 
L 794 0 
L 794 531 
z
" transform="scale(0.015625)"/>
        <path id="DejaVuSans-30" d="M 2034 4250 
Q 1547 4250 1301 3770 
Q 1056 3291 1056 2328 
Q 1056 1369 1301 889 
Q 1547 409 2034 409 
Q 2525 409 2770 889 
Q 3016 1369 3016 2328 
Q 3016 3291 2770 3770 
Q 2525 4250 2034 4250 
z
M 2034 4750 
Q 2819 4750 3233 4129 
Q 3647 3509 3647 2328 
Q 3647 1150 3233 529 
Q 2819 -91 2034 -91 
Q 1250 -91 836 529 
Q 422 1150 422 2328 
Q 422 3509 836 4129 
Q 1250 4750 2034 4750 
z
" transform="scale(0.015625)"/>
       </defs>
       <use xlink:href="#DejaVuSans-2212"/>
       <use xlink:href="#DejaVuSans-31" x="83.789062"/>
       <use xlink:href="#DejaVuSans-30" x="147.412109"/>
      </g>
     </g>
    </g>
    <g id="xtick_2">
     <g id="line2d_2">
      <g>
       <use xlink:href="#maa7be3dc5e" x="142.146348" y="389.32" style="stroke: #000000; stroke-width: 0.8"/>
      </g>
     </g>
     <g id="text_2">
      <!-- −5 -->
      <g transform="translate(134.775254 403.918437) scale(0.1 -0.1)">
       <defs>
        <path id="DejaVuSans-35" d="M 691 4666 
L 3169 4666 
L 3169 4134 
L 1269 4134 
L 1269 2991 
Q 1406 3038 1543 3061 
Q 1681 3084 1819 3084 
Q 2600 3084 3056 2656 
Q 3513 2228 3513 1497 
Q 3513 744 3044 326 
Q 2575 -91 1722 -91 
Q 1428 -91 1123 -41 
Q 819 9 494 109 
L 494 744 
Q 775 591 1075 516 
Q 1375 441 1709 441 
Q 2250 441 2565 725 
Q 2881 1009 2881 1497 
Q 2881 1984 2565 2268 
Q 2250 2553 1709 2553 
Q 1456 2553 1204 2497 
Q 953 2441 691 2322 
L 691 4666 
z
" transform="scale(0.015625)"/>
       </defs>
       <use xlink:href="#DejaVuSans-2212"/>
       <use xlink:href="#DejaVuSans-35" x="83.789062"/>
      </g>
     </g>
    </g>
    <g id="xtick_3">
     <g id="line2d_3">
      <g>
       <use xlink:href="#maa7be3dc5e" x="221.8414" y="389.32" style="stroke: #000000; stroke-width: 0.8"/>
      </g>
     </g>
     <g id="text_3">
      <!-- 0 -->
      <g transform="translate(218.66015 403.918437) scale(0.1 -0.1)">
       <use xlink:href="#DejaVuSans-30"/>
      </g>
     </g>
    </g>
    <g id="xtick_4">
     <g id="line2d_4">
      <g>
       <use xlink:href="#maa7be3dc5e" x="301.536452" y="389.32" style="stroke: #000000; stroke-width: 0.8"/>
      </g>
     </g>
     <g id="text_4">
      <!-- 5 -->
      <g transform="translate(298.355202 403.918437) scale(0.1 -0.1)">
       <use xlink:href="#DejaVuSans-35"/>
      </g>
     </g>
    </g>
    <g id="xtick_5">
     <g id="line2d_5">
      <g>
       <use xlink:href="#maa7be3dc5e" x="381.231504" y="389.32" style="stroke: #000000; stroke-width: 0.8"/>
      </g>
     </g>
     <g id="text_5">
      <!-- 10 -->
      <g transform="translate(374.869004 403.918437) scale(0.1 -0.1)">
       <use xlink:href="#DejaVuSans-31"/>
       <use xlink:href="#DejaVuSans-30" x="63.623047"/>
      </g>
     </g>
    </g>
    <g id="text_6">
     <!-- Predicted Fluorescence -->
     <g transform="translate(169.90375 419.11625) scale(0.12 -0.12)">
      <defs>
       <path id="DejaVuSans-50" d="M 1259 4147 
L 1259 2394 
L 2053 2394 
Q 2494 2394 2734 2622 
Q 2975 2850 2975 3272 
Q 2975 3691 2734 3919 
Q 2494 4147 2053 4147 
L 1259 4147 
z
M 628 4666 
L 2053 4666 
Q 2838 4666 3239 4311 
Q 3641 3956 3641 3272 
Q 3641 2581 3239 2228 
Q 2838 1875 2053 1875 
L 1259 1875 
L 1259 0 
L 628 0 
L 628 4666 
z
" transform="scale(0.015625)"/>
       <path id="DejaVuSans-72" d="M 2631 2963 
Q 2534 3019 2420 3045 
Q 2306 3072 2169 3072 
Q 1681 3072 1420 2755 
Q 1159 2438 1159 1844 
L 1159 0 
L 581 0 
L 581 3500 
L 1159 3500 
L 1159 2956 
Q 1341 3275 1631 3429 
Q 1922 3584 2338 3584 
Q 2397 3584 2469 3576 
Q 2541 3569 2628 3553 
L 2631 2963 
z
" transform="scale(0.015625)"/>
       <path id="DejaVuSans-65" d="M 3597 1894 
L 3597 1613 
L 953 1613 
Q 991 1019 1311 708 
Q 1631 397 2203 397 
Q 2534 397 2845 478 
Q 3156 559 3463 722 
L 3463 178 
Q 3153 47 2828 -22 
Q 2503 -91 2169 -91 
Q 1331 -91 842 396 
Q 353 884 353 1716 
Q 353 2575 817 3079 
Q 1281 3584 2069 3584 
Q 2775 3584 3186 3129 
Q 3597 2675 3597 1894 
z
M 3022 2063 
Q 3016 2534 2758 2815 
Q 2500 3097 2075 3097 
Q 1594 3097 1305 2825 
Q 1016 2553 972 2059 
L 3022 2063 
z
" transform="scale(0.015625)"/>
       <path id="DejaVuSans-64" d="M 2906 2969 
L 2906 4863 
L 3481 4863 
L 3481 0 
L 2906 0 
L 2906 525 
Q 2725 213 2448 61 
Q 2172 -91 1784 -91 
Q 1150 -91 751 415 
Q 353 922 353 1747 
Q 353 2572 751 3078 
Q 1150 3584 1784 3584 
Q 2172 3584 2448 3432 
Q 2725 3281 2906 2969 
z
M 947 1747 
Q 947 1113 1208 752 
Q 1469 391 1925 391 
Q 2381 391 2643 752 
Q 2906 1113 2906 1747 
Q 2906 2381 2643 2742 
Q 2381 3103 1925 3103 
Q 1469 3103 1208 2742 
Q 947 2381 947 1747 
z
" transform="scale(0.015625)"/>
       <path id="DejaVuSans-69" d="M 603 3500 
L 1178 3500 
L 1178 0 
L 603 0 
L 603 3500 
z
M 603 4863 
L 1178 4863 
L 1178 4134 
L 603 4134 
L 603 4863 
z
" transform="scale(0.015625)"/>
       <path id="DejaVuSans-63" d="M 3122 3366 
L 3122 2828 
Q 2878 2963 2633 3030 
Q 2388 3097 2138 3097 
Q 1578 3097 1268 2742 
Q 959 2388 959 1747 
Q 959 1106 1268 751 
Q 1578 397 2138 397 
Q 2388 397 2633 464 
Q 2878 531 3122 666 
L 3122 134 
Q 2881 22 2623 -34 
Q 2366 -91 2075 -91 
Q 1284 -91 818 406 
Q 353 903 353 1747 
Q 353 2603 823 3093 
Q 1294 3584 2113 3584 
Q 2378 3584 2631 3529 
Q 2884 3475 3122 3366 
z
" transform="scale(0.015625)"/>
       <path id="DejaVuSans-74" d="M 1172 4494 
L 1172 3500 
L 2356 3500 
L 2356 3053 
L 1172 3053 
L 1172 1153 
Q 1172 725 1289 603 
Q 1406 481 1766 481 
L 2356 481 
L 2356 0 
L 1766 0 
Q 1100 0 847 248 
Q 594 497 594 1153 
L 594 3053 
L 172 3053 
L 172 3500 
L 594 3500 
L 594 4494 
L 1172 4494 
z
" transform="scale(0.015625)"/>
       <path id="DejaVuSans-20" transform="scale(0.015625)"/>
       <path id="DejaVuSans-46" d="M 628 4666 
L 3309 4666 
L 3309 4134 
L 1259 4134 
L 1259 2759 
L 3109 2759 
L 3109 2228 
L 1259 2228 
L 1259 0 
L 628 0 
L 628 4666 
z
" transform="scale(0.015625)"/>
       <path id="DejaVuSans-6c" d="M 603 4863 
L 1178 4863 
L 1178 0 
L 603 0 
L 603 4863 
z
" transform="scale(0.015625)"/>
       <path id="DejaVuSans-75" d="M 544 1381 
L 544 3500 
L 1119 3500 
L 1119 1403 
Q 1119 906 1312 657 
Q 1506 409 1894 409 
Q 2359 409 2629 706 
Q 2900 1003 2900 1516 
L 2900 3500 
L 3475 3500 
L 3475 0 
L 2900 0 
L 2900 538 
Q 2691 219 2414 64 
Q 2138 -91 1772 -91 
Q 1169 -91 856 284 
Q 544 659 544 1381 
z
M 1991 3584 
L 1991 3584 
z
" transform="scale(0.015625)"/>
       <path id="DejaVuSans-6f" d="M 1959 3097 
Q 1497 3097 1228 2736 
Q 959 2375 959 1747 
Q 959 1119 1226 758 
Q 1494 397 1959 397 
Q 2419 397 2687 759 
Q 2956 1122 2956 1747 
Q 2956 2369 2687 2733 
Q 2419 3097 1959 3097 
z
M 1959 3584 
Q 2709 3584 3137 3096 
Q 3566 2609 3566 1747 
Q 3566 888 3137 398 
Q 2709 -91 1959 -91 
Q 1206 -91 779 398 
Q 353 888 353 1747 
Q 353 2609 779 3096 
Q 1206 3584 1959 3584 
z
" transform="scale(0.015625)"/>
       <path id="DejaVuSans-73" d="M 2834 3397 
L 2834 2853 
Q 2591 2978 2328 3040 
Q 2066 3103 1784 3103 
Q 1356 3103 1142 2972 
Q 928 2841 928 2578 
Q 928 2378 1081 2264 
Q 1234 2150 1697 2047 
L 1894 2003 
Q 2506 1872 2764 1633 
Q 3022 1394 3022 966 
Q 3022 478 2636 193 
Q 2250 -91 1575 -91 
Q 1294 -91 989 -36 
Q 684 19 347 128 
L 347 722 
Q 666 556 975 473 
Q 1284 391 1588 391 
Q 1994 391 2212 530 
Q 2431 669 2431 922 
Q 2431 1156 2273 1281 
Q 2116 1406 1581 1522 
L 1381 1569 
Q 847 1681 609 1914 
Q 372 2147 372 2553 
Q 372 3047 722 3315 
Q 1072 3584 1716 3584 
Q 2034 3584 2315 3537 
Q 2597 3491 2834 3397 
z
" transform="scale(0.015625)"/>
       <path id="DejaVuSans-6e" d="M 3513 2113 
L 3513 0 
L 2938 0 
L 2938 2094 
Q 2938 2591 2744 2837 
Q 2550 3084 2163 3084 
Q 1697 3084 1428 2787 
Q 1159 2491 1159 1978 
L 1159 0 
L 581 0 
L 581 3500 
L 1159 3500 
L 1159 2956 
Q 1366 3272 1645 3428 
Q 1925 3584 2291 3584 
Q 2894 3584 3203 3211 
Q 3513 2838 3513 2113 
z
" transform="scale(0.015625)"/>
      </defs>
      <use xlink:href="#DejaVuSans-50"/>
      <use xlink:href="#DejaVuSans-72" x="58.552734"/>
      <use xlink:href="#DejaVuSans-65" x="97.416016"/>
      <use xlink:href="#DejaVuSans-64" x="158.939453"/>
      <use xlink:href="#DejaVuSans-69" x="222.416016"/>
      <use xlink:href="#DejaVuSans-63" x="250.199219"/>
      <use xlink:href="#DejaVuSans-74" x="305.179688"/>
      <use xlink:href="#DejaVuSans-65" x="344.388672"/>
      <use xlink:href="#DejaVuSans-64" x="405.912109"/>
      <use xlink:href="#DejaVuSans-20" x="469.388672"/>
      <use xlink:href="#DejaVuSans-46" x="501.175781"/>
      <use xlink:href="#DejaVuSans-6c" x="558.695312"/>
      <use xlink:href="#DejaVuSans-75" x="586.478516"/>
      <use xlink:href="#DejaVuSans-6f" x="649.857422"/>
      <use xlink:href="#DejaVuSans-72" x="711.039062"/>
      <use xlink:href="#DejaVuSans-65" x="749.902344"/>
      <use xlink:href="#DejaVuSans-73" x="811.425781"/>
      <use xlink:href="#DejaVuSans-63" x="863.525391"/>
      <use xlink:href="#DejaVuSans-65" x="918.505859"/>
      <use xlink:href="#DejaVuSans-6e" x="980.029297"/>
      <use xlink:href="#DejaVuSans-63" x="1043.408203"/>
      <use xlink:href="#DejaVuSans-65" x="1098.388672"/>
     </g>
    </g>
   </g>
   <g id="matplotlib.axis_2">
    <g id="ytick_1">
     <g id="line2d_6">
      <defs>
       <path id="m97f806ca3d" d="M 0 0 
L -3.5 0 
" style="stroke: #000000; stroke-width: 0.8"/>
      </defs>
      <g>
       <use xlink:href="#m97f806ca3d" x="57.8" y="389.32" style="stroke: #000000; stroke-width: 0.8"/>
      </g>
     </g>
     <g id="text_7">
      <!-- 0.00 -->
      <g transform="translate(28.534375 393.119219) scale(0.1 -0.1)">
       <defs>
        <path id="DejaVuSans-2e" d="M 684 794 
L 1344 794 
L 1344 0 
L 684 0 
L 684 794 
z
" transform="scale(0.015625)"/>
       </defs>
       <use xlink:href="#DejaVuSans-30"/>
       <use xlink:href="#DejaVuSans-2e" x="63.623047"/>
       <use xlink:href="#DejaVuSans-30" x="95.410156"/>
       <use xlink:href="#DejaVuSans-30" x="159.033203"/>
      </g>
     </g>
    </g>
    <g id="ytick_2">
     <g id="line2d_7">
      <g>
       <use xlink:href="#m97f806ca3d" x="57.8" y="338.845378" style="stroke: #000000; stroke-width: 0.8"/>
      </g>
     </g>
     <g id="text_8">
      <!-- 0.02 -->
      <g transform="translate(28.534375 342.644597) scale(0.1 -0.1)">
       <defs>
        <path id="DejaVuSans-32" d="M 1228 531 
L 3431 531 
L 3431 0 
L 469 0 
L 469 531 
Q 828 903 1448 1529 
Q 2069 2156 2228 2338 
Q 2531 2678 2651 2914 
Q 2772 3150 2772 3378 
Q 2772 3750 2511 3984 
Q 2250 4219 1831 4219 
Q 1534 4219 1204 4116 
Q 875 4013 500 3803 
L 500 4441 
Q 881 4594 1212 4672 
Q 1544 4750 1819 4750 
Q 2544 4750 2975 4387 
Q 3406 4025 3406 3419 
Q 3406 3131 3298 2873 
Q 3191 2616 2906 2266 
Q 2828 2175 2409 1742 
Q 1991 1309 1228 531 
z
" transform="scale(0.015625)"/>
       </defs>
       <use xlink:href="#DejaVuSans-30"/>
       <use xlink:href="#DejaVuSans-2e" x="63.623047"/>
       <use xlink:href="#DejaVuSans-30" x="95.410156"/>
       <use xlink:href="#DejaVuSans-32" x="159.033203"/>
      </g>
     </g>
    </g>
    <g id="ytick_3">
     <g id="line2d_8">
      <g>
       <use xlink:href="#m97f806ca3d" x="57.8" y="288.370756" style="stroke: #000000; stroke-width: 0.8"/>
      </g>
     </g>
     <g id="text_9">
      <!-- 0.04 -->
      <g transform="translate(28.534375 292.169974) scale(0.1 -0.1)">
       <defs>
        <path id="DejaVuSans-34" d="M 2419 4116 
L 825 1625 
L 2419 1625 
L 2419 4116 
z
M 2253 4666 
L 3047 4666 
L 3047 1625 
L 3713 1625 
L 3713 1100 
L 3047 1100 
L 3047 0 
L 2419 0 
L 2419 1100 
L 313 1100 
L 313 1709 
L 2253 4666 
z
" transform="scale(0.015625)"/>
       </defs>
       <use xlink:href="#DejaVuSans-30"/>
       <use xlink:href="#DejaVuSans-2e" x="63.623047"/>
       <use xlink:href="#DejaVuSans-30" x="95.410156"/>
       <use xlink:href="#DejaVuSans-34" x="159.033203"/>
      </g>
     </g>
    </g>
    <g id="ytick_4">
     <g id="line2d_9">
      <g>
       <use xlink:href="#m97f806ca3d" x="57.8" y="237.896133" style="stroke: #000000; stroke-width: 0.8"/>
      </g>
     </g>
     <g id="text_10">
      <!-- 0.06 -->
      <g transform="translate(28.534375 241.695352) scale(0.1 -0.1)">
       <defs>
        <path id="DejaVuSans-36" d="M 2113 2584 
Q 1688 2584 1439 2293 
Q 1191 2003 1191 1497 
Q 1191 994 1439 701 
Q 1688 409 2113 409 
Q 2538 409 2786 701 
Q 3034 994 3034 1497 
Q 3034 2003 2786 2293 
Q 2538 2584 2113 2584 
z
M 3366 4563 
L 3366 3988 
Q 3128 4100 2886 4159 
Q 2644 4219 2406 4219 
Q 1781 4219 1451 3797 
Q 1122 3375 1075 2522 
Q 1259 2794 1537 2939 
Q 1816 3084 2150 3084 
Q 2853 3084 3261 2657 
Q 3669 2231 3669 1497 
Q 3669 778 3244 343 
Q 2819 -91 2113 -91 
Q 1303 -91 875 529 
Q 447 1150 447 2328 
Q 447 3434 972 4092 
Q 1497 4750 2381 4750 
Q 2619 4750 2861 4703 
Q 3103 4656 3366 4563 
z
" transform="scale(0.015625)"/>
       </defs>
       <use xlink:href="#DejaVuSans-30"/>
       <use xlink:href="#DejaVuSans-2e" x="63.623047"/>
       <use xlink:href="#DejaVuSans-30" x="95.410156"/>
       <use xlink:href="#DejaVuSans-36" x="159.033203"/>
      </g>
     </g>
    </g>
    <g id="ytick_5">
     <g id="line2d_10">
      <g>
       <use xlink:href="#m97f806ca3d" x="57.8" y="187.421511" style="stroke: #000000; stroke-width: 0.8"/>
      </g>
     </g>
     <g id="text_11">
      <!-- 0.08 -->
      <g transform="translate(28.534375 191.22073) scale(0.1 -0.1)">
       <defs>
        <path id="DejaVuSans-38" d="M 2034 2216 
Q 1584 2216 1326 1975 
Q 1069 1734 1069 1313 
Q 1069 891 1326 650 
Q 1584 409 2034 409 
Q 2484 409 2743 651 
Q 3003 894 3003 1313 
Q 3003 1734 2745 1975 
Q 2488 2216 2034 2216 
z
M 1403 2484 
Q 997 2584 770 2862 
Q 544 3141 544 3541 
Q 544 4100 942 4425 
Q 1341 4750 2034 4750 
Q 2731 4750 3128 4425 
Q 3525 4100 3525 3541 
Q 3525 3141 3298 2862 
Q 3072 2584 2669 2484 
Q 3125 2378 3379 2068 
Q 3634 1759 3634 1313 
Q 3634 634 3220 271 
Q 2806 -91 2034 -91 
Q 1263 -91 848 271 
Q 434 634 434 1313 
Q 434 1759 690 2068 
Q 947 2378 1403 2484 
z
M 1172 3481 
Q 1172 3119 1398 2916 
Q 1625 2713 2034 2713 
Q 2441 2713 2670 2916 
Q 2900 3119 2900 3481 
Q 2900 3844 2670 4047 
Q 2441 4250 2034 4250 
Q 1625 4250 1398 4047 
Q 1172 3844 1172 3481 
z
" transform="scale(0.015625)"/>
       </defs>
       <use xlink:href="#DejaVuSans-30"/>
       <use xlink:href="#DejaVuSans-2e" x="63.623047"/>
       <use xlink:href="#DejaVuSans-30" x="95.410156"/>
       <use xlink:href="#DejaVuSans-38" x="159.033203"/>
      </g>
     </g>
    </g>
    <g id="ytick_6">
     <g id="line2d_11">
      <g>
       <use xlink:href="#m97f806ca3d" x="57.8" y="136.946889" style="stroke: #000000; stroke-width: 0.8"/>
      </g>
     </g>
     <g id="text_12">
      <!-- 0.10 -->
      <g transform="translate(28.534375 140.746108) scale(0.1 -0.1)">
       <use xlink:href="#DejaVuSans-30"/>
       <use xlink:href="#DejaVuSans-2e" x="63.623047"/>
       <use xlink:href="#DejaVuSans-31" x="95.410156"/>
       <use xlink:href="#DejaVuSans-30" x="159.033203"/>
      </g>
     </g>
    </g>
    <g id="ytick_7">
     <g id="line2d_12">
      <g>
       <use xlink:href="#m97f806ca3d" x="57.8" y="86.472267" style="stroke: #000000; stroke-width: 0.8"/>
      </g>
     </g>
     <g id="text_13">
      <!-- 0.12 -->
      <g transform="translate(28.534375 90.271485) scale(0.1 -0.1)">
       <use xlink:href="#DejaVuSans-30"/>
       <use xlink:href="#DejaVuSans-2e" x="63.623047"/>
       <use xlink:href="#DejaVuSans-31" x="95.410156"/>
       <use xlink:href="#DejaVuSans-32" x="159.033203"/>
      </g>
     </g>
    </g>
    <g id="ytick_8">
     <g id="line2d_13">
      <g>
       <use xlink:href="#m97f806ca3d" x="57.8" y="35.997644" style="stroke: #000000; stroke-width: 0.8"/>
      </g>
     </g>
     <g id="text_14">
      <!-- 0.14 -->
      <g transform="translate(28.534375 39.796863) scale(0.1 -0.1)">
       <use xlink:href="#DejaVuSans-30"/>
       <use xlink:href="#DejaVuSans-2e" x="63.623047"/>
       <use xlink:href="#DejaVuSans-31" x="95.410156"/>
       <use xlink:href="#DejaVuSans-34" x="159.033203"/>
      </g>
     </g>
    </g>
    <g id="text_15">
     <!-- Density -->
     <g transform="translate(21.622813 226.672031) rotate(-90) scale(0.14 -0.14)">
      <defs>
       <path id="DejaVuSans-44" d="M 1259 4147 
L 1259 519 
L 2022 519 
Q 2988 519 3436 956 
Q 3884 1394 3884 2338 
Q 3884 3275 3436 3711 
Q 2988 4147 2022 4147 
L 1259 4147 
z
M 628 4666 
L 1925 4666 
Q 3281 4666 3915 4102 
Q 4550 3538 4550 2338 
Q 4550 1131 3912 565 
Q 3275 0 1925 0 
L 628 0 
L 628 4666 
z
" transform="scale(0.015625)"/>
       <path id="DejaVuSans-79" d="M 2059 -325 
Q 1816 -950 1584 -1140 
Q 1353 -1331 966 -1331 
L 506 -1331 
L 506 -850 
L 844 -850 
Q 1081 -850 1212 -737 
Q 1344 -625 1503 -206 
L 1606 56 
L 191 3500 
L 800 3500 
L 1894 763 
L 2988 3500 
L 3597 3500 
L 2059 -325 
z
" transform="scale(0.015625)"/>
      </defs>
      <use xlink:href="#DejaVuSans-44"/>
      <use xlink:href="#DejaVuSans-65" x="77.001953"/>
      <use xlink:href="#DejaVuSans-6e" x="138.525391"/>
      <use xlink:href="#DejaVuSans-73" x="201.904297"/>
      <use xlink:href="#DejaVuSans-69" x="254.003906"/>
      <use xlink:href="#DejaVuSans-74" x="281.787109"/>
      <use xlink:href="#DejaVuSans-79" x="320.996094"/>
     </g>
    </g>
   </g>
   <g id="line2d_14">
    <path d="M 180.618791 389.32 
L 180.618791 10.8 
" clip-path="url(#p02ad94725b)" style="fill: none; stroke-dasharray: 3.7,1.6; stroke-dashoffset: 0; stroke: #000000"/>
   </g>
   <g id="patch_3">
    <path d="M 57.8 389.32 
L 57.8 10.8 
" style="fill: none; stroke: #000000; stroke-width: 0.8; stroke-linejoin: miter; stroke-linecap: square"/>
   </g>
   <g id="patch_4">
    <path d="M 57.8 389.32 
L 421.2 389.32 
" style="fill: none; stroke: #000000; stroke-width: 0.8; stroke-linejoin: miter; stroke-linecap: square"/>
   </g>
   <g id="legend_1">
    <g id="patch_5">
     <path d="M 263.751562 77.5125 
L 414.2 77.5125 
Q 416.2 77.5125 416.2 75.5125 
L 416.2 17.8 
Q 416.2 15.8 414.2 15.8 
L 263.751562 15.8 
Q 261.751562 15.8 261.751562 17.8 
L 261.751562 75.5125 
Q 261.751562 77.5125 263.751562 77.5125 
z
" style="fill: #ffffff; opacity: 0.8; stroke: #cccccc; stroke-linejoin: miter"/>
    </g>
    <g id="patch_6">
     <path d="M 265.751562 27.398438 
L 285.751562 27.398438 
L 285.751562 20.398438 
L 265.751562 20.398438 
z
" style="fill: #bdbdbd; fill-opacity: 0.5; stroke: #bdbdbd; stroke-width: 2.5; stroke-linejoin: miter"/>
    </g>
    <g id="text_16">
     <!-- Pre-trained ESM2 (35M) -->
     <g transform="translate(293.751562 27.398438) scale(0.1 -0.1)">
      <defs>
       <path id="DejaVuSans-2d" d="M 313 2009 
L 1997 2009 
L 1997 1497 
L 313 1497 
L 313 2009 
z
" transform="scale(0.015625)"/>
       <path id="DejaVuSans-61" d="M 2194 1759 
Q 1497 1759 1228 1600 
Q 959 1441 959 1056 
Q 959 750 1161 570 
Q 1363 391 1709 391 
Q 2188 391 2477 730 
Q 2766 1069 2766 1631 
L 2766 1759 
L 2194 1759 
z
M 3341 1997 
L 3341 0 
L 2766 0 
L 2766 531 
Q 2569 213 2275 61 
Q 1981 -91 1556 -91 
Q 1019 -91 701 211 
Q 384 513 384 1019 
Q 384 1609 779 1909 
Q 1175 2209 1959 2209 
L 2766 2209 
L 2766 2266 
Q 2766 2663 2505 2880 
Q 2244 3097 1772 3097 
Q 1472 3097 1187 3025 
Q 903 2953 641 2809 
L 641 3341 
Q 956 3463 1253 3523 
Q 1550 3584 1831 3584 
Q 2591 3584 2966 3190 
Q 3341 2797 3341 1997 
z
" transform="scale(0.015625)"/>
       <path id="DejaVuSans-45" d="M 628 4666 
L 3578 4666 
L 3578 4134 
L 1259 4134 
L 1259 2753 
L 3481 2753 
L 3481 2222 
L 1259 2222 
L 1259 531 
L 3634 531 
L 3634 0 
L 628 0 
L 628 4666 
z
" transform="scale(0.015625)"/>
       <path id="DejaVuSans-53" d="M 3425 4513 
L 3425 3897 
Q 3066 4069 2747 4153 
Q 2428 4238 2131 4238 
Q 1616 4238 1336 4038 
Q 1056 3838 1056 3469 
Q 1056 3159 1242 3001 
Q 1428 2844 1947 2747 
L 2328 2669 
Q 3034 2534 3370 2195 
Q 3706 1856 3706 1288 
Q 3706 609 3251 259 
Q 2797 -91 1919 -91 
Q 1588 -91 1214 -16 
Q 841 59 441 206 
L 441 856 
Q 825 641 1194 531 
Q 1563 422 1919 422 
Q 2459 422 2753 634 
Q 3047 847 3047 1241 
Q 3047 1584 2836 1778 
Q 2625 1972 2144 2069 
L 1759 2144 
Q 1053 2284 737 2584 
Q 422 2884 422 3419 
Q 422 4038 858 4394 
Q 1294 4750 2059 4750 
Q 2388 4750 2728 4690 
Q 3069 4631 3425 4513 
z
" transform="scale(0.015625)"/>
       <path id="DejaVuSans-4d" d="M 628 4666 
L 1569 4666 
L 2759 1491 
L 3956 4666 
L 4897 4666 
L 4897 0 
L 4281 0 
L 4281 4097 
L 3078 897 
L 2444 897 
L 1241 4097 
L 1241 0 
L 628 0 
L 628 4666 
z
" transform="scale(0.015625)"/>
       <path id="DejaVuSans-28" d="M 1984 4856 
Q 1566 4138 1362 3434 
Q 1159 2731 1159 2009 
Q 1159 1288 1364 580 
Q 1569 -128 1984 -844 
L 1484 -844 
Q 1016 -109 783 600 
Q 550 1309 550 2009 
Q 550 2706 781 3412 
Q 1013 4119 1484 4856 
L 1984 4856 
z
" transform="scale(0.015625)"/>
       <path id="DejaVuSans-33" d="M 2597 2516 
Q 3050 2419 3304 2112 
Q 3559 1806 3559 1356 
Q 3559 666 3084 287 
Q 2609 -91 1734 -91 
Q 1441 -91 1130 -33 
Q 819 25 488 141 
L 488 750 
Q 750 597 1062 519 
Q 1375 441 1716 441 
Q 2309 441 2620 675 
Q 2931 909 2931 1356 
Q 2931 1769 2642 2001 
Q 2353 2234 1838 2234 
L 1294 2234 
L 1294 2753 
L 1863 2753 
Q 2328 2753 2575 2939 
Q 2822 3125 2822 3475 
Q 2822 3834 2567 4026 
Q 2313 4219 1838 4219 
Q 1578 4219 1281 4162 
Q 984 4106 628 3988 
L 628 4550 
Q 988 4650 1302 4700 
Q 1616 4750 1894 4750 
Q 2613 4750 3031 4423 
Q 3450 4097 3450 3541 
Q 3450 3153 3228 2886 
Q 3006 2619 2597 2516 
z
" transform="scale(0.015625)"/>
       <path id="DejaVuSans-29" d="M 513 4856 
L 1013 4856 
Q 1481 4119 1714 3412 
Q 1947 2706 1947 2009 
Q 1947 1309 1714 600 
Q 1481 -109 1013 -844 
L 513 -844 
Q 928 -128 1133 580 
Q 1338 1288 1338 2009 
Q 1338 2731 1133 3434 
Q 928 4138 513 4856 
z
" transform="scale(0.015625)"/>
      </defs>
      <use xlink:href="#DejaVuSans-50"/>
      <use xlink:href="#DejaVuSans-72" x="58.552734"/>
      <use xlink:href="#DejaVuSans-65" x="97.416016"/>
      <use xlink:href="#DejaVuSans-2d" x="158.939453"/>
      <use xlink:href="#DejaVuSans-74" x="195.023438"/>
      <use xlink:href="#DejaVuSans-72" x="234.232422"/>
      <use xlink:href="#DejaVuSans-61" x="275.345703"/>
      <use xlink:href="#DejaVuSans-69" x="336.625"/>
      <use xlink:href="#DejaVuSans-6e" x="364.408203"/>
      <use xlink:href="#DejaVuSans-65" x="427.787109"/>
      <use xlink:href="#DejaVuSans-64" x="489.310547"/>
      <use xlink:href="#DejaVuSans-20" x="552.787109"/>
      <use xlink:href="#DejaVuSans-45" x="584.574219"/>
      <use xlink:href="#DejaVuSans-53" x="647.757812"/>
      <use xlink:href="#DejaVuSans-4d" x="711.234375"/>
      <use xlink:href="#DejaVuSans-32" x="797.513672"/>
      <use xlink:href="#DejaVuSans-20" x="861.136719"/>
      <use xlink:href="#DejaVuSans-28" x="892.923828"/>
      <use xlink:href="#DejaVuSans-33" x="931.9375"/>
      <use xlink:href="#DejaVuSans-35" x="995.560547"/>
      <use xlink:href="#DejaVuSans-4d" x="1059.183594"/>
      <use xlink:href="#DejaVuSans-29" x="1145.462891"/>
     </g>
    </g>
    <g id="patch_7">
     <path d="M 265.751562 42.076563 
L 285.751562 42.076563 
L 285.751562 35.076563 
L 265.751562 35.076563 
z
" style="fill: #92c5de; fill-opacity: 0.5; stroke: #92c5de; stroke-width: 2.5; stroke-linejoin: miter"/>
    </g>
    <g id="text_17">
     <!-- SFT ESM2 (35M) -->
     <g transform="translate(293.751562 42.076563) scale(0.1 -0.1)">
      <defs>
       <path id="DejaVuSans-54" d="M -19 4666 
L 3928 4666 
L 3928 4134 
L 2272 4134 
L 2272 0 
L 1638 0 
L 1638 4134 
L -19 4134 
L -19 4666 
z
" transform="scale(0.015625)"/>
      </defs>
      <use xlink:href="#DejaVuSans-53"/>
      <use xlink:href="#DejaVuSans-46" x="63.476562"/>
      <use xlink:href="#DejaVuSans-54" x="119.246094"/>
      <use xlink:href="#DejaVuSans-20" x="180.330078"/>
      <use xlink:href="#DejaVuSans-45" x="212.117188"/>
      <use xlink:href="#DejaVuSans-53" x="275.300781"/>
      <use xlink:href="#DejaVuSans-4d" x="338.777344"/>
      <use xlink:href="#DejaVuSans-32" x="425.056641"/>
      <use xlink:href="#DejaVuSans-20" x="488.679688"/>
      <use xlink:href="#DejaVuSans-28" x="520.466797"/>
      <use xlink:href="#DejaVuSans-33" x="559.480469"/>
      <use xlink:href="#DejaVuSans-35" x="623.103516"/>
      <use xlink:href="#DejaVuSans-4d" x="686.726562"/>
      <use xlink:href="#DejaVuSans-29" x="773.005859"/>
     </g>
    </g>
    <g id="patch_8">
     <path d="M 265.751562 56.754687 
L 285.751562 56.754687 
L 285.751562 49.754687 
L 265.751562 49.754687 
z
" style="fill: #2166ac; fill-opacity: 0.5; stroke: #2166ac; stroke-width: 2.5; stroke-linejoin: miter"/>
    </g>
    <g id="text_18">
     <!-- Aligned ESM2 (35M) -->
     <g transform="translate(293.751562 56.754687) scale(0.1 -0.1)">
      <defs>
       <path id="DejaVuSans-41" d="M 2188 4044 
L 1331 1722 
L 3047 1722 
L 2188 4044 
z
M 1831 4666 
L 2547 4666 
L 4325 0 
L 3669 0 
L 3244 1197 
L 1141 1197 
L 716 0 
L 50 0 
L 1831 4666 
z
" transform="scale(0.015625)"/>
       <path id="DejaVuSans-67" d="M 2906 1791 
Q 2906 2416 2648 2759 
Q 2391 3103 1925 3103 
Q 1463 3103 1205 2759 
Q 947 2416 947 1791 
Q 947 1169 1205 825 
Q 1463 481 1925 481 
Q 2391 481 2648 825 
Q 2906 1169 2906 1791 
z
M 3481 434 
Q 3481 -459 3084 -895 
Q 2688 -1331 1869 -1331 
Q 1566 -1331 1297 -1286 
Q 1028 -1241 775 -1147 
L 775 -588 
Q 1028 -725 1275 -790 
Q 1522 -856 1778 -856 
Q 2344 -856 2625 -561 
Q 2906 -266 2906 331 
L 2906 616 
Q 2728 306 2450 153 
Q 2172 0 1784 0 
Q 1141 0 747 490 
Q 353 981 353 1791 
Q 353 2603 747 3093 
Q 1141 3584 1784 3584 
Q 2172 3584 2450 3431 
Q 2728 3278 2906 2969 
L 2906 3500 
L 3481 3500 
L 3481 434 
z
" transform="scale(0.015625)"/>
      </defs>
      <use xlink:href="#DejaVuSans-41"/>
      <use xlink:href="#DejaVuSans-6c" x="68.408203"/>
      <use xlink:href="#DejaVuSans-69" x="96.191406"/>
      <use xlink:href="#DejaVuSans-67" x="123.974609"/>
      <use xlink:href="#DejaVuSans-6e" x="187.451172"/>
      <use xlink:href="#DejaVuSans-65" x="250.830078"/>
      <use xlink:href="#DejaVuSans-64" x="312.353516"/>
      <use xlink:href="#DejaVuSans-20" x="375.830078"/>
      <use xlink:href="#DejaVuSans-45" x="407.617188"/>
      <use xlink:href="#DejaVuSans-53" x="470.800781"/>
      <use xlink:href="#DejaVuSans-4d" x="534.277344"/>
      <use xlink:href="#DejaVuSans-32" x="620.556641"/>
      <use xlink:href="#DejaVuSans-20" x="684.179688"/>
      <use xlink:href="#DejaVuSans-28" x="715.966797"/>
      <use xlink:href="#DejaVuSans-33" x="754.980469"/>
      <use xlink:href="#DejaVuSans-35" x="818.603516"/>
      <use xlink:href="#DejaVuSans-4d" x="882.226562"/>
      <use xlink:href="#DejaVuSans-29" x="968.505859"/>
     </g>
    </g>
    <g id="line2d_15">
     <path d="M 265.751562 67.932813 
L 275.751562 67.932813 
L 285.751562 67.932813 
" style="fill: none; stroke-dasharray: 3.7,1.6; stroke-dashoffset: 0; stroke: #000000"/>
    </g>
    <g id="text_19">
     <!-- Predicted gb1 score -->
     <g transform="translate(293.751562 71.432813) scale(0.1 -0.1)">
      <defs>
       <path id="DejaVuSans-62" d="M 3116 1747 
Q 3116 2381 2855 2742 
Q 2594 3103 2138 3103 
Q 1681 3103 1420 2742 
Q 1159 2381 1159 1747 
Q 1159 1113 1420 752 
Q 1681 391 2138 391 
Q 2594 391 2855 752 
Q 3116 1113 3116 1747 
z
M 1159 2969 
Q 1341 3281 1617 3432 
Q 1894 3584 2278 3584 
Q 2916 3584 3314 3078 
Q 3713 2572 3713 1747 
Q 3713 922 3314 415 
Q 2916 -91 2278 -91 
Q 1894 -91 1617 61 
Q 1341 213 1159 525 
L 1159 0 
L 581 0 
L 581 4863 
L 1159 4863 
L 1159 2969 
z
" transform="scale(0.015625)"/>
      </defs>
      <use xlink:href="#DejaVuSans-50"/>
      <use xlink:href="#DejaVuSans-72" x="58.552734"/>
      <use xlink:href="#DejaVuSans-65" x="97.416016"/>
      <use xlink:href="#DejaVuSans-64" x="158.939453"/>
      <use xlink:href="#DejaVuSans-69" x="222.416016"/>
      <use xlink:href="#DejaVuSans-63" x="250.199219"/>
      <use xlink:href="#DejaVuSans-74" x="305.179688"/>
      <use xlink:href="#DejaVuSans-65" x="344.388672"/>
      <use xlink:href="#DejaVuSans-64" x="405.912109"/>
      <use xlink:href="#DejaVuSans-20" x="469.388672"/>
      <use xlink:href="#DejaVuSans-67" x="501.175781"/>
      <use xlink:href="#DejaVuSans-62" x="564.652344"/>
      <use xlink:href="#DejaVuSans-31" x="628.128906"/>
      <use xlink:href="#DejaVuSans-20" x="691.751953"/>
      <use xlink:href="#DejaVuSans-73" x="723.539062"/>
      <use xlink:href="#DejaVuSans-63" x="775.638672"/>
      <use xlink:href="#DejaVuSans-6f" x="830.619141"/>
      <use xlink:href="#DejaVuSans-72" x="891.800781"/>
      <use xlink:href="#DejaVuSans-65" x="930.664062"/>
     </g>
    </g>
   </g>
  </g>
 </g>
 <defs>
  <clipPath id="p02ad94725b">
   <rect x="57.8" y="10.8" width="363.4" height="378.52"/>
  </clipPath>
 </defs>
</svg>
