<?xml version="1.0" encoding="utf-8" standalone="no"?>
<!DOCTYPE svg PUBLIC "-//W3C//DTD SVG 1.1//EN"
  "http://www.w3.org/Graphics/SVG/1.1/DTD/svg11.dtd">
<svg xmlns:xlink="http://www.w3.org/1999/xlink" width="432pt" height="432pt" viewBox="0 0 432 432" xmlns="http://www.w3.org/2000/svg" version="1.1">
 <metadata>
  <rdf:RDF xmlns:dc="http://purl.org/dc/elements/1.1/" xmlns:cc="http://creativecommons.org/ns#" xmlns:rdf="http://www.w3.org/1999/02/22-rdf-syntax-ns#">
   <cc:Work>
    <dc:type rdf:resource="http://purl.org/dc/dcmitype/StillImage"/>
    <dc:date>2025-04-02T23:04:30.434100</dc:date>
    <dc:format>image/svg+xml</dc:format>
    <dc:creator>
     <cc:Agent>
      <dc:title>Matplotlib v3.8.0, https://matplotlib.org/</dc:title>
     </cc:Agent>
    </dc:creator>
   </cc:Work>
  </rdf:RDF>
 </metadata>
 <defs>
  <style type="text/css">*{stroke-linejoin: round; stroke-linecap: butt}</style>
 </defs>
 <g id="figure_1">
  <g id="patch_1">
   <path d="M 0 432 
L 432 432 
L 432 0 
L 0 0 
z
" style="fill: #ffffff"/>
  </g>
  <g id="axes_1">
   <g id="patch_2">
    <path d="M 57.8 389.32 
L 421.2 389.32 
L 421.2 14.015136 
L 57.8 14.015136 
z
" style="fill: #ffffff"/>
   </g>
   <g id="PolyCollection_1">
    <defs>
     <path id="mbca16fd01b" d="M 74.318182 -42.699583 
L 74.318182 -42.68 
L 75.47406 -42.68 
L 76.629938 -42.68 
L 77.785816 -42.68 
L 78.941694 -42.68 
L 80.097572 -42.68 
L 81.25345 -42.68 
L 82.409328 -42.68 
L 83.565205 -42.68 
L 84.721083 -42.68 
L 85.876961 -42.68 
L 87.032839 -42.68 
L 88.188717 -42.68 
L 89.344595 -42.68 
L 90.500473 -42.68 
L 91.656351 -42.68 
L 92.812229 -42.68 
L 93.968107 -42.68 
L 95.123985 -42.68 
L 96.279863 -42.68 
L 97.435741 -42.68 
L 98.591619 -42.68 
L 99.747497 -42.68 
L 100.903375 -42.68 
L 102.059253 -42.68 
L 103.215131 -42.68 
L 104.371009 -42.68 
L 105.526887 -42.68 
L 106.682765 -42.68 
L 107.838643 -42.68 
L 108.994521 -42.68 
L 110.150398 -42.68 
L 111.306276 -42.68 
L 112.462154 -42.68 
L 113.618032 -42.68 
L 114.77391 -42.68 
L 115.929788 -42.68 
L 117.085666 -42.68 
L 118.241544 -42.68 
L 119.397422 -42.68 
L 120.5533 -42.68 
L 121.709178 -42.68 
L 122.865056 -42.68 
L 124.020934 -42.68 
L 125.176812 -42.68 
L 126.33269 -42.68 
L 127.488568 -42.68 
L 128.644446 -42.68 
L 129.800324 -42.68 
L 130.956202 -42.68 
L 132.11208 -42.68 
L 133.267958 -42.68 
L 134.423836 -42.68 
L 135.579714 -42.68 
L 136.735592 -42.68 
L 137.891469 -42.68 
L 139.047347 -42.68 
L 140.203225 -42.68 
L 141.359103 -42.68 
L 142.514981 -42.68 
L 143.670859 -42.68 
L 144.826737 -42.68 
L 145.982615 -42.68 
L 147.138493 -42.68 
L 148.294371 -42.68 
L 149.450249 -42.68 
L 150.606127 -42.68 
L 151.762005 -42.68 
L 152.917883 -42.68 
L 154.073761 -42.68 
L 155.229639 -42.68 
L 156.385517 -42.68 
L 157.541395 -42.68 
L 158.697273 -42.68 
L 159.853151 -42.68 
L 161.009029 -42.68 
L 162.164907 -42.68 
L 163.320785 -42.68 
L 164.476662 -42.68 
L 165.63254 -42.68 
L 166.788418 -42.68 
L 167.944296 -42.68 
L 169.100174 -42.68 
L 170.256052 -42.68 
L 171.41193 -42.68 
L 172.567808 -42.68 
L 173.723686 -42.68 
L 174.879564 -42.68 
L 176.035442 -42.68 
L 177.19132 -42.68 
L 178.347198 -42.68 
L 179.503076 -42.68 
L 180.658954 -42.68 
L 181.814832 -42.68 
L 182.97071 -42.68 
L 184.126588 -42.68 
L 185.282466 -42.68 
L 186.438344 -42.68 
L 187.594222 -42.68 
L 188.7501 -42.68 
L 189.905978 -42.68 
L 191.061856 -42.68 
L 192.217733 -42.68 
L 193.373611 -42.68 
L 194.529489 -42.68 
L 195.685367 -42.68 
L 196.841245 -42.68 
L 197.997123 -42.68 
L 199.153001 -42.68 
L 200.308879 -42.68 
L 201.464757 -42.68 
L 202.620635 -42.68 
L 203.776513 -42.68 
L 204.932391 -42.68 
L 206.088269 -42.68 
L 207.244147 -42.68 
L 208.400025 -42.68 
L 209.555903 -42.68 
L 210.711781 -42.68 
L 211.867659 -42.68 
L 213.023537 -42.68 
L 214.179415 -42.68 
L 215.335293 -42.68 
L 216.491171 -42.68 
L 217.647049 -42.68 
L 218.802926 -42.68 
L 219.958804 -42.68 
L 221.114682 -42.68 
L 222.27056 -42.68 
L 223.426438 -42.68 
L 224.582316 -42.68 
L 225.738194 -42.68 
L 226.894072 -42.68 
L 228.04995 -42.68 
L 229.205828 -42.68 
L 230.361706 -42.68 
L 231.517584 -42.68 
L 232.673462 -42.68 
L 233.82934 -42.68 
L 234.985218 -42.68 
L 236.141096 -42.68 
L 237.296974 -42.68 
L 238.452852 -42.68 
L 239.60873 -42.68 
L 240.764608 -42.68 
L 241.920486 -42.68 
L 243.076364 -42.68 
L 244.232242 -42.68 
L 245.38812 -42.68 
L 246.543997 -42.68 
L 247.699875 -42.68 
L 248.855753 -42.68 
L 250.011631 -42.68 
L 251.167509 -42.68 
L 252.323387 -42.68 
L 253.479265 -42.68 
L 254.635143 -42.68 
L 255.791021 -42.68 
L 256.946899 -42.68 
L 258.102777 -42.68 
L 259.258655 -42.68 
L 260.414533 -42.68 
L 261.570411 -42.68 
L 262.726289 -42.68 
L 263.882167 -42.68 
L 265.038045 -42.68 
L 266.193923 -42.68 
L 267.349801 -42.68 
L 268.505679 -42.68 
L 269.661557 -42.68 
L 270.817435 -42.68 
L 271.973313 -42.68 
L 273.12919 -42.68 
L 274.285068 -42.68 
L 275.440946 -42.68 
L 276.596824 -42.68 
L 277.752702 -42.68 
L 278.90858 -42.68 
L 280.064458 -42.68 
L 281.220336 -42.68 
L 282.376214 -42.68 
L 283.532092 -42.68 
L 284.68797 -42.68 
L 285.843848 -42.68 
L 286.999726 -42.68 
L 288.155604 -42.68 
L 289.311482 -42.68 
L 290.46736 -42.68 
L 291.623238 -42.68 
L 292.779116 -42.68 
L 293.934994 -42.68 
L 295.090872 -42.68 
L 296.24675 -42.68 
L 297.402628 -42.68 
L 298.558506 -42.68 
L 299.714384 -42.68 
L 300.870261 -42.68 
L 302.026139 -42.68 
L 303.182017 -42.68 
L 304.337895 -42.68 
L 304.337895 -42.694945 
L 304.337895 -42.694945 
L 303.182017 -42.703418 
L 302.026139 -42.715876 
L 300.870261 -42.733744 
L 299.714384 -42.758739 
L 298.558506 -42.792844 
L 297.402628 -42.838233 
L 296.24675 -42.897157 
L 295.090872 -42.971782 
L 293.934994 -43.064005 
L 292.779116 -43.175251 
L 291.623238 -43.306303 
L 290.46736 -43.457174 
L 289.311482 -43.627076 
L 288.155604 -43.814482 
L 286.999726 -44.017293 
L 285.843848 -44.233099 
L 284.68797 -44.45947 
L 283.532092 -44.69426 
L 282.376214 -44.935826 
L 281.220336 -45.183157 
L 280.064458 -45.435848 
L 278.90858 -45.693957 
L 277.752702 -45.957754 
L 276.596824 -46.22743 
L 275.440946 -46.502836 
L 274.285068 -46.78331 
L 273.12919 -47.067636 
L 271.973313 -47.354148 
L 270.817435 -47.640958 
L 269.661557 -47.926267 
L 268.505679 -48.208687 
L 267.349801 -48.487546 
L 266.193923 -48.763111 
L 265.038045 -49.036725 
L 263.882167 -49.310872 
L 262.726289 -49.589164 
L 261.570411 -49.876297 
L 260.414533 -50.17796 
L 259.258655 -50.500701 
L 258.102777 -50.851734 
L 256.946899 -51.238649 
L 255.791021 -51.669038 
L 254.635143 -52.150027 
L 253.479265 -52.687775 
L 252.323387 -53.286992 
L 251.167509 -53.950558 
L 250.011631 -54.679322 
L 248.855753 -55.472125 
L 247.699875 -56.326091 
L 246.543997 -57.237164 
L 245.38812 -58.200851 
L 244.232242 -59.213112 
L 243.076364 -60.271289 
L 241.920486 -61.37496 
L 240.764608 -62.526591 
L 239.60873 -63.731851 
L 238.452852 -64.999454 
L 237.296974 -66.340449 
L 236.141096 -67.76692 
L 234.985218 -69.290167 
L 233.82934 -70.918511 
L 232.673462 -72.655002 
L 231.517584 -74.495347 
L 230.361706 -76.426438 
L 229.205828 -78.425783 
L 228.04995 -80.462114 
L 226.894072 -82.497242 
L 225.738194 -84.489102 
L 224.582316 -86.395723 
L 223.426438 -88.179728 
L 222.27056 -89.812832 
L 221.114682 -91.279777 
L 219.958804 -92.581175 
L 218.802926 -93.734821 
L 217.647049 -94.775241 
L 216.491171 -95.751421 
L 215.335293 -96.722957 
L 214.179415 -97.755037 
L 213.023537 -98.912872 
L 211.867659 -100.256256 
L 210.711781 -101.834906 
L 209.555903 -103.685102 
L 208.400025 -105.827929 
L 207.244147 -108.269162 
L 206.088269 -111.000592 
L 204.932391 -114.002391 
L 203.776513 -117.246049 
L 202.620635 -120.697436 
L 201.464757 -124.319676 
L 200.308879 -128.075691 
L 199.153001 -131.930471 
L 197.997123 -135.853227 
L 196.841245 -139.819622 
L 195.685367 -143.814143 
L 194.529489 -147.832527 
L 193.373611 -151.883913 
L 192.217733 -155.992202 
L 191.061856 -160.196051 
L 189.905978 -164.54701 
L 188.7501 -169.105574 
L 187.594222 -173.935267 
L 186.438344 -179.09538 
L 185.282466 -184.633304 
L 184.126588 -190.577693 
L 182.97071 -196.933686 
L 181.814832 -203.681216 
L 180.658954 -210.77696 
L 179.503076 -218.159897 
L 178.347198 -225.759781 
L 177.19132 -233.507268 
L 176.035442 -241.344071 
L 174.879564 -249.23137 
L 173.723686 -257.154959 
L 172.567808 -265.12603 
L 171.41193 -273.177229 
L 170.256052 -281.354352 
L 169.100174 -289.704823 
L 167.944296 -298.264635 
L 166.788418 -307.045752 
L 165.63254 -316.02597 
L 164.476662 -325.142909 
L 163.320785 -334.293229 
L 162.164907 -343.337458 
L 161.009029 -352.110013 
L 159.853151 -360.433298 
L 158.697273 -368.134193 
L 157.541395 -375.060935 
L 156.385517 -381.098289 
L 155.229639 -386.179113 
L 154.073761 -390.290811 
L 152.917883 -393.47577 
L 151.762005 -395.825558 
L 150.606127 -397.469401 
L 149.450249 -398.558132 
L 148.294371 -399.245337 
L 147.138493 -399.667823 
L 145.982615 -399.927633 
L 144.826737 -400.077738 
L 143.670859 -400.113204 
L 142.514981 -399.969053 
L 141.359103 -399.525359 
L 140.203225 -398.619313 
L 139.047347 -397.063156 
L 137.891469 -394.666132 
L 136.735592 -391.257999 
L 135.579714 -386.711219 
L 134.423836 -380.958959 
L 133.267958 -374.006292 
L 132.11208 -365.93278 
L 130.956202 -356.885656 
L 129.800324 -347.064152 
L 128.644446 -336.696852 
L 127.488568 -326.015104 
L 126.33269 -315.22624 
L 125.176812 -304.490529 
L 124.020934 -293.905237 
L 122.865056 -283.498131 
L 121.709178 -273.231197 
L 120.5533 -263.013775 
L 119.397422 -252.722789 
L 118.241544 -242.226774 
L 117.085666 -231.409936 
L 115.929788 -220.192754 
L 114.77391 -208.546411 
L 113.618032 -196.499524 
L 112.462154 -184.136953 
L 111.306276 -171.591652 
L 110.150398 -159.03141 
L 108.994521 -146.6428 
L 107.838643 -134.61467 
L 106.682765 -123.12322 
L 105.526887 -112.320104 
L 104.371009 -102.324358 
L 103.215131 -93.218318 
L 102.059253 -85.047157 
L 100.903375 -77.821371 
L 99.747497 -71.521333 
L 98.591619 -66.103073 
L 97.435741 -61.504493 
L 96.279863 -57.651437 
L 95.123985 -54.463169 
L 93.968107 -51.857015 
L 92.812229 -49.752049 
L 91.656351 -48.071828 
L 90.500473 -46.746228 
L 89.344595 -45.712523 
L 88.188717 -44.915818 
L 87.032839 -44.30901 
L 85.876961 -43.852393 
L 84.721083 -43.513042 
L 83.565205 -43.264068 
L 82.409328 -43.083835 
L 81.25345 -42.955182 
L 80.097572 -42.864685 
L 78.941694 -42.802 
L 77.785816 -42.759274 
L 76.629938 -42.730638 
L 75.47406 -42.711779 
L 74.318182 -42.699583 
z
" style="stroke: #bdbdbd; stroke-width: 2.5"/>
    </defs>
    <g clip-path="url(#pb295c71564)">
     <use xlink:href="#mbca16fd01b" x="0" y="432" style="fill: #bdbdbd; fill-opacity: 0.5; stroke: #bdbdbd; stroke-width: 2.5"/>
    </g>
   </g>
   <g id="PolyCollection_2">
    <defs>
     <path id="maa7f708fff" d="M 98.803877 -42.696407 
L 98.803877 -42.68 
L 100.280525 -42.68 
L 101.757174 -42.68 
L 103.233822 -42.68 
L 104.71047 -42.68 
L 106.187119 -42.68 
L 107.663767 -42.68 
L 109.140416 -42.68 
L 110.617064 -42.68 
L 112.093712 -42.68 
L 113.570361 -42.68 
L 115.047009 -42.68 
L 116.523657 -42.68 
L 118.000306 -42.68 
L 119.476954 -42.68 
L 120.953602 -42.68 
L 122.430251 -42.68 
L 123.906899 -42.68 
L 125.383548 -42.68 
L 126.860196 -42.68 
L 128.336844 -42.68 
L 129.813493 -42.68 
L 131.290141 -42.68 
L 132.766789 -42.68 
L 134.243438 -42.68 
L 135.720086 -42.68 
L 137.196734 -42.68 
L 138.673383 -42.68 
L 140.150031 -42.68 
L 141.62668 -42.68 
L 143.103328 -42.68 
L 144.579976 -42.68 
L 146.056625 -42.68 
L 147.533273 -42.68 
L 149.009921 -42.68 
L 150.48657 -42.68 
L 151.963218 -42.68 
L 153.439866 -42.68 
L 154.916515 -42.68 
L 156.393163 -42.68 
L 157.869812 -42.68 
L 159.34646 -42.68 
L 160.823108 -42.68 
L 162.299757 -42.68 
L 163.776405 -42.68 
L 165.253053 -42.68 
L 166.729702 -42.68 
L 168.20635 -42.68 
L 169.682999 -42.68 
L 171.159647 -42.68 
L 172.636295 -42.68 
L 174.112944 -42.68 
L 175.589592 -42.68 
L 177.06624 -42.68 
L 178.542889 -42.68 
L 180.019537 -42.68 
L 181.496185 -42.68 
L 182.972834 -42.68 
L 184.449482 -42.68 
L 185.926131 -42.68 
L 187.402779 -42.68 
L 188.879427 -42.68 
L 190.356076 -42.68 
L 191.832724 -42.68 
L 193.309372 -42.68 
L 194.786021 -42.68 
L 196.262669 -42.68 
L 197.739317 -42.68 
L 199.215966 -42.68 
L 200.692614 -42.68 
L 202.169263 -42.68 
L 203.645911 -42.68 
L 205.122559 -42.68 
L 206.599208 -42.68 
L 208.075856 -42.68 
L 209.552504 -42.68 
L 211.029153 -42.68 
L 212.505801 -42.68 
L 213.982449 -42.68 
L 215.459098 -42.68 
L 216.935746 -42.68 
L 218.412395 -42.68 
L 219.889043 -42.68 
L 221.365691 -42.68 
L 222.84234 -42.68 
L 224.318988 -42.68 
L 225.795636 -42.68 
L 227.272285 -42.68 
L 228.748933 -42.68 
L 230.225581 -42.68 
L 231.70223 -42.68 
L 233.178878 -42.68 
L 234.655527 -42.68 
L 236.132175 -42.68 
L 237.608823 -42.68 
L 239.085472 -42.68 
L 240.56212 -42.68 
L 242.038768 -42.68 
L 243.515417 -42.68 
L 244.992065 -42.68 
L 246.468713 -42.68 
L 247.945362 -42.68 
L 249.42201 -42.68 
L 250.898659 -42.68 
L 252.375307 -42.68 
L 253.851955 -42.68 
L 255.328604 -42.68 
L 256.805252 -42.68 
L 258.2819 -42.68 
L 259.758549 -42.68 
L 261.235197 -42.68 
L 262.711846 -42.68 
L 264.188494 -42.68 
L 265.665142 -42.68 
L 267.141791 -42.68 
L 268.618439 -42.68 
L 270.095087 -42.68 
L 271.571736 -42.68 
L 273.048384 -42.68 
L 274.525032 -42.68 
L 276.001681 -42.68 
L 277.478329 -42.68 
L 278.954978 -42.68 
L 280.431626 -42.68 
L 281.908274 -42.68 
L 283.384923 -42.68 
L 284.861571 -42.68 
L 286.338219 -42.68 
L 287.814868 -42.68 
L 289.291516 -42.68 
L 290.768164 -42.68 
L 292.244813 -42.68 
L 293.721461 -42.68 
L 295.19811 -42.68 
L 296.674758 -42.68 
L 298.151406 -42.68 
L 299.628055 -42.68 
L 301.104703 -42.68 
L 302.581351 -42.68 
L 304.058 -42.68 
L 305.534648 -42.68 
L 307.011296 -42.68 
L 308.487945 -42.68 
L 309.964593 -42.68 
L 311.441242 -42.68 
L 312.91789 -42.68 
L 314.394538 -42.68 
L 315.871187 -42.68 
L 317.347835 -42.68 
L 318.824483 -42.68 
L 320.301132 -42.68 
L 321.77778 -42.68 
L 323.254428 -42.68 
L 324.731077 -42.68 
L 326.207725 -42.68 
L 327.684374 -42.68 
L 329.161022 -42.68 
L 330.63767 -42.68 
L 332.114319 -42.68 
L 333.590967 -42.68 
L 335.067615 -42.68 
L 336.544264 -42.68 
L 338.020912 -42.68 
L 339.497561 -42.68 
L 340.974209 -42.68 
L 342.450857 -42.68 
L 343.927506 -42.68 
L 345.404154 -42.68 
L 346.880802 -42.68 
L 348.357451 -42.68 
L 349.834099 -42.68 
L 351.310747 -42.68 
L 352.787396 -42.68 
L 354.264044 -42.68 
L 355.740693 -42.68 
L 357.217341 -42.68 
L 358.693989 -42.68 
L 360.170638 -42.68 
L 361.647286 -42.68 
L 363.123934 -42.68 
L 364.600583 -42.68 
L 366.077231 -42.68 
L 367.553879 -42.68 
L 369.030528 -42.68 
L 370.507176 -42.68 
L 371.983825 -42.68 
L 373.460473 -42.68 
L 374.937121 -42.68 
L 376.41377 -42.68 
L 377.890418 -42.68 
L 379.367066 -42.68 
L 380.843715 -42.68 
L 382.320363 -42.68 
L 383.797011 -42.68 
L 385.27366 -42.68 
L 386.750308 -42.68 
L 388.226957 -42.68 
L 389.703605 -42.68 
L 391.180253 -42.68 
L 392.656902 -42.68 
L 392.656902 -42.697777 
L 392.656902 -42.697777 
L 391.180253 -42.709242 
L 389.703605 -42.726896 
L 388.226957 -42.75334 
L 386.750308 -42.791872 
L 385.27366 -42.846492 
L 383.797011 -42.921822 
L 382.320363 -43.022913 
L 380.843715 -43.154941 
L 379.367066 -43.322792 
L 377.890418 -43.530576 
L 376.41377 -43.781117 
L 374.937121 -44.075509 
L 373.460473 -44.41278 
L 371.983825 -44.789768 
L 370.507176 -45.201216 
L 369.030528 -45.640118 
L 367.553879 -46.098276 
L 366.077231 -46.567027 
L 364.600583 -47.038067 
L 363.123934 -47.504295 
L 361.647286 -47.960609 
L 360.170638 -48.404572 
L 358.693989 -48.836876 
L 357.217341 -49.261523 
L 355.740693 -49.685651 
L 354.264044 -50.118954 
L 352.787396 -50.572703 
L 351.310747 -51.058451 
L 349.834099 -51.586596 
L 348.357451 -52.165045 
L 346.880802 -52.798265 
L 345.404154 -53.486944 
L 343.927506 -54.228401 
L 342.450857 -55.017681 
L 340.974209 -55.849138 
L 339.497561 -56.71814 
L 338.020912 -57.622521 
L 336.544264 -58.563452 
L 335.067615 -59.545583 
L 333.590967 -60.576506 
L 332.114319 -61.665793 
L 330.63767 -62.823956 
L 329.161022 -64.061698 
L 327.684374 -65.389682 
L 326.207725 -66.81888 
L 324.731077 -68.36137 
L 323.254428 -70.031304 
L 321.77778 -71.845733 
L 320.301132 -73.825025 
L 318.824483 -75.992711 
L 317.347835 -78.374714 
L 315.871187 -80.998008 
L 314.394538 -83.888766 
L 312.91789 -87.070048 
L 311.441242 -90.559068 
L 309.964593 -94.364103 
L 308.487945 -98.481236 
L 307.011296 -102.891311 
L 305.534648 -107.557718 
L 304.058 -112.425781 
L 302.581351 -117.424563 
L 301.104703 -122.471657 
L 299.628055 -127.48107 
L 298.151406 -132.373666 
L 296.674758 -137.0889 
L 295.19811 -141.596001 
L 293.721461 -145.902534 
L 292.244813 -150.058402 
L 290.768164 -154.154077 
L 289.291516 -158.312821 
L 287.814868 -162.677854 
L 286.338219 -167.396502 
L 284.861571 -172.603965 
L 283.384923 -178.409469 
L 281.908274 -184.886983 
L 280.431626 -192.071692 
L 278.954978 -199.96208 
L 277.478329 -208.52632 
L 276.001681 -217.710793 
L 274.525032 -227.448301 
L 273.048384 -237.663879 
L 271.571736 -248.276923 
L 270.095087 -259.199452 
L 268.618439 -270.331413 
L 267.141791 -281.554723 
L 265.665142 -292.728133 
L 264.188494 -303.684889 
L 262.711846 -314.234621 
L 261.235197 -324.170049 
L 259.758549 -333.278157 
L 258.2819 -341.354618 
L 256.805252 -348.219572 
L 255.328604 -353.732557 
L 253.851955 -357.804414 
L 252.375307 -360.40443 
L 250.898659 -361.561626 
L 249.42201 -361.360025 
L 247.945362 -359.928547 
L 246.468713 -357.42696 
L 244.992065 -354.029782 
L 243.515417 -349.910197 
L 242.038768 -345.225875 
L 240.56212 -340.108214 
L 239.085472 -334.655896 
L 237.608823 -328.933063 
L 236.132175 -322.971816 
L 234.655527 -316.778267 
L 233.178878 -310.341037 
L 231.70223 -303.640895 
L 230.225581 -296.660195 
L 228.748933 -289.390878 
L 227.272285 -281.840043 
L 225.795636 -274.032498 
L 224.318988 -266.010153 
L 222.84234 -257.828648 
L 221.365691 -249.552048 
L 219.889043 -241.246749 
L 218.412395 -232.975784 
L 216.935746 -224.79453 
L 215.459098 -216.748408 
L 213.982449 -208.872596 
L 212.505801 -201.193316 
L 211.029153 -193.729889 
L 209.552504 -186.496707 
L 208.075856 -179.504484 
L 206.599208 -172.760541 
L 205.122559 -166.268389 
L 203.645911 -160.027149 
L 202.169263 -154.031523 
L 200.692614 -148.27281 
L 199.215966 -142.741083 
L 197.739317 -137.428163 
L 196.262669 -132.330617 
L 194.786021 -127.451864 
L 193.309372 -122.802603 
L 191.832724 -118.399169 
L 190.356076 -114.26001 
L 188.879427 -110.400991 
L 187.402779 -106.830604 
L 185.926131 -103.546221 
L 184.449482 -100.532318 
L 182.972834 -97.761093 
L 181.496185 -95.195354 
L 180.019537 -92.793016 
L 178.542889 -90.512234 
L 177.06624 -88.316082 
L 175.589592 -86.175934 
L 174.112944 -84.073021 
L 172.636295 -81.998128 
L 171.159647 -79.949788 
L 169.682999 -77.931599 
L 168.20635 -75.949388 
L 166.729702 -74.008821 
L 165.253053 -72.113875 
L 163.776405 -70.266299 
L 162.299757 -68.465953 
L 160.823108 -66.711767 
L 159.34646 -65.002989 
L 157.869812 -63.340387 
L 156.393163 -61.727174 
L 154.916515 -60.169473 
L 153.439866 -58.676256 
L 151.963218 -57.258752 
L 150.48657 -55.929387 
L 149.009921 -54.700396 
L 147.533273 -53.582284 
L 146.056625 -52.582345 
L 144.579976 -51.703471 
L 143.103328 -50.943434 
L 141.62668 -50.294747 
L 140.150031 -49.745141 
L 138.673383 -49.278576 
L 137.196734 -48.876631 
L 135.720086 -48.520088 
L 134.243438 -48.1905 
L 132.766789 -47.871573 
L 131.290141 -47.550249 
L 129.813493 -47.217405 
L 128.336844 -46.868157 
L 126.860196 -46.501768 
L 125.383548 -46.121211 
L 123.906899 -45.732449 
L 122.430251 -45.343495 
L 120.953602 -44.963379 
L 119.476954 -44.601107 
L 118.000306 -44.264733 
L 116.523657 -43.960637 
L 115.047009 -43.693074 
L 113.570361 -43.464007 
L 112.093712 -43.27322 
L 110.617064 -43.118645 
L 109.140416 -42.996828 
L 107.663767 -42.90345 
L 106.187119 -42.83383 
L 104.71047 -42.783343 
L 103.233822 -42.747731 
L 101.757174 -42.723298 
L 100.280525 -42.706992 
L 98.803877 -42.696407 
z
" style="stroke: #92c5de; stroke-width: 2.5"/>
    </defs>
    <g clip-path="url(#pb295c71564)">
     <use xlink:href="#maa7f708fff" x="0" y="432" style="fill: #92c5de; fill-opacity: 0.5; stroke: #92c5de; stroke-width: 2.5"/>
    </g>
   </g>
   <g id="PolyCollection_3">
    <defs>
     <path id="m871b5594b0" d="M 105.149816 -42.709527 
L 105.149816 -42.68 
L 106.655002 -42.68 
L 108.160188 -42.68 
L 109.665374 -42.68 
L 111.17056 -42.68 
L 112.675746 -42.68 
L 114.180932 -42.68 
L 115.686118 -42.68 
L 117.191304 -42.68 
L 118.69649 -42.68 
L 120.201676 -42.68 
L 121.706862 -42.68 
L 123.212048 -42.68 
L 124.717234 -42.68 
L 126.222419 -42.68 
L 127.727605 -42.68 
L 129.232791 -42.68 
L 130.737977 -42.68 
L 132.243163 -42.68 
L 133.748349 -42.68 
L 135.253535 -42.68 
L 136.758721 -42.68 
L 138.263907 -42.68 
L 139.769093 -42.68 
L 141.274279 -42.68 
L 142.779465 -42.68 
L 144.284651 -42.68 
L 145.789837 -42.68 
L 147.295023 -42.68 
L 148.800209 -42.68 
L 150.305394 -42.68 
L 151.81058 -42.68 
L 153.315766 -42.68 
L 154.820952 -42.68 
L 156.326138 -42.68 
L 157.831324 -42.68 
L 159.33651 -42.68 
L 160.841696 -42.68 
L 162.346882 -42.68 
L 163.852068 -42.68 
L 165.357254 -42.68 
L 166.86244 -42.68 
L 168.367626 -42.68 
L 169.872812 -42.68 
L 171.377998 -42.68 
L 172.883184 -42.68 
L 174.388369 -42.68 
L 175.893555 -42.68 
L 177.398741 -42.68 
L 178.903927 -42.68 
L 180.409113 -42.68 
L 181.914299 -42.68 
L 183.419485 -42.68 
L 184.924671 -42.68 
L 186.429857 -42.68 
L 187.935043 -42.68 
L 189.440229 -42.68 
L 190.945415 -42.68 
L 192.450601 -42.68 
L 193.955787 -42.68 
L 195.460973 -42.68 
L 196.966159 -42.68 
L 198.471345 -42.68 
L 199.97653 -42.68 
L 201.481716 -42.68 
L 202.986902 -42.68 
L 204.492088 -42.68 
L 205.997274 -42.68 
L 207.50246 -42.68 
L 209.007646 -42.68 
L 210.512832 -42.68 
L 212.018018 -42.68 
L 213.523204 -42.68 
L 215.02839 -42.68 
L 216.533576 -42.68 
L 218.038762 -42.68 
L 219.543948 -42.68 
L 221.049134 -42.68 
L 222.55432 -42.68 
L 224.059505 -42.68 
L 225.564691 -42.68 
L 227.069877 -42.68 
L 228.575063 -42.68 
L 230.080249 -42.68 
L 231.585435 -42.68 
L 233.090621 -42.68 
L 234.595807 -42.68 
L 236.100993 -42.68 
L 237.606179 -42.68 
L 239.111365 -42.68 
L 240.616551 -42.68 
L 242.121737 -42.68 
L 243.626923 -42.68 
L 245.132109 -42.68 
L 246.637295 -42.68 
L 248.142481 -42.68 
L 249.647666 -42.68 
L 251.152852 -42.68 
L 252.658038 -42.68 
L 254.163224 -42.68 
L 255.66841 -42.68 
L 257.173596 -42.68 
L 258.678782 -42.68 
L 260.183968 -42.68 
L 261.689154 -42.68 
L 263.19434 -42.68 
L 264.699526 -42.68 
L 266.204712 -42.68 
L 267.709898 -42.68 
L 269.215084 -42.68 
L 270.72027 -42.68 
L 272.225456 -42.68 
L 273.730641 -42.68 
L 275.235827 -42.68 
L 276.741013 -42.68 
L 278.246199 -42.68 
L 279.751385 -42.68 
L 281.256571 -42.68 
L 282.761757 -42.68 
L 284.266943 -42.68 
L 285.772129 -42.68 
L 287.277315 -42.68 
L 288.782501 -42.68 
L 290.287687 -42.68 
L 291.792873 -42.68 
L 293.298059 -42.68 
L 294.803245 -42.68 
L 296.308431 -42.68 
L 297.813617 -42.68 
L 299.318802 -42.68 
L 300.823988 -42.68 
L 302.329174 -42.68 
L 303.83436 -42.68 
L 305.339546 -42.68 
L 306.844732 -42.68 
L 308.349918 -42.68 
L 309.855104 -42.68 
L 311.36029 -42.68 
L 312.865476 -42.68 
L 314.370662 -42.68 
L 315.875848 -42.68 
L 317.381034 -42.68 
L 318.88622 -42.68 
L 320.391406 -42.68 
L 321.896592 -42.68 
L 323.401777 -42.68 
L 324.906963 -42.68 
L 326.412149 -42.68 
L 327.917335 -42.68 
L 329.422521 -42.68 
L 330.927707 -42.68 
L 332.432893 -42.68 
L 333.938079 -42.68 
L 335.443265 -42.68 
L 336.948451 -42.68 
L 338.453637 -42.68 
L 339.958823 -42.68 
L 341.464009 -42.68 
L 342.969195 -42.68 
L 344.474381 -42.68 
L 345.979567 -42.68 
L 347.484752 -42.68 
L 348.989938 -42.68 
L 350.495124 -42.68 
L 352.00031 -42.68 
L 353.505496 -42.68 
L 355.010682 -42.68 
L 356.515868 -42.68 
L 358.021054 -42.68 
L 359.52624 -42.68 
L 361.031426 -42.68 
L 362.536612 -42.68 
L 364.041798 -42.68 
L 365.546984 -42.68 
L 367.05217 -42.68 
L 368.557356 -42.68 
L 370.062542 -42.68 
L 371.567728 -42.68 
L 373.072913 -42.68 
L 374.578099 -42.68 
L 376.083285 -42.68 
L 377.588471 -42.68 
L 379.093657 -42.68 
L 380.598843 -42.68 
L 382.104029 -42.68 
L 383.609215 -42.68 
L 385.114401 -42.68 
L 386.619587 -42.68 
L 388.124773 -42.68 
L 389.629959 -42.68 
L 391.135145 -42.68 
L 392.640331 -42.68 
L 394.145517 -42.68 
L 395.650703 -42.68 
L 397.155888 -42.68 
L 398.661074 -42.68 
L 400.16626 -42.68 
L 401.671446 -42.68 
L 403.176632 -42.68 
L 404.681818 -42.68 
L 404.681818 -42.691805 
L 404.681818 -42.691805 
L 403.176632 -42.698781 
L 401.671446 -42.709154 
L 400.16626 -42.724159 
L 398.661074 -42.745276 
L 397.155888 -42.774184 
L 395.650703 -42.812669 
L 394.145517 -42.862494 
L 392.640331 -42.925218 
L 391.135145 -43.001994 
L 389.629959 -43.093375 
L 388.124773 -43.199149 
L 386.619587 -43.318262 
L 385.114401 -43.448825 
L 383.609215 -43.58826 
L 382.104029 -43.733527 
L 380.598843 -43.881445 
L 379.093657 -44.02901 
L 377.588471 -44.173679 
L 376.083285 -44.313549 
L 374.578099 -44.44739 
L 373.072913 -44.574548 
L 371.567728 -44.694739 
L 370.062542 -44.807814 
L 368.557356 -44.913561 
L 367.05217 -45.011652 
L 365.546984 -45.101758 
L 364.041798 -45.183879 
L 362.536612 -45.258843 
L 361.031426 -45.328917 
L 359.52624 -45.398453 
L 358.021054 -45.474454 
L 356.515868 -45.566991 
L 355.010682 -45.68941 
L 353.505496 -45.858274 
L 352.00031 -46.09304 
L 350.495124 -46.415456 
L 348.989938 -46.848689 
L 347.484752 -47.416194 
L 345.979567 -48.140361 
L 344.474381 -49.040983 
L 342.969195 -50.133629 
L 341.464009 -51.428064 
L 339.958823 -52.926863 
L 338.453637 -54.624437 
L 336.948451 -56.506649 
L 335.443265 -58.551216 
L 333.938079 -60.72898 
L 332.432893 -63.006074 
L 330.927707 -65.34685 
L 329.422521 -67.717356 
L 327.917335 -70.088988 
L 326.412149 -72.441923 
L 324.906963 -74.767893 
L 323.401777 -77.071934 
L 321.896592 -79.372835 
L 320.391406 -81.702185 
L 318.88622 -84.102043 
L 317.381034 -86.621446 
L 315.875848 -89.312058 
L 314.370662 -92.223324 
L 312.865476 -95.39756 
L 311.36029 -98.865373 
L 309.855104 -102.641837 
L 308.349918 -106.723812 
L 306.844732 -111.088792 
L 305.339546 -115.695586 
L 303.83436 -120.48702 
L 302.329174 -125.394666 
L 300.823988 -130.345315 
L 299.318802 -135.268629 
L 297.813617 -140.10516 
L 296.308431 -144.81371 
L 294.803245 -149.377041 
L 293.298059 -153.805086 
L 291.792873 -158.135138 
L 290.287687 -162.428962 
L 288.782501 -166.767183 
L 287.277315 -171.241734 
L 285.772129 -175.947331 
L 284.266943 -180.973011 
L 282.761757 -186.394621 
L 281.256571 -192.268882 
L 279.751385 -198.629367 
L 278.246199 -205.484414 
L 276.741013 -212.816853 
L 275.235827 -220.585297 
L 273.730641 -228.726767 
L 272.225456 -237.160436 
L 270.72027 -245.792326 
L 269.215084 -254.520708 
L 267.709898 -263.241903 
L 266.204712 -271.855985 
L 264.699526 -280.271801 
L 263.19434 -288.410651 
L 261.689154 -296.208067 
L 260.183968 -303.61337 
L 258.678782 -310.587018 
L 257.173596 -317.096175 
L 255.66841 -323.109242 
L 254.163224 -328.590333 
L 252.658038 -333.494656 
L 251.152852 -337.765605 
L 249.647666 -341.334025 
L 248.142481 -344.119774 
L 246.637295 -346.035319 
L 245.132109 -346.990913 
L 243.626923 -346.900739 
L 242.121737 -345.68945 
L 240.616551 -343.298546 
L 239.111365 -339.692129 
L 237.606179 -334.861617 
L 236.100993 -328.829054 
L 234.595807 -321.648709 
L 233.090621 -313.406777 
L 231.585435 -304.219159 
L 230.080249 -294.227545 
L 228.575063 -283.594206 
L 227.069877 -272.496084 
L 225.564691 -261.118746 
L 224.059505 -249.650683 
L 222.55432 -238.27817 
L 221.049134 -227.180657 
L 219.543948 -216.526444 
L 218.038762 -206.468322 
L 216.533576 -197.138954 
L 215.02839 -188.645995 
L 213.523204 -181.067253 
L 212.018018 -174.446438 
L 210.512832 -168.790191 
L 209.007646 -164.067033 
L 207.50246 -160.208684 
L 205.997274 -157.113886 
L 204.492088 -154.6545 
L 202.986902 -152.683399 
L 201.481716 -151.043443 
L 199.97653 -149.576816 
L 198.471345 -148.133994 
L 196.966159 -146.581752 
L 195.460973 -144.809729 
L 193.955787 -142.73517 
L 192.450601 -140.30562 
L 190.945415 -137.49942 
L 189.440229 -134.324071 
L 187.935043 -130.812672 
L 186.429857 -127.018857 
L 184.924671 -123.010798 
L 183.419485 -118.864948 
L 181.914299 -114.660116 
L 180.409113 -110.472392 
L 178.903927 -106.371157 
L 177.398741 -102.41624 
L 175.893555 -98.656058 
L 174.388369 -95.12652 
L 172.883184 -91.850483 
L 171.377998 -88.837668 
L 169.872812 -86.085082 
L 168.367626 -83.578093 
L 166.86244 -81.292341 
L 165.357254 -79.196539 
L 163.852068 -77.25608 
L 162.346882 -75.437085 
L 160.841696 -73.710359 
L 159.33651 -72.054617 
L 157.831324 -70.45836 
L 156.326138 -68.920023 
L 154.820952 -67.446271 
L 153.315766 -66.048758 
L 151.81058 -64.739918 
L 150.305394 -63.528639 
L 148.800209 -62.416664 
L 147.295023 -61.396443 
L 145.789837 -60.450877 
L 144.284651 -59.554985 
L 142.779465 -58.679171 
L 141.274279 -57.793451 
L 139.769093 -56.871852 
L 138.263907 -55.896185 
L 136.758721 -54.85858 
L 135.253535 -53.762414 
L 133.748349 -52.621576 
L 132.243163 -51.458332 
L 130.737977 -50.300216 
L 129.232791 -49.176521 
L 127.727605 -48.114941 
L 126.222419 -47.13881 
L 124.717234 -46.265229 
L 123.212048 -45.504197 
L 121.706862 -44.858676 
L 120.201676 -44.325413 
L 118.69649 -43.89626 
L 117.191304 -43.559725 
L 115.686118 -43.302511 
L 114.180932 -43.110871 
L 112.675746 -42.971658 
L 111.17056 -42.873047 
L 109.665374 -42.804924 
L 108.160188 -42.759026 
L 106.655002 -42.728863 
L 105.149816 -42.709527 
z
" style="stroke: #2166ac; stroke-width: 2.5"/>
    </defs>
    <g clip-path="url(#pb295c71564)">
     <use xlink:href="#m871b5594b0" x="0" y="432" style="fill: #2166ac; fill-opacity: 0.5; stroke: #2166ac; stroke-width: 2.5"/>
    </g>
   </g>
   <g id="matplotlib.axis_1">
    <g id="xtick_1">
     <g id="line2d_1">
      <defs>
       <path id="m37e1809930" d="M 0 0 
L 0 3.5 
" style="stroke: #000000; stroke-width: 0.8"/>
      </defs>
      <g>
       <use xlink:href="#m37e1809930" x="69.728208" y="389.32" style="stroke: #000000; stroke-width: 0.8"/>
      </g>
     </g>
     <g id="text_1">
      <!-- −5.0 -->
      <g transform="translate(57.586802 403.918437) scale(0.1 -0.1)">
       <defs>
        <path id="DejaVuSans-2212" d="M 678 2272 
L 4684 2272 
L 4684 1741 
L 678 1741 
L 678 2272 
z
" transform="scale(0.015625)"/>
        <path id="DejaVuSans-35" d="M 691 4666 
L 3169 4666 
L 3169 4134 
L 1269 4134 
L 1269 2991 
Q 1406 3038 1543 3061 
Q 1681 3084 1819 3084 
Q 2600 3084 3056 2656 
Q 3513 2228 3513 1497 
Q 3513 744 3044 326 
Q 2575 -91 1722 -91 
Q 1428 -91 1123 -41 
Q 819 9 494 109 
L 494 744 
Q 775 591 1075 516 
Q 1375 441 1709 441 
Q 2250 441 2565 725 
Q 2881 1009 2881 1497 
Q 2881 1984 2565 2268 
Q 2250 2553 1709 2553 
Q 1456 2553 1204 2497 
Q 953 2441 691 2322 
L 691 4666 
z
" transform="scale(0.015625)"/>
        <path id="DejaVuSans-2e" d="M 684 794 
L 1344 794 
L 1344 0 
L 684 0 
L 684 794 
z
" transform="scale(0.015625)"/>
        <path id="DejaVuSans-30" d="M 2034 4250 
Q 1547 4250 1301 3770 
Q 1056 3291 1056 2328 
Q 1056 1369 1301 889 
Q 1547 409 2034 409 
Q 2525 409 2770 889 
Q 3016 1369 3016 2328 
Q 3016 3291 2770 3770 
Q 2525 4250 2034 4250 
z
M 2034 4750 
Q 2819 4750 3233 4129 
Q 3647 3509 3647 2328 
Q 3647 1150 3233 529 
Q 2819 -91 2034 -91 
Q 1250 -91 836 529 
Q 422 1150 422 2328 
Q 422 3509 836 4129 
Q 1250 4750 2034 4750 
z
" transform="scale(0.015625)"/>
       </defs>
       <use xlink:href="#DejaVuSans-2212"/>
       <use xlink:href="#DejaVuSans-35" x="83.789062"/>
       <use xlink:href="#DejaVuSans-2e" x="147.412109"/>
       <use xlink:href="#DejaVuSans-30" x="179.199219"/>
      </g>
     </g>
    </g>
    <g id="xtick_2">
     <g id="line2d_2">
      <g>
       <use xlink:href="#m37e1809930" x="111.660492" y="389.32" style="stroke: #000000; stroke-width: 0.8"/>
      </g>
     </g>
     <g id="text_2">
      <!-- −2.5 -->
      <g transform="translate(99.519086 403.918437) scale(0.1 -0.1)">
       <defs>
        <path id="DejaVuSans-32" d="M 1228 531 
L 3431 531 
L 3431 0 
L 469 0 
L 469 531 
Q 828 903 1448 1529 
Q 2069 2156 2228 2338 
Q 2531 2678 2651 2914 
Q 2772 3150 2772 3378 
Q 2772 3750 2511 3984 
Q 2250 4219 1831 4219 
Q 1534 4219 1204 4116 
Q 875 4013 500 3803 
L 500 4441 
Q 881 4594 1212 4672 
Q 1544 4750 1819 4750 
Q 2544 4750 2975 4387 
Q 3406 4025 3406 3419 
Q 3406 3131 3298 2873 
Q 3191 2616 2906 2266 
Q 2828 2175 2409 1742 
Q 1991 1309 1228 531 
z
" transform="scale(0.015625)"/>
       </defs>
       <use xlink:href="#DejaVuSans-2212"/>
       <use xlink:href="#DejaVuSans-32" x="83.789062"/>
       <use xlink:href="#DejaVuSans-2e" x="147.412109"/>
       <use xlink:href="#DejaVuSans-35" x="179.199219"/>
      </g>
     </g>
    </g>
    <g id="xtick_3">
     <g id="line2d_3">
      <g>
       <use xlink:href="#m37e1809930" x="153.592777" y="389.32" style="stroke: #000000; stroke-width: 0.8"/>
      </g>
     </g>
     <g id="text_3">
      <!-- 0.0 -->
      <g transform="translate(145.641214 403.918437) scale(0.1 -0.1)">
       <use xlink:href="#DejaVuSans-30"/>
       <use xlink:href="#DejaVuSans-2e" x="63.623047"/>
       <use xlink:href="#DejaVuSans-30" x="95.410156"/>
      </g>
     </g>
    </g>
    <g id="xtick_4">
     <g id="line2d_4">
      <g>
       <use xlink:href="#m37e1809930" x="195.525061" y="389.32" style="stroke: #000000; stroke-width: 0.8"/>
      </g>
     </g>
     <g id="text_4">
      <!-- 2.5 -->
      <g transform="translate(187.573499 403.918437) scale(0.1 -0.1)">
       <use xlink:href="#DejaVuSans-32"/>
       <use xlink:href="#DejaVuSans-2e" x="63.623047"/>
       <use xlink:href="#DejaVuSans-35" x="95.410156"/>
      </g>
     </g>
    </g>
    <g id="xtick_5">
     <g id="line2d_5">
      <g>
       <use xlink:href="#m37e1809930" x="237.457345" y="389.32" style="stroke: #000000; stroke-width: 0.8"/>
      </g>
     </g>
     <g id="text_5">
      <!-- 5.0 -->
      <g transform="translate(229.505783 403.918437) scale(0.1 -0.1)">
       <use xlink:href="#DejaVuSans-35"/>
       <use xlink:href="#DejaVuSans-2e" x="63.623047"/>
       <use xlink:href="#DejaVuSans-30" x="95.410156"/>
      </g>
     </g>
    </g>
    <g id="xtick_6">
     <g id="line2d_6">
      <g>
       <use xlink:href="#m37e1809930" x="279.38963" y="389.32" style="stroke: #000000; stroke-width: 0.8"/>
      </g>
     </g>
     <g id="text_6">
      <!-- 7.5 -->
      <g transform="translate(271.438067 403.918437) scale(0.1 -0.1)">
       <defs>
        <path id="DejaVuSans-37" d="M 525 4666 
L 3525 4666 
L 3525 4397 
L 1831 0 
L 1172 0 
L 2766 4134 
L 525 4134 
L 525 4666 
z
" transform="scale(0.015625)"/>
       </defs>
       <use xlink:href="#DejaVuSans-37"/>
       <use xlink:href="#DejaVuSans-2e" x="63.623047"/>
       <use xlink:href="#DejaVuSans-35" x="95.410156"/>
      </g>
     </g>
    </g>
    <g id="xtick_7">
     <g id="line2d_7">
      <g>
       <use xlink:href="#m37e1809930" x="321.321914" y="389.32" style="stroke: #000000; stroke-width: 0.8"/>
      </g>
     </g>
     <g id="text_7">
      <!-- 10.0 -->
      <g transform="translate(310.189102 403.918437) scale(0.1 -0.1)">
       <defs>
        <path id="DejaVuSans-31" d="M 794 531 
L 1825 531 
L 1825 4091 
L 703 3866 
L 703 4441 
L 1819 4666 
L 2450 4666 
L 2450 531 
L 3481 531 
L 3481 0 
L 794 0 
L 794 531 
z
" transform="scale(0.015625)"/>
       </defs>
       <use xlink:href="#DejaVuSans-31"/>
       <use xlink:href="#DejaVuSans-30" x="63.623047"/>
       <use xlink:href="#DejaVuSans-2e" x="127.246094"/>
       <use xlink:href="#DejaVuSans-30" x="159.033203"/>
      </g>
     </g>
    </g>
    <g id="xtick_8">
     <g id="line2d_8">
      <g>
       <use xlink:href="#m37e1809930" x="363.254198" y="389.32" style="stroke: #000000; stroke-width: 0.8"/>
      </g>
     </g>
     <g id="text_8">
      <!-- 12.5 -->
      <g transform="translate(352.121386 403.918437) scale(0.1 -0.1)">
       <use xlink:href="#DejaVuSans-31"/>
       <use xlink:href="#DejaVuSans-32" x="63.623047"/>
       <use xlink:href="#DejaVuSans-2e" x="127.246094"/>
       <use xlink:href="#DejaVuSans-35" x="159.033203"/>
      </g>
     </g>
    </g>
    <g id="xtick_9">
     <g id="line2d_9">
      <g>
       <use xlink:href="#m37e1809930" x="405.186483" y="389.32" style="stroke: #000000; stroke-width: 0.8"/>
      </g>
     </g>
     <g id="text_9">
      <!-- 15.0 -->
      <g transform="translate(394.05367 403.918437) scale(0.1 -0.1)">
       <use xlink:href="#DejaVuSans-31"/>
       <use xlink:href="#DejaVuSans-35" x="63.623047"/>
       <use xlink:href="#DejaVuSans-2e" x="127.246094"/>
       <use xlink:href="#DejaVuSans-30" x="159.033203"/>
      </g>
     </g>
    </g>
    <g id="text_10">
     <!-- Predicted Fluorescence -->
     <g transform="translate(169.90375 419.11625) scale(0.12 -0.12)">
      <defs>
       <path id="DejaVuSans-50" d="M 1259 4147 
L 1259 2394 
L 2053 2394 
Q 2494 2394 2734 2622 
Q 2975 2850 2975 3272 
Q 2975 3691 2734 3919 
Q 2494 4147 2053 4147 
L 1259 4147 
z
M 628 4666 
L 2053 4666 
Q 2838 4666 3239 4311 
Q 3641 3956 3641 3272 
Q 3641 2581 3239 2228 
Q 2838 1875 2053 1875 
L 1259 1875 
L 1259 0 
L 628 0 
L 628 4666 
z
" transform="scale(0.015625)"/>
       <path id="DejaVuSans-72" d="M 2631 2963 
Q 2534 3019 2420 3045 
Q 2306 3072 2169 3072 
Q 1681 3072 1420 2755 
Q 1159 2438 1159 1844 
L 1159 0 
L 581 0 
L 581 3500 
L 1159 3500 
L 1159 2956 
Q 1341 3275 1631 3429 
Q 1922 3584 2338 3584 
Q 2397 3584 2469 3576 
Q 2541 3569 2628 3553 
L 2631 2963 
z
" transform="scale(0.015625)"/>
       <path id="DejaVuSans-65" d="M 3597 1894 
L 3597 1613 
L 953 1613 
Q 991 1019 1311 708 
Q 1631 397 2203 397 
Q 2534 397 2845 478 
Q 3156 559 3463 722 
L 3463 178 
Q 3153 47 2828 -22 
Q 2503 -91 2169 -91 
Q 1331 -91 842 396 
Q 353 884 353 1716 
Q 353 2575 817 3079 
Q 1281 3584 2069 3584 
Q 2775 3584 3186 3129 
Q 3597 2675 3597 1894 
z
M 3022 2063 
Q 3016 2534 2758 2815 
Q 2500 3097 2075 3097 
Q 1594 3097 1305 2825 
Q 1016 2553 972 2059 
L 3022 2063 
z
" transform="scale(0.015625)"/>
       <path id="DejaVuSans-64" d="M 2906 2969 
L 2906 4863 
L 3481 4863 
L 3481 0 
L 2906 0 
L 2906 525 
Q 2725 213 2448 61 
Q 2172 -91 1784 -91 
Q 1150 -91 751 415 
Q 353 922 353 1747 
Q 353 2572 751 3078 
Q 1150 3584 1784 3584 
Q 2172 3584 2448 3432 
Q 2725 3281 2906 2969 
z
M 947 1747 
Q 947 1113 1208 752 
Q 1469 391 1925 391 
Q 2381 391 2643 752 
Q 2906 1113 2906 1747 
Q 2906 2381 2643 2742 
Q 2381 3103 1925 3103 
Q 1469 3103 1208 2742 
Q 947 2381 947 1747 
z
" transform="scale(0.015625)"/>
       <path id="DejaVuSans-69" d="M 603 3500 
L 1178 3500 
L 1178 0 
L 603 0 
L 603 3500 
z
M 603 4863 
L 1178 4863 
L 1178 4134 
L 603 4134 
L 603 4863 
z
" transform="scale(0.015625)"/>
       <path id="DejaVuSans-63" d="M 3122 3366 
L 3122 2828 
Q 2878 2963 2633 3030 
Q 2388 3097 2138 3097 
Q 1578 3097 1268 2742 
Q 959 2388 959 1747 
Q 959 1106 1268 751 
Q 1578 397 2138 397 
Q 2388 397 2633 464 
Q 2878 531 3122 666 
L 3122 134 
Q 2881 22 2623 -34 
Q 2366 -91 2075 -91 
Q 1284 -91 818 406 
Q 353 903 353 1747 
Q 353 2603 823 3093 
Q 1294 3584 2113 3584 
Q 2378 3584 2631 3529 
Q 2884 3475 3122 3366 
z
" transform="scale(0.015625)"/>
       <path id="DejaVuSans-74" d="M 1172 4494 
L 1172 3500 
L 2356 3500 
L 2356 3053 
L 1172 3053 
L 1172 1153 
Q 1172 725 1289 603 
Q 1406 481 1766 481 
L 2356 481 
L 2356 0 
L 1766 0 
Q 1100 0 847 248 
Q 594 497 594 1153 
L 594 3053 
L 172 3053 
L 172 3500 
L 594 3500 
L 594 4494 
L 1172 4494 
z
" transform="scale(0.015625)"/>
       <path id="DejaVuSans-20" transform="scale(0.015625)"/>
       <path id="DejaVuSans-46" d="M 628 4666 
L 3309 4666 
L 3309 4134 
L 1259 4134 
L 1259 2759 
L 3109 2759 
L 3109 2228 
L 1259 2228 
L 1259 0 
L 628 0 
L 628 4666 
z
" transform="scale(0.015625)"/>
       <path id="DejaVuSans-6c" d="M 603 4863 
L 1178 4863 
L 1178 0 
L 603 0 
L 603 4863 
z
" transform="scale(0.015625)"/>
       <path id="DejaVuSans-75" d="M 544 1381 
L 544 3500 
L 1119 3500 
L 1119 1403 
Q 1119 906 1312 657 
Q 1506 409 1894 409 
Q 2359 409 2629 706 
Q 2900 1003 2900 1516 
L 2900 3500 
L 3475 3500 
L 3475 0 
L 2900 0 
L 2900 538 
Q 2691 219 2414 64 
Q 2138 -91 1772 -91 
Q 1169 -91 856 284 
Q 544 659 544 1381 
z
M 1991 3584 
L 1991 3584 
z
" transform="scale(0.015625)"/>
       <path id="DejaVuSans-6f" d="M 1959 3097 
Q 1497 3097 1228 2736 
Q 959 2375 959 1747 
Q 959 1119 1226 758 
Q 1494 397 1959 397 
Q 2419 397 2687 759 
Q 2956 1122 2956 1747 
Q 2956 2369 2687 2733 
Q 2419 3097 1959 3097 
z
M 1959 3584 
Q 2709 3584 3137 3096 
Q 3566 2609 3566 1747 
Q 3566 888 3137 398 
Q 2709 -91 1959 -91 
Q 1206 -91 779 398 
Q 353 888 353 1747 
Q 353 2609 779 3096 
Q 1206 3584 1959 3584 
z
" transform="scale(0.015625)"/>
       <path id="DejaVuSans-73" d="M 2834 3397 
L 2834 2853 
Q 2591 2978 2328 3040 
Q 2066 3103 1784 3103 
Q 1356 3103 1142 2972 
Q 928 2841 928 2578 
Q 928 2378 1081 2264 
Q 1234 2150 1697 2047 
L 1894 2003 
Q 2506 1872 2764 1633 
Q 3022 1394 3022 966 
Q 3022 478 2636 193 
Q 2250 -91 1575 -91 
Q 1294 -91 989 -36 
Q 684 19 347 128 
L 347 722 
Q 666 556 975 473 
Q 1284 391 1588 391 
Q 1994 391 2212 530 
Q 2431 669 2431 922 
Q 2431 1156 2273 1281 
Q 2116 1406 1581 1522 
L 1381 1569 
Q 847 1681 609 1914 
Q 372 2147 372 2553 
Q 372 3047 722 3315 
Q 1072 3584 1716 3584 
Q 2034 3584 2315 3537 
Q 2597 3491 2834 3397 
z
" transform="scale(0.015625)"/>
       <path id="DejaVuSans-6e" d="M 3513 2113 
L 3513 0 
L 2938 0 
L 2938 2094 
Q 2938 2591 2744 2837 
Q 2550 3084 2163 3084 
Q 1697 3084 1428 2787 
Q 1159 2491 1159 1978 
L 1159 0 
L 581 0 
L 581 3500 
L 1159 3500 
L 1159 2956 
Q 1366 3272 1645 3428 
Q 1925 3584 2291 3584 
Q 2894 3584 3203 3211 
Q 3513 2838 3513 2113 
z
" transform="scale(0.015625)"/>
      </defs>
      <use xlink:href="#DejaVuSans-50"/>
      <use xlink:href="#DejaVuSans-72" x="58.552734"/>
      <use xlink:href="#DejaVuSans-65" x="97.416016"/>
      <use xlink:href="#DejaVuSans-64" x="158.939453"/>
      <use xlink:href="#DejaVuSans-69" x="222.416016"/>
      <use xlink:href="#DejaVuSans-63" x="250.199219"/>
      <use xlink:href="#DejaVuSans-74" x="305.179688"/>
      <use xlink:href="#DejaVuSans-65" x="344.388672"/>
      <use xlink:href="#DejaVuSans-64" x="405.912109"/>
      <use xlink:href="#DejaVuSans-20" x="469.388672"/>
      <use xlink:href="#DejaVuSans-46" x="501.175781"/>
      <use xlink:href="#DejaVuSans-6c" x="558.695312"/>
      <use xlink:href="#DejaVuSans-75" x="586.478516"/>
      <use xlink:href="#DejaVuSans-6f" x="649.857422"/>
      <use xlink:href="#DejaVuSans-72" x="711.039062"/>
      <use xlink:href="#DejaVuSans-65" x="749.902344"/>
      <use xlink:href="#DejaVuSans-73" x="811.425781"/>
      <use xlink:href="#DejaVuSans-63" x="863.525391"/>
      <use xlink:href="#DejaVuSans-65" x="918.505859"/>
      <use xlink:href="#DejaVuSans-6e" x="980.029297"/>
      <use xlink:href="#DejaVuSans-63" x="1043.408203"/>
      <use xlink:href="#DejaVuSans-65" x="1098.388672"/>
     </g>
    </g>
   </g>
   <g id="matplotlib.axis_2">
    <g id="ytick_1">
     <g id="line2d_10">
      <defs>
       <path id="m44a640dc40" d="M 0 0 
L -3.5 0 
" style="stroke: #000000; stroke-width: 0.8"/>
      </defs>
      <g>
       <use xlink:href="#m44a640dc40" x="57.8" y="389.32" style="stroke: #000000; stroke-width: 0.8"/>
      </g>
     </g>
     <g id="text_11">
      <!-- 0.00 -->
      <g transform="translate(28.534375 393.119219) scale(0.1 -0.1)">
       <use xlink:href="#DejaVuSans-30"/>
       <use xlink:href="#DejaVuSans-2e" x="63.623047"/>
       <use xlink:href="#DejaVuSans-30" x="95.410156"/>
       <use xlink:href="#DejaVuSans-30" x="159.033203"/>
      </g>
     </g>
    </g>
    <g id="ytick_2">
     <g id="line2d_11">
      <g>
       <use xlink:href="#m44a640dc40" x="57.8" y="314.427107" style="stroke: #000000; stroke-width: 0.8"/>
      </g>
     </g>
     <g id="text_12">
      <!-- 0.05 -->
      <g transform="translate(28.534375 318.226326) scale(0.1 -0.1)">
       <use xlink:href="#DejaVuSans-30"/>
       <use xlink:href="#DejaVuSans-2e" x="63.623047"/>
       <use xlink:href="#DejaVuSans-30" x="95.410156"/>
       <use xlink:href="#DejaVuSans-35" x="159.033203"/>
      </g>
     </g>
    </g>
    <g id="ytick_3">
     <g id="line2d_12">
      <g>
       <use xlink:href="#m44a640dc40" x="57.8" y="239.534215" style="stroke: #000000; stroke-width: 0.8"/>
      </g>
     </g>
     <g id="text_13">
      <!-- 0.10 -->
      <g transform="translate(28.534375 243.333434) scale(0.1 -0.1)">
       <use xlink:href="#DejaVuSans-30"/>
       <use xlink:href="#DejaVuSans-2e" x="63.623047"/>
       <use xlink:href="#DejaVuSans-31" x="95.410156"/>
       <use xlink:href="#DejaVuSans-30" x="159.033203"/>
      </g>
     </g>
    </g>
    <g id="ytick_4">
     <g id="line2d_13">
      <g>
       <use xlink:href="#m44a640dc40" x="57.8" y="164.641322" style="stroke: #000000; stroke-width: 0.8"/>
      </g>
     </g>
     <g id="text_14">
      <!-- 0.15 -->
      <g transform="translate(28.534375 168.440541) scale(0.1 -0.1)">
       <use xlink:href="#DejaVuSans-30"/>
       <use xlink:href="#DejaVuSans-2e" x="63.623047"/>
       <use xlink:href="#DejaVuSans-31" x="95.410156"/>
       <use xlink:href="#DejaVuSans-35" x="159.033203"/>
      </g>
     </g>
    </g>
    <g id="ytick_5">
     <g id="line2d_14">
      <g>
       <use xlink:href="#m44a640dc40" x="57.8" y="89.74843" style="stroke: #000000; stroke-width: 0.8"/>
      </g>
     </g>
     <g id="text_15">
      <!-- 0.20 -->
      <g transform="translate(28.534375 93.547649) scale(0.1 -0.1)">
       <use xlink:href="#DejaVuSans-30"/>
       <use xlink:href="#DejaVuSans-2e" x="63.623047"/>
       <use xlink:href="#DejaVuSans-32" x="95.410156"/>
       <use xlink:href="#DejaVuSans-30" x="159.033203"/>
      </g>
     </g>
    </g>
    <g id="ytick_6">
     <g id="line2d_15">
      <g>
       <use xlink:href="#m44a640dc40" x="57.8" y="14.855537" style="stroke: #000000; stroke-width: 0.8"/>
      </g>
     </g>
     <g id="text_16">
      <!-- 0.25 -->
      <g transform="translate(28.534375 18.654756) scale(0.1 -0.1)">
       <use xlink:href="#DejaVuSans-30"/>
       <use xlink:href="#DejaVuSans-2e" x="63.623047"/>
       <use xlink:href="#DejaVuSans-32" x="95.410156"/>
       <use xlink:href="#DejaVuSans-35" x="159.033203"/>
      </g>
     </g>
    </g>
    <g id="text_17">
     <!-- Density -->
     <g transform="translate(21.622813 228.279599) rotate(-90) scale(0.14 -0.14)">
      <defs>
       <path id="DejaVuSans-44" d="M 1259 4147 
L 1259 519 
L 2022 519 
Q 2988 519 3436 956 
Q 3884 1394 3884 2338 
Q 3884 3275 3436 3711 
Q 2988 4147 2022 4147 
L 1259 4147 
z
M 628 4666 
L 1925 4666 
Q 3281 4666 3915 4102 
Q 4550 3538 4550 2338 
Q 4550 1131 3912 565 
Q 3275 0 1925 0 
L 628 0 
L 628 4666 
z
" transform="scale(0.015625)"/>
       <path id="DejaVuSans-79" d="M 2059 -325 
Q 1816 -950 1584 -1140 
Q 1353 -1331 966 -1331 
L 506 -1331 
L 506 -850 
L 844 -850 
Q 1081 -850 1212 -737 
Q 1344 -625 1503 -206 
L 1606 56 
L 191 3500 
L 800 3500 
L 1894 763 
L 2988 3500 
L 3597 3500 
L 2059 -325 
z
" transform="scale(0.015625)"/>
      </defs>
      <use xlink:href="#DejaVuSans-44"/>
      <use xlink:href="#DejaVuSans-65" x="77.001953"/>
      <use xlink:href="#DejaVuSans-6e" x="138.525391"/>
      <use xlink:href="#DejaVuSans-73" x="201.904297"/>
      <use xlink:href="#DejaVuSans-69" x="254.003906"/>
      <use xlink:href="#DejaVuSans-74" x="281.787109"/>
      <use xlink:href="#DejaVuSans-79" x="320.996094"/>
     </g>
    </g>
   </g>
   <g id="line2d_16">
    <path d="M 143.898708 389.32 
L 143.898708 14.015136 
" clip-path="url(#pb295c71564)" style="fill: none; stroke-dasharray: 3.7,1.6; stroke-dashoffset: 0; stroke: #000000"/>
   </g>
   <g id="patch_3">
    <path d="M 57.8 389.32 
L 57.8 14.015136 
" style="fill: none; stroke: #000000; stroke-width: 0.8; stroke-linejoin: miter; stroke-linecap: square"/>
   </g>
   <g id="patch_4">
    <path d="M 57.8 389.32 
L 421.2 389.32 
" style="fill: none; stroke: #000000; stroke-width: 0.8; stroke-linejoin: miter; stroke-linecap: square"/>
   </g>
   <g id="legend_1">
    <g id="patch_5">
     <path d="M 263.751562 80.727636 
L 414.2 80.727636 
Q 416.2 80.727636 416.2 78.727636 
L 416.2 21.015136 
Q 416.2 19.015136 414.2 19.015136 
L 263.751562 19.015136 
Q 261.751562 19.015136 261.751562 21.015136 
L 261.751562 78.727636 
Q 261.751562 80.727636 263.751562 80.727636 
z
" style="fill: #ffffff; opacity: 0.8; stroke: #cccccc; stroke-linejoin: miter"/>
    </g>
    <g id="patch_6">
     <path d="M 265.751562 30.613573 
L 285.751562 30.613573 
L 285.751562 23.613573 
L 265.751562 23.613573 
z
" style="fill: #bdbdbd; fill-opacity: 0.5; stroke: #bdbdbd; stroke-width: 2.5; stroke-linejoin: miter"/>
    </g>
    <g id="text_18">
     <!-- Pre-trained ESM2 (35M) -->
     <g transform="translate(293.751562 30.613573) scale(0.1 -0.1)">
      <defs>
       <path id="DejaVuSans-2d" d="M 313 2009 
L 1997 2009 
L 1997 1497 
L 313 1497 
L 313 2009 
z
" transform="scale(0.015625)"/>
       <path id="DejaVuSans-61" d="M 2194 1759 
Q 1497 1759 1228 1600 
Q 959 1441 959 1056 
Q 959 750 1161 570 
Q 1363 391 1709 391 
Q 2188 391 2477 730 
Q 2766 1069 2766 1631 
L 2766 1759 
L 2194 1759 
z
M 3341 1997 
L 3341 0 
L 2766 0 
L 2766 531 
Q 2569 213 2275 61 
Q 1981 -91 1556 -91 
Q 1019 -91 701 211 
Q 384 513 384 1019 
Q 384 1609 779 1909 
Q 1175 2209 1959 2209 
L 2766 2209 
L 2766 2266 
Q 2766 2663 2505 2880 
Q 2244 3097 1772 3097 
Q 1472 3097 1187 3025 
Q 903 2953 641 2809 
L 641 3341 
Q 956 3463 1253 3523 
Q 1550 3584 1831 3584 
Q 2591 3584 2966 3190 
Q 3341 2797 3341 1997 
z
" transform="scale(0.015625)"/>
       <path id="DejaVuSans-45" d="M 628 4666 
L 3578 4666 
L 3578 4134 
L 1259 4134 
L 1259 2753 
L 3481 2753 
L 3481 2222 
L 1259 2222 
L 1259 531 
L 3634 531 
L 3634 0 
L 628 0 
L 628 4666 
z
" transform="scale(0.015625)"/>
       <path id="DejaVuSans-53" d="M 3425 4513 
L 3425 3897 
Q 3066 4069 2747 4153 
Q 2428 4238 2131 4238 
Q 1616 4238 1336 4038 
Q 1056 3838 1056 3469 
Q 1056 3159 1242 3001 
Q 1428 2844 1947 2747 
L 2328 2669 
Q 3034 2534 3370 2195 
Q 3706 1856 3706 1288 
Q 3706 609 3251 259 
Q 2797 -91 1919 -91 
Q 1588 -91 1214 -16 
Q 841 59 441 206 
L 441 856 
Q 825 641 1194 531 
Q 1563 422 1919 422 
Q 2459 422 2753 634 
Q 3047 847 3047 1241 
Q 3047 1584 2836 1778 
Q 2625 1972 2144 2069 
L 1759 2144 
Q 1053 2284 737 2584 
Q 422 2884 422 3419 
Q 422 4038 858 4394 
Q 1294 4750 2059 4750 
Q 2388 4750 2728 4690 
Q 3069 4631 3425 4513 
z
" transform="scale(0.015625)"/>
       <path id="DejaVuSans-4d" d="M 628 4666 
L 1569 4666 
L 2759 1491 
L 3956 4666 
L 4897 4666 
L 4897 0 
L 4281 0 
L 4281 4097 
L 3078 897 
L 2444 897 
L 1241 4097 
L 1241 0 
L 628 0 
L 628 4666 
z
" transform="scale(0.015625)"/>
       <path id="DejaVuSans-28" d="M 1984 4856 
Q 1566 4138 1362 3434 
Q 1159 2731 1159 2009 
Q 1159 1288 1364 580 
Q 1569 -128 1984 -844 
L 1484 -844 
Q 1016 -109 783 600 
Q 550 1309 550 2009 
Q 550 2706 781 3412 
Q 1013 4119 1484 4856 
L 1984 4856 
z
" transform="scale(0.015625)"/>
       <path id="DejaVuSans-33" d="M 2597 2516 
Q 3050 2419 3304 2112 
Q 3559 1806 3559 1356 
Q 3559 666 3084 287 
Q 2609 -91 1734 -91 
Q 1441 -91 1130 -33 
Q 819 25 488 141 
L 488 750 
Q 750 597 1062 519 
Q 1375 441 1716 441 
Q 2309 441 2620 675 
Q 2931 909 2931 1356 
Q 2931 1769 2642 2001 
Q 2353 2234 1838 2234 
L 1294 2234 
L 1294 2753 
L 1863 2753 
Q 2328 2753 2575 2939 
Q 2822 3125 2822 3475 
Q 2822 3834 2567 4026 
Q 2313 4219 1838 4219 
Q 1578 4219 1281 4162 
Q 984 4106 628 3988 
L 628 4550 
Q 988 4650 1302 4700 
Q 1616 4750 1894 4750 
Q 2613 4750 3031 4423 
Q 3450 4097 3450 3541 
Q 3450 3153 3228 2886 
Q 3006 2619 2597 2516 
z
" transform="scale(0.015625)"/>
       <path id="DejaVuSans-29" d="M 513 4856 
L 1013 4856 
Q 1481 4119 1714 3412 
Q 1947 2706 1947 2009 
Q 1947 1309 1714 600 
Q 1481 -109 1013 -844 
L 513 -844 
Q 928 -128 1133 580 
Q 1338 1288 1338 2009 
Q 1338 2731 1133 3434 
Q 928 4138 513 4856 
z
" transform="scale(0.015625)"/>
      </defs>
      <use xlink:href="#DejaVuSans-50"/>
      <use xlink:href="#DejaVuSans-72" x="58.552734"/>
      <use xlink:href="#DejaVuSans-65" x="97.416016"/>
      <use xlink:href="#DejaVuSans-2d" x="158.939453"/>
      <use xlink:href="#DejaVuSans-74" x="195.023438"/>
      <use xlink:href="#DejaVuSans-72" x="234.232422"/>
      <use xlink:href="#DejaVuSans-61" x="275.345703"/>
      <use xlink:href="#DejaVuSans-69" x="336.625"/>
      <use xlink:href="#DejaVuSans-6e" x="364.408203"/>
      <use xlink:href="#DejaVuSans-65" x="427.787109"/>
      <use xlink:href="#DejaVuSans-64" x="489.310547"/>
      <use xlink:href="#DejaVuSans-20" x="552.787109"/>
      <use xlink:href="#DejaVuSans-45" x="584.574219"/>
      <use xlink:href="#DejaVuSans-53" x="647.757812"/>
      <use xlink:href="#DejaVuSans-4d" x="711.234375"/>
      <use xlink:href="#DejaVuSans-32" x="797.513672"/>
      <use xlink:href="#DejaVuSans-20" x="861.136719"/>
      <use xlink:href="#DejaVuSans-28" x="892.923828"/>
      <use xlink:href="#DejaVuSans-33" x="931.9375"/>
      <use xlink:href="#DejaVuSans-35" x="995.560547"/>
      <use xlink:href="#DejaVuSans-4d" x="1059.183594"/>
      <use xlink:href="#DejaVuSans-29" x="1145.462891"/>
     </g>
    </g>
    <g id="patch_7">
     <path d="M 265.751562 45.291698 
L 285.751562 45.291698 
L 285.751562 38.291698 
L 265.751562 38.291698 
z
" style="fill: #92c5de; fill-opacity: 0.5; stroke: #92c5de; stroke-width: 2.5; stroke-linejoin: miter"/>
    </g>
    <g id="text_19">
     <!-- SFT ESM2 (35M) -->
     <g transform="translate(293.751562 45.291698) scale(0.1 -0.1)">
      <defs>
       <path id="DejaVuSans-54" d="M -19 4666 
L 3928 4666 
L 3928 4134 
L 2272 4134 
L 2272 0 
L 1638 0 
L 1638 4134 
L -19 4134 
L -19 4666 
z
" transform="scale(0.015625)"/>
      </defs>
      <use xlink:href="#DejaVuSans-53"/>
      <use xlink:href="#DejaVuSans-46" x="63.476562"/>
      <use xlink:href="#DejaVuSans-54" x="119.246094"/>
      <use xlink:href="#DejaVuSans-20" x="180.330078"/>
      <use xlink:href="#DejaVuSans-45" x="212.117188"/>
      <use xlink:href="#DejaVuSans-53" x="275.300781"/>
      <use xlink:href="#DejaVuSans-4d" x="338.777344"/>
      <use xlink:href="#DejaVuSans-32" x="425.056641"/>
      <use xlink:href="#DejaVuSans-20" x="488.679688"/>
      <use xlink:href="#DejaVuSans-28" x="520.466797"/>
      <use xlink:href="#DejaVuSans-33" x="559.480469"/>
      <use xlink:href="#DejaVuSans-35" x="623.103516"/>
      <use xlink:href="#DejaVuSans-4d" x="686.726562"/>
      <use xlink:href="#DejaVuSans-29" x="773.005859"/>
     </g>
    </g>
    <g id="patch_8">
     <path d="M 265.751562 59.969823 
L 285.751562 59.969823 
L 285.751562 52.969823 
L 265.751562 52.969823 
z
" style="fill: #2166ac; fill-opacity: 0.5; stroke: #2166ac; stroke-width: 2.5; stroke-linejoin: miter"/>
    </g>
    <g id="text_20">
     <!-- Aligned ESM2 (35M) -->
     <g transform="translate(293.751562 59.969823) scale(0.1 -0.1)">
      <defs>
       <path id="DejaVuSans-41" d="M 2188 4044 
L 1331 1722 
L 3047 1722 
L 2188 4044 
z
M 1831 4666 
L 2547 4666 
L 4325 0 
L 3669 0 
L 3244 1197 
L 1141 1197 
L 716 0 
L 50 0 
L 1831 4666 
z
" transform="scale(0.015625)"/>
       <path id="DejaVuSans-67" d="M 2906 1791 
Q 2906 2416 2648 2759 
Q 2391 3103 1925 3103 
Q 1463 3103 1205 2759 
Q 947 2416 947 1791 
Q 947 1169 1205 825 
Q 1463 481 1925 481 
Q 2391 481 2648 825 
Q 2906 1169 2906 1791 
z
M 3481 434 
Q 3481 -459 3084 -895 
Q 2688 -1331 1869 -1331 
Q 1566 -1331 1297 -1286 
Q 1028 -1241 775 -1147 
L 775 -588 
Q 1028 -725 1275 -790 
Q 1522 -856 1778 -856 
Q 2344 -856 2625 -561 
Q 2906 -266 2906 331 
L 2906 616 
Q 2728 306 2450 153 
Q 2172 0 1784 0 
Q 1141 0 747 490 
Q 353 981 353 1791 
Q 353 2603 747 3093 
Q 1141 3584 1784 3584 
Q 2172 3584 2450 3431 
Q 2728 3278 2906 2969 
L 2906 3500 
L 3481 3500 
L 3481 434 
z
" transform="scale(0.015625)"/>
      </defs>
      <use xlink:href="#DejaVuSans-41"/>
      <use xlink:href="#DejaVuSans-6c" x="68.408203"/>
      <use xlink:href="#DejaVuSans-69" x="96.191406"/>
      <use xlink:href="#DejaVuSans-67" x="123.974609"/>
      <use xlink:href="#DejaVuSans-6e" x="187.451172"/>
      <use xlink:href="#DejaVuSans-65" x="250.830078"/>
      <use xlink:href="#DejaVuSans-64" x="312.353516"/>
      <use xlink:href="#DejaVuSans-20" x="375.830078"/>
      <use xlink:href="#DejaVuSans-45" x="407.617188"/>
      <use xlink:href="#DejaVuSans-53" x="470.800781"/>
      <use xlink:href="#DejaVuSans-4d" x="534.277344"/>
      <use xlink:href="#DejaVuSans-32" x="620.556641"/>
      <use xlink:href="#DejaVuSans-20" x="684.179688"/>
      <use xlink:href="#DejaVuSans-28" x="715.966797"/>
      <use xlink:href="#DejaVuSans-33" x="754.980469"/>
      <use xlink:href="#DejaVuSans-35" x="818.603516"/>
      <use xlink:href="#DejaVuSans-4d" x="882.226562"/>
      <use xlink:href="#DejaVuSans-29" x="968.505859"/>
     </g>
    </g>
    <g id="line2d_17">
     <path d="M 265.751562 71.147948 
L 275.751562 71.147948 
L 285.751562 71.147948 
" style="fill: none; stroke-dasharray: 3.7,1.6; stroke-dashoffset: 0; stroke: #000000"/>
    </g>
    <g id="text_21">
     <!-- Predicted ube4b score -->
     <g transform="translate(293.751562 74.647948) scale(0.1 -0.1)">
      <defs>
       <path id="DejaVuSans-62" d="M 3116 1747 
Q 3116 2381 2855 2742 
Q 2594 3103 2138 3103 
Q 1681 3103 1420 2742 
Q 1159 2381 1159 1747 
Q 1159 1113 1420 752 
Q 1681 391 2138 391 
Q 2594 391 2855 752 
Q 3116 1113 3116 1747 
z
M 1159 2969 
Q 1341 3281 1617 3432 
Q 1894 3584 2278 3584 
Q 2916 3584 3314 3078 
Q 3713 2572 3713 1747 
Q 3713 922 3314 415 
Q 2916 -91 2278 -91 
Q 1894 -91 1617 61 
Q 1341 213 1159 525 
L 1159 0 
L 581 0 
L 581 4863 
L 1159 4863 
L 1159 2969 
z
" transform="scale(0.015625)"/>
       <path id="DejaVuSans-34" d="M 2419 4116 
L 825 1625 
L 2419 1625 
L 2419 4116 
z
M 2253 4666 
L 3047 4666 
L 3047 1625 
L 3713 1625 
L 3713 1100 
L 3047 1100 
L 3047 0 
L 2419 0 
L 2419 1100 
L 313 1100 
L 313 1709 
L 2253 4666 
z
" transform="scale(0.015625)"/>
      </defs>
      <use xlink:href="#DejaVuSans-50"/>
      <use xlink:href="#DejaVuSans-72" x="58.552734"/>
      <use xlink:href="#DejaVuSans-65" x="97.416016"/>
      <use xlink:href="#DejaVuSans-64" x="158.939453"/>
      <use xlink:href="#DejaVuSans-69" x="222.416016"/>
      <use xlink:href="#DejaVuSans-63" x="250.199219"/>
      <use xlink:href="#DejaVuSans-74" x="305.179688"/>
      <use xlink:href="#DejaVuSans-65" x="344.388672"/>
      <use xlink:href="#DejaVuSans-64" x="405.912109"/>
      <use xlink:href="#DejaVuSans-20" x="469.388672"/>
      <use xlink:href="#DejaVuSans-75" x="501.175781"/>
      <use xlink:href="#DejaVuSans-62" x="564.554688"/>
      <use xlink:href="#DejaVuSans-65" x="628.03125"/>
      <use xlink:href="#DejaVuSans-34" x="689.554688"/>
      <use xlink:href="#DejaVuSans-62" x="753.177734"/>
      <use xlink:href="#DejaVuSans-20" x="816.654297"/>
      <use xlink:href="#DejaVuSans-73" x="848.441406"/>
      <use xlink:href="#DejaVuSans-63" x="900.541016"/>
      <use xlink:href="#DejaVuSans-6f" x="955.521484"/>
      <use xlink:href="#DejaVuSans-72" x="1016.703125"/>
      <use xlink:href="#DejaVuSans-65" x="1055.566406"/>
     </g>
    </g>
   </g>
  </g>
 </g>
 <defs>
  <clipPath id="pb295c71564">
   <rect x="57.8" y="14.015136" width="363.4" height="375.304864"/>
  </clipPath>
 </defs>
</svg>
