<?xml version="1.0" encoding="utf-8" standalone="no"?>
<!DOCTYPE svg PUBLIC "-//W3C//DTD SVG 1.1//EN"
  "http://www.w3.org/Graphics/SVG/1.1/DTD/svg11.dtd">
<svg xmlns:xlink="http://www.w3.org/1999/xlink" width="432pt" height="432pt" viewBox="0 0 432 432" xmlns="http://www.w3.org/2000/svg" version="1.1">
 <metadata>
  <rdf:RDF xmlns:dc="http://purl.org/dc/elements/1.1/" xmlns:cc="http://creativecommons.org/ns#" xmlns:rdf="http://www.w3.org/1999/02/22-rdf-syntax-ns#">
   <cc:Work>
    <dc:type rdf:resource="http://purl.org/dc/dcmitype/StillImage"/>
    <dc:date>2025-04-03T11:14:57.280764</dc:date>
    <dc:format>image/svg+xml</dc:format>
    <dc:creator>
     <cc:Agent>
      <dc:title>Matplotlib v3.8.0, https://matplotlib.org/</dc:title>
     </cc:Agent>
    </dc:creator>
   </cc:Work>
  </rdf:RDF>
 </metadata>
 <defs>
  <style type="text/css">*{stroke-linejoin: round; stroke-linecap: butt}</style>
 </defs>
 <g id="figure_1">
  <g id="patch_1">
   <path d="M 0 432 
L 432 432 
L 432 0 
L 0 0 
z
" style="fill: #ffffff"/>
  </g>
  <g id="axes_1">
   <g id="patch_2">
    <path d="M 57.8 389.32 
L 411.144738 389.32 
L 411.144738 13.340185 
L 57.8 13.340185 
z
" style="fill: #ffffff"/>
   </g>
   <g id="PolyCollection_1">
    <defs>
     <path id="m12db3b8c35" d="M 73.861124 -42.697293 
L 73.861124 -42.68 
L 75.114726 -42.68 
L 76.368328 -42.68 
L 77.62193 -42.68 
L 78.875532 -42.68 
L 80.129133 -42.68 
L 81.382735 -42.68 
L 82.636337 -42.68 
L 83.889939 -42.68 
L 85.14354 -42.68 
L 86.397142 -42.68 
L 87.650744 -42.68 
L 88.904346 -42.68 
L 90.157948 -42.68 
L 91.411549 -42.68 
L 92.665151 -42.68 
L 93.918753 -42.68 
L 95.172355 -42.68 
L 96.425956 -42.68 
L 97.679558 -42.68 
L 98.93316 -42.68 
L 100.186762 -42.68 
L 101.440364 -42.68 
L 102.693965 -42.68 
L 103.947567 -42.68 
L 105.201169 -42.68 
L 106.454771 -42.68 
L 107.708373 -42.68 
L 108.961974 -42.68 
L 110.215576 -42.68 
L 111.469178 -42.68 
L 112.72278 -42.68 
L 113.976381 -42.68 
L 115.229983 -42.68 
L 116.483585 -42.68 
L 117.737187 -42.68 
L 118.990789 -42.68 
L 120.24439 -42.68 
L 121.497992 -42.68 
L 122.751594 -42.68 
L 124.005196 -42.68 
L 125.258797 -42.68 
L 126.512399 -42.68 
L 127.766001 -42.68 
L 129.019603 -42.68 
L 130.273205 -42.68 
L 131.526806 -42.68 
L 132.780408 -42.68 
L 134.03401 -42.68 
L 135.287612 -42.68 
L 136.541213 -42.68 
L 137.794815 -42.68 
L 139.048417 -42.68 
L 140.302019 -42.68 
L 141.555621 -42.68 
L 142.809222 -42.68 
L 144.062824 -42.68 
L 145.316426 -42.68 
L 146.570028 -42.68 
L 147.823629 -42.68 
L 149.077231 -42.68 
L 150.330833 -42.68 
L 151.584435 -42.68 
L 152.838037 -42.68 
L 154.091638 -42.68 
L 155.34524 -42.68 
L 156.598842 -42.68 
L 157.852444 -42.68 
L 159.106045 -42.68 
L 160.359647 -42.68 
L 161.613249 -42.68 
L 162.866851 -42.68 
L 164.120453 -42.68 
L 165.374054 -42.68 
L 166.627656 -42.68 
L 167.881258 -42.68 
L 169.13486 -42.68 
L 170.388462 -42.68 
L 171.642063 -42.68 
L 172.895665 -42.68 
L 174.149267 -42.68 
L 175.402869 -42.68 
L 176.65647 -42.68 
L 177.910072 -42.68 
L 179.163674 -42.68 
L 180.417276 -42.68 
L 181.670878 -42.68 
L 182.924479 -42.68 
L 184.178081 -42.68 
L 185.431683 -42.68 
L 186.685285 -42.68 
L 187.938886 -42.68 
L 189.192488 -42.68 
L 190.44609 -42.68 
L 191.699692 -42.68 
L 192.953294 -42.68 
L 194.206895 -42.68 
L 195.460497 -42.68 
L 196.714099 -42.68 
L 197.967701 -42.68 
L 199.221302 -42.68 
L 200.474904 -42.68 
L 201.728506 -42.68 
L 202.982108 -42.68 
L 204.23571 -42.68 
L 205.489311 -42.68 
L 206.742913 -42.68 
L 207.996515 -42.68 
L 209.250117 -42.68 
L 210.503718 -42.68 
L 211.75732 -42.68 
L 213.010922 -42.68 
L 214.264524 -42.68 
L 215.518126 -42.68 
L 216.771727 -42.68 
L 218.025329 -42.68 
L 219.278931 -42.68 
L 220.532533 -42.68 
L 221.786135 -42.68 
L 223.039736 -42.68 
L 224.293338 -42.68 
L 225.54694 -42.68 
L 226.800542 -42.68 
L 228.054143 -42.68 
L 229.307745 -42.68 
L 230.561347 -42.68 
L 231.814949 -42.68 
L 233.068551 -42.68 
L 234.322152 -42.68 
L 235.575754 -42.68 
L 236.829356 -42.68 
L 238.082958 -42.68 
L 239.336559 -42.68 
L 240.590161 -42.68 
L 241.843763 -42.68 
L 243.097365 -42.68 
L 244.350967 -42.68 
L 245.604568 -42.68 
L 246.85817 -42.68 
L 248.111772 -42.68 
L 249.365374 -42.68 
L 250.618975 -42.68 
L 251.872577 -42.68 
L 253.126179 -42.68 
L 254.379781 -42.68 
L 255.633383 -42.68 
L 256.886984 -42.68 
L 258.140586 -42.68 
L 259.394188 -42.68 
L 260.64779 -42.68 
L 261.901391 -42.68 
L 263.154993 -42.68 
L 264.408595 -42.68 
L 265.662197 -42.68 
L 266.915799 -42.68 
L 268.1694 -42.68 
L 269.423002 -42.68 
L 270.676604 -42.68 
L 271.930206 -42.68 
L 273.183807 -42.68 
L 274.437409 -42.68 
L 275.691011 -42.68 
L 276.944613 -42.68 
L 278.198215 -42.68 
L 279.451816 -42.68 
L 280.705418 -42.68 
L 281.95902 -42.68 
L 283.212622 -42.68 
L 284.466224 -42.68 
L 285.719825 -42.68 
L 286.973427 -42.68 
L 288.227029 -42.68 
L 289.480631 -42.68 
L 290.734232 -42.68 
L 291.987834 -42.68 
L 293.241436 -42.68 
L 294.495038 -42.68 
L 295.74864 -42.68 
L 297.002241 -42.68 
L 298.255843 -42.68 
L 299.509445 -42.68 
L 300.763047 -42.68 
L 302.016648 -42.68 
L 303.27025 -42.68 
L 304.523852 -42.68 
L 305.777454 -42.68 
L 307.031056 -42.68 
L 308.284657 -42.68 
L 309.538259 -42.68 
L 310.791861 -42.68 
L 312.045463 -42.68 
L 313.299064 -42.68 
L 314.552666 -42.68 
L 315.806268 -42.68 
L 317.05987 -42.68 
L 318.313472 -42.68 
L 319.567073 -42.68 
L 320.820675 -42.68 
L 322.074277 -42.68 
L 323.327879 -42.68 
L 323.327879 -42.731706 
L 323.327879 -42.731706 
L 322.074277 -42.760655 
L 320.820675 -42.803606 
L 319.567073 -42.866134 
L 318.313472 -42.955468 
L 317.05987 -43.080739 
L 315.806268 -43.253189 
L 314.552666 -43.486295 
L 313.299064 -43.795784 
L 312.045463 -44.199518 
L 310.791861 -44.71723 
L 309.538259 -45.370136 
L 308.284657 -46.180449 
L 307.031056 -47.17086 
L 305.777454 -48.364046 
L 304.523852 -49.782301 
L 303.27025 -51.447342 
L 302.016648 -53.380329 
L 300.763047 -55.602078 
L 299.509445 -58.133413 
L 298.255843 -60.995522 
L 297.002241 -64.210159 
L 295.74864 -67.799519 
L 294.495038 -71.785657 
L 293.241436 -76.189358 
L 291.987834 -81.028513 
L 290.734232 -86.316141 
L 289.480631 -92.058339 
L 288.227029 -98.252503 
L 286.973427 -104.886204 
L 285.719825 -111.937038 
L 284.466224 -119.373631 
L 283.212622 -127.157803 
L 281.95902 -135.247657 
L 280.705418 -143.601145 
L 279.451816 -152.179531 
L 278.198215 -160.950109 
L 276.944613 -169.88762 
L 275.691011 -178.974013 
L 274.437409 -188.196489 
L 273.183807 -197.544111 
L 271.930206 -207.003562 
L 270.676604 -216.554859 
L 269.423002 -226.167898 
L 268.1694 -235.800595 
L 266.915799 -245.399133 
L 265.662197 -254.900445 
L 264.408595 -264.236629 
L 263.154993 -273.340629 
L 261.901391 -282.152228 
L 260.64779 -290.623344 
L 259.394188 -298.721683 
L 258.140586 -306.432124 
L 256.886984 -313.755589 
L 255.633383 -320.705575 
L 254.379781 -327.302961 
L 253.126179 -333.569933 
L 251.872577 -339.524025 
L 250.618975 -345.173183 
L 249.365374 -350.512564 
L 248.111772 -355.523426 
L 246.85817 -360.174151 
L 245.604568 -364.423054 
L 244.350967 -368.222422 
L 243.097365 -371.52309 
L 241.843763 -374.278835 
L 240.590161 -376.450053 
L 239.336559 -378.00631 
L 238.082958 -378.927675 
L 236.829356 -379.204918 
L 235.575754 -378.83886 
L 234.322152 -377.839283 
L 233.068551 -376.223785 
L 231.814949 -374.016941 
L 230.561347 -371.249964 
L 229.307745 -367.96092 
L 228.054143 -364.195352 
L 226.800542 -360.007056 
L 225.54694 -355.458608 
L 224.293338 -350.621266 
L 223.039736 -345.573884 
L 221.786135 -340.400618 
L 220.532533 -335.18738 
L 219.278931 -330.017205 
L 218.025329 -324.964907 
L 216.771727 -320.091561 
L 215.518126 -315.439466 
L 214.264524 -311.028223 
L 213.010922 -306.852509 
L 211.75732 -302.881908 
L 210.503718 -299.062955 
L 209.250117 -295.323272 
L 207.996515 -291.577414 
L 206.742913 -287.733884 
L 205.489311 -283.702622 
L 204.23571 -279.402281 
L 202.982108 -274.766621 
L 201.728506 -269.749531 
L 200.474904 -264.328287 
L 199.221302 -258.504894 
L 197.967701 -252.305486 
L 196.714099 -245.777981 
L 195.460497 -238.988245 
L 194.206895 -232.015196 
L 192.953294 -224.945287 
L 191.699692 -217.866857 
L 190.44609 -210.864815 
L 189.192488 -204.016039 
L 187.938886 -197.385789 
L 186.685285 -191.025272 
L 185.431683 -184.970379 
L 184.178081 -179.241475 
L 182.924479 -173.844049 
L 181.670878 -168.769978 
L 180.417276 -163.999197 
L 179.163674 -159.501619 
L 177.910072 -155.239213 
L 176.65647 -151.168264 
L 175.402869 -147.241841 
L 174.149267 -143.412508 
L 172.895665 -139.635299 
L 171.642063 -135.870812 
L 170.388462 -132.088273 
L 169.13486 -128.268233 
L 167.881258 -124.404605 
L 166.627656 -120.505692 
L 165.374054 -116.593977 
L 164.120453 -112.704578 
L 162.866851 -108.88241 
L 161.613249 -105.178339 
L 160.359647 -101.64468 
L 159.106045 -98.330569 
L 157.852444 -95.277703 
L 156.598842 -92.516931 
L 155.34524 -90.066032 
L 154.091638 -87.928867 
L 152.838037 -86.095887 
L 151.584435 -84.545826 
L 150.330833 -83.248241 
L 149.077231 -82.166518 
L 147.823629 -81.260921 
L 146.570028 -80.49135 
L 145.316426 -79.819556 
L 144.062824 -79.2107 
L 142.809222 -78.634282 
L 141.555621 -78.064541 
L 140.302019 -77.480512 
L 139.048417 -76.865919 
L 137.794815 -76.20903 
L 136.541213 -75.502552 
L 135.287612 -74.743555 
L 134.03401 -73.93334 
L 132.780408 -73.077133 
L 131.526806 -72.18352 
L 130.273205 -71.263531 
L 129.019603 -70.329413 
L 127.766001 -69.39317 
L 126.512399 -68.465048 
L 125.258797 -67.552178 
L 124.005196 -66.657589 
L 122.751594 -65.779775 
L 121.497992 -64.912899 
L 120.24439 -64.047634 
L 118.990789 -63.172539 
L 117.737187 -62.275746 
L 116.483585 -61.346743 
L 115.229983 -60.377961 
L 113.976381 -59.365959 
L 112.72278 -58.312055 
L 111.469178 -57.222334 
L 110.215576 -56.107084 
L 108.961974 -54.97977 
L 107.708373 -53.855737 
L 106.454771 -52.75083 
L 105.201169 -51.680121 
L 103.947567 -50.656889 
L 102.693965 -49.691929 
L 101.440364 -48.793217 
L 100.186762 -47.965897 
L 98.93316 -47.212517 
L 97.679558 -46.533415 
L 96.425956 -45.927179 
L 95.172355 -45.39109 
L 93.918753 -44.921512 
L 92.665151 -44.514198 
L 91.411549 -44.164512 
L 90.157948 -43.86758 
L 88.904346 -43.618401 
L 87.650744 -43.411929 
L 86.397142 -43.243148 
L 85.14354 -43.107154 
L 83.889939 -42.999233 
L 82.636337 -42.914946 
L 81.382735 -42.8502 
L 80.129133 -42.801312 
L 78.875532 -42.765043 
L 77.62193 -42.738616 
L 76.368328 -42.719712 
L 75.114726 -42.706439 
L 73.861124 -42.697293 
z
" style="stroke: #bdbdbd; stroke-width: 2.5"/>
    </defs>
    <g clip-path="url(#pd809715584)">
     <use xlink:href="#m12db3b8c35" x="0" y="432" style="fill: #bdbdbd; fill-opacity: 0.5; stroke: #bdbdbd; stroke-width: 2.5"/>
    </g>
   </g>
   <g id="PolyCollection_2">
    <defs>
     <path id="m6dbff97f2f" d="M 88.509938 -42.706559 
L 88.509938 -42.68 
L 90.050509 -42.68 
L 91.59108 -42.68 
L 93.131652 -42.68 
L 94.672223 -42.68 
L 96.212794 -42.68 
L 97.753365 -42.68 
L 99.293937 -42.68 
L 100.834508 -42.68 
L 102.375079 -42.68 
L 103.91565 -42.68 
L 105.456222 -42.68 
L 106.996793 -42.68 
L 108.537364 -42.68 
L 110.077935 -42.68 
L 111.618506 -42.68 
L 113.159078 -42.68 
L 114.699649 -42.68 
L 116.24022 -42.68 
L 117.780791 -42.68 
L 119.321363 -42.68 
L 120.861934 -42.68 
L 122.402505 -42.68 
L 123.943076 -42.68 
L 125.483648 -42.68 
L 127.024219 -42.68 
L 128.56479 -42.68 
L 130.105361 -42.68 
L 131.645932 -42.68 
L 133.186504 -42.68 
L 134.727075 -42.68 
L 136.267646 -42.68 
L 137.808217 -42.68 
L 139.348789 -42.68 
L 140.88936 -42.68 
L 142.429931 -42.68 
L 143.970502 -42.68 
L 145.511074 -42.68 
L 147.051645 -42.68 
L 148.592216 -42.68 
L 150.132787 -42.68 
L 151.673359 -42.68 
L 153.21393 -42.68 
L 154.754501 -42.68 
L 156.295072 -42.68 
L 157.835643 -42.68 
L 159.376215 -42.68 
L 160.916786 -42.68 
L 162.457357 -42.68 
L 163.997928 -42.68 
L 165.5385 -42.68 
L 167.079071 -42.68 
L 168.619642 -42.68 
L 170.160213 -42.68 
L 171.700785 -42.68 
L 173.241356 -42.68 
L 174.781927 -42.68 
L 176.322498 -42.68 
L 177.86307 -42.68 
L 179.403641 -42.68 
L 180.944212 -42.68 
L 182.484783 -42.68 
L 184.025354 -42.68 
L 185.565926 -42.68 
L 187.106497 -42.68 
L 188.647068 -42.68 
L 190.187639 -42.68 
L 191.728211 -42.68 
L 193.268782 -42.68 
L 194.809353 -42.68 
L 196.349924 -42.68 
L 197.890496 -42.68 
L 199.431067 -42.68 
L 200.971638 -42.68 
L 202.512209 -42.68 
L 204.05278 -42.68 
L 205.593352 -42.68 
L 207.133923 -42.68 
L 208.674494 -42.68 
L 210.215065 -42.68 
L 211.755637 -42.68 
L 213.296208 -42.68 
L 214.836779 -42.68 
L 216.37735 -42.68 
L 217.917922 -42.68 
L 219.458493 -42.68 
L 220.999064 -42.68 
L 222.539635 -42.68 
L 224.080207 -42.68 
L 225.620778 -42.68 
L 227.161349 -42.68 
L 228.70192 -42.68 
L 230.242491 -42.68 
L 231.783063 -42.68 
L 233.323634 -42.68 
L 234.864205 -42.68 
L 236.404776 -42.68 
L 237.945348 -42.68 
L 239.485919 -42.68 
L 241.02649 -42.68 
L 242.567061 -42.68 
L 244.107633 -42.68 
L 245.648204 -42.68 
L 247.188775 -42.68 
L 248.729346 -42.68 
L 250.269917 -42.68 
L 251.810489 -42.68 
L 253.35106 -42.68 
L 254.891631 -42.68 
L 256.432202 -42.68 
L 257.972774 -42.68 
L 259.513345 -42.68 
L 261.053916 -42.68 
L 262.594487 -42.68 
L 264.135059 -42.68 
L 265.67563 -42.68 
L 267.216201 -42.68 
L 268.756772 -42.68 
L 270.297344 -42.68 
L 271.837915 -42.68 
L 273.378486 -42.68 
L 274.919057 -42.68 
L 276.459628 -42.68 
L 278.0002 -42.68 
L 279.540771 -42.68 
L 281.081342 -42.68 
L 282.621913 -42.68 
L 284.162485 -42.68 
L 285.703056 -42.68 
L 287.243627 -42.68 
L 288.784198 -42.68 
L 290.32477 -42.68 
L 291.865341 -42.68 
L 293.405912 -42.68 
L 294.946483 -42.68 
L 296.487055 -42.68 
L 298.027626 -42.68 
L 299.568197 -42.68 
L 301.108768 -42.68 
L 302.649339 -42.68 
L 304.189911 -42.68 
L 305.730482 -42.68 
L 307.271053 -42.68 
L 308.811624 -42.68 
L 310.352196 -42.68 
L 311.892767 -42.68 
L 313.433338 -42.68 
L 314.973909 -42.68 
L 316.514481 -42.68 
L 318.055052 -42.68 
L 319.595623 -42.68 
L 321.136194 -42.68 
L 322.676765 -42.68 
L 324.217337 -42.68 
L 325.757908 -42.68 
L 327.298479 -42.68 
L 328.83905 -42.68 
L 330.379622 -42.68 
L 331.920193 -42.68 
L 333.460764 -42.68 
L 335.001335 -42.68 
L 336.541907 -42.68 
L 338.082478 -42.68 
L 339.623049 -42.68 
L 341.16362 -42.68 
L 342.704192 -42.68 
L 344.244763 -42.68 
L 345.785334 -42.68 
L 347.325905 -42.68 
L 348.866476 -42.68 
L 350.407048 -42.68 
L 351.947619 -42.68 
L 353.48819 -42.68 
L 355.028761 -42.68 
L 356.569333 -42.68 
L 358.109904 -42.68 
L 359.650475 -42.68 
L 361.191046 -42.68 
L 362.731618 -42.68 
L 364.272189 -42.68 
L 365.81276 -42.68 
L 367.353331 -42.68 
L 368.893903 -42.68 
L 370.434474 -42.68 
L 371.975045 -42.68 
L 373.515616 -42.68 
L 375.056187 -42.68 
L 376.596759 -42.68 
L 378.13733 -42.68 
L 379.677901 -42.68 
L 381.218472 -42.68 
L 382.759044 -42.68 
L 384.299615 -42.68 
L 385.840186 -42.68 
L 387.380757 -42.68 
L 388.921329 -42.68 
L 390.4619 -42.68 
L 392.002471 -42.68 
L 393.543042 -42.68 
L 395.083613 -42.68 
L 395.083613 -42.696929 
L 395.083613 -42.696929 
L 393.543042 -42.707581 
L 392.002471 -42.724018 
L 390.4619 -42.748852 
L 388.921329 -42.78561 
L 387.380757 -42.838953 
L 385.840186 -42.914911 
L 384.299615 -43.021149 
L 382.759044 -43.167261 
L 381.218472 -43.365105 
L 379.677901 -43.629217 
L 378.13733 -43.977316 
L 376.596759 -44.430955 
L 375.056187 -45.016335 
L 373.515616 -45.765294 
L 371.975045 -46.716466 
L 370.434474 -47.916515 
L 368.893903 -49.421341 
L 367.353331 -51.297039 
L 365.81276 -53.620396 
L 364.272189 -56.478612 
L 362.731618 -59.968011 
L 361.191046 -64.191505 
L 359.650475 -69.254732 
L 358.109904 -75.260916 
L 356.569333 -82.304709 
L 355.028761 -90.465436 
L 353.48819 -99.80036 
L 351.947619 -110.338628 
L 350.407048 -122.076581 
L 348.866476 -134.975004 
L 347.325905 -148.95865 
L 345.785334 -163.918124 
L 344.244763 -179.713882 
L 342.704192 -196.181796 
L 341.16362 -213.139575 
L 339.623049 -230.393209 
L 338.082478 -247.742712 
L 336.541907 -264.986652 
L 335.001335 -281.92531 
L 333.460764 -298.362648 
L 331.920193 -314.107624 
L 330.379622 -328.975562 
L 328.83905 -342.790284 
L 327.298479 -355.387526 
L 325.757908 -366.619775 
L 324.217337 -376.362223 
L 322.676765 -384.519124 
L 321.136194 -391.029529 
L 319.595623 -395.871349 
L 318.055052 -399.062808 
L 316.514481 -400.660786 
L 314.973909 -400.756014 
L 313.433338 -399.465647 
L 311.892767 -396.924146 
L 310.352196 -393.27369 
L 308.811624 -388.655352 
L 307.271053 -383.202088 
L 305.730482 -377.034246 
L 304.189911 -370.25782 
L 302.649339 -362.965253 
L 301.108768 -355.238192 
L 299.568197 -347.151379 
L 298.027626 -338.776783 
L 296.487055 -330.18717 
L 294.946483 -321.458526 
L 293.405912 -312.671031 
L 291.865341 -303.90859 
L 290.32477 -295.25718 
L 288.784198 -286.802455 
L 287.243627 -278.627075 
L 285.703056 -270.808172 
L 284.162485 -263.415147 
L 282.621913 -256.507813 
L 281.081342 -250.134659 
L 279.540771 -244.330958 
L 278.0002 -239.116477 
L 276.459628 -234.492797 
L 274.919057 -230.440558 
L 273.378486 -226.917293 
L 271.837915 -223.856707 
L 270.297344 -221.170235 
L 268.756772 -218.75144 
L 267.216201 -216.483247 
L 265.67563 -214.247399 
L 264.135059 -211.934886 
L 262.594487 -209.455724 
L 261.053916 -206.746425 
L 259.513345 -203.773822 
L 257.972774 -200.534558 
L 256.432202 -197.050387 
L 254.891631 -193.360221 
L 253.35106 -189.510425 
L 251.810489 -185.545191 
L 250.269917 -181.498633 
L 248.729346 -177.389889 
L 247.188775 -173.22182 
L 245.648204 -168.983232 
L 244.107633 -164.65392 
L 242.567061 -160.211438 
L 241.02649 -155.638296 
L 239.485919 -150.928379 
L 237.945348 -146.091589 
L 236.404776 -141.156107 
L 234.864205 -136.168011 
L 233.323634 -131.18841 
L 231.783063 -126.288498 
L 230.242491 -121.543215 
L 228.70192 -117.024288 
L 227.161349 -112.793474 
L 225.620778 -108.896813 
L 224.080207 -105.360502 
L 222.539635 -102.188871 
L 220.999064 -99.364621 
L 219.458493 -96.851274 
L 217.917922 -94.597472 
L 216.37735 -92.542581 
L 214.836779 -90.622909 
L 213.296208 -88.777796 
L 211.755637 -86.954902 
L 210.215065 -85.114143 
L 208.674494 -83.229943 
L 207.133923 -81.291681 
L 205.593352 -79.302486 
L 204.05278 -77.276674 
L 202.512209 -75.236329 
L 200.971638 -73.207541 
L 199.431067 -71.216835 
L 197.890496 -69.28824 
L 196.349924 -67.441274 
L 194.809353 -65.689985 
L 193.268782 -64.042976 
L 191.728211 -62.504202 
L 190.187639 -61.074228 
L 188.647068 -59.751589 
L 187.106497 -58.533938 
L 185.565926 -57.418762 
L 184.025354 -56.403576 
L 182.484783 -55.485652 
L 180.944212 -54.661437 
L 179.403641 -53.925903 
L 177.86307 -53.272066 
L 176.322498 -52.690848 
L 174.781927 -52.17138 
L 173.241356 -51.701711 
L 171.700785 -51.269806 
L 170.160213 -50.864634 
L 168.619642 -50.477162 
L 167.079071 -50.10106 
L 165.5385 -49.733034 
L 163.997928 -49.372748 
L 162.457357 -49.022375 
L 160.916786 -48.6859 
L 159.376215 -48.368282 
L 157.835643 -48.07461 
L 156.295072 -47.809379 
L 154.754501 -47.575966 
L 153.21393 -47.376347 
L 151.673359 -47.211083 
L 150.132787 -47.079538 
L 148.592216 -46.980257 
L 147.051645 -46.911435 
L 145.511074 -46.871347 
L 143.970502 -46.858651 
L 142.429931 -46.872489 
L 140.88936 -46.91234 
L 139.348789 -46.977632 
L 137.808217 -47.0672 
L 136.267646 -47.178655 
L 134.727075 -47.307816 
L 133.186504 -47.448305 
L 131.645932 -47.591423 
L 130.105361 -47.726352 
L 128.56479 -47.840718 
L 127.024219 -47.921469 
L 125.483648 -47.955989 
L 123.943076 -47.933317 
L 122.402505 -47.84533 
L 120.861934 -47.687723 
L 119.321363 -47.460646 
L 117.780791 -47.168891 
L 116.24022 -46.821589 
L 114.699649 -46.431445 
L 113.159078 -46.013592 
L 111.618506 -45.584227 
L 110.077935 -45.159202 
L 108.537364 -44.752753 
L 106.996793 -44.376508 
L 105.456222 -44.038873 
L 103.91565 -43.744826 
L 102.375079 -43.496084 
L 100.834508 -43.291566 
L 99.293937 -43.128034 
L 97.753365 -43.000818 
L 96.212794 -42.9045 
L 94.672223 -42.833504 
L 93.131652 -42.782545 
L 91.59108 -42.74692 
L 90.050509 -42.722658 
L 88.509938 -42.706559 
z
" style="stroke: #92c5de; stroke-width: 2.5"/>
    </defs>
    <g clip-path="url(#pd809715584)">
     <use xlink:href="#m6dbff97f2f" x="0" y="432" style="fill: #92c5de; fill-opacity: 0.5; stroke: #92c5de; stroke-width: 2.5"/>
    </g>
   </g>
   <g id="PolyCollection_3">
    <defs>
     <path id="m557b192557" d="M 85.772188 -42.696313 
L 85.772188 -42.68 
L 87.281948 -42.68 
L 88.791708 -42.68 
L 90.301468 -42.68 
L 91.811228 -42.68 
L 93.320988 -42.68 
L 94.830748 -42.68 
L 96.340508 -42.68 
L 97.850268 -42.68 
L 99.360028 -42.68 
L 100.869788 -42.68 
L 102.379548 -42.68 
L 103.889308 -42.68 
L 105.399068 -42.68 
L 106.908828 -42.68 
L 108.418588 -42.68 
L 109.928348 -42.68 
L 111.438108 -42.68 
L 112.947868 -42.68 
L 114.457628 -42.68 
L 115.967388 -42.68 
L 117.477148 -42.68 
L 118.986908 -42.68 
L 120.496668 -42.68 
L 122.006428 -42.68 
L 123.516188 -42.68 
L 125.025947 -42.68 
L 126.535707 -42.68 
L 128.045467 -42.68 
L 129.555227 -42.68 
L 131.064987 -42.68 
L 132.574747 -42.68 
L 134.084507 -42.68 
L 135.594267 -42.68 
L 137.104027 -42.68 
L 138.613787 -42.68 
L 140.123547 -42.68 
L 141.633307 -42.68 
L 143.143067 -42.68 
L 144.652827 -42.68 
L 146.162587 -42.68 
L 147.672347 -42.68 
L 149.182107 -42.68 
L 150.691867 -42.68 
L 152.201627 -42.68 
L 153.711387 -42.68 
L 155.221147 -42.68 
L 156.730907 -42.68 
L 158.240667 -42.68 
L 159.750427 -42.68 
L 161.260187 -42.68 
L 162.769947 -42.68 
L 164.279707 -42.68 
L 165.789467 -42.68 
L 167.299227 -42.68 
L 168.808987 -42.68 
L 170.318747 -42.68 
L 171.828507 -42.68 
L 173.338267 -42.68 
L 174.848027 -42.68 
L 176.357787 -42.68 
L 177.867547 -42.68 
L 179.377307 -42.68 
L 180.887067 -42.68 
L 182.396827 -42.68 
L 183.906587 -42.68 
L 185.416347 -42.68 
L 186.926107 -42.68 
L 188.435867 -42.68 
L 189.945627 -42.68 
L 191.455387 -42.68 
L 192.965147 -42.68 
L 194.474907 -42.68 
L 195.984667 -42.68 
L 197.494427 -42.68 
L 199.004187 -42.68 
L 200.513947 -42.68 
L 202.023707 -42.68 
L 203.533467 -42.68 
L 205.043227 -42.68 
L 206.552987 -42.68 
L 208.062747 -42.68 
L 209.572507 -42.68 
L 211.082267 -42.68 
L 212.592026 -42.68 
L 214.101786 -42.68 
L 215.611546 -42.68 
L 217.121306 -42.68 
L 218.631066 -42.68 
L 220.140826 -42.68 
L 221.650586 -42.68 
L 223.160346 -42.68 
L 224.670106 -42.68 
L 226.179866 -42.68 
L 227.689626 -42.68 
L 229.199386 -42.68 
L 230.709146 -42.68 
L 232.218906 -42.68 
L 233.728666 -42.68 
L 235.238426 -42.68 
L 236.748186 -42.68 
L 238.257946 -42.68 
L 239.767706 -42.68 
L 241.277466 -42.68 
L 242.787226 -42.68 
L 244.296986 -42.68 
L 245.806746 -42.68 
L 247.316506 -42.68 
L 248.826266 -42.68 
L 250.336026 -42.68 
L 251.845786 -42.68 
L 253.355546 -42.68 
L 254.865306 -42.68 
L 256.375066 -42.68 
L 257.884826 -42.68 
L 259.394586 -42.68 
L 260.904346 -42.68 
L 262.414106 -42.68 
L 263.923866 -42.68 
L 265.433626 -42.68 
L 266.943386 -42.68 
L 268.453146 -42.68 
L 269.962906 -42.68 
L 271.472666 -42.68 
L 272.982426 -42.68 
L 274.492186 -42.68 
L 276.001946 -42.68 
L 277.511706 -42.68 
L 279.021466 -42.68 
L 280.531226 -42.68 
L 282.040986 -42.68 
L 283.550746 -42.68 
L 285.060506 -42.68 
L 286.570266 -42.68 
L 288.080026 -42.68 
L 289.589786 -42.68 
L 291.099546 -42.68 
L 292.609306 -42.68 
L 294.119066 -42.68 
L 295.628826 -42.68 
L 297.138586 -42.68 
L 298.648346 -42.68 
L 300.158105 -42.68 
L 301.667865 -42.68 
L 303.177625 -42.68 
L 304.687385 -42.68 
L 306.197145 -42.68 
L 307.706905 -42.68 
L 309.216665 -42.68 
L 310.726425 -42.68 
L 312.236185 -42.68 
L 313.745945 -42.68 
L 315.255705 -42.68 
L 316.765465 -42.68 
L 318.275225 -42.68 
L 319.784985 -42.68 
L 321.294745 -42.68 
L 322.804505 -42.68 
L 324.314265 -42.68 
L 325.824025 -42.68 
L 327.333785 -42.68 
L 328.843545 -42.68 
L 330.353305 -42.68 
L 331.863065 -42.68 
L 333.372825 -42.68 
L 334.882585 -42.68 
L 336.392345 -42.68 
L 337.902105 -42.68 
L 339.411865 -42.68 
L 340.921625 -42.68 
L 342.431385 -42.68 
L 343.941145 -42.68 
L 345.450905 -42.68 
L 346.960665 -42.68 
L 348.470425 -42.68 
L 349.980185 -42.68 
L 351.489945 -42.68 
L 352.999705 -42.68 
L 354.509465 -42.68 
L 356.019225 -42.68 
L 357.528985 -42.68 
L 359.038745 -42.68 
L 360.548505 -42.68 
L 362.058265 -42.68 
L 363.568025 -42.68 
L 365.077785 -42.68 
L 366.587545 -42.68 
L 368.097305 -42.68 
L 369.607065 -42.68 
L 371.116825 -42.68 
L 372.626585 -42.68 
L 374.136345 -42.68 
L 375.646105 -42.68 
L 377.155865 -42.68 
L 378.665625 -42.68 
L 380.175385 -42.68 
L 381.685145 -42.68 
L 383.194905 -42.68 
L 384.704665 -42.68 
L 386.214425 -42.68 
L 386.214425 -42.725428 
L 386.214425 -42.725428 
L 384.704665 -42.755825 
L 383.194905 -42.804018 
L 381.685145 -42.878816 
L 380.175385 -42.992469 
L 378.665625 -43.16158 
L 377.155865 -43.408052 
L 375.646105 -43.76001 
L 374.136345 -44.252598 
L 372.626585 -44.928542 
L 371.116825 -45.838366 
L 369.607065 -47.040168 
L 368.097305 -48.598915 
L 366.587545 -50.585234 
L 365.077785 -53.073766 
L 363.568025 -56.141182 
L 362.058265 -59.863999 
L 360.548505 -64.316335 
L 359.038745 -69.567709 
L 357.528985 -75.680945 
L 356.019225 -82.71015 
L 354.509465 -90.698679 
L 352.999705 -99.676958 
L 351.489945 -109.660054 
L 349.980185 -120.644938 
L 348.470425 -132.607518 
L 346.960665 -145.49965 
L 345.450905 -159.246503 
L 343.941145 -173.744729 
L 342.431385 -188.861939 
L 340.921625 -204.437906 
L 339.411865 -220.287781 
L 337.902105 -236.207348 
L 336.392345 -251.98012 
L 334.882585 -267.385792 
L 333.372825 -282.209393 
L 331.863065 -296.250333 
L 330.353305 -309.330573 
L 328.843545 -321.301171 
L 327.333785 -332.046683 
L 325.824025 -341.48711 
L 324.314265 -349.577344 
L 322.804505 -356.304356 
L 321.294745 -361.682609 
L 319.784985 -365.748378 
L 318.275225 -368.553774 
L 316.765465 -370.161279 
L 315.255705 -370.639498 
L 313.745945 -370.060607 
L 312.236185 -368.499655 
L 310.726425 -366.035546 
L 309.216665 -362.753145 
L 307.706905 -358.745747 
L 306.197145 -354.117029 
L 304.687385 -348.981677 
L 303.177625 -343.464163 
L 301.667865 -337.695456 
L 300.158105 -331.80792 
L 298.648346 -325.928939 
L 297.138586 -320.174089 
L 295.628826 -314.640728 
L 294.119066 -309.40278 
L 292.609306 -304.507308 
L 291.099546 -299.973187 
L 289.589786 -295.791912 
L 288.080026 -291.930397 
L 286.570266 -288.335421 
L 285.060506 -284.93929 
L 283.550746 -281.666269 
L 282.040986 -278.439263 
L 280.531226 -275.186278 
L 279.021466 -271.846166 
L 277.511706 -268.373254 
L 276.001946 -264.740497 
L 274.492186 -260.94093 
L 272.982426 -256.987326 
L 271.472666 -252.9101 
L 269.962906 -248.753642 
L 268.453146 -244.571353 
L 266.943386 -240.419773 
L 265.433626 -236.352241 
L 263.923866 -232.412615 
L 262.414106 -228.629616 
L 260.904346 -225.01237 
L 259.394586 -221.547731 
L 257.884826 -218.199806 
L 256.375066 -214.911954 
L 254.865306 -211.611214 
L 253.355546 -208.214812 
L 251.845786 -204.63805 
L 250.336026 -200.802644 
L 248.826266 -196.644454 
L 247.316506 -192.119612 
L 245.806746 -187.208296 
L 244.296986 -181.91577 
L 242.787226 -176.270758 
L 241.277466 -170.321642 
L 239.767706 -164.131273 
L 238.257946 -157.771344 
L 236.748186 -151.317193 
L 235.238426 -144.843711 
L 233.728666 -138.422669 
L 232.218906 -132.121452 
L 230.709146 -126.002848 
L 229.199386 -120.125376 
L 227.689626 -114.543568 
L 226.179866 -109.307747 
L 224.670106 -104.462994 
L 223.160346 -100.047297 
L 221.650586 -96.089087 
L 220.140826 -92.604548 
L 218.631066 -89.595219 
L 217.121306 -87.046355 
L 215.611546 -84.92648 
L 214.101786 -83.188358 
L 212.592026 -81.771482 
L 211.082267 -80.6059 
L 209.572507 -79.617091 
L 208.062747 -78.731404 
L 206.552987 -77.881501 
L 205.043227 -77.011216 
L 203.533467 -76.079298 
L 202.023707 -75.061601 
L 200.513947 -73.951502 
L 199.004187 -72.758509 
L 197.494427 -71.505266 
L 195.984667 -70.22338 
L 194.474907 -68.948603 
L 192.965147 -67.716001 
L 191.455387 -66.555705 
L 189.945627 -65.489721 
L 188.435867 -64.530116 
L 186.926107 -63.678664 
L 185.416347 -62.927848 
L 183.906587 -62.262919 
L 182.396827 -61.664606 
L 180.887067 -61.112008 
L 179.377307 -60.585256 
L 177.867547 -60.067574 
L 176.357787 -59.546559 
L 174.848027 -59.01457 
L 173.338267 -58.468336 
L 171.828507 -57.907936 
L 170.318747 -57.335415 
L 168.808987 -56.753327 
L 167.299227 -56.16345 
L 165.789467 -55.5659 
L 164.279707 -54.958777 
L 162.769947 -54.338358 
L 161.260187 -53.699801 
L 159.750427 -53.038214 
L 158.240667 -52.349882 
L 156.730907 -51.633436 
L 155.221147 -50.89077 
L 153.711387 -50.127513 
L 152.201627 -49.353007 
L 150.691867 -48.579761 
L 149.182107 -47.822499 
L 147.672347 -47.096927 
L 146.162587 -46.418425 
L 144.652827 -45.800842 
L 143.143067 -45.255546 
L 141.633307 -44.790803 
L 140.123547 -44.411527 
L 138.613787 -44.119329 
L 137.104027 -43.912787 
L 135.594267 -43.787829 
L 134.084507 -43.738122 
L 132.574747 -43.75541 
L 131.064987 -43.829781 
L 129.555227 -43.949875 
L 128.045467 -44.103106 
L 126.535707 -44.275954 
L 125.025947 -44.454394 
L 123.516188 -44.624481 
L 122.006428 -44.773082 
L 120.496668 -44.888697 
L 118.986908 -44.962249 
L 117.477148 -44.98776 
L 115.967388 -44.962777 
L 114.457628 -44.888481 
L 112.947868 -44.769442 
L 111.438108 -44.613051 
L 109.928348 -44.428694 
L 108.418588 -44.22678 
L 106.908828 -44.017755 
L 105.399068 -43.811224 
L 103.889308 -43.615267 
L 102.379548 -43.436011 
L 100.869788 -43.277471 
L 99.360028 -43.141627 
L 97.850268 -43.028691 
L 96.340508 -42.937486 
L 94.830748 -42.865874 
L 93.320988 -42.811167 
L 91.811228 -42.770482 
L 90.301468 -42.741012 
L 88.791708 -42.720213 
L 87.281948 -42.705907 
L 85.772188 -42.696313 
z
" style="stroke: #2166ac; stroke-width: 2.5"/>
    </defs>
    <g clip-path="url(#pd809715584)">
     <use xlink:href="#m557b192557" x="0" y="432" style="fill: #2166ac; fill-opacity: 0.5; stroke: #2166ac; stroke-width: 2.5"/>
    </g>
   </g>
   <g id="matplotlib.axis_1">
    <g id="xtick_1">
     <g id="line2d_1">
      <defs>
       <path id="md6c5087a41" d="M 0 0 
L 0 3.5 
" style="stroke: #000000; stroke-width: 0.8"/>
      </defs>
      <g>
       <use xlink:href="#md6c5087a41" x="70.097599" y="389.32" style="stroke: #000000; stroke-width: 0.8"/>
      </g>
     </g>
     <g id="text_1">
      <!-- −5.0 -->
      <g transform="translate(57.956193 403.918437) scale(0.1 -0.1)">
       <defs>
        <path id="DejaVuSans-2212" d="M 678 2272 
L 4684 2272 
L 4684 1741 
L 678 1741 
L 678 2272 
z
" transform="scale(0.015625)"/>
        <path id="DejaVuSans-35" d="M 691 4666 
L 3169 4666 
L 3169 4134 
L 1269 4134 
L 1269 2991 
Q 1406 3038 1543 3061 
Q 1681 3084 1819 3084 
Q 2600 3084 3056 2656 
Q 3513 2228 3513 1497 
Q 3513 744 3044 326 
Q 2575 -91 1722 -91 
Q 1428 -91 1123 -41 
Q 819 9 494 109 
L 494 744 
Q 775 591 1075 516 
Q 1375 441 1709 441 
Q 2250 441 2565 725 
Q 2881 1009 2881 1497 
Q 2881 1984 2565 2268 
Q 2250 2553 1709 2553 
Q 1456 2553 1204 2497 
Q 953 2441 691 2322 
L 691 4666 
z
" transform="scale(0.015625)"/>
        <path id="DejaVuSans-2e" d="M 684 794 
L 1344 794 
L 1344 0 
L 684 0 
L 684 794 
z
" transform="scale(0.015625)"/>
        <path id="DejaVuSans-30" d="M 2034 4250 
Q 1547 4250 1301 3770 
Q 1056 3291 1056 2328 
Q 1056 1369 1301 889 
Q 1547 409 2034 409 
Q 2525 409 2770 889 
Q 3016 1369 3016 2328 
Q 3016 3291 2770 3770 
Q 2525 4250 2034 4250 
z
M 2034 4750 
Q 2819 4750 3233 4129 
Q 3647 3509 3647 2328 
Q 3647 1150 3233 529 
Q 2819 -91 2034 -91 
Q 1250 -91 836 529 
Q 422 1150 422 2328 
Q 422 3509 836 4129 
Q 1250 4750 2034 4750 
z
" transform="scale(0.015625)"/>
       </defs>
       <use xlink:href="#DejaVuSans-2212"/>
       <use xlink:href="#DejaVuSans-35" x="83.789062"/>
       <use xlink:href="#DejaVuSans-2e" x="147.412109"/>
       <use xlink:href="#DejaVuSans-30" x="179.199219"/>
      </g>
     </g>
    </g>
    <g id="xtick_2">
     <g id="line2d_2">
      <g>
       <use xlink:href="#md6c5087a41" x="118.652058" y="389.32" style="stroke: #000000; stroke-width: 0.8"/>
      </g>
     </g>
     <g id="text_2">
      <!-- −2.5 -->
      <g transform="translate(106.510652 403.918437) scale(0.1 -0.1)">
       <defs>
        <path id="DejaVuSans-32" d="M 1228 531 
L 3431 531 
L 3431 0 
L 469 0 
L 469 531 
Q 828 903 1448 1529 
Q 2069 2156 2228 2338 
Q 2531 2678 2651 2914 
Q 2772 3150 2772 3378 
Q 2772 3750 2511 3984 
Q 2250 4219 1831 4219 
Q 1534 4219 1204 4116 
Q 875 4013 500 3803 
L 500 4441 
Q 881 4594 1212 4672 
Q 1544 4750 1819 4750 
Q 2544 4750 2975 4387 
Q 3406 4025 3406 3419 
Q 3406 3131 3298 2873 
Q 3191 2616 2906 2266 
Q 2828 2175 2409 1742 
Q 1991 1309 1228 531 
z
" transform="scale(0.015625)"/>
       </defs>
       <use xlink:href="#DejaVuSans-2212"/>
       <use xlink:href="#DejaVuSans-32" x="83.789062"/>
       <use xlink:href="#DejaVuSans-2e" x="147.412109"/>
       <use xlink:href="#DejaVuSans-35" x="179.199219"/>
      </g>
     </g>
    </g>
    <g id="xtick_3">
     <g id="line2d_3">
      <g>
       <use xlink:href="#md6c5087a41" x="167.206516" y="389.32" style="stroke: #000000; stroke-width: 0.8"/>
      </g>
     </g>
     <g id="text_3">
      <!-- 0.0 -->
      <g transform="translate(159.254954 403.918437) scale(0.1 -0.1)">
       <use xlink:href="#DejaVuSans-30"/>
       <use xlink:href="#DejaVuSans-2e" x="63.623047"/>
       <use xlink:href="#DejaVuSans-30" x="95.410156"/>
      </g>
     </g>
    </g>
    <g id="xtick_4">
     <g id="line2d_4">
      <g>
       <use xlink:href="#md6c5087a41" x="215.760975" y="389.32" style="stroke: #000000; stroke-width: 0.8"/>
      </g>
     </g>
     <g id="text_4">
      <!-- 2.5 -->
      <g transform="translate(207.809412 403.918437) scale(0.1 -0.1)">
       <use xlink:href="#DejaVuSans-32"/>
       <use xlink:href="#DejaVuSans-2e" x="63.623047"/>
       <use xlink:href="#DejaVuSans-35" x="95.410156"/>
      </g>
     </g>
    </g>
    <g id="xtick_5">
     <g id="line2d_5">
      <g>
       <use xlink:href="#md6c5087a41" x="264.315433" y="389.32" style="stroke: #000000; stroke-width: 0.8"/>
      </g>
     </g>
     <g id="text_5">
      <!-- 5.0 -->
      <g transform="translate(256.36387 403.918437) scale(0.1 -0.1)">
       <use xlink:href="#DejaVuSans-35"/>
       <use xlink:href="#DejaVuSans-2e" x="63.623047"/>
       <use xlink:href="#DejaVuSans-30" x="95.410156"/>
      </g>
     </g>
    </g>
    <g id="xtick_6">
     <g id="line2d_6">
      <g>
       <use xlink:href="#md6c5087a41" x="312.869891" y="389.32" style="stroke: #000000; stroke-width: 0.8"/>
      </g>
     </g>
     <g id="text_6">
      <!-- 7.5 -->
      <g transform="translate(304.918329 403.918437) scale(0.1 -0.1)">
       <defs>
        <path id="DejaVuSans-37" d="M 525 4666 
L 3525 4666 
L 3525 4397 
L 1831 0 
L 1172 0 
L 2766 4134 
L 525 4134 
L 525 4666 
z
" transform="scale(0.015625)"/>
       </defs>
       <use xlink:href="#DejaVuSans-37"/>
       <use xlink:href="#DejaVuSans-2e" x="63.623047"/>
       <use xlink:href="#DejaVuSans-35" x="95.410156"/>
      </g>
     </g>
    </g>
    <g id="xtick_7">
     <g id="line2d_7">
      <g>
       <use xlink:href="#md6c5087a41" x="361.42435" y="389.32" style="stroke: #000000; stroke-width: 0.8"/>
      </g>
     </g>
     <g id="text_7">
      <!-- 10.0 -->
      <g transform="translate(350.291537 403.918437) scale(0.1 -0.1)">
       <defs>
        <path id="DejaVuSans-31" d="M 794 531 
L 1825 531 
L 1825 4091 
L 703 3866 
L 703 4441 
L 1819 4666 
L 2450 4666 
L 2450 531 
L 3481 531 
L 3481 0 
L 794 0 
L 794 531 
z
" transform="scale(0.015625)"/>
       </defs>
       <use xlink:href="#DejaVuSans-31"/>
       <use xlink:href="#DejaVuSans-30" x="63.623047"/>
       <use xlink:href="#DejaVuSans-2e" x="127.246094"/>
       <use xlink:href="#DejaVuSans-30" x="159.033203"/>
      </g>
     </g>
    </g>
    <g id="xtick_8">
     <g id="line2d_8">
      <g>
       <use xlink:href="#md6c5087a41" x="409.978808" y="389.32" style="stroke: #000000; stroke-width: 0.8"/>
      </g>
     </g>
     <g id="text_8">
      <!-- 12.5 -->
      <g transform="translate(398.845996 403.918437) scale(0.1 -0.1)">
       <use xlink:href="#DejaVuSans-31"/>
       <use xlink:href="#DejaVuSans-32" x="63.623047"/>
       <use xlink:href="#DejaVuSans-2e" x="127.246094"/>
       <use xlink:href="#DejaVuSans-35" x="159.033203"/>
      </g>
     </g>
    </g>
    <g id="text_9">
     <!-- Predicted Fluorescence -->
     <g transform="translate(164.876119 419.11625) scale(0.12 -0.12)">
      <defs>
       <path id="DejaVuSans-50" d="M 1259 4147 
L 1259 2394 
L 2053 2394 
Q 2494 2394 2734 2622 
Q 2975 2850 2975 3272 
Q 2975 3691 2734 3919 
Q 2494 4147 2053 4147 
L 1259 4147 
z
M 628 4666 
L 2053 4666 
Q 2838 4666 3239 4311 
Q 3641 3956 3641 3272 
Q 3641 2581 3239 2228 
Q 2838 1875 2053 1875 
L 1259 1875 
L 1259 0 
L 628 0 
L 628 4666 
z
" transform="scale(0.015625)"/>
       <path id="DejaVuSans-72" d="M 2631 2963 
Q 2534 3019 2420 3045 
Q 2306 3072 2169 3072 
Q 1681 3072 1420 2755 
Q 1159 2438 1159 1844 
L 1159 0 
L 581 0 
L 581 3500 
L 1159 3500 
L 1159 2956 
Q 1341 3275 1631 3429 
Q 1922 3584 2338 3584 
Q 2397 3584 2469 3576 
Q 2541 3569 2628 3553 
L 2631 2963 
z
" transform="scale(0.015625)"/>
       <path id="DejaVuSans-65" d="M 3597 1894 
L 3597 1613 
L 953 1613 
Q 991 1019 1311 708 
Q 1631 397 2203 397 
Q 2534 397 2845 478 
Q 3156 559 3463 722 
L 3463 178 
Q 3153 47 2828 -22 
Q 2503 -91 2169 -91 
Q 1331 -91 842 396 
Q 353 884 353 1716 
Q 353 2575 817 3079 
Q 1281 3584 2069 3584 
Q 2775 3584 3186 3129 
Q 3597 2675 3597 1894 
z
M 3022 2063 
Q 3016 2534 2758 2815 
Q 2500 3097 2075 3097 
Q 1594 3097 1305 2825 
Q 1016 2553 972 2059 
L 3022 2063 
z
" transform="scale(0.015625)"/>
       <path id="DejaVuSans-64" d="M 2906 2969 
L 2906 4863 
L 3481 4863 
L 3481 0 
L 2906 0 
L 2906 525 
Q 2725 213 2448 61 
Q 2172 -91 1784 -91 
Q 1150 -91 751 415 
Q 353 922 353 1747 
Q 353 2572 751 3078 
Q 1150 3584 1784 3584 
Q 2172 3584 2448 3432 
Q 2725 3281 2906 2969 
z
M 947 1747 
Q 947 1113 1208 752 
Q 1469 391 1925 391 
Q 2381 391 2643 752 
Q 2906 1113 2906 1747 
Q 2906 2381 2643 2742 
Q 2381 3103 1925 3103 
Q 1469 3103 1208 2742 
Q 947 2381 947 1747 
z
" transform="scale(0.015625)"/>
       <path id="DejaVuSans-69" d="M 603 3500 
L 1178 3500 
L 1178 0 
L 603 0 
L 603 3500 
z
M 603 4863 
L 1178 4863 
L 1178 4134 
L 603 4134 
L 603 4863 
z
" transform="scale(0.015625)"/>
       <path id="DejaVuSans-63" d="M 3122 3366 
L 3122 2828 
Q 2878 2963 2633 3030 
Q 2388 3097 2138 3097 
Q 1578 3097 1268 2742 
Q 959 2388 959 1747 
Q 959 1106 1268 751 
Q 1578 397 2138 397 
Q 2388 397 2633 464 
Q 2878 531 3122 666 
L 3122 134 
Q 2881 22 2623 -34 
Q 2366 -91 2075 -91 
Q 1284 -91 818 406 
Q 353 903 353 1747 
Q 353 2603 823 3093 
Q 1294 3584 2113 3584 
Q 2378 3584 2631 3529 
Q 2884 3475 3122 3366 
z
" transform="scale(0.015625)"/>
       <path id="DejaVuSans-74" d="M 1172 4494 
L 1172 3500 
L 2356 3500 
L 2356 3053 
L 1172 3053 
L 1172 1153 
Q 1172 725 1289 603 
Q 1406 481 1766 481 
L 2356 481 
L 2356 0 
L 1766 0 
Q 1100 0 847 248 
Q 594 497 594 1153 
L 594 3053 
L 172 3053 
L 172 3500 
L 594 3500 
L 594 4494 
L 1172 4494 
z
" transform="scale(0.015625)"/>
       <path id="DejaVuSans-20" transform="scale(0.015625)"/>
       <path id="DejaVuSans-46" d="M 628 4666 
L 3309 4666 
L 3309 4134 
L 1259 4134 
L 1259 2759 
L 3109 2759 
L 3109 2228 
L 1259 2228 
L 1259 0 
L 628 0 
L 628 4666 
z
" transform="scale(0.015625)"/>
       <path id="DejaVuSans-6c" d="M 603 4863 
L 1178 4863 
L 1178 0 
L 603 0 
L 603 4863 
z
" transform="scale(0.015625)"/>
       <path id="DejaVuSans-75" d="M 544 1381 
L 544 3500 
L 1119 3500 
L 1119 1403 
Q 1119 906 1312 657 
Q 1506 409 1894 409 
Q 2359 409 2629 706 
Q 2900 1003 2900 1516 
L 2900 3500 
L 3475 3500 
L 3475 0 
L 2900 0 
L 2900 538 
Q 2691 219 2414 64 
Q 2138 -91 1772 -91 
Q 1169 -91 856 284 
Q 544 659 544 1381 
z
M 1991 3584 
L 1991 3584 
z
" transform="scale(0.015625)"/>
       <path id="DejaVuSans-6f" d="M 1959 3097 
Q 1497 3097 1228 2736 
Q 959 2375 959 1747 
Q 959 1119 1226 758 
Q 1494 397 1959 397 
Q 2419 397 2687 759 
Q 2956 1122 2956 1747 
Q 2956 2369 2687 2733 
Q 2419 3097 1959 3097 
z
M 1959 3584 
Q 2709 3584 3137 3096 
Q 3566 2609 3566 1747 
Q 3566 888 3137 398 
Q 2709 -91 1959 -91 
Q 1206 -91 779 398 
Q 353 888 353 1747 
Q 353 2609 779 3096 
Q 1206 3584 1959 3584 
z
" transform="scale(0.015625)"/>
       <path id="DejaVuSans-73" d="M 2834 3397 
L 2834 2853 
Q 2591 2978 2328 3040 
Q 2066 3103 1784 3103 
Q 1356 3103 1142 2972 
Q 928 2841 928 2578 
Q 928 2378 1081 2264 
Q 1234 2150 1697 2047 
L 1894 2003 
Q 2506 1872 2764 1633 
Q 3022 1394 3022 966 
Q 3022 478 2636 193 
Q 2250 -91 1575 -91 
Q 1294 -91 989 -36 
Q 684 19 347 128 
L 347 722 
Q 666 556 975 473 
Q 1284 391 1588 391 
Q 1994 391 2212 530 
Q 2431 669 2431 922 
Q 2431 1156 2273 1281 
Q 2116 1406 1581 1522 
L 1381 1569 
Q 847 1681 609 1914 
Q 372 2147 372 2553 
Q 372 3047 722 3315 
Q 1072 3584 1716 3584 
Q 2034 3584 2315 3537 
Q 2597 3491 2834 3397 
z
" transform="scale(0.015625)"/>
       <path id="DejaVuSans-6e" d="M 3513 2113 
L 3513 0 
L 2938 0 
L 2938 2094 
Q 2938 2591 2744 2837 
Q 2550 3084 2163 3084 
Q 1697 3084 1428 2787 
Q 1159 2491 1159 1978 
L 1159 0 
L 581 0 
L 581 3500 
L 1159 3500 
L 1159 2956 
Q 1366 3272 1645 3428 
Q 1925 3584 2291 3584 
Q 2894 3584 3203 3211 
Q 3513 2838 3513 2113 
z
" transform="scale(0.015625)"/>
      </defs>
      <use xlink:href="#DejaVuSans-50"/>
      <use xlink:href="#DejaVuSans-72" x="58.552734"/>
      <use xlink:href="#DejaVuSans-65" x="97.416016"/>
      <use xlink:href="#DejaVuSans-64" x="158.939453"/>
      <use xlink:href="#DejaVuSans-69" x="222.416016"/>
      <use xlink:href="#DejaVuSans-63" x="250.199219"/>
      <use xlink:href="#DejaVuSans-74" x="305.179688"/>
      <use xlink:href="#DejaVuSans-65" x="344.388672"/>
      <use xlink:href="#DejaVuSans-64" x="405.912109"/>
      <use xlink:href="#DejaVuSans-20" x="469.388672"/>
      <use xlink:href="#DejaVuSans-46" x="501.175781"/>
      <use xlink:href="#DejaVuSans-6c" x="558.695312"/>
      <use xlink:href="#DejaVuSans-75" x="586.478516"/>
      <use xlink:href="#DejaVuSans-6f" x="649.857422"/>
      <use xlink:href="#DejaVuSans-72" x="711.039062"/>
      <use xlink:href="#DejaVuSans-65" x="749.902344"/>
      <use xlink:href="#DejaVuSans-73" x="811.425781"/>
      <use xlink:href="#DejaVuSans-63" x="863.525391"/>
      <use xlink:href="#DejaVuSans-65" x="918.505859"/>
      <use xlink:href="#DejaVuSans-6e" x="980.029297"/>
      <use xlink:href="#DejaVuSans-63" x="1043.408203"/>
      <use xlink:href="#DejaVuSans-65" x="1098.388672"/>
     </g>
    </g>
   </g>
   <g id="matplotlib.axis_2">
    <g id="ytick_1">
     <g id="line2d_9">
      <defs>
       <path id="m3fce166079" d="M 0 0 
L -3.5 0 
" style="stroke: #000000; stroke-width: 0.8"/>
      </defs>
      <g>
       <use xlink:href="#m3fce166079" x="57.8" y="389.32" style="stroke: #000000; stroke-width: 0.8"/>
      </g>
     </g>
     <g id="text_10">
      <!-- 0.00 -->
      <g transform="translate(28.534375 393.119219) scale(0.1 -0.1)">
       <use xlink:href="#DejaVuSans-30"/>
       <use xlink:href="#DejaVuSans-2e" x="63.623047"/>
       <use xlink:href="#DejaVuSans-30" x="95.410156"/>
       <use xlink:href="#DejaVuSans-30" x="159.033203"/>
      </g>
     </g>
    </g>
    <g id="ytick_2">
     <g id="line2d_10">
      <g>
       <use xlink:href="#m3fce166079" x="57.8" y="314.444998" style="stroke: #000000; stroke-width: 0.8"/>
      </g>
     </g>
     <g id="text_11">
      <!-- 0.05 -->
      <g transform="translate(28.534375 318.244216) scale(0.1 -0.1)">
       <use xlink:href="#DejaVuSans-30"/>
       <use xlink:href="#DejaVuSans-2e" x="63.623047"/>
       <use xlink:href="#DejaVuSans-30" x="95.410156"/>
       <use xlink:href="#DejaVuSans-35" x="159.033203"/>
      </g>
     </g>
    </g>
    <g id="ytick_3">
     <g id="line2d_11">
      <g>
       <use xlink:href="#m3fce166079" x="57.8" y="239.569995" style="stroke: #000000; stroke-width: 0.8"/>
      </g>
     </g>
     <g id="text_12">
      <!-- 0.10 -->
      <g transform="translate(28.534375 243.369214) scale(0.1 -0.1)">
       <use xlink:href="#DejaVuSans-30"/>
       <use xlink:href="#DejaVuSans-2e" x="63.623047"/>
       <use xlink:href="#DejaVuSans-31" x="95.410156"/>
       <use xlink:href="#DejaVuSans-30" x="159.033203"/>
      </g>
     </g>
    </g>
    <g id="ytick_4">
     <g id="line2d_12">
      <g>
       <use xlink:href="#m3fce166079" x="57.8" y="164.694993" style="stroke: #000000; stroke-width: 0.8"/>
      </g>
     </g>
     <g id="text_13">
      <!-- 0.15 -->
      <g transform="translate(28.534375 168.494212) scale(0.1 -0.1)">
       <use xlink:href="#DejaVuSans-30"/>
       <use xlink:href="#DejaVuSans-2e" x="63.623047"/>
       <use xlink:href="#DejaVuSans-31" x="95.410156"/>
       <use xlink:href="#DejaVuSans-35" x="159.033203"/>
      </g>
     </g>
    </g>
    <g id="ytick_5">
     <g id="line2d_13">
      <g>
       <use xlink:href="#m3fce166079" x="57.8" y="89.819991" style="stroke: #000000; stroke-width: 0.8"/>
      </g>
     </g>
     <g id="text_14">
      <!-- 0.20 -->
      <g transform="translate(28.534375 93.619209) scale(0.1 -0.1)">
       <use xlink:href="#DejaVuSans-30"/>
       <use xlink:href="#DejaVuSans-2e" x="63.623047"/>
       <use xlink:href="#DejaVuSans-32" x="95.410156"/>
       <use xlink:href="#DejaVuSans-30" x="159.033203"/>
      </g>
     </g>
    </g>
    <g id="ytick_6">
     <g id="line2d_14">
      <g>
       <use xlink:href="#m3fce166079" x="57.8" y="14.944988" style="stroke: #000000; stroke-width: 0.8"/>
      </g>
     </g>
     <g id="text_15">
      <!-- 0.25 -->
      <g transform="translate(28.534375 18.744207) scale(0.1 -0.1)">
       <use xlink:href="#DejaVuSans-30"/>
       <use xlink:href="#DejaVuSans-2e" x="63.623047"/>
       <use xlink:href="#DejaVuSans-32" x="95.410156"/>
       <use xlink:href="#DejaVuSans-35" x="159.033203"/>
      </g>
     </g>
    </g>
    <g id="text_16">
     <!-- Density -->
     <g transform="translate(21.622813 227.942124) rotate(-90) scale(0.14 -0.14)">
      <defs>
       <path id="DejaVuSans-44" d="M 1259 4147 
L 1259 519 
L 2022 519 
Q 2988 519 3436 956 
Q 3884 1394 3884 2338 
Q 3884 3275 3436 3711 
Q 2988 4147 2022 4147 
L 1259 4147 
z
M 628 4666 
L 1925 4666 
Q 3281 4666 3915 4102 
Q 4550 3538 4550 2338 
Q 4550 1131 3912 565 
Q 3275 0 1925 0 
L 628 0 
L 628 4666 
z
" transform="scale(0.015625)"/>
       <path id="DejaVuSans-79" d="M 2059 -325 
Q 1816 -950 1584 -1140 
Q 1353 -1331 966 -1331 
L 506 -1331 
L 506 -850 
L 844 -850 
Q 1081 -850 1212 -737 
Q 1344 -625 1503 -206 
L 1606 56 
L 191 3500 
L 800 3500 
L 1894 763 
L 2988 3500 
L 3597 3500 
L 2059 -325 
z
" transform="scale(0.015625)"/>
      </defs>
      <use xlink:href="#DejaVuSans-44"/>
      <use xlink:href="#DejaVuSans-65" x="77.001953"/>
      <use xlink:href="#DejaVuSans-6e" x="138.525391"/>
      <use xlink:href="#DejaVuSans-73" x="201.904297"/>
      <use xlink:href="#DejaVuSans-69" x="254.003906"/>
      <use xlink:href="#DejaVuSans-74" x="281.787109"/>
      <use xlink:href="#DejaVuSans-79" x="320.996094"/>
     </g>
    </g>
   </g>
   <g id="line2d_15">
    <path d="M 131.520062 389.32 
L 131.520062 13.340185 
" clip-path="url(#pd809715584)" style="fill: none; stroke-dasharray: 3.7,1.6; stroke-dashoffset: 0; stroke: #000000"/>
   </g>
   <g id="patch_3">
    <path d="M 57.8 389.32 
L 57.8 13.340185 
" style="fill: none; stroke: #000000; stroke-width: 0.8; stroke-linejoin: miter; stroke-linecap: square"/>
   </g>
   <g id="patch_4">
    <path d="M 57.8 389.32 
L 411.144738 389.32 
" style="fill: none; stroke: #000000; stroke-width: 0.8; stroke-linejoin: miter; stroke-linecap: square"/>
   </g>
   <g id="legend_1">
    <g id="patch_5">
     <path d="M 247.3338 80.052685 
L 404.144738 80.052685 
Q 406.144738 80.052685 406.144738 78.052685 
L 406.144738 20.340185 
Q 406.144738 18.340185 404.144738 18.340185 
L 247.3338 18.340185 
Q 245.3338 18.340185 245.3338 20.340185 
L 245.3338 78.052685 
Q 245.3338 80.052685 247.3338 80.052685 
z
" style="fill: #ffffff; opacity: 0.8; stroke: #cccccc; stroke-linejoin: miter"/>
    </g>
    <g id="patch_6">
     <path d="M 249.3338 29.938623 
L 269.3338 29.938623 
L 269.3338 22.938623 
L 249.3338 22.938623 
z
" style="fill: #bdbdbd; fill-opacity: 0.5; stroke: #bdbdbd; stroke-width: 2.5; stroke-linejoin: miter"/>
    </g>
    <g id="text_17">
     <!-- Pre-trained ESM2 (650M) -->
     <g transform="translate(277.3338 29.938623) scale(0.1 -0.1)">
      <defs>
       <path id="DejaVuSans-2d" d="M 313 2009 
L 1997 2009 
L 1997 1497 
L 313 1497 
L 313 2009 
z
" transform="scale(0.015625)"/>
       <path id="DejaVuSans-61" d="M 2194 1759 
Q 1497 1759 1228 1600 
Q 959 1441 959 1056 
Q 959 750 1161 570 
Q 1363 391 1709 391 
Q 2188 391 2477 730 
Q 2766 1069 2766 1631 
L 2766 1759 
L 2194 1759 
z
M 3341 1997 
L 3341 0 
L 2766 0 
L 2766 531 
Q 2569 213 2275 61 
Q 1981 -91 1556 -91 
Q 1019 -91 701 211 
Q 384 513 384 1019 
Q 384 1609 779 1909 
Q 1175 2209 1959 2209 
L 2766 2209 
L 2766 2266 
Q 2766 2663 2505 2880 
Q 2244 3097 1772 3097 
Q 1472 3097 1187 3025 
Q 903 2953 641 2809 
L 641 3341 
Q 956 3463 1253 3523 
Q 1550 3584 1831 3584 
Q 2591 3584 2966 3190 
Q 3341 2797 3341 1997 
z
" transform="scale(0.015625)"/>
       <path id="DejaVuSans-45" d="M 628 4666 
L 3578 4666 
L 3578 4134 
L 1259 4134 
L 1259 2753 
L 3481 2753 
L 3481 2222 
L 1259 2222 
L 1259 531 
L 3634 531 
L 3634 0 
L 628 0 
L 628 4666 
z
" transform="scale(0.015625)"/>
       <path id="DejaVuSans-53" d="M 3425 4513 
L 3425 3897 
Q 3066 4069 2747 4153 
Q 2428 4238 2131 4238 
Q 1616 4238 1336 4038 
Q 1056 3838 1056 3469 
Q 1056 3159 1242 3001 
Q 1428 2844 1947 2747 
L 2328 2669 
Q 3034 2534 3370 2195 
Q 3706 1856 3706 1288 
Q 3706 609 3251 259 
Q 2797 -91 1919 -91 
Q 1588 -91 1214 -16 
Q 841 59 441 206 
L 441 856 
Q 825 641 1194 531 
Q 1563 422 1919 422 
Q 2459 422 2753 634 
Q 3047 847 3047 1241 
Q 3047 1584 2836 1778 
Q 2625 1972 2144 2069 
L 1759 2144 
Q 1053 2284 737 2584 
Q 422 2884 422 3419 
Q 422 4038 858 4394 
Q 1294 4750 2059 4750 
Q 2388 4750 2728 4690 
Q 3069 4631 3425 4513 
z
" transform="scale(0.015625)"/>
       <path id="DejaVuSans-4d" d="M 628 4666 
L 1569 4666 
L 2759 1491 
L 3956 4666 
L 4897 4666 
L 4897 0 
L 4281 0 
L 4281 4097 
L 3078 897 
L 2444 897 
L 1241 4097 
L 1241 0 
L 628 0 
L 628 4666 
z
" transform="scale(0.015625)"/>
       <path id="DejaVuSans-28" d="M 1984 4856 
Q 1566 4138 1362 3434 
Q 1159 2731 1159 2009 
Q 1159 1288 1364 580 
Q 1569 -128 1984 -844 
L 1484 -844 
Q 1016 -109 783 600 
Q 550 1309 550 2009 
Q 550 2706 781 3412 
Q 1013 4119 1484 4856 
L 1984 4856 
z
" transform="scale(0.015625)"/>
       <path id="DejaVuSans-36" d="M 2113 2584 
Q 1688 2584 1439 2293 
Q 1191 2003 1191 1497 
Q 1191 994 1439 701 
Q 1688 409 2113 409 
Q 2538 409 2786 701 
Q 3034 994 3034 1497 
Q 3034 2003 2786 2293 
Q 2538 2584 2113 2584 
z
M 3366 4563 
L 3366 3988 
Q 3128 4100 2886 4159 
Q 2644 4219 2406 4219 
Q 1781 4219 1451 3797 
Q 1122 3375 1075 2522 
Q 1259 2794 1537 2939 
Q 1816 3084 2150 3084 
Q 2853 3084 3261 2657 
Q 3669 2231 3669 1497 
Q 3669 778 3244 343 
Q 2819 -91 2113 -91 
Q 1303 -91 875 529 
Q 447 1150 447 2328 
Q 447 3434 972 4092 
Q 1497 4750 2381 4750 
Q 2619 4750 2861 4703 
Q 3103 4656 3366 4563 
z
" transform="scale(0.015625)"/>
       <path id="DejaVuSans-29" d="M 513 4856 
L 1013 4856 
Q 1481 4119 1714 3412 
Q 1947 2706 1947 2009 
Q 1947 1309 1714 600 
Q 1481 -109 1013 -844 
L 513 -844 
Q 928 -128 1133 580 
Q 1338 1288 1338 2009 
Q 1338 2731 1133 3434 
Q 928 4138 513 4856 
z
" transform="scale(0.015625)"/>
      </defs>
      <use xlink:href="#DejaVuSans-50"/>
      <use xlink:href="#DejaVuSans-72" x="58.552734"/>
      <use xlink:href="#DejaVuSans-65" x="97.416016"/>
      <use xlink:href="#DejaVuSans-2d" x="158.939453"/>
      <use xlink:href="#DejaVuSans-74" x="195.023438"/>
      <use xlink:href="#DejaVuSans-72" x="234.232422"/>
      <use xlink:href="#DejaVuSans-61" x="275.345703"/>
      <use xlink:href="#DejaVuSans-69" x="336.625"/>
      <use xlink:href="#DejaVuSans-6e" x="364.408203"/>
      <use xlink:href="#DejaVuSans-65" x="427.787109"/>
      <use xlink:href="#DejaVuSans-64" x="489.310547"/>
      <use xlink:href="#DejaVuSans-20" x="552.787109"/>
      <use xlink:href="#DejaVuSans-45" x="584.574219"/>
      <use xlink:href="#DejaVuSans-53" x="647.757812"/>
      <use xlink:href="#DejaVuSans-4d" x="711.234375"/>
      <use xlink:href="#DejaVuSans-32" x="797.513672"/>
      <use xlink:href="#DejaVuSans-20" x="861.136719"/>
      <use xlink:href="#DejaVuSans-28" x="892.923828"/>
      <use xlink:href="#DejaVuSans-36" x="931.9375"/>
      <use xlink:href="#DejaVuSans-35" x="995.560547"/>
      <use xlink:href="#DejaVuSans-30" x="1059.183594"/>
      <use xlink:href="#DejaVuSans-4d" x="1122.806641"/>
      <use xlink:href="#DejaVuSans-29" x="1209.085938"/>
     </g>
    </g>
    <g id="patch_7">
     <path d="M 249.3338 44.616748 
L 269.3338 44.616748 
L 269.3338 37.616748 
L 249.3338 37.616748 
z
" style="fill: #92c5de; fill-opacity: 0.5; stroke: #92c5de; stroke-width: 2.5; stroke-linejoin: miter"/>
    </g>
    <g id="text_18">
     <!-- SFT ESM2 (650M) -->
     <g transform="translate(277.3338 44.616748) scale(0.1 -0.1)">
      <defs>
       <path id="DejaVuSans-54" d="M -19 4666 
L 3928 4666 
L 3928 4134 
L 2272 4134 
L 2272 0 
L 1638 0 
L 1638 4134 
L -19 4134 
L -19 4666 
z
" transform="scale(0.015625)"/>
      </defs>
      <use xlink:href="#DejaVuSans-53"/>
      <use xlink:href="#DejaVuSans-46" x="63.476562"/>
      <use xlink:href="#DejaVuSans-54" x="119.246094"/>
      <use xlink:href="#DejaVuSans-20" x="180.330078"/>
      <use xlink:href="#DejaVuSans-45" x="212.117188"/>
      <use xlink:href="#DejaVuSans-53" x="275.300781"/>
      <use xlink:href="#DejaVuSans-4d" x="338.777344"/>
      <use xlink:href="#DejaVuSans-32" x="425.056641"/>
      <use xlink:href="#DejaVuSans-20" x="488.679688"/>
      <use xlink:href="#DejaVuSans-28" x="520.466797"/>
      <use xlink:href="#DejaVuSans-36" x="559.480469"/>
      <use xlink:href="#DejaVuSans-35" x="623.103516"/>
      <use xlink:href="#DejaVuSans-30" x="686.726562"/>
      <use xlink:href="#DejaVuSans-4d" x="750.349609"/>
      <use xlink:href="#DejaVuSans-29" x="836.628906"/>
     </g>
    </g>
    <g id="patch_8">
     <path d="M 249.3338 59.294873 
L 269.3338 59.294873 
L 269.3338 52.294873 
L 249.3338 52.294873 
z
" style="fill: #2166ac; fill-opacity: 0.5; stroke: #2166ac; stroke-width: 2.5; stroke-linejoin: miter"/>
    </g>
    <g id="text_19">
     <!-- Aligned ESM2 (650M) -->
     <g transform="translate(277.3338 59.294873) scale(0.1 -0.1)">
      <defs>
       <path id="DejaVuSans-41" d="M 2188 4044 
L 1331 1722 
L 3047 1722 
L 2188 4044 
z
M 1831 4666 
L 2547 4666 
L 4325 0 
L 3669 0 
L 3244 1197 
L 1141 1197 
L 716 0 
L 50 0 
L 1831 4666 
z
" transform="scale(0.015625)"/>
       <path id="DejaVuSans-67" d="M 2906 1791 
Q 2906 2416 2648 2759 
Q 2391 3103 1925 3103 
Q 1463 3103 1205 2759 
Q 947 2416 947 1791 
Q 947 1169 1205 825 
Q 1463 481 1925 481 
Q 2391 481 2648 825 
Q 2906 1169 2906 1791 
z
M 3481 434 
Q 3481 -459 3084 -895 
Q 2688 -1331 1869 -1331 
Q 1566 -1331 1297 -1286 
Q 1028 -1241 775 -1147 
L 775 -588 
Q 1028 -725 1275 -790 
Q 1522 -856 1778 -856 
Q 2344 -856 2625 -561 
Q 2906 -266 2906 331 
L 2906 616 
Q 2728 306 2450 153 
Q 2172 0 1784 0 
Q 1141 0 747 490 
Q 353 981 353 1791 
Q 353 2603 747 3093 
Q 1141 3584 1784 3584 
Q 2172 3584 2450 3431 
Q 2728 3278 2906 2969 
L 2906 3500 
L 3481 3500 
L 3481 434 
z
" transform="scale(0.015625)"/>
      </defs>
      <use xlink:href="#DejaVuSans-41"/>
      <use xlink:href="#DejaVuSans-6c" x="68.408203"/>
      <use xlink:href="#DejaVuSans-69" x="96.191406"/>
      <use xlink:href="#DejaVuSans-67" x="123.974609"/>
      <use xlink:href="#DejaVuSans-6e" x="187.451172"/>
      <use xlink:href="#DejaVuSans-65" x="250.830078"/>
      <use xlink:href="#DejaVuSans-64" x="312.353516"/>
      <use xlink:href="#DejaVuSans-20" x="375.830078"/>
      <use xlink:href="#DejaVuSans-45" x="407.617188"/>
      <use xlink:href="#DejaVuSans-53" x="470.800781"/>
      <use xlink:href="#DejaVuSans-4d" x="534.277344"/>
      <use xlink:href="#DejaVuSans-32" x="620.556641"/>
      <use xlink:href="#DejaVuSans-20" x="684.179688"/>
      <use xlink:href="#DejaVuSans-28" x="715.966797"/>
      <use xlink:href="#DejaVuSans-36" x="754.980469"/>
      <use xlink:href="#DejaVuSans-35" x="818.603516"/>
      <use xlink:href="#DejaVuSans-30" x="882.226562"/>
      <use xlink:href="#DejaVuSans-4d" x="945.849609"/>
      <use xlink:href="#DejaVuSans-29" x="1032.128906"/>
     </g>
    </g>
    <g id="line2d_16">
     <path d="M 249.3338 70.472998 
L 259.3338 70.472998 
L 269.3338 70.472998 
" style="fill: none; stroke-dasharray: 3.7,1.6; stroke-dashoffset: 0; stroke: #000000"/>
    </g>
    <g id="text_20">
     <!-- Predicted pab1 score -->
     <g transform="translate(277.3338 73.972998) scale(0.1 -0.1)">
      <defs>
       <path id="DejaVuSans-70" d="M 1159 525 
L 1159 -1331 
L 581 -1331 
L 581 3500 
L 1159 3500 
L 1159 2969 
Q 1341 3281 1617 3432 
Q 1894 3584 2278 3584 
Q 2916 3584 3314 3078 
Q 3713 2572 3713 1747 
Q 3713 922 3314 415 
Q 2916 -91 2278 -91 
Q 1894 -91 1617 61 
Q 1341 213 1159 525 
z
M 3116 1747 
Q 3116 2381 2855 2742 
Q 2594 3103 2138 3103 
Q 1681 3103 1420 2742 
Q 1159 2381 1159 1747 
Q 1159 1113 1420 752 
Q 1681 391 2138 391 
Q 2594 391 2855 752 
Q 3116 1113 3116 1747 
z
" transform="scale(0.015625)"/>
       <path id="DejaVuSans-62" d="M 3116 1747 
Q 3116 2381 2855 2742 
Q 2594 3103 2138 3103 
Q 1681 3103 1420 2742 
Q 1159 2381 1159 1747 
Q 1159 1113 1420 752 
Q 1681 391 2138 391 
Q 2594 391 2855 752 
Q 3116 1113 3116 1747 
z
M 1159 2969 
Q 1341 3281 1617 3432 
Q 1894 3584 2278 3584 
Q 2916 3584 3314 3078 
Q 3713 2572 3713 1747 
Q 3713 922 3314 415 
Q 2916 -91 2278 -91 
Q 1894 -91 1617 61 
Q 1341 213 1159 525 
L 1159 0 
L 581 0 
L 581 4863 
L 1159 4863 
L 1159 2969 
z
" transform="scale(0.015625)"/>
      </defs>
      <use xlink:href="#DejaVuSans-50"/>
      <use xlink:href="#DejaVuSans-72" x="58.552734"/>
      <use xlink:href="#DejaVuSans-65" x="97.416016"/>
      <use xlink:href="#DejaVuSans-64" x="158.939453"/>
      <use xlink:href="#DejaVuSans-69" x="222.416016"/>
      <use xlink:href="#DejaVuSans-63" x="250.199219"/>
      <use xlink:href="#DejaVuSans-74" x="305.179688"/>
      <use xlink:href="#DejaVuSans-65" x="344.388672"/>
      <use xlink:href="#DejaVuSans-64" x="405.912109"/>
      <use xlink:href="#DejaVuSans-20" x="469.388672"/>
      <use xlink:href="#DejaVuSans-70" x="501.175781"/>
      <use xlink:href="#DejaVuSans-61" x="564.652344"/>
      <use xlink:href="#DejaVuSans-62" x="625.931641"/>
      <use xlink:href="#DejaVuSans-31" x="689.408203"/>
      <use xlink:href="#DejaVuSans-20" x="753.03125"/>
      <use xlink:href="#DejaVuSans-73" x="784.818359"/>
      <use xlink:href="#DejaVuSans-63" x="836.917969"/>
      <use xlink:href="#DejaVuSans-6f" x="891.898438"/>
      <use xlink:href="#DejaVuSans-72" x="953.080078"/>
      <use xlink:href="#DejaVuSans-65" x="991.943359"/>
     </g>
    </g>
   </g>
  </g>
 </g>
 <defs>
  <clipPath id="pd809715584">
   <rect x="57.8" y="13.340185" width="353.344738" height="375.979815"/>
  </clipPath>
 </defs>
</svg>
