<?xml version="1.0" encoding="utf-8" standalone="no"?>
<!DOCTYPE svg PUBLIC "-//W3C//DTD SVG 1.1//EN"
  "http://www.w3.org/Graphics/SVG/1.1/DTD/svg11.dtd">
<svg xmlns:xlink="http://www.w3.org/1999/xlink" width="432pt" height="432pt" viewBox="0 0 432 432" xmlns="http://www.w3.org/2000/svg" version="1.1">
 <metadata>
  <rdf:RDF xmlns:dc="http://purl.org/dc/elements/1.1/" xmlns:cc="http://creativecommons.org/ns#" xmlns:rdf="http://www.w3.org/1999/02/22-rdf-syntax-ns#">
   <cc:Work>
    <dc:type rdf:resource="http://purl.org/dc/dcmitype/StillImage"/>
    <dc:date>2025-04-25T09:27:08.346566</dc:date>
    <dc:format>image/svg+xml</dc:format>
    <dc:creator>
     <cc:Agent>
      <dc:title>Matplotlib v3.7.1, https://matplotlib.org/</dc:title>
     </cc:Agent>
    </dc:creator>
   </cc:Work>
  </rdf:RDF>
 </metadata>
 <defs>
  <style type="text/css">*{stroke-linejoin: round; stroke-linecap: butt}</style>
 </defs>
 <g id="figure_1">
  <g id="patch_1">
   <path d="M 0 432 
L 432 432 
L 432 0 
L 0 0 
z
" style="fill: #ffffff"/>
  </g>
  <g id="axes_1">
   <g id="patch_2">
    <path d="M 51.455 388.24 
L 421.2 388.24 
L 421.2 10.8 
L 51.455 10.8 
z
" style="fill: #ffffff"/>
   </g>
   <g id="PolyCollection_1">
    <defs>
     <path id="m3c65027182" d="M 68.261591 -43.767738 
L 68.261591 -43.76 
L 69.830776 -43.76 
L 71.399961 -43.76 
L 72.969146 -43.76 
L 74.538331 -43.76 
L 76.107516 -43.76 
L 77.676701 -43.76 
L 79.245886 -43.76 
L 80.815071 -43.76 
L 82.384256 -43.76 
L 83.95344 -43.76 
L 85.522625 -43.76 
L 87.09181 -43.76 
L 88.660995 -43.76 
L 90.23018 -43.76 
L 91.799365 -43.76 
L 93.36855 -43.76 
L 94.937735 -43.76 
L 96.50692 -43.76 
L 98.076105 -43.76 
L 99.64529 -43.76 
L 101.214475 -43.76 
L 102.78366 -43.76 
L 104.352845 -43.76 
L 105.92203 -43.76 
L 107.491215 -43.76 
L 109.0604 -43.76 
L 110.629585 -43.76 
L 112.19877 -43.76 
L 113.767955 -43.76 
L 115.33714 -43.76 
L 116.906325 -43.76 
L 118.47551 -43.76 
L 120.044694 -43.76 
L 121.613879 -43.76 
L 123.183064 -43.76 
L 124.752249 -43.76 
L 126.321434 -43.76 
L 127.890619 -43.76 
L 129.459804 -43.76 
L 131.028989 -43.76 
L 132.598174 -43.76 
L 134.167359 -43.76 
L 135.736544 -43.76 
L 137.305729 -43.76 
L 138.874914 -43.76 
L 140.444099 -43.76 
L 142.013284 -43.76 
L 143.582469 -43.76 
L 145.151654 -43.76 
L 146.720839 -43.76 
L 148.290024 -43.76 
L 149.859209 -43.76 
L 151.428394 -43.76 
L 152.997579 -43.76 
L 154.566763 -43.76 
L 156.135948 -43.76 
L 157.705133 -43.76 
L 159.274318 -43.76 
L 160.843503 -43.76 
L 162.412688 -43.76 
L 163.981873 -43.76 
L 165.551058 -43.76 
L 167.120243 -43.76 
L 168.689428 -43.76 
L 170.258613 -43.76 
L 171.827798 -43.76 
L 173.396983 -43.76 
L 174.966168 -43.76 
L 176.535353 -43.76 
L 178.104538 -43.76 
L 179.673723 -43.76 
L 181.242908 -43.76 
L 182.812093 -43.76 
L 184.381278 -43.76 
L 185.950463 -43.76 
L 187.519648 -43.76 
L 189.088833 -43.76 
L 190.658017 -43.76 
L 192.227202 -43.76 
L 193.796387 -43.76 
L 195.365572 -43.76 
L 196.934757 -43.76 
L 198.503942 -43.76 
L 200.073127 -43.76 
L 201.642312 -43.76 
L 203.211497 -43.76 
L 204.780682 -43.76 
L 206.349867 -43.76 
L 207.919052 -43.76 
L 209.488237 -43.76 
L 211.057422 -43.76 
L 212.626607 -43.76 
L 214.195792 -43.76 
L 215.764977 -43.76 
L 217.334162 -43.76 
L 218.903347 -43.76 
L 220.472532 -43.76 
L 222.041717 -43.76 
L 223.610902 -43.76 
L 225.180087 -43.76 
L 226.749271 -43.76 
L 228.318456 -43.76 
L 229.887641 -43.76 
L 231.456826 -43.76 
L 233.026011 -43.76 
L 234.595196 -43.76 
L 236.164381 -43.76 
L 237.733566 -43.76 
L 239.302751 -43.76 
L 240.871936 -43.76 
L 242.441121 -43.76 
L 244.010306 -43.76 
L 245.579491 -43.76 
L 247.148676 -43.76 
L 248.717861 -43.76 
L 250.287046 -43.76 
L 251.856231 -43.76 
L 253.425416 -43.76 
L 254.994601 -43.76 
L 256.563786 -43.76 
L 258.132971 -43.76 
L 259.702156 -43.76 
L 261.27134 -43.76 
L 262.840525 -43.76 
L 264.40971 -43.76 
L 265.978895 -43.76 
L 267.54808 -43.76 
L 269.117265 -43.76 
L 270.68645 -43.76 
L 272.255635 -43.76 
L 273.82482 -43.76 
L 275.394005 -43.76 
L 276.96319 -43.76 
L 278.532375 -43.76 
L 280.10156 -43.76 
L 281.670745 -43.76 
L 283.23993 -43.76 
L 284.809115 -43.76 
L 286.3783 -43.76 
L 287.947485 -43.76 
L 289.51667 -43.76 
L 291.085855 -43.76 
L 292.65504 -43.76 
L 294.224225 -43.76 
L 295.79341 -43.76 
L 297.362594 -43.76 
L 298.931779 -43.76 
L 300.500964 -43.76 
L 302.070149 -43.76 
L 303.639334 -43.76 
L 305.208519 -43.76 
L 306.777704 -43.76 
L 308.346889 -43.76 
L 309.916074 -43.76 
L 311.485259 -43.76 
L 313.054444 -43.76 
L 314.623629 -43.76 
L 316.192814 -43.76 
L 317.761999 -43.76 
L 319.331184 -43.76 
L 320.900369 -43.76 
L 322.469554 -43.76 
L 324.038739 -43.76 
L 325.607924 -43.76 
L 327.177109 -43.76 
L 328.746294 -43.76 
L 330.315479 -43.76 
L 331.884664 -43.76 
L 333.453848 -43.76 
L 335.023033 -43.76 
L 336.592218 -43.76 
L 338.161403 -43.76 
L 339.730588 -43.76 
L 341.299773 -43.76 
L 342.868958 -43.76 
L 344.438143 -43.76 
L 346.007328 -43.76 
L 347.576513 -43.76 
L 349.145698 -43.76 
L 350.714883 -43.76 
L 352.284068 -43.76 
L 353.853253 -43.76 
L 355.422438 -43.76 
L 356.991623 -43.76 
L 358.560808 -43.76 
L 360.129993 -43.76 
L 361.699178 -43.76 
L 363.268363 -43.76 
L 364.837548 -43.76 
L 366.406733 -43.76 
L 367.975918 -43.76 
L 369.545102 -43.76 
L 371.114287 -43.76 
L 372.683472 -43.76 
L 374.252657 -43.76 
L 375.821842 -43.76 
L 377.391027 -43.76 
L 378.960212 -43.76 
L 380.529397 -43.76 
L 380.529397 -43.771813 
L 380.529397 -43.771813 
L 378.960212 -43.789594 
L 377.391027 -43.829827 
L 375.821842 -43.915664 
L 374.252657 -44.088832 
L 372.683472 -44.419897 
L 371.114287 -45.020515 
L 369.545102 -46.055008 
L 367.975918 -47.746237 
L 366.406733 -50.36896 
L 364.837548 -54.224535 
L 363.268363 -59.595482 
L 361.699178 -66.686482 
L 360.129993 -75.566597 
L 358.560808 -86.130855 
L 356.991623 -98.09439 
L 355.422438 -111.020317 
L 353.853253 -124.369495 
L 352.284068 -137.553992 
L 350.714883 -149.980751 
L 349.145698 -161.084536 
L 347.576513 -170.360703 
L 346.007328 -177.409385 
L 344.438143 -181.991459 
L 342.868958 -184.080713 
L 341.299773 -183.887968 
L 339.730588 -181.838204 
L 338.161403 -178.498402 
L 336.592218 -174.472385 
L 335.023033 -170.290896 
L 333.453848 -166.326474 
L 331.884664 -162.754322 
L 330.315479 -159.56583 
L 328.746294 -156.625619 
L 327.177109 -153.75118 
L 325.607924 -150.789869 
L 324.038739 -147.671868 
L 322.469554 -144.427223 
L 320.900369 -141.166756 
L 319.331184 -138.037068 
L 317.761999 -135.166296 
L 316.192814 -132.618075 
L 314.623629 -130.366638 
L 313.054444 -128.298956 
L 311.485259 -126.243116 
L 309.916074 -124.016747 
L 308.346889 -121.483922 
L 306.777704 -118.603758 
L 305.208519 -115.452446 
L 303.639334 -112.207468 
L 302.070149 -109.097822 
L 300.500964 -106.339423 
L 298.931779 -104.080418 
L 297.362594 -102.373588 
L 295.79341 -101.178613 
L 294.224225 -100.386125 
L 292.65504 -99.852848 
L 291.085855 -99.439652 
L 289.51667 -99.045777 
L 287.947485 -98.630979 
L 286.3783 -98.216648 
L 284.809115 -97.861859 
L 283.23993 -97.620977 
L 281.670745 -97.500284 
L 280.10156 -97.43485 
L 278.532375 -97.299327 
L 276.96319 -96.949828 
L 275.394005 -96.27689 
L 273.82482 -95.242253 
L 272.255635 -93.881062 
L 270.68645 -92.271978 
L 269.117265 -90.496713 
L 267.54808 -88.614115 
L 265.978895 -86.66019 
L 264.40971 -84.666549 
L 262.840525 -82.680298 
L 261.27134 -80.772591 
L 259.702156 -79.032427 
L 258.132971 -77.547625 
L 256.563786 -76.375988 
L 254.994601 -75.513339 
L 253.425416 -74.873092 
L 251.856231 -74.295998 
L 250.287046 -73.598214 
L 248.717861 -72.642548 
L 247.148676 -71.3976 
L 245.579491 -69.950602 
L 244.010306 -68.464847 
L 242.441121 -67.105205 
L 240.871936 -65.972544 
L 239.302751 -65.078784 
L 237.733566 -64.367542 
L 236.164381 -63.760182 
L 234.595196 -63.198635 
L 233.026011 -62.665222 
L 231.456826 -62.176274 
L 229.887641 -61.759283 
L 228.318456 -61.427769 
L 226.749271 -61.165162 
L 225.180087 -60.92294 
L 223.610902 -60.632493 
L 222.041717 -60.226157 
L 220.472532 -59.660383 
L 218.903347 -58.932769 
L 217.334162 -58.085276 
L 215.764977 -57.189915 
L 214.195792 -56.320925 
L 212.626607 -55.525594 
L 211.057422 -54.808972 
L 209.488237 -54.141559 
L 207.919052 -53.486069 
L 206.349867 -52.827578 
L 204.780682 -52.189127 
L 203.211497 -51.623918 
L 201.642312 -51.189324 
L 200.073127 -50.917656 
L 198.503942 -50.798519 
L 196.934757 -50.779558 
L 195.365572 -50.782682 
L 193.796387 -50.72704 
L 192.227202 -50.549734 
L 190.658017 -50.218732 
L 189.088833 -49.736671 
L 187.519648 -49.137283 
L 185.950463 -48.477156 
L 184.381278 -47.825189 
L 182.812093 -47.251359 
L 181.242908 -46.816084 
L 179.673723 -46.56157 
L 178.104538 -46.506378 
L 176.535353 -46.643856 
L 174.966168 -46.94416 
L 173.396983 -47.359 
L 171.827798 -47.828263 
L 170.258613 -48.288013 
L 168.689428 -48.679454 
L 167.120243 -48.958003 
L 165.551058 -49.100687 
L 163.981873 -49.109445 
L 162.412688 -49.00825 
L 160.843503 -48.833786 
L 159.274318 -48.622286 
L 157.705133 -48.397489 
L 156.135948 -48.16476 
L 154.566763 -47.913701 
L 152.997579 -47.62754 
L 151.428394 -47.294552 
L 149.859209 -46.916534 
L 148.290024 -46.511428 
L 146.720839 -46.109951 
L 145.151654 -45.747979 
L 143.582469 -45.457141 
L 142.013284 -45.256179 
L 140.444099 -45.145472 
L 138.874914 -45.106531 
L 137.305729 -45.106898 
L 135.736544 -45.109045 
L 134.167359 -45.080393 
L 132.598174 -45.001248 
L 131.028989 -44.86837 
L 129.459804 -44.693564 
L 127.890619 -44.498255 
L 126.321434 -44.30625 
L 124.752249 -44.13716 
L 123.183064 -44.002455 
L 121.613879 -43.904837 
L 120.044694 -43.840273 
L 118.47551 -43.80122 
L 116.906325 -43.779589 
L 115.33714 -43.768608 
L 113.767955 -43.763495 
L 112.19877 -43.761313 
L 110.629585 -43.760463 
L 109.0604 -43.760182 
L 107.491215 -43.76017 
L 105.92203 -43.760412 
L 104.352845 -43.761164 
L 102.78366 -43.763099 
L 101.214475 -43.767622 
L 99.64529 -43.777279 
L 98.076105 -43.796093 
L 96.50692 -43.829475 
L 94.937735 -43.883233 
L 93.36855 -43.961422 
L 91.799365 -44.063374 
L 90.23018 -44.181052 
L 88.660995 -44.298496 
L 87.09181 -44.394625 
L 85.522625 -44.449192 
L 83.95344 -44.449686 
L 82.384256 -44.39599 
L 80.815071 -44.300428 
L 79.245886 -44.183169 
L 77.676701 -44.065335 
L 76.107516 -43.963015 
L 74.538331 -43.884385 
L 72.969146 -43.830226 
L 71.399961 -43.796535 
L 69.830776 -43.777515 
L 68.261591 -43.767738 
z
" style="stroke: #bdbdbd; stroke-width: 2.5"/>
    </defs>
    <g clip-path="url(#p28fb6e290e)">
     <use xlink:href="#m3c65027182" x="0" y="432" style="fill: #bdbdbd; fill-opacity: 0.5; stroke: #bdbdbd; stroke-width: 2.5"/>
    </g>
   </g>
   <g id="PolyCollection_2">
    <defs>
     <path id="m0ec8f157f3" d="M 207.992515 -43.765566 
L 207.992515 -43.76 
L 208.932233 -43.76 
L 209.871951 -43.76 
L 210.811669 -43.76 
L 211.751387 -43.76 
L 212.691105 -43.76 
L 213.630823 -43.76 
L 214.570541 -43.76 
L 215.510258 -43.76 
L 216.449976 -43.76 
L 217.389694 -43.76 
L 218.329412 -43.76 
L 219.26913 -43.76 
L 220.208848 -43.76 
L 221.148566 -43.76 
L 222.088284 -43.76 
L 223.028002 -43.76 
L 223.96772 -43.76 
L 224.907437 -43.76 
L 225.847155 -43.76 
L 226.786873 -43.76 
L 227.726591 -43.76 
L 228.666309 -43.76 
L 229.606027 -43.76 
L 230.545745 -43.76 
L 231.485463 -43.76 
L 232.425181 -43.76 
L 233.364899 -43.76 
L 234.304617 -43.76 
L 235.244334 -43.76 
L 236.184052 -43.76 
L 237.12377 -43.76 
L 238.063488 -43.76 
L 239.003206 -43.76 
L 239.942924 -43.76 
L 240.882642 -43.76 
L 241.82236 -43.76 
L 242.762078 -43.76 
L 243.701796 -43.76 
L 244.641514 -43.76 
L 245.581231 -43.76 
L 246.520949 -43.76 
L 247.460667 -43.76 
L 248.400385 -43.76 
L 249.340103 -43.76 
L 250.279821 -43.76 
L 251.219539 -43.76 
L 252.159257 -43.76 
L 253.098975 -43.76 
L 254.038693 -43.76 
L 254.978411 -43.76 
L 255.918128 -43.76 
L 256.857846 -43.76 
L 257.797564 -43.76 
L 258.737282 -43.76 
L 259.677 -43.76 
L 260.616718 -43.76 
L 261.556436 -43.76 
L 262.496154 -43.76 
L 263.435872 -43.76 
L 264.37559 -43.76 
L 265.315308 -43.76 
L 266.255025 -43.76 
L 267.194743 -43.76 
L 268.134461 -43.76 
L 269.074179 -43.76 
L 270.013897 -43.76 
L 270.953615 -43.76 
L 271.893333 -43.76 
L 272.833051 -43.76 
L 273.772769 -43.76 
L 274.712487 -43.76 
L 275.652204 -43.76 
L 276.591922 -43.76 
L 277.53164 -43.76 
L 278.471358 -43.76 
L 279.411076 -43.76 
L 280.350794 -43.76 
L 281.290512 -43.76 
L 282.23023 -43.76 
L 283.169948 -43.76 
L 284.109666 -43.76 
L 285.049384 -43.76 
L 285.989101 -43.76 
L 286.928819 -43.76 
L 287.868537 -43.76 
L 288.808255 -43.76 
L 289.747973 -43.76 
L 290.687691 -43.76 
L 291.627409 -43.76 
L 292.567127 -43.76 
L 293.506845 -43.76 
L 294.446563 -43.76 
L 295.386281 -43.76 
L 296.325998 -43.76 
L 297.265716 -43.76 
L 298.205434 -43.76 
L 299.145152 -43.76 
L 300.08487 -43.76 
L 301.024588 -43.76 
L 301.964306 -43.76 
L 302.904024 -43.76 
L 303.843742 -43.76 
L 304.78346 -43.76 
L 305.723178 -43.76 
L 306.662895 -43.76 
L 307.602613 -43.76 
L 308.542331 -43.76 
L 309.482049 -43.76 
L 310.421767 -43.76 
L 311.361485 -43.76 
L 312.301203 -43.76 
L 313.240921 -43.76 
L 314.180639 -43.76 
L 315.120357 -43.76 
L 316.060075 -43.76 
L 316.999792 -43.76 
L 317.93951 -43.76 
L 318.879228 -43.76 
L 319.818946 -43.76 
L 320.758664 -43.76 
L 321.698382 -43.76 
L 322.6381 -43.76 
L 323.577818 -43.76 
L 324.517536 -43.76 
L 325.457254 -43.76 
L 326.396971 -43.76 
L 327.336689 -43.76 
L 328.276407 -43.76 
L 329.216125 -43.76 
L 330.155843 -43.76 
L 331.095561 -43.76 
L 332.035279 -43.76 
L 332.974997 -43.76 
L 333.914715 -43.76 
L 334.854433 -43.76 
L 335.794151 -43.76 
L 336.733868 -43.76 
L 337.673586 -43.76 
L 338.613304 -43.76 
L 339.553022 -43.76 
L 340.49274 -43.76 
L 341.432458 -43.76 
L 342.372176 -43.76 
L 343.311894 -43.76 
L 344.251612 -43.76 
L 345.19133 -43.76 
L 346.131048 -43.76 
L 347.070765 -43.76 
L 348.010483 -43.76 
L 348.950201 -43.76 
L 349.889919 -43.76 
L 350.829637 -43.76 
L 351.769355 -43.76 
L 352.709073 -43.76 
L 353.648791 -43.76 
L 354.588509 -43.76 
L 355.528227 -43.76 
L 356.467945 -43.76 
L 357.407662 -43.76 
L 358.34738 -43.76 
L 359.287098 -43.76 
L 360.226816 -43.76 
L 361.166534 -43.76 
L 362.106252 -43.76 
L 363.04597 -43.76 
L 363.985688 -43.76 
L 364.925406 -43.76 
L 365.865124 -43.76 
L 366.804842 -43.76 
L 367.744559 -43.76 
L 368.684277 -43.76 
L 369.623995 -43.76 
L 370.563713 -43.76 
L 371.503431 -43.76 
L 372.443149 -43.76 
L 373.382867 -43.76 
L 374.322585 -43.76 
L 375.262303 -43.76 
L 376.202021 -43.76 
L 377.141739 -43.76 
L 378.081456 -43.76 
L 379.021174 -43.76 
L 379.960892 -43.76 
L 380.90061 -43.76 
L 381.840328 -43.76 
L 382.780046 -43.76 
L 383.719764 -43.76 
L 384.659482 -43.76 
L 385.5992 -43.76 
L 386.538918 -43.76 
L 387.478635 -43.76 
L 388.418353 -43.76 
L 389.358071 -43.76 
L 390.297789 -43.76 
L 391.237507 -43.76 
L 392.177225 -43.76 
L 393.116943 -43.76 
L 394.056661 -43.76 
L 394.996379 -43.76 
L 394.996379 -44.017563 
L 394.996379 -44.017563 
L 394.056661 -44.156573 
L 393.116943 -44.362218 
L 392.177225 -44.661971 
L 391.237507 -45.092457 
L 390.297789 -45.701562 
L 389.358071 -46.550639 
L 388.418353 -47.716648 
L 387.478635 -49.294021 
L 386.538918 -51.395949 
L 385.5992 -54.154756 
L 384.659482 -57.720989 
L 383.719764 -62.260835 
L 382.780046 -67.951562 
L 381.840328 -74.974722 
L 380.90061 -83.507084 
L 379.960892 -93.709402 
L 379.021174 -105.713445 
L 378.081456 -119.607943 
L 377.141739 -135.424386 
L 376.202021 -153.12384 
L 375.262303 -172.586049 
L 374.322585 -193.602132 
L 373.382867 -215.87205 
L 372.443149 -239.00773 
L 371.503431 -262.542346 
L 370.563713 -285.945736 
L 369.623995 -308.645342 
L 368.684277 -330.051556 
L 367.744559 -349.58581 
L 366.804842 -366.709448 
L 365.865124 -380.951246 
L 364.925406 -391.931496 
L 363.985688 -399.380825 
L 363.04597 -403.152394 
L 362.106252 -403.226667 
L 361.166534 -399.708614 
L 360.226816 -392.817828 
L 359.287098 -382.872613 
L 358.34738 -370.26951 
L 357.407662 -355.460023 
L 356.467945 -338.926323 
L 355.528227 -321.157675 
L 354.588509 -302.629048 
L 353.648791 -283.783023 
L 352.709073 -265.01575 
L 351.769355 -246.667249 
L 350.829637 -229.016022 
L 349.889919 -212.277604 
L 348.950201 -196.606491 
L 348.010483 -182.100709 
L 347.070765 -168.808281 
L 346.131048 -156.734841 
L 345.19133 -145.851721 
L 344.251612 -136.10397 
L 343.311894 -127.417871 
L 342.372176 -119.707651 
L 341.432458 -112.881218 
L 340.49274 -106.844864 
L 339.553022 -101.506918 
L 338.613304 -96.780457 
L 337.673586 -92.585165 
L 336.733868 -88.848482 
L 335.794151 -85.506174 
L 334.854433 -82.502456 
L 333.914715 -79.78978 
L 332.974997 -77.328371 
L 332.035279 -75.085597 
L 331.095561 -73.035221 
L 330.155843 -71.156579 
L 329.216125 -69.433716 
L 328.276407 -67.854514 
L 327.336689 -66.409828 
L 326.396971 -65.09267 
L 325.457254 -63.89745 
L 324.517536 -62.819306 
L 323.577818 -61.853538 
L 322.6381 -60.995156 
L 321.698382 -60.238546 
L 320.758664 -59.577259 
L 319.818946 -59.003903 
L 318.879228 -58.510129 
L 317.93951 -58.086701 
L 316.999792 -57.72362 
L 316.060075 -57.41031 
L 315.120357 -57.135824 
L 314.180639 -56.889096 
L 313.240921 -56.659202 
L 312.301203 -56.435639 
L 311.361485 -56.208614 
L 310.421767 -55.969322 
L 309.482049 -55.710206 
L 308.542331 -55.425189 
L 307.602613 -55.109847 
L 306.662895 -54.761512 
L 305.723178 -54.379305 
L 304.78346 -53.964072 
L 303.843742 -53.518243 
L 302.904024 -53.045615 
L 301.964306 -52.551071 
L 301.024588 -52.040267 
L 300.08487 -51.519315 
L 299.145152 -50.994466 
L 298.205434 -50.471838 
L 297.265716 -49.95719 
L 296.325998 -49.455763 
L 295.386281 -48.972168 
L 294.446563 -48.510344 
L 293.506845 -48.073552 
L 292.567127 -47.664412 
L 291.627409 -47.284949 
L 290.687691 -46.936665 
L 289.747973 -46.620601 
L 288.808255 -46.337408 
L 287.868537 -46.087406 
L 286.928819 -45.870638 
L 285.989101 -45.686922 
L 285.049384 -45.53589 
L 284.109666 -45.417018 
L 283.169948 -45.32964 
L 282.23023 -45.272944 
L 281.290512 -45.245941 
L 280.350794 -45.247416 
L 279.411076 -45.275857 
L 278.471358 -45.329364 
L 277.53164 -45.405562 
L 276.591922 -45.501523 
L 275.652204 -45.613713 
L 274.712487 -45.737988 
L 273.772769 -45.86963 
L 272.833051 -46.003461 
L 271.893333 -46.133999 
L 270.953615 -46.255676 
L 270.013897 -46.363086 
L 269.074179 -46.451247 
L 268.134461 -46.515863 
L 267.194743 -46.553546 
L 266.255025 -46.56199 
L 265.315308 -46.540084 
L 264.37559 -46.487945 
L 263.435872 -46.406874 
L 262.496154 -46.299253 
L 261.556436 -46.168372 
L 260.616718 -46.018221 
L 259.677 -45.853258 
L 258.737282 -45.678171 
L 257.797564 -45.497644 
L 256.857846 -45.31616 
L 255.918128 -45.137828 
L 254.978411 -44.966256 
L 254.038693 -44.804468 
L 253.098975 -44.654859 
L 252.159257 -44.519198 
L 251.219539 -44.398653 
L 250.279821 -44.293851 
L 249.340103 -44.204949 
L 248.400385 -44.131714 
L 247.460667 -44.073606 
L 246.520949 -44.029852 
L 245.581231 -43.999508 
L 244.641514 -43.981505 
L 243.701796 -43.974683 
L 242.762078 -43.977808 
L 241.82236 -43.989572 
L 240.882642 -44.008596 
L 239.942924 -44.033424 
L 239.003206 -44.062523 
L 238.063488 -44.094297 
L 237.12377 -44.127103 
L 236.184052 -44.159296 
L 235.244334 -44.189274 
L 234.304617 -44.215542 
L 233.364899 -44.236779 
L 232.425181 -44.251898 
L 231.485463 -44.26011 
L 230.545745 -44.260961 
L 229.606027 -44.254352 
L 228.666309 -44.240542 
L 227.726591 -44.220117 
L 226.786873 -44.193946 
L 225.847155 -44.163112 
L 224.907437 -44.128836 
L 223.96772 -44.092397 
L 223.028002 -44.055048 
L 222.088284 -44.017953 
L 221.148566 -43.982126 
L 220.208848 -43.948396 
L 219.26913 -43.917381 
L 218.329412 -43.889492 
L 217.389694 -43.864941 
L 216.449976 -43.843764 
L 215.510258 -43.825854 
L 214.570541 -43.810993 
L 213.630823 -43.798892 
L 212.691105 -43.789215 
L 211.751387 -43.781616 
L 210.811669 -43.775753 
L 209.871951 -43.771307 
L 208.932233 -43.767993 
L 207.992515 -43.765566 
z
" style="stroke: #92c5de; stroke-width: 2.5"/>
    </defs>
    <g clip-path="url(#p28fb6e290e)">
     <use xlink:href="#m0ec8f157f3" x="0" y="432" style="fill: #92c5de; fill-opacity: 0.5; stroke: #92c5de; stroke-width: 2.5"/>
    </g>
   </g>
   <g id="PolyCollection_3">
    <defs>
     <path id="m5575f51c51" d="M 186.402061 -43.765625 
L 186.402061 -43.76 
L 187.497495 -43.76 
L 188.592929 -43.76 
L 189.688363 -43.76 
L 190.783796 -43.76 
L 191.87923 -43.76 
L 192.974664 -43.76 
L 194.070098 -43.76 
L 195.165532 -43.76 
L 196.260966 -43.76 
L 197.3564 -43.76 
L 198.451834 -43.76 
L 199.547268 -43.76 
L 200.642702 -43.76 
L 201.738136 -43.76 
L 202.83357 -43.76 
L 203.929003 -43.76 
L 205.024437 -43.76 
L 206.119871 -43.76 
L 207.215305 -43.76 
L 208.310739 -43.76 
L 209.406173 -43.76 
L 210.501607 -43.76 
L 211.597041 -43.76 
L 212.692475 -43.76 
L 213.787909 -43.76 
L 214.883343 -43.76 
L 215.978776 -43.76 
L 217.07421 -43.76 
L 218.169644 -43.76 
L 219.265078 -43.76 
L 220.360512 -43.76 
L 221.455946 -43.76 
L 222.55138 -43.76 
L 223.646814 -43.76 
L 224.742248 -43.76 
L 225.837682 -43.76 
L 226.933116 -43.76 
L 228.028549 -43.76 
L 229.123983 -43.76 
L 230.219417 -43.76 
L 231.314851 -43.76 
L 232.410285 -43.76 
L 233.505719 -43.76 
L 234.601153 -43.76 
L 235.696587 -43.76 
L 236.792021 -43.76 
L 237.887455 -43.76 
L 238.982889 -43.76 
L 240.078322 -43.76 
L 241.173756 -43.76 
L 242.26919 -43.76 
L 243.364624 -43.76 
L 244.460058 -43.76 
L 245.555492 -43.76 
L 246.650926 -43.76 
L 247.74636 -43.76 
L 248.841794 -43.76 
L 249.937228 -43.76 
L 251.032662 -43.76 
L 252.128095 -43.76 
L 253.223529 -43.76 
L 254.318963 -43.76 
L 255.414397 -43.76 
L 256.509831 -43.76 
L 257.605265 -43.76 
L 258.700699 -43.76 
L 259.796133 -43.76 
L 260.891567 -43.76 
L 261.987001 -43.76 
L 263.082435 -43.76 
L 264.177869 -43.76 
L 265.273302 -43.76 
L 266.368736 -43.76 
L 267.46417 -43.76 
L 268.559604 -43.76 
L 269.655038 -43.76 
L 270.750472 -43.76 
L 271.845906 -43.76 
L 272.94134 -43.76 
L 274.036774 -43.76 
L 275.132208 -43.76 
L 276.227642 -43.76 
L 277.323075 -43.76 
L 278.418509 -43.76 
L 279.513943 -43.76 
L 280.609377 -43.76 
L 281.704811 -43.76 
L 282.800245 -43.76 
L 283.895679 -43.76 
L 284.991113 -43.76 
L 286.086547 -43.76 
L 287.181981 -43.76 
L 288.277415 -43.76 
L 289.372848 -43.76 
L 290.468282 -43.76 
L 291.563716 -43.76 
L 292.65915 -43.76 
L 293.754584 -43.76 
L 294.850018 -43.76 
L 295.945452 -43.76 
L 297.040886 -43.76 
L 298.13632 -43.76 
L 299.231754 -43.76 
L 300.327188 -43.76 
L 301.422621 -43.76 
L 302.518055 -43.76 
L 303.613489 -43.76 
L 304.708923 -43.76 
L 305.804357 -43.76 
L 306.899791 -43.76 
L 307.995225 -43.76 
L 309.090659 -43.76 
L 310.186093 -43.76 
L 311.281527 -43.76 
L 312.376961 -43.76 
L 313.472395 -43.76 
L 314.567828 -43.76 
L 315.663262 -43.76 
L 316.758696 -43.76 
L 317.85413 -43.76 
L 318.949564 -43.76 
L 320.044998 -43.76 
L 321.140432 -43.76 
L 322.235866 -43.76 
L 323.3313 -43.76 
L 324.426734 -43.76 
L 325.522168 -43.76 
L 326.617601 -43.76 
L 327.713035 -43.76 
L 328.808469 -43.76 
L 329.903903 -43.76 
L 330.999337 -43.76 
L 332.094771 -43.76 
L 333.190205 -43.76 
L 334.285639 -43.76 
L 335.381073 -43.76 
L 336.476507 -43.76 
L 337.571941 -43.76 
L 338.667374 -43.76 
L 339.762808 -43.76 
L 340.858242 -43.76 
L 341.953676 -43.76 
L 343.04911 -43.76 
L 344.144544 -43.76 
L 345.239978 -43.76 
L 346.335412 -43.76 
L 347.430846 -43.76 
L 348.52628 -43.76 
L 349.621714 -43.76 
L 350.717147 -43.76 
L 351.812581 -43.76 
L 352.908015 -43.76 
L 354.003449 -43.76 
L 355.098883 -43.76 
L 356.194317 -43.76 
L 357.289751 -43.76 
L 358.385185 -43.76 
L 359.480619 -43.76 
L 360.576053 -43.76 
L 361.671487 -43.76 
L 362.76692 -43.76 
L 363.862354 -43.76 
L 364.957788 -43.76 
L 366.053222 -43.76 
L 367.148656 -43.76 
L 368.24409 -43.76 
L 369.339524 -43.76 
L 370.434958 -43.76 
L 371.530392 -43.76 
L 372.625826 -43.76 
L 373.72126 -43.76 
L 374.816694 -43.76 
L 375.912127 -43.76 
L 377.007561 -43.76 
L 378.102995 -43.76 
L 379.198429 -43.76 
L 380.293863 -43.76 
L 381.389297 -43.76 
L 382.484731 -43.76 
L 383.580165 -43.76 
L 384.675599 -43.76 
L 385.771033 -43.76 
L 386.866467 -43.76 
L 387.9619 -43.76 
L 389.057334 -43.76 
L 390.152768 -43.76 
L 391.248202 -43.76 
L 392.343636 -43.76 
L 393.43907 -43.76 
L 394.534504 -43.76 
L 395.629938 -43.76 
L 396.725372 -43.76 
L 397.820806 -43.76 
L 398.91624 -43.76 
L 400.011673 -43.76 
L 401.107107 -43.76 
L 402.202541 -43.76 
L 403.297975 -43.76 
L 404.393409 -43.76 
L 404.393409 -43.9672 
L 404.393409 -43.9672 
L 403.297975 -44.047418 
L 402.202541 -44.155409 
L 401.107107 -44.299508 
L 400.011673 -44.490087 
L 398.91624 -44.739911 
L 397.820806 -45.064495 
L 396.725372 -45.48247 
L 395.629938 -46.015924 
L 394.534504 -46.690696 
L 393.43907 -47.536602 
L 392.343636 -48.587552 
L 391.248202 -49.881521 
L 390.152768 -51.460347 
L 389.057334 -53.369312 
L 387.9619 -55.656473 
L 386.866467 -58.371727 
L 385.771033 -61.565585 
L 384.675599 -65.287666 
L 383.580165 -69.584913 
L 382.484731 -74.499579 
L 381.389297 -80.067024 
L 380.293863 -86.313417 
L 379.198429 -93.25341 
L 378.102995 -100.887921 
L 377.007561 -109.202128 
L 375.912127 -118.163805 
L 374.816694 -127.722123 
L 373.72126 -137.807032 
L 372.625826 -148.329307 
L 371.530392 -159.181341 
L 370.434958 -170.238699 
L 369.339524 -181.362442 
L 368.24409 -192.402171 
L 367.148656 -203.199699 
L 366.053222 -213.593229 
L 364.957788 -223.421873 
L 363.862354 -232.530333 
L 362.76692 -240.773535 
L 361.671487 -248.021025 
L 360.576053 -254.160916 
L 359.480619 -259.103219 
L 358.385185 -262.782412 
L 357.289751 -265.159132 
L 356.194317 -266.220933 
L 355.098883 -265.982093 
L 354.003449 -264.482496 
L 352.908015 -261.785668 
L 351.812581 -257.97608 
L 350.717147 -253.15586 
L 349.621714 -247.441077 
L 348.52628 -240.957781 
L 347.430846 -233.837967 
L 346.335412 -226.215631 
L 345.239978 -218.223083 
L 344.144544 -209.98762 
L 343.04911 -201.62869 
L 341.953676 -193.255578 
L 340.858242 -184.965688 
L 339.762808 -176.843399 
L 338.667374 -168.95949 
L 337.571941 -161.37108 
L 336.476507 -154.122036 
L 335.381073 -147.243748 
L 334.285639 -140.75622 
L 333.190205 -134.669363 
L 332.094771 -128.984425 
L 330.999337 -123.695476 
L 329.903903 -118.790879 
L 328.808469 -114.254687 
L 327.713035 -110.067928 
L 326.617601 -106.209739 
L 325.522168 -102.658327 
L 324.426734 -99.391755 
L 323.3313 -96.388544 
L 322.235866 -93.628104 
L 321.140432 -91.091004 
L 320.044998 -88.759114 
L 318.949564 -86.615626 
L 317.85413 -84.644985 
L 316.758696 -82.832765 
L 315.663262 -81.165497 
L 314.567828 -79.630491 
L 313.472395 -78.215656 
L 312.376961 -76.909345 
L 311.281527 -75.700239 
L 310.186093 -74.577263 
L 309.090659 -73.529565 
L 307.995225 -72.546533 
L 306.899791 -71.617859 
L 305.804357 -70.733648 
L 304.708923 -69.884544 
L 303.613489 -69.061882 
L 302.518055 -68.257841 
L 301.422621 -67.465591 
L 300.327188 -66.679416 
L 299.231754 -65.894806 
L 298.13632 -65.108521 
L 297.040886 -64.318593 
L 295.945452 -63.524302 
L 294.850018 -62.726089 
L 293.754584 -61.92544 
L 292.65915 -61.124729 
L 291.563716 -60.32704 
L 290.468282 -59.535967 
L 289.372848 -58.755413 
L 288.277415 -57.989392 
L 287.181981 -57.241847 
L 286.086547 -56.516486 
L 284.991113 -55.816657 
L 283.895679 -55.145239 
L 282.800245 -54.504589 
L 281.704811 -53.896501 
L 280.609377 -53.32221 
L 279.513943 -52.782415 
L 278.418509 -52.277328 
L 277.323075 -51.806734 
L 276.227642 -51.370056 
L 275.132208 -50.966429 
L 274.036774 -50.594766 
L 272.94134 -50.253816 
L 271.845906 -49.942216 
L 270.750472 -49.658527 
L 269.655038 -49.401261 
L 268.559604 -49.168897 
L 267.46417 -48.959885 
L 266.368736 -48.772655 
L 265.273302 -48.605604 
L 264.177869 -48.457105 
L 263.082435 -48.325502 
L 261.987001 -48.209116 
L 260.891567 -48.106257 
L 259.796133 -48.015238 
L 258.700699 -47.9344 
L 257.605265 -47.862134 
L 256.509831 -47.796912 
L 255.414397 -47.737312 
L 254.318963 -47.682047 
L 253.223529 -47.62998 
L 252.128095 -47.58014 
L 251.032662 -47.531727 
L 249.937228 -47.484107 
L 248.841794 -47.436802 
L 247.74636 -47.389463 
L 246.650926 -47.341848 
L 245.555492 -47.293788 
L 244.460058 -47.245148 
L 243.364624 -47.195802 
L 242.26919 -47.145594 
L 241.173756 -47.094315 
L 240.078322 -47.04169 
L 238.982889 -46.98736 
L 237.887455 -46.930892 
L 236.792021 -46.871783 
L 235.696587 -46.809481 
L 234.601153 -46.743411 
L 233.505719 -46.673005 
L 232.410285 -46.597738 
L 231.314851 -46.517166 
L 230.219417 -46.430951 
L 229.123983 -46.3389 
L 228.028549 -46.240981 
L 226.933116 -46.137343 
L 225.837682 -46.028318 
L 224.742248 -45.914424 
L 223.646814 -45.796347 
L 222.55138 -45.674928 
L 221.455946 -45.551134 
L 220.360512 -45.426023 
L 219.265078 -45.300712 
L 218.169644 -45.17634 
L 217.07421 -45.054027 
L 215.978776 -44.934845 
L 214.883343 -44.819779 
L 213.787909 -44.709707 
L 212.692475 -44.605379 
L 211.597041 -44.507396 
L 210.501607 -44.41621 
L 209.406173 -44.332118 
L 208.310739 -44.255269 
L 207.215305 -44.185671 
L 206.119871 -44.123202 
L 205.024437 -44.067634 
L 203.929003 -44.018643 
L 202.83357 -43.975835 
L 201.738136 -43.938759 
L 200.642702 -43.906932 
L 199.547268 -43.87985 
L 198.451834 -43.85701 
L 197.3564 -43.837916 
L 196.260966 -43.822093 
L 195.165532 -43.809097 
L 194.070098 -43.798515 
L 192.974664 -43.789975 
L 191.87923 -43.783143 
L 190.783796 -43.777725 
L 189.688363 -43.773467 
L 188.592929 -43.770149 
L 187.497495 -43.767586 
L 186.402061 -43.765625 
z
" style="stroke: #2166ac; stroke-width: 2.5"/>
    </defs>
    <g clip-path="url(#p28fb6e290e)">
     <use xlink:href="#m5575f51c51" x="0" y="432" style="fill: #2166ac; fill-opacity: 0.5; stroke: #2166ac; stroke-width: 2.5"/>
    </g>
   </g>
   <g id="matplotlib.axis_1">
    <g id="xtick_1">
     <g id="line2d_1">
      <defs>
       <path id="md81a81346d" d="M 0 0 
L 0 3.5 
" style="stroke: #000000; stroke-width: 0.8"/>
      </defs>
      <g>
       <use xlink:href="#md81a81346d" x="112.094004" y="388.24" style="stroke: #000000; stroke-width: 0.8"/>
      </g>
     </g>
     <g id="text_1">
      <!-- 0 -->
      <g transform="translate(108.912754 402.838437) scale(0.1 -0.1)">
       <defs>
        <path id="DejaVuSans-30" d="M 2034 4250 
Q 1547 4250 1301 3770 
Q 1056 3291 1056 2328 
Q 1056 1369 1301 889 
Q 1547 409 2034 409 
Q 2525 409 2770 889 
Q 3016 1369 3016 2328 
Q 3016 3291 2770 3770 
Q 2525 4250 2034 4250 
z
M 2034 4750 
Q 2819 4750 3233 4129 
Q 3647 3509 3647 2328 
Q 3647 1150 3233 529 
Q 2819 -91 2034 -91 
Q 1250 -91 836 529 
Q 422 1150 422 2328 
Q 422 3509 836 4129 
Q 1250 4750 2034 4750 
z
" transform="scale(0.015625)"/>
       </defs>
       <use xlink:href="#DejaVuSans-30"/>
      </g>
     </g>
    </g>
    <g id="xtick_2">
     <g id="line2d_2">
      <g>
       <use xlink:href="#md81a81346d" x="177.077466" y="388.24" style="stroke: #000000; stroke-width: 0.8"/>
      </g>
     </g>
     <g id="text_2">
      <!-- 1 -->
      <g transform="translate(173.896216 402.838437) scale(0.1 -0.1)">
       <defs>
        <path id="DejaVuSans-31" d="M 794 531 
L 1825 531 
L 1825 4091 
L 703 3866 
L 703 4441 
L 1819 4666 
L 2450 4666 
L 2450 531 
L 3481 531 
L 3481 0 
L 794 0 
L 794 531 
z
" transform="scale(0.015625)"/>
       </defs>
       <use xlink:href="#DejaVuSans-31"/>
      </g>
     </g>
    </g>
    <g id="xtick_3">
     <g id="line2d_3">
      <g>
       <use xlink:href="#md81a81346d" x="242.060928" y="388.24" style="stroke: #000000; stroke-width: 0.8"/>
      </g>
     </g>
     <g id="text_3">
      <!-- 2 -->
      <g transform="translate(238.879678 402.838437) scale(0.1 -0.1)">
       <defs>
        <path id="DejaVuSans-32" d="M 1228 531 
L 3431 531 
L 3431 0 
L 469 0 
L 469 531 
Q 828 903 1448 1529 
Q 2069 2156 2228 2338 
Q 2531 2678 2651 2914 
Q 2772 3150 2772 3378 
Q 2772 3750 2511 3984 
Q 2250 4219 1831 4219 
Q 1534 4219 1204 4116 
Q 875 4013 500 3803 
L 500 4441 
Q 881 4594 1212 4672 
Q 1544 4750 1819 4750 
Q 2544 4750 2975 4387 
Q 3406 4025 3406 3419 
Q 3406 3131 3298 2873 
Q 3191 2616 2906 2266 
Q 2828 2175 2409 1742 
Q 1991 1309 1228 531 
z
" transform="scale(0.015625)"/>
       </defs>
       <use xlink:href="#DejaVuSans-32"/>
      </g>
     </g>
    </g>
    <g id="xtick_4">
     <g id="line2d_4">
      <g>
       <use xlink:href="#md81a81346d" x="307.04439" y="388.24" style="stroke: #000000; stroke-width: 0.8"/>
      </g>
     </g>
     <g id="text_4">
      <!-- 3 -->
      <g transform="translate(303.86314 402.838437) scale(0.1 -0.1)">
       <defs>
        <path id="DejaVuSans-33" d="M 2597 2516 
Q 3050 2419 3304 2112 
Q 3559 1806 3559 1356 
Q 3559 666 3084 287 
Q 2609 -91 1734 -91 
Q 1441 -91 1130 -33 
Q 819 25 488 141 
L 488 750 
Q 750 597 1062 519 
Q 1375 441 1716 441 
Q 2309 441 2620 675 
Q 2931 909 2931 1356 
Q 2931 1769 2642 2001 
Q 2353 2234 1838 2234 
L 1294 2234 
L 1294 2753 
L 1863 2753 
Q 2328 2753 2575 2939 
Q 2822 3125 2822 3475 
Q 2822 3834 2567 4026 
Q 2313 4219 1838 4219 
Q 1578 4219 1281 4162 
Q 984 4106 628 3988 
L 628 4550 
Q 988 4650 1302 4700 
Q 1616 4750 1894 4750 
Q 2613 4750 3031 4423 
Q 3450 4097 3450 3541 
Q 3450 3153 3228 2886 
Q 3006 2619 2597 2516 
z
" transform="scale(0.015625)"/>
       </defs>
       <use xlink:href="#DejaVuSans-33"/>
      </g>
     </g>
    </g>
    <g id="xtick_5">
     <g id="line2d_5">
      <g>
       <use xlink:href="#md81a81346d" x="372.027852" y="388.24" style="stroke: #000000; stroke-width: 0.8"/>
      </g>
     </g>
     <g id="text_5">
      <!-- 4 -->
      <g transform="translate(368.846602 402.838437) scale(0.1 -0.1)">
       <defs>
        <path id="DejaVuSans-34" d="M 2419 4116 
L 825 1625 
L 2419 1625 
L 2419 4116 
z
M 2253 4666 
L 3047 4666 
L 3047 1625 
L 3713 1625 
L 3713 1100 
L 3047 1100 
L 3047 0 
L 2419 0 
L 2419 1100 
L 313 1100 
L 313 1709 
L 2253 4666 
z
" transform="scale(0.015625)"/>
       </defs>
       <use xlink:href="#DejaVuSans-34"/>
      </g>
     </g>
    </g>
    <g id="text_6">
     <!-- Predicted Fluorescence -->
     <g transform="translate(166.73125 418.03625) scale(0.12 -0.12)">
      <defs>
       <path id="DejaVuSans-50" d="M 1259 4147 
L 1259 2394 
L 2053 2394 
Q 2494 2394 2734 2622 
Q 2975 2850 2975 3272 
Q 2975 3691 2734 3919 
Q 2494 4147 2053 4147 
L 1259 4147 
z
M 628 4666 
L 2053 4666 
Q 2838 4666 3239 4311 
Q 3641 3956 3641 3272 
Q 3641 2581 3239 2228 
Q 2838 1875 2053 1875 
L 1259 1875 
L 1259 0 
L 628 0 
L 628 4666 
z
" transform="scale(0.015625)"/>
       <path id="DejaVuSans-72" d="M 2631 2963 
Q 2534 3019 2420 3045 
Q 2306 3072 2169 3072 
Q 1681 3072 1420 2755 
Q 1159 2438 1159 1844 
L 1159 0 
L 581 0 
L 581 3500 
L 1159 3500 
L 1159 2956 
Q 1341 3275 1631 3429 
Q 1922 3584 2338 3584 
Q 2397 3584 2469 3576 
Q 2541 3569 2628 3553 
L 2631 2963 
z
" transform="scale(0.015625)"/>
       <path id="DejaVuSans-65" d="M 3597 1894 
L 3597 1613 
L 953 1613 
Q 991 1019 1311 708 
Q 1631 397 2203 397 
Q 2534 397 2845 478 
Q 3156 559 3463 722 
L 3463 178 
Q 3153 47 2828 -22 
Q 2503 -91 2169 -91 
Q 1331 -91 842 396 
Q 353 884 353 1716 
Q 353 2575 817 3079 
Q 1281 3584 2069 3584 
Q 2775 3584 3186 3129 
Q 3597 2675 3597 1894 
z
M 3022 2063 
Q 3016 2534 2758 2815 
Q 2500 3097 2075 3097 
Q 1594 3097 1305 2825 
Q 1016 2553 972 2059 
L 3022 2063 
z
" transform="scale(0.015625)"/>
       <path id="DejaVuSans-64" d="M 2906 2969 
L 2906 4863 
L 3481 4863 
L 3481 0 
L 2906 0 
L 2906 525 
Q 2725 213 2448 61 
Q 2172 -91 1784 -91 
Q 1150 -91 751 415 
Q 353 922 353 1747 
Q 353 2572 751 3078 
Q 1150 3584 1784 3584 
Q 2172 3584 2448 3432 
Q 2725 3281 2906 2969 
z
M 947 1747 
Q 947 1113 1208 752 
Q 1469 391 1925 391 
Q 2381 391 2643 752 
Q 2906 1113 2906 1747 
Q 2906 2381 2643 2742 
Q 2381 3103 1925 3103 
Q 1469 3103 1208 2742 
Q 947 2381 947 1747 
z
" transform="scale(0.015625)"/>
       <path id="DejaVuSans-69" d="M 603 3500 
L 1178 3500 
L 1178 0 
L 603 0 
L 603 3500 
z
M 603 4863 
L 1178 4863 
L 1178 4134 
L 603 4134 
L 603 4863 
z
" transform="scale(0.015625)"/>
       <path id="DejaVuSans-63" d="M 3122 3366 
L 3122 2828 
Q 2878 2963 2633 3030 
Q 2388 3097 2138 3097 
Q 1578 3097 1268 2742 
Q 959 2388 959 1747 
Q 959 1106 1268 751 
Q 1578 397 2138 397 
Q 2388 397 2633 464 
Q 2878 531 3122 666 
L 3122 134 
Q 2881 22 2623 -34 
Q 2366 -91 2075 -91 
Q 1284 -91 818 406 
Q 353 903 353 1747 
Q 353 2603 823 3093 
Q 1294 3584 2113 3584 
Q 2378 3584 2631 3529 
Q 2884 3475 3122 3366 
z
" transform="scale(0.015625)"/>
       <path id="DejaVuSans-74" d="M 1172 4494 
L 1172 3500 
L 2356 3500 
L 2356 3053 
L 1172 3053 
L 1172 1153 
Q 1172 725 1289 603 
Q 1406 481 1766 481 
L 2356 481 
L 2356 0 
L 1766 0 
Q 1100 0 847 248 
Q 594 497 594 1153 
L 594 3053 
L 172 3053 
L 172 3500 
L 594 3500 
L 594 4494 
L 1172 4494 
z
" transform="scale(0.015625)"/>
       <path id="DejaVuSans-20" transform="scale(0.015625)"/>
       <path id="DejaVuSans-46" d="M 628 4666 
L 3309 4666 
L 3309 4134 
L 1259 4134 
L 1259 2759 
L 3109 2759 
L 3109 2228 
L 1259 2228 
L 1259 0 
L 628 0 
L 628 4666 
z
" transform="scale(0.015625)"/>
       <path id="DejaVuSans-6c" d="M 603 4863 
L 1178 4863 
L 1178 0 
L 603 0 
L 603 4863 
z
" transform="scale(0.015625)"/>
       <path id="DejaVuSans-75" d="M 544 1381 
L 544 3500 
L 1119 3500 
L 1119 1403 
Q 1119 906 1312 657 
Q 1506 409 1894 409 
Q 2359 409 2629 706 
Q 2900 1003 2900 1516 
L 2900 3500 
L 3475 3500 
L 3475 0 
L 2900 0 
L 2900 538 
Q 2691 219 2414 64 
Q 2138 -91 1772 -91 
Q 1169 -91 856 284 
Q 544 659 544 1381 
z
M 1991 3584 
L 1991 3584 
z
" transform="scale(0.015625)"/>
       <path id="DejaVuSans-6f" d="M 1959 3097 
Q 1497 3097 1228 2736 
Q 959 2375 959 1747 
Q 959 1119 1226 758 
Q 1494 397 1959 397 
Q 2419 397 2687 759 
Q 2956 1122 2956 1747 
Q 2956 2369 2687 2733 
Q 2419 3097 1959 3097 
z
M 1959 3584 
Q 2709 3584 3137 3096 
Q 3566 2609 3566 1747 
Q 3566 888 3137 398 
Q 2709 -91 1959 -91 
Q 1206 -91 779 398 
Q 353 888 353 1747 
Q 353 2609 779 3096 
Q 1206 3584 1959 3584 
z
" transform="scale(0.015625)"/>
       <path id="DejaVuSans-73" d="M 2834 3397 
L 2834 2853 
Q 2591 2978 2328 3040 
Q 2066 3103 1784 3103 
Q 1356 3103 1142 2972 
Q 928 2841 928 2578 
Q 928 2378 1081 2264 
Q 1234 2150 1697 2047 
L 1894 2003 
Q 2506 1872 2764 1633 
Q 3022 1394 3022 966 
Q 3022 478 2636 193 
Q 2250 -91 1575 -91 
Q 1294 -91 989 -36 
Q 684 19 347 128 
L 347 722 
Q 666 556 975 473 
Q 1284 391 1588 391 
Q 1994 391 2212 530 
Q 2431 669 2431 922 
Q 2431 1156 2273 1281 
Q 2116 1406 1581 1522 
L 1381 1569 
Q 847 1681 609 1914 
Q 372 2147 372 2553 
Q 372 3047 722 3315 
Q 1072 3584 1716 3584 
Q 2034 3584 2315 3537 
Q 2597 3491 2834 3397 
z
" transform="scale(0.015625)"/>
       <path id="DejaVuSans-6e" d="M 3513 2113 
L 3513 0 
L 2938 0 
L 2938 2094 
Q 2938 2591 2744 2837 
Q 2550 3084 2163 3084 
Q 1697 3084 1428 2787 
Q 1159 2491 1159 1978 
L 1159 0 
L 581 0 
L 581 3500 
L 1159 3500 
L 1159 2956 
Q 1366 3272 1645 3428 
Q 1925 3584 2291 3584 
Q 2894 3584 3203 3211 
Q 3513 2838 3513 2113 
z
" transform="scale(0.015625)"/>
      </defs>
      <use xlink:href="#DejaVuSans-50"/>
      <use xlink:href="#DejaVuSans-72" x="58.552734"/>
      <use xlink:href="#DejaVuSans-65" x="97.416016"/>
      <use xlink:href="#DejaVuSans-64" x="158.939453"/>
      <use xlink:href="#DejaVuSans-69" x="222.416016"/>
      <use xlink:href="#DejaVuSans-63" x="250.199219"/>
      <use xlink:href="#DejaVuSans-74" x="305.179688"/>
      <use xlink:href="#DejaVuSans-65" x="344.388672"/>
      <use xlink:href="#DejaVuSans-64" x="405.912109"/>
      <use xlink:href="#DejaVuSans-20" x="469.388672"/>
      <use xlink:href="#DejaVuSans-46" x="501.175781"/>
      <use xlink:href="#DejaVuSans-6c" x="558.695312"/>
      <use xlink:href="#DejaVuSans-75" x="586.478516"/>
      <use xlink:href="#DejaVuSans-6f" x="649.857422"/>
      <use xlink:href="#DejaVuSans-72" x="711.039062"/>
      <use xlink:href="#DejaVuSans-65" x="749.902344"/>
      <use xlink:href="#DejaVuSans-73" x="811.425781"/>
      <use xlink:href="#DejaVuSans-63" x="863.525391"/>
      <use xlink:href="#DejaVuSans-65" x="918.505859"/>
      <use xlink:href="#DejaVuSans-6e" x="980.029297"/>
      <use xlink:href="#DejaVuSans-63" x="1043.408203"/>
      <use xlink:href="#DejaVuSans-65" x="1098.388672"/>
     </g>
    </g>
   </g>
   <g id="matplotlib.axis_2">
    <g id="ytick_1">
     <g id="line2d_6">
      <defs>
       <path id="m4c704292d1" d="M 0 0 
L -3.5 0 
" style="stroke: #000000; stroke-width: 0.8"/>
      </defs>
      <g>
       <use xlink:href="#m4c704292d1" x="51.455" y="388.24" style="stroke: #000000; stroke-width: 0.8"/>
      </g>
     </g>
     <g id="text_7">
      <!-- 0.0 -->
      <g transform="translate(28.551875 392.039219) scale(0.1 -0.1)">
       <defs>
        <path id="DejaVuSans-2e" d="M 684 794 
L 1344 794 
L 1344 0 
L 684 0 
L 684 794 
z
" transform="scale(0.015625)"/>
       </defs>
       <use xlink:href="#DejaVuSans-30"/>
       <use xlink:href="#DejaVuSans-2e" x="63.623047"/>
       <use xlink:href="#DejaVuSans-30" x="95.410156"/>
      </g>
     </g>
    </g>
    <g id="ytick_2">
     <g id="line2d_7">
      <g>
       <use xlink:href="#m4c704292d1" x="51.455" y="314.522093" style="stroke: #000000; stroke-width: 0.8"/>
      </g>
     </g>
     <g id="text_8">
      <!-- 0.5 -->
      <g transform="translate(28.551875 318.321312) scale(0.1 -0.1)">
       <defs>
        <path id="DejaVuSans-35" d="M 691 4666 
L 3169 4666 
L 3169 4134 
L 1269 4134 
L 1269 2991 
Q 1406 3038 1543 3061 
Q 1681 3084 1819 3084 
Q 2600 3084 3056 2656 
Q 3513 2228 3513 1497 
Q 3513 744 3044 326 
Q 2575 -91 1722 -91 
Q 1428 -91 1123 -41 
Q 819 9 494 109 
L 494 744 
Q 775 591 1075 516 
Q 1375 441 1709 441 
Q 2250 441 2565 725 
Q 2881 1009 2881 1497 
Q 2881 1984 2565 2268 
Q 2250 2553 1709 2553 
Q 1456 2553 1204 2497 
Q 953 2441 691 2322 
L 691 4666 
z
" transform="scale(0.015625)"/>
       </defs>
       <use xlink:href="#DejaVuSans-30"/>
       <use xlink:href="#DejaVuSans-2e" x="63.623047"/>
       <use xlink:href="#DejaVuSans-35" x="95.410156"/>
      </g>
     </g>
    </g>
    <g id="ytick_3">
     <g id="line2d_8">
      <g>
       <use xlink:href="#m4c704292d1" x="51.455" y="240.804186" style="stroke: #000000; stroke-width: 0.8"/>
      </g>
     </g>
     <g id="text_9">
      <!-- 1.0 -->
      <g transform="translate(28.551875 244.603405) scale(0.1 -0.1)">
       <use xlink:href="#DejaVuSans-31"/>
       <use xlink:href="#DejaVuSans-2e" x="63.623047"/>
       <use xlink:href="#DejaVuSans-30" x="95.410156"/>
      </g>
     </g>
    </g>
    <g id="ytick_4">
     <g id="line2d_9">
      <g>
       <use xlink:href="#m4c704292d1" x="51.455" y="167.08628" style="stroke: #000000; stroke-width: 0.8"/>
      </g>
     </g>
     <g id="text_10">
      <!-- 1.5 -->
      <g transform="translate(28.551875 170.885498) scale(0.1 -0.1)">
       <use xlink:href="#DejaVuSans-31"/>
       <use xlink:href="#DejaVuSans-2e" x="63.623047"/>
       <use xlink:href="#DejaVuSans-35" x="95.410156"/>
      </g>
     </g>
    </g>
    <g id="ytick_5">
     <g id="line2d_10">
      <g>
       <use xlink:href="#m4c704292d1" x="51.455" y="93.368373" style="stroke: #000000; stroke-width: 0.8"/>
      </g>
     </g>
     <g id="text_11">
      <!-- 2.0 -->
      <g transform="translate(28.551875 97.167592) scale(0.1 -0.1)">
       <use xlink:href="#DejaVuSans-32"/>
       <use xlink:href="#DejaVuSans-2e" x="63.623047"/>
       <use xlink:href="#DejaVuSans-30" x="95.410156"/>
      </g>
     </g>
    </g>
    <g id="ytick_6">
     <g id="line2d_11">
      <g>
       <use xlink:href="#m4c704292d1" x="51.455" y="19.650466" style="stroke: #000000; stroke-width: 0.8"/>
      </g>
     </g>
     <g id="text_12">
      <!-- 2.5 -->
      <g transform="translate(28.551875 23.449685) scale(0.1 -0.1)">
       <use xlink:href="#DejaVuSans-32"/>
       <use xlink:href="#DejaVuSans-2e" x="63.623047"/>
       <use xlink:href="#DejaVuSans-35" x="95.410156"/>
      </g>
     </g>
    </g>
    <g id="text_13">
     <!-- Density -->
     <g transform="translate(21.640313 226.132031) rotate(-90) scale(0.14 -0.14)">
      <defs>
       <path id="DejaVuSans-44" d="M 1259 4147 
L 1259 519 
L 2022 519 
Q 2988 519 3436 956 
Q 3884 1394 3884 2338 
Q 3884 3275 3436 3711 
Q 2988 4147 2022 4147 
L 1259 4147 
z
M 628 4666 
L 1925 4666 
Q 3281 4666 3915 4102 
Q 4550 3538 4550 2338 
Q 4550 1131 3912 565 
Q 3275 0 1925 0 
L 628 0 
L 628 4666 
z
" transform="scale(0.015625)"/>
       <path id="DejaVuSans-79" d="M 2059 -325 
Q 1816 -950 1584 -1140 
Q 1353 -1331 966 -1331 
L 506 -1331 
L 506 -850 
L 844 -850 
Q 1081 -850 1212 -737 
Q 1344 -625 1503 -206 
L 1606 56 
L 191 3500 
L 800 3500 
L 1894 763 
L 2988 3500 
L 3597 3500 
L 2059 -325 
z
" transform="scale(0.015625)"/>
      </defs>
      <use xlink:href="#DejaVuSans-44"/>
      <use xlink:href="#DejaVuSans-65" x="77.001953"/>
      <use xlink:href="#DejaVuSans-6e" x="138.525391"/>
      <use xlink:href="#DejaVuSans-73" x="201.904297"/>
      <use xlink:href="#DejaVuSans-69" x="254.003906"/>
      <use xlink:href="#DejaVuSans-74" x="281.787109"/>
      <use xlink:href="#DejaVuSans-79" x="320.996094"/>
     </g>
    </g>
   </g>
   <g id="line2d_12">
    <path d="M 351.09893 388.24 
L 351.09893 10.8 
" clip-path="url(#p28fb6e290e)" style="fill: none; stroke-dasharray: 3.7,1.6; stroke-dashoffset: 0; stroke: #000000"/>
   </g>
   <g id="patch_3">
    <path d="M 51.455 388.24 
L 51.455 10.8 
" style="fill: none; stroke: #000000; stroke-width: 0.8; stroke-linejoin: miter; stroke-linecap: square"/>
   </g>
   <g id="patch_4">
    <path d="M 51.455 388.24 
L 421.2 388.24 
" style="fill: none; stroke: #000000; stroke-width: 0.8; stroke-linejoin: miter; stroke-linecap: square"/>
   </g>
   <g id="legend_1">
    <g id="patch_5">
     <path d="M 58.455 77.5125 
L 208.903438 77.5125 
Q 210.903438 77.5125 210.903438 75.5125 
L 210.903438 17.8 
Q 210.903438 15.8 208.903438 15.8 
L 58.455 15.8 
Q 56.455 15.8 56.455 17.8 
L 56.455 75.5125 
Q 56.455 77.5125 58.455 77.5125 
z
" style="fill: #ffffff; opacity: 0.8; stroke: #cccccc; stroke-linejoin: miter"/>
    </g>
    <g id="patch_6">
     <path d="M 60.455 27.398438 
L 80.455 27.398438 
L 80.455 20.398438 
L 60.455 20.398438 
z
" style="fill: #bdbdbd; fill-opacity: 0.5; stroke: #bdbdbd; stroke-width: 2.5; stroke-linejoin: miter"/>
    </g>
    <g id="text_14">
     <!-- Pre-trained ESM2 (35M) -->
     <g transform="translate(88.455 27.398438) scale(0.1 -0.1)">
      <defs>
       <path id="DejaVuSans-2d" d="M 313 2009 
L 1997 2009 
L 1997 1497 
L 313 1497 
L 313 2009 
z
" transform="scale(0.015625)"/>
       <path id="DejaVuSans-61" d="M 2194 1759 
Q 1497 1759 1228 1600 
Q 959 1441 959 1056 
Q 959 750 1161 570 
Q 1363 391 1709 391 
Q 2188 391 2477 730 
Q 2766 1069 2766 1631 
L 2766 1759 
L 2194 1759 
z
M 3341 1997 
L 3341 0 
L 2766 0 
L 2766 531 
Q 2569 213 2275 61 
Q 1981 -91 1556 -91 
Q 1019 -91 701 211 
Q 384 513 384 1019 
Q 384 1609 779 1909 
Q 1175 2209 1959 2209 
L 2766 2209 
L 2766 2266 
Q 2766 2663 2505 2880 
Q 2244 3097 1772 3097 
Q 1472 3097 1187 3025 
Q 903 2953 641 2809 
L 641 3341 
Q 956 3463 1253 3523 
Q 1550 3584 1831 3584 
Q 2591 3584 2966 3190 
Q 3341 2797 3341 1997 
z
" transform="scale(0.015625)"/>
       <path id="DejaVuSans-45" d="M 628 4666 
L 3578 4666 
L 3578 4134 
L 1259 4134 
L 1259 2753 
L 3481 2753 
L 3481 2222 
L 1259 2222 
L 1259 531 
L 3634 531 
L 3634 0 
L 628 0 
L 628 4666 
z
" transform="scale(0.015625)"/>
       <path id="DejaVuSans-53" d="M 3425 4513 
L 3425 3897 
Q 3066 4069 2747 4153 
Q 2428 4238 2131 4238 
Q 1616 4238 1336 4038 
Q 1056 3838 1056 3469 
Q 1056 3159 1242 3001 
Q 1428 2844 1947 2747 
L 2328 2669 
Q 3034 2534 3370 2195 
Q 3706 1856 3706 1288 
Q 3706 609 3251 259 
Q 2797 -91 1919 -91 
Q 1588 -91 1214 -16 
Q 841 59 441 206 
L 441 856 
Q 825 641 1194 531 
Q 1563 422 1919 422 
Q 2459 422 2753 634 
Q 3047 847 3047 1241 
Q 3047 1584 2836 1778 
Q 2625 1972 2144 2069 
L 1759 2144 
Q 1053 2284 737 2584 
Q 422 2884 422 3419 
Q 422 4038 858 4394 
Q 1294 4750 2059 4750 
Q 2388 4750 2728 4690 
Q 3069 4631 3425 4513 
z
" transform="scale(0.015625)"/>
       <path id="DejaVuSans-4d" d="M 628 4666 
L 1569 4666 
L 2759 1491 
L 3956 4666 
L 4897 4666 
L 4897 0 
L 4281 0 
L 4281 4097 
L 3078 897 
L 2444 897 
L 1241 4097 
L 1241 0 
L 628 0 
L 628 4666 
z
" transform="scale(0.015625)"/>
       <path id="DejaVuSans-28" d="M 1984 4856 
Q 1566 4138 1362 3434 
Q 1159 2731 1159 2009 
Q 1159 1288 1364 580 
Q 1569 -128 1984 -844 
L 1484 -844 
Q 1016 -109 783 600 
Q 550 1309 550 2009 
Q 550 2706 781 3412 
Q 1013 4119 1484 4856 
L 1984 4856 
z
" transform="scale(0.015625)"/>
       <path id="DejaVuSans-29" d="M 513 4856 
L 1013 4856 
Q 1481 4119 1714 3412 
Q 1947 2706 1947 2009 
Q 1947 1309 1714 600 
Q 1481 -109 1013 -844 
L 513 -844 
Q 928 -128 1133 580 
Q 1338 1288 1338 2009 
Q 1338 2731 1133 3434 
Q 928 4138 513 4856 
z
" transform="scale(0.015625)"/>
      </defs>
      <use xlink:href="#DejaVuSans-50"/>
      <use xlink:href="#DejaVuSans-72" x="58.552734"/>
      <use xlink:href="#DejaVuSans-65" x="97.416016"/>
      <use xlink:href="#DejaVuSans-2d" x="158.939453"/>
      <use xlink:href="#DejaVuSans-74" x="195.023438"/>
      <use xlink:href="#DejaVuSans-72" x="234.232422"/>
      <use xlink:href="#DejaVuSans-61" x="275.345703"/>
      <use xlink:href="#DejaVuSans-69" x="336.625"/>
      <use xlink:href="#DejaVuSans-6e" x="364.408203"/>
      <use xlink:href="#DejaVuSans-65" x="427.787109"/>
      <use xlink:href="#DejaVuSans-64" x="489.310547"/>
      <use xlink:href="#DejaVuSans-20" x="552.787109"/>
      <use xlink:href="#DejaVuSans-45" x="584.574219"/>
      <use xlink:href="#DejaVuSans-53" x="647.757812"/>
      <use xlink:href="#DejaVuSans-4d" x="711.234375"/>
      <use xlink:href="#DejaVuSans-32" x="797.513672"/>
      <use xlink:href="#DejaVuSans-20" x="861.136719"/>
      <use xlink:href="#DejaVuSans-28" x="892.923828"/>
      <use xlink:href="#DejaVuSans-33" x="931.9375"/>
      <use xlink:href="#DejaVuSans-35" x="995.560547"/>
      <use xlink:href="#DejaVuSans-4d" x="1059.183594"/>
      <use xlink:href="#DejaVuSans-29" x="1145.462891"/>
     </g>
    </g>
    <g id="patch_7">
     <path d="M 60.455 42.076563 
L 80.455 42.076563 
L 80.455 35.076563 
L 60.455 35.076563 
z
" style="fill: #92c5de; fill-opacity: 0.5; stroke: #92c5de; stroke-width: 2.5; stroke-linejoin: miter"/>
    </g>
    <g id="text_15">
     <!-- SFT ESM2 (35M) -->
     <g transform="translate(88.455 42.076563) scale(0.1 -0.1)">
      <defs>
       <path id="DejaVuSans-54" d="M -19 4666 
L 3928 4666 
L 3928 4134 
L 2272 4134 
L 2272 0 
L 1638 0 
L 1638 4134 
L -19 4134 
L -19 4666 
z
" transform="scale(0.015625)"/>
      </defs>
      <use xlink:href="#DejaVuSans-53"/>
      <use xlink:href="#DejaVuSans-46" x="63.476562"/>
      <use xlink:href="#DejaVuSans-54" x="119.246094"/>
      <use xlink:href="#DejaVuSans-20" x="180.330078"/>
      <use xlink:href="#DejaVuSans-45" x="212.117188"/>
      <use xlink:href="#DejaVuSans-53" x="275.300781"/>
      <use xlink:href="#DejaVuSans-4d" x="338.777344"/>
      <use xlink:href="#DejaVuSans-32" x="425.056641"/>
      <use xlink:href="#DejaVuSans-20" x="488.679688"/>
      <use xlink:href="#DejaVuSans-28" x="520.466797"/>
      <use xlink:href="#DejaVuSans-33" x="559.480469"/>
      <use xlink:href="#DejaVuSans-35" x="623.103516"/>
      <use xlink:href="#DejaVuSans-4d" x="686.726562"/>
      <use xlink:href="#DejaVuSans-29" x="773.005859"/>
     </g>
    </g>
    <g id="patch_8">
     <path d="M 60.455 56.754688 
L 80.455 56.754688 
L 80.455 49.754688 
L 60.455 49.754688 
z
" style="fill: #2166ac; fill-opacity: 0.5; stroke: #2166ac; stroke-width: 2.5; stroke-linejoin: miter"/>
    </g>
    <g id="text_16">
     <!-- Aligned ESM2 (35M) -->
     <g transform="translate(88.455 56.754688) scale(0.1 -0.1)">
      <defs>
       <path id="DejaVuSans-41" d="M 2188 4044 
L 1331 1722 
L 3047 1722 
L 2188 4044 
z
M 1831 4666 
L 2547 4666 
L 4325 0 
L 3669 0 
L 3244 1197 
L 1141 1197 
L 716 0 
L 50 0 
L 1831 4666 
z
" transform="scale(0.015625)"/>
       <path id="DejaVuSans-67" d="M 2906 1791 
Q 2906 2416 2648 2759 
Q 2391 3103 1925 3103 
Q 1463 3103 1205 2759 
Q 947 2416 947 1791 
Q 947 1169 1205 825 
Q 1463 481 1925 481 
Q 2391 481 2648 825 
Q 2906 1169 2906 1791 
z
M 3481 434 
Q 3481 -459 3084 -895 
Q 2688 -1331 1869 -1331 
Q 1566 -1331 1297 -1286 
Q 1028 -1241 775 -1147 
L 775 -588 
Q 1028 -725 1275 -790 
Q 1522 -856 1778 -856 
Q 2344 -856 2625 -561 
Q 2906 -266 2906 331 
L 2906 616 
Q 2728 306 2450 153 
Q 2172 0 1784 0 
Q 1141 0 747 490 
Q 353 981 353 1791 
Q 353 2603 747 3093 
Q 1141 3584 1784 3584 
Q 2172 3584 2450 3431 
Q 2728 3278 2906 2969 
L 2906 3500 
L 3481 3500 
L 3481 434 
z
" transform="scale(0.015625)"/>
      </defs>
      <use xlink:href="#DejaVuSans-41"/>
      <use xlink:href="#DejaVuSans-6c" x="68.408203"/>
      <use xlink:href="#DejaVuSans-69" x="96.191406"/>
      <use xlink:href="#DejaVuSans-67" x="123.974609"/>
      <use xlink:href="#DejaVuSans-6e" x="187.451172"/>
      <use xlink:href="#DejaVuSans-65" x="250.830078"/>
      <use xlink:href="#DejaVuSans-64" x="312.353516"/>
      <use xlink:href="#DejaVuSans-20" x="375.830078"/>
      <use xlink:href="#DejaVuSans-45" x="407.617188"/>
      <use xlink:href="#DejaVuSans-53" x="470.800781"/>
      <use xlink:href="#DejaVuSans-4d" x="534.277344"/>
      <use xlink:href="#DejaVuSans-32" x="620.556641"/>
      <use xlink:href="#DejaVuSans-20" x="684.179688"/>
      <use xlink:href="#DejaVuSans-28" x="715.966797"/>
      <use xlink:href="#DejaVuSans-33" x="754.980469"/>
      <use xlink:href="#DejaVuSans-35" x="818.603516"/>
      <use xlink:href="#DejaVuSans-4d" x="882.226562"/>
      <use xlink:href="#DejaVuSans-29" x="968.505859"/>
     </g>
    </g>
    <g id="line2d_13">
     <path d="M 60.455 67.932813 
L 70.455 67.932813 
L 80.455 67.932813 
" style="fill: none; stroke-dasharray: 3.7,1.6; stroke-dashoffset: 0; stroke: #000000"/>
    </g>
    <g id="text_17">
     <!-- Predicted avGFP score -->
     <g transform="translate(88.455 71.432813) scale(0.1 -0.1)">
      <defs>
       <path id="DejaVuSans-76" d="M 191 3500 
L 800 3500 
L 1894 563 
L 2988 3500 
L 3597 3500 
L 2284 0 
L 1503 0 
L 191 3500 
z
" transform="scale(0.015625)"/>
       <path id="DejaVuSans-47" d="M 3809 666 
L 3809 1919 
L 2778 1919 
L 2778 2438 
L 4434 2438 
L 4434 434 
Q 4069 175 3628 42 
Q 3188 -91 2688 -91 
Q 1594 -91 976 548 
Q 359 1188 359 2328 
Q 359 3472 976 4111 
Q 1594 4750 2688 4750 
Q 3144 4750 3555 4637 
Q 3966 4525 4313 4306 
L 4313 3634 
Q 3963 3931 3569 4081 
Q 3175 4231 2741 4231 
Q 1884 4231 1454 3753 
Q 1025 3275 1025 2328 
Q 1025 1384 1454 906 
Q 1884 428 2741 428 
Q 3075 428 3337 486 
Q 3600 544 3809 666 
z
" transform="scale(0.015625)"/>
      </defs>
      <use xlink:href="#DejaVuSans-50"/>
      <use xlink:href="#DejaVuSans-72" x="58.552734"/>
      <use xlink:href="#DejaVuSans-65" x="97.416016"/>
      <use xlink:href="#DejaVuSans-64" x="158.939453"/>
      <use xlink:href="#DejaVuSans-69" x="222.416016"/>
      <use xlink:href="#DejaVuSans-63" x="250.199219"/>
      <use xlink:href="#DejaVuSans-74" x="305.179688"/>
      <use xlink:href="#DejaVuSans-65" x="344.388672"/>
      <use xlink:href="#DejaVuSans-64" x="405.912109"/>
      <use xlink:href="#DejaVuSans-20" x="469.388672"/>
      <use xlink:href="#DejaVuSans-61" x="501.175781"/>
      <use xlink:href="#DejaVuSans-76" x="562.455078"/>
      <use xlink:href="#DejaVuSans-47" x="621.634766"/>
      <use xlink:href="#DejaVuSans-46" x="699.125"/>
      <use xlink:href="#DejaVuSans-50" x="756.644531"/>
      <use xlink:href="#DejaVuSans-20" x="816.947266"/>
      <use xlink:href="#DejaVuSans-73" x="848.734375"/>
      <use xlink:href="#DejaVuSans-63" x="900.833984"/>
      <use xlink:href="#DejaVuSans-6f" x="955.814453"/>
      <use xlink:href="#DejaVuSans-72" x="1016.996094"/>
      <use xlink:href="#DejaVuSans-65" x="1055.859375"/>
     </g>
    </g>
   </g>
  </g>
 </g>
 <defs>
  <clipPath id="p28fb6e290e">
   <rect x="51.455" y="10.8" width="369.745" height="377.44"/>
  </clipPath>
 </defs>
</svg>
