<?xml version="1.0" encoding="utf-8" standalone="no"?>
<!DOCTYPE svg PUBLIC "-//W3C//DTD SVG 1.1//EN"
  "http://www.w3.org/Graphics/SVG/1.1/DTD/svg11.dtd">
<svg xmlns:xlink="http://www.w3.org/1999/xlink" width="864pt" height="432pt" viewBox="0 0 864 432" xmlns="http://www.w3.org/2000/svg" version="1.1">
 <metadata>
  <rdf:RDF xmlns:dc="http://purl.org/dc/elements/1.1/" xmlns:cc="http://creativecommons.org/ns#" xmlns:rdf="http://www.w3.org/1999/02/22-rdf-syntax-ns#">
   <cc:Work>
    <dc:type rdf:resource="http://purl.org/dc/dcmitype/StillImage"/>
    <dc:date>2024-12-19T14:30:23.405481</dc:date>
    <dc:format>image/svg+xml</dc:format>
    <dc:creator>
     <cc:Agent>
      <dc:title>Matplotlib v3.8.0, https://matplotlib.org/</dc:title>
     </cc:Agent>
    </dc:creator>
   </cc:Work>
  </rdf:RDF>
 </metadata>
 <defs>
  <style type="text/css">*{stroke-linejoin: round; stroke-linecap: butt}</style>
 </defs>
 <g id="figure_1">
  <g id="patch_1">
   <path d="M 0 432 
L 864 432 
L 864 0 
L 0 0 
z
" style="fill: #ffffff"/>
  </g>
  <g id="axes_1">
   <g id="patch_2">
    <path d="M 45.38 389.32 
L 425.025 389.32 
L 425.025 14.76 
L 45.38 14.76 
z
" style="fill: #ffffff"/>
   </g>
   <g id="patch_3">
    <path d="M 62.636591 389.32 
L 62.636591 14.76 
L 297.384934 14.76 
L 297.384934 389.32 
z
" clip-path="url(#p84019ae0db)" style="fill: #ff0000; opacity: 0.1; stroke: #ff0000; stroke-linejoin: miter"/>
   </g>
   <g id="patch_4">
    <path d="M 297.384934 389.32 
L 297.384934 14.76 
L 407.768409 14.76 
L 407.768409 389.32 
z
" clip-path="url(#p84019ae0db)" style="fill: #008000; opacity: 0.1; stroke: #008000; stroke-linejoin: miter"/>
   </g>
   <g id="patch_5">
    <path d="M 115.798822 389.32 
L 119.08221 389.32 
L 119.08221 333.614906 
L 115.798822 333.614906 
z
" clip-path="url(#p84019ae0db)" style="fill: #808080; fill-opacity: 0.4; stroke: #000000; stroke-linejoin: miter"/>
   </g>
   <g id="patch_6">
    <path d="M 119.08221 389.32 
L 122.365597 389.32 
L 122.365597 277.909812 
L 119.08221 277.909812 
z
" clip-path="url(#p84019ae0db)" style="fill: #808080; fill-opacity: 0.4; stroke: #000000; stroke-linejoin: miter"/>
   </g>
   <g id="patch_7">
    <path d="M 122.365597 389.32 
L 125.648985 389.32 
L 125.648985 389.32 
L 122.365597 389.32 
z
" clip-path="url(#p84019ae0db)" style="fill: #808080; fill-opacity: 0.4; stroke: #000000; stroke-linejoin: miter"/>
   </g>
   <g id="patch_8">
    <path d="M 125.648985 389.32 
L 128.932373 389.32 
L 128.932373 389.32 
L 125.648985 389.32 
z
" clip-path="url(#p84019ae0db)" style="fill: #808080; fill-opacity: 0.4; stroke: #000000; stroke-linejoin: miter"/>
   </g>
   <g id="patch_9">
    <path d="M 128.932373 389.32 
L 132.215761 389.32 
L 132.215761 277.909812 
L 128.932373 277.909812 
z
" clip-path="url(#p84019ae0db)" style="fill: #808080; fill-opacity: 0.4; stroke: #000000; stroke-linejoin: miter"/>
   </g>
   <g id="patch_10">
    <path d="M 132.215761 389.32 
L 135.499149 389.32 
L 135.499149 389.32 
L 132.215761 389.32 
z
" clip-path="url(#p84019ae0db)" style="fill: #808080; fill-opacity: 0.4; stroke: #000000; stroke-linejoin: miter"/>
   </g>
   <g id="patch_11">
    <path d="M 135.499149 389.32 
L 138.782537 389.32 
L 138.782537 389.32 
L 135.499149 389.32 
z
" clip-path="url(#p84019ae0db)" style="fill: #808080; fill-opacity: 0.4; stroke: #000000; stroke-linejoin: miter"/>
   </g>
   <g id="patch_12">
    <path d="M 138.782537 389.32 
L 142.065925 389.32 
L 142.065925 389.32 
L 138.782537 389.32 
z
" clip-path="url(#p84019ae0db)" style="fill: #808080; fill-opacity: 0.4; stroke: #000000; stroke-linejoin: miter"/>
   </g>
   <g id="patch_13">
    <path d="M 142.065925 389.32 
L 145.349313 389.32 
L 145.349313 333.614906 
L 142.065925 333.614906 
z
" clip-path="url(#p84019ae0db)" style="fill: #808080; fill-opacity: 0.4; stroke: #000000; stroke-linejoin: miter"/>
   </g>
   <g id="patch_14">
    <path d="M 145.349313 389.32 
L 148.632701 389.32 
L 148.632701 389.32 
L 145.349313 389.32 
z
" clip-path="url(#p84019ae0db)" style="fill: #808080; fill-opacity: 0.4; stroke: #000000; stroke-linejoin: miter"/>
   </g>
   <g id="patch_15">
    <path d="M 148.632701 389.32 
L 151.916089 389.32 
L 151.916089 389.32 
L 148.632701 389.32 
z
" clip-path="url(#p84019ae0db)" style="fill: #808080; fill-opacity: 0.4; stroke: #000000; stroke-linejoin: miter"/>
   </g>
   <g id="patch_16">
    <path d="M 151.916089 389.32 
L 155.199476 389.32 
L 155.199476 389.32 
L 151.916089 389.32 
z
" clip-path="url(#p84019ae0db)" style="fill: #808080; fill-opacity: 0.4; stroke: #000000; stroke-linejoin: miter"/>
   </g>
   <g id="patch_17">
    <path d="M 155.199476 389.32 
L 158.482864 389.32 
L 158.482864 333.614906 
L 155.199476 333.614906 
z
" clip-path="url(#p84019ae0db)" style="fill: #808080; fill-opacity: 0.4; stroke: #000000; stroke-linejoin: miter"/>
   </g>
   <g id="patch_18">
    <path d="M 158.482864 389.32 
L 161.766252 389.32 
L 161.766252 277.909812 
L 158.482864 277.909812 
z
" clip-path="url(#p84019ae0db)" style="fill: #808080; fill-opacity: 0.4; stroke: #000000; stroke-linejoin: miter"/>
   </g>
   <g id="patch_19">
    <path d="M 161.766252 389.32 
L 165.04964 389.32 
L 165.04964 277.909812 
L 161.766252 277.909812 
z
" clip-path="url(#p84019ae0db)" style="fill: #808080; fill-opacity: 0.4; stroke: #000000; stroke-linejoin: miter"/>
   </g>
   <g id="patch_20">
    <path d="M 165.04964 389.32 
L 168.333028 389.32 
L 168.333028 222.204718 
L 165.04964 222.204718 
z
" clip-path="url(#p84019ae0db)" style="fill: #808080; fill-opacity: 0.4; stroke: #000000; stroke-linejoin: miter"/>
   </g>
   <g id="patch_21">
    <path d="M 168.333028 389.32 
L 171.616416 389.32 
L 171.616416 333.614906 
L 168.333028 333.614906 
z
" clip-path="url(#p84019ae0db)" style="fill: #808080; fill-opacity: 0.4; stroke: #000000; stroke-linejoin: miter"/>
   </g>
   <g id="patch_22">
    <path d="M 171.616416 389.32 
L 174.899804 389.32 
L 174.899804 277.909812 
L 171.616416 277.909812 
z
" clip-path="url(#p84019ae0db)" style="fill: #808080; fill-opacity: 0.4; stroke: #000000; stroke-linejoin: miter"/>
   </g>
   <g id="patch_23">
    <path d="M 174.899804 389.32 
L 178.183192 389.32 
L 178.183192 222.204718 
L 174.899804 222.204718 
z
" clip-path="url(#p84019ae0db)" style="fill: #808080; fill-opacity: 0.4; stroke: #000000; stroke-linejoin: miter"/>
   </g>
   <g id="patch_24">
    <path d="M 178.183192 389.32 
L 181.46658 389.32 
L 181.46658 277.909812 
L 178.183192 277.909812 
z
" clip-path="url(#p84019ae0db)" style="fill: #808080; fill-opacity: 0.4; stroke: #000000; stroke-linejoin: miter"/>
   </g>
   <g id="patch_25">
    <path d="M 181.46658 389.32 
L 184.749968 389.32 
L 184.749968 333.614906 
L 181.46658 333.614906 
z
" clip-path="url(#p84019ae0db)" style="fill: #808080; fill-opacity: 0.4; stroke: #000000; stroke-linejoin: miter"/>
   </g>
   <g id="patch_26">
    <path d="M 184.749968 389.32 
L 188.033355 389.32 
L 188.033355 333.614906 
L 184.749968 333.614906 
z
" clip-path="url(#p84019ae0db)" style="fill: #808080; fill-opacity: 0.4; stroke: #000000; stroke-linejoin: miter"/>
   </g>
   <g id="patch_27">
    <path d="M 188.033355 389.32 
L 191.316743 389.32 
L 191.316743 277.909812 
L 188.033355 277.909812 
z
" clip-path="url(#p84019ae0db)" style="fill: #808080; fill-opacity: 0.4; stroke: #000000; stroke-linejoin: miter"/>
   </g>
   <g id="patch_28">
    <path d="M 191.316743 389.32 
L 194.600131 389.32 
L 194.600131 277.909812 
L 191.316743 277.909812 
z
" clip-path="url(#p84019ae0db)" style="fill: #808080; fill-opacity: 0.4; stroke: #000000; stroke-linejoin: miter"/>
   </g>
   <g id="patch_29">
    <path d="M 194.600131 389.32 
L 197.883519 389.32 
L 197.883519 277.909812 
L 194.600131 277.909812 
z
" clip-path="url(#p84019ae0db)" style="fill: #808080; fill-opacity: 0.4; stroke: #000000; stroke-linejoin: miter"/>
   </g>
   <g id="patch_30">
    <path d="M 297.38931 389.32 
L 299.952938 389.32 
L 299.952938 317.975238 
L 297.38931 317.975238 
z
" clip-path="url(#p84019ae0db)" style="fill: #ffff00; fill-opacity: 0.6; stroke: #000000; stroke-width: 0.288724; stroke-linejoin: miter"/>
   </g>
   <g id="patch_31">
    <path d="M 299.952938 389.32 
L 302.516566 389.32 
L 302.516566 389.32 
L 299.952938 389.32 
z
" clip-path="url(#p84019ae0db)" style="fill: #ffff00; fill-opacity: 0.6; stroke: #000000; stroke-width: 0.288724; stroke-linejoin: miter"/>
   </g>
   <g id="patch_32">
    <path d="M 302.516566 389.32 
L 305.080194 389.32 
L 305.080194 389.32 
L 302.516566 389.32 
z
" clip-path="url(#p84019ae0db)" style="fill: #ffff00; fill-opacity: 0.6; stroke: #000000; stroke-width: 0.288724; stroke-linejoin: miter"/>
   </g>
   <g id="patch_33">
    <path d="M 305.080194 389.32 
L 307.643822 389.32 
L 307.643822 389.32 
L 305.080194 389.32 
z
" clip-path="url(#p84019ae0db)" style="fill: #ffff00; fill-opacity: 0.6; stroke: #000000; stroke-width: 0.288724; stroke-linejoin: miter"/>
   </g>
   <g id="patch_34">
    <path d="M 307.643822 389.32 
L 310.20745 389.32 
L 310.20745 389.32 
L 307.643822 389.32 
z
" clip-path="url(#p84019ae0db)" style="fill: #ffff00; fill-opacity: 0.6; stroke: #000000; stroke-width: 0.288724; stroke-linejoin: miter"/>
   </g>
   <g id="patch_35">
    <path d="M 310.20745 389.32 
L 312.771078 389.32 
L 312.771078 317.975238 
L 310.20745 317.975238 
z
" clip-path="url(#p84019ae0db)" style="fill: #ffff00; fill-opacity: 0.6; stroke: #000000; stroke-width: 0.288724; stroke-linejoin: miter"/>
   </g>
   <g id="patch_36">
    <path d="M 312.771078 389.32 
L 315.334706 389.32 
L 315.334706 389.32 
L 312.771078 389.32 
z
" clip-path="url(#p84019ae0db)" style="fill: #ffff00; fill-opacity: 0.6; stroke: #000000; stroke-width: 0.288724; stroke-linejoin: miter"/>
   </g>
   <g id="patch_37">
    <path d="M 315.334706 389.32 
L 317.898334 389.32 
L 317.898334 389.32 
L 315.334706 389.32 
z
" clip-path="url(#p84019ae0db)" style="fill: #ffff00; fill-opacity: 0.6; stroke: #000000; stroke-width: 0.288724; stroke-linejoin: miter"/>
   </g>
   <g id="patch_38">
    <path d="M 317.898334 389.32 
L 320.461962 389.32 
L 320.461962 246.630476 
L 317.898334 246.630476 
z
" clip-path="url(#p84019ae0db)" style="fill: #ffff00; fill-opacity: 0.6; stroke: #000000; stroke-width: 0.288724; stroke-linejoin: miter"/>
   </g>
   <g id="patch_39">
    <path d="M 320.461962 389.32 
L 323.02559 389.32 
L 323.02559 317.975238 
L 320.461962 317.975238 
z
" clip-path="url(#p84019ae0db)" style="fill: #ffff00; fill-opacity: 0.6; stroke: #000000; stroke-width: 0.288724; stroke-linejoin: miter"/>
   </g>
   <g id="patch_40">
    <path d="M 323.02559 389.32 
L 325.589218 389.32 
L 325.589218 317.975238 
L 323.02559 317.975238 
z
" clip-path="url(#p84019ae0db)" style="fill: #ffff00; fill-opacity: 0.6; stroke: #000000; stroke-width: 0.288724; stroke-linejoin: miter"/>
   </g>
   <g id="patch_41">
    <path d="M 325.589218 389.32 
L 328.152846 389.32 
L 328.152846 246.630476 
L 325.589218 246.630476 
z
" clip-path="url(#p84019ae0db)" style="fill: #ffff00; fill-opacity: 0.6; stroke: #000000; stroke-width: 0.288724; stroke-linejoin: miter"/>
   </g>
   <g id="patch_42">
    <path d="M 328.152846 389.32 
L 330.716474 389.32 
L 330.716474 175.285714 
L 328.152846 175.285714 
z
" clip-path="url(#p84019ae0db)" style="fill: #ffff00; fill-opacity: 0.6; stroke: #000000; stroke-width: 0.288724; stroke-linejoin: miter"/>
   </g>
   <g id="patch_43">
    <path d="M 330.716474 389.32 
L 333.280102 389.32 
L 333.280102 389.32 
L 330.716474 389.32 
z
" clip-path="url(#p84019ae0db)" style="fill: #ffff00; fill-opacity: 0.6; stroke: #000000; stroke-width: 0.288724; stroke-linejoin: miter"/>
   </g>
   <g id="patch_44">
    <path d="M 333.280102 389.32 
L 335.84373 389.32 
L 335.84373 175.285714 
L 333.280102 175.285714 
z
" clip-path="url(#p84019ae0db)" style="fill: #ffff00; fill-opacity: 0.6; stroke: #000000; stroke-width: 0.288724; stroke-linejoin: miter"/>
   </g>
   <g id="patch_45">
    <path d="M 335.84373 389.32 
L 338.407358 389.32 
L 338.407358 32.59619 
L 335.84373 32.59619 
z
" clip-path="url(#p84019ae0db)" style="fill: #ffff00; fill-opacity: 0.6; stroke: #000000; stroke-width: 0.288724; stroke-linejoin: miter"/>
   </g>
   <g id="patch_46">
    <path d="M 338.407358 389.32 
L 340.970986 389.32 
L 340.970986 317.975238 
L 338.407358 317.975238 
z
" clip-path="url(#p84019ae0db)" style="fill: #ffff00; fill-opacity: 0.6; stroke: #000000; stroke-width: 0.288724; stroke-linejoin: miter"/>
   </g>
   <g id="patch_47">
    <path d="M 340.970986 389.32 
L 343.534614 389.32 
L 343.534614 389.32 
L 340.970986 389.32 
z
" clip-path="url(#p84019ae0db)" style="fill: #ffff00; fill-opacity: 0.6; stroke: #000000; stroke-width: 0.288724; stroke-linejoin: miter"/>
   </g>
   <g id="patch_48">
    <path d="M 343.534614 389.32 
L 346.098242 389.32 
L 346.098242 246.630476 
L 343.534614 246.630476 
z
" clip-path="url(#p84019ae0db)" style="fill: #ffff00; fill-opacity: 0.6; stroke: #000000; stroke-width: 0.288724; stroke-linejoin: miter"/>
   </g>
   <g id="patch_49">
    <path d="M 346.098242 389.32 
L 348.66187 389.32 
L 348.66187 246.630476 
L 346.098242 246.630476 
z
" clip-path="url(#p84019ae0db)" style="fill: #ffff00; fill-opacity: 0.6; stroke: #000000; stroke-width: 0.288724; stroke-linejoin: miter"/>
   </g>
   <g id="patch_50">
    <path d="M 348.66187 389.32 
L 351.225498 389.32 
L 351.225498 317.975238 
L 348.66187 317.975238 
z
" clip-path="url(#p84019ae0db)" style="fill: #ffff00; fill-opacity: 0.6; stroke: #000000; stroke-width: 0.288724; stroke-linejoin: miter"/>
   </g>
   <g id="patch_51">
    <path d="M 351.225498 389.32 
L 353.789126 389.32 
L 353.789126 246.630476 
L 351.225498 246.630476 
z
" clip-path="url(#p84019ae0db)" style="fill: #ffff00; fill-opacity: 0.6; stroke: #000000; stroke-width: 0.288724; stroke-linejoin: miter"/>
   </g>
   <g id="patch_52">
    <path d="M 353.789126 389.32 
L 356.352754 389.32 
L 356.352754 317.975238 
L 353.789126 317.975238 
z
" clip-path="url(#p84019ae0db)" style="fill: #ffff00; fill-opacity: 0.6; stroke: #000000; stroke-width: 0.288724; stroke-linejoin: miter"/>
   </g>
   <g id="patch_53">
    <path d="M 356.352754 389.32 
L 358.916382 389.32 
L 358.916382 317.975238 
L 356.352754 317.975238 
z
" clip-path="url(#p84019ae0db)" style="fill: #ffff00; fill-opacity: 0.6; stroke: #000000; stroke-width: 0.288724; stroke-linejoin: miter"/>
   </g>
   <g id="patch_54">
    <path d="M 358.916382 389.32 
L 361.48001 389.32 
L 361.48001 317.975238 
L 358.916382 317.975238 
z
" clip-path="url(#p84019ae0db)" style="fill: #ffff00; fill-opacity: 0.6; stroke: #000000; stroke-width: 0.288724; stroke-linejoin: miter"/>
   </g>
   <g id="patch_55">
    <path d="M 303.128488 389.32 
L 305.187595 389.32 
L 305.187595 300.494419 
L 303.128488 300.494419 
z
" clip-path="url(#p84019ae0db)" style="fill: #0000ff; fill-opacity: 0.6; stroke: #000000; stroke-width: 0.231903; stroke-linejoin: miter"/>
   </g>
   <g id="patch_56">
    <path d="M 305.187595 389.32 
L 307.246703 389.32 
L 307.246703 389.32 
L 305.187595 389.32 
z
" clip-path="url(#p84019ae0db)" style="fill: #0000ff; fill-opacity: 0.6; stroke: #000000; stroke-width: 0.231903; stroke-linejoin: miter"/>
   </g>
   <g id="patch_57">
    <path d="M 307.246703 389.32 
L 309.305811 389.32 
L 309.305811 389.32 
L 307.246703 389.32 
z
" clip-path="url(#p84019ae0db)" style="fill: #0000ff; fill-opacity: 0.6; stroke: #000000; stroke-width: 0.231903; stroke-linejoin: miter"/>
   </g>
   <g id="patch_58">
    <path d="M 309.305811 389.32 
L 311.364918 389.32 
L 311.364918 389.32 
L 309.305811 389.32 
z
" clip-path="url(#p84019ae0db)" style="fill: #0000ff; fill-opacity: 0.6; stroke: #000000; stroke-width: 0.231903; stroke-linejoin: miter"/>
   </g>
   <g id="patch_59">
    <path d="M 311.364918 389.32 
L 313.424026 389.32 
L 313.424026 389.32 
L 311.364918 389.32 
z
" clip-path="url(#p84019ae0db)" style="fill: #0000ff; fill-opacity: 0.6; stroke: #000000; stroke-width: 0.231903; stroke-linejoin: miter"/>
   </g>
   <g id="patch_60">
    <path d="M 313.424026 389.32 
L 315.483134 389.32 
L 315.483134 389.32 
L 313.424026 389.32 
z
" clip-path="url(#p84019ae0db)" style="fill: #0000ff; fill-opacity: 0.6; stroke: #000000; stroke-width: 0.231903; stroke-linejoin: miter"/>
   </g>
   <g id="patch_61">
    <path d="M 315.483134 389.32 
L 317.542241 389.32 
L 317.542241 389.32 
L 315.483134 389.32 
z
" clip-path="url(#p84019ae0db)" style="fill: #0000ff; fill-opacity: 0.6; stroke: #000000; stroke-width: 0.231903; stroke-linejoin: miter"/>
   </g>
   <g id="patch_62">
    <path d="M 317.542241 389.32 
L 319.601349 389.32 
L 319.601349 211.668838 
L 317.542241 211.668838 
z
" clip-path="url(#p84019ae0db)" style="fill: #0000ff; fill-opacity: 0.6; stroke: #000000; stroke-width: 0.231903; stroke-linejoin: miter"/>
   </g>
   <g id="patch_63">
    <path d="M 319.601349 389.32 
L 321.660456 389.32 
L 321.660456 389.32 
L 319.601349 389.32 
z
" clip-path="url(#p84019ae0db)" style="fill: #0000ff; fill-opacity: 0.6; stroke: #000000; stroke-width: 0.231903; stroke-linejoin: miter"/>
   </g>
   <g id="patch_64">
    <path d="M 321.660456 389.32 
L 323.719564 389.32 
L 323.719564 122.843256 
L 321.660456 122.843256 
z
" clip-path="url(#p84019ae0db)" style="fill: #0000ff; fill-opacity: 0.6; stroke: #000000; stroke-width: 0.231903; stroke-linejoin: miter"/>
   </g>
   <g id="patch_65">
    <path d="M 323.719564 389.32 
L 325.778672 389.32 
L 325.778672 211.668838 
L 323.719564 211.668838 
z
" clip-path="url(#p84019ae0db)" style="fill: #0000ff; fill-opacity: 0.6; stroke: #000000; stroke-width: 0.231903; stroke-linejoin: miter"/>
   </g>
   <g id="patch_66">
    <path d="M 325.778672 389.32 
L 327.837779 389.32 
L 327.837779 211.668838 
L 325.778672 211.668838 
z
" clip-path="url(#p84019ae0db)" style="fill: #0000ff; fill-opacity: 0.6; stroke: #000000; stroke-width: 0.231903; stroke-linejoin: miter"/>
   </g>
   <g id="patch_67">
    <path d="M 327.837779 389.32 
L 329.896887 389.32 
L 329.896887 389.32 
L 327.837779 389.32 
z
" clip-path="url(#p84019ae0db)" style="fill: #0000ff; fill-opacity: 0.6; stroke: #000000; stroke-width: 0.231903; stroke-linejoin: miter"/>
   </g>
   <g id="patch_68">
    <path d="M 329.896887 389.32 
L 331.955995 389.32 
L 331.955995 211.668838 
L 329.896887 211.668838 
z
" clip-path="url(#p84019ae0db)" style="fill: #0000ff; fill-opacity: 0.6; stroke: #000000; stroke-width: 0.231903; stroke-linejoin: miter"/>
   </g>
   <g id="patch_69">
    <path d="M 331.955995 389.32 
L 334.015102 389.32 
L 334.015102 122.843256 
L 331.955995 122.843256 
z
" clip-path="url(#p84019ae0db)" style="fill: #0000ff; fill-opacity: 0.6; stroke: #000000; stroke-width: 0.231903; stroke-linejoin: miter"/>
   </g>
   <g id="patch_70">
    <path d="M 334.015102 389.32 
L 336.07421 389.32 
L 336.07421 300.494419 
L 334.015102 300.494419 
z
" clip-path="url(#p84019ae0db)" style="fill: #0000ff; fill-opacity: 0.6; stroke: #000000; stroke-width: 0.231903; stroke-linejoin: miter"/>
   </g>
   <g id="patch_71">
    <path d="M 336.07421 389.32 
L 338.133317 389.32 
L 338.133317 211.668838 
L 336.07421 211.668838 
z
" clip-path="url(#p84019ae0db)" style="fill: #0000ff; fill-opacity: 0.6; stroke: #000000; stroke-width: 0.231903; stroke-linejoin: miter"/>
   </g>
   <g id="patch_72">
    <path d="M 338.133317 389.32 
L 340.192425 389.32 
L 340.192425 389.32 
L 338.133317 389.32 
z
" clip-path="url(#p84019ae0db)" style="fill: #0000ff; fill-opacity: 0.6; stroke: #000000; stroke-width: 0.231903; stroke-linejoin: miter"/>
   </g>
   <g id="patch_73">
    <path d="M 340.192425 389.32 
L 342.251533 389.32 
L 342.251533 122.843256 
L 340.192425 122.843256 
z
" clip-path="url(#p84019ae0db)" style="fill: #0000ff; fill-opacity: 0.6; stroke: #000000; stroke-width: 0.231903; stroke-linejoin: miter"/>
   </g>
   <g id="patch_74">
    <path d="M 342.251533 389.32 
L 344.31064 389.32 
L 344.31064 300.494419 
L 342.251533 300.494419 
z
" clip-path="url(#p84019ae0db)" style="fill: #0000ff; fill-opacity: 0.6; stroke: #000000; stroke-width: 0.231903; stroke-linejoin: miter"/>
   </g>
   <g id="patch_75">
    <path d="M 344.31064 389.32 
L 346.369748 389.32 
L 346.369748 122.843256 
L 344.31064 122.843256 
z
" clip-path="url(#p84019ae0db)" style="fill: #0000ff; fill-opacity: 0.6; stroke: #000000; stroke-width: 0.231903; stroke-linejoin: miter"/>
   </g>
   <g id="patch_76">
    <path d="M 346.369748 389.32 
L 348.428856 389.32 
L 348.428856 300.494419 
L 346.369748 300.494419 
z
" clip-path="url(#p84019ae0db)" style="fill: #0000ff; fill-opacity: 0.6; stroke: #000000; stroke-width: 0.231903; stroke-linejoin: miter"/>
   </g>
   <g id="patch_77">
    <path d="M 348.428856 389.32 
L 350.487963 389.32 
L 350.487963 300.494419 
L 348.428856 300.494419 
z
" clip-path="url(#p84019ae0db)" style="fill: #0000ff; fill-opacity: 0.6; stroke: #000000; stroke-width: 0.231903; stroke-linejoin: miter"/>
   </g>
   <g id="patch_78">
    <path d="M 350.487963 389.32 
L 352.547071 389.32 
L 352.547071 211.668838 
L 350.487963 211.668838 
z
" clip-path="url(#p84019ae0db)" style="fill: #0000ff; fill-opacity: 0.6; stroke: #000000; stroke-width: 0.231903; stroke-linejoin: miter"/>
   </g>
   <g id="patch_79">
    <path d="M 352.547071 389.32 
L 354.606178 389.32 
L 354.606178 300.494419 
L 352.547071 300.494419 
z
" clip-path="url(#p84019ae0db)" style="fill: #0000ff; fill-opacity: 0.6; stroke: #000000; stroke-width: 0.231903; stroke-linejoin: miter"/>
   </g>
   <g id="matplotlib.axis_1">
    <g id="xtick_1">
     <g id="line2d_1">
      <defs>
       <path id="m46c67b607f" d="M 0 0 
L 0 3.5 
" style="stroke: #000000; stroke-width: 0.8"/>
      </defs>
      <g>
       <use xlink:href="#m46c67b607f" x="84.94866" y="389.32" style="stroke: #000000; stroke-width: 0.8"/>
      </g>
     </g>
     <g id="text_1">
      <!-- 3.95 -->
      <g transform="translate(73.815848 403.918437) scale(0.1 -0.1)">
       <defs>
        <path id="DejaVuSans-33" d="M 2597 2516 
Q 3050 2419 3304 2112 
Q 3559 1806 3559 1356 
Q 3559 666 3084 287 
Q 2609 -91 1734 -91 
Q 1441 -91 1130 -33 
Q 819 25 488 141 
L 488 750 
Q 750 597 1062 519 
Q 1375 441 1716 441 
Q 2309 441 2620 675 
Q 2931 909 2931 1356 
Q 2931 1769 2642 2001 
Q 2353 2234 1838 2234 
L 1294 2234 
L 1294 2753 
L 1863 2753 
Q 2328 2753 2575 2939 
Q 2822 3125 2822 3475 
Q 2822 3834 2567 4026 
Q 2313 4219 1838 4219 
Q 1578 4219 1281 4162 
Q 984 4106 628 3988 
L 628 4550 
Q 988 4650 1302 4700 
Q 1616 4750 1894 4750 
Q 2613 4750 3031 4423 
Q 3450 4097 3450 3541 
Q 3450 3153 3228 2886 
Q 3006 2619 2597 2516 
z
" transform="scale(0.015625)"/>
        <path id="DejaVuSans-2e" d="M 684 794 
L 1344 794 
L 1344 0 
L 684 0 
L 684 794 
z
" transform="scale(0.015625)"/>
        <path id="DejaVuSans-39" d="M 703 97 
L 703 672 
Q 941 559 1184 500 
Q 1428 441 1663 441 
Q 2288 441 2617 861 
Q 2947 1281 2994 2138 
Q 2813 1869 2534 1725 
Q 2256 1581 1919 1581 
Q 1219 1581 811 2004 
Q 403 2428 403 3163 
Q 403 3881 828 4315 
Q 1253 4750 1959 4750 
Q 2769 4750 3195 4129 
Q 3622 3509 3622 2328 
Q 3622 1225 3098 567 
Q 2575 -91 1691 -91 
Q 1453 -91 1209 -44 
Q 966 3 703 97 
z
M 1959 2075 
Q 2384 2075 2632 2365 
Q 2881 2656 2881 3163 
Q 2881 3666 2632 3958 
Q 2384 4250 1959 4250 
Q 1534 4250 1286 3958 
Q 1038 3666 1038 3163 
Q 1038 2656 1286 2365 
Q 1534 2075 1959 2075 
z
" transform="scale(0.015625)"/>
        <path id="DejaVuSans-35" d="M 691 4666 
L 3169 4666 
L 3169 4134 
L 1269 4134 
L 1269 2991 
Q 1406 3038 1543 3061 
Q 1681 3084 1819 3084 
Q 2600 3084 3056 2656 
Q 3513 2228 3513 1497 
Q 3513 744 3044 326 
Q 2575 -91 1722 -91 
Q 1428 -91 1123 -41 
Q 819 9 494 109 
L 494 744 
Q 775 591 1075 516 
Q 1375 441 1709 441 
Q 2250 441 2565 725 
Q 2881 1009 2881 1497 
Q 2881 1984 2565 2268 
Q 2250 2553 1709 2553 
Q 1456 2553 1204 2497 
Q 953 2441 691 2322 
L 691 4666 
z
" transform="scale(0.015625)"/>
       </defs>
       <use xlink:href="#DejaVuSans-33"/>
       <use xlink:href="#DejaVuSans-2e" x="63.623047"/>
       <use xlink:href="#DejaVuSans-39" x="95.410156"/>
       <use xlink:href="#DejaVuSans-35" x="159.033203"/>
      </g>
     </g>
    </g>
    <g id="xtick_2">
     <g id="line2d_2">
      <g>
       <use xlink:href="#m46c67b607f" x="138.110891" y="389.32" style="stroke: #000000; stroke-width: 0.8"/>
      </g>
     </g>
     <g id="text_2">
      <!-- 4.00 -->
      <g transform="translate(126.978078 403.918437) scale(0.1 -0.1)">
       <defs>
        <path id="DejaVuSans-34" d="M 2419 4116 
L 825 1625 
L 2419 1625 
L 2419 4116 
z
M 2253 4666 
L 3047 4666 
L 3047 1625 
L 3713 1625 
L 3713 1100 
L 3047 1100 
L 3047 0 
L 2419 0 
L 2419 1100 
L 313 1100 
L 313 1709 
L 2253 4666 
z
" transform="scale(0.015625)"/>
        <path id="DejaVuSans-30" d="M 2034 4250 
Q 1547 4250 1301 3770 
Q 1056 3291 1056 2328 
Q 1056 1369 1301 889 
Q 1547 409 2034 409 
Q 2525 409 2770 889 
Q 3016 1369 3016 2328 
Q 3016 3291 2770 3770 
Q 2525 4250 2034 4250 
z
M 2034 4750 
Q 2819 4750 3233 4129 
Q 3647 3509 3647 2328 
Q 3647 1150 3233 529 
Q 2819 -91 2034 -91 
Q 1250 -91 836 529 
Q 422 1150 422 2328 
Q 422 3509 836 4129 
Q 1250 4750 2034 4750 
z
" transform="scale(0.015625)"/>
       </defs>
       <use xlink:href="#DejaVuSans-34"/>
       <use xlink:href="#DejaVuSans-2e" x="63.623047"/>
       <use xlink:href="#DejaVuSans-30" x="95.410156"/>
       <use xlink:href="#DejaVuSans-30" x="159.033203"/>
      </g>
     </g>
    </g>
    <g id="xtick_3">
     <g id="line2d_3">
      <g>
       <use xlink:href="#m46c67b607f" x="191.273122" y="389.32" style="stroke: #000000; stroke-width: 0.8"/>
      </g>
     </g>
     <g id="text_3">
      <!-- 4.05 -->
      <g transform="translate(180.140309 403.918437) scale(0.1 -0.1)">
       <use xlink:href="#DejaVuSans-34"/>
       <use xlink:href="#DejaVuSans-2e" x="63.623047"/>
       <use xlink:href="#DejaVuSans-30" x="95.410156"/>
       <use xlink:href="#DejaVuSans-35" x="159.033203"/>
      </g>
     </g>
    </g>
    <g id="xtick_4">
     <g id="line2d_4">
      <g>
       <use xlink:href="#m46c67b607f" x="244.435352" y="389.32" style="stroke: #000000; stroke-width: 0.8"/>
      </g>
     </g>
     <g id="text_4">
      <!-- 4.10 -->
      <g transform="translate(233.30254 403.918437) scale(0.1 -0.1)">
       <defs>
        <path id="DejaVuSans-31" d="M 794 531 
L 1825 531 
L 1825 4091 
L 703 3866 
L 703 4441 
L 1819 4666 
L 2450 4666 
L 2450 531 
L 3481 531 
L 3481 0 
L 794 0 
L 794 531 
z
" transform="scale(0.015625)"/>
       </defs>
       <use xlink:href="#DejaVuSans-34"/>
       <use xlink:href="#DejaVuSans-2e" x="63.623047"/>
       <use xlink:href="#DejaVuSans-31" x="95.410156"/>
       <use xlink:href="#DejaVuSans-30" x="159.033203"/>
      </g>
     </g>
    </g>
    <g id="xtick_5">
     <g id="line2d_5">
      <g>
       <use xlink:href="#m46c67b607f" x="297.597583" y="389.32" style="stroke: #000000; stroke-width: 0.8"/>
      </g>
     </g>
     <g id="text_5">
      <!-- 4.15 -->
      <g transform="translate(286.46477 403.918437) scale(0.1 -0.1)">
       <use xlink:href="#DejaVuSans-34"/>
       <use xlink:href="#DejaVuSans-2e" x="63.623047"/>
       <use xlink:href="#DejaVuSans-31" x="95.410156"/>
       <use xlink:href="#DejaVuSans-35" x="159.033203"/>
      </g>
     </g>
    </g>
    <g id="xtick_6">
     <g id="line2d_6">
      <g>
       <use xlink:href="#m46c67b607f" x="350.759814" y="389.32" style="stroke: #000000; stroke-width: 0.8"/>
      </g>
     </g>
     <g id="text_6">
      <!-- 4.20 -->
      <g transform="translate(339.627001 403.918437) scale(0.1 -0.1)">
       <defs>
        <path id="DejaVuSans-32" d="M 1228 531 
L 3431 531 
L 3431 0 
L 469 0 
L 469 531 
Q 828 903 1448 1529 
Q 2069 2156 2228 2338 
Q 2531 2678 2651 2914 
Q 2772 3150 2772 3378 
Q 2772 3750 2511 3984 
Q 2250 4219 1831 4219 
Q 1534 4219 1204 4116 
Q 875 4013 500 3803 
L 500 4441 
Q 881 4594 1212 4672 
Q 1544 4750 1819 4750 
Q 2544 4750 2975 4387 
Q 3406 4025 3406 3419 
Q 3406 3131 3298 2873 
Q 3191 2616 2906 2266 
Q 2828 2175 2409 1742 
Q 1991 1309 1228 531 
z
" transform="scale(0.015625)"/>
       </defs>
       <use xlink:href="#DejaVuSans-34"/>
       <use xlink:href="#DejaVuSans-2e" x="63.623047"/>
       <use xlink:href="#DejaVuSans-32" x="95.410156"/>
       <use xlink:href="#DejaVuSans-30" x="159.033203"/>
      </g>
     </g>
    </g>
    <g id="xtick_7">
     <g id="line2d_7">
      <g>
       <use xlink:href="#m46c67b607f" x="403.922044" y="389.32" style="stroke: #000000; stroke-width: 0.8"/>
      </g>
     </g>
     <g id="text_7">
      <!-- 4.25 -->
      <g transform="translate(392.789232 403.918437) scale(0.1 -0.1)">
       <use xlink:href="#DejaVuSans-34"/>
       <use xlink:href="#DejaVuSans-2e" x="63.623047"/>
       <use xlink:href="#DejaVuSans-32" x="95.410156"/>
       <use xlink:href="#DejaVuSans-35" x="159.033203"/>
      </g>
     </g>
    </g>
    <g id="text_8">
     <!-- Predicted Fluorescence -->
     <g transform="translate(165.60625 419.11625) scale(0.12 -0.12)">
      <defs>
       <path id="DejaVuSans-50" d="M 1259 4147 
L 1259 2394 
L 2053 2394 
Q 2494 2394 2734 2622 
Q 2975 2850 2975 3272 
Q 2975 3691 2734 3919 
Q 2494 4147 2053 4147 
L 1259 4147 
z
M 628 4666 
L 2053 4666 
Q 2838 4666 3239 4311 
Q 3641 3956 3641 3272 
Q 3641 2581 3239 2228 
Q 2838 1875 2053 1875 
L 1259 1875 
L 1259 0 
L 628 0 
L 628 4666 
z
" transform="scale(0.015625)"/>
       <path id="DejaVuSans-72" d="M 2631 2963 
Q 2534 3019 2420 3045 
Q 2306 3072 2169 3072 
Q 1681 3072 1420 2755 
Q 1159 2438 1159 1844 
L 1159 0 
L 581 0 
L 581 3500 
L 1159 3500 
L 1159 2956 
Q 1341 3275 1631 3429 
Q 1922 3584 2338 3584 
Q 2397 3584 2469 3576 
Q 2541 3569 2628 3553 
L 2631 2963 
z
" transform="scale(0.015625)"/>
       <path id="DejaVuSans-65" d="M 3597 1894 
L 3597 1613 
L 953 1613 
Q 991 1019 1311 708 
Q 1631 397 2203 397 
Q 2534 397 2845 478 
Q 3156 559 3463 722 
L 3463 178 
Q 3153 47 2828 -22 
Q 2503 -91 2169 -91 
Q 1331 -91 842 396 
Q 353 884 353 1716 
Q 353 2575 817 3079 
Q 1281 3584 2069 3584 
Q 2775 3584 3186 3129 
Q 3597 2675 3597 1894 
z
M 3022 2063 
Q 3016 2534 2758 2815 
Q 2500 3097 2075 3097 
Q 1594 3097 1305 2825 
Q 1016 2553 972 2059 
L 3022 2063 
z
" transform="scale(0.015625)"/>
       <path id="DejaVuSans-64" d="M 2906 2969 
L 2906 4863 
L 3481 4863 
L 3481 0 
L 2906 0 
L 2906 525 
Q 2725 213 2448 61 
Q 2172 -91 1784 -91 
Q 1150 -91 751 415 
Q 353 922 353 1747 
Q 353 2572 751 3078 
Q 1150 3584 1784 3584 
Q 2172 3584 2448 3432 
Q 2725 3281 2906 2969 
z
M 947 1747 
Q 947 1113 1208 752 
Q 1469 391 1925 391 
Q 2381 391 2643 752 
Q 2906 1113 2906 1747 
Q 2906 2381 2643 2742 
Q 2381 3103 1925 3103 
Q 1469 3103 1208 2742 
Q 947 2381 947 1747 
z
" transform="scale(0.015625)"/>
       <path id="DejaVuSans-69" d="M 603 3500 
L 1178 3500 
L 1178 0 
L 603 0 
L 603 3500 
z
M 603 4863 
L 1178 4863 
L 1178 4134 
L 603 4134 
L 603 4863 
z
" transform="scale(0.015625)"/>
       <path id="DejaVuSans-63" d="M 3122 3366 
L 3122 2828 
Q 2878 2963 2633 3030 
Q 2388 3097 2138 3097 
Q 1578 3097 1268 2742 
Q 959 2388 959 1747 
Q 959 1106 1268 751 
Q 1578 397 2138 397 
Q 2388 397 2633 464 
Q 2878 531 3122 666 
L 3122 134 
Q 2881 22 2623 -34 
Q 2366 -91 2075 -91 
Q 1284 -91 818 406 
Q 353 903 353 1747 
Q 353 2603 823 3093 
Q 1294 3584 2113 3584 
Q 2378 3584 2631 3529 
Q 2884 3475 3122 3366 
z
" transform="scale(0.015625)"/>
       <path id="DejaVuSans-74" d="M 1172 4494 
L 1172 3500 
L 2356 3500 
L 2356 3053 
L 1172 3053 
L 1172 1153 
Q 1172 725 1289 603 
Q 1406 481 1766 481 
L 2356 481 
L 2356 0 
L 1766 0 
Q 1100 0 847 248 
Q 594 497 594 1153 
L 594 3053 
L 172 3053 
L 172 3500 
L 594 3500 
L 594 4494 
L 1172 4494 
z
" transform="scale(0.015625)"/>
       <path id="DejaVuSans-20" transform="scale(0.015625)"/>
       <path id="DejaVuSans-46" d="M 628 4666 
L 3309 4666 
L 3309 4134 
L 1259 4134 
L 1259 2759 
L 3109 2759 
L 3109 2228 
L 1259 2228 
L 1259 0 
L 628 0 
L 628 4666 
z
" transform="scale(0.015625)"/>
       <path id="DejaVuSans-6c" d="M 603 4863 
L 1178 4863 
L 1178 0 
L 603 0 
L 603 4863 
z
" transform="scale(0.015625)"/>
       <path id="DejaVuSans-75" d="M 544 1381 
L 544 3500 
L 1119 3500 
L 1119 1403 
Q 1119 906 1312 657 
Q 1506 409 1894 409 
Q 2359 409 2629 706 
Q 2900 1003 2900 1516 
L 2900 3500 
L 3475 3500 
L 3475 0 
L 2900 0 
L 2900 538 
Q 2691 219 2414 64 
Q 2138 -91 1772 -91 
Q 1169 -91 856 284 
Q 544 659 544 1381 
z
M 1991 3584 
L 1991 3584 
z
" transform="scale(0.015625)"/>
       <path id="DejaVuSans-6f" d="M 1959 3097 
Q 1497 3097 1228 2736 
Q 959 2375 959 1747 
Q 959 1119 1226 758 
Q 1494 397 1959 397 
Q 2419 397 2687 759 
Q 2956 1122 2956 1747 
Q 2956 2369 2687 2733 
Q 2419 3097 1959 3097 
z
M 1959 3584 
Q 2709 3584 3137 3096 
Q 3566 2609 3566 1747 
Q 3566 888 3137 398 
Q 2709 -91 1959 -91 
Q 1206 -91 779 398 
Q 353 888 353 1747 
Q 353 2609 779 3096 
Q 1206 3584 1959 3584 
z
" transform="scale(0.015625)"/>
       <path id="DejaVuSans-73" d="M 2834 3397 
L 2834 2853 
Q 2591 2978 2328 3040 
Q 2066 3103 1784 3103 
Q 1356 3103 1142 2972 
Q 928 2841 928 2578 
Q 928 2378 1081 2264 
Q 1234 2150 1697 2047 
L 1894 2003 
Q 2506 1872 2764 1633 
Q 3022 1394 3022 966 
Q 3022 478 2636 193 
Q 2250 -91 1575 -91 
Q 1294 -91 989 -36 
Q 684 19 347 128 
L 347 722 
Q 666 556 975 473 
Q 1284 391 1588 391 
Q 1994 391 2212 530 
Q 2431 669 2431 922 
Q 2431 1156 2273 1281 
Q 2116 1406 1581 1522 
L 1381 1569 
Q 847 1681 609 1914 
Q 372 2147 372 2553 
Q 372 3047 722 3315 
Q 1072 3584 1716 3584 
Q 2034 3584 2315 3537 
Q 2597 3491 2834 3397 
z
" transform="scale(0.015625)"/>
       <path id="DejaVuSans-6e" d="M 3513 2113 
L 3513 0 
L 2938 0 
L 2938 2094 
Q 2938 2591 2744 2837 
Q 2550 3084 2163 3084 
Q 1697 3084 1428 2787 
Q 1159 2491 1159 1978 
L 1159 0 
L 581 0 
L 581 3500 
L 1159 3500 
L 1159 2956 
Q 1366 3272 1645 3428 
Q 1925 3584 2291 3584 
Q 2894 3584 3203 3211 
Q 3513 2838 3513 2113 
z
" transform="scale(0.015625)"/>
      </defs>
      <use xlink:href="#DejaVuSans-50"/>
      <use xlink:href="#DejaVuSans-72" x="58.552734"/>
      <use xlink:href="#DejaVuSans-65" x="97.416016"/>
      <use xlink:href="#DejaVuSans-64" x="158.939453"/>
      <use xlink:href="#DejaVuSans-69" x="222.416016"/>
      <use xlink:href="#DejaVuSans-63" x="250.199219"/>
      <use xlink:href="#DejaVuSans-74" x="305.179688"/>
      <use xlink:href="#DejaVuSans-65" x="344.388672"/>
      <use xlink:href="#DejaVuSans-64" x="405.912109"/>
      <use xlink:href="#DejaVuSans-20" x="469.388672"/>
      <use xlink:href="#DejaVuSans-46" x="501.175781"/>
      <use xlink:href="#DejaVuSans-6c" x="558.695312"/>
      <use xlink:href="#DejaVuSans-75" x="586.478516"/>
      <use xlink:href="#DejaVuSans-6f" x="649.857422"/>
      <use xlink:href="#DejaVuSans-72" x="711.039062"/>
      <use xlink:href="#DejaVuSans-65" x="749.902344"/>
      <use xlink:href="#DejaVuSans-73" x="811.425781"/>
      <use xlink:href="#DejaVuSans-63" x="863.525391"/>
      <use xlink:href="#DejaVuSans-65" x="918.505859"/>
      <use xlink:href="#DejaVuSans-6e" x="980.029297"/>
      <use xlink:href="#DejaVuSans-63" x="1043.408203"/>
      <use xlink:href="#DejaVuSans-65" x="1098.388672"/>
     </g>
    </g>
   </g>
   <g id="matplotlib.axis_2">
    <g id="ytick_1">
     <g id="line2d_8">
      <defs>
       <path id="mb705dca470" d="M 0 0 
L -3.5 0 
" style="stroke: #000000; stroke-width: 0.8"/>
      </defs>
      <g>
       <use xlink:href="#mb705dca470" x="45.38" y="389.32" style="stroke: #000000; stroke-width: 0.8"/>
      </g>
     </g>
     <g id="text_9">
      <!-- 0 -->
      <g transform="translate(32.0175 393.119219) scale(0.1 -0.1)">
       <use xlink:href="#DejaVuSans-30"/>
      </g>
     </g>
    </g>
    <g id="ytick_2">
     <g id="line2d_9">
      <g>
       <use xlink:href="#mb705dca470" x="45.38" y="337.713409" style="stroke: #000000; stroke-width: 0.8"/>
      </g>
     </g>
     <g id="text_10">
      <!-- 10 -->
      <g transform="translate(25.655 341.512628) scale(0.1 -0.1)">
       <use xlink:href="#DejaVuSans-31"/>
       <use xlink:href="#DejaVuSans-30" x="63.623047"/>
      </g>
     </g>
    </g>
    <g id="ytick_3">
     <g id="line2d_10">
      <g>
       <use xlink:href="#mb705dca470" x="45.38" y="286.106819" style="stroke: #000000; stroke-width: 0.8"/>
      </g>
     </g>
     <g id="text_11">
      <!-- 20 -->
      <g transform="translate(25.655 289.906038) scale(0.1 -0.1)">
       <use xlink:href="#DejaVuSans-32"/>
       <use xlink:href="#DejaVuSans-30" x="63.623047"/>
      </g>
     </g>
    </g>
    <g id="ytick_4">
     <g id="line2d_11">
      <g>
       <use xlink:href="#mb705dca470" x="45.38" y="234.500228" style="stroke: #000000; stroke-width: 0.8"/>
      </g>
     </g>
     <g id="text_12">
      <!-- 30 -->
      <g transform="translate(25.655 238.299447) scale(0.1 -0.1)">
       <use xlink:href="#DejaVuSans-33"/>
       <use xlink:href="#DejaVuSans-30" x="63.623047"/>
      </g>
     </g>
    </g>
    <g id="ytick_5">
     <g id="line2d_12">
      <g>
       <use xlink:href="#mb705dca470" x="45.38" y="182.893638" style="stroke: #000000; stroke-width: 0.8"/>
      </g>
     </g>
     <g id="text_13">
      <!-- 40 -->
      <g transform="translate(25.655 186.692856) scale(0.1 -0.1)">
       <use xlink:href="#DejaVuSans-34"/>
       <use xlink:href="#DejaVuSans-30" x="63.623047"/>
      </g>
     </g>
    </g>
    <g id="ytick_6">
     <g id="line2d_13">
      <g>
       <use xlink:href="#mb705dca470" x="45.38" y="131.287047" style="stroke: #000000; stroke-width: 0.8"/>
      </g>
     </g>
     <g id="text_14">
      <!-- 50 -->
      <g transform="translate(25.655 135.086266) scale(0.1 -0.1)">
       <use xlink:href="#DejaVuSans-35"/>
       <use xlink:href="#DejaVuSans-30" x="63.623047"/>
      </g>
     </g>
    </g>
    <g id="ytick_7">
     <g id="line2d_14">
      <g>
       <use xlink:href="#mb705dca470" x="45.38" y="79.680457" style="stroke: #000000; stroke-width: 0.8"/>
      </g>
     </g>
     <g id="text_15">
      <!-- 60 -->
      <g transform="translate(25.655 83.479675) scale(0.1 -0.1)">
       <defs>
        <path id="DejaVuSans-36" d="M 2113 2584 
Q 1688 2584 1439 2293 
Q 1191 2003 1191 1497 
Q 1191 994 1439 701 
Q 1688 409 2113 409 
Q 2538 409 2786 701 
Q 3034 994 3034 1497 
Q 3034 2003 2786 2293 
Q 2538 2584 2113 2584 
z
M 3366 4563 
L 3366 3988 
Q 3128 4100 2886 4159 
Q 2644 4219 2406 4219 
Q 1781 4219 1451 3797 
Q 1122 3375 1075 2522 
Q 1259 2794 1537 2939 
Q 1816 3084 2150 3084 
Q 2853 3084 3261 2657 
Q 3669 2231 3669 1497 
Q 3669 778 3244 343 
Q 2819 -91 2113 -91 
Q 1303 -91 875 529 
Q 447 1150 447 2328 
Q 447 3434 972 4092 
Q 1497 4750 2381 4750 
Q 2619 4750 2861 4703 
Q 3103 4656 3366 4563 
z
" transform="scale(0.015625)"/>
       </defs>
       <use xlink:href="#DejaVuSans-36"/>
       <use xlink:href="#DejaVuSans-30" x="63.623047"/>
      </g>
     </g>
    </g>
    <g id="ytick_8">
     <g id="line2d_15">
      <g>
       <use xlink:href="#mb705dca470" x="45.38" y="28.073866" style="stroke: #000000; stroke-width: 0.8"/>
      </g>
     </g>
     <g id="text_16">
      <!-- 70 -->
      <g transform="translate(25.655 31.873085) scale(0.1 -0.1)">
       <defs>
        <path id="DejaVuSans-37" d="M 525 4666 
L 3525 4666 
L 3525 4397 
L 1831 0 
L 1172 0 
L 2766 4134 
L 525 4134 
L 525 4666 
z
" transform="scale(0.015625)"/>
       </defs>
       <use xlink:href="#DejaVuSans-37"/>
       <use xlink:href="#DejaVuSans-30" x="63.623047"/>
      </g>
     </g>
    </g>
    <g id="text_17">
     <!-- Probability Density -->
     <g transform="translate(19.159375 258.471875) rotate(-90) scale(0.12 -0.12)">
      <defs>
       <path id="DejaVuSans-62" d="M 3116 1747 
Q 3116 2381 2855 2742 
Q 2594 3103 2138 3103 
Q 1681 3103 1420 2742 
Q 1159 2381 1159 1747 
Q 1159 1113 1420 752 
Q 1681 391 2138 391 
Q 2594 391 2855 752 
Q 3116 1113 3116 1747 
z
M 1159 2969 
Q 1341 3281 1617 3432 
Q 1894 3584 2278 3584 
Q 2916 3584 3314 3078 
Q 3713 2572 3713 1747 
Q 3713 922 3314 415 
Q 2916 -91 2278 -91 
Q 1894 -91 1617 61 
Q 1341 213 1159 525 
L 1159 0 
L 581 0 
L 581 4863 
L 1159 4863 
L 1159 2969 
z
" transform="scale(0.015625)"/>
       <path id="DejaVuSans-61" d="M 2194 1759 
Q 1497 1759 1228 1600 
Q 959 1441 959 1056 
Q 959 750 1161 570 
Q 1363 391 1709 391 
Q 2188 391 2477 730 
Q 2766 1069 2766 1631 
L 2766 1759 
L 2194 1759 
z
M 3341 1997 
L 3341 0 
L 2766 0 
L 2766 531 
Q 2569 213 2275 61 
Q 1981 -91 1556 -91 
Q 1019 -91 701 211 
Q 384 513 384 1019 
Q 384 1609 779 1909 
Q 1175 2209 1959 2209 
L 2766 2209 
L 2766 2266 
Q 2766 2663 2505 2880 
Q 2244 3097 1772 3097 
Q 1472 3097 1187 3025 
Q 903 2953 641 2809 
L 641 3341 
Q 956 3463 1253 3523 
Q 1550 3584 1831 3584 
Q 2591 3584 2966 3190 
Q 3341 2797 3341 1997 
z
" transform="scale(0.015625)"/>
       <path id="DejaVuSans-79" d="M 2059 -325 
Q 1816 -950 1584 -1140 
Q 1353 -1331 966 -1331 
L 506 -1331 
L 506 -850 
L 844 -850 
Q 1081 -850 1212 -737 
Q 1344 -625 1503 -206 
L 1606 56 
L 191 3500 
L 800 3500 
L 1894 763 
L 2988 3500 
L 3597 3500 
L 2059 -325 
z
" transform="scale(0.015625)"/>
       <path id="DejaVuSans-44" d="M 1259 4147 
L 1259 519 
L 2022 519 
Q 2988 519 3436 956 
Q 3884 1394 3884 2338 
Q 3884 3275 3436 3711 
Q 2988 4147 2022 4147 
L 1259 4147 
z
M 628 4666 
L 1925 4666 
Q 3281 4666 3915 4102 
Q 4550 3538 4550 2338 
Q 4550 1131 3912 565 
Q 3275 0 1925 0 
L 628 0 
L 628 4666 
z
" transform="scale(0.015625)"/>
      </defs>
      <use xlink:href="#DejaVuSans-50"/>
      <use xlink:href="#DejaVuSans-72" x="58.552734"/>
      <use xlink:href="#DejaVuSans-6f" x="97.416016"/>
      <use xlink:href="#DejaVuSans-62" x="158.597656"/>
      <use xlink:href="#DejaVuSans-61" x="222.074219"/>
      <use xlink:href="#DejaVuSans-62" x="283.353516"/>
      <use xlink:href="#DejaVuSans-69" x="346.830078"/>
      <use xlink:href="#DejaVuSans-6c" x="374.613281"/>
      <use xlink:href="#DejaVuSans-69" x="402.396484"/>
      <use xlink:href="#DejaVuSans-74" x="430.179688"/>
      <use xlink:href="#DejaVuSans-79" x="469.388672"/>
      <use xlink:href="#DejaVuSans-20" x="528.568359"/>
      <use xlink:href="#DejaVuSans-44" x="560.355469"/>
      <use xlink:href="#DejaVuSans-65" x="637.357422"/>
      <use xlink:href="#DejaVuSans-6e" x="698.880859"/>
      <use xlink:href="#DejaVuSans-73" x="762.259766"/>
      <use xlink:href="#DejaVuSans-69" x="814.359375"/>
      <use xlink:href="#DejaVuSans-74" x="842.142578"/>
      <use xlink:href="#DejaVuSans-79" x="881.351562"/>
     </g>
    </g>
   </g>
   <g id="line2d_16">
    <path d="M 297.384934 389.32 
L 297.384934 14.76 
" clip-path="url(#p84019ae0db)" style="fill: none; stroke-dasharray: 11.1,4.8; stroke-dashoffset: 0; stroke: #ffa500; stroke-width: 3"/>
   </g>
   <g id="patch_80">
    <path d="M 45.38 389.32 
L 45.38 14.76 
" style="fill: none; stroke: #000000; stroke-width: 0.8; stroke-linejoin: miter; stroke-linecap: square"/>
   </g>
   <g id="patch_81">
    <path d="M 45.38 389.32 
L 425.025 389.32 
" style="fill: none; stroke: #000000; stroke-width: 0.8; stroke-linejoin: miter; stroke-linecap: square"/>
   </g>
   <g id="legend_1">
    <g id="patch_82">
     <path d="M 176.145469 66.794375 
L 294.259531 66.794375 
Q 296.259531 66.794375 296.259531 64.794375 
L 296.259531 21.76 
Q 296.259531 19.76 294.259531 19.76 
L 176.145469 19.76 
Q 174.145469 19.76 174.145469 21.76 
L 174.145469 64.794375 
Q 174.145469 66.794375 176.145469 66.794375 
z
" style="fill: #ffffff; opacity: 0.8; stroke: #cccccc; stroke-linejoin: miter"/>
    </g>
    <g id="patch_83">
     <path d="M 178.145469 31.358438 
L 198.145469 31.358438 
L 198.145469 24.358438 
L 178.145469 24.358438 
z
" style="fill: #808080; fill-opacity: 0.4; stroke: #000000; stroke-linejoin: miter"/>
    </g>
    <g id="text_18">
     <!-- Pre-trained ESM2 -->
     <g transform="translate(206.145469 31.358438) scale(0.1 -0.1)">
      <defs>
       <path id="DejaVuSans-2d" d="M 313 2009 
L 1997 2009 
L 1997 1497 
L 313 1497 
L 313 2009 
z
" transform="scale(0.015625)"/>
       <path id="DejaVuSans-45" d="M 628 4666 
L 3578 4666 
L 3578 4134 
L 1259 4134 
L 1259 2753 
L 3481 2753 
L 3481 2222 
L 1259 2222 
L 1259 531 
L 3634 531 
L 3634 0 
L 628 0 
L 628 4666 
z
" transform="scale(0.015625)"/>
       <path id="DejaVuSans-53" d="M 3425 4513 
L 3425 3897 
Q 3066 4069 2747 4153 
Q 2428 4238 2131 4238 
Q 1616 4238 1336 4038 
Q 1056 3838 1056 3469 
Q 1056 3159 1242 3001 
Q 1428 2844 1947 2747 
L 2328 2669 
Q 3034 2534 3370 2195 
Q 3706 1856 3706 1288 
Q 3706 609 3251 259 
Q 2797 -91 1919 -91 
Q 1588 -91 1214 -16 
Q 841 59 441 206 
L 441 856 
Q 825 641 1194 531 
Q 1563 422 1919 422 
Q 2459 422 2753 634 
Q 3047 847 3047 1241 
Q 3047 1584 2836 1778 
Q 2625 1972 2144 2069 
L 1759 2144 
Q 1053 2284 737 2584 
Q 422 2884 422 3419 
Q 422 4038 858 4394 
Q 1294 4750 2059 4750 
Q 2388 4750 2728 4690 
Q 3069 4631 3425 4513 
z
" transform="scale(0.015625)"/>
       <path id="DejaVuSans-4d" d="M 628 4666 
L 1569 4666 
L 2759 1491 
L 3956 4666 
L 4897 4666 
L 4897 0 
L 4281 0 
L 4281 4097 
L 3078 897 
L 2444 897 
L 1241 4097 
L 1241 0 
L 628 0 
L 628 4666 
z
" transform="scale(0.015625)"/>
      </defs>
      <use xlink:href="#DejaVuSans-50"/>
      <use xlink:href="#DejaVuSans-72" x="58.552734"/>
      <use xlink:href="#DejaVuSans-65" x="97.416016"/>
      <use xlink:href="#DejaVuSans-2d" x="158.939453"/>
      <use xlink:href="#DejaVuSans-74" x="195.023438"/>
      <use xlink:href="#DejaVuSans-72" x="234.232422"/>
      <use xlink:href="#DejaVuSans-61" x="275.345703"/>
      <use xlink:href="#DejaVuSans-69" x="336.625"/>
      <use xlink:href="#DejaVuSans-6e" x="364.408203"/>
      <use xlink:href="#DejaVuSans-65" x="427.787109"/>
      <use xlink:href="#DejaVuSans-64" x="489.310547"/>
      <use xlink:href="#DejaVuSans-20" x="552.787109"/>
      <use xlink:href="#DejaVuSans-45" x="584.574219"/>
      <use xlink:href="#DejaVuSans-53" x="647.757812"/>
      <use xlink:href="#DejaVuSans-4d" x="711.234375"/>
      <use xlink:href="#DejaVuSans-32" x="797.513672"/>
     </g>
    </g>
    <g id="patch_84">
     <path d="M 178.145469 46.036563 
L 198.145469 46.036563 
L 198.145469 39.036563 
L 178.145469 39.036563 
z
" style="fill: #ffff00; fill-opacity: 0.6; stroke: #000000; stroke-width: 0.288724; stroke-linejoin: miter"/>
    </g>
    <g id="text_19">
     <!-- SFT ESM2 -->
     <g transform="translate(206.145469 46.036563) scale(0.1 -0.1)">
      <defs>
       <path id="DejaVuSans-54" d="M -19 4666 
L 3928 4666 
L 3928 4134 
L 2272 4134 
L 2272 0 
L 1638 0 
L 1638 4134 
L -19 4134 
L -19 4666 
z
" transform="scale(0.015625)"/>
      </defs>
      <use xlink:href="#DejaVuSans-53"/>
      <use xlink:href="#DejaVuSans-46" x="63.476562"/>
      <use xlink:href="#DejaVuSans-54" x="119.246094"/>
      <use xlink:href="#DejaVuSans-20" x="180.330078"/>
      <use xlink:href="#DejaVuSans-45" x="212.117188"/>
      <use xlink:href="#DejaVuSans-53" x="275.300781"/>
      <use xlink:href="#DejaVuSans-4d" x="338.777344"/>
      <use xlink:href="#DejaVuSans-32" x="425.056641"/>
     </g>
    </g>
    <g id="patch_85">
     <path d="M 178.145469 60.714688 
L 198.145469 60.714688 
L 198.145469 53.714688 
L 178.145469 53.714688 
z
" style="fill: #0000ff; fill-opacity: 0.6; stroke: #000000; stroke-width: 0.231903; stroke-linejoin: miter"/>
    </g>
    <g id="text_20">
     <!-- Aligned ESM2 -->
     <g transform="translate(206.145469 60.714688) scale(0.1 -0.1)">
      <defs>
       <path id="DejaVuSans-41" d="M 2188 4044 
L 1331 1722 
L 3047 1722 
L 2188 4044 
z
M 1831 4666 
L 2547 4666 
L 4325 0 
L 3669 0 
L 3244 1197 
L 1141 1197 
L 716 0 
L 50 0 
L 1831 4666 
z
" transform="scale(0.015625)"/>
       <path id="DejaVuSans-67" d="M 2906 1791 
Q 2906 2416 2648 2759 
Q 2391 3103 1925 3103 
Q 1463 3103 1205 2759 
Q 947 2416 947 1791 
Q 947 1169 1205 825 
Q 1463 481 1925 481 
Q 2391 481 2648 825 
Q 2906 1169 2906 1791 
z
M 3481 434 
Q 3481 -459 3084 -895 
Q 2688 -1331 1869 -1331 
Q 1566 -1331 1297 -1286 
Q 1028 -1241 775 -1147 
L 775 -588 
Q 1028 -725 1275 -790 
Q 1522 -856 1778 -856 
Q 2344 -856 2625 -561 
Q 2906 -266 2906 331 
L 2906 616 
Q 2728 306 2450 153 
Q 2172 0 1784 0 
Q 1141 0 747 490 
Q 353 981 353 1791 
Q 353 2603 747 3093 
Q 1141 3584 1784 3584 
Q 2172 3584 2450 3431 
Q 2728 3278 2906 2969 
L 2906 3500 
L 3481 3500 
L 3481 434 
z
" transform="scale(0.015625)"/>
      </defs>
      <use xlink:href="#DejaVuSans-41"/>
      <use xlink:href="#DejaVuSans-6c" x="68.408203"/>
      <use xlink:href="#DejaVuSans-69" x="96.191406"/>
      <use xlink:href="#DejaVuSans-67" x="123.974609"/>
      <use xlink:href="#DejaVuSans-6e" x="187.451172"/>
      <use xlink:href="#DejaVuSans-65" x="250.830078"/>
      <use xlink:href="#DejaVuSans-64" x="312.353516"/>
      <use xlink:href="#DejaVuSans-20" x="375.830078"/>
      <use xlink:href="#DejaVuSans-45" x="407.617188"/>
      <use xlink:href="#DejaVuSans-53" x="470.800781"/>
      <use xlink:href="#DejaVuSans-4d" x="534.277344"/>
      <use xlink:href="#DejaVuSans-32" x="620.556641"/>
     </g>
    </g>
   </g>
  </g>
  <g id="axes_2">
   <g id="patch_86">
    <path d="M 473.555 389.32 
L 853.2 389.32 
L 853.2 14.76 
L 473.555 14.76 
z
" style="fill: #ffffff"/>
   </g>
   <g id="patch_87">
    <path d="M 490.811591 389.32 
L 490.811591 14.76 
L 725.559934 14.76 
L 725.559934 389.32 
z
" clip-path="url(#p67a3f77da2)" style="fill: #ff0000; opacity: 0.1; stroke: #ff0000; stroke-linejoin: miter"/>
   </g>
   <g id="patch_88">
    <path d="M 725.559934 389.32 
L 725.559934 14.76 
L 835.943409 14.76 
L 835.943409 389.32 
z
" clip-path="url(#p67a3f77da2)" style="fill: #008000; opacity: 0.1; stroke: #008000; stroke-linejoin: miter"/>
   </g>
   <g id="matplotlib.axis_3">
    <g id="xtick_8">
     <g id="line2d_17">
      <g>
       <use xlink:href="#m46c67b607f" x="513.12366" y="389.32" style="stroke: #000000; stroke-width: 0.8"/>
      </g>
     </g>
     <g id="text_21">
      <!-- 3.95 -->
      <g transform="translate(501.990848 403.918437) scale(0.1 -0.1)">
       <use xlink:href="#DejaVuSans-33"/>
       <use xlink:href="#DejaVuSans-2e" x="63.623047"/>
       <use xlink:href="#DejaVuSans-39" x="95.410156"/>
       <use xlink:href="#DejaVuSans-35" x="159.033203"/>
      </g>
     </g>
    </g>
    <g id="xtick_9">
     <g id="line2d_18">
      <g>
       <use xlink:href="#m46c67b607f" x="566.285891" y="389.32" style="stroke: #000000; stroke-width: 0.8"/>
      </g>
     </g>
     <g id="text_22">
      <!-- 4.00 -->
      <g transform="translate(555.153078 403.918437) scale(0.1 -0.1)">
       <use xlink:href="#DejaVuSans-34"/>
       <use xlink:href="#DejaVuSans-2e" x="63.623047"/>
       <use xlink:href="#DejaVuSans-30" x="95.410156"/>
       <use xlink:href="#DejaVuSans-30" x="159.033203"/>
      </g>
     </g>
    </g>
    <g id="xtick_10">
     <g id="line2d_19">
      <g>
       <use xlink:href="#m46c67b607f" x="619.448122" y="389.32" style="stroke: #000000; stroke-width: 0.8"/>
      </g>
     </g>
     <g id="text_23">
      <!-- 4.05 -->
      <g transform="translate(608.315309 403.918437) scale(0.1 -0.1)">
       <use xlink:href="#DejaVuSans-34"/>
       <use xlink:href="#DejaVuSans-2e" x="63.623047"/>
       <use xlink:href="#DejaVuSans-30" x="95.410156"/>
       <use xlink:href="#DejaVuSans-35" x="159.033203"/>
      </g>
     </g>
    </g>
    <g id="xtick_11">
     <g id="line2d_20">
      <g>
       <use xlink:href="#m46c67b607f" x="672.610352" y="389.32" style="stroke: #000000; stroke-width: 0.8"/>
      </g>
     </g>
     <g id="text_24">
      <!-- 4.10 -->
      <g transform="translate(661.47754 403.918437) scale(0.1 -0.1)">
       <use xlink:href="#DejaVuSans-34"/>
       <use xlink:href="#DejaVuSans-2e" x="63.623047"/>
       <use xlink:href="#DejaVuSans-31" x="95.410156"/>
       <use xlink:href="#DejaVuSans-30" x="159.033203"/>
      </g>
     </g>
    </g>
    <g id="xtick_12">
     <g id="line2d_21">
      <g>
       <use xlink:href="#m46c67b607f" x="725.772583" y="389.32" style="stroke: #000000; stroke-width: 0.8"/>
      </g>
     </g>
     <g id="text_25">
      <!-- 4.15 -->
      <g transform="translate(714.63977 403.918437) scale(0.1 -0.1)">
       <use xlink:href="#DejaVuSans-34"/>
       <use xlink:href="#DejaVuSans-2e" x="63.623047"/>
       <use xlink:href="#DejaVuSans-31" x="95.410156"/>
       <use xlink:href="#DejaVuSans-35" x="159.033203"/>
      </g>
     </g>
    </g>
    <g id="xtick_13">
     <g id="line2d_22">
      <g>
       <use xlink:href="#m46c67b607f" x="778.934814" y="389.32" style="stroke: #000000; stroke-width: 0.8"/>
      </g>
     </g>
     <g id="text_26">
      <!-- 4.20 -->
      <g transform="translate(767.802001 403.918437) scale(0.1 -0.1)">
       <use xlink:href="#DejaVuSans-34"/>
       <use xlink:href="#DejaVuSans-2e" x="63.623047"/>
       <use xlink:href="#DejaVuSans-32" x="95.410156"/>
       <use xlink:href="#DejaVuSans-30" x="159.033203"/>
      </g>
     </g>
    </g>
    <g id="xtick_14">
     <g id="line2d_23">
      <g>
       <use xlink:href="#m46c67b607f" x="832.097044" y="389.32" style="stroke: #000000; stroke-width: 0.8"/>
      </g>
     </g>
     <g id="text_27">
      <!-- 4.25 -->
      <g transform="translate(820.964232 403.918437) scale(0.1 -0.1)">
       <use xlink:href="#DejaVuSans-34"/>
       <use xlink:href="#DejaVuSans-2e" x="63.623047"/>
       <use xlink:href="#DejaVuSans-32" x="95.410156"/>
       <use xlink:href="#DejaVuSans-35" x="159.033203"/>
      </g>
     </g>
    </g>
    <g id="text_28">
     <!-- Predicted Fluorescence -->
     <g transform="translate(593.78125 419.11625) scale(0.12 -0.12)">
      <use xlink:href="#DejaVuSans-50"/>
      <use xlink:href="#DejaVuSans-72" x="58.552734"/>
      <use xlink:href="#DejaVuSans-65" x="97.416016"/>
      <use xlink:href="#DejaVuSans-64" x="158.939453"/>
      <use xlink:href="#DejaVuSans-69" x="222.416016"/>
      <use xlink:href="#DejaVuSans-63" x="250.199219"/>
      <use xlink:href="#DejaVuSans-74" x="305.179688"/>
      <use xlink:href="#DejaVuSans-65" x="344.388672"/>
      <use xlink:href="#DejaVuSans-64" x="405.912109"/>
      <use xlink:href="#DejaVuSans-20" x="469.388672"/>
      <use xlink:href="#DejaVuSans-46" x="501.175781"/>
      <use xlink:href="#DejaVuSans-6c" x="558.695312"/>
      <use xlink:href="#DejaVuSans-75" x="586.478516"/>
      <use xlink:href="#DejaVuSans-6f" x="649.857422"/>
      <use xlink:href="#DejaVuSans-72" x="711.039062"/>
      <use xlink:href="#DejaVuSans-65" x="749.902344"/>
      <use xlink:href="#DejaVuSans-73" x="811.425781"/>
      <use xlink:href="#DejaVuSans-63" x="863.525391"/>
      <use xlink:href="#DejaVuSans-65" x="918.505859"/>
      <use xlink:href="#DejaVuSans-6e" x="980.029297"/>
      <use xlink:href="#DejaVuSans-63" x="1043.408203"/>
      <use xlink:href="#DejaVuSans-65" x="1098.388672"/>
     </g>
    </g>
   </g>
   <g id="matplotlib.axis_4">
    <g id="ytick_9">
     <g id="line2d_24">
      <g>
       <use xlink:href="#mb705dca470" x="473.555" y="389.32" style="stroke: #000000; stroke-width: 0.8"/>
      </g>
     </g>
     <g id="text_29">
      <!-- 0.0 -->
      <g transform="translate(450.651875 393.119219) scale(0.1 -0.1)">
       <use xlink:href="#DejaVuSans-30"/>
       <use xlink:href="#DejaVuSans-2e" x="63.623047"/>
       <use xlink:href="#DejaVuSans-30" x="95.410156"/>
      </g>
     </g>
    </g>
    <g id="ytick_10">
     <g id="line2d_25">
      <g>
       <use xlink:href="#mb705dca470" x="473.555" y="314.408" style="stroke: #000000; stroke-width: 0.8"/>
      </g>
     </g>
     <g id="text_30">
      <!-- 0.2 -->
      <g transform="translate(450.651875 318.207219) scale(0.1 -0.1)">
       <use xlink:href="#DejaVuSans-30"/>
       <use xlink:href="#DejaVuSans-2e" x="63.623047"/>
       <use xlink:href="#DejaVuSans-32" x="95.410156"/>
      </g>
     </g>
    </g>
    <g id="ytick_11">
     <g id="line2d_26">
      <g>
       <use xlink:href="#mb705dca470" x="473.555" y="239.496" style="stroke: #000000; stroke-width: 0.8"/>
      </g>
     </g>
     <g id="text_31">
      <!-- 0.4 -->
      <g transform="translate(450.651875 243.295219) scale(0.1 -0.1)">
       <use xlink:href="#DejaVuSans-30"/>
       <use xlink:href="#DejaVuSans-2e" x="63.623047"/>
       <use xlink:href="#DejaVuSans-34" x="95.410156"/>
      </g>
     </g>
    </g>
    <g id="ytick_12">
     <g id="line2d_27">
      <g>
       <use xlink:href="#mb705dca470" x="473.555" y="164.584" style="stroke: #000000; stroke-width: 0.8"/>
      </g>
     </g>
     <g id="text_32">
      <!-- 0.6 -->
      <g transform="translate(450.651875 168.383219) scale(0.1 -0.1)">
       <use xlink:href="#DejaVuSans-30"/>
       <use xlink:href="#DejaVuSans-2e" x="63.623047"/>
       <use xlink:href="#DejaVuSans-36" x="95.410156"/>
      </g>
     </g>
    </g>
    <g id="ytick_13">
     <g id="line2d_28">
      <g>
       <use xlink:href="#mb705dca470" x="473.555" y="89.672" style="stroke: #000000; stroke-width: 0.8"/>
      </g>
     </g>
     <g id="text_33">
      <!-- 0.8 -->
      <g transform="translate(450.651875 93.471219) scale(0.1 -0.1)">
       <defs>
        <path id="DejaVuSans-38" d="M 2034 2216 
Q 1584 2216 1326 1975 
Q 1069 1734 1069 1313 
Q 1069 891 1326 650 
Q 1584 409 2034 409 
Q 2484 409 2743 651 
Q 3003 894 3003 1313 
Q 3003 1734 2745 1975 
Q 2488 2216 2034 2216 
z
M 1403 2484 
Q 997 2584 770 2862 
Q 544 3141 544 3541 
Q 544 4100 942 4425 
Q 1341 4750 2034 4750 
Q 2731 4750 3128 4425 
Q 3525 4100 3525 3541 
Q 3525 3141 3298 2862 
Q 3072 2584 2669 2484 
Q 3125 2378 3379 2068 
Q 3634 1759 3634 1313 
Q 3634 634 3220 271 
Q 2806 -91 2034 -91 
Q 1263 -91 848 271 
Q 434 634 434 1313 
Q 434 1759 690 2068 
Q 947 2378 1403 2484 
z
M 1172 3481 
Q 1172 3119 1398 2916 
Q 1625 2713 2034 2713 
Q 2441 2713 2670 2916 
Q 2900 3119 2900 3481 
Q 2900 3844 2670 4047 
Q 2441 4250 2034 4250 
Q 1625 4250 1398 4047 
Q 1172 3844 1172 3481 
z
" transform="scale(0.015625)"/>
       </defs>
       <use xlink:href="#DejaVuSans-30"/>
       <use xlink:href="#DejaVuSans-2e" x="63.623047"/>
       <use xlink:href="#DejaVuSans-38" x="95.410156"/>
      </g>
     </g>
    </g>
    <g id="ytick_14">
     <g id="line2d_29">
      <g>
       <use xlink:href="#mb705dca470" x="473.555" y="14.76" style="stroke: #000000; stroke-width: 0.8"/>
      </g>
     </g>
     <g id="text_34">
      <!-- 1.0 -->
      <g transform="translate(450.651875 18.559219) scale(0.1 -0.1)">
       <use xlink:href="#DejaVuSans-31"/>
       <use xlink:href="#DejaVuSans-2e" x="63.623047"/>
       <use xlink:href="#DejaVuSans-30" x="95.410156"/>
      </g>
     </g>
    </g>
    <g id="text_35">
     <!-- Cumulative Density -->
     <g transform="translate(444.15625 261.002187) rotate(-90) scale(0.12 -0.12)">
      <defs>
       <path id="DejaVuSans-43" d="M 4122 4306 
L 4122 3641 
Q 3803 3938 3442 4084 
Q 3081 4231 2675 4231 
Q 1875 4231 1450 3742 
Q 1025 3253 1025 2328 
Q 1025 1406 1450 917 
Q 1875 428 2675 428 
Q 3081 428 3442 575 
Q 3803 722 4122 1019 
L 4122 359 
Q 3791 134 3420 21 
Q 3050 -91 2638 -91 
Q 1578 -91 968 557 
Q 359 1206 359 2328 
Q 359 3453 968 4101 
Q 1578 4750 2638 4750 
Q 3056 4750 3426 4639 
Q 3797 4528 4122 4306 
z
" transform="scale(0.015625)"/>
       <path id="DejaVuSans-6d" d="M 3328 2828 
Q 3544 3216 3844 3400 
Q 4144 3584 4550 3584 
Q 5097 3584 5394 3201 
Q 5691 2819 5691 2113 
L 5691 0 
L 5113 0 
L 5113 2094 
Q 5113 2597 4934 2840 
Q 4756 3084 4391 3084 
Q 3944 3084 3684 2787 
Q 3425 2491 3425 1978 
L 3425 0 
L 2847 0 
L 2847 2094 
Q 2847 2600 2669 2842 
Q 2491 3084 2119 3084 
Q 1678 3084 1418 2786 
Q 1159 2488 1159 1978 
L 1159 0 
L 581 0 
L 581 3500 
L 1159 3500 
L 1159 2956 
Q 1356 3278 1631 3431 
Q 1906 3584 2284 3584 
Q 2666 3584 2933 3390 
Q 3200 3197 3328 2828 
z
" transform="scale(0.015625)"/>
       <path id="DejaVuSans-76" d="M 191 3500 
L 800 3500 
L 1894 563 
L 2988 3500 
L 3597 3500 
L 2284 0 
L 1503 0 
L 191 3500 
z
" transform="scale(0.015625)"/>
      </defs>
      <use xlink:href="#DejaVuSans-43"/>
      <use xlink:href="#DejaVuSans-75" x="69.824219"/>
      <use xlink:href="#DejaVuSans-6d" x="133.203125"/>
      <use xlink:href="#DejaVuSans-75" x="230.615234"/>
      <use xlink:href="#DejaVuSans-6c" x="293.994141"/>
      <use xlink:href="#DejaVuSans-61" x="321.777344"/>
      <use xlink:href="#DejaVuSans-74" x="383.056641"/>
      <use xlink:href="#DejaVuSans-69" x="422.265625"/>
      <use xlink:href="#DejaVuSans-76" x="450.048828"/>
      <use xlink:href="#DejaVuSans-65" x="509.228516"/>
      <use xlink:href="#DejaVuSans-20" x="570.751953"/>
      <use xlink:href="#DejaVuSans-44" x="602.539062"/>
      <use xlink:href="#DejaVuSans-65" x="679.541016"/>
      <use xlink:href="#DejaVuSans-6e" x="741.064453"/>
      <use xlink:href="#DejaVuSans-73" x="804.443359"/>
      <use xlink:href="#DejaVuSans-69" x="856.542969"/>
      <use xlink:href="#DejaVuSans-74" x="884.326172"/>
      <use xlink:href="#DejaVuSans-79" x="923.535156"/>
     </g>
    </g>
   </g>
   <g id="line2d_30">
    <path d="M 543.973822 14.76 
L 543.973822 27.245333 
L 548.147147 27.245333 
L 548.147147 39.730667 
L 549.956104 39.730667 
L 549.956104 52.216 
L 559.623729 52.216 
L 559.623729 64.701333 
L 560.119823 64.701333 
L 560.119823 77.186667 
L 573.280388 77.186667 
L 573.280388 89.672 
L 585.003115 89.672 
L 585.003115 102.157333 
L 586.853138 102.157333 
L 586.853138 114.642667 
L 587.803246 114.642667 
L 587.803246 127.128 
L 591.531177 127.128 
L 591.531177 139.613333 
L 592.424501 139.613333 
L 592.424501 152.098667 
L 593.755869 152.098667 
L 593.755869 164.584 
L 595.047691 164.584 
L 595.047691 177.069333 
L 595.465962 177.069333 
L 595.465962 189.554667 
L 597.368712 189.554667 
L 597.368712 202.04 
L 600.935419 202.04 
L 600.935419 214.525333 
L 603.030827 214.525333 
L 603.030827 227.010667 
L 604.861077 227.010667 
L 604.861077 239.496 
L 606.155941 239.496 
L 606.155941 251.981333 
L 606.197515 251.981333 
L 606.197515 264.466667 
L 607.599862 264.466667 
L 607.599862 276.952 
L 608.403448 276.952 
L 608.403448 289.437333 
L 611.557461 289.437333 
L 611.557461 301.922667 
L 615.391354 301.922667 
L 615.391354 314.408 
L 616.86975 314.408 
L 616.86975 326.893333 
L 618.38465 326.893333 
L 618.38465 339.378667 
L 621.841339 339.378667 
L 621.841339 351.864 
L 622.262144 351.864 
L 622.262144 364.349333 
L 624.5132 364.349333 
L 624.5132 376.834667 
L 626.058519 376.834667 
L 626.058519 389.32 
" clip-path="url(#p67a3f77da2)" style="fill: none; stroke: #808080; stroke-width: 1.5; stroke-linecap: square"/>
   </g>
   <g id="line2d_31">
    <path d="M 725.56431 14.76 
L 725.56431 27.245333 
L 739.580681 27.245333 
L 739.580681 39.730667 
L 746.285683 39.730667 
L 746.285683 52.216 
L 748.308085 52.216 
L 748.308085 64.701333 
L 750.4547 64.701333 
L 750.4547 77.186667 
L 751.932082 77.186667 
L 751.932082 89.672 
L 755.900328 89.672 
L 755.900328 102.157333 
L 756.279053 102.157333 
L 756.279053 114.642667 
L 758.119443 114.642667 
L 758.119443 127.128 
L 758.384094 127.128 
L 758.384094 139.613333 
L 758.839375 139.613333 
L 758.839375 152.098667 
L 762.557673 152.098667 
L 762.557673 164.584 
L 762.880629 164.584 
L 762.880629 177.069333 
L 763.875859 177.069333 
L 763.875859 189.554667 
L 764.230755 189.554667 
L 764.230755 202.04 
L 765.30964 202.04 
L 765.30964 214.525333 
L 766.124887 214.525333 
L 766.124887 227.010667 
L 766.371286 227.010667 
L 766.371286 239.496 
L 766.535045 239.496 
L 766.535045 251.981333 
L 767.371079 251.981333 
L 767.371079 264.466667 
L 772.185499 264.466667 
L 772.185499 276.952 
L 773.976204 276.952 
L 773.976204 289.437333 
L 774.832011 289.437333 
L 774.832011 301.922667 
L 776.419918 301.922667 
L 776.419918 314.408 
L 777.570796 314.408 
L 777.570796 326.893333 
L 781.228761 326.893333 
L 781.228761 339.378667 
L 781.796088 339.378667 
L 781.796088 351.864 
L 782.544412 351.864 
L 782.544412 364.349333 
L 785.172165 364.349333 
L 785.172165 376.834667 
L 789.65501 376.834667 
L 789.65501 389.32 
" clip-path="url(#p67a3f77da2)" style="fill: none; stroke: #ffff00; stroke-width: 1.5; stroke-linecap: square"/>
   </g>
   <g id="line2d_32">
    <path d="M 731.303488 14.76 
L 731.303488 27.245333 
L 746.699898 27.245333 
L 746.699898 39.730667 
L 746.808395 39.730667 
L 746.808395 52.216 
L 750.498301 52.216 
L 750.498301 64.701333 
L 750.95561 64.701333 
L 750.95561 77.186667 
L 751.70292 77.186667 
L 751.70292 89.672 
L 752.175946 89.672 
L 752.175946 102.157333 
L 753.421632 102.157333 
L 753.421632 114.642667 
L 755.824279 114.642667 
L 755.824279 127.128 
L 755.905905 127.128 
L 755.905905 139.613333 
L 758.401332 139.613333 
L 758.401332 152.098667 
L 759.610514 152.098667 
L 759.610514 164.584 
L 761.461551 164.584 
L 761.461551 177.069333 
L 761.932042 177.069333 
L 761.932042 189.554667 
L 761.96449 189.554667 
L 761.96449 202.04 
L 762.878094 202.04 
L 762.878094 214.525333 
L 764.334182 214.525333 
L 764.334182 227.010667 
L 765.66555 227.010667 
L 765.66555 239.496 
L 769.065455 239.496 
L 769.065455 251.981333 
L 769.792992 251.981333 
L 769.792992 264.466667 
L 770.032294 264.466667 
L 770.032294 276.952 
L 771.957352 276.952 
L 771.957352 289.437333 
L 772.657004 289.437333 
L 772.657004 301.922667 
L 773.355643 301.922667 
L 773.355643 314.408 
L 774.101432 314.408 
L 774.101432 326.893333 
L 775.541296 326.893333 
L 775.541296 339.378667 
L 777.193085 339.378667 
L 777.193085 351.864 
L 779.787376 351.864 
L 779.787376 364.349333 
L 780.343549 364.349333 
L 780.343549 376.834667 
L 782.781178 376.834667 
L 782.781178 389.32 
" clip-path="url(#p67a3f77da2)" style="fill: none; stroke: #0000ff; stroke-width: 1.5; stroke-linecap: square"/>
   </g>
   <g id="line2d_33">
    <path d="M 725.559934 389.32 
L 725.559934 14.76 
" clip-path="url(#p67a3f77da2)" style="fill: none; stroke-dasharray: 11.1,4.8; stroke-dashoffset: 0; stroke: #ffa500; stroke-width: 3"/>
   </g>
   <g id="patch_89">
    <path d="M 473.555 389.32 
L 473.555 14.76 
" style="fill: none; stroke: #000000; stroke-width: 0.8; stroke-linejoin: miter; stroke-linecap: square"/>
   </g>
   <g id="patch_90">
    <path d="M 473.555 389.32 
L 853.2 389.32 
" style="fill: none; stroke: #000000; stroke-width: 0.8; stroke-linejoin: miter; stroke-linecap: square"/>
   </g>
   <g id="legend_2">
    <g id="patch_91">
     <path d="M 480.555 225.557188 
L 735.944062 225.557188 
Q 737.944062 225.557188 737.944062 223.557188 
L 737.944062 180.522813 
Q 737.944062 178.522813 735.944062 178.522813 
L 480.555 178.522813 
Q 478.555 178.522813 478.555 180.522813 
L 478.555 223.557188 
Q 478.555 225.557188 480.555 225.557188 
z
" style="fill: #ffffff; opacity: 0.8; stroke: #000000; stroke-linejoin: miter"/>
    </g>
    <g id="patch_92">
     <path d="M 482.555 190.12125 
L 502.555 190.12125 
L 502.555 183.12125 
L 482.555 183.12125 
z
" style="fill: #ff0000; opacity: 0.8; stroke: #ff0000; stroke-linejoin: miter"/>
    </g>
    <g id="text_36">
     <!-- Less than Predicted WT Log Fluorescence -->
     <g transform="translate(510.555 190.12125) scale(0.1 -0.1)">
      <defs>
       <path id="DejaVuSans-4c" d="M 628 4666 
L 1259 4666 
L 1259 531 
L 3531 531 
L 3531 0 
L 628 0 
L 628 4666 
z
" transform="scale(0.015625)"/>
       <path id="DejaVuSans-68" d="M 3513 2113 
L 3513 0 
L 2938 0 
L 2938 2094 
Q 2938 2591 2744 2837 
Q 2550 3084 2163 3084 
Q 1697 3084 1428 2787 
Q 1159 2491 1159 1978 
L 1159 0 
L 581 0 
L 581 4863 
L 1159 4863 
L 1159 2956 
Q 1366 3272 1645 3428 
Q 1925 3584 2291 3584 
Q 2894 3584 3203 3211 
Q 3513 2838 3513 2113 
z
" transform="scale(0.015625)"/>
       <path id="DejaVuSans-57" d="M 213 4666 
L 850 4666 
L 1831 722 
L 2809 4666 
L 3519 4666 
L 4500 722 
L 5478 4666 
L 6119 4666 
L 4947 0 
L 4153 0 
L 3169 4050 
L 2175 0 
L 1381 0 
L 213 4666 
z
" transform="scale(0.015625)"/>
      </defs>
      <use xlink:href="#DejaVuSans-4c"/>
      <use xlink:href="#DejaVuSans-65" x="53.962891"/>
      <use xlink:href="#DejaVuSans-73" x="115.486328"/>
      <use xlink:href="#DejaVuSans-73" x="167.585938"/>
      <use xlink:href="#DejaVuSans-20" x="219.685547"/>
      <use xlink:href="#DejaVuSans-74" x="251.472656"/>
      <use xlink:href="#DejaVuSans-68" x="290.681641"/>
      <use xlink:href="#DejaVuSans-61" x="354.060547"/>
      <use xlink:href="#DejaVuSans-6e" x="415.339844"/>
      <use xlink:href="#DejaVuSans-20" x="478.71875"/>
      <use xlink:href="#DejaVuSans-50" x="510.505859"/>
      <use xlink:href="#DejaVuSans-72" x="569.058594"/>
      <use xlink:href="#DejaVuSans-65" x="607.921875"/>
      <use xlink:href="#DejaVuSans-64" x="669.445312"/>
      <use xlink:href="#DejaVuSans-69" x="732.921875"/>
      <use xlink:href="#DejaVuSans-63" x="760.705078"/>
      <use xlink:href="#DejaVuSans-74" x="815.685547"/>
      <use xlink:href="#DejaVuSans-65" x="854.894531"/>
      <use xlink:href="#DejaVuSans-64" x="916.417969"/>
      <use xlink:href="#DejaVuSans-20" x="979.894531"/>
      <use xlink:href="#DejaVuSans-57" x="1011.681641"/>
      <use xlink:href="#DejaVuSans-54" x="1110.558594"/>
      <use xlink:href="#DejaVuSans-20" x="1171.642578"/>
      <use xlink:href="#DejaVuSans-4c" x="1203.429688"/>
      <use xlink:href="#DejaVuSans-6f" x="1257.392578"/>
      <use xlink:href="#DejaVuSans-67" x="1318.574219"/>
      <use xlink:href="#DejaVuSans-20" x="1382.050781"/>
      <use xlink:href="#DejaVuSans-46" x="1413.837891"/>
      <use xlink:href="#DejaVuSans-6c" x="1471.357422"/>
      <use xlink:href="#DejaVuSans-75" x="1499.140625"/>
      <use xlink:href="#DejaVuSans-6f" x="1562.519531"/>
      <use xlink:href="#DejaVuSans-72" x="1623.701172"/>
      <use xlink:href="#DejaVuSans-65" x="1662.564453"/>
      <use xlink:href="#DejaVuSans-73" x="1724.087891"/>
      <use xlink:href="#DejaVuSans-63" x="1776.1875"/>
      <use xlink:href="#DejaVuSans-65" x="1831.167969"/>
      <use xlink:href="#DejaVuSans-6e" x="1892.691406"/>
      <use xlink:href="#DejaVuSans-63" x="1956.070312"/>
      <use xlink:href="#DejaVuSans-65" x="2011.050781"/>
     </g>
    </g>
    <g id="patch_93">
     <path d="M 482.555 204.799375 
L 502.555 204.799375 
L 502.555 197.799375 
L 482.555 197.799375 
z
" style="fill: #ffa500; opacity: 0.8; stroke: #ffa500; stroke-linejoin: miter"/>
    </g>
    <g id="text_37">
     <!-- Predicted WT Log Fluorescence -->
     <g transform="translate(510.555 204.799375) scale(0.1 -0.1)">
      <use xlink:href="#DejaVuSans-50"/>
      <use xlink:href="#DejaVuSans-72" x="58.552734"/>
      <use xlink:href="#DejaVuSans-65" x="97.416016"/>
      <use xlink:href="#DejaVuSans-64" x="158.939453"/>
      <use xlink:href="#DejaVuSans-69" x="222.416016"/>
      <use xlink:href="#DejaVuSans-63" x="250.199219"/>
      <use xlink:href="#DejaVuSans-74" x="305.179688"/>
      <use xlink:href="#DejaVuSans-65" x="344.388672"/>
      <use xlink:href="#DejaVuSans-64" x="405.912109"/>
      <use xlink:href="#DejaVuSans-20" x="469.388672"/>
      <use xlink:href="#DejaVuSans-57" x="501.175781"/>
      <use xlink:href="#DejaVuSans-54" x="600.052734"/>
      <use xlink:href="#DejaVuSans-20" x="661.136719"/>
      <use xlink:href="#DejaVuSans-4c" x="692.923828"/>
      <use xlink:href="#DejaVuSans-6f" x="746.886719"/>
      <use xlink:href="#DejaVuSans-67" x="808.068359"/>
      <use xlink:href="#DejaVuSans-20" x="871.544922"/>
      <use xlink:href="#DejaVuSans-46" x="903.332031"/>
      <use xlink:href="#DejaVuSans-6c" x="960.851562"/>
      <use xlink:href="#DejaVuSans-75" x="988.634766"/>
      <use xlink:href="#DejaVuSans-6f" x="1052.013672"/>
      <use xlink:href="#DejaVuSans-72" x="1113.195312"/>
      <use xlink:href="#DejaVuSans-65" x="1152.058594"/>
      <use xlink:href="#DejaVuSans-73" x="1213.582031"/>
      <use xlink:href="#DejaVuSans-63" x="1265.681641"/>
      <use xlink:href="#DejaVuSans-65" x="1320.662109"/>
      <use xlink:href="#DejaVuSans-6e" x="1382.185547"/>
      <use xlink:href="#DejaVuSans-63" x="1445.564453"/>
      <use xlink:href="#DejaVuSans-65" x="1500.544922"/>
     </g>
    </g>
    <g id="patch_94">
     <path d="M 482.555 219.4775 
L 502.555 219.4775 
L 502.555 212.4775 
L 482.555 212.4775 
z
" style="fill: #008000; opacity: 0.8; stroke: #008000; stroke-linejoin: miter"/>
    </g>
    <g id="text_38">
     <!-- Greater than Predicted WT Log Fluorescence -->
     <g transform="translate(510.555 219.4775) scale(0.1 -0.1)">
      <defs>
       <path id="DejaVuSans-47" d="M 3809 666 
L 3809 1919 
L 2778 1919 
L 2778 2438 
L 4434 2438 
L 4434 434 
Q 4069 175 3628 42 
Q 3188 -91 2688 -91 
Q 1594 -91 976 548 
Q 359 1188 359 2328 
Q 359 3472 976 4111 
Q 1594 4750 2688 4750 
Q 3144 4750 3555 4637 
Q 3966 4525 4313 4306 
L 4313 3634 
Q 3963 3931 3569 4081 
Q 3175 4231 2741 4231 
Q 1884 4231 1454 3753 
Q 1025 3275 1025 2328 
Q 1025 1384 1454 906 
Q 1884 428 2741 428 
Q 3075 428 3337 486 
Q 3600 544 3809 666 
z
" transform="scale(0.015625)"/>
      </defs>
      <use xlink:href="#DejaVuSans-47"/>
      <use xlink:href="#DejaVuSans-72" x="77.490234"/>
      <use xlink:href="#DejaVuSans-65" x="116.353516"/>
      <use xlink:href="#DejaVuSans-61" x="177.876953"/>
      <use xlink:href="#DejaVuSans-74" x="239.15625"/>
      <use xlink:href="#DejaVuSans-65" x="278.365234"/>
      <use xlink:href="#DejaVuSans-72" x="339.888672"/>
      <use xlink:href="#DejaVuSans-20" x="381.001953"/>
      <use xlink:href="#DejaVuSans-74" x="412.789062"/>
      <use xlink:href="#DejaVuSans-68" x="451.998047"/>
      <use xlink:href="#DejaVuSans-61" x="515.376953"/>
      <use xlink:href="#DejaVuSans-6e" x="576.65625"/>
      <use xlink:href="#DejaVuSans-20" x="640.035156"/>
      <use xlink:href="#DejaVuSans-50" x="671.822266"/>
      <use xlink:href="#DejaVuSans-72" x="730.375"/>
      <use xlink:href="#DejaVuSans-65" x="769.238281"/>
      <use xlink:href="#DejaVuSans-64" x="830.761719"/>
      <use xlink:href="#DejaVuSans-69" x="894.238281"/>
      <use xlink:href="#DejaVuSans-63" x="922.021484"/>
      <use xlink:href="#DejaVuSans-74" x="977.001953"/>
      <use xlink:href="#DejaVuSans-65" x="1016.210938"/>
      <use xlink:href="#DejaVuSans-64" x="1077.734375"/>
      <use xlink:href="#DejaVuSans-20" x="1141.210938"/>
      <use xlink:href="#DejaVuSans-57" x="1172.998047"/>
      <use xlink:href="#DejaVuSans-54" x="1271.875"/>
      <use xlink:href="#DejaVuSans-20" x="1332.958984"/>
      <use xlink:href="#DejaVuSans-4c" x="1364.746094"/>
      <use xlink:href="#DejaVuSans-6f" x="1418.708984"/>
      <use xlink:href="#DejaVuSans-67" x="1479.890625"/>
      <use xlink:href="#DejaVuSans-20" x="1543.367188"/>
      <use xlink:href="#DejaVuSans-46" x="1575.154297"/>
      <use xlink:href="#DejaVuSans-6c" x="1632.673828"/>
      <use xlink:href="#DejaVuSans-75" x="1660.457031"/>
      <use xlink:href="#DejaVuSans-6f" x="1723.835938"/>
      <use xlink:href="#DejaVuSans-72" x="1785.017578"/>
      <use xlink:href="#DejaVuSans-65" x="1823.880859"/>
      <use xlink:href="#DejaVuSans-73" x="1885.404297"/>
      <use xlink:href="#DejaVuSans-63" x="1937.503906"/>
      <use xlink:href="#DejaVuSans-65" x="1992.484375"/>
      <use xlink:href="#DejaVuSans-6e" x="2054.007812"/>
      <use xlink:href="#DejaVuSans-63" x="2117.386719"/>
      <use xlink:href="#DejaVuSans-65" x="2172.367188"/>
     </g>
    </g>
   </g>
  </g>
 </g>
 <defs>
  <clipPath id="p84019ae0db">
   <rect x="45.38" y="14.76" width="379.645" height="374.56"/>
  </clipPath>
  <clipPath id="p67a3f77da2">
   <rect x="473.555" y="14.76" width="379.645" height="374.56"/>
  </clipPath>
 </defs>
</svg>
