<?xml version="1.0" encoding="utf-8" standalone="no"?>
<!DOCTYPE svg PUBLIC "-//W3C//DTD SVG 1.1//EN"
  "http://www.w3.org/Graphics/SVG/1.1/DTD/svg11.dtd">
<svg xmlns:xlink="http://www.w3.org/1999/xlink" width="864pt" height="360pt" viewBox="0 0 864 360" xmlns="http://www.w3.org/2000/svg" version="1.1">
 <metadata>
  <rdf:RDF xmlns:dc="http://purl.org/dc/elements/1.1/" xmlns:cc="http://creativecommons.org/ns#" xmlns:rdf="http://www.w3.org/1999/02/22-rdf-syntax-ns#">
   <cc:Work>
    <dc:type rdf:resource="http://purl.org/dc/dcmitype/StillImage"/>
    <dc:date>2024-06-24T17:03:40.078052</dc:date>
    <dc:format>image/svg+xml</dc:format>
    <dc:creator>
     <cc:Agent>
      <dc:title>Matplotlib v3.7.1, https://matplotlib.org/</dc:title>
     </cc:Agent>
    </dc:creator>
   </cc:Work>
  </rdf:RDF>
 </metadata>
 <defs>
  <style type="text/css">*{stroke-linejoin: round; stroke-linecap: butt}</style>
 </defs>
 <g id="figure_1">
  <g id="patch_1">
   <path d="M 0 360 
L 864 360 
L 864 0 
L 0 0 
z
" style="fill: #ffffff"/>
  </g>
  <g id="axes_1">
   <g id="patch_2">
    <path d="M 46.46 316.24 
L 425.0025 316.24 
L 425.0025 14.76 
L 46.46 14.76 
z
" style="fill: #ffffff"/>
   </g>
   <g id="patch_3">
    <path d="M 46.46 316.24 
L 46.46 14.76 
L 340.973296 14.76 
L 340.973296 316.24 
z
" clip-path="url(#pdd87daac07)" style="fill: #ff0000; opacity: 0.1; stroke: #ff0000; stroke-linejoin: miter"/>
   </g>
   <g id="patch_4">
    <path d="M 340.973296 316.24 
L 340.973296 14.76 
L 425.0025 14.76 
L 425.0025 316.24 
z
" clip-path="url(#pdd87daac07)" style="fill: #008000; opacity: 0.1; stroke: #008000; stroke-linejoin: miter"/>
   </g>
   <g id="patch_5">
    <path d="M 108.381503 316.24 
L 118.569483 316.24 
L 118.569483 313.820306 
L 108.381503 313.820306 
z
" clip-path="url(#pdd87daac07)" style="fill: #808080; fill-opacity: 0.3; stroke: #000000; stroke-linejoin: miter"/>
   </g>
   <g id="patch_6">
    <path d="M 118.569483 316.24 
L 128.757462 316.24 
L 128.757462 315.030153 
L 118.569483 315.030153 
z
" clip-path="url(#pdd87daac07)" style="fill: #808080; fill-opacity: 0.3; stroke: #000000; stroke-linejoin: miter"/>
   </g>
   <g id="patch_7">
    <path d="M 128.757462 316.24 
L 138.945442 316.24 
L 138.945442 316.24 
L 128.757462 316.24 
z
" clip-path="url(#pdd87daac07)" style="fill: #808080; fill-opacity: 0.3; stroke: #000000; stroke-linejoin: miter"/>
   </g>
   <g id="patch_8">
    <path d="M 138.945442 316.24 
L 149.133422 316.24 
L 149.133422 316.24 
L 138.945442 316.24 
z
" clip-path="url(#pdd87daac07)" style="fill: #808080; fill-opacity: 0.3; stroke: #000000; stroke-linejoin: miter"/>
   </g>
   <g id="patch_9">
    <path d="M 149.133422 316.24 
L 159.321402 316.24 
L 159.321402 315.030153 
L 149.133422 315.030153 
z
" clip-path="url(#pdd87daac07)" style="fill: #808080; fill-opacity: 0.3; stroke: #000000; stroke-linejoin: miter"/>
   </g>
   <g id="patch_10">
    <path d="M 159.321402 316.24 
L 169.509382 316.24 
L 169.509382 313.820306 
L 159.321402 313.820306 
z
" clip-path="url(#pdd87daac07)" style="fill: #808080; fill-opacity: 0.3; stroke: #000000; stroke-linejoin: miter"/>
   </g>
   <g id="patch_11">
    <path d="M 169.509382 316.24 
L 179.697361 316.24 
L 179.697361 305.351375 
L 169.509382 305.351375 
z
" clip-path="url(#pdd87daac07)" style="fill: #808080; fill-opacity: 0.3; stroke: #000000; stroke-linejoin: miter"/>
   </g>
   <g id="patch_12">
    <path d="M 179.697361 316.24 
L 189.885341 316.24 
L 189.885341 294.462751 
L 179.697361 294.462751 
z
" clip-path="url(#pdd87daac07)" style="fill: #808080; fill-opacity: 0.3; stroke: #000000; stroke-linejoin: miter"/>
   </g>
   <g id="patch_13">
    <path d="M 189.885341 316.24 
L 200.073321 316.24 
L 200.073321 294.462751 
L 189.885341 294.462751 
z
" clip-path="url(#pdd87daac07)" style="fill: #808080; fill-opacity: 0.3; stroke: #000000; stroke-linejoin: miter"/>
   </g>
   <g id="patch_14">
    <path d="M 200.073321 316.24 
L 210.261301 316.24 
L 210.261301 295.672598 
L 200.073321 295.672598 
z
" clip-path="url(#pdd87daac07)" style="fill: #808080; fill-opacity: 0.3; stroke: #000000; stroke-linejoin: miter"/>
   </g>
   <g id="patch_15">
    <path d="M 210.261301 316.24 
L 220.44928 316.24 
L 220.44928 302.931681 
L 210.261301 302.931681 
z
" clip-path="url(#pdd87daac07)" style="fill: #808080; fill-opacity: 0.3; stroke: #000000; stroke-linejoin: miter"/>
   </g>
   <g id="patch_16">
    <path d="M 220.44928 316.24 
L 230.63726 316.24 
L 230.63726 298.092292 
L 220.44928 298.092292 
z
" clip-path="url(#pdd87daac07)" style="fill: #808080; fill-opacity: 0.3; stroke: #000000; stroke-linejoin: miter"/>
   </g>
   <g id="patch_17">
    <path d="M 230.63726 316.24 
L 240.82524 316.24 
L 240.82524 293.252903 
L 230.63726 293.252903 
z
" clip-path="url(#pdd87daac07)" style="fill: #808080; fill-opacity: 0.3; stroke: #000000; stroke-linejoin: miter"/>
   </g>
   <g id="patch_18">
    <path d="M 240.82524 316.24 
L 251.01322 316.24 
L 251.01322 260.587029 
L 240.82524 260.587029 
z
" clip-path="url(#pdd87daac07)" style="fill: #808080; fill-opacity: 0.3; stroke: #000000; stroke-linejoin: miter"/>
   </g>
   <g id="patch_19">
    <path d="M 251.01322 316.24 
L 261.201199 316.24 
L 261.201199 168.638643 
L 251.01322 168.638643 
z
" clip-path="url(#pdd87daac07)" style="fill: #808080; fill-opacity: 0.3; stroke: #000000; stroke-linejoin: miter"/>
   </g>
   <g id="patch_20">
    <path d="M 261.201199 316.24 
L 271.389179 316.24 
L 271.389179 47.653923 
L 261.201199 47.653923 
z
" clip-path="url(#pdd87daac07)" style="fill: #808080; fill-opacity: 0.3; stroke: #000000; stroke-linejoin: miter"/>
   </g>
   <g id="patch_21">
    <path d="M 271.389179 316.24 
L 281.577159 316.24 
L 281.577159 96.047811 
L 271.389179 96.047811 
z
" clip-path="url(#pdd87daac07)" style="fill: #808080; fill-opacity: 0.3; stroke: #000000; stroke-linejoin: miter"/>
   </g>
   <g id="patch_22">
    <path d="M 281.577159 316.24 
L 291.765139 316.24 
L 291.765139 152.910629 
L 281.577159 152.910629 
z
" clip-path="url(#pdd87daac07)" style="fill: #808080; fill-opacity: 0.3; stroke: #000000; stroke-linejoin: miter"/>
   </g>
   <g id="patch_23">
    <path d="M 291.765139 316.24 
L 301.953118 316.24 
L 301.953118 252.118099 
L 291.765139 252.118099 
z
" clip-path="url(#pdd87daac07)" style="fill: #808080; fill-opacity: 0.3; stroke: #000000; stroke-linejoin: miter"/>
   </g>
   <g id="patch_24">
    <path d="M 301.953118 316.24 
L 312.141098 316.24 
L 312.141098 298.092292 
L 301.953118 298.092292 
z
" clip-path="url(#pdd87daac07)" style="fill: #808080; fill-opacity: 0.3; stroke: #000000; stroke-linejoin: miter"/>
   </g>
   <g id="patch_25">
    <path d="M 312.141098 316.24 
L 322.329078 316.24 
L 322.329078 287.203667 
L 312.141098 287.203667 
z
" clip-path="url(#pdd87daac07)" style="fill: #808080; fill-opacity: 0.3; stroke: #000000; stroke-linejoin: miter"/>
   </g>
   <g id="patch_26">
    <path d="M 322.329078 316.24 
L 332.517058 316.24 
L 332.517058 271.475654 
L 322.329078 271.475654 
z
" clip-path="url(#pdd87daac07)" style="fill: #808080; fill-opacity: 0.3; stroke: #000000; stroke-linejoin: miter"/>
   </g>
   <g id="patch_27">
    <path d="M 332.517058 316.24 
L 342.705038 316.24 
L 342.705038 279.944584 
L 332.517058 279.944584 
z
" clip-path="url(#pdd87daac07)" style="fill: #808080; fill-opacity: 0.3; stroke: #000000; stroke-linejoin: miter"/>
   </g>
   <g id="patch_28">
    <path d="M 342.705038 316.24 
L 352.893017 316.24 
L 352.893017 300.511987 
L 342.705038 300.511987 
z
" clip-path="url(#pdd87daac07)" style="fill: #808080; fill-opacity: 0.3; stroke: #000000; stroke-linejoin: miter"/>
   </g>
   <g id="patch_29">
    <path d="M 352.893017 316.24 
L 363.080997 316.24 
L 363.080997 306.561222 
L 352.893017 306.561222 
z
" clip-path="url(#pdd87daac07)" style="fill: #808080; fill-opacity: 0.3; stroke: #000000; stroke-linejoin: miter"/>
   </g>
   <g id="patch_30">
    <path d="M 191.540453 316.24 
L 198.188729 316.24 
L 198.188729 299.832925 
L 191.540453 299.832925 
z
" clip-path="url(#pdd87daac07)" style="fill: #0000ff; fill-opacity: 0.6; stroke: #000000; stroke-width: 0.722239; stroke-linejoin: miter"/>
   </g>
   <g id="patch_31">
    <path d="M 198.188729 316.24 
L 204.837004 316.24 
L 204.837004 316.24 
L 198.188729 316.24 
z
" clip-path="url(#pdd87daac07)" style="fill: #0000ff; fill-opacity: 0.6; stroke: #000000; stroke-width: 0.722239; stroke-linejoin: miter"/>
   </g>
   <g id="patch_32">
    <path d="M 204.837004 316.24 
L 211.485279 316.24 
L 211.485279 316.24 
L 204.837004 316.24 
z
" clip-path="url(#pdd87daac07)" style="fill: #0000ff; fill-opacity: 0.6; stroke: #000000; stroke-width: 0.722239; stroke-linejoin: miter"/>
   </g>
   <g id="patch_33">
    <path d="M 211.485279 316.24 
L 218.133554 316.24 
L 218.133554 308.036463 
L 211.485279 308.036463 
z
" clip-path="url(#pdd87daac07)" style="fill: #0000ff; fill-opacity: 0.6; stroke: #000000; stroke-width: 0.722239; stroke-linejoin: miter"/>
   </g>
   <g id="patch_34">
    <path d="M 218.133554 316.24 
L 224.78183 316.24 
L 224.78183 308.036463 
L 218.133554 308.036463 
z
" clip-path="url(#pdd87daac07)" style="fill: #0000ff; fill-opacity: 0.6; stroke: #000000; stroke-width: 0.722239; stroke-linejoin: miter"/>
   </g>
   <g id="patch_35">
    <path d="M 224.78183 316.24 
L 231.430105 316.24 
L 231.430105 308.036463 
L 224.78183 308.036463 
z
" clip-path="url(#pdd87daac07)" style="fill: #0000ff; fill-opacity: 0.6; stroke: #000000; stroke-width: 0.722239; stroke-linejoin: miter"/>
   </g>
   <g id="patch_36">
    <path d="M 231.430105 316.24 
L 238.07838 316.24 
L 238.07838 308.036463 
L 231.430105 308.036463 
z
" clip-path="url(#pdd87daac07)" style="fill: #0000ff; fill-opacity: 0.6; stroke: #000000; stroke-width: 0.722239; stroke-linejoin: miter"/>
   </g>
   <g id="patch_37">
    <path d="M 238.07838 316.24 
L 244.726655 316.24 
L 244.726655 308.036463 
L 238.07838 308.036463 
z
" clip-path="url(#pdd87daac07)" style="fill: #0000ff; fill-opacity: 0.6; stroke: #000000; stroke-width: 0.722239; stroke-linejoin: miter"/>
   </g>
   <g id="patch_38">
    <path d="M 244.726655 316.24 
L 251.374931 316.24 
L 251.374931 299.832925 
L 244.726655 299.832925 
z
" clip-path="url(#pdd87daac07)" style="fill: #0000ff; fill-opacity: 0.6; stroke: #000000; stroke-width: 0.722239; stroke-linejoin: miter"/>
   </g>
   <g id="patch_39">
    <path d="M 251.374931 316.24 
L 258.023206 316.24 
L 258.023206 316.24 
L 251.374931 316.24 
z
" clip-path="url(#pdd87daac07)" style="fill: #0000ff; fill-opacity: 0.6; stroke: #000000; stroke-width: 0.722239; stroke-linejoin: miter"/>
   </g>
   <g id="patch_40">
    <path d="M 258.023206 316.24 
L 264.671481 316.24 
L 264.671481 275.222313 
L 258.023206 275.222313 
z
" clip-path="url(#pdd87daac07)" style="fill: #0000ff; fill-opacity: 0.6; stroke: #000000; stroke-width: 0.722239; stroke-linejoin: miter"/>
   </g>
   <g id="patch_41">
    <path d="M 264.671481 316.24 
L 271.319757 316.24 
L 271.319757 291.629388 
L 264.671481 291.629388 
z
" clip-path="url(#pdd87daac07)" style="fill: #0000ff; fill-opacity: 0.6; stroke: #000000; stroke-width: 0.722239; stroke-linejoin: miter"/>
   </g>
   <g id="patch_42">
    <path d="M 271.319757 316.24 
L 277.968032 316.24 
L 277.968032 316.24 
L 271.319757 316.24 
z
" clip-path="url(#pdd87daac07)" style="fill: #0000ff; fill-opacity: 0.6; stroke: #000000; stroke-width: 0.722239; stroke-linejoin: miter"/>
   </g>
   <g id="patch_43">
    <path d="M 277.968032 316.24 
L 284.616307 316.24 
L 284.616307 291.629388 
L 277.968032 291.629388 
z
" clip-path="url(#pdd87daac07)" style="fill: #0000ff; fill-opacity: 0.6; stroke: #000000; stroke-width: 0.722239; stroke-linejoin: miter"/>
   </g>
   <g id="patch_44">
    <path d="M 284.616307 316.24 
L 291.264582 316.24 
L 291.264582 267.018776 
L 284.616307 267.018776 
z
" clip-path="url(#pdd87daac07)" style="fill: #0000ff; fill-opacity: 0.6; stroke: #000000; stroke-width: 0.722239; stroke-linejoin: miter"/>
   </g>
   <g id="patch_45">
    <path d="M 291.264582 316.24 
L 297.912858 316.24 
L 297.912858 209.594014 
L 291.264582 209.594014 
z
" clip-path="url(#pdd87daac07)" style="fill: #0000ff; fill-opacity: 0.6; stroke: #000000; stroke-width: 0.722239; stroke-linejoin: miter"/>
   </g>
   <g id="patch_46">
    <path d="M 297.912858 316.24 
L 304.561133 316.24 
L 304.561133 61.93034 
L 297.912858 61.93034 
z
" clip-path="url(#pdd87daac07)" style="fill: #0000ff; fill-opacity: 0.6; stroke: #000000; stroke-width: 0.722239; stroke-linejoin: miter"/>
   </g>
   <g id="patch_47">
    <path d="M 304.561133 316.24 
L 311.209408 316.24 
L 311.209408 176.779864 
L 304.561133 176.779864 
z
" clip-path="url(#pdd87daac07)" style="fill: #0000ff; fill-opacity: 0.6; stroke: #000000; stroke-width: 0.722239; stroke-linejoin: miter"/>
   </g>
   <g id="patch_48">
    <path d="M 311.209408 316.24 
L 317.857683 316.24 
L 317.857683 102.948027 
L 311.209408 102.948027 
z
" clip-path="url(#pdd87daac07)" style="fill: #0000ff; fill-opacity: 0.6; stroke: #000000; stroke-width: 0.722239; stroke-linejoin: miter"/>
   </g>
   <g id="patch_49">
    <path d="M 317.857683 316.24 
L 324.505959 316.24 
L 324.505959 70.133878 
L 317.857683 70.133878 
z
" clip-path="url(#pdd87daac07)" style="fill: #0000ff; fill-opacity: 0.6; stroke: #000000; stroke-width: 0.722239; stroke-linejoin: miter"/>
   </g>
   <g id="patch_50">
    <path d="M 324.505959 316.24 
L 331.154234 316.24 
L 331.154234 29.11619 
L 324.505959 29.11619 
z
" clip-path="url(#pdd87daac07)" style="fill: #0000ff; fill-opacity: 0.6; stroke: #000000; stroke-width: 0.722239; stroke-linejoin: miter"/>
   </g>
   <g id="patch_51">
    <path d="M 331.154234 316.24 
L 337.802509 316.24 
L 337.802509 135.762177 
L 331.154234 135.762177 
z
" clip-path="url(#pdd87daac07)" style="fill: #0000ff; fill-opacity: 0.6; stroke: #000000; stroke-width: 0.722239; stroke-linejoin: miter"/>
   </g>
   <g id="patch_52">
    <path d="M 337.802509 316.24 
L 344.450784 316.24 
L 344.450784 250.611701 
L 337.802509 250.611701 
z
" clip-path="url(#pdd87daac07)" style="fill: #0000ff; fill-opacity: 0.6; stroke: #000000; stroke-width: 0.722239; stroke-linejoin: miter"/>
   </g>
   <g id="patch_53">
    <path d="M 344.450784 316.24 
L 351.09906 316.24 
L 351.09906 242.408163 
L 344.450784 242.408163 
z
" clip-path="url(#pdd87daac07)" style="fill: #0000ff; fill-opacity: 0.6; stroke: #000000; stroke-width: 0.722239; stroke-linejoin: miter"/>
   </g>
   <g id="patch_54">
    <path d="M 351.09906 316.24 
L 357.747335 316.24 
L 357.747335 242.408163 
L 351.09906 242.408163 
z
" clip-path="url(#pdd87daac07)" style="fill: #0000ff; fill-opacity: 0.6; stroke: #000000; stroke-width: 0.722239; stroke-linejoin: miter"/>
   </g>
   <g id="matplotlib.axis_1">
    <g id="xtick_1">
     <g id="line2d_1">
      <defs>
       <path id="ma40e80c6e2" d="M 0 0 
L 0 3.5 
" style="stroke: #000000; stroke-width: 0.8"/>
      </defs>
      <g>
       <use xlink:href="#ma40e80c6e2" x="100.206095" y="316.24" style="stroke: #000000; stroke-width: 0.8"/>
      </g>
     </g>
     <g id="text_1">
      <!-- 3.90 -->
      <g transform="translate(89.073282 330.838437) scale(0.1 -0.1)">
       <defs>
        <path id="DejaVuSans-33" d="M 2597 2516 
Q 3050 2419 3304 2112 
Q 3559 1806 3559 1356 
Q 3559 666 3084 287 
Q 2609 -91 1734 -91 
Q 1441 -91 1130 -33 
Q 819 25 488 141 
L 488 750 
Q 750 597 1062 519 
Q 1375 441 1716 441 
Q 2309 441 2620 675 
Q 2931 909 2931 1356 
Q 2931 1769 2642 2001 
Q 2353 2234 1838 2234 
L 1294 2234 
L 1294 2753 
L 1863 2753 
Q 2328 2753 2575 2939 
Q 2822 3125 2822 3475 
Q 2822 3834 2567 4026 
Q 2313 4219 1838 4219 
Q 1578 4219 1281 4162 
Q 984 4106 628 3988 
L 628 4550 
Q 988 4650 1302 4700 
Q 1616 4750 1894 4750 
Q 2613 4750 3031 4423 
Q 3450 4097 3450 3541 
Q 3450 3153 3228 2886 
Q 3006 2619 2597 2516 
z
" transform="scale(0.015625)"/>
        <path id="DejaVuSans-2e" d="M 684 794 
L 1344 794 
L 1344 0 
L 684 0 
L 684 794 
z
" transform="scale(0.015625)"/>
        <path id="DejaVuSans-39" d="M 703 97 
L 703 672 
Q 941 559 1184 500 
Q 1428 441 1663 441 
Q 2288 441 2617 861 
Q 2947 1281 2994 2138 
Q 2813 1869 2534 1725 
Q 2256 1581 1919 1581 
Q 1219 1581 811 2004 
Q 403 2428 403 3163 
Q 403 3881 828 4315 
Q 1253 4750 1959 4750 
Q 2769 4750 3195 4129 
Q 3622 3509 3622 2328 
Q 3622 1225 3098 567 
Q 2575 -91 1691 -91 
Q 1453 -91 1209 -44 
Q 966 3 703 97 
z
M 1959 2075 
Q 2384 2075 2632 2365 
Q 2881 2656 2881 3163 
Q 2881 3666 2632 3958 
Q 2384 4250 1959 4250 
Q 1534 4250 1286 3958 
Q 1038 3666 1038 3163 
Q 1038 2656 1286 2365 
Q 1534 2075 1959 2075 
z
" transform="scale(0.015625)"/>
        <path id="DejaVuSans-30" d="M 2034 4250 
Q 1547 4250 1301 3770 
Q 1056 3291 1056 2328 
Q 1056 1369 1301 889 
Q 1547 409 2034 409 
Q 2525 409 2770 889 
Q 3016 1369 3016 2328 
Q 3016 3291 2770 3770 
Q 2525 4250 2034 4250 
z
M 2034 4750 
Q 2819 4750 3233 4129 
Q 3647 3509 3647 2328 
Q 3647 1150 3233 529 
Q 2819 -91 2034 -91 
Q 1250 -91 836 529 
Q 422 1150 422 2328 
Q 422 3509 836 4129 
Q 1250 4750 2034 4750 
z
" transform="scale(0.015625)"/>
       </defs>
       <use xlink:href="#DejaVuSans-33"/>
       <use xlink:href="#DejaVuSans-2e" x="63.623047"/>
       <use xlink:href="#DejaVuSans-39" x="95.410156"/>
       <use xlink:href="#DejaVuSans-30" x="159.033203"/>
      </g>
     </g>
    </g>
    <g id="xtick_2">
     <g id="line2d_2">
      <g>
       <use xlink:href="#ma40e80c6e2" x="162.127598" y="316.24" style="stroke: #000000; stroke-width: 0.8"/>
      </g>
     </g>
     <g id="text_2">
      <!-- 3.95 -->
      <g transform="translate(150.994785 330.838437) scale(0.1 -0.1)">
       <defs>
        <path id="DejaVuSans-35" d="M 691 4666 
L 3169 4666 
L 3169 4134 
L 1269 4134 
L 1269 2991 
Q 1406 3038 1543 3061 
Q 1681 3084 1819 3084 
Q 2600 3084 3056 2656 
Q 3513 2228 3513 1497 
Q 3513 744 3044 326 
Q 2575 -91 1722 -91 
Q 1428 -91 1123 -41 
Q 819 9 494 109 
L 494 744 
Q 775 591 1075 516 
Q 1375 441 1709 441 
Q 2250 441 2565 725 
Q 2881 1009 2881 1497 
Q 2881 1984 2565 2268 
Q 2250 2553 1709 2553 
Q 1456 2553 1204 2497 
Q 953 2441 691 2322 
L 691 4666 
z
" transform="scale(0.015625)"/>
       </defs>
       <use xlink:href="#DejaVuSans-33"/>
       <use xlink:href="#DejaVuSans-2e" x="63.623047"/>
       <use xlink:href="#DejaVuSans-39" x="95.410156"/>
       <use xlink:href="#DejaVuSans-35" x="159.033203"/>
      </g>
     </g>
    </g>
    <g id="xtick_3">
     <g id="line2d_3">
      <g>
       <use xlink:href="#ma40e80c6e2" x="224.049101" y="316.24" style="stroke: #000000; stroke-width: 0.8"/>
      </g>
     </g>
     <g id="text_3">
      <!-- 4.00 -->
      <g transform="translate(212.916288 330.838437) scale(0.1 -0.1)">
       <defs>
        <path id="DejaVuSans-34" d="M 2419 4116 
L 825 1625 
L 2419 1625 
L 2419 4116 
z
M 2253 4666 
L 3047 4666 
L 3047 1625 
L 3713 1625 
L 3713 1100 
L 3047 1100 
L 3047 0 
L 2419 0 
L 2419 1100 
L 313 1100 
L 313 1709 
L 2253 4666 
z
" transform="scale(0.015625)"/>
       </defs>
       <use xlink:href="#DejaVuSans-34"/>
       <use xlink:href="#DejaVuSans-2e" x="63.623047"/>
       <use xlink:href="#DejaVuSans-30" x="95.410156"/>
       <use xlink:href="#DejaVuSans-30" x="159.033203"/>
      </g>
     </g>
    </g>
    <g id="xtick_4">
     <g id="line2d_4">
      <g>
       <use xlink:href="#ma40e80c6e2" x="285.970604" y="316.24" style="stroke: #000000; stroke-width: 0.8"/>
      </g>
     </g>
     <g id="text_4">
      <!-- 4.05 -->
      <g transform="translate(274.837791 330.838437) scale(0.1 -0.1)">
       <use xlink:href="#DejaVuSans-34"/>
       <use xlink:href="#DejaVuSans-2e" x="63.623047"/>
       <use xlink:href="#DejaVuSans-30" x="95.410156"/>
       <use xlink:href="#DejaVuSans-35" x="159.033203"/>
      </g>
     </g>
    </g>
    <g id="xtick_5">
     <g id="line2d_5">
      <g>
       <use xlink:href="#ma40e80c6e2" x="347.892107" y="316.24" style="stroke: #000000; stroke-width: 0.8"/>
      </g>
     </g>
     <g id="text_5">
      <!-- 4.10 -->
      <g transform="translate(336.759294 330.838437) scale(0.1 -0.1)">
       <defs>
        <path id="DejaVuSans-31" d="M 794 531 
L 1825 531 
L 1825 4091 
L 703 3866 
L 703 4441 
L 1819 4666 
L 2450 4666 
L 2450 531 
L 3481 531 
L 3481 0 
L 794 0 
L 794 531 
z
" transform="scale(0.015625)"/>
       </defs>
       <use xlink:href="#DejaVuSans-34"/>
       <use xlink:href="#DejaVuSans-2e" x="63.623047"/>
       <use xlink:href="#DejaVuSans-31" x="95.410156"/>
       <use xlink:href="#DejaVuSans-30" x="159.033203"/>
      </g>
     </g>
    </g>
    <g id="xtick_6">
     <g id="line2d_6">
      <g>
       <use xlink:href="#ma40e80c6e2" x="409.81361" y="316.24" style="stroke: #000000; stroke-width: 0.8"/>
      </g>
     </g>
     <g id="text_6">
      <!-- 4.15 -->
      <g transform="translate(398.680797 330.838437) scale(0.1 -0.1)">
       <use xlink:href="#DejaVuSans-34"/>
       <use xlink:href="#DejaVuSans-2e" x="63.623047"/>
       <use xlink:href="#DejaVuSans-31" x="95.410156"/>
       <use xlink:href="#DejaVuSans-35" x="159.033203"/>
      </g>
     </g>
    </g>
    <g id="text_7">
     <!-- Predicted Fluorescence -->
     <g transform="translate(166.135 346.03625) scale(0.12 -0.12)">
      <defs>
       <path id="DejaVuSans-50" d="M 1259 4147 
L 1259 2394 
L 2053 2394 
Q 2494 2394 2734 2622 
Q 2975 2850 2975 3272 
Q 2975 3691 2734 3919 
Q 2494 4147 2053 4147 
L 1259 4147 
z
M 628 4666 
L 2053 4666 
Q 2838 4666 3239 4311 
Q 3641 3956 3641 3272 
Q 3641 2581 3239 2228 
Q 2838 1875 2053 1875 
L 1259 1875 
L 1259 0 
L 628 0 
L 628 4666 
z
" transform="scale(0.015625)"/>
       <path id="DejaVuSans-72" d="M 2631 2963 
Q 2534 3019 2420 3045 
Q 2306 3072 2169 3072 
Q 1681 3072 1420 2755 
Q 1159 2438 1159 1844 
L 1159 0 
L 581 0 
L 581 3500 
L 1159 3500 
L 1159 2956 
Q 1341 3275 1631 3429 
Q 1922 3584 2338 3584 
Q 2397 3584 2469 3576 
Q 2541 3569 2628 3553 
L 2631 2963 
z
" transform="scale(0.015625)"/>
       <path id="DejaVuSans-65" d="M 3597 1894 
L 3597 1613 
L 953 1613 
Q 991 1019 1311 708 
Q 1631 397 2203 397 
Q 2534 397 2845 478 
Q 3156 559 3463 722 
L 3463 178 
Q 3153 47 2828 -22 
Q 2503 -91 2169 -91 
Q 1331 -91 842 396 
Q 353 884 353 1716 
Q 353 2575 817 3079 
Q 1281 3584 2069 3584 
Q 2775 3584 3186 3129 
Q 3597 2675 3597 1894 
z
M 3022 2063 
Q 3016 2534 2758 2815 
Q 2500 3097 2075 3097 
Q 1594 3097 1305 2825 
Q 1016 2553 972 2059 
L 3022 2063 
z
" transform="scale(0.015625)"/>
       <path id="DejaVuSans-64" d="M 2906 2969 
L 2906 4863 
L 3481 4863 
L 3481 0 
L 2906 0 
L 2906 525 
Q 2725 213 2448 61 
Q 2172 -91 1784 -91 
Q 1150 -91 751 415 
Q 353 922 353 1747 
Q 353 2572 751 3078 
Q 1150 3584 1784 3584 
Q 2172 3584 2448 3432 
Q 2725 3281 2906 2969 
z
M 947 1747 
Q 947 1113 1208 752 
Q 1469 391 1925 391 
Q 2381 391 2643 752 
Q 2906 1113 2906 1747 
Q 2906 2381 2643 2742 
Q 2381 3103 1925 3103 
Q 1469 3103 1208 2742 
Q 947 2381 947 1747 
z
" transform="scale(0.015625)"/>
       <path id="DejaVuSans-69" d="M 603 3500 
L 1178 3500 
L 1178 0 
L 603 0 
L 603 3500 
z
M 603 4863 
L 1178 4863 
L 1178 4134 
L 603 4134 
L 603 4863 
z
" transform="scale(0.015625)"/>
       <path id="DejaVuSans-63" d="M 3122 3366 
L 3122 2828 
Q 2878 2963 2633 3030 
Q 2388 3097 2138 3097 
Q 1578 3097 1268 2742 
Q 959 2388 959 1747 
Q 959 1106 1268 751 
Q 1578 397 2138 397 
Q 2388 397 2633 464 
Q 2878 531 3122 666 
L 3122 134 
Q 2881 22 2623 -34 
Q 2366 -91 2075 -91 
Q 1284 -91 818 406 
Q 353 903 353 1747 
Q 353 2603 823 3093 
Q 1294 3584 2113 3584 
Q 2378 3584 2631 3529 
Q 2884 3475 3122 3366 
z
" transform="scale(0.015625)"/>
       <path id="DejaVuSans-74" d="M 1172 4494 
L 1172 3500 
L 2356 3500 
L 2356 3053 
L 1172 3053 
L 1172 1153 
Q 1172 725 1289 603 
Q 1406 481 1766 481 
L 2356 481 
L 2356 0 
L 1766 0 
Q 1100 0 847 248 
Q 594 497 594 1153 
L 594 3053 
L 172 3053 
L 172 3500 
L 594 3500 
L 594 4494 
L 1172 4494 
z
" transform="scale(0.015625)"/>
       <path id="DejaVuSans-20" transform="scale(0.015625)"/>
       <path id="DejaVuSans-46" d="M 628 4666 
L 3309 4666 
L 3309 4134 
L 1259 4134 
L 1259 2759 
L 3109 2759 
L 3109 2228 
L 1259 2228 
L 1259 0 
L 628 0 
L 628 4666 
z
" transform="scale(0.015625)"/>
       <path id="DejaVuSans-6c" d="M 603 4863 
L 1178 4863 
L 1178 0 
L 603 0 
L 603 4863 
z
" transform="scale(0.015625)"/>
       <path id="DejaVuSans-75" d="M 544 1381 
L 544 3500 
L 1119 3500 
L 1119 1403 
Q 1119 906 1312 657 
Q 1506 409 1894 409 
Q 2359 409 2629 706 
Q 2900 1003 2900 1516 
L 2900 3500 
L 3475 3500 
L 3475 0 
L 2900 0 
L 2900 538 
Q 2691 219 2414 64 
Q 2138 -91 1772 -91 
Q 1169 -91 856 284 
Q 544 659 544 1381 
z
M 1991 3584 
L 1991 3584 
z
" transform="scale(0.015625)"/>
       <path id="DejaVuSans-6f" d="M 1959 3097 
Q 1497 3097 1228 2736 
Q 959 2375 959 1747 
Q 959 1119 1226 758 
Q 1494 397 1959 397 
Q 2419 397 2687 759 
Q 2956 1122 2956 1747 
Q 2956 2369 2687 2733 
Q 2419 3097 1959 3097 
z
M 1959 3584 
Q 2709 3584 3137 3096 
Q 3566 2609 3566 1747 
Q 3566 888 3137 398 
Q 2709 -91 1959 -91 
Q 1206 -91 779 398 
Q 353 888 353 1747 
Q 353 2609 779 3096 
Q 1206 3584 1959 3584 
z
" transform="scale(0.015625)"/>
       <path id="DejaVuSans-73" d="M 2834 3397 
L 2834 2853 
Q 2591 2978 2328 3040 
Q 2066 3103 1784 3103 
Q 1356 3103 1142 2972 
Q 928 2841 928 2578 
Q 928 2378 1081 2264 
Q 1234 2150 1697 2047 
L 1894 2003 
Q 2506 1872 2764 1633 
Q 3022 1394 3022 966 
Q 3022 478 2636 193 
Q 2250 -91 1575 -91 
Q 1294 -91 989 -36 
Q 684 19 347 128 
L 347 722 
Q 666 556 975 473 
Q 1284 391 1588 391 
Q 1994 391 2212 530 
Q 2431 669 2431 922 
Q 2431 1156 2273 1281 
Q 2116 1406 1581 1522 
L 1381 1569 
Q 847 1681 609 1914 
Q 372 2147 372 2553 
Q 372 3047 722 3315 
Q 1072 3584 1716 3584 
Q 2034 3584 2315 3537 
Q 2597 3491 2834 3397 
z
" transform="scale(0.015625)"/>
       <path id="DejaVuSans-6e" d="M 3513 2113 
L 3513 0 
L 2938 0 
L 2938 2094 
Q 2938 2591 2744 2837 
Q 2550 3084 2163 3084 
Q 1697 3084 1428 2787 
Q 1159 2491 1159 1978 
L 1159 0 
L 581 0 
L 581 3500 
L 1159 3500 
L 1159 2956 
Q 1366 3272 1645 3428 
Q 1925 3584 2291 3584 
Q 2894 3584 3203 3211 
Q 3513 2838 3513 2113 
z
" transform="scale(0.015625)"/>
      </defs>
      <use xlink:href="#DejaVuSans-50"/>
      <use xlink:href="#DejaVuSans-72" x="58.552734"/>
      <use xlink:href="#DejaVuSans-65" x="97.416016"/>
      <use xlink:href="#DejaVuSans-64" x="158.939453"/>
      <use xlink:href="#DejaVuSans-69" x="222.416016"/>
      <use xlink:href="#DejaVuSans-63" x="250.199219"/>
      <use xlink:href="#DejaVuSans-74" x="305.179688"/>
      <use xlink:href="#DejaVuSans-65" x="344.388672"/>
      <use xlink:href="#DejaVuSans-64" x="405.912109"/>
      <use xlink:href="#DejaVuSans-20" x="469.388672"/>
      <use xlink:href="#DejaVuSans-46" x="501.175781"/>
      <use xlink:href="#DejaVuSans-6c" x="558.695312"/>
      <use xlink:href="#DejaVuSans-75" x="586.478516"/>
      <use xlink:href="#DejaVuSans-6f" x="649.857422"/>
      <use xlink:href="#DejaVuSans-72" x="711.039062"/>
      <use xlink:href="#DejaVuSans-65" x="749.902344"/>
      <use xlink:href="#DejaVuSans-73" x="811.425781"/>
      <use xlink:href="#DejaVuSans-63" x="863.525391"/>
      <use xlink:href="#DejaVuSans-65" x="918.505859"/>
      <use xlink:href="#DejaVuSans-6e" x="980.029297"/>
      <use xlink:href="#DejaVuSans-63" x="1043.408203"/>
      <use xlink:href="#DejaVuSans-65" x="1098.388672"/>
     </g>
    </g>
   </g>
   <g id="matplotlib.axis_2">
    <g id="ytick_1">
     <g id="line2d_7">
      <defs>
       <path id="me249ddab54" d="M 0 0 
L -3.5 0 
" style="stroke: #000000; stroke-width: 0.8"/>
      </defs>
      <g>
       <use xlink:href="#me249ddab54" x="46.46" y="316.24" style="stroke: #000000; stroke-width: 0.8"/>
      </g>
     </g>
     <g id="text_8">
      <!-- 0 -->
      <g transform="translate(33.0975 320.039219) scale(0.1 -0.1)">
       <use xlink:href="#DejaVuSans-30"/>
      </g>
     </g>
    </g>
    <g id="ytick_2">
     <g id="line2d_8">
      <g>
       <use xlink:href="#me249ddab54" x="46.46" y="266.47579" style="stroke: #000000; stroke-width: 0.8"/>
      </g>
     </g>
     <g id="text_9">
      <!-- 5 -->
      <g transform="translate(33.0975 270.275009) scale(0.1 -0.1)">
       <use xlink:href="#DejaVuSans-35"/>
      </g>
     </g>
    </g>
    <g id="ytick_3">
     <g id="line2d_9">
      <g>
       <use xlink:href="#me249ddab54" x="46.46" y="216.71158" style="stroke: #000000; stroke-width: 0.8"/>
      </g>
     </g>
     <g id="text_10">
      <!-- 10 -->
      <g transform="translate(26.735 220.510799) scale(0.1 -0.1)">
       <use xlink:href="#DejaVuSans-31"/>
       <use xlink:href="#DejaVuSans-30" x="63.623047"/>
      </g>
     </g>
    </g>
    <g id="ytick_4">
     <g id="line2d_10">
      <g>
       <use xlink:href="#me249ddab54" x="46.46" y="166.94737" style="stroke: #000000; stroke-width: 0.8"/>
      </g>
     </g>
     <g id="text_11">
      <!-- 15 -->
      <g transform="translate(26.735 170.746589) scale(0.1 -0.1)">
       <use xlink:href="#DejaVuSans-31"/>
       <use xlink:href="#DejaVuSans-35" x="63.623047"/>
      </g>
     </g>
    </g>
    <g id="ytick_5">
     <g id="line2d_11">
      <g>
       <use xlink:href="#me249ddab54" x="46.46" y="117.18316" style="stroke: #000000; stroke-width: 0.8"/>
      </g>
     </g>
     <g id="text_12">
      <!-- 20 -->
      <g transform="translate(26.735 120.982379) scale(0.1 -0.1)">
       <defs>
        <path id="DejaVuSans-32" d="M 1228 531 
L 3431 531 
L 3431 0 
L 469 0 
L 469 531 
Q 828 903 1448 1529 
Q 2069 2156 2228 2338 
Q 2531 2678 2651 2914 
Q 2772 3150 2772 3378 
Q 2772 3750 2511 3984 
Q 2250 4219 1831 4219 
Q 1534 4219 1204 4116 
Q 875 4013 500 3803 
L 500 4441 
Q 881 4594 1212 4672 
Q 1544 4750 1819 4750 
Q 2544 4750 2975 4387 
Q 3406 4025 3406 3419 
Q 3406 3131 3298 2873 
Q 3191 2616 2906 2266 
Q 2828 2175 2409 1742 
Q 1991 1309 1228 531 
z
" transform="scale(0.015625)"/>
       </defs>
       <use xlink:href="#DejaVuSans-32"/>
       <use xlink:href="#DejaVuSans-30" x="63.623047"/>
      </g>
     </g>
    </g>
    <g id="ytick_6">
     <g id="line2d_12">
      <g>
       <use xlink:href="#me249ddab54" x="46.46" y="67.41895" style="stroke: #000000; stroke-width: 0.8"/>
      </g>
     </g>
     <g id="text_13">
      <!-- 25 -->
      <g transform="translate(26.735 71.218169) scale(0.1 -0.1)">
       <use xlink:href="#DejaVuSans-32"/>
       <use xlink:href="#DejaVuSans-35" x="63.623047"/>
      </g>
     </g>
    </g>
    <g id="ytick_7">
     <g id="line2d_13">
      <g>
       <use xlink:href="#me249ddab54" x="46.46" y="17.65474" style="stroke: #000000; stroke-width: 0.8"/>
      </g>
     </g>
     <g id="text_14">
      <!-- 30 -->
      <g transform="translate(26.735 21.453959) scale(0.1 -0.1)">
       <use xlink:href="#DejaVuSans-33"/>
       <use xlink:href="#DejaVuSans-30" x="63.623047"/>
      </g>
     </g>
    </g>
    <g id="text_15">
     <!-- Probability -->
     <g transform="translate(20.239375 197.214687) rotate(-90) scale(0.12 -0.12)">
      <defs>
       <path id="DejaVuSans-62" d="M 3116 1747 
Q 3116 2381 2855 2742 
Q 2594 3103 2138 3103 
Q 1681 3103 1420 2742 
Q 1159 2381 1159 1747 
Q 1159 1113 1420 752 
Q 1681 391 2138 391 
Q 2594 391 2855 752 
Q 3116 1113 3116 1747 
z
M 1159 2969 
Q 1341 3281 1617 3432 
Q 1894 3584 2278 3584 
Q 2916 3584 3314 3078 
Q 3713 2572 3713 1747 
Q 3713 922 3314 415 
Q 2916 -91 2278 -91 
Q 1894 -91 1617 61 
Q 1341 213 1159 525 
L 1159 0 
L 581 0 
L 581 4863 
L 1159 4863 
L 1159 2969 
z
" transform="scale(0.015625)"/>
       <path id="DejaVuSans-61" d="M 2194 1759 
Q 1497 1759 1228 1600 
Q 959 1441 959 1056 
Q 959 750 1161 570 
Q 1363 391 1709 391 
Q 2188 391 2477 730 
Q 2766 1069 2766 1631 
L 2766 1759 
L 2194 1759 
z
M 3341 1997 
L 3341 0 
L 2766 0 
L 2766 531 
Q 2569 213 2275 61 
Q 1981 -91 1556 -91 
Q 1019 -91 701 211 
Q 384 513 384 1019 
Q 384 1609 779 1909 
Q 1175 2209 1959 2209 
L 2766 2209 
L 2766 2266 
Q 2766 2663 2505 2880 
Q 2244 3097 1772 3097 
Q 1472 3097 1187 3025 
Q 903 2953 641 2809 
L 641 3341 
Q 956 3463 1253 3523 
Q 1550 3584 1831 3584 
Q 2591 3584 2966 3190 
Q 3341 2797 3341 1997 
z
" transform="scale(0.015625)"/>
       <path id="DejaVuSans-79" d="M 2059 -325 
Q 1816 -950 1584 -1140 
Q 1353 -1331 966 -1331 
L 506 -1331 
L 506 -850 
L 844 -850 
Q 1081 -850 1212 -737 
Q 1344 -625 1503 -206 
L 1606 56 
L 191 3500 
L 800 3500 
L 1894 763 
L 2988 3500 
L 3597 3500 
L 2059 -325 
z
" transform="scale(0.015625)"/>
      </defs>
      <use xlink:href="#DejaVuSans-50"/>
      <use xlink:href="#DejaVuSans-72" x="58.552734"/>
      <use xlink:href="#DejaVuSans-6f" x="97.416016"/>
      <use xlink:href="#DejaVuSans-62" x="158.597656"/>
      <use xlink:href="#DejaVuSans-61" x="222.074219"/>
      <use xlink:href="#DejaVuSans-62" x="283.353516"/>
      <use xlink:href="#DejaVuSans-69" x="346.830078"/>
      <use xlink:href="#DejaVuSans-6c" x="374.613281"/>
      <use xlink:href="#DejaVuSans-69" x="402.396484"/>
      <use xlink:href="#DejaVuSans-74" x="430.179688"/>
      <use xlink:href="#DejaVuSans-79" x="469.388672"/>
     </g>
    </g>
   </g>
   <g id="line2d_14">
    <path d="M 340.973296 316.24 
L 340.973296 14.76 
" clip-path="url(#pdd87daac07)" style="fill: none; stroke-dasharray: 11.1,4.8; stroke-dashoffset: 0; stroke: #ffa500; stroke-width: 3"/>
   </g>
   <g id="patch_55">
    <path d="M 46.46 316.24 
L 46.46 14.76 
" style="fill: none; stroke: #000000; stroke-width: 0.8; stroke-linejoin: miter; stroke-linecap: square"/>
   </g>
   <g id="patch_56">
    <path d="M 46.46 316.24 
L 425.0025 316.24 
" style="fill: none; stroke: #000000; stroke-width: 0.8; stroke-linejoin: miter; stroke-linecap: square"/>
   </g>
   <g id="legend_1">
    <g id="patch_57">
     <path d="M 53.46 52.11625 
L 178.314688 52.11625 
Q 180.314688 52.11625 180.314688 50.11625 
L 180.314688 21.76 
Q 180.314688 19.76 178.314688 19.76 
L 53.46 19.76 
Q 51.46 19.76 51.46 21.76 
L 51.46 50.11625 
Q 51.46 52.11625 53.46 52.11625 
z
" style="fill: #ffffff; opacity: 0.8; stroke: #cccccc; stroke-linejoin: miter"/>
    </g>
    <g id="patch_58">
     <path d="M 55.46 31.358437 
L 75.46 31.358437 
L 75.46 24.358437 
L 55.46 24.358437 
z
" style="fill: #808080; fill-opacity: 0.3; stroke: #000000; stroke-linejoin: miter"/>
    </g>
    <g id="text_16">
     <!-- Pre-trained VAE -->
     <g transform="translate(83.46 31.358437) scale(0.1 -0.1)">
      <defs>
       <path id="DejaVuSans-2d" d="M 313 2009 
L 1997 2009 
L 1997 1497 
L 313 1497 
L 313 2009 
z
" transform="scale(0.015625)"/>
       <path id="DejaVuSans-56" d="M 1831 0 
L 50 4666 
L 709 4666 
L 2188 738 
L 3669 4666 
L 4325 4666 
L 2547 0 
L 1831 0 
z
" transform="scale(0.015625)"/>
       <path id="DejaVuSans-41" d="M 2188 4044 
L 1331 1722 
L 3047 1722 
L 2188 4044 
z
M 1831 4666 
L 2547 4666 
L 4325 0 
L 3669 0 
L 3244 1197 
L 1141 1197 
L 716 0 
L 50 0 
L 1831 4666 
z
" transform="scale(0.015625)"/>
       <path id="DejaVuSans-45" d="M 628 4666 
L 3578 4666 
L 3578 4134 
L 1259 4134 
L 1259 2753 
L 3481 2753 
L 3481 2222 
L 1259 2222 
L 1259 531 
L 3634 531 
L 3634 0 
L 628 0 
L 628 4666 
z
" transform="scale(0.015625)"/>
      </defs>
      <use xlink:href="#DejaVuSans-50"/>
      <use xlink:href="#DejaVuSans-72" x="58.552734"/>
      <use xlink:href="#DejaVuSans-65" x="97.416016"/>
      <use xlink:href="#DejaVuSans-2d" x="158.939453"/>
      <use xlink:href="#DejaVuSans-74" x="195.023438"/>
      <use xlink:href="#DejaVuSans-72" x="234.232422"/>
      <use xlink:href="#DejaVuSans-61" x="275.345703"/>
      <use xlink:href="#DejaVuSans-69" x="336.625"/>
      <use xlink:href="#DejaVuSans-6e" x="364.408203"/>
      <use xlink:href="#DejaVuSans-65" x="427.787109"/>
      <use xlink:href="#DejaVuSans-64" x="489.310547"/>
      <use xlink:href="#DejaVuSans-20" x="552.787109"/>
      <use xlink:href="#DejaVuSans-56" x="584.574219"/>
      <use xlink:href="#DejaVuSans-41" x="646.607422"/>
      <use xlink:href="#DejaVuSans-45" x="715.015625"/>
     </g>
    </g>
    <g id="patch_59">
     <path d="M 55.46 46.036563 
L 75.46 46.036563 
L 75.46 39.036563 
L 55.46 39.036563 
z
" style="fill: #0000ff; fill-opacity: 0.6; stroke: #000000; stroke-width: 0.722239; stroke-linejoin: miter"/>
    </g>
    <g id="text_17">
     <!-- RLXF-updated VAE -->
     <g transform="translate(83.46 46.036563) scale(0.1 -0.1)">
      <defs>
       <path id="DejaVuSans-52" d="M 2841 2188 
Q 3044 2119 3236 1894 
Q 3428 1669 3622 1275 
L 4263 0 
L 3584 0 
L 2988 1197 
Q 2756 1666 2539 1819 
Q 2322 1972 1947 1972 
L 1259 1972 
L 1259 0 
L 628 0 
L 628 4666 
L 2053 4666 
Q 2853 4666 3247 4331 
Q 3641 3997 3641 3322 
Q 3641 2881 3436 2590 
Q 3231 2300 2841 2188 
z
M 1259 4147 
L 1259 2491 
L 2053 2491 
Q 2509 2491 2742 2702 
Q 2975 2913 2975 3322 
Q 2975 3731 2742 3939 
Q 2509 4147 2053 4147 
L 1259 4147 
z
" transform="scale(0.015625)"/>
       <path id="DejaVuSans-4c" d="M 628 4666 
L 1259 4666 
L 1259 531 
L 3531 531 
L 3531 0 
L 628 0 
L 628 4666 
z
" transform="scale(0.015625)"/>
       <path id="DejaVuSans-58" d="M 403 4666 
L 1081 4666 
L 2241 2931 
L 3406 4666 
L 4084 4666 
L 2584 2425 
L 4184 0 
L 3506 0 
L 2194 1984 
L 872 0 
L 191 0 
L 1856 2491 
L 403 4666 
z
" transform="scale(0.015625)"/>
       <path id="DejaVuSans-70" d="M 1159 525 
L 1159 -1331 
L 581 -1331 
L 581 3500 
L 1159 3500 
L 1159 2969 
Q 1341 3281 1617 3432 
Q 1894 3584 2278 3584 
Q 2916 3584 3314 3078 
Q 3713 2572 3713 1747 
Q 3713 922 3314 415 
Q 2916 -91 2278 -91 
Q 1894 -91 1617 61 
Q 1341 213 1159 525 
z
M 3116 1747 
Q 3116 2381 2855 2742 
Q 2594 3103 2138 3103 
Q 1681 3103 1420 2742 
Q 1159 2381 1159 1747 
Q 1159 1113 1420 752 
Q 1681 391 2138 391 
Q 2594 391 2855 752 
Q 3116 1113 3116 1747 
z
" transform="scale(0.015625)"/>
      </defs>
      <use xlink:href="#DejaVuSans-52"/>
      <use xlink:href="#DejaVuSans-4c" x="69.482422"/>
      <use xlink:href="#DejaVuSans-58" x="125.195312"/>
      <use xlink:href="#DejaVuSans-46" x="193.701172"/>
      <use xlink:href="#DejaVuSans-2d" x="251.220703"/>
      <use xlink:href="#DejaVuSans-75" x="287.304688"/>
      <use xlink:href="#DejaVuSans-70" x="350.683594"/>
      <use xlink:href="#DejaVuSans-64" x="414.160156"/>
      <use xlink:href="#DejaVuSans-61" x="477.636719"/>
      <use xlink:href="#DejaVuSans-74" x="538.916016"/>
      <use xlink:href="#DejaVuSans-65" x="578.125"/>
      <use xlink:href="#DejaVuSans-64" x="639.648438"/>
      <use xlink:href="#DejaVuSans-20" x="703.125"/>
      <use xlink:href="#DejaVuSans-56" x="734.912109"/>
      <use xlink:href="#DejaVuSans-41" x="796.945312"/>
      <use xlink:href="#DejaVuSans-45" x="865.353516"/>
     </g>
    </g>
   </g>
  </g>
  <g id="axes_2">
   <g id="patch_60">
    <path d="M 474.6575 316.24 
L 853.2 316.24 
L 853.2 14.76 
L 474.6575 14.76 
z
" style="fill: #ffffff"/>
   </g>
   <g id="patch_61">
    <path d="M 491.863977 316.24 
L 491.863977 14.76 
L 759.603338 14.76 
L 759.603338 316.24 
z
" clip-path="url(#p3577d2cd2f)" style="fill: #ff0000; opacity: 0.1; stroke: #ff0000; stroke-linejoin: miter"/>
   </g>
   <g id="patch_62">
    <path d="M 759.603338 316.24 
L 759.603338 14.76 
L 835.993523 14.76 
L 835.993523 316.24 
z
" clip-path="url(#p3577d2cd2f)" style="fill: #008000; opacity: 0.1; stroke: #008000; stroke-linejoin: miter"/>
   </g>
   <g id="matplotlib.axis_3">
    <g id="xtick_7">
     <g id="line2d_15">
      <g>
       <use xlink:href="#ma40e80c6e2" x="484.431788" y="316.24" style="stroke: #000000; stroke-width: 0.8"/>
      </g>
     </g>
     <g id="text_18">
      <!-- 3.85 -->
      <g transform="translate(473.298976 330.838437) scale(0.1 -0.1)">
       <defs>
        <path id="DejaVuSans-38" d="M 2034 2216 
Q 1584 2216 1326 1975 
Q 1069 1734 1069 1313 
Q 1069 891 1326 650 
Q 1584 409 2034 409 
Q 2484 409 2743 651 
Q 3003 894 3003 1313 
Q 3003 1734 2745 1975 
Q 2488 2216 2034 2216 
z
M 1403 2484 
Q 997 2584 770 2862 
Q 544 3141 544 3541 
Q 544 4100 942 4425 
Q 1341 4750 2034 4750 
Q 2731 4750 3128 4425 
Q 3525 4100 3525 3541 
Q 3525 3141 3298 2862 
Q 3072 2584 2669 2484 
Q 3125 2378 3379 2068 
Q 3634 1759 3634 1313 
Q 3634 634 3220 271 
Q 2806 -91 2034 -91 
Q 1263 -91 848 271 
Q 434 634 434 1313 
Q 434 1759 690 2068 
Q 947 2378 1403 2484 
z
M 1172 3481 
Q 1172 3119 1398 2916 
Q 1625 2713 2034 2713 
Q 2441 2713 2670 2916 
Q 2900 3119 2900 3481 
Q 2900 3844 2670 4047 
Q 2441 4250 2034 4250 
Q 1625 4250 1398 4047 
Q 1172 3844 1172 3481 
z
" transform="scale(0.015625)"/>
       </defs>
       <use xlink:href="#DejaVuSans-33"/>
       <use xlink:href="#DejaVuSans-2e" x="63.623047"/>
       <use xlink:href="#DejaVuSans-38" x="95.410156"/>
       <use xlink:href="#DejaVuSans-35" x="159.033203"/>
      </g>
     </g>
    </g>
    <g id="xtick_8">
     <g id="line2d_16">
      <g>
       <use xlink:href="#ma40e80c6e2" x="540.724064" y="316.24" style="stroke: #000000; stroke-width: 0.8"/>
      </g>
     </g>
     <g id="text_19">
      <!-- 3.90 -->
      <g transform="translate(529.591251 330.838437) scale(0.1 -0.1)">
       <use xlink:href="#DejaVuSans-33"/>
       <use xlink:href="#DejaVuSans-2e" x="63.623047"/>
       <use xlink:href="#DejaVuSans-39" x="95.410156"/>
       <use xlink:href="#DejaVuSans-30" x="159.033203"/>
      </g>
     </g>
    </g>
    <g id="xtick_9">
     <g id="line2d_17">
      <g>
       <use xlink:href="#ma40e80c6e2" x="597.016339" y="316.24" style="stroke: #000000; stroke-width: 0.8"/>
      </g>
     </g>
     <g id="text_20">
      <!-- 3.95 -->
      <g transform="translate(585.883526 330.838437) scale(0.1 -0.1)">
       <use xlink:href="#DejaVuSans-33"/>
       <use xlink:href="#DejaVuSans-2e" x="63.623047"/>
       <use xlink:href="#DejaVuSans-39" x="95.410156"/>
       <use xlink:href="#DejaVuSans-35" x="159.033203"/>
      </g>
     </g>
    </g>
    <g id="xtick_10">
     <g id="line2d_18">
      <g>
       <use xlink:href="#ma40e80c6e2" x="653.308614" y="316.24" style="stroke: #000000; stroke-width: 0.8"/>
      </g>
     </g>
     <g id="text_21">
      <!-- 4.00 -->
      <g transform="translate(642.175802 330.838437) scale(0.1 -0.1)">
       <use xlink:href="#DejaVuSans-34"/>
       <use xlink:href="#DejaVuSans-2e" x="63.623047"/>
       <use xlink:href="#DejaVuSans-30" x="95.410156"/>
       <use xlink:href="#DejaVuSans-30" x="159.033203"/>
      </g>
     </g>
    </g>
    <g id="xtick_11">
     <g id="line2d_19">
      <g>
       <use xlink:href="#ma40e80c6e2" x="709.60089" y="316.24" style="stroke: #000000; stroke-width: 0.8"/>
      </g>
     </g>
     <g id="text_22">
      <!-- 4.05 -->
      <g transform="translate(698.468077 330.838437) scale(0.1 -0.1)">
       <use xlink:href="#DejaVuSans-34"/>
       <use xlink:href="#DejaVuSans-2e" x="63.623047"/>
       <use xlink:href="#DejaVuSans-30" x="95.410156"/>
       <use xlink:href="#DejaVuSans-35" x="159.033203"/>
      </g>
     </g>
    </g>
    <g id="xtick_12">
     <g id="line2d_20">
      <g>
       <use xlink:href="#ma40e80c6e2" x="765.893165" y="316.24" style="stroke: #000000; stroke-width: 0.8"/>
      </g>
     </g>
     <g id="text_23">
      <!-- 4.10 -->
      <g transform="translate(754.760353 330.838437) scale(0.1 -0.1)">
       <use xlink:href="#DejaVuSans-34"/>
       <use xlink:href="#DejaVuSans-2e" x="63.623047"/>
       <use xlink:href="#DejaVuSans-31" x="95.410156"/>
       <use xlink:href="#DejaVuSans-30" x="159.033203"/>
      </g>
     </g>
    </g>
    <g id="xtick_13">
     <g id="line2d_21">
      <g>
       <use xlink:href="#ma40e80c6e2" x="822.185441" y="316.24" style="stroke: #000000; stroke-width: 0.8"/>
      </g>
     </g>
     <g id="text_24">
      <!-- 4.15 -->
      <g transform="translate(811.052628 330.838437) scale(0.1 -0.1)">
       <use xlink:href="#DejaVuSans-34"/>
       <use xlink:href="#DejaVuSans-2e" x="63.623047"/>
       <use xlink:href="#DejaVuSans-31" x="95.410156"/>
       <use xlink:href="#DejaVuSans-35" x="159.033203"/>
      </g>
     </g>
    </g>
    <g id="text_25">
     <!-- Predicted Fluorescence -->
     <g transform="translate(594.3325 346.03625) scale(0.12 -0.12)">
      <use xlink:href="#DejaVuSans-50"/>
      <use xlink:href="#DejaVuSans-72" x="58.552734"/>
      <use xlink:href="#DejaVuSans-65" x="97.416016"/>
      <use xlink:href="#DejaVuSans-64" x="158.939453"/>
      <use xlink:href="#DejaVuSans-69" x="222.416016"/>
      <use xlink:href="#DejaVuSans-63" x="250.199219"/>
      <use xlink:href="#DejaVuSans-74" x="305.179688"/>
      <use xlink:href="#DejaVuSans-65" x="344.388672"/>
      <use xlink:href="#DejaVuSans-64" x="405.912109"/>
      <use xlink:href="#DejaVuSans-20" x="469.388672"/>
      <use xlink:href="#DejaVuSans-46" x="501.175781"/>
      <use xlink:href="#DejaVuSans-6c" x="558.695312"/>
      <use xlink:href="#DejaVuSans-75" x="586.478516"/>
      <use xlink:href="#DejaVuSans-6f" x="649.857422"/>
      <use xlink:href="#DejaVuSans-72" x="711.039062"/>
      <use xlink:href="#DejaVuSans-65" x="749.902344"/>
      <use xlink:href="#DejaVuSans-73" x="811.425781"/>
      <use xlink:href="#DejaVuSans-63" x="863.525391"/>
      <use xlink:href="#DejaVuSans-65" x="918.505859"/>
      <use xlink:href="#DejaVuSans-6e" x="980.029297"/>
      <use xlink:href="#DejaVuSans-63" x="1043.408203"/>
      <use xlink:href="#DejaVuSans-65" x="1098.388672"/>
     </g>
    </g>
   </g>
   <g id="matplotlib.axis_4">
    <g id="ytick_8">
     <g id="line2d_22">
      <g>
       <use xlink:href="#me249ddab54" x="474.6575" y="316.24" style="stroke: #000000; stroke-width: 0.8"/>
      </g>
     </g>
     <g id="text_26">
      <!-- 0.0 -->
      <g transform="translate(451.754375 320.039219) scale(0.1 -0.1)">
       <use xlink:href="#DejaVuSans-30"/>
       <use xlink:href="#DejaVuSans-2e" x="63.623047"/>
       <use xlink:href="#DejaVuSans-30" x="95.410156"/>
      </g>
     </g>
    </g>
    <g id="ytick_9">
     <g id="line2d_23">
      <g>
       <use xlink:href="#me249ddab54" x="474.6575" y="255.944" style="stroke: #000000; stroke-width: 0.8"/>
      </g>
     </g>
     <g id="text_27">
      <!-- 0.2 -->
      <g transform="translate(451.754375 259.743219) scale(0.1 -0.1)">
       <use xlink:href="#DejaVuSans-30"/>
       <use xlink:href="#DejaVuSans-2e" x="63.623047"/>
       <use xlink:href="#DejaVuSans-32" x="95.410156"/>
      </g>
     </g>
    </g>
    <g id="ytick_10">
     <g id="line2d_24">
      <g>
       <use xlink:href="#me249ddab54" x="474.6575" y="195.648" style="stroke: #000000; stroke-width: 0.8"/>
      </g>
     </g>
     <g id="text_28">
      <!-- 0.4 -->
      <g transform="translate(451.754375 199.447219) scale(0.1 -0.1)">
       <use xlink:href="#DejaVuSans-30"/>
       <use xlink:href="#DejaVuSans-2e" x="63.623047"/>
       <use xlink:href="#DejaVuSans-34" x="95.410156"/>
      </g>
     </g>
    </g>
    <g id="ytick_11">
     <g id="line2d_25">
      <g>
       <use xlink:href="#me249ddab54" x="474.6575" y="135.352" style="stroke: #000000; stroke-width: 0.8"/>
      </g>
     </g>
     <g id="text_29">
      <!-- 0.6 -->
      <g transform="translate(451.754375 139.151219) scale(0.1 -0.1)">
       <defs>
        <path id="DejaVuSans-36" d="M 2113 2584 
Q 1688 2584 1439 2293 
Q 1191 2003 1191 1497 
Q 1191 994 1439 701 
Q 1688 409 2113 409 
Q 2538 409 2786 701 
Q 3034 994 3034 1497 
Q 3034 2003 2786 2293 
Q 2538 2584 2113 2584 
z
M 3366 4563 
L 3366 3988 
Q 3128 4100 2886 4159 
Q 2644 4219 2406 4219 
Q 1781 4219 1451 3797 
Q 1122 3375 1075 2522 
Q 1259 2794 1537 2939 
Q 1816 3084 2150 3084 
Q 2853 3084 3261 2657 
Q 3669 2231 3669 1497 
Q 3669 778 3244 343 
Q 2819 -91 2113 -91 
Q 1303 -91 875 529 
Q 447 1150 447 2328 
Q 447 3434 972 4092 
Q 1497 4750 2381 4750 
Q 2619 4750 2861 4703 
Q 3103 4656 3366 4563 
z
" transform="scale(0.015625)"/>
       </defs>
       <use xlink:href="#DejaVuSans-30"/>
       <use xlink:href="#DejaVuSans-2e" x="63.623047"/>
       <use xlink:href="#DejaVuSans-36" x="95.410156"/>
      </g>
     </g>
    </g>
    <g id="ytick_12">
     <g id="line2d_26">
      <g>
       <use xlink:href="#me249ddab54" x="474.6575" y="75.056" style="stroke: #000000; stroke-width: 0.8"/>
      </g>
     </g>
     <g id="text_30">
      <!-- 0.8 -->
      <g transform="translate(451.754375 78.855219) scale(0.1 -0.1)">
       <use xlink:href="#DejaVuSans-30"/>
       <use xlink:href="#DejaVuSans-2e" x="63.623047"/>
       <use xlink:href="#DejaVuSans-38" x="95.410156"/>
      </g>
     </g>
    </g>
    <g id="ytick_13">
     <g id="line2d_27">
      <g>
       <use xlink:href="#me249ddab54" x="474.6575" y="14.76" style="stroke: #000000; stroke-width: 0.8"/>
      </g>
     </g>
     <g id="text_31">
      <!-- 1.0 -->
      <g transform="translate(451.754375 18.559219) scale(0.1 -0.1)">
       <use xlink:href="#DejaVuSans-31"/>
       <use xlink:href="#DejaVuSans-2e" x="63.623047"/>
       <use xlink:href="#DejaVuSans-30" x="95.410156"/>
      </g>
     </g>
    </g>
    <g id="text_32">
     <!-- Cumulative Density -->
     <g transform="translate(445.25875 224.462187) rotate(-90) scale(0.12 -0.12)">
      <defs>
       <path id="DejaVuSans-43" d="M 4122 4306 
L 4122 3641 
Q 3803 3938 3442 4084 
Q 3081 4231 2675 4231 
Q 1875 4231 1450 3742 
Q 1025 3253 1025 2328 
Q 1025 1406 1450 917 
Q 1875 428 2675 428 
Q 3081 428 3442 575 
Q 3803 722 4122 1019 
L 4122 359 
Q 3791 134 3420 21 
Q 3050 -91 2638 -91 
Q 1578 -91 968 557 
Q 359 1206 359 2328 
Q 359 3453 968 4101 
Q 1578 4750 2638 4750 
Q 3056 4750 3426 4639 
Q 3797 4528 4122 4306 
z
" transform="scale(0.015625)"/>
       <path id="DejaVuSans-6d" d="M 3328 2828 
Q 3544 3216 3844 3400 
Q 4144 3584 4550 3584 
Q 5097 3584 5394 3201 
Q 5691 2819 5691 2113 
L 5691 0 
L 5113 0 
L 5113 2094 
Q 5113 2597 4934 2840 
Q 4756 3084 4391 3084 
Q 3944 3084 3684 2787 
Q 3425 2491 3425 1978 
L 3425 0 
L 2847 0 
L 2847 2094 
Q 2847 2600 2669 2842 
Q 2491 3084 2119 3084 
Q 1678 3084 1418 2786 
Q 1159 2488 1159 1978 
L 1159 0 
L 581 0 
L 581 3500 
L 1159 3500 
L 1159 2956 
Q 1356 3278 1631 3431 
Q 1906 3584 2284 3584 
Q 2666 3584 2933 3390 
Q 3200 3197 3328 2828 
z
" transform="scale(0.015625)"/>
       <path id="DejaVuSans-76" d="M 191 3500 
L 800 3500 
L 1894 563 
L 2988 3500 
L 3597 3500 
L 2284 0 
L 1503 0 
L 191 3500 
z
" transform="scale(0.015625)"/>
       <path id="DejaVuSans-44" d="M 1259 4147 
L 1259 519 
L 2022 519 
Q 2988 519 3436 956 
Q 3884 1394 3884 2338 
Q 3884 3275 3436 3711 
Q 2988 4147 2022 4147 
L 1259 4147 
z
M 628 4666 
L 1925 4666 
Q 3281 4666 3915 4102 
Q 4550 3538 4550 2338 
Q 4550 1131 3912 565 
Q 3275 0 1925 0 
L 628 0 
L 628 4666 
z
" transform="scale(0.015625)"/>
      </defs>
      <use xlink:href="#DejaVuSans-43"/>
      <use xlink:href="#DejaVuSans-75" x="69.824219"/>
      <use xlink:href="#DejaVuSans-6d" x="133.203125"/>
      <use xlink:href="#DejaVuSans-75" x="230.615234"/>
      <use xlink:href="#DejaVuSans-6c" x="293.994141"/>
      <use xlink:href="#DejaVuSans-61" x="321.777344"/>
      <use xlink:href="#DejaVuSans-74" x="383.056641"/>
      <use xlink:href="#DejaVuSans-69" x="422.265625"/>
      <use xlink:href="#DejaVuSans-76" x="450.048828"/>
      <use xlink:href="#DejaVuSans-65" x="509.228516"/>
      <use xlink:href="#DejaVuSans-20" x="570.751953"/>
      <use xlink:href="#DejaVuSans-44" x="602.539062"/>
      <use xlink:href="#DejaVuSans-65" x="679.541016"/>
      <use xlink:href="#DejaVuSans-6e" x="741.064453"/>
      <use xlink:href="#DejaVuSans-73" x="804.443359"/>
      <use xlink:href="#DejaVuSans-69" x="856.542969"/>
      <use xlink:href="#DejaVuSans-74" x="884.326172"/>
      <use xlink:href="#DejaVuSans-79" x="923.535156"/>
     </g>
    </g>
   </g>
   <g id="line2d_28">
    <path d="M 548.156253 14.76 
L 548.156253 15.06148 
L 552.002747 15.06148 
L 552.002747 15.36296 
L 565.965011 15.36296 
L 565.965011 15.66444 
L 589.165303 15.66444 
L 589.165303 15.96592 
L 598.535127 15.96592 
L 598.535127 16.2674 
L 603.684276 16.2674 
L 603.684276 16.56888 
L 603.826808 16.56888 
L 603.826808 16.87036 
L 605.049472 16.87036 
L 605.049472 17.17184 
L 605.3238 17.17184 
L 605.3238 17.47332 
L 606.799855 17.47332 
L 606.799855 17.7748 
L 608.508365 17.7748 
L 608.508365 18.07628 
L 609.967241 18.07628 
L 609.967241 18.37776 
L 611.461549 18.37776 
L 611.461549 18.67924 
L 612.411227 18.67924 
L 612.45498 19.2822 
L 613.947946 19.2822 
L 613.947946 19.58368 
L 614.44748 19.58368 
L 614.44748 19.88516 
L 615.049015 19.88516 
L 615.049015 20.18664 
L 615.633639 20.18664 
L 615.633639 20.48812 
L 615.775366 20.48812 
L 615.775366 20.7896 
L 616.064189 20.7896 
L 616.064189 21.09108 
L 616.238664 21.09108 
L 616.308722 21.69404 
L 616.370459 21.69404 
L 616.370459 21.99552 
L 616.755914 21.99552 
L 616.755914 22.297 
L 618.673792 22.297 
L 618.673792 22.59848 
L 618.806393 22.59848 
L 618.858199 23.20144 
L 619.257075 23.20144 
L 619.257075 23.50292 
L 619.47047 23.50292 
L 619.47047 23.8044 
L 619.600924 23.8044 
L 619.600924 24.10588 
L 620.184474 24.10588 
L 620.184474 24.40736 
L 620.512487 24.40736 
L 620.512487 24.70884 
L 622.336954 24.70884 
L 622.336954 25.01032 
L 624.220206 25.01032 
L 624.220206 25.3118 
L 624.412128 25.3118 
L 624.412128 25.61328 
L 625.129353 25.61328 
L 625.129353 25.91476 
L 625.349728 25.91476 
L 625.349728 26.21624 
L 625.679619 26.21624 
L 625.679619 26.51772 
L 626.521929 26.51772 
L 626.521929 26.8192 
L 626.986568 26.8192 
L 626.986568 27.12068 
L 627.183859 27.12068 
L 627.183859 27.42216 
L 627.312165 27.42216 
L 627.391886 28.02512 
L 627.912894 28.02512 
L 627.975437 28.62808 
L 628.105353 28.62808 
L 628.105353 28.92956 
L 628.592809 28.92956 
L 628.592809 29.23104 
L 628.799762 29.23104 
L 628.799762 29.53252 
L 629.285607 29.53252 
L 629.285607 29.834 
L 631.211538 29.834 
L 631.211538 30.13548 
L 632.140012 30.13548 
L 632.140012 30.43696 
L 632.87361 30.43696 
L 632.87361 30.73844 
L 633.585735 30.73844 
L 633.585735 31.03992 
L 633.822484 31.03992 
L 633.822484 31.3414 
L 634.606278 31.3414 
L 634.606278 31.64288 
L 635.415035 31.64288 
L 635.415035 31.94436 
L 635.692852 31.94436 
L 635.692852 32.24584 
L 636.170375 32.24584 
L 636.170375 32.54732 
L 636.878206 32.54732 
L 636.878206 32.8488 
L 637.108244 32.8488 
L 637.108244 33.15028 
L 637.275471 33.15028 
L 637.275471 33.45176 
L 637.978469 33.45176 
L 637.978469 33.75324 
L 638.11107 33.75324 
L 638.11107 34.05472 
L 639.046522 34.05472 
L 639.046522 34.3562 
L 639.459356 34.3562 
L 639.527535 34.95916 
L 639.8789 34.95916 
L 639.8789 35.26064 
L 641.142097 35.26064 
L 641.229066 35.8636 
L 642.928985 35.8636 
L 642.937843 36.46656 
L 643.707142 36.46656 
L 643.707142 36.76804 
L 645.038786 36.76804 
L 645.147229 37.371 
L 645.951154 37.371 
L 645.951154 37.67248 
L 647.693753 37.67248 
L 647.693753 37.97396 
L 647.912786 37.97396 
L 647.912786 38.27544 
L 649.508557 38.27544 
L 649.508557 38.57692 
L 651.294372 38.57692 
L 651.294372 38.8784 
L 651.741832 38.8784 
L 651.741832 39.17988 
L 651.874165 39.17988 
L 651.874165 39.48136 
L 652.238414 39.48136 
L 652.238414 39.78284 
L 652.874844 39.78284 
L 652.922891 40.3858 
L 653.478257 40.3858 
L 653.478257 40.68728 
L 653.619448 40.68728 
L 653.706416 41.29024 
L 653.775669 41.29024 
L 653.775669 41.59172 
L 655.776491 41.59172 
L 655.790985 42.19468 
L 656.707917 42.19468 
L 656.707917 42.49616 
L 657.314015 42.49616 
L 657.314015 42.79764 
L 657.986145 42.79764 
L 657.986145 43.09912 
L 659.310004 43.09912 
L 659.310004 43.4006 
L 661.785933 43.4006 
L 661.893302 44.00356 
L 661.908871 44.00356 
L 661.941081 44.60652 
L 662.037177 44.60652 
L 662.037177 44.908 
L 663.556448 44.908 
L 663.556448 45.20948 
L 663.937071 45.20948 
L 664.031556 45.81244 
L 664.292999 45.81244 
L 664.292999 46.11392 
L 666.195578 46.11392 
L 666.195578 46.4154 
L 666.441453 46.4154 
L 666.441453 46.71688 
L 667.22471 46.71688 
L 667.22471 47.01836 
L 667.532322 47.01836 
L 667.532322 47.31984 
L 667.688544 47.31984 
L 667.742228 47.9228 
L 667.924756 47.9228 
L 667.924756 48.22428 
L 668.163652 48.22428 
L 668.163652 48.52576 
L 668.291421 48.52576 
L 668.291421 48.82724 
L 669.23412 48.82724 
L 669.23412 49.12872 
L 669.600786 49.12872 
L 669.600786 49.4302 
L 670.293852 49.4302 
L 670.318547 50.03316 
L 670.509127 50.03316 
L 670.509127 50.33464 
L 670.705613 50.33464 
L 670.800634 51.23908 
L 671.040604 51.23908 
L 671.040604 51.54056 
L 671.574765 51.54056 
L 671.574765 51.84204 
L 671.889356 51.84204 
L 671.889356 52.14352 
L 672.120736 52.14352 
L 672.225957 52.74648 
L 672.662949 52.74648 
L 672.662949 53.04796 
L 672.881982 53.04796 
L 672.921172 53.65092 
L 673.047867 53.65092 
L 673.144499 54.55536 
L 673.281395 54.55536 
L 673.281395 54.85684 
L 673.624975 54.85684 
L 673.624975 55.15832 
L 673.935809 55.15832 
L 674.03083 55.76128 
L 674.077536 55.76128 
L 674.077536 56.06276 
L 674.632633 56.06276 
L 674.649276 56.66572 
L 674.82214 56.66572 
L 674.82214 56.9672 
L 674.942393 56.9672 
L 674.942393 57.26868 
L 675.079825 57.26868 
L 675.138878 57.87164 
L 675.488364 57.87164 
L 675.568891 58.4746 
L 675.80725 58.4746 
L 675.84644 59.07756 
L 676.019304 59.07756 
L 676.019304 59.37904 
L 676.499243 59.37904 
L 676.499243 59.68052 
L 676.631307 59.68052 
L 676.720424 60.28348 
L 676.813835 60.28348 
L 676.890603 60.88644 
L 677.035015 60.88644 
L 677.086015 61.79088 
L 677.489186 61.79088 
L 677.569175 62.39384 
L 677.615344 62.39384 
L 677.615344 62.69532 
L 677.929935 62.69532 
L 677.982546 63.29828 
L 678.194063 63.29828 
L 678.255263 64.20272 
L 678.451212 64.20272 
L 678.451212 64.5042 
L 678.675613 64.5042 
L 678.768487 65.10716 
L 678.868877 65.10716 
L 678.868877 65.40864 
L 679.08952 65.40864 
L 679.200111 66.91604 
L 679.283858 66.91604 
L 679.283858 67.21752 
L 679.444912 67.21752 
L 679.538323 68.12196 
L 679.56087 68.12196 
L 679.56087 68.42344 
L 679.705282 68.42344 
L 679.740177 69.32788 
L 679.983904 69.32788 
L 680.056915 69.93084 
L 680.290443 69.93084 
L 680.290443 70.23232 
L 680.405327 70.23232 
L 680.405327 70.5338 
L 680.685024 70.5338 
L 680.749445 71.73972 
L 680.812256 71.73972 
L 680.910499 72.64416 
L 680.996394 72.64416 
L 681.067257 73.24712 
L 681.188584 73.24712 
L 681.214353 74.15156 
L 681.308301 74.15156 
L 681.401175 75.056 
L 681.477407 75.056 
L 681.477407 75.35748 
L 681.604639 75.35748 
L 681.62665 75.96044 
L 681.855346 75.96044 
L 681.855346 76.26192 
L 681.984725 76.26192 
L 682.00942 76.86488 
L 682.201611 76.86488 
L 682.231137 77.46784 
L 682.420644 77.46784 
L 682.442654 78.0708 
L 682.539286 78.0708 
L 682.626792 78.67376 
L 682.680476 78.67376 
L 682.746508 79.27672 
L 682.904878 79.27672 
L 682.904878 79.5782 
L 683.029426 79.5782 
L 683.074521 80.48264 
L 683.328985 80.48264 
L 683.355827 81.38708 
L 683.497018 81.38708 
L 683.590966 81.99004 
L 683.747187 81.99004 
L 683.848114 82.89448 
L 683.933473 82.89448 
L 683.982862 84.1004 
L 684.060168 84.1004 
L 684.169684 84.70336 
L 684.263095 84.70336 
L 684.317317 85.6078 
L 684.40697 85.6078 
L 684.510044 86.51224 
L 684.683445 86.51224 
L 684.703845 87.1152 
L 684.816583 87.1152 
L 684.902478 88.01964 
L 685.015215 88.01964 
L 685.044742 88.92408 
L 685.202574 88.92408 
L 685.202574 89.22556 
L 685.333564 89.22556 
L 685.43986 90.13 
L 685.531123 90.13 
L 685.641713 91.93888 
L 685.664261 91.93888 
L 685.764651 93.1448 
L 685.814577 93.1448 
L 685.873094 94.04924 
L 686.289148 94.04924 
L 686.301496 94.95368 
L 686.45396 94.95368 
L 686.53556 95.85812 
L 686.697151 95.85812 
L 686.732045 96.46108 
L 686.828141 96.46108 
L 686.933362 98.26996 
L 686.961815 98.26996 
L 687.050931 99.47588 
L 687.176016 99.47588 
L 687.271575 101.28476 
L 687.324185 101.28476 
L 687.415986 102.49068 
L 687.473428 102.49068 
L 687.554492 103.6966 
L 687.601734 103.6966 
L 687.712324 104.90252 
L 687.750977 104.90252 
L 687.859957 106.40992 
L 687.895925 106.40992 
L 687.895925 106.7114 
L 688.052147 106.7114 
L 688.132674 107.31436 
L 688.226085 107.31436 
L 688.266348 107.91732 
L 688.367812 107.91732 
L 688.477328 109.42472 
L 688.529939 109.42472 
L 688.631403 110.63064 
L 688.731256 110.63064 
L 688.834867 111.83656 
L 688.935794 111.83656 
L 689.04531 113.04248 
L 689.105437 113.04248 
L 689.105437 113.34396 
L 689.226227 113.34396 
L 689.278838 114.54988 
L 689.370639 114.54988 
L 689.370639 114.85136 
L 689.48445 114.85136 
L 689.519345 116.05728 
L 689.641208 116.05728 
L 689.749651 117.86616 
L 689.759314 117.86616 
L 689.847894 118.7706 
L 689.879568 118.7706 
L 689.98801 120.57948 
L 690.017537 120.57948 
L 690.114169 122.68984 
L 690.279517 122.68984 
L 690.282738 123.2928 
L 690.411044 123.2928 
L 690.478687 124.19724 
L 690.534518 124.19724 
L 690.603235 124.8002 
L 690.663898 124.8002 
L 690.692888 126.3076 
L 690.912994 126.3076 
L 690.966142 128.11648 
L 691.037542 128.11648 
L 691.139006 129.92536 
L 691.212554 129.92536 
L 691.265164 131.13128 
L 691.345691 131.13128 
L 691.443934 132.3372 
L 691.47185 132.3372 
L 691.578145 134.74904 
L 691.585661 134.74904 
L 691.695714 136.8594 
L 691.717725 136.8594 
L 691.717725 137.16088 
L 691.927094 137.16088 
L 692.036074 138.06532 
L 692.075263 138.06532 
L 692.179411 138.96976 
L 692.194443 138.96976 
L 692.194443 139.27124 
L 692.315233 139.27124 
L 692.418307 140.17568 
L 692.459644 140.17568 
L 692.565403 141.68308 
L 692.770478 141.68308 
L 692.840268 142.28604 
L 692.890731 142.28604 
L 692.995416 144.09492 
L 693.040511 144.09492 
L 693.133922 144.99936 
L 693.224649 144.99936 
L 693.297123 146.50676 
L 693.509176 146.50676 
L 693.613324 147.4112 
L 693.689556 147.4112 
L 693.766862 148.9186 
L 693.86081 148.9186 
L 693.968179 149.82304 
L 693.982137 149.82304 
L 693.982137 150.12452 
L 694.129232 150.12452 
L 694.208149 151.9334 
L 694.273644 151.9334 
L 694.273644 152.23488 
L 694.397118 152.23488 
L 694.490529 153.13932 
L 694.532403 153.13932 
L 694.573203 153.74228 
L 694.646214 153.74228 
L 694.741236 155.24968 
L 694.789552 155.24968 
L 694.889942 156.15412 
L 694.931816 156.15412 
L 695.037037 157.05856 
L 695.042943 157.05856 
L 695.147627 159.4704 
L 695.221175 159.4704 
L 695.301702 161.27928 
L 695.33606 161.27928 
L 695.409071 161.88224 
L 695.454703 161.88224 
L 695.519124 162.78668 
L 695.582472 162.78668 
L 695.686083 163.38964 
L 695.733325 163.38964 
L 695.836936 164.59556 
L 695.924979 164.59556 
L 695.973832 165.19852 
L 696.055432 165.19852 
L 696.055432 165.5 
L 696.168706 165.5 
L 696.168706 165.80148 
L 696.293254 165.80148 
L 696.333518 166.40444 
L 696.418876 166.40444 
L 696.519803 167.30888 
L 696.533761 167.30888 
L 696.580467 168.21332 
L 696.650256 168.21332 
L 696.705551 169.11776 
L 696.818289 169.11776 
L 696.914921 170.62516 
L 696.984174 170.62516 
L 697.068459 171.22812 
L 697.117311 171.22812 
L 697.222533 172.13256 
L 697.25367 172.13256 
L 697.320239 173.037 
L 697.380902 173.037 
L 697.380902 173.33848 
L 697.589198 173.33848 
L 697.694957 174.5444 
L 697.749715 174.5444 
L 697.833463 176.65476 
L 697.883389 176.65476 
L 697.923116 177.5592 
L 698.01599 177.5592 
L 698.124969 178.76512 
L 698.140538 178.76512 
L 698.238244 179.66956 
L 698.25757 179.66956 
L 698.349908 180.574 
L 698.383192 180.574 
L 698.488414 182.0814 
L 698.49754 182.0814 
L 698.603298 183.5888 
L 698.65752 183.5888 
L 698.756836 185.0962 
L 698.776162 185.0962 
L 698.853468 185.69916 
L 698.891047 185.69916 
L 698.891047 186.00064 
L 699.134775 186.00064 
L 699.237849 186.6036 
L 699.25127 186.6036 
L 699.281334 187.20656 
L 699.44185 187.20656 
L 699.550293 188.111 
L 699.600756 188.111 
L 699.665178 189.31692 
L 699.817642 189.31692 
L 699.923937 190.22136 
L 700.052243 190.22136 
L 700.095191 191.1258 
L 700.178402 191.1258 
L 700.178402 191.42728 
L 700.309929 191.42728 
L 700.407634 192.6332 
L 700.513393 192.6332 
L 700.521982 193.23616 
L 700.668004 193.23616 
L 700.763563 193.83912 
L 700.795236 193.83912 
L 700.795236 194.1406 
L 700.911732 194.1406 
L 700.956827 194.74356 
L 701.100164 194.74356 
L 701.199481 195.34652 
L 701.249944 195.34652 
L 701.329934 196.55244 
L 701.385229 196.55244 
L 701.485082 197.1554 
L 701.512998 197.1554 
L 701.60963 197.75836 
L 701.694452 197.75836 
L 701.783031 198.6628 
L 701.824368 198.6628 
L 701.8802 199.56724 
L 701.949453 199.56724 
L 702.032127 200.47168 
L 702.069706 200.47168 
L 702.121243 201.37612 
L 702.225928 201.37612 
L 702.308602 202.28056 
L 702.394498 202.28056 
L 702.473951 202.88352 
L 702.516898 202.88352 
L 702.585078 204.6924 
L 702.656478 204.6924 
L 702.666678 205.29536 
L 702.805721 205.29536 
L 702.890542 206.1998 
L 702.917921 206.1998 
L 703.018311 207.40572 
L 703.038175 207.40572 
L 703.061259 208.00868 
L 703.318945 208.00868 
L 703.402156 209.51608 
L 703.438661 209.51608 
L 703.498788 210.11904 
L 703.637831 210.11904 
L 703.689368 211.02348 
L 703.78761 211.02348 
L 703.861695 211.62644 
L 703.9186 211.62644 
L 703.971748 212.2294 
L 704.036169 212.2294 
L 704.087707 212.83236 
L 704.150517 212.83236 
L 704.243928 214.33976 
L 704.297613 214.33976 
L 704.32016 214.94272 
L 704.45813 214.94272 
L 704.485509 216.7516 
L 704.575162 216.7516 
L 704.575162 217.05308 
L 704.794195 217.05308 
L 704.903711 217.65604 
L 704.995511 217.65604 
L 704.995511 217.95752 
L 705.209713 217.95752 
L 705.288092 219.16344 
L 705.357345 219.16344 
L 705.427672 220.36936 
L 705.479746 220.36936 
L 705.517862 221.2738 
L 705.917274 221.2738 
L 705.998875 222.47972 
L 706.11537 222.47972 
L 706.11537 222.7812 
L 706.240992 222.7812 
L 706.266224 223.68564 
L 706.368224 223.68564 
L 706.44714 224.59008 
L 706.480425 224.59008 
L 706.550214 225.49452 
L 706.611415 225.49452 
L 706.614099 226.09748 
L 706.744552 226.09748 
L 706.813269 227.3034 
L 706.869637 227.3034 
L 706.902922 227.90636 
L 707.011901 227.90636 
L 707.094575 228.50932 
L 707.141281 228.50932 
L 707.233618 229.11228 
L 707.321661 229.11228 
L 707.400577 230.3182 
L 707.444061 230.3182 
L 707.492377 231.22264 
L 707.63142 231.22264 
L 707.708726 232.42856 
L 707.811263 232.42856 
L 707.844548 233.03152 
L 707.987885 233.03152 
L 707.987885 233.333 
L 708.113507 233.333 
L 708.222487 235.14188 
L 708.248255 235.14188 
L 708.35294 235.74484 
L 708.380856 235.74484 
L 708.484467 236.95076 
L 708.525267 236.95076 
L 708.525267 237.25224 
L 708.695447 237.25224 
L 708.761479 237.8552 
L 708.866164 237.8552 
L 708.866164 238.15668 
L 709.048154 238.15668 
L 709.152302 239.3626 
L 709.167871 239.3626 
L 709.18505 239.96556 
L 709.29564 239.96556 
L 709.398177 240.56852 
L 709.442735 240.56852 
L 709.492125 241.17148 
L 709.721358 241.17148 
L 709.786316 242.07592 
L 709.858253 242.07592 
L 709.921601 242.67888 
L 710.036486 242.67888 
L 710.082654 243.28184 
L 710.148686 243.28184 
L 710.20076 243.8848 
L 710.260887 243.8848 
L 710.260887 244.18628 
L 710.44932 244.18628 
L 710.470793 244.78924 
L 710.763374 244.78924 
L 710.820279 245.69368 
L 710.876648 245.69368 
L 710.900806 246.29664 
L 711.04307 246.29664 
L 711.070449 246.8996 
L 711.156881 246.8996 
L 711.241166 248.10552 
L 711.352293 248.10552 
L 711.450535 249.61292 
L 711.749021 249.61292 
L 711.783916 250.51736 
L 711.947117 250.51736 
L 711.947117 250.81884 
L 712.329887 250.81884 
L 712.374982 252.02476 
L 712.452288 252.02476 
L 712.52852 252.62772 
L 712.595626 252.62772 
L 712.700847 253.83364 
L 712.795869 253.83364 
L 712.855459 254.73808 
L 712.966049 254.73808 
L 713.051407 255.64252 
L 713.142134 255.64252 
L 713.146429 256.24548 
L 713.303187 256.24548 
L 713.355798 257.14992 
L 713.44062 257.14992 
L 713.44062 257.4514 
L 713.580199 257.4514 
L 713.610263 258.05436 
L 713.80138 258.05436 
L 713.855064 258.65732 
L 714.071413 258.65732 
L 714.113286 259.26028 
L 714.19435 259.26028 
L 714.19435 259.56176 
L 714.326951 259.56176 
L 714.326951 259.86324 
L 714.442372 259.86324 
L 714.527731 260.4662 
L 714.571215 260.4662 
L 714.662479 261.67212 
L 714.769311 261.67212 
L 714.769311 261.9736 
L 715.053302 261.9736 
L 715.151545 262.57656 
L 715.566526 262.57656 
L 715.665842 263.78248 
L 715.816159 263.78248 
L 715.907959 264.38544 
L 715.991707 264.38544 
L 715.991707 264.68692 
L 716.173161 264.68692 
L 716.173161 264.9884 
L 716.373404 264.9884 
L 716.405078 265.59136 
L 716.6531 265.59136 
L 716.736311 266.79728 
L 716.827038 266.79728 
L 716.827038 267.09876 
L 717.159882 267.09876 
L 717.203366 268.30468 
L 717.295167 268.30468 
L 717.295167 268.60616 
L 717.478231 268.60616 
L 717.478231 268.90764 
L 717.699948 268.90764 
L 717.699948 269.20912 
L 717.985549 269.20912 
L 718.095066 269.81208 
L 718.344162 269.81208 
L 718.36832 270.41504 
L 719.114534 270.41504 
L 719.114534 270.71652 
L 719.346451 270.71652 
L 719.359336 271.31948 
L 719.509652 271.31948 
L 719.568705 271.92244 
L 719.862359 271.92244 
L 719.90477 272.82688 
L 720.327804 272.82688 
L 720.327804 273.12836 
L 720.470068 273.12836 
L 720.560795 274.0328 
L 720.619848 274.0328 
L 720.619848 274.33428 
L 720.837807 274.33428 
L 720.872165 275.23872 
L 720.96826 275.23872 
L 721.022481 275.84168 
L 721.09764 275.84168 
L 721.09764 276.14316 
L 721.69998 276.14316 
L 721.713401 276.74612 
L 721.852444 276.74612 
L 721.852444 277.0476 
L 722.296414 277.0476 
L 722.296414 277.34908 
L 722.934723 277.34908 
L 722.934723 277.65056 
L 724.037939 277.65056 
L 724.037939 277.95204 
L 724.203825 277.95204 
L 724.203825 278.25352 
L 724.675711 278.25352 
L 724.675711 278.555 
L 725.012313 278.555 
L 725.012313 278.85648 
L 725.342473 278.85648 
L 725.342473 279.15796 
L 726.143445 279.15796 
L 726.143445 279.45944 
L 726.939587 279.45944 
L 726.939587 279.76092 
L 727.753444 279.76092 
L 727.858665 280.36388 
L 728.169498 280.36388 
L 728.218888 280.96684 
L 728.389068 280.96684 
L 728.389068 281.26832 
L 729.3978 281.26832 
L 729.3978 281.5698 
L 730.359826 281.5698 
L 730.359826 281.87128 
L 730.642206 281.87128 
L 730.642206 282.17276 
L 732.301057 282.17276 
L 732.301057 282.47424 
L 735.127009 282.47424 
L 735.127009 282.77572 
L 735.539843 282.77572 
L 735.617686 283.68016 
L 735.861413 283.68016 
L 735.861413 283.98164 
L 736.23452 283.98164 
L 736.23452 284.28312 
L 736.788008 284.28312 
L 736.788008 284.5846 
L 737.251305 284.5846 
L 737.251305 284.88608 
L 738.157499 284.88608 
L 738.207963 285.48904 
L 738.341637 285.48904 
L 738.341637 285.79052 
L 739.236558 285.79052 
L 739.236558 286.092 
L 739.438411 286.092 
L 739.438411 286.39348 
L 739.719718 286.39348 
L 739.740118 286.99644 
L 739.921572 286.99644 
L 739.921572 287.29792 
L 740.20771 287.29792 
L 740.20771 287.5994 
L 741.208926 287.5994 
L 741.208926 287.90088 
L 741.331863 287.90088 
L 741.441917 288.50384 
L 741.443527 288.50384 
L 741.488622 289.1068 
L 741.819319 289.1068 
L 741.819319 289.40828 
L 742.430785 289.40828 
L 742.430785 289.70976 
L 742.71746 289.70976 
L 742.71746 290.01124 
L 742.903746 290.01124 
L 742.903746 290.31272 
L 743.201158 290.31272 
L 743.201158 290.6142 
L 743.525412 290.6142 
L 743.525412 290.91568 
L 743.716529 290.91568 
L 743.716529 291.21716 
L 744.142784 291.21716 
L 744.16211 291.82012 
L 744.279679 291.82012 
L 744.279679 292.1216 
L 744.498175 292.1216 
L 744.535217 292.72456 
L 744.623797 292.72456 
L 744.623797 293.02604 
L 745.127357 293.02604 
L 745.127357 293.32752 
L 745.735603 293.32752 
L 745.735603 293.629 
L 745.954099 293.629 
L 745.954099 293.93048 
L 746.450143 293.93048 
L 746.450143 294.23196 
L 746.619786 294.23196 
L 746.619786 294.53344 
L 746.785135 294.53344 
L 746.785135 294.83492 
L 746.914514 294.83492 
L 746.961757 295.43788 
L 747.47498 295.43788 
L 747.520075 296.04084 
L 747.662339 296.04084 
L 747.662339 296.34232 
L 748.364533 296.34232 
L 748.364533 296.6438 
L 748.733345 296.6438 
L 748.733345 296.94528 
L 748.853598 296.94528 
L 748.853598 297.24676 
L 749.145642 297.24676 
L 749.145642 297.54824 
L 749.652424 297.54824 
L 749.681413 298.1512 
L 750.298248 298.1512 
L 750.298248 298.45268 
L 750.556471 298.45268 
L 750.598881 299.35712 
L 751.158811 299.35712 
L 751.158811 299.6586 
L 751.27799 299.6586 
L 751.354222 300.26156 
L 751.451928 300.26156 
L 751.451928 300.56304 
L 751.697803 300.56304 
L 751.697803 300.86452 
L 751.995215 300.86452 
L 751.995215 301.166 
L 752.188479 301.166 
L 752.188479 301.46748 
L 752.957778 301.46748 
L 752.977105 302.07044 
L 753.709898 302.07044 
L 753.709898 302.37192 
L 753.973489 302.37192 
L 753.973489 302.6734 
L 754.187153 302.6734 
L 754.187153 302.97488 
L 754.403502 302.97488 
L 754.403502 303.27636 
L 754.570997 303.27636 
L 754.570997 303.57784 
L 754.721851 303.57784 
L 754.750304 304.48228 
L 754.878609 304.48228 
L 754.878609 304.78376 
L 755.093884 304.78376 
L 755.093884 305.08524 
L 755.408475 305.08524 
L 755.434781 305.6882 
L 756.098858 305.6882 
L 756.098858 305.98968 
L 756.440291 305.98968 
L 756.52726 306.59264 
L 756.645903 306.59264 
L 756.645903 306.89412 
L 757.715835 306.89412 
L 757.797436 307.49708 
L 759.295233 307.49708 
L 759.295233 307.79856 
L 760.09889 307.79856 
L 760.131101 308.40152 
L 760.211091 308.40152 
L 760.211091 308.703 
L 760.407576 308.703 
L 760.407576 309.00448 
L 760.826852 309.00448 
L 760.826852 309.30596 
L 760.997568 309.30596 
L 760.997568 309.60744 
L 761.109769 309.60744 
L 761.109769 309.90892 
L 761.53334 309.90892 
L 761.53334 310.2104 
L 762.9082 310.2104 
L 762.9082 310.51188 
L 763.137433 310.51188 
L 763.137433 310.81336 
L 763.439676 310.81336 
L 763.439676 311.11484 
L 763.798826 311.11484 
L 763.798826 311.41632 
L 764.710925 311.41632 
L 764.710925 311.7178 
L 764.88701 311.7178 
L 764.922979 312.32076 
L 765.143085 312.32076 
L 765.143085 312.62224 
L 766.9748 312.62224 
L 766.9748 312.92372 
L 767.649615 312.92372 
L 767.649615 313.2252 
L 768.466693 313.2252 
L 768.466693 313.52668 
L 770.152923 313.52668 
L 770.152923 313.82816 
L 771.033348 313.82816 
L 771.08918 314.43112 
L 772.362577 314.43112 
L 772.362577 314.7326 
L 772.663747 314.7326 
L 772.663747 315.03408 
L 774.32045 315.03408 
L 774.32045 315.33556 
L 777.921606 315.33556 
L 777.921606 315.63704 
L 779.631994 315.63704 
L 779.701247 316.24 
L 779.701247 316.24 
" clip-path="url(#p3577d2cd2f)" style="fill: none; stroke: #808080; stroke-width: 1.5; stroke-linecap: square"/>
   </g>
   <g id="line2d_29">
    <path d="M 623.755299 14.76 
L 623.755299 16.093982 
L 628.620456 16.093982 
L 628.620456 17.427965 
L 646.317282 17.427965 
L 646.317282 18.761947 
L 648.918565 18.761947 
L 648.918565 20.095929 
L 654.147166 20.095929 
L 654.147166 21.429912 
L 665.769323 21.429912 
L 665.769323 22.763894 
L 668.662917 22.763894 
L 668.662917 24.097876 
L 673.325416 24.097876 
L 673.325416 25.431858 
L 674.988025 25.431858 
L 674.988025 26.765841 
L 684.354359 26.765841 
L 684.354359 28.099823 
L 685.046889 28.099823 
L 685.046889 29.433805 
L 686.60535 29.433805 
L 686.60535 30.767788 
L 687.156153 30.767788 
L 687.156153 32.10177 
L 689.558534 32.10177 
L 689.558534 33.435752 
L 692.772088 33.435752 
L 692.772088 34.769735 
L 694.599509 34.769735 
L 694.599509 36.103717 
L 695.121322 36.103717 
L 695.121322 37.437699 
L 703.752715 37.437699 
L 703.752715 38.771681 
L 705.254271 38.771681 
L 705.254271 40.105664 
L 707.079007 40.105664 
L 707.079007 41.439646 
L 708.511846 41.439646 
L 708.511846 42.773628 
L 708.774363 42.773628 
L 708.774363 44.107611 
L 709.170555 44.107611 
L 709.170555 45.441593 
L 711.976107 45.441593 
L 711.976107 46.775575 
L 712.340624 46.775575 
L 712.340624 48.109558 
L 714.153013 48.109558 
L 714.153013 49.44354 
L 714.889564 49.44354 
L 714.984049 53.445487 
L 715.190197 53.445487 
L 715.190197 54.779469 
L 716.557005 54.779469 
L 716.557005 56.113451 
L 717.450852 56.113451 
L 717.450852 57.447434 
L 717.6264 57.447434 
L 717.638211 60.115398 
L 718.86168 60.115398 
L 718.942744 62.783363 
L 719.856454 62.783363 
L 719.856454 64.117345 
L 720.375046 64.117345 
L 720.378267 66.78531 
L 720.990807 66.78531 
L 721.101397 70.787257 
L 721.860496 70.787257 
L 721.860496 72.121239 
L 722.145561 72.121239 
L 722.145561 73.455221 
L 722.327015 73.455221 
L 722.327015 74.789204 
L 722.566984 74.789204 
L 722.673816 77.457168 
L 722.688311 77.457168 
L 722.770985 82.793097 
L 722.995387 82.793097 
L 722.995387 84.12708 
L 723.4764 84.12708 
L 723.482842 86.795044 
L 723.905339 86.795044 
L 723.993918 90.796991 
L 724.075519 90.796991 
L 724.075519 92.130973 
L 724.267172 92.130973 
L 724.33052 94.798938 
L 724.50231 94.798938 
L 724.543647 97.466903 
L 724.719196 97.466903 
L 724.719196 100.134867 
L 724.990839 100.134867 
L 724.990839 101.46885 
L 725.13203 101.46885 
L 725.13203 102.802832 
L 725.360725 102.802832 
L 725.460042 105.470796 
L 725.964676 105.470796 
L 725.964676 108.138761 
L 726.96106 108.138761 
L 727.065745 110.806726 
L 727.168283 110.806726 
L 727.168283 112.140708 
L 727.589169 112.140708 
L 727.589169 113.47469 
L 728.444363 113.47469 
L 728.444363 114.808673 
L 728.771838 114.808673 
L 728.790628 118.810619 
L 729.10683 118.810619 
L 729.10683 120.144602 
L 729.222788 120.144602 
L 729.222788 121.478584 
L 730.404384 121.478584 
L 730.404384 122.812566 
L 730.801112 122.812566 
L 730.801112 124.146549 
L 731.533369 124.146549 
L 731.533369 125.480531 
L 732.115309 125.480531 
L 732.115309 126.814513 
L 732.230731 126.814513 
L 732.230731 128.148496 
L 732.3585 128.148496 
L 732.463184 130.81646 
L 732.78046 130.81646 
L 732.78046 132.150442 
L 733.374747 132.150442 
L 733.374747 133.484425 
L 733.803686 133.484425 
L 733.81335 136.152389 
L 734.317447 136.152389 
L 734.385626 138.820354 
L 735.325105 138.820354 
L 735.417979 144.156283 
L 735.439453 144.156283 
L 735.482401 148.15823 
L 735.729886 148.15823 
L 735.766392 150.826195 
L 735.885034 150.826195 
L 735.92315 153.494159 
L 736.179762 153.494159 
L 736.179762 154.828142 
L 736.608701 154.828142 
L 736.608701 156.162124 
L 736.743986 156.162124 
L 736.743986 157.496106 
L 736.905577 157.496106 
L 737.006503 161.498053 
L 737.641591 161.498053 
L 737.641591 162.832035 
L 738.497322 162.832035 
L 738.507522 165.5 
L 738.612744 165.5 
L 738.70186 168.167965 
L 738.743197 168.167965 
L 738.743197 169.501947 
L 738.970282 169.501947 
L 738.970282 170.835929 
L 739.742265 170.835929 
L 739.742265 172.169912 
L 740.271058 172.169912 
L 740.271058 173.503894 
L 740.393995 173.503894 
L 740.452511 177.505841 
L 740.571154 177.505841 
L 740.614102 181.507788 
L 740.701607 181.507788 
L 740.701607 182.84177 
L 741.304484 182.84177 
L 741.304484 184.175752 
L 741.447285 184.175752 
L 741.447285 185.509735 
L 741.569686 185.509735 
L 741.593844 189.511681 
L 742.167194 189.511681 
L 742.167194 190.845664 
L 742.422732 190.845664 
L 742.422732 192.179646 
L 742.587007 192.179646 
L 742.644449 194.847611 
L 742.757187 194.847611 
L 742.757187 196.181593 
L 742.945619 196.181593 
L 743.050841 198.849558 
L 743.080368 198.849558 
L 743.080368 200.18354 
L 743.931804 200.18354 
L 743.943077 202.851504 
L 744.301153 202.851504 
L 744.387048 205.519469 
L 744.802566 205.519469 
L 744.802566 206.853451 
L 745.421012 206.853451 
L 745.439801 209.521416 
L 745.557907 209.521416 
L 745.575086 212.189381 
L 745.689434 212.189381 
L 745.763519 218.859292 
L 745.931014 218.859292 
L 745.995973 222.861239 
L 746.153268 222.861239 
L 746.153268 224.195221 
L 746.369617 224.195221 
L 746.369617 225.529204 
L 746.526912 225.529204 
L 746.54946 228.197168 
L 746.68206 228.197168 
L 746.739503 230.865133 
L 747.039599 230.865133 
L 747.117442 233.533097 
L 747.62476 233.533097 
L 747.712266 236.201062 
L 747.920025 236.201062 
L 747.920025 237.535044 
L 748.086984 237.535044 
L 748.149258 240.203009 
L 748.308701 240.203009 
L 748.308701 241.536991 
L 748.55887 241.536991 
L 748.631881 245.538938 
L 748.692008 245.538938 
L 748.756429 248.206903 
L 749.343201 248.206903 
L 749.343201 249.540885 
L 750.007815 249.540885 
L 750.007815 252.20885 
L 750.711082 252.20885 
L 750.799661 256.210796 
L 750.823283 256.210796 
L 750.823283 257.544779 
L 751.29678 257.544779 
L 751.29678 258.878761 
L 751.589897 258.878761 
L 751.641434 261.546726 
L 751.908783 261.546726 
L 752.010784 264.21469 
L 752.524007 264.21469 
L 752.524007 265.548673 
L 753.841962 265.548673 
L 753.932152 268.216637 
L 754.200037 268.216637 
L 754.248353 270.884602 
L 754.352501 270.884602 
L 754.352501 272.218584 
L 754.61985 272.218584 
L 754.61985 273.552566 
L 755.340296 273.552566 
L 755.404718 276.220531 
L 755.865331 276.220531 
L 755.865331 277.554513 
L 756.363523 277.554513 
L 756.363523 278.888496 
L 756.525113 278.888496 
L 756.525113 280.222478 
L 756.675966 280.222478 
L 756.675966 281.55646 
L 757.267033 281.55646 
L 757.267033 282.890442 
L 757.967079 282.890442 
L 757.998216 285.558407 
L 758.799725 285.558407 
L 758.799725 286.892389 
L 759.296844 286.892389 
L 759.296844 288.226372 
L 759.913142 288.226372 
L 759.913142 289.560354 
L 760.695325 289.560354 
L 760.695325 290.894336 
L 762.677893 290.894336 
L 762.677893 292.228319 
L 763.705951 292.228319 
L 763.705951 293.562301 
L 763.963637 293.562301 
L 763.963637 294.896283 
L 764.503166 294.896283 
L 764.503166 296.230265 
L 764.680862 296.230265 
L 764.680862 297.564248 
L 765.272465 297.564248 
L 765.272465 298.89823 
L 765.691204 298.89823 
L 765.691204 301.566195 
L 765.804478 301.566195 
L 765.804478 302.900177 
L 766.951179 302.900177 
L 766.951179 304.234159 
L 769.14097 304.234159 
L 769.14097 305.568142 
L 769.720226 305.568142 
L 769.720226 306.902124 
L 770.102996 306.902124 
L 770.102996 308.236106 
L 770.545893 308.236106 
L 770.545893 309.570088 
L 771.454772 309.570088 
L 771.454772 310.904071 
L 771.784931 310.904071 
L 771.791373 313.572035 
L 772.277755 313.572035 
L 772.277755 314.906018 
L 774.852464 314.906018 
L 774.852464 316.24 
L 774.852464 316.24 
" clip-path="url(#p3577d2cd2f)" style="fill: none; stroke: #0000ff; stroke-width: 1.5; stroke-linecap: square"/>
   </g>
   <g id="line2d_30">
    <path d="M 759.603338 316.24 
L 759.603338 14.76 
" clip-path="url(#p3577d2cd2f)" style="fill: none; stroke-dasharray: 11.1,4.8; stroke-dashoffset: 0; stroke: #ffa500; stroke-width: 3"/>
   </g>
   <g id="patch_63">
    <path d="M 474.6575 316.24 
L 474.6575 14.76 
" style="fill: none; stroke: #000000; stroke-width: 0.8; stroke-linejoin: miter; stroke-linecap: square"/>
   </g>
   <g id="patch_64">
    <path d="M 474.6575 316.24 
L 853.2 316.24 
" style="fill: none; stroke: #000000; stroke-width: 0.8; stroke-linejoin: miter; stroke-linecap: square"/>
   </g>
   <g id="legend_2">
    <g id="patch_65">
     <path d="M 481.6575 311.24 
L 686.927812 311.24 
Q 688.927812 311.24 688.927812 309.24 
L 688.927812 266.205625 
Q 688.927812 264.205625 686.927812 264.205625 
L 481.6575 264.205625 
Q 479.6575 264.205625 479.6575 266.205625 
L 479.6575 309.24 
Q 479.6575 311.24 481.6575 311.24 
z
" style="fill: #ffffff; opacity: 0.8; stroke: #000000; stroke-linejoin: miter"/>
    </g>
    <g id="patch_66">
     <path d="M 483.6575 275.804062 
L 503.6575 275.804062 
L 503.6575 268.804062 
L 483.6575 268.804062 
z
" style="fill: #ff0000; opacity: 0.8; stroke: #ff0000; stroke-linejoin: miter"/>
    </g>
    <g id="text_33">
     <!-- Less than WT Log Fluorescence -->
     <g transform="translate(511.6575 275.804062) scale(0.1 -0.1)">
      <defs>
       <path id="DejaVuSans-68" d="M 3513 2113 
L 3513 0 
L 2938 0 
L 2938 2094 
Q 2938 2591 2744 2837 
Q 2550 3084 2163 3084 
Q 1697 3084 1428 2787 
Q 1159 2491 1159 1978 
L 1159 0 
L 581 0 
L 581 4863 
L 1159 4863 
L 1159 2956 
Q 1366 3272 1645 3428 
Q 1925 3584 2291 3584 
Q 2894 3584 3203 3211 
Q 3513 2838 3513 2113 
z
" transform="scale(0.015625)"/>
       <path id="DejaVuSans-57" d="M 213 4666 
L 850 4666 
L 1831 722 
L 2809 4666 
L 3519 4666 
L 4500 722 
L 5478 4666 
L 6119 4666 
L 4947 0 
L 4153 0 
L 3169 4050 
L 2175 0 
L 1381 0 
L 213 4666 
z
" transform="scale(0.015625)"/>
       <path id="DejaVuSans-54" d="M -19 4666 
L 3928 4666 
L 3928 4134 
L 2272 4134 
L 2272 0 
L 1638 0 
L 1638 4134 
L -19 4134 
L -19 4666 
z
" transform="scale(0.015625)"/>
       <path id="DejaVuSans-67" d="M 2906 1791 
Q 2906 2416 2648 2759 
Q 2391 3103 1925 3103 
Q 1463 3103 1205 2759 
Q 947 2416 947 1791 
Q 947 1169 1205 825 
Q 1463 481 1925 481 
Q 2391 481 2648 825 
Q 2906 1169 2906 1791 
z
M 3481 434 
Q 3481 -459 3084 -895 
Q 2688 -1331 1869 -1331 
Q 1566 -1331 1297 -1286 
Q 1028 -1241 775 -1147 
L 775 -588 
Q 1028 -725 1275 -790 
Q 1522 -856 1778 -856 
Q 2344 -856 2625 -561 
Q 2906 -266 2906 331 
L 2906 616 
Q 2728 306 2450 153 
Q 2172 0 1784 0 
Q 1141 0 747 490 
Q 353 981 353 1791 
Q 353 2603 747 3093 
Q 1141 3584 1784 3584 
Q 2172 3584 2450 3431 
Q 2728 3278 2906 2969 
L 2906 3500 
L 3481 3500 
L 3481 434 
z
" transform="scale(0.015625)"/>
      </defs>
      <use xlink:href="#DejaVuSans-4c"/>
      <use xlink:href="#DejaVuSans-65" x="53.962891"/>
      <use xlink:href="#DejaVuSans-73" x="115.486328"/>
      <use xlink:href="#DejaVuSans-73" x="167.585938"/>
      <use xlink:href="#DejaVuSans-20" x="219.685547"/>
      <use xlink:href="#DejaVuSans-74" x="251.472656"/>
      <use xlink:href="#DejaVuSans-68" x="290.681641"/>
      <use xlink:href="#DejaVuSans-61" x="354.060547"/>
      <use xlink:href="#DejaVuSans-6e" x="415.339844"/>
      <use xlink:href="#DejaVuSans-20" x="478.71875"/>
      <use xlink:href="#DejaVuSans-57" x="510.505859"/>
      <use xlink:href="#DejaVuSans-54" x="609.382812"/>
      <use xlink:href="#DejaVuSans-20" x="670.466797"/>
      <use xlink:href="#DejaVuSans-4c" x="702.253906"/>
      <use xlink:href="#DejaVuSans-6f" x="756.216797"/>
      <use xlink:href="#DejaVuSans-67" x="817.398438"/>
      <use xlink:href="#DejaVuSans-20" x="880.875"/>
      <use xlink:href="#DejaVuSans-46" x="912.662109"/>
      <use xlink:href="#DejaVuSans-6c" x="970.181641"/>
      <use xlink:href="#DejaVuSans-75" x="997.964844"/>
      <use xlink:href="#DejaVuSans-6f" x="1061.34375"/>
      <use xlink:href="#DejaVuSans-72" x="1122.525391"/>
      <use xlink:href="#DejaVuSans-65" x="1161.388672"/>
      <use xlink:href="#DejaVuSans-73" x="1222.912109"/>
      <use xlink:href="#DejaVuSans-63" x="1275.011719"/>
      <use xlink:href="#DejaVuSans-65" x="1329.992188"/>
      <use xlink:href="#DejaVuSans-6e" x="1391.515625"/>
      <use xlink:href="#DejaVuSans-63" x="1454.894531"/>
      <use xlink:href="#DejaVuSans-65" x="1509.875"/>
     </g>
    </g>
    <g id="patch_67">
     <path d="M 483.6575 290.482188 
L 503.6575 290.482188 
L 503.6575 283.482188 
L 483.6575 283.482188 
z
" style="fill: #ffa500; opacity: 0.8; stroke: #ffa500; stroke-linejoin: miter"/>
    </g>
    <g id="text_34">
     <!-- Mean WT Log Fluorescence -->
     <g transform="translate(511.6575 290.482188) scale(0.1 -0.1)">
      <defs>
       <path id="DejaVuSans-4d" d="M 628 4666 
L 1569 4666 
L 2759 1491 
L 3956 4666 
L 4897 4666 
L 4897 0 
L 4281 0 
L 4281 4097 
L 3078 897 
L 2444 897 
L 1241 4097 
L 1241 0 
L 628 0 
L 628 4666 
z
" transform="scale(0.015625)"/>
      </defs>
      <use xlink:href="#DejaVuSans-4d"/>
      <use xlink:href="#DejaVuSans-65" x="86.279297"/>
      <use xlink:href="#DejaVuSans-61" x="147.802734"/>
      <use xlink:href="#DejaVuSans-6e" x="209.082031"/>
      <use xlink:href="#DejaVuSans-20" x="272.460938"/>
      <use xlink:href="#DejaVuSans-57" x="304.248047"/>
      <use xlink:href="#DejaVuSans-54" x="403.125"/>
      <use xlink:href="#DejaVuSans-20" x="464.208984"/>
      <use xlink:href="#DejaVuSans-4c" x="495.996094"/>
      <use xlink:href="#DejaVuSans-6f" x="549.958984"/>
      <use xlink:href="#DejaVuSans-67" x="611.140625"/>
      <use xlink:href="#DejaVuSans-20" x="674.617188"/>
      <use xlink:href="#DejaVuSans-46" x="706.404297"/>
      <use xlink:href="#DejaVuSans-6c" x="763.923828"/>
      <use xlink:href="#DejaVuSans-75" x="791.707031"/>
      <use xlink:href="#DejaVuSans-6f" x="855.085938"/>
      <use xlink:href="#DejaVuSans-72" x="916.267578"/>
      <use xlink:href="#DejaVuSans-65" x="955.130859"/>
      <use xlink:href="#DejaVuSans-73" x="1016.654297"/>
      <use xlink:href="#DejaVuSans-63" x="1068.753906"/>
      <use xlink:href="#DejaVuSans-65" x="1123.734375"/>
      <use xlink:href="#DejaVuSans-6e" x="1185.257812"/>
      <use xlink:href="#DejaVuSans-63" x="1248.636719"/>
      <use xlink:href="#DejaVuSans-65" x="1303.617188"/>
     </g>
    </g>
    <g id="patch_68">
     <path d="M 483.6575 305.160313 
L 503.6575 305.160313 
L 503.6575 298.160313 
L 483.6575 298.160313 
z
" style="fill: #008000; opacity: 0.8; stroke: #008000; stroke-linejoin: miter"/>
    </g>
    <g id="text_35">
     <!-- Greater than WT Log Fluorescence -->
     <g transform="translate(511.6575 305.160313) scale(0.1 -0.1)">
      <defs>
       <path id="DejaVuSans-47" d="M 3809 666 
L 3809 1919 
L 2778 1919 
L 2778 2438 
L 4434 2438 
L 4434 434 
Q 4069 175 3628 42 
Q 3188 -91 2688 -91 
Q 1594 -91 976 548 
Q 359 1188 359 2328 
Q 359 3472 976 4111 
Q 1594 4750 2688 4750 
Q 3144 4750 3555 4637 
Q 3966 4525 4313 4306 
L 4313 3634 
Q 3963 3931 3569 4081 
Q 3175 4231 2741 4231 
Q 1884 4231 1454 3753 
Q 1025 3275 1025 2328 
Q 1025 1384 1454 906 
Q 1884 428 2741 428 
Q 3075 428 3337 486 
Q 3600 544 3809 666 
z
" transform="scale(0.015625)"/>
      </defs>
      <use xlink:href="#DejaVuSans-47"/>
      <use xlink:href="#DejaVuSans-72" x="77.490234"/>
      <use xlink:href="#DejaVuSans-65" x="116.353516"/>
      <use xlink:href="#DejaVuSans-61" x="177.876953"/>
      <use xlink:href="#DejaVuSans-74" x="239.15625"/>
      <use xlink:href="#DejaVuSans-65" x="278.365234"/>
      <use xlink:href="#DejaVuSans-72" x="339.888672"/>
      <use xlink:href="#DejaVuSans-20" x="381.001953"/>
      <use xlink:href="#DejaVuSans-74" x="412.789062"/>
      <use xlink:href="#DejaVuSans-68" x="451.998047"/>
      <use xlink:href="#DejaVuSans-61" x="515.376953"/>
      <use xlink:href="#DejaVuSans-6e" x="576.65625"/>
      <use xlink:href="#DejaVuSans-20" x="640.035156"/>
      <use xlink:href="#DejaVuSans-57" x="671.822266"/>
      <use xlink:href="#DejaVuSans-54" x="770.699219"/>
      <use xlink:href="#DejaVuSans-20" x="831.783203"/>
      <use xlink:href="#DejaVuSans-4c" x="863.570312"/>
      <use xlink:href="#DejaVuSans-6f" x="917.533203"/>
      <use xlink:href="#DejaVuSans-67" x="978.714844"/>
      <use xlink:href="#DejaVuSans-20" x="1042.191406"/>
      <use xlink:href="#DejaVuSans-46" x="1073.978516"/>
      <use xlink:href="#DejaVuSans-6c" x="1131.498047"/>
      <use xlink:href="#DejaVuSans-75" x="1159.28125"/>
      <use xlink:href="#DejaVuSans-6f" x="1222.660156"/>
      <use xlink:href="#DejaVuSans-72" x="1283.841797"/>
      <use xlink:href="#DejaVuSans-65" x="1322.705078"/>
      <use xlink:href="#DejaVuSans-73" x="1384.228516"/>
      <use xlink:href="#DejaVuSans-63" x="1436.328125"/>
      <use xlink:href="#DejaVuSans-65" x="1491.308594"/>
      <use xlink:href="#DejaVuSans-6e" x="1552.832031"/>
      <use xlink:href="#DejaVuSans-63" x="1616.210938"/>
      <use xlink:href="#DejaVuSans-65" x="1671.191406"/>
     </g>
    </g>
   </g>
  </g>
 </g>
 <defs>
  <clipPath id="pdd87daac07">
   <rect x="46.46" y="14.76" width="378.5425" height="301.48"/>
  </clipPath>
  <clipPath id="p3577d2cd2f">
   <rect x="474.6575" y="14.76" width="378.5425" height="301.48"/>
  </clipPath>
 </defs>
</svg>
