<?xml version="1.0" encoding="utf-8" standalone="no"?>
<!DOCTYPE svg PUBLIC "-//W3C//DTD SVG 1.1//EN"
  "http://www.w3.org/Graphics/SVG/1.1/DTD/svg11.dtd">
<svg xmlns:xlink="http://www.w3.org/1999/xlink" width="864pt" height="432pt" viewBox="0 0 864 432" xmlns="http://www.w3.org/2000/svg" version="1.1">
 <metadata>
  <rdf:RDF xmlns:dc="http://purl.org/dc/elements/1.1/" xmlns:cc="http://creativecommons.org/ns#" xmlns:rdf="http://www.w3.org/1999/02/22-rdf-syntax-ns#">
   <cc:Work>
    <dc:type rdf:resource="http://purl.org/dc/dcmitype/StillImage"/>
    <dc:date>2025-03-26T12:58:08.574669</dc:date>
    <dc:format>image/svg+xml</dc:format>
    <dc:creator>
     <cc:Agent>
      <dc:title>Matplotlib v3.8.0, https://matplotlib.org/</dc:title>
     </cc:Agent>
    </dc:creator>
   </cc:Work>
  </rdf:RDF>
 </metadata>
 <defs>
  <style type="text/css">*{stroke-linejoin: round; stroke-linecap: butt}</style>
 </defs>
 <g id="figure_1">
  <g id="patch_1">
   <path d="M 0 432 
L 864 432 
L 864 0 
L 0 0 
z
" style="fill: #ffffff"/>
  </g>
  <g id="axes_1">
   <g id="patch_2">
    <path d="M 54.92 389.32 
L 425.461253 389.32 
L 425.461253 14.76 
L 54.92 14.76 
z
" style="fill: #ffffff"/>
   </g>
   <g id="patch_3">
    <path d="M 71.762784 389.32 
L 71.762784 14.76 
L 237.161125 14.76 
L 237.161125 389.32 
z
" clip-path="url(#p18159a5869)" style="fill: #ff0000; opacity: 0.1; stroke: #ff0000; stroke-linejoin: miter"/>
   </g>
   <g id="patch_4">
    <path d="M 237.161125 389.32 
L 237.161125 14.76 
L 391.269196 14.76 
L 391.269196 389.32 
z
" clip-path="url(#p18159a5869)" style="fill: #008000; opacity: 0.1; stroke: #008000; stroke-linejoin: miter"/>
   </g>
   <g id="patch_5">
    <path d="M 72.809045 389.32 
L 84.571815 389.32 
L 84.571815 362.270633 
L 72.809045 362.270633 
z
" clip-path="url(#p18159a5869)" style="fill: #808080; fill-opacity: 0.4; stroke: #000000; stroke-linejoin: miter"/>
   </g>
   <g id="patch_6">
    <path d="M 84.571815 389.32 
L 96.334585 389.32 
L 96.334585 118.826328 
L 84.571815 118.826328 
z
" clip-path="url(#p18159a5869)" style="fill: #808080; fill-opacity: 0.4; stroke: #000000; stroke-linejoin: miter"/>
   </g>
   <g id="patch_7">
    <path d="M 96.334585 389.32 
L 108.097354 389.32 
L 108.097354 118.826328 
L 96.334585 118.826328 
z
" clip-path="url(#p18159a5869)" style="fill: #808080; fill-opacity: 0.4; stroke: #000000; stroke-linejoin: miter"/>
   </g>
   <g id="patch_8">
    <path d="M 108.097354 389.32 
L 119.860124 389.32 
L 119.860124 199.97443 
L 108.097354 199.97443 
z
" clip-path="url(#p18159a5869)" style="fill: #808080; fill-opacity: 0.4; stroke: #000000; stroke-linejoin: miter"/>
   </g>
   <g id="patch_9">
    <path d="M 119.860124 389.32 
L 131.622893 389.32 
L 131.622893 227.023797 
L 119.860124 227.023797 
z
" clip-path="url(#p18159a5869)" style="fill: #808080; fill-opacity: 0.4; stroke: #000000; stroke-linejoin: miter"/>
   </g>
   <g id="patch_10">
    <path d="M 131.622893 389.32 
L 143.385663 389.32 
L 143.385663 118.826328 
L 131.622893 118.826328 
z
" clip-path="url(#p18159a5869)" style="fill: #808080; fill-opacity: 0.4; stroke: #000000; stroke-linejoin: miter"/>
   </g>
   <g id="patch_11">
    <path d="M 143.385663 389.32 
L 155.148433 389.32 
L 155.148433 335.221266 
L 143.385663 335.221266 
z
" clip-path="url(#p18159a5869)" style="fill: #808080; fill-opacity: 0.4; stroke: #000000; stroke-linejoin: miter"/>
   </g>
   <g id="patch_12">
    <path d="M 155.148433 389.32 
L 166.911202 389.32 
L 166.911202 199.97443 
L 155.148433 199.97443 
z
" clip-path="url(#p18159a5869)" style="fill: #808080; fill-opacity: 0.4; stroke: #000000; stroke-linejoin: miter"/>
   </g>
   <g id="patch_13">
    <path d="M 166.911202 389.32 
L 178.673972 389.32 
L 178.673972 227.023797 
L 166.911202 227.023797 
z
" clip-path="url(#p18159a5869)" style="fill: #808080; fill-opacity: 0.4; stroke: #000000; stroke-linejoin: miter"/>
   </g>
   <g id="patch_14">
    <path d="M 178.673972 389.32 
L 190.436742 389.32 
L 190.436742 281.122531 
L 178.673972 281.122531 
z
" clip-path="url(#p18159a5869)" style="fill: #808080; fill-opacity: 0.4; stroke: #000000; stroke-linejoin: miter"/>
   </g>
   <g id="patch_15">
    <path d="M 190.436742 389.32 
L 202.199511 389.32 
L 202.199511 308.171898 
L 190.436742 308.171898 
z
" clip-path="url(#p18159a5869)" style="fill: #808080; fill-opacity: 0.4; stroke: #000000; stroke-linejoin: miter"/>
   </g>
   <g id="patch_16">
    <path d="M 202.199511 389.32 
L 213.962281 389.32 
L 213.962281 335.221266 
L 202.199511 335.221266 
z
" clip-path="url(#p18159a5869)" style="fill: #808080; fill-opacity: 0.4; stroke: #000000; stroke-linejoin: miter"/>
   </g>
   <g id="patch_17">
    <path d="M 213.962281 389.32 
L 225.72505 389.32 
L 225.72505 227.023797 
L 213.962281 227.023797 
z
" clip-path="url(#p18159a5869)" style="fill: #808080; fill-opacity: 0.4; stroke: #000000; stroke-linejoin: miter"/>
   </g>
   <g id="patch_18">
    <path d="M 225.72505 389.32 
L 237.48782 389.32 
L 237.48782 281.122531 
L 225.72505 281.122531 
z
" clip-path="url(#p18159a5869)" style="fill: #808080; fill-opacity: 0.4; stroke: #000000; stroke-linejoin: miter"/>
   </g>
   <g id="patch_19">
    <path d="M 237.48782 389.32 
L 249.25059 389.32 
L 249.25059 281.122531 
L 237.48782 281.122531 
z
" clip-path="url(#p18159a5869)" style="fill: #808080; fill-opacity: 0.4; stroke: #000000; stroke-linejoin: miter"/>
   </g>
   <g id="patch_20">
    <path d="M 249.25059 389.32 
L 261.013359 389.32 
L 261.013359 362.270633 
L 249.25059 362.270633 
z
" clip-path="url(#p18159a5869)" style="fill: #808080; fill-opacity: 0.4; stroke: #000000; stroke-linejoin: miter"/>
   </g>
   <g id="patch_21">
    <path d="M 261.013359 389.32 
L 272.776129 389.32 
L 272.776129 308.171898 
L 261.013359 308.171898 
z
" clip-path="url(#p18159a5869)" style="fill: #808080; fill-opacity: 0.4; stroke: #000000; stroke-linejoin: miter"/>
   </g>
   <g id="patch_22">
    <path d="M 272.776129 389.32 
L 284.538898 389.32 
L 284.538898 281.122531 
L 272.776129 281.122531 
z
" clip-path="url(#p18159a5869)" style="fill: #808080; fill-opacity: 0.4; stroke: #000000; stroke-linejoin: miter"/>
   </g>
   <g id="patch_23">
    <path d="M 284.538898 389.32 
L 296.301668 389.32 
L 296.301668 335.221266 
L 284.538898 335.221266 
z
" clip-path="url(#p18159a5869)" style="fill: #808080; fill-opacity: 0.4; stroke: #000000; stroke-linejoin: miter"/>
   </g>
   <g id="patch_24">
    <path d="M 296.301668 389.32 
L 308.064438 389.32 
L 308.064438 389.32 
L 296.301668 389.32 
z
" clip-path="url(#p18159a5869)" style="fill: #808080; fill-opacity: 0.4; stroke: #000000; stroke-linejoin: miter"/>
   </g>
   <g id="patch_25">
    <path d="M 308.064438 389.32 
L 319.827207 389.32 
L 319.827207 308.171898 
L 308.064438 308.171898 
z
" clip-path="url(#p18159a5869)" style="fill: #808080; fill-opacity: 0.4; stroke: #000000; stroke-linejoin: miter"/>
   </g>
   <g id="patch_26">
    <path d="M 319.827207 389.32 
L 331.589977 389.32 
L 331.589977 362.270633 
L 319.827207 362.270633 
z
" clip-path="url(#p18159a5869)" style="fill: #808080; fill-opacity: 0.4; stroke: #000000; stroke-linejoin: miter"/>
   </g>
   <g id="patch_27">
    <path d="M 331.589977 389.32 
L 343.352747 389.32 
L 343.352747 308.171898 
L 331.589977 308.171898 
z
" clip-path="url(#p18159a5869)" style="fill: #808080; fill-opacity: 0.4; stroke: #000000; stroke-linejoin: miter"/>
   </g>
   <g id="patch_28">
    <path d="M 343.352747 389.32 
L 355.115516 389.32 
L 355.115516 389.32 
L 343.352747 389.32 
z
" clip-path="url(#p18159a5869)" style="fill: #808080; fill-opacity: 0.4; stroke: #000000; stroke-linejoin: miter"/>
   </g>
   <g id="patch_29">
    <path d="M 355.115516 389.32 
L 366.878286 389.32 
L 366.878286 362.270633 
L 355.115516 362.270633 
z
" clip-path="url(#p18159a5869)" style="fill: #808080; fill-opacity: 0.4; stroke: #000000; stroke-linejoin: miter"/>
   </g>
   <g id="patch_30">
    <path d="M 72.779652 389.32 
L 85.478559 389.32 
L 85.478559 339.209314 
L 72.779652 339.209314 
z
" clip-path="url(#p18159a5869)" style="fill: #ffa500; fill-opacity: 0.6; stroke: #000000; stroke-linejoin: miter"/>
   </g>
   <g id="patch_31">
    <path d="M 85.478559 389.32 
L 98.177466 389.32 
L 98.177466 314.15397 
L 85.478559 314.15397 
z
" clip-path="url(#p18159a5869)" style="fill: #ffa500; fill-opacity: 0.6; stroke: #000000; stroke-linejoin: miter"/>
   </g>
   <g id="patch_32">
    <path d="M 98.177466 389.32 
L 110.876373 389.32 
L 110.876373 213.932598 
L 98.177466 213.932598 
z
" clip-path="url(#p18159a5869)" style="fill: #ffa500; fill-opacity: 0.6; stroke: #000000; stroke-linejoin: miter"/>
   </g>
   <g id="patch_33">
    <path d="M 110.876373 389.32 
L 123.57528 389.32 
L 123.57528 188.877254 
L 110.876373 188.877254 
z
" clip-path="url(#p18159a5869)" style="fill: #ffa500; fill-opacity: 0.6; stroke: #000000; stroke-linejoin: miter"/>
   </g>
   <g id="patch_34">
    <path d="M 123.57528 389.32 
L 136.274187 389.32 
L 136.274187 188.877254 
L 123.57528 188.877254 
z
" clip-path="url(#p18159a5869)" style="fill: #ffa500; fill-opacity: 0.6; stroke: #000000; stroke-linejoin: miter"/>
   </g>
   <g id="patch_35">
    <path d="M 136.274187 389.32 
L 148.973094 389.32 
L 148.973094 264.043284 
L 136.274187 264.043284 
z
" clip-path="url(#p18159a5869)" style="fill: #ffa500; fill-opacity: 0.6; stroke: #000000; stroke-linejoin: miter"/>
   </g>
   <g id="patch_36">
    <path d="M 148.973094 389.32 
L 161.672001 389.32 
L 161.672001 289.098627 
L 148.973094 289.098627 
z
" clip-path="url(#p18159a5869)" style="fill: #ffa500; fill-opacity: 0.6; stroke: #000000; stroke-linejoin: miter"/>
   </g>
   <g id="patch_37">
    <path d="M 161.672001 389.32 
L 174.370908 389.32 
L 174.370908 289.098627 
L 161.672001 289.098627 
z
" clip-path="url(#p18159a5869)" style="fill: #ffa500; fill-opacity: 0.6; stroke: #000000; stroke-linejoin: miter"/>
   </g>
   <g id="patch_38">
    <path d="M 174.370908 389.32 
L 187.069815 389.32 
L 187.069815 289.098627 
L 174.370908 289.098627 
z
" clip-path="url(#p18159a5869)" style="fill: #ffa500; fill-opacity: 0.6; stroke: #000000; stroke-linejoin: miter"/>
   </g>
   <g id="patch_39">
    <path d="M 187.069815 389.32 
L 199.768722 389.32 
L 199.768722 163.821911 
L 187.069815 163.821911 
z
" clip-path="url(#p18159a5869)" style="fill: #ffa500; fill-opacity: 0.6; stroke: #000000; stroke-linejoin: miter"/>
   </g>
   <g id="patch_40">
    <path d="M 199.768722 389.32 
L 212.467629 389.32 
L 212.467629 314.15397 
L 199.768722 314.15397 
z
" clip-path="url(#p18159a5869)" style="fill: #ffa500; fill-opacity: 0.6; stroke: #000000; stroke-linejoin: miter"/>
   </g>
   <g id="patch_41">
    <path d="M 212.467629 389.32 
L 225.166537 389.32 
L 225.166537 314.15397 
L 212.467629 314.15397 
z
" clip-path="url(#p18159a5869)" style="fill: #ffa500; fill-opacity: 0.6; stroke: #000000; stroke-linejoin: miter"/>
   </g>
   <g id="patch_42">
    <path d="M 225.166537 389.32 
L 237.865444 389.32 
L 237.865444 238.987941 
L 225.166537 238.987941 
z
" clip-path="url(#p18159a5869)" style="fill: #ffa500; fill-opacity: 0.6; stroke: #000000; stroke-linejoin: miter"/>
   </g>
   <g id="patch_43">
    <path d="M 237.865444 389.32 
L 250.564351 389.32 
L 250.564351 289.098627 
L 237.865444 289.098627 
z
" clip-path="url(#p18159a5869)" style="fill: #ffa500; fill-opacity: 0.6; stroke: #000000; stroke-linejoin: miter"/>
   </g>
   <g id="patch_44">
    <path d="M 250.564351 389.32 
L 263.263258 389.32 
L 263.263258 314.15397 
L 250.564351 314.15397 
z
" clip-path="url(#p18159a5869)" style="fill: #ffa500; fill-opacity: 0.6; stroke: #000000; stroke-linejoin: miter"/>
   </g>
   <g id="patch_45">
    <path d="M 263.263258 389.32 
L 275.962165 389.32 
L 275.962165 289.098627 
L 263.263258 289.098627 
z
" clip-path="url(#p18159a5869)" style="fill: #ffa500; fill-opacity: 0.6; stroke: #000000; stroke-linejoin: miter"/>
   </g>
   <g id="patch_46">
    <path d="M 275.962165 389.32 
L 288.661072 389.32 
L 288.661072 289.098627 
L 275.962165 289.098627 
z
" clip-path="url(#p18159a5869)" style="fill: #ffa500; fill-opacity: 0.6; stroke: #000000; stroke-linejoin: miter"/>
   </g>
   <g id="patch_47">
    <path d="M 288.661072 389.32 
L 301.359979 389.32 
L 301.359979 289.098627 
L 288.661072 289.098627 
z
" clip-path="url(#p18159a5869)" style="fill: #ffa500; fill-opacity: 0.6; stroke: #000000; stroke-linejoin: miter"/>
   </g>
   <g id="patch_48">
    <path d="M 301.359979 389.32 
L 314.058886 389.32 
L 314.058886 238.987941 
L 301.359979 238.987941 
z
" clip-path="url(#p18159a5869)" style="fill: #ffa500; fill-opacity: 0.6; stroke: #000000; stroke-linejoin: miter"/>
   </g>
   <g id="patch_49">
    <path d="M 314.058886 389.32 
L 326.757793 389.32 
L 326.757793 364.264657 
L 314.058886 364.264657 
z
" clip-path="url(#p18159a5869)" style="fill: #ffa500; fill-opacity: 0.6; stroke: #000000; stroke-linejoin: miter"/>
   </g>
   <g id="patch_50">
    <path d="M 326.757793 389.32 
L 339.4567 389.32 
L 339.4567 314.15397 
L 326.757793 314.15397 
z
" clip-path="url(#p18159a5869)" style="fill: #ffa500; fill-opacity: 0.6; stroke: #000000; stroke-linejoin: miter"/>
   </g>
   <g id="patch_51">
    <path d="M 339.4567 389.32 
L 352.155607 389.32 
L 352.155607 314.15397 
L 339.4567 314.15397 
z
" clip-path="url(#p18159a5869)" style="fill: #ffa500; fill-opacity: 0.6; stroke: #000000; stroke-linejoin: miter"/>
   </g>
   <g id="patch_52">
    <path d="M 352.155607 389.32 
L 364.854514 389.32 
L 364.854514 364.264657 
L 352.155607 364.264657 
z
" clip-path="url(#p18159a5869)" style="fill: #ffa500; fill-opacity: 0.6; stroke: #000000; stroke-linejoin: miter"/>
   </g>
   <g id="patch_53">
    <path d="M 364.854514 389.32 
L 377.553421 389.32 
L 377.553421 389.32 
L 364.854514 389.32 
z
" clip-path="url(#p18159a5869)" style="fill: #ffa500; fill-opacity: 0.6; stroke: #000000; stroke-linejoin: miter"/>
   </g>
   <g id="patch_54">
    <path d="M 377.553421 389.32 
L 390.252328 389.32 
L 390.252328 364.264657 
L 377.553421 364.264657 
z
" clip-path="url(#p18159a5869)" style="fill: #ffa500; fill-opacity: 0.6; stroke: #000000; stroke-linejoin: miter"/>
   </g>
   <g id="patch_55">
    <path d="M 74.141768 389.32 
L 87.520836 389.32 
L 87.520836 365.538413 
L 74.141768 365.538413 
z
" clip-path="url(#p18159a5869)" style="fill: #0000ff; fill-opacity: 0.6; stroke: #000000; stroke-linejoin: miter"/>
   </g>
   <g id="patch_56">
    <path d="M 87.520836 389.32 
L 100.899904 389.32 
L 100.899904 317.975238 
L 87.520836 317.975238 
z
" clip-path="url(#p18159a5869)" style="fill: #0000ff; fill-opacity: 0.6; stroke: #000000; stroke-linejoin: miter"/>
   </g>
   <g id="patch_57">
    <path d="M 100.899904 389.32 
L 114.278972 389.32 
L 114.278972 199.067302 
L 100.899904 199.067302 
z
" clip-path="url(#p18159a5869)" style="fill: #0000ff; fill-opacity: 0.6; stroke: #000000; stroke-linejoin: miter"/>
   </g>
   <g id="patch_58">
    <path d="M 114.278972 389.32 
L 127.65804 389.32 
L 127.65804 199.067302 
L 114.278972 199.067302 
z
" clip-path="url(#p18159a5869)" style="fill: #0000ff; fill-opacity: 0.6; stroke: #000000; stroke-linejoin: miter"/>
   </g>
   <g id="patch_59">
    <path d="M 127.65804 389.32 
L 141.037108 389.32 
L 141.037108 32.59619 
L 127.65804 32.59619 
z
" clip-path="url(#p18159a5869)" style="fill: #0000ff; fill-opacity: 0.6; stroke: #000000; stroke-linejoin: miter"/>
   </g>
   <g id="patch_60">
    <path d="M 141.037108 389.32 
L 154.416176 389.32 
L 154.416176 199.067302 
L 141.037108 199.067302 
z
" clip-path="url(#p18159a5869)" style="fill: #0000ff; fill-opacity: 0.6; stroke: #000000; stroke-linejoin: miter"/>
   </g>
   <g id="patch_61">
    <path d="M 154.416176 389.32 
L 167.795244 389.32 
L 167.795244 294.193651 
L 154.416176 294.193651 
z
" clip-path="url(#p18159a5869)" style="fill: #0000ff; fill-opacity: 0.6; stroke: #000000; stroke-linejoin: miter"/>
   </g>
   <g id="patch_62">
    <path d="M 167.795244 389.32 
L 181.174312 389.32 
L 181.174312 365.538413 
L 167.795244 365.538413 
z
" clip-path="url(#p18159a5869)" style="fill: #0000ff; fill-opacity: 0.6; stroke: #000000; stroke-linejoin: miter"/>
   </g>
   <g id="patch_63">
    <path d="M 181.174312 389.32 
L 194.55338 389.32 
L 194.55338 294.193651 
L 181.174312 294.193651 
z
" clip-path="url(#p18159a5869)" style="fill: #0000ff; fill-opacity: 0.6; stroke: #000000; stroke-linejoin: miter"/>
   </g>
   <g id="patch_64">
    <path d="M 194.55338 389.32 
L 207.932448 389.32 
L 207.932448 294.193651 
L 194.55338 294.193651 
z
" clip-path="url(#p18159a5869)" style="fill: #0000ff; fill-opacity: 0.6; stroke: #000000; stroke-linejoin: miter"/>
   </g>
   <g id="patch_65">
    <path d="M 207.932448 389.32 
L 221.311516 389.32 
L 221.311516 294.193651 
L 207.932448 294.193651 
z
" clip-path="url(#p18159a5869)" style="fill: #0000ff; fill-opacity: 0.6; stroke: #000000; stroke-linejoin: miter"/>
   </g>
   <g id="patch_66">
    <path d="M 221.311516 389.32 
L 234.690584 389.32 
L 234.690584 270.412063 
L 221.311516 270.412063 
z
" clip-path="url(#p18159a5869)" style="fill: #0000ff; fill-opacity: 0.6; stroke: #000000; stroke-linejoin: miter"/>
   </g>
   <g id="patch_67">
    <path d="M 234.690584 389.32 
L 248.069652 389.32 
L 248.069652 389.32 
L 234.690584 389.32 
z
" clip-path="url(#p18159a5869)" style="fill: #0000ff; fill-opacity: 0.6; stroke: #000000; stroke-linejoin: miter"/>
   </g>
   <g id="patch_68">
    <path d="M 248.069652 389.32 
L 261.44872 389.32 
L 261.44872 341.756825 
L 248.069652 341.756825 
z
" clip-path="url(#p18159a5869)" style="fill: #0000ff; fill-opacity: 0.6; stroke: #000000; stroke-linejoin: miter"/>
   </g>
   <g id="patch_69">
    <path d="M 261.44872 389.32 
L 274.827788 389.32 
L 274.827788 246.630476 
L 261.44872 246.630476 
z
" clip-path="url(#p18159a5869)" style="fill: #0000ff; fill-opacity: 0.6; stroke: #000000; stroke-linejoin: miter"/>
   </g>
   <g id="patch_70">
    <path d="M 274.827788 389.32 
L 288.206857 389.32 
L 288.206857 246.630476 
L 274.827788 246.630476 
z
" clip-path="url(#p18159a5869)" style="fill: #0000ff; fill-opacity: 0.6; stroke: #000000; stroke-linejoin: miter"/>
   </g>
   <g id="patch_71">
    <path d="M 288.206857 389.32 
L 301.585925 389.32 
L 301.585925 317.975238 
L 288.206857 317.975238 
z
" clip-path="url(#p18159a5869)" style="fill: #0000ff; fill-opacity: 0.6; stroke: #000000; stroke-linejoin: miter"/>
   </g>
   <g id="patch_72">
    <path d="M 301.585925 389.32 
L 314.964993 389.32 
L 314.964993 270.412063 
L 301.585925 270.412063 
z
" clip-path="url(#p18159a5869)" style="fill: #0000ff; fill-opacity: 0.6; stroke: #000000; stroke-linejoin: miter"/>
   </g>
   <g id="patch_73">
    <path d="M 314.964993 389.32 
L 328.344061 389.32 
L 328.344061 317.975238 
L 314.964993 317.975238 
z
" clip-path="url(#p18159a5869)" style="fill: #0000ff; fill-opacity: 0.6; stroke: #000000; stroke-linejoin: miter"/>
   </g>
   <g id="patch_74">
    <path d="M 328.344061 389.32 
L 341.723129 389.32 
L 341.723129 294.193651 
L 328.344061 294.193651 
z
" clip-path="url(#p18159a5869)" style="fill: #0000ff; fill-opacity: 0.6; stroke: #000000; stroke-linejoin: miter"/>
   </g>
   <g id="patch_75">
    <path d="M 341.723129 389.32 
L 355.102197 389.32 
L 355.102197 341.756825 
L 341.723129 341.756825 
z
" clip-path="url(#p18159a5869)" style="fill: #0000ff; fill-opacity: 0.6; stroke: #000000; stroke-linejoin: miter"/>
   </g>
   <g id="patch_76">
    <path d="M 355.102197 389.32 
L 368.481265 389.32 
L 368.481265 341.756825 
L 355.102197 341.756825 
z
" clip-path="url(#p18159a5869)" style="fill: #0000ff; fill-opacity: 0.6; stroke: #000000; stroke-linejoin: miter"/>
   </g>
   <g id="patch_77">
    <path d="M 368.481265 389.32 
L 381.860333 389.32 
L 381.860333 365.538413 
L 368.481265 365.538413 
z
" clip-path="url(#p18159a5869)" style="fill: #0000ff; fill-opacity: 0.6; stroke: #000000; stroke-linejoin: miter"/>
   </g>
   <g id="patch_78">
    <path d="M 381.860333 389.32 
L 395.239401 389.32 
L 395.239401 389.32 
L 381.860333 389.32 
z
" clip-path="url(#p18159a5869)" style="fill: #0000ff; fill-opacity: 0.6; stroke: #000000; stroke-linejoin: miter"/>
   </g>
   <g id="patch_79">
    <path d="M 395.239401 389.32 
L 408.618469 389.32 
L 408.618469 365.538413 
L 395.239401 365.538413 
z
" clip-path="url(#p18159a5869)" style="fill: #0000ff; fill-opacity: 0.6; stroke: #000000; stroke-linejoin: miter"/>
   </g>
   <g id="matplotlib.axis_1">
    <g id="xtick_1">
     <g id="line2d_1">
      <defs>
       <path id="mf189f9ebc4" d="M 0 0 
L 0 3.5 
" style="stroke: #000000; stroke-width: 0.8"/>
      </defs>
      <g>
       <use xlink:href="#mf189f9ebc4" x="61.247084" y="389.32" style="stroke: #000000; stroke-width: 0.8"/>
      </g>
     </g>
     <g id="text_1">
      <!-- −7.5 -->
      <g transform="translate(49.105678 403.918437) scale(0.1 -0.1)">
       <defs>
        <path id="DejaVuSans-2212" d="M 678 2272 
L 4684 2272 
L 4684 1741 
L 678 1741 
L 678 2272 
z
" transform="scale(0.015625)"/>
        <path id="DejaVuSans-37" d="M 525 4666 
L 3525 4666 
L 3525 4397 
L 1831 0 
L 1172 0 
L 2766 4134 
L 525 4134 
L 525 4666 
z
" transform="scale(0.015625)"/>
        <path id="DejaVuSans-2e" d="M 684 794 
L 1344 794 
L 1344 0 
L 684 0 
L 684 794 
z
" transform="scale(0.015625)"/>
        <path id="DejaVuSans-35" d="M 691 4666 
L 3169 4666 
L 3169 4134 
L 1269 4134 
L 1269 2991 
Q 1406 3038 1543 3061 
Q 1681 3084 1819 3084 
Q 2600 3084 3056 2656 
Q 3513 2228 3513 1497 
Q 3513 744 3044 326 
Q 2575 -91 1722 -91 
Q 1428 -91 1123 -41 
Q 819 9 494 109 
L 494 744 
Q 775 591 1075 516 
Q 1375 441 1709 441 
Q 2250 441 2565 725 
Q 2881 1009 2881 1497 
Q 2881 1984 2565 2268 
Q 2250 2553 1709 2553 
Q 1456 2553 1204 2497 
Q 953 2441 691 2322 
L 691 4666 
z
" transform="scale(0.015625)"/>
       </defs>
       <use xlink:href="#DejaVuSans-2212"/>
       <use xlink:href="#DejaVuSans-37" x="83.789062"/>
       <use xlink:href="#DejaVuSans-2e" x="147.412109"/>
       <use xlink:href="#DejaVuSans-35" x="179.199219"/>
      </g>
     </g>
    </g>
    <g id="xtick_2">
     <g id="line2d_2">
      <g>
       <use xlink:href="#mf189f9ebc4" x="112.090468" y="389.32" style="stroke: #000000; stroke-width: 0.8"/>
      </g>
     </g>
     <g id="text_2">
      <!-- −5.0 -->
      <g transform="translate(99.949062 403.918437) scale(0.1 -0.1)">
       <defs>
        <path id="DejaVuSans-30" d="M 2034 4250 
Q 1547 4250 1301 3770 
Q 1056 3291 1056 2328 
Q 1056 1369 1301 889 
Q 1547 409 2034 409 
Q 2525 409 2770 889 
Q 3016 1369 3016 2328 
Q 3016 3291 2770 3770 
Q 2525 4250 2034 4250 
z
M 2034 4750 
Q 2819 4750 3233 4129 
Q 3647 3509 3647 2328 
Q 3647 1150 3233 529 
Q 2819 -91 2034 -91 
Q 1250 -91 836 529 
Q 422 1150 422 2328 
Q 422 3509 836 4129 
Q 1250 4750 2034 4750 
z
" transform="scale(0.015625)"/>
       </defs>
       <use xlink:href="#DejaVuSans-2212"/>
       <use xlink:href="#DejaVuSans-35" x="83.789062"/>
       <use xlink:href="#DejaVuSans-2e" x="147.412109"/>
       <use xlink:href="#DejaVuSans-30" x="179.199219"/>
      </g>
     </g>
    </g>
    <g id="xtick_3">
     <g id="line2d_3">
      <g>
       <use xlink:href="#mf189f9ebc4" x="162.933852" y="389.32" style="stroke: #000000; stroke-width: 0.8"/>
      </g>
     </g>
     <g id="text_3">
      <!-- −2.5 -->
      <g transform="translate(150.792446 403.918437) scale(0.1 -0.1)">
       <defs>
        <path id="DejaVuSans-32" d="M 1228 531 
L 3431 531 
L 3431 0 
L 469 0 
L 469 531 
Q 828 903 1448 1529 
Q 2069 2156 2228 2338 
Q 2531 2678 2651 2914 
Q 2772 3150 2772 3378 
Q 2772 3750 2511 3984 
Q 2250 4219 1831 4219 
Q 1534 4219 1204 4116 
Q 875 4013 500 3803 
L 500 4441 
Q 881 4594 1212 4672 
Q 1544 4750 1819 4750 
Q 2544 4750 2975 4387 
Q 3406 4025 3406 3419 
Q 3406 3131 3298 2873 
Q 3191 2616 2906 2266 
Q 2828 2175 2409 1742 
Q 1991 1309 1228 531 
z
" transform="scale(0.015625)"/>
       </defs>
       <use xlink:href="#DejaVuSans-2212"/>
       <use xlink:href="#DejaVuSans-32" x="83.789062"/>
       <use xlink:href="#DejaVuSans-2e" x="147.412109"/>
       <use xlink:href="#DejaVuSans-35" x="179.199219"/>
      </g>
     </g>
    </g>
    <g id="xtick_4">
     <g id="line2d_4">
      <g>
       <use xlink:href="#mf189f9ebc4" x="213.777236" y="389.32" style="stroke: #000000; stroke-width: 0.8"/>
      </g>
     </g>
     <g id="text_4">
      <!-- 0.0 -->
      <g transform="translate(205.825674 403.918437) scale(0.1 -0.1)">
       <use xlink:href="#DejaVuSans-30"/>
       <use xlink:href="#DejaVuSans-2e" x="63.623047"/>
       <use xlink:href="#DejaVuSans-30" x="95.410156"/>
      </g>
     </g>
    </g>
    <g id="xtick_5">
     <g id="line2d_5">
      <g>
       <use xlink:href="#mf189f9ebc4" x="264.62062" y="389.32" style="stroke: #000000; stroke-width: 0.8"/>
      </g>
     </g>
     <g id="text_5">
      <!-- 2.5 -->
      <g transform="translate(256.669057 403.918437) scale(0.1 -0.1)">
       <use xlink:href="#DejaVuSans-32"/>
       <use xlink:href="#DejaVuSans-2e" x="63.623047"/>
       <use xlink:href="#DejaVuSans-35" x="95.410156"/>
      </g>
     </g>
    </g>
    <g id="xtick_6">
     <g id="line2d_6">
      <g>
       <use xlink:href="#mf189f9ebc4" x="315.464004" y="389.32" style="stroke: #000000; stroke-width: 0.8"/>
      </g>
     </g>
     <g id="text_6">
      <!-- 5.0 -->
      <g transform="translate(307.512441 403.918437) scale(0.1 -0.1)">
       <use xlink:href="#DejaVuSans-35"/>
       <use xlink:href="#DejaVuSans-2e" x="63.623047"/>
       <use xlink:href="#DejaVuSans-30" x="95.410156"/>
      </g>
     </g>
    </g>
    <g id="xtick_7">
     <g id="line2d_7">
      <g>
       <use xlink:href="#mf189f9ebc4" x="366.307388" y="389.32" style="stroke: #000000; stroke-width: 0.8"/>
      </g>
     </g>
     <g id="text_7">
      <!-- 7.5 -->
      <g transform="translate(358.355825 403.918437) scale(0.1 -0.1)">
       <use xlink:href="#DejaVuSans-37"/>
       <use xlink:href="#DejaVuSans-2e" x="63.623047"/>
       <use xlink:href="#DejaVuSans-35" x="95.410156"/>
      </g>
     </g>
    </g>
    <g id="xtick_8">
     <g id="line2d_8">
      <g>
       <use xlink:href="#mf189f9ebc4" x="417.150772" y="389.32" style="stroke: #000000; stroke-width: 0.8"/>
      </g>
     </g>
     <g id="text_8">
      <!-- 10.0 -->
      <g transform="translate(406.017959 403.918437) scale(0.1 -0.1)">
       <defs>
        <path id="DejaVuSans-31" d="M 794 531 
L 1825 531 
L 1825 4091 
L 703 3866 
L 703 4441 
L 1819 4666 
L 2450 4666 
L 2450 531 
L 3481 531 
L 3481 0 
L 794 0 
L 794 531 
z
" transform="scale(0.015625)"/>
       </defs>
       <use xlink:href="#DejaVuSans-31"/>
       <use xlink:href="#DejaVuSans-30" x="63.623047"/>
       <use xlink:href="#DejaVuSans-2e" x="127.246094"/>
       <use xlink:href="#DejaVuSans-30" x="159.033203"/>
      </g>
     </g>
    </g>
    <g id="text_9">
     <!-- Predicted Fluorescence -->
     <g transform="translate(170.594377 419.11625) scale(0.12 -0.12)">
      <defs>
       <path id="DejaVuSans-50" d="M 1259 4147 
L 1259 2394 
L 2053 2394 
Q 2494 2394 2734 2622 
Q 2975 2850 2975 3272 
Q 2975 3691 2734 3919 
Q 2494 4147 2053 4147 
L 1259 4147 
z
M 628 4666 
L 2053 4666 
Q 2838 4666 3239 4311 
Q 3641 3956 3641 3272 
Q 3641 2581 3239 2228 
Q 2838 1875 2053 1875 
L 1259 1875 
L 1259 0 
L 628 0 
L 628 4666 
z
" transform="scale(0.015625)"/>
       <path id="DejaVuSans-72" d="M 2631 2963 
Q 2534 3019 2420 3045 
Q 2306 3072 2169 3072 
Q 1681 3072 1420 2755 
Q 1159 2438 1159 1844 
L 1159 0 
L 581 0 
L 581 3500 
L 1159 3500 
L 1159 2956 
Q 1341 3275 1631 3429 
Q 1922 3584 2338 3584 
Q 2397 3584 2469 3576 
Q 2541 3569 2628 3553 
L 2631 2963 
z
" transform="scale(0.015625)"/>
       <path id="DejaVuSans-65" d="M 3597 1894 
L 3597 1613 
L 953 1613 
Q 991 1019 1311 708 
Q 1631 397 2203 397 
Q 2534 397 2845 478 
Q 3156 559 3463 722 
L 3463 178 
Q 3153 47 2828 -22 
Q 2503 -91 2169 -91 
Q 1331 -91 842 396 
Q 353 884 353 1716 
Q 353 2575 817 3079 
Q 1281 3584 2069 3584 
Q 2775 3584 3186 3129 
Q 3597 2675 3597 1894 
z
M 3022 2063 
Q 3016 2534 2758 2815 
Q 2500 3097 2075 3097 
Q 1594 3097 1305 2825 
Q 1016 2553 972 2059 
L 3022 2063 
z
" transform="scale(0.015625)"/>
       <path id="DejaVuSans-64" d="M 2906 2969 
L 2906 4863 
L 3481 4863 
L 3481 0 
L 2906 0 
L 2906 525 
Q 2725 213 2448 61 
Q 2172 -91 1784 -91 
Q 1150 -91 751 415 
Q 353 922 353 1747 
Q 353 2572 751 3078 
Q 1150 3584 1784 3584 
Q 2172 3584 2448 3432 
Q 2725 3281 2906 2969 
z
M 947 1747 
Q 947 1113 1208 752 
Q 1469 391 1925 391 
Q 2381 391 2643 752 
Q 2906 1113 2906 1747 
Q 2906 2381 2643 2742 
Q 2381 3103 1925 3103 
Q 1469 3103 1208 2742 
Q 947 2381 947 1747 
z
" transform="scale(0.015625)"/>
       <path id="DejaVuSans-69" d="M 603 3500 
L 1178 3500 
L 1178 0 
L 603 0 
L 603 3500 
z
M 603 4863 
L 1178 4863 
L 1178 4134 
L 603 4134 
L 603 4863 
z
" transform="scale(0.015625)"/>
       <path id="DejaVuSans-63" d="M 3122 3366 
L 3122 2828 
Q 2878 2963 2633 3030 
Q 2388 3097 2138 3097 
Q 1578 3097 1268 2742 
Q 959 2388 959 1747 
Q 959 1106 1268 751 
Q 1578 397 2138 397 
Q 2388 397 2633 464 
Q 2878 531 3122 666 
L 3122 134 
Q 2881 22 2623 -34 
Q 2366 -91 2075 -91 
Q 1284 -91 818 406 
Q 353 903 353 1747 
Q 353 2603 823 3093 
Q 1294 3584 2113 3584 
Q 2378 3584 2631 3529 
Q 2884 3475 3122 3366 
z
" transform="scale(0.015625)"/>
       <path id="DejaVuSans-74" d="M 1172 4494 
L 1172 3500 
L 2356 3500 
L 2356 3053 
L 1172 3053 
L 1172 1153 
Q 1172 725 1289 603 
Q 1406 481 1766 481 
L 2356 481 
L 2356 0 
L 1766 0 
Q 1100 0 847 248 
Q 594 497 594 1153 
L 594 3053 
L 172 3053 
L 172 3500 
L 594 3500 
L 594 4494 
L 1172 4494 
z
" transform="scale(0.015625)"/>
       <path id="DejaVuSans-20" transform="scale(0.015625)"/>
       <path id="DejaVuSans-46" d="M 628 4666 
L 3309 4666 
L 3309 4134 
L 1259 4134 
L 1259 2759 
L 3109 2759 
L 3109 2228 
L 1259 2228 
L 1259 0 
L 628 0 
L 628 4666 
z
" transform="scale(0.015625)"/>
       <path id="DejaVuSans-6c" d="M 603 4863 
L 1178 4863 
L 1178 0 
L 603 0 
L 603 4863 
z
" transform="scale(0.015625)"/>
       <path id="DejaVuSans-75" d="M 544 1381 
L 544 3500 
L 1119 3500 
L 1119 1403 
Q 1119 906 1312 657 
Q 1506 409 1894 409 
Q 2359 409 2629 706 
Q 2900 1003 2900 1516 
L 2900 3500 
L 3475 3500 
L 3475 0 
L 2900 0 
L 2900 538 
Q 2691 219 2414 64 
Q 2138 -91 1772 -91 
Q 1169 -91 856 284 
Q 544 659 544 1381 
z
M 1991 3584 
L 1991 3584 
z
" transform="scale(0.015625)"/>
       <path id="DejaVuSans-6f" d="M 1959 3097 
Q 1497 3097 1228 2736 
Q 959 2375 959 1747 
Q 959 1119 1226 758 
Q 1494 397 1959 397 
Q 2419 397 2687 759 
Q 2956 1122 2956 1747 
Q 2956 2369 2687 2733 
Q 2419 3097 1959 3097 
z
M 1959 3584 
Q 2709 3584 3137 3096 
Q 3566 2609 3566 1747 
Q 3566 888 3137 398 
Q 2709 -91 1959 -91 
Q 1206 -91 779 398 
Q 353 888 353 1747 
Q 353 2609 779 3096 
Q 1206 3584 1959 3584 
z
" transform="scale(0.015625)"/>
       <path id="DejaVuSans-73" d="M 2834 3397 
L 2834 2853 
Q 2591 2978 2328 3040 
Q 2066 3103 1784 3103 
Q 1356 3103 1142 2972 
Q 928 2841 928 2578 
Q 928 2378 1081 2264 
Q 1234 2150 1697 2047 
L 1894 2003 
Q 2506 1872 2764 1633 
Q 3022 1394 3022 966 
Q 3022 478 2636 193 
Q 2250 -91 1575 -91 
Q 1294 -91 989 -36 
Q 684 19 347 128 
L 347 722 
Q 666 556 975 473 
Q 1284 391 1588 391 
Q 1994 391 2212 530 
Q 2431 669 2431 922 
Q 2431 1156 2273 1281 
Q 2116 1406 1581 1522 
L 1381 1569 
Q 847 1681 609 1914 
Q 372 2147 372 2553 
Q 372 3047 722 3315 
Q 1072 3584 1716 3584 
Q 2034 3584 2315 3537 
Q 2597 3491 2834 3397 
z
" transform="scale(0.015625)"/>
       <path id="DejaVuSans-6e" d="M 3513 2113 
L 3513 0 
L 2938 0 
L 2938 2094 
Q 2938 2591 2744 2837 
Q 2550 3084 2163 3084 
Q 1697 3084 1428 2787 
Q 1159 2491 1159 1978 
L 1159 0 
L 581 0 
L 581 3500 
L 1159 3500 
L 1159 2956 
Q 1366 3272 1645 3428 
Q 1925 3584 2291 3584 
Q 2894 3584 3203 3211 
Q 3513 2838 3513 2113 
z
" transform="scale(0.015625)"/>
      </defs>
      <use xlink:href="#DejaVuSans-50"/>
      <use xlink:href="#DejaVuSans-72" x="58.552734"/>
      <use xlink:href="#DejaVuSans-65" x="97.416016"/>
      <use xlink:href="#DejaVuSans-64" x="158.939453"/>
      <use xlink:href="#DejaVuSans-69" x="222.416016"/>
      <use xlink:href="#DejaVuSans-63" x="250.199219"/>
      <use xlink:href="#DejaVuSans-74" x="305.179688"/>
      <use xlink:href="#DejaVuSans-65" x="344.388672"/>
      <use xlink:href="#DejaVuSans-64" x="405.912109"/>
      <use xlink:href="#DejaVuSans-20" x="469.388672"/>
      <use xlink:href="#DejaVuSans-46" x="501.175781"/>
      <use xlink:href="#DejaVuSans-6c" x="558.695312"/>
      <use xlink:href="#DejaVuSans-75" x="586.478516"/>
      <use xlink:href="#DejaVuSans-6f" x="649.857422"/>
      <use xlink:href="#DejaVuSans-72" x="711.039062"/>
      <use xlink:href="#DejaVuSans-65" x="749.902344"/>
      <use xlink:href="#DejaVuSans-73" x="811.425781"/>
      <use xlink:href="#DejaVuSans-63" x="863.525391"/>
      <use xlink:href="#DejaVuSans-65" x="918.505859"/>
      <use xlink:href="#DejaVuSans-6e" x="980.029297"/>
      <use xlink:href="#DejaVuSans-63" x="1043.408203"/>
      <use xlink:href="#DejaVuSans-65" x="1098.388672"/>
     </g>
    </g>
   </g>
   <g id="matplotlib.axis_2">
    <g id="ytick_1">
     <g id="line2d_9">
      <defs>
       <path id="m76999ad945" d="M 0 0 
L -3.5 0 
" style="stroke: #000000; stroke-width: 0.8"/>
      </defs>
      <g>
       <use xlink:href="#m76999ad945" x="54.92" y="389.32" style="stroke: #000000; stroke-width: 0.8"/>
      </g>
     </g>
     <g id="text_10">
      <!-- 0.00 -->
      <g transform="translate(25.654375 393.119219) scale(0.1 -0.1)">
       <use xlink:href="#DejaVuSans-30"/>
       <use xlink:href="#DejaVuSans-2e" x="63.623047"/>
       <use xlink:href="#DejaVuSans-30" x="95.410156"/>
       <use xlink:href="#DejaVuSans-30" x="159.033203"/>
      </g>
     </g>
    </g>
    <g id="ytick_2">
     <g id="line2d_10">
      <g>
       <use xlink:href="#m76999ad945" x="54.92" y="311.095595" style="stroke: #000000; stroke-width: 0.8"/>
      </g>
     </g>
     <g id="text_11">
      <!-- 0.05 -->
      <g transform="translate(25.654375 314.894814) scale(0.1 -0.1)">
       <use xlink:href="#DejaVuSans-30"/>
       <use xlink:href="#DejaVuSans-2e" x="63.623047"/>
       <use xlink:href="#DejaVuSans-30" x="95.410156"/>
       <use xlink:href="#DejaVuSans-35" x="159.033203"/>
      </g>
     </g>
    </g>
    <g id="ytick_3">
     <g id="line2d_11">
      <g>
       <use xlink:href="#m76999ad945" x="54.92" y="232.871191" style="stroke: #000000; stroke-width: 0.8"/>
      </g>
     </g>
     <g id="text_12">
      <!-- 0.10 -->
      <g transform="translate(25.654375 236.67041) scale(0.1 -0.1)">
       <use xlink:href="#DejaVuSans-30"/>
       <use xlink:href="#DejaVuSans-2e" x="63.623047"/>
       <use xlink:href="#DejaVuSans-31" x="95.410156"/>
       <use xlink:href="#DejaVuSans-30" x="159.033203"/>
      </g>
     </g>
    </g>
    <g id="ytick_4">
     <g id="line2d_12">
      <g>
       <use xlink:href="#m76999ad945" x="54.92" y="154.646786" style="stroke: #000000; stroke-width: 0.8"/>
      </g>
     </g>
     <g id="text_13">
      <!-- 0.15 -->
      <g transform="translate(25.654375 158.446005) scale(0.1 -0.1)">
       <use xlink:href="#DejaVuSans-30"/>
       <use xlink:href="#DejaVuSans-2e" x="63.623047"/>
       <use xlink:href="#DejaVuSans-31" x="95.410156"/>
       <use xlink:href="#DejaVuSans-35" x="159.033203"/>
      </g>
     </g>
    </g>
    <g id="ytick_5">
     <g id="line2d_13">
      <g>
       <use xlink:href="#m76999ad945" x="54.92" y="76.422382" style="stroke: #000000; stroke-width: 0.8"/>
      </g>
     </g>
     <g id="text_14">
      <!-- 0.20 -->
      <g transform="translate(25.654375 80.2216) scale(0.1 -0.1)">
       <use xlink:href="#DejaVuSans-30"/>
       <use xlink:href="#DejaVuSans-2e" x="63.623047"/>
       <use xlink:href="#DejaVuSans-32" x="95.410156"/>
       <use xlink:href="#DejaVuSans-30" x="159.033203"/>
      </g>
     </g>
    </g>
    <g id="text_15">
     <!-- Probability Density -->
     <g transform="translate(19.15875 258.471875) rotate(-90) scale(0.12 -0.12)">
      <defs>
       <path id="DejaVuSans-62" d="M 3116 1747 
Q 3116 2381 2855 2742 
Q 2594 3103 2138 3103 
Q 1681 3103 1420 2742 
Q 1159 2381 1159 1747 
Q 1159 1113 1420 752 
Q 1681 391 2138 391 
Q 2594 391 2855 752 
Q 3116 1113 3116 1747 
z
M 1159 2969 
Q 1341 3281 1617 3432 
Q 1894 3584 2278 3584 
Q 2916 3584 3314 3078 
Q 3713 2572 3713 1747 
Q 3713 922 3314 415 
Q 2916 -91 2278 -91 
Q 1894 -91 1617 61 
Q 1341 213 1159 525 
L 1159 0 
L 581 0 
L 581 4863 
L 1159 4863 
L 1159 2969 
z
" transform="scale(0.015625)"/>
       <path id="DejaVuSans-61" d="M 2194 1759 
Q 1497 1759 1228 1600 
Q 959 1441 959 1056 
Q 959 750 1161 570 
Q 1363 391 1709 391 
Q 2188 391 2477 730 
Q 2766 1069 2766 1631 
L 2766 1759 
L 2194 1759 
z
M 3341 1997 
L 3341 0 
L 2766 0 
L 2766 531 
Q 2569 213 2275 61 
Q 1981 -91 1556 -91 
Q 1019 -91 701 211 
Q 384 513 384 1019 
Q 384 1609 779 1909 
Q 1175 2209 1959 2209 
L 2766 2209 
L 2766 2266 
Q 2766 2663 2505 2880 
Q 2244 3097 1772 3097 
Q 1472 3097 1187 3025 
Q 903 2953 641 2809 
L 641 3341 
Q 956 3463 1253 3523 
Q 1550 3584 1831 3584 
Q 2591 3584 2966 3190 
Q 3341 2797 3341 1997 
z
" transform="scale(0.015625)"/>
       <path id="DejaVuSans-79" d="M 2059 -325 
Q 1816 -950 1584 -1140 
Q 1353 -1331 966 -1331 
L 506 -1331 
L 506 -850 
L 844 -850 
Q 1081 -850 1212 -737 
Q 1344 -625 1503 -206 
L 1606 56 
L 191 3500 
L 800 3500 
L 1894 763 
L 2988 3500 
L 3597 3500 
L 2059 -325 
z
" transform="scale(0.015625)"/>
       <path id="DejaVuSans-44" d="M 1259 4147 
L 1259 519 
L 2022 519 
Q 2988 519 3436 956 
Q 3884 1394 3884 2338 
Q 3884 3275 3436 3711 
Q 2988 4147 2022 4147 
L 1259 4147 
z
M 628 4666 
L 1925 4666 
Q 3281 4666 3915 4102 
Q 4550 3538 4550 2338 
Q 4550 1131 3912 565 
Q 3275 0 1925 0 
L 628 0 
L 628 4666 
z
" transform="scale(0.015625)"/>
      </defs>
      <use xlink:href="#DejaVuSans-50"/>
      <use xlink:href="#DejaVuSans-72" x="58.552734"/>
      <use xlink:href="#DejaVuSans-6f" x="97.416016"/>
      <use xlink:href="#DejaVuSans-62" x="158.597656"/>
      <use xlink:href="#DejaVuSans-61" x="222.074219"/>
      <use xlink:href="#DejaVuSans-62" x="283.353516"/>
      <use xlink:href="#DejaVuSans-69" x="346.830078"/>
      <use xlink:href="#DejaVuSans-6c" x="374.613281"/>
      <use xlink:href="#DejaVuSans-69" x="402.396484"/>
      <use xlink:href="#DejaVuSans-74" x="430.179688"/>
      <use xlink:href="#DejaVuSans-79" x="469.388672"/>
      <use xlink:href="#DejaVuSans-20" x="528.568359"/>
      <use xlink:href="#DejaVuSans-44" x="560.355469"/>
      <use xlink:href="#DejaVuSans-65" x="637.357422"/>
      <use xlink:href="#DejaVuSans-6e" x="698.880859"/>
      <use xlink:href="#DejaVuSans-73" x="762.259766"/>
      <use xlink:href="#DejaVuSans-69" x="814.359375"/>
      <use xlink:href="#DejaVuSans-74" x="842.142578"/>
      <use xlink:href="#DejaVuSans-79" x="881.351562"/>
     </g>
    </g>
   </g>
   <g id="line2d_14">
    <path d="M 237.161125 389.32 
L 237.161125 14.76 
" clip-path="url(#p18159a5869)" style="fill: none; stroke-dasharray: 11.1,4.8; stroke-dashoffset: 0; stroke: #ffa500; stroke-width: 3"/>
   </g>
   <g id="patch_80">
    <path d="M 54.92 389.32 
L 54.92 14.76 
" style="fill: none; stroke: #000000; stroke-width: 0.8; stroke-linejoin: miter; stroke-linecap: square"/>
   </g>
   <g id="patch_81">
    <path d="M 54.92 389.32 
L 425.461253 389.32 
" style="fill: none; stroke: #000000; stroke-width: 0.8; stroke-linejoin: miter; stroke-linecap: square"/>
   </g>
   <g id="legend_1">
    <g id="patch_82">
     <path d="M 300.347191 66.794375 
L 418.461253 66.794375 
Q 420.461253 66.794375 420.461253 64.794375 
L 420.461253 21.76 
Q 420.461253 19.76 418.461253 19.76 
L 300.347191 19.76 
Q 298.347191 19.76 298.347191 21.76 
L 298.347191 64.794375 
Q 298.347191 66.794375 300.347191 66.794375 
z
" style="fill: #ffffff; opacity: 0.8; stroke: #cccccc; stroke-linejoin: miter"/>
    </g>
    <g id="patch_83">
     <path d="M 302.347191 31.358438 
L 322.347191 31.358438 
L 322.347191 24.358438 
L 302.347191 24.358438 
z
" style="fill: #808080; fill-opacity: 0.4; stroke: #000000; stroke-linejoin: miter"/>
    </g>
    <g id="text_16">
     <!-- Pre-trained ESM2 -->
     <g transform="translate(330.347191 31.358438) scale(0.1 -0.1)">
      <defs>
       <path id="DejaVuSans-2d" d="M 313 2009 
L 1997 2009 
L 1997 1497 
L 313 1497 
L 313 2009 
z
" transform="scale(0.015625)"/>
       <path id="DejaVuSans-45" d="M 628 4666 
L 3578 4666 
L 3578 4134 
L 1259 4134 
L 1259 2753 
L 3481 2753 
L 3481 2222 
L 1259 2222 
L 1259 531 
L 3634 531 
L 3634 0 
L 628 0 
L 628 4666 
z
" transform="scale(0.015625)"/>
       <path id="DejaVuSans-53" d="M 3425 4513 
L 3425 3897 
Q 3066 4069 2747 4153 
Q 2428 4238 2131 4238 
Q 1616 4238 1336 4038 
Q 1056 3838 1056 3469 
Q 1056 3159 1242 3001 
Q 1428 2844 1947 2747 
L 2328 2669 
Q 3034 2534 3370 2195 
Q 3706 1856 3706 1288 
Q 3706 609 3251 259 
Q 2797 -91 1919 -91 
Q 1588 -91 1214 -16 
Q 841 59 441 206 
L 441 856 
Q 825 641 1194 531 
Q 1563 422 1919 422 
Q 2459 422 2753 634 
Q 3047 847 3047 1241 
Q 3047 1584 2836 1778 
Q 2625 1972 2144 2069 
L 1759 2144 
Q 1053 2284 737 2584 
Q 422 2884 422 3419 
Q 422 4038 858 4394 
Q 1294 4750 2059 4750 
Q 2388 4750 2728 4690 
Q 3069 4631 3425 4513 
z
" transform="scale(0.015625)"/>
       <path id="DejaVuSans-4d" d="M 628 4666 
L 1569 4666 
L 2759 1491 
L 3956 4666 
L 4897 4666 
L 4897 0 
L 4281 0 
L 4281 4097 
L 3078 897 
L 2444 897 
L 1241 4097 
L 1241 0 
L 628 0 
L 628 4666 
z
" transform="scale(0.015625)"/>
      </defs>
      <use xlink:href="#DejaVuSans-50"/>
      <use xlink:href="#DejaVuSans-72" x="58.552734"/>
      <use xlink:href="#DejaVuSans-65" x="97.416016"/>
      <use xlink:href="#DejaVuSans-2d" x="158.939453"/>
      <use xlink:href="#DejaVuSans-74" x="195.023438"/>
      <use xlink:href="#DejaVuSans-72" x="234.232422"/>
      <use xlink:href="#DejaVuSans-61" x="275.345703"/>
      <use xlink:href="#DejaVuSans-69" x="336.625"/>
      <use xlink:href="#DejaVuSans-6e" x="364.408203"/>
      <use xlink:href="#DejaVuSans-65" x="427.787109"/>
      <use xlink:href="#DejaVuSans-64" x="489.310547"/>
      <use xlink:href="#DejaVuSans-20" x="552.787109"/>
      <use xlink:href="#DejaVuSans-45" x="584.574219"/>
      <use xlink:href="#DejaVuSans-53" x="647.757812"/>
      <use xlink:href="#DejaVuSans-4d" x="711.234375"/>
      <use xlink:href="#DejaVuSans-32" x="797.513672"/>
     </g>
    </g>
    <g id="patch_84">
     <path d="M 302.347191 46.036563 
L 322.347191 46.036563 
L 322.347191 39.036563 
L 302.347191 39.036563 
z
" style="fill: #ffa500; fill-opacity: 0.6; stroke: #000000; stroke-linejoin: miter"/>
    </g>
    <g id="text_17">
     <!-- SFT ESM2 -->
     <g transform="translate(330.347191 46.036563) scale(0.1 -0.1)">
      <defs>
       <path id="DejaVuSans-54" d="M -19 4666 
L 3928 4666 
L 3928 4134 
L 2272 4134 
L 2272 0 
L 1638 0 
L 1638 4134 
L -19 4134 
L -19 4666 
z
" transform="scale(0.015625)"/>
      </defs>
      <use xlink:href="#DejaVuSans-53"/>
      <use xlink:href="#DejaVuSans-46" x="63.476562"/>
      <use xlink:href="#DejaVuSans-54" x="119.246094"/>
      <use xlink:href="#DejaVuSans-20" x="180.330078"/>
      <use xlink:href="#DejaVuSans-45" x="212.117188"/>
      <use xlink:href="#DejaVuSans-53" x="275.300781"/>
      <use xlink:href="#DejaVuSans-4d" x="338.777344"/>
      <use xlink:href="#DejaVuSans-32" x="425.056641"/>
     </g>
    </g>
    <g id="patch_85">
     <path d="M 302.347191 60.714688 
L 322.347191 60.714688 
L 322.347191 53.714688 
L 302.347191 53.714688 
z
" style="fill: #0000ff; fill-opacity: 0.6; stroke: #000000; stroke-linejoin: miter"/>
    </g>
    <g id="text_18">
     <!-- Aligned ESM2 -->
     <g transform="translate(330.347191 60.714688) scale(0.1 -0.1)">
      <defs>
       <path id="DejaVuSans-41" d="M 2188 4044 
L 1331 1722 
L 3047 1722 
L 2188 4044 
z
M 1831 4666 
L 2547 4666 
L 4325 0 
L 3669 0 
L 3244 1197 
L 1141 1197 
L 716 0 
L 50 0 
L 1831 4666 
z
" transform="scale(0.015625)"/>
       <path id="DejaVuSans-67" d="M 2906 1791 
Q 2906 2416 2648 2759 
Q 2391 3103 1925 3103 
Q 1463 3103 1205 2759 
Q 947 2416 947 1791 
Q 947 1169 1205 825 
Q 1463 481 1925 481 
Q 2391 481 2648 825 
Q 2906 1169 2906 1791 
z
M 3481 434 
Q 3481 -459 3084 -895 
Q 2688 -1331 1869 -1331 
Q 1566 -1331 1297 -1286 
Q 1028 -1241 775 -1147 
L 775 -588 
Q 1028 -725 1275 -790 
Q 1522 -856 1778 -856 
Q 2344 -856 2625 -561 
Q 2906 -266 2906 331 
L 2906 616 
Q 2728 306 2450 153 
Q 2172 0 1784 0 
Q 1141 0 747 490 
Q 353 981 353 1791 
Q 353 2603 747 3093 
Q 1141 3584 1784 3584 
Q 2172 3584 2450 3431 
Q 2728 3278 2906 2969 
L 2906 3500 
L 3481 3500 
L 3481 434 
z
" transform="scale(0.015625)"/>
      </defs>
      <use xlink:href="#DejaVuSans-41"/>
      <use xlink:href="#DejaVuSans-6c" x="68.408203"/>
      <use xlink:href="#DejaVuSans-69" x="96.191406"/>
      <use xlink:href="#DejaVuSans-67" x="123.974609"/>
      <use xlink:href="#DejaVuSans-6e" x="187.451172"/>
      <use xlink:href="#DejaVuSans-65" x="250.830078"/>
      <use xlink:href="#DejaVuSans-64" x="312.353516"/>
      <use xlink:href="#DejaVuSans-20" x="375.830078"/>
      <use xlink:href="#DejaVuSans-45" x="407.617188"/>
      <use xlink:href="#DejaVuSans-53" x="470.800781"/>
      <use xlink:href="#DejaVuSans-4d" x="534.277344"/>
      <use xlink:href="#DejaVuSans-32" x="620.556641"/>
     </g>
    </g>
   </g>
  </g>
  <g id="axes_2">
   <g id="patch_86">
    <path d="M 478.325 389.32 
L 848.866253 389.32 
L 848.866253 14.76 
L 478.325 14.76 
z
" style="fill: #ffffff"/>
   </g>
   <g id="patch_87">
    <path d="M 495.167784 389.32 
L 495.167784 14.76 
L 660.566125 14.76 
L 660.566125 389.32 
z
" clip-path="url(#p43a5e2f651)" style="fill: #ff0000; opacity: 0.1; stroke: #ff0000; stroke-linejoin: miter"/>
   </g>
   <g id="patch_88">
    <path d="M 660.566125 389.32 
L 660.566125 14.76 
L 814.674196 14.76 
L 814.674196 389.32 
z
" clip-path="url(#p43a5e2f651)" style="fill: #008000; opacity: 0.1; stroke: #008000; stroke-linejoin: miter"/>
   </g>
   <g id="matplotlib.axis_3">
    <g id="xtick_9">
     <g id="line2d_15">
      <g>
       <use xlink:href="#mf189f9ebc4" x="484.652084" y="389.32" style="stroke: #000000; stroke-width: 0.8"/>
      </g>
     </g>
     <g id="text_19">
      <!-- −7.5 -->
      <g transform="translate(472.510678 403.918437) scale(0.1 -0.1)">
       <use xlink:href="#DejaVuSans-2212"/>
       <use xlink:href="#DejaVuSans-37" x="83.789062"/>
       <use xlink:href="#DejaVuSans-2e" x="147.412109"/>
       <use xlink:href="#DejaVuSans-35" x="179.199219"/>
      </g>
     </g>
    </g>
    <g id="xtick_10">
     <g id="line2d_16">
      <g>
       <use xlink:href="#mf189f9ebc4" x="535.495468" y="389.32" style="stroke: #000000; stroke-width: 0.8"/>
      </g>
     </g>
     <g id="text_20">
      <!-- −5.0 -->
      <g transform="translate(523.354062 403.918437) scale(0.1 -0.1)">
       <use xlink:href="#DejaVuSans-2212"/>
       <use xlink:href="#DejaVuSans-35" x="83.789062"/>
       <use xlink:href="#DejaVuSans-2e" x="147.412109"/>
       <use xlink:href="#DejaVuSans-30" x="179.199219"/>
      </g>
     </g>
    </g>
    <g id="xtick_11">
     <g id="line2d_17">
      <g>
       <use xlink:href="#mf189f9ebc4" x="586.338852" y="389.32" style="stroke: #000000; stroke-width: 0.8"/>
      </g>
     </g>
     <g id="text_21">
      <!-- −2.5 -->
      <g transform="translate(574.197446 403.918437) scale(0.1 -0.1)">
       <use xlink:href="#DejaVuSans-2212"/>
       <use xlink:href="#DejaVuSans-32" x="83.789062"/>
       <use xlink:href="#DejaVuSans-2e" x="147.412109"/>
       <use xlink:href="#DejaVuSans-35" x="179.199219"/>
      </g>
     </g>
    </g>
    <g id="xtick_12">
     <g id="line2d_18">
      <g>
       <use xlink:href="#mf189f9ebc4" x="637.182236" y="389.32" style="stroke: #000000; stroke-width: 0.8"/>
      </g>
     </g>
     <g id="text_22">
      <!-- 0.0 -->
      <g transform="translate(629.230674 403.918437) scale(0.1 -0.1)">
       <use xlink:href="#DejaVuSans-30"/>
       <use xlink:href="#DejaVuSans-2e" x="63.623047"/>
       <use xlink:href="#DejaVuSans-30" x="95.410156"/>
      </g>
     </g>
    </g>
    <g id="xtick_13">
     <g id="line2d_19">
      <g>
       <use xlink:href="#mf189f9ebc4" x="688.02562" y="389.32" style="stroke: #000000; stroke-width: 0.8"/>
      </g>
     </g>
     <g id="text_23">
      <!-- 2.5 -->
      <g transform="translate(680.074057 403.918437) scale(0.1 -0.1)">
       <use xlink:href="#DejaVuSans-32"/>
       <use xlink:href="#DejaVuSans-2e" x="63.623047"/>
       <use xlink:href="#DejaVuSans-35" x="95.410156"/>
      </g>
     </g>
    </g>
    <g id="xtick_14">
     <g id="line2d_20">
      <g>
       <use xlink:href="#mf189f9ebc4" x="738.869004" y="389.32" style="stroke: #000000; stroke-width: 0.8"/>
      </g>
     </g>
     <g id="text_24">
      <!-- 5.0 -->
      <g transform="translate(730.917441 403.918437) scale(0.1 -0.1)">
       <use xlink:href="#DejaVuSans-35"/>
       <use xlink:href="#DejaVuSans-2e" x="63.623047"/>
       <use xlink:href="#DejaVuSans-30" x="95.410156"/>
      </g>
     </g>
    </g>
    <g id="xtick_15">
     <g id="line2d_21">
      <g>
       <use xlink:href="#mf189f9ebc4" x="789.712388" y="389.32" style="stroke: #000000; stroke-width: 0.8"/>
      </g>
     </g>
     <g id="text_25">
      <!-- 7.5 -->
      <g transform="translate(781.760825 403.918437) scale(0.1 -0.1)">
       <use xlink:href="#DejaVuSans-37"/>
       <use xlink:href="#DejaVuSans-2e" x="63.623047"/>
       <use xlink:href="#DejaVuSans-35" x="95.410156"/>
      </g>
     </g>
    </g>
    <g id="xtick_16">
     <g id="line2d_22">
      <g>
       <use xlink:href="#mf189f9ebc4" x="840.555772" y="389.32" style="stroke: #000000; stroke-width: 0.8"/>
      </g>
     </g>
     <g id="text_26">
      <!-- 10.0 -->
      <g transform="translate(829.422959 403.918437) scale(0.1 -0.1)">
       <use xlink:href="#DejaVuSans-31"/>
       <use xlink:href="#DejaVuSans-30" x="63.623047"/>
       <use xlink:href="#DejaVuSans-2e" x="127.246094"/>
       <use xlink:href="#DejaVuSans-30" x="159.033203"/>
      </g>
     </g>
    </g>
    <g id="text_27">
     <!-- Predicted Fluorescence -->
     <g transform="translate(593.999377 419.11625) scale(0.12 -0.12)">
      <use xlink:href="#DejaVuSans-50"/>
      <use xlink:href="#DejaVuSans-72" x="58.552734"/>
      <use xlink:href="#DejaVuSans-65" x="97.416016"/>
      <use xlink:href="#DejaVuSans-64" x="158.939453"/>
      <use xlink:href="#DejaVuSans-69" x="222.416016"/>
      <use xlink:href="#DejaVuSans-63" x="250.199219"/>
      <use xlink:href="#DejaVuSans-74" x="305.179688"/>
      <use xlink:href="#DejaVuSans-65" x="344.388672"/>
      <use xlink:href="#DejaVuSans-64" x="405.912109"/>
      <use xlink:href="#DejaVuSans-20" x="469.388672"/>
      <use xlink:href="#DejaVuSans-46" x="501.175781"/>
      <use xlink:href="#DejaVuSans-6c" x="558.695312"/>
      <use xlink:href="#DejaVuSans-75" x="586.478516"/>
      <use xlink:href="#DejaVuSans-6f" x="649.857422"/>
      <use xlink:href="#DejaVuSans-72" x="711.039062"/>
      <use xlink:href="#DejaVuSans-65" x="749.902344"/>
      <use xlink:href="#DejaVuSans-73" x="811.425781"/>
      <use xlink:href="#DejaVuSans-63" x="863.525391"/>
      <use xlink:href="#DejaVuSans-65" x="918.505859"/>
      <use xlink:href="#DejaVuSans-6e" x="980.029297"/>
      <use xlink:href="#DejaVuSans-63" x="1043.408203"/>
      <use xlink:href="#DejaVuSans-65" x="1098.388672"/>
     </g>
    </g>
   </g>
   <g id="matplotlib.axis_4">
    <g id="ytick_6">
     <g id="line2d_23">
      <g>
       <use xlink:href="#m76999ad945" x="478.325" y="389.32" style="stroke: #000000; stroke-width: 0.8"/>
      </g>
     </g>
     <g id="text_28">
      <!-- 0.0 -->
      <g transform="translate(455.421875 393.119219) scale(0.1 -0.1)">
       <use xlink:href="#DejaVuSans-30"/>
       <use xlink:href="#DejaVuSans-2e" x="63.623047"/>
       <use xlink:href="#DejaVuSans-30" x="95.410156"/>
      </g>
     </g>
    </g>
    <g id="ytick_7">
     <g id="line2d_24">
      <g>
       <use xlink:href="#m76999ad945" x="478.325" y="314.408" style="stroke: #000000; stroke-width: 0.8"/>
      </g>
     </g>
     <g id="text_29">
      <!-- 0.2 -->
      <g transform="translate(455.421875 318.207219) scale(0.1 -0.1)">
       <use xlink:href="#DejaVuSans-30"/>
       <use xlink:href="#DejaVuSans-2e" x="63.623047"/>
       <use xlink:href="#DejaVuSans-32" x="95.410156"/>
      </g>
     </g>
    </g>
    <g id="ytick_8">
     <g id="line2d_25">
      <g>
       <use xlink:href="#m76999ad945" x="478.325" y="239.496" style="stroke: #000000; stroke-width: 0.8"/>
      </g>
     </g>
     <g id="text_30">
      <!-- 0.4 -->
      <g transform="translate(455.421875 243.295219) scale(0.1 -0.1)">
       <defs>
        <path id="DejaVuSans-34" d="M 2419 4116 
L 825 1625 
L 2419 1625 
L 2419 4116 
z
M 2253 4666 
L 3047 4666 
L 3047 1625 
L 3713 1625 
L 3713 1100 
L 3047 1100 
L 3047 0 
L 2419 0 
L 2419 1100 
L 313 1100 
L 313 1709 
L 2253 4666 
z
" transform="scale(0.015625)"/>
       </defs>
       <use xlink:href="#DejaVuSans-30"/>
       <use xlink:href="#DejaVuSans-2e" x="63.623047"/>
       <use xlink:href="#DejaVuSans-34" x="95.410156"/>
      </g>
     </g>
    </g>
    <g id="ytick_9">
     <g id="line2d_26">
      <g>
       <use xlink:href="#m76999ad945" x="478.325" y="164.584" style="stroke: #000000; stroke-width: 0.8"/>
      </g>
     </g>
     <g id="text_31">
      <!-- 0.6 -->
      <g transform="translate(455.421875 168.383219) scale(0.1 -0.1)">
       <defs>
        <path id="DejaVuSans-36" d="M 2113 2584 
Q 1688 2584 1439 2293 
Q 1191 2003 1191 1497 
Q 1191 994 1439 701 
Q 1688 409 2113 409 
Q 2538 409 2786 701 
Q 3034 994 3034 1497 
Q 3034 2003 2786 2293 
Q 2538 2584 2113 2584 
z
M 3366 4563 
L 3366 3988 
Q 3128 4100 2886 4159 
Q 2644 4219 2406 4219 
Q 1781 4219 1451 3797 
Q 1122 3375 1075 2522 
Q 1259 2794 1537 2939 
Q 1816 3084 2150 3084 
Q 2853 3084 3261 2657 
Q 3669 2231 3669 1497 
Q 3669 778 3244 343 
Q 2819 -91 2113 -91 
Q 1303 -91 875 529 
Q 447 1150 447 2328 
Q 447 3434 972 4092 
Q 1497 4750 2381 4750 
Q 2619 4750 2861 4703 
Q 3103 4656 3366 4563 
z
" transform="scale(0.015625)"/>
       </defs>
       <use xlink:href="#DejaVuSans-30"/>
       <use xlink:href="#DejaVuSans-2e" x="63.623047"/>
       <use xlink:href="#DejaVuSans-36" x="95.410156"/>
      </g>
     </g>
    </g>
    <g id="ytick_10">
     <g id="line2d_27">
      <g>
       <use xlink:href="#m76999ad945" x="478.325" y="89.672" style="stroke: #000000; stroke-width: 0.8"/>
      </g>
     </g>
     <g id="text_32">
      <!-- 0.8 -->
      <g transform="translate(455.421875 93.471219) scale(0.1 -0.1)">
       <defs>
        <path id="DejaVuSans-38" d="M 2034 2216 
Q 1584 2216 1326 1975 
Q 1069 1734 1069 1313 
Q 1069 891 1326 650 
Q 1584 409 2034 409 
Q 2484 409 2743 651 
Q 3003 894 3003 1313 
Q 3003 1734 2745 1975 
Q 2488 2216 2034 2216 
z
M 1403 2484 
Q 997 2584 770 2862 
Q 544 3141 544 3541 
Q 544 4100 942 4425 
Q 1341 4750 2034 4750 
Q 2731 4750 3128 4425 
Q 3525 4100 3525 3541 
Q 3525 3141 3298 2862 
Q 3072 2584 2669 2484 
Q 3125 2378 3379 2068 
Q 3634 1759 3634 1313 
Q 3634 634 3220 271 
Q 2806 -91 2034 -91 
Q 1263 -91 848 271 
Q 434 634 434 1313 
Q 434 1759 690 2068 
Q 947 2378 1403 2484 
z
M 1172 3481 
Q 1172 3119 1398 2916 
Q 1625 2713 2034 2713 
Q 2441 2713 2670 2916 
Q 2900 3119 2900 3481 
Q 2900 3844 2670 4047 
Q 2441 4250 2034 4250 
Q 1625 4250 1398 4047 
Q 1172 3844 1172 3481 
z
" transform="scale(0.015625)"/>
       </defs>
       <use xlink:href="#DejaVuSans-30"/>
       <use xlink:href="#DejaVuSans-2e" x="63.623047"/>
       <use xlink:href="#DejaVuSans-38" x="95.410156"/>
      </g>
     </g>
    </g>
    <g id="ytick_11">
     <g id="line2d_28">
      <g>
       <use xlink:href="#m76999ad945" x="478.325" y="14.76" style="stroke: #000000; stroke-width: 0.8"/>
      </g>
     </g>
     <g id="text_33">
      <!-- 1.0 -->
      <g transform="translate(455.421875 18.559219) scale(0.1 -0.1)">
       <use xlink:href="#DejaVuSans-31"/>
       <use xlink:href="#DejaVuSans-2e" x="63.623047"/>
       <use xlink:href="#DejaVuSans-30" x="95.410156"/>
      </g>
     </g>
    </g>
    <g id="text_34">
     <!-- Cumulative Density -->
     <g transform="translate(448.92625 261.002187) rotate(-90) scale(0.12 -0.12)">
      <defs>
       <path id="DejaVuSans-43" d="M 4122 4306 
L 4122 3641 
Q 3803 3938 3442 4084 
Q 3081 4231 2675 4231 
Q 1875 4231 1450 3742 
Q 1025 3253 1025 2328 
Q 1025 1406 1450 917 
Q 1875 428 2675 428 
Q 3081 428 3442 575 
Q 3803 722 4122 1019 
L 4122 359 
Q 3791 134 3420 21 
Q 3050 -91 2638 -91 
Q 1578 -91 968 557 
Q 359 1206 359 2328 
Q 359 3453 968 4101 
Q 1578 4750 2638 4750 
Q 3056 4750 3426 4639 
Q 3797 4528 4122 4306 
z
" transform="scale(0.015625)"/>
       <path id="DejaVuSans-6d" d="M 3328 2828 
Q 3544 3216 3844 3400 
Q 4144 3584 4550 3584 
Q 5097 3584 5394 3201 
Q 5691 2819 5691 2113 
L 5691 0 
L 5113 0 
L 5113 2094 
Q 5113 2597 4934 2840 
Q 4756 3084 4391 3084 
Q 3944 3084 3684 2787 
Q 3425 2491 3425 1978 
L 3425 0 
L 2847 0 
L 2847 2094 
Q 2847 2600 2669 2842 
Q 2491 3084 2119 3084 
Q 1678 3084 1418 2786 
Q 1159 2488 1159 1978 
L 1159 0 
L 581 0 
L 581 3500 
L 1159 3500 
L 1159 2956 
Q 1356 3278 1631 3431 
Q 1906 3584 2284 3584 
Q 2666 3584 2933 3390 
Q 3200 3197 3328 2828 
z
" transform="scale(0.015625)"/>
       <path id="DejaVuSans-76" d="M 191 3500 
L 800 3500 
L 1894 563 
L 2988 3500 
L 3597 3500 
L 2284 0 
L 1503 0 
L 191 3500 
z
" transform="scale(0.015625)"/>
      </defs>
      <use xlink:href="#DejaVuSans-43"/>
      <use xlink:href="#DejaVuSans-75" x="69.824219"/>
      <use xlink:href="#DejaVuSans-6d" x="133.203125"/>
      <use xlink:href="#DejaVuSans-75" x="230.615234"/>
      <use xlink:href="#DejaVuSans-6c" x="293.994141"/>
      <use xlink:href="#DejaVuSans-61" x="321.777344"/>
      <use xlink:href="#DejaVuSans-74" x="383.056641"/>
      <use xlink:href="#DejaVuSans-69" x="422.265625"/>
      <use xlink:href="#DejaVuSans-76" x="450.048828"/>
      <use xlink:href="#DejaVuSans-65" x="509.228516"/>
      <use xlink:href="#DejaVuSans-20" x="570.751953"/>
      <use xlink:href="#DejaVuSans-44" x="602.539062"/>
      <use xlink:href="#DejaVuSans-65" x="679.541016"/>
      <use xlink:href="#DejaVuSans-6e" x="741.064453"/>
      <use xlink:href="#DejaVuSans-73" x="804.443359"/>
      <use xlink:href="#DejaVuSans-69" x="856.542969"/>
      <use xlink:href="#DejaVuSans-74" x="884.326172"/>
      <use xlink:href="#DejaVuSans-79" x="923.535156"/>
     </g>
    </g>
   </g>
   <g id="line2d_29">
    <path d="M 496.214045 14.76 
L 496.214045 18.5056 
L 509.369226 18.5056 
L 509.369226 22.2512 
L 511.361841 22.2512 
L 511.361841 25.9968 
L 514.790983 25.9968 
L 514.790983 29.7424 
L 515.343475 29.7424 
L 515.343475 33.488 
L 515.769132 33.488 
L 515.769132 37.2336 
L 516.020668 37.2336 
L 516.020668 40.9792 
L 516.697358 40.9792 
L 516.697358 44.7248 
L 517.338612 44.7248 
L 517.338612 48.4704 
L 519.253171 48.4704 
L 519.294037 55.9616 
L 521.472973 55.9616 
L 521.472973 59.7072 
L 521.797755 59.7072 
L 521.797755 63.4528 
L 523.49696 63.4528 
L 523.49696 67.1984 
L 524.639076 67.1984 
L 524.639076 70.944 
L 524.927784 70.944 
L 524.927784 74.6896 
L 525.365883 74.6896 
L 525.365883 78.4352 
L 528.507083 78.4352 
L 528.507083 82.1808 
L 528.678274 82.1808 
L 528.678274 85.9264 
L 530.104181 85.9264 
L 530.104181 89.672 
L 530.813736 89.672 
L 530.813736 93.4176 
L 534.543299 93.4176 
L 534.614635 100.9088 
L 535.108136 100.9088 
L 535.108136 104.6544 
L 535.913047 104.6544 
L 535.913047 108.4 
L 536.548289 108.4 
L 536.548289 112.1456 
L 539.993926 112.1456 
L 539.993926 115.8912 
L 542.307464 115.8912 
L 542.307464 119.6368 
L 543.831608 119.6368 
L 543.831608 123.3824 
L 546.321439 123.3824 
L 546.321439 127.128 
L 546.532246 127.128 
L 546.532246 130.8736 
L 548.756217 130.8736 
L 548.756217 134.6192 
L 551.494908 134.6192 
L 551.494908 138.3648 
L 553.219269 138.3648 
L 553.219269 142.1104 
L 556.558479 142.1104 
L 556.558479 145.856 
L 556.963892 145.856 
L 556.963892 149.6016 
L 557.122065 149.6016 
L 557.122065 153.3472 
L 557.39738 153.3472 
L 557.39738 157.0928 
L 558.632264 157.0928 
L 558.632264 160.8384 
L 559.673661 160.8384 
L 559.673661 164.584 
L 560.709079 164.584 
L 560.709079 168.3296 
L 563.174317 168.3296 
L 563.175306 175.8208 
L 565.769008 175.8208 
L 565.769008 179.5664 
L 567.785242 179.5664 
L 567.785242 183.312 
L 575.8264 183.312 
L 575.8264 187.0576 
L 583.125904 187.0576 
L 583.125904 190.8032 
L 583.681665 190.8032 
L 583.681665 194.5488 
L 585.457175 194.5488 
L 585.457175 198.2944 
L 587.38488 198.2944 
L 587.38488 202.04 
L 587.921628 202.04 
L 587.921628 205.7856 
L 588.714155 205.7856 
L 588.714155 209.5312 
L 589.565512 209.5312 
L 589.565512 213.2768 
L 591.327587 213.2768 
L 591.327587 217.0224 
L 591.748511 217.0224 
L 591.748511 220.768 
L 594.287228 220.768 
L 594.287228 224.5136 
L 599.1391 224.5136 
L 599.1391 228.2592 
L 599.513212 228.2592 
L 599.513212 232.0048 
L 599.789718 232.0048 
L 599.789718 235.7504 
L 602.541324 235.7504 
L 602.541324 239.496 
L 605.403751 239.496 
L 605.403751 243.2416 
L 605.568439 243.2416 
L 605.568439 246.9872 
L 612.238365 246.9872 
L 612.238365 250.7328 
L 614.004628 250.7328 
L 614.004628 254.4784 
L 614.839592 254.4784 
L 614.839592 258.224 
L 619.2392 258.224 
L 619.2392 261.9696 
L 632.163714 261.9696 
L 632.163714 265.7152 
L 633.643195 265.7152 
L 633.643195 269.4608 
L 639.464085 269.4608 
L 639.556928 276.952 
L 642.658765 276.952 
L 642.658765 280.6976 
L 643.801545 280.6976 
L 643.801545 284.4432 
L 644.120613 284.4432 
L 644.120613 288.1888 
L 645.858232 288.1888 
L 645.858232 291.9344 
L 651.558823 291.9344 
L 651.634898 299.4256 
L 652.767722 299.4256 
L 652.767722 303.1712 
L 656.602728 303.1712 
L 656.602728 306.9168 
L 661.773243 306.9168 
L 661.773243 310.6624 
L 662.400984 310.6624 
L 662.400984 314.408 
L 663.647456 314.408 
L 663.647456 318.1536 
L 664.790537 318.1536 
L 664.790537 321.8992 
L 677.79233 321.8992 
L 677.79233 325.6448 
L 685.701206 325.6448 
L 685.701206 329.3904 
L 693.271506 329.3904 
L 693.271506 333.136 
L 694.741537 333.136 
L 694.741537 336.8816 
L 703.532363 336.8816 
L 703.532363 340.6272 
L 704.930307 340.6272 
L 704.930307 344.3728 
L 705.300964 344.3728 
L 705.300964 348.1184 
L 707.428614 348.1184 
L 707.428614 351.864 
L 709.455113 351.864 
L 709.455113 355.6096 
L 716.385376 355.6096 
L 716.385376 359.3552 
L 731.94983 359.3552 
L 731.95786 366.8464 
L 741.942272 366.8464 
L 741.942272 370.592 
L 744.969389 370.592 
L 744.969389 374.3376 
L 755.474273 374.3376 
L 755.474273 378.0832 
L 758.845742 378.0832 
L 758.845742 381.8288 
L 761.88213 381.8288 
L 761.88213 385.5744 
L 790.283286 385.5744 
L 790.283286 389.32 
L 790.283286 389.32 
" clip-path="url(#p43a5e2f651)" style="fill: none; stroke: #808080; stroke-width: 1.5; stroke-linecap: square"/>
   </g>
   <g id="line2d_30">
    <path d="M 496.184652 14.76 
L 496.184652 18.5056 
L 499.715802 18.5056 
L 499.715802 22.2512 
L 511.331915 22.2512 
L 511.331915 25.9968 
L 514.546118 25.9968 
L 514.546118 29.7424 
L 520.249125 29.7424 
L 520.249125 33.488 
L 523.803133 33.488 
L 523.803133 37.2336 
L 524.061312 37.2336 
L 524.061312 40.9792 
L 524.821682 40.9792 
L 524.821682 44.7248 
L 529.593728 44.7248 
L 529.593728 48.4704 
L 532.561186 48.4704 
L 532.561186 52.216 
L 532.904908 52.216 
L 532.904908 55.9616 
L 533.23387 55.9616 
L 533.23387 59.7072 
L 535.303737 59.7072 
L 535.303737 63.4528 
L 539.42521 63.4528 
L 539.42521 67.1984 
L 539.960876 67.1984 
L 540.069131 74.6896 
L 540.579467 74.6896 
L 540.579467 78.4352 
L 541.039716 78.4352 
L 541.039716 82.1808 
L 542.204805 82.1808 
L 542.204805 85.9264 
L 543.874277 85.9264 
L 543.874277 89.672 
L 547.504159 89.672 
L 547.504159 93.4176 
L 549.70731 93.4176 
L 549.70731 97.1632 
L 550.180058 97.1632 
L 550.180058 100.9088 
L 551.09205 100.9088 
L 551.09205 104.6544 
L 552.112171 104.6544 
L 552.112171 108.4 
L 553.644897 108.4 
L 553.644897 112.1456 
L 554.604853 112.1456 
L 554.604853 115.8912 
L 556.86728 115.8912 
L 556.86728 119.6368 
L 560.109995 119.6368 
L 560.109995 123.3824 
L 563.302805 123.3824 
L 563.302805 127.128 
L 564.521183 127.128 
L 564.521183 130.8736 
L 565.856461 130.8736 
L 565.856461 134.6192 
L 569.149041 134.6192 
L 569.149041 138.3648 
L 573.186523 138.3648 
L 573.186523 142.1104 
L 573.539031 142.1104 
L 573.539031 145.856 
L 584.65799 145.856 
L 584.710711 153.3472 
L 588.172369 153.3472 
L 588.172369 157.0928 
L 588.555875 157.0928 
L 588.555875 160.8384 
L 589.969112 160.8384 
L 589.969112 164.584 
L 594.415697 164.584 
L 594.415697 168.3296 
L 601.68086 168.3296 
L 601.68086 172.0752 
L 602.543954 172.0752 
L 602.543954 175.8208 
L 604.192423 175.8208 
L 604.192423 179.5664 
L 605.054085 179.5664 
L 605.054085 183.312 
L 611.811413 183.312 
L 611.811413 187.0576 
L 613.65774 187.0576 
L 613.65774 190.8032 
L 614.12749 190.8032 
L 614.12749 194.5488 
L 616.384784 194.5488 
L 616.384784 198.2944 
L 616.593545 198.2944 
L 616.593545 202.04 
L 616.883518 202.04 
L 616.883518 205.7856 
L 618.679187 205.7856 
L 618.679187 209.5312 
L 621.574879 209.5312 
L 621.574879 213.2768 
L 622.75739 213.2768 
L 622.75739 217.0224 
L 633.093352 217.0224 
L 633.093352 220.768 
L 633.732907 220.768 
L 633.732907 224.5136 
L 635.573135 224.5136 
L 635.573135 228.2592 
L 637.538449 228.2592 
L 637.538449 232.0048 
L 639.708471 232.0048 
L 639.708471 235.7504 
L 648.37704 235.7504 
L 648.37704 239.496 
L 648.746558 239.496 
L 648.746558 243.2416 
L 649.891619 243.2416 
L 649.891619 246.9872 
L 650.958347 246.9872 
L 650.958347 250.7328 
L 655.351261 250.7328 
L 655.351261 254.4784 
L 655.899824 254.4784 
L 655.899824 258.224 
L 660.698191 258.224 
L 660.698191 261.9696 
L 662.044291 261.9696 
L 662.044291 265.7152 
L 662.719334 265.7152 
L 662.719334 269.4608 
L 671.558004 269.4608 
L 671.558004 273.2064 
L 671.941629 273.2064 
L 671.941629 276.952 
L 677.286991 276.952 
L 677.286991 280.6976 
L 678.757812 280.6976 
L 678.757812 284.4432 
L 682.756528 284.4432 
L 682.756528 288.1888 
L 687.093035 288.1888 
L 687.093035 291.9344 
L 690.093833 291.9344 
L 690.093833 295.68 
L 690.296086 295.68 
L 690.296086 299.4256 
L 697.320945 299.4256 
L 697.320945 303.1712 
L 701.973701 303.1712 
L 701.973701 306.9168 
L 702.128766 306.9168 
L 702.128766 310.6624 
L 703.553989 310.6624 
L 703.553989 314.408 
L 709.900267 314.408 
L 709.900267 318.1536 
L 715.096821 318.1536 
L 715.096821 321.8992 
L 720.603718 321.8992 
L 720.603718 325.6448 
L 721.215841 325.6448 
L 721.215841 329.3904 
L 724.359979 329.3904 
L 724.359979 333.136 
L 725.508234 333.136 
L 725.508234 336.8816 
L 726.087734 336.8816 
L 726.087734 340.6272 
L 727.698109 340.6272 
L 727.784931 348.1184 
L 729.793519 348.1184 
L 729.793519 351.864 
L 733.018293 351.864 
L 733.018293 355.6096 
L 738.794846 355.6096 
L 738.794846 359.3552 
L 750.52892 359.3552 
L 750.52892 363.1008 
L 758.085324 363.1008 
L 758.085324 366.8464 
L 758.792202 366.8464 
L 758.792202 370.592 
L 763.957428 370.592 
L 763.957428 374.3376 
L 765.119308 374.3376 
L 765.119308 378.0832 
L 766.302978 378.0832 
L 766.302978 381.8288 
L 775.802229 381.8288 
L 775.802229 385.5744 
L 813.657328 385.5744 
L 813.657328 389.32 
L 813.657328 389.32 
" clip-path="url(#p43a5e2f651)" style="fill: none; stroke: #ffa500; stroke-width: 1.5; stroke-linecap: square"/>
   </g>
   <g id="line2d_31">
    <path d="M 497.546768 14.76 
L 497.546768 18.5056 
L 516.278373 18.5056 
L 516.278373 22.2512 
L 520.478551 22.2512 
L 520.478551 25.9968 
L 521.311013 25.9968 
L 521.311013 29.7424 
L 526.122955 29.7424 
L 526.122955 33.488 
L 527.318243 33.488 
L 527.318243 37.2336 
L 529.743013 37.2336 
L 529.804661 44.7248 
L 530.638258 44.7248 
L 530.638258 48.4704 
L 531.434993 48.4704 
L 531.434993 52.216 
L 536.020089 52.216 
L 536.020089 55.9616 
L 536.244967 55.9616 
L 536.244967 59.7072 
L 539.692912 59.7072 
L 539.692912 63.4528 
L 540.894145 63.4528 
L 540.894145 67.1984 
L 542.282891 67.1984 
L 542.282891 70.944 
L 545.078022 70.944 
L 545.078022 74.6896 
L 547.690266 74.6896 
L 547.690266 78.4352 
L 548.13141 78.4352 
L 548.13141 82.1808 
L 549.991857 82.1808 
L 549.991857 85.9264 
L 550.485892 85.9264 
L 550.485892 89.672 
L 551.709012 89.672 
L 551.709012 93.4176 
L 553.388618 93.4176 
L 553.388618 97.1632 
L 554.343774 97.1632 
L 554.343774 100.9088 
L 554.557141 100.9088 
L 554.656396 112.1456 
L 554.704573 112.1456 
L 554.704573 115.8912 
L 555.185507 115.8912 
L 555.185507 119.6368 
L 557.737601 119.6368 
L 557.737601 123.3824 
L 558.020592 123.3824 
L 558.020592 127.128 
L 558.132532 127.128 
L 558.210641 134.6192 
L 559.475301 134.6192 
L 559.475301 138.3648 
L 559.939011 138.3648 
L 559.939011 142.1104 
L 561.759586 142.1104 
L 561.759586 145.856 
L 564.715082 145.856 
L 564.715082 149.6016 
L 569.125379 149.6016 
L 569.125379 153.3472 
L 569.929431 153.3472 
L 569.929431 157.0928 
L 571.807189 157.0928 
L 571.807189 160.8384 
L 572.791399 160.8384 
L 572.791399 164.584 
L 573.014943 164.584 
L 573.014943 168.3296 
L 576.902723 168.3296 
L 576.902723 172.0752 
L 577.570437 172.0752 
L 577.570437 175.8208 
L 580.380512 175.8208 
L 580.380512 179.5664 
L 581.81985 179.5664 
L 581.81985 183.312 
L 583.511947 183.312 
L 583.511947 187.0576 
L 585.19934 187.0576 
L 585.19934 190.8032 
L 603.322131 190.8032 
L 603.322131 194.5488 
L 606.224695 194.5488 
L 606.224695 198.2944 
L 612.186538 198.2944 
L 612.186538 202.04 
L 612.332245 202.04 
L 612.332245 205.7856 
L 612.553954 205.7856 
L 612.553954 209.5312 
L 619.748483 209.5312 
L 619.748483 213.2768 
L 622.406874 213.2768 
L 622.406874 217.0224 
L 626.673857 217.0224 
L 626.673857 220.768 
L 627.163997 220.768 
L 627.163997 224.5136 
L 637.402862 224.5136 
L 637.402862 228.2592 
L 640.941543 228.2592 
L 640.941543 232.0048 
L 644.613632 232.0048 
L 644.687569 239.496 
L 645.104286 239.496 
L 645.104286 243.2416 
L 646.853919 243.2416 
L 646.853919 246.9872 
L 649.098247 246.9872 
L 649.098247 250.7328 
L 652.336474 250.7328 
L 652.336474 254.4784 
L 652.521348 254.4784 
L 652.521348 258.224 
L 676.018013 258.224 
L 676.018013 261.9696 
L 677.783173 261.9696 
L 677.783173 265.7152 
L 684.982152 265.7152 
L 684.982152 269.4608 
L 685.925007 269.4608 
L 685.925007 273.2064 
L 692.387899 273.2064 
L 692.387899 276.952 
L 693.052098 276.952 
L 693.052098 280.6976 
L 696.499441 280.6976 
L 696.499441 284.4432 
L 696.755608 284.4432 
L 696.755608 288.1888 
L 699.832508 288.1888 
L 699.832508 291.9344 
L 700.594158 291.9344 
L 700.594158 295.68 
L 702.515443 295.68 
L 702.515443 299.4256 
L 705.962346 299.4256 
L 705.962346 303.1712 
L 707.920147 303.1712 
L 707.920147 306.9168 
L 709.730001 306.9168 
L 709.730001 310.6624 
L 713.699396 310.6624 
L 713.699396 314.408 
L 722.452994 314.408 
L 722.498446 321.8992 
L 725.508234 321.8992 
L 725.508234 325.6448 
L 728.685092 325.6448 
L 728.685092 329.3904 
L 730.35019 329.3904 
L 730.35019 333.136 
L 734.02729 333.136 
L 734.02729 336.8816 
L 736.074871 336.8816 
L 736.074871 340.6272 
L 740.227706 340.6272 
L 740.227706 344.3728 
L 742.307707 344.3728 
L 742.307707 348.1184 
L 747.884053 348.1184 
L 747.884053 351.864 
L 755.649062 351.864 
L 755.649062 355.6096 
L 755.929633 355.6096 
L 755.929633 359.3552 
L 757.362076 359.3552 
L 757.362076 363.1008 
L 760.633428 363.1008 
L 760.633428 366.8464 
L 767.804167 366.8464 
L 767.804167 370.592 
L 777.753193 370.592 
L 777.753193 374.3376 
L 779.047339 374.3376 
L 779.047339 378.0832 
L 781.658381 378.0832 
L 781.658381 381.8288 
L 796.900079 381.8288 
L 796.900079 385.5744 
L 832.023469 385.5744 
L 832.023469 389.32 
L 832.023469 389.32 
" clip-path="url(#p43a5e2f651)" style="fill: none; stroke: #0000ff; stroke-width: 1.5; stroke-linecap: square"/>
   </g>
   <g id="line2d_32">
    <path d="M 660.566125 389.32 
L 660.566125 14.76 
" clip-path="url(#p43a5e2f651)" style="fill: none; stroke-dasharray: 11.1,4.8; stroke-dashoffset: 0; stroke: #ffa500; stroke-width: 3"/>
   </g>
   <g id="patch_89">
    <path d="M 478.325 389.32 
L 478.325 14.76 
" style="fill: none; stroke: #000000; stroke-width: 0.8; stroke-linejoin: miter; stroke-linecap: square"/>
   </g>
   <g id="patch_90">
    <path d="M 478.325 389.32 
L 848.866253 389.32 
" style="fill: none; stroke: #000000; stroke-width: 0.8; stroke-linejoin: miter; stroke-linecap: square"/>
   </g>
   <g id="legend_2">
    <g id="patch_91">
     <path d="M 636.595941 66.794375 
L 841.866253 66.794375 
Q 843.866253 66.794375 843.866253 64.794375 
L 843.866253 21.76 
Q 843.866253 19.76 841.866253 19.76 
L 636.595941 19.76 
Q 634.595941 19.76 634.595941 21.76 
L 634.595941 64.794375 
Q 634.595941 66.794375 636.595941 66.794375 
z
" style="fill: #ffffff; opacity: 0.8; stroke: #000000; stroke-linejoin: miter"/>
    </g>
    <g id="patch_92">
     <path d="M 638.595941 31.358438 
L 658.595941 31.358438 
L 658.595941 24.358438 
L 638.595941 24.358438 
z
" style="fill: #ff0000; opacity: 0.8; stroke: #ff0000; stroke-linejoin: miter"/>
    </g>
    <g id="text_35">
     <!-- Less than WT Log Fluorescence -->
     <g transform="translate(666.595941 31.358438) scale(0.1 -0.1)">
      <defs>
       <path id="DejaVuSans-4c" d="M 628 4666 
L 1259 4666 
L 1259 531 
L 3531 531 
L 3531 0 
L 628 0 
L 628 4666 
z
" transform="scale(0.015625)"/>
       <path id="DejaVuSans-68" d="M 3513 2113 
L 3513 0 
L 2938 0 
L 2938 2094 
Q 2938 2591 2744 2837 
Q 2550 3084 2163 3084 
Q 1697 3084 1428 2787 
Q 1159 2491 1159 1978 
L 1159 0 
L 581 0 
L 581 4863 
L 1159 4863 
L 1159 2956 
Q 1366 3272 1645 3428 
Q 1925 3584 2291 3584 
Q 2894 3584 3203 3211 
Q 3513 2838 3513 2113 
z
" transform="scale(0.015625)"/>
       <path id="DejaVuSans-57" d="M 213 4666 
L 850 4666 
L 1831 722 
L 2809 4666 
L 3519 4666 
L 4500 722 
L 5478 4666 
L 6119 4666 
L 4947 0 
L 4153 0 
L 3169 4050 
L 2175 0 
L 1381 0 
L 213 4666 
z
" transform="scale(0.015625)"/>
      </defs>
      <use xlink:href="#DejaVuSans-4c"/>
      <use xlink:href="#DejaVuSans-65" x="53.962891"/>
      <use xlink:href="#DejaVuSans-73" x="115.486328"/>
      <use xlink:href="#DejaVuSans-73" x="167.585938"/>
      <use xlink:href="#DejaVuSans-20" x="219.685547"/>
      <use xlink:href="#DejaVuSans-74" x="251.472656"/>
      <use xlink:href="#DejaVuSans-68" x="290.681641"/>
      <use xlink:href="#DejaVuSans-61" x="354.060547"/>
      <use xlink:href="#DejaVuSans-6e" x="415.339844"/>
      <use xlink:href="#DejaVuSans-20" x="478.71875"/>
      <use xlink:href="#DejaVuSans-57" x="510.505859"/>
      <use xlink:href="#DejaVuSans-54" x="609.382812"/>
      <use xlink:href="#DejaVuSans-20" x="670.466797"/>
      <use xlink:href="#DejaVuSans-4c" x="702.253906"/>
      <use xlink:href="#DejaVuSans-6f" x="756.216797"/>
      <use xlink:href="#DejaVuSans-67" x="817.398438"/>
      <use xlink:href="#DejaVuSans-20" x="880.875"/>
      <use xlink:href="#DejaVuSans-46" x="912.662109"/>
      <use xlink:href="#DejaVuSans-6c" x="970.181641"/>
      <use xlink:href="#DejaVuSans-75" x="997.964844"/>
      <use xlink:href="#DejaVuSans-6f" x="1061.34375"/>
      <use xlink:href="#DejaVuSans-72" x="1122.525391"/>
      <use xlink:href="#DejaVuSans-65" x="1161.388672"/>
      <use xlink:href="#DejaVuSans-73" x="1222.912109"/>
      <use xlink:href="#DejaVuSans-63" x="1275.011719"/>
      <use xlink:href="#DejaVuSans-65" x="1329.992188"/>
      <use xlink:href="#DejaVuSans-6e" x="1391.515625"/>
      <use xlink:href="#DejaVuSans-63" x="1454.894531"/>
      <use xlink:href="#DejaVuSans-65" x="1509.875"/>
     </g>
    </g>
    <g id="patch_93">
     <path d="M 638.595941 46.036563 
L 658.595941 46.036563 
L 658.595941 39.036563 
L 638.595941 39.036563 
z
" style="fill: #ffa500; opacity: 0.8; stroke: #ffa500; stroke-linejoin: miter"/>
    </g>
    <g id="text_36">
     <!-- Mean WT Log Fluorescence -->
     <g transform="translate(666.595941 46.036563) scale(0.1 -0.1)">
      <use xlink:href="#DejaVuSans-4d"/>
      <use xlink:href="#DejaVuSans-65" x="86.279297"/>
      <use xlink:href="#DejaVuSans-61" x="147.802734"/>
      <use xlink:href="#DejaVuSans-6e" x="209.082031"/>
      <use xlink:href="#DejaVuSans-20" x="272.460938"/>
      <use xlink:href="#DejaVuSans-57" x="304.248047"/>
      <use xlink:href="#DejaVuSans-54" x="403.125"/>
      <use xlink:href="#DejaVuSans-20" x="464.208984"/>
      <use xlink:href="#DejaVuSans-4c" x="495.996094"/>
      <use xlink:href="#DejaVuSans-6f" x="549.958984"/>
      <use xlink:href="#DejaVuSans-67" x="611.140625"/>
      <use xlink:href="#DejaVuSans-20" x="674.617188"/>
      <use xlink:href="#DejaVuSans-46" x="706.404297"/>
      <use xlink:href="#DejaVuSans-6c" x="763.923828"/>
      <use xlink:href="#DejaVuSans-75" x="791.707031"/>
      <use xlink:href="#DejaVuSans-6f" x="855.085938"/>
      <use xlink:href="#DejaVuSans-72" x="916.267578"/>
      <use xlink:href="#DejaVuSans-65" x="955.130859"/>
      <use xlink:href="#DejaVuSans-73" x="1016.654297"/>
      <use xlink:href="#DejaVuSans-63" x="1068.753906"/>
      <use xlink:href="#DejaVuSans-65" x="1123.734375"/>
      <use xlink:href="#DejaVuSans-6e" x="1185.257812"/>
      <use xlink:href="#DejaVuSans-63" x="1248.636719"/>
      <use xlink:href="#DejaVuSans-65" x="1303.617188"/>
     </g>
    </g>
    <g id="patch_94">
     <path d="M 638.595941 60.714688 
L 658.595941 60.714688 
L 658.595941 53.714688 
L 638.595941 53.714688 
z
" style="fill: #008000; opacity: 0.8; stroke: #008000; stroke-linejoin: miter"/>
    </g>
    <g id="text_37">
     <!-- Greater than WT Log Fluorescence -->
     <g transform="translate(666.595941 60.714688) scale(0.1 -0.1)">
      <defs>
       <path id="DejaVuSans-47" d="M 3809 666 
L 3809 1919 
L 2778 1919 
L 2778 2438 
L 4434 2438 
L 4434 434 
Q 4069 175 3628 42 
Q 3188 -91 2688 -91 
Q 1594 -91 976 548 
Q 359 1188 359 2328 
Q 359 3472 976 4111 
Q 1594 4750 2688 4750 
Q 3144 4750 3555 4637 
Q 3966 4525 4313 4306 
L 4313 3634 
Q 3963 3931 3569 4081 
Q 3175 4231 2741 4231 
Q 1884 4231 1454 3753 
Q 1025 3275 1025 2328 
Q 1025 1384 1454 906 
Q 1884 428 2741 428 
Q 3075 428 3337 486 
Q 3600 544 3809 666 
z
" transform="scale(0.015625)"/>
      </defs>
      <use xlink:href="#DejaVuSans-47"/>
      <use xlink:href="#DejaVuSans-72" x="77.490234"/>
      <use xlink:href="#DejaVuSans-65" x="116.353516"/>
      <use xlink:href="#DejaVuSans-61" x="177.876953"/>
      <use xlink:href="#DejaVuSans-74" x="239.15625"/>
      <use xlink:href="#DejaVuSans-65" x="278.365234"/>
      <use xlink:href="#DejaVuSans-72" x="339.888672"/>
      <use xlink:href="#DejaVuSans-20" x="381.001953"/>
      <use xlink:href="#DejaVuSans-74" x="412.789062"/>
      <use xlink:href="#DejaVuSans-68" x="451.998047"/>
      <use xlink:href="#DejaVuSans-61" x="515.376953"/>
      <use xlink:href="#DejaVuSans-6e" x="576.65625"/>
      <use xlink:href="#DejaVuSans-20" x="640.035156"/>
      <use xlink:href="#DejaVuSans-57" x="671.822266"/>
      <use xlink:href="#DejaVuSans-54" x="770.699219"/>
      <use xlink:href="#DejaVuSans-20" x="831.783203"/>
      <use xlink:href="#DejaVuSans-4c" x="863.570312"/>
      <use xlink:href="#DejaVuSans-6f" x="917.533203"/>
      <use xlink:href="#DejaVuSans-67" x="978.714844"/>
      <use xlink:href="#DejaVuSans-20" x="1042.191406"/>
      <use xlink:href="#DejaVuSans-46" x="1073.978516"/>
      <use xlink:href="#DejaVuSans-6c" x="1131.498047"/>
      <use xlink:href="#DejaVuSans-75" x="1159.28125"/>
      <use xlink:href="#DejaVuSans-6f" x="1222.660156"/>
      <use xlink:href="#DejaVuSans-72" x="1283.841797"/>
      <use xlink:href="#DejaVuSans-65" x="1322.705078"/>
      <use xlink:href="#DejaVuSans-73" x="1384.228516"/>
      <use xlink:href="#DejaVuSans-63" x="1436.328125"/>
      <use xlink:href="#DejaVuSans-65" x="1491.308594"/>
      <use xlink:href="#DejaVuSans-6e" x="1552.832031"/>
      <use xlink:href="#DejaVuSans-63" x="1616.210938"/>
      <use xlink:href="#DejaVuSans-65" x="1671.191406"/>
     </g>
    </g>
   </g>
  </g>
 </g>
 <defs>
  <clipPath id="p18159a5869">
   <rect x="54.92" y="14.76" width="370.541253" height="374.56"/>
  </clipPath>
  <clipPath id="p43a5e2f651">
   <rect x="478.325" y="14.76" width="370.541253" height="374.56"/>
  </clipPath>
 </defs>
</svg>
