<?xml version="1.0" encoding="utf-8" standalone="no"?>
<!DOCTYPE svg PUBLIC "-//W3C//DTD SVG 1.1//EN"
  "http://www.w3.org/Graphics/SVG/1.1/DTD/svg11.dtd">
<svg xmlns:xlink="http://www.w3.org/1999/xlink" width="864pt" height="432pt" viewBox="0 0 864 432" xmlns="http://www.w3.org/2000/svg" version="1.1">
 <metadata>
  <rdf:RDF xmlns:dc="http://purl.org/dc/elements/1.1/" xmlns:cc="http://creativecommons.org/ns#" xmlns:rdf="http://www.w3.org/1999/02/22-rdf-syntax-ns#">
   <cc:Work>
    <dc:type rdf:resource="http://purl.org/dc/dcmitype/StillImage"/>
    <dc:date>2024-12-10T16:11:18.397417</dc:date>
    <dc:format>image/svg+xml</dc:format>
    <dc:creator>
     <cc:Agent>
      <dc:title>Matplotlib v3.8.0, https://matplotlib.org/</dc:title>
     </cc:Agent>
    </dc:creator>
   </cc:Work>
  </rdf:RDF>
 </metadata>
 <defs>
  <style type="text/css">*{stroke-linejoin: round; stroke-linecap: butt}</style>
 </defs>
 <g id="figure_1">
  <g id="patch_1">
   <path d="M 0 432 
L 864 432 
L 864 0 
L 0 0 
z
" style="fill: #ffffff"/>
  </g>
  <g id="axes_1">
   <g id="patch_2">
    <path d="M 45.38 389.32 
L 421.334786 389.32 
L 421.334786 14.76 
L 45.38 14.76 
z
" style="fill: #ffffff"/>
   </g>
   <g id="patch_3">
    <path d="M 140.183271 389.32 
L 140.183271 14.76 
L 248.822723 14.76 
L 248.822723 389.32 
z
" clip-path="url(#pb5543f676c)" style="fill: #ff0000; opacity: 0.1; stroke: #ff0000; stroke-linejoin: miter"/>
   </g>
   <g id="patch_4">
    <path d="M 248.822723 389.32 
L 248.822723 14.76 
L 273.56641 14.76 
L 273.56641 389.32 
z
" clip-path="url(#pb5543f676c)" style="fill: #008000; opacity: 0.1; stroke: #008000; stroke-linejoin: miter"/>
   </g>
   <g id="patch_5">
    <path d="M 157.172441 389.32 
L 161.148633 389.32 
L 161.148633 386.881308 
L 157.172441 386.881308 
z
" clip-path="url(#pb5543f676c)" style="fill: #808080; fill-opacity: 0.4; stroke: #000000; stroke-linejoin: miter"/>
   </g>
   <g id="patch_6">
    <path d="M 161.148633 389.32 
L 165.124825 389.32 
L 165.124825 389.32 
L 161.148633 389.32 
z
" clip-path="url(#pb5543f676c)" style="fill: #808080; fill-opacity: 0.4; stroke: #000000; stroke-linejoin: miter"/>
   </g>
   <g id="patch_7">
    <path d="M 165.124825 389.32 
L 169.101017 389.32 
L 169.101017 389.32 
L 165.124825 389.32 
z
" clip-path="url(#pb5543f676c)" style="fill: #808080; fill-opacity: 0.4; stroke: #000000; stroke-linejoin: miter"/>
   </g>
   <g id="patch_8">
    <path d="M 169.101017 389.32 
L 173.077209 389.32 
L 173.077209 389.32 
L 169.101017 389.32 
z
" clip-path="url(#pb5543f676c)" style="fill: #808080; fill-opacity: 0.4; stroke: #000000; stroke-linejoin: miter"/>
   </g>
   <g id="patch_9">
    <path d="M 173.077209 389.32 
L 177.053401 389.32 
L 177.053401 388.100654 
L 173.077209 388.100654 
z
" clip-path="url(#pb5543f676c)" style="fill: #808080; fill-opacity: 0.4; stroke: #000000; stroke-linejoin: miter"/>
   </g>
   <g id="patch_10">
    <path d="M 177.053401 389.32 
L 181.029593 389.32 
L 181.029593 386.881308 
L 177.053401 386.881308 
z
" clip-path="url(#pb5543f676c)" style="fill: #808080; fill-opacity: 0.4; stroke: #000000; stroke-linejoin: miter"/>
   </g>
   <g id="patch_11">
    <path d="M 181.029593 389.32 
L 185.005785 389.32 
L 185.005785 386.881308 
L 181.029593 386.881308 
z
" clip-path="url(#pb5543f676c)" style="fill: #808080; fill-opacity: 0.4; stroke: #000000; stroke-linejoin: miter"/>
   </g>
   <g id="patch_12">
    <path d="M 185.005785 389.32 
L 188.981977 389.32 
L 188.981977 386.881308 
L 185.005785 386.881308 
z
" clip-path="url(#pb5543f676c)" style="fill: #808080; fill-opacity: 0.4; stroke: #000000; stroke-linejoin: miter"/>
   </g>
   <g id="patch_13">
    <path d="M 188.981977 389.32 
L 192.958169 389.32 
L 192.958169 380.784579 
L 188.981977 380.784579 
z
" clip-path="url(#pb5543f676c)" style="fill: #808080; fill-opacity: 0.4; stroke: #000000; stroke-linejoin: miter"/>
   </g>
   <g id="patch_14">
    <path d="M 192.958169 389.32 
L 196.934361 389.32 
L 196.934361 383.223271 
L 192.958169 383.223271 
z
" clip-path="url(#pb5543f676c)" style="fill: #808080; fill-opacity: 0.4; stroke: #000000; stroke-linejoin: miter"/>
   </g>
   <g id="patch_15">
    <path d="M 196.934361 389.32 
L 200.910553 389.32 
L 200.910553 367.371774 
L 196.934361 367.371774 
z
" clip-path="url(#pb5543f676c)" style="fill: #808080; fill-opacity: 0.4; stroke: #000000; stroke-linejoin: miter"/>
   </g>
   <g id="patch_16">
    <path d="M 200.910553 389.32 
L 204.886745 389.32 
L 204.886745 353.95897 
L 200.910553 353.95897 
z
" clip-path="url(#pb5543f676c)" style="fill: #808080; fill-opacity: 0.4; stroke: #000000; stroke-linejoin: miter"/>
   </g>
   <g id="patch_17">
    <path d="M 204.886745 389.32 
L 208.862937 389.32 
L 208.862937 324.694669 
L 204.886745 324.694669 
z
" clip-path="url(#pb5543f676c)" style="fill: #808080; fill-opacity: 0.4; stroke: #000000; stroke-linejoin: miter"/>
   </g>
   <g id="patch_18">
    <path d="M 208.862937 389.32 
L 212.839129 389.32 
L 212.839129 317.378594 
L 208.862937 317.378594 
z
" clip-path="url(#pb5543f676c)" style="fill: #808080; fill-opacity: 0.4; stroke: #000000; stroke-linejoin: miter"/>
   </g>
   <g id="patch_19">
    <path d="M 212.839129 389.32 
L 216.815321 389.32 
L 216.815321 291.772331 
L 212.839129 291.772331 
z
" clip-path="url(#pb5543f676c)" style="fill: #808080; fill-opacity: 0.4; stroke: #000000; stroke-linejoin: miter"/>
   </g>
   <g id="patch_20">
    <path d="M 216.815321 389.32 
L 220.791513 389.32 
L 220.791513 249.095225 
L 216.815321 249.095225 
z
" clip-path="url(#pb5543f676c)" style="fill: #808080; fill-opacity: 0.4; stroke: #000000; stroke-linejoin: miter"/>
   </g>
   <g id="patch_21">
    <path d="M 220.791513 389.32 
L 224.767705 389.32 
L 224.767705 173.495781 
L 220.791513 173.495781 
z
" clip-path="url(#pb5543f676c)" style="fill: #808080; fill-opacity: 0.4; stroke: #000000; stroke-linejoin: miter"/>
   </g>
   <g id="patch_22">
    <path d="M 224.767705 389.32 
L 228.743897 389.32 
L 228.743897 140.573443 
L 224.767705 140.573443 
z
" clip-path="url(#pb5543f676c)" style="fill: #808080; fill-opacity: 0.4; stroke: #000000; stroke-linejoin: miter"/>
   </g>
   <g id="patch_23">
    <path d="M 228.743897 389.32 
L 232.720088 389.32 
L 232.720088 202.760082 
L 228.743897 202.760082 
z
" clip-path="url(#pb5543f676c)" style="fill: #808080; fill-opacity: 0.4; stroke: #000000; stroke-linejoin: miter"/>
   </g>
   <g id="patch_24">
    <path d="M 232.720088 389.32 
L 236.69628 389.32 
L 236.69628 319.817286 
L 232.720088 319.817286 
z
" clip-path="url(#pb5543f676c)" style="fill: #808080; fill-opacity: 0.4; stroke: #000000; stroke-linejoin: miter"/>
   </g>
   <g id="patch_25">
    <path d="M 236.69628 389.32 
L 240.672472 389.32 
L 240.672472 375.907195 
L 236.69628 375.907195 
z
" clip-path="url(#pb5543f676c)" style="fill: #808080; fill-opacity: 0.4; stroke: #000000; stroke-linejoin: miter"/>
   </g>
   <g id="patch_26">
    <path d="M 240.672472 389.32 
L 244.648664 389.32 
L 244.648664 386.881308 
L 240.672472 386.881308 
z
" clip-path="url(#pb5543f676c)" style="fill: #808080; fill-opacity: 0.4; stroke: #000000; stroke-linejoin: miter"/>
   </g>
   <g id="patch_27">
    <path d="M 244.648664 389.32 
L 248.624856 389.32 
L 248.624856 382.003925 
L 244.648664 382.003925 
z
" clip-path="url(#pb5543f676c)" style="fill: #808080; fill-opacity: 0.4; stroke: #000000; stroke-linejoin: miter"/>
   </g>
   <g id="patch_28">
    <path d="M 248.624856 389.32 
L 252.601048 389.32 
L 252.601048 380.784579 
L 248.624856 380.784579 
z
" clip-path="url(#pb5543f676c)" style="fill: #808080; fill-opacity: 0.4; stroke: #000000; stroke-linejoin: miter"/>
   </g>
   <g id="patch_29">
    <path d="M 252.601048 389.32 
L 256.57724 389.32 
L 256.57724 379.565233 
L 252.601048 379.565233 
z
" clip-path="url(#pb5543f676c)" style="fill: #808080; fill-opacity: 0.4; stroke: #000000; stroke-linejoin: miter"/>
   </g>
   <g id="patch_30">
    <path d="M 64.462527 389.32 
L 78.053863 389.32 
L 78.053863 389.32 
L 64.462527 389.32 
z
" clip-path="url(#pb5543f676c)" style="fill: #ffa500; fill-opacity: 0.6; stroke: #000000; stroke-linejoin: miter"/>
   </g>
   <g id="patch_31">
    <path d="M 78.053863 389.32 
L 91.645199 389.32 
L 91.645199 389.32 
L 78.053863 389.32 
z
" clip-path="url(#pb5543f676c)" style="fill: #ffa500; fill-opacity: 0.6; stroke: #000000; stroke-linejoin: miter"/>
   </g>
   <g id="patch_32">
    <path d="M 91.645199 389.32 
L 105.236535 389.32 
L 105.236535 389.32 
L 91.645199 389.32 
z
" clip-path="url(#pb5543f676c)" style="fill: #ffa500; fill-opacity: 0.6; stroke: #000000; stroke-linejoin: miter"/>
   </g>
   <g id="patch_33">
    <path d="M 105.236535 389.32 
L 118.827872 389.32 
L 118.827872 389.32 
L 105.236535 389.32 
z
" clip-path="url(#pb5543f676c)" style="fill: #ffa500; fill-opacity: 0.6; stroke: #000000; stroke-linejoin: miter"/>
   </g>
   <g id="patch_34">
    <path d="M 118.827872 389.32 
L 132.419208 389.32 
L 132.419208 389.32 
L 118.827872 389.32 
z
" clip-path="url(#pb5543f676c)" style="fill: #ffa500; fill-opacity: 0.6; stroke: #000000; stroke-linejoin: miter"/>
   </g>
   <g id="patch_35">
    <path d="M 132.419208 389.32 
L 146.010544 389.32 
L 146.010544 389.32 
L 132.419208 389.32 
z
" clip-path="url(#pb5543f676c)" style="fill: #ffa500; fill-opacity: 0.6; stroke: #000000; stroke-linejoin: miter"/>
   </g>
   <g id="patch_36">
    <path d="M 146.010544 389.32 
L 159.60188 389.32 
L 159.60188 389.32 
L 146.010544 389.32 
z
" clip-path="url(#pb5543f676c)" style="fill: #ffa500; fill-opacity: 0.6; stroke: #000000; stroke-linejoin: miter"/>
   </g>
   <g id="patch_37">
    <path d="M 159.60188 389.32 
L 173.193216 389.32 
L 173.193216 389.32 
L 159.60188 389.32 
z
" clip-path="url(#pb5543f676c)" style="fill: #ffa500; fill-opacity: 0.6; stroke: #000000; stroke-linejoin: miter"/>
   </g>
   <g id="patch_38">
    <path d="M 173.193216 389.32 
L 186.784553 389.32 
L 186.784553 389.32 
L 173.193216 389.32 
z
" clip-path="url(#pb5543f676c)" style="fill: #ffa500; fill-opacity: 0.6; stroke: #000000; stroke-linejoin: miter"/>
   </g>
   <g id="patch_39">
    <path d="M 186.784553 389.32 
L 200.375889 389.32 
L 200.375889 389.32 
L 186.784553 389.32 
z
" clip-path="url(#pb5543f676c)" style="fill: #ffa500; fill-opacity: 0.6; stroke: #000000; stroke-linejoin: miter"/>
   </g>
   <g id="patch_40">
    <path d="M 200.375889 389.32 
L 213.967225 389.32 
L 213.967225 389.32 
L 200.375889 389.32 
z
" clip-path="url(#pb5543f676c)" style="fill: #ffa500; fill-opacity: 0.6; stroke: #000000; stroke-linejoin: miter"/>
   </g>
   <g id="patch_41">
    <path d="M 213.967225 389.32 
L 227.558561 389.32 
L 227.558561 389.32 
L 213.967225 389.32 
z
" clip-path="url(#pb5543f676c)" style="fill: #ffa500; fill-opacity: 0.6; stroke: #000000; stroke-linejoin: miter"/>
   </g>
   <g id="patch_42">
    <path d="M 227.558561 389.32 
L 241.149897 389.32 
L 241.149897 32.59619 
L 227.558561 32.59619 
z
" clip-path="url(#pb5543f676c)" style="fill: #ffa500; fill-opacity: 0.6; stroke: #000000; stroke-linejoin: miter"/>
   </g>
   <g id="patch_43">
    <path d="M 241.149897 389.32 
L 254.741234 389.32 
L 254.741234 389.32 
L 241.149897 389.32 
z
" clip-path="url(#pb5543f676c)" style="fill: #ffa500; fill-opacity: 0.6; stroke: #000000; stroke-linejoin: miter"/>
   </g>
   <g id="patch_44">
    <path d="M 254.741234 389.32 
L 268.33257 389.32 
L 268.33257 389.32 
L 254.741234 389.32 
z
" clip-path="url(#pb5543f676c)" style="fill: #ffa500; fill-opacity: 0.6; stroke: #000000; stroke-linejoin: miter"/>
   </g>
   <g id="patch_45">
    <path d="M 268.33257 389.32 
L 281.923906 389.32 
L 281.923906 389.32 
L 268.33257 389.32 
z
" clip-path="url(#pb5543f676c)" style="fill: #ffa500; fill-opacity: 0.6; stroke: #000000; stroke-linejoin: miter"/>
   </g>
   <g id="patch_46">
    <path d="M 281.923906 389.32 
L 295.515242 389.32 
L 295.515242 389.32 
L 281.923906 389.32 
z
" clip-path="url(#pb5543f676c)" style="fill: #ffa500; fill-opacity: 0.6; stroke: #000000; stroke-linejoin: miter"/>
   </g>
   <g id="patch_47">
    <path d="M 295.515242 389.32 
L 309.106579 389.32 
L 309.106579 389.32 
L 295.515242 389.32 
z
" clip-path="url(#pb5543f676c)" style="fill: #ffa500; fill-opacity: 0.6; stroke: #000000; stroke-linejoin: miter"/>
   </g>
   <g id="patch_48">
    <path d="M 309.106579 389.32 
L 322.697915 389.32 
L 322.697915 389.32 
L 309.106579 389.32 
z
" clip-path="url(#pb5543f676c)" style="fill: #ffa500; fill-opacity: 0.6; stroke: #000000; stroke-linejoin: miter"/>
   </g>
   <g id="patch_49">
    <path d="M 322.697915 389.32 
L 336.289251 389.32 
L 336.289251 389.32 
L 322.697915 389.32 
z
" clip-path="url(#pb5543f676c)" style="fill: #ffa500; fill-opacity: 0.6; stroke: #000000; stroke-linejoin: miter"/>
   </g>
   <g id="patch_50">
    <path d="M 336.289251 389.32 
L 349.880587 389.32 
L 349.880587 389.32 
L 336.289251 389.32 
z
" clip-path="url(#pb5543f676c)" style="fill: #ffa500; fill-opacity: 0.6; stroke: #000000; stroke-linejoin: miter"/>
   </g>
   <g id="patch_51">
    <path d="M 349.880587 389.32 
L 363.471923 389.32 
L 363.471923 389.32 
L 349.880587 389.32 
z
" clip-path="url(#pb5543f676c)" style="fill: #ffa500; fill-opacity: 0.6; stroke: #000000; stroke-linejoin: miter"/>
   </g>
   <g id="patch_52">
    <path d="M 363.471923 389.32 
L 377.06326 389.32 
L 377.06326 389.32 
L 363.471923 389.32 
z
" clip-path="url(#pb5543f676c)" style="fill: #ffa500; fill-opacity: 0.6; stroke: #000000; stroke-linejoin: miter"/>
   </g>
   <g id="patch_53">
    <path d="M 377.06326 389.32 
L 390.654596 389.32 
L 390.654596 389.32 
L 377.06326 389.32 
z
" clip-path="url(#pb5543f676c)" style="fill: #ffa500; fill-opacity: 0.6; stroke: #000000; stroke-linejoin: miter"/>
   </g>
   <g id="patch_54">
    <path d="M 390.654596 389.32 
L 404.245932 389.32 
L 404.245932 389.32 
L 390.654596 389.32 
z
" clip-path="url(#pb5543f676c)" style="fill: #ffa500; fill-opacity: 0.6; stroke: #000000; stroke-linejoin: miter"/>
   </g>
   <g id="patch_55">
    <path d="M 62.468854 389.32 
L 76.06019 389.32 
L 76.06019 389.32 
L 62.468854 389.32 
z
" clip-path="url(#pb5543f676c)" style="fill: #0000ff; fill-opacity: 0.6; stroke: #000000; stroke-linejoin: miter"/>
   </g>
   <g id="patch_56">
    <path d="M 76.06019 389.32 
L 89.651526 389.32 
L 89.651526 389.32 
L 76.06019 389.32 
z
" clip-path="url(#pb5543f676c)" style="fill: #0000ff; fill-opacity: 0.6; stroke: #000000; stroke-linejoin: miter"/>
   </g>
   <g id="patch_57">
    <path d="M 89.651526 389.32 
L 103.242863 389.32 
L 103.242863 389.32 
L 89.651526 389.32 
z
" clip-path="url(#pb5543f676c)" style="fill: #0000ff; fill-opacity: 0.6; stroke: #000000; stroke-linejoin: miter"/>
   </g>
   <g id="patch_58">
    <path d="M 103.242863 389.32 
L 116.834199 389.32 
L 116.834199 389.32 
L 103.242863 389.32 
z
" clip-path="url(#pb5543f676c)" style="fill: #0000ff; fill-opacity: 0.6; stroke: #000000; stroke-linejoin: miter"/>
   </g>
   <g id="patch_59">
    <path d="M 116.834199 389.32 
L 130.425535 389.32 
L 130.425535 389.32 
L 116.834199 389.32 
z
" clip-path="url(#pb5543f676c)" style="fill: #0000ff; fill-opacity: 0.6; stroke: #000000; stroke-linejoin: miter"/>
   </g>
   <g id="patch_60">
    <path d="M 130.425535 389.32 
L 144.016871 389.32 
L 144.016871 389.32 
L 130.425535 389.32 
z
" clip-path="url(#pb5543f676c)" style="fill: #0000ff; fill-opacity: 0.6; stroke: #000000; stroke-linejoin: miter"/>
   </g>
   <g id="patch_61">
    <path d="M 144.016871 389.32 
L 157.608207 389.32 
L 157.608207 389.32 
L 144.016871 389.32 
z
" clip-path="url(#pb5543f676c)" style="fill: #0000ff; fill-opacity: 0.6; stroke: #000000; stroke-linejoin: miter"/>
   </g>
   <g id="patch_62">
    <path d="M 157.608207 389.32 
L 171.199544 389.32 
L 171.199544 389.32 
L 157.608207 389.32 
z
" clip-path="url(#pb5543f676c)" style="fill: #0000ff; fill-opacity: 0.6; stroke: #000000; stroke-linejoin: miter"/>
   </g>
   <g id="patch_63">
    <path d="M 171.199544 389.32 
L 184.79088 389.32 
L 184.79088 389.32 
L 171.199544 389.32 
z
" clip-path="url(#pb5543f676c)" style="fill: #0000ff; fill-opacity: 0.6; stroke: #000000; stroke-linejoin: miter"/>
   </g>
   <g id="patch_64">
    <path d="M 184.79088 389.32 
L 198.382216 389.32 
L 198.382216 389.32 
L 184.79088 389.32 
z
" clip-path="url(#pb5543f676c)" style="fill: #0000ff; fill-opacity: 0.6; stroke: #000000; stroke-linejoin: miter"/>
   </g>
   <g id="patch_65">
    <path d="M 198.382216 389.32 
L 211.973552 389.32 
L 211.973552 389.32 
L 198.382216 389.32 
z
" clip-path="url(#pb5543f676c)" style="fill: #0000ff; fill-opacity: 0.6; stroke: #000000; stroke-linejoin: miter"/>
   </g>
   <g id="patch_66">
    <path d="M 211.973552 389.32 
L 225.564888 389.32 
L 225.564888 389.32 
L 211.973552 389.32 
z
" clip-path="url(#pb5543f676c)" style="fill: #0000ff; fill-opacity: 0.6; stroke: #000000; stroke-linejoin: miter"/>
   </g>
   <g id="patch_67">
    <path d="M 225.564888 389.32 
L 239.156225 389.32 
L 239.156225 32.59619 
L 225.564888 32.59619 
z
" clip-path="url(#pb5543f676c)" style="fill: #0000ff; fill-opacity: 0.6; stroke: #000000; stroke-linejoin: miter"/>
   </g>
   <g id="patch_68">
    <path d="M 239.156225 389.32 
L 252.747561 389.32 
L 252.747561 389.32 
L 239.156225 389.32 
z
" clip-path="url(#pb5543f676c)" style="fill: #0000ff; fill-opacity: 0.6; stroke: #000000; stroke-linejoin: miter"/>
   </g>
   <g id="patch_69">
    <path d="M 252.747561 389.32 
L 266.338897 389.32 
L 266.338897 389.32 
L 252.747561 389.32 
z
" clip-path="url(#pb5543f676c)" style="fill: #0000ff; fill-opacity: 0.6; stroke: #000000; stroke-linejoin: miter"/>
   </g>
   <g id="patch_70">
    <path d="M 266.338897 389.32 
L 279.930233 389.32 
L 279.930233 389.32 
L 266.338897 389.32 
z
" clip-path="url(#pb5543f676c)" style="fill: #0000ff; fill-opacity: 0.6; stroke: #000000; stroke-linejoin: miter"/>
   </g>
   <g id="patch_71">
    <path d="M 279.930233 389.32 
L 293.52157 389.32 
L 293.52157 389.32 
L 279.930233 389.32 
z
" clip-path="url(#pb5543f676c)" style="fill: #0000ff; fill-opacity: 0.6; stroke: #000000; stroke-linejoin: miter"/>
   </g>
   <g id="patch_72">
    <path d="M 293.52157 389.32 
L 307.112906 389.32 
L 307.112906 389.32 
L 293.52157 389.32 
z
" clip-path="url(#pb5543f676c)" style="fill: #0000ff; fill-opacity: 0.6; stroke: #000000; stroke-linejoin: miter"/>
   </g>
   <g id="patch_73">
    <path d="M 307.112906 389.32 
L 320.704242 389.32 
L 320.704242 389.32 
L 307.112906 389.32 
z
" clip-path="url(#pb5543f676c)" style="fill: #0000ff; fill-opacity: 0.6; stroke: #000000; stroke-linejoin: miter"/>
   </g>
   <g id="patch_74">
    <path d="M 320.704242 389.32 
L 334.295578 389.32 
L 334.295578 389.32 
L 320.704242 389.32 
z
" clip-path="url(#pb5543f676c)" style="fill: #0000ff; fill-opacity: 0.6; stroke: #000000; stroke-linejoin: miter"/>
   </g>
   <g id="patch_75">
    <path d="M 334.295578 389.32 
L 347.886914 389.32 
L 347.886914 389.32 
L 334.295578 389.32 
z
" clip-path="url(#pb5543f676c)" style="fill: #0000ff; fill-opacity: 0.6; stroke: #000000; stroke-linejoin: miter"/>
   </g>
   <g id="patch_76">
    <path d="M 347.886914 389.32 
L 361.478251 389.32 
L 361.478251 389.32 
L 347.886914 389.32 
z
" clip-path="url(#pb5543f676c)" style="fill: #0000ff; fill-opacity: 0.6; stroke: #000000; stroke-linejoin: miter"/>
   </g>
   <g id="patch_77">
    <path d="M 361.478251 389.32 
L 375.069587 389.32 
L 375.069587 389.32 
L 361.478251 389.32 
z
" clip-path="url(#pb5543f676c)" style="fill: #0000ff; fill-opacity: 0.6; stroke: #000000; stroke-linejoin: miter"/>
   </g>
   <g id="patch_78">
    <path d="M 375.069587 389.32 
L 388.660923 389.32 
L 388.660923 389.32 
L 375.069587 389.32 
z
" clip-path="url(#pb5543f676c)" style="fill: #0000ff; fill-opacity: 0.6; stroke: #000000; stroke-linejoin: miter"/>
   </g>
   <g id="patch_79">
    <path d="M 388.660923 389.32 
L 402.252259 389.32 
L 402.252259 389.32 
L 388.660923 389.32 
z
" clip-path="url(#pb5543f676c)" style="fill: #0000ff; fill-opacity: 0.6; stroke: #000000; stroke-linejoin: miter"/>
   </g>
   <g id="matplotlib.axis_1">
    <g id="xtick_1">
     <g id="line2d_1">
      <defs>
       <path id="mf107ddd386" d="M 0 0 
L 0 3.5 
" style="stroke: #000000; stroke-width: 0.8"/>
      </defs>
      <g>
       <use xlink:href="#mf107ddd386" x="80.829308" y="389.32" style="stroke: #000000; stroke-width: 0.8"/>
      </g>
     </g>
     <g id="text_1">
      <!-- 3.6 -->
      <g transform="translate(72.877746 403.918437) scale(0.1 -0.1)">
       <defs>
        <path id="DejaVuSans-33" d="M 2597 2516 
Q 3050 2419 3304 2112 
Q 3559 1806 3559 1356 
Q 3559 666 3084 287 
Q 2609 -91 1734 -91 
Q 1441 -91 1130 -33 
Q 819 25 488 141 
L 488 750 
Q 750 597 1062 519 
Q 1375 441 1716 441 
Q 2309 441 2620 675 
Q 2931 909 2931 1356 
Q 2931 1769 2642 2001 
Q 2353 2234 1838 2234 
L 1294 2234 
L 1294 2753 
L 1863 2753 
Q 2328 2753 2575 2939 
Q 2822 3125 2822 3475 
Q 2822 3834 2567 4026 
Q 2313 4219 1838 4219 
Q 1578 4219 1281 4162 
Q 984 4106 628 3988 
L 628 4550 
Q 988 4650 1302 4700 
Q 1616 4750 1894 4750 
Q 2613 4750 3031 4423 
Q 3450 4097 3450 3541 
Q 3450 3153 3228 2886 
Q 3006 2619 2597 2516 
z
" transform="scale(0.015625)"/>
        <path id="DejaVuSans-2e" d="M 684 794 
L 1344 794 
L 1344 0 
L 684 0 
L 684 794 
z
" transform="scale(0.015625)"/>
        <path id="DejaVuSans-36" d="M 2113 2584 
Q 1688 2584 1439 2293 
Q 1191 2003 1191 1497 
Q 1191 994 1439 701 
Q 1688 409 2113 409 
Q 2538 409 2786 701 
Q 3034 994 3034 1497 
Q 3034 2003 2786 2293 
Q 2538 2584 2113 2584 
z
M 3366 4563 
L 3366 3988 
Q 3128 4100 2886 4159 
Q 2644 4219 2406 4219 
Q 1781 4219 1451 3797 
Q 1122 3375 1075 2522 
Q 1259 2794 1537 2939 
Q 1816 3084 2150 3084 
Q 2853 3084 3261 2657 
Q 3669 2231 3669 1497 
Q 3669 778 3244 343 
Q 2819 -91 2113 -91 
Q 1303 -91 875 529 
Q 447 1150 447 2328 
Q 447 3434 972 4092 
Q 1497 4750 2381 4750 
Q 2619 4750 2861 4703 
Q 3103 4656 3366 4563 
z
" transform="scale(0.015625)"/>
       </defs>
       <use xlink:href="#DejaVuSans-33"/>
       <use xlink:href="#DejaVuSans-2e" x="63.623047"/>
       <use xlink:href="#DejaVuSans-36" x="95.410156"/>
      </g>
     </g>
    </g>
    <g id="xtick_2">
     <g id="line2d_2">
      <g>
       <use xlink:href="#mf107ddd386" x="148.785989" y="389.32" style="stroke: #000000; stroke-width: 0.8"/>
      </g>
     </g>
     <g id="text_2">
      <!-- 3.8 -->
      <g transform="translate(140.834427 403.918437) scale(0.1 -0.1)">
       <defs>
        <path id="DejaVuSans-38" d="M 2034 2216 
Q 1584 2216 1326 1975 
Q 1069 1734 1069 1313 
Q 1069 891 1326 650 
Q 1584 409 2034 409 
Q 2484 409 2743 651 
Q 3003 894 3003 1313 
Q 3003 1734 2745 1975 
Q 2488 2216 2034 2216 
z
M 1403 2484 
Q 997 2584 770 2862 
Q 544 3141 544 3541 
Q 544 4100 942 4425 
Q 1341 4750 2034 4750 
Q 2731 4750 3128 4425 
Q 3525 4100 3525 3541 
Q 3525 3141 3298 2862 
Q 3072 2584 2669 2484 
Q 3125 2378 3379 2068 
Q 3634 1759 3634 1313 
Q 3634 634 3220 271 
Q 2806 -91 2034 -91 
Q 1263 -91 848 271 
Q 434 634 434 1313 
Q 434 1759 690 2068 
Q 947 2378 1403 2484 
z
M 1172 3481 
Q 1172 3119 1398 2916 
Q 1625 2713 2034 2713 
Q 2441 2713 2670 2916 
Q 2900 3119 2900 3481 
Q 2900 3844 2670 4047 
Q 2441 4250 2034 4250 
Q 1625 4250 1398 4047 
Q 1172 3844 1172 3481 
z
" transform="scale(0.015625)"/>
       </defs>
       <use xlink:href="#DejaVuSans-33"/>
       <use xlink:href="#DejaVuSans-2e" x="63.623047"/>
       <use xlink:href="#DejaVuSans-38" x="95.410156"/>
      </g>
     </g>
    </g>
    <g id="xtick_3">
     <g id="line2d_3">
      <g>
       <use xlink:href="#mf107ddd386" x="216.74267" y="389.32" style="stroke: #000000; stroke-width: 0.8"/>
      </g>
     </g>
     <g id="text_3">
      <!-- 4.0 -->
      <g transform="translate(208.791108 403.918437) scale(0.1 -0.1)">
       <defs>
        <path id="DejaVuSans-34" d="M 2419 4116 
L 825 1625 
L 2419 1625 
L 2419 4116 
z
M 2253 4666 
L 3047 4666 
L 3047 1625 
L 3713 1625 
L 3713 1100 
L 3047 1100 
L 3047 0 
L 2419 0 
L 2419 1100 
L 313 1100 
L 313 1709 
L 2253 4666 
z
" transform="scale(0.015625)"/>
        <path id="DejaVuSans-30" d="M 2034 4250 
Q 1547 4250 1301 3770 
Q 1056 3291 1056 2328 
Q 1056 1369 1301 889 
Q 1547 409 2034 409 
Q 2525 409 2770 889 
Q 3016 1369 3016 2328 
Q 3016 3291 2770 3770 
Q 2525 4250 2034 4250 
z
M 2034 4750 
Q 2819 4750 3233 4129 
Q 3647 3509 3647 2328 
Q 3647 1150 3233 529 
Q 2819 -91 2034 -91 
Q 1250 -91 836 529 
Q 422 1150 422 2328 
Q 422 3509 836 4129 
Q 1250 4750 2034 4750 
z
" transform="scale(0.015625)"/>
       </defs>
       <use xlink:href="#DejaVuSans-34"/>
       <use xlink:href="#DejaVuSans-2e" x="63.623047"/>
       <use xlink:href="#DejaVuSans-30" x="95.410156"/>
      </g>
     </g>
    </g>
    <g id="xtick_4">
     <g id="line2d_4">
      <g>
       <use xlink:href="#mf107ddd386" x="284.699351" y="389.32" style="stroke: #000000; stroke-width: 0.8"/>
      </g>
     </g>
     <g id="text_4">
      <!-- 4.2 -->
      <g transform="translate(276.747789 403.918437) scale(0.1 -0.1)">
       <defs>
        <path id="DejaVuSans-32" d="M 1228 531 
L 3431 531 
L 3431 0 
L 469 0 
L 469 531 
Q 828 903 1448 1529 
Q 2069 2156 2228 2338 
Q 2531 2678 2651 2914 
Q 2772 3150 2772 3378 
Q 2772 3750 2511 3984 
Q 2250 4219 1831 4219 
Q 1534 4219 1204 4116 
Q 875 4013 500 3803 
L 500 4441 
Q 881 4594 1212 4672 
Q 1544 4750 1819 4750 
Q 2544 4750 2975 4387 
Q 3406 4025 3406 3419 
Q 3406 3131 3298 2873 
Q 3191 2616 2906 2266 
Q 2828 2175 2409 1742 
Q 1991 1309 1228 531 
z
" transform="scale(0.015625)"/>
       </defs>
       <use xlink:href="#DejaVuSans-34"/>
       <use xlink:href="#DejaVuSans-2e" x="63.623047"/>
       <use xlink:href="#DejaVuSans-32" x="95.410156"/>
      </g>
     </g>
    </g>
    <g id="xtick_5">
     <g id="line2d_5">
      <g>
       <use xlink:href="#mf107ddd386" x="352.656032" y="389.32" style="stroke: #000000; stroke-width: 0.8"/>
      </g>
     </g>
     <g id="text_5">
      <!-- 4.4 -->
      <g transform="translate(344.70447 403.918437) scale(0.1 -0.1)">
       <use xlink:href="#DejaVuSans-34"/>
       <use xlink:href="#DejaVuSans-2e" x="63.623047"/>
       <use xlink:href="#DejaVuSans-34" x="95.410156"/>
      </g>
     </g>
    </g>
    <g id="xtick_6">
     <g id="line2d_6">
      <g>
       <use xlink:href="#mf107ddd386" x="420.612713" y="389.32" style="stroke: #000000; stroke-width: 0.8"/>
      </g>
     </g>
     <g id="text_6">
      <!-- 4.6 -->
      <g transform="translate(412.661151 403.918437) scale(0.1 -0.1)">
       <use xlink:href="#DejaVuSans-34"/>
       <use xlink:href="#DejaVuSans-2e" x="63.623047"/>
       <use xlink:href="#DejaVuSans-36" x="95.410156"/>
      </g>
     </g>
    </g>
    <g id="text_7">
     <!-- Predicted Fluorescence -->
     <g transform="translate(163.761143 419.11625) scale(0.12 -0.12)">
      <defs>
       <path id="DejaVuSans-50" d="M 1259 4147 
L 1259 2394 
L 2053 2394 
Q 2494 2394 2734 2622 
Q 2975 2850 2975 3272 
Q 2975 3691 2734 3919 
Q 2494 4147 2053 4147 
L 1259 4147 
z
M 628 4666 
L 2053 4666 
Q 2838 4666 3239 4311 
Q 3641 3956 3641 3272 
Q 3641 2581 3239 2228 
Q 2838 1875 2053 1875 
L 1259 1875 
L 1259 0 
L 628 0 
L 628 4666 
z
" transform="scale(0.015625)"/>
       <path id="DejaVuSans-72" d="M 2631 2963 
Q 2534 3019 2420 3045 
Q 2306 3072 2169 3072 
Q 1681 3072 1420 2755 
Q 1159 2438 1159 1844 
L 1159 0 
L 581 0 
L 581 3500 
L 1159 3500 
L 1159 2956 
Q 1341 3275 1631 3429 
Q 1922 3584 2338 3584 
Q 2397 3584 2469 3576 
Q 2541 3569 2628 3553 
L 2631 2963 
z
" transform="scale(0.015625)"/>
       <path id="DejaVuSans-65" d="M 3597 1894 
L 3597 1613 
L 953 1613 
Q 991 1019 1311 708 
Q 1631 397 2203 397 
Q 2534 397 2845 478 
Q 3156 559 3463 722 
L 3463 178 
Q 3153 47 2828 -22 
Q 2503 -91 2169 -91 
Q 1331 -91 842 396 
Q 353 884 353 1716 
Q 353 2575 817 3079 
Q 1281 3584 2069 3584 
Q 2775 3584 3186 3129 
Q 3597 2675 3597 1894 
z
M 3022 2063 
Q 3016 2534 2758 2815 
Q 2500 3097 2075 3097 
Q 1594 3097 1305 2825 
Q 1016 2553 972 2059 
L 3022 2063 
z
" transform="scale(0.015625)"/>
       <path id="DejaVuSans-64" d="M 2906 2969 
L 2906 4863 
L 3481 4863 
L 3481 0 
L 2906 0 
L 2906 525 
Q 2725 213 2448 61 
Q 2172 -91 1784 -91 
Q 1150 -91 751 415 
Q 353 922 353 1747 
Q 353 2572 751 3078 
Q 1150 3584 1784 3584 
Q 2172 3584 2448 3432 
Q 2725 3281 2906 2969 
z
M 947 1747 
Q 947 1113 1208 752 
Q 1469 391 1925 391 
Q 2381 391 2643 752 
Q 2906 1113 2906 1747 
Q 2906 2381 2643 2742 
Q 2381 3103 1925 3103 
Q 1469 3103 1208 2742 
Q 947 2381 947 1747 
z
" transform="scale(0.015625)"/>
       <path id="DejaVuSans-69" d="M 603 3500 
L 1178 3500 
L 1178 0 
L 603 0 
L 603 3500 
z
M 603 4863 
L 1178 4863 
L 1178 4134 
L 603 4134 
L 603 4863 
z
" transform="scale(0.015625)"/>
       <path id="DejaVuSans-63" d="M 3122 3366 
L 3122 2828 
Q 2878 2963 2633 3030 
Q 2388 3097 2138 3097 
Q 1578 3097 1268 2742 
Q 959 2388 959 1747 
Q 959 1106 1268 751 
Q 1578 397 2138 397 
Q 2388 397 2633 464 
Q 2878 531 3122 666 
L 3122 134 
Q 2881 22 2623 -34 
Q 2366 -91 2075 -91 
Q 1284 -91 818 406 
Q 353 903 353 1747 
Q 353 2603 823 3093 
Q 1294 3584 2113 3584 
Q 2378 3584 2631 3529 
Q 2884 3475 3122 3366 
z
" transform="scale(0.015625)"/>
       <path id="DejaVuSans-74" d="M 1172 4494 
L 1172 3500 
L 2356 3500 
L 2356 3053 
L 1172 3053 
L 1172 1153 
Q 1172 725 1289 603 
Q 1406 481 1766 481 
L 2356 481 
L 2356 0 
L 1766 0 
Q 1100 0 847 248 
Q 594 497 594 1153 
L 594 3053 
L 172 3053 
L 172 3500 
L 594 3500 
L 594 4494 
L 1172 4494 
z
" transform="scale(0.015625)"/>
       <path id="DejaVuSans-20" transform="scale(0.015625)"/>
       <path id="DejaVuSans-46" d="M 628 4666 
L 3309 4666 
L 3309 4134 
L 1259 4134 
L 1259 2759 
L 3109 2759 
L 3109 2228 
L 1259 2228 
L 1259 0 
L 628 0 
L 628 4666 
z
" transform="scale(0.015625)"/>
       <path id="DejaVuSans-6c" d="M 603 4863 
L 1178 4863 
L 1178 0 
L 603 0 
L 603 4863 
z
" transform="scale(0.015625)"/>
       <path id="DejaVuSans-75" d="M 544 1381 
L 544 3500 
L 1119 3500 
L 1119 1403 
Q 1119 906 1312 657 
Q 1506 409 1894 409 
Q 2359 409 2629 706 
Q 2900 1003 2900 1516 
L 2900 3500 
L 3475 3500 
L 3475 0 
L 2900 0 
L 2900 538 
Q 2691 219 2414 64 
Q 2138 -91 1772 -91 
Q 1169 -91 856 284 
Q 544 659 544 1381 
z
M 1991 3584 
L 1991 3584 
z
" transform="scale(0.015625)"/>
       <path id="DejaVuSans-6f" d="M 1959 3097 
Q 1497 3097 1228 2736 
Q 959 2375 959 1747 
Q 959 1119 1226 758 
Q 1494 397 1959 397 
Q 2419 397 2687 759 
Q 2956 1122 2956 1747 
Q 2956 2369 2687 2733 
Q 2419 3097 1959 3097 
z
M 1959 3584 
Q 2709 3584 3137 3096 
Q 3566 2609 3566 1747 
Q 3566 888 3137 398 
Q 2709 -91 1959 -91 
Q 1206 -91 779 398 
Q 353 888 353 1747 
Q 353 2609 779 3096 
Q 1206 3584 1959 3584 
z
" transform="scale(0.015625)"/>
       <path id="DejaVuSans-73" d="M 2834 3397 
L 2834 2853 
Q 2591 2978 2328 3040 
Q 2066 3103 1784 3103 
Q 1356 3103 1142 2972 
Q 928 2841 928 2578 
Q 928 2378 1081 2264 
Q 1234 2150 1697 2047 
L 1894 2003 
Q 2506 1872 2764 1633 
Q 3022 1394 3022 966 
Q 3022 478 2636 193 
Q 2250 -91 1575 -91 
Q 1294 -91 989 -36 
Q 684 19 347 128 
L 347 722 
Q 666 556 975 473 
Q 1284 391 1588 391 
Q 1994 391 2212 530 
Q 2431 669 2431 922 
Q 2431 1156 2273 1281 
Q 2116 1406 1581 1522 
L 1381 1569 
Q 847 1681 609 1914 
Q 372 2147 372 2553 
Q 372 3047 722 3315 
Q 1072 3584 1716 3584 
Q 2034 3584 2315 3537 
Q 2597 3491 2834 3397 
z
" transform="scale(0.015625)"/>
       <path id="DejaVuSans-6e" d="M 3513 2113 
L 3513 0 
L 2938 0 
L 2938 2094 
Q 2938 2591 2744 2837 
Q 2550 3084 2163 3084 
Q 1697 3084 1428 2787 
Q 1159 2491 1159 1978 
L 1159 0 
L 581 0 
L 581 3500 
L 1159 3500 
L 1159 2956 
Q 1366 3272 1645 3428 
Q 1925 3584 2291 3584 
Q 2894 3584 3203 3211 
Q 3513 2838 3513 2113 
z
" transform="scale(0.015625)"/>
      </defs>
      <use xlink:href="#DejaVuSans-50"/>
      <use xlink:href="#DejaVuSans-72" x="58.552734"/>
      <use xlink:href="#DejaVuSans-65" x="97.416016"/>
      <use xlink:href="#DejaVuSans-64" x="158.939453"/>
      <use xlink:href="#DejaVuSans-69" x="222.416016"/>
      <use xlink:href="#DejaVuSans-63" x="250.199219"/>
      <use xlink:href="#DejaVuSans-74" x="305.179688"/>
      <use xlink:href="#DejaVuSans-65" x="344.388672"/>
      <use xlink:href="#DejaVuSans-64" x="405.912109"/>
      <use xlink:href="#DejaVuSans-20" x="469.388672"/>
      <use xlink:href="#DejaVuSans-46" x="501.175781"/>
      <use xlink:href="#DejaVuSans-6c" x="558.695312"/>
      <use xlink:href="#DejaVuSans-75" x="586.478516"/>
      <use xlink:href="#DejaVuSans-6f" x="649.857422"/>
      <use xlink:href="#DejaVuSans-72" x="711.039062"/>
      <use xlink:href="#DejaVuSans-65" x="749.902344"/>
      <use xlink:href="#DejaVuSans-73" x="811.425781"/>
      <use xlink:href="#DejaVuSans-63" x="863.525391"/>
      <use xlink:href="#DejaVuSans-65" x="918.505859"/>
      <use xlink:href="#DejaVuSans-6e" x="980.029297"/>
      <use xlink:href="#DejaVuSans-63" x="1043.408203"/>
      <use xlink:href="#DejaVuSans-65" x="1098.388672"/>
     </g>
    </g>
   </g>
   <g id="matplotlib.axis_2">
    <g id="ytick_1">
     <g id="line2d_7">
      <defs>
       <path id="mca16d127bf" d="M 0 0 
L -3.5 0 
" style="stroke: #000000; stroke-width: 0.8"/>
      </defs>
      <g>
       <use xlink:href="#mca16d127bf" x="45.38" y="389.32" style="stroke: #000000; stroke-width: 0.8"/>
      </g>
     </g>
     <g id="text_8">
      <!-- 0 -->
      <g transform="translate(32.0175 393.119219) scale(0.1 -0.1)">
       <use xlink:href="#DejaVuSans-30"/>
      </g>
     </g>
    </g>
    <g id="ytick_2">
     <g id="line2d_8">
      <g>
       <use xlink:href="#mca16d127bf" x="45.38" y="317.975238" style="stroke: #000000; stroke-width: 0.8"/>
      </g>
     </g>
     <g id="text_9">
      <!-- 5 -->
      <g transform="translate(32.0175 321.774457) scale(0.1 -0.1)">
       <defs>
        <path id="DejaVuSans-35" d="M 691 4666 
L 3169 4666 
L 3169 4134 
L 1269 4134 
L 1269 2991 
Q 1406 3038 1543 3061 
Q 1681 3084 1819 3084 
Q 2600 3084 3056 2656 
Q 3513 2228 3513 1497 
Q 3513 744 3044 326 
Q 2575 -91 1722 -91 
Q 1428 -91 1123 -41 
Q 819 9 494 109 
L 494 744 
Q 775 591 1075 516 
Q 1375 441 1709 441 
Q 2250 441 2565 725 
Q 2881 1009 2881 1497 
Q 2881 1984 2565 2268 
Q 2250 2553 1709 2553 
Q 1456 2553 1204 2497 
Q 953 2441 691 2322 
L 691 4666 
z
" transform="scale(0.015625)"/>
       </defs>
       <use xlink:href="#DejaVuSans-35"/>
      </g>
     </g>
    </g>
    <g id="ytick_3">
     <g id="line2d_9">
      <g>
       <use xlink:href="#mca16d127bf" x="45.38" y="246.630476" style="stroke: #000000; stroke-width: 0.8"/>
      </g>
     </g>
     <g id="text_10">
      <!-- 10 -->
      <g transform="translate(25.655 250.429695) scale(0.1 -0.1)">
       <defs>
        <path id="DejaVuSans-31" d="M 794 531 
L 1825 531 
L 1825 4091 
L 703 3866 
L 703 4441 
L 1819 4666 
L 2450 4666 
L 2450 531 
L 3481 531 
L 3481 0 
L 794 0 
L 794 531 
z
" transform="scale(0.015625)"/>
       </defs>
       <use xlink:href="#DejaVuSans-31"/>
       <use xlink:href="#DejaVuSans-30" x="63.623047"/>
      </g>
     </g>
    </g>
    <g id="ytick_4">
     <g id="line2d_10">
      <g>
       <use xlink:href="#mca16d127bf" x="45.38" y="175.285714" style="stroke: #000000; stroke-width: 0.8"/>
      </g>
     </g>
     <g id="text_11">
      <!-- 15 -->
      <g transform="translate(25.655 179.084933) scale(0.1 -0.1)">
       <use xlink:href="#DejaVuSans-31"/>
       <use xlink:href="#DejaVuSans-35" x="63.623047"/>
      </g>
     </g>
    </g>
    <g id="ytick_5">
     <g id="line2d_11">
      <g>
       <use xlink:href="#mca16d127bf" x="45.38" y="103.940952" style="stroke: #000000; stroke-width: 0.8"/>
      </g>
     </g>
     <g id="text_12">
      <!-- 20 -->
      <g transform="translate(25.655 107.740171) scale(0.1 -0.1)">
       <use xlink:href="#DejaVuSans-32"/>
       <use xlink:href="#DejaVuSans-30" x="63.623047"/>
      </g>
     </g>
    </g>
    <g id="ytick_6">
     <g id="line2d_12">
      <g>
       <use xlink:href="#mca16d127bf" x="45.38" y="32.59619" style="stroke: #000000; stroke-width: 0.8"/>
      </g>
     </g>
     <g id="text_13">
      <!-- 25 -->
      <g transform="translate(25.655 36.395409) scale(0.1 -0.1)">
       <use xlink:href="#DejaVuSans-32"/>
       <use xlink:href="#DejaVuSans-35" x="63.623047"/>
      </g>
     </g>
    </g>
    <g id="text_14">
     <!-- Probability Density -->
     <g transform="translate(19.159375 258.471875) rotate(-90) scale(0.12 -0.12)">
      <defs>
       <path id="DejaVuSans-62" d="M 3116 1747 
Q 3116 2381 2855 2742 
Q 2594 3103 2138 3103 
Q 1681 3103 1420 2742 
Q 1159 2381 1159 1747 
Q 1159 1113 1420 752 
Q 1681 391 2138 391 
Q 2594 391 2855 752 
Q 3116 1113 3116 1747 
z
M 1159 2969 
Q 1341 3281 1617 3432 
Q 1894 3584 2278 3584 
Q 2916 3584 3314 3078 
Q 3713 2572 3713 1747 
Q 3713 922 3314 415 
Q 2916 -91 2278 -91 
Q 1894 -91 1617 61 
Q 1341 213 1159 525 
L 1159 0 
L 581 0 
L 581 4863 
L 1159 4863 
L 1159 2969 
z
" transform="scale(0.015625)"/>
       <path id="DejaVuSans-61" d="M 2194 1759 
Q 1497 1759 1228 1600 
Q 959 1441 959 1056 
Q 959 750 1161 570 
Q 1363 391 1709 391 
Q 2188 391 2477 730 
Q 2766 1069 2766 1631 
L 2766 1759 
L 2194 1759 
z
M 3341 1997 
L 3341 0 
L 2766 0 
L 2766 531 
Q 2569 213 2275 61 
Q 1981 -91 1556 -91 
Q 1019 -91 701 211 
Q 384 513 384 1019 
Q 384 1609 779 1909 
Q 1175 2209 1959 2209 
L 2766 2209 
L 2766 2266 
Q 2766 2663 2505 2880 
Q 2244 3097 1772 3097 
Q 1472 3097 1187 3025 
Q 903 2953 641 2809 
L 641 3341 
Q 956 3463 1253 3523 
Q 1550 3584 1831 3584 
Q 2591 3584 2966 3190 
Q 3341 2797 3341 1997 
z
" transform="scale(0.015625)"/>
       <path id="DejaVuSans-79" d="M 2059 -325 
Q 1816 -950 1584 -1140 
Q 1353 -1331 966 -1331 
L 506 -1331 
L 506 -850 
L 844 -850 
Q 1081 -850 1212 -737 
Q 1344 -625 1503 -206 
L 1606 56 
L 191 3500 
L 800 3500 
L 1894 763 
L 2988 3500 
L 3597 3500 
L 2059 -325 
z
" transform="scale(0.015625)"/>
       <path id="DejaVuSans-44" d="M 1259 4147 
L 1259 519 
L 2022 519 
Q 2988 519 3436 956 
Q 3884 1394 3884 2338 
Q 3884 3275 3436 3711 
Q 2988 4147 2022 4147 
L 1259 4147 
z
M 628 4666 
L 1925 4666 
Q 3281 4666 3915 4102 
Q 4550 3538 4550 2338 
Q 4550 1131 3912 565 
Q 3275 0 1925 0 
L 628 0 
L 628 4666 
z
" transform="scale(0.015625)"/>
      </defs>
      <use xlink:href="#DejaVuSans-50"/>
      <use xlink:href="#DejaVuSans-72" x="58.552734"/>
      <use xlink:href="#DejaVuSans-6f" x="97.416016"/>
      <use xlink:href="#DejaVuSans-62" x="158.597656"/>
      <use xlink:href="#DejaVuSans-61" x="222.074219"/>
      <use xlink:href="#DejaVuSans-62" x="283.353516"/>
      <use xlink:href="#DejaVuSans-69" x="346.830078"/>
      <use xlink:href="#DejaVuSans-6c" x="374.613281"/>
      <use xlink:href="#DejaVuSans-69" x="402.396484"/>
      <use xlink:href="#DejaVuSans-74" x="430.179688"/>
      <use xlink:href="#DejaVuSans-79" x="469.388672"/>
      <use xlink:href="#DejaVuSans-20" x="528.568359"/>
      <use xlink:href="#DejaVuSans-44" x="560.355469"/>
      <use xlink:href="#DejaVuSans-65" x="637.357422"/>
      <use xlink:href="#DejaVuSans-6e" x="698.880859"/>
      <use xlink:href="#DejaVuSans-73" x="762.259766"/>
      <use xlink:href="#DejaVuSans-69" x="814.359375"/>
      <use xlink:href="#DejaVuSans-74" x="842.142578"/>
      <use xlink:href="#DejaVuSans-79" x="881.351562"/>
     </g>
    </g>
   </g>
   <g id="line2d_13">
    <path d="M 248.822723 389.32 
L 248.822723 14.76 
" clip-path="url(#pb5543f676c)" style="fill: none; stroke-dasharray: 11.1,4.8; stroke-dashoffset: 0; stroke: #ffa500; stroke-width: 3"/>
   </g>
   <g id="patch_80">
    <path d="M 45.38 389.32 
L 45.38 14.76 
" style="fill: none; stroke: #000000; stroke-width: 0.8; stroke-linejoin: miter; stroke-linecap: square"/>
   </g>
   <g id="patch_81">
    <path d="M 45.38 389.32 
L 421.334786 389.32 
" style="fill: none; stroke: #000000; stroke-width: 0.8; stroke-linejoin: miter; stroke-linecap: square"/>
   </g>
   <g id="legend_1">
    <g id="patch_82">
     <path d="M 296.220723 66.794375 
L 414.334786 66.794375 
Q 416.334786 66.794375 416.334786 64.794375 
L 416.334786 21.76 
Q 416.334786 19.76 414.334786 19.76 
L 296.220723 19.76 
Q 294.220723 19.76 294.220723 21.76 
L 294.220723 64.794375 
Q 294.220723 66.794375 296.220723 66.794375 
z
" style="fill: #ffffff; opacity: 0.8; stroke: #cccccc; stroke-linejoin: miter"/>
    </g>
    <g id="patch_83">
     <path d="M 298.220723 31.358438 
L 318.220723 31.358438 
L 318.220723 24.358438 
L 298.220723 24.358438 
z
" style="fill: #808080; fill-opacity: 0.4; stroke: #000000; stroke-linejoin: miter"/>
    </g>
    <g id="text_15">
     <!-- Pre-trained ESM2 -->
     <g transform="translate(326.220723 31.358438) scale(0.1 -0.1)">
      <defs>
       <path id="DejaVuSans-2d" d="M 313 2009 
L 1997 2009 
L 1997 1497 
L 313 1497 
L 313 2009 
z
" transform="scale(0.015625)"/>
       <path id="DejaVuSans-45" d="M 628 4666 
L 3578 4666 
L 3578 4134 
L 1259 4134 
L 1259 2753 
L 3481 2753 
L 3481 2222 
L 1259 2222 
L 1259 531 
L 3634 531 
L 3634 0 
L 628 0 
L 628 4666 
z
" transform="scale(0.015625)"/>
       <path id="DejaVuSans-53" d="M 3425 4513 
L 3425 3897 
Q 3066 4069 2747 4153 
Q 2428 4238 2131 4238 
Q 1616 4238 1336 4038 
Q 1056 3838 1056 3469 
Q 1056 3159 1242 3001 
Q 1428 2844 1947 2747 
L 2328 2669 
Q 3034 2534 3370 2195 
Q 3706 1856 3706 1288 
Q 3706 609 3251 259 
Q 2797 -91 1919 -91 
Q 1588 -91 1214 -16 
Q 841 59 441 206 
L 441 856 
Q 825 641 1194 531 
Q 1563 422 1919 422 
Q 2459 422 2753 634 
Q 3047 847 3047 1241 
Q 3047 1584 2836 1778 
Q 2625 1972 2144 2069 
L 1759 2144 
Q 1053 2284 737 2584 
Q 422 2884 422 3419 
Q 422 4038 858 4394 
Q 1294 4750 2059 4750 
Q 2388 4750 2728 4690 
Q 3069 4631 3425 4513 
z
" transform="scale(0.015625)"/>
       <path id="DejaVuSans-4d" d="M 628 4666 
L 1569 4666 
L 2759 1491 
L 3956 4666 
L 4897 4666 
L 4897 0 
L 4281 0 
L 4281 4097 
L 3078 897 
L 2444 897 
L 1241 4097 
L 1241 0 
L 628 0 
L 628 4666 
z
" transform="scale(0.015625)"/>
      </defs>
      <use xlink:href="#DejaVuSans-50"/>
      <use xlink:href="#DejaVuSans-72" x="58.552734"/>
      <use xlink:href="#DejaVuSans-65" x="97.416016"/>
      <use xlink:href="#DejaVuSans-2d" x="158.939453"/>
      <use xlink:href="#DejaVuSans-74" x="195.023438"/>
      <use xlink:href="#DejaVuSans-72" x="234.232422"/>
      <use xlink:href="#DejaVuSans-61" x="275.345703"/>
      <use xlink:href="#DejaVuSans-69" x="336.625"/>
      <use xlink:href="#DejaVuSans-6e" x="364.408203"/>
      <use xlink:href="#DejaVuSans-65" x="427.787109"/>
      <use xlink:href="#DejaVuSans-64" x="489.310547"/>
      <use xlink:href="#DejaVuSans-20" x="552.787109"/>
      <use xlink:href="#DejaVuSans-45" x="584.574219"/>
      <use xlink:href="#DejaVuSans-53" x="647.757812"/>
      <use xlink:href="#DejaVuSans-4d" x="711.234375"/>
      <use xlink:href="#DejaVuSans-32" x="797.513672"/>
     </g>
    </g>
    <g id="patch_84">
     <path d="M 298.220723 46.036563 
L 318.220723 46.036563 
L 318.220723 39.036563 
L 298.220723 39.036563 
z
" style="fill: #ffa500; fill-opacity: 0.6; stroke: #000000; stroke-linejoin: miter"/>
    </g>
    <g id="text_16">
     <!-- SFT ESM2 -->
     <g transform="translate(326.220723 46.036563) scale(0.1 -0.1)">
      <defs>
       <path id="DejaVuSans-54" d="M -19 4666 
L 3928 4666 
L 3928 4134 
L 2272 4134 
L 2272 0 
L 1638 0 
L 1638 4134 
L -19 4134 
L -19 4666 
z
" transform="scale(0.015625)"/>
      </defs>
      <use xlink:href="#DejaVuSans-53"/>
      <use xlink:href="#DejaVuSans-46" x="63.476562"/>
      <use xlink:href="#DejaVuSans-54" x="119.246094"/>
      <use xlink:href="#DejaVuSans-20" x="180.330078"/>
      <use xlink:href="#DejaVuSans-45" x="212.117188"/>
      <use xlink:href="#DejaVuSans-53" x="275.300781"/>
      <use xlink:href="#DejaVuSans-4d" x="338.777344"/>
      <use xlink:href="#DejaVuSans-32" x="425.056641"/>
     </g>
    </g>
    <g id="patch_85">
     <path d="M 298.220723 60.714688 
L 318.220723 60.714688 
L 318.220723 53.714688 
L 298.220723 53.714688 
z
" style="fill: #0000ff; fill-opacity: 0.6; stroke: #000000; stroke-linejoin: miter"/>
    </g>
    <g id="text_17">
     <!-- Aligned ESM2 -->
     <g transform="translate(326.220723 60.714688) scale(0.1 -0.1)">
      <defs>
       <path id="DejaVuSans-41" d="M 2188 4044 
L 1331 1722 
L 3047 1722 
L 2188 4044 
z
M 1831 4666 
L 2547 4666 
L 4325 0 
L 3669 0 
L 3244 1197 
L 1141 1197 
L 716 0 
L 50 0 
L 1831 4666 
z
" transform="scale(0.015625)"/>
       <path id="DejaVuSans-67" d="M 2906 1791 
Q 2906 2416 2648 2759 
Q 2391 3103 1925 3103 
Q 1463 3103 1205 2759 
Q 947 2416 947 1791 
Q 947 1169 1205 825 
Q 1463 481 1925 481 
Q 2391 481 2648 825 
Q 2906 1169 2906 1791 
z
M 3481 434 
Q 3481 -459 3084 -895 
Q 2688 -1331 1869 -1331 
Q 1566 -1331 1297 -1286 
Q 1028 -1241 775 -1147 
L 775 -588 
Q 1028 -725 1275 -790 
Q 1522 -856 1778 -856 
Q 2344 -856 2625 -561 
Q 2906 -266 2906 331 
L 2906 616 
Q 2728 306 2450 153 
Q 2172 0 1784 0 
Q 1141 0 747 490 
Q 353 981 353 1791 
Q 353 2603 747 3093 
Q 1141 3584 1784 3584 
Q 2172 3584 2450 3431 
Q 2728 3278 2906 2969 
L 2906 3500 
L 3481 3500 
L 3481 434 
z
" transform="scale(0.015625)"/>
      </defs>
      <use xlink:href="#DejaVuSans-41"/>
      <use xlink:href="#DejaVuSans-6c" x="68.408203"/>
      <use xlink:href="#DejaVuSans-69" x="96.191406"/>
      <use xlink:href="#DejaVuSans-67" x="123.974609"/>
      <use xlink:href="#DejaVuSans-6e" x="187.451172"/>
      <use xlink:href="#DejaVuSans-65" x="250.830078"/>
      <use xlink:href="#DejaVuSans-64" x="312.353516"/>
      <use xlink:href="#DejaVuSans-20" x="375.830078"/>
      <use xlink:href="#DejaVuSans-45" x="407.617188"/>
      <use xlink:href="#DejaVuSans-53" x="470.800781"/>
      <use xlink:href="#DejaVuSans-4d" x="534.277344"/>
      <use xlink:href="#DejaVuSans-32" x="620.556641"/>
     </g>
    </g>
   </g>
  </g>
  <g id="axes_2">
   <g id="patch_86">
    <path d="M 477.245214 389.32 
L 853.2 389.32 
L 853.2 14.76 
L 477.245214 14.76 
z
" style="fill: #ffffff"/>
   </g>
   <g id="patch_87">
    <path d="M 494.334068 389.32 
L 494.334068 14.76 
L 772.70864 14.76 
L 772.70864 389.32 
z
" clip-path="url(#pbda6356e51)" style="fill: #ff0000; opacity: 0.1; stroke: #ff0000; stroke-linejoin: miter"/>
   </g>
   <g id="patch_88">
    <path d="M 772.70864 389.32 
L 772.70864 14.76 
L 836.111146 14.76 
L 836.111146 389.32 
z
" clip-path="url(#pbda6356e51)" style="fill: #008000; opacity: 0.1; stroke: #008000; stroke-linejoin: miter"/>
   </g>
   <g id="matplotlib.axis_3">
    <g id="xtick_7">
     <g id="line2d_14">
      <g>
       <use xlink:href="#mf107ddd386" x="516.377423" y="389.32" style="stroke: #000000; stroke-width: 0.8"/>
      </g>
     </g>
     <g id="text_18">
      <!-- 3.80 -->
      <g transform="translate(505.24461 403.918437) scale(0.1 -0.1)">
       <use xlink:href="#DejaVuSans-33"/>
       <use xlink:href="#DejaVuSans-2e" x="63.623047"/>
       <use xlink:href="#DejaVuSans-38" x="95.410156"/>
       <use xlink:href="#DejaVuSans-30" x="159.033203"/>
      </g>
     </g>
    </g>
    <g id="xtick_8">
     <g id="line2d_15">
      <g>
       <use xlink:href="#mf107ddd386" x="559.909979" y="389.32" style="stroke: #000000; stroke-width: 0.8"/>
      </g>
     </g>
     <g id="text_19">
      <!-- 3.85 -->
      <g transform="translate(548.777166 403.918437) scale(0.1 -0.1)">
       <use xlink:href="#DejaVuSans-33"/>
       <use xlink:href="#DejaVuSans-2e" x="63.623047"/>
       <use xlink:href="#DejaVuSans-38" x="95.410156"/>
       <use xlink:href="#DejaVuSans-35" x="159.033203"/>
      </g>
     </g>
    </g>
    <g id="xtick_9">
     <g id="line2d_16">
      <g>
       <use xlink:href="#mf107ddd386" x="603.442535" y="389.32" style="stroke: #000000; stroke-width: 0.8"/>
      </g>
     </g>
     <g id="text_20">
      <!-- 3.90 -->
      <g transform="translate(592.309722 403.918437) scale(0.1 -0.1)">
       <defs>
        <path id="DejaVuSans-39" d="M 703 97 
L 703 672 
Q 941 559 1184 500 
Q 1428 441 1663 441 
Q 2288 441 2617 861 
Q 2947 1281 2994 2138 
Q 2813 1869 2534 1725 
Q 2256 1581 1919 1581 
Q 1219 1581 811 2004 
Q 403 2428 403 3163 
Q 403 3881 828 4315 
Q 1253 4750 1959 4750 
Q 2769 4750 3195 4129 
Q 3622 3509 3622 2328 
Q 3622 1225 3098 567 
Q 2575 -91 1691 -91 
Q 1453 -91 1209 -44 
Q 966 3 703 97 
z
M 1959 2075 
Q 2384 2075 2632 2365 
Q 2881 2656 2881 3163 
Q 2881 3666 2632 3958 
Q 2384 4250 1959 4250 
Q 1534 4250 1286 3958 
Q 1038 3666 1038 3163 
Q 1038 2656 1286 2365 
Q 1534 2075 1959 2075 
z
" transform="scale(0.015625)"/>
       </defs>
       <use xlink:href="#DejaVuSans-33"/>
       <use xlink:href="#DejaVuSans-2e" x="63.623047"/>
       <use xlink:href="#DejaVuSans-39" x="95.410156"/>
       <use xlink:href="#DejaVuSans-30" x="159.033203"/>
      </g>
     </g>
    </g>
    <g id="xtick_10">
     <g id="line2d_17">
      <g>
       <use xlink:href="#mf107ddd386" x="646.975091" y="389.32" style="stroke: #000000; stroke-width: 0.8"/>
      </g>
     </g>
     <g id="text_21">
      <!-- 3.95 -->
      <g transform="translate(635.842278 403.918437) scale(0.1 -0.1)">
       <use xlink:href="#DejaVuSans-33"/>
       <use xlink:href="#DejaVuSans-2e" x="63.623047"/>
       <use xlink:href="#DejaVuSans-39" x="95.410156"/>
       <use xlink:href="#DejaVuSans-35" x="159.033203"/>
      </g>
     </g>
    </g>
    <g id="xtick_11">
     <g id="line2d_18">
      <g>
       <use xlink:href="#mf107ddd386" x="690.507646" y="389.32" style="stroke: #000000; stroke-width: 0.8"/>
      </g>
     </g>
     <g id="text_22">
      <!-- 4.00 -->
      <g transform="translate(679.374834 403.918437) scale(0.1 -0.1)">
       <use xlink:href="#DejaVuSans-34"/>
       <use xlink:href="#DejaVuSans-2e" x="63.623047"/>
       <use xlink:href="#DejaVuSans-30" x="95.410156"/>
       <use xlink:href="#DejaVuSans-30" x="159.033203"/>
      </g>
     </g>
    </g>
    <g id="xtick_12">
     <g id="line2d_19">
      <g>
       <use xlink:href="#mf107ddd386" x="734.040202" y="389.32" style="stroke: #000000; stroke-width: 0.8"/>
      </g>
     </g>
     <g id="text_23">
      <!-- 4.05 -->
      <g transform="translate(722.90739 403.918437) scale(0.1 -0.1)">
       <use xlink:href="#DejaVuSans-34"/>
       <use xlink:href="#DejaVuSans-2e" x="63.623047"/>
       <use xlink:href="#DejaVuSans-30" x="95.410156"/>
       <use xlink:href="#DejaVuSans-35" x="159.033203"/>
      </g>
     </g>
    </g>
    <g id="xtick_13">
     <g id="line2d_20">
      <g>
       <use xlink:href="#mf107ddd386" x="777.572758" y="389.32" style="stroke: #000000; stroke-width: 0.8"/>
      </g>
     </g>
     <g id="text_24">
      <!-- 4.10 -->
      <g transform="translate(766.439946 403.918437) scale(0.1 -0.1)">
       <use xlink:href="#DejaVuSans-34"/>
       <use xlink:href="#DejaVuSans-2e" x="63.623047"/>
       <use xlink:href="#DejaVuSans-31" x="95.410156"/>
       <use xlink:href="#DejaVuSans-30" x="159.033203"/>
      </g>
     </g>
    </g>
    <g id="xtick_14">
     <g id="line2d_21">
      <g>
       <use xlink:href="#mf107ddd386" x="821.105314" y="389.32" style="stroke: #000000; stroke-width: 0.8"/>
      </g>
     </g>
     <g id="text_25">
      <!-- 4.15 -->
      <g transform="translate(809.972502 403.918437) scale(0.1 -0.1)">
       <use xlink:href="#DejaVuSans-34"/>
       <use xlink:href="#DejaVuSans-2e" x="63.623047"/>
       <use xlink:href="#DejaVuSans-31" x="95.410156"/>
       <use xlink:href="#DejaVuSans-35" x="159.033203"/>
      </g>
     </g>
    </g>
    <g id="text_26">
     <!-- Predicted Fluorescence -->
     <g transform="translate(595.626357 419.11625) scale(0.12 -0.12)">
      <use xlink:href="#DejaVuSans-50"/>
      <use xlink:href="#DejaVuSans-72" x="58.552734"/>
      <use xlink:href="#DejaVuSans-65" x="97.416016"/>
      <use xlink:href="#DejaVuSans-64" x="158.939453"/>
      <use xlink:href="#DejaVuSans-69" x="222.416016"/>
      <use xlink:href="#DejaVuSans-63" x="250.199219"/>
      <use xlink:href="#DejaVuSans-74" x="305.179688"/>
      <use xlink:href="#DejaVuSans-65" x="344.388672"/>
      <use xlink:href="#DejaVuSans-64" x="405.912109"/>
      <use xlink:href="#DejaVuSans-20" x="469.388672"/>
      <use xlink:href="#DejaVuSans-46" x="501.175781"/>
      <use xlink:href="#DejaVuSans-6c" x="558.695312"/>
      <use xlink:href="#DejaVuSans-75" x="586.478516"/>
      <use xlink:href="#DejaVuSans-6f" x="649.857422"/>
      <use xlink:href="#DejaVuSans-72" x="711.039062"/>
      <use xlink:href="#DejaVuSans-65" x="749.902344"/>
      <use xlink:href="#DejaVuSans-73" x="811.425781"/>
      <use xlink:href="#DejaVuSans-63" x="863.525391"/>
      <use xlink:href="#DejaVuSans-65" x="918.505859"/>
      <use xlink:href="#DejaVuSans-6e" x="980.029297"/>
      <use xlink:href="#DejaVuSans-63" x="1043.408203"/>
      <use xlink:href="#DejaVuSans-65" x="1098.388672"/>
     </g>
    </g>
   </g>
   <g id="matplotlib.axis_4">
    <g id="ytick_7">
     <g id="line2d_22">
      <g>
       <use xlink:href="#mca16d127bf" x="477.245214" y="389.32" style="stroke: #000000; stroke-width: 0.8"/>
      </g>
     </g>
     <g id="text_27">
      <!-- 0.0 -->
      <g transform="translate(454.342089 393.119219) scale(0.1 -0.1)">
       <use xlink:href="#DejaVuSans-30"/>
       <use xlink:href="#DejaVuSans-2e" x="63.623047"/>
       <use xlink:href="#DejaVuSans-30" x="95.410156"/>
      </g>
     </g>
    </g>
    <g id="ytick_8">
     <g id="line2d_23">
      <g>
       <use xlink:href="#mca16d127bf" x="477.245214" y="314.408" style="stroke: #000000; stroke-width: 0.8"/>
      </g>
     </g>
     <g id="text_28">
      <!-- 0.2 -->
      <g transform="translate(454.342089 318.207219) scale(0.1 -0.1)">
       <use xlink:href="#DejaVuSans-30"/>
       <use xlink:href="#DejaVuSans-2e" x="63.623047"/>
       <use xlink:href="#DejaVuSans-32" x="95.410156"/>
      </g>
     </g>
    </g>
    <g id="ytick_9">
     <g id="line2d_24">
      <g>
       <use xlink:href="#mca16d127bf" x="477.245214" y="239.496" style="stroke: #000000; stroke-width: 0.8"/>
      </g>
     </g>
     <g id="text_29">
      <!-- 0.4 -->
      <g transform="translate(454.342089 243.295219) scale(0.1 -0.1)">
       <use xlink:href="#DejaVuSans-30"/>
       <use xlink:href="#DejaVuSans-2e" x="63.623047"/>
       <use xlink:href="#DejaVuSans-34" x="95.410156"/>
      </g>
     </g>
    </g>
    <g id="ytick_10">
     <g id="line2d_25">
      <g>
       <use xlink:href="#mca16d127bf" x="477.245214" y="164.584" style="stroke: #000000; stroke-width: 0.8"/>
      </g>
     </g>
     <g id="text_30">
      <!-- 0.6 -->
      <g transform="translate(454.342089 168.383219) scale(0.1 -0.1)">
       <use xlink:href="#DejaVuSans-30"/>
       <use xlink:href="#DejaVuSans-2e" x="63.623047"/>
       <use xlink:href="#DejaVuSans-36" x="95.410156"/>
      </g>
     </g>
    </g>
    <g id="ytick_11">
     <g id="line2d_26">
      <g>
       <use xlink:href="#mca16d127bf" x="477.245214" y="89.672" style="stroke: #000000; stroke-width: 0.8"/>
      </g>
     </g>
     <g id="text_31">
      <!-- 0.8 -->
      <g transform="translate(454.342089 93.471219) scale(0.1 -0.1)">
       <use xlink:href="#DejaVuSans-30"/>
       <use xlink:href="#DejaVuSans-2e" x="63.623047"/>
       <use xlink:href="#DejaVuSans-38" x="95.410156"/>
      </g>
     </g>
    </g>
    <g id="ytick_12">
     <g id="line2d_27">
      <g>
       <use xlink:href="#mca16d127bf" x="477.245214" y="14.76" style="stroke: #000000; stroke-width: 0.8"/>
      </g>
     </g>
     <g id="text_32">
      <!-- 1.0 -->
      <g transform="translate(454.342089 18.559219) scale(0.1 -0.1)">
       <use xlink:href="#DejaVuSans-31"/>
       <use xlink:href="#DejaVuSans-2e" x="63.623047"/>
       <use xlink:href="#DejaVuSans-30" x="95.410156"/>
      </g>
     </g>
    </g>
    <g id="text_33">
     <!-- Cumulative Density -->
     <g transform="translate(447.846464 261.002187) rotate(-90) scale(0.12 -0.12)">
      <defs>
       <path id="DejaVuSans-43" d="M 4122 4306 
L 4122 3641 
Q 3803 3938 3442 4084 
Q 3081 4231 2675 4231 
Q 1875 4231 1450 3742 
Q 1025 3253 1025 2328 
Q 1025 1406 1450 917 
Q 1875 428 2675 428 
Q 3081 428 3442 575 
Q 3803 722 4122 1019 
L 4122 359 
Q 3791 134 3420 21 
Q 3050 -91 2638 -91 
Q 1578 -91 968 557 
Q 359 1206 359 2328 
Q 359 3453 968 4101 
Q 1578 4750 2638 4750 
Q 3056 4750 3426 4639 
Q 3797 4528 4122 4306 
z
" transform="scale(0.015625)"/>
       <path id="DejaVuSans-6d" d="M 3328 2828 
Q 3544 3216 3844 3400 
Q 4144 3584 4550 3584 
Q 5097 3584 5394 3201 
Q 5691 2819 5691 2113 
L 5691 0 
L 5113 0 
L 5113 2094 
Q 5113 2597 4934 2840 
Q 4756 3084 4391 3084 
Q 3944 3084 3684 2787 
Q 3425 2491 3425 1978 
L 3425 0 
L 2847 0 
L 2847 2094 
Q 2847 2600 2669 2842 
Q 2491 3084 2119 3084 
Q 1678 3084 1418 2786 
Q 1159 2488 1159 1978 
L 1159 0 
L 581 0 
L 581 3500 
L 1159 3500 
L 1159 2956 
Q 1356 3278 1631 3431 
Q 1906 3584 2284 3584 
Q 2666 3584 2933 3390 
Q 3200 3197 3328 2828 
z
" transform="scale(0.015625)"/>
       <path id="DejaVuSans-76" d="M 191 3500 
L 800 3500 
L 1894 563 
L 2988 3500 
L 3597 3500 
L 2284 0 
L 1503 0 
L 191 3500 
z
" transform="scale(0.015625)"/>
      </defs>
      <use xlink:href="#DejaVuSans-43"/>
      <use xlink:href="#DejaVuSans-75" x="69.824219"/>
      <use xlink:href="#DejaVuSans-6d" x="133.203125"/>
      <use xlink:href="#DejaVuSans-75" x="230.615234"/>
      <use xlink:href="#DejaVuSans-6c" x="293.994141"/>
      <use xlink:href="#DejaVuSans-61" x="321.777344"/>
      <use xlink:href="#DejaVuSans-74" x="383.056641"/>
      <use xlink:href="#DejaVuSans-69" x="422.265625"/>
      <use xlink:href="#DejaVuSans-76" x="450.048828"/>
      <use xlink:href="#DejaVuSans-65" x="509.228516"/>
      <use xlink:href="#DejaVuSans-20" x="570.751953"/>
      <use xlink:href="#DejaVuSans-44" x="602.539062"/>
      <use xlink:href="#DejaVuSans-65" x="679.541016"/>
      <use xlink:href="#DejaVuSans-6e" x="741.064453"/>
      <use xlink:href="#DejaVuSans-73" x="804.443359"/>
      <use xlink:href="#DejaVuSans-69" x="856.542969"/>
      <use xlink:href="#DejaVuSans-74" x="884.326172"/>
      <use xlink:href="#DejaVuSans-79" x="923.535156"/>
     </g>
    </g>
   </g>
   <g id="line2d_28">
    <path d="M 537.866624 14.76 
L 537.866624 15.13456 
L 544.78317 15.13456 
L 544.78317 15.50912 
L 582.741139 15.50912 
L 582.741139 15.88368 
L 593.573255 15.88368 
L 593.573255 16.25824 
L 597.948821 16.25824 
L 597.948821 16.6328 
L 601.128523 16.6328 
L 601.128523 17.00736 
L 607.610397 17.00736 
L 607.610397 17.38192 
L 609.729575 17.38192 
L 609.729575 17.75648 
L 614.947914 17.75648 
L 614.947914 18.13104 
L 619.807763 18.13104 
L 619.807763 18.5056 
L 621.842871 18.5056 
L 621.842871 18.88016 
L 622.653261 18.88016 
L 622.653261 19.25472 
L 625.06824 19.25472 
L 625.06824 19.62928 
L 627.034432 19.62928 
L 627.117879 20.3784 
L 627.594896 20.3784 
L 627.594896 20.75296 
L 632.301137 20.75296 
L 632.301137 21.12752 
L 635.935852 21.12752 
L 635.935852 21.50208 
L 636.241824 21.50208 
L 636.241824 21.87664 
L 637.384549 21.87664 
L 637.384549 22.2512 
L 638.978551 22.2512 
L 638.978551 22.62576 
L 640.789058 22.62576 
L 640.789058 23.00032 
L 641.097106 23.00032 
L 641.097106 23.37488 
L 641.558555 23.37488 
L 641.558555 23.74944 
L 641.917252 23.74944 
L 641.96894 24.49856 
L 642.822506 24.49856 
L 642.822506 24.87312 
L 643.128478 24.87312 
L 643.128478 25.24768 
L 643.289975 25.24768 
L 643.289975 25.62224 
L 643.694132 25.62224 
L 643.694132 25.9968 
L 644.435606 25.9968 
L 644.435606 26.37136 
L 644.70276 26.37136 
L 644.70276 26.74592 
L 645.201989 26.74592 
L 645.201989 27.12048 
L 645.942009 27.12048 
L 645.942009 27.49504 
L 646.657536 27.49504 
L 646.741605 28.24416 
L 647.413332 28.24416 
L 647.413332 28.61872 
L 647.67675 28.61872 
L 647.67675 28.99328 
L 648.36114 28.99328 
L 648.36114 29.36784 
L 650.267964 29.36784 
L 650.267964 29.7424 
L 650.766155 29.7424 
L 650.853338 30.49152 
L 650.922254 30.49152 
L 650.922254 30.86608 
L 651.118209 30.86608 
L 651.118209 31.24064 
L 651.338659 31.24064 
L 651.338659 31.6152 
L 651.686977 31.6152 
L 651.686977 31.98976 
L 651.819413 31.98976 
L 651.819413 32.36432 
L 652.109816 32.36432 
L 652.109816 32.73888 
L 652.550092 32.73888 
L 652.550092 33.11344 
L 652.853573 33.11344 
L 652.853573 33.488 
L 653.320212 33.488 
L 653.320212 33.86256 
L 653.507448 33.86256 
L 653.507448 34.23712 
L 653.676833 34.23712 
L 653.676833 34.61168 
L 653.974917 34.61168 
L 653.974917 34.98624 
L 654.236467 34.98624 
L 654.236467 35.3608 
L 654.532268 35.3608 
L 654.532268 35.73536 
L 655.259626 35.73536 
L 655.259626 36.10992 
L 656.23172 36.10992 
L 656.23172 36.48448 
L 656.528351 36.48448 
L 656.528351 36.85904 
L 657.021352 36.85904 
L 657.021352 37.2336 
L 657.329608 37.2336 
L 657.329608 37.60816 
L 657.748088 37.60816 
L 657.748088 37.98272 
L 659.140323 37.98272 
L 659.165648 39.1064 
L 659.27525 39.1064 
L 659.27525 39.48096 
L 660.026064 39.48096 
L 660.039142 40.23008 
L 660.464472 40.23008 
L 660.464472 40.60464 
L 660.5967 40.60464 
L 660.5967 40.9792 
L 661.020162 40.9792 
L 661.020162 41.35376 
L 661.166298 41.35376 
L 661.166298 41.72832 
L 661.664488 41.72832 
L 661.664488 42.10288 
L 661.953647 42.10288 
L 661.953647 42.47744 
L 662.241144 42.47744 
L 662.348047 43.60112 
L 662.504355 43.60112 
L 662.504355 43.97568 
L 662.939649 43.97568 
L 662.939649 44.35024 
L 663.085577 44.35024 
L 663.087238 45.09936 
L 663.223825 45.09936 
L 663.223825 45.47392 
L 663.542875 45.47392 
L 663.638361 46.5976 
L 664.467226 46.5976 
L 664.467226 46.97216 
L 664.646574 46.97216 
L 664.755346 48.84496 
L 664.794371 48.84496 
L 664.794371 49.21952 
L 664.985551 49.21952 
L 665.019387 49.96864 
L 665.437867 49.96864 
L 665.500556 51.09232 
L 665.723289 51.09232 
L 665.723289 51.46688 
L 665.878558 51.46688 
L 665.894126 52.216 
L 666.08676 52.216 
L 666.08676 52.59056 
L 666.301397 52.59056 
L 666.301397 52.96512 
L 666.520601 52.96512 
L 666.520601 53.33968 
L 666.949045 53.33968 
L 667.032492 54.0888 
L 667.395341 54.0888 
L 667.395341 54.46336 
L 667.552063 54.46336 
L 667.552063 54.83792 
L 667.899343 54.83792 
L 667.899343 55.21248 
L 668.058349 55.21248 
L 668.058349 55.58704 
L 668.613417 55.58704 
L 668.638741 56.33616 
L 668.869985 56.33616 
L 668.869985 56.71072 
L 669.142329 56.71072 
L 669.25027 57.8344 
L 669.321262 57.8344 
L 669.402426 58.58352 
L 669.503725 58.58352 
L 669.593607 59.33264 
L 670.232328 59.33264 
L 670.283185 60.08176 
L 670.419357 60.08176 
L 670.52377 61.20544 
L 670.891808 61.20544 
L 670.891808 61.58 
L 671.032962 61.58 
L 671.032962 61.95456 
L 671.703028 61.95456 
L 671.704274 62.70368 
L 671.86328 62.70368 
L 671.86328 63.07824 
L 672.268475 63.07824 
L 672.268475 63.4528 
L 672.449899 63.4528 
L 672.531685 64.57648 
L 672.783272 64.57648 
L 672.783272 64.95104 
L 673.686657 64.95104 
L 673.7919 66.07472 
L 674.029578 66.07472 
L 674.029578 66.44928 
L 674.157862 66.44928 
L 674.240064 68.32208 
L 674.521542 68.32208 
L 674.521542 68.69664 
L 674.668093 68.69664 
L 674.668093 69.0712 
L 674.79783 69.0712 
L 674.888957 69.82032 
L 674.964308 69.82032 
L 674.964308 70.19488 
L 675.564836 70.19488 
L 675.668625 71.69312 
L 675.804797 71.69312 
L 675.804797 72.06768 
L 676.271021 72.06768 
L 676.33371 72.8168 
L 676.454936 72.8168 
L 676.55665 73.56592 
L 677.05401 73.56592 
L 677.05401 73.94048 
L 677.20492 73.94048 
L 677.209695 74.6896 
L 677.571713 74.6896 
L 677.614682 75.43872 
L 677.966944 75.43872 
L 677.986457 76.18784 
L 678.328133 76.18784 
L 678.328133 76.5624 
L 678.546091 76.5624 
L 678.634935 77.68608 
L 678.90209 77.68608 
L 678.90209 78.06064 
L 679.133126 78.06064 
L 679.133126 78.4352 
L 679.359802 78.4352 
L 679.392185 79.55888 
L 679.494106 79.55888 
L 679.494106 79.93344 
L 679.912794 79.93344 
L 680.020527 81.05712 
L 680.03319 81.05712 
L 680.03319 81.43168 
L 680.156077 81.43168 
L 680.156077 81.80624 
L 680.416381 81.80624 
L 680.416381 82.1808 
L 680.829672 82.1808 
L 680.829672 82.55536 
L 680.961277 82.55536 
L 680.969788 83.30448 
L 681.496625 83.30448 
L 681.529007 84.0536 
L 681.941675 84.0536 
L 681.941675 84.42816 
L 682.088018 84.42816 
L 682.088018 84.80272 
L 682.241419 84.80272 
L 682.28937 85.55184 
L 682.396689 85.55184 
L 682.396689 85.9264 
L 682.647445 85.9264 
L 682.647445 86.30096 
L 683.525921 86.30096 
L 683.564115 87.05008 
L 683.658772 87.05008 
L 683.668735 87.7992 
L 683.940664 87.7992 
L 683.940664 88.17376 
L 684.129977 88.17376 
L 684.164227 89.29744 
L 684.329668 89.29744 
L 684.418927 90.42112 
L 684.560497 90.42112 
L 684.560497 90.79568 
L 684.836577 90.79568 
L 684.858996 91.5448 
L 684.981468 91.5448 
L 685.042081 92.66848 
L 685.257133 92.66848 
L 685.355526 93.79216 
L 685.56352 93.79216 
L 685.56352 94.54128 
L 685.730414 94.54128 
L 685.774421 95.2904 
L 685.875927 95.2904 
L 685.931559 96.03952 
L 686.038877 96.03952 
L 686.038877 96.41408 
L 686.21698 96.41408 
L 686.295445 97.1632 
L 686.461716 97.1632 
L 686.461716 97.53776 
L 686.703754 97.53776 
L 686.745062 98.28688 
L 686.875007 98.28688 
L 686.875007 98.66144 
L 687.043561 98.66144 
L 687.043561 99.036 
L 687.202567 99.036 
L 687.278541 99.78512 
L 687.604441 99.78512 
L 687.643258 100.9088 
L 687.909167 100.9088 
L 687.92349 101.65792 
L 688.314778 101.65792 
L 688.416076 103.15616 
L 688.492258 103.15616 
L 688.569478 104.6544 
L 688.718727 104.6544 
L 688.737409 105.40352 
L 688.835802 105.40352 
L 688.893924 106.15264 
L 689.108146 106.15264 
L 689.108146 106.5272 
L 689.319254 106.5272 
L 689.353505 107.27632 
L 689.473901 107.27632 
L 689.549045 108.77456 
L 689.810802 108.77456 
L 689.810802 109.14912 
L 689.986207 109.14912 
L 690.00821 109.89824 
L 690.16431 109.89824 
L 690.258136 111.02192 
L 690.456997 111.02192 
L 690.560787 112.1456 
L 690.757572 112.1456 
L 690.757572 112.52016 
L 690.868835 112.52016 
L 690.868835 112.89472 
L 690.985909 112.89472 
L 691.075584 114.0184 
L 691.128309 114.0184 
L 691.137027 114.76752 
L 691.329246 114.76752 
L 691.329246 115.14208 
L 691.45919 115.14208 
L 691.491573 115.8912 
L 691.64186 115.8912 
L 691.74565 116.64032 
L 691.776372 116.64032 
L 691.877671 118.51312 
L 691.988933 118.51312 
L 691.988933 118.88768 
L 692.172018 118.88768 
L 692.260447 119.6368 
L 692.371709 119.6368 
L 692.433153 120.76048 
L 692.521582 120.76048 
L 692.54317 121.5096 
L 692.663981 121.5096 
L 692.666472 122.25872 
L 692.796417 122.25872 
L 692.890243 123.00784 
L 692.986145 123.00784 
L 693.055891 124.13152 
L 693.108616 124.13152 
L 693.108616 124.50608 
L 693.315781 124.50608 
L 693.398812 125.2552 
L 693.465238 125.2552 
L 693.473541 126.00432 
L 693.588125 126.00432 
L 693.588125 126.37888 
L 693.730939 126.37888 
L 693.794044 127.50256 
L 693.897003 127.50256 
L 693.974222 129.0008 
L 694.11247 129.0008 
L 694.11247 129.37536 
L 694.406818 129.37536 
L 694.446673 130.12448 
L 694.526384 130.12448 
L 694.587827 131.24816 
L 694.864323 131.24816 
L 694.921615 132.7464 
L 695.15701 132.7464 
L 695.231323 133.87008 
L 695.420636 133.87008 
L 695.527332 135.74288 
L 695.761896 135.74288 
L 695.761896 136.11744 
L 696.417017 136.11744 
L 696.484273 137.24112 
L 696.600932 137.24112 
L 696.600932 137.61568 
L 696.727556 137.61568 
L 696.800624 138.3648 
L 697.063004 138.3648 
L 697.156 139.11392 
L 697.468199 139.11392 
L 697.514282 140.61216 
L 697.615165 140.61216 
L 697.615165 140.98672 
L 697.755489 140.98672 
L 697.847239 142.1104 
L 697.972202 142.1104 
L 698.066858 142.85952 
L 698.240394 142.85952 
L 698.311802 143.60864 
L 698.352487 143.60864 
L 698.40023 144.35776 
L 698.466656 144.35776 
L 698.518551 145.10688 
L 698.63438 145.10688 
L 698.744397 146.23056 
L 698.892194 146.23056 
L 698.900912 146.97968 
L 699.023384 146.97968 
L 699.110982 147.7288 
L 699.318147 147.7288 
L 699.372117 148.85248 
L 699.469264 148.85248 
L 699.578451 149.6016 
L 699.690129 149.6016 
L 699.690129 149.97616 
L 699.872384 149.97616 
L 699.982401 151.09984 
L 700.05796 151.09984 
L 700.05796 151.4744 
L 700.178356 151.4744 
L 700.270106 152.59808 
L 700.290449 152.59808 
L 700.394238 153.72176 
L 700.55615 153.72176 
L 700.55615 154.09632 
L 700.744632 154.09632 
L 700.835967 154.84544 
L 700.865859 154.84544 
L 700.865859 155.22 
L 701.002861 155.22 
L 701.002861 155.59456 
L 701.310909 155.59456 
L 701.37941 156.71824 
L 701.451233 156.71824 
L 701.55004 157.46736 
L 701.576611 157.46736 
L 701.65383 158.21648 
L 701.869713 158.21648 
L 701.951084 158.9656 
L 702.069404 158.9656 
L 702.069404 159.34016 
L 702.303969 159.34016 
L 702.41108 160.8384 
L 702.432253 160.8384 
L 702.535627 162.7112 
L 702.756907 162.7112 
L 702.867754 163.83488 
L 703.036309 163.83488 
L 703.115604 164.584 
L 703.155044 164.584 
L 703.200712 165.70768 
L 703.279592 165.70768 
L 703.315711 166.4568 
L 703.434861 166.4568 
L 703.50959 167.95504 
L 703.583488 167.95504 
L 703.66569 169.07872 
L 703.712187 169.07872 
L 703.802692 170.57696 
L 703.846699 170.57696 
L 703.880742 171.32608 
L 703.962943 171.32608 
L 704.073376 173.57344 
L 704.291334 173.57344 
L 704.324131 174.32256 
L 704.527559 174.32256 
L 704.540014 175.07168 
L 704.728911 175.07168 
L 704.809867 176.56992 
L 704.867574 176.56992 
L 704.9203 177.31904 
L 705.058963 177.31904 
L 705.098818 178.44272 
L 705.215062 178.44272 
L 705.31387 180.31552 
L 705.420981 180.31552 
L 705.504013 181.4392 
L 705.569608 181.4392 
L 705.602821 182.18832 
L 705.708271 182.18832 
L 705.789227 182.93744 
L 706.003864 182.93744 
L 706.003864 183.312 
L 706.130903 183.312 
L 706.180722 184.06112 
L 706.336406 184.06112 
L 706.43812 185.1848 
L 706.530285 185.1848 
L 706.56848 186.30848 
L 706.698425 186.30848 
L 706.747829 187.43216 
L 706.820897 187.43216 
L 706.922195 188.18128 
L 706.934235 188.18128 
L 707.040931 189.67952 
L 707.058367 189.67952 
L 707.118981 190.8032 
L 707.205334 190.8032 
L 707.28712 193.05056 
L 707.32656 193.05056 
L 707.40627 194.5488 
L 707.576901 194.5488 
L 707.666575 196.04704 
L 707.77161 196.04704 
L 707.801502 197.54528 
L 707.924389 197.54528 
L 707.931031 198.2944 
L 708.050597 198.2944 
L 708.050597 198.66896 
L 708.188014 198.66896 
L 708.284331 199.41808 
L 708.419258 199.41808 
L 708.454962 200.1672 
L 708.554185 200.1672 
L 708.598607 201.29088 
L 708.748894 201.29088 
L 708.847287 203.16368 
L 708.932394 203.16368 
L 708.964777 204.28736 
L 709.076039 204.28736 
L 709.14371 205.7856 
L 709.250406 205.7856 
L 709.358347 206.90928 
L 709.416469 206.90928 
L 709.516107 208.03296 
L 709.567587 208.03296 
L 709.661413 209.5312 
L 709.70542 209.5312 
L 709.795509 210.65488 
L 709.82291 210.65488 
L 709.850725 211.404 
L 709.937909 211.404 
L 710.04668 212.90224 
L 710.1513 212.90224 
L 710.239314 214.40048 
L 710.296606 214.40048 
L 710.367598 215.1496 
L 710.421154 215.1496 
L 710.500034 216.64784 
L 710.645339 216.64784 
L 710.747469 217.77152 
L 710.769887 217.77152 
L 710.871186 220.01888 
L 710.93346 220.01888 
L 710.999055 221.14256 
L 711.062989 221.14256 
L 711.152248 222.6408 
L 711.18297 222.6408 
L 711.237356 223.76448 
L 711.313745 223.76448 
L 711.390549 224.5136 
L 711.439953 224.5136 
L 711.487281 225.63728 
L 711.554122 225.63728 
L 711.575295 226.3864 
L 711.816502 226.3864 
L 711.925689 227.51008 
L 711.929426 227.51008 
L 712.034461 228.2592 
L 712.052728 228.2592 
L 712.152366 229.00832 
L 712.241625 229.00832 
L 712.277329 230.132 
L 712.414746 230.132 
L 712.513554 231.63024 
L 712.530991 231.63024 
L 712.580395 233.12848 
L 712.656369 233.12848 
L 712.746458 234.25216 
L 712.768462 234.25216 
L 712.871421 235.37584 
L 712.990156 235.37584 
L 713.079831 236.12496 
L 713.133801 236.12496 
L 713.181129 236.87408 
L 713.33972 236.87408 
L 713.33972 237.24864 
L 713.480044 237.24864 
L 713.56183 238.74688 
L 713.608328 238.74688 
L 713.712118 240.24512 
L 713.734121 240.24512 
L 713.824626 241.74336 
L 713.864066 241.74336 
L 713.91347 243.61616 
L 713.985707 243.61616 
L 714.072891 245.1144 
L 714.105273 245.1144 
L 714.207402 246.9872 
L 714.33195 246.9872 
L 714.377617 248.11088 
L 714.450685 248.11088 
L 714.558626 249.98368 
L 714.566514 249.98368 
L 714.664077 251.85648 
L 714.723444 251.85648 
L 714.81561 253.35472 
L 714.96133 253.35472 
L 715.061799 254.85296 
L 715.254432 254.85296 
L 715.340786 256.72576 
L 715.378565 256.72576 
L 715.462012 258.59856 
L 715.502697 258.59856 
L 715.535495 259.72224 
L 715.645927 259.72224 
L 715.740999 261.22048 
L 715.769229 261.22048 
L 715.871774 263.09328 
L 715.902911 263.09328 
L 715.999227 264.21696 
L 716.023307 264.21696 
L 716.096375 266.08976 
L 716.200995 266.08976 
L 716.271156 267.21344 
L 716.405668 267.21344 
L 716.426011 267.96256 
L 716.531876 267.96256 
L 716.626117 268.71168 
L 716.730737 268.71168 
L 716.730737 269.08624 
L 716.893479 269.08624 
L 716.986475 269.83536 
L 717.158351 269.83536 
L 717.23391 271.3336 
L 717.352645 271.3336 
L 717.460586 273.95552 
L 717.644917 273.95552 
L 717.725043 275.0792 
L 717.989499 275.0792 
L 718.047621 275.82832 
L 718.250218 275.82832 
L 718.342384 277.32656 
L 718.466101 277.32656 
L 718.555775 279.19936 
L 718.608085 279.19936 
L 718.675341 280.6976 
L 718.733878 280.6976 
L 718.733878 281.07216 
L 718.865899 281.07216 
L 718.920285 282.94496 
L 718.996674 282.94496 
L 719.031547 284.06864 
L 719.162737 284.06864 
L 719.213387 284.81776 
L 719.467049 284.81776 
L 719.467049 285.19232 
L 719.586199 285.19232 
L 719.665495 286.69056 
L 719.707841 286.69056 
L 719.774682 287.43968 
L 719.839446 287.43968 
L 719.922478 288.93792 
L 719.987243 288.93792 
L 720.086051 290.81072 
L 720.242981 290.81072 
L 720.304424 292.30896 
L 720.375001 292.30896 
L 720.377907 293.05808 
L 720.486264 293.05808 
L 720.553104 294.18176 
L 720.609566 294.18176 
L 720.645685 294.93088 
L 720.726226 294.93088 
L 720.831676 296.05456 
L 720.859907 296.05456 
L 720.870701 296.80368 
L 720.993588 296.80368 
L 721.019743 297.5528 
L 721.131005 297.5528 
L 721.131005 297.92736 
L 721.462717 297.92736 
L 721.553222 300.54928 
L 721.65369 300.54928 
L 721.745856 302.42208 
L 721.793184 302.42208 
L 721.882858 305.044 
L 721.97876 305.044 
L 722.040203 305.79312 
L 722.091268 305.79312 
L 722.124896 306.54224 
L 722.273107 306.54224 
L 722.319605 307.29136 
L 722.391012 307.29136 
L 722.413431 308.04048 
L 722.503105 308.04048 
L 722.522203 309.16416 
L 722.640938 309.16416 
L 722.689096 310.6624 
L 722.795377 310.6624 
L 722.817796 311.41152 
L 722.916603 311.41152 
L 722.994653 313.28432 
L 723.148262 313.28432 
L 723.220084 314.03344 
L 723.394866 314.03344 
L 723.45797 315.15712 
L 723.527717 315.15712 
L 723.527717 315.53168 
L 723.731975 315.53168 
L 723.748582 316.2808 
L 723.877281 316.2808 
L 723.983146 318.1536 
L 723.99394 318.1536 
L 723.99394 318.52816 
L 724.133019 318.52816 
L 724.189065 319.27728 
L 724.505001 319.27728 
L 724.505001 319.65184 
L 724.629964 319.65184 
L 724.719223 320.40096 
L 724.796442 320.40096 
L 724.890684 321.15008 
L 724.925142 321.15008 
L 724.995304 322.27376 
L 725.249796 322.27376 
L 725.336979 323.02288 
L 725.502628 323.02288 
L 725.515498 323.772 
L 725.6525 323.772 
L 725.740514 325.27024 
L 725.798636 325.27024 
L 725.857173 326.76848 
L 725.963039 326.76848 
L 726.005385 327.89216 
L 726.092568 327.89216 
L 726.141142 328.64128 
L 726.288938 328.64128 
L 726.353288 329.76496 
L 726.426771 329.76496 
L 726.521012 330.88864 
L 726.604874 330.88864 
L 726.655939 332.38688 
L 726.763465 332.38688 
L 726.856876 333.88512 
L 726.880955 333.88512 
L 726.880955 334.25968 
L 727.07691 334.25968 
L 727.111368 335.0088 
L 727.253352 335.0088 
L 727.257504 335.75792 
L 727.452628 335.75792 
L 727.563061 337.25616 
L 727.565552 337.25616 
L 727.632807 338.37984 
L 727.686778 338.37984 
L 727.686778 338.7544 
L 727.936289 338.7544 
L 727.97905 340.25264 
L 728.048797 340.25264 
L 728.157153 342.5 
L 728.263018 342.5 
L 728.285852 343.62368 
L 728.389227 343.62368 
L 728.389227 343.99824 
L 728.611337 343.99824 
L 728.708899 345.87104 
L 728.750415 345.87104 
L 728.762039 346.99472 
L 729.271854 346.99472 
L 729.271854 347.36928 
L 729.392666 347.36928 
L 729.392666 347.74384 
L 729.701129 347.74384 
L 729.805749 348.86752 
L 730.034086 348.86752 
L 730.034086 349.24208 
L 730.271557 349.24208 
L 730.379913 349.9912 
L 730.493252 349.9912 
L 730.493252 350.36576 
L 730.616139 350.36576 
L 730.644369 351.11488 
L 730.807942 351.11488 
L 730.900107 352.98768 
L 730.954078 352.98768 
L 730.996424 353.7368 
L 731.159166 353.7368 
L 731.199852 354.48592 
L 731.275411 354.48592 
L 731.375464 355.23504 
L 731.460572 355.23504 
L 731.460572 355.6096 
L 731.781074 355.6096 
L 731.858294 357.4824 
L 731.894828 357.4824 
L 731.894828 357.85696 
L 732.159699 357.85696 
L 732.159699 358.23152 
L 732.412946 358.23152 
L 732.412946 358.60608 
L 732.535833 358.60608 
L 732.639623 359.72976 
L 732.706048 359.72976 
L 732.796553 361.228 
L 732.840559 361.228 
L 732.880415 361.97712 
L 733.210466 361.97712 
L 733.267758 362.72624 
L 733.423442 362.72624 
L 733.423442 363.1008 
L 733.588676 363.1008 
L 733.698278 364.59904 
L 733.819504 364.59904 
L 733.819504 364.9736 
L 733.9399 364.9736 
L 734.042859 366.47184 
L 734.289049 366.47184 
L 734.303994 367.22096 
L 734.434769 367.22096 
L 734.434769 367.59552 
L 734.650237 367.59552 
L 734.655634 368.34464 
L 734.839549 368.34464 
L 734.839549 368.7192 
L 735.043807 368.7192 
L 735.126839 369.84288 
L 735.204474 369.84288 
L 735.204474 370.21744 
L 735.81019 370.21744 
L 735.81019 370.592 
L 736.116162 370.592 
L 736.116162 370.96656 
L 736.37107 370.96656 
L 736.47652 371.71568 
L 736.660851 371.71568 
L 736.660851 372.09024 
L 736.888358 372.09024 
L 736.888358 372.4648 
L 737.689199 372.4648 
L 737.689199 372.83936 
L 737.948673 372.83936 
L 737.948673 373.21392 
L 738.295746 373.21392 
L 738.295746 373.58848 
L 738.419879 373.58848 
L 738.419879 373.96304 
L 738.722529 373.96304 
L 738.746609 374.71216 
L 738.963322 374.71216 
L 738.963322 375.08672 
L 739.561981 375.08672 
L 739.561981 375.46128 
L 740.690382 375.46128 
L 740.73771 376.2104 
L 741.541458 376.2104 
L 741.541458 376.58496 
L 742.251379 376.58496 
L 742.338563 377.33408 
L 743.102455 377.33408 
L 743.102455 377.70864 
L 743.419636 377.70864 
L 743.419636 378.0832 
L 743.941076 378.0832 
L 743.941076 378.45776 
L 745.226822 378.45776 
L 745.231389 379.20688 
L 745.722107 379.20688 
L 745.771096 379.956 
L 746.740907 379.956 
L 746.740907 380.33056 
L 748.84244 380.33056 
L 748.84244 380.70512 
L 752.477156 380.70512 
L 752.477156 381.07968 
L 753.955121 381.07968 
L 753.955121 381.45424 
L 763.986603 381.45424 
L 763.986603 381.8288 
L 766.310662 381.8288 
L 766.310662 382.20336 
L 770.428207 382.20336 
L 770.428207 382.57792 
L 770.598838 382.57792 
L 770.598838 382.95248 
L 770.893185 382.95248 
L 770.893185 383.32704 
L 772.016605 383.32704 
L 772.016605 383.7016 
L 772.717393 383.7016 
L 772.717393 384.07616 
L 772.856886 384.07616 
L 772.874738 384.82528 
L 774.87954 384.82528 
L 774.87954 385.19984 
L 775.064701 385.19984 
L 775.064701 385.5744 
L 780.172815 385.5744 
L 780.172815 385.94896 
L 782.100397 385.94896 
L 782.100397 386.32352 
L 782.584887 386.32352 
L 782.584887 386.69808 
L 783.339646 386.69808 
L 783.339646 387.07264 
L 784.784399 387.07264 
L 784.784399 387.4472 
L 785.902006 387.4472 
L 785.902006 387.82176 
L 786.528066 387.82176 
L 786.528066 388.19632 
L 787.707947 388.19632 
L 787.707947 388.57088 
L 791.592173 388.57088 
L 791.592173 388.94544 
L 792.57859 388.94544 
L 792.57859 389.32 
L 792.57859 389.32 
" clip-path="url(#pbda6356e51)" style="fill: none; stroke: #808080; stroke-width: 1.5; stroke-linecap: square"/>
   </g>
   <g id="line2d_29">
    <path d="M 735.634993 14.76 
L 735.634993 389.32 
L 735.634993 389.32 
" clip-path="url(#pbda6356e51)" style="fill: none; stroke: #ffa500; stroke-width: 1.5; stroke-linecap: square"/>
   </g>
   <g id="line2d_30">
    <path d="M 730.526464 14.76 
L 730.526464 389.32 
L 730.526464 389.32 
" clip-path="url(#pbda6356e51)" style="fill: none; stroke: #0000ff; stroke-width: 1.5; stroke-linecap: square"/>
   </g>
   <g id="line2d_31">
    <path d="M 772.70864 389.32 
L 772.70864 14.76 
" clip-path="url(#pbda6356e51)" style="fill: none; stroke-dasharray: 11.1,4.8; stroke-dashoffset: 0; stroke: #ffa500; stroke-width: 3"/>
   </g>
   <g id="patch_89">
    <path d="M 477.245214 389.32 
L 477.245214 14.76 
" style="fill: none; stroke: #000000; stroke-width: 0.8; stroke-linejoin: miter; stroke-linecap: square"/>
   </g>
   <g id="patch_90">
    <path d="M 477.245214 389.32 
L 853.2 389.32 
" style="fill: none; stroke: #000000; stroke-width: 0.8; stroke-linejoin: miter; stroke-linecap: square"/>
   </g>
   <g id="legend_2">
    <g id="patch_91">
     <path d="M 484.245214 384.32 
L 689.515527 384.32 
Q 691.515527 384.32 691.515527 382.32 
L 691.515527 339.285625 
Q 691.515527 337.285625 689.515527 337.285625 
L 484.245214 337.285625 
Q 482.245214 337.285625 482.245214 339.285625 
L 482.245214 382.32 
Q 482.245214 384.32 484.245214 384.32 
z
" style="fill: #ffffff; opacity: 0.8; stroke: #000000; stroke-linejoin: miter"/>
    </g>
    <g id="patch_92">
     <path d="M 486.245214 348.884063 
L 506.245214 348.884063 
L 506.245214 341.884063 
L 486.245214 341.884063 
z
" style="fill: #ff0000; opacity: 0.8; stroke: #ff0000; stroke-linejoin: miter"/>
    </g>
    <g id="text_34">
     <!-- Less than WT Log Fluorescence -->
     <g transform="translate(514.245214 348.884063) scale(0.1 -0.1)">
      <defs>
       <path id="DejaVuSans-4c" d="M 628 4666 
L 1259 4666 
L 1259 531 
L 3531 531 
L 3531 0 
L 628 0 
L 628 4666 
z
" transform="scale(0.015625)"/>
       <path id="DejaVuSans-68" d="M 3513 2113 
L 3513 0 
L 2938 0 
L 2938 2094 
Q 2938 2591 2744 2837 
Q 2550 3084 2163 3084 
Q 1697 3084 1428 2787 
Q 1159 2491 1159 1978 
L 1159 0 
L 581 0 
L 581 4863 
L 1159 4863 
L 1159 2956 
Q 1366 3272 1645 3428 
Q 1925 3584 2291 3584 
Q 2894 3584 3203 3211 
Q 3513 2838 3513 2113 
z
" transform="scale(0.015625)"/>
       <path id="DejaVuSans-57" d="M 213 4666 
L 850 4666 
L 1831 722 
L 2809 4666 
L 3519 4666 
L 4500 722 
L 5478 4666 
L 6119 4666 
L 4947 0 
L 4153 0 
L 3169 4050 
L 2175 0 
L 1381 0 
L 213 4666 
z
" transform="scale(0.015625)"/>
      </defs>
      <use xlink:href="#DejaVuSans-4c"/>
      <use xlink:href="#DejaVuSans-65" x="53.962891"/>
      <use xlink:href="#DejaVuSans-73" x="115.486328"/>
      <use xlink:href="#DejaVuSans-73" x="167.585938"/>
      <use xlink:href="#DejaVuSans-20" x="219.685547"/>
      <use xlink:href="#DejaVuSans-74" x="251.472656"/>
      <use xlink:href="#DejaVuSans-68" x="290.681641"/>
      <use xlink:href="#DejaVuSans-61" x="354.060547"/>
      <use xlink:href="#DejaVuSans-6e" x="415.339844"/>
      <use xlink:href="#DejaVuSans-20" x="478.71875"/>
      <use xlink:href="#DejaVuSans-57" x="510.505859"/>
      <use xlink:href="#DejaVuSans-54" x="609.382812"/>
      <use xlink:href="#DejaVuSans-20" x="670.466797"/>
      <use xlink:href="#DejaVuSans-4c" x="702.253906"/>
      <use xlink:href="#DejaVuSans-6f" x="756.216797"/>
      <use xlink:href="#DejaVuSans-67" x="817.398438"/>
      <use xlink:href="#DejaVuSans-20" x="880.875"/>
      <use xlink:href="#DejaVuSans-46" x="912.662109"/>
      <use xlink:href="#DejaVuSans-6c" x="970.181641"/>
      <use xlink:href="#DejaVuSans-75" x="997.964844"/>
      <use xlink:href="#DejaVuSans-6f" x="1061.34375"/>
      <use xlink:href="#DejaVuSans-72" x="1122.525391"/>
      <use xlink:href="#DejaVuSans-65" x="1161.388672"/>
      <use xlink:href="#DejaVuSans-73" x="1222.912109"/>
      <use xlink:href="#DejaVuSans-63" x="1275.011719"/>
      <use xlink:href="#DejaVuSans-65" x="1329.992188"/>
      <use xlink:href="#DejaVuSans-6e" x="1391.515625"/>
      <use xlink:href="#DejaVuSans-63" x="1454.894531"/>
      <use xlink:href="#DejaVuSans-65" x="1509.875"/>
     </g>
    </g>
    <g id="patch_93">
     <path d="M 486.245214 363.562187 
L 506.245214 363.562187 
L 506.245214 356.562187 
L 486.245214 356.562187 
z
" style="fill: #ffa500; opacity: 0.8; stroke: #ffa500; stroke-linejoin: miter"/>
    </g>
    <g id="text_35">
     <!-- Mean WT Log Fluorescence -->
     <g transform="translate(514.245214 363.562187) scale(0.1 -0.1)">
      <use xlink:href="#DejaVuSans-4d"/>
      <use xlink:href="#DejaVuSans-65" x="86.279297"/>
      <use xlink:href="#DejaVuSans-61" x="147.802734"/>
      <use xlink:href="#DejaVuSans-6e" x="209.082031"/>
      <use xlink:href="#DejaVuSans-20" x="272.460938"/>
      <use xlink:href="#DejaVuSans-57" x="304.248047"/>
      <use xlink:href="#DejaVuSans-54" x="403.125"/>
      <use xlink:href="#DejaVuSans-20" x="464.208984"/>
      <use xlink:href="#DejaVuSans-4c" x="495.996094"/>
      <use xlink:href="#DejaVuSans-6f" x="549.958984"/>
      <use xlink:href="#DejaVuSans-67" x="611.140625"/>
      <use xlink:href="#DejaVuSans-20" x="674.617188"/>
      <use xlink:href="#DejaVuSans-46" x="706.404297"/>
      <use xlink:href="#DejaVuSans-6c" x="763.923828"/>
      <use xlink:href="#DejaVuSans-75" x="791.707031"/>
      <use xlink:href="#DejaVuSans-6f" x="855.085938"/>
      <use xlink:href="#DejaVuSans-72" x="916.267578"/>
      <use xlink:href="#DejaVuSans-65" x="955.130859"/>
      <use xlink:href="#DejaVuSans-73" x="1016.654297"/>
      <use xlink:href="#DejaVuSans-63" x="1068.753906"/>
      <use xlink:href="#DejaVuSans-65" x="1123.734375"/>
      <use xlink:href="#DejaVuSans-6e" x="1185.257812"/>
      <use xlink:href="#DejaVuSans-63" x="1248.636719"/>
      <use xlink:href="#DejaVuSans-65" x="1303.617188"/>
     </g>
    </g>
    <g id="patch_94">
     <path d="M 486.245214 378.240313 
L 506.245214 378.240313 
L 506.245214 371.240313 
L 486.245214 371.240313 
z
" style="fill: #008000; opacity: 0.8; stroke: #008000; stroke-linejoin: miter"/>
    </g>
    <g id="text_36">
     <!-- Greater than WT Log Fluorescence -->
     <g transform="translate(514.245214 378.240313) scale(0.1 -0.1)">
      <defs>
       <path id="DejaVuSans-47" d="M 3809 666 
L 3809 1919 
L 2778 1919 
L 2778 2438 
L 4434 2438 
L 4434 434 
Q 4069 175 3628 42 
Q 3188 -91 2688 -91 
Q 1594 -91 976 548 
Q 359 1188 359 2328 
Q 359 3472 976 4111 
Q 1594 4750 2688 4750 
Q 3144 4750 3555 4637 
Q 3966 4525 4313 4306 
L 4313 3634 
Q 3963 3931 3569 4081 
Q 3175 4231 2741 4231 
Q 1884 4231 1454 3753 
Q 1025 3275 1025 2328 
Q 1025 1384 1454 906 
Q 1884 428 2741 428 
Q 3075 428 3337 486 
Q 3600 544 3809 666 
z
" transform="scale(0.015625)"/>
      </defs>
      <use xlink:href="#DejaVuSans-47"/>
      <use xlink:href="#DejaVuSans-72" x="77.490234"/>
      <use xlink:href="#DejaVuSans-65" x="116.353516"/>
      <use xlink:href="#DejaVuSans-61" x="177.876953"/>
      <use xlink:href="#DejaVuSans-74" x="239.15625"/>
      <use xlink:href="#DejaVuSans-65" x="278.365234"/>
      <use xlink:href="#DejaVuSans-72" x="339.888672"/>
      <use xlink:href="#DejaVuSans-20" x="381.001953"/>
      <use xlink:href="#DejaVuSans-74" x="412.789062"/>
      <use xlink:href="#DejaVuSans-68" x="451.998047"/>
      <use xlink:href="#DejaVuSans-61" x="515.376953"/>
      <use xlink:href="#DejaVuSans-6e" x="576.65625"/>
      <use xlink:href="#DejaVuSans-20" x="640.035156"/>
      <use xlink:href="#DejaVuSans-57" x="671.822266"/>
      <use xlink:href="#DejaVuSans-54" x="770.699219"/>
      <use xlink:href="#DejaVuSans-20" x="831.783203"/>
      <use xlink:href="#DejaVuSans-4c" x="863.570312"/>
      <use xlink:href="#DejaVuSans-6f" x="917.533203"/>
      <use xlink:href="#DejaVuSans-67" x="978.714844"/>
      <use xlink:href="#DejaVuSans-20" x="1042.191406"/>
      <use xlink:href="#DejaVuSans-46" x="1073.978516"/>
      <use xlink:href="#DejaVuSans-6c" x="1131.498047"/>
      <use xlink:href="#DejaVuSans-75" x="1159.28125"/>
      <use xlink:href="#DejaVuSans-6f" x="1222.660156"/>
      <use xlink:href="#DejaVuSans-72" x="1283.841797"/>
      <use xlink:href="#DejaVuSans-65" x="1322.705078"/>
      <use xlink:href="#DejaVuSans-73" x="1384.228516"/>
      <use xlink:href="#DejaVuSans-63" x="1436.328125"/>
      <use xlink:href="#DejaVuSans-65" x="1491.308594"/>
      <use xlink:href="#DejaVuSans-6e" x="1552.832031"/>
      <use xlink:href="#DejaVuSans-63" x="1616.210938"/>
      <use xlink:href="#DejaVuSans-65" x="1671.191406"/>
     </g>
    </g>
   </g>
  </g>
 </g>
 <defs>
  <clipPath id="pb5543f676c">
   <rect x="45.38" y="14.76" width="375.954786" height="374.56"/>
  </clipPath>
  <clipPath id="pbda6356e51">
   <rect x="477.245214" y="14.76" width="375.954786" height="374.56"/>
  </clipPath>
 </defs>
</svg>
