<?xml version="1.0" encoding="utf-8" standalone="no"?>
<!DOCTYPE svg PUBLIC "-//W3C//DTD SVG 1.1//EN"
  "http://www.w3.org/Graphics/SVG/1.1/DTD/svg11.dtd">
<svg xmlns:xlink="http://www.w3.org/1999/xlink" width="432pt" height="432pt" viewBox="0 0 432 432" xmlns="http://www.w3.org/2000/svg" version="1.1">
 <metadata>
  <rdf:RDF xmlns:dc="http://purl.org/dc/elements/1.1/" xmlns:cc="http://creativecommons.org/ns#" xmlns:rdf="http://www.w3.org/1999/02/22-rdf-syntax-ns#">
   <cc:Work>
    <dc:type rdf:resource="http://purl.org/dc/dcmitype/StillImage"/>
    <dc:date>2025-04-25T09:27:08.582512</dc:date>
    <dc:format>image/svg+xml</dc:format>
    <dc:creator>
     <cc:Agent>
      <dc:title>Matplotlib v3.7.1, https://matplotlib.org/</dc:title>
     </cc:Agent>
    </dc:creator>
   </cc:Work>
  </rdf:RDF>
 </metadata>
 <defs>
  <style type="text/css">*{stroke-linejoin: round; stroke-linecap: butt}</style>
 </defs>
 <g id="figure_1">
  <g id="patch_1">
   <path d="M 0 432 
L 432 432 
L 432 0 
L 0 0 
z
" style="fill: #ffffff"/>
  </g>
  <g id="axes_1">
   <g id="patch_2">
    <path d="M 51.455 388.24 
L 421.2 388.24 
L 421.2 10.8 
L 51.455 10.8 
z
" style="fill: #ffffff"/>
   </g>
   <g id="PolyCollection_1">
    <defs>
     <path id="m9a498c45d6" d="M 100.322869 -43.773752 
L 100.322869 -43.76 
L 101.70256 -43.76 
L 103.08225 -43.76 
L 104.46194 -43.76 
L 105.841631 -43.76 
L 107.221321 -43.76 
L 108.601012 -43.76 
L 109.980702 -43.76 
L 111.360393 -43.76 
L 112.740083 -43.76 
L 114.119773 -43.76 
L 115.499464 -43.76 
L 116.879154 -43.76 
L 118.258845 -43.76 
L 119.638535 -43.76 
L 121.018225 -43.76 
L 122.397916 -43.76 
L 123.777606 -43.76 
L 125.157297 -43.76 
L 126.536987 -43.76 
L 127.916678 -43.76 
L 129.296368 -43.76 
L 130.676058 -43.76 
L 132.055749 -43.76 
L 133.435439 -43.76 
L 134.81513 -43.76 
L 136.19482 -43.76 
L 137.574511 -43.76 
L 138.954201 -43.76 
L 140.333891 -43.76 
L 141.713582 -43.76 
L 143.093272 -43.76 
L 144.472963 -43.76 
L 145.852653 -43.76 
L 147.232343 -43.76 
L 148.612034 -43.76 
L 149.991724 -43.76 
L 151.371415 -43.76 
L 152.751105 -43.76 
L 154.130796 -43.76 
L 155.510486 -43.76 
L 156.890176 -43.76 
L 158.269867 -43.76 
L 159.649557 -43.76 
L 161.029248 -43.76 
L 162.408938 -43.76 
L 163.788629 -43.76 
L 165.168319 -43.76 
L 166.548009 -43.76 
L 167.9277 -43.76 
L 169.30739 -43.76 
L 170.687081 -43.76 
L 172.066771 -43.76 
L 173.446462 -43.76 
L 174.826152 -43.76 
L 176.205842 -43.76 
L 177.585533 -43.76 
L 178.965223 -43.76 
L 180.344914 -43.76 
L 181.724604 -43.76 
L 183.104294 -43.76 
L 184.483985 -43.76 
L 185.863675 -43.76 
L 187.243366 -43.76 
L 188.623056 -43.76 
L 190.002747 -43.76 
L 191.382437 -43.76 
L 192.762127 -43.76 
L 194.141818 -43.76 
L 195.521508 -43.76 
L 196.901199 -43.76 
L 198.280889 -43.76 
L 199.66058 -43.76 
L 201.04027 -43.76 
L 202.41996 -43.76 
L 203.799651 -43.76 
L 205.179341 -43.76 
L 206.559032 -43.76 
L 207.938722 -43.76 
L 209.318412 -43.76 
L 210.698103 -43.76 
L 212.077793 -43.76 
L 213.457484 -43.76 
L 214.837174 -43.76 
L 216.216865 -43.76 
L 217.596555 -43.76 
L 218.976245 -43.76 
L 220.355936 -43.76 
L 221.735626 -43.76 
L 223.115317 -43.76 
L 224.495007 -43.76 
L 225.874698 -43.76 
L 227.254388 -43.76 
L 228.634078 -43.76 
L 230.013769 -43.76 
L 231.393459 -43.76 
L 232.77315 -43.76 
L 234.15284 -43.76 
L 235.53253 -43.76 
L 236.912221 -43.76 
L 238.291911 -43.76 
L 239.671602 -43.76 
L 241.051292 -43.76 
L 242.430983 -43.76 
L 243.810673 -43.76 
L 245.190363 -43.76 
L 246.570054 -43.76 
L 247.949744 -43.76 
L 249.329435 -43.76 
L 250.709125 -43.76 
L 252.088816 -43.76 
L 253.468506 -43.76 
L 254.848196 -43.76 
L 256.227887 -43.76 
L 257.607577 -43.76 
L 258.987268 -43.76 
L 260.366958 -43.76 
L 261.746648 -43.76 
L 263.126339 -43.76 
L 264.506029 -43.76 
L 265.88572 -43.76 
L 267.26541 -43.76 
L 268.645101 -43.76 
L 270.024791 -43.76 
L 271.404481 -43.76 
L 272.784172 -43.76 
L 274.163862 -43.76 
L 275.543553 -43.76 
L 276.923243 -43.76 
L 278.302934 -43.76 
L 279.682624 -43.76 
L 281.062314 -43.76 
L 282.442005 -43.76 
L 283.821695 -43.76 
L 285.201386 -43.76 
L 286.581076 -43.76 
L 287.960766 -43.76 
L 289.340457 -43.76 
L 290.720147 -43.76 
L 292.099838 -43.76 
L 293.479528 -43.76 
L 294.859219 -43.76 
L 296.238909 -43.76 
L 297.618599 -43.76 
L 298.99829 -43.76 
L 300.37798 -43.76 
L 301.757671 -43.76 
L 303.137361 -43.76 
L 304.517052 -43.76 
L 305.896742 -43.76 
L 307.276432 -43.76 
L 308.656123 -43.76 
L 310.035813 -43.76 
L 311.415504 -43.76 
L 312.795194 -43.76 
L 314.174884 -43.76 
L 315.554575 -43.76 
L 316.934265 -43.76 
L 318.313956 -43.76 
L 319.693646 -43.76 
L 321.073337 -43.76 
L 322.453027 -43.76 
L 323.832717 -43.76 
L 325.212408 -43.76 
L 326.592098 -43.76 
L 327.971789 -43.76 
L 329.351479 -43.76 
L 330.73117 -43.76 
L 332.11086 -43.76 
L 333.49055 -43.76 
L 334.870241 -43.76 
L 336.249931 -43.76 
L 337.629622 -43.76 
L 339.009312 -43.76 
L 340.389002 -43.76 
L 341.768693 -43.76 
L 343.148383 -43.76 
L 344.528074 -43.76 
L 345.907764 -43.76 
L 347.287455 -43.76 
L 348.667145 -43.76 
L 350.046835 -43.76 
L 351.426526 -43.76 
L 352.806216 -43.76 
L 354.185907 -43.76 
L 355.565597 -43.76 
L 356.945288 -43.76 
L 358.324978 -43.76 
L 359.704668 -43.76 
L 361.084359 -43.76 
L 362.464049 -43.76 
L 363.84374 -43.76 
L 365.22343 -43.76 
L 366.60312 -43.76 
L 367.982811 -43.76 
L 369.362501 -43.76 
L 370.742192 -43.76 
L 372.121882 -43.76 
L 373.501573 -43.76 
L 374.881263 -43.76 
L 374.881263 -43.78353 
L 374.881263 -43.78353 
L 373.501573 -43.81567 
L 372.121882 -43.885029 
L 370.742192 -44.027002 
L 369.362501 -44.303005 
L 367.982811 -44.813046 
L 366.60312 -45.709484 
L 365.22343 -47.208393 
L 363.84374 -49.593035 
L 362.464049 -53.203229 
L 361.084359 -58.406346 
L 359.704668 -65.550762 
L 358.324978 -74.909456 
L 356.945288 -86.626605 
L 355.565597 -100.679846 
L 354.185907 -116.864585 
L 352.806216 -134.79824 
L 351.426526 -153.937949 
L 350.046835 -173.608974 
L 348.667145 -193.049036 
L 347.287455 -211.477254 
L 345.907764 -228.18785 
L 344.528074 -242.650902 
L 343.148383 -254.586993 
L 341.768693 -263.982511 
L 340.389002 -271.031421 
L 339.009312 -276.019296 
L 337.629622 -279.1921 
L 336.249931 -280.662977 
L 334.870241 -280.399503 
L 333.49055 -278.302885 
L 332.11086 -274.349286 
L 330.73117 -268.729187 
L 329.351479 -261.913084 
L 327.971789 -254.600571 
L 326.592098 -247.564755 
L 325.212408 -241.456018 
L 323.832717 -236.648288 
L 322.453027 -233.186041 
L 321.073337 -230.837215 
L 319.693646 -229.208208 
L 318.313956 -227.858891 
L 316.934265 -226.373555 
L 315.554575 -224.381618 
L 314.174884 -221.554848 
L 312.795194 -217.617516 
L 311.415504 -212.390152 
L 310.035813 -205.858687 
L 308.656123 -198.236451 
L 307.276432 -189.979831 
L 305.896742 -181.732227 
L 304.517052 -174.19843 
L 303.137361 -167.980784 
L 301.757671 -163.427572 
L 300.37798 -160.544517 
L 298.99829 -159.000664 
L 297.618599 -158.226705 
L 296.238909 -157.571067 
L 294.859219 -156.461272 
L 293.479528 -154.523068 
L 292.099838 -151.632788 
L 290.720147 -147.905834 
L 289.340457 -143.641839 
L 287.960766 -139.24953 
L 286.581076 -135.166513 
L 285.201386 -131.781135 
L 283.821695 -129.361962 
L 282.442005 -128.004325 
L 281.062314 -127.60671 
L 279.682624 -127.887032 
L 278.302934 -128.439938 
L 276.923243 -128.824867 
L 275.543553 -128.665183 
L 274.163862 -127.733682 
L 272.784172 -126.000547 
L 271.404481 -123.627696 
L 270.024791 -120.908883 
L 268.645101 -118.17403 
L 267.26541 -115.690988 
L 265.88572 -113.599416 
L 264.506029 -111.897367 
L 263.126339 -110.478127 
L 261.746648 -109.195122 
L 260.366958 -107.925859 
L 258.987268 -106.612871 
L 257.607577 -105.273428 
L 256.227887 -103.981757 
L 254.848196 -102.83351 
L 253.468506 -101.903658 
L 252.088816 -101.209108 
L 250.709125 -100.68692 
L 249.329435 -100.196355 
L 247.949744 -99.546718 
L 246.570054 -98.544619 
L 245.190363 -97.047402 
L 243.810673 -95.006884 
L 242.430983 -92.489635 
L 241.051292 -89.665836 
L 239.671602 -86.767252 
L 238.291911 -84.024901 
L 236.912221 -81.605687 
L 235.53253 -79.570192 
L 234.15284 -77.867821 
L 232.77315 -76.371522 
L 231.393459 -74.938371 
L 230.013769 -73.471748 
L 228.634078 -71.960639 
L 227.254388 -70.481721 
L 225.874698 -69.165543 
L 224.495007 -68.142488 
L 223.115317 -67.490914 
L 221.735626 -67.206498 
L 220.355936 -67.200953 
L 218.976245 -67.326126 
L 217.596555 -67.412107 
L 216.216865 -67.307284 
L 214.837174 -66.911641 
L 213.457484 -66.19777 
L 212.077793 -65.215423 
L 210.698103 -64.076846 
L 209.318412 -62.924393 
L 207.938722 -61.888846 
L 206.559032 -61.052348 
L 205.179341 -60.429204 
L 203.799651 -59.970065 
L 202.41996 -59.58451 
L 201.04027 -59.170206 
L 199.66058 -58.637343 
L 198.280889 -57.923109 
L 196.901199 -56.997373 
L 195.521508 -55.863358 
L 194.141818 -54.55557 
L 192.762127 -53.134723 
L 191.382437 -51.678911 
L 190.002747 -50.272267 
L 188.623056 -48.994613 
L 187.243366 -47.915713 
L 185.863675 -47.095161 
L 184.483985 -46.585149 
L 183.104294 -46.431005 
L 181.724604 -46.66503 
L 180.344914 -47.2928 
L 178.965223 -48.27628 
L 177.585533 -49.522182 
L 176.205842 -50.884638 
L 174.826152 -52.186919 
L 173.446462 -53.258701 
L 172.066771 -53.976812 
L 170.687081 -54.293585 
L 169.30739 -54.240813 
L 167.9277 -53.907902 
L 166.548009 -53.40456 
L 165.168319 -52.824726 
L 163.788629 -52.225896 
L 162.408938 -51.628522 
L 161.029248 -51.029833 
L 159.649557 -50.421171 
L 158.269867 -49.799884 
L 156.890176 -49.172966 
L 155.510486 -48.555124 
L 154.130796 -47.965433 
L 152.751105 -47.424699 
L 151.371415 -46.952965 
L 149.991724 -46.56603 
L 148.612034 -46.271303 
L 147.232343 -46.065003 
L 145.852653 -45.932634 
L 144.472963 -45.852716 
L 143.093272 -45.801776 
L 141.713582 -45.758204 
L 140.333891 -45.704119 
L 138.954201 -45.62631 
L 137.574511 -45.517851 
L 136.19482 -45.380727 
L 134.81513 -45.227868 
L 133.435439 -45.082171 
L 132.055749 -44.971253 
L 130.676058 -44.919107 
L 129.296368 -44.937894 
L 127.916678 -45.02349 
L 126.536987 -45.156766 
L 125.157297 -45.309847 
L 123.777606 -45.454307 
L 122.397916 -45.567561 
L 121.018225 -45.635201 
L 119.638535 -45.649549 
L 118.258845 -45.606892 
L 116.879154 -45.5061 
L 115.499464 -45.349713 
L 114.119773 -45.146268 
L 112.740083 -44.911462 
L 111.360393 -44.666444 
L 109.980702 -44.433442 
L 108.601012 -44.230653 
L 107.221321 -44.068655 
L 105.841631 -43.9496 
L 104.46194 -43.868954 
L 103.08225 -43.818519 
L 101.70256 -43.789359 
L 100.322869 -43.773752 
z
" style="stroke: #bdbdbd; stroke-width: 2.5"/>
    </defs>
    <g clip-path="url(#p621e9c3177)">
     <use xlink:href="#m9a498c45d6" x="0" y="432" style="fill: #bdbdbd; fill-opacity: 0.5; stroke: #bdbdbd; stroke-width: 2.5"/>
    </g>
   </g>
   <g id="PolyCollection_2">
    <defs>
     <path id="m248ebe14df" d="M 105.444952 -43.765718 
L 105.444952 -43.76 
L 106.936257 -43.76 
L 108.427563 -43.76 
L 109.918868 -43.76 
L 111.410173 -43.76 
L 112.901478 -43.76 
L 114.392783 -43.76 
L 115.884088 -43.76 
L 117.375394 -43.76 
L 118.866699 -43.76 
L 120.358004 -43.76 
L 121.849309 -43.76 
L 123.340614 -43.76 
L 124.83192 -43.76 
L 126.323225 -43.76 
L 127.81453 -43.76 
L 129.305835 -43.76 
L 130.79714 -43.76 
L 132.288445 -43.76 
L 133.779751 -43.76 
L 135.271056 -43.76 
L 136.762361 -43.76 
L 138.253666 -43.76 
L 139.744971 -43.76 
L 141.236277 -43.76 
L 142.727582 -43.76 
L 144.218887 -43.76 
L 145.710192 -43.76 
L 147.201497 -43.76 
L 148.692802 -43.76 
L 150.184108 -43.76 
L 151.675413 -43.76 
L 153.166718 -43.76 
L 154.658023 -43.76 
L 156.149328 -43.76 
L 157.640634 -43.76 
L 159.131939 -43.76 
L 160.623244 -43.76 
L 162.114549 -43.76 
L 163.605854 -43.76 
L 165.097159 -43.76 
L 166.588465 -43.76 
L 168.07977 -43.76 
L 169.571075 -43.76 
L 171.06238 -43.76 
L 172.553685 -43.76 
L 174.044991 -43.76 
L 175.536296 -43.76 
L 177.027601 -43.76 
L 178.518906 -43.76 
L 180.010211 -43.76 
L 181.501516 -43.76 
L 182.992822 -43.76 
L 184.484127 -43.76 
L 185.975432 -43.76 
L 187.466737 -43.76 
L 188.958042 -43.76 
L 190.449348 -43.76 
L 191.940653 -43.76 
L 193.431958 -43.76 
L 194.923263 -43.76 
L 196.414568 -43.76 
L 197.905874 -43.76 
L 199.397179 -43.76 
L 200.888484 -43.76 
L 202.379789 -43.76 
L 203.871094 -43.76 
L 205.362399 -43.76 
L 206.853705 -43.76 
L 208.34501 -43.76 
L 209.836315 -43.76 
L 211.32762 -43.76 
L 212.818925 -43.76 
L 214.310231 -43.76 
L 215.801536 -43.76 
L 217.292841 -43.76 
L 218.784146 -43.76 
L 220.275451 -43.76 
L 221.766756 -43.76 
L 223.258062 -43.76 
L 224.749367 -43.76 
L 226.240672 -43.76 
L 227.731977 -43.76 
L 229.223282 -43.76 
L 230.714588 -43.76 
L 232.205893 -43.76 
L 233.697198 -43.76 
L 235.188503 -43.76 
L 236.679808 -43.76 
L 238.171113 -43.76 
L 239.662419 -43.76 
L 241.153724 -43.76 
L 242.645029 -43.76 
L 244.136334 -43.76 
L 245.627639 -43.76 
L 247.118945 -43.76 
L 248.61025 -43.76 
L 250.101555 -43.76 
L 251.59286 -43.76 
L 253.084165 -43.76 
L 254.57547 -43.76 
L 256.066776 -43.76 
L 257.558081 -43.76 
L 259.049386 -43.76 
L 260.540691 -43.76 
L 262.031996 -43.76 
L 263.523302 -43.76 
L 265.014607 -43.76 
L 266.505912 -43.76 
L 267.997217 -43.76 
L 269.488522 -43.76 
L 270.979827 -43.76 
L 272.471133 -43.76 
L 273.962438 -43.76 
L 275.453743 -43.76 
L 276.945048 -43.76 
L 278.436353 -43.76 
L 279.927659 -43.76 
L 281.418964 -43.76 
L 282.910269 -43.76 
L 284.401574 -43.76 
L 285.892879 -43.76 
L 287.384184 -43.76 
L 288.87549 -43.76 
L 290.366795 -43.76 
L 291.8581 -43.76 
L 293.349405 -43.76 
L 294.84071 -43.76 
L 296.332016 -43.76 
L 297.823321 -43.76 
L 299.314626 -43.76 
L 300.805931 -43.76 
L 302.297236 -43.76 
L 303.788542 -43.76 
L 305.279847 -43.76 
L 306.771152 -43.76 
L 308.262457 -43.76 
L 309.753762 -43.76 
L 311.245067 -43.76 
L 312.736373 -43.76 
L 314.227678 -43.76 
L 315.718983 -43.76 
L 317.210288 -43.76 
L 318.701593 -43.76 
L 320.192899 -43.76 
L 321.684204 -43.76 
L 323.175509 -43.76 
L 324.666814 -43.76 
L 326.158119 -43.76 
L 327.649424 -43.76 
L 329.14073 -43.76 
L 330.632035 -43.76 
L 332.12334 -43.76 
L 333.614645 -43.76 
L 335.10595 -43.76 
L 336.597256 -43.76 
L 338.088561 -43.76 
L 339.579866 -43.76 
L 341.071171 -43.76 
L 342.562476 -43.76 
L 344.053781 -43.76 
L 345.545087 -43.76 
L 347.036392 -43.76 
L 348.527697 -43.76 
L 350.019002 -43.76 
L 351.510307 -43.76 
L 353.001613 -43.76 
L 354.492918 -43.76 
L 355.984223 -43.76 
L 357.475528 -43.76 
L 358.966833 -43.76 
L 360.458138 -43.76 
L 361.949444 -43.76 
L 363.440749 -43.76 
L 364.932054 -43.76 
L 366.423359 -43.76 
L 367.914664 -43.76 
L 369.40597 -43.76 
L 370.897275 -43.76 
L 372.38858 -43.76 
L 373.879885 -43.76 
L 375.37119 -43.76 
L 376.862495 -43.76 
L 378.353801 -43.76 
L 379.845106 -43.76 
L 381.336411 -43.76 
L 382.827716 -43.76 
L 384.319021 -43.76 
L 385.810327 -43.76 
L 387.301632 -43.76 
L 388.792937 -43.76 
L 390.284242 -43.76 
L 391.775547 -43.76 
L 393.266853 -43.76 
L 394.758158 -43.76 
L 396.249463 -43.76 
L 397.740768 -43.76 
L 399.232073 -43.76 
L 400.723378 -43.76 
L 402.214684 -43.76 
L 402.214684 -44.150359 
L 402.214684 -44.150359 
L 400.723378 -44.345843 
L 399.232073 -44.627882 
L 397.740768 -45.029155 
L 396.249463 -45.592135 
L 394.758158 -46.370978 
L 393.266853 -47.43339 
L 391.775547 -48.862289 
L 390.284242 -50.75703 
L 388.792937 -53.233945 
L 387.301632 -56.425868 
L 385.810327 -60.480365 
L 384.319021 -65.556369 
L 382.827716 -71.819011 
L 381.336411 -79.43254 
L 379.845106 -88.55138 
L 378.353801 -99.309551 
L 376.862495 -111.808927 
L 375.37119 -126.106965 
L 373.879885 -142.204803 
L 372.38858 -160.036687 
L 370.897275 -179.46182 
L 369.40597 -200.259643 
L 367.914664 -222.129427 
L 366.423359 -244.694781 
L 364.932054 -267.513332 
L 363.440749 -290.091405 
L 361.949444 -311.90307 
L 360.458138 -332.412508 
L 358.966833 -351.098292 
L 357.475528 -367.477935 
L 355.984223 -381.130997 
L 354.492918 -391.719087 
L 353.001613 -399.001371 
L 351.510307 -402.844538 
L 350.019002 -403.226667 
L 348.527697 -400.2349 
L 347.036392 -394.057377 
L 345.545087 -384.970238 
L 344.053781 -373.320877 
L 342.562476 -359.508796 
L 341.071171 -343.965447 
L 339.579866 -327.134411 
L 338.088561 -309.453053 
L 336.597256 -291.33655 
L 335.10595 -273.16492 
L 333.614645 -255.273344 
L 332.12334 -237.94586 
L 330.632035 -221.41224 
L 329.14073 -205.847705 
L 327.649424 -191.375047 
L 326.158119 -178.068625 
L 324.666814 -165.959739 
L 323.175509 -155.042871 
L 321.684204 -145.282359 
L 320.192899 -136.619115 
L 318.701593 -128.977069 
L 317.210288 -122.2691 
L 315.718983 -116.402278 
L 314.227678 -111.282304 
L 312.736373 -106.817082 
L 311.245067 -102.919445 
L 309.753762 -99.509045 
L 308.262457 -96.513507 
L 306.771152 -93.86893 
L 305.279847 -91.519863 
L 303.788542 -89.418869 
L 302.297236 -87.525812 
L 300.805931 -85.806963 
L 299.314626 -84.234041 
L 297.823321 -82.78325 
L 296.332016 -81.434395 
L 294.84071 -80.170092 
L 293.349405 -78.975125 
L 291.8581 -77.835941 
L 290.366795 -76.740284 
L 288.87549 -75.676972 
L 287.384184 -74.635787 
L 285.892879 -73.607467 
L 284.401574 -72.583775 
L 282.910269 -71.557625 
L 281.418964 -70.523242 
L 279.927659 -69.47632 
L 278.436353 -68.414178 
L 276.945048 -67.335863 
L 275.453743 -66.242213 
L 273.962438 -65.135836 
L 272.471133 -64.02102 
L 270.979827 -62.903561 
L 269.488522 -61.790515 
L 267.997217 -60.689882 
L 266.505912 -59.610246 
L 265.014607 -58.560383 
L 263.523302 -57.54886 
L 262.031996 -56.583651 
L 260.540691 -55.671784 
L 259.049386 -54.819045 
L 257.558081 -54.029742 
L 256.066776 -53.306557 
L 254.57547 -52.650459 
L 253.084165 -52.060724 
L 251.59286 -51.535008 
L 250.101555 -51.069514 
L 248.61025 -50.659205 
L 247.118945 -50.298073 
L 245.627639 -49.979442 
L 244.136334 -49.696282 
L 242.645029 -49.441535 
L 241.153724 -49.208409 
L 239.662419 -48.990643 
L 238.171113 -48.782728 
L 236.679808 -48.580061 
L 235.188503 -48.379038 
L 233.697198 -48.177079 
L 232.205893 -47.972593 
L 230.714588 -47.764887 
L 229.223282 -47.55404 
L 227.731977 -47.340748 
L 226.240672 -47.126166 
L 224.749367 -46.911752 
L 223.258062 -46.699129 
L 221.766756 -46.489976 
L 220.275451 -46.285943 
L 218.784146 -46.088598 
L 217.292841 -45.899388 
L 215.801536 -45.719628 
L 214.310231 -45.550483 
L 212.818925 -45.392961 
L 211.32762 -45.2479 
L 209.836315 -45.115939 
L 208.34501 -44.997494 
L 206.853705 -44.892729 
L 205.362399 -44.801523 
L 203.871094 -44.723458 
L 202.379789 -44.657813 
L 200.888484 -44.603587 
L 199.397179 -44.559536 
L 197.905874 -44.524241 
L 196.414568 -44.496186 
L 194.923263 -44.473847 
L 193.431958 -44.455792 
L 191.940653 -44.440761 
L 190.449348 -44.427737 
L 188.958042 -44.415994 
L 187.466737 -44.405113 
L 185.975432 -44.394967 
L 184.484127 -44.385687 
L 182.992822 -44.377593 
L 181.501516 -44.371116 
L 180.010211 -44.366716 
L 178.518906 -44.364798 
L 177.027601 -44.365648 
L 175.536296 -44.369377 
L 174.044991 -44.375905 
L 172.553685 -44.384954 
L 171.06238 -44.39608 
L 169.571075 -44.40871 
L 168.07977 -44.4222 
L 166.588465 -44.435891 
L 165.097159 -44.449165 
L 163.605854 -44.461481 
L 162.114549 -44.472408 
L 160.623244 -44.481625 
L 159.131939 -44.488912 
L 157.640634 -44.494126 
L 156.149328 -44.497163 
L 154.658023 -44.497925 
L 153.166718 -44.496286 
L 151.675413 -44.492073 
L 150.184108 -44.485058 
L 148.692802 -44.474969 
L 147.201497 -44.461514 
L 145.710192 -44.44442 
L 144.218887 -44.423473 
L 142.727582 -44.398563 
L 141.236277 -44.369719 
L 139.744971 -44.337136 
L 138.253666 -44.301183 
L 136.762361 -44.262397 
L 135.271056 -44.221458 
L 133.779751 -44.179155 
L 132.288445 -44.136335 
L 130.79714 -44.093858 
L 129.305835 -44.05254 
L 127.81453 -44.013117 
L 126.323225 -43.976203 
L 124.83192 -43.94227 
L 123.340614 -43.911638 
L 121.849309 -43.884473 
L 120.358004 -43.8608 
L 118.866699 -43.840524 
L 117.375394 -43.82345 
L 115.884088 -43.809312 
L 114.392783 -43.797797 
L 112.901478 -43.788571 
L 111.410173 -43.781298 
L 109.918868 -43.775656 
L 108.427563 -43.771349 
L 106.936257 -43.768113 
L 105.444952 -43.765718 
z
" style="stroke: #92c5de; stroke-width: 2.5"/>
    </defs>
    <g clip-path="url(#p621e9c3177)">
     <use xlink:href="#m248ebe14df" x="0" y="432" style="fill: #92c5de; fill-opacity: 0.5; stroke: #92c5de; stroke-width: 2.5"/>
    </g>
   </g>
   <g id="PolyCollection_3">
    <defs>
     <path id="mafafa84976" d="M 68.261591 -43.765486 
L 68.261591 -43.76 
L 69.950696 -43.76 
L 71.6398 -43.76 
L 73.328905 -43.76 
L 75.018009 -43.76 
L 76.707114 -43.76 
L 78.396219 -43.76 
L 80.085323 -43.76 
L 81.774428 -43.76 
L 83.463532 -43.76 
L 85.152637 -43.76 
L 86.841742 -43.76 
L 88.530846 -43.76 
L 90.219951 -43.76 
L 91.909056 -43.76 
L 93.59816 -43.76 
L 95.287265 -43.76 
L 96.976369 -43.76 
L 98.665474 -43.76 
L 100.354579 -43.76 
L 102.043683 -43.76 
L 103.732788 -43.76 
L 105.421892 -43.76 
L 107.110997 -43.76 
L 108.800102 -43.76 
L 110.489206 -43.76 
L 112.178311 -43.76 
L 113.867415 -43.76 
L 115.55652 -43.76 
L 117.245625 -43.76 
L 118.934729 -43.76 
L 120.623834 -43.76 
L 122.312939 -43.76 
L 124.002043 -43.76 
L 125.691148 -43.76 
L 127.380252 -43.76 
L 129.069357 -43.76 
L 130.758462 -43.76 
L 132.447566 -43.76 
L 134.136671 -43.76 
L 135.825775 -43.76 
L 137.51488 -43.76 
L 139.203985 -43.76 
L 140.893089 -43.76 
L 142.582194 -43.76 
L 144.271299 -43.76 
L 145.960403 -43.76 
L 147.649508 -43.76 
L 149.338612 -43.76 
L 151.027717 -43.76 
L 152.716822 -43.76 
L 154.405926 -43.76 
L 156.095031 -43.76 
L 157.784135 -43.76 
L 159.47324 -43.76 
L 161.162345 -43.76 
L 162.851449 -43.76 
L 164.540554 -43.76 
L 166.229659 -43.76 
L 167.918763 -43.76 
L 169.607868 -43.76 
L 171.296972 -43.76 
L 172.986077 -43.76 
L 174.675182 -43.76 
L 176.364286 -43.76 
L 178.053391 -43.76 
L 179.742495 -43.76 
L 181.4316 -43.76 
L 183.120705 -43.76 
L 184.809809 -43.76 
L 186.498914 -43.76 
L 188.188019 -43.76 
L 189.877123 -43.76 
L 191.566228 -43.76 
L 193.255332 -43.76 
L 194.944437 -43.76 
L 196.633542 -43.76 
L 198.322646 -43.76 
L 200.011751 -43.76 
L 201.700855 -43.76 
L 203.38996 -43.76 
L 205.079065 -43.76 
L 206.768169 -43.76 
L 208.457274 -43.76 
L 210.146378 -43.76 
L 211.835483 -43.76 
L 213.524588 -43.76 
L 215.213692 -43.76 
L 216.902797 -43.76 
L 218.591902 -43.76 
L 220.281006 -43.76 
L 221.970111 -43.76 
L 223.659215 -43.76 
L 225.34832 -43.76 
L 227.037425 -43.76 
L 228.726529 -43.76 
L 230.415634 -43.76 
L 232.104738 -43.76 
L 233.793843 -43.76 
L 235.482948 -43.76 
L 237.172052 -43.76 
L 238.861157 -43.76 
L 240.550262 -43.76 
L 242.239366 -43.76 
L 243.928471 -43.76 
L 245.617575 -43.76 
L 247.30668 -43.76 
L 248.995785 -43.76 
L 250.684889 -43.76 
L 252.373994 -43.76 
L 254.063098 -43.76 
L 255.752203 -43.76 
L 257.441308 -43.76 
L 259.130412 -43.76 
L 260.819517 -43.76 
L 262.508622 -43.76 
L 264.197726 -43.76 
L 265.886831 -43.76 
L 267.575935 -43.76 
L 269.26504 -43.76 
L 270.954145 -43.76 
L 272.643249 -43.76 
L 274.332354 -43.76 
L 276.021458 -43.76 
L 277.710563 -43.76 
L 279.399668 -43.76 
L 281.088772 -43.76 
L 282.777877 -43.76 
L 284.466981 -43.76 
L 286.156086 -43.76 
L 287.845191 -43.76 
L 289.534295 -43.76 
L 291.2234 -43.76 
L 292.912505 -43.76 
L 294.601609 -43.76 
L 296.290714 -43.76 
L 297.979818 -43.76 
L 299.668923 -43.76 
L 301.358028 -43.76 
L 303.047132 -43.76 
L 304.736237 -43.76 
L 306.425341 -43.76 
L 308.114446 -43.76 
L 309.803551 -43.76 
L 311.492655 -43.76 
L 313.18176 -43.76 
L 314.870865 -43.76 
L 316.559969 -43.76 
L 318.249074 -43.76 
L 319.938178 -43.76 
L 321.627283 -43.76 
L 323.316388 -43.76 
L 325.005492 -43.76 
L 326.694597 -43.76 
L 328.383701 -43.76 
L 330.072806 -43.76 
L 331.761911 -43.76 
L 333.451015 -43.76 
L 335.14012 -43.76 
L 336.829225 -43.76 
L 338.518329 -43.76 
L 340.207434 -43.76 
L 341.896538 -43.76 
L 343.585643 -43.76 
L 345.274748 -43.76 
L 346.963852 -43.76 
L 348.652957 -43.76 
L 350.342061 -43.76 
L 352.031166 -43.76 
L 353.720271 -43.76 
L 355.409375 -43.76 
L 357.09848 -43.76 
L 358.787585 -43.76 
L 360.476689 -43.76 
L 362.165794 -43.76 
L 363.854898 -43.76 
L 365.544003 -43.76 
L 367.233108 -43.76 
L 368.922212 -43.76 
L 370.611317 -43.76 
L 372.300421 -43.76 
L 373.989526 -43.76 
L 375.678631 -43.76 
L 377.367735 -43.76 
L 379.05684 -43.76 
L 380.745944 -43.76 
L 382.435049 -43.76 
L 384.124154 -43.76 
L 385.813258 -43.76 
L 387.502363 -43.76 
L 389.191468 -43.76 
L 390.880572 -43.76 
L 392.569677 -43.76 
L 394.258781 -43.76 
L 395.947886 -43.76 
L 397.636991 -43.76 
L 399.326095 -43.76 
L 401.0152 -43.76 
L 402.704304 -43.76 
L 404.393409 -43.76 
L 404.393409 -44.075861 
L 404.393409 -44.075861 
L 402.704304 -44.254074 
L 401.0152 -44.52097 
L 399.326095 -44.914092 
L 397.636991 -45.483567 
L 395.947886 -46.294833 
L 394.258781 -47.431335 
L 392.569677 -48.996884 
L 390.880572 -51.117305 
L 389.191468 -53.940877 
L 387.502363 -57.637062 
L 385.813258 -62.393002 
L 384.124154 -68.407334 
L 382.435049 -75.881051 
L 380.745944 -85.005374 
L 379.05684 -95.946946 
L 377.367735 -108.831037 
L 375.678631 -123.723862 
L 373.989526 -140.615467 
L 372.300421 -159.404923 
L 370.611317 -179.889632 
L 368.922212 -201.760472 
L 367.233108 -224.604158 
L 365.544003 -247.913629 
L 363.854898 -271.10654 
L 362.165794 -293.551117 
L 360.476689 -314.597781 
L 358.787585 -333.614239 
L 357.09848 -350.021264 
L 355.409375 -363.326136 
L 353.720271 -373.150912 
L 352.031166 -379.253099 
L 350.342061 -381.537077 
L 348.652957 -380.0555 
L 346.963852 -375.000906 
L 345.274748 -366.688663 
L 343.585643 -355.533113 
L 341.896538 -342.019274 
L 340.207434 -326.672676 
L 338.518329 -310.029781 
L 336.829225 -292.611135 
L 335.14012 -274.898872 
L 333.451015 -257.319581 
L 331.761911 -240.232934 
L 330.072806 -223.925912 
L 328.383701 -208.612037 
L 326.694597 -194.434711 
L 325.005492 -181.473645 
L 323.316388 -169.753303 
L 321.627283 -159.25244 
L 319.938178 -149.913914 
L 318.249074 -141.654175 
L 316.559969 -134.37202 
L 314.870865 -127.956341 
L 313.18176 -122.292757 
L 311.492655 -117.26909 
L 309.803551 -112.779691 
L 308.114446 -108.728682 
L 306.425341 -105.032161 
L 304.736237 -101.619441 
L 303.047132 -98.43341 
L 301.358028 -95.430108 
L 299.668923 -92.577644 
L 297.979818 -89.854584 
L 296.290714 -87.248007 
L 294.601609 -84.751375 
L 292.912505 -82.362425 
L 291.2234 -80.081232 
L 289.534295 -77.908586 
L 287.845191 -75.844773 
L 286.156086 -73.888806 
L 284.466981 -72.038103 
L 282.777877 -70.288553 
L 281.088772 -68.63489 
L 279.399668 -67.071261 
L 277.710563 -65.591879 
L 276.021458 -64.191641 
L 274.332354 -62.866628 
L 272.643249 -61.614418 
L 270.954145 -60.434183 
L 269.26504 -59.32656 
L 267.575935 -58.293329 
L 265.886831 -57.336936 
L 264.197726 -56.459933 
L 262.508622 -55.664387 
L 260.819517 -54.951333 
L 259.130412 -54.320321 
L 257.441308 -53.769108 
L 255.752203 -53.293503 
L 254.063098 -52.887402 
L 252.373994 -52.542975 
L 250.684889 -52.251002 
L 248.995785 -52.001317 
L 247.30668 -51.783309 
L 245.617575 -51.586445 
L 243.928471 -51.400763 
L 242.239366 -51.217307 
L 240.550262 -51.028453 
L 238.861157 -50.828139 
L 237.172052 -50.611968 
L 235.482948 -50.377209 
L 233.793843 -50.122693 
L 232.104738 -49.848649 
L 230.415634 -49.556483 
L 228.726529 -49.248531 
L 227.037425 -48.92782 
L 225.34832 -48.597829 
L 223.659215 -48.262276 
L 221.970111 -47.924942 
L 220.281006 -47.589515 
L 218.591902 -47.259468 
L 216.902797 -46.93797 
L 215.213692 -46.62781 
L 213.524588 -46.33136 
L 211.835483 -46.050546 
L 210.146378 -45.786846 
L 208.457274 -45.541305 
L 206.768169 -45.314555 
L 205.079065 -45.106862 
L 203.38996 -44.918164 
L 201.700855 -44.748118 
L 200.011751 -44.596152 
L 198.322646 -44.461504 
L 196.633542 -44.343265 
L 194.944437 -44.240413 
L 193.255332 -44.151841 
L 191.566228 -44.076393 
L 189.877123 -44.012885 
L 188.188019 -43.960136 
L 186.498914 -43.916994 
L 184.809809 -43.882363 
L 183.120705 -43.855233 
L 181.4316 -43.834701 
L 179.742495 -43.819994 
L 178.053391 -43.810484 
L 176.364286 -43.805691 
L 174.675182 -43.805288 
L 172.986077 -43.809082 
L 171.296972 -43.816994 
L 169.607868 -43.829023 
L 167.918763 -43.845205 
L 166.229659 -43.865559 
L 164.540554 -43.890037 
L 162.851449 -43.918465 
L 161.162345 -43.950499 
L 159.47324 -43.985586 
L 157.784135 -44.022949 
L 156.095031 -44.061588 
L 154.405926 -44.100311 
L 152.716822 -44.137786 
L 151.027717 -44.172619 
L 149.338612 -44.203455 
L 147.649508 -44.229074 
L 145.960403 -44.248504 
L 144.271299 -44.261112 
L 142.582194 -44.266671 
L 140.893089 -44.265403 
L 139.203985 -44.257984 
L 137.51488 -44.2455 
L 135.825775 -44.229381 
L 134.136671 -44.211287 
L 132.447566 -44.192986 
L 130.758462 -44.17621 
L 129.069357 -44.162515 
L 127.380252 -44.153156 
L 125.691148 -44.148984 
L 124.002043 -44.150379 
L 122.312939 -44.157214 
L 120.623834 -44.168868 
L 118.934729 -44.184277 
L 117.245625 -44.202022 
L 115.55652 -44.220441 
L 113.867415 -44.237769 
L 112.178311 -44.252272 
L 110.489206 -44.262391 
L 108.800102 -44.266855 
L 107.110997 -44.264776 
L 105.421892 -44.255702 
L 103.732788 -44.239636 
L 102.043683 -44.217013 
L 100.354579 -44.188645 
L 98.665474 -44.155637 
L 96.976369 -44.119283 
L 95.287265 -44.080965 
L 93.59816 -44.042043 
L 91.909056 -44.003769 
L 90.219951 -43.967217 
L 88.530846 -43.933238 
L 86.841742 -43.902436 
L 85.152637 -43.875172 
L 83.463532 -43.851584 
L 81.774428 -43.83162 
L 80.085323 -43.815079 
L 78.396219 -43.801656 
L 76.707114 -43.790982 
L 75.018009 -43.782661 
L 73.328905 -43.776299 
L 71.6398 -43.771529 
L 69.950696 -43.76802 
L 68.261591 -43.765486 
z
" style="stroke: #2166ac; stroke-width: 2.5"/>
    </defs>
    <g clip-path="url(#p621e9c3177)">
     <use xlink:href="#mafafa84976" x="0" y="432" style="fill: #2166ac; fill-opacity: 0.5; stroke: #2166ac; stroke-width: 2.5"/>
    </g>
   </g>
   <g id="matplotlib.axis_1">
    <g id="xtick_1">
     <g id="line2d_1">
      <defs>
       <path id="mfdda9898c0" d="M 0 0 
L 0 3.5 
" style="stroke: #000000; stroke-width: 0.8"/>
      </defs>
      <g>
       <use xlink:href="#mfdda9898c0" x="54.39678" y="388.24" style="stroke: #000000; stroke-width: 0.8"/>
      </g>
     </g>
     <g id="text_1">
      <!-- −1 -->
      <g transform="translate(47.025686 402.838437) scale(0.1 -0.1)">
       <defs>
        <path id="DejaVuSans-2212" d="M 678 2272 
L 4684 2272 
L 4684 1741 
L 678 1741 
L 678 2272 
z
" transform="scale(0.015625)"/>
        <path id="DejaVuSans-31" d="M 794 531 
L 1825 531 
L 1825 4091 
L 703 3866 
L 703 4441 
L 1819 4666 
L 2450 4666 
L 2450 531 
L 3481 531 
L 3481 0 
L 794 0 
L 794 531 
z
" transform="scale(0.015625)"/>
       </defs>
       <use xlink:href="#DejaVuSans-2212"/>
       <use xlink:href="#DejaVuSans-31" x="83.789062"/>
      </g>
     </g>
    </g>
    <g id="xtick_2">
     <g id="line2d_2">
      <g>
       <use xlink:href="#mfdda9898c0" x="117.005886" y="388.24" style="stroke: #000000; stroke-width: 0.8"/>
      </g>
     </g>
     <g id="text_2">
      <!-- 0 -->
      <g transform="translate(113.824636 402.838437) scale(0.1 -0.1)">
       <defs>
        <path id="DejaVuSans-30" d="M 2034 4250 
Q 1547 4250 1301 3770 
Q 1056 3291 1056 2328 
Q 1056 1369 1301 889 
Q 1547 409 2034 409 
Q 2525 409 2770 889 
Q 3016 1369 3016 2328 
Q 3016 3291 2770 3770 
Q 2525 4250 2034 4250 
z
M 2034 4750 
Q 2819 4750 3233 4129 
Q 3647 3509 3647 2328 
Q 3647 1150 3233 529 
Q 2819 -91 2034 -91 
Q 1250 -91 836 529 
Q 422 1150 422 2328 
Q 422 3509 836 4129 
Q 1250 4750 2034 4750 
z
" transform="scale(0.015625)"/>
       </defs>
       <use xlink:href="#DejaVuSans-30"/>
      </g>
     </g>
    </g>
    <g id="xtick_3">
     <g id="line2d_3">
      <g>
       <use xlink:href="#mfdda9898c0" x="179.614992" y="388.24" style="stroke: #000000; stroke-width: 0.8"/>
      </g>
     </g>
     <g id="text_3">
      <!-- 1 -->
      <g transform="translate(176.433742 402.838437) scale(0.1 -0.1)">
       <use xlink:href="#DejaVuSans-31"/>
      </g>
     </g>
    </g>
    <g id="xtick_4">
     <g id="line2d_4">
      <g>
       <use xlink:href="#mfdda9898c0" x="242.224099" y="388.24" style="stroke: #000000; stroke-width: 0.8"/>
      </g>
     </g>
     <g id="text_4">
      <!-- 2 -->
      <g transform="translate(239.042849 402.838437) scale(0.1 -0.1)">
       <defs>
        <path id="DejaVuSans-32" d="M 1228 531 
L 3431 531 
L 3431 0 
L 469 0 
L 469 531 
Q 828 903 1448 1529 
Q 2069 2156 2228 2338 
Q 2531 2678 2651 2914 
Q 2772 3150 2772 3378 
Q 2772 3750 2511 3984 
Q 2250 4219 1831 4219 
Q 1534 4219 1204 4116 
Q 875 4013 500 3803 
L 500 4441 
Q 881 4594 1212 4672 
Q 1544 4750 1819 4750 
Q 2544 4750 2975 4387 
Q 3406 4025 3406 3419 
Q 3406 3131 3298 2873 
Q 3191 2616 2906 2266 
Q 2828 2175 2409 1742 
Q 1991 1309 1228 531 
z
" transform="scale(0.015625)"/>
       </defs>
       <use xlink:href="#DejaVuSans-32"/>
      </g>
     </g>
    </g>
    <g id="xtick_5">
     <g id="line2d_5">
      <g>
       <use xlink:href="#mfdda9898c0" x="304.833205" y="388.24" style="stroke: #000000; stroke-width: 0.8"/>
      </g>
     </g>
     <g id="text_5">
      <!-- 3 -->
      <g transform="translate(301.651955 402.838437) scale(0.1 -0.1)">
       <defs>
        <path id="DejaVuSans-33" d="M 2597 2516 
Q 3050 2419 3304 2112 
Q 3559 1806 3559 1356 
Q 3559 666 3084 287 
Q 2609 -91 1734 -91 
Q 1441 -91 1130 -33 
Q 819 25 488 141 
L 488 750 
Q 750 597 1062 519 
Q 1375 441 1716 441 
Q 2309 441 2620 675 
Q 2931 909 2931 1356 
Q 2931 1769 2642 2001 
Q 2353 2234 1838 2234 
L 1294 2234 
L 1294 2753 
L 1863 2753 
Q 2328 2753 2575 2939 
Q 2822 3125 2822 3475 
Q 2822 3834 2567 4026 
Q 2313 4219 1838 4219 
Q 1578 4219 1281 4162 
Q 984 4106 628 3988 
L 628 4550 
Q 988 4650 1302 4700 
Q 1616 4750 1894 4750 
Q 2613 4750 3031 4423 
Q 3450 4097 3450 3541 
Q 3450 3153 3228 2886 
Q 3006 2619 2597 2516 
z
" transform="scale(0.015625)"/>
       </defs>
       <use xlink:href="#DejaVuSans-33"/>
      </g>
     </g>
    </g>
    <g id="xtick_6">
     <g id="line2d_6">
      <g>
       <use xlink:href="#mfdda9898c0" x="367.442311" y="388.24" style="stroke: #000000; stroke-width: 0.8"/>
      </g>
     </g>
     <g id="text_6">
      <!-- 4 -->
      <g transform="translate(364.261061 402.838437) scale(0.1 -0.1)">
       <defs>
        <path id="DejaVuSans-34" d="M 2419 4116 
L 825 1625 
L 2419 1625 
L 2419 4116 
z
M 2253 4666 
L 3047 4666 
L 3047 1625 
L 3713 1625 
L 3713 1100 
L 3047 1100 
L 3047 0 
L 2419 0 
L 2419 1100 
L 313 1100 
L 313 1709 
L 2253 4666 
z
" transform="scale(0.015625)"/>
       </defs>
       <use xlink:href="#DejaVuSans-34"/>
      </g>
     </g>
    </g>
    <g id="text_7">
     <!-- Predicted Fluorescence -->
     <g transform="translate(166.73125 418.03625) scale(0.12 -0.12)">
      <defs>
       <path id="DejaVuSans-50" d="M 1259 4147 
L 1259 2394 
L 2053 2394 
Q 2494 2394 2734 2622 
Q 2975 2850 2975 3272 
Q 2975 3691 2734 3919 
Q 2494 4147 2053 4147 
L 1259 4147 
z
M 628 4666 
L 2053 4666 
Q 2838 4666 3239 4311 
Q 3641 3956 3641 3272 
Q 3641 2581 3239 2228 
Q 2838 1875 2053 1875 
L 1259 1875 
L 1259 0 
L 628 0 
L 628 4666 
z
" transform="scale(0.015625)"/>
       <path id="DejaVuSans-72" d="M 2631 2963 
Q 2534 3019 2420 3045 
Q 2306 3072 2169 3072 
Q 1681 3072 1420 2755 
Q 1159 2438 1159 1844 
L 1159 0 
L 581 0 
L 581 3500 
L 1159 3500 
L 1159 2956 
Q 1341 3275 1631 3429 
Q 1922 3584 2338 3584 
Q 2397 3584 2469 3576 
Q 2541 3569 2628 3553 
L 2631 2963 
z
" transform="scale(0.015625)"/>
       <path id="DejaVuSans-65" d="M 3597 1894 
L 3597 1613 
L 953 1613 
Q 991 1019 1311 708 
Q 1631 397 2203 397 
Q 2534 397 2845 478 
Q 3156 559 3463 722 
L 3463 178 
Q 3153 47 2828 -22 
Q 2503 -91 2169 -91 
Q 1331 -91 842 396 
Q 353 884 353 1716 
Q 353 2575 817 3079 
Q 1281 3584 2069 3584 
Q 2775 3584 3186 3129 
Q 3597 2675 3597 1894 
z
M 3022 2063 
Q 3016 2534 2758 2815 
Q 2500 3097 2075 3097 
Q 1594 3097 1305 2825 
Q 1016 2553 972 2059 
L 3022 2063 
z
" transform="scale(0.015625)"/>
       <path id="DejaVuSans-64" d="M 2906 2969 
L 2906 4863 
L 3481 4863 
L 3481 0 
L 2906 0 
L 2906 525 
Q 2725 213 2448 61 
Q 2172 -91 1784 -91 
Q 1150 -91 751 415 
Q 353 922 353 1747 
Q 353 2572 751 3078 
Q 1150 3584 1784 3584 
Q 2172 3584 2448 3432 
Q 2725 3281 2906 2969 
z
M 947 1747 
Q 947 1113 1208 752 
Q 1469 391 1925 391 
Q 2381 391 2643 752 
Q 2906 1113 2906 1747 
Q 2906 2381 2643 2742 
Q 2381 3103 1925 3103 
Q 1469 3103 1208 2742 
Q 947 2381 947 1747 
z
" transform="scale(0.015625)"/>
       <path id="DejaVuSans-69" d="M 603 3500 
L 1178 3500 
L 1178 0 
L 603 0 
L 603 3500 
z
M 603 4863 
L 1178 4863 
L 1178 4134 
L 603 4134 
L 603 4863 
z
" transform="scale(0.015625)"/>
       <path id="DejaVuSans-63" d="M 3122 3366 
L 3122 2828 
Q 2878 2963 2633 3030 
Q 2388 3097 2138 3097 
Q 1578 3097 1268 2742 
Q 959 2388 959 1747 
Q 959 1106 1268 751 
Q 1578 397 2138 397 
Q 2388 397 2633 464 
Q 2878 531 3122 666 
L 3122 134 
Q 2881 22 2623 -34 
Q 2366 -91 2075 -91 
Q 1284 -91 818 406 
Q 353 903 353 1747 
Q 353 2603 823 3093 
Q 1294 3584 2113 3584 
Q 2378 3584 2631 3529 
Q 2884 3475 3122 3366 
z
" transform="scale(0.015625)"/>
       <path id="DejaVuSans-74" d="M 1172 4494 
L 1172 3500 
L 2356 3500 
L 2356 3053 
L 1172 3053 
L 1172 1153 
Q 1172 725 1289 603 
Q 1406 481 1766 481 
L 2356 481 
L 2356 0 
L 1766 0 
Q 1100 0 847 248 
Q 594 497 594 1153 
L 594 3053 
L 172 3053 
L 172 3500 
L 594 3500 
L 594 4494 
L 1172 4494 
z
" transform="scale(0.015625)"/>
       <path id="DejaVuSans-20" transform="scale(0.015625)"/>
       <path id="DejaVuSans-46" d="M 628 4666 
L 3309 4666 
L 3309 4134 
L 1259 4134 
L 1259 2759 
L 3109 2759 
L 3109 2228 
L 1259 2228 
L 1259 0 
L 628 0 
L 628 4666 
z
" transform="scale(0.015625)"/>
       <path id="DejaVuSans-6c" d="M 603 4863 
L 1178 4863 
L 1178 0 
L 603 0 
L 603 4863 
z
" transform="scale(0.015625)"/>
       <path id="DejaVuSans-75" d="M 544 1381 
L 544 3500 
L 1119 3500 
L 1119 1403 
Q 1119 906 1312 657 
Q 1506 409 1894 409 
Q 2359 409 2629 706 
Q 2900 1003 2900 1516 
L 2900 3500 
L 3475 3500 
L 3475 0 
L 2900 0 
L 2900 538 
Q 2691 219 2414 64 
Q 2138 -91 1772 -91 
Q 1169 -91 856 284 
Q 544 659 544 1381 
z
M 1991 3584 
L 1991 3584 
z
" transform="scale(0.015625)"/>
       <path id="DejaVuSans-6f" d="M 1959 3097 
Q 1497 3097 1228 2736 
Q 959 2375 959 1747 
Q 959 1119 1226 758 
Q 1494 397 1959 397 
Q 2419 397 2687 759 
Q 2956 1122 2956 1747 
Q 2956 2369 2687 2733 
Q 2419 3097 1959 3097 
z
M 1959 3584 
Q 2709 3584 3137 3096 
Q 3566 2609 3566 1747 
Q 3566 888 3137 398 
Q 2709 -91 1959 -91 
Q 1206 -91 779 398 
Q 353 888 353 1747 
Q 353 2609 779 3096 
Q 1206 3584 1959 3584 
z
" transform="scale(0.015625)"/>
       <path id="DejaVuSans-73" d="M 2834 3397 
L 2834 2853 
Q 2591 2978 2328 3040 
Q 2066 3103 1784 3103 
Q 1356 3103 1142 2972 
Q 928 2841 928 2578 
Q 928 2378 1081 2264 
Q 1234 2150 1697 2047 
L 1894 2003 
Q 2506 1872 2764 1633 
Q 3022 1394 3022 966 
Q 3022 478 2636 193 
Q 2250 -91 1575 -91 
Q 1294 -91 989 -36 
Q 684 19 347 128 
L 347 722 
Q 666 556 975 473 
Q 1284 391 1588 391 
Q 1994 391 2212 530 
Q 2431 669 2431 922 
Q 2431 1156 2273 1281 
Q 2116 1406 1581 1522 
L 1381 1569 
Q 847 1681 609 1914 
Q 372 2147 372 2553 
Q 372 3047 722 3315 
Q 1072 3584 1716 3584 
Q 2034 3584 2315 3537 
Q 2597 3491 2834 3397 
z
" transform="scale(0.015625)"/>
       <path id="DejaVuSans-6e" d="M 3513 2113 
L 3513 0 
L 2938 0 
L 2938 2094 
Q 2938 2591 2744 2837 
Q 2550 3084 2163 3084 
Q 1697 3084 1428 2787 
Q 1159 2491 1159 1978 
L 1159 0 
L 581 0 
L 581 3500 
L 1159 3500 
L 1159 2956 
Q 1366 3272 1645 3428 
Q 1925 3584 2291 3584 
Q 2894 3584 3203 3211 
Q 3513 2838 3513 2113 
z
" transform="scale(0.015625)"/>
      </defs>
      <use xlink:href="#DejaVuSans-50"/>
      <use xlink:href="#DejaVuSans-72" x="58.552734"/>
      <use xlink:href="#DejaVuSans-65" x="97.416016"/>
      <use xlink:href="#DejaVuSans-64" x="158.939453"/>
      <use xlink:href="#DejaVuSans-69" x="222.416016"/>
      <use xlink:href="#DejaVuSans-63" x="250.199219"/>
      <use xlink:href="#DejaVuSans-74" x="305.179688"/>
      <use xlink:href="#DejaVuSans-65" x="344.388672"/>
      <use xlink:href="#DejaVuSans-64" x="405.912109"/>
      <use xlink:href="#DejaVuSans-20" x="469.388672"/>
      <use xlink:href="#DejaVuSans-46" x="501.175781"/>
      <use xlink:href="#DejaVuSans-6c" x="558.695312"/>
      <use xlink:href="#DejaVuSans-75" x="586.478516"/>
      <use xlink:href="#DejaVuSans-6f" x="649.857422"/>
      <use xlink:href="#DejaVuSans-72" x="711.039062"/>
      <use xlink:href="#DejaVuSans-65" x="749.902344"/>
      <use xlink:href="#DejaVuSans-73" x="811.425781"/>
      <use xlink:href="#DejaVuSans-63" x="863.525391"/>
      <use xlink:href="#DejaVuSans-65" x="918.505859"/>
      <use xlink:href="#DejaVuSans-6e" x="980.029297"/>
      <use xlink:href="#DejaVuSans-63" x="1043.408203"/>
      <use xlink:href="#DejaVuSans-65" x="1098.388672"/>
     </g>
    </g>
   </g>
   <g id="matplotlib.axis_2">
    <g id="ytick_1">
     <g id="line2d_7">
      <defs>
       <path id="md92899d4ea" d="M 0 0 
L -3.5 0 
" style="stroke: #000000; stroke-width: 0.8"/>
      </defs>
      <g>
       <use xlink:href="#md92899d4ea" x="51.455" y="388.24" style="stroke: #000000; stroke-width: 0.8"/>
      </g>
     </g>
     <g id="text_8">
      <!-- 0.0 -->
      <g transform="translate(28.551875 392.039219) scale(0.1 -0.1)">
       <defs>
        <path id="DejaVuSans-2e" d="M 684 794 
L 1344 794 
L 1344 0 
L 684 0 
L 684 794 
z
" transform="scale(0.015625)"/>
       </defs>
       <use xlink:href="#DejaVuSans-30"/>
       <use xlink:href="#DejaVuSans-2e" x="63.623047"/>
       <use xlink:href="#DejaVuSans-30" x="95.410156"/>
      </g>
     </g>
    </g>
    <g id="ytick_2">
     <g id="line2d_8">
      <g>
       <use xlink:href="#md92899d4ea" x="51.455" y="336.602303" style="stroke: #000000; stroke-width: 0.8"/>
      </g>
     </g>
     <g id="text_9">
      <!-- 0.2 -->
      <g transform="translate(28.551875 340.401521) scale(0.1 -0.1)">
       <use xlink:href="#DejaVuSans-30"/>
       <use xlink:href="#DejaVuSans-2e" x="63.623047"/>
       <use xlink:href="#DejaVuSans-32" x="95.410156"/>
      </g>
     </g>
    </g>
    <g id="ytick_3">
     <g id="line2d_9">
      <g>
       <use xlink:href="#md92899d4ea" x="51.455" y="284.964605" style="stroke: #000000; stroke-width: 0.8"/>
      </g>
     </g>
     <g id="text_10">
      <!-- 0.4 -->
      <g transform="translate(28.551875 288.763824) scale(0.1 -0.1)">
       <use xlink:href="#DejaVuSans-30"/>
       <use xlink:href="#DejaVuSans-2e" x="63.623047"/>
       <use xlink:href="#DejaVuSans-34" x="95.410156"/>
      </g>
     </g>
    </g>
    <g id="ytick_4">
     <g id="line2d_10">
      <g>
       <use xlink:href="#md92899d4ea" x="51.455" y="233.326908" style="stroke: #000000; stroke-width: 0.8"/>
      </g>
     </g>
     <g id="text_11">
      <!-- 0.6 -->
      <g transform="translate(28.551875 237.126127) scale(0.1 -0.1)">
       <defs>
        <path id="DejaVuSans-36" d="M 2113 2584 
Q 1688 2584 1439 2293 
Q 1191 2003 1191 1497 
Q 1191 994 1439 701 
Q 1688 409 2113 409 
Q 2538 409 2786 701 
Q 3034 994 3034 1497 
Q 3034 2003 2786 2293 
Q 2538 2584 2113 2584 
z
M 3366 4563 
L 3366 3988 
Q 3128 4100 2886 4159 
Q 2644 4219 2406 4219 
Q 1781 4219 1451 3797 
Q 1122 3375 1075 2522 
Q 1259 2794 1537 2939 
Q 1816 3084 2150 3084 
Q 2853 3084 3261 2657 
Q 3669 2231 3669 1497 
Q 3669 778 3244 343 
Q 2819 -91 2113 -91 
Q 1303 -91 875 529 
Q 447 1150 447 2328 
Q 447 3434 972 4092 
Q 1497 4750 2381 4750 
Q 2619 4750 2861 4703 
Q 3103 4656 3366 4563 
z
" transform="scale(0.015625)"/>
       </defs>
       <use xlink:href="#DejaVuSans-30"/>
       <use xlink:href="#DejaVuSans-2e" x="63.623047"/>
       <use xlink:href="#DejaVuSans-36" x="95.410156"/>
      </g>
     </g>
    </g>
    <g id="ytick_5">
     <g id="line2d_11">
      <g>
       <use xlink:href="#md92899d4ea" x="51.455" y="181.689211" style="stroke: #000000; stroke-width: 0.8"/>
      </g>
     </g>
     <g id="text_12">
      <!-- 0.8 -->
      <g transform="translate(28.551875 185.488429) scale(0.1 -0.1)">
       <defs>
        <path id="DejaVuSans-38" d="M 2034 2216 
Q 1584 2216 1326 1975 
Q 1069 1734 1069 1313 
Q 1069 891 1326 650 
Q 1584 409 2034 409 
Q 2484 409 2743 651 
Q 3003 894 3003 1313 
Q 3003 1734 2745 1975 
Q 2488 2216 2034 2216 
z
M 1403 2484 
Q 997 2584 770 2862 
Q 544 3141 544 3541 
Q 544 4100 942 4425 
Q 1341 4750 2034 4750 
Q 2731 4750 3128 4425 
Q 3525 4100 3525 3541 
Q 3525 3141 3298 2862 
Q 3072 2584 2669 2484 
Q 3125 2378 3379 2068 
Q 3634 1759 3634 1313 
Q 3634 634 3220 271 
Q 2806 -91 2034 -91 
Q 1263 -91 848 271 
Q 434 634 434 1313 
Q 434 1759 690 2068 
Q 947 2378 1403 2484 
z
M 1172 3481 
Q 1172 3119 1398 2916 
Q 1625 2713 2034 2713 
Q 2441 2713 2670 2916 
Q 2900 3119 2900 3481 
Q 2900 3844 2670 4047 
Q 2441 4250 2034 4250 
Q 1625 4250 1398 4047 
Q 1172 3844 1172 3481 
z
" transform="scale(0.015625)"/>
       </defs>
       <use xlink:href="#DejaVuSans-30"/>
       <use xlink:href="#DejaVuSans-2e" x="63.623047"/>
       <use xlink:href="#DejaVuSans-38" x="95.410156"/>
      </g>
     </g>
    </g>
    <g id="ytick_6">
     <g id="line2d_12">
      <g>
       <use xlink:href="#md92899d4ea" x="51.455" y="130.051513" style="stroke: #000000; stroke-width: 0.8"/>
      </g>
     </g>
     <g id="text_13">
      <!-- 1.0 -->
      <g transform="translate(28.551875 133.850732) scale(0.1 -0.1)">
       <use xlink:href="#DejaVuSans-31"/>
       <use xlink:href="#DejaVuSans-2e" x="63.623047"/>
       <use xlink:href="#DejaVuSans-30" x="95.410156"/>
      </g>
     </g>
    </g>
    <g id="ytick_7">
     <g id="line2d_13">
      <g>
       <use xlink:href="#md92899d4ea" x="51.455" y="78.413816" style="stroke: #000000; stroke-width: 0.8"/>
      </g>
     </g>
     <g id="text_14">
      <!-- 1.2 -->
      <g transform="translate(28.551875 82.213035) scale(0.1 -0.1)">
       <use xlink:href="#DejaVuSans-31"/>
       <use xlink:href="#DejaVuSans-2e" x="63.623047"/>
       <use xlink:href="#DejaVuSans-32" x="95.410156"/>
      </g>
     </g>
    </g>
    <g id="ytick_8">
     <g id="line2d_14">
      <g>
       <use xlink:href="#md92899d4ea" x="51.455" y="26.776119" style="stroke: #000000; stroke-width: 0.8"/>
      </g>
     </g>
     <g id="text_15">
      <!-- 1.4 -->
      <g transform="translate(28.551875 30.575337) scale(0.1 -0.1)">
       <use xlink:href="#DejaVuSans-31"/>
       <use xlink:href="#DejaVuSans-2e" x="63.623047"/>
       <use xlink:href="#DejaVuSans-34" x="95.410156"/>
      </g>
     </g>
    </g>
    <g id="text_16">
     <!-- Density -->
     <g transform="translate(21.640313 226.132031) rotate(-90) scale(0.14 -0.14)">
      <defs>
       <path id="DejaVuSans-44" d="M 1259 4147 
L 1259 519 
L 2022 519 
Q 2988 519 3436 956 
Q 3884 1394 3884 2338 
Q 3884 3275 3436 3711 
Q 2988 4147 2022 4147 
L 1259 4147 
z
M 628 4666 
L 1925 4666 
Q 3281 4666 3915 4102 
Q 4550 3538 4550 2338 
Q 4550 1131 3912 565 
Q 3275 0 1925 0 
L 628 0 
L 628 4666 
z
" transform="scale(0.015625)"/>
       <path id="DejaVuSans-79" d="M 2059 -325 
Q 1816 -950 1584 -1140 
Q 1353 -1331 966 -1331 
L 506 -1331 
L 506 -850 
L 844 -850 
Q 1081 -850 1212 -737 
Q 1344 -625 1503 -206 
L 1606 56 
L 191 3500 
L 800 3500 
L 1894 763 
L 2988 3500 
L 3597 3500 
L 2059 -325 
z
" transform="scale(0.015625)"/>
      </defs>
      <use xlink:href="#DejaVuSans-44"/>
      <use xlink:href="#DejaVuSans-65" x="77.001953"/>
      <use xlink:href="#DejaVuSans-6e" x="138.525391"/>
      <use xlink:href="#DejaVuSans-73" x="201.904297"/>
      <use xlink:href="#DejaVuSans-69" x="254.003906"/>
      <use xlink:href="#DejaVuSans-74" x="281.787109"/>
      <use xlink:href="#DejaVuSans-79" x="320.996094"/>
     </g>
    </g>
   </g>
   <g id="line2d_15">
    <path d="M 347.278087 388.24 
L 347.278087 10.8 
" clip-path="url(#p621e9c3177)" style="fill: none; stroke-dasharray: 3.7,1.6; stroke-dashoffset: 0; stroke: #000000"/>
   </g>
   <g id="patch_3">
    <path d="M 51.455 388.24 
L 51.455 10.8 
" style="fill: none; stroke: #000000; stroke-width: 0.8; stroke-linejoin: miter; stroke-linecap: square"/>
   </g>
   <g id="patch_4">
    <path d="M 51.455 388.24 
L 421.2 388.24 
" style="fill: none; stroke: #000000; stroke-width: 0.8; stroke-linejoin: miter; stroke-linecap: square"/>
   </g>
   <g id="legend_1">
    <g id="patch_5">
     <path d="M 58.455 77.5125 
L 215.265938 77.5125 
Q 217.265938 77.5125 217.265938 75.5125 
L 217.265938 17.8 
Q 217.265938 15.8 215.265938 15.8 
L 58.455 15.8 
Q 56.455 15.8 56.455 17.8 
L 56.455 75.5125 
Q 56.455 77.5125 58.455 77.5125 
z
" style="fill: #ffffff; opacity: 0.8; stroke: #cccccc; stroke-linejoin: miter"/>
    </g>
    <g id="patch_6">
     <path d="M 60.455 27.398438 
L 80.455 27.398438 
L 80.455 20.398438 
L 60.455 20.398438 
z
" style="fill: #bdbdbd; fill-opacity: 0.5; stroke: #bdbdbd; stroke-width: 2.5; stroke-linejoin: miter"/>
    </g>
    <g id="text_17">
     <!-- Pre-trained ESM2 (150M) -->
     <g transform="translate(88.455 27.398438) scale(0.1 -0.1)">
      <defs>
       <path id="DejaVuSans-2d" d="M 313 2009 
L 1997 2009 
L 1997 1497 
L 313 1497 
L 313 2009 
z
" transform="scale(0.015625)"/>
       <path id="DejaVuSans-61" d="M 2194 1759 
Q 1497 1759 1228 1600 
Q 959 1441 959 1056 
Q 959 750 1161 570 
Q 1363 391 1709 391 
Q 2188 391 2477 730 
Q 2766 1069 2766 1631 
L 2766 1759 
L 2194 1759 
z
M 3341 1997 
L 3341 0 
L 2766 0 
L 2766 531 
Q 2569 213 2275 61 
Q 1981 -91 1556 -91 
Q 1019 -91 701 211 
Q 384 513 384 1019 
Q 384 1609 779 1909 
Q 1175 2209 1959 2209 
L 2766 2209 
L 2766 2266 
Q 2766 2663 2505 2880 
Q 2244 3097 1772 3097 
Q 1472 3097 1187 3025 
Q 903 2953 641 2809 
L 641 3341 
Q 956 3463 1253 3523 
Q 1550 3584 1831 3584 
Q 2591 3584 2966 3190 
Q 3341 2797 3341 1997 
z
" transform="scale(0.015625)"/>
       <path id="DejaVuSans-45" d="M 628 4666 
L 3578 4666 
L 3578 4134 
L 1259 4134 
L 1259 2753 
L 3481 2753 
L 3481 2222 
L 1259 2222 
L 1259 531 
L 3634 531 
L 3634 0 
L 628 0 
L 628 4666 
z
" transform="scale(0.015625)"/>
       <path id="DejaVuSans-53" d="M 3425 4513 
L 3425 3897 
Q 3066 4069 2747 4153 
Q 2428 4238 2131 4238 
Q 1616 4238 1336 4038 
Q 1056 3838 1056 3469 
Q 1056 3159 1242 3001 
Q 1428 2844 1947 2747 
L 2328 2669 
Q 3034 2534 3370 2195 
Q 3706 1856 3706 1288 
Q 3706 609 3251 259 
Q 2797 -91 1919 -91 
Q 1588 -91 1214 -16 
Q 841 59 441 206 
L 441 856 
Q 825 641 1194 531 
Q 1563 422 1919 422 
Q 2459 422 2753 634 
Q 3047 847 3047 1241 
Q 3047 1584 2836 1778 
Q 2625 1972 2144 2069 
L 1759 2144 
Q 1053 2284 737 2584 
Q 422 2884 422 3419 
Q 422 4038 858 4394 
Q 1294 4750 2059 4750 
Q 2388 4750 2728 4690 
Q 3069 4631 3425 4513 
z
" transform="scale(0.015625)"/>
       <path id="DejaVuSans-4d" d="M 628 4666 
L 1569 4666 
L 2759 1491 
L 3956 4666 
L 4897 4666 
L 4897 0 
L 4281 0 
L 4281 4097 
L 3078 897 
L 2444 897 
L 1241 4097 
L 1241 0 
L 628 0 
L 628 4666 
z
" transform="scale(0.015625)"/>
       <path id="DejaVuSans-28" d="M 1984 4856 
Q 1566 4138 1362 3434 
Q 1159 2731 1159 2009 
Q 1159 1288 1364 580 
Q 1569 -128 1984 -844 
L 1484 -844 
Q 1016 -109 783 600 
Q 550 1309 550 2009 
Q 550 2706 781 3412 
Q 1013 4119 1484 4856 
L 1984 4856 
z
" transform="scale(0.015625)"/>
       <path id="DejaVuSans-35" d="M 691 4666 
L 3169 4666 
L 3169 4134 
L 1269 4134 
L 1269 2991 
Q 1406 3038 1543 3061 
Q 1681 3084 1819 3084 
Q 2600 3084 3056 2656 
Q 3513 2228 3513 1497 
Q 3513 744 3044 326 
Q 2575 -91 1722 -91 
Q 1428 -91 1123 -41 
Q 819 9 494 109 
L 494 744 
Q 775 591 1075 516 
Q 1375 441 1709 441 
Q 2250 441 2565 725 
Q 2881 1009 2881 1497 
Q 2881 1984 2565 2268 
Q 2250 2553 1709 2553 
Q 1456 2553 1204 2497 
Q 953 2441 691 2322 
L 691 4666 
z
" transform="scale(0.015625)"/>
       <path id="DejaVuSans-29" d="M 513 4856 
L 1013 4856 
Q 1481 4119 1714 3412 
Q 1947 2706 1947 2009 
Q 1947 1309 1714 600 
Q 1481 -109 1013 -844 
L 513 -844 
Q 928 -128 1133 580 
Q 1338 1288 1338 2009 
Q 1338 2731 1133 3434 
Q 928 4138 513 4856 
z
" transform="scale(0.015625)"/>
      </defs>
      <use xlink:href="#DejaVuSans-50"/>
      <use xlink:href="#DejaVuSans-72" x="58.552734"/>
      <use xlink:href="#DejaVuSans-65" x="97.416016"/>
      <use xlink:href="#DejaVuSans-2d" x="158.939453"/>
      <use xlink:href="#DejaVuSans-74" x="195.023438"/>
      <use xlink:href="#DejaVuSans-72" x="234.232422"/>
      <use xlink:href="#DejaVuSans-61" x="275.345703"/>
      <use xlink:href="#DejaVuSans-69" x="336.625"/>
      <use xlink:href="#DejaVuSans-6e" x="364.408203"/>
      <use xlink:href="#DejaVuSans-65" x="427.787109"/>
      <use xlink:href="#DejaVuSans-64" x="489.310547"/>
      <use xlink:href="#DejaVuSans-20" x="552.787109"/>
      <use xlink:href="#DejaVuSans-45" x="584.574219"/>
      <use xlink:href="#DejaVuSans-53" x="647.757812"/>
      <use xlink:href="#DejaVuSans-4d" x="711.234375"/>
      <use xlink:href="#DejaVuSans-32" x="797.513672"/>
      <use xlink:href="#DejaVuSans-20" x="861.136719"/>
      <use xlink:href="#DejaVuSans-28" x="892.923828"/>
      <use xlink:href="#DejaVuSans-31" x="931.9375"/>
      <use xlink:href="#DejaVuSans-35" x="995.560547"/>
      <use xlink:href="#DejaVuSans-30" x="1059.183594"/>
      <use xlink:href="#DejaVuSans-4d" x="1122.806641"/>
      <use xlink:href="#DejaVuSans-29" x="1209.085938"/>
     </g>
    </g>
    <g id="patch_7">
     <path d="M 60.455 42.076563 
L 80.455 42.076563 
L 80.455 35.076563 
L 60.455 35.076563 
z
" style="fill: #92c5de; fill-opacity: 0.5; stroke: #92c5de; stroke-width: 2.5; stroke-linejoin: miter"/>
    </g>
    <g id="text_18">
     <!-- SFT ESM2 (150M) -->
     <g transform="translate(88.455 42.076563) scale(0.1 -0.1)">
      <defs>
       <path id="DejaVuSans-54" d="M -19 4666 
L 3928 4666 
L 3928 4134 
L 2272 4134 
L 2272 0 
L 1638 0 
L 1638 4134 
L -19 4134 
L -19 4666 
z
" transform="scale(0.015625)"/>
      </defs>
      <use xlink:href="#DejaVuSans-53"/>
      <use xlink:href="#DejaVuSans-46" x="63.476562"/>
      <use xlink:href="#DejaVuSans-54" x="119.246094"/>
      <use xlink:href="#DejaVuSans-20" x="180.330078"/>
      <use xlink:href="#DejaVuSans-45" x="212.117188"/>
      <use xlink:href="#DejaVuSans-53" x="275.300781"/>
      <use xlink:href="#DejaVuSans-4d" x="338.777344"/>
      <use xlink:href="#DejaVuSans-32" x="425.056641"/>
      <use xlink:href="#DejaVuSans-20" x="488.679688"/>
      <use xlink:href="#DejaVuSans-28" x="520.466797"/>
      <use xlink:href="#DejaVuSans-31" x="559.480469"/>
      <use xlink:href="#DejaVuSans-35" x="623.103516"/>
      <use xlink:href="#DejaVuSans-30" x="686.726562"/>
      <use xlink:href="#DejaVuSans-4d" x="750.349609"/>
      <use xlink:href="#DejaVuSans-29" x="836.628906"/>
     </g>
    </g>
    <g id="patch_8">
     <path d="M 60.455 56.754688 
L 80.455 56.754688 
L 80.455 49.754688 
L 60.455 49.754688 
z
" style="fill: #2166ac; fill-opacity: 0.5; stroke: #2166ac; stroke-width: 2.5; stroke-linejoin: miter"/>
    </g>
    <g id="text_19">
     <!-- Aligned ESM2 (150M) -->
     <g transform="translate(88.455 56.754688) scale(0.1 -0.1)">
      <defs>
       <path id="DejaVuSans-41" d="M 2188 4044 
L 1331 1722 
L 3047 1722 
L 2188 4044 
z
M 1831 4666 
L 2547 4666 
L 4325 0 
L 3669 0 
L 3244 1197 
L 1141 1197 
L 716 0 
L 50 0 
L 1831 4666 
z
" transform="scale(0.015625)"/>
       <path id="DejaVuSans-67" d="M 2906 1791 
Q 2906 2416 2648 2759 
Q 2391 3103 1925 3103 
Q 1463 3103 1205 2759 
Q 947 2416 947 1791 
Q 947 1169 1205 825 
Q 1463 481 1925 481 
Q 2391 481 2648 825 
Q 2906 1169 2906 1791 
z
M 3481 434 
Q 3481 -459 3084 -895 
Q 2688 -1331 1869 -1331 
Q 1566 -1331 1297 -1286 
Q 1028 -1241 775 -1147 
L 775 -588 
Q 1028 -725 1275 -790 
Q 1522 -856 1778 -856 
Q 2344 -856 2625 -561 
Q 2906 -266 2906 331 
L 2906 616 
Q 2728 306 2450 153 
Q 2172 0 1784 0 
Q 1141 0 747 490 
Q 353 981 353 1791 
Q 353 2603 747 3093 
Q 1141 3584 1784 3584 
Q 2172 3584 2450 3431 
Q 2728 3278 2906 2969 
L 2906 3500 
L 3481 3500 
L 3481 434 
z
" transform="scale(0.015625)"/>
      </defs>
      <use xlink:href="#DejaVuSans-41"/>
      <use xlink:href="#DejaVuSans-6c" x="68.408203"/>
      <use xlink:href="#DejaVuSans-69" x="96.191406"/>
      <use xlink:href="#DejaVuSans-67" x="123.974609"/>
      <use xlink:href="#DejaVuSans-6e" x="187.451172"/>
      <use xlink:href="#DejaVuSans-65" x="250.830078"/>
      <use xlink:href="#DejaVuSans-64" x="312.353516"/>
      <use xlink:href="#DejaVuSans-20" x="375.830078"/>
      <use xlink:href="#DejaVuSans-45" x="407.617188"/>
      <use xlink:href="#DejaVuSans-53" x="470.800781"/>
      <use xlink:href="#DejaVuSans-4d" x="534.277344"/>
      <use xlink:href="#DejaVuSans-32" x="620.556641"/>
      <use xlink:href="#DejaVuSans-20" x="684.179688"/>
      <use xlink:href="#DejaVuSans-28" x="715.966797"/>
      <use xlink:href="#DejaVuSans-31" x="754.980469"/>
      <use xlink:href="#DejaVuSans-35" x="818.603516"/>
      <use xlink:href="#DejaVuSans-30" x="882.226562"/>
      <use xlink:href="#DejaVuSans-4d" x="945.849609"/>
      <use xlink:href="#DejaVuSans-29" x="1032.128906"/>
     </g>
    </g>
    <g id="line2d_16">
     <path d="M 60.455 67.932813 
L 70.455 67.932813 
L 80.455 67.932813 
" style="fill: none; stroke-dasharray: 3.7,1.6; stroke-dashoffset: 0; stroke: #000000"/>
    </g>
    <g id="text_20">
     <!-- Predicted avGFP score -->
     <g transform="translate(88.455 71.432813) scale(0.1 -0.1)">
      <defs>
       <path id="DejaVuSans-76" d="M 191 3500 
L 800 3500 
L 1894 563 
L 2988 3500 
L 3597 3500 
L 2284 0 
L 1503 0 
L 191 3500 
z
" transform="scale(0.015625)"/>
       <path id="DejaVuSans-47" d="M 3809 666 
L 3809 1919 
L 2778 1919 
L 2778 2438 
L 4434 2438 
L 4434 434 
Q 4069 175 3628 42 
Q 3188 -91 2688 -91 
Q 1594 -91 976 548 
Q 359 1188 359 2328 
Q 359 3472 976 4111 
Q 1594 4750 2688 4750 
Q 3144 4750 3555 4637 
Q 3966 4525 4313 4306 
L 4313 3634 
Q 3963 3931 3569 4081 
Q 3175 4231 2741 4231 
Q 1884 4231 1454 3753 
Q 1025 3275 1025 2328 
Q 1025 1384 1454 906 
Q 1884 428 2741 428 
Q 3075 428 3337 486 
Q 3600 544 3809 666 
z
" transform="scale(0.015625)"/>
      </defs>
      <use xlink:href="#DejaVuSans-50"/>
      <use xlink:href="#DejaVuSans-72" x="58.552734"/>
      <use xlink:href="#DejaVuSans-65" x="97.416016"/>
      <use xlink:href="#DejaVuSans-64" x="158.939453"/>
      <use xlink:href="#DejaVuSans-69" x="222.416016"/>
      <use xlink:href="#DejaVuSans-63" x="250.199219"/>
      <use xlink:href="#DejaVuSans-74" x="305.179688"/>
      <use xlink:href="#DejaVuSans-65" x="344.388672"/>
      <use xlink:href="#DejaVuSans-64" x="405.912109"/>
      <use xlink:href="#DejaVuSans-20" x="469.388672"/>
      <use xlink:href="#DejaVuSans-61" x="501.175781"/>
      <use xlink:href="#DejaVuSans-76" x="562.455078"/>
      <use xlink:href="#DejaVuSans-47" x="621.634766"/>
      <use xlink:href="#DejaVuSans-46" x="699.125"/>
      <use xlink:href="#DejaVuSans-50" x="756.644531"/>
      <use xlink:href="#DejaVuSans-20" x="816.947266"/>
      <use xlink:href="#DejaVuSans-73" x="848.734375"/>
      <use xlink:href="#DejaVuSans-63" x="900.833984"/>
      <use xlink:href="#DejaVuSans-6f" x="955.814453"/>
      <use xlink:href="#DejaVuSans-72" x="1016.996094"/>
      <use xlink:href="#DejaVuSans-65" x="1055.859375"/>
     </g>
    </g>
   </g>
  </g>
 </g>
 <defs>
  <clipPath id="p621e9c3177">
   <rect x="51.455" y="10.8" width="369.745" height="377.44"/>
  </clipPath>
 </defs>
</svg>
