<?xml version="1.0" encoding="utf-8" standalone="no"?>
<!DOCTYPE svg PUBLIC "-//W3C//DTD SVG 1.1//EN"
  "http://www.w3.org/Graphics/SVG/1.1/DTD/svg11.dtd">
<svg xmlns:xlink="http://www.w3.org/1999/xlink" width="432pt" height="432pt" viewBox="0 0 432 432" xmlns="http://www.w3.org/2000/svg" version="1.1">
 <metadata>
  <rdf:RDF xmlns:dc="http://purl.org/dc/elements/1.1/" xmlns:cc="http://creativecommons.org/ns#" xmlns:rdf="http://www.w3.org/1999/02/22-rdf-syntax-ns#">
   <cc:Work>
    <dc:type rdf:resource="http://purl.org/dc/dcmitype/StillImage"/>
    <dc:date>2025-04-03T12:13:09.552647</dc:date>
    <dc:format>image/svg+xml</dc:format>
    <dc:creator>
     <cc:Agent>
      <dc:title>Matplotlib v3.8.0, https://matplotlib.org/</dc:title>
     </cc:Agent>
    </dc:creator>
   </cc:Work>
  </rdf:RDF>
 </metadata>
 <defs>
  <style type="text/css">*{stroke-linejoin: round; stroke-linecap: butt}</style>
 </defs>
 <g id="figure_1">
  <g id="patch_1">
   <path d="M 0 432 
L 432 432 
L 432 0 
L 0 0 
z
" style="fill: #ffffff"/>
  </g>
  <g id="axes_1">
   <g id="patch_2">
    <path d="M 57.8 389.32 
L 420.635664 389.32 
L 420.635664 10.8 
L 57.8 10.8 
z
" style="fill: #ffffff"/>
   </g>
   <g id="PolyCollection_1">
    <defs>
     <path id="m8e8a3e8844" d="M 74.29253 -42.695613 
L 74.29253 -42.68 
L 75.950071 -42.68 
L 77.607612 -42.68 
L 79.265152 -42.68 
L 80.922693 -42.68 
L 82.580234 -42.68 
L 84.237775 -42.68 
L 85.895315 -42.68 
L 87.552856 -42.68 
L 89.210397 -42.68 
L 90.867937 -42.68 
L 92.525478 -42.68 
L 94.183019 -42.68 
L 95.84056 -42.68 
L 97.4981 -42.68 
L 99.155641 -42.68 
L 100.813182 -42.68 
L 102.470723 -42.68 
L 104.128263 -42.68 
L 105.785804 -42.68 
L 107.443345 -42.68 
L 109.100885 -42.68 
L 110.758426 -42.68 
L 112.415967 -42.68 
L 114.073508 -42.68 
L 115.731048 -42.68 
L 117.388589 -42.68 
L 119.04613 -42.68 
L 120.70367 -42.68 
L 122.361211 -42.68 
L 124.018752 -42.68 
L 125.676293 -42.68 
L 127.333833 -42.68 
L 128.991374 -42.68 
L 130.648915 -42.68 
L 132.306456 -42.68 
L 133.963996 -42.68 
L 135.621537 -42.68 
L 137.279078 -42.68 
L 138.936618 -42.68 
L 140.594159 -42.68 
L 142.2517 -42.68 
L 143.909241 -42.68 
L 145.566781 -42.68 
L 147.224322 -42.68 
L 148.881863 -42.68 
L 150.539403 -42.68 
L 152.196944 -42.68 
L 153.854485 -42.68 
L 155.512026 -42.68 
L 157.169566 -42.68 
L 158.827107 -42.68 
L 160.484648 -42.68 
L 162.142189 -42.68 
L 163.799729 -42.68 
L 165.45727 -42.68 
L 167.114811 -42.68 
L 168.772351 -42.68 
L 170.429892 -42.68 
L 172.087433 -42.68 
L 173.744974 -42.68 
L 175.402514 -42.68 
L 177.060055 -42.68 
L 178.717596 -42.68 
L 180.375137 -42.68 
L 182.032677 -42.68 
L 183.690218 -42.68 
L 185.347759 -42.68 
L 187.005299 -42.68 
L 188.66284 -42.68 
L 190.320381 -42.68 
L 191.977922 -42.68 
L 193.635462 -42.68 
L 195.293003 -42.68 
L 196.950544 -42.68 
L 198.608084 -42.68 
L 200.265625 -42.68 
L 201.923166 -42.68 
L 203.580707 -42.68 
L 205.238247 -42.68 
L 206.895788 -42.68 
L 208.553329 -42.68 
L 210.21087 -42.68 
L 211.86841 -42.68 
L 213.525951 -42.68 
L 215.183492 -42.68 
L 216.841032 -42.68 
L 218.498573 -42.68 
L 220.156114 -42.68 
L 221.813655 -42.68 
L 223.471195 -42.68 
L 225.128736 -42.68 
L 226.786277 -42.68 
L 228.443818 -42.68 
L 230.101358 -42.68 
L 231.758899 -42.68 
L 233.41644 -42.68 
L 235.07398 -42.68 
L 236.731521 -42.68 
L 238.389062 -42.68 
L 240.046603 -42.68 
L 241.704143 -42.68 
L 243.361684 -42.68 
L 245.019225 -42.68 
L 246.676765 -42.68 
L 248.334306 -42.68 
L 249.991847 -42.68 
L 251.649388 -42.68 
L 253.306928 -42.68 
L 254.964469 -42.68 
L 256.62201 -42.68 
L 258.279551 -42.68 
L 259.937091 -42.68 
L 261.594632 -42.68 
L 263.252173 -42.68 
L 264.909713 -42.68 
L 266.567254 -42.68 
L 268.224795 -42.68 
L 269.882336 -42.68 
L 271.539876 -42.68 
L 273.197417 -42.68 
L 274.854958 -42.68 
L 276.512499 -42.68 
L 278.170039 -42.68 
L 279.82758 -42.68 
L 281.485121 -42.68 
L 283.142661 -42.68 
L 284.800202 -42.68 
L 286.457743 -42.68 
L 288.115284 -42.68 
L 289.772824 -42.68 
L 291.430365 -42.68 
L 293.087906 -42.68 
L 294.745446 -42.68 
L 296.402987 -42.68 
L 298.060528 -42.68 
L 299.718069 -42.68 
L 301.375609 -42.68 
L 303.03315 -42.68 
L 304.690691 -42.68 
L 306.348232 -42.68 
L 308.005772 -42.68 
L 309.663313 -42.68 
L 311.320854 -42.68 
L 312.978394 -42.68 
L 314.635935 -42.68 
L 316.293476 -42.68 
L 317.951017 -42.68 
L 319.608557 -42.68 
L 321.266098 -42.68 
L 322.923639 -42.68 
L 324.581179 -42.68 
L 326.23872 -42.68 
L 327.896261 -42.68 
L 329.553802 -42.68 
L 331.211342 -42.68 
L 332.868883 -42.68 
L 334.526424 -42.68 
L 336.183965 -42.68 
L 337.841505 -42.68 
L 339.499046 -42.68 
L 341.156587 -42.68 
L 342.814127 -42.68 
L 344.471668 -42.68 
L 346.129209 -42.68 
L 347.78675 -42.68 
L 349.44429 -42.68 
L 351.101831 -42.68 
L 352.759372 -42.68 
L 354.416913 -42.68 
L 356.074453 -42.68 
L 357.731994 -42.68 
L 359.389535 -42.68 
L 361.047075 -42.68 
L 362.704616 -42.68 
L 364.362157 -42.68 
L 366.019698 -42.68 
L 367.677238 -42.68 
L 369.334779 -42.68 
L 370.99232 -42.68 
L 372.64986 -42.68 
L 374.307401 -42.68 
L 375.964942 -42.68 
L 377.622483 -42.68 
L 379.280023 -42.68 
L 380.937564 -42.68 
L 382.595105 -42.68 
L 384.252646 -42.68 
L 385.910186 -42.68 
L 387.567727 -42.68 
L 389.225268 -42.68 
L 390.882808 -42.68 
L 392.540349 -42.68 
L 394.19789 -42.68 
L 395.855431 -42.68 
L 397.512971 -42.68 
L 399.170512 -42.68 
L 400.828053 -42.68 
L 402.485594 -42.68 
L 404.143134 -42.68 
L 404.143134 -42.699185 
L 404.143134 -42.699185 
L 402.485594 -42.712135 
L 400.828053 -42.732311 
L 399.170512 -42.762764 
L 397.512971 -42.807271 
L 395.855431 -42.870231 
L 394.19789 -42.956385 
L 392.540349 -43.070347 
L 390.882808 -43.215931 
L 389.225268 -43.395332 
L 387.567727 -43.608254 
L 385.910186 -43.851129 
L 384.252646 -44.116623 
L 382.595105 -44.393581 
L 380.937564 -44.667557 
L 379.280023 -44.921972 
L 377.622483 -45.139801 
L 375.964942 -45.305629 
L 374.307401 -45.407757 
L 372.64986 -45.440063 
L 370.99232 -45.403301 
L 369.334779 -45.305651 
L 367.677238 -45.162448 
L 366.019698 -44.99516 
L 364.362157 -44.829822 
L 362.704616 -44.695149 
L 361.047075 -44.620619 
L 359.389535 -44.634704 
L 357.731994 -44.763387 
L 356.074453 -45.029013 
L 354.416913 -45.449449 
L 352.759372 -46.037498 
L 351.101831 -46.800512 
L 349.44429 -47.740133 
L 347.78675 -48.85212 
L 346.129209 -50.126265 
L 344.471668 -51.5464 
L 342.814127 -53.090598 
L 341.156587 -54.731706 
L 339.499046 -56.438412 
L 337.841505 -58.177069 
L 336.183965 -59.914432 
L 334.526424 -61.621296 
L 332.868883 -63.276814 
L 331.211342 -64.872979 
L 329.553802 -66.418567 
L 327.896261 -67.941714 
L 326.23872 -69.490399 
L 324.581179 -71.130388 
L 322.923639 -72.940597 
L 321.266098 -75.006297 
L 319.608557 -77.410986 
L 317.951017 -80.228015 
L 316.293476 -83.513094 
L 314.635935 -87.298692 
L 312.978394 -91.591037 
L 311.320854 -96.370109 
L 309.663313 -101.592652 
L 308.005772 -107.197868 
L 306.348232 -113.115219 
L 304.690691 -119.273432 
L 303.03315 -125.609645 
L 301.375609 -132.077426 
L 299.718069 -138.652439 
L 298.060528 -145.334682 
L 296.402987 -152.146656 
L 294.745446 -159.127511 
L 293.087906 -166.323925 
L 291.430365 -173.779283 
L 289.772824 -181.52315 
L 288.115284 -189.563156 
L 286.457743 -197.880967 
L 284.800202 -206.433194 
L 283.142661 -215.156984 
L 281.485121 -223.97897 
L 279.82758 -232.825557 
L 278.170039 -241.632276 
L 276.512499 -250.350331 
L 274.854958 -258.949268 
L 273.197417 -267.415701 
L 271.539876 -275.748952 
L 269.882336 -283.954969 
L 268.224795 -292.040035 
L 266.567254 -300.005442 
L 264.909713 -307.843833 
L 263.252173 -315.537362 
L 261.594632 -323.05753 
L 259.937091 -330.366415 
L 258.279551 -337.41909 
L 256.62201 -344.167124 
L 254.964469 -350.563072 
L 253.306928 -356.565729 
L 251.649388 -362.145622 
L 249.991847 -367.289912 
L 248.334306 -372.005661 
L 246.676765 -376.320398 
L 245.019225 -380.279139 
L 243.361684 -383.937495 
L 241.704143 -387.351098 
L 240.046603 -390.562292 
L 238.389062 -393.585721 
L 236.731521 -396.395024 
L 235.07398 -398.913178 
L 233.41644 -401.00902 
L 231.758899 -402.501886 
L 230.101358 -403.175238 
L 228.443818 -402.798527 
L 226.786277 -401.154815 
L 225.128736 -398.070081 
L 223.471195 -393.439291 
L 221.813655 -387.244453 
L 220.156114 -379.561089 
L 218.498573 -370.551731 
L 216.841032 -360.447557 
L 215.183492 -349.521573 
L 213.525951 -338.058305 
L 211.86841 -326.325318 
L 210.21087 -314.551075 
L 208.553329 -302.911981 
L 206.895788 -291.52928 
L 205.238247 -280.474449 
L 203.580707 -269.780235 
L 201.923166 -259.45382 
L 200.265625 -249.488827 
L 198.608084 -239.873808 
L 196.950544 -230.596264 
L 195.293003 -221.642651 
L 193.635462 -212.995961 
L 191.977922 -204.633047 
L 190.320381 -196.523705 
L 188.66284 -188.632845 
L 187.005299 -180.925904 
L 185.347759 -173.376497 
L 183.690218 -165.974366 
L 182.032677 -158.731349 
L 180.375137 -151.683355 
L 178.717596 -144.8873 
L 177.060055 -138.413124 
L 175.402514 -132.332334 
L 173.744974 -126.705364 
L 172.087433 -121.570379 
L 170.429892 -116.935793 
L 168.772351 -112.777874 
L 167.114811 -109.043659 
L 165.45727 -105.658251 
L 163.799729 -102.534807 
L 162.142189 -99.585201 
L 160.484648 -96.72955 
L 158.827107 -93.903338 
L 157.169566 -91.061572 
L 155.512026 -88.180064 
L 153.854485 -85.25435 
L 152.196944 -82.296954 
L 150.539403 -79.333654 
L 148.881863 -76.399275 
L 147.224322 -73.533339 
L 145.566781 -70.775833 
L 143.909241 -68.163293 
L 142.2517 -65.725441 
L 140.594159 -63.482629 
L 138.936618 -61.444331 
L 137.279078 -59.608857 
L 135.621537 -57.964306 
L 133.963996 -56.490676 
L 132.306456 -55.162812 
L 130.648915 -53.953841 
L 128.991374 -52.838589 
L 127.333833 -51.796541 
L 125.676293 -50.81391 
L 124.018752 -49.884552 
L 122.361211 -49.009611 
L 120.70367 -48.195988 
L 119.04613 -47.453935 
L 117.388589 -46.794195 
L 115.731048 -46.225213 
L 114.073508 -45.750881 
L 112.415967 -45.369206 
L 110.758426 -45.072072 
L 109.100885 -44.846089 
L 107.443345 -44.674303 
L 105.785804 -44.538405 
L 104.128263 -44.421029 
L 102.470723 -44.307721 
L 100.813182 -44.188279 
L 99.155641 -44.05731 
L 97.4981 -43.914 
L 95.84056 -43.761251 
L 94.183019 -43.604417 
L 92.525478 -43.44992 
L 90.867937 -43.304002 
L 89.210397 -43.171775 
L 87.552856 -43.056677 
L 85.895315 -42.960317 
L 84.237775 -42.882631 
L 82.580234 -42.822258 
L 80.922693 -42.776987 
L 79.265152 -42.744208 
L 77.607612 -42.721275 
L 75.950071 -42.705762 
L 74.29253 -42.695613 
z
" style="stroke: #bdbdbd; stroke-width: 2.5"/>
    </defs>
    <g clip-path="url(#p720a953bc3)">
     <use xlink:href="#m8e8a3e8844" x="0" y="432" style="fill: #bdbdbd; fill-opacity: 0.5; stroke: #bdbdbd; stroke-width: 2.5"/>
    </g>
   </g>
   <g id="matplotlib.axis_1">
    <g id="xtick_1">
     <g id="line2d_1">
      <defs>
       <path id="m9da68e5b0b" d="M 0 0 
L 0 3.5 
" style="stroke: #000000; stroke-width: 0.8"/>
      </defs>
      <g>
       <use xlink:href="#m9da68e5b0b" x="126.082461" y="389.32" style="stroke: #000000; stroke-width: 0.8"/>
      </g>
     </g>
     <g id="text_1">
      <!-- −2 -->
      <g transform="translate(118.711368 403.918437) scale(0.1 -0.1)">
       <defs>
        <path id="DejaVuSans-2212" d="M 678 2272 
L 4684 2272 
L 4684 1741 
L 678 1741 
L 678 2272 
z
" transform="scale(0.015625)"/>
        <path id="DejaVuSans-32" d="M 1228 531 
L 3431 531 
L 3431 0 
L 469 0 
L 469 531 
Q 828 903 1448 1529 
Q 2069 2156 2228 2338 
Q 2531 2678 2651 2914 
Q 2772 3150 2772 3378 
Q 2772 3750 2511 3984 
Q 2250 4219 1831 4219 
Q 1534 4219 1204 4116 
Q 875 4013 500 3803 
L 500 4441 
Q 881 4594 1212 4672 
Q 1544 4750 1819 4750 
Q 2544 4750 2975 4387 
Q 3406 4025 3406 3419 
Q 3406 3131 3298 2873 
Q 3191 2616 2906 2266 
Q 2828 2175 2409 1742 
Q 1991 1309 1228 531 
z
" transform="scale(0.015625)"/>
       </defs>
       <use xlink:href="#DejaVuSans-2212"/>
       <use xlink:href="#DejaVuSans-32" x="83.789062"/>
      </g>
     </g>
    </g>
    <g id="xtick_2">
     <g id="line2d_2">
      <g>
       <use xlink:href="#m9da68e5b0b" x="199.008024" y="389.32" style="stroke: #000000; stroke-width: 0.8"/>
      </g>
     </g>
     <g id="text_2">
      <!-- 0 -->
      <g transform="translate(195.826774 403.918437) scale(0.1 -0.1)">
       <defs>
        <path id="DejaVuSans-30" d="M 2034 4250 
Q 1547 4250 1301 3770 
Q 1056 3291 1056 2328 
Q 1056 1369 1301 889 
Q 1547 409 2034 409 
Q 2525 409 2770 889 
Q 3016 1369 3016 2328 
Q 3016 3291 2770 3770 
Q 2525 4250 2034 4250 
z
M 2034 4750 
Q 2819 4750 3233 4129 
Q 3647 3509 3647 2328 
Q 3647 1150 3233 529 
Q 2819 -91 2034 -91 
Q 1250 -91 836 529 
Q 422 1150 422 2328 
Q 422 3509 836 4129 
Q 1250 4750 2034 4750 
z
" transform="scale(0.015625)"/>
       </defs>
       <use xlink:href="#DejaVuSans-30"/>
      </g>
     </g>
    </g>
    <g id="xtick_3">
     <g id="line2d_3">
      <g>
       <use xlink:href="#m9da68e5b0b" x="271.933587" y="389.32" style="stroke: #000000; stroke-width: 0.8"/>
      </g>
     </g>
     <g id="text_3">
      <!-- 2 -->
      <g transform="translate(268.752337 403.918437) scale(0.1 -0.1)">
       <use xlink:href="#DejaVuSans-32"/>
      </g>
     </g>
    </g>
    <g id="xtick_4">
     <g id="line2d_4">
      <g>
       <use xlink:href="#m9da68e5b0b" x="344.859149" y="389.32" style="stroke: #000000; stroke-width: 0.8"/>
      </g>
     </g>
     <g id="text_4">
      <!-- 4 -->
      <g transform="translate(341.677899 403.918437) scale(0.1 -0.1)">
       <defs>
        <path id="DejaVuSans-34" d="M 2419 4116 
L 825 1625 
L 2419 1625 
L 2419 4116 
z
M 2253 4666 
L 3047 4666 
L 3047 1625 
L 3713 1625 
L 3713 1100 
L 3047 1100 
L 3047 0 
L 2419 0 
L 2419 1100 
L 313 1100 
L 313 1709 
L 2253 4666 
z
" transform="scale(0.015625)"/>
       </defs>
       <use xlink:href="#DejaVuSans-34"/>
      </g>
     </g>
    </g>
    <g id="xtick_5">
     <g id="line2d_5">
      <g>
       <use xlink:href="#m9da68e5b0b" x="417.784712" y="389.32" style="stroke: #000000; stroke-width: 0.8"/>
      </g>
     </g>
     <g id="text_5">
      <!-- 6 -->
      <g transform="translate(414.603462 403.918437) scale(0.1 -0.1)">
       <defs>
        <path id="DejaVuSans-36" d="M 2113 2584 
Q 1688 2584 1439 2293 
Q 1191 2003 1191 1497 
Q 1191 994 1439 701 
Q 1688 409 2113 409 
Q 2538 409 2786 701 
Q 3034 994 3034 1497 
Q 3034 2003 2786 2293 
Q 2538 2584 2113 2584 
z
M 3366 4563 
L 3366 3988 
Q 3128 4100 2886 4159 
Q 2644 4219 2406 4219 
Q 1781 4219 1451 3797 
Q 1122 3375 1075 2522 
Q 1259 2794 1537 2939 
Q 1816 3084 2150 3084 
Q 2853 3084 3261 2657 
Q 3669 2231 3669 1497 
Q 3669 778 3244 343 
Q 2819 -91 2113 -91 
Q 1303 -91 875 529 
Q 447 1150 447 2328 
Q 447 3434 972 4092 
Q 1497 4750 2381 4750 
Q 2619 4750 2861 4703 
Q 3103 4656 3366 4563 
z
" transform="scale(0.015625)"/>
       </defs>
       <use xlink:href="#DejaVuSans-36"/>
      </g>
     </g>
    </g>
    <g id="text_6">
     <!-- Predicted Fluorescence -->
     <g transform="translate(169.621582 419.11625) scale(0.12 -0.12)">
      <defs>
       <path id="DejaVuSans-50" d="M 1259 4147 
L 1259 2394 
L 2053 2394 
Q 2494 2394 2734 2622 
Q 2975 2850 2975 3272 
Q 2975 3691 2734 3919 
Q 2494 4147 2053 4147 
L 1259 4147 
z
M 628 4666 
L 2053 4666 
Q 2838 4666 3239 4311 
Q 3641 3956 3641 3272 
Q 3641 2581 3239 2228 
Q 2838 1875 2053 1875 
L 1259 1875 
L 1259 0 
L 628 0 
L 628 4666 
z
" transform="scale(0.015625)"/>
       <path id="DejaVuSans-72" d="M 2631 2963 
Q 2534 3019 2420 3045 
Q 2306 3072 2169 3072 
Q 1681 3072 1420 2755 
Q 1159 2438 1159 1844 
L 1159 0 
L 581 0 
L 581 3500 
L 1159 3500 
L 1159 2956 
Q 1341 3275 1631 3429 
Q 1922 3584 2338 3584 
Q 2397 3584 2469 3576 
Q 2541 3569 2628 3553 
L 2631 2963 
z
" transform="scale(0.015625)"/>
       <path id="DejaVuSans-65" d="M 3597 1894 
L 3597 1613 
L 953 1613 
Q 991 1019 1311 708 
Q 1631 397 2203 397 
Q 2534 397 2845 478 
Q 3156 559 3463 722 
L 3463 178 
Q 3153 47 2828 -22 
Q 2503 -91 2169 -91 
Q 1331 -91 842 396 
Q 353 884 353 1716 
Q 353 2575 817 3079 
Q 1281 3584 2069 3584 
Q 2775 3584 3186 3129 
Q 3597 2675 3597 1894 
z
M 3022 2063 
Q 3016 2534 2758 2815 
Q 2500 3097 2075 3097 
Q 1594 3097 1305 2825 
Q 1016 2553 972 2059 
L 3022 2063 
z
" transform="scale(0.015625)"/>
       <path id="DejaVuSans-64" d="M 2906 2969 
L 2906 4863 
L 3481 4863 
L 3481 0 
L 2906 0 
L 2906 525 
Q 2725 213 2448 61 
Q 2172 -91 1784 -91 
Q 1150 -91 751 415 
Q 353 922 353 1747 
Q 353 2572 751 3078 
Q 1150 3584 1784 3584 
Q 2172 3584 2448 3432 
Q 2725 3281 2906 2969 
z
M 947 1747 
Q 947 1113 1208 752 
Q 1469 391 1925 391 
Q 2381 391 2643 752 
Q 2906 1113 2906 1747 
Q 2906 2381 2643 2742 
Q 2381 3103 1925 3103 
Q 1469 3103 1208 2742 
Q 947 2381 947 1747 
z
" transform="scale(0.015625)"/>
       <path id="DejaVuSans-69" d="M 603 3500 
L 1178 3500 
L 1178 0 
L 603 0 
L 603 3500 
z
M 603 4863 
L 1178 4863 
L 1178 4134 
L 603 4134 
L 603 4863 
z
" transform="scale(0.015625)"/>
       <path id="DejaVuSans-63" d="M 3122 3366 
L 3122 2828 
Q 2878 2963 2633 3030 
Q 2388 3097 2138 3097 
Q 1578 3097 1268 2742 
Q 959 2388 959 1747 
Q 959 1106 1268 751 
Q 1578 397 2138 397 
Q 2388 397 2633 464 
Q 2878 531 3122 666 
L 3122 134 
Q 2881 22 2623 -34 
Q 2366 -91 2075 -91 
Q 1284 -91 818 406 
Q 353 903 353 1747 
Q 353 2603 823 3093 
Q 1294 3584 2113 3584 
Q 2378 3584 2631 3529 
Q 2884 3475 3122 3366 
z
" transform="scale(0.015625)"/>
       <path id="DejaVuSans-74" d="M 1172 4494 
L 1172 3500 
L 2356 3500 
L 2356 3053 
L 1172 3053 
L 1172 1153 
Q 1172 725 1289 603 
Q 1406 481 1766 481 
L 2356 481 
L 2356 0 
L 1766 0 
Q 1100 0 847 248 
Q 594 497 594 1153 
L 594 3053 
L 172 3053 
L 172 3500 
L 594 3500 
L 594 4494 
L 1172 4494 
z
" transform="scale(0.015625)"/>
       <path id="DejaVuSans-20" transform="scale(0.015625)"/>
       <path id="DejaVuSans-46" d="M 628 4666 
L 3309 4666 
L 3309 4134 
L 1259 4134 
L 1259 2759 
L 3109 2759 
L 3109 2228 
L 1259 2228 
L 1259 0 
L 628 0 
L 628 4666 
z
" transform="scale(0.015625)"/>
       <path id="DejaVuSans-6c" d="M 603 4863 
L 1178 4863 
L 1178 0 
L 603 0 
L 603 4863 
z
" transform="scale(0.015625)"/>
       <path id="DejaVuSans-75" d="M 544 1381 
L 544 3500 
L 1119 3500 
L 1119 1403 
Q 1119 906 1312 657 
Q 1506 409 1894 409 
Q 2359 409 2629 706 
Q 2900 1003 2900 1516 
L 2900 3500 
L 3475 3500 
L 3475 0 
L 2900 0 
L 2900 538 
Q 2691 219 2414 64 
Q 2138 -91 1772 -91 
Q 1169 -91 856 284 
Q 544 659 544 1381 
z
M 1991 3584 
L 1991 3584 
z
" transform="scale(0.015625)"/>
       <path id="DejaVuSans-6f" d="M 1959 3097 
Q 1497 3097 1228 2736 
Q 959 2375 959 1747 
Q 959 1119 1226 758 
Q 1494 397 1959 397 
Q 2419 397 2687 759 
Q 2956 1122 2956 1747 
Q 2956 2369 2687 2733 
Q 2419 3097 1959 3097 
z
M 1959 3584 
Q 2709 3584 3137 3096 
Q 3566 2609 3566 1747 
Q 3566 888 3137 398 
Q 2709 -91 1959 -91 
Q 1206 -91 779 398 
Q 353 888 353 1747 
Q 353 2609 779 3096 
Q 1206 3584 1959 3584 
z
" transform="scale(0.015625)"/>
       <path id="DejaVuSans-73" d="M 2834 3397 
L 2834 2853 
Q 2591 2978 2328 3040 
Q 2066 3103 1784 3103 
Q 1356 3103 1142 2972 
Q 928 2841 928 2578 
Q 928 2378 1081 2264 
Q 1234 2150 1697 2047 
L 1894 2003 
Q 2506 1872 2764 1633 
Q 3022 1394 3022 966 
Q 3022 478 2636 193 
Q 2250 -91 1575 -91 
Q 1294 -91 989 -36 
Q 684 19 347 128 
L 347 722 
Q 666 556 975 473 
Q 1284 391 1588 391 
Q 1994 391 2212 530 
Q 2431 669 2431 922 
Q 2431 1156 2273 1281 
Q 2116 1406 1581 1522 
L 1381 1569 
Q 847 1681 609 1914 
Q 372 2147 372 2553 
Q 372 3047 722 3315 
Q 1072 3584 1716 3584 
Q 2034 3584 2315 3537 
Q 2597 3491 2834 3397 
z
" transform="scale(0.015625)"/>
       <path id="DejaVuSans-6e" d="M 3513 2113 
L 3513 0 
L 2938 0 
L 2938 2094 
Q 2938 2591 2744 2837 
Q 2550 3084 2163 3084 
Q 1697 3084 1428 2787 
Q 1159 2491 1159 1978 
L 1159 0 
L 581 0 
L 581 3500 
L 1159 3500 
L 1159 2956 
Q 1366 3272 1645 3428 
Q 1925 3584 2291 3584 
Q 2894 3584 3203 3211 
Q 3513 2838 3513 2113 
z
" transform="scale(0.015625)"/>
      </defs>
      <use xlink:href="#DejaVuSans-50"/>
      <use xlink:href="#DejaVuSans-72" x="58.552734"/>
      <use xlink:href="#DejaVuSans-65" x="97.416016"/>
      <use xlink:href="#DejaVuSans-64" x="158.939453"/>
      <use xlink:href="#DejaVuSans-69" x="222.416016"/>
      <use xlink:href="#DejaVuSans-63" x="250.199219"/>
      <use xlink:href="#DejaVuSans-74" x="305.179688"/>
      <use xlink:href="#DejaVuSans-65" x="344.388672"/>
      <use xlink:href="#DejaVuSans-64" x="405.912109"/>
      <use xlink:href="#DejaVuSans-20" x="469.388672"/>
      <use xlink:href="#DejaVuSans-46" x="501.175781"/>
      <use xlink:href="#DejaVuSans-6c" x="558.695312"/>
      <use xlink:href="#DejaVuSans-75" x="586.478516"/>
      <use xlink:href="#DejaVuSans-6f" x="649.857422"/>
      <use xlink:href="#DejaVuSans-72" x="711.039062"/>
      <use xlink:href="#DejaVuSans-65" x="749.902344"/>
      <use xlink:href="#DejaVuSans-73" x="811.425781"/>
      <use xlink:href="#DejaVuSans-63" x="863.525391"/>
      <use xlink:href="#DejaVuSans-65" x="918.505859"/>
      <use xlink:href="#DejaVuSans-6e" x="980.029297"/>
      <use xlink:href="#DejaVuSans-63" x="1043.408203"/>
      <use xlink:href="#DejaVuSans-65" x="1098.388672"/>
     </g>
    </g>
   </g>
   <g id="matplotlib.axis_2">
    <g id="ytick_1">
     <g id="line2d_6">
      <defs>
       <path id="md8a84b49a7" d="M 0 0 
L -3.5 0 
" style="stroke: #000000; stroke-width: 0.8"/>
      </defs>
      <g>
       <use xlink:href="#md8a84b49a7" x="57.8" y="389.32" style="stroke: #000000; stroke-width: 0.8"/>
      </g>
     </g>
     <g id="text_7">
      <!-- 0.00 -->
      <g transform="translate(28.534375 393.119219) scale(0.1 -0.1)">
       <defs>
        <path id="DejaVuSans-2e" d="M 684 794 
L 1344 794 
L 1344 0 
L 684 0 
L 684 794 
z
" transform="scale(0.015625)"/>
       </defs>
       <use xlink:href="#DejaVuSans-30"/>
       <use xlink:href="#DejaVuSans-2e" x="63.623047"/>
       <use xlink:href="#DejaVuSans-30" x="95.410156"/>
       <use xlink:href="#DejaVuSans-30" x="159.033203"/>
      </g>
     </g>
    </g>
    <g id="ytick_2">
     <g id="line2d_7">
      <g>
       <use xlink:href="#md8a84b49a7" x="57.8" y="342.729828" style="stroke: #000000; stroke-width: 0.8"/>
      </g>
     </g>
     <g id="text_8">
      <!-- 0.05 -->
      <g transform="translate(28.534375 346.529046) scale(0.1 -0.1)">
       <defs>
        <path id="DejaVuSans-35" d="M 691 4666 
L 3169 4666 
L 3169 4134 
L 1269 4134 
L 1269 2991 
Q 1406 3038 1543 3061 
Q 1681 3084 1819 3084 
Q 2600 3084 3056 2656 
Q 3513 2228 3513 1497 
Q 3513 744 3044 326 
Q 2575 -91 1722 -91 
Q 1428 -91 1123 -41 
Q 819 9 494 109 
L 494 744 
Q 775 591 1075 516 
Q 1375 441 1709 441 
Q 2250 441 2565 725 
Q 2881 1009 2881 1497 
Q 2881 1984 2565 2268 
Q 2250 2553 1709 2553 
Q 1456 2553 1204 2497 
Q 953 2441 691 2322 
L 691 4666 
z
" transform="scale(0.015625)"/>
       </defs>
       <use xlink:href="#DejaVuSans-30"/>
       <use xlink:href="#DejaVuSans-2e" x="63.623047"/>
       <use xlink:href="#DejaVuSans-30" x="95.410156"/>
       <use xlink:href="#DejaVuSans-35" x="159.033203"/>
      </g>
     </g>
    </g>
    <g id="ytick_3">
     <g id="line2d_8">
      <g>
       <use xlink:href="#md8a84b49a7" x="57.8" y="296.139655" style="stroke: #000000; stroke-width: 0.8"/>
      </g>
     </g>
     <g id="text_9">
      <!-- 0.10 -->
      <g transform="translate(28.534375 299.938874) scale(0.1 -0.1)">
       <defs>
        <path id="DejaVuSans-31" d="M 794 531 
L 1825 531 
L 1825 4091 
L 703 3866 
L 703 4441 
L 1819 4666 
L 2450 4666 
L 2450 531 
L 3481 531 
L 3481 0 
L 794 0 
L 794 531 
z
" transform="scale(0.015625)"/>
       </defs>
       <use xlink:href="#DejaVuSans-30"/>
       <use xlink:href="#DejaVuSans-2e" x="63.623047"/>
       <use xlink:href="#DejaVuSans-31" x="95.410156"/>
       <use xlink:href="#DejaVuSans-30" x="159.033203"/>
      </g>
     </g>
    </g>
    <g id="ytick_4">
     <g id="line2d_9">
      <g>
       <use xlink:href="#md8a84b49a7" x="57.8" y="249.549483" style="stroke: #000000; stroke-width: 0.8"/>
      </g>
     </g>
     <g id="text_10">
      <!-- 0.15 -->
      <g transform="translate(28.534375 253.348701) scale(0.1 -0.1)">
       <use xlink:href="#DejaVuSans-30"/>
       <use xlink:href="#DejaVuSans-2e" x="63.623047"/>
       <use xlink:href="#DejaVuSans-31" x="95.410156"/>
       <use xlink:href="#DejaVuSans-35" x="159.033203"/>
      </g>
     </g>
    </g>
    <g id="ytick_5">
     <g id="line2d_10">
      <g>
       <use xlink:href="#md8a84b49a7" x="57.8" y="202.95931" style="stroke: #000000; stroke-width: 0.8"/>
      </g>
     </g>
     <g id="text_11">
      <!-- 0.20 -->
      <g transform="translate(28.534375 206.758529) scale(0.1 -0.1)">
       <use xlink:href="#DejaVuSans-30"/>
       <use xlink:href="#DejaVuSans-2e" x="63.623047"/>
       <use xlink:href="#DejaVuSans-32" x="95.410156"/>
       <use xlink:href="#DejaVuSans-30" x="159.033203"/>
      </g>
     </g>
    </g>
    <g id="ytick_6">
     <g id="line2d_11">
      <g>
       <use xlink:href="#md8a84b49a7" x="57.8" y="156.369138" style="stroke: #000000; stroke-width: 0.8"/>
      </g>
     </g>
     <g id="text_12">
      <!-- 0.25 -->
      <g transform="translate(28.534375 160.168357) scale(0.1 -0.1)">
       <use xlink:href="#DejaVuSans-30"/>
       <use xlink:href="#DejaVuSans-2e" x="63.623047"/>
       <use xlink:href="#DejaVuSans-32" x="95.410156"/>
       <use xlink:href="#DejaVuSans-35" x="159.033203"/>
      </g>
     </g>
    </g>
    <g id="ytick_7">
     <g id="line2d_12">
      <g>
       <use xlink:href="#md8a84b49a7" x="57.8" y="109.778965" style="stroke: #000000; stroke-width: 0.8"/>
      </g>
     </g>
     <g id="text_13">
      <!-- 0.30 -->
      <g transform="translate(28.534375 113.578184) scale(0.1 -0.1)">
       <defs>
        <path id="DejaVuSans-33" d="M 2597 2516 
Q 3050 2419 3304 2112 
Q 3559 1806 3559 1356 
Q 3559 666 3084 287 
Q 2609 -91 1734 -91 
Q 1441 -91 1130 -33 
Q 819 25 488 141 
L 488 750 
Q 750 597 1062 519 
Q 1375 441 1716 441 
Q 2309 441 2620 675 
Q 2931 909 2931 1356 
Q 2931 1769 2642 2001 
Q 2353 2234 1838 2234 
L 1294 2234 
L 1294 2753 
L 1863 2753 
Q 2328 2753 2575 2939 
Q 2822 3125 2822 3475 
Q 2822 3834 2567 4026 
Q 2313 4219 1838 4219 
Q 1578 4219 1281 4162 
Q 984 4106 628 3988 
L 628 4550 
Q 988 4650 1302 4700 
Q 1616 4750 1894 4750 
Q 2613 4750 3031 4423 
Q 3450 4097 3450 3541 
Q 3450 3153 3228 2886 
Q 3006 2619 2597 2516 
z
" transform="scale(0.015625)"/>
       </defs>
       <use xlink:href="#DejaVuSans-30"/>
       <use xlink:href="#DejaVuSans-2e" x="63.623047"/>
       <use xlink:href="#DejaVuSans-33" x="95.410156"/>
       <use xlink:href="#DejaVuSans-30" x="159.033203"/>
      </g>
     </g>
    </g>
    <g id="ytick_8">
     <g id="line2d_13">
      <g>
       <use xlink:href="#md8a84b49a7" x="57.8" y="63.188793" style="stroke: #000000; stroke-width: 0.8"/>
      </g>
     </g>
     <g id="text_14">
      <!-- 0.35 -->
      <g transform="translate(28.534375 66.988012) scale(0.1 -0.1)">
       <use xlink:href="#DejaVuSans-30"/>
       <use xlink:href="#DejaVuSans-2e" x="63.623047"/>
       <use xlink:href="#DejaVuSans-33" x="95.410156"/>
       <use xlink:href="#DejaVuSans-35" x="159.033203"/>
      </g>
     </g>
    </g>
    <g id="ytick_9">
     <g id="line2d_14">
      <g>
       <use xlink:href="#md8a84b49a7" x="57.8" y="16.598621" style="stroke: #000000; stroke-width: 0.8"/>
      </g>
     </g>
     <g id="text_15">
      <!-- 0.40 -->
      <g transform="translate(28.534375 20.397839) scale(0.1 -0.1)">
       <use xlink:href="#DejaVuSans-30"/>
       <use xlink:href="#DejaVuSans-2e" x="63.623047"/>
       <use xlink:href="#DejaVuSans-34" x="95.410156"/>
       <use xlink:href="#DejaVuSans-30" x="159.033203"/>
      </g>
     </g>
    </g>
    <g id="text_16">
     <!-- Density -->
     <g transform="translate(21.622813 226.672031) rotate(-90) scale(0.14 -0.14)">
      <defs>
       <path id="DejaVuSans-44" d="M 1259 4147 
L 1259 519 
L 2022 519 
Q 2988 519 3436 956 
Q 3884 1394 3884 2338 
Q 3884 3275 3436 3711 
Q 2988 4147 2022 4147 
L 1259 4147 
z
M 628 4666 
L 1925 4666 
Q 3281 4666 3915 4102 
Q 4550 3538 4550 2338 
Q 4550 1131 3912 565 
Q 3275 0 1925 0 
L 628 0 
L 628 4666 
z
" transform="scale(0.015625)"/>
       <path id="DejaVuSans-79" d="M 2059 -325 
Q 1816 -950 1584 -1140 
Q 1353 -1331 966 -1331 
L 506 -1331 
L 506 -850 
L 844 -850 
Q 1081 -850 1212 -737 
Q 1344 -625 1503 -206 
L 1606 56 
L 191 3500 
L 800 3500 
L 1894 763 
L 2988 3500 
L 3597 3500 
L 2059 -325 
z
" transform="scale(0.015625)"/>
      </defs>
      <use xlink:href="#DejaVuSans-44"/>
      <use xlink:href="#DejaVuSans-65" x="77.001953"/>
      <use xlink:href="#DejaVuSans-6e" x="138.525391"/>
      <use xlink:href="#DejaVuSans-73" x="201.904297"/>
      <use xlink:href="#DejaVuSans-69" x="254.003906"/>
      <use xlink:href="#DejaVuSans-74" x="281.787109"/>
      <use xlink:href="#DejaVuSans-79" x="320.996094"/>
     </g>
    </g>
   </g>
   <g id="line2d_15">
    <path d="M 181.556774 389.32 
L 181.556774 10.8 
" clip-path="url(#p720a953bc3)" style="fill: none; stroke-dasharray: 3.7,1.6; stroke-dashoffset: 0; stroke: #000000"/>
   </g>
   <g id="patch_3">
    <path d="M 57.8 389.32 
L 57.8 10.8 
" style="fill: none; stroke: #000000; stroke-width: 0.8; stroke-linejoin: miter; stroke-linecap: square"/>
   </g>
   <g id="patch_4">
    <path d="M 57.8 389.32 
L 420.635664 389.32 
" style="fill: none; stroke: #000000; stroke-width: 0.8; stroke-linejoin: miter; stroke-linecap: square"/>
   </g>
   <g id="legend_1">
    <g id="patch_5">
     <path d="M 263.187227 48.15625 
L 413.635664 48.15625 
Q 415.635664 48.15625 415.635664 46.15625 
L 415.635664 17.8 
Q 415.635664 15.8 413.635664 15.8 
L 263.187227 15.8 
Q 261.187227 15.8 261.187227 17.8 
L 261.187227 46.15625 
Q 261.187227 48.15625 263.187227 48.15625 
z
" style="fill: #ffffff; opacity: 0.8; stroke: #cccccc; stroke-linejoin: miter"/>
    </g>
    <g id="patch_6">
     <path d="M 265.187227 27.398438 
L 285.187227 27.398438 
L 285.187227 20.398438 
L 265.187227 20.398438 
z
" style="fill: #bdbdbd; fill-opacity: 0.5; stroke: #bdbdbd; stroke-width: 2.5; stroke-linejoin: miter"/>
    </g>
    <g id="text_17">
     <!-- Pre-trained ESM2 (35M) -->
     <g transform="translate(293.187227 27.398438) scale(0.1 -0.1)">
      <defs>
       <path id="DejaVuSans-2d" d="M 313 2009 
L 1997 2009 
L 1997 1497 
L 313 1497 
L 313 2009 
z
" transform="scale(0.015625)"/>
       <path id="DejaVuSans-61" d="M 2194 1759 
Q 1497 1759 1228 1600 
Q 959 1441 959 1056 
Q 959 750 1161 570 
Q 1363 391 1709 391 
Q 2188 391 2477 730 
Q 2766 1069 2766 1631 
L 2766 1759 
L 2194 1759 
z
M 3341 1997 
L 3341 0 
L 2766 0 
L 2766 531 
Q 2569 213 2275 61 
Q 1981 -91 1556 -91 
Q 1019 -91 701 211 
Q 384 513 384 1019 
Q 384 1609 779 1909 
Q 1175 2209 1959 2209 
L 2766 2209 
L 2766 2266 
Q 2766 2663 2505 2880 
Q 2244 3097 1772 3097 
Q 1472 3097 1187 3025 
Q 903 2953 641 2809 
L 641 3341 
Q 956 3463 1253 3523 
Q 1550 3584 1831 3584 
Q 2591 3584 2966 3190 
Q 3341 2797 3341 1997 
z
" transform="scale(0.015625)"/>
       <path id="DejaVuSans-45" d="M 628 4666 
L 3578 4666 
L 3578 4134 
L 1259 4134 
L 1259 2753 
L 3481 2753 
L 3481 2222 
L 1259 2222 
L 1259 531 
L 3634 531 
L 3634 0 
L 628 0 
L 628 4666 
z
" transform="scale(0.015625)"/>
       <path id="DejaVuSans-53" d="M 3425 4513 
L 3425 3897 
Q 3066 4069 2747 4153 
Q 2428 4238 2131 4238 
Q 1616 4238 1336 4038 
Q 1056 3838 1056 3469 
Q 1056 3159 1242 3001 
Q 1428 2844 1947 2747 
L 2328 2669 
Q 3034 2534 3370 2195 
Q 3706 1856 3706 1288 
Q 3706 609 3251 259 
Q 2797 -91 1919 -91 
Q 1588 -91 1214 -16 
Q 841 59 441 206 
L 441 856 
Q 825 641 1194 531 
Q 1563 422 1919 422 
Q 2459 422 2753 634 
Q 3047 847 3047 1241 
Q 3047 1584 2836 1778 
Q 2625 1972 2144 2069 
L 1759 2144 
Q 1053 2284 737 2584 
Q 422 2884 422 3419 
Q 422 4038 858 4394 
Q 1294 4750 2059 4750 
Q 2388 4750 2728 4690 
Q 3069 4631 3425 4513 
z
" transform="scale(0.015625)"/>
       <path id="DejaVuSans-4d" d="M 628 4666 
L 1569 4666 
L 2759 1491 
L 3956 4666 
L 4897 4666 
L 4897 0 
L 4281 0 
L 4281 4097 
L 3078 897 
L 2444 897 
L 1241 4097 
L 1241 0 
L 628 0 
L 628 4666 
z
" transform="scale(0.015625)"/>
       <path id="DejaVuSans-28" d="M 1984 4856 
Q 1566 4138 1362 3434 
Q 1159 2731 1159 2009 
Q 1159 1288 1364 580 
Q 1569 -128 1984 -844 
L 1484 -844 
Q 1016 -109 783 600 
Q 550 1309 550 2009 
Q 550 2706 781 3412 
Q 1013 4119 1484 4856 
L 1984 4856 
z
" transform="scale(0.015625)"/>
       <path id="DejaVuSans-29" d="M 513 4856 
L 1013 4856 
Q 1481 4119 1714 3412 
Q 1947 2706 1947 2009 
Q 1947 1309 1714 600 
Q 1481 -109 1013 -844 
L 513 -844 
Q 928 -128 1133 580 
Q 1338 1288 1338 2009 
Q 1338 2731 1133 3434 
Q 928 4138 513 4856 
z
" transform="scale(0.015625)"/>
      </defs>
      <use xlink:href="#DejaVuSans-50"/>
      <use xlink:href="#DejaVuSans-72" x="58.552734"/>
      <use xlink:href="#DejaVuSans-65" x="97.416016"/>
      <use xlink:href="#DejaVuSans-2d" x="158.939453"/>
      <use xlink:href="#DejaVuSans-74" x="195.023438"/>
      <use xlink:href="#DejaVuSans-72" x="234.232422"/>
      <use xlink:href="#DejaVuSans-61" x="275.345703"/>
      <use xlink:href="#DejaVuSans-69" x="336.625"/>
      <use xlink:href="#DejaVuSans-6e" x="364.408203"/>
      <use xlink:href="#DejaVuSans-65" x="427.787109"/>
      <use xlink:href="#DejaVuSans-64" x="489.310547"/>
      <use xlink:href="#DejaVuSans-20" x="552.787109"/>
      <use xlink:href="#DejaVuSans-45" x="584.574219"/>
      <use xlink:href="#DejaVuSans-53" x="647.757812"/>
      <use xlink:href="#DejaVuSans-4d" x="711.234375"/>
      <use xlink:href="#DejaVuSans-32" x="797.513672"/>
      <use xlink:href="#DejaVuSans-20" x="861.136719"/>
      <use xlink:href="#DejaVuSans-28" x="892.923828"/>
      <use xlink:href="#DejaVuSans-33" x="931.9375"/>
      <use xlink:href="#DejaVuSans-35" x="995.560547"/>
      <use xlink:href="#DejaVuSans-4d" x="1059.183594"/>
      <use xlink:href="#DejaVuSans-29" x="1145.462891"/>
     </g>
    </g>
    <g id="line2d_16">
     <path d="M 265.187227 38.576563 
L 275.187227 38.576563 
L 285.187227 38.576563 
" style="fill: none; stroke-dasharray: 3.7,1.6; stroke-dashoffset: 0; stroke: #000000"/>
    </g>
    <g id="text_18">
     <!-- Predicted bgl3 score -->
     <g transform="translate(293.187227 42.076563) scale(0.1 -0.1)">
      <defs>
       <path id="DejaVuSans-62" d="M 3116 1747 
Q 3116 2381 2855 2742 
Q 2594 3103 2138 3103 
Q 1681 3103 1420 2742 
Q 1159 2381 1159 1747 
Q 1159 1113 1420 752 
Q 1681 391 2138 391 
Q 2594 391 2855 752 
Q 3116 1113 3116 1747 
z
M 1159 2969 
Q 1341 3281 1617 3432 
Q 1894 3584 2278 3584 
Q 2916 3584 3314 3078 
Q 3713 2572 3713 1747 
Q 3713 922 3314 415 
Q 2916 -91 2278 -91 
Q 1894 -91 1617 61 
Q 1341 213 1159 525 
L 1159 0 
L 581 0 
L 581 4863 
L 1159 4863 
L 1159 2969 
z
" transform="scale(0.015625)"/>
       <path id="DejaVuSans-67" d="M 2906 1791 
Q 2906 2416 2648 2759 
Q 2391 3103 1925 3103 
Q 1463 3103 1205 2759 
Q 947 2416 947 1791 
Q 947 1169 1205 825 
Q 1463 481 1925 481 
Q 2391 481 2648 825 
Q 2906 1169 2906 1791 
z
M 3481 434 
Q 3481 -459 3084 -895 
Q 2688 -1331 1869 -1331 
Q 1566 -1331 1297 -1286 
Q 1028 -1241 775 -1147 
L 775 -588 
Q 1028 -725 1275 -790 
Q 1522 -856 1778 -856 
Q 2344 -856 2625 -561 
Q 2906 -266 2906 331 
L 2906 616 
Q 2728 306 2450 153 
Q 2172 0 1784 0 
Q 1141 0 747 490 
Q 353 981 353 1791 
Q 353 2603 747 3093 
Q 1141 3584 1784 3584 
Q 2172 3584 2450 3431 
Q 2728 3278 2906 2969 
L 2906 3500 
L 3481 3500 
L 3481 434 
z
" transform="scale(0.015625)"/>
      </defs>
      <use xlink:href="#DejaVuSans-50"/>
      <use xlink:href="#DejaVuSans-72" x="58.552734"/>
      <use xlink:href="#DejaVuSans-65" x="97.416016"/>
      <use xlink:href="#DejaVuSans-64" x="158.939453"/>
      <use xlink:href="#DejaVuSans-69" x="222.416016"/>
      <use xlink:href="#DejaVuSans-63" x="250.199219"/>
      <use xlink:href="#DejaVuSans-74" x="305.179688"/>
      <use xlink:href="#DejaVuSans-65" x="344.388672"/>
      <use xlink:href="#DejaVuSans-64" x="405.912109"/>
      <use xlink:href="#DejaVuSans-20" x="469.388672"/>
      <use xlink:href="#DejaVuSans-62" x="501.175781"/>
      <use xlink:href="#DejaVuSans-67" x="564.652344"/>
      <use xlink:href="#DejaVuSans-6c" x="628.128906"/>
      <use xlink:href="#DejaVuSans-33" x="655.912109"/>
      <use xlink:href="#DejaVuSans-20" x="719.535156"/>
      <use xlink:href="#DejaVuSans-73" x="751.322266"/>
      <use xlink:href="#DejaVuSans-63" x="803.421875"/>
      <use xlink:href="#DejaVuSans-6f" x="858.402344"/>
      <use xlink:href="#DejaVuSans-72" x="919.583984"/>
      <use xlink:href="#DejaVuSans-65" x="958.447266"/>
     </g>
    </g>
   </g>
  </g>
 </g>
 <defs>
  <clipPath id="p720a953bc3">
   <rect x="57.8" y="10.8" width="362.835664" height="378.52"/>
  </clipPath>
 </defs>
</svg>
