<?xml version="1.0" encoding="utf-8" standalone="no"?>
<!DOCTYPE svg PUBLIC "-//W3C//DTD SVG 1.1//EN"
  "http://www.w3.org/Graphics/SVG/1.1/DTD/svg11.dtd">
<svg xmlns:xlink="http://www.w3.org/1999/xlink" width="864pt" height="432pt" viewBox="0 0 864 432" xmlns="http://www.w3.org/2000/svg" version="1.1">
 <metadata>
  <rdf:RDF xmlns:dc="http://purl.org/dc/elements/1.1/" xmlns:cc="http://creativecommons.org/ns#" xmlns:rdf="http://www.w3.org/1999/02/22-rdf-syntax-ns#">
   <cc:Work>
    <dc:type rdf:resource="http://purl.org/dc/dcmitype/StillImage"/>
    <dc:date>2025-03-26T13:22:16.081243</dc:date>
    <dc:format>image/svg+xml</dc:format>
    <dc:creator>
     <cc:Agent>
      <dc:title>Matplotlib v3.8.0, https://matplotlib.org/</dc:title>
     </cc:Agent>
    </dc:creator>
   </cc:Work>
  </rdf:RDF>
 </metadata>
 <defs>
  <style type="text/css">*{stroke-linejoin: round; stroke-linecap: butt}</style>
 </defs>
 <g id="figure_1">
  <g id="patch_1">
   <path d="M 0 432 
L 864 432 
L 864 0 
L 0 0 
z
" style="fill: #ffffff"/>
  </g>
  <g id="axes_1">
   <g id="patch_2">
    <path d="M 54.92 389.32 
L 429.795 389.32 
L 429.795 14.76 
L 54.92 14.76 
z
" style="fill: #ffffff"/>
   </g>
   <g id="patch_3">
    <path d="M 71.959773 389.32 
L 71.959773 14.76 
L 171.645096 14.76 
L 171.645096 389.32 
z
" clip-path="url(#p237cee69d1)" style="fill: #ff0000; opacity: 0.1; stroke: #ff0000; stroke-linejoin: miter"/>
   </g>
   <g id="patch_4">
    <path d="M 171.645096 389.32 
L 171.645096 14.76 
L 412.755227 14.76 
L 412.755227 389.32 
z
" clip-path="url(#p237cee69d1)" style="fill: #008000; opacity: 0.1; stroke: #008000; stroke-linejoin: miter"/>
   </g>
   <g id="patch_5">
    <path d="M 73.199271 389.32 
L 80.720113 389.32 
L 80.720113 360.218448 
L 73.199271 360.218448 
z
" clip-path="url(#p237cee69d1)" style="fill: #808080; fill-opacity: 0.4; stroke: #000000; stroke-linejoin: miter"/>
   </g>
   <g id="patch_6">
    <path d="M 80.720113 389.32 
L 88.240956 389.32 
L 88.240956 360.218448 
L 80.720113 360.218448 
z
" clip-path="url(#p237cee69d1)" style="fill: #808080; fill-opacity: 0.4; stroke: #000000; stroke-linejoin: miter"/>
   </g>
   <g id="patch_7">
    <path d="M 88.240956 389.32 
L 95.761798 389.32 
L 95.761798 272.913793 
L 88.240956 272.913793 
z
" clip-path="url(#p237cee69d1)" style="fill: #808080; fill-opacity: 0.4; stroke: #000000; stroke-linejoin: miter"/>
   </g>
   <g id="patch_8">
    <path d="M 95.761798 389.32 
L 103.282641 389.32 
L 103.282641 243.812241 
L 95.761798 243.812241 
z
" clip-path="url(#p237cee69d1)" style="fill: #808080; fill-opacity: 0.4; stroke: #000000; stroke-linejoin: miter"/>
   </g>
   <g id="patch_9">
    <path d="M 103.282641 389.32 
L 110.803483 389.32 
L 110.803483 272.913793 
L 103.282641 272.913793 
z
" clip-path="url(#p237cee69d1)" style="fill: #808080; fill-opacity: 0.4; stroke: #000000; stroke-linejoin: miter"/>
   </g>
   <g id="patch_10">
    <path d="M 110.803483 389.32 
L 118.324326 389.32 
L 118.324326 156.507585 
L 110.803483 156.507585 
z
" clip-path="url(#p237cee69d1)" style="fill: #808080; fill-opacity: 0.4; stroke: #000000; stroke-linejoin: miter"/>
   </g>
   <g id="patch_11">
    <path d="M 118.324326 389.32 
L 125.845168 389.32 
L 125.845168 127.406033 
L 118.324326 127.406033 
z
" clip-path="url(#p237cee69d1)" style="fill: #808080; fill-opacity: 0.4; stroke: #000000; stroke-linejoin: miter"/>
   </g>
   <g id="patch_12">
    <path d="M 125.845168 389.32 
L 133.366011 389.32 
L 133.366011 127.406033 
L 125.845168 127.406033 
z
" clip-path="url(#p237cee69d1)" style="fill: #808080; fill-opacity: 0.4; stroke: #000000; stroke-linejoin: miter"/>
   </g>
   <g id="patch_13">
    <path d="M 133.366011 389.32 
L 140.886853 389.32 
L 140.886853 98.304481 
L 133.366011 98.304481 
z
" clip-path="url(#p237cee69d1)" style="fill: #808080; fill-opacity: 0.4; stroke: #000000; stroke-linejoin: miter"/>
   </g>
   <g id="patch_14">
    <path d="M 140.886853 389.32 
L 148.407696 389.32 
L 148.407696 127.406033 
L 140.886853 127.406033 
z
" clip-path="url(#p237cee69d1)" style="fill: #808080; fill-opacity: 0.4; stroke: #000000; stroke-linejoin: miter"/>
   </g>
   <g id="patch_15">
    <path d="M 148.407696 389.32 
L 155.928538 389.32 
L 155.928538 214.710689 
L 148.407696 214.710689 
z
" clip-path="url(#p237cee69d1)" style="fill: #808080; fill-opacity: 0.4; stroke: #000000; stroke-linejoin: miter"/>
   </g>
   <g id="patch_16">
    <path d="M 155.928538 389.32 
L 163.449381 389.32 
L 163.449381 214.710689 
L 155.928538 214.710689 
z
" clip-path="url(#p237cee69d1)" style="fill: #808080; fill-opacity: 0.4; stroke: #000000; stroke-linejoin: miter"/>
   </g>
   <g id="patch_17">
    <path d="M 163.449381 389.32 
L 170.970223 389.32 
L 170.970223 185.609137 
L 163.449381 185.609137 
z
" clip-path="url(#p237cee69d1)" style="fill: #808080; fill-opacity: 0.4; stroke: #000000; stroke-linejoin: miter"/>
   </g>
   <g id="patch_18">
    <path d="M 170.970223 389.32 
L 178.491066 389.32 
L 178.491066 331.116896 
L 170.970223 331.116896 
z
" clip-path="url(#p237cee69d1)" style="fill: #808080; fill-opacity: 0.4; stroke: #000000; stroke-linejoin: miter"/>
   </g>
   <g id="patch_19">
    <path d="M 178.491066 389.32 
L 186.011908 389.32 
L 186.011908 272.913793 
L 178.491066 272.913793 
z
" clip-path="url(#p237cee69d1)" style="fill: #808080; fill-opacity: 0.4; stroke: #000000; stroke-linejoin: miter"/>
   </g>
   <g id="patch_20">
    <path d="M 186.011908 389.32 
L 193.532751 389.32 
L 193.532751 214.710689 
L 186.011908 214.710689 
z
" clip-path="url(#p237cee69d1)" style="fill: #808080; fill-opacity: 0.4; stroke: #000000; stroke-linejoin: miter"/>
   </g>
   <g id="patch_21">
    <path d="M 193.532751 389.32 
L 201.053593 389.32 
L 201.053593 243.812241 
L 193.532751 243.812241 
z
" clip-path="url(#p237cee69d1)" style="fill: #808080; fill-opacity: 0.4; stroke: #000000; stroke-linejoin: miter"/>
   </g>
   <g id="patch_22">
    <path d="M 201.053593 389.32 
L 208.574436 389.32 
L 208.574436 360.218448 
L 201.053593 360.218448 
z
" clip-path="url(#p237cee69d1)" style="fill: #808080; fill-opacity: 0.4; stroke: #000000; stroke-linejoin: miter"/>
   </g>
   <g id="patch_23">
    <path d="M 208.574436 389.32 
L 216.095278 389.32 
L 216.095278 360.218448 
L 208.574436 360.218448 
z
" clip-path="url(#p237cee69d1)" style="fill: #808080; fill-opacity: 0.4; stroke: #000000; stroke-linejoin: miter"/>
   </g>
   <g id="patch_24">
    <path d="M 216.095278 389.32 
L 223.616121 389.32 
L 223.616121 389.32 
L 216.095278 389.32 
z
" clip-path="url(#p237cee69d1)" style="fill: #808080; fill-opacity: 0.4; stroke: #000000; stroke-linejoin: miter"/>
   </g>
   <g id="patch_25">
    <path d="M 223.616121 389.32 
L 231.136963 389.32 
L 231.136963 360.218448 
L 223.616121 360.218448 
z
" clip-path="url(#p237cee69d1)" style="fill: #808080; fill-opacity: 0.4; stroke: #000000; stroke-linejoin: miter"/>
   </g>
   <g id="patch_26">
    <path d="M 231.136963 389.32 
L 238.657806 389.32 
L 238.657806 389.32 
L 231.136963 389.32 
z
" clip-path="url(#p237cee69d1)" style="fill: #808080; fill-opacity: 0.4; stroke: #000000; stroke-linejoin: miter"/>
   </g>
   <g id="patch_27">
    <path d="M 238.657806 389.32 
L 246.178648 389.32 
L 246.178648 389.32 
L 238.657806 389.32 
z
" clip-path="url(#p237cee69d1)" style="fill: #808080; fill-opacity: 0.4; stroke: #000000; stroke-linejoin: miter"/>
   </g>
   <g id="patch_28">
    <path d="M 246.178648 389.32 
L 253.699491 389.32 
L 253.699491 389.32 
L 246.178648 389.32 
z
" clip-path="url(#p237cee69d1)" style="fill: #808080; fill-opacity: 0.4; stroke: #000000; stroke-linejoin: miter"/>
   </g>
   <g id="patch_29">
    <path d="M 253.699491 389.32 
L 261.220333 389.32 
L 261.220333 360.218448 
L 253.699491 360.218448 
z
" clip-path="url(#p237cee69d1)" style="fill: #808080; fill-opacity: 0.4; stroke: #000000; stroke-linejoin: miter"/>
   </g>
   <g id="patch_30">
    <path d="M 181.43417 389.32 
L 190.637432 389.32 
L 190.637432 365.538413 
L 181.43417 365.538413 
z
" clip-path="url(#p237cee69d1)" style="fill: #ffa500; fill-opacity: 0.6; stroke: #000000; stroke-width: 0.752695; stroke-linejoin: miter"/>
   </g>
   <g id="patch_31">
    <path d="M 190.637432 389.32 
L 199.840694 389.32 
L 199.840694 365.538413 
L 190.637432 365.538413 
z
" clip-path="url(#p237cee69d1)" style="fill: #ffa500; fill-opacity: 0.6; stroke: #000000; stroke-width: 0.752695; stroke-linejoin: miter"/>
   </g>
   <g id="patch_32">
    <path d="M 199.840694 389.32 
L 209.043957 389.32 
L 209.043957 365.538413 
L 199.840694 365.538413 
z
" clip-path="url(#p237cee69d1)" style="fill: #ffa500; fill-opacity: 0.6; stroke: #000000; stroke-width: 0.752695; stroke-linejoin: miter"/>
   </g>
   <g id="patch_33">
    <path d="M 209.043957 389.32 
L 218.247219 389.32 
L 218.247219 389.32 
L 209.043957 389.32 
z
" clip-path="url(#p237cee69d1)" style="fill: #ffa500; fill-opacity: 0.6; stroke: #000000; stroke-width: 0.752695; stroke-linejoin: miter"/>
   </g>
   <g id="patch_34">
    <path d="M 218.247219 389.32 
L 227.450482 389.32 
L 227.450482 341.756825 
L 218.247219 341.756825 
z
" clip-path="url(#p237cee69d1)" style="fill: #ffa500; fill-opacity: 0.6; stroke: #000000; stroke-width: 0.752695; stroke-linejoin: miter"/>
   </g>
   <g id="patch_35">
    <path d="M 227.450482 389.32 
L 236.653744 389.32 
L 236.653744 294.193651 
L 227.450482 294.193651 
z
" clip-path="url(#p237cee69d1)" style="fill: #ffa500; fill-opacity: 0.6; stroke: #000000; stroke-width: 0.752695; stroke-linejoin: miter"/>
   </g>
   <g id="patch_36">
    <path d="M 236.653744 389.32 
L 245.857006 389.32 
L 245.857006 341.756825 
L 236.653744 341.756825 
z
" clip-path="url(#p237cee69d1)" style="fill: #ffa500; fill-opacity: 0.6; stroke: #000000; stroke-width: 0.752695; stroke-linejoin: miter"/>
   </g>
   <g id="patch_37">
    <path d="M 245.857006 389.32 
L 255.060269 389.32 
L 255.060269 246.630476 
L 245.857006 246.630476 
z
" clip-path="url(#p237cee69d1)" style="fill: #ffa500; fill-opacity: 0.6; stroke: #000000; stroke-width: 0.752695; stroke-linejoin: miter"/>
   </g>
   <g id="patch_38">
    <path d="M 255.060269 389.32 
L 264.263531 389.32 
L 264.263531 246.630476 
L 255.060269 246.630476 
z
" clip-path="url(#p237cee69d1)" style="fill: #ffa500; fill-opacity: 0.6; stroke: #000000; stroke-width: 0.752695; stroke-linejoin: miter"/>
   </g>
   <g id="patch_39">
    <path d="M 264.263531 389.32 
L 273.466793 389.32 
L 273.466793 151.504127 
L 264.263531 151.504127 
z
" clip-path="url(#p237cee69d1)" style="fill: #ffa500; fill-opacity: 0.6; stroke: #000000; stroke-width: 0.752695; stroke-linejoin: miter"/>
   </g>
   <g id="patch_40">
    <path d="M 273.466793 389.32 
L 282.670056 389.32 
L 282.670056 32.59619 
L 273.466793 32.59619 
z
" clip-path="url(#p237cee69d1)" style="fill: #ffa500; fill-opacity: 0.6; stroke: #000000; stroke-width: 0.752695; stroke-linejoin: miter"/>
   </g>
   <g id="patch_41">
    <path d="M 282.670056 389.32 
L 291.873318 389.32 
L 291.873318 199.067302 
L 282.670056 199.067302 
z
" clip-path="url(#p237cee69d1)" style="fill: #ffa500; fill-opacity: 0.6; stroke: #000000; stroke-width: 0.752695; stroke-linejoin: miter"/>
   </g>
   <g id="patch_42">
    <path d="M 291.873318 389.32 
L 301.076581 389.32 
L 301.076581 222.848889 
L 291.873318 222.848889 
z
" clip-path="url(#p237cee69d1)" style="fill: #ffa500; fill-opacity: 0.6; stroke: #000000; stroke-width: 0.752695; stroke-linejoin: miter"/>
   </g>
   <g id="patch_43">
    <path d="M 301.076581 389.32 
L 310.279843 389.32 
L 310.279843 151.504127 
L 301.076581 151.504127 
z
" clip-path="url(#p237cee69d1)" style="fill: #ffa500; fill-opacity: 0.6; stroke: #000000; stroke-width: 0.752695; stroke-linejoin: miter"/>
   </g>
   <g id="patch_44">
    <path d="M 310.279843 389.32 
L 319.483105 389.32 
L 319.483105 246.630476 
L 310.279843 246.630476 
z
" clip-path="url(#p237cee69d1)" style="fill: #ffa500; fill-opacity: 0.6; stroke: #000000; stroke-width: 0.752695; stroke-linejoin: miter"/>
   </g>
   <g id="patch_45">
    <path d="M 319.483105 389.32 
L 328.686368 389.32 
L 328.686368 317.975238 
L 319.483105 317.975238 
z
" clip-path="url(#p237cee69d1)" style="fill: #ffa500; fill-opacity: 0.6; stroke: #000000; stroke-width: 0.752695; stroke-linejoin: miter"/>
   </g>
   <g id="patch_46">
    <path d="M 328.686368 389.32 
L 337.88963 389.32 
L 337.88963 365.538413 
L 328.686368 365.538413 
z
" clip-path="url(#p237cee69d1)" style="fill: #ffa500; fill-opacity: 0.6; stroke: #000000; stroke-width: 0.752695; stroke-linejoin: miter"/>
   </g>
   <g id="patch_47">
    <path d="M 337.88963 389.32 
L 347.092893 389.32 
L 347.092893 294.193651 
L 337.88963 294.193651 
z
" clip-path="url(#p237cee69d1)" style="fill: #ffa500; fill-opacity: 0.6; stroke: #000000; stroke-width: 0.752695; stroke-linejoin: miter"/>
   </g>
   <g id="patch_48">
    <path d="M 347.092893 389.32 
L 356.296155 389.32 
L 356.296155 365.538413 
L 347.092893 365.538413 
z
" clip-path="url(#p237cee69d1)" style="fill: #ffa500; fill-opacity: 0.6; stroke: #000000; stroke-width: 0.752695; stroke-linejoin: miter"/>
   </g>
   <g id="patch_49">
    <path d="M 356.296155 389.32 
L 365.499417 389.32 
L 365.499417 341.756825 
L 356.296155 341.756825 
z
" clip-path="url(#p237cee69d1)" style="fill: #ffa500; fill-opacity: 0.6; stroke: #000000; stroke-width: 0.752695; stroke-linejoin: miter"/>
   </g>
   <g id="patch_50">
    <path d="M 365.499417 389.32 
L 374.70268 389.32 
L 374.70268 246.630476 
L 365.499417 246.630476 
z
" clip-path="url(#p237cee69d1)" style="fill: #ffa500; fill-opacity: 0.6; stroke: #000000; stroke-width: 0.752695; stroke-linejoin: miter"/>
   </g>
   <g id="patch_51">
    <path d="M 374.70268 389.32 
L 383.905942 389.32 
L 383.905942 365.538413 
L 374.70268 365.538413 
z
" clip-path="url(#p237cee69d1)" style="fill: #ffa500; fill-opacity: 0.6; stroke: #000000; stroke-width: 0.752695; stroke-linejoin: miter"/>
   </g>
   <g id="patch_52">
    <path d="M 383.905942 389.32 
L 393.109205 389.32 
L 393.109205 341.756825 
L 383.905942 341.756825 
z
" clip-path="url(#p237cee69d1)" style="fill: #ffa500; fill-opacity: 0.6; stroke: #000000; stroke-width: 0.752695; stroke-linejoin: miter"/>
   </g>
   <g id="patch_53">
    <path d="M 393.109205 389.32 
L 402.312467 389.32 
L 402.312467 389.32 
L 393.109205 389.32 
z
" clip-path="url(#p237cee69d1)" style="fill: #ffa500; fill-opacity: 0.6; stroke: #000000; stroke-width: 0.752695; stroke-linejoin: miter"/>
   </g>
   <g id="patch_54">
    <path d="M 402.312467 389.32 
L 411.515729 389.32 
L 411.515729 365.538413 
L 402.312467 365.538413 
z
" clip-path="url(#p237cee69d1)" style="fill: #ffa500; fill-opacity: 0.6; stroke: #000000; stroke-width: 0.752695; stroke-linejoin: miter"/>
   </g>
   <g id="patch_55">
    <path d="M 155.580004 389.32 
L 165.180492 389.32 
L 165.180492 298.129557 
L 155.580004 298.129557 
z
" clip-path="url(#p237cee69d1)" style="fill: #0000ff; fill-opacity: 0.6; stroke: #000000; stroke-width: 0.785182; stroke-linejoin: miter"/>
   </g>
   <g id="patch_56">
    <path d="M 165.180492 389.32 
L 174.78098 389.32 
L 174.78098 389.32 
L 165.180492 389.32 
z
" clip-path="url(#p237cee69d1)" style="fill: #0000ff; fill-opacity: 0.6; stroke: #000000; stroke-width: 0.785182; stroke-linejoin: miter"/>
   </g>
   <g id="patch_57">
    <path d="M 174.78098 389.32 
L 184.381468 389.32 
L 184.381468 366.522389 
L 174.78098 366.522389 
z
" clip-path="url(#p237cee69d1)" style="fill: #0000ff; fill-opacity: 0.6; stroke: #000000; stroke-width: 0.785182; stroke-linejoin: miter"/>
   </g>
   <g id="patch_58">
    <path d="M 184.381468 389.32 
L 193.981956 389.32 
L 193.981956 366.522389 
L 184.381468 366.522389 
z
" clip-path="url(#p237cee69d1)" style="fill: #0000ff; fill-opacity: 0.6; stroke: #000000; stroke-width: 0.785182; stroke-linejoin: miter"/>
   </g>
   <g id="patch_59">
    <path d="M 193.981956 389.32 
L 203.582443 389.32 
L 203.582443 389.32 
L 193.981956 389.32 
z
" clip-path="url(#p237cee69d1)" style="fill: #0000ff; fill-opacity: 0.6; stroke: #000000; stroke-width: 0.785182; stroke-linejoin: miter"/>
   </g>
   <g id="patch_60">
    <path d="M 203.582443 389.32 
L 213.182931 389.32 
L 213.182931 366.522389 
L 203.582443 366.522389 
z
" clip-path="url(#p237cee69d1)" style="fill: #0000ff; fill-opacity: 0.6; stroke: #000000; stroke-width: 0.785182; stroke-linejoin: miter"/>
   </g>
   <g id="patch_61">
    <path d="M 213.182931 389.32 
L 222.783419 389.32 
L 222.783419 320.927167 
L 213.182931 320.927167 
z
" clip-path="url(#p237cee69d1)" style="fill: #0000ff; fill-opacity: 0.6; stroke: #000000; stroke-width: 0.785182; stroke-linejoin: miter"/>
   </g>
   <g id="patch_62">
    <path d="M 222.783419 389.32 
L 232.383907 389.32 
L 232.383907 343.724778 
L 222.783419 343.724778 
z
" clip-path="url(#p237cee69d1)" style="fill: #0000ff; fill-opacity: 0.6; stroke: #000000; stroke-width: 0.785182; stroke-linejoin: miter"/>
   </g>
   <g id="patch_63">
    <path d="M 232.383907 389.32 
L 241.984395 389.32 
L 241.984395 275.331946 
L 232.383907 275.331946 
z
" clip-path="url(#p237cee69d1)" style="fill: #0000ff; fill-opacity: 0.6; stroke: #000000; stroke-width: 0.785182; stroke-linejoin: miter"/>
   </g>
   <g id="patch_64">
    <path d="M 241.984395 389.32 
L 251.584883 389.32 
L 251.584883 275.331946 
L 241.984395 275.331946 
z
" clip-path="url(#p237cee69d1)" style="fill: #0000ff; fill-opacity: 0.6; stroke: #000000; stroke-width: 0.785182; stroke-linejoin: miter"/>
   </g>
   <g id="patch_65">
    <path d="M 251.584883 389.32 
L 261.185371 389.32 
L 261.185371 252.534335 
L 251.584883 252.534335 
z
" clip-path="url(#p237cee69d1)" style="fill: #0000ff; fill-opacity: 0.6; stroke: #000000; stroke-width: 0.785182; stroke-linejoin: miter"/>
   </g>
   <g id="patch_66">
    <path d="M 261.185371 389.32 
L 270.785859 389.32 
L 270.785859 138.546281 
L 261.185371 138.546281 
z
" clip-path="url(#p237cee69d1)" style="fill: #0000ff; fill-opacity: 0.6; stroke: #000000; stroke-width: 0.785182; stroke-linejoin: miter"/>
   </g>
   <g id="patch_67">
    <path d="M 270.785859 389.32 
L 280.386347 389.32 
L 280.386347 275.331946 
L 270.785859 275.331946 
z
" clip-path="url(#p237cee69d1)" style="fill: #0000ff; fill-opacity: 0.6; stroke: #000000; stroke-width: 0.785182; stroke-linejoin: miter"/>
   </g>
   <g id="patch_68">
    <path d="M 280.386347 389.32 
L 289.986835 389.32 
L 289.986835 47.355837 
L 280.386347 47.355837 
z
" clip-path="url(#p237cee69d1)" style="fill: #0000ff; fill-opacity: 0.6; stroke: #000000; stroke-width: 0.785182; stroke-linejoin: miter"/>
   </g>
   <g id="patch_69">
    <path d="M 289.986835 389.32 
L 299.587323 389.32 
L 299.587323 184.141502 
L 289.986835 184.141502 
z
" clip-path="url(#p237cee69d1)" style="fill: #0000ff; fill-opacity: 0.6; stroke: #000000; stroke-width: 0.785182; stroke-linejoin: miter"/>
   </g>
   <g id="patch_70">
    <path d="M 299.587323 389.32 
L 309.187811 389.32 
L 309.187811 206.939113 
L 299.587323 206.939113 
z
" clip-path="url(#p237cee69d1)" style="fill: #0000ff; fill-opacity: 0.6; stroke: #000000; stroke-width: 0.785182; stroke-linejoin: miter"/>
   </g>
   <g id="patch_71">
    <path d="M 309.187811 389.32 
L 318.788299 389.32 
L 318.788299 320.927167 
L 309.187811 320.927167 
z
" clip-path="url(#p237cee69d1)" style="fill: #0000ff; fill-opacity: 0.6; stroke: #000000; stroke-width: 0.785182; stroke-linejoin: miter"/>
   </g>
   <g id="patch_72">
    <path d="M 318.788299 389.32 
L 328.388787 389.32 
L 328.388787 298.129557 
L 318.788299 298.129557 
z
" clip-path="url(#p237cee69d1)" style="fill: #0000ff; fill-opacity: 0.6; stroke: #000000; stroke-width: 0.785182; stroke-linejoin: miter"/>
   </g>
   <g id="patch_73">
    <path d="M 328.388787 389.32 
L 337.989275 389.32 
L 337.989275 343.724778 
L 328.388787 343.724778 
z
" clip-path="url(#p237cee69d1)" style="fill: #0000ff; fill-opacity: 0.6; stroke: #000000; stroke-width: 0.785182; stroke-linejoin: miter"/>
   </g>
   <g id="patch_74">
    <path d="M 337.989275 389.32 
L 347.589763 389.32 
L 347.589763 343.724778 
L 337.989275 343.724778 
z
" clip-path="url(#p237cee69d1)" style="fill: #0000ff; fill-opacity: 0.6; stroke: #000000; stroke-width: 0.785182; stroke-linejoin: miter"/>
   </g>
   <g id="patch_75">
    <path d="M 347.589763 389.32 
L 357.190251 389.32 
L 357.190251 320.927167 
L 347.589763 320.927167 
z
" clip-path="url(#p237cee69d1)" style="fill: #0000ff; fill-opacity: 0.6; stroke: #000000; stroke-width: 0.785182; stroke-linejoin: miter"/>
   </g>
   <g id="patch_76">
    <path d="M 357.190251 389.32 
L 366.790739 389.32 
L 366.790739 229.736724 
L 357.190251 229.736724 
z
" clip-path="url(#p237cee69d1)" style="fill: #0000ff; fill-opacity: 0.6; stroke: #000000; stroke-width: 0.785182; stroke-linejoin: miter"/>
   </g>
   <g id="patch_77">
    <path d="M 366.790739 389.32 
L 376.391227 389.32 
L 376.391227 366.522389 
L 366.790739 366.522389 
z
" clip-path="url(#p237cee69d1)" style="fill: #0000ff; fill-opacity: 0.6; stroke: #000000; stroke-width: 0.785182; stroke-linejoin: miter"/>
   </g>
   <g id="patch_78">
    <path d="M 376.391227 389.32 
L 385.991714 389.32 
L 385.991714 366.522389 
L 376.391227 366.522389 
z
" clip-path="url(#p237cee69d1)" style="fill: #0000ff; fill-opacity: 0.6; stroke: #000000; stroke-width: 0.785182; stroke-linejoin: miter"/>
   </g>
   <g id="patch_79">
    <path d="M 385.991714 389.32 
L 395.592202 389.32 
L 395.592202 366.522389 
L 385.991714 366.522389 
z
" clip-path="url(#p237cee69d1)" style="fill: #0000ff; fill-opacity: 0.6; stroke: #000000; stroke-width: 0.785182; stroke-linejoin: miter"/>
   </g>
   <g id="matplotlib.axis_1">
    <g id="xtick_1">
     <g id="line2d_1">
      <defs>
       <path id="m707f4daafe" d="M 0 0 
L 0 3.5 
" style="stroke: #000000; stroke-width: 0.8"/>
      </defs>
      <g>
       <use xlink:href="#m707f4daafe" x="93.561687" y="389.32" style="stroke: #000000; stroke-width: 0.8"/>
      </g>
     </g>
     <g id="text_1">
      <!-- −2 -->
      <g transform="translate(86.190593 403.918437) scale(0.1 -0.1)">
       <defs>
        <path id="DejaVuSans-2212" d="M 678 2272 
L 4684 2272 
L 4684 1741 
L 678 1741 
L 678 2272 
z
" transform="scale(0.015625)"/>
        <path id="DejaVuSans-32" d="M 1228 531 
L 3431 531 
L 3431 0 
L 469 0 
L 469 531 
Q 828 903 1448 1529 
Q 2069 2156 2228 2338 
Q 2531 2678 2651 2914 
Q 2772 3150 2772 3378 
Q 2772 3750 2511 3984 
Q 2250 4219 1831 4219 
Q 1534 4219 1204 4116 
Q 875 4013 500 3803 
L 500 4441 
Q 881 4594 1212 4672 
Q 1544 4750 1819 4750 
Q 2544 4750 2975 4387 
Q 3406 4025 3406 3419 
Q 3406 3131 3298 2873 
Q 3191 2616 2906 2266 
Q 2828 2175 2409 1742 
Q 1991 1309 1228 531 
z
" transform="scale(0.015625)"/>
       </defs>
       <use xlink:href="#DejaVuSans-2212"/>
       <use xlink:href="#DejaVuSans-32" x="83.789062"/>
      </g>
     </g>
    </g>
    <g id="xtick_2">
     <g id="line2d_2">
      <g>
       <use xlink:href="#m707f4daafe" x="143.141603" y="389.32" style="stroke: #000000; stroke-width: 0.8"/>
      </g>
     </g>
     <g id="text_2">
      <!-- 0 -->
      <g transform="translate(139.960353 403.918437) scale(0.1 -0.1)">
       <defs>
        <path id="DejaVuSans-30" d="M 2034 4250 
Q 1547 4250 1301 3770 
Q 1056 3291 1056 2328 
Q 1056 1369 1301 889 
Q 1547 409 2034 409 
Q 2525 409 2770 889 
Q 3016 1369 3016 2328 
Q 3016 3291 2770 3770 
Q 2525 4250 2034 4250 
z
M 2034 4750 
Q 2819 4750 3233 4129 
Q 3647 3509 3647 2328 
Q 3647 1150 3233 529 
Q 2819 -91 2034 -91 
Q 1250 -91 836 529 
Q 422 1150 422 2328 
Q 422 3509 836 4129 
Q 1250 4750 2034 4750 
z
" transform="scale(0.015625)"/>
       </defs>
       <use xlink:href="#DejaVuSans-30"/>
      </g>
     </g>
    </g>
    <g id="xtick_3">
     <g id="line2d_3">
      <g>
       <use xlink:href="#m707f4daafe" x="192.721518" y="389.32" style="stroke: #000000; stroke-width: 0.8"/>
      </g>
     </g>
     <g id="text_3">
      <!-- 2 -->
      <g transform="translate(189.540268 403.918437) scale(0.1 -0.1)">
       <use xlink:href="#DejaVuSans-32"/>
      </g>
     </g>
    </g>
    <g id="xtick_4">
     <g id="line2d_4">
      <g>
       <use xlink:href="#m707f4daafe" x="242.301434" y="389.32" style="stroke: #000000; stroke-width: 0.8"/>
      </g>
     </g>
     <g id="text_4">
      <!-- 4 -->
      <g transform="translate(239.120184 403.918437) scale(0.1 -0.1)">
       <defs>
        <path id="DejaVuSans-34" d="M 2419 4116 
L 825 1625 
L 2419 1625 
L 2419 4116 
z
M 2253 4666 
L 3047 4666 
L 3047 1625 
L 3713 1625 
L 3713 1100 
L 3047 1100 
L 3047 0 
L 2419 0 
L 2419 1100 
L 313 1100 
L 313 1709 
L 2253 4666 
z
" transform="scale(0.015625)"/>
       </defs>
       <use xlink:href="#DejaVuSans-34"/>
      </g>
     </g>
    </g>
    <g id="xtick_5">
     <g id="line2d_5">
      <g>
       <use xlink:href="#m707f4daafe" x="291.88135" y="389.32" style="stroke: #000000; stroke-width: 0.8"/>
      </g>
     </g>
     <g id="text_5">
      <!-- 6 -->
      <g transform="translate(288.7001 403.918437) scale(0.1 -0.1)">
       <defs>
        <path id="DejaVuSans-36" d="M 2113 2584 
Q 1688 2584 1439 2293 
Q 1191 2003 1191 1497 
Q 1191 994 1439 701 
Q 1688 409 2113 409 
Q 2538 409 2786 701 
Q 3034 994 3034 1497 
Q 3034 2003 2786 2293 
Q 2538 2584 2113 2584 
z
M 3366 4563 
L 3366 3988 
Q 3128 4100 2886 4159 
Q 2644 4219 2406 4219 
Q 1781 4219 1451 3797 
Q 1122 3375 1075 2522 
Q 1259 2794 1537 2939 
Q 1816 3084 2150 3084 
Q 2853 3084 3261 2657 
Q 3669 2231 3669 1497 
Q 3669 778 3244 343 
Q 2819 -91 2113 -91 
Q 1303 -91 875 529 
Q 447 1150 447 2328 
Q 447 3434 972 4092 
Q 1497 4750 2381 4750 
Q 2619 4750 2861 4703 
Q 3103 4656 3366 4563 
z
" transform="scale(0.015625)"/>
       </defs>
       <use xlink:href="#DejaVuSans-36"/>
      </g>
     </g>
    </g>
    <g id="xtick_6">
     <g id="line2d_6">
      <g>
       <use xlink:href="#m707f4daafe" x="341.461265" y="389.32" style="stroke: #000000; stroke-width: 0.8"/>
      </g>
     </g>
     <g id="text_6">
      <!-- 8 -->
      <g transform="translate(338.280015 403.918437) scale(0.1 -0.1)">
       <defs>
        <path id="DejaVuSans-38" d="M 2034 2216 
Q 1584 2216 1326 1975 
Q 1069 1734 1069 1313 
Q 1069 891 1326 650 
Q 1584 409 2034 409 
Q 2484 409 2743 651 
Q 3003 894 3003 1313 
Q 3003 1734 2745 1975 
Q 2488 2216 2034 2216 
z
M 1403 2484 
Q 997 2584 770 2862 
Q 544 3141 544 3541 
Q 544 4100 942 4425 
Q 1341 4750 2034 4750 
Q 2731 4750 3128 4425 
Q 3525 4100 3525 3541 
Q 3525 3141 3298 2862 
Q 3072 2584 2669 2484 
Q 3125 2378 3379 2068 
Q 3634 1759 3634 1313 
Q 3634 634 3220 271 
Q 2806 -91 2034 -91 
Q 1263 -91 848 271 
Q 434 634 434 1313 
Q 434 1759 690 2068 
Q 947 2378 1403 2484 
z
M 1172 3481 
Q 1172 3119 1398 2916 
Q 1625 2713 2034 2713 
Q 2441 2713 2670 2916 
Q 2900 3119 2900 3481 
Q 2900 3844 2670 4047 
Q 2441 4250 2034 4250 
Q 1625 4250 1398 4047 
Q 1172 3844 1172 3481 
z
" transform="scale(0.015625)"/>
       </defs>
       <use xlink:href="#DejaVuSans-38"/>
      </g>
     </g>
    </g>
    <g id="xtick_7">
     <g id="line2d_7">
      <g>
       <use xlink:href="#m707f4daafe" x="391.041181" y="389.32" style="stroke: #000000; stroke-width: 0.8"/>
      </g>
     </g>
     <g id="text_7">
      <!-- 10 -->
      <g transform="translate(384.678681 403.918437) scale(0.1 -0.1)">
       <defs>
        <path id="DejaVuSans-31" d="M 794 531 
L 1825 531 
L 1825 4091 
L 703 3866 
L 703 4441 
L 1819 4666 
L 2450 4666 
L 2450 531 
L 3481 531 
L 3481 0 
L 794 0 
L 794 531 
z
" transform="scale(0.015625)"/>
       </defs>
       <use xlink:href="#DejaVuSans-31"/>
       <use xlink:href="#DejaVuSans-30" x="63.623047"/>
      </g>
     </g>
    </g>
    <g id="text_8">
     <!-- Predicted Fluorescence -->
     <g transform="translate(172.76125 419.11625) scale(0.12 -0.12)">
      <defs>
       <path id="DejaVuSans-50" d="M 1259 4147 
L 1259 2394 
L 2053 2394 
Q 2494 2394 2734 2622 
Q 2975 2850 2975 3272 
Q 2975 3691 2734 3919 
Q 2494 4147 2053 4147 
L 1259 4147 
z
M 628 4666 
L 2053 4666 
Q 2838 4666 3239 4311 
Q 3641 3956 3641 3272 
Q 3641 2581 3239 2228 
Q 2838 1875 2053 1875 
L 1259 1875 
L 1259 0 
L 628 0 
L 628 4666 
z
" transform="scale(0.015625)"/>
       <path id="DejaVuSans-72" d="M 2631 2963 
Q 2534 3019 2420 3045 
Q 2306 3072 2169 3072 
Q 1681 3072 1420 2755 
Q 1159 2438 1159 1844 
L 1159 0 
L 581 0 
L 581 3500 
L 1159 3500 
L 1159 2956 
Q 1341 3275 1631 3429 
Q 1922 3584 2338 3584 
Q 2397 3584 2469 3576 
Q 2541 3569 2628 3553 
L 2631 2963 
z
" transform="scale(0.015625)"/>
       <path id="DejaVuSans-65" d="M 3597 1894 
L 3597 1613 
L 953 1613 
Q 991 1019 1311 708 
Q 1631 397 2203 397 
Q 2534 397 2845 478 
Q 3156 559 3463 722 
L 3463 178 
Q 3153 47 2828 -22 
Q 2503 -91 2169 -91 
Q 1331 -91 842 396 
Q 353 884 353 1716 
Q 353 2575 817 3079 
Q 1281 3584 2069 3584 
Q 2775 3584 3186 3129 
Q 3597 2675 3597 1894 
z
M 3022 2063 
Q 3016 2534 2758 2815 
Q 2500 3097 2075 3097 
Q 1594 3097 1305 2825 
Q 1016 2553 972 2059 
L 3022 2063 
z
" transform="scale(0.015625)"/>
       <path id="DejaVuSans-64" d="M 2906 2969 
L 2906 4863 
L 3481 4863 
L 3481 0 
L 2906 0 
L 2906 525 
Q 2725 213 2448 61 
Q 2172 -91 1784 -91 
Q 1150 -91 751 415 
Q 353 922 353 1747 
Q 353 2572 751 3078 
Q 1150 3584 1784 3584 
Q 2172 3584 2448 3432 
Q 2725 3281 2906 2969 
z
M 947 1747 
Q 947 1113 1208 752 
Q 1469 391 1925 391 
Q 2381 391 2643 752 
Q 2906 1113 2906 1747 
Q 2906 2381 2643 2742 
Q 2381 3103 1925 3103 
Q 1469 3103 1208 2742 
Q 947 2381 947 1747 
z
" transform="scale(0.015625)"/>
       <path id="DejaVuSans-69" d="M 603 3500 
L 1178 3500 
L 1178 0 
L 603 0 
L 603 3500 
z
M 603 4863 
L 1178 4863 
L 1178 4134 
L 603 4134 
L 603 4863 
z
" transform="scale(0.015625)"/>
       <path id="DejaVuSans-63" d="M 3122 3366 
L 3122 2828 
Q 2878 2963 2633 3030 
Q 2388 3097 2138 3097 
Q 1578 3097 1268 2742 
Q 959 2388 959 1747 
Q 959 1106 1268 751 
Q 1578 397 2138 397 
Q 2388 397 2633 464 
Q 2878 531 3122 666 
L 3122 134 
Q 2881 22 2623 -34 
Q 2366 -91 2075 -91 
Q 1284 -91 818 406 
Q 353 903 353 1747 
Q 353 2603 823 3093 
Q 1294 3584 2113 3584 
Q 2378 3584 2631 3529 
Q 2884 3475 3122 3366 
z
" transform="scale(0.015625)"/>
       <path id="DejaVuSans-74" d="M 1172 4494 
L 1172 3500 
L 2356 3500 
L 2356 3053 
L 1172 3053 
L 1172 1153 
Q 1172 725 1289 603 
Q 1406 481 1766 481 
L 2356 481 
L 2356 0 
L 1766 0 
Q 1100 0 847 248 
Q 594 497 594 1153 
L 594 3053 
L 172 3053 
L 172 3500 
L 594 3500 
L 594 4494 
L 1172 4494 
z
" transform="scale(0.015625)"/>
       <path id="DejaVuSans-20" transform="scale(0.015625)"/>
       <path id="DejaVuSans-46" d="M 628 4666 
L 3309 4666 
L 3309 4134 
L 1259 4134 
L 1259 2759 
L 3109 2759 
L 3109 2228 
L 1259 2228 
L 1259 0 
L 628 0 
L 628 4666 
z
" transform="scale(0.015625)"/>
       <path id="DejaVuSans-6c" d="M 603 4863 
L 1178 4863 
L 1178 0 
L 603 0 
L 603 4863 
z
" transform="scale(0.015625)"/>
       <path id="DejaVuSans-75" d="M 544 1381 
L 544 3500 
L 1119 3500 
L 1119 1403 
Q 1119 906 1312 657 
Q 1506 409 1894 409 
Q 2359 409 2629 706 
Q 2900 1003 2900 1516 
L 2900 3500 
L 3475 3500 
L 3475 0 
L 2900 0 
L 2900 538 
Q 2691 219 2414 64 
Q 2138 -91 1772 -91 
Q 1169 -91 856 284 
Q 544 659 544 1381 
z
M 1991 3584 
L 1991 3584 
z
" transform="scale(0.015625)"/>
       <path id="DejaVuSans-6f" d="M 1959 3097 
Q 1497 3097 1228 2736 
Q 959 2375 959 1747 
Q 959 1119 1226 758 
Q 1494 397 1959 397 
Q 2419 397 2687 759 
Q 2956 1122 2956 1747 
Q 2956 2369 2687 2733 
Q 2419 3097 1959 3097 
z
M 1959 3584 
Q 2709 3584 3137 3096 
Q 3566 2609 3566 1747 
Q 3566 888 3137 398 
Q 2709 -91 1959 -91 
Q 1206 -91 779 398 
Q 353 888 353 1747 
Q 353 2609 779 3096 
Q 1206 3584 1959 3584 
z
" transform="scale(0.015625)"/>
       <path id="DejaVuSans-73" d="M 2834 3397 
L 2834 2853 
Q 2591 2978 2328 3040 
Q 2066 3103 1784 3103 
Q 1356 3103 1142 2972 
Q 928 2841 928 2578 
Q 928 2378 1081 2264 
Q 1234 2150 1697 2047 
L 1894 2003 
Q 2506 1872 2764 1633 
Q 3022 1394 3022 966 
Q 3022 478 2636 193 
Q 2250 -91 1575 -91 
Q 1294 -91 989 -36 
Q 684 19 347 128 
L 347 722 
Q 666 556 975 473 
Q 1284 391 1588 391 
Q 1994 391 2212 530 
Q 2431 669 2431 922 
Q 2431 1156 2273 1281 
Q 2116 1406 1581 1522 
L 1381 1569 
Q 847 1681 609 1914 
Q 372 2147 372 2553 
Q 372 3047 722 3315 
Q 1072 3584 1716 3584 
Q 2034 3584 2315 3537 
Q 2597 3491 2834 3397 
z
" transform="scale(0.015625)"/>
       <path id="DejaVuSans-6e" d="M 3513 2113 
L 3513 0 
L 2938 0 
L 2938 2094 
Q 2938 2591 2744 2837 
Q 2550 3084 2163 3084 
Q 1697 3084 1428 2787 
Q 1159 2491 1159 1978 
L 1159 0 
L 581 0 
L 581 3500 
L 1159 3500 
L 1159 2956 
Q 1366 3272 1645 3428 
Q 1925 3584 2291 3584 
Q 2894 3584 3203 3211 
Q 3513 2838 3513 2113 
z
" transform="scale(0.015625)"/>
      </defs>
      <use xlink:href="#DejaVuSans-50"/>
      <use xlink:href="#DejaVuSans-72" x="58.552734"/>
      <use xlink:href="#DejaVuSans-65" x="97.416016"/>
      <use xlink:href="#DejaVuSans-64" x="158.939453"/>
      <use xlink:href="#DejaVuSans-69" x="222.416016"/>
      <use xlink:href="#DejaVuSans-63" x="250.199219"/>
      <use xlink:href="#DejaVuSans-74" x="305.179688"/>
      <use xlink:href="#DejaVuSans-65" x="344.388672"/>
      <use xlink:href="#DejaVuSans-64" x="405.912109"/>
      <use xlink:href="#DejaVuSans-20" x="469.388672"/>
      <use xlink:href="#DejaVuSans-46" x="501.175781"/>
      <use xlink:href="#DejaVuSans-6c" x="558.695312"/>
      <use xlink:href="#DejaVuSans-75" x="586.478516"/>
      <use xlink:href="#DejaVuSans-6f" x="649.857422"/>
      <use xlink:href="#DejaVuSans-72" x="711.039062"/>
      <use xlink:href="#DejaVuSans-65" x="749.902344"/>
      <use xlink:href="#DejaVuSans-73" x="811.425781"/>
      <use xlink:href="#DejaVuSans-63" x="863.525391"/>
      <use xlink:href="#DejaVuSans-65" x="918.505859"/>
      <use xlink:href="#DejaVuSans-6e" x="980.029297"/>
      <use xlink:href="#DejaVuSans-63" x="1043.408203"/>
      <use xlink:href="#DejaVuSans-65" x="1098.388672"/>
     </g>
    </g>
   </g>
   <g id="matplotlib.axis_2">
    <g id="ytick_1">
     <g id="line2d_8">
      <defs>
       <path id="m2f1c244b9c" d="M 0 0 
L -3.5 0 
" style="stroke: #000000; stroke-width: 0.8"/>
      </defs>
      <g>
       <use xlink:href="#m2f1c244b9c" x="54.92" y="389.32" style="stroke: #000000; stroke-width: 0.8"/>
      </g>
     </g>
     <g id="text_9">
      <!-- 0.00 -->
      <g transform="translate(25.654375 393.119219) scale(0.1 -0.1)">
       <defs>
        <path id="DejaVuSans-2e" d="M 684 794 
L 1344 794 
L 1344 0 
L 684 0 
L 684 794 
z
" transform="scale(0.015625)"/>
       </defs>
       <use xlink:href="#DejaVuSans-30"/>
       <use xlink:href="#DejaVuSans-2e" x="63.623047"/>
       <use xlink:href="#DejaVuSans-30" x="95.410156"/>
       <use xlink:href="#DejaVuSans-30" x="159.033203"/>
      </g>
     </g>
    </g>
    <g id="ytick_2">
     <g id="line2d_9">
      <g>
       <use xlink:href="#m2f1c244b9c" x="54.92" y="345.175474" style="stroke: #000000; stroke-width: 0.8"/>
      </g>
     </g>
     <g id="text_10">
      <!-- 0.05 -->
      <g transform="translate(25.654375 348.974693) scale(0.1 -0.1)">
       <defs>
        <path id="DejaVuSans-35" d="M 691 4666 
L 3169 4666 
L 3169 4134 
L 1269 4134 
L 1269 2991 
Q 1406 3038 1543 3061 
Q 1681 3084 1819 3084 
Q 2600 3084 3056 2656 
Q 3513 2228 3513 1497 
Q 3513 744 3044 326 
Q 2575 -91 1722 -91 
Q 1428 -91 1123 -41 
Q 819 9 494 109 
L 494 744 
Q 775 591 1075 516 
Q 1375 441 1709 441 
Q 2250 441 2565 725 
Q 2881 1009 2881 1497 
Q 2881 1984 2565 2268 
Q 2250 2553 1709 2553 
Q 1456 2553 1204 2497 
Q 953 2441 691 2322 
L 691 4666 
z
" transform="scale(0.015625)"/>
       </defs>
       <use xlink:href="#DejaVuSans-30"/>
       <use xlink:href="#DejaVuSans-2e" x="63.623047"/>
       <use xlink:href="#DejaVuSans-30" x="95.410156"/>
       <use xlink:href="#DejaVuSans-35" x="159.033203"/>
      </g>
     </g>
    </g>
    <g id="ytick_3">
     <g id="line2d_10">
      <g>
       <use xlink:href="#m2f1c244b9c" x="54.92" y="301.030948" style="stroke: #000000; stroke-width: 0.8"/>
      </g>
     </g>
     <g id="text_11">
      <!-- 0.10 -->
      <g transform="translate(25.654375 304.830167) scale(0.1 -0.1)">
       <use xlink:href="#DejaVuSans-30"/>
       <use xlink:href="#DejaVuSans-2e" x="63.623047"/>
       <use xlink:href="#DejaVuSans-31" x="95.410156"/>
       <use xlink:href="#DejaVuSans-30" x="159.033203"/>
      </g>
     </g>
    </g>
    <g id="ytick_4">
     <g id="line2d_11">
      <g>
       <use xlink:href="#m2f1c244b9c" x="54.92" y="256.886422" style="stroke: #000000; stroke-width: 0.8"/>
      </g>
     </g>
     <g id="text_12">
      <!-- 0.15 -->
      <g transform="translate(25.654375 260.685641) scale(0.1 -0.1)">
       <use xlink:href="#DejaVuSans-30"/>
       <use xlink:href="#DejaVuSans-2e" x="63.623047"/>
       <use xlink:href="#DejaVuSans-31" x="95.410156"/>
       <use xlink:href="#DejaVuSans-35" x="159.033203"/>
      </g>
     </g>
    </g>
    <g id="ytick_5">
     <g id="line2d_12">
      <g>
       <use xlink:href="#m2f1c244b9c" x="54.92" y="212.741896" style="stroke: #000000; stroke-width: 0.8"/>
      </g>
     </g>
     <g id="text_13">
      <!-- 0.20 -->
      <g transform="translate(25.654375 216.541114) scale(0.1 -0.1)">
       <use xlink:href="#DejaVuSans-30"/>
       <use xlink:href="#DejaVuSans-2e" x="63.623047"/>
       <use xlink:href="#DejaVuSans-32" x="95.410156"/>
       <use xlink:href="#DejaVuSans-30" x="159.033203"/>
      </g>
     </g>
    </g>
    <g id="ytick_6">
     <g id="line2d_13">
      <g>
       <use xlink:href="#m2f1c244b9c" x="54.92" y="168.59737" style="stroke: #000000; stroke-width: 0.8"/>
      </g>
     </g>
     <g id="text_14">
      <!-- 0.25 -->
      <g transform="translate(25.654375 172.396588) scale(0.1 -0.1)">
       <use xlink:href="#DejaVuSans-30"/>
       <use xlink:href="#DejaVuSans-2e" x="63.623047"/>
       <use xlink:href="#DejaVuSans-32" x="95.410156"/>
       <use xlink:href="#DejaVuSans-35" x="159.033203"/>
      </g>
     </g>
    </g>
    <g id="ytick_7">
     <g id="line2d_14">
      <g>
       <use xlink:href="#m2f1c244b9c" x="54.92" y="124.452844" style="stroke: #000000; stroke-width: 0.8"/>
      </g>
     </g>
     <g id="text_15">
      <!-- 0.30 -->
      <g transform="translate(25.654375 128.252062) scale(0.1 -0.1)">
       <defs>
        <path id="DejaVuSans-33" d="M 2597 2516 
Q 3050 2419 3304 2112 
Q 3559 1806 3559 1356 
Q 3559 666 3084 287 
Q 2609 -91 1734 -91 
Q 1441 -91 1130 -33 
Q 819 25 488 141 
L 488 750 
Q 750 597 1062 519 
Q 1375 441 1716 441 
Q 2309 441 2620 675 
Q 2931 909 2931 1356 
Q 2931 1769 2642 2001 
Q 2353 2234 1838 2234 
L 1294 2234 
L 1294 2753 
L 1863 2753 
Q 2328 2753 2575 2939 
Q 2822 3125 2822 3475 
Q 2822 3834 2567 4026 
Q 2313 4219 1838 4219 
Q 1578 4219 1281 4162 
Q 984 4106 628 3988 
L 628 4550 
Q 988 4650 1302 4700 
Q 1616 4750 1894 4750 
Q 2613 4750 3031 4423 
Q 3450 4097 3450 3541 
Q 3450 3153 3228 2886 
Q 3006 2619 2597 2516 
z
" transform="scale(0.015625)"/>
       </defs>
       <use xlink:href="#DejaVuSans-30"/>
       <use xlink:href="#DejaVuSans-2e" x="63.623047"/>
       <use xlink:href="#DejaVuSans-33" x="95.410156"/>
       <use xlink:href="#DejaVuSans-30" x="159.033203"/>
      </g>
     </g>
    </g>
    <g id="ytick_8">
     <g id="line2d_15">
      <g>
       <use xlink:href="#m2f1c244b9c" x="54.92" y="80.308318" style="stroke: #000000; stroke-width: 0.8"/>
      </g>
     </g>
     <g id="text_16">
      <!-- 0.35 -->
      <g transform="translate(25.654375 84.107536) scale(0.1 -0.1)">
       <use xlink:href="#DejaVuSans-30"/>
       <use xlink:href="#DejaVuSans-2e" x="63.623047"/>
       <use xlink:href="#DejaVuSans-33" x="95.410156"/>
       <use xlink:href="#DejaVuSans-35" x="159.033203"/>
      </g>
     </g>
    </g>
    <g id="ytick_9">
     <g id="line2d_16">
      <g>
       <use xlink:href="#m2f1c244b9c" x="54.92" y="36.163791" style="stroke: #000000; stroke-width: 0.8"/>
      </g>
     </g>
     <g id="text_17">
      <!-- 0.40 -->
      <g transform="translate(25.654375 39.96301) scale(0.1 -0.1)">
       <use xlink:href="#DejaVuSans-30"/>
       <use xlink:href="#DejaVuSans-2e" x="63.623047"/>
       <use xlink:href="#DejaVuSans-34" x="95.410156"/>
       <use xlink:href="#DejaVuSans-30" x="159.033203"/>
      </g>
     </g>
    </g>
    <g id="text_18">
     <!-- Probability Density -->
     <g transform="translate(19.15875 258.471875) rotate(-90) scale(0.12 -0.12)">
      <defs>
       <path id="DejaVuSans-62" d="M 3116 1747 
Q 3116 2381 2855 2742 
Q 2594 3103 2138 3103 
Q 1681 3103 1420 2742 
Q 1159 2381 1159 1747 
Q 1159 1113 1420 752 
Q 1681 391 2138 391 
Q 2594 391 2855 752 
Q 3116 1113 3116 1747 
z
M 1159 2969 
Q 1341 3281 1617 3432 
Q 1894 3584 2278 3584 
Q 2916 3584 3314 3078 
Q 3713 2572 3713 1747 
Q 3713 922 3314 415 
Q 2916 -91 2278 -91 
Q 1894 -91 1617 61 
Q 1341 213 1159 525 
L 1159 0 
L 581 0 
L 581 4863 
L 1159 4863 
L 1159 2969 
z
" transform="scale(0.015625)"/>
       <path id="DejaVuSans-61" d="M 2194 1759 
Q 1497 1759 1228 1600 
Q 959 1441 959 1056 
Q 959 750 1161 570 
Q 1363 391 1709 391 
Q 2188 391 2477 730 
Q 2766 1069 2766 1631 
L 2766 1759 
L 2194 1759 
z
M 3341 1997 
L 3341 0 
L 2766 0 
L 2766 531 
Q 2569 213 2275 61 
Q 1981 -91 1556 -91 
Q 1019 -91 701 211 
Q 384 513 384 1019 
Q 384 1609 779 1909 
Q 1175 2209 1959 2209 
L 2766 2209 
L 2766 2266 
Q 2766 2663 2505 2880 
Q 2244 3097 1772 3097 
Q 1472 3097 1187 3025 
Q 903 2953 641 2809 
L 641 3341 
Q 956 3463 1253 3523 
Q 1550 3584 1831 3584 
Q 2591 3584 2966 3190 
Q 3341 2797 3341 1997 
z
" transform="scale(0.015625)"/>
       <path id="DejaVuSans-79" d="M 2059 -325 
Q 1816 -950 1584 -1140 
Q 1353 -1331 966 -1331 
L 506 -1331 
L 506 -850 
L 844 -850 
Q 1081 -850 1212 -737 
Q 1344 -625 1503 -206 
L 1606 56 
L 191 3500 
L 800 3500 
L 1894 763 
L 2988 3500 
L 3597 3500 
L 2059 -325 
z
" transform="scale(0.015625)"/>
       <path id="DejaVuSans-44" d="M 1259 4147 
L 1259 519 
L 2022 519 
Q 2988 519 3436 956 
Q 3884 1394 3884 2338 
Q 3884 3275 3436 3711 
Q 2988 4147 2022 4147 
L 1259 4147 
z
M 628 4666 
L 1925 4666 
Q 3281 4666 3915 4102 
Q 4550 3538 4550 2338 
Q 4550 1131 3912 565 
Q 3275 0 1925 0 
L 628 0 
L 628 4666 
z
" transform="scale(0.015625)"/>
      </defs>
      <use xlink:href="#DejaVuSans-50"/>
      <use xlink:href="#DejaVuSans-72" x="58.552734"/>
      <use xlink:href="#DejaVuSans-6f" x="97.416016"/>
      <use xlink:href="#DejaVuSans-62" x="158.597656"/>
      <use xlink:href="#DejaVuSans-61" x="222.074219"/>
      <use xlink:href="#DejaVuSans-62" x="283.353516"/>
      <use xlink:href="#DejaVuSans-69" x="346.830078"/>
      <use xlink:href="#DejaVuSans-6c" x="374.613281"/>
      <use xlink:href="#DejaVuSans-69" x="402.396484"/>
      <use xlink:href="#DejaVuSans-74" x="430.179688"/>
      <use xlink:href="#DejaVuSans-79" x="469.388672"/>
      <use xlink:href="#DejaVuSans-20" x="528.568359"/>
      <use xlink:href="#DejaVuSans-44" x="560.355469"/>
      <use xlink:href="#DejaVuSans-65" x="637.357422"/>
      <use xlink:href="#DejaVuSans-6e" x="698.880859"/>
      <use xlink:href="#DejaVuSans-73" x="762.259766"/>
      <use xlink:href="#DejaVuSans-69" x="814.359375"/>
      <use xlink:href="#DejaVuSans-74" x="842.142578"/>
      <use xlink:href="#DejaVuSans-79" x="881.351562"/>
     </g>
    </g>
   </g>
   <g id="line2d_17">
    <path d="M 171.645096 389.32 
L 171.645096 14.76 
" clip-path="url(#p237cee69d1)" style="fill: none; stroke-dasharray: 11.1,4.8; stroke-dashoffset: 0; stroke: #ffa500; stroke-width: 3"/>
   </g>
   <g id="patch_80">
    <path d="M 54.92 389.32 
L 54.92 14.76 
" style="fill: none; stroke: #000000; stroke-width: 0.8; stroke-linejoin: miter; stroke-linecap: square"/>
   </g>
   <g id="patch_81">
    <path d="M 54.92 389.32 
L 429.795 389.32 
" style="fill: none; stroke: #000000; stroke-width: 0.8; stroke-linejoin: miter; stroke-linecap: square"/>
   </g>
   <g id="legend_1">
    <g id="patch_82">
     <path d="M 304.680938 66.794375 
L 422.795 66.794375 
Q 424.795 66.794375 424.795 64.794375 
L 424.795 21.76 
Q 424.795 19.76 422.795 19.76 
L 304.680938 19.76 
Q 302.680938 19.76 302.680938 21.76 
L 302.680938 64.794375 
Q 302.680938 66.794375 304.680938 66.794375 
z
" style="fill: #ffffff; opacity: 0.8; stroke: #cccccc; stroke-linejoin: miter"/>
    </g>
    <g id="patch_83">
     <path d="M 306.680938 31.358438 
L 326.680938 31.358438 
L 326.680938 24.358438 
L 306.680938 24.358438 
z
" style="fill: #808080; fill-opacity: 0.4; stroke: #000000; stroke-linejoin: miter"/>
    </g>
    <g id="text_19">
     <!-- Pre-trained ESM2 -->
     <g transform="translate(334.680938 31.358438) scale(0.1 -0.1)">
      <defs>
       <path id="DejaVuSans-2d" d="M 313 2009 
L 1997 2009 
L 1997 1497 
L 313 1497 
L 313 2009 
z
" transform="scale(0.015625)"/>
       <path id="DejaVuSans-45" d="M 628 4666 
L 3578 4666 
L 3578 4134 
L 1259 4134 
L 1259 2753 
L 3481 2753 
L 3481 2222 
L 1259 2222 
L 1259 531 
L 3634 531 
L 3634 0 
L 628 0 
L 628 4666 
z
" transform="scale(0.015625)"/>
       <path id="DejaVuSans-53" d="M 3425 4513 
L 3425 3897 
Q 3066 4069 2747 4153 
Q 2428 4238 2131 4238 
Q 1616 4238 1336 4038 
Q 1056 3838 1056 3469 
Q 1056 3159 1242 3001 
Q 1428 2844 1947 2747 
L 2328 2669 
Q 3034 2534 3370 2195 
Q 3706 1856 3706 1288 
Q 3706 609 3251 259 
Q 2797 -91 1919 -91 
Q 1588 -91 1214 -16 
Q 841 59 441 206 
L 441 856 
Q 825 641 1194 531 
Q 1563 422 1919 422 
Q 2459 422 2753 634 
Q 3047 847 3047 1241 
Q 3047 1584 2836 1778 
Q 2625 1972 2144 2069 
L 1759 2144 
Q 1053 2284 737 2584 
Q 422 2884 422 3419 
Q 422 4038 858 4394 
Q 1294 4750 2059 4750 
Q 2388 4750 2728 4690 
Q 3069 4631 3425 4513 
z
" transform="scale(0.015625)"/>
       <path id="DejaVuSans-4d" d="M 628 4666 
L 1569 4666 
L 2759 1491 
L 3956 4666 
L 4897 4666 
L 4897 0 
L 4281 0 
L 4281 4097 
L 3078 897 
L 2444 897 
L 1241 4097 
L 1241 0 
L 628 0 
L 628 4666 
z
" transform="scale(0.015625)"/>
      </defs>
      <use xlink:href="#DejaVuSans-50"/>
      <use xlink:href="#DejaVuSans-72" x="58.552734"/>
      <use xlink:href="#DejaVuSans-65" x="97.416016"/>
      <use xlink:href="#DejaVuSans-2d" x="158.939453"/>
      <use xlink:href="#DejaVuSans-74" x="195.023438"/>
      <use xlink:href="#DejaVuSans-72" x="234.232422"/>
      <use xlink:href="#DejaVuSans-61" x="275.345703"/>
      <use xlink:href="#DejaVuSans-69" x="336.625"/>
      <use xlink:href="#DejaVuSans-6e" x="364.408203"/>
      <use xlink:href="#DejaVuSans-65" x="427.787109"/>
      <use xlink:href="#DejaVuSans-64" x="489.310547"/>
      <use xlink:href="#DejaVuSans-20" x="552.787109"/>
      <use xlink:href="#DejaVuSans-45" x="584.574219"/>
      <use xlink:href="#DejaVuSans-53" x="647.757812"/>
      <use xlink:href="#DejaVuSans-4d" x="711.234375"/>
      <use xlink:href="#DejaVuSans-32" x="797.513672"/>
     </g>
    </g>
    <g id="patch_84">
     <path d="M 306.680938 46.036563 
L 326.680938 46.036563 
L 326.680938 39.036563 
L 306.680938 39.036563 
z
" style="fill: #ffa500; fill-opacity: 0.6; stroke: #000000; stroke-width: 0.752695; stroke-linejoin: miter"/>
    </g>
    <g id="text_20">
     <!-- SFT ESM2 -->
     <g transform="translate(334.680938 46.036563) scale(0.1 -0.1)">
      <defs>
       <path id="DejaVuSans-54" d="M -19 4666 
L 3928 4666 
L 3928 4134 
L 2272 4134 
L 2272 0 
L 1638 0 
L 1638 4134 
L -19 4134 
L -19 4666 
z
" transform="scale(0.015625)"/>
      </defs>
      <use xlink:href="#DejaVuSans-53"/>
      <use xlink:href="#DejaVuSans-46" x="63.476562"/>
      <use xlink:href="#DejaVuSans-54" x="119.246094"/>
      <use xlink:href="#DejaVuSans-20" x="180.330078"/>
      <use xlink:href="#DejaVuSans-45" x="212.117188"/>
      <use xlink:href="#DejaVuSans-53" x="275.300781"/>
      <use xlink:href="#DejaVuSans-4d" x="338.777344"/>
      <use xlink:href="#DejaVuSans-32" x="425.056641"/>
     </g>
    </g>
    <g id="patch_85">
     <path d="M 306.680938 60.714688 
L 326.680938 60.714688 
L 326.680938 53.714688 
L 306.680938 53.714688 
z
" style="fill: #0000ff; fill-opacity: 0.6; stroke: #000000; stroke-width: 0.785182; stroke-linejoin: miter"/>
    </g>
    <g id="text_21">
     <!-- Aligned ESM2 -->
     <g transform="translate(334.680938 60.714688) scale(0.1 -0.1)">
      <defs>
       <path id="DejaVuSans-41" d="M 2188 4044 
L 1331 1722 
L 3047 1722 
L 2188 4044 
z
M 1831 4666 
L 2547 4666 
L 4325 0 
L 3669 0 
L 3244 1197 
L 1141 1197 
L 716 0 
L 50 0 
L 1831 4666 
z
" transform="scale(0.015625)"/>
       <path id="DejaVuSans-67" d="M 2906 1791 
Q 2906 2416 2648 2759 
Q 2391 3103 1925 3103 
Q 1463 3103 1205 2759 
Q 947 2416 947 1791 
Q 947 1169 1205 825 
Q 1463 481 1925 481 
Q 2391 481 2648 825 
Q 2906 1169 2906 1791 
z
M 3481 434 
Q 3481 -459 3084 -895 
Q 2688 -1331 1869 -1331 
Q 1566 -1331 1297 -1286 
Q 1028 -1241 775 -1147 
L 775 -588 
Q 1028 -725 1275 -790 
Q 1522 -856 1778 -856 
Q 2344 -856 2625 -561 
Q 2906 -266 2906 331 
L 2906 616 
Q 2728 306 2450 153 
Q 2172 0 1784 0 
Q 1141 0 747 490 
Q 353 981 353 1791 
Q 353 2603 747 3093 
Q 1141 3584 1784 3584 
Q 2172 3584 2450 3431 
Q 2728 3278 2906 2969 
L 2906 3500 
L 3481 3500 
L 3481 434 
z
" transform="scale(0.015625)"/>
      </defs>
      <use xlink:href="#DejaVuSans-41"/>
      <use xlink:href="#DejaVuSans-6c" x="68.408203"/>
      <use xlink:href="#DejaVuSans-69" x="96.191406"/>
      <use xlink:href="#DejaVuSans-67" x="123.974609"/>
      <use xlink:href="#DejaVuSans-6e" x="187.451172"/>
      <use xlink:href="#DejaVuSans-65" x="250.830078"/>
      <use xlink:href="#DejaVuSans-64" x="312.353516"/>
      <use xlink:href="#DejaVuSans-20" x="375.830078"/>
      <use xlink:href="#DejaVuSans-45" x="407.617188"/>
      <use xlink:href="#DejaVuSans-53" x="470.800781"/>
      <use xlink:href="#DejaVuSans-4d" x="534.277344"/>
      <use xlink:href="#DejaVuSans-32" x="620.556641"/>
     </g>
    </g>
   </g>
  </g>
  <g id="axes_2">
   <g id="patch_86">
    <path d="M 478.325 389.32 
L 853.2 389.32 
L 853.2 14.76 
L 478.325 14.76 
z
" style="fill: #ffffff"/>
   </g>
   <g id="patch_87">
    <path d="M 495.364773 389.32 
L 495.364773 14.76 
L 595.050096 14.76 
L 595.050096 389.32 
z
" clip-path="url(#p7f217dc1c2)" style="fill: #ff0000; opacity: 0.1; stroke: #ff0000; stroke-linejoin: miter"/>
   </g>
   <g id="patch_88">
    <path d="M 595.050096 389.32 
L 595.050096 14.76 
L 836.160227 14.76 
L 836.160227 389.32 
z
" clip-path="url(#p7f217dc1c2)" style="fill: #008000; opacity: 0.1; stroke: #008000; stroke-linejoin: miter"/>
   </g>
   <g id="matplotlib.axis_3">
    <g id="xtick_8">
     <g id="line2d_18">
      <g>
       <use xlink:href="#m707f4daafe" x="516.966687" y="389.32" style="stroke: #000000; stroke-width: 0.8"/>
      </g>
     </g>
     <g id="text_22">
      <!-- −2 -->
      <g transform="translate(509.595593 403.918437) scale(0.1 -0.1)">
       <use xlink:href="#DejaVuSans-2212"/>
       <use xlink:href="#DejaVuSans-32" x="83.789062"/>
      </g>
     </g>
    </g>
    <g id="xtick_9">
     <g id="line2d_19">
      <g>
       <use xlink:href="#m707f4daafe" x="566.546603" y="389.32" style="stroke: #000000; stroke-width: 0.8"/>
      </g>
     </g>
     <g id="text_23">
      <!-- 0 -->
      <g transform="translate(563.365353 403.918437) scale(0.1 -0.1)">
       <use xlink:href="#DejaVuSans-30"/>
      </g>
     </g>
    </g>
    <g id="xtick_10">
     <g id="line2d_20">
      <g>
       <use xlink:href="#m707f4daafe" x="616.126518" y="389.32" style="stroke: #000000; stroke-width: 0.8"/>
      </g>
     </g>
     <g id="text_24">
      <!-- 2 -->
      <g transform="translate(612.945268 403.918437) scale(0.1 -0.1)">
       <use xlink:href="#DejaVuSans-32"/>
      </g>
     </g>
    </g>
    <g id="xtick_11">
     <g id="line2d_21">
      <g>
       <use xlink:href="#m707f4daafe" x="665.706434" y="389.32" style="stroke: #000000; stroke-width: 0.8"/>
      </g>
     </g>
     <g id="text_25">
      <!-- 4 -->
      <g transform="translate(662.525184 403.918437) scale(0.1 -0.1)">
       <use xlink:href="#DejaVuSans-34"/>
      </g>
     </g>
    </g>
    <g id="xtick_12">
     <g id="line2d_22">
      <g>
       <use xlink:href="#m707f4daafe" x="715.28635" y="389.32" style="stroke: #000000; stroke-width: 0.8"/>
      </g>
     </g>
     <g id="text_26">
      <!-- 6 -->
      <g transform="translate(712.1051 403.918437) scale(0.1 -0.1)">
       <use xlink:href="#DejaVuSans-36"/>
      </g>
     </g>
    </g>
    <g id="xtick_13">
     <g id="line2d_23">
      <g>
       <use xlink:href="#m707f4daafe" x="764.866265" y="389.32" style="stroke: #000000; stroke-width: 0.8"/>
      </g>
     </g>
     <g id="text_27">
      <!-- 8 -->
      <g transform="translate(761.685015 403.918437) scale(0.1 -0.1)">
       <use xlink:href="#DejaVuSans-38"/>
      </g>
     </g>
    </g>
    <g id="xtick_14">
     <g id="line2d_24">
      <g>
       <use xlink:href="#m707f4daafe" x="814.446181" y="389.32" style="stroke: #000000; stroke-width: 0.8"/>
      </g>
     </g>
     <g id="text_28">
      <!-- 10 -->
      <g transform="translate(808.083681 403.918437) scale(0.1 -0.1)">
       <use xlink:href="#DejaVuSans-31"/>
       <use xlink:href="#DejaVuSans-30" x="63.623047"/>
      </g>
     </g>
    </g>
    <g id="text_29">
     <!-- Predicted Fluorescence -->
     <g transform="translate(596.16625 419.11625) scale(0.12 -0.12)">
      <use xlink:href="#DejaVuSans-50"/>
      <use xlink:href="#DejaVuSans-72" x="58.552734"/>
      <use xlink:href="#DejaVuSans-65" x="97.416016"/>
      <use xlink:href="#DejaVuSans-64" x="158.939453"/>
      <use xlink:href="#DejaVuSans-69" x="222.416016"/>
      <use xlink:href="#DejaVuSans-63" x="250.199219"/>
      <use xlink:href="#DejaVuSans-74" x="305.179688"/>
      <use xlink:href="#DejaVuSans-65" x="344.388672"/>
      <use xlink:href="#DejaVuSans-64" x="405.912109"/>
      <use xlink:href="#DejaVuSans-20" x="469.388672"/>
      <use xlink:href="#DejaVuSans-46" x="501.175781"/>
      <use xlink:href="#DejaVuSans-6c" x="558.695312"/>
      <use xlink:href="#DejaVuSans-75" x="586.478516"/>
      <use xlink:href="#DejaVuSans-6f" x="649.857422"/>
      <use xlink:href="#DejaVuSans-72" x="711.039062"/>
      <use xlink:href="#DejaVuSans-65" x="749.902344"/>
      <use xlink:href="#DejaVuSans-73" x="811.425781"/>
      <use xlink:href="#DejaVuSans-63" x="863.525391"/>
      <use xlink:href="#DejaVuSans-65" x="918.505859"/>
      <use xlink:href="#DejaVuSans-6e" x="980.029297"/>
      <use xlink:href="#DejaVuSans-63" x="1043.408203"/>
      <use xlink:href="#DejaVuSans-65" x="1098.388672"/>
     </g>
    </g>
   </g>
   <g id="matplotlib.axis_4">
    <g id="ytick_10">
     <g id="line2d_25">
      <g>
       <use xlink:href="#m2f1c244b9c" x="478.325" y="389.32" style="stroke: #000000; stroke-width: 0.8"/>
      </g>
     </g>
     <g id="text_30">
      <!-- 0.0 -->
      <g transform="translate(455.421875 393.119219) scale(0.1 -0.1)">
       <use xlink:href="#DejaVuSans-30"/>
       <use xlink:href="#DejaVuSans-2e" x="63.623047"/>
       <use xlink:href="#DejaVuSans-30" x="95.410156"/>
      </g>
     </g>
    </g>
    <g id="ytick_11">
     <g id="line2d_26">
      <g>
       <use xlink:href="#m2f1c244b9c" x="478.325" y="314.408" style="stroke: #000000; stroke-width: 0.8"/>
      </g>
     </g>
     <g id="text_31">
      <!-- 0.2 -->
      <g transform="translate(455.421875 318.207219) scale(0.1 -0.1)">
       <use xlink:href="#DejaVuSans-30"/>
       <use xlink:href="#DejaVuSans-2e" x="63.623047"/>
       <use xlink:href="#DejaVuSans-32" x="95.410156"/>
      </g>
     </g>
    </g>
    <g id="ytick_12">
     <g id="line2d_27">
      <g>
       <use xlink:href="#m2f1c244b9c" x="478.325" y="239.496" style="stroke: #000000; stroke-width: 0.8"/>
      </g>
     </g>
     <g id="text_32">
      <!-- 0.4 -->
      <g transform="translate(455.421875 243.295219) scale(0.1 -0.1)">
       <use xlink:href="#DejaVuSans-30"/>
       <use xlink:href="#DejaVuSans-2e" x="63.623047"/>
       <use xlink:href="#DejaVuSans-34" x="95.410156"/>
      </g>
     </g>
    </g>
    <g id="ytick_13">
     <g id="line2d_28">
      <g>
       <use xlink:href="#m2f1c244b9c" x="478.325" y="164.584" style="stroke: #000000; stroke-width: 0.8"/>
      </g>
     </g>
     <g id="text_33">
      <!-- 0.6 -->
      <g transform="translate(455.421875 168.383219) scale(0.1 -0.1)">
       <use xlink:href="#DejaVuSans-30"/>
       <use xlink:href="#DejaVuSans-2e" x="63.623047"/>
       <use xlink:href="#DejaVuSans-36" x="95.410156"/>
      </g>
     </g>
    </g>
    <g id="ytick_14">
     <g id="line2d_29">
      <g>
       <use xlink:href="#m2f1c244b9c" x="478.325" y="89.672" style="stroke: #000000; stroke-width: 0.8"/>
      </g>
     </g>
     <g id="text_34">
      <!-- 0.8 -->
      <g transform="translate(455.421875 93.471219) scale(0.1 -0.1)">
       <use xlink:href="#DejaVuSans-30"/>
       <use xlink:href="#DejaVuSans-2e" x="63.623047"/>
       <use xlink:href="#DejaVuSans-38" x="95.410156"/>
      </g>
     </g>
    </g>
    <g id="ytick_15">
     <g id="line2d_30">
      <g>
       <use xlink:href="#m2f1c244b9c" x="478.325" y="14.76" style="stroke: #000000; stroke-width: 0.8"/>
      </g>
     </g>
     <g id="text_35">
      <!-- 1.0 -->
      <g transform="translate(455.421875 18.559219) scale(0.1 -0.1)">
       <use xlink:href="#DejaVuSans-31"/>
       <use xlink:href="#DejaVuSans-2e" x="63.623047"/>
       <use xlink:href="#DejaVuSans-30" x="95.410156"/>
      </g>
     </g>
    </g>
    <g id="text_36">
     <!-- Cumulative Density -->
     <g transform="translate(448.92625 261.002187) rotate(-90) scale(0.12 -0.12)">
      <defs>
       <path id="DejaVuSans-43" d="M 4122 4306 
L 4122 3641 
Q 3803 3938 3442 4084 
Q 3081 4231 2675 4231 
Q 1875 4231 1450 3742 
Q 1025 3253 1025 2328 
Q 1025 1406 1450 917 
Q 1875 428 2675 428 
Q 3081 428 3442 575 
Q 3803 722 4122 1019 
L 4122 359 
Q 3791 134 3420 21 
Q 3050 -91 2638 -91 
Q 1578 -91 968 557 
Q 359 1206 359 2328 
Q 359 3453 968 4101 
Q 1578 4750 2638 4750 
Q 3056 4750 3426 4639 
Q 3797 4528 4122 4306 
z
" transform="scale(0.015625)"/>
       <path id="DejaVuSans-6d" d="M 3328 2828 
Q 3544 3216 3844 3400 
Q 4144 3584 4550 3584 
Q 5097 3584 5394 3201 
Q 5691 2819 5691 2113 
L 5691 0 
L 5113 0 
L 5113 2094 
Q 5113 2597 4934 2840 
Q 4756 3084 4391 3084 
Q 3944 3084 3684 2787 
Q 3425 2491 3425 1978 
L 3425 0 
L 2847 0 
L 2847 2094 
Q 2847 2600 2669 2842 
Q 2491 3084 2119 3084 
Q 1678 3084 1418 2786 
Q 1159 2488 1159 1978 
L 1159 0 
L 581 0 
L 581 3500 
L 1159 3500 
L 1159 2956 
Q 1356 3278 1631 3431 
Q 1906 3584 2284 3584 
Q 2666 3584 2933 3390 
Q 3200 3197 3328 2828 
z
" transform="scale(0.015625)"/>
       <path id="DejaVuSans-76" d="M 191 3500 
L 800 3500 
L 1894 563 
L 2988 3500 
L 3597 3500 
L 2284 0 
L 1503 0 
L 191 3500 
z
" transform="scale(0.015625)"/>
      </defs>
      <use xlink:href="#DejaVuSans-43"/>
      <use xlink:href="#DejaVuSans-75" x="69.824219"/>
      <use xlink:href="#DejaVuSans-6d" x="133.203125"/>
      <use xlink:href="#DejaVuSans-75" x="230.615234"/>
      <use xlink:href="#DejaVuSans-6c" x="293.994141"/>
      <use xlink:href="#DejaVuSans-61" x="321.777344"/>
      <use xlink:href="#DejaVuSans-74" x="383.056641"/>
      <use xlink:href="#DejaVuSans-69" x="422.265625"/>
      <use xlink:href="#DejaVuSans-76" x="450.048828"/>
      <use xlink:href="#DejaVuSans-65" x="509.228516"/>
      <use xlink:href="#DejaVuSans-20" x="570.751953"/>
      <use xlink:href="#DejaVuSans-44" x="602.539062"/>
      <use xlink:href="#DejaVuSans-65" x="679.541016"/>
      <use xlink:href="#DejaVuSans-6e" x="741.064453"/>
      <use xlink:href="#DejaVuSans-73" x="804.443359"/>
      <use xlink:href="#DejaVuSans-69" x="856.542969"/>
      <use xlink:href="#DejaVuSans-74" x="884.326172"/>
      <use xlink:href="#DejaVuSans-79" x="923.535156"/>
     </g>
    </g>
   </g>
   <g id="line2d_31">
    <path d="M 496.604271 14.76 
L 496.604271 18.5056 
L 510.360152 18.5056 
L 510.360152 22.2512 
L 513.053255 22.2512 
L 513.053255 25.9968 
L 515.11251 25.9968 
L 515.11251 29.7424 
L 516.904261 29.7424 
L 516.904261 33.488 
L 517.901533 33.488 
L 517.901533 37.2336 
L 520.71464 37.2336 
L 520.71464 40.9792 
L 520.947988 40.9792 
L 520.947988 44.7248 
L 521.667693 44.7248 
L 521.667693 48.4704 
L 523.316461 48.4704 
L 523.316461 52.216 
L 526.207727 52.216 
L 526.207727 55.9616 
L 527.304006 55.9616 
L 527.304006 59.7072 
L 529.589446 59.7072 
L 529.589446 63.4528 
L 530.570464 63.4528 
L 530.570464 67.1984 
L 533.724388 67.1984 
L 533.724388 70.944 
L 535.508548 70.944 
L 535.508548 74.6896 
L 535.857961 74.6896 
L 535.857961 78.4352 
L 536.0783 78.4352 
L 536.0783 82.1808 
L 537.632637 82.1808 
L 537.632637 85.9264 
L 540.342869 85.9264 
L 540.342869 89.672 
L 540.472028 89.672 
L 540.472028 93.4176 
L 540.641609 93.4176 
L 540.641609 97.1632 
L 540.838484 97.1632 
L 540.838484 100.9088 
L 541.829721 100.9088 
L 541.829721 104.6544 
L 543.073511 104.6544 
L 543.073511 108.4 
L 543.449199 108.4 
L 543.449199 112.1456 
L 543.876403 112.1456 
L 543.876403 115.8912 
L 545.389174 115.8912 
L 545.389174 119.6368 
L 545.746998 119.6368 
L 545.746998 123.3824 
L 546.358982 123.3824 
L 546.358982 127.128 
L 547.931957 127.128 
L 547.931957 130.8736 
L 549.191178 130.8736 
L 549.191178 134.6192 
L 549.720926 134.6192 
L 549.720926 138.3648 
L 550.181397 138.3648 
L 550.181397 142.1104 
L 552.628541 142.1104 
L 552.628541 145.856 
L 552.758909 145.856 
L 552.758909 149.6016 
L 553.601541 149.6016 
L 553.601541 153.3472 
L 553.735813 153.3472 
L 553.735813 157.0928 
L 554.08855 157.0928 
L 554.08855 160.8384 
L 554.69606 160.8384 
L 554.69606 164.584 
L 554.940796 164.584 
L 554.940796 168.3296 
L 557.306007 168.3296 
L 557.306007 172.0752 
L 557.637858 172.0752 
L 557.637858 175.8208 
L 558.042253 175.8208 
L 558.042253 179.5664 
L 558.191234 179.5664 
L 558.191234 183.312 
L 558.486071 183.312 
L 558.486071 187.0576 
L 560.243249 187.0576 
L 560.243249 190.8032 
L 560.602025 190.8032 
L 560.602025 194.5488 
L 560.935673 194.5488 
L 560.935673 198.2944 
L 561.267618 198.2944 
L 561.267618 202.04 
L 562.169794 202.04 
L 562.169794 205.7856 
L 564.671704 205.7856 
L 564.727442 213.2768 
L 566.299352 213.2768 
L 566.299352 217.0224 
L 566.900058 217.0224 
L 566.900058 220.768 
L 568.187154 220.768 
L 568.187154 224.5136 
L 568.925629 224.5136 
L 568.925629 228.2592 
L 570.343914 228.2592 
L 570.343914 232.0048 
L 570.740423 232.0048 
L 570.740423 235.7504 
L 570.979855 235.7504 
L 570.979855 239.496 
L 572.170268 239.496 
L 572.170268 243.2416 
L 573.903786 243.2416 
L 573.903786 246.9872 
L 574.039194 246.9872 
L 574.039194 250.7328 
L 575.413701 250.7328 
L 575.413701 254.4784 
L 578.214026 254.4784 
L 578.214026 258.224 
L 578.986294 258.224 
L 578.986294 261.9696 
L 579.590483 261.9696 
L 579.590483 265.7152 
L 580.954769 265.7152 
L 580.954769 269.4608 
L 581.093267 269.4608 
L 581.093267 273.2064 
L 581.411981 273.2064 
L 581.411981 276.952 
L 582.075576 276.952 
L 582.075576 280.6976 
L 585.170256 280.6976 
L 585.170256 284.4432 
L 587.54314 284.4432 
L 587.54314 288.1888 
L 587.849849 288.1888 
L 587.849849 291.9344 
L 588.05225 291.9344 
L 588.05225 295.68 
L 588.532924 295.68 
L 588.532924 299.4256 
L 590.095023 299.4256 
L 590.095023 303.1712 
L 591.187066 303.1712 
L 591.187066 306.9168 
L 592.494979 306.9168 
L 592.494979 310.6624 
L 596.952084 310.6624 
L 596.952084 314.408 
L 600.884849 314.408 
L 600.884849 318.1536 
L 602.501606 318.1536 
L 602.501606 321.8992 
L 604.223124 321.8992 
L 604.223124 325.6448 
L 604.574845 325.6448 
L 604.574845 329.3904 
L 605.383324 329.3904 
L 605.383324 333.136 
L 610.539199 333.136 
L 610.539199 336.8816 
L 611.181189 336.8816 
L 611.181189 340.6272 
L 613.094141 340.6272 
L 613.094141 344.3728 
L 615.682976 344.3728 
L 615.682976 348.1184 
L 616.150834 348.1184 
L 616.150834 351.864 
L 616.278947 351.864 
L 616.278947 355.6096 
L 617.160741 355.6096 
L 617.160741 359.3552 
L 617.442295 359.3552 
L 617.442295 363.1008 
L 618.215273 363.1008 
L 618.215273 366.8464 
L 620.592832 366.8464 
L 620.592832 370.592 
L 621.055332 370.592 
L 621.055332 374.3376 
L 629.558238 374.3376 
L 629.558238 378.0832 
L 634.124047 378.0832 
L 634.124047 381.8288 
L 653.268321 381.8288 
L 653.268321 385.5744 
L 684.625333 385.5744 
L 684.625333 389.32 
L 684.625333 389.32 
" clip-path="url(#p7f217dc1c2)" style="fill: none; stroke: #808080; stroke-width: 1.5; stroke-linecap: square"/>
   </g>
   <g id="line2d_32">
    <path d="M 604.83917 14.76 
L 604.83917 18.5056 
L 615.469756 18.5056 
L 615.469756 22.2512 
L 627.813155 22.2512 
L 627.813155 25.9968 
L 646.159899 25.9968 
L 646.159899 29.7424 
L 648.651464 29.7424 
L 648.651464 33.488 
L 653.644931 33.488 
L 653.644931 37.2336 
L 657.364077 37.2336 
L 657.364077 40.9792 
L 658.137298 40.9792 
L 658.137298 44.7248 
L 659.460479 44.7248 
L 659.460479 48.4704 
L 661.979226 48.4704 
L 661.979226 52.216 
L 665.79743 52.216 
L 665.79743 55.9616 
L 670.449697 55.9616 
L 670.449697 59.7072 
L 671.740253 59.7072 
L 671.740253 63.4528 
L 673.738413 63.4528 
L 673.738413 67.1984 
L 674.851788 67.1984 
L 674.851788 70.944 
L 675.29632 70.944 
L 675.29632 74.6896 
L 677.284692 74.6896 
L 677.284692 78.4352 
L 678.633277 78.4352 
L 678.633277 82.1808 
L 679.526904 82.1808 
L 679.526904 85.9264 
L 680.713142 85.9264 
L 680.713142 89.672 
L 682.909016 89.672 
L 682.909016 93.4176 
L 685.089547 93.4176 
L 685.089547 97.1632 
L 687.456136 97.1632 
L 687.456136 100.9088 
L 688.497097 100.9088 
L 688.497097 104.6544 
L 690.035169 104.6544 
L 690.076991 112.1456 
L 692.014628 112.1456 
L 692.014628 115.8912 
L 693.671664 115.8912 
L 693.780439 123.3824 
L 695.353027 123.3824 
L 695.353027 127.128 
L 696.432867 127.128 
L 696.486947 134.6192 
L 696.843958 134.6192 
L 696.843958 138.3648 
L 697.158343 138.3648 
L 697.158343 142.1104 
L 697.314271 142.1104 
L 697.314271 145.856 
L 697.996601 145.856 
L 697.996601 149.6016 
L 698.123852 149.6016 
L 698.123852 153.3472 
L 699.842332 153.3472 
L 699.858681 160.8384 
L 700.360023 160.8384 
L 700.360023 164.584 
L 701.020639 164.584 
L 701.020639 168.3296 
L 701.401433 168.3296 
L 701.401433 172.0752 
L 702.007047 172.0752 
L 702.007047 175.8208 
L 702.999023 175.8208 
L 702.999023 179.5664 
L 703.160412 179.5664 
L 703.160412 183.312 
L 704.067597 183.312 
L 704.067597 187.0576 
L 704.693211 187.0576 
L 704.693211 190.8032 
L 705.261022 190.8032 
L 705.261022 194.5488 
L 709.157255 194.5488 
L 709.157255 198.2944 
L 709.341754 198.2944 
L 709.341754 202.04 
L 709.766829 202.04 
L 709.766829 205.7856 
L 709.980619 205.7856 
L 709.980619 209.5312 
L 710.462706 209.5312 
L 710.462706 213.2768 
L 711.264485 213.2768 
L 711.264485 217.0224 
L 713.832217 217.0224 
L 713.832217 220.768 
L 715.143602 220.768 
L 715.143602 224.5136 
L 715.643254 224.5136 
L 715.643254 228.2592 
L 715.848971 228.2592 
L 715.848971 232.0048 
L 717.961249 232.0048 
L 717.961249 235.7504 
L 718.481268 235.7504 
L 718.481268 239.496 
L 718.828917 239.496 
L 718.828917 243.2416 
L 721.878322 243.2416 
L 721.878322 246.9872 
L 723.281519 246.9872 
L 723.281519 250.7328 
L 724.534095 250.7328 
L 724.568635 258.224 
L 724.646002 258.224 
L 724.646002 261.9696 
L 726.650817 261.9696 
L 726.650817 265.7152 
L 728.300453 265.7152 
L 728.300453 269.4608 
L 730.243954 269.4608 
L 730.243954 273.2064 
L 730.409019 273.2064 
L 730.409019 276.952 
L 730.815288 276.952 
L 730.815288 280.6976 
L 733.239905 280.6976 
L 733.239905 284.4432 
L 733.432064 284.4432 
L 733.432064 288.1888 
L 734.080575 288.1888 
L 734.080575 291.9344 
L 735.481928 291.9344 
L 735.481928 295.68 
L 735.663329 295.68 
L 735.663329 299.4256 
L 735.969606 299.4256 
L 735.969606 303.1712 
L 737.694706 303.1712 
L 737.694706 306.9168 
L 739.211772 306.9168 
L 739.211772 310.6624 
L 746.417112 310.6624 
L 746.417112 314.408 
L 750.312979 314.408 
L 750.312979 318.1536 
L 751.01706 318.1536 
L 751.01706 321.8992 
L 756.30656 321.8992 
L 756.30656 325.6448 
L 762.187631 325.6448 
L 762.187631 329.3904 
L 763.813886 329.3904 
L 763.813886 333.136 
L 764.033397 333.136 
L 764.033397 336.8816 
L 767.394067 336.8816 
L 767.394067 340.6272 
L 770.506004 340.6272 
L 770.506004 344.3728 
L 781.261134 344.3728 
L 781.261134 348.1184 
L 785.692529 348.1184 
L 785.692529 351.864 
L 792.079624 351.864 
L 792.079624 355.6096 
L 792.777238 355.6096 
L 792.78147 363.1008 
L 796.627501 363.1008 
L 796.627501 366.8464 
L 796.99385 366.8464 
L 797.042102 374.3376 
L 805.837585 374.3376 
L 805.837585 378.0832 
L 808.366143 378.0832 
L 808.366143 381.8288 
L 813.351388 381.8288 
L 813.351388 385.5744 
L 834.920729 385.5744 
L 834.920729 389.32 
L 834.920729 389.32 
" clip-path="url(#p7f217dc1c2)" style="fill: none; stroke: #ffa500; stroke-width: 1.5; stroke-linecap: square"/>
   </g>
   <g id="line2d_33">
    <path d="M 578.985004 14.76 
L 578.985004 18.5056 
L 579.676386 18.5056 
L 579.676386 22.2512 
L 580.729063 22.2512 
L 580.729063 25.9968 
L 586.95616 25.9968 
L 586.95616 29.7424 
L 598.782758 29.7424 
L 598.782758 33.488 
L 617.320168 33.488 
L 617.320168 37.2336 
L 634.658524 37.2336 
L 634.658524 40.9792 
L 640.362236 40.9792 
L 640.362236 44.7248 
L 643.261067 44.7248 
L 643.261067 48.4704 
L 646.167346 48.4704 
L 646.167346 52.216 
L 647.037663 52.216 
L 647.037663 55.9616 
L 650.27938 55.9616 
L 650.27938 59.7072 
L 656.328897 59.7072 
L 656.328897 63.4528 
L 657.174572 63.4528 
L 657.174572 67.1984 
L 658.26193 67.1984 
L 658.26193 70.944 
L 658.951051 70.944 
L 658.951051 74.6896 
L 663.956623 74.6896 
L 663.956623 78.4352 
L 671.16392 78.4352 
L 671.16392 82.1808 
L 672.275309 82.1808 
L 672.275309 85.9264 
L 672.735562 85.9264 
L 672.735562 89.672 
L 673.395008 89.672 
L 673.395008 93.4176 
L 673.948208 93.4176 
L 673.948208 97.1632 
L 676.889606 97.1632 
L 676.987873 104.6544 
L 678.14385 104.6544 
L 678.197043 112.1456 
L 679.540793 112.1456 
L 679.540793 115.8912 
L 681.110308 115.8912 
L 681.110308 119.6368 
L 685.513605 119.6368 
L 685.513605 123.3824 
L 687.305634 123.3824 
L 687.305634 127.128 
L 688.80744 127.128 
L 688.886013 134.6192 
L 689.316147 134.6192 
L 689.316147 138.3648 
L 689.893923 138.3648 
L 689.893923 142.1104 
L 690.137159 142.1104 
L 690.137159 145.856 
L 690.516925 145.856 
L 690.516925 149.6016 
L 692.952394 149.6016 
L 692.952394 153.3472 
L 693.136656 153.3472 
L 693.136656 157.0928 
L 693.285243 157.0928 
L 693.285243 160.8384 
L 698.087704 160.8384 
L 698.087704 164.584 
L 699.125887 164.584 
L 699.125887 168.3296 
L 702.336563 168.3296 
L 702.336563 172.0752 
L 702.524028 172.0752 
L 702.524028 175.8208 
L 702.934044 175.8208 
L 702.934044 179.5664 
L 704.876504 179.5664 
L 704.876504 183.312 
L 705.445934 183.312 
L 705.512485 190.8032 
L 706.887501 190.8032 
L 706.887501 194.5488 
L 708.003666 194.5488 
L 708.003666 198.2944 
L 709.54935 198.2944 
L 709.54935 202.04 
L 710.253431 202.04 
L 710.336685 209.5312 
L 710.810603 209.5312 
L 710.810603 213.2768 
L 711.379371 213.2768 
L 711.46155 220.768 
L 711.538775 220.768 
L 711.538775 224.5136 
L 712.084906 224.5136 
L 712.084906 228.2592 
L 712.586887 228.2592 
L 712.586887 232.0048 
L 713.331099 232.0048 
L 713.331099 235.7504 
L 713.672401 235.7504 
L 713.672401 239.496 
L 713.850646 239.496 
L 713.850646 243.2416 
L 715.854054 243.2416 
L 715.854054 246.9872 
L 716.412621 246.9872 
L 716.412621 250.7328 
L 717.794103 250.7328 
L 717.794103 254.4784 
L 719.077934 254.4784 
L 719.077934 258.224 
L 721.368114 258.224 
L 721.368114 261.9696 
L 722.052466 261.9696 
L 722.124171 269.4608 
L 723.490132 269.4608 
L 723.490132 273.2064 
L 724.206719 273.2064 
L 724.206719 276.952 
L 725.220303 276.952 
L 725.220303 280.6976 
L 728.364747 280.6976 
L 728.364747 284.4432 
L 728.824066 284.4432 
L 728.824066 288.1888 
L 728.972287 288.1888 
L 728.972287 291.9344 
L 730.734268 291.9344 
L 730.734268 295.68 
L 731.898177 295.68 
L 731.898177 299.4256 
L 737.181755 299.4256 
L 737.181755 303.1712 
L 738.014729 303.1712 
L 738.014729 306.9168 
L 738.642271 306.9168 
L 738.642271 310.6624 
L 742.550064 310.6624 
L 742.550064 314.408 
L 743.89236 314.408 
L 743.89236 318.1536 
L 749.111114 318.1536 
L 749.111114 321.8992 
L 750.117109 321.8992 
L 750.117109 325.6448 
L 755.595919 325.6448 
L 755.595919 329.3904 
L 759.275063 329.3904 
L 759.275063 333.136 
L 763.09322 333.136 
L 763.09322 336.8816 
L 765.392574 336.8816 
L 765.392574 340.6272 
L 775.222776 340.6272 
L 775.222776 344.3728 
L 779.508397 344.3728 
L 779.508397 348.1184 
L 779.78576 348.1184 
L 779.78576 351.864 
L 781.408539 351.864 
L 781.408539 355.6096 
L 782.12762 355.6096 
L 782.12762 359.3552 
L 783.309272 359.3552 
L 783.309272 363.1008 
L 786.066302 363.1008 
L 786.066302 366.8464 
L 788.416461 366.8464 
L 788.416461 370.592 
L 789.897556 370.592 
L 790.002998 378.0832 
L 797.875207 378.0832 
L 797.875207 381.8288 
L 801.2098 381.8288 
L 801.2098 385.5744 
L 818.997202 385.5744 
L 818.997202 389.32 
L 818.997202 389.32 
" clip-path="url(#p7f217dc1c2)" style="fill: none; stroke: #0000ff; stroke-width: 1.5; stroke-linecap: square"/>
   </g>
   <g id="line2d_34">
    <path d="M 595.050096 389.32 
L 595.050096 14.76 
" clip-path="url(#p7f217dc1c2)" style="fill: none; stroke-dasharray: 11.1,4.8; stroke-dashoffset: 0; stroke: #ffa500; stroke-width: 3"/>
   </g>
   <g id="patch_89">
    <path d="M 478.325 389.32 
L 478.325 14.76 
" style="fill: none; stroke: #000000; stroke-width: 0.8; stroke-linejoin: miter; stroke-linecap: square"/>
   </g>
   <g id="patch_90">
    <path d="M 478.325 389.32 
L 853.2 389.32 
" style="fill: none; stroke: #000000; stroke-width: 0.8; stroke-linejoin: miter; stroke-linecap: square"/>
   </g>
   <g id="legend_2">
    <g id="patch_91">
     <path d="M 485.325 384.32 
L 690.595312 384.32 
Q 692.595312 384.32 692.595312 382.32 
L 692.595312 339.285625 
Q 692.595312 337.285625 690.595312 337.285625 
L 485.325 337.285625 
Q 483.325 337.285625 483.325 339.285625 
L 483.325 382.32 
Q 483.325 384.32 485.325 384.32 
z
" style="fill: #ffffff; opacity: 0.8; stroke: #000000; stroke-linejoin: miter"/>
    </g>
    <g id="patch_92">
     <path d="M 487.325 348.884063 
L 507.325 348.884063 
L 507.325 341.884063 
L 487.325 341.884063 
z
" style="fill: #ff0000; opacity: 0.8; stroke: #ff0000; stroke-linejoin: miter"/>
    </g>
    <g id="text_37">
     <!-- Less than WT Log Fluorescence -->
     <g transform="translate(515.325 348.884063) scale(0.1 -0.1)">
      <defs>
       <path id="DejaVuSans-4c" d="M 628 4666 
L 1259 4666 
L 1259 531 
L 3531 531 
L 3531 0 
L 628 0 
L 628 4666 
z
" transform="scale(0.015625)"/>
       <path id="DejaVuSans-68" d="M 3513 2113 
L 3513 0 
L 2938 0 
L 2938 2094 
Q 2938 2591 2744 2837 
Q 2550 3084 2163 3084 
Q 1697 3084 1428 2787 
Q 1159 2491 1159 1978 
L 1159 0 
L 581 0 
L 581 4863 
L 1159 4863 
L 1159 2956 
Q 1366 3272 1645 3428 
Q 1925 3584 2291 3584 
Q 2894 3584 3203 3211 
Q 3513 2838 3513 2113 
z
" transform="scale(0.015625)"/>
       <path id="DejaVuSans-57" d="M 213 4666 
L 850 4666 
L 1831 722 
L 2809 4666 
L 3519 4666 
L 4500 722 
L 5478 4666 
L 6119 4666 
L 4947 0 
L 4153 0 
L 3169 4050 
L 2175 0 
L 1381 0 
L 213 4666 
z
" transform="scale(0.015625)"/>
      </defs>
      <use xlink:href="#DejaVuSans-4c"/>
      <use xlink:href="#DejaVuSans-65" x="53.962891"/>
      <use xlink:href="#DejaVuSans-73" x="115.486328"/>
      <use xlink:href="#DejaVuSans-73" x="167.585938"/>
      <use xlink:href="#DejaVuSans-20" x="219.685547"/>
      <use xlink:href="#DejaVuSans-74" x="251.472656"/>
      <use xlink:href="#DejaVuSans-68" x="290.681641"/>
      <use xlink:href="#DejaVuSans-61" x="354.060547"/>
      <use xlink:href="#DejaVuSans-6e" x="415.339844"/>
      <use xlink:href="#DejaVuSans-20" x="478.71875"/>
      <use xlink:href="#DejaVuSans-57" x="510.505859"/>
      <use xlink:href="#DejaVuSans-54" x="609.382812"/>
      <use xlink:href="#DejaVuSans-20" x="670.466797"/>
      <use xlink:href="#DejaVuSans-4c" x="702.253906"/>
      <use xlink:href="#DejaVuSans-6f" x="756.216797"/>
      <use xlink:href="#DejaVuSans-67" x="817.398438"/>
      <use xlink:href="#DejaVuSans-20" x="880.875"/>
      <use xlink:href="#DejaVuSans-46" x="912.662109"/>
      <use xlink:href="#DejaVuSans-6c" x="970.181641"/>
      <use xlink:href="#DejaVuSans-75" x="997.964844"/>
      <use xlink:href="#DejaVuSans-6f" x="1061.34375"/>
      <use xlink:href="#DejaVuSans-72" x="1122.525391"/>
      <use xlink:href="#DejaVuSans-65" x="1161.388672"/>
      <use xlink:href="#DejaVuSans-73" x="1222.912109"/>
      <use xlink:href="#DejaVuSans-63" x="1275.011719"/>
      <use xlink:href="#DejaVuSans-65" x="1329.992188"/>
      <use xlink:href="#DejaVuSans-6e" x="1391.515625"/>
      <use xlink:href="#DejaVuSans-63" x="1454.894531"/>
      <use xlink:href="#DejaVuSans-65" x="1509.875"/>
     </g>
    </g>
    <g id="patch_93">
     <path d="M 487.325 363.562187 
L 507.325 363.562187 
L 507.325 356.562187 
L 487.325 356.562187 
z
" style="fill: #ffa500; opacity: 0.8; stroke: #ffa500; stroke-linejoin: miter"/>
    </g>
    <g id="text_38">
     <!-- Mean WT Log Fluorescence -->
     <g transform="translate(515.325 363.562187) scale(0.1 -0.1)">
      <use xlink:href="#DejaVuSans-4d"/>
      <use xlink:href="#DejaVuSans-65" x="86.279297"/>
      <use xlink:href="#DejaVuSans-61" x="147.802734"/>
      <use xlink:href="#DejaVuSans-6e" x="209.082031"/>
      <use xlink:href="#DejaVuSans-20" x="272.460938"/>
      <use xlink:href="#DejaVuSans-57" x="304.248047"/>
      <use xlink:href="#DejaVuSans-54" x="403.125"/>
      <use xlink:href="#DejaVuSans-20" x="464.208984"/>
      <use xlink:href="#DejaVuSans-4c" x="495.996094"/>
      <use xlink:href="#DejaVuSans-6f" x="549.958984"/>
      <use xlink:href="#DejaVuSans-67" x="611.140625"/>
      <use xlink:href="#DejaVuSans-20" x="674.617188"/>
      <use xlink:href="#DejaVuSans-46" x="706.404297"/>
      <use xlink:href="#DejaVuSans-6c" x="763.923828"/>
      <use xlink:href="#DejaVuSans-75" x="791.707031"/>
      <use xlink:href="#DejaVuSans-6f" x="855.085938"/>
      <use xlink:href="#DejaVuSans-72" x="916.267578"/>
      <use xlink:href="#DejaVuSans-65" x="955.130859"/>
      <use xlink:href="#DejaVuSans-73" x="1016.654297"/>
      <use xlink:href="#DejaVuSans-63" x="1068.753906"/>
      <use xlink:href="#DejaVuSans-65" x="1123.734375"/>
      <use xlink:href="#DejaVuSans-6e" x="1185.257812"/>
      <use xlink:href="#DejaVuSans-63" x="1248.636719"/>
      <use xlink:href="#DejaVuSans-65" x="1303.617188"/>
     </g>
    </g>
    <g id="patch_94">
     <path d="M 487.325 378.240313 
L 507.325 378.240313 
L 507.325 371.240313 
L 487.325 371.240313 
z
" style="fill: #008000; opacity: 0.8; stroke: #008000; stroke-linejoin: miter"/>
    </g>
    <g id="text_39">
     <!-- Greater than WT Log Fluorescence -->
     <g transform="translate(515.325 378.240313) scale(0.1 -0.1)">
      <defs>
       <path id="DejaVuSans-47" d="M 3809 666 
L 3809 1919 
L 2778 1919 
L 2778 2438 
L 4434 2438 
L 4434 434 
Q 4069 175 3628 42 
Q 3188 -91 2688 -91 
Q 1594 -91 976 548 
Q 359 1188 359 2328 
Q 359 3472 976 4111 
Q 1594 4750 2688 4750 
Q 3144 4750 3555 4637 
Q 3966 4525 4313 4306 
L 4313 3634 
Q 3963 3931 3569 4081 
Q 3175 4231 2741 4231 
Q 1884 4231 1454 3753 
Q 1025 3275 1025 2328 
Q 1025 1384 1454 906 
Q 1884 428 2741 428 
Q 3075 428 3337 486 
Q 3600 544 3809 666 
z
" transform="scale(0.015625)"/>
      </defs>
      <use xlink:href="#DejaVuSans-47"/>
      <use xlink:href="#DejaVuSans-72" x="77.490234"/>
      <use xlink:href="#DejaVuSans-65" x="116.353516"/>
      <use xlink:href="#DejaVuSans-61" x="177.876953"/>
      <use xlink:href="#DejaVuSans-74" x="239.15625"/>
      <use xlink:href="#DejaVuSans-65" x="278.365234"/>
      <use xlink:href="#DejaVuSans-72" x="339.888672"/>
      <use xlink:href="#DejaVuSans-20" x="381.001953"/>
      <use xlink:href="#DejaVuSans-74" x="412.789062"/>
      <use xlink:href="#DejaVuSans-68" x="451.998047"/>
      <use xlink:href="#DejaVuSans-61" x="515.376953"/>
      <use xlink:href="#DejaVuSans-6e" x="576.65625"/>
      <use xlink:href="#DejaVuSans-20" x="640.035156"/>
      <use xlink:href="#DejaVuSans-57" x="671.822266"/>
      <use xlink:href="#DejaVuSans-54" x="770.699219"/>
      <use xlink:href="#DejaVuSans-20" x="831.783203"/>
      <use xlink:href="#DejaVuSans-4c" x="863.570312"/>
      <use xlink:href="#DejaVuSans-6f" x="917.533203"/>
      <use xlink:href="#DejaVuSans-67" x="978.714844"/>
      <use xlink:href="#DejaVuSans-20" x="1042.191406"/>
      <use xlink:href="#DejaVuSans-46" x="1073.978516"/>
      <use xlink:href="#DejaVuSans-6c" x="1131.498047"/>
      <use xlink:href="#DejaVuSans-75" x="1159.28125"/>
      <use xlink:href="#DejaVuSans-6f" x="1222.660156"/>
      <use xlink:href="#DejaVuSans-72" x="1283.841797"/>
      <use xlink:href="#DejaVuSans-65" x="1322.705078"/>
      <use xlink:href="#DejaVuSans-73" x="1384.228516"/>
      <use xlink:href="#DejaVuSans-63" x="1436.328125"/>
      <use xlink:href="#DejaVuSans-65" x="1491.308594"/>
      <use xlink:href="#DejaVuSans-6e" x="1552.832031"/>
      <use xlink:href="#DejaVuSans-63" x="1616.210938"/>
      <use xlink:href="#DejaVuSans-65" x="1671.191406"/>
     </g>
    </g>
   </g>
  </g>
 </g>
 <defs>
  <clipPath id="p237cee69d1">
   <rect x="54.92" y="14.76" width="374.875" height="374.56"/>
  </clipPath>
  <clipPath id="p7f217dc1c2">
   <rect x="478.325" y="14.76" width="374.875" height="374.56"/>
  </clipPath>
 </defs>
</svg>
