<?xml version="1.0" encoding="utf-8" standalone="no"?>
<!DOCTYPE svg PUBLIC "-//W3C//DTD SVG 1.1//EN"
  "http://www.w3.org/Graphics/SVG/1.1/DTD/svg11.dtd">
<svg xmlns:xlink="http://www.w3.org/1999/xlink" width="432pt" height="432pt" viewBox="0 0 432 432" xmlns="http://www.w3.org/2000/svg" version="1.1">
 <metadata>
  <rdf:RDF xmlns:dc="http://purl.org/dc/elements/1.1/" xmlns:cc="http://creativecommons.org/ns#" xmlns:rdf="http://www.w3.org/1999/02/22-rdf-syntax-ns#">
   <cc:Work>
    <dc:type rdf:resource="http://purl.org/dc/dcmitype/StillImage"/>
    <dc:date>2025-04-02T14:55:22.382431</dc:date>
    <dc:format>image/svg+xml</dc:format>
    <dc:creator>
     <cc:Agent>
      <dc:title>Matplotlib v3.8.0, https://matplotlib.org/</dc:title>
     </cc:Agent>
    </dc:creator>
   </cc:Work>
  </rdf:RDF>
 </metadata>
 <defs>
  <style type="text/css">*{stroke-linejoin: round; stroke-linecap: butt}</style>
 </defs>
 <g id="figure_1">
  <g id="patch_1">
   <path d="M 0 432 
L 432 432 
L 432 0 
L 0 0 
z
" style="fill: #ffffff"/>
  </g>
  <g id="axes_1">
   <g id="patch_2">
    <path d="M 57.8 389.32 
L 421.2 389.32 
L 421.2 10.8 
L 57.8 10.8 
z
" style="fill: #ffffff"/>
   </g>
   <g id="PolyCollection_1">
    <defs>
     <path id="m528ba2400c" d="M 81.155813 -42.689928 
L 81.155813 -42.68 
L 82.781572 -42.68 
L 84.407331 -42.68 
L 86.03309 -42.68 
L 87.658849 -42.68 
L 89.284607 -42.68 
L 90.910366 -42.68 
L 92.536125 -42.68 
L 94.161884 -42.68 
L 95.787643 -42.68 
L 97.413402 -42.68 
L 99.03916 -42.68 
L 100.664919 -42.68 
L 102.290678 -42.68 
L 103.916437 -42.68 
L 105.542196 -42.68 
L 107.167954 -42.68 
L 108.793713 -42.68 
L 110.419472 -42.68 
L 112.045231 -42.68 
L 113.67099 -42.68 
L 115.296749 -42.68 
L 116.922507 -42.68 
L 118.548266 -42.68 
L 120.174025 -42.68 
L 121.799784 -42.68 
L 123.425543 -42.68 
L 125.051301 -42.68 
L 126.67706 -42.68 
L 128.302819 -42.68 
L 129.928578 -42.68 
L 131.554337 -42.68 
L 133.180096 -42.68 
L 134.805854 -42.68 
L 136.431613 -42.68 
L 138.057372 -42.68 
L 139.683131 -42.68 
L 141.30889 -42.68 
L 142.934648 -42.68 
L 144.560407 -42.68 
L 146.186166 -42.68 
L 147.811925 -42.68 
L 149.437684 -42.68 
L 151.063443 -42.68 
L 152.689201 -42.68 
L 154.31496 -42.68 
L 155.940719 -42.68 
L 157.566478 -42.68 
L 159.192237 -42.68 
L 160.817995 -42.68 
L 162.443754 -42.68 
L 164.069513 -42.68 
L 165.695272 -42.68 
L 167.321031 -42.68 
L 168.94679 -42.68 
L 170.572548 -42.68 
L 172.198307 -42.68 
L 173.824066 -42.68 
L 175.449825 -42.68 
L 177.075584 -42.68 
L 178.701342 -42.68 
L 180.327101 -42.68 
L 181.95286 -42.68 
L 183.578619 -42.68 
L 185.204378 -42.68 
L 186.830137 -42.68 
L 188.455895 -42.68 
L 190.081654 -42.68 
L 191.707413 -42.68 
L 193.333172 -42.68 
L 194.958931 -42.68 
L 196.584689 -42.68 
L 198.210448 -42.68 
L 199.836207 -42.68 
L 201.461966 -42.68 
L 203.087725 -42.68 
L 204.713484 -42.68 
L 206.339242 -42.68 
L 207.965001 -42.68 
L 209.59076 -42.68 
L 211.216519 -42.68 
L 212.842278 -42.68 
L 214.468036 -42.68 
L 216.093795 -42.68 
L 217.719554 -42.68 
L 219.345313 -42.68 
L 220.971072 -42.68 
L 222.596831 -42.68 
L 224.222589 -42.68 
L 225.848348 -42.68 
L 227.474107 -42.68 
L 229.099866 -42.68 
L 230.725625 -42.68 
L 232.351383 -42.68 
L 233.977142 -42.68 
L 235.602901 -42.68 
L 237.22866 -42.68 
L 238.854419 -42.68 
L 240.480178 -42.68 
L 242.105936 -42.68 
L 243.731695 -42.68 
L 245.357454 -42.68 
L 246.983213 -42.68 
L 248.608972 -42.68 
L 250.23473 -42.68 
L 251.860489 -42.68 
L 253.486248 -42.68 
L 255.112007 -42.68 
L 256.737766 -42.68 
L 258.363525 -42.68 
L 259.989283 -42.68 
L 261.615042 -42.68 
L 263.240801 -42.68 
L 264.86656 -42.68 
L 266.492319 -42.68 
L 268.118077 -42.68 
L 269.743836 -42.68 
L 271.369595 -42.68 
L 272.995354 -42.68 
L 274.621113 -42.68 
L 276.246872 -42.68 
L 277.87263 -42.68 
L 279.498389 -42.68 
L 281.124148 -42.68 
L 282.749907 -42.68 
L 284.375666 -42.68 
L 286.001424 -42.68 
L 287.627183 -42.68 
L 289.252942 -42.68 
L 290.878701 -42.68 
L 292.50446 -42.68 
L 294.130219 -42.68 
L 295.755977 -42.68 
L 297.381736 -42.68 
L 299.007495 -42.68 
L 300.633254 -42.68 
L 302.259013 -42.68 
L 303.884771 -42.68 
L 305.51053 -42.68 
L 307.136289 -42.68 
L 308.762048 -42.68 
L 310.387807 -42.68 
L 312.013566 -42.68 
L 313.639324 -42.68 
L 315.265083 -42.68 
L 316.890842 -42.68 
L 318.516601 -42.68 
L 320.14236 -42.68 
L 321.768118 -42.68 
L 323.393877 -42.68 
L 325.019636 -42.68 
L 326.645395 -42.68 
L 328.271154 -42.68 
L 329.896913 -42.68 
L 331.522671 -42.68 
L 333.14843 -42.68 
L 334.774189 -42.68 
L 336.399948 -42.68 
L 338.025707 -42.68 
L 339.651465 -42.68 
L 341.277224 -42.68 
L 342.902983 -42.68 
L 344.528742 -42.68 
L 346.154501 -42.68 
L 347.78026 -42.68 
L 349.406018 -42.68 
L 351.031777 -42.68 
L 352.657536 -42.68 
L 354.283295 -42.68 
L 355.909054 -42.68 
L 357.534812 -42.68 
L 359.160571 -42.68 
L 360.78633 -42.68 
L 362.412089 -42.68 
L 364.037848 -42.68 
L 365.663607 -42.68 
L 367.289365 -42.68 
L 368.915124 -42.68 
L 370.540883 -42.68 
L 372.166642 -42.68 
L 373.792401 -42.68 
L 375.418159 -42.68 
L 377.043918 -42.68 
L 378.669677 -42.68 
L 380.295436 -42.68 
L 381.921195 -42.68 
L 383.546954 -42.68 
L 385.172712 -42.68 
L 386.798471 -42.68 
L 388.42423 -42.68 
L 390.049989 -42.68 
L 391.675748 -42.68 
L 393.301506 -42.68 
L 394.927265 -42.68 
L 396.553024 -42.68 
L 398.178783 -42.68 
L 399.804542 -42.68 
L 401.430301 -42.68 
L 403.056059 -42.68 
L 404.681818 -42.68 
L 404.681818 -42.691658 
L 404.681818 -42.691658 
L 403.056059 -42.698095 
L 401.430301 -42.70752 
L 399.804542 -42.721015 
L 398.178783 -42.739906 
L 396.553024 -42.765761 
L 394.927265 -42.800352 
L 393.301506 -42.845592 
L 391.675748 -42.90343 
L 390.049989 -42.975723 
L 388.42423 -43.064078 
L 386.798471 -43.169714 
L 385.172712 -43.293349 
L 383.546954 -43.43516 
L 381.921195 -43.594852 
L 380.295436 -43.771866 
L 378.669677 -43.965735 
L 377.043918 -44.176593 
L 375.418159 -44.405796 
L 373.792401 -44.656596 
L 372.166642 -44.934779 
L 370.540883 -45.24918 
L 368.915124 -45.611939 
L 367.289365 -46.038448 
L 365.663607 -46.546904 
L 364.037848 -47.157469 
L 362.412089 -47.891097 
L 360.78633 -48.768121 
L 359.160571 -49.806783 
L 357.534812 -51.021893 
L 355.909054 -52.423834 
L 354.283295 -54.018106 
L 352.657536 -55.805545 
L 351.031777 -57.783284 
L 349.406018 -59.94641 
L 347.78026 -62.290182 
L 346.154501 -64.812567 
L 344.528742 -67.516763 
L 342.902983 -70.413378 
L 341.277224 -73.521894 
L 339.651465 -76.871144 
L 338.025707 -80.498605 
L 336.399948 -84.44846 
L 334.774189 -88.768528 
L 333.14843 -93.506301 
L 331.522671 -98.70444 
L 329.896913 -104.396164 
L 328.271154 -110.600953 
L 326.645395 -117.320971 
L 325.019636 -124.538494 
L 323.393877 -132.214535 
L 321.768118 -140.288726 
L 320.14236 -148.680392 
L 318.516601 -157.290726 
L 316.890842 -166.005893 
L 315.265083 -174.700939 
L 313.639324 -183.244362 
L 312.013566 -191.50326 
L 310.387807 -199.348907 
L 308.762048 -206.662602 
L 307.136289 -213.34151 
L 305.51053 -219.304141 
L 303.884771 -224.494982 
L 302.259013 -228.887825 
L 300.633254 -232.487304 
L 299.007495 -235.328361 
L 297.381736 -237.47353 
L 295.755977 -239.00822 
L 294.130219 -240.034411 
L 292.50446 -240.663397 
L 290.878701 -241.008287 
L 289.252942 -241.176965 
L 287.627183 -241.266067 
L 286.001424 -241.356342 
L 284.375666 -241.509521 
L 282.749907 -241.766625 
L 281.124148 -242.147533 
L 279.498389 -242.651553 
L 277.87263 -243.258829 
L 276.246872 -243.932464 
L 274.621113 -244.621354 
L 272.995354 -245.263769 
L 271.369595 -245.791688 
L 269.743836 -246.135824 
L 268.118077 -246.231093 
L 266.492319 -246.022134 
L 264.86656 -245.468315 
L 263.240801 -244.547629 
L 261.615042 -243.258885 
L 259.989283 -241.621769 
L 258.363525 -239.674617 
L 256.737766 -237.470038 
L 255.112007 -235.068865 
L 253.486248 -232.533183 
L 251.860489 -229.919358 
L 250.23473 -227.272001 
L 248.608972 -224.619702 
L 246.983213 -221.973081 
L 245.357454 -219.325377 
L 243.731695 -216.655376 
L 242.105936 -213.932156 
L 240.480178 -211.120841 
L 238.854419 -208.188482 
L 237.22866 -205.109182 
L 235.602901 -201.867792 
L 233.977142 -198.461799 
L 232.351383 -194.901318 
L 230.725625 -191.207437 
L 229.099866 -187.409388 
L 227.474107 -183.541104 
L 225.848348 -179.637761 
L 224.222589 -175.732775 
L 222.596831 -171.855565 
L 220.971072 -168.030207 
L 219.345313 -164.274913 
L 217.719554 -160.602178 
L 216.093795 -157.019358 
L 214.468036 -153.52945 
L 212.842278 -150.131919 
L 211.216519 -146.82346 
L 209.59076 -143.598706 
L 207.965001 -140.450902 
L 206.339242 -137.372617 
L 204.713484 -134.356551 
L 203.087725 -131.396417 
L 201.461966 -128.487869 
L 199.836207 -125.629337 
L 198.210448 -122.822632 
L 196.584689 -120.073172 
L 194.958931 -117.389697 
L 193.333172 -114.783444 
L 191.707413 -112.266819 
L 190.081654 -109.851711 
L 188.455895 -107.547658 
L 186.830137 -105.360136 
L 185.204378 -103.289218 
L 183.578619 -101.328814 
L 181.95286 -99.466614 
L 180.327101 -97.68474 
L 178.701342 -95.961024 
L 177.075584 -94.27073 
L 175.449825 -92.58849 
L 173.824066 -90.890235 
L 172.198307 -89.154914 
L 170.572548 -87.365869 
L 168.94679 -85.511817 
L 167.321031 -83.587413 
L 165.695272 -81.593465 
L 164.069513 -79.53683 
L 162.443754 -77.430042 
L 160.817995 -75.290688 
L 159.192237 -73.140526 
L 157.566478 -71.004323 
L 155.940719 -68.908431 
L 154.31496 -66.879139 
L 152.689201 -64.940904 
L 151.063443 -63.114609 
L 149.437684 -61.416059 
L 147.811925 -59.854876 
L 146.186166 -58.433979 
L 144.560407 -57.149725 
L 142.934648 -55.992703 
L 141.30889 -54.949082 
L 139.683131 -54.002336 
L 138.057372 -53.135098 
L 136.431613 -52.330905 
L 134.805854 -51.575625 
L 133.180096 -50.858401 
L 131.554337 -50.17206 
L 129.928578 -49.512997 
L 128.302819 -48.880629 
L 126.67706 -48.276564 
L 125.051301 -47.703648 
L 123.425543 -47.165047 
L 121.799784 -46.663491 
L 120.174025 -46.200751 
L 118.548266 -45.777391 
L 116.922507 -45.39276 
L 115.296749 -45.045185 
L 113.67099 -44.732279 
L 112.045231 -44.451287 
L 110.419472 -44.199415 
L 108.793713 -43.97407 
L 107.167954 -43.773006 
L 105.542196 -43.594364 
L 103.916437 -43.436632 
L 102.290678 -43.298537 
L 100.664919 -43.178932 
L 99.03916 -43.07667 
L 97.413402 -42.990527 
L 95.787643 -42.919149 
L 94.161884 -42.861054 
L 92.536125 -42.814657 
L 90.910366 -42.778332 
L 89.284607 -42.750468 
L 87.658849 -42.72954 
L 86.03309 -42.714153 
L 84.407331 -42.703084 
L 82.781572 -42.695292 
L 81.155813 -42.689928 
z
" style="stroke: #bdbdbd; stroke-width: 2.5"/>
    </defs>
    <g clip-path="url(#p8e62797495)">
     <use xlink:href="#m528ba2400c" x="0" y="432" style="fill: #bdbdbd; fill-opacity: 0.5; stroke: #bdbdbd; stroke-width: 2.5"/>
    </g>
   </g>
   <g id="PolyCollection_2">
    <defs>
     <path id="ma4df56a6f1" d="M 103.932751 -42.693014 
L 103.932751 -42.68 
L 105.264015 -42.68 
L 106.595278 -42.68 
L 107.926542 -42.68 
L 109.257806 -42.68 
L 110.589069 -42.68 
L 111.920333 -42.68 
L 113.251596 -42.68 
L 114.58286 -42.68 
L 115.914123 -42.68 
L 117.245387 -42.68 
L 118.576651 -42.68 
L 119.907914 -42.68 
L 121.239178 -42.68 
L 122.570441 -42.68 
L 123.901705 -42.68 
L 125.232969 -42.68 
L 126.564232 -42.68 
L 127.895496 -42.68 
L 129.226759 -42.68 
L 130.558023 -42.68 
L 131.889286 -42.68 
L 133.22055 -42.68 
L 134.551814 -42.68 
L 135.883077 -42.68 
L 137.214341 -42.68 
L 138.545604 -42.68 
L 139.876868 -42.68 
L 141.208132 -42.68 
L 142.539395 -42.68 
L 143.870659 -42.68 
L 145.201922 -42.68 
L 146.533186 -42.68 
L 147.864449 -42.68 
L 149.195713 -42.68 
L 150.526977 -42.68 
L 151.85824 -42.68 
L 153.189504 -42.68 
L 154.520767 -42.68 
L 155.852031 -42.68 
L 157.183294 -42.68 
L 158.514558 -42.68 
L 159.845822 -42.68 
L 161.177085 -42.68 
L 162.508349 -42.68 
L 163.839612 -42.68 
L 165.170876 -42.68 
L 166.50214 -42.68 
L 167.833403 -42.68 
L 169.164667 -42.68 
L 170.49593 -42.68 
L 171.827194 -42.68 
L 173.158457 -42.68 
L 174.489721 -42.68 
L 175.820985 -42.68 
L 177.152248 -42.68 
L 178.483512 -42.68 
L 179.814775 -42.68 
L 181.146039 -42.68 
L 182.477303 -42.68 
L 183.808566 -42.68 
L 185.13983 -42.68 
L 186.471093 -42.68 
L 187.802357 -42.68 
L 189.13362 -42.68 
L 190.464884 -42.68 
L 191.796148 -42.68 
L 193.127411 -42.68 
L 194.458675 -42.68 
L 195.789938 -42.68 
L 197.121202 -42.68 
L 198.452466 -42.68 
L 199.783729 -42.68 
L 201.114993 -42.68 
L 202.446256 -42.68 
L 203.77752 -42.68 
L 205.108783 -42.68 
L 206.440047 -42.68 
L 207.771311 -42.68 
L 209.102574 -42.68 
L 210.433838 -42.68 
L 211.765101 -42.68 
L 213.096365 -42.68 
L 214.427628 -42.68 
L 215.758892 -42.68 
L 217.090156 -42.68 
L 218.421419 -42.68 
L 219.752683 -42.68 
L 221.083946 -42.68 
L 222.41521 -42.68 
L 223.746474 -42.68 
L 225.077737 -42.68 
L 226.409001 -42.68 
L 227.740264 -42.68 
L 229.071528 -42.68 
L 230.402791 -42.68 
L 231.734055 -42.68 
L 233.065319 -42.68 
L 234.396582 -42.68 
L 235.727846 -42.68 
L 237.059109 -42.68 
L 238.390373 -42.68 
L 239.721637 -42.68 
L 241.0529 -42.68 
L 242.384164 -42.68 
L 243.715427 -42.68 
L 245.046691 -42.68 
L 246.377954 -42.68 
L 247.709218 -42.68 
L 249.040482 -42.68 
L 250.371745 -42.68 
L 251.703009 -42.68 
L 253.034272 -42.68 
L 254.365536 -42.68 
L 255.6968 -42.68 
L 257.028063 -42.68 
L 258.359327 -42.68 
L 259.69059 -42.68 
L 261.021854 -42.68 
L 262.353117 -42.68 
L 263.684381 -42.68 
L 265.015645 -42.68 
L 266.346908 -42.68 
L 267.678172 -42.68 
L 269.009435 -42.68 
L 270.340699 -42.68 
L 271.671962 -42.68 
L 273.003226 -42.68 
L 274.33449 -42.68 
L 275.665753 -42.68 
L 276.997017 -42.68 
L 278.32828 -42.68 
L 279.659544 -42.68 
L 280.990808 -42.68 
L 282.322071 -42.68 
L 283.653335 -42.68 
L 284.984598 -42.68 
L 286.315862 -42.68 
L 287.647125 -42.68 
L 288.978389 -42.68 
L 290.309653 -42.68 
L 291.640916 -42.68 
L 292.97218 -42.68 
L 294.303443 -42.68 
L 295.634707 -42.68 
L 296.965971 -42.68 
L 298.297234 -42.68 
L 299.628498 -42.68 
L 300.959761 -42.68 
L 302.291025 -42.68 
L 303.622288 -42.68 
L 304.953552 -42.68 
L 306.284816 -42.68 
L 307.616079 -42.68 
L 308.947343 -42.68 
L 310.278606 -42.68 
L 311.60987 -42.68 
L 312.941134 -42.68 
L 314.272397 -42.68 
L 315.603661 -42.68 
L 316.934924 -42.68 
L 318.266188 -42.68 
L 319.597451 -42.68 
L 320.928715 -42.68 
L 322.259979 -42.68 
L 323.591242 -42.68 
L 324.922506 -42.68 
L 326.253769 -42.68 
L 327.585033 -42.68 
L 328.916296 -42.68 
L 330.24756 -42.68 
L 331.578824 -42.68 
L 332.910087 -42.68 
L 334.241351 -42.68 
L 335.572614 -42.68 
L 336.903878 -42.68 
L 338.235142 -42.68 
L 339.566405 -42.68 
L 340.897669 -42.68 
L 342.228932 -42.68 
L 343.560196 -42.68 
L 344.891459 -42.68 
L 346.222723 -42.68 
L 347.553987 -42.68 
L 348.88525 -42.68 
L 350.216514 -42.68 
L 351.547777 -42.68 
L 352.879041 -42.68 
L 354.210305 -42.68 
L 355.541568 -42.68 
L 356.872832 -42.68 
L 358.204095 -42.68 
L 359.535359 -42.68 
L 360.866622 -42.68 
L 362.197886 -42.68 
L 363.52915 -42.68 
L 364.860413 -42.68 
L 366.191677 -42.68 
L 367.52294 -42.68 
L 368.854204 -42.68 
L 368.854204 -42.696022 
L 368.854204 -42.696022 
L 367.52294 -42.706565 
L 366.191677 -42.723169 
L 364.860413 -42.748821 
L 363.52915 -42.787733 
L 362.197886 -42.845773 
L 360.866622 -42.931 
L 359.535359 -43.054366 
L 358.204095 -43.230592 
L 356.872832 -43.479262 
L 355.541568 -43.826136 
L 354.210305 -44.304656 
L 352.879041 -44.957578 
L 351.547777 -45.83859 
L 350.216514 -47.013699 
L 348.88525 -48.562124 
L 347.553987 -50.576359 
L 346.222723 -53.161092 
L 344.891459 -56.430725 
L 343.560196 -60.505336 
L 342.228932 -65.505155 
L 340.897669 -71.543805 
L 339.566405 -78.720819 
L 338.235142 -87.114124 
L 336.903878 -96.773279 
L 335.572614 -107.714251 
L 334.241351 -119.916354 
L 332.910087 -133.321702 
L 331.578824 -147.837181 
L 330.24756 -163.338564 
L 328.916296 -179.676087 
L 327.585033 -196.680612 
L 326.253769 -214.169498 
L 324.922506 -231.951461 
L 323.591242 -249.830023 
L 322.259979 -267.605536 
L 320.928715 -285.076127 
L 319.597451 -302.038199 
L 318.266188 -318.287195 
L 316.934924 -333.619296 
L 315.603661 -347.834495 
L 314.272397 -360.7412 
L 312.941134 -372.162236 
L 311.60987 -381.941873 
L 310.278606 -389.95333 
L 308.947343 -396.106116 
L 307.616079 -400.35248 
L 306.284816 -402.692245 
L 304.953552 -403.175238 
L 303.622288 -401.900649 
L 302.291025 -399.012809 
L 300.959761 -394.693294 
L 299.628498 -389.149728 
L 298.297234 -382.602335 
L 296.965971 -375.269739 
L 295.634707 -367.355898 
L 294.303443 -359.039945 
L 292.97218 -350.470335 
L 291.640916 -341.763882 
L 290.309653 -333.009383 
L 288.978389 -324.274647 
L 287.647125 -315.615168 
L 286.315862 -307.082462 
L 284.984598 -298.730354 
L 283.653335 -290.618035 
L 282.322071 -282.80951 
L 280.990808 -275.369774 
L 279.659544 -268.358666 
L 278.32828 -261.823717 
L 276.997017 -255.793345 
L 275.665753 -250.271662 
L 274.33449 -245.235792 
L 273.003226 -240.636231 
L 271.671962 -236.400347 
L 270.340699 -232.438681 
L 269.009435 -228.65336 
L 267.678172 -224.947595 
L 266.346908 -221.235099 
L 265.015645 -217.448169 
L 263.684381 -213.543371 
L 262.353117 -209.504014 
L 261.021854 -205.33912 
L 259.69059 -201.079056 
L 258.359327 -196.768564 
L 257.028063 -192.458277 
L 255.6968 -188.196067 
L 254.365536 -184.019543 
L 253.034272 -179.950789 
L 251.703009 -175.994035 
L 250.371745 -172.136428 
L 249.040482 -168.35158 
L 247.709218 -164.60513 
L 246.377954 -160.861276 
L 245.046691 -157.089192 
L 243.715427 -153.268296 
L 242.384164 -149.391673 
L 241.0529 -145.467243 
L 239.721637 -141.516724 
L 238.390373 -137.572718 
L 237.059109 -133.674534 
L 235.727846 -129.863455 
L 234.396582 -126.178135 
L 233.065319 -122.650703 
L 231.734055 -119.303921 
L 230.402791 -116.14953 
L 229.071528 -113.187747 
L 227.740264 -110.407694 
L 226.409001 -107.788538 
L 225.077737 -105.301117 
L 223.746474 -102.909907 
L 222.41521 -100.575303 
L 221.083946 -98.256226 
L 219.752683 -95.913094 
L 218.421419 -93.511139 
L 217.090156 -91.023925 
L 215.758892 -88.43676 
L 214.427628 -85.74956 
L 213.096365 -82.978644 
L 211.765101 -80.156966 
L 210.433838 -77.332418 
L 209.102574 -74.564148 
L 207.771311 -71.917098 
L 206.440047 -69.455365 
L 205.108783 -67.235215 
L 203.77752 -65.298728 
L 202.446256 -63.669002 
L 201.114993 -62.34765 
L 199.783729 -61.314952 
L 198.452466 -60.532611 
L 197.121202 -59.94866 
L 195.789938 -59.503729 
L 194.458675 -59.137738 
L 193.127411 -58.796032 
L 191.796148 -58.43421 
L 190.464884 -58.0211 
L 189.13362 -57.539733 
L 187.802357 -56.986461 
L 186.471093 -56.368634 
L 185.13983 -55.701393 
L 183.808566 -55.004205 
L 182.477303 -54.29765 
L 181.146039 -53.600863 
L 179.814775 -52.929835 
L 178.483512 -52.296577 
L 177.152248 -51.709038 
L 175.820985 -51.171529 
L 174.489721 -50.685401 
L 173.158457 -50.249741 
L 171.827194 -49.861919 
L 170.49593 -49.517902 
L 169.164667 -49.212364 
L 167.833403 -48.938676 
L 166.50214 -48.688913 
L 165.170876 -48.454001 
L 163.839612 -48.224113 
L 162.508349 -47.989324 
L 161.177085 -47.740479 
L 159.845822 -47.470163 
L 158.514558 -47.173604 
L 157.183294 -46.849345 
L 155.852031 -46.499554 
L 154.520767 -46.129913 
L 153.189504 -45.749081 
L 151.85824 -45.36782 
L 150.526977 -44.997921 
L 149.195713 -44.651083 
L 147.864449 -44.337886 
L 146.533186 -44.066969 
L 145.201922 -43.844469 
L 143.870659 -43.673721 
L 142.539395 -43.555194 
L 141.208132 -43.486611 
L 139.876868 -43.463196 
L 138.545604 -43.478027 
L 137.214341 -43.522473 
L 135.883077 -43.586713 
L 134.551814 -43.660349 
L 133.22055 -43.733078 
L 131.889286 -43.795422 
L 130.558023 -43.839426 
L 129.226759 -43.859245 
L 127.895496 -43.851564 
L 126.564232 -43.815748 
L 125.232969 -43.753717 
L 123.901705 -43.669546 
L 122.570441 -43.568855 
L 121.239178 -43.458076 
L 119.907914 -43.34371 
L 118.576651 -43.231674 
L 117.245387 -43.12681 
L 115.914123 -43.03261 
L 114.58286 -42.95114 
L 113.251596 -42.88315 
L 111.920333 -42.828308 
L 110.589069 -42.785496 
L 109.257806 -42.753119 
L 107.926542 -42.729379 
L 106.595278 -42.712492 
L 105.264015 -42.700832 
L 103.932751 -42.693014 
z
" style="stroke: #92c5de; stroke-width: 2.5"/>
    </defs>
    <g clip-path="url(#p8e62797495)">
     <use xlink:href="#ma4df56a6f1" x="0" y="432" style="fill: #92c5de; fill-opacity: 0.5; stroke: #92c5de; stroke-width: 2.5"/>
    </g>
   </g>
   <g id="PolyCollection_3">
    <defs>
     <path id="m90116d5a22" d="M 74.318182 -42.690349 
L 74.318182 -42.68 
L 75.888745 -42.68 
L 77.459309 -42.68 
L 79.029872 -42.68 
L 80.600436 -42.68 
L 82.171 -42.68 
L 83.741563 -42.68 
L 85.312127 -42.68 
L 86.88269 -42.68 
L 88.453254 -42.68 
L 90.023817 -42.68 
L 91.594381 -42.68 
L 93.164944 -42.68 
L 94.735508 -42.68 
L 96.306071 -42.68 
L 97.876635 -42.68 
L 99.447199 -42.68 
L 101.017762 -42.68 
L 102.588326 -42.68 
L 104.158889 -42.68 
L 105.729453 -42.68 
L 107.300016 -42.68 
L 108.87058 -42.68 
L 110.441143 -42.68 
L 112.011707 -42.68 
L 113.58227 -42.68 
L 115.152834 -42.68 
L 116.723398 -42.68 
L 118.293961 -42.68 
L 119.864525 -42.68 
L 121.435088 -42.68 
L 123.005652 -42.68 
L 124.576215 -42.68 
L 126.146779 -42.68 
L 127.717342 -42.68 
L 129.287906 -42.68 
L 130.858469 -42.68 
L 132.429033 -42.68 
L 133.999597 -42.68 
L 135.57016 -42.68 
L 137.140724 -42.68 
L 138.711287 -42.68 
L 140.281851 -42.68 
L 141.852414 -42.68 
L 143.422978 -42.68 
L 144.993541 -42.68 
L 146.564105 -42.68 
L 148.134668 -42.68 
L 149.705232 -42.68 
L 151.275796 -42.68 
L 152.846359 -42.68 
L 154.416923 -42.68 
L 155.987486 -42.68 
L 157.55805 -42.68 
L 159.128613 -42.68 
L 160.699177 -42.68 
L 162.26974 -42.68 
L 163.840304 -42.68 
L 165.410867 -42.68 
L 166.981431 -42.68 
L 168.551995 -42.68 
L 170.122558 -42.68 
L 171.693122 -42.68 
L 173.263685 -42.68 
L 174.834249 -42.68 
L 176.404812 -42.68 
L 177.975376 -42.68 
L 179.545939 -42.68 
L 181.116503 -42.68 
L 182.687066 -42.68 
L 184.25763 -42.68 
L 185.828194 -42.68 
L 187.398757 -42.68 
L 188.969321 -42.68 
L 190.539884 -42.68 
L 192.110448 -42.68 
L 193.681011 -42.68 
L 195.251575 -42.68 
L 196.822138 -42.68 
L 198.392702 -42.68 
L 199.963265 -42.68 
L 201.533829 -42.68 
L 203.104392 -42.68 
L 204.674956 -42.68 
L 206.24552 -42.68 
L 207.816083 -42.68 
L 209.386647 -42.68 
L 210.95721 -42.68 
L 212.527774 -42.68 
L 214.098337 -42.68 
L 215.668901 -42.68 
L 217.239464 -42.68 
L 218.810028 -42.68 
L 220.380591 -42.68 
L 221.951155 -42.68 
L 223.521719 -42.68 
L 225.092282 -42.68 
L 226.662846 -42.68 
L 228.233409 -42.68 
L 229.803973 -42.68 
L 231.374536 -42.68 
L 232.9451 -42.68 
L 234.515663 -42.68 
L 236.086227 -42.68 
L 237.65679 -42.68 
L 239.227354 -42.68 
L 240.797918 -42.68 
L 242.368481 -42.68 
L 243.939045 -42.68 
L 245.509608 -42.68 
L 247.080172 -42.68 
L 248.650735 -42.68 
L 250.221299 -42.68 
L 251.791862 -42.68 
L 253.362426 -42.68 
L 254.932989 -42.68 
L 256.503553 -42.68 
L 258.074117 -42.68 
L 259.64468 -42.68 
L 261.215244 -42.68 
L 262.785807 -42.68 
L 264.356371 -42.68 
L 265.926934 -42.68 
L 267.497498 -42.68 
L 269.068061 -42.68 
L 270.638625 -42.68 
L 272.209188 -42.68 
L 273.779752 -42.68 
L 275.350316 -42.68 
L 276.920879 -42.68 
L 278.491443 -42.68 
L 280.062006 -42.68 
L 281.63257 -42.68 
L 283.203133 -42.68 
L 284.773697 -42.68 
L 286.34426 -42.68 
L 287.914824 -42.68 
L 289.485387 -42.68 
L 291.055951 -42.68 
L 292.626515 -42.68 
L 294.197078 -42.68 
L 295.767642 -42.68 
L 297.338205 -42.68 
L 298.908769 -42.68 
L 300.479332 -42.68 
L 302.049896 -42.68 
L 303.620459 -42.68 
L 305.191023 -42.68 
L 306.761586 -42.68 
L 308.33215 -42.68 
L 309.902714 -42.68 
L 311.473277 -42.68 
L 313.043841 -42.68 
L 314.614404 -42.68 
L 316.184968 -42.68 
L 317.755531 -42.68 
L 319.326095 -42.68 
L 320.896658 -42.68 
L 322.467222 -42.68 
L 324.037785 -42.68 
L 325.608349 -42.68 
L 327.178913 -42.68 
L 328.749476 -42.68 
L 330.32004 -42.68 
L 331.890603 -42.68 
L 333.461167 -42.68 
L 335.03173 -42.68 
L 336.602294 -42.68 
L 338.172857 -42.68 
L 339.743421 -42.68 
L 341.313984 -42.68 
L 342.884548 -42.68 
L 344.455112 -42.68 
L 346.025675 -42.68 
L 347.596239 -42.68 
L 349.166802 -42.68 
L 350.737366 -42.68 
L 352.307929 -42.68 
L 353.878493 -42.68 
L 355.449056 -42.68 
L 357.01962 -42.68 
L 358.590183 -42.68 
L 360.160747 -42.68 
L 361.731311 -42.68 
L 363.301874 -42.68 
L 364.872438 -42.68 
L 366.443001 -42.68 
L 368.013565 -42.68 
L 369.584128 -42.68 
L 371.154692 -42.68 
L 372.725255 -42.68 
L 374.295819 -42.68 
L 375.866382 -42.68 
L 377.436946 -42.68 
L 379.00751 -42.68 
L 380.578073 -42.68 
L 382.148637 -42.68 
L 383.7192 -42.68 
L 385.289764 -42.68 
L 386.860327 -42.68 
L 386.860327 -42.690317 
L 386.860327 -42.690317 
L 385.289764 -42.696031 
L 383.7192 -42.704353 
L 382.148637 -42.716166 
L 380.578073 -42.732507 
L 379.00751 -42.754529 
L 377.436946 -42.783431 
L 375.866382 -42.820351 
L 374.295819 -42.86624 
L 372.725255 -42.921706 
L 371.154692 -42.986873 
L 369.584128 -43.06127 
L 368.013565 -43.143787 
L 366.443001 -43.232748 
L 364.872438 -43.326113 
L 363.301874 -43.421843 
L 361.731311 -43.518435 
L 360.160747 -43.615586 
L 358.590183 -43.714979 
L 357.01962 -43.821096 
L 355.449056 -43.942017 
L 353.878493 -44.090106 
L 352.307929 -44.282523 
L 350.737366 -44.5415 
L 349.166802 -44.894342 
L 347.596239 -45.373131 
L 346.025675 -46.014146 
L 344.455112 -46.857021 
L 342.884548 -47.943689 
L 341.313984 -49.317169 
L 339.743421 -51.020258 
L 338.172857 -53.094188 
L 336.602294 -55.577299 
L 335.03173 -58.503759 
L 333.461167 -61.902345 
L 331.890603 -65.795294 
L 330.32004 -70.197211 
L 328.749476 -75.11403 
L 327.178913 -80.54207 
L 325.608349 -86.467196 
L 324.037785 -92.864211 
L 322.467222 -99.696559 
L 320.896658 -106.916471 
L 319.326095 -114.465668 
L 317.755531 -122.276684 
L 316.184968 -130.274831 
L 314.614404 -138.380752 
L 313.043841 -146.513438 
L 311.473277 -154.593547 
L 309.902714 -162.546804 
L 308.33215 -170.307282 
L 306.761586 -177.820339 
L 305.191023 -185.045036 
L 303.620459 -191.955851 
L 302.049896 -198.543555 
L 300.479332 -204.815107 
L 298.908769 -210.792484 
L 297.338205 -216.510385 
L 295.767642 -222.012823 
L 294.197078 -227.34872 
L 292.626515 -232.566738 
L 291.055951 -237.709709 
L 289.485387 -242.809172 
L 287.914824 -247.880574 
L 286.34426 -252.919747 
L 284.773697 -257.901189 
L 283.203133 -262.77851 
L 281.63257 -267.487171 
L 280.062006 -271.949326 
L 278.491443 -276.080263 
L 276.920879 -279.795686 
L 275.350316 -283.018898 
L 273.779752 -285.686917 
L 272.209188 -287.754712 
L 270.638625 -289.19701 
L 269.068061 -290.007525 
L 267.497498 -290.195912 
L 265.926934 -289.783101 
L 264.356371 -288.795985 
L 262.785807 -287.262515 
L 261.215244 -285.208141 
L 259.64468 -282.654293 
L 258.074117 -279.619123 
L 256.503553 -276.120301 
L 254.932989 -272.179207 
L 253.362426 -267.825567 
L 251.791862 -263.101491 
L 250.221299 -258.063922 
L 248.650735 -252.784845 
L 247.080172 -247.348939 
L 245.509608 -241.848857 
L 243.939045 -236.378664 
L 242.368481 -231.026305 
L 240.797918 -225.866092 
L 239.227354 -220.952203 
L 237.65679 -216.31406 
L 236.086227 -211.954201 
L 234.515663 -207.848942 
L 232.9451 -203.951832 
L 231.374536 -200.199532 
L 229.803973 -196.519506 
L 228.233409 -192.838655 
L 226.662846 -189.091933 
L 225.092282 -185.229923 
L 223.521719 -181.224503 
L 221.951155 -177.071936 
L 220.380591 -172.793036 
L 218.810028 -168.430471 
L 217.239464 -164.043582 
L 215.668901 -159.70148 
L 214.098337 -155.475312 
L 212.527774 -151.430699 
L 210.95721 -147.621242 
L 209.386647 -144.083786 
L 207.816083 -140.835842 
L 206.24552 -137.875235 
L 204.674956 -135.181764 
L 203.104392 -132.720407 
L 201.533829 -130.445475 
L 199.963265 -128.305102 
L 198.392702 -126.245523 
L 196.822138 -124.214733 
L 195.251575 -122.165323 
L 193.681011 -120.05645 
L 192.110448 -117.85508 
L 190.539884 -115.536672 
L 188.969321 -113.085557 
L 187.398757 -110.495152 
L 185.828194 -107.768091 
L 184.25763 -104.916253 
L 182.687066 -101.960562 
L 181.116503 -98.930416 
L 179.545939 -95.862586 
L 177.975376 -92.799517 
L 176.404812 -89.787048 
L 174.834249 -86.871658 
L 173.263685 -84.09747 
L 171.693122 -81.503289 
L 170.122558 -79.119969 
L 168.551995 -76.968383 
L 166.981431 -75.058218 
L 165.410867 -73.387695 
L 163.840304 -71.944263 
L 162.26974 -70.706155 
L 160.699177 -69.644654 
L 159.128613 -68.726802 
L 157.55805 -67.918271 
L 155.987486 -67.18608 
L 154.416923 -66.500895 
L 152.846359 -65.838671 
L 151.275796 -65.181527 
L 149.705232 -64.517818 
L 148.134668 -63.841479 
L 146.564105 -63.15082 
L 144.993541 -62.446988 
L 143.422978 -61.732363 
L 141.852414 -61.009123 
L 140.281851 -60.278179 
L 138.711287 -59.538601 
L 137.140724 -58.787578 
L 135.57016 -58.020876 
L 133.999597 -57.23368 
L 132.429033 -56.421671 
L 130.858469 -55.582134 
L 129.287906 -54.714946 
L 127.717342 -53.823252 
L 126.146779 -52.91374 
L 124.576215 -51.996456 
L 123.005652 -51.084166 
L 121.435088 -50.191343 
L 119.864525 -49.332906 
L 118.293961 -48.52288 
L 116.723398 -47.773145 
L 115.152834 -47.092443 
L 113.58227 -46.485755 
L 112.011707 -45.954125 
L 110.441143 -45.494925 
L 108.87058 -45.102495 
L 107.300016 -44.769041 
L 105.729453 -44.485658 
L 104.158889 -44.243313 
L 102.588326 -44.033683 
L 101.017762 -43.849738 
L 99.447199 -43.686055 
L 97.876635 -43.538852 
L 96.306071 -43.405807 
L 94.735508 -43.285733 
L 93.164944 -43.178186 
L 91.594381 -43.083083 
L 90.023817 -43.000387 
L 88.453254 -42.929887 
L 86.88269 -42.87108 
L 85.312127 -42.82315 
L 83.741563 -42.785013 
L 82.171 -42.755403 
L 80.600436 -42.732979 
L 79.029872 -42.716415 
L 77.459309 -42.704482 
L 75.888745 -42.696096 
L 74.318182 -42.690349 
z
" style="stroke: #2166ac; stroke-width: 2.5"/>
    </defs>
    <g clip-path="url(#p8e62797495)">
     <use xlink:href="#m90116d5a22" x="0" y="432" style="fill: #2166ac; fill-opacity: 0.5; stroke: #2166ac; stroke-width: 2.5"/>
    </g>
   </g>
   <g id="matplotlib.axis_1">
    <g id="xtick_1">
     <g id="line2d_1">
      <defs>
       <path id="m0f87817214" d="M 0 0 
L 0 3.5 
" style="stroke: #000000; stroke-width: 0.8"/>
      </defs>
      <g>
       <use xlink:href="#m0f87817214" x="94.732788" y="389.32" style="stroke: #000000; stroke-width: 0.8"/>
      </g>
     </g>
     <g id="text_1">
      <!-- −6 -->
      <g transform="translate(87.361695 403.918437) scale(0.1 -0.1)">
       <defs>
        <path id="DejaVuSans-2212" d="M 678 2272 
L 4684 2272 
L 4684 1741 
L 678 1741 
L 678 2272 
z
" transform="scale(0.015625)"/>
        <path id="DejaVuSans-36" d="M 2113 2584 
Q 1688 2584 1439 2293 
Q 1191 2003 1191 1497 
Q 1191 994 1439 701 
Q 1688 409 2113 409 
Q 2538 409 2786 701 
Q 3034 994 3034 1497 
Q 3034 2003 2786 2293 
Q 2538 2584 2113 2584 
z
M 3366 4563 
L 3366 3988 
Q 3128 4100 2886 4159 
Q 2644 4219 2406 4219 
Q 1781 4219 1451 3797 
Q 1122 3375 1075 2522 
Q 1259 2794 1537 2939 
Q 1816 3084 2150 3084 
Q 2853 3084 3261 2657 
Q 3669 2231 3669 1497 
Q 3669 778 3244 343 
Q 2819 -91 2113 -91 
Q 1303 -91 875 529 
Q 447 1150 447 2328 
Q 447 3434 972 4092 
Q 1497 4750 2381 4750 
Q 2619 4750 2861 4703 
Q 3103 4656 3366 4563 
z
" transform="scale(0.015625)"/>
       </defs>
       <use xlink:href="#DejaVuSans-2212"/>
       <use xlink:href="#DejaVuSans-36" x="83.789062"/>
      </g>
     </g>
    </g>
    <g id="xtick_2">
     <g id="line2d_2">
      <g>
       <use xlink:href="#m0f87817214" x="136.418592" y="389.32" style="stroke: #000000; stroke-width: 0.8"/>
      </g>
     </g>
     <g id="text_2">
      <!-- −4 -->
      <g transform="translate(129.047498 403.918437) scale(0.1 -0.1)">
       <defs>
        <path id="DejaVuSans-34" d="M 2419 4116 
L 825 1625 
L 2419 1625 
L 2419 4116 
z
M 2253 4666 
L 3047 4666 
L 3047 1625 
L 3713 1625 
L 3713 1100 
L 3047 1100 
L 3047 0 
L 2419 0 
L 2419 1100 
L 313 1100 
L 313 1709 
L 2253 4666 
z
" transform="scale(0.015625)"/>
       </defs>
       <use xlink:href="#DejaVuSans-2212"/>
       <use xlink:href="#DejaVuSans-34" x="83.789062"/>
      </g>
     </g>
    </g>
    <g id="xtick_3">
     <g id="line2d_3">
      <g>
       <use xlink:href="#m0f87817214" x="178.104395" y="389.32" style="stroke: #000000; stroke-width: 0.8"/>
      </g>
     </g>
     <g id="text_3">
      <!-- −2 -->
      <g transform="translate(170.733302 403.918437) scale(0.1 -0.1)">
       <defs>
        <path id="DejaVuSans-32" d="M 1228 531 
L 3431 531 
L 3431 0 
L 469 0 
L 469 531 
Q 828 903 1448 1529 
Q 2069 2156 2228 2338 
Q 2531 2678 2651 2914 
Q 2772 3150 2772 3378 
Q 2772 3750 2511 3984 
Q 2250 4219 1831 4219 
Q 1534 4219 1204 4116 
Q 875 4013 500 3803 
L 500 4441 
Q 881 4594 1212 4672 
Q 1544 4750 1819 4750 
Q 2544 4750 2975 4387 
Q 3406 4025 3406 3419 
Q 3406 3131 3298 2873 
Q 3191 2616 2906 2266 
Q 2828 2175 2409 1742 
Q 1991 1309 1228 531 
z
" transform="scale(0.015625)"/>
       </defs>
       <use xlink:href="#DejaVuSans-2212"/>
       <use xlink:href="#DejaVuSans-32" x="83.789062"/>
      </g>
     </g>
    </g>
    <g id="xtick_4">
     <g id="line2d_4">
      <g>
       <use xlink:href="#m0f87817214" x="219.790199" y="389.32" style="stroke: #000000; stroke-width: 0.8"/>
      </g>
     </g>
     <g id="text_4">
      <!-- 0 -->
      <g transform="translate(216.608949 403.918437) scale(0.1 -0.1)">
       <defs>
        <path id="DejaVuSans-30" d="M 2034 4250 
Q 1547 4250 1301 3770 
Q 1056 3291 1056 2328 
Q 1056 1369 1301 889 
Q 1547 409 2034 409 
Q 2525 409 2770 889 
Q 3016 1369 3016 2328 
Q 3016 3291 2770 3770 
Q 2525 4250 2034 4250 
z
M 2034 4750 
Q 2819 4750 3233 4129 
Q 3647 3509 3647 2328 
Q 3647 1150 3233 529 
Q 2819 -91 2034 -91 
Q 1250 -91 836 529 
Q 422 1150 422 2328 
Q 422 3509 836 4129 
Q 1250 4750 2034 4750 
z
" transform="scale(0.015625)"/>
       </defs>
       <use xlink:href="#DejaVuSans-30"/>
      </g>
     </g>
    </g>
    <g id="xtick_5">
     <g id="line2d_5">
      <g>
       <use xlink:href="#m0f87817214" x="261.476002" y="389.32" style="stroke: #000000; stroke-width: 0.8"/>
      </g>
     </g>
     <g id="text_5">
      <!-- 2 -->
      <g transform="translate(258.294752 403.918437) scale(0.1 -0.1)">
       <use xlink:href="#DejaVuSans-32"/>
      </g>
     </g>
    </g>
    <g id="xtick_6">
     <g id="line2d_6">
      <g>
       <use xlink:href="#m0f87817214" x="303.161806" y="389.32" style="stroke: #000000; stroke-width: 0.8"/>
      </g>
     </g>
     <g id="text_6">
      <!-- 4 -->
      <g transform="translate(299.980556 403.918437) scale(0.1 -0.1)">
       <use xlink:href="#DejaVuSans-34"/>
      </g>
     </g>
    </g>
    <g id="xtick_7">
     <g id="line2d_7">
      <g>
       <use xlink:href="#m0f87817214" x="344.847609" y="389.32" style="stroke: #000000; stroke-width: 0.8"/>
      </g>
     </g>
     <g id="text_7">
      <!-- 6 -->
      <g transform="translate(341.666359 403.918437) scale(0.1 -0.1)">
       <use xlink:href="#DejaVuSans-36"/>
      </g>
     </g>
    </g>
    <g id="xtick_8">
     <g id="line2d_8">
      <g>
       <use xlink:href="#m0f87817214" x="386.533413" y="389.32" style="stroke: #000000; stroke-width: 0.8"/>
      </g>
     </g>
     <g id="text_8">
      <!-- 8 -->
      <g transform="translate(383.352163 403.918437) scale(0.1 -0.1)">
       <defs>
        <path id="DejaVuSans-38" d="M 2034 2216 
Q 1584 2216 1326 1975 
Q 1069 1734 1069 1313 
Q 1069 891 1326 650 
Q 1584 409 2034 409 
Q 2484 409 2743 651 
Q 3003 894 3003 1313 
Q 3003 1734 2745 1975 
Q 2488 2216 2034 2216 
z
M 1403 2484 
Q 997 2584 770 2862 
Q 544 3141 544 3541 
Q 544 4100 942 4425 
Q 1341 4750 2034 4750 
Q 2731 4750 3128 4425 
Q 3525 4100 3525 3541 
Q 3525 3141 3298 2862 
Q 3072 2584 2669 2484 
Q 3125 2378 3379 2068 
Q 3634 1759 3634 1313 
Q 3634 634 3220 271 
Q 2806 -91 2034 -91 
Q 1263 -91 848 271 
Q 434 634 434 1313 
Q 434 1759 690 2068 
Q 947 2378 1403 2484 
z
M 1172 3481 
Q 1172 3119 1398 2916 
Q 1625 2713 2034 2713 
Q 2441 2713 2670 2916 
Q 2900 3119 2900 3481 
Q 2900 3844 2670 4047 
Q 2441 4250 2034 4250 
Q 1625 4250 1398 4047 
Q 1172 3844 1172 3481 
z
" transform="scale(0.015625)"/>
       </defs>
       <use xlink:href="#DejaVuSans-38"/>
      </g>
     </g>
    </g>
    <g id="text_9">
     <!-- Predicted Fluorescence -->
     <g transform="translate(169.90375 419.11625) scale(0.12 -0.12)">
      <defs>
       <path id="DejaVuSans-50" d="M 1259 4147 
L 1259 2394 
L 2053 2394 
Q 2494 2394 2734 2622 
Q 2975 2850 2975 3272 
Q 2975 3691 2734 3919 
Q 2494 4147 2053 4147 
L 1259 4147 
z
M 628 4666 
L 2053 4666 
Q 2838 4666 3239 4311 
Q 3641 3956 3641 3272 
Q 3641 2581 3239 2228 
Q 2838 1875 2053 1875 
L 1259 1875 
L 1259 0 
L 628 0 
L 628 4666 
z
" transform="scale(0.015625)"/>
       <path id="DejaVuSans-72" d="M 2631 2963 
Q 2534 3019 2420 3045 
Q 2306 3072 2169 3072 
Q 1681 3072 1420 2755 
Q 1159 2438 1159 1844 
L 1159 0 
L 581 0 
L 581 3500 
L 1159 3500 
L 1159 2956 
Q 1341 3275 1631 3429 
Q 1922 3584 2338 3584 
Q 2397 3584 2469 3576 
Q 2541 3569 2628 3553 
L 2631 2963 
z
" transform="scale(0.015625)"/>
       <path id="DejaVuSans-65" d="M 3597 1894 
L 3597 1613 
L 953 1613 
Q 991 1019 1311 708 
Q 1631 397 2203 397 
Q 2534 397 2845 478 
Q 3156 559 3463 722 
L 3463 178 
Q 3153 47 2828 -22 
Q 2503 -91 2169 -91 
Q 1331 -91 842 396 
Q 353 884 353 1716 
Q 353 2575 817 3079 
Q 1281 3584 2069 3584 
Q 2775 3584 3186 3129 
Q 3597 2675 3597 1894 
z
M 3022 2063 
Q 3016 2534 2758 2815 
Q 2500 3097 2075 3097 
Q 1594 3097 1305 2825 
Q 1016 2553 972 2059 
L 3022 2063 
z
" transform="scale(0.015625)"/>
       <path id="DejaVuSans-64" d="M 2906 2969 
L 2906 4863 
L 3481 4863 
L 3481 0 
L 2906 0 
L 2906 525 
Q 2725 213 2448 61 
Q 2172 -91 1784 -91 
Q 1150 -91 751 415 
Q 353 922 353 1747 
Q 353 2572 751 3078 
Q 1150 3584 1784 3584 
Q 2172 3584 2448 3432 
Q 2725 3281 2906 2969 
z
M 947 1747 
Q 947 1113 1208 752 
Q 1469 391 1925 391 
Q 2381 391 2643 752 
Q 2906 1113 2906 1747 
Q 2906 2381 2643 2742 
Q 2381 3103 1925 3103 
Q 1469 3103 1208 2742 
Q 947 2381 947 1747 
z
" transform="scale(0.015625)"/>
       <path id="DejaVuSans-69" d="M 603 3500 
L 1178 3500 
L 1178 0 
L 603 0 
L 603 3500 
z
M 603 4863 
L 1178 4863 
L 1178 4134 
L 603 4134 
L 603 4863 
z
" transform="scale(0.015625)"/>
       <path id="DejaVuSans-63" d="M 3122 3366 
L 3122 2828 
Q 2878 2963 2633 3030 
Q 2388 3097 2138 3097 
Q 1578 3097 1268 2742 
Q 959 2388 959 1747 
Q 959 1106 1268 751 
Q 1578 397 2138 397 
Q 2388 397 2633 464 
Q 2878 531 3122 666 
L 3122 134 
Q 2881 22 2623 -34 
Q 2366 -91 2075 -91 
Q 1284 -91 818 406 
Q 353 903 353 1747 
Q 353 2603 823 3093 
Q 1294 3584 2113 3584 
Q 2378 3584 2631 3529 
Q 2884 3475 3122 3366 
z
" transform="scale(0.015625)"/>
       <path id="DejaVuSans-74" d="M 1172 4494 
L 1172 3500 
L 2356 3500 
L 2356 3053 
L 1172 3053 
L 1172 1153 
Q 1172 725 1289 603 
Q 1406 481 1766 481 
L 2356 481 
L 2356 0 
L 1766 0 
Q 1100 0 847 248 
Q 594 497 594 1153 
L 594 3053 
L 172 3053 
L 172 3500 
L 594 3500 
L 594 4494 
L 1172 4494 
z
" transform="scale(0.015625)"/>
       <path id="DejaVuSans-20" transform="scale(0.015625)"/>
       <path id="DejaVuSans-46" d="M 628 4666 
L 3309 4666 
L 3309 4134 
L 1259 4134 
L 1259 2759 
L 3109 2759 
L 3109 2228 
L 1259 2228 
L 1259 0 
L 628 0 
L 628 4666 
z
" transform="scale(0.015625)"/>
       <path id="DejaVuSans-6c" d="M 603 4863 
L 1178 4863 
L 1178 0 
L 603 0 
L 603 4863 
z
" transform="scale(0.015625)"/>
       <path id="DejaVuSans-75" d="M 544 1381 
L 544 3500 
L 1119 3500 
L 1119 1403 
Q 1119 906 1312 657 
Q 1506 409 1894 409 
Q 2359 409 2629 706 
Q 2900 1003 2900 1516 
L 2900 3500 
L 3475 3500 
L 3475 0 
L 2900 0 
L 2900 538 
Q 2691 219 2414 64 
Q 2138 -91 1772 -91 
Q 1169 -91 856 284 
Q 544 659 544 1381 
z
M 1991 3584 
L 1991 3584 
z
" transform="scale(0.015625)"/>
       <path id="DejaVuSans-6f" d="M 1959 3097 
Q 1497 3097 1228 2736 
Q 959 2375 959 1747 
Q 959 1119 1226 758 
Q 1494 397 1959 397 
Q 2419 397 2687 759 
Q 2956 1122 2956 1747 
Q 2956 2369 2687 2733 
Q 2419 3097 1959 3097 
z
M 1959 3584 
Q 2709 3584 3137 3096 
Q 3566 2609 3566 1747 
Q 3566 888 3137 398 
Q 2709 -91 1959 -91 
Q 1206 -91 779 398 
Q 353 888 353 1747 
Q 353 2609 779 3096 
Q 1206 3584 1959 3584 
z
" transform="scale(0.015625)"/>
       <path id="DejaVuSans-73" d="M 2834 3397 
L 2834 2853 
Q 2591 2978 2328 3040 
Q 2066 3103 1784 3103 
Q 1356 3103 1142 2972 
Q 928 2841 928 2578 
Q 928 2378 1081 2264 
Q 1234 2150 1697 2047 
L 1894 2003 
Q 2506 1872 2764 1633 
Q 3022 1394 3022 966 
Q 3022 478 2636 193 
Q 2250 -91 1575 -91 
Q 1294 -91 989 -36 
Q 684 19 347 128 
L 347 722 
Q 666 556 975 473 
Q 1284 391 1588 391 
Q 1994 391 2212 530 
Q 2431 669 2431 922 
Q 2431 1156 2273 1281 
Q 2116 1406 1581 1522 
L 1381 1569 
Q 847 1681 609 1914 
Q 372 2147 372 2553 
Q 372 3047 722 3315 
Q 1072 3584 1716 3584 
Q 2034 3584 2315 3537 
Q 2597 3491 2834 3397 
z
" transform="scale(0.015625)"/>
       <path id="DejaVuSans-6e" d="M 3513 2113 
L 3513 0 
L 2938 0 
L 2938 2094 
Q 2938 2591 2744 2837 
Q 2550 3084 2163 3084 
Q 1697 3084 1428 2787 
Q 1159 2491 1159 1978 
L 1159 0 
L 581 0 
L 581 3500 
L 1159 3500 
L 1159 2956 
Q 1366 3272 1645 3428 
Q 1925 3584 2291 3584 
Q 2894 3584 3203 3211 
Q 3513 2838 3513 2113 
z
" transform="scale(0.015625)"/>
      </defs>
      <use xlink:href="#DejaVuSans-50"/>
      <use xlink:href="#DejaVuSans-72" x="58.552734"/>
      <use xlink:href="#DejaVuSans-65" x="97.416016"/>
      <use xlink:href="#DejaVuSans-64" x="158.939453"/>
      <use xlink:href="#DejaVuSans-69" x="222.416016"/>
      <use xlink:href="#DejaVuSans-63" x="250.199219"/>
      <use xlink:href="#DejaVuSans-74" x="305.179688"/>
      <use xlink:href="#DejaVuSans-65" x="344.388672"/>
      <use xlink:href="#DejaVuSans-64" x="405.912109"/>
      <use xlink:href="#DejaVuSans-20" x="469.388672"/>
      <use xlink:href="#DejaVuSans-46" x="501.175781"/>
      <use xlink:href="#DejaVuSans-6c" x="558.695312"/>
      <use xlink:href="#DejaVuSans-75" x="586.478516"/>
      <use xlink:href="#DejaVuSans-6f" x="649.857422"/>
      <use xlink:href="#DejaVuSans-72" x="711.039062"/>
      <use xlink:href="#DejaVuSans-65" x="749.902344"/>
      <use xlink:href="#DejaVuSans-73" x="811.425781"/>
      <use xlink:href="#DejaVuSans-63" x="863.525391"/>
      <use xlink:href="#DejaVuSans-65" x="918.505859"/>
      <use xlink:href="#DejaVuSans-6e" x="980.029297"/>
      <use xlink:href="#DejaVuSans-63" x="1043.408203"/>
      <use xlink:href="#DejaVuSans-65" x="1098.388672"/>
     </g>
    </g>
   </g>
   <g id="matplotlib.axis_2">
    <g id="ytick_1">
     <g id="line2d_9">
      <defs>
       <path id="m300d4a7d02" d="M 0 0 
L -3.5 0 
" style="stroke: #000000; stroke-width: 0.8"/>
      </defs>
      <g>
       <use xlink:href="#m300d4a7d02" x="57.8" y="389.32" style="stroke: #000000; stroke-width: 0.8"/>
      </g>
     </g>
     <g id="text_10">
      <!-- 0.00 -->
      <g transform="translate(28.534375 393.119219) scale(0.1 -0.1)">
       <defs>
        <path id="DejaVuSans-2e" d="M 684 794 
L 1344 794 
L 1344 0 
L 684 0 
L 684 794 
z
" transform="scale(0.015625)"/>
       </defs>
       <use xlink:href="#DejaVuSans-30"/>
       <use xlink:href="#DejaVuSans-2e" x="63.623047"/>
       <use xlink:href="#DejaVuSans-30" x="95.410156"/>
       <use xlink:href="#DejaVuSans-30" x="159.033203"/>
      </g>
     </g>
    </g>
    <g id="ytick_2">
     <g id="line2d_10">
      <g>
       <use xlink:href="#m300d4a7d02" x="57.8" y="331.124937" style="stroke: #000000; stroke-width: 0.8"/>
      </g>
     </g>
     <g id="text_11">
      <!-- 0.05 -->
      <g transform="translate(28.534375 334.924156) scale(0.1 -0.1)">
       <defs>
        <path id="DejaVuSans-35" d="M 691 4666 
L 3169 4666 
L 3169 4134 
L 1269 4134 
L 1269 2991 
Q 1406 3038 1543 3061 
Q 1681 3084 1819 3084 
Q 2600 3084 3056 2656 
Q 3513 2228 3513 1497 
Q 3513 744 3044 326 
Q 2575 -91 1722 -91 
Q 1428 -91 1123 -41 
Q 819 9 494 109 
L 494 744 
Q 775 591 1075 516 
Q 1375 441 1709 441 
Q 2250 441 2565 725 
Q 2881 1009 2881 1497 
Q 2881 1984 2565 2268 
Q 2250 2553 1709 2553 
Q 1456 2553 1204 2497 
Q 953 2441 691 2322 
L 691 4666 
z
" transform="scale(0.015625)"/>
       </defs>
       <use xlink:href="#DejaVuSans-30"/>
       <use xlink:href="#DejaVuSans-2e" x="63.623047"/>
       <use xlink:href="#DejaVuSans-30" x="95.410156"/>
       <use xlink:href="#DejaVuSans-35" x="159.033203"/>
      </g>
     </g>
    </g>
    <g id="ytick_3">
     <g id="line2d_11">
      <g>
       <use xlink:href="#m300d4a7d02" x="57.8" y="272.929874" style="stroke: #000000; stroke-width: 0.8"/>
      </g>
     </g>
     <g id="text_12">
      <!-- 0.10 -->
      <g transform="translate(28.534375 276.729093) scale(0.1 -0.1)">
       <defs>
        <path id="DejaVuSans-31" d="M 794 531 
L 1825 531 
L 1825 4091 
L 703 3866 
L 703 4441 
L 1819 4666 
L 2450 4666 
L 2450 531 
L 3481 531 
L 3481 0 
L 794 0 
L 794 531 
z
" transform="scale(0.015625)"/>
       </defs>
       <use xlink:href="#DejaVuSans-30"/>
       <use xlink:href="#DejaVuSans-2e" x="63.623047"/>
       <use xlink:href="#DejaVuSans-31" x="95.410156"/>
       <use xlink:href="#DejaVuSans-30" x="159.033203"/>
      </g>
     </g>
    </g>
    <g id="ytick_4">
     <g id="line2d_12">
      <g>
       <use xlink:href="#m300d4a7d02" x="57.8" y="214.734811" style="stroke: #000000; stroke-width: 0.8"/>
      </g>
     </g>
     <g id="text_13">
      <!-- 0.15 -->
      <g transform="translate(28.534375 218.53403) scale(0.1 -0.1)">
       <use xlink:href="#DejaVuSans-30"/>
       <use xlink:href="#DejaVuSans-2e" x="63.623047"/>
       <use xlink:href="#DejaVuSans-31" x="95.410156"/>
       <use xlink:href="#DejaVuSans-35" x="159.033203"/>
      </g>
     </g>
    </g>
    <g id="ytick_5">
     <g id="line2d_13">
      <g>
       <use xlink:href="#m300d4a7d02" x="57.8" y="156.539749" style="stroke: #000000; stroke-width: 0.8"/>
      </g>
     </g>
     <g id="text_14">
      <!-- 0.20 -->
      <g transform="translate(28.534375 160.338967) scale(0.1 -0.1)">
       <use xlink:href="#DejaVuSans-30"/>
       <use xlink:href="#DejaVuSans-2e" x="63.623047"/>
       <use xlink:href="#DejaVuSans-32" x="95.410156"/>
       <use xlink:href="#DejaVuSans-30" x="159.033203"/>
      </g>
     </g>
    </g>
    <g id="ytick_6">
     <g id="line2d_14">
      <g>
       <use xlink:href="#m300d4a7d02" x="57.8" y="98.344686" style="stroke: #000000; stroke-width: 0.8"/>
      </g>
     </g>
     <g id="text_15">
      <!-- 0.25 -->
      <g transform="translate(28.534375 102.143904) scale(0.1 -0.1)">
       <use xlink:href="#DejaVuSans-30"/>
       <use xlink:href="#DejaVuSans-2e" x="63.623047"/>
       <use xlink:href="#DejaVuSans-32" x="95.410156"/>
       <use xlink:href="#DejaVuSans-35" x="159.033203"/>
      </g>
     </g>
    </g>
    <g id="ytick_7">
     <g id="line2d_15">
      <g>
       <use xlink:href="#m300d4a7d02" x="57.8" y="40.149623" style="stroke: #000000; stroke-width: 0.8"/>
      </g>
     </g>
     <g id="text_16">
      <!-- 0.30 -->
      <g transform="translate(28.534375 43.948842) scale(0.1 -0.1)">
       <defs>
        <path id="DejaVuSans-33" d="M 2597 2516 
Q 3050 2419 3304 2112 
Q 3559 1806 3559 1356 
Q 3559 666 3084 287 
Q 2609 -91 1734 -91 
Q 1441 -91 1130 -33 
Q 819 25 488 141 
L 488 750 
Q 750 597 1062 519 
Q 1375 441 1716 441 
Q 2309 441 2620 675 
Q 2931 909 2931 1356 
Q 2931 1769 2642 2001 
Q 2353 2234 1838 2234 
L 1294 2234 
L 1294 2753 
L 1863 2753 
Q 2328 2753 2575 2939 
Q 2822 3125 2822 3475 
Q 2822 3834 2567 4026 
Q 2313 4219 1838 4219 
Q 1578 4219 1281 4162 
Q 984 4106 628 3988 
L 628 4550 
Q 988 4650 1302 4700 
Q 1616 4750 1894 4750 
Q 2613 4750 3031 4423 
Q 3450 4097 3450 3541 
Q 3450 3153 3228 2886 
Q 3006 2619 2597 2516 
z
" transform="scale(0.015625)"/>
       </defs>
       <use xlink:href="#DejaVuSans-30"/>
       <use xlink:href="#DejaVuSans-2e" x="63.623047"/>
       <use xlink:href="#DejaVuSans-33" x="95.410156"/>
       <use xlink:href="#DejaVuSans-30" x="159.033203"/>
      </g>
     </g>
    </g>
    <g id="text_17">
     <!-- Density -->
     <g transform="translate(21.622813 226.672031) rotate(-90) scale(0.14 -0.14)">
      <defs>
       <path id="DejaVuSans-44" d="M 1259 4147 
L 1259 519 
L 2022 519 
Q 2988 519 3436 956 
Q 3884 1394 3884 2338 
Q 3884 3275 3436 3711 
Q 2988 4147 2022 4147 
L 1259 4147 
z
M 628 4666 
L 1925 4666 
Q 3281 4666 3915 4102 
Q 4550 3538 4550 2338 
Q 4550 1131 3912 565 
Q 3275 0 1925 0 
L 628 0 
L 628 4666 
z
" transform="scale(0.015625)"/>
       <path id="DejaVuSans-79" d="M 2059 -325 
Q 1816 -950 1584 -1140 
Q 1353 -1331 966 -1331 
L 506 -1331 
L 506 -850 
L 844 -850 
Q 1081 -850 1212 -737 
Q 1344 -625 1503 -206 
L 1606 56 
L 191 3500 
L 800 3500 
L 1894 763 
L 2988 3500 
L 3597 3500 
L 2059 -325 
z
" transform="scale(0.015625)"/>
      </defs>
      <use xlink:href="#DejaVuSans-44"/>
      <use xlink:href="#DejaVuSans-65" x="77.001953"/>
      <use xlink:href="#DejaVuSans-6e" x="138.525391"/>
      <use xlink:href="#DejaVuSans-73" x="201.904297"/>
      <use xlink:href="#DejaVuSans-69" x="254.003906"/>
      <use xlink:href="#DejaVuSans-74" x="281.787109"/>
      <use xlink:href="#DejaVuSans-79" x="320.996094"/>
     </g>
    </g>
   </g>
   <g id="line2d_16">
    <path d="M 181.492518 389.32 
L 181.492518 10.8 
" clip-path="url(#p8e62797495)" style="fill: none; stroke-dasharray: 3.7,1.6; stroke-dashoffset: 0; stroke: #000000"/>
   </g>
   <g id="patch_3">
    <path d="M 57.8 389.32 
L 57.8 10.8 
" style="fill: none; stroke: #000000; stroke-width: 0.8; stroke-linejoin: miter; stroke-linecap: square"/>
   </g>
   <g id="patch_4">
    <path d="M 57.8 389.32 
L 421.2 389.32 
" style="fill: none; stroke: #000000; stroke-width: 0.8; stroke-linejoin: miter; stroke-linecap: square"/>
   </g>
   <g id="legend_1">
    <g id="patch_5">
     <path d="M 270.114062 77.5125 
L 414.2 77.5125 
Q 416.2 77.5125 416.2 75.5125 
L 416.2 17.8 
Q 416.2 15.8 414.2 15.8 
L 270.114062 15.8 
Q 268.114062 15.8 268.114062 17.8 
L 268.114062 75.5125 
Q 268.114062 77.5125 270.114062 77.5125 
z
" style="fill: #ffffff; opacity: 0.8; stroke: #cccccc; stroke-linejoin: miter"/>
    </g>
    <g id="patch_6">
     <path d="M 272.114062 27.398438 
L 292.114062 27.398438 
L 292.114062 20.398438 
L 272.114062 20.398438 
z
" style="fill: #bdbdbd; fill-opacity: 0.5; stroke: #bdbdbd; stroke-width: 2.5; stroke-linejoin: miter"/>
    </g>
    <g id="text_18">
     <!-- Pre-trained ESM2 (8M) -->
     <g transform="translate(300.114062 27.398438) scale(0.1 -0.1)">
      <defs>
       <path id="DejaVuSans-2d" d="M 313 2009 
L 1997 2009 
L 1997 1497 
L 313 1497 
L 313 2009 
z
" transform="scale(0.015625)"/>
       <path id="DejaVuSans-61" d="M 2194 1759 
Q 1497 1759 1228 1600 
Q 959 1441 959 1056 
Q 959 750 1161 570 
Q 1363 391 1709 391 
Q 2188 391 2477 730 
Q 2766 1069 2766 1631 
L 2766 1759 
L 2194 1759 
z
M 3341 1997 
L 3341 0 
L 2766 0 
L 2766 531 
Q 2569 213 2275 61 
Q 1981 -91 1556 -91 
Q 1019 -91 701 211 
Q 384 513 384 1019 
Q 384 1609 779 1909 
Q 1175 2209 1959 2209 
L 2766 2209 
L 2766 2266 
Q 2766 2663 2505 2880 
Q 2244 3097 1772 3097 
Q 1472 3097 1187 3025 
Q 903 2953 641 2809 
L 641 3341 
Q 956 3463 1253 3523 
Q 1550 3584 1831 3584 
Q 2591 3584 2966 3190 
Q 3341 2797 3341 1997 
z
" transform="scale(0.015625)"/>
       <path id="DejaVuSans-45" d="M 628 4666 
L 3578 4666 
L 3578 4134 
L 1259 4134 
L 1259 2753 
L 3481 2753 
L 3481 2222 
L 1259 2222 
L 1259 531 
L 3634 531 
L 3634 0 
L 628 0 
L 628 4666 
z
" transform="scale(0.015625)"/>
       <path id="DejaVuSans-53" d="M 3425 4513 
L 3425 3897 
Q 3066 4069 2747 4153 
Q 2428 4238 2131 4238 
Q 1616 4238 1336 4038 
Q 1056 3838 1056 3469 
Q 1056 3159 1242 3001 
Q 1428 2844 1947 2747 
L 2328 2669 
Q 3034 2534 3370 2195 
Q 3706 1856 3706 1288 
Q 3706 609 3251 259 
Q 2797 -91 1919 -91 
Q 1588 -91 1214 -16 
Q 841 59 441 206 
L 441 856 
Q 825 641 1194 531 
Q 1563 422 1919 422 
Q 2459 422 2753 634 
Q 3047 847 3047 1241 
Q 3047 1584 2836 1778 
Q 2625 1972 2144 2069 
L 1759 2144 
Q 1053 2284 737 2584 
Q 422 2884 422 3419 
Q 422 4038 858 4394 
Q 1294 4750 2059 4750 
Q 2388 4750 2728 4690 
Q 3069 4631 3425 4513 
z
" transform="scale(0.015625)"/>
       <path id="DejaVuSans-4d" d="M 628 4666 
L 1569 4666 
L 2759 1491 
L 3956 4666 
L 4897 4666 
L 4897 0 
L 4281 0 
L 4281 4097 
L 3078 897 
L 2444 897 
L 1241 4097 
L 1241 0 
L 628 0 
L 628 4666 
z
" transform="scale(0.015625)"/>
       <path id="DejaVuSans-28" d="M 1984 4856 
Q 1566 4138 1362 3434 
Q 1159 2731 1159 2009 
Q 1159 1288 1364 580 
Q 1569 -128 1984 -844 
L 1484 -844 
Q 1016 -109 783 600 
Q 550 1309 550 2009 
Q 550 2706 781 3412 
Q 1013 4119 1484 4856 
L 1984 4856 
z
" transform="scale(0.015625)"/>
       <path id="DejaVuSans-29" d="M 513 4856 
L 1013 4856 
Q 1481 4119 1714 3412 
Q 1947 2706 1947 2009 
Q 1947 1309 1714 600 
Q 1481 -109 1013 -844 
L 513 -844 
Q 928 -128 1133 580 
Q 1338 1288 1338 2009 
Q 1338 2731 1133 3434 
Q 928 4138 513 4856 
z
" transform="scale(0.015625)"/>
      </defs>
      <use xlink:href="#DejaVuSans-50"/>
      <use xlink:href="#DejaVuSans-72" x="58.552734"/>
      <use xlink:href="#DejaVuSans-65" x="97.416016"/>
      <use xlink:href="#DejaVuSans-2d" x="158.939453"/>
      <use xlink:href="#DejaVuSans-74" x="195.023438"/>
      <use xlink:href="#DejaVuSans-72" x="234.232422"/>
      <use xlink:href="#DejaVuSans-61" x="275.345703"/>
      <use xlink:href="#DejaVuSans-69" x="336.625"/>
      <use xlink:href="#DejaVuSans-6e" x="364.408203"/>
      <use xlink:href="#DejaVuSans-65" x="427.787109"/>
      <use xlink:href="#DejaVuSans-64" x="489.310547"/>
      <use xlink:href="#DejaVuSans-20" x="552.787109"/>
      <use xlink:href="#DejaVuSans-45" x="584.574219"/>
      <use xlink:href="#DejaVuSans-53" x="647.757812"/>
      <use xlink:href="#DejaVuSans-4d" x="711.234375"/>
      <use xlink:href="#DejaVuSans-32" x="797.513672"/>
      <use xlink:href="#DejaVuSans-20" x="861.136719"/>
      <use xlink:href="#DejaVuSans-28" x="892.923828"/>
      <use xlink:href="#DejaVuSans-38" x="931.9375"/>
      <use xlink:href="#DejaVuSans-4d" x="995.560547"/>
      <use xlink:href="#DejaVuSans-29" x="1081.839844"/>
     </g>
    </g>
    <g id="patch_7">
     <path d="M 272.114062 42.076563 
L 292.114062 42.076563 
L 292.114062 35.076563 
L 272.114062 35.076563 
z
" style="fill: #92c5de; fill-opacity: 0.5; stroke: #92c5de; stroke-width: 2.5; stroke-linejoin: miter"/>
    </g>
    <g id="text_19">
     <!-- SFT ESM2 (8M) -->
     <g transform="translate(300.114062 42.076563) scale(0.1 -0.1)">
      <defs>
       <path id="DejaVuSans-54" d="M -19 4666 
L 3928 4666 
L 3928 4134 
L 2272 4134 
L 2272 0 
L 1638 0 
L 1638 4134 
L -19 4134 
L -19 4666 
z
" transform="scale(0.015625)"/>
      </defs>
      <use xlink:href="#DejaVuSans-53"/>
      <use xlink:href="#DejaVuSans-46" x="63.476562"/>
      <use xlink:href="#DejaVuSans-54" x="119.246094"/>
      <use xlink:href="#DejaVuSans-20" x="180.330078"/>
      <use xlink:href="#DejaVuSans-45" x="212.117188"/>
      <use xlink:href="#DejaVuSans-53" x="275.300781"/>
      <use xlink:href="#DejaVuSans-4d" x="338.777344"/>
      <use xlink:href="#DejaVuSans-32" x="425.056641"/>
      <use xlink:href="#DejaVuSans-20" x="488.679688"/>
      <use xlink:href="#DejaVuSans-28" x="520.466797"/>
      <use xlink:href="#DejaVuSans-38" x="559.480469"/>
      <use xlink:href="#DejaVuSans-4d" x="623.103516"/>
      <use xlink:href="#DejaVuSans-29" x="709.382812"/>
     </g>
    </g>
    <g id="patch_8">
     <path d="M 272.114062 56.754687 
L 292.114062 56.754687 
L 292.114062 49.754687 
L 272.114062 49.754687 
z
" style="fill: #2166ac; fill-opacity: 0.5; stroke: #2166ac; stroke-width: 2.5; stroke-linejoin: miter"/>
    </g>
    <g id="text_20">
     <!-- Aligned ESM2 (8M) -->
     <g transform="translate(300.114062 56.754687) scale(0.1 -0.1)">
      <defs>
       <path id="DejaVuSans-41" d="M 2188 4044 
L 1331 1722 
L 3047 1722 
L 2188 4044 
z
M 1831 4666 
L 2547 4666 
L 4325 0 
L 3669 0 
L 3244 1197 
L 1141 1197 
L 716 0 
L 50 0 
L 1831 4666 
z
" transform="scale(0.015625)"/>
       <path id="DejaVuSans-67" d="M 2906 1791 
Q 2906 2416 2648 2759 
Q 2391 3103 1925 3103 
Q 1463 3103 1205 2759 
Q 947 2416 947 1791 
Q 947 1169 1205 825 
Q 1463 481 1925 481 
Q 2391 481 2648 825 
Q 2906 1169 2906 1791 
z
M 3481 434 
Q 3481 -459 3084 -895 
Q 2688 -1331 1869 -1331 
Q 1566 -1331 1297 -1286 
Q 1028 -1241 775 -1147 
L 775 -588 
Q 1028 -725 1275 -790 
Q 1522 -856 1778 -856 
Q 2344 -856 2625 -561 
Q 2906 -266 2906 331 
L 2906 616 
Q 2728 306 2450 153 
Q 2172 0 1784 0 
Q 1141 0 747 490 
Q 353 981 353 1791 
Q 353 2603 747 3093 
Q 1141 3584 1784 3584 
Q 2172 3584 2450 3431 
Q 2728 3278 2906 2969 
L 2906 3500 
L 3481 3500 
L 3481 434 
z
" transform="scale(0.015625)"/>
      </defs>
      <use xlink:href="#DejaVuSans-41"/>
      <use xlink:href="#DejaVuSans-6c" x="68.408203"/>
      <use xlink:href="#DejaVuSans-69" x="96.191406"/>
      <use xlink:href="#DejaVuSans-67" x="123.974609"/>
      <use xlink:href="#DejaVuSans-6e" x="187.451172"/>
      <use xlink:href="#DejaVuSans-65" x="250.830078"/>
      <use xlink:href="#DejaVuSans-64" x="312.353516"/>
      <use xlink:href="#DejaVuSans-20" x="375.830078"/>
      <use xlink:href="#DejaVuSans-45" x="407.617188"/>
      <use xlink:href="#DejaVuSans-53" x="470.800781"/>
      <use xlink:href="#DejaVuSans-4d" x="534.277344"/>
      <use xlink:href="#DejaVuSans-32" x="620.556641"/>
      <use xlink:href="#DejaVuSans-20" x="684.179688"/>
      <use xlink:href="#DejaVuSans-28" x="715.966797"/>
      <use xlink:href="#DejaVuSans-38" x="754.980469"/>
      <use xlink:href="#DejaVuSans-4d" x="818.603516"/>
      <use xlink:href="#DejaVuSans-29" x="904.882812"/>
     </g>
    </g>
    <g id="line2d_17">
     <path d="M 272.114062 67.932813 
L 282.114062 67.932813 
L 292.114062 67.932813 
" style="fill: none; stroke-dasharray: 3.7,1.6; stroke-dashoffset: 0; stroke: #000000"/>
    </g>
    <g id="text_21">
     <!-- Predicted pab1 score -->
     <g transform="translate(300.114062 71.432813) scale(0.1 -0.1)">
      <defs>
       <path id="DejaVuSans-70" d="M 1159 525 
L 1159 -1331 
L 581 -1331 
L 581 3500 
L 1159 3500 
L 1159 2969 
Q 1341 3281 1617 3432 
Q 1894 3584 2278 3584 
Q 2916 3584 3314 3078 
Q 3713 2572 3713 1747 
Q 3713 922 3314 415 
Q 2916 -91 2278 -91 
Q 1894 -91 1617 61 
Q 1341 213 1159 525 
z
M 3116 1747 
Q 3116 2381 2855 2742 
Q 2594 3103 2138 3103 
Q 1681 3103 1420 2742 
Q 1159 2381 1159 1747 
Q 1159 1113 1420 752 
Q 1681 391 2138 391 
Q 2594 391 2855 752 
Q 3116 1113 3116 1747 
z
" transform="scale(0.015625)"/>
       <path id="DejaVuSans-62" d="M 3116 1747 
Q 3116 2381 2855 2742 
Q 2594 3103 2138 3103 
Q 1681 3103 1420 2742 
Q 1159 2381 1159 1747 
Q 1159 1113 1420 752 
Q 1681 391 2138 391 
Q 2594 391 2855 752 
Q 3116 1113 3116 1747 
z
M 1159 2969 
Q 1341 3281 1617 3432 
Q 1894 3584 2278 3584 
Q 2916 3584 3314 3078 
Q 3713 2572 3713 1747 
Q 3713 922 3314 415 
Q 2916 -91 2278 -91 
Q 1894 -91 1617 61 
Q 1341 213 1159 525 
L 1159 0 
L 581 0 
L 581 4863 
L 1159 4863 
L 1159 2969 
z
" transform="scale(0.015625)"/>
      </defs>
      <use xlink:href="#DejaVuSans-50"/>
      <use xlink:href="#DejaVuSans-72" x="58.552734"/>
      <use xlink:href="#DejaVuSans-65" x="97.416016"/>
      <use xlink:href="#DejaVuSans-64" x="158.939453"/>
      <use xlink:href="#DejaVuSans-69" x="222.416016"/>
      <use xlink:href="#DejaVuSans-63" x="250.199219"/>
      <use xlink:href="#DejaVuSans-74" x="305.179688"/>
      <use xlink:href="#DejaVuSans-65" x="344.388672"/>
      <use xlink:href="#DejaVuSans-64" x="405.912109"/>
      <use xlink:href="#DejaVuSans-20" x="469.388672"/>
      <use xlink:href="#DejaVuSans-70" x="501.175781"/>
      <use xlink:href="#DejaVuSans-61" x="564.652344"/>
      <use xlink:href="#DejaVuSans-62" x="625.931641"/>
      <use xlink:href="#DejaVuSans-31" x="689.408203"/>
      <use xlink:href="#DejaVuSans-20" x="753.03125"/>
      <use xlink:href="#DejaVuSans-73" x="784.818359"/>
      <use xlink:href="#DejaVuSans-63" x="836.917969"/>
      <use xlink:href="#DejaVuSans-6f" x="891.898438"/>
      <use xlink:href="#DejaVuSans-72" x="953.080078"/>
      <use xlink:href="#DejaVuSans-65" x="991.943359"/>
     </g>
    </g>
   </g>
  </g>
 </g>
 <defs>
  <clipPath id="p8e62797495">
   <rect x="57.8" y="10.8" width="363.4" height="378.52"/>
  </clipPath>
 </defs>
</svg>
