<?xml version="1.0" encoding="utf-8" standalone="no"?>
<!DOCTYPE svg PUBLIC "-//W3C//DTD SVG 1.1//EN"
  "http://www.w3.org/Graphics/SVG/1.1/DTD/svg11.dtd">
<svg xmlns:xlink="http://www.w3.org/1999/xlink" width="432pt" height="432pt" viewBox="0 0 432 432" xmlns="http://www.w3.org/2000/svg" version="1.1">
 <metadata>
  <rdf:RDF xmlns:dc="http://purl.org/dc/elements/1.1/" xmlns:cc="http://creativecommons.org/ns#" xmlns:rdf="http://www.w3.org/1999/02/22-rdf-syntax-ns#">
   <cc:Work>
    <dc:type rdf:resource="http://purl.org/dc/dcmitype/StillImage"/>
    <dc:date>2025-04-25T09:27:08.121296</dc:date>
    <dc:format>image/svg+xml</dc:format>
    <dc:creator>
     <cc:Agent>
      <dc:title>Matplotlib v3.7.1, https://matplotlib.org/</dc:title>
     </cc:Agent>
    </dc:creator>
   </cc:Work>
  </rdf:RDF>
 </metadata>
 <defs>
  <style type="text/css">*{stroke-linejoin: round; stroke-linecap: butt}</style>
 </defs>
 <g id="figure_1">
  <g id="patch_1">
   <path d="M 0 432 
L 432 432 
L 432 0 
L 0 0 
z
" style="fill: #ffffff"/>
  </g>
  <g id="axes_1">
   <g id="patch_2">
    <path d="M 51.455 388.24 
L 421.2 388.24 
L 421.2 10.8 
L 51.455 10.8 
z
" style="fill: #ffffff"/>
   </g>
   <g id="PolyCollection_1">
    <defs>
     <path id="m3f96c67f86" d="M 68.261591 -43.766422 
L 68.261591 -43.76 
L 69.869335 -43.76 
L 71.477078 -43.76 
L 73.084822 -43.76 
L 74.692566 -43.76 
L 76.30031 -43.76 
L 77.908053 -43.76 
L 79.515797 -43.76 
L 81.123541 -43.76 
L 82.731285 -43.76 
L 84.339028 -43.76 
L 85.946772 -43.76 
L 87.554516 -43.76 
L 89.16226 -43.76 
L 90.770004 -43.76 
L 92.377747 -43.76 
L 93.985491 -43.76 
L 95.593235 -43.76 
L 97.200979 -43.76 
L 98.808722 -43.76 
L 100.416466 -43.76 
L 102.02421 -43.76 
L 103.631954 -43.76 
L 105.239697 -43.76 
L 106.847441 -43.76 
L 108.455185 -43.76 
L 110.062929 -43.76 
L 111.670672 -43.76 
L 113.278416 -43.76 
L 114.88616 -43.76 
L 116.493904 -43.76 
L 118.101647 -43.76 
L 119.709391 -43.76 
L 121.317135 -43.76 
L 122.924879 -43.76 
L 124.532622 -43.76 
L 126.140366 -43.76 
L 127.74811 -43.76 
L 129.355854 -43.76 
L 130.963598 -43.76 
L 132.571341 -43.76 
L 134.179085 -43.76 
L 135.786829 -43.76 
L 137.394573 -43.76 
L 139.002316 -43.76 
L 140.61006 -43.76 
L 142.217804 -43.76 
L 143.825548 -43.76 
L 145.433291 -43.76 
L 147.041035 -43.76 
L 148.648779 -43.76 
L 150.256523 -43.76 
L 151.864266 -43.76 
L 153.47201 -43.76 
L 155.079754 -43.76 
L 156.687498 -43.76 
L 158.295241 -43.76 
L 159.902985 -43.76 
L 161.510729 -43.76 
L 163.118473 -43.76 
L 164.726216 -43.76 
L 166.33396 -43.76 
L 167.941704 -43.76 
L 169.549448 -43.76 
L 171.157191 -43.76 
L 172.764935 -43.76 
L 174.372679 -43.76 
L 175.980423 -43.76 
L 177.588167 -43.76 
L 179.19591 -43.76 
L 180.803654 -43.76 
L 182.411398 -43.76 
L 184.019142 -43.76 
L 185.626885 -43.76 
L 187.234629 -43.76 
L 188.842373 -43.76 
L 190.450117 -43.76 
L 192.05786 -43.76 
L 193.665604 -43.76 
L 195.273348 -43.76 
L 196.881092 -43.76 
L 198.488835 -43.76 
L 200.096579 -43.76 
L 201.704323 -43.76 
L 203.312067 -43.76 
L 204.91981 -43.76 
L 206.527554 -43.76 
L 208.135298 -43.76 
L 209.743042 -43.76 
L 211.350785 -43.76 
L 212.958529 -43.76 
L 214.566273 -43.76 
L 216.174017 -43.76 
L 217.781761 -43.76 
L 219.389504 -43.76 
L 220.997248 -43.76 
L 222.604992 -43.76 
L 224.212736 -43.76 
L 225.820479 -43.76 
L 227.428223 -43.76 
L 229.035967 -43.76 
L 230.643711 -43.76 
L 232.251454 -43.76 
L 233.859198 -43.76 
L 235.466942 -43.76 
L 237.074686 -43.76 
L 238.682429 -43.76 
L 240.290173 -43.76 
L 241.897917 -43.76 
L 243.505661 -43.76 
L 245.113404 -43.76 
L 246.721148 -43.76 
L 248.328892 -43.76 
L 249.936636 -43.76 
L 251.544379 -43.76 
L 253.152123 -43.76 
L 254.759867 -43.76 
L 256.367611 -43.76 
L 257.975354 -43.76 
L 259.583098 -43.76 
L 261.190842 -43.76 
L 262.798586 -43.76 
L 264.40633 -43.76 
L 266.014073 -43.76 
L 267.621817 -43.76 
L 269.229561 -43.76 
L 270.837305 -43.76 
L 272.445048 -43.76 
L 274.052792 -43.76 
L 275.660536 -43.76 
L 277.26828 -43.76 
L 278.876023 -43.76 
L 280.483767 -43.76 
L 282.091511 -43.76 
L 283.699255 -43.76 
L 285.306998 -43.76 
L 286.914742 -43.76 
L 288.522486 -43.76 
L 290.13023 -43.76 
L 291.737973 -43.76 
L 293.345717 -43.76 
L 294.953461 -43.76 
L 296.561205 -43.76 
L 298.168948 -43.76 
L 299.776692 -43.76 
L 301.384436 -43.76 
L 302.99218 -43.76 
L 304.599923 -43.76 
L 306.207667 -43.76 
L 307.815411 -43.76 
L 309.423155 -43.76 
L 311.030899 -43.76 
L 312.638642 -43.76 
L 314.246386 -43.76 
L 315.85413 -43.76 
L 317.461874 -43.76 
L 319.069617 -43.76 
L 320.677361 -43.76 
L 322.285105 -43.76 
L 323.892849 -43.76 
L 325.500592 -43.76 
L 327.108336 -43.76 
L 328.71608 -43.76 
L 330.323824 -43.76 
L 331.931567 -43.76 
L 333.539311 -43.76 
L 335.147055 -43.76 
L 336.754799 -43.76 
L 338.362542 -43.76 
L 339.970286 -43.76 
L 341.57803 -43.76 
L 343.185774 -43.76 
L 344.793517 -43.76 
L 346.401261 -43.76 
L 348.009005 -43.76 
L 349.616749 -43.76 
L 351.224493 -43.76 
L 352.832236 -43.76 
L 354.43998 -43.76 
L 356.047724 -43.76 
L 357.655468 -43.76 
L 359.263211 -43.76 
L 360.870955 -43.76 
L 362.478699 -43.76 
L 364.086443 -43.76 
L 365.694186 -43.76 
L 367.30193 -43.76 
L 368.909674 -43.76 
L 370.517418 -43.76 
L 372.125161 -43.76 
L 373.732905 -43.76 
L 375.340649 -43.76 
L 376.948393 -43.76 
L 378.556136 -43.76 
L 380.16388 -43.76 
L 381.771624 -43.76 
L 383.379368 -43.76 
L 384.987111 -43.76 
L 386.594855 -43.76 
L 388.202599 -43.76 
L 388.202599 -43.796623 
L 388.202599 -43.796623 
L 386.594855 -43.843056 
L 384.987111 -43.938359 
L 383.379368 -44.12297 
L 381.771624 -44.460697 
L 380.16388 -45.044671 
L 378.556136 -46.000131 
L 376.948393 -47.481368 
L 375.340649 -49.660952 
L 373.732905 -52.711301 
L 372.125161 -56.78107 
L 370.517418 -61.970652 
L 368.909674 -68.311254 
L 367.30193 -75.750485 
L 365.694186 -84.145315 
L 364.086443 -93.2621 
L 362.478699 -102.784135 
L 360.870955 -112.328855 
L 359.263211 -121.477464 
L 357.655468 -129.817465 
L 356.047724 -136.993503 
L 354.43998 -142.756237 
L 352.832236 -146.996123 
L 351.224493 -149.751289 
L 349.616749 -151.185946 
L 348.009005 -151.545312 
L 346.401261 -151.10074 
L 344.793517 -150.10116 
L 343.185774 -148.743158 
L 341.57803 -147.163602 
L 339.970286 -145.449757 
L 338.362542 -143.656224 
L 336.754799 -141.818116 
L 335.147055 -139.955116 
L 333.539311 -138.068269 
L 331.931567 -136.136775 
L 330.323824 -134.122741 
L 328.71608 -131.987531 
L 327.108336 -129.716244 
L 325.500592 -127.34053 
L 323.892849 -124.948112 
L 322.285105 -122.671234 
L 320.677361 -120.65487 
L 319.069617 -119.014648 
L 317.461874 -117.799852 
L 315.85413 -116.975511 
L 314.246386 -116.430166 
L 312.638642 -116.006071 
L 311.030899 -115.540884 
L 309.423155 -114.907049 
L 307.815411 -114.037284 
L 306.207667 -112.929938 
L 304.599923 -111.634479 
L 302.99218 -110.223491 
L 301.384436 -108.761851 
L 299.776692 -107.28479 
L 298.168948 -105.792989 
L 296.561205 -104.265433 
L 294.953461 -102.68243 
L 293.345717 -101.046431 
L 291.737973 -99.390035 
L 290.13023 -97.767964 
L 288.522486 -96.238479 
L 286.914742 -94.844398 
L 285.306998 -93.602118 
L 283.699255 -92.500841 
L 282.091511 -91.50836 
L 280.483767 -90.578121 
L 278.876023 -89.65526 
L 277.26828 -88.68334 
L 275.660536 -87.614687 
L 274.052792 -86.424102 
L 272.445048 -85.120834 
L 270.837305 -83.751297 
L 269.229561 -82.387824 
L 267.621817 -81.10572 
L 266.014073 -79.95764 
L 264.40633 -78.956554 
L 262.798586 -78.074687 
L 261.190842 -77.258173 
L 259.583098 -76.450009 
L 257.975354 -75.611042 
L 256.367611 -74.730962 
L 254.759867 -73.826781 
L 253.152123 -72.931806 
L 251.544379 -72.081183 
L 249.936636 -71.299875 
L 248.328892 -70.596441 
L 246.721148 -69.962891 
L 245.113404 -69.378798 
L 243.505661 -68.817281 
L 241.897917 -68.251212 
L 240.290173 -67.659057 
L 238.682429 -67.030379 
L 237.074686 -66.370673 
L 235.466942 -65.704264 
L 233.859198 -65.073164 
L 232.251454 -64.530061 
L 230.643711 -64.125393 
L 229.035967 -63.891342 
L 227.428223 -63.828075 
L 225.820479 -63.898048 
L 224.212736 -64.031767 
L 222.604992 -64.143795 
L 220.997248 -64.15326 
L 219.389504 -64.001194 
L 217.781761 -63.658927 
L 216.174017 -63.126299 
L 214.566273 -62.423122 
L 212.958529 -61.579323 
L 211.350785 -60.627949 
L 209.743042 -59.602012 
L 208.135298 -58.533533 
L 206.527554 -57.452652 
L 204.91981 -56.386148 
L 203.312067 -55.356395 
L 201.704323 -54.382105 
L 200.096579 -53.480876 
L 198.488835 -52.671839 
L 196.881092 -51.976087 
L 195.273348 -51.413734 
L 193.665604 -50.998574 
L 192.05786 -50.732872 
L 190.450117 -50.604772 
L 188.842373 -50.589408 
L 187.234629 -50.652994 
L 185.626885 -50.758252 
L 184.019142 -50.869658 
L 182.411398 -50.95782 
L 180.803654 -51.002891 
L 179.19591 -50.996881 
L 177.588167 -50.944309 
L 175.980423 -50.860398 
L 174.372679 -50.766533 
L 172.764935 -50.683766 
L 171.157191 -50.626217 
L 169.549448 -50.596565 
L 167.941704 -50.585191 
L 166.33396 -50.573238 
L 164.726216 -50.538507 
L 163.118473 -50.462283 
L 161.510729 -50.335006 
L 159.902985 -50.159082 
L 158.295241 -49.947893 
L 156.687498 -49.721133 
L 155.079754 -49.497818 
L 153.47201 -49.289376 
L 151.864266 -49.095517 
L 150.256523 -48.904738 
L 148.648779 -48.699381 
L 147.041035 -48.463106 
L 145.433291 -48.187442 
L 143.825548 -47.874616 
L 142.217804 -47.535795 
L 140.61006 -47.186229 
L 139.002316 -46.840083 
L 137.394573 -46.507532 
L 135.786829 -46.195016 
L 134.179085 -45.907727 
L 132.571341 -45.652312 
L 130.963598 -45.438029 
L 129.355854 -45.275682 
L 127.74811 -45.174932 
L 126.140366 -45.141184 
L 124.532622 -45.173133 
L 122.924879 -45.26152 
L 121.317135 -45.389188 
L 119.709391 -45.532486 
L 118.101647 -45.664215 
L 116.493904 -45.758196 
L 114.88616 -45.794926 
L 113.278416 -45.766839 
L 111.670672 -45.681099 
L 110.062929 -45.558213 
L 108.455185 -45.426202 
L 106.847441 -45.31202 
L 105.239697 -45.233295 
L 103.631954 -45.193567 
L 102.02421 -45.182781 
L 100.416466 -45.182556 
L 98.808722 -45.173749 
L 97.200979 -45.143032 
L 95.593235 -45.08598 
L 93.985491 -45.006016 
L 92.377747 -44.910532 
L 90.770004 -44.806588 
L 89.16226 -44.698324 
L 87.554516 -44.586892 
L 85.946772 -44.472266 
L 84.339028 -44.355426 
L 82.731285 -44.239556 
L 81.123541 -44.129731 
L 79.515797 -44.031475 
L 77.908053 -43.949104 
L 76.30031 -43.884623 
L 74.692566 -43.837552 
L 73.084822 -43.805511 
L 71.477078 -43.785165 
L 69.869335 -43.773103 
L 68.261591 -43.766422 
z
" style="stroke: #bdbdbd; stroke-width: 2.5"/>
    </defs>
    <g clip-path="url(#p08935615d4)">
     <use xlink:href="#m3f96c67f86" x="0" y="432" style="fill: #bdbdbd; fill-opacity: 0.5; stroke: #bdbdbd; stroke-width: 2.5"/>
    </g>
   </g>
   <g id="PolyCollection_2">
    <defs>
     <path id="mbe2602f1b1" d="M 187.110915 -43.765392 
L 187.110915 -43.76 
L 188.20269 -43.76 
L 189.294464 -43.76 
L 190.386239 -43.76 
L 191.478014 -43.76 
L 192.569788 -43.76 
L 193.661563 -43.76 
L 194.753338 -43.76 
L 195.845112 -43.76 
L 196.936887 -43.76 
L 198.028662 -43.76 
L 199.120436 -43.76 
L 200.212211 -43.76 
L 201.303986 -43.76 
L 202.39576 -43.76 
L 203.487535 -43.76 
L 204.57931 -43.76 
L 205.671084 -43.76 
L 206.762859 -43.76 
L 207.854634 -43.76 
L 208.946408 -43.76 
L 210.038183 -43.76 
L 211.129958 -43.76 
L 212.221732 -43.76 
L 213.313507 -43.76 
L 214.405282 -43.76 
L 215.497056 -43.76 
L 216.588831 -43.76 
L 217.680606 -43.76 
L 218.77238 -43.76 
L 219.864155 -43.76 
L 220.95593 -43.76 
L 222.047704 -43.76 
L 223.139479 -43.76 
L 224.231254 -43.76 
L 225.323028 -43.76 
L 226.414803 -43.76 
L 227.506578 -43.76 
L 228.598352 -43.76 
L 229.690127 -43.76 
L 230.781902 -43.76 
L 231.873676 -43.76 
L 232.965451 -43.76 
L 234.057226 -43.76 
L 235.149 -43.76 
L 236.240775 -43.76 
L 237.33255 -43.76 
L 238.424324 -43.76 
L 239.516099 -43.76 
L 240.607874 -43.76 
L 241.699648 -43.76 
L 242.791423 -43.76 
L 243.883198 -43.76 
L 244.974972 -43.76 
L 246.066747 -43.76 
L 247.158522 -43.76 
L 248.250296 -43.76 
L 249.342071 -43.76 
L 250.433846 -43.76 
L 251.52562 -43.76 
L 252.617395 -43.76 
L 253.70917 -43.76 
L 254.800944 -43.76 
L 255.892719 -43.76 
L 256.984494 -43.76 
L 258.076268 -43.76 
L 259.168043 -43.76 
L 260.259818 -43.76 
L 261.351592 -43.76 
L 262.443367 -43.76 
L 263.535142 -43.76 
L 264.626916 -43.76 
L 265.718691 -43.76 
L 266.810466 -43.76 
L 267.90224 -43.76 
L 268.994015 -43.76 
L 270.08579 -43.76 
L 271.177564 -43.76 
L 272.269339 -43.76 
L 273.361114 -43.76 
L 274.452888 -43.76 
L 275.544663 -43.76 
L 276.636438 -43.76 
L 277.728212 -43.76 
L 278.819987 -43.76 
L 279.911762 -43.76 
L 281.003536 -43.76 
L 282.095311 -43.76 
L 283.187086 -43.76 
L 284.27886 -43.76 
L 285.370635 -43.76 
L 286.46241 -43.76 
L 287.554184 -43.76 
L 288.645959 -43.76 
L 289.737734 -43.76 
L 290.829508 -43.76 
L 291.921283 -43.76 
L 293.013058 -43.76 
L 294.104832 -43.76 
L 295.196607 -43.76 
L 296.288382 -43.76 
L 297.380156 -43.76 
L 298.471931 -43.76 
L 299.563706 -43.76 
L 300.65548 -43.76 
L 301.747255 -43.76 
L 302.83903 -43.76 
L 303.930804 -43.76 
L 305.022579 -43.76 
L 306.114354 -43.76 
L 307.206128 -43.76 
L 308.297903 -43.76 
L 309.389678 -43.76 
L 310.481452 -43.76 
L 311.573227 -43.76 
L 312.665002 -43.76 
L 313.756776 -43.76 
L 314.848551 -43.76 
L 315.940326 -43.76 
L 317.0321 -43.76 
L 318.123875 -43.76 
L 319.21565 -43.76 
L 320.307424 -43.76 
L 321.399199 -43.76 
L 322.490974 -43.76 
L 323.582748 -43.76 
L 324.674523 -43.76 
L 325.766298 -43.76 
L 326.858072 -43.76 
L 327.949847 -43.76 
L 329.041622 -43.76 
L 330.133396 -43.76 
L 331.225171 -43.76 
L 332.316946 -43.76 
L 333.40872 -43.76 
L 334.500495 -43.76 
L 335.59227 -43.76 
L 336.684044 -43.76 
L 337.775819 -43.76 
L 338.867594 -43.76 
L 339.959368 -43.76 
L 341.051143 -43.76 
L 342.142918 -43.76 
L 343.234692 -43.76 
L 344.326467 -43.76 
L 345.418242 -43.76 
L 346.510016 -43.76 
L 347.601791 -43.76 
L 348.693566 -43.76 
L 349.78534 -43.76 
L 350.877115 -43.76 
L 351.96889 -43.76 
L 353.060664 -43.76 
L 354.152439 -43.76 
L 355.244214 -43.76 
L 356.335988 -43.76 
L 357.427763 -43.76 
L 358.519538 -43.76 
L 359.611312 -43.76 
L 360.703087 -43.76 
L 361.794862 -43.76 
L 362.886636 -43.76 
L 363.978411 -43.76 
L 365.070186 -43.76 
L 366.16196 -43.76 
L 367.253735 -43.76 
L 368.34551 -43.76 
L 369.437285 -43.76 
L 370.529059 -43.76 
L 371.620834 -43.76 
L 372.712609 -43.76 
L 373.804383 -43.76 
L 374.896158 -43.76 
L 375.987933 -43.76 
L 377.079707 -43.76 
L 378.171482 -43.76 
L 379.263257 -43.76 
L 380.355031 -43.76 
L 381.446806 -43.76 
L 382.538581 -43.76 
L 383.630355 -43.76 
L 384.72213 -43.76 
L 385.813905 -43.76 
L 386.905679 -43.76 
L 387.997454 -43.76 
L 389.089229 -43.76 
L 390.181003 -43.76 
L 391.272778 -43.76 
L 392.364553 -43.76 
L 393.456327 -43.76 
L 394.548102 -43.76 
L 395.639877 -43.76 
L 396.731651 -43.76 
L 397.823426 -43.76 
L 398.915201 -43.76 
L 400.006975 -43.76 
L 401.09875 -43.76 
L 402.190525 -43.76 
L 403.282299 -43.76 
L 404.374074 -43.76 
L 404.374074 -44.090943 
L 404.374074 -44.090943 
L 403.282299 -44.300393 
L 402.190525 -44.626189 
L 401.09875 -45.122963 
L 400.006975 -45.865448 
L 398.915201 -46.953136 
L 397.823426 -48.514755 
L 396.731651 -50.711896 
L 395.639877 -53.740945 
L 394.548102 -57.832274 
L 393.456327 -63.245626 
L 392.364553 -70.260727 
L 391.272778 -79.16243 
L 390.181003 -90.22027 
L 389.089229 -103.662992 
L 387.997454 -119.649492 
L 386.905679 -138.238537 
L 385.813905 -159.360373 
L 384.72213 -182.793851 
L 383.630355 -208.152775 
L 382.538581 -234.884674 
L 381.446806 -262.284211 
L 380.355031 -289.521902 
L 379.263257 -315.687017 
L 378.171482 -339.841665 
L 377.079707 -361.081445 
L 375.987933 -378.596934 
L 374.896158 -391.72988 
L 373.804383 -400.018399 
L 372.712609 -403.226667 
L 371.620834 -401.356347 
L 370.529059 -394.639135 
L 369.437285 -383.511888 
L 368.34551 -368.577647 
L 367.253735 -350.55714 
L 366.16196 -330.235964 
L 365.070186 -308.41259 
L 363.978411 -285.85164 
L 362.886636 -263.245768 
L 361.794862 -241.188145 
L 360.703087 -220.156171 
L 359.611312 -200.505829 
L 358.519538 -182.475184 
L 357.427763 -166.194953 
L 356.335988 -151.703824 
L 355.244214 -138.966291 
L 354.152439 -127.891057 
L 353.060664 -118.348463 
L 351.96889 -110.185918 
L 350.877115 -103.240727 
L 349.78534 -97.350127 
L 348.693566 -92.358633 
L 347.601791 -88.122982 
L 346.510016 -84.515074 
L 345.418242 -81.423326 
L 344.326467 -78.752835 
L 343.234692 -76.424671 
L 342.142918 -74.374588 
L 341.051143 -72.551355 
L 339.959368 -70.914864 
L 338.867594 -69.434162 
L 337.775819 -68.085494 
L 336.684044 -66.850464 
L 335.59227 -65.71438 
L 334.500495 -64.664856 
L 333.40872 -63.690713 
L 332.316946 -62.781208 
L 331.225171 -61.925597 
L 330.133396 -61.113007 
L 329.041622 -60.332592 
L 327.949847 -59.573893 
L 326.858072 -58.827345 
L 325.766298 -58.084834 
L 324.674523 -57.340217 
L 323.582748 -56.589726 
L 322.490974 -55.832185 
L 321.399199 -55.069008 
L 320.307424 -54.303958 
L 319.21565 -53.5427 
L 318.123875 -52.792192 
L 317.0321 -52.060005 
L 315.940326 -51.353637 
L 314.848551 -50.679921 
L 313.756776 -50.04458 
L 312.665002 -49.451965 
L 311.573227 -48.904992 
L 310.481452 -48.405245 
L 309.389678 -47.953204 
L 308.297903 -47.548541 
L 307.206128 -47.190419 
L 306.114354 -46.877751 
L 305.022579 -46.609375 
L 303.930804 -46.384129 
L 302.83903 -46.200833 
L 301.747255 -46.058193 
L 300.65548 -45.954639 
L 299.563706 -45.888152 
L 298.471931 -45.856095 
L 297.380156 -45.855077 
L 296.288382 -45.880881 
L 295.196607 -45.928462 
L 294.104832 -45.992031 
L 293.013058 -46.065224 
L 291.921283 -46.141345 
L 290.829508 -46.213678 
L 289.737734 -46.275832 
L 288.645959 -46.322105 
L 287.554184 -46.347812 
L 286.46241 -46.349562 
L 285.370635 -46.325447 
L 284.27886 -46.275104 
L 283.187086 -46.199674 
L 282.095311 -46.10163 
L 281.003536 -45.984515 
L 279.911762 -45.852613 
L 278.819987 -45.710598 
L 277.728212 -45.563196 
L 276.636438 -45.41489 
L 275.544663 -45.2697 
L 274.452888 -45.131045 
L 273.361114 -45.001669 
L 272.269339 -44.883637 
L 271.177564 -44.778364 
L 270.08579 -44.686662 
L 268.994015 -44.608795 
L 267.90224 -44.544513 
L 266.810466 -44.493098 
L 265.718691 -44.453394 
L 264.626916 -44.423864 
L 263.535142 -44.402665 
L 262.443367 -44.387752 
L 261.351592 -44.377028 
L 260.259818 -44.368496 
L 259.168043 -44.360431 
L 258.076268 -44.351529 
L 256.984494 -44.341013 
L 255.892719 -44.328686 
L 254.800944 -44.314904 
L 253.70917 -44.300487 
L 252.617395 -44.28656 
L 251.52562 -44.274354 
L 250.433846 -44.264999 
L 249.342071 -44.259316 
L 248.250296 -44.257667 
L 247.158522 -44.25986 
L 246.066747 -44.265137 
L 244.974972 -44.272231 
L 243.883198 -44.279509 
L 242.791423 -44.28515 
L 241.699648 -44.287356 
L 240.607874 -44.284561 
L 239.516099 -44.275608 
L 238.424324 -44.259872 
L 237.33255 -44.237328 
L 236.240775 -44.208546 
L 235.149 -44.174622 
L 234.057226 -44.13707 
L 232.965451 -44.097678 
L 231.873676 -44.05836 
L 230.781902 -44.021009 
L 229.690127 -43.987384 
L 228.598352 -43.959016 
L 227.506578 -43.937152 
L 226.414803 -43.922718 
L 225.323028 -43.916304 
L 224.231254 -43.918165 
L 223.139479 -43.928208 
L 222.047704 -43.946001 
L 220.95593 -43.970763 
L 219.864155 -44.001368 
L 218.77238 -44.036364 
L 217.680606 -44.074007 
L 216.588831 -44.112323 
L 215.497056 -44.149205 
L 214.405282 -44.182536 
L 213.313507 -44.210326 
L 212.221732 -44.230859 
L 211.129958 -44.242828 
L 210.038183 -44.245442 
L 208.946408 -44.238487 
L 207.854634 -44.222336 
L 206.762859 -44.197908 
L 205.671084 -44.166569 
L 204.57931 -44.130002 
L 203.487535 -44.090058 
L 202.39576 -44.048596 
L 201.303986 -44.007344 
L 200.212211 -43.96779 
L 199.120436 -43.931104 
L 198.028662 -43.898104 
L 196.936887 -43.86926 
L 195.845112 -43.844728 
L 194.753338 -43.824403 
L 193.661563 -43.807984 
L 192.569788 -43.795042 
L 191.478014 -43.785084 
L 190.386239 -43.7776 
L 189.294464 -43.772105 
L 188.20269 -43.76816 
L 187.110915 -43.765392 
z
" style="stroke: #92c5de; stroke-width: 2.5"/>
    </defs>
    <g clip-path="url(#p08935615d4)">
     <use xlink:href="#mbe2602f1b1" x="0" y="432" style="fill: #92c5de; fill-opacity: 0.5; stroke: #92c5de; stroke-width: 2.5"/>
    </g>
   </g>
   <g id="PolyCollection_3">
    <defs>
     <path id="m30f38f8151" d="M 186.675893 -43.765293 
L 186.675893 -43.76 
L 187.769951 -43.76 
L 188.864009 -43.76 
L 189.958067 -43.76 
L 191.052124 -43.76 
L 192.146182 -43.76 
L 193.24024 -43.76 
L 194.334298 -43.76 
L 195.428356 -43.76 
L 196.522414 -43.76 
L 197.616472 -43.76 
L 198.71053 -43.76 
L 199.804587 -43.76 
L 200.898645 -43.76 
L 201.992703 -43.76 
L 203.086761 -43.76 
L 204.180819 -43.76 
L 205.274877 -43.76 
L 206.368935 -43.76 
L 207.462993 -43.76 
L 208.55705 -43.76 
L 209.651108 -43.76 
L 210.745166 -43.76 
L 211.839224 -43.76 
L 212.933282 -43.76 
L 214.02734 -43.76 
L 215.121398 -43.76 
L 216.215456 -43.76 
L 217.309513 -43.76 
L 218.403571 -43.76 
L 219.497629 -43.76 
L 220.591687 -43.76 
L 221.685745 -43.76 
L 222.779803 -43.76 
L 223.873861 -43.76 
L 224.967918 -43.76 
L 226.061976 -43.76 
L 227.156034 -43.76 
L 228.250092 -43.76 
L 229.34415 -43.76 
L 230.438208 -43.76 
L 231.532266 -43.76 
L 232.626324 -43.76 
L 233.720381 -43.76 
L 234.814439 -43.76 
L 235.908497 -43.76 
L 237.002555 -43.76 
L 238.096613 -43.76 
L 239.190671 -43.76 
L 240.284729 -43.76 
L 241.378787 -43.76 
L 242.472844 -43.76 
L 243.566902 -43.76 
L 244.66096 -43.76 
L 245.755018 -43.76 
L 246.849076 -43.76 
L 247.943134 -43.76 
L 249.037192 -43.76 
L 250.131249 -43.76 
L 251.225307 -43.76 
L 252.319365 -43.76 
L 253.413423 -43.76 
L 254.507481 -43.76 
L 255.601539 -43.76 
L 256.695597 -43.76 
L 257.789655 -43.76 
L 258.883712 -43.76 
L 259.97777 -43.76 
L 261.071828 -43.76 
L 262.165886 -43.76 
L 263.259944 -43.76 
L 264.354002 -43.76 
L 265.44806 -43.76 
L 266.542118 -43.76 
L 267.636175 -43.76 
L 268.730233 -43.76 
L 269.824291 -43.76 
L 270.918349 -43.76 
L 272.012407 -43.76 
L 273.106465 -43.76 
L 274.200523 -43.76 
L 275.29458 -43.76 
L 276.388638 -43.76 
L 277.482696 -43.76 
L 278.576754 -43.76 
L 279.670812 -43.76 
L 280.76487 -43.76 
L 281.858928 -43.76 
L 282.952986 -43.76 
L 284.047043 -43.76 
L 285.141101 -43.76 
L 286.235159 -43.76 
L 287.329217 -43.76 
L 288.423275 -43.76 
L 289.517333 -43.76 
L 290.611391 -43.76 
L 291.705449 -43.76 
L 292.799506 -43.76 
L 293.893564 -43.76 
L 294.987622 -43.76 
L 296.08168 -43.76 
L 297.175738 -43.76 
L 298.269796 -43.76 
L 299.363854 -43.76 
L 300.457911 -43.76 
L 301.551969 -43.76 
L 302.646027 -43.76 
L 303.740085 -43.76 
L 304.834143 -43.76 
L 305.928201 -43.76 
L 307.022259 -43.76 
L 308.116317 -43.76 
L 309.210374 -43.76 
L 310.304432 -43.76 
L 311.39849 -43.76 
L 312.492548 -43.76 
L 313.586606 -43.76 
L 314.680664 -43.76 
L 315.774722 -43.76 
L 316.86878 -43.76 
L 317.962837 -43.76 
L 319.056895 -43.76 
L 320.150953 -43.76 
L 321.245011 -43.76 
L 322.339069 -43.76 
L 323.433127 -43.76 
L 324.527185 -43.76 
L 325.621242 -43.76 
L 326.7153 -43.76 
L 327.809358 -43.76 
L 328.903416 -43.76 
L 329.997474 -43.76 
L 331.091532 -43.76 
L 332.18559 -43.76 
L 333.279648 -43.76 
L 334.373705 -43.76 
L 335.467763 -43.76 
L 336.561821 -43.76 
L 337.655879 -43.76 
L 338.749937 -43.76 
L 339.843995 -43.76 
L 340.938053 -43.76 
L 342.032111 -43.76 
L 343.126168 -43.76 
L 344.220226 -43.76 
L 345.314284 -43.76 
L 346.408342 -43.76 
L 347.5024 -43.76 
L 348.596458 -43.76 
L 349.690516 -43.76 
L 350.784573 -43.76 
L 351.878631 -43.76 
L 352.972689 -43.76 
L 354.066747 -43.76 
L 355.160805 -43.76 
L 356.254863 -43.76 
L 357.348921 -43.76 
L 358.442979 -43.76 
L 359.537036 -43.76 
L 360.631094 -43.76 
L 361.725152 -43.76 
L 362.81921 -43.76 
L 363.913268 -43.76 
L 365.007326 -43.76 
L 366.101384 -43.76 
L 367.195442 -43.76 
L 368.289499 -43.76 
L 369.383557 -43.76 
L 370.477615 -43.76 
L 371.571673 -43.76 
L 372.665731 -43.76 
L 373.759789 -43.76 
L 374.853847 -43.76 
L 375.947904 -43.76 
L 377.041962 -43.76 
L 378.13602 -43.76 
L 379.230078 -43.76 
L 380.324136 -43.76 
L 381.418194 -43.76 
L 382.512252 -43.76 
L 383.60631 -43.76 
L 384.700367 -43.76 
L 385.794425 -43.76 
L 386.888483 -43.76 
L 387.982541 -43.76 
L 389.076599 -43.76 
L 390.170657 -43.76 
L 391.264715 -43.76 
L 392.358773 -43.76 
L 393.45283 -43.76 
L 394.546888 -43.76 
L 395.640946 -43.76 
L 396.735004 -43.76 
L 397.829062 -43.76 
L 398.92312 -43.76 
L 400.017178 -43.76 
L 401.111235 -43.76 
L 402.205293 -43.76 
L 403.299351 -43.76 
L 404.393409 -43.76 
L 404.393409 -44.148347 
L 404.393409 -44.148347 
L 403.299351 -44.385087 
L 402.205293 -44.748289 
L 401.111235 -45.294865 
L 400.017178 -46.101651 
L 398.92312 -47.269642 
L 397.829062 -48.927941 
L 396.735004 -51.236753 
L 395.640946 -54.388653 
L 394.546888 -58.607177 
L 393.45283 -64.141829 
L 392.358773 -71.25866 
L 391.264715 -80.225913 
L 390.170657 -91.294695 
L 389.076599 -104.675283 
L 387.982541 -120.510436 
L 386.888483 -138.847847 
L 385.794425 -159.614525 
L 384.700367 -182.596299 
L 383.60631 -207.425656 
L 382.512252 -233.580707 
L 381.418194 -260.397188 
L 380.324136 -287.094077 
L 379.230078 -312.811919 
L 378.13602 -336.661295 
L 377.041962 -357.777536 
L 375.947904 -375.37675 
L 374.853847 -388.80788 
L 373.759789 -397.595752 
L 372.665731 -401.471035 
L 371.571673 -400.384404 
L 370.477615 -394.504003 
L 369.383557 -384.197037 
L 368.289499 -369.99796 
L 367.195442 -352.566897 
L 366.101384 -332.642663 
L 365.007326 -310.9948 
L 363.913268 -288.378723 
L 362.81921 -265.497216 
L 361.725152 -242.970523 
L 360.631094 -221.316107 
L 359.537036 -200.938148 
L 358.442979 -182.125923 
L 357.348921 -165.059611 
L 356.254863 -149.8217 
L 355.160805 -136.412059 
L 354.066747 -124.764834 
L 352.972689 -114.765611 
L 351.878631 -106.267582 
L 350.784573 -99.105858 
L 349.690516 -93.109417 
L 348.596458 -88.11048 
L 347.5024 -83.951354 
L 346.408342 -80.488965 
L 345.314284 -77.597386 
L 344.220226 -75.168754 
L 343.126168 -73.112935 
L 342.032111 -71.356297 
L 340.938053 -69.83991 
L 339.843995 -68.517435 
L 338.749937 -67.352905 
L 337.655879 -66.318564 
L 336.561821 -65.392884 
L 335.467763 -64.558834 
L 334.373705 -63.80244 
L 333.279648 -63.111655 
L 332.18559 -62.475545 
L 331.091532 -61.883746 
L 329.997474 -61.326186 
L 328.903416 -60.793015 
L 327.809358 -60.27471 
L 326.7153 -59.762313 
L 325.621242 -59.247741 
L 324.527185 -58.72414 
L 323.433127 -58.186223 
L 322.339069 -57.63055 
L 321.245011 -57.055715 
L 320.150953 -56.462403 
L 319.056895 -55.853299 
L 317.962837 -55.232856 
L 316.86878 -54.606917 
L 315.774722 -53.982239 
L 314.680664 -53.365957 
L 313.586606 -52.765034 
L 312.492548 -52.185761 
L 311.39849 -51.633339 
L 310.304432 -51.111603 
L 309.210374 -50.622889 
L 308.116317 -50.168053 
L 307.022259 -49.746629 
L 305.928201 -49.3571 
L 304.834143 -48.997235 
L 303.740085 -48.664441 
L 302.646027 -48.356101 
L 301.551969 -48.069843 
L 300.457911 -47.803719 
L 299.363854 -47.556272 
L 298.269796 -47.326505 
L 297.175738 -47.113752 
L 296.08168 -46.917488 
L 294.987622 -46.737113 
L 293.893564 -46.571748 
L 292.799506 -46.420082 
L 291.705449 -46.280295 
L 290.611391 -46.150075 
L 289.517333 -46.026733 
L 288.423275 -45.907396 
L 287.329217 -45.789253 
L 286.235159 -45.669826 
L 285.141101 -45.547207 
L 284.047043 -45.420255 
L 282.952986 -45.288696 
L 281.858928 -45.153137 
L 280.76487 -45.014975 
L 279.670812 -44.876231 
L 278.576754 -44.739325 
L 277.482696 -44.60682 
L 276.388638 -44.481177 
L 275.29458 -44.364545 
L 274.200523 -44.258599 
L 273.106465 -44.164455 
L 272.012407 -44.082641 
L 270.918349 -44.013139 
L 269.824291 -43.955469 
L 268.730233 -43.908804 
L 267.636175 -43.8721 
L 266.542118 -43.844222 
L 265.44806 -43.824058 
L 264.354002 -43.810609 
L 263.259944 -43.803053 
L 262.165886 -43.800781 
L 261.071828 -43.803403 
L 259.97777 -43.810734 
L 258.883712 -43.822753 
L 257.789655 -43.839553 
L 256.695597 -43.861268 
L 255.601539 -43.888006 
L 254.507481 -43.919775 
L 253.413423 -43.956415 
L 252.319365 -43.997557 
L 251.225307 -44.042588 
L 250.131249 -44.090658 
L 249.037192 -44.140699 
L 247.943134 -44.191489 
L 246.849076 -44.241716 
L 245.755018 -44.290064 
L 244.66096 -44.335297 
L 243.566902 -44.376324 
L 242.472844 -44.412248 
L 241.378787 -44.44239 
L 240.284729 -44.466278 
L 239.190671 -44.483629 
L 238.096613 -44.494306 
L 237.002555 -44.498289 
L 235.908497 -44.495651 
L 234.814439 -44.486555 
L 233.720381 -44.471274 
L 232.626324 -44.450227 
L 231.532266 -44.424029 
L 230.438208 -44.39353 
L 229.34415 -44.359837 
L 228.250092 -44.324314 
L 227.156034 -44.288532 
L 226.061976 -44.254194 
L 224.967918 -44.223009 
L 223.873861 -44.196566 
L 222.779803 -44.176178 
L 221.685745 -44.162754 
L 220.591687 -44.156689 
L 219.497629 -44.157803 
L 218.403571 -44.165325 
L 217.309513 -44.177939 
L 216.215456 -44.193885 
L 215.121398 -44.211101 
L 214.02734 -44.227399 
L 212.933282 -44.240654 
L 211.839224 -44.24899 
L 210.745166 -44.250935 
L 209.651108 -44.245534 
L 208.55705 -44.232416 
L 207.462993 -44.211791 
L 206.368935 -44.184404 
L 205.274877 -44.151429 
L 204.180819 -44.114342 
L 203.086761 -44.074771 
L 201.992703 -44.03435 
L 200.898645 -43.994588 
L 199.804587 -43.956775 
L 198.71053 -43.92191 
L 197.616472 -43.890678 
L 196.522414 -43.863453 
L 195.428356 -43.840334 
L 194.334298 -43.821186 
L 193.24024 -43.80571 
L 192.146182 -43.793494 
L 191.052124 -43.784072 
L 189.958067 -43.776969 
L 188.864009 -43.771733 
L 187.769951 -43.767957 
L 186.675893 -43.765293 
z
" style="stroke: #2166ac; stroke-width: 2.5"/>
    </defs>
    <g clip-path="url(#p08935615d4)">
     <use xlink:href="#m30f38f8151" x="0" y="432" style="fill: #2166ac; fill-opacity: 0.5; stroke: #2166ac; stroke-width: 2.5"/>
    </g>
   </g>
   <g id="matplotlib.axis_1">
    <g id="xtick_1">
     <g id="line2d_1">
      <defs>
       <path id="mb9e5ef71ef" d="M 0 0 
L 0 3.5 
" style="stroke: #000000; stroke-width: 0.8"/>
      </defs>
      <g>
       <use xlink:href="#mb9e5ef71ef" x="67.034847" y="388.24" style="stroke: #000000; stroke-width: 0.8"/>
      </g>
     </g>
     <g id="text_1">
      <!-- 0 -->
      <g transform="translate(63.853597 402.838437) scale(0.1 -0.1)">
       <defs>
        <path id="DejaVuSans-30" d="M 2034 4250 
Q 1547 4250 1301 3770 
Q 1056 3291 1056 2328 
Q 1056 1369 1301 889 
Q 1547 409 2034 409 
Q 2525 409 2770 889 
Q 3016 1369 3016 2328 
Q 3016 3291 2770 3770 
Q 2525 4250 2034 4250 
z
M 2034 4750 
Q 2819 4750 3233 4129 
Q 3647 3509 3647 2328 
Q 3647 1150 3233 529 
Q 2819 -91 2034 -91 
Q 1250 -91 836 529 
Q 422 1150 422 2328 
Q 422 3509 836 4129 
Q 1250 4750 2034 4750 
z
" transform="scale(0.015625)"/>
       </defs>
       <use xlink:href="#DejaVuSans-30"/>
      </g>
     </g>
    </g>
    <g id="xtick_2">
     <g id="line2d_2">
      <g>
       <use xlink:href="#mb9e5ef71ef" x="146.062881" y="388.24" style="stroke: #000000; stroke-width: 0.8"/>
      </g>
     </g>
     <g id="text_2">
      <!-- 1 -->
      <g transform="translate(142.881631 402.838437) scale(0.1 -0.1)">
       <defs>
        <path id="DejaVuSans-31" d="M 794 531 
L 1825 531 
L 1825 4091 
L 703 3866 
L 703 4441 
L 1819 4666 
L 2450 4666 
L 2450 531 
L 3481 531 
L 3481 0 
L 794 0 
L 794 531 
z
" transform="scale(0.015625)"/>
       </defs>
       <use xlink:href="#DejaVuSans-31"/>
      </g>
     </g>
    </g>
    <g id="xtick_3">
     <g id="line2d_3">
      <g>
       <use xlink:href="#mb9e5ef71ef" x="225.090915" y="388.24" style="stroke: #000000; stroke-width: 0.8"/>
      </g>
     </g>
     <g id="text_3">
      <!-- 2 -->
      <g transform="translate(221.909665 402.838437) scale(0.1 -0.1)">
       <defs>
        <path id="DejaVuSans-32" d="M 1228 531 
L 3431 531 
L 3431 0 
L 469 0 
L 469 531 
Q 828 903 1448 1529 
Q 2069 2156 2228 2338 
Q 2531 2678 2651 2914 
Q 2772 3150 2772 3378 
Q 2772 3750 2511 3984 
Q 2250 4219 1831 4219 
Q 1534 4219 1204 4116 
Q 875 4013 500 3803 
L 500 4441 
Q 881 4594 1212 4672 
Q 1544 4750 1819 4750 
Q 2544 4750 2975 4387 
Q 3406 4025 3406 3419 
Q 3406 3131 3298 2873 
Q 3191 2616 2906 2266 
Q 2828 2175 2409 1742 
Q 1991 1309 1228 531 
z
" transform="scale(0.015625)"/>
       </defs>
       <use xlink:href="#DejaVuSans-32"/>
      </g>
     </g>
    </g>
    <g id="xtick_4">
     <g id="line2d_4">
      <g>
       <use xlink:href="#mb9e5ef71ef" x="304.118948" y="388.24" style="stroke: #000000; stroke-width: 0.8"/>
      </g>
     </g>
     <g id="text_4">
      <!-- 3 -->
      <g transform="translate(300.937698 402.838437) scale(0.1 -0.1)">
       <defs>
        <path id="DejaVuSans-33" d="M 2597 2516 
Q 3050 2419 3304 2112 
Q 3559 1806 3559 1356 
Q 3559 666 3084 287 
Q 2609 -91 1734 -91 
Q 1441 -91 1130 -33 
Q 819 25 488 141 
L 488 750 
Q 750 597 1062 519 
Q 1375 441 1716 441 
Q 2309 441 2620 675 
Q 2931 909 2931 1356 
Q 2931 1769 2642 2001 
Q 2353 2234 1838 2234 
L 1294 2234 
L 1294 2753 
L 1863 2753 
Q 2328 2753 2575 2939 
Q 2822 3125 2822 3475 
Q 2822 3834 2567 4026 
Q 2313 4219 1838 4219 
Q 1578 4219 1281 4162 
Q 984 4106 628 3988 
L 628 4550 
Q 988 4650 1302 4700 
Q 1616 4750 1894 4750 
Q 2613 4750 3031 4423 
Q 3450 4097 3450 3541 
Q 3450 3153 3228 2886 
Q 3006 2619 2597 2516 
z
" transform="scale(0.015625)"/>
       </defs>
       <use xlink:href="#DejaVuSans-33"/>
      </g>
     </g>
    </g>
    <g id="xtick_5">
     <g id="line2d_5">
      <g>
       <use xlink:href="#mb9e5ef71ef" x="383.146982" y="388.24" style="stroke: #000000; stroke-width: 0.8"/>
      </g>
     </g>
     <g id="text_5">
      <!-- 4 -->
      <g transform="translate(379.965732 402.838437) scale(0.1 -0.1)">
       <defs>
        <path id="DejaVuSans-34" d="M 2419 4116 
L 825 1625 
L 2419 1625 
L 2419 4116 
z
M 2253 4666 
L 3047 4666 
L 3047 1625 
L 3713 1625 
L 3713 1100 
L 3047 1100 
L 3047 0 
L 2419 0 
L 2419 1100 
L 313 1100 
L 313 1709 
L 2253 4666 
z
" transform="scale(0.015625)"/>
       </defs>
       <use xlink:href="#DejaVuSans-34"/>
      </g>
     </g>
    </g>
    <g id="text_6">
     <!-- Predicted Fluorescence -->
     <g transform="translate(166.73125 418.03625) scale(0.12 -0.12)">
      <defs>
       <path id="DejaVuSans-50" d="M 1259 4147 
L 1259 2394 
L 2053 2394 
Q 2494 2394 2734 2622 
Q 2975 2850 2975 3272 
Q 2975 3691 2734 3919 
Q 2494 4147 2053 4147 
L 1259 4147 
z
M 628 4666 
L 2053 4666 
Q 2838 4666 3239 4311 
Q 3641 3956 3641 3272 
Q 3641 2581 3239 2228 
Q 2838 1875 2053 1875 
L 1259 1875 
L 1259 0 
L 628 0 
L 628 4666 
z
" transform="scale(0.015625)"/>
       <path id="DejaVuSans-72" d="M 2631 2963 
Q 2534 3019 2420 3045 
Q 2306 3072 2169 3072 
Q 1681 3072 1420 2755 
Q 1159 2438 1159 1844 
L 1159 0 
L 581 0 
L 581 3500 
L 1159 3500 
L 1159 2956 
Q 1341 3275 1631 3429 
Q 1922 3584 2338 3584 
Q 2397 3584 2469 3576 
Q 2541 3569 2628 3553 
L 2631 2963 
z
" transform="scale(0.015625)"/>
       <path id="DejaVuSans-65" d="M 3597 1894 
L 3597 1613 
L 953 1613 
Q 991 1019 1311 708 
Q 1631 397 2203 397 
Q 2534 397 2845 478 
Q 3156 559 3463 722 
L 3463 178 
Q 3153 47 2828 -22 
Q 2503 -91 2169 -91 
Q 1331 -91 842 396 
Q 353 884 353 1716 
Q 353 2575 817 3079 
Q 1281 3584 2069 3584 
Q 2775 3584 3186 3129 
Q 3597 2675 3597 1894 
z
M 3022 2063 
Q 3016 2534 2758 2815 
Q 2500 3097 2075 3097 
Q 1594 3097 1305 2825 
Q 1016 2553 972 2059 
L 3022 2063 
z
" transform="scale(0.015625)"/>
       <path id="DejaVuSans-64" d="M 2906 2969 
L 2906 4863 
L 3481 4863 
L 3481 0 
L 2906 0 
L 2906 525 
Q 2725 213 2448 61 
Q 2172 -91 1784 -91 
Q 1150 -91 751 415 
Q 353 922 353 1747 
Q 353 2572 751 3078 
Q 1150 3584 1784 3584 
Q 2172 3584 2448 3432 
Q 2725 3281 2906 2969 
z
M 947 1747 
Q 947 1113 1208 752 
Q 1469 391 1925 391 
Q 2381 391 2643 752 
Q 2906 1113 2906 1747 
Q 2906 2381 2643 2742 
Q 2381 3103 1925 3103 
Q 1469 3103 1208 2742 
Q 947 2381 947 1747 
z
" transform="scale(0.015625)"/>
       <path id="DejaVuSans-69" d="M 603 3500 
L 1178 3500 
L 1178 0 
L 603 0 
L 603 3500 
z
M 603 4863 
L 1178 4863 
L 1178 4134 
L 603 4134 
L 603 4863 
z
" transform="scale(0.015625)"/>
       <path id="DejaVuSans-63" d="M 3122 3366 
L 3122 2828 
Q 2878 2963 2633 3030 
Q 2388 3097 2138 3097 
Q 1578 3097 1268 2742 
Q 959 2388 959 1747 
Q 959 1106 1268 751 
Q 1578 397 2138 397 
Q 2388 397 2633 464 
Q 2878 531 3122 666 
L 3122 134 
Q 2881 22 2623 -34 
Q 2366 -91 2075 -91 
Q 1284 -91 818 406 
Q 353 903 353 1747 
Q 353 2603 823 3093 
Q 1294 3584 2113 3584 
Q 2378 3584 2631 3529 
Q 2884 3475 3122 3366 
z
" transform="scale(0.015625)"/>
       <path id="DejaVuSans-74" d="M 1172 4494 
L 1172 3500 
L 2356 3500 
L 2356 3053 
L 1172 3053 
L 1172 1153 
Q 1172 725 1289 603 
Q 1406 481 1766 481 
L 2356 481 
L 2356 0 
L 1766 0 
Q 1100 0 847 248 
Q 594 497 594 1153 
L 594 3053 
L 172 3053 
L 172 3500 
L 594 3500 
L 594 4494 
L 1172 4494 
z
" transform="scale(0.015625)"/>
       <path id="DejaVuSans-20" transform="scale(0.015625)"/>
       <path id="DejaVuSans-46" d="M 628 4666 
L 3309 4666 
L 3309 4134 
L 1259 4134 
L 1259 2759 
L 3109 2759 
L 3109 2228 
L 1259 2228 
L 1259 0 
L 628 0 
L 628 4666 
z
" transform="scale(0.015625)"/>
       <path id="DejaVuSans-6c" d="M 603 4863 
L 1178 4863 
L 1178 0 
L 603 0 
L 603 4863 
z
" transform="scale(0.015625)"/>
       <path id="DejaVuSans-75" d="M 544 1381 
L 544 3500 
L 1119 3500 
L 1119 1403 
Q 1119 906 1312 657 
Q 1506 409 1894 409 
Q 2359 409 2629 706 
Q 2900 1003 2900 1516 
L 2900 3500 
L 3475 3500 
L 3475 0 
L 2900 0 
L 2900 538 
Q 2691 219 2414 64 
Q 2138 -91 1772 -91 
Q 1169 -91 856 284 
Q 544 659 544 1381 
z
M 1991 3584 
L 1991 3584 
z
" transform="scale(0.015625)"/>
       <path id="DejaVuSans-6f" d="M 1959 3097 
Q 1497 3097 1228 2736 
Q 959 2375 959 1747 
Q 959 1119 1226 758 
Q 1494 397 1959 397 
Q 2419 397 2687 759 
Q 2956 1122 2956 1747 
Q 2956 2369 2687 2733 
Q 2419 3097 1959 3097 
z
M 1959 3584 
Q 2709 3584 3137 3096 
Q 3566 2609 3566 1747 
Q 3566 888 3137 398 
Q 2709 -91 1959 -91 
Q 1206 -91 779 398 
Q 353 888 353 1747 
Q 353 2609 779 3096 
Q 1206 3584 1959 3584 
z
" transform="scale(0.015625)"/>
       <path id="DejaVuSans-73" d="M 2834 3397 
L 2834 2853 
Q 2591 2978 2328 3040 
Q 2066 3103 1784 3103 
Q 1356 3103 1142 2972 
Q 928 2841 928 2578 
Q 928 2378 1081 2264 
Q 1234 2150 1697 2047 
L 1894 2003 
Q 2506 1872 2764 1633 
Q 3022 1394 3022 966 
Q 3022 478 2636 193 
Q 2250 -91 1575 -91 
Q 1294 -91 989 -36 
Q 684 19 347 128 
L 347 722 
Q 666 556 975 473 
Q 1284 391 1588 391 
Q 1994 391 2212 530 
Q 2431 669 2431 922 
Q 2431 1156 2273 1281 
Q 2116 1406 1581 1522 
L 1381 1569 
Q 847 1681 609 1914 
Q 372 2147 372 2553 
Q 372 3047 722 3315 
Q 1072 3584 1716 3584 
Q 2034 3584 2315 3537 
Q 2597 3491 2834 3397 
z
" transform="scale(0.015625)"/>
       <path id="DejaVuSans-6e" d="M 3513 2113 
L 3513 0 
L 2938 0 
L 2938 2094 
Q 2938 2591 2744 2837 
Q 2550 3084 2163 3084 
Q 1697 3084 1428 2787 
Q 1159 2491 1159 1978 
L 1159 0 
L 581 0 
L 581 3500 
L 1159 3500 
L 1159 2956 
Q 1366 3272 1645 3428 
Q 1925 3584 2291 3584 
Q 2894 3584 3203 3211 
Q 3513 2838 3513 2113 
z
" transform="scale(0.015625)"/>
      </defs>
      <use xlink:href="#DejaVuSans-50"/>
      <use xlink:href="#DejaVuSans-72" x="58.552734"/>
      <use xlink:href="#DejaVuSans-65" x="97.416016"/>
      <use xlink:href="#DejaVuSans-64" x="158.939453"/>
      <use xlink:href="#DejaVuSans-69" x="222.416016"/>
      <use xlink:href="#DejaVuSans-63" x="250.199219"/>
      <use xlink:href="#DejaVuSans-74" x="305.179688"/>
      <use xlink:href="#DejaVuSans-65" x="344.388672"/>
      <use xlink:href="#DejaVuSans-64" x="405.912109"/>
      <use xlink:href="#DejaVuSans-20" x="469.388672"/>
      <use xlink:href="#DejaVuSans-46" x="501.175781"/>
      <use xlink:href="#DejaVuSans-6c" x="558.695312"/>
      <use xlink:href="#DejaVuSans-75" x="586.478516"/>
      <use xlink:href="#DejaVuSans-6f" x="649.857422"/>
      <use xlink:href="#DejaVuSans-72" x="711.039062"/>
      <use xlink:href="#DejaVuSans-65" x="749.902344"/>
      <use xlink:href="#DejaVuSans-73" x="811.425781"/>
      <use xlink:href="#DejaVuSans-63" x="863.525391"/>
      <use xlink:href="#DejaVuSans-65" x="918.505859"/>
      <use xlink:href="#DejaVuSans-6e" x="980.029297"/>
      <use xlink:href="#DejaVuSans-63" x="1043.408203"/>
      <use xlink:href="#DejaVuSans-65" x="1098.388672"/>
     </g>
    </g>
   </g>
   <g id="matplotlib.axis_2">
    <g id="ytick_1">
     <g id="line2d_6">
      <defs>
       <path id="ma8901513e4" d="M 0 0 
L -3.5 0 
" style="stroke: #000000; stroke-width: 0.8"/>
      </defs>
      <g>
       <use xlink:href="#ma8901513e4" x="51.455" y="388.24" style="stroke: #000000; stroke-width: 0.8"/>
      </g>
     </g>
     <g id="text_7">
      <!-- 0.0 -->
      <g transform="translate(28.551875 392.039219) scale(0.1 -0.1)">
       <defs>
        <path id="DejaVuSans-2e" d="M 684 794 
L 1344 794 
L 1344 0 
L 684 0 
L 684 794 
z
" transform="scale(0.015625)"/>
       </defs>
       <use xlink:href="#DejaVuSans-30"/>
       <use xlink:href="#DejaVuSans-2e" x="63.623047"/>
       <use xlink:href="#DejaVuSans-30" x="95.410156"/>
      </g>
     </g>
    </g>
    <g id="ytick_2">
     <g id="line2d_7">
      <g>
       <use xlink:href="#ma8901513e4" x="51.455" y="328.827814" style="stroke: #000000; stroke-width: 0.8"/>
      </g>
     </g>
     <g id="text_8">
      <!-- 0.5 -->
      <g transform="translate(28.551875 332.627033) scale(0.1 -0.1)">
       <defs>
        <path id="DejaVuSans-35" d="M 691 4666 
L 3169 4666 
L 3169 4134 
L 1269 4134 
L 1269 2991 
Q 1406 3038 1543 3061 
Q 1681 3084 1819 3084 
Q 2600 3084 3056 2656 
Q 3513 2228 3513 1497 
Q 3513 744 3044 326 
Q 2575 -91 1722 -91 
Q 1428 -91 1123 -41 
Q 819 9 494 109 
L 494 744 
Q 775 591 1075 516 
Q 1375 441 1709 441 
Q 2250 441 2565 725 
Q 2881 1009 2881 1497 
Q 2881 1984 2565 2268 
Q 2250 2553 1709 2553 
Q 1456 2553 1204 2497 
Q 953 2441 691 2322 
L 691 4666 
z
" transform="scale(0.015625)"/>
       </defs>
       <use xlink:href="#DejaVuSans-30"/>
       <use xlink:href="#DejaVuSans-2e" x="63.623047"/>
       <use xlink:href="#DejaVuSans-35" x="95.410156"/>
      </g>
     </g>
    </g>
    <g id="ytick_3">
     <g id="line2d_8">
      <g>
       <use xlink:href="#ma8901513e4" x="51.455" y="269.415628" style="stroke: #000000; stroke-width: 0.8"/>
      </g>
     </g>
     <g id="text_9">
      <!-- 1.0 -->
      <g transform="translate(28.551875 273.214847) scale(0.1 -0.1)">
       <use xlink:href="#DejaVuSans-31"/>
       <use xlink:href="#DejaVuSans-2e" x="63.623047"/>
       <use xlink:href="#DejaVuSans-30" x="95.410156"/>
      </g>
     </g>
    </g>
    <g id="ytick_4">
     <g id="line2d_9">
      <g>
       <use xlink:href="#ma8901513e4" x="51.455" y="210.003442" style="stroke: #000000; stroke-width: 0.8"/>
      </g>
     </g>
     <g id="text_10">
      <!-- 1.5 -->
      <g transform="translate(28.551875 213.802661) scale(0.1 -0.1)">
       <use xlink:href="#DejaVuSans-31"/>
       <use xlink:href="#DejaVuSans-2e" x="63.623047"/>
       <use xlink:href="#DejaVuSans-35" x="95.410156"/>
      </g>
     </g>
    </g>
    <g id="ytick_5">
     <g id="line2d_10">
      <g>
       <use xlink:href="#ma8901513e4" x="51.455" y="150.591256" style="stroke: #000000; stroke-width: 0.8"/>
      </g>
     </g>
     <g id="text_11">
      <!-- 2.0 -->
      <g transform="translate(28.551875 154.390475) scale(0.1 -0.1)">
       <use xlink:href="#DejaVuSans-32"/>
       <use xlink:href="#DejaVuSans-2e" x="63.623047"/>
       <use xlink:href="#DejaVuSans-30" x="95.410156"/>
      </g>
     </g>
    </g>
    <g id="ytick_6">
     <g id="line2d_11">
      <g>
       <use xlink:href="#ma8901513e4" x="51.455" y="91.17907" style="stroke: #000000; stroke-width: 0.8"/>
      </g>
     </g>
     <g id="text_12">
      <!-- 2.5 -->
      <g transform="translate(28.551875 94.978289) scale(0.1 -0.1)">
       <use xlink:href="#DejaVuSans-32"/>
       <use xlink:href="#DejaVuSans-2e" x="63.623047"/>
       <use xlink:href="#DejaVuSans-35" x="95.410156"/>
      </g>
     </g>
    </g>
    <g id="ytick_7">
     <g id="line2d_12">
      <g>
       <use xlink:href="#ma8901513e4" x="51.455" y="31.766884" style="stroke: #000000; stroke-width: 0.8"/>
      </g>
     </g>
     <g id="text_13">
      <!-- 3.0 -->
      <g transform="translate(28.551875 35.566103) scale(0.1 -0.1)">
       <use xlink:href="#DejaVuSans-33"/>
       <use xlink:href="#DejaVuSans-2e" x="63.623047"/>
       <use xlink:href="#DejaVuSans-30" x="95.410156"/>
      </g>
     </g>
    </g>
    <g id="text_14">
     <!-- Density -->
     <g transform="translate(21.640313 226.132031) rotate(-90) scale(0.14 -0.14)">
      <defs>
       <path id="DejaVuSans-44" d="M 1259 4147 
L 1259 519 
L 2022 519 
Q 2988 519 3436 956 
Q 3884 1394 3884 2338 
Q 3884 3275 3436 3711 
Q 2988 4147 2022 4147 
L 1259 4147 
z
M 628 4666 
L 1925 4666 
Q 3281 4666 3915 4102 
Q 4550 3538 4550 2338 
Q 4550 1131 3912 565 
Q 3275 0 1925 0 
L 628 0 
L 628 4666 
z
" transform="scale(0.015625)"/>
       <path id="DejaVuSans-79" d="M 2059 -325 
Q 1816 -950 1584 -1140 
Q 1353 -1331 966 -1331 
L 506 -1331 
L 506 -850 
L 844 -850 
Q 1081 -850 1212 -737 
Q 1344 -625 1503 -206 
L 1606 56 
L 191 3500 
L 800 3500 
L 1894 763 
L 2988 3500 
L 3597 3500 
L 2059 -325 
z
" transform="scale(0.015625)"/>
      </defs>
      <use xlink:href="#DejaVuSans-44"/>
      <use xlink:href="#DejaVuSans-65" x="77.001953"/>
      <use xlink:href="#DejaVuSans-6e" x="138.525391"/>
      <use xlink:href="#DejaVuSans-73" x="201.904297"/>
      <use xlink:href="#DejaVuSans-69" x="254.003906"/>
      <use xlink:href="#DejaVuSans-74" x="281.787109"/>
      <use xlink:href="#DejaVuSans-79" x="320.996094"/>
     </g>
    </g>
   </g>
   <g id="line2d_13">
    <path d="M 357.69479 388.24 
L 357.69479 10.8 
" clip-path="url(#p08935615d4)" style="fill: none; stroke-dasharray: 3.7,1.6; stroke-dashoffset: 0; stroke: #000000"/>
   </g>
   <g id="patch_3">
    <path d="M 51.455 388.24 
L 51.455 10.8 
" style="fill: none; stroke: #000000; stroke-width: 0.8; stroke-linejoin: miter; stroke-linecap: square"/>
   </g>
   <g id="patch_4">
    <path d="M 51.455 388.24 
L 421.2 388.24 
" style="fill: none; stroke: #000000; stroke-width: 0.8; stroke-linejoin: miter; stroke-linecap: square"/>
   </g>
   <g id="legend_1">
    <g id="patch_5">
     <path d="M 58.455 77.5125 
L 202.540938 77.5125 
Q 204.540938 77.5125 204.540938 75.5125 
L 204.540938 17.8 
Q 204.540938 15.8 202.540938 15.8 
L 58.455 15.8 
Q 56.455 15.8 56.455 17.8 
L 56.455 75.5125 
Q 56.455 77.5125 58.455 77.5125 
z
" style="fill: #ffffff; opacity: 0.8; stroke: #cccccc; stroke-linejoin: miter"/>
    </g>
    <g id="patch_6">
     <path d="M 60.455 27.398438 
L 80.455 27.398438 
L 80.455 20.398438 
L 60.455 20.398438 
z
" style="fill: #bdbdbd; fill-opacity: 0.5; stroke: #bdbdbd; stroke-width: 2.5; stroke-linejoin: miter"/>
    </g>
    <g id="text_15">
     <!-- Pre-trained ESM2 (8M) -->
     <g transform="translate(88.455 27.398438) scale(0.1 -0.1)">
      <defs>
       <path id="DejaVuSans-2d" d="M 313 2009 
L 1997 2009 
L 1997 1497 
L 313 1497 
L 313 2009 
z
" transform="scale(0.015625)"/>
       <path id="DejaVuSans-61" d="M 2194 1759 
Q 1497 1759 1228 1600 
Q 959 1441 959 1056 
Q 959 750 1161 570 
Q 1363 391 1709 391 
Q 2188 391 2477 730 
Q 2766 1069 2766 1631 
L 2766 1759 
L 2194 1759 
z
M 3341 1997 
L 3341 0 
L 2766 0 
L 2766 531 
Q 2569 213 2275 61 
Q 1981 -91 1556 -91 
Q 1019 -91 701 211 
Q 384 513 384 1019 
Q 384 1609 779 1909 
Q 1175 2209 1959 2209 
L 2766 2209 
L 2766 2266 
Q 2766 2663 2505 2880 
Q 2244 3097 1772 3097 
Q 1472 3097 1187 3025 
Q 903 2953 641 2809 
L 641 3341 
Q 956 3463 1253 3523 
Q 1550 3584 1831 3584 
Q 2591 3584 2966 3190 
Q 3341 2797 3341 1997 
z
" transform="scale(0.015625)"/>
       <path id="DejaVuSans-45" d="M 628 4666 
L 3578 4666 
L 3578 4134 
L 1259 4134 
L 1259 2753 
L 3481 2753 
L 3481 2222 
L 1259 2222 
L 1259 531 
L 3634 531 
L 3634 0 
L 628 0 
L 628 4666 
z
" transform="scale(0.015625)"/>
       <path id="DejaVuSans-53" d="M 3425 4513 
L 3425 3897 
Q 3066 4069 2747 4153 
Q 2428 4238 2131 4238 
Q 1616 4238 1336 4038 
Q 1056 3838 1056 3469 
Q 1056 3159 1242 3001 
Q 1428 2844 1947 2747 
L 2328 2669 
Q 3034 2534 3370 2195 
Q 3706 1856 3706 1288 
Q 3706 609 3251 259 
Q 2797 -91 1919 -91 
Q 1588 -91 1214 -16 
Q 841 59 441 206 
L 441 856 
Q 825 641 1194 531 
Q 1563 422 1919 422 
Q 2459 422 2753 634 
Q 3047 847 3047 1241 
Q 3047 1584 2836 1778 
Q 2625 1972 2144 2069 
L 1759 2144 
Q 1053 2284 737 2584 
Q 422 2884 422 3419 
Q 422 4038 858 4394 
Q 1294 4750 2059 4750 
Q 2388 4750 2728 4690 
Q 3069 4631 3425 4513 
z
" transform="scale(0.015625)"/>
       <path id="DejaVuSans-4d" d="M 628 4666 
L 1569 4666 
L 2759 1491 
L 3956 4666 
L 4897 4666 
L 4897 0 
L 4281 0 
L 4281 4097 
L 3078 897 
L 2444 897 
L 1241 4097 
L 1241 0 
L 628 0 
L 628 4666 
z
" transform="scale(0.015625)"/>
       <path id="DejaVuSans-28" d="M 1984 4856 
Q 1566 4138 1362 3434 
Q 1159 2731 1159 2009 
Q 1159 1288 1364 580 
Q 1569 -128 1984 -844 
L 1484 -844 
Q 1016 -109 783 600 
Q 550 1309 550 2009 
Q 550 2706 781 3412 
Q 1013 4119 1484 4856 
L 1984 4856 
z
" transform="scale(0.015625)"/>
       <path id="DejaVuSans-38" d="M 2034 2216 
Q 1584 2216 1326 1975 
Q 1069 1734 1069 1313 
Q 1069 891 1326 650 
Q 1584 409 2034 409 
Q 2484 409 2743 651 
Q 3003 894 3003 1313 
Q 3003 1734 2745 1975 
Q 2488 2216 2034 2216 
z
M 1403 2484 
Q 997 2584 770 2862 
Q 544 3141 544 3541 
Q 544 4100 942 4425 
Q 1341 4750 2034 4750 
Q 2731 4750 3128 4425 
Q 3525 4100 3525 3541 
Q 3525 3141 3298 2862 
Q 3072 2584 2669 2484 
Q 3125 2378 3379 2068 
Q 3634 1759 3634 1313 
Q 3634 634 3220 271 
Q 2806 -91 2034 -91 
Q 1263 -91 848 271 
Q 434 634 434 1313 
Q 434 1759 690 2068 
Q 947 2378 1403 2484 
z
M 1172 3481 
Q 1172 3119 1398 2916 
Q 1625 2713 2034 2713 
Q 2441 2713 2670 2916 
Q 2900 3119 2900 3481 
Q 2900 3844 2670 4047 
Q 2441 4250 2034 4250 
Q 1625 4250 1398 4047 
Q 1172 3844 1172 3481 
z
" transform="scale(0.015625)"/>
       <path id="DejaVuSans-29" d="M 513 4856 
L 1013 4856 
Q 1481 4119 1714 3412 
Q 1947 2706 1947 2009 
Q 1947 1309 1714 600 
Q 1481 -109 1013 -844 
L 513 -844 
Q 928 -128 1133 580 
Q 1338 1288 1338 2009 
Q 1338 2731 1133 3434 
Q 928 4138 513 4856 
z
" transform="scale(0.015625)"/>
      </defs>
      <use xlink:href="#DejaVuSans-50"/>
      <use xlink:href="#DejaVuSans-72" x="58.552734"/>
      <use xlink:href="#DejaVuSans-65" x="97.416016"/>
      <use xlink:href="#DejaVuSans-2d" x="158.939453"/>
      <use xlink:href="#DejaVuSans-74" x="195.023438"/>
      <use xlink:href="#DejaVuSans-72" x="234.232422"/>
      <use xlink:href="#DejaVuSans-61" x="275.345703"/>
      <use xlink:href="#DejaVuSans-69" x="336.625"/>
      <use xlink:href="#DejaVuSans-6e" x="364.408203"/>
      <use xlink:href="#DejaVuSans-65" x="427.787109"/>
      <use xlink:href="#DejaVuSans-64" x="489.310547"/>
      <use xlink:href="#DejaVuSans-20" x="552.787109"/>
      <use xlink:href="#DejaVuSans-45" x="584.574219"/>
      <use xlink:href="#DejaVuSans-53" x="647.757812"/>
      <use xlink:href="#DejaVuSans-4d" x="711.234375"/>
      <use xlink:href="#DejaVuSans-32" x="797.513672"/>
      <use xlink:href="#DejaVuSans-20" x="861.136719"/>
      <use xlink:href="#DejaVuSans-28" x="892.923828"/>
      <use xlink:href="#DejaVuSans-38" x="931.9375"/>
      <use xlink:href="#DejaVuSans-4d" x="995.560547"/>
      <use xlink:href="#DejaVuSans-29" x="1081.839844"/>
     </g>
    </g>
    <g id="patch_7">
     <path d="M 60.455 42.076563 
L 80.455 42.076563 
L 80.455 35.076563 
L 60.455 35.076563 
z
" style="fill: #92c5de; fill-opacity: 0.5; stroke: #92c5de; stroke-width: 2.5; stroke-linejoin: miter"/>
    </g>
    <g id="text_16">
     <!-- SFT ESM2 (8M) -->
     <g transform="translate(88.455 42.076563) scale(0.1 -0.1)">
      <defs>
       <path id="DejaVuSans-54" d="M -19 4666 
L 3928 4666 
L 3928 4134 
L 2272 4134 
L 2272 0 
L 1638 0 
L 1638 4134 
L -19 4134 
L -19 4666 
z
" transform="scale(0.015625)"/>
      </defs>
      <use xlink:href="#DejaVuSans-53"/>
      <use xlink:href="#DejaVuSans-46" x="63.476562"/>
      <use xlink:href="#DejaVuSans-54" x="119.246094"/>
      <use xlink:href="#DejaVuSans-20" x="180.330078"/>
      <use xlink:href="#DejaVuSans-45" x="212.117188"/>
      <use xlink:href="#DejaVuSans-53" x="275.300781"/>
      <use xlink:href="#DejaVuSans-4d" x="338.777344"/>
      <use xlink:href="#DejaVuSans-32" x="425.056641"/>
      <use xlink:href="#DejaVuSans-20" x="488.679688"/>
      <use xlink:href="#DejaVuSans-28" x="520.466797"/>
      <use xlink:href="#DejaVuSans-38" x="559.480469"/>
      <use xlink:href="#DejaVuSans-4d" x="623.103516"/>
      <use xlink:href="#DejaVuSans-29" x="709.382812"/>
     </g>
    </g>
    <g id="patch_8">
     <path d="M 60.455 56.754688 
L 80.455 56.754688 
L 80.455 49.754688 
L 60.455 49.754688 
z
" style="fill: #2166ac; fill-opacity: 0.5; stroke: #2166ac; stroke-width: 2.5; stroke-linejoin: miter"/>
    </g>
    <g id="text_17">
     <!-- Aligned ESM2 (8M) -->
     <g transform="translate(88.455 56.754688) scale(0.1 -0.1)">
      <defs>
       <path id="DejaVuSans-41" d="M 2188 4044 
L 1331 1722 
L 3047 1722 
L 2188 4044 
z
M 1831 4666 
L 2547 4666 
L 4325 0 
L 3669 0 
L 3244 1197 
L 1141 1197 
L 716 0 
L 50 0 
L 1831 4666 
z
" transform="scale(0.015625)"/>
       <path id="DejaVuSans-67" d="M 2906 1791 
Q 2906 2416 2648 2759 
Q 2391 3103 1925 3103 
Q 1463 3103 1205 2759 
Q 947 2416 947 1791 
Q 947 1169 1205 825 
Q 1463 481 1925 481 
Q 2391 481 2648 825 
Q 2906 1169 2906 1791 
z
M 3481 434 
Q 3481 -459 3084 -895 
Q 2688 -1331 1869 -1331 
Q 1566 -1331 1297 -1286 
Q 1028 -1241 775 -1147 
L 775 -588 
Q 1028 -725 1275 -790 
Q 1522 -856 1778 -856 
Q 2344 -856 2625 -561 
Q 2906 -266 2906 331 
L 2906 616 
Q 2728 306 2450 153 
Q 2172 0 1784 0 
Q 1141 0 747 490 
Q 353 981 353 1791 
Q 353 2603 747 3093 
Q 1141 3584 1784 3584 
Q 2172 3584 2450 3431 
Q 2728 3278 2906 2969 
L 2906 3500 
L 3481 3500 
L 3481 434 
z
" transform="scale(0.015625)"/>
      </defs>
      <use xlink:href="#DejaVuSans-41"/>
      <use xlink:href="#DejaVuSans-6c" x="68.408203"/>
      <use xlink:href="#DejaVuSans-69" x="96.191406"/>
      <use xlink:href="#DejaVuSans-67" x="123.974609"/>
      <use xlink:href="#DejaVuSans-6e" x="187.451172"/>
      <use xlink:href="#DejaVuSans-65" x="250.830078"/>
      <use xlink:href="#DejaVuSans-64" x="312.353516"/>
      <use xlink:href="#DejaVuSans-20" x="375.830078"/>
      <use xlink:href="#DejaVuSans-45" x="407.617188"/>
      <use xlink:href="#DejaVuSans-53" x="470.800781"/>
      <use xlink:href="#DejaVuSans-4d" x="534.277344"/>
      <use xlink:href="#DejaVuSans-32" x="620.556641"/>
      <use xlink:href="#DejaVuSans-20" x="684.179688"/>
      <use xlink:href="#DejaVuSans-28" x="715.966797"/>
      <use xlink:href="#DejaVuSans-38" x="754.980469"/>
      <use xlink:href="#DejaVuSans-4d" x="818.603516"/>
      <use xlink:href="#DejaVuSans-29" x="904.882812"/>
     </g>
    </g>
    <g id="line2d_14">
     <path d="M 60.455 67.932813 
L 70.455 67.932813 
L 80.455 67.932813 
" style="fill: none; stroke-dasharray: 3.7,1.6; stroke-dashoffset: 0; stroke: #000000"/>
    </g>
    <g id="text_18">
     <!-- Predicted avGFP score -->
     <g transform="translate(88.455 71.432813) scale(0.1 -0.1)">
      <defs>
       <path id="DejaVuSans-76" d="M 191 3500 
L 800 3500 
L 1894 563 
L 2988 3500 
L 3597 3500 
L 2284 0 
L 1503 0 
L 191 3500 
z
" transform="scale(0.015625)"/>
       <path id="DejaVuSans-47" d="M 3809 666 
L 3809 1919 
L 2778 1919 
L 2778 2438 
L 4434 2438 
L 4434 434 
Q 4069 175 3628 42 
Q 3188 -91 2688 -91 
Q 1594 -91 976 548 
Q 359 1188 359 2328 
Q 359 3472 976 4111 
Q 1594 4750 2688 4750 
Q 3144 4750 3555 4637 
Q 3966 4525 4313 4306 
L 4313 3634 
Q 3963 3931 3569 4081 
Q 3175 4231 2741 4231 
Q 1884 4231 1454 3753 
Q 1025 3275 1025 2328 
Q 1025 1384 1454 906 
Q 1884 428 2741 428 
Q 3075 428 3337 486 
Q 3600 544 3809 666 
z
" transform="scale(0.015625)"/>
      </defs>
      <use xlink:href="#DejaVuSans-50"/>
      <use xlink:href="#DejaVuSans-72" x="58.552734"/>
      <use xlink:href="#DejaVuSans-65" x="97.416016"/>
      <use xlink:href="#DejaVuSans-64" x="158.939453"/>
      <use xlink:href="#DejaVuSans-69" x="222.416016"/>
      <use xlink:href="#DejaVuSans-63" x="250.199219"/>
      <use xlink:href="#DejaVuSans-74" x="305.179688"/>
      <use xlink:href="#DejaVuSans-65" x="344.388672"/>
      <use xlink:href="#DejaVuSans-64" x="405.912109"/>
      <use xlink:href="#DejaVuSans-20" x="469.388672"/>
      <use xlink:href="#DejaVuSans-61" x="501.175781"/>
      <use xlink:href="#DejaVuSans-76" x="562.455078"/>
      <use xlink:href="#DejaVuSans-47" x="621.634766"/>
      <use xlink:href="#DejaVuSans-46" x="699.125"/>
      <use xlink:href="#DejaVuSans-50" x="756.644531"/>
      <use xlink:href="#DejaVuSans-20" x="816.947266"/>
      <use xlink:href="#DejaVuSans-73" x="848.734375"/>
      <use xlink:href="#DejaVuSans-63" x="900.833984"/>
      <use xlink:href="#DejaVuSans-6f" x="955.814453"/>
      <use xlink:href="#DejaVuSans-72" x="1016.996094"/>
      <use xlink:href="#DejaVuSans-65" x="1055.859375"/>
     </g>
    </g>
   </g>
  </g>
 </g>
 <defs>
  <clipPath id="p08935615d4">
   <rect x="51.455" y="10.8" width="369.745" height="377.44"/>
  </clipPath>
 </defs>
</svg>
