<?xml version="1.0" encoding="utf-8" standalone="no"?>
<!DOCTYPE svg PUBLIC "-//W3C//DTD SVG 1.1//EN"
  "http://www.w3.org/Graphics/SVG/1.1/DTD/svg11.dtd">
<svg xmlns:xlink="http://www.w3.org/1999/xlink" width="432pt" height="432pt" viewBox="0 0 432 432" xmlns="http://www.w3.org/2000/svg" version="1.1">
 <metadata>
  <rdf:RDF xmlns:dc="http://purl.org/dc/elements/1.1/" xmlns:cc="http://creativecommons.org/ns#" xmlns:rdf="http://www.w3.org/1999/02/22-rdf-syntax-ns#">
   <cc:Work>
    <dc:type rdf:resource="http://purl.org/dc/dcmitype/StillImage"/>
    <dc:date>2025-04-02T14:19:40.174268</dc:date>
    <dc:format>image/svg+xml</dc:format>
    <dc:creator>
     <cc:Agent>
      <dc:title>Matplotlib v3.8.0, https://matplotlib.org/</dc:title>
     </cc:Agent>
    </dc:creator>
   </cc:Work>
  </rdf:RDF>
 </metadata>
 <defs>
  <style type="text/css">*{stroke-linejoin: round; stroke-linecap: butt}</style>
 </defs>
 <g id="figure_1">
  <g id="patch_1">
   <path d="M 0 432 
L 432 432 
L 432 0 
L 0 0 
z
" style="fill: #ffffff"/>
  </g>
  <g id="axes_1">
   <g id="patch_2">
    <path d="M 57.8 389.32 
L 421.2 389.32 
L 421.2 10.8 
L 57.8 10.8 
z
" style="fill: #ffffff"/>
   </g>
   <g id="PolyCollection_1">
    <defs>
     <path id="m28f630c2f9" d="M 82.87354 -42.7491 
L 82.87354 -42.68 
L 84.279068 -42.68 
L 85.684597 -42.68 
L 87.090125 -42.68 
L 88.495653 -42.68 
L 89.901181 -42.68 
L 91.306709 -42.68 
L 92.712238 -42.68 
L 94.117766 -42.68 
L 95.523294 -42.68 
L 96.928822 -42.68 
L 98.33435 -42.68 
L 99.739879 -42.68 
L 101.145407 -42.68 
L 102.550935 -42.68 
L 103.956463 -42.68 
L 105.361991 -42.68 
L 106.76752 -42.68 
L 108.173048 -42.68 
L 109.578576 -42.68 
L 110.984104 -42.68 
L 112.389632 -42.68 
L 113.795161 -42.68 
L 115.200689 -42.68 
L 116.606217 -42.68 
L 118.011745 -42.68 
L 119.417273 -42.68 
L 120.822802 -42.68 
L 122.22833 -42.68 
L 123.633858 -42.68 
L 125.039386 -42.68 
L 126.444914 -42.68 
L 127.850443 -42.68 
L 129.255971 -42.68 
L 130.661499 -42.68 
L 132.067027 -42.68 
L 133.472555 -42.68 
L 134.878084 -42.68 
L 136.283612 -42.68 
L 137.68914 -42.68 
L 139.094668 -42.68 
L 140.500196 -42.68 
L 141.905725 -42.68 
L 143.311253 -42.68 
L 144.716781 -42.68 
L 146.122309 -42.68 
L 147.527837 -42.68 
L 148.933366 -42.68 
L 150.338894 -42.68 
L 151.744422 -42.68 
L 153.14995 -42.68 
L 154.555478 -42.68 
L 155.961007 -42.68 
L 157.366535 -42.68 
L 158.772063 -42.68 
L 160.177591 -42.68 
L 161.583119 -42.68 
L 162.988648 -42.68 
L 164.394176 -42.68 
L 165.799704 -42.68 
L 167.205232 -42.68 
L 168.61076 -42.68 
L 170.016289 -42.68 
L 171.421817 -42.68 
L 172.827345 -42.68 
L 174.232873 -42.68 
L 175.638401 -42.68 
L 177.04393 -42.68 
L 178.449458 -42.68 
L 179.854986 -42.68 
L 181.260514 -42.68 
L 182.666042 -42.68 
L 184.071571 -42.68 
L 185.477099 -42.68 
L 186.882627 -42.68 
L 188.288155 -42.68 
L 189.693683 -42.68 
L 191.099212 -42.68 
L 192.50474 -42.68 
L 193.910268 -42.68 
L 195.315796 -42.68 
L 196.721324 -42.68 
L 198.126853 -42.68 
L 199.532381 -42.68 
L 200.937909 -42.68 
L 202.343437 -42.68 
L 203.748965 -42.68 
L 205.154494 -42.68 
L 206.560022 -42.68 
L 207.96555 -42.68 
L 209.371078 -42.68 
L 210.776606 -42.68 
L 212.182135 -42.68 
L 213.587663 -42.68 
L 214.993191 -42.68 
L 216.398719 -42.68 
L 217.804247 -42.68 
L 219.209776 -42.68 
L 220.615304 -42.68 
L 222.020832 -42.68 
L 223.42636 -42.68 
L 224.831888 -42.68 
L 226.237417 -42.68 
L 227.642945 -42.68 
L 229.048473 -42.68 
L 230.454001 -42.68 
L 231.859529 -42.68 
L 233.265058 -42.68 
L 234.670586 -42.68 
L 236.076114 -42.68 
L 237.481642 -42.68 
L 238.88717 -42.68 
L 240.292699 -42.68 
L 241.698227 -42.68 
L 243.103755 -42.68 
L 244.509283 -42.68 
L 245.914811 -42.68 
L 247.32034 -42.68 
L 248.725868 -42.68 
L 250.131396 -42.68 
L 251.536924 -42.68 
L 252.942452 -42.68 
L 254.347981 -42.68 
L 255.753509 -42.68 
L 257.159037 -42.68 
L 258.564565 -42.68 
L 259.970093 -42.68 
L 261.375622 -42.68 
L 262.78115 -42.68 
L 264.186678 -42.68 
L 265.592206 -42.68 
L 266.997734 -42.68 
L 268.403263 -42.68 
L 269.808791 -42.68 
L 271.214319 -42.68 
L 272.619847 -42.68 
L 274.025375 -42.68 
L 275.430904 -42.68 
L 276.836432 -42.68 
L 278.24196 -42.68 
L 279.647488 -42.68 
L 281.053016 -42.68 
L 282.458545 -42.68 
L 283.864073 -42.68 
L 285.269601 -42.68 
L 286.675129 -42.68 
L 288.080657 -42.68 
L 289.486186 -42.68 
L 290.891714 -42.68 
L 292.297242 -42.68 
L 293.70277 -42.68 
L 295.108298 -42.68 
L 296.513827 -42.68 
L 297.919355 -42.68 
L 299.324883 -42.68 
L 300.730411 -42.68 
L 302.135939 -42.68 
L 303.541468 -42.68 
L 304.946996 -42.68 
L 306.352524 -42.68 
L 307.758052 -42.68 
L 309.163581 -42.68 
L 310.569109 -42.68 
L 311.974637 -42.68 
L 313.380165 -42.68 
L 314.785693 -42.68 
L 316.191222 -42.68 
L 317.59675 -42.68 
L 319.002278 -42.68 
L 320.407806 -42.68 
L 321.813334 -42.68 
L 323.218863 -42.68 
L 324.624391 -42.68 
L 326.029919 -42.68 
L 327.435447 -42.68 
L 328.840975 -42.68 
L 330.246504 -42.68 
L 331.652032 -42.68 
L 333.05756 -42.68 
L 334.463088 -42.68 
L 335.868616 -42.68 
L 337.274145 -42.68 
L 338.679673 -42.68 
L 340.085201 -42.68 
L 341.490729 -42.68 
L 342.896257 -42.68 
L 344.301786 -42.68 
L 345.707314 -42.68 
L 347.112842 -42.68 
L 348.51837 -42.68 
L 349.923898 -42.68 
L 351.329427 -42.68 
L 352.734955 -42.68 
L 354.140483 -42.68 
L 355.546011 -42.68 
L 356.951539 -42.68 
L 358.357068 -42.68 
L 359.762596 -42.68 
L 361.168124 -42.68 
L 362.573652 -42.68 
L 362.573652 -42.708343 
L 362.573652 -42.708343 
L 361.168124 -42.721094 
L 359.762596 -42.738845 
L 358.357068 -42.763231 
L 356.951539 -42.796293 
L 355.546011 -42.840532 
L 354.140483 -42.898963 
L 352.734955 -42.975145 
L 351.329427 -43.073206 
L 349.923898 -43.197835 
L 348.51837 -43.35425 
L 347.112842 -43.548131 
L 345.707314 -43.785518 
L 344.301786 -44.072673 
L 342.896257 -44.415917 
L 341.490729 -44.821438 
L 340.085201 -45.295087 
L 338.679673 -45.842182 
L 337.274145 -46.467327 
L 335.868616 -47.174263 
L 334.463088 -47.965782 
L 333.05756 -48.843699 
L 331.652032 -49.808898 
L 330.246504 -50.861467 
L 328.840975 -52.000892 
L 327.435447 -53.226309 
L 326.029919 -54.536792 
L 324.624391 -55.931638 
L 323.218863 -57.410615 
L 321.813334 -58.974148 
L 320.407806 -60.623396 
L 319.002278 -62.360222 
L 317.59675 -64.187028 
L 316.191222 -66.106495 
L 314.785693 -68.121239 
L 313.380165 -70.233451 
L 311.974637 -72.444572 
L 310.569109 -74.755081 
L 309.163581 -77.164453 
L 307.758052 -79.671332 
L 306.352524 -82.273938 
L 304.946996 -84.970683 
L 303.541468 -87.760958 
L 302.135939 -90.645968 
L 300.730411 -93.62953 
L 299.324883 -96.718674 
L 297.919355 -99.92393 
L 296.513827 -103.259193 
L 295.108298 -106.7411 
L 293.70277 -110.387915 
L 292.297242 -114.217953 
L 290.891714 -118.247679 
L 289.486186 -122.489626 
L 288.080657 -126.950332 
L 286.675129 -131.628499 
L 285.269601 -136.513588 
L 283.864073 -141.584978 
L 282.458545 -146.811841 
L 281.053016 -152.153744 
L 279.647488 -157.561974 
L 278.24196 -162.98148 
L 276.836432 -168.353302 
L 275.430904 -173.617279 
L 274.025375 -178.71485 
L 272.619847 -183.591714 
L 271.214319 -188.200174 
L 269.808791 -192.501003 
L 268.403263 -196.464722 
L 266.997734 -200.072229 
L 265.592206 -203.314787 
L 264.186678 -206.193406 
L 262.78115 -208.717728 
L 261.375622 -210.904537 
L 259.970093 -212.776037 
L 258.564565 -214.358062 
L 257.159037 -215.678367 
L 255.753509 -216.765132 
L 254.347981 -217.645798 
L 252.942452 -218.346302 
L 251.536924 -218.89077 
L 250.131396 -219.301661 
L 248.725868 -219.600326 
L 247.32034 -219.807931 
L 245.914811 -219.946612 
L 244.509283 -220.040748 
L 243.103755 -220.11819 
L 241.698227 -220.211288 
L 240.292699 -220.357539 
L 238.88717 -220.599736 
L 237.481642 -220.985478 
L 236.076114 -221.566007 
L 234.670586 -222.394342 
L 233.265058 -223.522798 
L 231.859529 -225.000015 
L 230.454001 -226.867688 
L 229.048473 -229.157273 
L 227.642945 -231.886919 
L 226.237417 -235.058926 
L 224.831888 -238.657985 
L 223.42636 -242.650401 
L 222.020832 -246.984436 
L 220.615304 -251.591813 
L 219.209776 -256.390319 
L 217.804247 -261.287358 
L 216.398719 -266.184221 
L 214.993191 -270.980772 
L 213.587663 -275.580238 
L 212.182135 -279.893758 
L 210.776606 -283.844406 
L 209.371078 -287.370446 
L 207.96555 -290.427642 
L 206.560022 -292.99055 
L 205.154494 -295.0528 
L 203.748965 -296.626446 
L 202.343437 -297.740541 
L 200.937909 -298.439119 
L 199.532381 -298.778799 
L 198.126853 -298.82621 
L 196.721324 -298.655416 
L 195.315796 -298.345465 
L 193.910268 -297.978172 
L 192.50474 -297.636137 
L 191.099212 -297.40103 
L 189.693683 -297.352065 
L 188.288155 -297.564634 
L 186.882627 -298.109016 
L 185.477099 -299.049113 
L 184.071571 -300.441176 
L 182.666042 -302.332509 
L 181.260514 -304.760158 
L 179.854986 -307.749631 
L 178.449458 -311.313699 
L 177.04393 -315.451334 
L 175.638401 -320.146852 
L 174.232873 -325.369309 
L 172.827345 -331.072183 
L 171.421817 -337.193362 
L 170.016289 -343.655425 
L 168.61076 -350.366214 
L 167.205232 -357.219657 
L 165.799704 -364.096821 
L 164.394176 -370.867195 
L 162.988648 -377.390185 
L 161.583119 -383.516883 
L 160.177591 -389.092126 
L 158.772063 -393.956945 
L 157.366535 -397.951451 
L 155.961007 -400.918224 
L 154.555478 -402.706233 
L 153.14995 -403.175238 
L 151.744422 -402.20059 
L 150.338894 -399.678254 
L 148.933366 -395.529791 
L 147.527837 -389.707019 
L 146.122309 -382.195971 
L 144.716781 -373.019839 
L 143.311253 -362.240562 
L 141.905725 -349.958824 
L 140.500196 -336.312314 
L 139.094668 -321.472228 
L 137.68914 -305.638143 
L 136.283612 -289.031486 
L 134.878084 -271.887984 
L 133.472555 -254.449515 
L 132.067027 -236.955864 
L 130.661499 -219.636841 
L 129.255971 -202.705224 
L 127.850443 -186.350868 
L 126.444914 -170.736249 
L 125.039386 -155.993572 
L 123.633858 -142.223455 
L 122.22833 -129.495108 
L 120.822802 -117.847811 
L 119.417273 -107.293453 
L 118.011745 -97.819837 
L 116.606217 -89.394478 
L 115.200689 -81.968593 
L 113.795161 -75.481076 
L 112.389632 -69.862238 
L 110.984104 -65.03719 
L 109.578576 -60.928769 
L 108.173048 -57.459982 
L 106.76752 -54.555948 
L 105.361991 -52.145375 
L 103.956463 -50.161621 
L 102.550935 -48.543384 
L 101.145407 -47.235085 
L 99.739879 -46.187008 
L 98.33435 -45.355242 
L 96.928822 -44.701472 
L 95.523294 -44.192667 
L 94.117766 -43.800683 
L 92.712238 -43.501829 
L 91.306709 -43.2764 
L 89.901181 -43.108207 
L 88.495653 -42.984112 
L 87.090125 -42.893594 
L 85.684597 -42.828332 
L 84.279068 -42.781833 
L 82.87354 -42.7491 
z
" style="stroke: #bdbdbd; stroke-width: 2.5"/>
    </defs>
    <g clip-path="url(#pf9be6840ea)">
     <use xlink:href="#m28f630c2f9" x="0" y="432" style="fill: #bdbdbd; fill-opacity: 0.5; stroke: #bdbdbd; stroke-width: 2.5"/>
    </g>
   </g>
   <g id="PolyCollection_2">
    <defs>
     <path id="md916be83ed" d="M 74.318182 -42.70345 
L 74.318182 -42.68 
L 75.89875 -42.68 
L 77.479318 -42.68 
L 79.059886 -42.68 
L 80.640454 -42.68 
L 82.221022 -42.68 
L 83.801589 -42.68 
L 85.382157 -42.68 
L 86.962725 -42.68 
L 88.543293 -42.68 
L 90.123861 -42.68 
L 91.704429 -42.68 
L 93.284997 -42.68 
L 94.865565 -42.68 
L 96.446133 -42.68 
L 98.026701 -42.68 
L 99.607269 -42.68 
L 101.187837 -42.68 
L 102.768405 -42.68 
L 104.348973 -42.68 
L 105.929541 -42.68 
L 107.510109 -42.68 
L 109.090677 -42.68 
L 110.671245 -42.68 
L 112.251812 -42.68 
L 113.83238 -42.68 
L 115.412948 -42.68 
L 116.993516 -42.68 
L 118.574084 -42.68 
L 120.154652 -42.68 
L 121.73522 -42.68 
L 123.315788 -42.68 
L 124.896356 -42.68 
L 126.476924 -42.68 
L 128.057492 -42.68 
L 129.63806 -42.68 
L 131.218628 -42.68 
L 132.799196 -42.68 
L 134.379764 -42.68 
L 135.960332 -42.68 
L 137.5409 -42.68 
L 139.121468 -42.68 
L 140.702035 -42.68 
L 142.282603 -42.68 
L 143.863171 -42.68 
L 145.443739 -42.68 
L 147.024307 -42.68 
L 148.604875 -42.68 
L 150.185443 -42.68 
L 151.766011 -42.68 
L 153.346579 -42.68 
L 154.927147 -42.68 
L 156.507715 -42.68 
L 158.088283 -42.68 
L 159.668851 -42.68 
L 161.249419 -42.68 
L 162.829987 -42.68 
L 164.410555 -42.68 
L 165.991123 -42.68 
L 167.571691 -42.68 
L 169.152258 -42.68 
L 170.732826 -42.68 
L 172.313394 -42.68 
L 173.893962 -42.68 
L 175.47453 -42.68 
L 177.055098 -42.68 
L 178.635666 -42.68 
L 180.216234 -42.68 
L 181.796802 -42.68 
L 183.37737 -42.68 
L 184.957938 -42.68 
L 186.538506 -42.68 
L 188.119074 -42.68 
L 189.699642 -42.68 
L 191.28021 -42.68 
L 192.860778 -42.68 
L 194.441346 -42.68 
L 196.021914 -42.68 
L 197.602481 -42.68 
L 199.183049 -42.68 
L 200.763617 -42.68 
L 202.344185 -42.68 
L 203.924753 -42.68 
L 205.505321 -42.68 
L 207.085889 -42.68 
L 208.666457 -42.68 
L 210.247025 -42.68 
L 211.827593 -42.68 
L 213.408161 -42.68 
L 214.988729 -42.68 
L 216.569297 -42.68 
L 218.149865 -42.68 
L 219.730433 -42.68 
L 221.311001 -42.68 
L 222.891569 -42.68 
L 224.472137 -42.68 
L 226.052705 -42.68 
L 227.633272 -42.68 
L 229.21384 -42.68 
L 230.794408 -42.68 
L 232.374976 -42.68 
L 233.955544 -42.68 
L 235.536112 -42.68 
L 237.11668 -42.68 
L 238.697248 -42.68 
L 240.277816 -42.68 
L 241.858384 -42.68 
L 243.438952 -42.68 
L 245.01952 -42.68 
L 246.600088 -42.68 
L 248.180656 -42.68 
L 249.761224 -42.68 
L 251.341792 -42.68 
L 252.92236 -42.68 
L 254.502928 -42.68 
L 256.083495 -42.68 
L 257.664063 -42.68 
L 259.244631 -42.68 
L 260.825199 -42.68 
L 262.405767 -42.68 
L 263.986335 -42.68 
L 265.566903 -42.68 
L 267.147471 -42.68 
L 268.728039 -42.68 
L 270.308607 -42.68 
L 271.889175 -42.68 
L 273.469743 -42.68 
L 275.050311 -42.68 
L 276.630879 -42.68 
L 278.211447 -42.68 
L 279.792015 -42.68 
L 281.372583 -42.68 
L 282.953151 -42.68 
L 284.533718 -42.68 
L 286.114286 -42.68 
L 287.694854 -42.68 
L 289.275422 -42.68 
L 290.85599 -42.68 
L 292.436558 -42.68 
L 294.017126 -42.68 
L 295.597694 -42.68 
L 297.178262 -42.68 
L 298.75883 -42.68 
L 300.339398 -42.68 
L 301.919966 -42.68 
L 303.500534 -42.68 
L 305.081102 -42.68 
L 306.66167 -42.68 
L 308.242238 -42.68 
L 309.822806 -42.68 
L 311.403374 -42.68 
L 312.983941 -42.68 
L 314.564509 -42.68 
L 316.145077 -42.68 
L 317.725645 -42.68 
L 319.306213 -42.68 
L 320.886781 -42.68 
L 322.467349 -42.68 
L 324.047917 -42.68 
L 325.628485 -42.68 
L 327.209053 -42.68 
L 328.789621 -42.68 
L 330.370189 -42.68 
L 331.950757 -42.68 
L 333.531325 -42.68 
L 335.111893 -42.68 
L 336.692461 -42.68 
L 338.273029 -42.68 
L 339.853597 -42.68 
L 341.434164 -42.68 
L 343.014732 -42.68 
L 344.5953 -42.68 
L 346.175868 -42.68 
L 347.756436 -42.68 
L 349.337004 -42.68 
L 350.917572 -42.68 
L 352.49814 -42.68 
L 354.078708 -42.68 
L 355.659276 -42.68 
L 357.239844 -42.68 
L 358.820412 -42.68 
L 360.40098 -42.68 
L 361.981548 -42.68 
L 363.562116 -42.68 
L 365.142684 -42.68 
L 366.723252 -42.68 
L 368.30382 -42.68 
L 369.884387 -42.68 
L 371.464955 -42.68 
L 373.045523 -42.68 
L 374.626091 -42.68 
L 376.206659 -42.68 
L 377.787227 -42.68 
L 379.367795 -42.68 
L 380.948363 -42.68 
L 382.528931 -42.68 
L 384.109499 -42.68 
L 385.690067 -42.68 
L 387.270635 -42.68 
L 388.851203 -42.68 
L 388.851203 -42.709913 
L 388.851203 -42.709913 
L 387.270635 -42.723251 
L 385.690067 -42.741748 
L 384.109499 -42.767054 
L 382.528931 -42.801212 
L 380.948363 -42.8467 
L 379.367795 -42.906471 
L 377.787227 -42.983977 
L 376.206659 -43.083165 
L 374.626091 -43.208456 
L 373.045523 -43.364698 
L 371.464955 -43.557081 
L 369.884387 -43.79103 
L 368.30382 -44.072076 
L 366.723252 -44.405707 
L 365.142684 -44.797222 
L 363.562116 -45.251593 
L 361.981548 -45.773352 
L 360.40098 -46.366527 
L 358.820412 -47.034628 
L 357.239844 -47.780703 
L 355.659276 -48.607461 
L 354.078708 -49.51746 
L 352.49814 -50.513345 
L 350.917572 -51.598118 
L 349.337004 -52.775408 
L 347.756436 -54.049714 
L 346.175868 -55.426577 
L 344.5953 -56.912658 
L 343.014732 -58.515696 
L 341.434164 -60.244322 
L 339.853597 -62.107737 
L 338.273029 -64.115258 
L 336.692461 -66.275763 
L 335.111893 -68.597068 
L 333.531325 -71.08529 
L 331.950757 -73.744245 
L 330.370189 -76.574933 
L 328.789621 -79.575158 
L 327.209053 -82.739328 
L 325.628485 -86.058438 
L 324.047917 -89.520271 
L 322.467349 -93.109782 
L 320.886781 -96.809658 
L 319.306213 -100.601011 
L 317.725645 -104.464152 
L 316.145077 -108.379407 
L 314.564509 -112.327909 
L 312.983941 -116.29233 
L 311.403374 -120.257496 
L 309.822806 -124.210854 
L 308.242238 -128.142771 
L 306.66167 -132.046631 
L 305.081102 -135.918746 
L 303.500534 -139.758065 
L 301.919966 -143.565709 
L 300.339398 -147.344358 
L 298.75883 -151.097525 
L 297.178262 -154.828764 
L 295.597694 -158.540876 
L 294.017126 -162.235166 
L 292.436558 -165.910806 
L 290.85599 -169.564374 
L 289.275422 -173.189598 
L 287.694854 -176.777339 
L 286.114286 -180.315819 
L 284.533718 -183.791077 
L 282.953151 -187.187628 
L 281.372583 -190.489255 
L 279.792015 -193.679889 
L 278.211447 -196.744494 
L 276.630879 -199.669885 
L 275.050311 -202.445437 
L 273.469743 -205.063612 
L 271.889175 -207.520293 
L 270.308607 -209.814907 
L 268.728039 -211.950345 
L 267.147471 -213.932693 
L 265.566903 -215.77083 
L 263.986335 -217.475913 
L 262.405767 -219.060813 
L 260.825199 -220.539544 
L 259.244631 -221.926721 
L 257.664063 -223.237091 
L 256.083495 -224.485136 
L 254.502928 -225.68478 
L 252.92236 -226.849164 
L 251.341792 -227.990491 
L 249.761224 -229.119895 
L 248.180656 -230.247307 
L 246.600088 -231.381298 
L 245.01952 -232.528856 
L 243.438952 -233.695114 
L 241.858384 -234.88303 
L 240.277816 -236.093057 
L 238.697248 -237.322851 
L 237.11668 -238.567076 
L 235.536112 -239.817378 
L 233.955544 -241.062576 
L 232.374976 -242.289115 
L 230.794408 -243.481794 
L 229.21384 -244.624739 
L 227.633272 -245.70258 
L 226.052705 -246.701731 
L 224.472137 -247.61167 
L 222.891569 -248.426091 
L 221.311001 -249.14381 
L 219.730433 -249.769321 
L 218.149865 -250.312928 
L 216.569297 -250.790433 
L 214.988729 -251.222397 
L 213.408161 -251.633051 
L 211.827593 -252.048958 
L 210.247025 -252.49759 
L 208.666457 -253.005948 
L 207.085889 -253.599398 
L 205.505321 -254.30082 
L 203.924753 -255.130161 
L 202.344185 -256.104414 
L 200.763617 -257.237991 
L 199.183049 -258.543405 
L 197.602481 -260.032139 
L 196.021914 -261.715553 
L 194.441346 -263.605679 
L 192.860778 -265.715752 
L 191.28021 -268.060381 
L 189.699642 -270.655288 
L 188.119074 -273.516588 
L 186.538506 -276.659647 
L 184.957938 -280.097586 
L 183.37737 -283.839525 
L 181.796802 -287.888678 
L 180.216234 -292.240434 
L 178.635666 -296.88051 
L 177.055098 -301.783295 
L 175.47453 -306.910443 
L 173.893962 -312.209776 
L 172.313394 -317.614552 
L 170.732826 -323.04313 
L 169.152258 -328.399075 
L 167.571691 -333.57176 
L 165.991123 -338.437519 
L 164.410555 -342.86144 
L 162.829987 -346.69984 
L 161.249419 -349.803499 
L 159.668851 -352.021666 
L 158.088283 -353.206798 
L 156.507715 -353.219936 
L 154.927147 -351.936532 
L 153.346579 -349.252443 
L 151.766011 -345.089777 
L 150.185443 -339.402167 
L 148.604875 -332.17907 
L 147.024307 -323.44871 
L 145.443739 -313.279316 
L 143.863171 -301.778463 
L 142.282603 -289.090404 
L 140.702035 -275.391504 
L 139.121468 -260.883976 
L 137.5409 -245.78831 
L 135.960332 -230.334872 
L 134.379764 -214.7552 
L 132.799196 -199.273563 
L 131.218628 -184.099281 
L 129.63806 -169.420234 
L 128.057492 -155.397868 
L 126.476924 -142.163869 
L 124.896356 -129.818543 
L 123.315788 -118.430805 
L 121.73522 -108.039588 
L 120.154652 -98.656398 
L 118.574084 -90.268718 
L 116.993516 -82.843929 
L 115.412948 -76.333459 
L 113.83238 -70.676899 
L 112.251812 -65.805872 
L 110.671245 -61.647508 
L 109.090677 -58.127426 
L 107.510109 -55.17218 
L 105.929541 -52.71116 
L 104.348973 -50.677992 
L 102.768405 -49.011475 
L 101.187837 -47.656121 
L 99.607269 -46.562378 
L 98.026701 -45.686597 
L 96.446133 -44.99081 
L 94.865565 -44.442371 
L 93.284997 -44.01352 
L 91.704429 -43.680895 
L 90.123861 -43.425034 
L 88.543293 -43.229881 
L 86.962725 -43.082317 
L 85.382157 -42.971726 
L 83.801589 -42.889598 
L 82.221022 -42.829175 
L 80.640454 -42.785148 
L 79.059886 -42.753384 
L 77.479318 -42.730698 
L 75.89875 -42.714663 
L 74.318182 -42.70345 
z
" style="stroke: #92c5de; stroke-width: 2.5"/>
    </defs>
    <g clip-path="url(#pf9be6840ea)">
     <use xlink:href="#md916be83ed" x="0" y="432" style="fill: #92c5de; fill-opacity: 0.5; stroke: #92c5de; stroke-width: 2.5"/>
    </g>
   </g>
   <g id="PolyCollection_3">
    <defs>
     <path id="m8bf5baea92" d="M 75.70893 -42.713772 
L 75.70893 -42.68 
L 77.36206 -42.68 
L 79.01519 -42.68 
L 80.66832 -42.68 
L 82.321451 -42.68 
L 83.974581 -42.68 
L 85.627711 -42.68 
L 87.280841 -42.68 
L 88.933971 -42.68 
L 90.587101 -42.68 
L 92.240231 -42.68 
L 93.893361 -42.68 
L 95.546491 -42.68 
L 97.199621 -42.68 
L 98.852751 -42.68 
L 100.505882 -42.68 
L 102.159012 -42.68 
L 103.812142 -42.68 
L 105.465272 -42.68 
L 107.118402 -42.68 
L 108.771532 -42.68 
L 110.424662 -42.68 
L 112.077792 -42.68 
L 113.730922 -42.68 
L 115.384052 -42.68 
L 117.037182 -42.68 
L 118.690313 -42.68 
L 120.343443 -42.68 
L 121.996573 -42.68 
L 123.649703 -42.68 
L 125.302833 -42.68 
L 126.955963 -42.68 
L 128.609093 -42.68 
L 130.262223 -42.68 
L 131.915353 -42.68 
L 133.568483 -42.68 
L 135.221613 -42.68 
L 136.874743 -42.68 
L 138.527874 -42.68 
L 140.181004 -42.68 
L 141.834134 -42.68 
L 143.487264 -42.68 
L 145.140394 -42.68 
L 146.793524 -42.68 
L 148.446654 -42.68 
L 150.099784 -42.68 
L 151.752914 -42.68 
L 153.406044 -42.68 
L 155.059174 -42.68 
L 156.712305 -42.68 
L 158.365435 -42.68 
L 160.018565 -42.68 
L 161.671695 -42.68 
L 163.324825 -42.68 
L 164.977955 -42.68 
L 166.631085 -42.68 
L 168.284215 -42.68 
L 169.937345 -42.68 
L 171.590475 -42.68 
L 173.243605 -42.68 
L 174.896736 -42.68 
L 176.549866 -42.68 
L 178.202996 -42.68 
L 179.856126 -42.68 
L 181.509256 -42.68 
L 183.162386 -42.68 
L 184.815516 -42.68 
L 186.468646 -42.68 
L 188.121776 -42.68 
L 189.774906 -42.68 
L 191.428036 -42.68 
L 193.081167 -42.68 
L 194.734297 -42.68 
L 196.387427 -42.68 
L 198.040557 -42.68 
L 199.693687 -42.68 
L 201.346817 -42.68 
L 202.999947 -42.68 
L 204.653077 -42.68 
L 206.306207 -42.68 
L 207.959337 -42.68 
L 209.612467 -42.68 
L 211.265598 -42.68 
L 212.918728 -42.68 
L 214.571858 -42.68 
L 216.224988 -42.68 
L 217.878118 -42.68 
L 219.531248 -42.68 
L 221.184378 -42.68 
L 222.837508 -42.68 
L 224.490638 -42.68 
L 226.143768 -42.68 
L 227.796898 -42.68 
L 229.450029 -42.68 
L 231.103159 -42.68 
L 232.756289 -42.68 
L 234.409419 -42.68 
L 236.062549 -42.68 
L 237.715679 -42.68 
L 239.368809 -42.68 
L 241.021939 -42.68 
L 242.675069 -42.68 
L 244.328199 -42.68 
L 245.981329 -42.68 
L 247.63446 -42.68 
L 249.28759 -42.68 
L 250.94072 -42.68 
L 252.59385 -42.68 
L 254.24698 -42.68 
L 255.90011 -42.68 
L 257.55324 -42.68 
L 259.20637 -42.68 
L 260.8595 -42.68 
L 262.51263 -42.68 
L 264.16576 -42.68 
L 265.818891 -42.68 
L 267.472021 -42.68 
L 269.125151 -42.68 
L 270.778281 -42.68 
L 272.431411 -42.68 
L 274.084541 -42.68 
L 275.737671 -42.68 
L 277.390801 -42.68 
L 279.043931 -42.68 
L 280.697061 -42.68 
L 282.350191 -42.68 
L 284.003322 -42.68 
L 285.656452 -42.68 
L 287.309582 -42.68 
L 288.962712 -42.68 
L 290.615842 -42.68 
L 292.268972 -42.68 
L 293.922102 -42.68 
L 295.575232 -42.68 
L 297.228362 -42.68 
L 298.881492 -42.68 
L 300.534622 -42.68 
L 302.187753 -42.68 
L 303.840883 -42.68 
L 305.494013 -42.68 
L 307.147143 -42.68 
L 308.800273 -42.68 
L 310.453403 -42.68 
L 312.106533 -42.68 
L 313.759663 -42.68 
L 315.412793 -42.68 
L 317.065923 -42.68 
L 318.719053 -42.68 
L 320.372184 -42.68 
L 322.025314 -42.68 
L 323.678444 -42.68 
L 325.331574 -42.68 
L 326.984704 -42.68 
L 328.637834 -42.68 
L 330.290964 -42.68 
L 331.944094 -42.68 
L 333.597224 -42.68 
L 335.250354 -42.68 
L 336.903484 -42.68 
L 338.556615 -42.68 
L 340.209745 -42.68 
L 341.862875 -42.68 
L 343.516005 -42.68 
L 345.169135 -42.68 
L 346.822265 -42.68 
L 348.475395 -42.68 
L 350.128525 -42.68 
L 351.781655 -42.68 
L 353.434785 -42.68 
L 355.087915 -42.68 
L 356.741046 -42.68 
L 358.394176 -42.68 
L 360.047306 -42.68 
L 361.700436 -42.68 
L 363.353566 -42.68 
L 365.006696 -42.68 
L 366.659826 -42.68 
L 368.312956 -42.68 
L 369.966086 -42.68 
L 371.619216 -42.68 
L 373.272346 -42.68 
L 374.925477 -42.68 
L 376.578607 -42.68 
L 378.231737 -42.68 
L 379.884867 -42.68 
L 381.537997 -42.68 
L 383.191127 -42.68 
L 384.844257 -42.68 
L 386.497387 -42.68 
L 388.150517 -42.68 
L 389.803647 -42.68 
L 391.456777 -42.68 
L 393.109908 -42.68 
L 394.763038 -42.68 
L 396.416168 -42.68 
L 398.069298 -42.68 
L 399.722428 -42.68 
L 401.375558 -42.68 
L 403.028688 -42.68 
L 404.681818 -42.68 
L 404.681818 -42.693593 
L 404.681818 -42.693593 
L 403.028688 -42.699543 
L 401.375558 -42.707742 
L 399.722428 -42.718894 
L 398.069298 -42.733869 
L 396.416168 -42.75373 
L 394.763038 -42.77976 
L 393.109908 -42.813486 
L 391.456777 -42.856713 
L 389.803647 -42.91155 
L 388.150517 -42.980453 
L 386.497387 -43.066261 
L 384.844257 -43.172245 
L 383.191127 -43.302159 
L 381.537997 -43.460299 
L 379.884867 -43.651552 
L 378.231737 -43.881453 
L 376.578607 -44.156206 
L 374.925477 -44.482693 
L 373.272346 -44.868425 
L 371.619216 -45.321452 
L 369.966086 -45.850191 
L 368.312956 -46.463194 
L 366.659826 -47.168831 
L 365.006696 -47.974921 
L 363.353566 -48.888314 
L 361.700436 -49.914463 
L 360.047306 -51.057018 
L 358.394176 -52.317491 
L 356.741046 -53.695022 
L 355.087915 -55.186306 
L 353.434785 -56.785676 
L 351.781655 -58.485392 
L 350.128525 -60.276102 
L 348.475395 -62.147468 
L 346.822265 -64.088917 
L 345.169135 -66.090459 
L 343.516005 -68.143515 
L 341.862875 -70.241691 
L 340.209745 -72.381435 
L 338.556615 -74.56252 
L 336.903484 -76.788332 
L 335.250354 -79.065905 
L 333.597224 -81.405736 
L 331.944094 -83.821342 
L 330.290964 -86.328613 
L 328.637834 -88.944972 
L 326.984704 -91.688387 
L 325.331574 -94.576273 
L 323.678444 -97.624344 
L 322.025314 -100.845455 
L 320.372184 -104.248498 
L 318.719053 -107.837393 
L 317.065923 -111.61025 
L 315.412793 -115.558728 
L 313.759663 -119.667653 
L 312.106533 -123.914938 
L 310.453403 -128.271815 
L 308.800273 -132.703414 
L 307.147143 -137.16968 
L 305.494013 -141.626594 
L 303.840883 -146.027686 
L 302.187753 -150.325744 
L 300.534622 -154.474675 
L 298.881492 -158.431388 
L 297.228362 -162.157631 
L 295.575232 -165.621647 
L 293.922102 -168.799567 
L 292.268972 -171.676445 
L 290.615842 -174.246875 
L 288.962712 -176.515134 
L 287.309582 -178.494868 
L 285.656452 -180.208307 
L 284.003322 -181.685088 
L 282.350191 -182.960724 
L 280.697061 -184.074844 
L 279.043931 -185.069269 
L 277.390801 -185.986051 
L 275.737671 -186.865583 
L 274.084541 -187.744859 
L 272.431411 -188.656003 
L 270.778281 -189.625131 
L 269.125151 -190.671624 
L 267.472021 -191.807847 
L 265.818891 -193.039353 
L 264.16576 -194.365551 
L 262.51263 -195.780807 
L 260.8595 -197.275904 
L 259.20637 -198.83975 
L 257.55324 -200.461181 
L 255.90011 -202.130725 
L 254.24698 -203.842133 
L 252.59385 -205.593532 
L 250.94072 -207.388067 
L 249.28759 -209.233947 
L 247.63446 -211.143861 
L 245.981329 -213.133798 
L 244.328199 -215.221379 
L 242.675069 -217.423849 
L 241.021939 -219.755919 
L 239.368809 -222.227693 
L 237.715679 -224.842876 
L 236.062549 -227.597451 
L 234.409419 -230.478958 
L 232.756289 -233.466446 
L 231.103159 -236.531079 
L 229.450029 -239.637335 
L 227.796898 -242.744649 
L 226.143768 -245.809334 
L 224.490638 -248.786594 
L 222.837508 -251.632455 
L 221.184378 -254.305484 
L 219.531248 -256.768202 
L 217.878118 -258.988193 
L 216.224988 -260.938924 
L 214.571858 -262.60037 
L 212.918728 -263.959546 
L 211.265598 -265.011039 
L 209.612467 -265.757611 
L 207.959337 -266.210899 
L 206.306207 -266.392167 
L 204.653077 -266.333026 
L 202.999947 -266.075964 
L 201.346817 -265.674544 
L 199.693687 -265.1931 
L 198.040557 -264.705806 
L 196.387427 -264.295057 
L 194.734297 -264.04916 
L 193.081167 -264.059418 
L 191.428036 -264.416765 
L 189.774906 -265.208126 
L 188.121776 -266.512737 
L 186.468646 -268.398628 
L 184.815516 -270.919432 
L 183.162386 -274.111647 
L 181.509256 -277.992405 
L 179.856126 -282.55773 
L 178.202996 -287.781261 
L 176.549866 -293.613359 
L 174.896736 -299.980552 
L 173.243605 -306.785298 
L 171.590475 -313.906112 
L 169.937345 -321.198163 
L 168.284215 -328.494491 
L 166.631085 -335.60806 
L 164.977955 -342.334834 
L 163.324825 -348.458048 
L 161.671695 -353.753758 
L 160.018565 -357.997632 
L 158.365435 -360.972828 
L 156.712305 -362.478638 
L 155.059174 -362.339456 
L 153.406044 -360.413522 
L 151.752914 -356.600856 
L 150.099784 -350.849763 
L 148.446654 -343.16139 
L 146.793524 -333.591912 
L 145.140394 -322.252069 
L 143.487264 -309.304011 
L 141.834134 -294.955546 
L 140.181004 -279.452131 
L 138.527874 -263.067075 
L 136.874743 -246.090547 
L 135.221613 -228.818075 
L 133.568483 -211.539213 
L 131.915353 -194.527035 
L 130.262223 -178.029011 
L 128.609093 -162.259717 
L 126.955963 -147.395663 
L 125.302833 -133.572366 
L 123.649703 -120.883641 
L 121.996573 -109.382934 
L 120.343443 -99.08638 
L 118.690313 -89.977241 
L 117.037182 -82.011257 
L 115.384052 -75.122501 
L 113.730922 -69.229311 
L 112.077792 -64.239953 
L 110.424662 -60.05773 
L 108.771532 -56.585348 
L 107.118402 -53.72843 
L 105.465272 -51.398139 
L 103.812142 -49.512976 
L 102.159012 -47.999812 
L 100.505882 -46.794298 
L 98.852751 -45.840775 
L 97.199621 -45.091827 
L 95.546491 -44.507601 
L 93.893361 -44.054989 
L 92.240231 -43.706776 
L 90.587101 -43.440791 
L 88.933971 -43.239122 
L 87.280841 -43.087406 
L 85.627711 -42.974203 
L 83.974581 -42.890467 
L 82.321451 -42.829094 
L 80.66832 -42.784544 
L 79.01519 -42.752532 
L 77.36206 -42.729774 
L 75.70893 -42.713772 
z
" style="stroke: #2166ac; stroke-width: 2.5"/>
    </defs>
    <g clip-path="url(#pf9be6840ea)">
     <use xlink:href="#m8bf5baea92" x="0" y="432" style="fill: #2166ac; fill-opacity: 0.5; stroke: #2166ac; stroke-width: 2.5"/>
    </g>
   </g>
   <g id="matplotlib.axis_1">
    <g id="xtick_1">
     <g id="line2d_1">
      <defs>
       <path id="m8d2bc328b8" d="M 0 0 
L 0 3.5 
" style="stroke: #000000; stroke-width: 0.8"/>
      </defs>
      <g>
       <use xlink:href="#m8d2bc328b8" x="71.536904" y="389.32" style="stroke: #000000; stroke-width: 0.8"/>
      </g>
     </g>
     <g id="text_1">
      <!-- −10.0 -->
      <g transform="translate(56.214248 403.918437) scale(0.1 -0.1)">
       <defs>
        <path id="DejaVuSans-2212" d="M 678 2272 
L 4684 2272 
L 4684 1741 
L 678 1741 
L 678 2272 
z
" transform="scale(0.015625)"/>
        <path id="DejaVuSans-31" d="M 794 531 
L 1825 531 
L 1825 4091 
L 703 3866 
L 703 4441 
L 1819 4666 
L 2450 4666 
L 2450 531 
L 3481 531 
L 3481 0 
L 794 0 
L 794 531 
z
" transform="scale(0.015625)"/>
        <path id="DejaVuSans-30" d="M 2034 4250 
Q 1547 4250 1301 3770 
Q 1056 3291 1056 2328 
Q 1056 1369 1301 889 
Q 1547 409 2034 409 
Q 2525 409 2770 889 
Q 3016 1369 3016 2328 
Q 3016 3291 2770 3770 
Q 2525 4250 2034 4250 
z
M 2034 4750 
Q 2819 4750 3233 4129 
Q 3647 3509 3647 2328 
Q 3647 1150 3233 529 
Q 2819 -91 2034 -91 
Q 1250 -91 836 529 
Q 422 1150 422 2328 
Q 422 3509 836 4129 
Q 1250 4750 2034 4750 
z
" transform="scale(0.015625)"/>
        <path id="DejaVuSans-2e" d="M 684 794 
L 1344 794 
L 1344 0 
L 684 0 
L 684 794 
z
" transform="scale(0.015625)"/>
       </defs>
       <use xlink:href="#DejaVuSans-2212"/>
       <use xlink:href="#DejaVuSans-31" x="83.789062"/>
       <use xlink:href="#DejaVuSans-30" x="147.412109"/>
       <use xlink:href="#DejaVuSans-2e" x="211.035156"/>
       <use xlink:href="#DejaVuSans-30" x="242.822266"/>
      </g>
     </g>
    </g>
    <g id="xtick_2">
     <g id="line2d_2">
      <g>
       <use xlink:href="#m8d2bc328b8" x="111.918053" y="389.32" style="stroke: #000000; stroke-width: 0.8"/>
      </g>
     </g>
     <g id="text_2">
      <!-- −7.5 -->
      <g transform="translate(99.776646 403.918437) scale(0.1 -0.1)">
       <defs>
        <path id="DejaVuSans-37" d="M 525 4666 
L 3525 4666 
L 3525 4397 
L 1831 0 
L 1172 0 
L 2766 4134 
L 525 4134 
L 525 4666 
z
" transform="scale(0.015625)"/>
        <path id="DejaVuSans-35" d="M 691 4666 
L 3169 4666 
L 3169 4134 
L 1269 4134 
L 1269 2991 
Q 1406 3038 1543 3061 
Q 1681 3084 1819 3084 
Q 2600 3084 3056 2656 
Q 3513 2228 3513 1497 
Q 3513 744 3044 326 
Q 2575 -91 1722 -91 
Q 1428 -91 1123 -41 
Q 819 9 494 109 
L 494 744 
Q 775 591 1075 516 
Q 1375 441 1709 441 
Q 2250 441 2565 725 
Q 2881 1009 2881 1497 
Q 2881 1984 2565 2268 
Q 2250 2553 1709 2553 
Q 1456 2553 1204 2497 
Q 953 2441 691 2322 
L 691 4666 
z
" transform="scale(0.015625)"/>
       </defs>
       <use xlink:href="#DejaVuSans-2212"/>
       <use xlink:href="#DejaVuSans-37" x="83.789062"/>
       <use xlink:href="#DejaVuSans-2e" x="147.412109"/>
       <use xlink:href="#DejaVuSans-35" x="179.199219"/>
      </g>
     </g>
    </g>
    <g id="xtick_3">
     <g id="line2d_3">
      <g>
       <use xlink:href="#m8d2bc328b8" x="152.299202" y="389.32" style="stroke: #000000; stroke-width: 0.8"/>
      </g>
     </g>
     <g id="text_3">
      <!-- −5.0 -->
      <g transform="translate(140.157795 403.918437) scale(0.1 -0.1)">
       <use xlink:href="#DejaVuSans-2212"/>
       <use xlink:href="#DejaVuSans-35" x="83.789062"/>
       <use xlink:href="#DejaVuSans-2e" x="147.412109"/>
       <use xlink:href="#DejaVuSans-30" x="179.199219"/>
      </g>
     </g>
    </g>
    <g id="xtick_4">
     <g id="line2d_4">
      <g>
       <use xlink:href="#m8d2bc328b8" x="192.68035" y="389.32" style="stroke: #000000; stroke-width: 0.8"/>
      </g>
     </g>
     <g id="text_4">
      <!-- −2.5 -->
      <g transform="translate(180.538944 403.918437) scale(0.1 -0.1)">
       <defs>
        <path id="DejaVuSans-32" d="M 1228 531 
L 3431 531 
L 3431 0 
L 469 0 
L 469 531 
Q 828 903 1448 1529 
Q 2069 2156 2228 2338 
Q 2531 2678 2651 2914 
Q 2772 3150 2772 3378 
Q 2772 3750 2511 3984 
Q 2250 4219 1831 4219 
Q 1534 4219 1204 4116 
Q 875 4013 500 3803 
L 500 4441 
Q 881 4594 1212 4672 
Q 1544 4750 1819 4750 
Q 2544 4750 2975 4387 
Q 3406 4025 3406 3419 
Q 3406 3131 3298 2873 
Q 3191 2616 2906 2266 
Q 2828 2175 2409 1742 
Q 1991 1309 1228 531 
z
" transform="scale(0.015625)"/>
       </defs>
       <use xlink:href="#DejaVuSans-2212"/>
       <use xlink:href="#DejaVuSans-32" x="83.789062"/>
       <use xlink:href="#DejaVuSans-2e" x="147.412109"/>
       <use xlink:href="#DejaVuSans-35" x="179.199219"/>
      </g>
     </g>
    </g>
    <g id="xtick_5">
     <g id="line2d_5">
      <g>
       <use xlink:href="#m8d2bc328b8" x="233.061499" y="389.32" style="stroke: #000000; stroke-width: 0.8"/>
      </g>
     </g>
     <g id="text_5">
      <!-- 0.0 -->
      <g transform="translate(225.109937 403.918437) scale(0.1 -0.1)">
       <use xlink:href="#DejaVuSans-30"/>
       <use xlink:href="#DejaVuSans-2e" x="63.623047"/>
       <use xlink:href="#DejaVuSans-30" x="95.410156"/>
      </g>
     </g>
    </g>
    <g id="xtick_6">
     <g id="line2d_6">
      <g>
       <use xlink:href="#m8d2bc328b8" x="273.442648" y="389.32" style="stroke: #000000; stroke-width: 0.8"/>
      </g>
     </g>
     <g id="text_6">
      <!-- 2.5 -->
      <g transform="translate(265.491086 403.918437) scale(0.1 -0.1)">
       <use xlink:href="#DejaVuSans-32"/>
       <use xlink:href="#DejaVuSans-2e" x="63.623047"/>
       <use xlink:href="#DejaVuSans-35" x="95.410156"/>
      </g>
     </g>
    </g>
    <g id="xtick_7">
     <g id="line2d_7">
      <g>
       <use xlink:href="#m8d2bc328b8" x="313.823797" y="389.32" style="stroke: #000000; stroke-width: 0.8"/>
      </g>
     </g>
     <g id="text_7">
      <!-- 5.0 -->
      <g transform="translate(305.872235 403.918437) scale(0.1 -0.1)">
       <use xlink:href="#DejaVuSans-35"/>
       <use xlink:href="#DejaVuSans-2e" x="63.623047"/>
       <use xlink:href="#DejaVuSans-30" x="95.410156"/>
      </g>
     </g>
    </g>
    <g id="xtick_8">
     <g id="line2d_8">
      <g>
       <use xlink:href="#m8d2bc328b8" x="354.204946" y="389.32" style="stroke: #000000; stroke-width: 0.8"/>
      </g>
     </g>
     <g id="text_8">
      <!-- 7.5 -->
      <g transform="translate(346.253383 403.918437) scale(0.1 -0.1)">
       <use xlink:href="#DejaVuSans-37"/>
       <use xlink:href="#DejaVuSans-2e" x="63.623047"/>
       <use xlink:href="#DejaVuSans-35" x="95.410156"/>
      </g>
     </g>
    </g>
    <g id="xtick_9">
     <g id="line2d_9">
      <g>
       <use xlink:href="#m8d2bc328b8" x="394.586095" y="389.32" style="stroke: #000000; stroke-width: 0.8"/>
      </g>
     </g>
     <g id="text_9">
      <!-- 10.0 -->
      <g transform="translate(383.453282 403.918437) scale(0.1 -0.1)">
       <use xlink:href="#DejaVuSans-31"/>
       <use xlink:href="#DejaVuSans-30" x="63.623047"/>
       <use xlink:href="#DejaVuSans-2e" x="127.246094"/>
       <use xlink:href="#DejaVuSans-30" x="159.033203"/>
      </g>
     </g>
    </g>
    <g id="text_10">
     <!-- Predicted Fluorescence -->
     <g transform="translate(169.90375 419.11625) scale(0.12 -0.12)">
      <defs>
       <path id="DejaVuSans-50" d="M 1259 4147 
L 1259 2394 
L 2053 2394 
Q 2494 2394 2734 2622 
Q 2975 2850 2975 3272 
Q 2975 3691 2734 3919 
Q 2494 4147 2053 4147 
L 1259 4147 
z
M 628 4666 
L 2053 4666 
Q 2838 4666 3239 4311 
Q 3641 3956 3641 3272 
Q 3641 2581 3239 2228 
Q 2838 1875 2053 1875 
L 1259 1875 
L 1259 0 
L 628 0 
L 628 4666 
z
" transform="scale(0.015625)"/>
       <path id="DejaVuSans-72" d="M 2631 2963 
Q 2534 3019 2420 3045 
Q 2306 3072 2169 3072 
Q 1681 3072 1420 2755 
Q 1159 2438 1159 1844 
L 1159 0 
L 581 0 
L 581 3500 
L 1159 3500 
L 1159 2956 
Q 1341 3275 1631 3429 
Q 1922 3584 2338 3584 
Q 2397 3584 2469 3576 
Q 2541 3569 2628 3553 
L 2631 2963 
z
" transform="scale(0.015625)"/>
       <path id="DejaVuSans-65" d="M 3597 1894 
L 3597 1613 
L 953 1613 
Q 991 1019 1311 708 
Q 1631 397 2203 397 
Q 2534 397 2845 478 
Q 3156 559 3463 722 
L 3463 178 
Q 3153 47 2828 -22 
Q 2503 -91 2169 -91 
Q 1331 -91 842 396 
Q 353 884 353 1716 
Q 353 2575 817 3079 
Q 1281 3584 2069 3584 
Q 2775 3584 3186 3129 
Q 3597 2675 3597 1894 
z
M 3022 2063 
Q 3016 2534 2758 2815 
Q 2500 3097 2075 3097 
Q 1594 3097 1305 2825 
Q 1016 2553 972 2059 
L 3022 2063 
z
" transform="scale(0.015625)"/>
       <path id="DejaVuSans-64" d="M 2906 2969 
L 2906 4863 
L 3481 4863 
L 3481 0 
L 2906 0 
L 2906 525 
Q 2725 213 2448 61 
Q 2172 -91 1784 -91 
Q 1150 -91 751 415 
Q 353 922 353 1747 
Q 353 2572 751 3078 
Q 1150 3584 1784 3584 
Q 2172 3584 2448 3432 
Q 2725 3281 2906 2969 
z
M 947 1747 
Q 947 1113 1208 752 
Q 1469 391 1925 391 
Q 2381 391 2643 752 
Q 2906 1113 2906 1747 
Q 2906 2381 2643 2742 
Q 2381 3103 1925 3103 
Q 1469 3103 1208 2742 
Q 947 2381 947 1747 
z
" transform="scale(0.015625)"/>
       <path id="DejaVuSans-69" d="M 603 3500 
L 1178 3500 
L 1178 0 
L 603 0 
L 603 3500 
z
M 603 4863 
L 1178 4863 
L 1178 4134 
L 603 4134 
L 603 4863 
z
" transform="scale(0.015625)"/>
       <path id="DejaVuSans-63" d="M 3122 3366 
L 3122 2828 
Q 2878 2963 2633 3030 
Q 2388 3097 2138 3097 
Q 1578 3097 1268 2742 
Q 959 2388 959 1747 
Q 959 1106 1268 751 
Q 1578 397 2138 397 
Q 2388 397 2633 464 
Q 2878 531 3122 666 
L 3122 134 
Q 2881 22 2623 -34 
Q 2366 -91 2075 -91 
Q 1284 -91 818 406 
Q 353 903 353 1747 
Q 353 2603 823 3093 
Q 1294 3584 2113 3584 
Q 2378 3584 2631 3529 
Q 2884 3475 3122 3366 
z
" transform="scale(0.015625)"/>
       <path id="DejaVuSans-74" d="M 1172 4494 
L 1172 3500 
L 2356 3500 
L 2356 3053 
L 1172 3053 
L 1172 1153 
Q 1172 725 1289 603 
Q 1406 481 1766 481 
L 2356 481 
L 2356 0 
L 1766 0 
Q 1100 0 847 248 
Q 594 497 594 1153 
L 594 3053 
L 172 3053 
L 172 3500 
L 594 3500 
L 594 4494 
L 1172 4494 
z
" transform="scale(0.015625)"/>
       <path id="DejaVuSans-20" transform="scale(0.015625)"/>
       <path id="DejaVuSans-46" d="M 628 4666 
L 3309 4666 
L 3309 4134 
L 1259 4134 
L 1259 2759 
L 3109 2759 
L 3109 2228 
L 1259 2228 
L 1259 0 
L 628 0 
L 628 4666 
z
" transform="scale(0.015625)"/>
       <path id="DejaVuSans-6c" d="M 603 4863 
L 1178 4863 
L 1178 0 
L 603 0 
L 603 4863 
z
" transform="scale(0.015625)"/>
       <path id="DejaVuSans-75" d="M 544 1381 
L 544 3500 
L 1119 3500 
L 1119 1403 
Q 1119 906 1312 657 
Q 1506 409 1894 409 
Q 2359 409 2629 706 
Q 2900 1003 2900 1516 
L 2900 3500 
L 3475 3500 
L 3475 0 
L 2900 0 
L 2900 538 
Q 2691 219 2414 64 
Q 2138 -91 1772 -91 
Q 1169 -91 856 284 
Q 544 659 544 1381 
z
M 1991 3584 
L 1991 3584 
z
" transform="scale(0.015625)"/>
       <path id="DejaVuSans-6f" d="M 1959 3097 
Q 1497 3097 1228 2736 
Q 959 2375 959 1747 
Q 959 1119 1226 758 
Q 1494 397 1959 397 
Q 2419 397 2687 759 
Q 2956 1122 2956 1747 
Q 2956 2369 2687 2733 
Q 2419 3097 1959 3097 
z
M 1959 3584 
Q 2709 3584 3137 3096 
Q 3566 2609 3566 1747 
Q 3566 888 3137 398 
Q 2709 -91 1959 -91 
Q 1206 -91 779 398 
Q 353 888 353 1747 
Q 353 2609 779 3096 
Q 1206 3584 1959 3584 
z
" transform="scale(0.015625)"/>
       <path id="DejaVuSans-73" d="M 2834 3397 
L 2834 2853 
Q 2591 2978 2328 3040 
Q 2066 3103 1784 3103 
Q 1356 3103 1142 2972 
Q 928 2841 928 2578 
Q 928 2378 1081 2264 
Q 1234 2150 1697 2047 
L 1894 2003 
Q 2506 1872 2764 1633 
Q 3022 1394 3022 966 
Q 3022 478 2636 193 
Q 2250 -91 1575 -91 
Q 1294 -91 989 -36 
Q 684 19 347 128 
L 347 722 
Q 666 556 975 473 
Q 1284 391 1588 391 
Q 1994 391 2212 530 
Q 2431 669 2431 922 
Q 2431 1156 2273 1281 
Q 2116 1406 1581 1522 
L 1381 1569 
Q 847 1681 609 1914 
Q 372 2147 372 2553 
Q 372 3047 722 3315 
Q 1072 3584 1716 3584 
Q 2034 3584 2315 3537 
Q 2597 3491 2834 3397 
z
" transform="scale(0.015625)"/>
       <path id="DejaVuSans-6e" d="M 3513 2113 
L 3513 0 
L 2938 0 
L 2938 2094 
Q 2938 2591 2744 2837 
Q 2550 3084 2163 3084 
Q 1697 3084 1428 2787 
Q 1159 2491 1159 1978 
L 1159 0 
L 581 0 
L 581 3500 
L 1159 3500 
L 1159 2956 
Q 1366 3272 1645 3428 
Q 1925 3584 2291 3584 
Q 2894 3584 3203 3211 
Q 3513 2838 3513 2113 
z
" transform="scale(0.015625)"/>
      </defs>
      <use xlink:href="#DejaVuSans-50"/>
      <use xlink:href="#DejaVuSans-72" x="58.552734"/>
      <use xlink:href="#DejaVuSans-65" x="97.416016"/>
      <use xlink:href="#DejaVuSans-64" x="158.939453"/>
      <use xlink:href="#DejaVuSans-69" x="222.416016"/>
      <use xlink:href="#DejaVuSans-63" x="250.199219"/>
      <use xlink:href="#DejaVuSans-74" x="305.179688"/>
      <use xlink:href="#DejaVuSans-65" x="344.388672"/>
      <use xlink:href="#DejaVuSans-64" x="405.912109"/>
      <use xlink:href="#DejaVuSans-20" x="469.388672"/>
      <use xlink:href="#DejaVuSans-46" x="501.175781"/>
      <use xlink:href="#DejaVuSans-6c" x="558.695312"/>
      <use xlink:href="#DejaVuSans-75" x="586.478516"/>
      <use xlink:href="#DejaVuSans-6f" x="649.857422"/>
      <use xlink:href="#DejaVuSans-72" x="711.039062"/>
      <use xlink:href="#DejaVuSans-65" x="749.902344"/>
      <use xlink:href="#DejaVuSans-73" x="811.425781"/>
      <use xlink:href="#DejaVuSans-63" x="863.525391"/>
      <use xlink:href="#DejaVuSans-65" x="918.505859"/>
      <use xlink:href="#DejaVuSans-6e" x="980.029297"/>
      <use xlink:href="#DejaVuSans-63" x="1043.408203"/>
      <use xlink:href="#DejaVuSans-65" x="1098.388672"/>
     </g>
    </g>
   </g>
   <g id="matplotlib.axis_2">
    <g id="ytick_1">
     <g id="line2d_10">
      <defs>
       <path id="maa105ff3ab" d="M 0 0 
L -3.5 0 
" style="stroke: #000000; stroke-width: 0.8"/>
      </defs>
      <g>
       <use xlink:href="#maa105ff3ab" x="57.8" y="389.32" style="stroke: #000000; stroke-width: 0.8"/>
      </g>
     </g>
     <g id="text_11">
      <!-- 0.00 -->
      <g transform="translate(28.534375 393.119219) scale(0.1 -0.1)">
       <use xlink:href="#DejaVuSans-30"/>
       <use xlink:href="#DejaVuSans-2e" x="63.623047"/>
       <use xlink:href="#DejaVuSans-30" x="95.410156"/>
       <use xlink:href="#DejaVuSans-30" x="159.033203"/>
      </g>
     </g>
    </g>
    <g id="ytick_2">
     <g id="line2d_11">
      <g>
       <use xlink:href="#maa105ff3ab" x="57.8" y="340.415873" style="stroke: #000000; stroke-width: 0.8"/>
      </g>
     </g>
     <g id="text_12">
      <!-- 0.02 -->
      <g transform="translate(28.534375 344.215092) scale(0.1 -0.1)">
       <use xlink:href="#DejaVuSans-30"/>
       <use xlink:href="#DejaVuSans-2e" x="63.623047"/>
       <use xlink:href="#DejaVuSans-30" x="95.410156"/>
       <use xlink:href="#DejaVuSans-32" x="159.033203"/>
      </g>
     </g>
    </g>
    <g id="ytick_3">
     <g id="line2d_12">
      <g>
       <use xlink:href="#maa105ff3ab" x="57.8" y="291.511747" style="stroke: #000000; stroke-width: 0.8"/>
      </g>
     </g>
     <g id="text_13">
      <!-- 0.04 -->
      <g transform="translate(28.534375 295.310965) scale(0.1 -0.1)">
       <defs>
        <path id="DejaVuSans-34" d="M 2419 4116 
L 825 1625 
L 2419 1625 
L 2419 4116 
z
M 2253 4666 
L 3047 4666 
L 3047 1625 
L 3713 1625 
L 3713 1100 
L 3047 1100 
L 3047 0 
L 2419 0 
L 2419 1100 
L 313 1100 
L 313 1709 
L 2253 4666 
z
" transform="scale(0.015625)"/>
       </defs>
       <use xlink:href="#DejaVuSans-30"/>
       <use xlink:href="#DejaVuSans-2e" x="63.623047"/>
       <use xlink:href="#DejaVuSans-30" x="95.410156"/>
       <use xlink:href="#DejaVuSans-34" x="159.033203"/>
      </g>
     </g>
    </g>
    <g id="ytick_4">
     <g id="line2d_13">
      <g>
       <use xlink:href="#maa105ff3ab" x="57.8" y="242.60762" style="stroke: #000000; stroke-width: 0.8"/>
      </g>
     </g>
     <g id="text_14">
      <!-- 0.06 -->
      <g transform="translate(28.534375 246.406839) scale(0.1 -0.1)">
       <defs>
        <path id="DejaVuSans-36" d="M 2113 2584 
Q 1688 2584 1439 2293 
Q 1191 2003 1191 1497 
Q 1191 994 1439 701 
Q 1688 409 2113 409 
Q 2538 409 2786 701 
Q 3034 994 3034 1497 
Q 3034 2003 2786 2293 
Q 2538 2584 2113 2584 
z
M 3366 4563 
L 3366 3988 
Q 3128 4100 2886 4159 
Q 2644 4219 2406 4219 
Q 1781 4219 1451 3797 
Q 1122 3375 1075 2522 
Q 1259 2794 1537 2939 
Q 1816 3084 2150 3084 
Q 2853 3084 3261 2657 
Q 3669 2231 3669 1497 
Q 3669 778 3244 343 
Q 2819 -91 2113 -91 
Q 1303 -91 875 529 
Q 447 1150 447 2328 
Q 447 3434 972 4092 
Q 1497 4750 2381 4750 
Q 2619 4750 2861 4703 
Q 3103 4656 3366 4563 
z
" transform="scale(0.015625)"/>
       </defs>
       <use xlink:href="#DejaVuSans-30"/>
       <use xlink:href="#DejaVuSans-2e" x="63.623047"/>
       <use xlink:href="#DejaVuSans-30" x="95.410156"/>
       <use xlink:href="#DejaVuSans-36" x="159.033203"/>
      </g>
     </g>
    </g>
    <g id="ytick_5">
     <g id="line2d_14">
      <g>
       <use xlink:href="#maa105ff3ab" x="57.8" y="193.703493" style="stroke: #000000; stroke-width: 0.8"/>
      </g>
     </g>
     <g id="text_15">
      <!-- 0.08 -->
      <g transform="translate(28.534375 197.502712) scale(0.1 -0.1)">
       <defs>
        <path id="DejaVuSans-38" d="M 2034 2216 
Q 1584 2216 1326 1975 
Q 1069 1734 1069 1313 
Q 1069 891 1326 650 
Q 1584 409 2034 409 
Q 2484 409 2743 651 
Q 3003 894 3003 1313 
Q 3003 1734 2745 1975 
Q 2488 2216 2034 2216 
z
M 1403 2484 
Q 997 2584 770 2862 
Q 544 3141 544 3541 
Q 544 4100 942 4425 
Q 1341 4750 2034 4750 
Q 2731 4750 3128 4425 
Q 3525 4100 3525 3541 
Q 3525 3141 3298 2862 
Q 3072 2584 2669 2484 
Q 3125 2378 3379 2068 
Q 3634 1759 3634 1313 
Q 3634 634 3220 271 
Q 2806 -91 2034 -91 
Q 1263 -91 848 271 
Q 434 634 434 1313 
Q 434 1759 690 2068 
Q 947 2378 1403 2484 
z
M 1172 3481 
Q 1172 3119 1398 2916 
Q 1625 2713 2034 2713 
Q 2441 2713 2670 2916 
Q 2900 3119 2900 3481 
Q 2900 3844 2670 4047 
Q 2441 4250 2034 4250 
Q 1625 4250 1398 4047 
Q 1172 3844 1172 3481 
z
" transform="scale(0.015625)"/>
       </defs>
       <use xlink:href="#DejaVuSans-30"/>
       <use xlink:href="#DejaVuSans-2e" x="63.623047"/>
       <use xlink:href="#DejaVuSans-30" x="95.410156"/>
       <use xlink:href="#DejaVuSans-38" x="159.033203"/>
      </g>
     </g>
    </g>
    <g id="ytick_6">
     <g id="line2d_15">
      <g>
       <use xlink:href="#maa105ff3ab" x="57.8" y="144.799367" style="stroke: #000000; stroke-width: 0.8"/>
      </g>
     </g>
     <g id="text_16">
      <!-- 0.10 -->
      <g transform="translate(28.534375 148.598585) scale(0.1 -0.1)">
       <use xlink:href="#DejaVuSans-30"/>
       <use xlink:href="#DejaVuSans-2e" x="63.623047"/>
       <use xlink:href="#DejaVuSans-31" x="95.410156"/>
       <use xlink:href="#DejaVuSans-30" x="159.033203"/>
      </g>
     </g>
    </g>
    <g id="ytick_7">
     <g id="line2d_16">
      <g>
       <use xlink:href="#maa105ff3ab" x="57.8" y="95.89524" style="stroke: #000000; stroke-width: 0.8"/>
      </g>
     </g>
     <g id="text_17">
      <!-- 0.12 -->
      <g transform="translate(28.534375 99.694459) scale(0.1 -0.1)">
       <use xlink:href="#DejaVuSans-30"/>
       <use xlink:href="#DejaVuSans-2e" x="63.623047"/>
       <use xlink:href="#DejaVuSans-31" x="95.410156"/>
       <use xlink:href="#DejaVuSans-32" x="159.033203"/>
      </g>
     </g>
    </g>
    <g id="ytick_8">
     <g id="line2d_17">
      <g>
       <use xlink:href="#maa105ff3ab" x="57.8" y="46.991113" style="stroke: #000000; stroke-width: 0.8"/>
      </g>
     </g>
     <g id="text_18">
      <!-- 0.14 -->
      <g transform="translate(28.534375 50.790332) scale(0.1 -0.1)">
       <use xlink:href="#DejaVuSans-30"/>
       <use xlink:href="#DejaVuSans-2e" x="63.623047"/>
       <use xlink:href="#DejaVuSans-31" x="95.410156"/>
       <use xlink:href="#DejaVuSans-34" x="159.033203"/>
      </g>
     </g>
    </g>
    <g id="text_19">
     <!-- Density -->
     <g transform="translate(21.622813 226.672031) rotate(-90) scale(0.14 -0.14)">
      <defs>
       <path id="DejaVuSans-44" d="M 1259 4147 
L 1259 519 
L 2022 519 
Q 2988 519 3436 956 
Q 3884 1394 3884 2338 
Q 3884 3275 3436 3711 
Q 2988 4147 2022 4147 
L 1259 4147 
z
M 628 4666 
L 1925 4666 
Q 3281 4666 3915 4102 
Q 4550 3538 4550 2338 
Q 4550 1131 3912 565 
Q 3275 0 1925 0 
L 628 0 
L 628 4666 
z
" transform="scale(0.015625)"/>
       <path id="DejaVuSans-79" d="M 2059 -325 
Q 1816 -950 1584 -1140 
Q 1353 -1331 966 -1331 
L 506 -1331 
L 506 -850 
L 844 -850 
Q 1081 -850 1212 -737 
Q 1344 -625 1503 -206 
L 1606 56 
L 191 3500 
L 800 3500 
L 1894 763 
L 2988 3500 
L 3597 3500 
L 2059 -325 
z
" transform="scale(0.015625)"/>
      </defs>
      <use xlink:href="#DejaVuSans-44"/>
      <use xlink:href="#DejaVuSans-65" x="77.001953"/>
      <use xlink:href="#DejaVuSans-6e" x="138.525391"/>
      <use xlink:href="#DejaVuSans-73" x="201.904297"/>
      <use xlink:href="#DejaVuSans-69" x="254.003906"/>
      <use xlink:href="#DejaVuSans-74" x="281.787109"/>
      <use xlink:href="#DejaVuSans-79" x="320.996094"/>
     </g>
    </g>
   </g>
   <g id="line2d_18">
    <path d="M 191.286853 389.32 
L 191.286853 10.8 
" clip-path="url(#pf9be6840ea)" style="fill: none; stroke-dasharray: 3.7,1.6; stroke-dashoffset: 0; stroke: #000000"/>
   </g>
   <g id="patch_3">
    <path d="M 57.8 389.32 
L 57.8 10.8 
" style="fill: none; stroke: #000000; stroke-width: 0.8; stroke-linejoin: miter; stroke-linecap: square"/>
   </g>
   <g id="patch_4">
    <path d="M 57.8 389.32 
L 421.2 389.32 
" style="fill: none; stroke: #000000; stroke-width: 0.8; stroke-linejoin: miter; stroke-linecap: square"/>
   </g>
   <g id="legend_1">
    <g id="patch_5">
     <path d="M 270.114062 77.5125 
L 414.2 77.5125 
Q 416.2 77.5125 416.2 75.5125 
L 416.2 17.8 
Q 416.2 15.8 414.2 15.8 
L 270.114062 15.8 
Q 268.114062 15.8 268.114062 17.8 
L 268.114062 75.5125 
Q 268.114062 77.5125 270.114062 77.5125 
z
" style="fill: #ffffff; opacity: 0.8; stroke: #cccccc; stroke-linejoin: miter"/>
    </g>
    <g id="patch_6">
     <path d="M 272.114062 27.398438 
L 292.114062 27.398438 
L 292.114062 20.398438 
L 272.114062 20.398438 
z
" style="fill: #bdbdbd; fill-opacity: 0.5; stroke: #bdbdbd; stroke-width: 2.5; stroke-linejoin: miter"/>
    </g>
    <g id="text_20">
     <!-- Pre-trained ESM2 (8M) -->
     <g transform="translate(300.114062 27.398438) scale(0.1 -0.1)">
      <defs>
       <path id="DejaVuSans-2d" d="M 313 2009 
L 1997 2009 
L 1997 1497 
L 313 1497 
L 313 2009 
z
" transform="scale(0.015625)"/>
       <path id="DejaVuSans-61" d="M 2194 1759 
Q 1497 1759 1228 1600 
Q 959 1441 959 1056 
Q 959 750 1161 570 
Q 1363 391 1709 391 
Q 2188 391 2477 730 
Q 2766 1069 2766 1631 
L 2766 1759 
L 2194 1759 
z
M 3341 1997 
L 3341 0 
L 2766 0 
L 2766 531 
Q 2569 213 2275 61 
Q 1981 -91 1556 -91 
Q 1019 -91 701 211 
Q 384 513 384 1019 
Q 384 1609 779 1909 
Q 1175 2209 1959 2209 
L 2766 2209 
L 2766 2266 
Q 2766 2663 2505 2880 
Q 2244 3097 1772 3097 
Q 1472 3097 1187 3025 
Q 903 2953 641 2809 
L 641 3341 
Q 956 3463 1253 3523 
Q 1550 3584 1831 3584 
Q 2591 3584 2966 3190 
Q 3341 2797 3341 1997 
z
" transform="scale(0.015625)"/>
       <path id="DejaVuSans-45" d="M 628 4666 
L 3578 4666 
L 3578 4134 
L 1259 4134 
L 1259 2753 
L 3481 2753 
L 3481 2222 
L 1259 2222 
L 1259 531 
L 3634 531 
L 3634 0 
L 628 0 
L 628 4666 
z
" transform="scale(0.015625)"/>
       <path id="DejaVuSans-53" d="M 3425 4513 
L 3425 3897 
Q 3066 4069 2747 4153 
Q 2428 4238 2131 4238 
Q 1616 4238 1336 4038 
Q 1056 3838 1056 3469 
Q 1056 3159 1242 3001 
Q 1428 2844 1947 2747 
L 2328 2669 
Q 3034 2534 3370 2195 
Q 3706 1856 3706 1288 
Q 3706 609 3251 259 
Q 2797 -91 1919 -91 
Q 1588 -91 1214 -16 
Q 841 59 441 206 
L 441 856 
Q 825 641 1194 531 
Q 1563 422 1919 422 
Q 2459 422 2753 634 
Q 3047 847 3047 1241 
Q 3047 1584 2836 1778 
Q 2625 1972 2144 2069 
L 1759 2144 
Q 1053 2284 737 2584 
Q 422 2884 422 3419 
Q 422 4038 858 4394 
Q 1294 4750 2059 4750 
Q 2388 4750 2728 4690 
Q 3069 4631 3425 4513 
z
" transform="scale(0.015625)"/>
       <path id="DejaVuSans-4d" d="M 628 4666 
L 1569 4666 
L 2759 1491 
L 3956 4666 
L 4897 4666 
L 4897 0 
L 4281 0 
L 4281 4097 
L 3078 897 
L 2444 897 
L 1241 4097 
L 1241 0 
L 628 0 
L 628 4666 
z
" transform="scale(0.015625)"/>
       <path id="DejaVuSans-28" d="M 1984 4856 
Q 1566 4138 1362 3434 
Q 1159 2731 1159 2009 
Q 1159 1288 1364 580 
Q 1569 -128 1984 -844 
L 1484 -844 
Q 1016 -109 783 600 
Q 550 1309 550 2009 
Q 550 2706 781 3412 
Q 1013 4119 1484 4856 
L 1984 4856 
z
" transform="scale(0.015625)"/>
       <path id="DejaVuSans-29" d="M 513 4856 
L 1013 4856 
Q 1481 4119 1714 3412 
Q 1947 2706 1947 2009 
Q 1947 1309 1714 600 
Q 1481 -109 1013 -844 
L 513 -844 
Q 928 -128 1133 580 
Q 1338 1288 1338 2009 
Q 1338 2731 1133 3434 
Q 928 4138 513 4856 
z
" transform="scale(0.015625)"/>
      </defs>
      <use xlink:href="#DejaVuSans-50"/>
      <use xlink:href="#DejaVuSans-72" x="58.552734"/>
      <use xlink:href="#DejaVuSans-65" x="97.416016"/>
      <use xlink:href="#DejaVuSans-2d" x="158.939453"/>
      <use xlink:href="#DejaVuSans-74" x="195.023438"/>
      <use xlink:href="#DejaVuSans-72" x="234.232422"/>
      <use xlink:href="#DejaVuSans-61" x="275.345703"/>
      <use xlink:href="#DejaVuSans-69" x="336.625"/>
      <use xlink:href="#DejaVuSans-6e" x="364.408203"/>
      <use xlink:href="#DejaVuSans-65" x="427.787109"/>
      <use xlink:href="#DejaVuSans-64" x="489.310547"/>
      <use xlink:href="#DejaVuSans-20" x="552.787109"/>
      <use xlink:href="#DejaVuSans-45" x="584.574219"/>
      <use xlink:href="#DejaVuSans-53" x="647.757812"/>
      <use xlink:href="#DejaVuSans-4d" x="711.234375"/>
      <use xlink:href="#DejaVuSans-32" x="797.513672"/>
      <use xlink:href="#DejaVuSans-20" x="861.136719"/>
      <use xlink:href="#DejaVuSans-28" x="892.923828"/>
      <use xlink:href="#DejaVuSans-38" x="931.9375"/>
      <use xlink:href="#DejaVuSans-4d" x="995.560547"/>
      <use xlink:href="#DejaVuSans-29" x="1081.839844"/>
     </g>
    </g>
    <g id="patch_7">
     <path d="M 272.114062 42.076563 
L 292.114062 42.076563 
L 292.114062 35.076563 
L 272.114062 35.076563 
z
" style="fill: #92c5de; fill-opacity: 0.5; stroke: #92c5de; stroke-width: 2.5; stroke-linejoin: miter"/>
    </g>
    <g id="text_21">
     <!-- SFT ESM2 (8M) -->
     <g transform="translate(300.114062 42.076563) scale(0.1 -0.1)">
      <defs>
       <path id="DejaVuSans-54" d="M -19 4666 
L 3928 4666 
L 3928 4134 
L 2272 4134 
L 2272 0 
L 1638 0 
L 1638 4134 
L -19 4134 
L -19 4666 
z
" transform="scale(0.015625)"/>
      </defs>
      <use xlink:href="#DejaVuSans-53"/>
      <use xlink:href="#DejaVuSans-46" x="63.476562"/>
      <use xlink:href="#DejaVuSans-54" x="119.246094"/>
      <use xlink:href="#DejaVuSans-20" x="180.330078"/>
      <use xlink:href="#DejaVuSans-45" x="212.117188"/>
      <use xlink:href="#DejaVuSans-53" x="275.300781"/>
      <use xlink:href="#DejaVuSans-4d" x="338.777344"/>
      <use xlink:href="#DejaVuSans-32" x="425.056641"/>
      <use xlink:href="#DejaVuSans-20" x="488.679688"/>
      <use xlink:href="#DejaVuSans-28" x="520.466797"/>
      <use xlink:href="#DejaVuSans-38" x="559.480469"/>
      <use xlink:href="#DejaVuSans-4d" x="623.103516"/>
      <use xlink:href="#DejaVuSans-29" x="709.382812"/>
     </g>
    </g>
    <g id="patch_8">
     <path d="M 272.114062 56.754687 
L 292.114062 56.754687 
L 292.114062 49.754687 
L 272.114062 49.754687 
z
" style="fill: #2166ac; fill-opacity: 0.5; stroke: #2166ac; stroke-width: 2.5; stroke-linejoin: miter"/>
    </g>
    <g id="text_22">
     <!-- Aligned ESM2 (8M) -->
     <g transform="translate(300.114062 56.754687) scale(0.1 -0.1)">
      <defs>
       <path id="DejaVuSans-41" d="M 2188 4044 
L 1331 1722 
L 3047 1722 
L 2188 4044 
z
M 1831 4666 
L 2547 4666 
L 4325 0 
L 3669 0 
L 3244 1197 
L 1141 1197 
L 716 0 
L 50 0 
L 1831 4666 
z
" transform="scale(0.015625)"/>
       <path id="DejaVuSans-67" d="M 2906 1791 
Q 2906 2416 2648 2759 
Q 2391 3103 1925 3103 
Q 1463 3103 1205 2759 
Q 947 2416 947 1791 
Q 947 1169 1205 825 
Q 1463 481 1925 481 
Q 2391 481 2648 825 
Q 2906 1169 2906 1791 
z
M 3481 434 
Q 3481 -459 3084 -895 
Q 2688 -1331 1869 -1331 
Q 1566 -1331 1297 -1286 
Q 1028 -1241 775 -1147 
L 775 -588 
Q 1028 -725 1275 -790 
Q 1522 -856 1778 -856 
Q 2344 -856 2625 -561 
Q 2906 -266 2906 331 
L 2906 616 
Q 2728 306 2450 153 
Q 2172 0 1784 0 
Q 1141 0 747 490 
Q 353 981 353 1791 
Q 353 2603 747 3093 
Q 1141 3584 1784 3584 
Q 2172 3584 2450 3431 
Q 2728 3278 2906 2969 
L 2906 3500 
L 3481 3500 
L 3481 434 
z
" transform="scale(0.015625)"/>
      </defs>
      <use xlink:href="#DejaVuSans-41"/>
      <use xlink:href="#DejaVuSans-6c" x="68.408203"/>
      <use xlink:href="#DejaVuSans-69" x="96.191406"/>
      <use xlink:href="#DejaVuSans-67" x="123.974609"/>
      <use xlink:href="#DejaVuSans-6e" x="187.451172"/>
      <use xlink:href="#DejaVuSans-65" x="250.830078"/>
      <use xlink:href="#DejaVuSans-64" x="312.353516"/>
      <use xlink:href="#DejaVuSans-20" x="375.830078"/>
      <use xlink:href="#DejaVuSans-45" x="407.617188"/>
      <use xlink:href="#DejaVuSans-53" x="470.800781"/>
      <use xlink:href="#DejaVuSans-4d" x="534.277344"/>
      <use xlink:href="#DejaVuSans-32" x="620.556641"/>
      <use xlink:href="#DejaVuSans-20" x="684.179688"/>
      <use xlink:href="#DejaVuSans-28" x="715.966797"/>
      <use xlink:href="#DejaVuSans-38" x="754.980469"/>
      <use xlink:href="#DejaVuSans-4d" x="818.603516"/>
      <use xlink:href="#DejaVuSans-29" x="904.882812"/>
     </g>
    </g>
    <g id="line2d_19">
     <path d="M 272.114062 67.932813 
L 282.114062 67.932813 
L 292.114062 67.932813 
" style="fill: none; stroke-dasharray: 3.7,1.6; stroke-dashoffset: 0; stroke: #000000"/>
    </g>
    <g id="text_23">
     <!-- Predicted gb1 score -->
     <g transform="translate(300.114062 71.432813) scale(0.1 -0.1)">
      <defs>
       <path id="DejaVuSans-62" d="M 3116 1747 
Q 3116 2381 2855 2742 
Q 2594 3103 2138 3103 
Q 1681 3103 1420 2742 
Q 1159 2381 1159 1747 
Q 1159 1113 1420 752 
Q 1681 391 2138 391 
Q 2594 391 2855 752 
Q 3116 1113 3116 1747 
z
M 1159 2969 
Q 1341 3281 1617 3432 
Q 1894 3584 2278 3584 
Q 2916 3584 3314 3078 
Q 3713 2572 3713 1747 
Q 3713 922 3314 415 
Q 2916 -91 2278 -91 
Q 1894 -91 1617 61 
Q 1341 213 1159 525 
L 1159 0 
L 581 0 
L 581 4863 
L 1159 4863 
L 1159 2969 
z
" transform="scale(0.015625)"/>
      </defs>
      <use xlink:href="#DejaVuSans-50"/>
      <use xlink:href="#DejaVuSans-72" x="58.552734"/>
      <use xlink:href="#DejaVuSans-65" x="97.416016"/>
      <use xlink:href="#DejaVuSans-64" x="158.939453"/>
      <use xlink:href="#DejaVuSans-69" x="222.416016"/>
      <use xlink:href="#DejaVuSans-63" x="250.199219"/>
      <use xlink:href="#DejaVuSans-74" x="305.179688"/>
      <use xlink:href="#DejaVuSans-65" x="344.388672"/>
      <use xlink:href="#DejaVuSans-64" x="405.912109"/>
      <use xlink:href="#DejaVuSans-20" x="469.388672"/>
      <use xlink:href="#DejaVuSans-67" x="501.175781"/>
      <use xlink:href="#DejaVuSans-62" x="564.652344"/>
      <use xlink:href="#DejaVuSans-31" x="628.128906"/>
      <use xlink:href="#DejaVuSans-20" x="691.751953"/>
      <use xlink:href="#DejaVuSans-73" x="723.539062"/>
      <use xlink:href="#DejaVuSans-63" x="775.638672"/>
      <use xlink:href="#DejaVuSans-6f" x="830.619141"/>
      <use xlink:href="#DejaVuSans-72" x="891.800781"/>
      <use xlink:href="#DejaVuSans-65" x="930.664062"/>
     </g>
    </g>
   </g>
  </g>
 </g>
 <defs>
  <clipPath id="pf9be6840ea">
   <rect x="57.8" y="10.8" width="363.4" height="378.52"/>
  </clipPath>
 </defs>
</svg>
