<?xml version="1.0" encoding="utf-8" standalone="no"?>
<!DOCTYPE svg PUBLIC "-//W3C//DTD SVG 1.1//EN"
  "http://www.w3.org/Graphics/SVG/1.1/DTD/svg11.dtd">
<svg xmlns:xlink="http://www.w3.org/1999/xlink" width="432pt" height="432pt" viewBox="0 0 432 432" xmlns="http://www.w3.org/2000/svg" version="1.1">
 <metadata>
  <rdf:RDF xmlns:dc="http://purl.org/dc/elements/1.1/" xmlns:cc="http://creativecommons.org/ns#" xmlns:rdf="http://www.w3.org/1999/02/22-rdf-syntax-ns#">
   <cc:Work>
    <dc:type rdf:resource="http://purl.org/dc/dcmitype/StillImage"/>
    <dc:date>2025-04-02T13:51:27.864902</dc:date>
    <dc:format>image/svg+xml</dc:format>
    <dc:creator>
     <cc:Agent>
      <dc:title>Matplotlib v3.8.0, https://matplotlib.org/</dc:title>
     </cc:Agent>
    </dc:creator>
   </cc:Work>
  </rdf:RDF>
 </metadata>
 <defs>
  <style type="text/css">*{stroke-linejoin: round; stroke-linecap: butt}</style>
 </defs>
 <g id="figure_1">
  <g id="patch_1">
   <path d="M 0 432 
L 432 432 
L 432 0 
L 0 0 
z
" style="fill: #ffffff"/>
  </g>
  <g id="axes_1">
   <g id="patch_2">
    <path d="M 41.87 389.32 
L 421.2 389.32 
L 421.2 10.8 
L 41.87 10.8 
z
" style="fill: #ffffff"/>
   </g>
   <g id="PolyCollection_1">
    <defs>
     <path id="m321c450950" d="M 59.112273 -42.682365 
L 59.112273 -42.68 
L 60.845164 -42.68 
L 62.578056 -42.68 
L 64.310948 -42.68 
L 66.04384 -42.68 
L 67.776731 -42.68 
L 69.509623 -42.68 
L 71.242515 -42.68 
L 72.975407 -42.68 
L 74.708298 -42.68 
L 76.44119 -42.68 
L 78.174082 -42.68 
L 79.906974 -42.68 
L 81.639865 -42.68 
L 83.372757 -42.68 
L 85.105649 -42.68 
L 86.83854 -42.68 
L 88.571432 -42.68 
L 90.304324 -42.68 
L 92.037216 -42.68 
L 93.770107 -42.68 
L 95.502999 -42.68 
L 97.235891 -42.68 
L 98.968783 -42.68 
L 100.701674 -42.68 
L 102.434566 -42.68 
L 104.167458 -42.68 
L 105.900349 -42.68 
L 107.633241 -42.68 
L 109.366133 -42.68 
L 111.099025 -42.68 
L 112.831916 -42.68 
L 114.564808 -42.68 
L 116.2977 -42.68 
L 118.030592 -42.68 
L 119.763483 -42.68 
L 121.496375 -42.68 
L 123.229267 -42.68 
L 124.962159 -42.68 
L 126.69505 -42.68 
L 128.427942 -42.68 
L 130.160834 -42.68 
L 131.893725 -42.68 
L 133.626617 -42.68 
L 135.359509 -42.68 
L 137.092401 -42.68 
L 138.825292 -42.68 
L 140.558184 -42.68 
L 142.291076 -42.68 
L 144.023968 -42.68 
L 145.756859 -42.68 
L 147.489751 -42.68 
L 149.222643 -42.68 
L 150.955534 -42.68 
L 152.688426 -42.68 
L 154.421318 -42.68 
L 156.15421 -42.68 
L 157.887101 -42.68 
L 159.619993 -42.68 
L 161.352885 -42.68 
L 163.085777 -42.68 
L 164.818668 -42.68 
L 166.55156 -42.68 
L 168.284452 -42.68 
L 170.017344 -42.68 
L 171.750235 -42.68 
L 173.483127 -42.68 
L 175.216019 -42.68 
L 176.94891 -42.68 
L 178.681802 -42.68 
L 180.414694 -42.68 
L 182.147586 -42.68 
L 183.880477 -42.68 
L 185.613369 -42.68 
L 187.346261 -42.68 
L 189.079153 -42.68 
L 190.812044 -42.68 
L 192.544936 -42.68 
L 194.277828 -42.68 
L 196.01072 -42.68 
L 197.743611 -42.68 
L 199.476503 -42.68 
L 201.209395 -42.68 
L 202.942286 -42.68 
L 204.675178 -42.68 
L 206.40807 -42.68 
L 208.140962 -42.68 
L 209.873853 -42.68 
L 211.606745 -42.68 
L 213.339637 -42.68 
L 215.072529 -42.68 
L 216.80542 -42.68 
L 218.538312 -42.68 
L 220.271204 -42.68 
L 222.004095 -42.68 
L 223.736987 -42.68 
L 225.469879 -42.68 
L 227.202771 -42.68 
L 228.935662 -42.68 
L 230.668554 -42.68 
L 232.401446 -42.68 
L 234.134338 -42.68 
L 235.867229 -42.68 
L 237.600121 -42.68 
L 239.333013 -42.68 
L 241.065905 -42.68 
L 242.798796 -42.68 
L 244.531688 -42.68 
L 246.26458 -42.68 
L 247.997471 -42.68 
L 249.730363 -42.68 
L 251.463255 -42.68 
L 253.196147 -42.68 
L 254.929038 -42.68 
L 256.66193 -42.68 
L 258.394822 -42.68 
L 260.127714 -42.68 
L 261.860605 -42.68 
L 263.593497 -42.68 
L 265.326389 -42.68 
L 267.05928 -42.68 
L 268.792172 -42.68 
L 270.525064 -42.68 
L 272.257956 -42.68 
L 273.990847 -42.68 
L 275.723739 -42.68 
L 277.456631 -42.68 
L 279.189523 -42.68 
L 280.922414 -42.68 
L 282.655306 -42.68 
L 284.388198 -42.68 
L 286.12109 -42.68 
L 287.853981 -42.68 
L 289.586873 -42.68 
L 291.319765 -42.68 
L 293.052656 -42.68 
L 294.785548 -42.68 
L 296.51844 -42.68 
L 298.251332 -42.68 
L 299.984223 -42.68 
L 301.717115 -42.68 
L 303.450007 -42.68 
L 305.182899 -42.68 
L 306.91579 -42.68 
L 308.648682 -42.68 
L 310.381574 -42.68 
L 312.114466 -42.68 
L 313.847357 -42.68 
L 315.580249 -42.68 
L 317.313141 -42.68 
L 319.046032 -42.68 
L 320.778924 -42.68 
L 322.511816 -42.68 
L 324.244708 -42.68 
L 325.977599 -42.68 
L 327.710491 -42.68 
L 329.443383 -42.68 
L 331.176275 -42.68 
L 332.909166 -42.68 
L 334.642058 -42.68 
L 336.37495 -42.68 
L 338.107841 -42.68 
L 339.840733 -42.68 
L 341.573625 -42.68 
L 343.306517 -42.68 
L 345.039408 -42.68 
L 346.7723 -42.68 
L 348.505192 -42.68 
L 350.238084 -42.68 
L 351.970975 -42.68 
L 353.703867 -42.68 
L 355.436759 -42.68 
L 357.169651 -42.68 
L 358.902542 -42.68 
L 360.635434 -42.68 
L 362.368326 -42.68 
L 364.101217 -42.68 
L 365.834109 -42.68 
L 367.567001 -42.68 
L 369.299893 -42.68 
L 371.032784 -42.68 
L 372.765676 -42.68 
L 374.498568 -42.68 
L 376.23146 -42.68 
L 377.964351 -42.68 
L 379.697243 -42.68 
L 381.430135 -42.68 
L 383.163026 -42.68 
L 384.895918 -42.68 
L 386.62881 -42.68 
L 388.361702 -42.68 
L 390.094593 -42.68 
L 391.827485 -42.68 
L 393.560377 -42.68 
L 395.293269 -42.68 
L 397.02616 -42.68 
L 398.759052 -42.68 
L 400.491944 -42.68 
L 402.224836 -42.68 
L 403.957727 -42.68 
L 403.957727 -42.716281 
L 403.957727 -42.716281 
L 402.224836 -42.737971 
L 400.491944 -42.771061 
L 398.759052 -42.820635 
L 397.02616 -42.893575 
L 395.293269 -42.998976 
L 393.560377 -43.148571 
L 391.827485 -43.357115 
L 390.094593 -43.642682 
L 388.361702 -44.0268 
L 386.62881 -44.534355 
L 384.895918 -45.193184 
L 383.163026 -46.033306 
L 381.430135 -47.085742 
L 379.697243 -48.380922 
L 377.964351 -49.946731 
L 376.23146 -51.806271 
L 374.498568 -53.975505 
L 372.765676 -56.460967 
L 371.032784 -59.257761 
L 369.299893 -62.348089 
L 367.567001 -65.700502 
L 365.834109 -69.270064 
L 364.101217 -72.999482 
L 362.368326 -76.821221 
L 360.635434 -80.660475 
L 358.902542 -84.438789 
L 357.169651 -88.078053 
L 355.436759 -91.504513 
L 353.703867 -94.652487 
L 351.970975 -97.46745 
L 350.238084 -99.908268 
L 348.505192 -101.948433 
L 346.7723 -103.57626 
L 345.039408 -104.794131 
L 343.306517 -105.616947 
L 341.573625 -106.069997 
L 339.840733 -106.186512 
L 338.107841 -106.00514 
L 336.37495 -105.567546 
L 334.642058 -104.916278 
L 332.909166 -104.093011 
L 331.176275 -103.137163 
L 329.443383 -102.084884 
L 327.710491 -100.968356 
L 325.977599 -99.815343 
L 324.244708 -98.648935 
L 322.511816 -97.487458 
L 320.778924 -96.344504 
L 319.046032 -95.229113 
L 317.313141 -94.14609 
L 315.580249 -93.096473 
L 313.847357 -92.078152 
L 312.114466 -91.086598 
L 310.381574 -90.115691 
L 308.648682 -89.158561 
L 306.91579 -88.208389 
L 305.182899 -87.259107 
L 303.450007 -86.305935 
L 301.717115 -85.345719 
L 299.984223 -84.377059 
L 298.251332 -83.400246 
L 296.51844 -82.417015 
L 294.785548 -81.430196 
L 293.052656 -80.443285 
L 291.319765 -79.46002 
L 289.586873 -78.483992 
L 287.853981 -77.518349 
L 286.12109 -76.565608 
L 284.388198 -75.627581 
L 282.655306 -74.70541 
L 280.922414 -73.799695 
L 279.189523 -72.910664 
L 277.456631 -72.03837 
L 275.723739 -71.182867 
L 273.990847 -70.344347 
L 272.257956 -69.523219 
L 270.525064 -68.720128 
L 268.792172 -67.935916 
L 267.05928 -67.171557 
L 265.326389 -66.428061 
L 263.593497 -65.706388 
L 261.860605 -65.007379 
L 260.127714 -64.331713 
L 258.394822 -63.679897 
L 256.66193 -63.052282 
L 254.929038 -62.449101 
L 253.196147 -61.870519 
L 251.463255 -61.316674 
L 249.730363 -60.787707 
L 247.997471 -60.283761 
L 246.26458 -59.804949 
L 244.531688 -59.351271 
L 242.798796 -58.9225 
L 241.065905 -58.51803 
L 239.333013 -58.136707 
L 237.600121 -57.776666 
L 235.867229 -57.435198 
L 234.134338 -57.108684 
L 232.401446 -56.792612 
L 230.668554 -56.481699 
L 228.935662 -56.170129 
L 227.202771 -55.851888 
L 225.469879 -55.521173 
L 223.736987 -55.172846 
L 222.004095 -54.802874 
L 220.271204 -54.408714 
L 218.538312 -53.989598 
L 216.80542 -53.546682 
L 215.072529 -53.083046 
L 213.339637 -52.603537 
L 211.606745 -52.11447 
L 209.873853 -51.623218 
L 208.140962 -51.137724 
L 206.40807 -50.665986 
L 204.675178 -50.215551 
L 202.942286 -49.793062 
L 201.209395 -49.403896 
L 199.476503 -49.051903 
L 197.743611 -48.739282 
L 196.01072 -48.466569 
L 194.277828 -48.232742 
L 192.544936 -48.035431 
L 190.812044 -47.871175 
L 189.079153 -47.735739 
L 187.346261 -47.624425 
L 185.613369 -47.532362 
L 183.880477 -47.454764 
L 182.147586 -47.387125 
L 180.414694 -47.325351 
L 178.681802 -47.265847 
L 176.94891 -47.205536 
L 175.216019 -47.141859 
L 173.483127 -47.072735 
L 171.750235 -46.996522 
L 170.017344 -46.911967 
L 168.284452 -46.818169 
L 166.55156 -46.71455 
L 164.818668 -46.600827 
L 163.085777 -46.477014 
L 161.352885 -46.34341 
L 159.619993 -46.200609 
L 157.887101 -46.049507 
L 156.15421 -45.891305 
L 154.421318 -45.727511 
L 152.688426 -45.559922 
L 150.955534 -45.390601 
L 149.222643 -45.221818 
L 147.489751 -45.055982 
L 145.756859 -44.895538 
L 144.023968 -44.742853 
L 142.291076 -44.600085 
L 140.558184 -44.469056 
L 138.825292 -44.351137 
L 137.092401 -44.247154 
L 135.359509 -44.157336 
L 133.626617 -44.081305 
L 131.893725 -44.018117 
L 130.160834 -43.966341 
L 128.427942 -43.924184 
L 126.69505 -43.889629 
L 124.962159 -43.860584 
L 123.229267 -43.835026 
L 121.496375 -43.811112 
L 119.763483 -43.787265 
L 118.030592 -43.762223 
L 116.2977 -43.735039 
L 114.564808 -43.705071 
L 112.831916 -43.671933 
L 111.099025 -43.635452 
L 109.366133 -43.595613 
L 107.633241 -43.552528 
L 105.900349 -43.506403 
L 104.167458 -43.457527 
L 102.434566 -43.406273 
L 100.701674 -43.353094 
L 98.968783 -43.298529 
L 97.235891 -43.243199 
L 95.502999 -43.187795 
L 93.770107 -43.133052 
L 92.037216 -43.079723 
L 90.304324 -43.028538 
L 88.571432 -42.98017 
L 86.83854 -42.935192 
L 85.105649 -42.894056 
L 83.372757 -42.857067 
L 81.639865 -42.82438 
L 79.906974 -42.796 
L 78.174082 -42.771795 
L 76.44119 -42.751523 
L 74.708298 -42.734852 
L 72.975407 -42.721393 
L 71.242515 -42.710728 
L 69.509623 -42.702433 
L 67.776731 -42.696103 
L 66.04384 -42.691363 
L 64.310948 -42.687881 
L 62.578056 -42.68537 
L 60.845164 -42.683596 
L 59.112273 -42.682365 
z
" style="stroke: #bdbdbd; stroke-width: 2.5"/>
    </defs>
    <g clip-path="url(#p7df5f65798)">
     <use xlink:href="#m321c450950" x="0" y="432" style="fill: #bdbdbd; fill-opacity: 0.5; stroke: #bdbdbd; stroke-width: 2.5"/>
    </g>
   </g>
   <g id="PolyCollection_2">
    <defs>
     <path id="m677f22b39c" d="M 203.150493 -42.687198 
L 203.150493 -42.68 
L 204.087642 -42.68 
L 205.024792 -42.68 
L 205.961941 -42.68 
L 206.89909 -42.68 
L 207.83624 -42.68 
L 208.773389 -42.68 
L 209.710539 -42.68 
L 210.647688 -42.68 
L 211.584837 -42.68 
L 212.521987 -42.68 
L 213.459136 -42.68 
L 214.396286 -42.68 
L 215.333435 -42.68 
L 216.270584 -42.68 
L 217.207734 -42.68 
L 218.144883 -42.68 
L 219.082032 -42.68 
L 220.019182 -42.68 
L 220.956331 -42.68 
L 221.893481 -42.68 
L 222.83063 -42.68 
L 223.767779 -42.68 
L 224.704929 -42.68 
L 225.642078 -42.68 
L 226.579227 -42.68 
L 227.516377 -42.68 
L 228.453526 -42.68 
L 229.390676 -42.68 
L 230.327825 -42.68 
L 231.264974 -42.68 
L 232.202124 -42.68 
L 233.139273 -42.68 
L 234.076423 -42.68 
L 235.013572 -42.68 
L 235.950721 -42.68 
L 236.887871 -42.68 
L 237.82502 -42.68 
L 238.762169 -42.68 
L 239.699319 -42.68 
L 240.636468 -42.68 
L 241.573618 -42.68 
L 242.510767 -42.68 
L 243.447916 -42.68 
L 244.385066 -42.68 
L 245.322215 -42.68 
L 246.259364 -42.68 
L 247.196514 -42.68 
L 248.133663 -42.68 
L 249.070813 -42.68 
L 250.007962 -42.68 
L 250.945111 -42.68 
L 251.882261 -42.68 
L 252.81941 -42.68 
L 253.756559 -42.68 
L 254.693709 -42.68 
L 255.630858 -42.68 
L 256.568008 -42.68 
L 257.505157 -42.68 
L 258.442306 -42.68 
L 259.379456 -42.68 
L 260.316605 -42.68 
L 261.253755 -42.68 
L 262.190904 -42.68 
L 263.128053 -42.68 
L 264.065203 -42.68 
L 265.002352 -42.68 
L 265.939501 -42.68 
L 266.876651 -42.68 
L 267.8138 -42.68 
L 268.75095 -42.68 
L 269.688099 -42.68 
L 270.625248 -42.68 
L 271.562398 -42.68 
L 272.499547 -42.68 
L 273.436696 -42.68 
L 274.373846 -42.68 
L 275.310995 -42.68 
L 276.248145 -42.68 
L 277.185294 -42.68 
L 278.122443 -42.68 
L 279.059593 -42.68 
L 279.996742 -42.68 
L 280.933892 -42.68 
L 281.871041 -42.68 
L 282.80819 -42.68 
L 283.74534 -42.68 
L 284.682489 -42.68 
L 285.619638 -42.68 
L 286.556788 -42.68 
L 287.493937 -42.68 
L 288.431087 -42.68 
L 289.368236 -42.68 
L 290.305385 -42.68 
L 291.242535 -42.68 
L 292.179684 -42.68 
L 293.116833 -42.68 
L 294.053983 -42.68 
L 294.991132 -42.68 
L 295.928282 -42.68 
L 296.865431 -42.68 
L 297.80258 -42.68 
L 298.73973 -42.68 
L 299.676879 -42.68 
L 300.614029 -42.68 
L 301.551178 -42.68 
L 302.488327 -42.68 
L 303.425477 -42.68 
L 304.362626 -42.68 
L 305.299775 -42.68 
L 306.236925 -42.68 
L 307.174074 -42.68 
L 308.111224 -42.68 
L 309.048373 -42.68 
L 309.985522 -42.68 
L 310.922672 -42.68 
L 311.859821 -42.68 
L 312.79697 -42.68 
L 313.73412 -42.68 
L 314.671269 -42.68 
L 315.608419 -42.68 
L 316.545568 -42.68 
L 317.482717 -42.68 
L 318.419867 -42.68 
L 319.357016 -42.68 
L 320.294165 -42.68 
L 321.231315 -42.68 
L 322.168464 -42.68 
L 323.105614 -42.68 
L 324.042763 -42.68 
L 324.979912 -42.68 
L 325.917062 -42.68 
L 326.854211 -42.68 
L 327.791361 -42.68 
L 328.72851 -42.68 
L 329.665659 -42.68 
L 330.602809 -42.68 
L 331.539958 -42.68 
L 332.477107 -42.68 
L 333.414257 -42.68 
L 334.351406 -42.68 
L 335.288556 -42.68 
L 336.225705 -42.68 
L 337.162854 -42.68 
L 338.100004 -42.68 
L 339.037153 -42.68 
L 339.974302 -42.68 
L 340.911452 -42.68 
L 341.848601 -42.68 
L 342.785751 -42.68 
L 343.7229 -42.68 
L 344.660049 -42.68 
L 345.597199 -42.68 
L 346.534348 -42.68 
L 347.471498 -42.68 
L 348.408647 -42.68 
L 349.345796 -42.68 
L 350.282946 -42.68 
L 351.220095 -42.68 
L 352.157244 -42.68 
L 353.094394 -42.68 
L 354.031543 -42.68 
L 354.968693 -42.68 
L 355.905842 -42.68 
L 356.842991 -42.68 
L 357.780141 -42.68 
L 358.71729 -42.68 
L 359.654439 -42.68 
L 360.591589 -42.68 
L 361.528738 -42.68 
L 362.465888 -42.68 
L 363.403037 -42.68 
L 364.340186 -42.68 
L 365.277336 -42.68 
L 366.214485 -42.68 
L 367.151635 -42.68 
L 368.088784 -42.68 
L 369.025933 -42.68 
L 369.963083 -42.68 
L 370.900232 -42.68 
L 371.837381 -42.68 
L 372.774531 -42.68 
L 373.71168 -42.68 
L 374.64883 -42.68 
L 375.585979 -42.68 
L 376.523128 -42.68 
L 377.460278 -42.68 
L 378.397427 -42.68 
L 379.334576 -42.68 
L 380.271726 -42.68 
L 381.208875 -42.68 
L 382.146025 -42.68 
L 383.083174 -42.68 
L 384.020323 -42.68 
L 384.957473 -42.68 
L 385.894622 -42.68 
L 386.831771 -42.68 
L 387.768921 -42.68 
L 388.70607 -42.68 
L 389.64322 -42.68 
L 389.64322 -42.772822 
L 389.64322 -42.772822 
L 388.70607 -42.906398 
L 387.768921 -43.203052 
L 386.831771 -43.825029 
L 385.894622 -45.056004 
L 384.957473 -47.355295 
L 384.020323 -51.407561 
L 383.083174 -58.143751 
L 382.146025 -68.700983 
L 381.208875 -84.291124 
L 380.271726 -105.966764 
L 379.334576 -134.309692 
L 378.397427 -169.111274 
L 377.460278 -209.146794 
L 376.523128 -252.145188 
L 375.585979 -295.010759 
L 374.64883 -334.274441 
L 373.71168 -366.669494 
L 372.774531 -389.677673 
L 371.837381 -401.900754 
L 370.900232 -403.175238 
L 369.963083 -394.435468 
L 369.025933 -377.403411 
L 368.088784 -354.214983 
L 367.151635 -327.079573 
L 366.214485 -298.028673 
L 365.277336 -268.765989 
L 364.340186 -240.602799 
L 363.403037 -214.453276 
L 362.465888 -190.868442 
L 361.528738 -170.094462 
L 360.591589 -152.14469 
L 359.654439 -136.8746 
L 358.71729 -124.048287 
L 357.780141 -113.387878 
L 356.842991 -104.603397 
L 355.905842 -97.407342 
L 354.968693 -91.521901 
L 354.031543 -86.685951 
L 353.094394 -82.665101 
L 352.157244 -79.26383 
L 351.220095 -76.336133 
L 350.282946 -73.790216 
L 349.345796 -71.583611 
L 348.408647 -69.707318 
L 347.471498 -68.161465 
L 346.534348 -66.929352 
L 345.597199 -65.959485 
L 344.660049 -65.163657 
L 343.7229 -64.433148 
L 342.785751 -63.66691 
L 341.848601 -62.799818 
L 340.911452 -61.818796 
L 339.974302 -60.760377 
L 339.037153 -59.691823 
L 338.100004 -58.684696 
L 337.162854 -57.79173 
L 336.225705 -57.034594 
L 335.288556 -56.404344 
L 334.351406 -55.871358 
L 333.414257 -55.399306 
L 332.477107 -54.958148 
L 331.539958 -54.532872 
L 330.602809 -54.126241 
L 329.665659 -53.75508 
L 328.72851 -53.440987 
L 327.791361 -53.19808 
L 326.854211 -53.021953 
L 325.917062 -52.884289 
L 324.979912 -52.735962 
L 324.042763 -52.518272 
L 323.105614 -52.178759 
L 322.168464 -51.686222 
L 321.231315 -51.039991 
L 320.294165 -50.270766 
L 319.357016 -49.433293 
L 318.419867 -48.59355 
L 317.482717 -47.814318 
L 316.545568 -47.142882 
L 315.608419 -46.603564 
L 314.671269 -46.196239 
L 313.73412 -45.900405 
L 312.79697 -45.683051 
L 311.859821 -45.50785 
L 310.922672 -45.343259 
L 309.985522 -45.167739 
L 309.048373 -44.971483 
L 308.111224 -44.755095 
L 307.174074 -44.526517 
L 306.236925 -44.297627 
L 305.299775 -44.08151 
L 304.362626 -43.890597 
L 303.425477 -43.735296 
L 302.488327 -43.622632 
L 301.551178 -43.554966 
L 300.614029 -43.52938 
L 299.676879 -43.53854 
L 298.73973 -43.573217 
L 297.80258 -43.625723 
L 296.865431 -43.692773 
L 295.928282 -43.776344 
L 294.991132 -43.881978 
L 294.053983 -44.01524 
L 293.116833 -44.177877 
L 292.179684 -44.365276 
L 291.242535 -44.56605 
L 290.305385 -44.763594 
L 289.368236 -44.9387 
L 288.431087 -45.072296 
L 287.493937 -45.147759 
L 286.556788 -45.152863 
L 285.619638 -45.08166 
L 284.682489 -44.936317 
L 283.74534 -44.728418 
L 282.80819 -44.478765 
L 281.871041 -44.214848 
L 280.933892 -43.96595 
L 279.996742 -43.756948 
L 279.059593 -43.602675 
L 278.122443 -43.504806 
L 277.185294 -43.45242 
L 276.248145 -43.426106 
L 275.310995 -43.4042 
L 274.373846 -43.369048 
L 273.436696 -43.311316 
L 272.499547 -43.231224 
L 271.562398 -43.136835 
L 270.625248 -43.040543 
L 269.688099 -42.955313 
L 268.75095 -42.891925 
L 267.8138 -42.857669 
L 266.876651 -42.856143 
L 265.939501 -42.887434 
L 265.002352 -42.948072 
L 264.065203 -43.030718 
L 263.128053 -43.12409 
L 262.190904 -43.21381 
L 261.253755 -43.284586 
L 260.316605 -43.323398 
L 259.379456 -43.322713 
L 258.442306 -43.282458 
L 257.505157 -43.209917 
L 256.568008 -43.117543 
L 255.630858 -43.019584 
L 254.693709 -42.92881 
L 253.756559 -42.854452 
L 252.81941 -42.801778 
L 251.882261 -42.772991 
L 250.945111 -42.768663 
L 250.007962 -42.788838 
L 249.070813 -42.833217 
L 248.133663 -42.900335 
L 247.196514 -42.986156 
L 246.259364 -43.082881 
L 245.322215 -43.178833 
L 244.385066 -43.259947 
L 243.447916 -43.312706 
L 242.510767 -43.327604 
L 241.573618 -43.301849 
L 240.636468 -43.240171 
L 239.699319 -43.153384 
L 238.762169 -43.055286 
L 237.82502 -42.959105 
L 236.887871 -42.874728 
L 235.950721 -42.807452 
L 235.013572 -42.758257 
L 234.076423 -42.725077 
L 233.139273 -42.704359 
L 232.202124 -42.692353 
L 231.264974 -42.68589 
L 230.327825 -42.682675 
L 229.390676 -42.681256 
L 228.453526 -42.680863 
L 227.516377 -42.681259 
L 226.579227 -42.682684 
L 225.642078 -42.68591 
L 224.704929 -42.692392 
L 223.767779 -42.70443 
L 222.83063 -42.725195 
L 221.893481 -42.758439 
L 220.956331 -42.807713 
L 220.019182 -42.875071 
L 219.082032 -42.959515 
L 218.144883 -43.05573 
L 217.207734 -43.153808 
L 216.270584 -43.240512 
L 215.333435 -43.302048 
L 214.396286 -43.327617 
L 213.459136 -43.312513 
L 212.521987 -43.25953 
L 211.584837 -43.178126 
L 210.647688 -43.08166 
L 209.710539 -42.983832 
L 208.773389 -42.895608 
L 207.83624 -42.823533 
L 206.89909 -42.769639 
L 205.961941 -42.732516 
L 205.024792 -42.708864 
L 204.087642 -42.694882 
L 203.150493 -42.687198 
z
" style="stroke: #92c5de; stroke-width: 2.5"/>
    </defs>
    <g clip-path="url(#p7df5f65798)">
     <use xlink:href="#m677f22b39c" x="0" y="432" style="fill: #92c5de; fill-opacity: 0.5; stroke: #92c5de; stroke-width: 2.5"/>
    </g>
   </g>
   <g id="PolyCollection_3">
    <defs>
     <path id="ma45bb697c3" d="M 202.941515 -42.687066 
L 202.941515 -42.68 
L 203.878758 -42.68 
L 204.816001 -42.68 
L 205.753243 -42.68 
L 206.690486 -42.68 
L 207.627729 -42.68 
L 208.564972 -42.68 
L 209.502214 -42.68 
L 210.439457 -42.68 
L 211.3767 -42.68 
L 212.313943 -42.68 
L 213.251185 -42.68 
L 214.188428 -42.68 
L 215.125671 -42.68 
L 216.062914 -42.68 
L 217.000156 -42.68 
L 217.937399 -42.68 
L 218.874642 -42.68 
L 219.811884 -42.68 
L 220.749127 -42.68 
L 221.68637 -42.68 
L 222.623613 -42.68 
L 223.560855 -42.68 
L 224.498098 -42.68 
L 225.435341 -42.68 
L 226.372584 -42.68 
L 227.309826 -42.68 
L 228.247069 -42.68 
L 229.184312 -42.68 
L 230.121554 -42.68 
L 231.058797 -42.68 
L 231.99604 -42.68 
L 232.933283 -42.68 
L 233.870525 -42.68 
L 234.807768 -42.68 
L 235.745011 -42.68 
L 236.682254 -42.68 
L 237.619496 -42.68 
L 238.556739 -42.68 
L 239.493982 -42.68 
L 240.431225 -42.68 
L 241.368467 -42.68 
L 242.30571 -42.68 
L 243.242953 -42.68 
L 244.180195 -42.68 
L 245.117438 -42.68 
L 246.054681 -42.68 
L 246.991924 -42.68 
L 247.929166 -42.68 
L 248.866409 -42.68 
L 249.803652 -42.68 
L 250.740895 -42.68 
L 251.678137 -42.68 
L 252.61538 -42.68 
L 253.552623 -42.68 
L 254.489865 -42.68 
L 255.427108 -42.68 
L 256.364351 -42.68 
L 257.301594 -42.68 
L 258.238836 -42.68 
L 259.176079 -42.68 
L 260.113322 -42.68 
L 261.050565 -42.68 
L 261.987807 -42.68 
L 262.92505 -42.68 
L 263.862293 -42.68 
L 264.799536 -42.68 
L 265.736778 -42.68 
L 266.674021 -42.68 
L 267.611264 -42.68 
L 268.548506 -42.68 
L 269.485749 -42.68 
L 270.422992 -42.68 
L 271.360235 -42.68 
L 272.297477 -42.68 
L 273.23472 -42.68 
L 274.171963 -42.68 
L 275.109206 -42.68 
L 276.046448 -42.68 
L 276.983691 -42.68 
L 277.920934 -42.68 
L 278.858176 -42.68 
L 279.795419 -42.68 
L 280.732662 -42.68 
L 281.669905 -42.68 
L 282.607147 -42.68 
L 283.54439 -42.68 
L 284.481633 -42.68 
L 285.418876 -42.68 
L 286.356118 -42.68 
L 287.293361 -42.68 
L 288.230604 -42.68 
L 289.167846 -42.68 
L 290.105089 -42.68 
L 291.042332 -42.68 
L 291.979575 -42.68 
L 292.916817 -42.68 
L 293.85406 -42.68 
L 294.791303 -42.68 
L 295.728546 -42.68 
L 296.665788 -42.68 
L 297.603031 -42.68 
L 298.540274 -42.68 
L 299.477517 -42.68 
L 300.414759 -42.68 
L 301.352002 -42.68 
L 302.289245 -42.68 
L 303.226487 -42.68 
L 304.16373 -42.68 
L 305.100973 -42.68 
L 306.038216 -42.68 
L 306.975458 -42.68 
L 307.912701 -42.68 
L 308.849944 -42.68 
L 309.787187 -42.68 
L 310.724429 -42.68 
L 311.661672 -42.68 
L 312.598915 -42.68 
L 313.536157 -42.68 
L 314.4734 -42.68 
L 315.410643 -42.68 
L 316.347886 -42.68 
L 317.285128 -42.68 
L 318.222371 -42.68 
L 319.159614 -42.68 
L 320.096857 -42.68 
L 321.034099 -42.68 
L 321.971342 -42.68 
L 322.908585 -42.68 
L 323.845828 -42.68 
L 324.78307 -42.68 
L 325.720313 -42.68 
L 326.657556 -42.68 
L 327.594798 -42.68 
L 328.532041 -42.68 
L 329.469284 -42.68 
L 330.406527 -42.68 
L 331.343769 -42.68 
L 332.281012 -42.68 
L 333.218255 -42.68 
L 334.155498 -42.68 
L 335.09274 -42.68 
L 336.029983 -42.68 
L 336.967226 -42.68 
L 337.904468 -42.68 
L 338.841711 -42.68 
L 339.778954 -42.68 
L 340.716197 -42.68 
L 341.653439 -42.68 
L 342.590682 -42.68 
L 343.527925 -42.68 
L 344.465168 -42.68 
L 345.40241 -42.68 
L 346.339653 -42.68 
L 347.276896 -42.68 
L 348.214139 -42.68 
L 349.151381 -42.68 
L 350.088624 -42.68 
L 351.025867 -42.68 
L 351.963109 -42.68 
L 352.900352 -42.68 
L 353.837595 -42.68 
L 354.774838 -42.68 
L 355.71208 -42.68 
L 356.649323 -42.68 
L 357.586566 -42.68 
L 358.523809 -42.68 
L 359.461051 -42.68 
L 360.398294 -42.68 
L 361.335537 -42.68 
L 362.272779 -42.68 
L 363.210022 -42.68 
L 364.147265 -42.68 
L 365.084508 -42.68 
L 366.02175 -42.68 
L 366.958993 -42.68 
L 367.896236 -42.68 
L 368.833479 -42.68 
L 369.770721 -42.68 
L 370.707964 -42.68 
L 371.645207 -42.68 
L 372.582449 -42.68 
L 373.519692 -42.68 
L 374.456935 -42.68 
L 375.394178 -42.68 
L 376.33142 -42.68 
L 377.268663 -42.68 
L 378.205906 -42.68 
L 379.143149 -42.68 
L 380.080391 -42.68 
L 381.017634 -42.68 
L 381.954877 -42.68 
L 382.89212 -42.68 
L 383.829362 -42.68 
L 384.766605 -42.68 
L 385.703848 -42.68 
L 386.64109 -42.68 
L 387.578333 -42.68 
L 388.515576 -42.68 
L 389.452819 -42.68 
L 389.452819 -42.811232 
L 389.452819 -42.811232 
L 388.515576 -42.988607 
L 387.578333 -43.368538 
L 386.64109 -44.138164 
L 385.703848 -45.612552 
L 384.766605 -48.283491 
L 383.829362 -52.858221 
L 382.89212 -60.264532 
L 381.954877 -71.593907 
L 381.017634 -87.959863 
L 380.080391 -110.26879 
L 379.143149 -138.934 
L 378.205906 -173.600305 
L 377.268663 -212.969476 
L 376.33142 -254.809602 
L 375.394178 -296.187473 
L 374.456935 -333.893627 
L 373.519692 -364.961096 
L 372.582449 -387.141564 
L 371.645207 -399.214868 
L 370.707964 -401.065442 
L 369.770721 -393.537173 
L 368.833479 -378.142922 
L 367.896236 -356.732195 
L 366.958993 -331.205432 
L 366.02175 -303.32104 
L 365.084508 -274.595774 
L 364.147265 -246.270401 
L 363.210022 -219.307662 
L 362.272779 -194.401554 
L 361.335537 -171.992892 
L 360.398294 -152.294992 
L 359.461051 -135.332545 
L 358.523809 -120.990277 
L 357.586566 -109.062633 
L 356.649323 -99.295269 
L 355.71208 -91.413467 
L 354.774838 -85.138422 
L 353.837595 -80.196377 
L 352.900352 -76.326153 
L 351.963109 -73.28828 
L 351.025867 -70.875521 
L 350.088624 -68.921847 
L 349.151381 -67.306241 
L 348.214139 -65.948983 
L 347.276896 -64.800748 
L 346.339653 -63.827566 
L 345.40241 -62.996523 
L 344.465168 -62.26707 
L 343.527925 -61.590851 
L 342.590682 -60.919655 
L 341.653439 -60.217668 
L 340.716197 -59.472223 
L 339.778954 -58.697737 
L 338.841711 -57.930451 
L 337.904468 -57.215539 
L 336.967226 -56.591465 
L 336.029983 -56.077542 
L 335.09274 -55.669213 
L 334.155498 -55.34232 
L 333.218255 -55.064 
L 332.281012 -54.805347 
L 331.343769 -54.550603 
L 330.406527 -54.299516 
L 329.469284 -54.062743 
L 328.532041 -53.853251 
L 327.594798 -53.678075 
L 326.657556 -53.533952 
L 325.720313 -53.407888 
L 324.78307 -53.281122 
L 323.845828 -53.133673 
L 322.908585 -52.947183 
L 321.971342 -52.705634 
L 321.034099 -52.395247 
L 320.096857 -52.005466 
L 319.159614 -51.531922 
L 318.222371 -50.980426 
L 317.285128 -50.369638 
L 316.347886 -49.730024 
L 315.410643 -49.0984 
L 314.4734 -48.509643 
L 313.536157 -47.98882 
L 312.598915 -47.546938 
L 311.661672 -47.181771 
L 310.724429 -46.88276 
L 309.787187 -46.637198 
L 308.849944 -46.434722 
L 307.912701 -46.26847 
L 306.975458 -46.133288 
L 306.038216 -46.022817 
L 305.100973 -45.927551 
L 304.16373 -45.835038 
L 303.226487 -45.732087 
L 302.289245 -45.607785 
L 301.352002 -45.456 
L 300.414759 -45.276473 
L 299.477517 -45.074467 
L 298.540274 -44.859487 
L 297.603031 -44.643715 
L 296.665788 -44.440567 
L 295.728546 -44.263354 
L 294.791303 -44.123864 
L 293.85406 -44.030805 
L 292.916817 -43.988271 
L 291.979575 -43.994608 
L 291.042332 -44.041963 
L 290.105089 -44.116636 
L 289.167846 -44.200231 
L 288.230604 -44.271637 
L 287.293361 -44.309903 
L 286.356118 -44.297837 
L 285.418876 -44.22568 
L 284.481633 -44.093705 
L 283.54439 -43.912602 
L 282.607147 -43.701164 
L 281.669905 -43.481836 
L 280.732662 -43.275607 
L 279.795419 -43.097913 
L 278.858176 -42.956687 
L 277.920934 -42.852709 
L 276.983691 -42.781578 
L 276.046448 -42.736266 
L 275.109206 -42.709344 
L 274.171963 -42.694404 
L 273.23472 -42.686655 
L 272.297477 -42.682893 
L 271.360235 -42.681183 
L 270.422992 -42.680455 
L 269.485749 -42.680165 
L 268.548506 -42.680056 
L 267.611264 -42.680018 
L 266.674021 -42.680005 
L 265.736778 -42.680002 
L 264.799536 -42.680002 
L 263.862293 -42.680004 
L 262.92505 -42.680013 
L 261.987807 -42.680041 
L 261.050565 -42.680117 
L 260.113322 -42.680318 
L 259.176079 -42.680811 
L 258.238836 -42.681947 
L 257.301594 -42.684391 
L 256.364351 -42.689313 
L 255.427108 -42.698575 
L 254.489865 -42.714834 
L 253.552623 -42.741427 
L 252.61538 -42.781856 
L 251.678137 -42.838816 
L 250.740895 -42.912862 
L 249.803652 -43.001093 
L 248.866409 -43.096445 
L 247.929166 -43.188178 
L 246.991924 -43.26382 
L 246.054681 -43.312269 
L 245.117438 -43.327137 
L 244.180195 -43.309144 
L 243.242953 -43.266582 
L 242.30571 -43.213502 
L 241.368467 -43.166115 
L 240.431225 -43.138461 
L 239.493982 -43.138624 
L 238.556739 -43.166557 
L 237.619496 -43.214092 
L 236.682254 -43.267144 
L 235.745011 -43.309502 
L 234.807768 -43.327161 
L 233.870525 -43.311909 
L 232.933283 -43.263112 
L 231.99604 -43.187231 
L 231.058797 -43.095412 
L 230.121554 -43.000149 
L 229.184312 -42.912212 
L 228.247069 -42.838765 
L 227.309826 -42.782968 
L 226.372584 -42.744827 
L 225.435341 -42.722688 
L 224.498098 -42.714757 
L 223.560855 -42.720211 
L 222.623613 -42.739627 
L 221.68637 -42.774683 
L 220.749127 -42.82716 
L 219.811884 -42.897462 
L 218.874642 -42.983058 
L 217.937399 -43.077443 
L 217.000156 -43.170205 
L 216.062914 -43.248551 
L 215.125671 -43.300057 
L 214.188428 -43.315858 
L 213.251185 -43.293132 
L 212.313943 -43.23592 
L 211.3767 -43.153953 
L 210.439457 -43.059947 
L 209.502214 -42.966401 
L 208.564972 -42.882998 
L 207.627729 -42.815292 
L 206.690486 -42.764785 
L 205.753243 -42.729961 
L 204.816001 -42.707682 
L 203.878758 -42.694423 
L 202.941515 -42.687066 
z
" style="stroke: #2166ac; stroke-width: 2.5"/>
    </defs>
    <g clip-path="url(#p7df5f65798)">
     <use xlink:href="#ma45bb697c3" x="0" y="432" style="fill: #2166ac; fill-opacity: 0.5; stroke: #2166ac; stroke-width: 2.5"/>
    </g>
   </g>
   <g id="matplotlib.axis_1">
    <g id="xtick_1">
     <g id="line2d_1">
      <defs>
       <path id="mc880072c48" d="M 0 0 
L 0 3.5 
" style="stroke: #000000; stroke-width: 0.8"/>
      </defs>
      <g>
       <use xlink:href="#mc880072c48" x="76.661784" y="389.32" style="stroke: #000000; stroke-width: 0.8"/>
      </g>
     </g>
     <g id="text_1">
      <!-- 0 -->
      <g transform="translate(73.480534 403.918437) scale(0.1 -0.1)">
       <defs>
        <path id="DejaVuSans-30" d="M 2034 4250 
Q 1547 4250 1301 3770 
Q 1056 3291 1056 2328 
Q 1056 1369 1301 889 
Q 1547 409 2034 409 
Q 2525 409 2770 889 
Q 3016 1369 3016 2328 
Q 3016 3291 2770 3770 
Q 2525 4250 2034 4250 
z
M 2034 4750 
Q 2819 4750 3233 4129 
Q 3647 3509 3647 2328 
Q 3647 1150 3233 529 
Q 2819 -91 2034 -91 
Q 1250 -91 836 529 
Q 422 1150 422 2328 
Q 422 3509 836 4129 
Q 1250 4750 2034 4750 
z
" transform="scale(0.015625)"/>
       </defs>
       <use xlink:href="#DejaVuSans-30"/>
      </g>
     </g>
    </g>
    <g id="xtick_2">
     <g id="line2d_2">
      <g>
       <use xlink:href="#mc880072c48" x="152.589419" y="389.32" style="stroke: #000000; stroke-width: 0.8"/>
      </g>
     </g>
     <g id="text_2">
      <!-- 1 -->
      <g transform="translate(149.408169 403.918437) scale(0.1 -0.1)">
       <defs>
        <path id="DejaVuSans-31" d="M 794 531 
L 1825 531 
L 1825 4091 
L 703 3866 
L 703 4441 
L 1819 4666 
L 2450 4666 
L 2450 531 
L 3481 531 
L 3481 0 
L 794 0 
L 794 531 
z
" transform="scale(0.015625)"/>
       </defs>
       <use xlink:href="#DejaVuSans-31"/>
      </g>
     </g>
    </g>
    <g id="xtick_3">
     <g id="line2d_3">
      <g>
       <use xlink:href="#mc880072c48" x="228.517053" y="389.32" style="stroke: #000000; stroke-width: 0.8"/>
      </g>
     </g>
     <g id="text_3">
      <!-- 2 -->
      <g transform="translate(225.335803 403.918437) scale(0.1 -0.1)">
       <defs>
        <path id="DejaVuSans-32" d="M 1228 531 
L 3431 531 
L 3431 0 
L 469 0 
L 469 531 
Q 828 903 1448 1529 
Q 2069 2156 2228 2338 
Q 2531 2678 2651 2914 
Q 2772 3150 2772 3378 
Q 2772 3750 2511 3984 
Q 2250 4219 1831 4219 
Q 1534 4219 1204 4116 
Q 875 4013 500 3803 
L 500 4441 
Q 881 4594 1212 4672 
Q 1544 4750 1819 4750 
Q 2544 4750 2975 4387 
Q 3406 4025 3406 3419 
Q 3406 3131 3298 2873 
Q 3191 2616 2906 2266 
Q 2828 2175 2409 1742 
Q 1991 1309 1228 531 
z
" transform="scale(0.015625)"/>
       </defs>
       <use xlink:href="#DejaVuSans-32"/>
      </g>
     </g>
    </g>
    <g id="xtick_4">
     <g id="line2d_4">
      <g>
       <use xlink:href="#mc880072c48" x="304.444688" y="389.32" style="stroke: #000000; stroke-width: 0.8"/>
      </g>
     </g>
     <g id="text_4">
      <!-- 3 -->
      <g transform="translate(301.263438 403.918437) scale(0.1 -0.1)">
       <defs>
        <path id="DejaVuSans-33" d="M 2597 2516 
Q 3050 2419 3304 2112 
Q 3559 1806 3559 1356 
Q 3559 666 3084 287 
Q 2609 -91 1734 -91 
Q 1441 -91 1130 -33 
Q 819 25 488 141 
L 488 750 
Q 750 597 1062 519 
Q 1375 441 1716 441 
Q 2309 441 2620 675 
Q 2931 909 2931 1356 
Q 2931 1769 2642 2001 
Q 2353 2234 1838 2234 
L 1294 2234 
L 1294 2753 
L 1863 2753 
Q 2328 2753 2575 2939 
Q 2822 3125 2822 3475 
Q 2822 3834 2567 4026 
Q 2313 4219 1838 4219 
Q 1578 4219 1281 4162 
Q 984 4106 628 3988 
L 628 4550 
Q 988 4650 1302 4700 
Q 1616 4750 1894 4750 
Q 2613 4750 3031 4423 
Q 3450 4097 3450 3541 
Q 3450 3153 3228 2886 
Q 3006 2619 2597 2516 
z
" transform="scale(0.015625)"/>
       </defs>
       <use xlink:href="#DejaVuSans-33"/>
      </g>
     </g>
    </g>
    <g id="xtick_5">
     <g id="line2d_5">
      <g>
       <use xlink:href="#mc880072c48" x="380.372323" y="389.32" style="stroke: #000000; stroke-width: 0.8"/>
      </g>
     </g>
     <g id="text_5">
      <!-- 4 -->
      <g transform="translate(377.191073 403.918437) scale(0.1 -0.1)">
       <defs>
        <path id="DejaVuSans-34" d="M 2419 4116 
L 825 1625 
L 2419 1625 
L 2419 4116 
z
M 2253 4666 
L 3047 4666 
L 3047 1625 
L 3713 1625 
L 3713 1100 
L 3047 1100 
L 3047 0 
L 2419 0 
L 2419 1100 
L 313 1100 
L 313 1709 
L 2253 4666 
z
" transform="scale(0.015625)"/>
       </defs>
       <use xlink:href="#DejaVuSans-34"/>
      </g>
     </g>
    </g>
    <g id="text_6">
     <!-- Predicted Fluorescence -->
     <g transform="translate(161.93875 419.11625) scale(0.12 -0.12)">
      <defs>
       <path id="DejaVuSans-50" d="M 1259 4147 
L 1259 2394 
L 2053 2394 
Q 2494 2394 2734 2622 
Q 2975 2850 2975 3272 
Q 2975 3691 2734 3919 
Q 2494 4147 2053 4147 
L 1259 4147 
z
M 628 4666 
L 2053 4666 
Q 2838 4666 3239 4311 
Q 3641 3956 3641 3272 
Q 3641 2581 3239 2228 
Q 2838 1875 2053 1875 
L 1259 1875 
L 1259 0 
L 628 0 
L 628 4666 
z
" transform="scale(0.015625)"/>
       <path id="DejaVuSans-72" d="M 2631 2963 
Q 2534 3019 2420 3045 
Q 2306 3072 2169 3072 
Q 1681 3072 1420 2755 
Q 1159 2438 1159 1844 
L 1159 0 
L 581 0 
L 581 3500 
L 1159 3500 
L 1159 2956 
Q 1341 3275 1631 3429 
Q 1922 3584 2338 3584 
Q 2397 3584 2469 3576 
Q 2541 3569 2628 3553 
L 2631 2963 
z
" transform="scale(0.015625)"/>
       <path id="DejaVuSans-65" d="M 3597 1894 
L 3597 1613 
L 953 1613 
Q 991 1019 1311 708 
Q 1631 397 2203 397 
Q 2534 397 2845 478 
Q 3156 559 3463 722 
L 3463 178 
Q 3153 47 2828 -22 
Q 2503 -91 2169 -91 
Q 1331 -91 842 396 
Q 353 884 353 1716 
Q 353 2575 817 3079 
Q 1281 3584 2069 3584 
Q 2775 3584 3186 3129 
Q 3597 2675 3597 1894 
z
M 3022 2063 
Q 3016 2534 2758 2815 
Q 2500 3097 2075 3097 
Q 1594 3097 1305 2825 
Q 1016 2553 972 2059 
L 3022 2063 
z
" transform="scale(0.015625)"/>
       <path id="DejaVuSans-64" d="M 2906 2969 
L 2906 4863 
L 3481 4863 
L 3481 0 
L 2906 0 
L 2906 525 
Q 2725 213 2448 61 
Q 2172 -91 1784 -91 
Q 1150 -91 751 415 
Q 353 922 353 1747 
Q 353 2572 751 3078 
Q 1150 3584 1784 3584 
Q 2172 3584 2448 3432 
Q 2725 3281 2906 2969 
z
M 947 1747 
Q 947 1113 1208 752 
Q 1469 391 1925 391 
Q 2381 391 2643 752 
Q 2906 1113 2906 1747 
Q 2906 2381 2643 2742 
Q 2381 3103 1925 3103 
Q 1469 3103 1208 2742 
Q 947 2381 947 1747 
z
" transform="scale(0.015625)"/>
       <path id="DejaVuSans-69" d="M 603 3500 
L 1178 3500 
L 1178 0 
L 603 0 
L 603 3500 
z
M 603 4863 
L 1178 4863 
L 1178 4134 
L 603 4134 
L 603 4863 
z
" transform="scale(0.015625)"/>
       <path id="DejaVuSans-63" d="M 3122 3366 
L 3122 2828 
Q 2878 2963 2633 3030 
Q 2388 3097 2138 3097 
Q 1578 3097 1268 2742 
Q 959 2388 959 1747 
Q 959 1106 1268 751 
Q 1578 397 2138 397 
Q 2388 397 2633 464 
Q 2878 531 3122 666 
L 3122 134 
Q 2881 22 2623 -34 
Q 2366 -91 2075 -91 
Q 1284 -91 818 406 
Q 353 903 353 1747 
Q 353 2603 823 3093 
Q 1294 3584 2113 3584 
Q 2378 3584 2631 3529 
Q 2884 3475 3122 3366 
z
" transform="scale(0.015625)"/>
       <path id="DejaVuSans-74" d="M 1172 4494 
L 1172 3500 
L 2356 3500 
L 2356 3053 
L 1172 3053 
L 1172 1153 
Q 1172 725 1289 603 
Q 1406 481 1766 481 
L 2356 481 
L 2356 0 
L 1766 0 
Q 1100 0 847 248 
Q 594 497 594 1153 
L 594 3053 
L 172 3053 
L 172 3500 
L 594 3500 
L 594 4494 
L 1172 4494 
z
" transform="scale(0.015625)"/>
       <path id="DejaVuSans-20" transform="scale(0.015625)"/>
       <path id="DejaVuSans-46" d="M 628 4666 
L 3309 4666 
L 3309 4134 
L 1259 4134 
L 1259 2759 
L 3109 2759 
L 3109 2228 
L 1259 2228 
L 1259 0 
L 628 0 
L 628 4666 
z
" transform="scale(0.015625)"/>
       <path id="DejaVuSans-6c" d="M 603 4863 
L 1178 4863 
L 1178 0 
L 603 0 
L 603 4863 
z
" transform="scale(0.015625)"/>
       <path id="DejaVuSans-75" d="M 544 1381 
L 544 3500 
L 1119 3500 
L 1119 1403 
Q 1119 906 1312 657 
Q 1506 409 1894 409 
Q 2359 409 2629 706 
Q 2900 1003 2900 1516 
L 2900 3500 
L 3475 3500 
L 3475 0 
L 2900 0 
L 2900 538 
Q 2691 219 2414 64 
Q 2138 -91 1772 -91 
Q 1169 -91 856 284 
Q 544 659 544 1381 
z
M 1991 3584 
L 1991 3584 
z
" transform="scale(0.015625)"/>
       <path id="DejaVuSans-6f" d="M 1959 3097 
Q 1497 3097 1228 2736 
Q 959 2375 959 1747 
Q 959 1119 1226 758 
Q 1494 397 1959 397 
Q 2419 397 2687 759 
Q 2956 1122 2956 1747 
Q 2956 2369 2687 2733 
Q 2419 3097 1959 3097 
z
M 1959 3584 
Q 2709 3584 3137 3096 
Q 3566 2609 3566 1747 
Q 3566 888 3137 398 
Q 2709 -91 1959 -91 
Q 1206 -91 779 398 
Q 353 888 353 1747 
Q 353 2609 779 3096 
Q 1206 3584 1959 3584 
z
" transform="scale(0.015625)"/>
       <path id="DejaVuSans-73" d="M 2834 3397 
L 2834 2853 
Q 2591 2978 2328 3040 
Q 2066 3103 1784 3103 
Q 1356 3103 1142 2972 
Q 928 2841 928 2578 
Q 928 2378 1081 2264 
Q 1234 2150 1697 2047 
L 1894 2003 
Q 2506 1872 2764 1633 
Q 3022 1394 3022 966 
Q 3022 478 2636 193 
Q 2250 -91 1575 -91 
Q 1294 -91 989 -36 
Q 684 19 347 128 
L 347 722 
Q 666 556 975 473 
Q 1284 391 1588 391 
Q 1994 391 2212 530 
Q 2431 669 2431 922 
Q 2431 1156 2273 1281 
Q 2116 1406 1581 1522 
L 1381 1569 
Q 847 1681 609 1914 
Q 372 2147 372 2553 
Q 372 3047 722 3315 
Q 1072 3584 1716 3584 
Q 2034 3584 2315 3537 
Q 2597 3491 2834 3397 
z
" transform="scale(0.015625)"/>
       <path id="DejaVuSans-6e" d="M 3513 2113 
L 3513 0 
L 2938 0 
L 2938 2094 
Q 2938 2591 2744 2837 
Q 2550 3084 2163 3084 
Q 1697 3084 1428 2787 
Q 1159 2491 1159 1978 
L 1159 0 
L 581 0 
L 581 3500 
L 1159 3500 
L 1159 2956 
Q 1366 3272 1645 3428 
Q 1925 3584 2291 3584 
Q 2894 3584 3203 3211 
Q 3513 2838 3513 2113 
z
" transform="scale(0.015625)"/>
      </defs>
      <use xlink:href="#DejaVuSans-50"/>
      <use xlink:href="#DejaVuSans-72" x="58.552734"/>
      <use xlink:href="#DejaVuSans-65" x="97.416016"/>
      <use xlink:href="#DejaVuSans-64" x="158.939453"/>
      <use xlink:href="#DejaVuSans-69" x="222.416016"/>
      <use xlink:href="#DejaVuSans-63" x="250.199219"/>
      <use xlink:href="#DejaVuSans-74" x="305.179688"/>
      <use xlink:href="#DejaVuSans-65" x="344.388672"/>
      <use xlink:href="#DejaVuSans-64" x="405.912109"/>
      <use xlink:href="#DejaVuSans-20" x="469.388672"/>
      <use xlink:href="#DejaVuSans-46" x="501.175781"/>
      <use xlink:href="#DejaVuSans-6c" x="558.695312"/>
      <use xlink:href="#DejaVuSans-75" x="586.478516"/>
      <use xlink:href="#DejaVuSans-6f" x="649.857422"/>
      <use xlink:href="#DejaVuSans-72" x="711.039062"/>
      <use xlink:href="#DejaVuSans-65" x="749.902344"/>
      <use xlink:href="#DejaVuSans-73" x="811.425781"/>
      <use xlink:href="#DejaVuSans-63" x="863.525391"/>
      <use xlink:href="#DejaVuSans-65" x="918.505859"/>
      <use xlink:href="#DejaVuSans-6e" x="980.029297"/>
      <use xlink:href="#DejaVuSans-63" x="1043.408203"/>
      <use xlink:href="#DejaVuSans-65" x="1098.388672"/>
     </g>
    </g>
   </g>
   <g id="matplotlib.axis_2">
    <g id="ytick_1">
     <g id="line2d_6">
      <defs>
       <path id="m9b78e7a2e2" d="M 0 0 
L -3.5 0 
" style="stroke: #000000; stroke-width: 0.8"/>
      </defs>
      <g>
       <use xlink:href="#m9b78e7a2e2" x="41.87" y="389.32" style="stroke: #000000; stroke-width: 0.8"/>
      </g>
     </g>
     <g id="text_7">
      <!-- 0 -->
      <g transform="translate(28.5075 393.119219) scale(0.1 -0.1)">
       <use xlink:href="#DejaVuSans-30"/>
      </g>
     </g>
    </g>
    <g id="ytick_2">
     <g id="line2d_7">
      <g>
       <use xlink:href="#m9b78e7a2e2" x="41.87" y="310.003755" style="stroke: #000000; stroke-width: 0.8"/>
      </g>
     </g>
     <g id="text_8">
      <!-- 1 -->
      <g transform="translate(28.5075 313.802974) scale(0.1 -0.1)">
       <use xlink:href="#DejaVuSans-31"/>
      </g>
     </g>
    </g>
    <g id="ytick_3">
     <g id="line2d_8">
      <g>
       <use xlink:href="#m9b78e7a2e2" x="41.87" y="230.68751" style="stroke: #000000; stroke-width: 0.8"/>
      </g>
     </g>
     <g id="text_9">
      <!-- 2 -->
      <g transform="translate(28.5075 234.486729) scale(0.1 -0.1)">
       <use xlink:href="#DejaVuSans-32"/>
      </g>
     </g>
    </g>
    <g id="ytick_4">
     <g id="line2d_9">
      <g>
       <use xlink:href="#m9b78e7a2e2" x="41.87" y="151.371265" style="stroke: #000000; stroke-width: 0.8"/>
      </g>
     </g>
     <g id="text_10">
      <!-- 3 -->
      <g transform="translate(28.5075 155.170484) scale(0.1 -0.1)">
       <use xlink:href="#DejaVuSans-33"/>
      </g>
     </g>
    </g>
    <g id="ytick_5">
     <g id="line2d_10">
      <g>
       <use xlink:href="#m9b78e7a2e2" x="41.87" y="72.05502" style="stroke: #000000; stroke-width: 0.8"/>
      </g>
     </g>
     <g id="text_11">
      <!-- 4 -->
      <g transform="translate(28.5075 75.854239) scale(0.1 -0.1)">
       <use xlink:href="#DejaVuSans-34"/>
      </g>
     </g>
    </g>
    <g id="text_12">
     <!-- Density -->
     <g transform="translate(21.595938 226.672031) rotate(-90) scale(0.14 -0.14)">
      <defs>
       <path id="DejaVuSans-44" d="M 1259 4147 
L 1259 519 
L 2022 519 
Q 2988 519 3436 956 
Q 3884 1394 3884 2338 
Q 3884 3275 3436 3711 
Q 2988 4147 2022 4147 
L 1259 4147 
z
M 628 4666 
L 1925 4666 
Q 3281 4666 3915 4102 
Q 4550 3538 4550 2338 
Q 4550 1131 3912 565 
Q 3275 0 1925 0 
L 628 0 
L 628 4666 
z
" transform="scale(0.015625)"/>
       <path id="DejaVuSans-79" d="M 2059 -325 
Q 1816 -950 1584 -1140 
Q 1353 -1331 966 -1331 
L 506 -1331 
L 506 -850 
L 844 -850 
Q 1081 -850 1212 -737 
Q 1344 -625 1503 -206 
L 1606 56 
L 191 3500 
L 800 3500 
L 1894 763 
L 2988 3500 
L 3597 3500 
L 2059 -325 
z
" transform="scale(0.015625)"/>
      </defs>
      <use xlink:href="#DejaVuSans-44"/>
      <use xlink:href="#DejaVuSans-65" x="77.001953"/>
      <use xlink:href="#DejaVuSans-6e" x="138.525391"/>
      <use xlink:href="#DejaVuSans-73" x="201.904297"/>
      <use xlink:href="#DejaVuSans-69" x="254.003906"/>
      <use xlink:href="#DejaVuSans-74" x="281.787109"/>
      <use xlink:href="#DejaVuSans-79" x="320.996094"/>
     </g>
    </g>
   </g>
   <g id="line2d_11">
    <path d="M 355.918699 389.32 
L 355.918699 10.8 
" clip-path="url(#p7df5f65798)" style="fill: none; stroke-dasharray: 3.7,1.6; stroke-dashoffset: 0; stroke: #000000"/>
   </g>
   <g id="patch_3">
    <path d="M 41.87 389.32 
L 41.87 10.8 
" style="fill: none; stroke: #000000; stroke-width: 0.8; stroke-linejoin: miter; stroke-linecap: square"/>
   </g>
   <g id="patch_4">
    <path d="M 41.87 389.32 
L 421.2 389.32 
" style="fill: none; stroke: #000000; stroke-width: 0.8; stroke-linejoin: miter; stroke-linecap: square"/>
   </g>
   <g id="legend_1">
    <g id="patch_5">
     <path d="M 48.87 77.5125 
L 192.955938 77.5125 
Q 194.955938 77.5125 194.955938 75.5125 
L 194.955938 17.8 
Q 194.955938 15.8 192.955938 15.8 
L 48.87 15.8 
Q 46.87 15.8 46.87 17.8 
L 46.87 75.5125 
Q 46.87 77.5125 48.87 77.5125 
z
" style="fill: #ffffff; opacity: 0.8; stroke: #cccccc; stroke-linejoin: miter"/>
    </g>
    <g id="patch_6">
     <path d="M 50.87 27.398438 
L 70.87 27.398438 
L 70.87 20.398438 
L 50.87 20.398438 
z
" style="fill: #bdbdbd; fill-opacity: 0.5; stroke: #bdbdbd; stroke-width: 2.5; stroke-linejoin: miter"/>
    </g>
    <g id="text_13">
     <!-- Pre-trained ESM2 (8M) -->
     <g transform="translate(78.87 27.398438) scale(0.1 -0.1)">
      <defs>
       <path id="DejaVuSans-2d" d="M 313 2009 
L 1997 2009 
L 1997 1497 
L 313 1497 
L 313 2009 
z
" transform="scale(0.015625)"/>
       <path id="DejaVuSans-61" d="M 2194 1759 
Q 1497 1759 1228 1600 
Q 959 1441 959 1056 
Q 959 750 1161 570 
Q 1363 391 1709 391 
Q 2188 391 2477 730 
Q 2766 1069 2766 1631 
L 2766 1759 
L 2194 1759 
z
M 3341 1997 
L 3341 0 
L 2766 0 
L 2766 531 
Q 2569 213 2275 61 
Q 1981 -91 1556 -91 
Q 1019 -91 701 211 
Q 384 513 384 1019 
Q 384 1609 779 1909 
Q 1175 2209 1959 2209 
L 2766 2209 
L 2766 2266 
Q 2766 2663 2505 2880 
Q 2244 3097 1772 3097 
Q 1472 3097 1187 3025 
Q 903 2953 641 2809 
L 641 3341 
Q 956 3463 1253 3523 
Q 1550 3584 1831 3584 
Q 2591 3584 2966 3190 
Q 3341 2797 3341 1997 
z
" transform="scale(0.015625)"/>
       <path id="DejaVuSans-45" d="M 628 4666 
L 3578 4666 
L 3578 4134 
L 1259 4134 
L 1259 2753 
L 3481 2753 
L 3481 2222 
L 1259 2222 
L 1259 531 
L 3634 531 
L 3634 0 
L 628 0 
L 628 4666 
z
" transform="scale(0.015625)"/>
       <path id="DejaVuSans-53" d="M 3425 4513 
L 3425 3897 
Q 3066 4069 2747 4153 
Q 2428 4238 2131 4238 
Q 1616 4238 1336 4038 
Q 1056 3838 1056 3469 
Q 1056 3159 1242 3001 
Q 1428 2844 1947 2747 
L 2328 2669 
Q 3034 2534 3370 2195 
Q 3706 1856 3706 1288 
Q 3706 609 3251 259 
Q 2797 -91 1919 -91 
Q 1588 -91 1214 -16 
Q 841 59 441 206 
L 441 856 
Q 825 641 1194 531 
Q 1563 422 1919 422 
Q 2459 422 2753 634 
Q 3047 847 3047 1241 
Q 3047 1584 2836 1778 
Q 2625 1972 2144 2069 
L 1759 2144 
Q 1053 2284 737 2584 
Q 422 2884 422 3419 
Q 422 4038 858 4394 
Q 1294 4750 2059 4750 
Q 2388 4750 2728 4690 
Q 3069 4631 3425 4513 
z
" transform="scale(0.015625)"/>
       <path id="DejaVuSans-4d" d="M 628 4666 
L 1569 4666 
L 2759 1491 
L 3956 4666 
L 4897 4666 
L 4897 0 
L 4281 0 
L 4281 4097 
L 3078 897 
L 2444 897 
L 1241 4097 
L 1241 0 
L 628 0 
L 628 4666 
z
" transform="scale(0.015625)"/>
       <path id="DejaVuSans-28" d="M 1984 4856 
Q 1566 4138 1362 3434 
Q 1159 2731 1159 2009 
Q 1159 1288 1364 580 
Q 1569 -128 1984 -844 
L 1484 -844 
Q 1016 -109 783 600 
Q 550 1309 550 2009 
Q 550 2706 781 3412 
Q 1013 4119 1484 4856 
L 1984 4856 
z
" transform="scale(0.015625)"/>
       <path id="DejaVuSans-38" d="M 2034 2216 
Q 1584 2216 1326 1975 
Q 1069 1734 1069 1313 
Q 1069 891 1326 650 
Q 1584 409 2034 409 
Q 2484 409 2743 651 
Q 3003 894 3003 1313 
Q 3003 1734 2745 1975 
Q 2488 2216 2034 2216 
z
M 1403 2484 
Q 997 2584 770 2862 
Q 544 3141 544 3541 
Q 544 4100 942 4425 
Q 1341 4750 2034 4750 
Q 2731 4750 3128 4425 
Q 3525 4100 3525 3541 
Q 3525 3141 3298 2862 
Q 3072 2584 2669 2484 
Q 3125 2378 3379 2068 
Q 3634 1759 3634 1313 
Q 3634 634 3220 271 
Q 2806 -91 2034 -91 
Q 1263 -91 848 271 
Q 434 634 434 1313 
Q 434 1759 690 2068 
Q 947 2378 1403 2484 
z
M 1172 3481 
Q 1172 3119 1398 2916 
Q 1625 2713 2034 2713 
Q 2441 2713 2670 2916 
Q 2900 3119 2900 3481 
Q 2900 3844 2670 4047 
Q 2441 4250 2034 4250 
Q 1625 4250 1398 4047 
Q 1172 3844 1172 3481 
z
" transform="scale(0.015625)"/>
       <path id="DejaVuSans-29" d="M 513 4856 
L 1013 4856 
Q 1481 4119 1714 3412 
Q 1947 2706 1947 2009 
Q 1947 1309 1714 600 
Q 1481 -109 1013 -844 
L 513 -844 
Q 928 -128 1133 580 
Q 1338 1288 1338 2009 
Q 1338 2731 1133 3434 
Q 928 4138 513 4856 
z
" transform="scale(0.015625)"/>
      </defs>
      <use xlink:href="#DejaVuSans-50"/>
      <use xlink:href="#DejaVuSans-72" x="58.552734"/>
      <use xlink:href="#DejaVuSans-65" x="97.416016"/>
      <use xlink:href="#DejaVuSans-2d" x="158.939453"/>
      <use xlink:href="#DejaVuSans-74" x="195.023438"/>
      <use xlink:href="#DejaVuSans-72" x="234.232422"/>
      <use xlink:href="#DejaVuSans-61" x="275.345703"/>
      <use xlink:href="#DejaVuSans-69" x="336.625"/>
      <use xlink:href="#DejaVuSans-6e" x="364.408203"/>
      <use xlink:href="#DejaVuSans-65" x="427.787109"/>
      <use xlink:href="#DejaVuSans-64" x="489.310547"/>
      <use xlink:href="#DejaVuSans-20" x="552.787109"/>
      <use xlink:href="#DejaVuSans-45" x="584.574219"/>
      <use xlink:href="#DejaVuSans-53" x="647.757812"/>
      <use xlink:href="#DejaVuSans-4d" x="711.234375"/>
      <use xlink:href="#DejaVuSans-32" x="797.513672"/>
      <use xlink:href="#DejaVuSans-20" x="861.136719"/>
      <use xlink:href="#DejaVuSans-28" x="892.923828"/>
      <use xlink:href="#DejaVuSans-38" x="931.9375"/>
      <use xlink:href="#DejaVuSans-4d" x="995.560547"/>
      <use xlink:href="#DejaVuSans-29" x="1081.839844"/>
     </g>
    </g>
    <g id="patch_7">
     <path d="M 50.87 42.076563 
L 70.87 42.076563 
L 70.87 35.076563 
L 50.87 35.076563 
z
" style="fill: #92c5de; fill-opacity: 0.5; stroke: #92c5de; stroke-width: 2.5; stroke-linejoin: miter"/>
    </g>
    <g id="text_14">
     <!-- SFT ESM2 (8M) -->
     <g transform="translate(78.87 42.076563) scale(0.1 -0.1)">
      <defs>
       <path id="DejaVuSans-54" d="M -19 4666 
L 3928 4666 
L 3928 4134 
L 2272 4134 
L 2272 0 
L 1638 0 
L 1638 4134 
L -19 4134 
L -19 4666 
z
" transform="scale(0.015625)"/>
      </defs>
      <use xlink:href="#DejaVuSans-53"/>
      <use xlink:href="#DejaVuSans-46" x="63.476562"/>
      <use xlink:href="#DejaVuSans-54" x="119.246094"/>
      <use xlink:href="#DejaVuSans-20" x="180.330078"/>
      <use xlink:href="#DejaVuSans-45" x="212.117188"/>
      <use xlink:href="#DejaVuSans-53" x="275.300781"/>
      <use xlink:href="#DejaVuSans-4d" x="338.777344"/>
      <use xlink:href="#DejaVuSans-32" x="425.056641"/>
      <use xlink:href="#DejaVuSans-20" x="488.679688"/>
      <use xlink:href="#DejaVuSans-28" x="520.466797"/>
      <use xlink:href="#DejaVuSans-38" x="559.480469"/>
      <use xlink:href="#DejaVuSans-4d" x="623.103516"/>
      <use xlink:href="#DejaVuSans-29" x="709.382812"/>
     </g>
    </g>
    <g id="patch_8">
     <path d="M 50.87 56.754687 
L 70.87 56.754687 
L 70.87 49.754687 
L 50.87 49.754687 
z
" style="fill: #2166ac; fill-opacity: 0.5; stroke: #2166ac; stroke-width: 2.5; stroke-linejoin: miter"/>
    </g>
    <g id="text_15">
     <!-- Aligned ESM2 (8M) -->
     <g transform="translate(78.87 56.754687) scale(0.1 -0.1)">
      <defs>
       <path id="DejaVuSans-41" d="M 2188 4044 
L 1331 1722 
L 3047 1722 
L 2188 4044 
z
M 1831 4666 
L 2547 4666 
L 4325 0 
L 3669 0 
L 3244 1197 
L 1141 1197 
L 716 0 
L 50 0 
L 1831 4666 
z
" transform="scale(0.015625)"/>
       <path id="DejaVuSans-67" d="M 2906 1791 
Q 2906 2416 2648 2759 
Q 2391 3103 1925 3103 
Q 1463 3103 1205 2759 
Q 947 2416 947 1791 
Q 947 1169 1205 825 
Q 1463 481 1925 481 
Q 2391 481 2648 825 
Q 2906 1169 2906 1791 
z
M 3481 434 
Q 3481 -459 3084 -895 
Q 2688 -1331 1869 -1331 
Q 1566 -1331 1297 -1286 
Q 1028 -1241 775 -1147 
L 775 -588 
Q 1028 -725 1275 -790 
Q 1522 -856 1778 -856 
Q 2344 -856 2625 -561 
Q 2906 -266 2906 331 
L 2906 616 
Q 2728 306 2450 153 
Q 2172 0 1784 0 
Q 1141 0 747 490 
Q 353 981 353 1791 
Q 353 2603 747 3093 
Q 1141 3584 1784 3584 
Q 2172 3584 2450 3431 
Q 2728 3278 2906 2969 
L 2906 3500 
L 3481 3500 
L 3481 434 
z
" transform="scale(0.015625)"/>
      </defs>
      <use xlink:href="#DejaVuSans-41"/>
      <use xlink:href="#DejaVuSans-6c" x="68.408203"/>
      <use xlink:href="#DejaVuSans-69" x="96.191406"/>
      <use xlink:href="#DejaVuSans-67" x="123.974609"/>
      <use xlink:href="#DejaVuSans-6e" x="187.451172"/>
      <use xlink:href="#DejaVuSans-65" x="250.830078"/>
      <use xlink:href="#DejaVuSans-64" x="312.353516"/>
      <use xlink:href="#DejaVuSans-20" x="375.830078"/>
      <use xlink:href="#DejaVuSans-45" x="407.617188"/>
      <use xlink:href="#DejaVuSans-53" x="470.800781"/>
      <use xlink:href="#DejaVuSans-4d" x="534.277344"/>
      <use xlink:href="#DejaVuSans-32" x="620.556641"/>
      <use xlink:href="#DejaVuSans-20" x="684.179688"/>
      <use xlink:href="#DejaVuSans-28" x="715.966797"/>
      <use xlink:href="#DejaVuSans-38" x="754.980469"/>
      <use xlink:href="#DejaVuSans-4d" x="818.603516"/>
      <use xlink:href="#DejaVuSans-29" x="904.882812"/>
     </g>
    </g>
    <g id="line2d_12">
     <path d="M 50.87 67.932813 
L 60.87 67.932813 
L 70.87 67.932813 
" style="fill: none; stroke-dasharray: 3.7,1.6; stroke-dashoffset: 0; stroke: #000000"/>
    </g>
    <g id="text_16">
     <!-- Predicted avGFP score -->
     <g transform="translate(78.87 71.432813) scale(0.1 -0.1)">
      <defs>
       <path id="DejaVuSans-76" d="M 191 3500 
L 800 3500 
L 1894 563 
L 2988 3500 
L 3597 3500 
L 2284 0 
L 1503 0 
L 191 3500 
z
" transform="scale(0.015625)"/>
       <path id="DejaVuSans-47" d="M 3809 666 
L 3809 1919 
L 2778 1919 
L 2778 2438 
L 4434 2438 
L 4434 434 
Q 4069 175 3628 42 
Q 3188 -91 2688 -91 
Q 1594 -91 976 548 
Q 359 1188 359 2328 
Q 359 3472 976 4111 
Q 1594 4750 2688 4750 
Q 3144 4750 3555 4637 
Q 3966 4525 4313 4306 
L 4313 3634 
Q 3963 3931 3569 4081 
Q 3175 4231 2741 4231 
Q 1884 4231 1454 3753 
Q 1025 3275 1025 2328 
Q 1025 1384 1454 906 
Q 1884 428 2741 428 
Q 3075 428 3337 486 
Q 3600 544 3809 666 
z
" transform="scale(0.015625)"/>
      </defs>
      <use xlink:href="#DejaVuSans-50"/>
      <use xlink:href="#DejaVuSans-72" x="58.552734"/>
      <use xlink:href="#DejaVuSans-65" x="97.416016"/>
      <use xlink:href="#DejaVuSans-64" x="158.939453"/>
      <use xlink:href="#DejaVuSans-69" x="222.416016"/>
      <use xlink:href="#DejaVuSans-63" x="250.199219"/>
      <use xlink:href="#DejaVuSans-74" x="305.179688"/>
      <use xlink:href="#DejaVuSans-65" x="344.388672"/>
      <use xlink:href="#DejaVuSans-64" x="405.912109"/>
      <use xlink:href="#DejaVuSans-20" x="469.388672"/>
      <use xlink:href="#DejaVuSans-61" x="501.175781"/>
      <use xlink:href="#DejaVuSans-76" x="562.455078"/>
      <use xlink:href="#DejaVuSans-47" x="621.634766"/>
      <use xlink:href="#DejaVuSans-46" x="699.125"/>
      <use xlink:href="#DejaVuSans-50" x="756.644531"/>
      <use xlink:href="#DejaVuSans-20" x="816.947266"/>
      <use xlink:href="#DejaVuSans-73" x="848.734375"/>
      <use xlink:href="#DejaVuSans-63" x="900.833984"/>
      <use xlink:href="#DejaVuSans-6f" x="955.814453"/>
      <use xlink:href="#DejaVuSans-72" x="1016.996094"/>
      <use xlink:href="#DejaVuSans-65" x="1055.859375"/>
     </g>
    </g>
   </g>
  </g>
 </g>
 <defs>
  <clipPath id="p7df5f65798">
   <rect x="41.87" y="10.8" width="379.33" height="378.52"/>
  </clipPath>
 </defs>
</svg>
