<?xml version="1.0" encoding="utf-8" standalone="no"?>
<!DOCTYPE svg PUBLIC "-//W3C//DTD SVG 1.1//EN"
  "http://www.w3.org/Graphics/SVG/1.1/DTD/svg11.dtd">
<svg xmlns:xlink="http://www.w3.org/1999/xlink" width="432pt" height="432pt" viewBox="0 0 432 432" xmlns="http://www.w3.org/2000/svg" version="1.1">
 <metadata>
  <rdf:RDF xmlns:dc="http://purl.org/dc/elements/1.1/" xmlns:cc="http://creativecommons.org/ns#" xmlns:rdf="http://www.w3.org/1999/02/22-rdf-syntax-ns#">
   <cc:Work>
    <dc:type rdf:resource="http://purl.org/dc/dcmitype/StillImage"/>
    <dc:date>2025-04-03T10:58:07.450097</dc:date>
    <dc:format>image/svg+xml</dc:format>
    <dc:creator>
     <cc:Agent>
      <dc:title>Matplotlib v3.8.0, https://matplotlib.org/</dc:title>
     </cc:Agent>
    </dc:creator>
   </cc:Work>
  </rdf:RDF>
 </metadata>
 <defs>
  <style type="text/css">*{stroke-linejoin: round; stroke-linecap: butt}</style>
 </defs>
 <g id="figure_1">
  <g id="patch_1">
   <path d="M 0 432 
L 432 432 
L 432 0 
L 0 0 
z
" style="fill: #ffffff"/>
  </g>
  <g id="axes_1">
   <g id="patch_2">
    <path d="M 51.41 389.32 
L 419.281878 389.32 
L 419.281878 10.8 
L 51.41 10.8 
z
" style="fill: #ffffff"/>
   </g>
   <g id="PolyCollection_1">
    <defs>
     <path id="m2e6813689a" d="M 68.131449 -42.703848 
L 68.131449 -42.68 
L 69.398809 -42.68 
L 70.666168 -42.68 
L 71.933528 -42.68 
L 73.200887 -42.68 
L 74.468247 -42.68 
L 75.735606 -42.68 
L 77.002966 -42.68 
L 78.270325 -42.68 
L 79.537685 -42.68 
L 80.805044 -42.68 
L 82.072404 -42.68 
L 83.339763 -42.68 
L 84.607123 -42.68 
L 85.874482 -42.68 
L 87.141842 -42.68 
L 88.409201 -42.68 
L 89.676561 -42.68 
L 90.94392 -42.68 
L 92.21128 -42.68 
L 93.478639 -42.68 
L 94.745999 -42.68 
L 96.013358 -42.68 
L 97.280718 -42.68 
L 98.548077 -42.68 
L 99.815437 -42.68 
L 101.082796 -42.68 
L 102.350156 -42.68 
L 103.617516 -42.68 
L 104.884875 -42.68 
L 106.152235 -42.68 
L 107.419594 -42.68 
L 108.686954 -42.68 
L 109.954313 -42.68 
L 111.221673 -42.68 
L 112.489032 -42.68 
L 113.756392 -42.68 
L 115.023751 -42.68 
L 116.291111 -42.68 
L 117.55847 -42.68 
L 118.82583 -42.68 
L 120.093189 -42.68 
L 121.360549 -42.68 
L 122.627908 -42.68 
L 123.895268 -42.68 
L 125.162627 -42.68 
L 126.429987 -42.68 
L 127.697346 -42.68 
L 128.964706 -42.68 
L 130.232065 -42.68 
L 131.499425 -42.68 
L 132.766784 -42.68 
L 134.034144 -42.68 
L 135.301503 -42.68 
L 136.568863 -42.68 
L 137.836222 -42.68 
L 139.103582 -42.68 
L 140.370942 -42.68 
L 141.638301 -42.68 
L 142.905661 -42.68 
L 144.17302 -42.68 
L 145.44038 -42.68 
L 146.707739 -42.68 
L 147.975099 -42.68 
L 149.242458 -42.68 
L 150.509818 -42.68 
L 151.777177 -42.68 
L 153.044537 -42.68 
L 154.311896 -42.68 
L 155.579256 -42.68 
L 156.846615 -42.68 
L 158.113975 -42.68 
L 159.381334 -42.68 
L 160.648694 -42.68 
L 161.916053 -42.68 
L 163.183413 -42.68 
L 164.450772 -42.68 
L 165.718132 -42.68 
L 166.985491 -42.68 
L 168.252851 -42.68 
L 169.52021 -42.68 
L 170.78757 -42.68 
L 172.054929 -42.68 
L 173.322289 -42.68 
L 174.589648 -42.68 
L 175.857008 -42.68 
L 177.124368 -42.68 
L 178.391727 -42.68 
L 179.659087 -42.68 
L 180.926446 -42.68 
L 182.193806 -42.68 
L 183.461165 -42.68 
L 184.728525 -42.68 
L 185.995884 -42.68 
L 187.263244 -42.68 
L 188.530603 -42.68 
L 189.797963 -42.68 
L 191.065322 -42.68 
L 192.332682 -42.68 
L 193.600041 -42.68 
L 194.867401 -42.68 
L 196.13476 -42.68 
L 197.40212 -42.68 
L 198.669479 -42.68 
L 199.936839 -42.68 
L 201.204198 -42.68 
L 202.471558 -42.68 
L 203.738917 -42.68 
L 205.006277 -42.68 
L 206.273636 -42.68 
L 207.540996 -42.68 
L 208.808355 -42.68 
L 210.075715 -42.68 
L 211.343074 -42.68 
L 212.610434 -42.68 
L 213.877794 -42.68 
L 215.145153 -42.68 
L 216.412513 -42.68 
L 217.679872 -42.68 
L 218.947232 -42.68 
L 220.214591 -42.68 
L 221.481951 -42.68 
L 222.74931 -42.68 
L 224.01667 -42.68 
L 225.284029 -42.68 
L 226.551389 -42.68 
L 227.818748 -42.68 
L 229.086108 -42.68 
L 230.353467 -42.68 
L 231.620827 -42.68 
L 232.888186 -42.68 
L 234.155546 -42.68 
L 235.422905 -42.68 
L 236.690265 -42.68 
L 237.957624 -42.68 
L 239.224984 -42.68 
L 240.492343 -42.68 
L 241.759703 -42.68 
L 243.027062 -42.68 
L 244.294422 -42.68 
L 245.561781 -42.68 
L 246.829141 -42.68 
L 248.096501 -42.68 
L 249.36386 -42.68 
L 250.63122 -42.68 
L 251.898579 -42.68 
L 253.165939 -42.68 
L 254.433298 -42.68 
L 255.700658 -42.68 
L 256.968017 -42.68 
L 258.235377 -42.68 
L 259.502736 -42.68 
L 260.770096 -42.68 
L 262.037455 -42.68 
L 263.304815 -42.68 
L 264.572174 -42.68 
L 265.839534 -42.68 
L 267.106893 -42.68 
L 268.374253 -42.68 
L 269.641612 -42.68 
L 270.908972 -42.68 
L 272.176331 -42.68 
L 273.443691 -42.68 
L 274.71105 -42.68 
L 275.97841 -42.68 
L 277.245769 -42.68 
L 278.513129 -42.68 
L 279.780488 -42.68 
L 281.047848 -42.68 
L 282.315207 -42.68 
L 283.582567 -42.68 
L 284.849927 -42.68 
L 286.117286 -42.68 
L 287.384646 -42.68 
L 288.652005 -42.68 
L 289.919365 -42.68 
L 291.186724 -42.68 
L 292.454084 -42.68 
L 293.721443 -42.68 
L 294.988803 -42.68 
L 296.256162 -42.68 
L 297.523522 -42.68 
L 298.790881 -42.68 
L 300.058241 -42.68 
L 301.3256 -42.68 
L 302.59296 -42.68 
L 303.860319 -42.68 
L 305.127679 -42.68 
L 306.395038 -42.68 
L 307.662398 -42.68 
L 308.929757 -42.68 
L 310.197117 -42.68 
L 311.464476 -42.68 
L 312.731836 -42.68 
L 313.999195 -42.68 
L 315.266555 -42.68 
L 316.533914 -42.68 
L 317.801274 -42.68 
L 319.068633 -42.68 
L 320.335993 -42.68 
L 320.335993 -42.692114 
L 320.335993 -42.692114 
L 319.068633 -42.699101 
L 317.801274 -42.709449 
L 316.533914 -42.724407 
L 315.266555 -42.745502 
L 313.999195 -42.774535 
L 312.731836 -42.813527 
L 311.464476 -42.864632 
L 310.197117 -42.930003 
L 308.929757 -43.011617 
L 307.662398 -43.111074 
L 306.395038 -43.22938 
L 305.127679 -43.366751 
L 303.860319 -43.522444 
L 302.59296 -43.694657 
L 301.3256 -43.880491 
L 300.058241 -44.076009 
L 298.790881 -44.276365 
L 297.523522 -44.476009 
L 296.256162 -44.668965 
L 294.988803 -44.849155 
L 293.721443 -45.010778 
L 292.454084 -45.148739 
L 291.186724 -45.259126 
L 289.919365 -45.339728 
L 288.652005 -45.390582 
L 287.384646 -45.414516 
L 286.117286 -45.417643 
L 284.849927 -45.409744 
L 283.582567 -45.404484 
L 282.315207 -45.419389 
L 281.047848 -45.475558 
L 279.780488 -45.597071 
L 278.513129 -45.810117 
L 277.245769 -46.141872 
L 275.97841 -46.619189 
L 274.71105 -47.267183 
L 273.443691 -48.1078 
L 272.176331 -49.158474 
L 270.908972 -50.430952 
L 269.641612 -51.930384 
L 268.374253 -53.654749 
L 267.106893 -55.594675 
L 265.839534 -57.733686 
L 264.572174 -60.048903 
L 263.304815 -62.512168 
L 262.037455 -65.091556 
L 260.770096 -67.753197 
L 259.502736 -70.463292 
L 258.235377 -73.190223 
L 256.968017 -75.906608 
L 255.700658 -78.591196 
L 254.433298 -81.230483 
L 253.165939 -83.819993 
L 251.898579 -86.365154 
L 250.63122 -88.881749 
L 249.36386 -91.395914 
L 248.096501 -93.943653 
L 246.829141 -96.569848 
L 245.561781 -99.326739 
L 244.294422 -102.271871 
L 243.027062 -105.465532 
L 241.759703 -108.967804 
L 240.492343 -112.835354 
L 239.224984 -117.118196 
L 237.957624 -121.856611 
L 236.690265 -127.078427 
L 235.422905 -132.796784 
L 234.155546 -139.008395 
L 232.888186 -145.692311 
L 231.620827 -152.809122 
L 230.353467 -160.300592 
L 229.086108 -168.089813 
L 227.818748 -176.082088 
L 226.551389 -184.16681 
L 225.284029 -192.220679 
L 224.01667 -200.112439 
L 222.74931 -207.709176 
L 221.481951 -214.883895 
L 220.214591 -221.5238 
L 218.947232 -227.538443 
L 217.679872 -232.866776 
L 216.412513 -237.482166 
L 215.145153 -241.394629 
L 213.877794 -244.649885 
L 212.610434 -247.32526 
L 211.343074 -249.522871 
L 210.075715 -251.360924 
L 208.808355 -252.964127 
L 207.540996 -254.45435 
L 206.273636 -255.942514 
L 205.006277 -257.522471 
L 203.738917 -259.267265 
L 202.471558 -261.227802 
L 201.204198 -263.433547 
L 199.936839 -265.894635 
L 198.669479 -268.604612 
L 197.40212 -271.543067 
L 196.13476 -274.677586 
L 194.867401 -277.964756 
L 193.600041 -281.350297 
L 192.332682 -284.76868 
L 191.065322 -288.142849 
L 189.797963 -291.384681 
L 188.530603 -294.396737 
L 187.263244 -297.075588 
L 185.995884 -299.31668 
L 184.728525 -301.020284 
L 183.461165 -302.097845 
L 182.193806 -302.47781 
L 180.926446 -302.110089 
L 179.659087 -300.96847 
L 178.391727 -299.050669 
L 177.124368 -296.376141 
L 175.857008 -292.982171 
L 174.589648 -288.919059 
L 173.322289 -284.245352 
L 172.054929 -279.023931 
L 170.78757 -273.319509 
L 169.52021 -267.197676 
L 168.252851 -260.725199 
L 166.985491 -253.970977 
L 165.718132 -247.006896 
L 164.450772 -239.907881 
L 163.183413 -232.750688 
L 161.916053 -225.611353 
L 160.648694 -218.56156 
L 159.381334 -211.66453 
L 158.113975 -204.971167 
L 156.846615 -198.517162 
L 155.579256 -192.321595 
L 154.311896 -186.387295 
L 153.044537 -180.702869 
L 151.777177 -175.246091 
L 150.509818 -169.988119 
L 149.242458 -164.897967 
L 147.975099 -159.946687 
L 146.707739 -155.110816 
L 145.44038 -150.374808 
L 144.17302 -145.732303 
L 142.905661 -141.186215 
L 141.638301 -136.747729 
L 140.370942 -132.434359 
L 139.103582 -128.267296 
L 137.836222 -124.268292 
L 136.568863 -120.456434 
L 135.301503 -116.845143 
L 134.034144 -113.439783 
L 132.766784 -110.236228 
L 131.499425 -107.220626 
L 130.232065 -104.370487 
L 128.964706 -101.65698 
L 127.697346 -99.048156 
L 126.429987 -96.512618 
L 125.162627 -94.02305 
L 123.895268 -91.559045 
L 122.627908 -89.108771 
L 121.360549 -86.669268 
L 120.093189 -84.245395 
L 118.82583 -81.84774 
L 117.55847 -79.489986 
L 116.291111 -77.186268 
L 115.023751 -74.949038 
L 113.756392 -72.787753 
L 112.489032 -70.708498 
L 111.221673 -68.714408 
L 109.954313 -66.806606 
L 108.686954 -64.985269 
L 107.419594 -63.250501 
L 106.152235 -61.602766 
L 104.884875 -60.042823 
L 103.617516 -58.571249 
L 102.350156 -57.187772 
L 101.082796 -55.890645 
L 99.815437 -54.676304 
L 98.548077 -53.539436 
L 97.280718 -52.473474 
L 96.013358 -51.471425 
L 94.745999 -50.526837 
L 93.478639 -49.634696 
L 92.21128 -48.792071 
L 90.94392 -47.998351 
L 89.676561 -47.255073 
L 88.409201 -46.565359 
L 87.141842 -45.933112 
L 85.874482 -45.362116 
L 84.607123 -44.855205 
L 83.339763 -44.41364 
L 82.072404 -44.03675 
L 80.805044 -43.721886 
L 79.537685 -43.464623 
L 78.270325 -43.259167 
L 77.002966 -43.098853 
L 75.735606 -42.976672 
L 74.468247 -42.885739 
L 73.200887 -42.819659 
L 71.933528 -42.772775 
L 70.666168 -42.740302 
L 69.398809 -42.718343 
L 68.131449 -42.703848 
z
" style="stroke: #bdbdbd; stroke-width: 2.5"/>
    </defs>
    <g clip-path="url(#pf4d80097db)">
     <use xlink:href="#m2e6813689a" x="0" y="432" style="fill: #bdbdbd; fill-opacity: 0.5; stroke: #bdbdbd; stroke-width: 2.5"/>
    </g>
   </g>
   <g id="PolyCollection_2">
    <defs>
     <path id="m6fe82b100b" d="M 174.196315 -42.694828 
L 174.196315 -42.68 
L 175.343873 -42.68 
L 176.491432 -42.68 
L 177.63899 -42.68 
L 178.786548 -42.68 
L 179.934107 -42.68 
L 181.081665 -42.68 
L 182.229223 -42.68 
L 183.376782 -42.68 
L 184.52434 -42.68 
L 185.671899 -42.68 
L 186.819457 -42.68 
L 187.967015 -42.68 
L 189.114574 -42.68 
L 190.262132 -42.68 
L 191.40969 -42.68 
L 192.557249 -42.68 
L 193.704807 -42.68 
L 194.852365 -42.68 
L 195.999924 -42.68 
L 197.147482 -42.68 
L 198.295041 -42.68 
L 199.442599 -42.68 
L 200.590157 -42.68 
L 201.737716 -42.68 
L 202.885274 -42.68 
L 204.032832 -42.68 
L 205.180391 -42.68 
L 206.327949 -42.68 
L 207.475507 -42.68 
L 208.623066 -42.68 
L 209.770624 -42.68 
L 210.918183 -42.68 
L 212.065741 -42.68 
L 213.213299 -42.68 
L 214.360858 -42.68 
L 215.508416 -42.68 
L 216.655974 -42.68 
L 217.803533 -42.68 
L 218.951091 -42.68 
L 220.098649 -42.68 
L 221.246208 -42.68 
L 222.393766 -42.68 
L 223.541325 -42.68 
L 224.688883 -42.68 
L 225.836441 -42.68 
L 226.984 -42.68 
L 228.131558 -42.68 
L 229.279116 -42.68 
L 230.426675 -42.68 
L 231.574233 -42.68 
L 232.721791 -42.68 
L 233.86935 -42.68 
L 235.016908 -42.68 
L 236.164467 -42.68 
L 237.312025 -42.68 
L 238.459583 -42.68 
L 239.607142 -42.68 
L 240.7547 -42.68 
L 241.902258 -42.68 
L 243.049817 -42.68 
L 244.197375 -42.68 
L 245.344933 -42.68 
L 246.492492 -42.68 
L 247.64005 -42.68 
L 248.787609 -42.68 
L 249.935167 -42.68 
L 251.082725 -42.68 
L 252.230284 -42.68 
L 253.377842 -42.68 
L 254.5254 -42.68 
L 255.672959 -42.68 
L 256.820517 -42.68 
L 257.968075 -42.68 
L 259.115634 -42.68 
L 260.263192 -42.68 
L 261.410751 -42.68 
L 262.558309 -42.68 
L 263.705867 -42.68 
L 264.853426 -42.68 
L 266.000984 -42.68 
L 267.148542 -42.68 
L 268.296101 -42.68 
L 269.443659 -42.68 
L 270.591217 -42.68 
L 271.738776 -42.68 
L 272.886334 -42.68 
L 274.033893 -42.68 
L 275.181451 -42.68 
L 276.329009 -42.68 
L 277.476568 -42.68 
L 278.624126 -42.68 
L 279.771684 -42.68 
L 280.919243 -42.68 
L 282.066801 -42.68 
L 283.214359 -42.68 
L 284.361918 -42.68 
L 285.509476 -42.68 
L 286.657035 -42.68 
L 287.804593 -42.68 
L 288.952151 -42.68 
L 290.09971 -42.68 
L 291.247268 -42.68 
L 292.394826 -42.68 
L 293.542385 -42.68 
L 294.689943 -42.68 
L 295.837501 -42.68 
L 296.98506 -42.68 
L 298.132618 -42.68 
L 299.280177 -42.68 
L 300.427735 -42.68 
L 301.575293 -42.68 
L 302.722852 -42.68 
L 303.87041 -42.68 
L 305.017968 -42.68 
L 306.165527 -42.68 
L 307.313085 -42.68 
L 308.460643 -42.68 
L 309.608202 -42.68 
L 310.75576 -42.68 
L 311.903319 -42.68 
L 313.050877 -42.68 
L 314.198435 -42.68 
L 315.345994 -42.68 
L 316.493552 -42.68 
L 317.64111 -42.68 
L 318.788669 -42.68 
L 319.936227 -42.68 
L 321.083785 -42.68 
L 322.231344 -42.68 
L 323.378902 -42.68 
L 324.526461 -42.68 
L 325.674019 -42.68 
L 326.821577 -42.68 
L 327.969136 -42.68 
L 329.116694 -42.68 
L 330.264252 -42.68 
L 331.411811 -42.68 
L 332.559369 -42.68 
L 333.706927 -42.68 
L 334.854486 -42.68 
L 336.002044 -42.68 
L 337.149603 -42.68 
L 338.297161 -42.68 
L 339.444719 -42.68 
L 340.592278 -42.68 
L 341.739836 -42.68 
L 342.887394 -42.68 
L 344.034953 -42.68 
L 345.182511 -42.68 
L 346.330069 -42.68 
L 347.477628 -42.68 
L 348.625186 -42.68 
L 349.772745 -42.68 
L 350.920303 -42.68 
L 352.067861 -42.68 
L 353.21542 -42.68 
L 354.362978 -42.68 
L 355.510536 -42.68 
L 356.658095 -42.68 
L 357.805653 -42.68 
L 358.953212 -42.68 
L 360.10077 -42.68 
L 361.248328 -42.68 
L 362.395887 -42.68 
L 363.543445 -42.68 
L 364.691003 -42.68 
L 365.838562 -42.68 
L 366.98612 -42.68 
L 368.133678 -42.68 
L 369.281237 -42.68 
L 370.428795 -42.68 
L 371.576354 -42.68 
L 372.723912 -42.68 
L 373.87147 -42.68 
L 375.019029 -42.68 
L 376.166587 -42.68 
L 377.314145 -42.68 
L 378.461704 -42.68 
L 379.609262 -42.68 
L 380.75682 -42.68 
L 381.904379 -42.68 
L 383.051937 -42.68 
L 384.199496 -42.68 
L 385.347054 -42.68 
L 386.494612 -42.68 
L 387.642171 -42.68 
L 388.789729 -42.68 
L 389.937287 -42.68 
L 391.084846 -42.68 
L 392.232404 -42.68 
L 393.379962 -42.68 
L 394.527521 -42.68 
L 395.675079 -42.68 
L 396.822638 -42.68 
L 397.970196 -42.68 
L 399.117754 -42.68 
L 400.265313 -42.68 
L 401.412871 -42.68 
L 402.560429 -42.68 
L 402.560429 -42.694865 
L 402.560429 -42.694865 
L 401.412871 -42.704968 
L 400.265313 -42.720647 
L 399.117754 -42.744139 
L 397.970196 -42.778112 
L 396.822638 -42.825516 
L 395.675079 -42.889312 
L 394.527521 -42.972088 
L 393.379962 -43.0756 
L 392.232404 -43.200322 
L 391.084846 -43.345109 
L 389.937287 -43.507092 
L 388.789729 -43.681911 
L 387.642171 -43.864302 
L 386.494612 -44.048995 
L 385.347054 -44.231784 
L 384.199496 -44.410532 
L 383.051937 -44.585891 
L 381.904379 -44.761538 
L 380.75682 -44.943822 
L 379.609262 -45.140871 
L 378.461704 -45.361338 
L 377.314145 -45.613046 
L 376.166587 -45.901835 
L 375.019029 -46.230844 
L 373.87147 -46.600393 
L 372.723912 -47.00847 
L 371.576354 -47.45174 
L 370.428795 -47.926921 
L 369.281237 -48.432313 
L 368.133678 -48.969325 
L 366.98612 -49.543831 
L 365.838562 -50.167247 
L 364.691003 -50.857216 
L 363.543445 -51.637804 
L 362.395887 -52.539087 
L 361.248328 -53.596017 
L 360.10077 -54.846506 
L 358.953212 -56.328753 
L 357.805653 -58.077932 
L 356.658095 -60.122585 
L 355.510536 -62.481133 
L 354.362978 -65.159096 
L 353.21542 -68.14761 
L 352.067861 -71.423765 
L 350.920303 -74.9531 
L 349.772745 -78.694276 
L 348.625186 -82.605528 
L 347.477628 -86.652056 
L 346.330069 -90.813094 
L 345.182511 -95.087181 
L 344.034953 -99.494145 
L 342.887394 -104.072742 
L 341.739836 -108.87363 
L 340.592278 -113.948409 
L 339.444719 -119.336514 
L 338.297161 -125.052664 
L 337.149603 -131.077848 
L 336.002044 -137.356521 
L 334.854486 -143.801518 
L 333.706927 -150.306632 
L 332.559369 -156.764972 
L 331.411811 -163.089812 
L 330.264252 -169.233851 
L 329.116694 -175.202991 
L 327.969136 -181.061727 
L 326.821577 -186.928871 
L 325.674019 -192.964075 
L 324.526461 -199.347198 
L 323.378902 -206.253575 
L 322.231344 -213.828713 
L 321.083785 -222.165786 
L 319.936227 -231.288805 
L 318.788669 -241.143542 
L 317.64111 -251.59738 
L 316.493552 -262.448313 
L 315.345994 -273.442283 
L 314.198435 -284.297076 
L 313.050877 -294.730092 
L 311.903319 -304.486721 
L 310.75576 -313.365773 
L 309.608202 -321.2387 
L 308.460643 -328.06006 
L 307.313085 -333.867804 
L 306.165527 -338.773343 
L 305.017968 -342.942674 
L 303.87041 -346.571105 
L 302.722852 -349.854933 
L 301.575293 -352.963932 
L 300.427735 -356.018403 
L 299.280177 -359.073989 
L 298.132618 -362.116363 
L 296.98506 -365.066445 
L 295.837501 -367.795144 
L 294.689943 -370.145069 
L 293.542385 -371.955476 
L 292.394826 -373.086161 
L 291.247268 -373.436282 
L 290.09971 -372.955055 
L 288.952151 -371.642919 
L 287.804593 -369.543571 
L 286.657035 -366.729059 
L 285.509476 -363.281321 
L 284.361918 -359.27408 
L 283.214359 -354.75862 
L 282.066801 -349.755912 
L 280.919243 -344.25602 
L 279.771684 -338.224224 
L 278.624126 -331.612043 
L 277.476568 -324.370741 
L 276.329009 -316.464827 
L 275.181451 -307.883477 
L 274.033893 -298.648422 
L 272.886334 -288.817473 
L 271.738776 -278.483409 
L 270.591217 -267.768389 
L 269.443659 -256.814556 
L 268.296101 -245.771988 
L 267.148542 -234.785733 
L 266.000984 -223.983952 
L 264.853426 -213.469216 
L 263.705867 -203.314429 
L 262.558309 -193.563855 
L 261.410751 -184.238527 
L 260.263192 -175.344249 
L 259.115634 -166.879856 
L 257.968075 -158.843565 
L 256.820517 -151.23602 
L 255.672959 -144.059853 
L 254.5254 -137.316693 
L 253.377842 -131.003328 
L 252.230284 -125.108791 
L 251.082725 -119.613654 
L 249.935167 -114.491878 
L 248.787609 -109.714594 
L 247.64005 -105.254532 
L 246.492492 -101.089604 
L 245.344933 -97.204498 
L 244.197375 -93.589838 
L 243.049817 -90.239246 
L 241.902258 -87.145284 
L 240.7547 -84.295492 
L 239.607142 -81.669655 
L 238.459583 -79.239001 
L 237.312025 -76.967453 
L 236.164467 -74.814612 
L 235.016908 -72.739761 
L 233.86935 -70.706108 
L 232.721791 -68.684555 
L 231.574233 -66.656479 
L 230.426675 -64.615232 
L 229.279116 -62.566262 
L 228.131558 -60.525925 
L 226.984 -58.51917 
L 225.836441 -56.576369 
L 224.688883 -54.729699 
L 223.541325 -53.009524 
L 222.393766 -51.441254 
L 221.246208 -50.043098 
L 220.098649 -48.82494 
L 218.951091 -47.788378 
L 217.803533 -46.927703 
L 216.655974 -46.231465 
L 215.508416 -45.684213 
L 214.360858 -45.268055 
L 213.213299 -44.963878 
L 212.065741 -44.752201 
L 210.918183 -44.613817 
L 209.770624 -44.530388 
L 208.623066 -44.485115 
L 207.475507 -44.463501 
L 206.327949 -44.45406 
L 205.180391 -44.448783 
L 204.032832 -44.44315 
L 202.885274 -44.4356 
L 201.737716 -44.426492 
L 200.590157 -44.416788 
L 199.442599 -44.406767 
L 198.295041 -44.395099 
L 197.147482 -44.378522 
L 195.999924 -44.352202 
L 194.852365 -44.310662 
L 193.704807 -44.249022 
L 192.557249 -44.164201 
L 191.40969 -44.055778 
L 190.262132 -43.926295 
L 189.114574 -43.780953 
L 187.967015 -43.626807 
L 186.819457 -43.471669 
L 185.671899 -43.322986 
L 184.52434 -43.186909 
L 183.376782 -43.067708 
L 182.229223 -42.967584 
L 181.081665 -42.88682 
L 179.934107 -42.824179 
L 178.786548 -42.777417 
L 177.63899 -42.743789 
L 176.491432 -42.720477 
L 175.343873 -42.704888 
L 174.196315 -42.694828 
z
" style="stroke: #92c5de; stroke-width: 2.5"/>
    </defs>
    <g clip-path="url(#pf4d80097db)">
     <use xlink:href="#m6fe82b100b" x="0" y="432" style="fill: #92c5de; fill-opacity: 0.5; stroke: #92c5de; stroke-width: 2.5"/>
    </g>
   </g>
   <g id="PolyCollection_3">
    <defs>
     <path id="mb19d111f4f" d="M 192.931423 -42.70024 
L 192.931423 -42.68 
L 193.969523 -42.68 
L 195.007623 -42.68 
L 196.045723 -42.68 
L 197.083823 -42.68 
L 198.121922 -42.68 
L 199.160022 -42.68 
L 200.198122 -42.68 
L 201.236222 -42.68 
L 202.274322 -42.68 
L 203.312422 -42.68 
L 204.350522 -42.68 
L 205.388622 -42.68 
L 206.426722 -42.68 
L 207.464822 -42.68 
L 208.502922 -42.68 
L 209.541022 -42.68 
L 210.579122 -42.68 
L 211.617222 -42.68 
L 212.655322 -42.68 
L 213.693422 -42.68 
L 214.731522 -42.68 
L 215.769622 -42.68 
L 216.807722 -42.68 
L 217.845822 -42.68 
L 218.883922 -42.68 
L 219.922021 -42.68 
L 220.960121 -42.68 
L 221.998221 -42.68 
L 223.036321 -42.68 
L 224.074421 -42.68 
L 225.112521 -42.68 
L 226.150621 -42.68 
L 227.188721 -42.68 
L 228.226821 -42.68 
L 229.264921 -42.68 
L 230.303021 -42.68 
L 231.341121 -42.68 
L 232.379221 -42.68 
L 233.417321 -42.68 
L 234.455421 -42.68 
L 235.493521 -42.68 
L 236.531621 -42.68 
L 237.569721 -42.68 
L 238.607821 -42.68 
L 239.645921 -42.68 
L 240.68402 -42.68 
L 241.72212 -42.68 
L 242.76022 -42.68 
L 243.79832 -42.68 
L 244.83642 -42.68 
L 245.87452 -42.68 
L 246.91262 -42.68 
L 247.95072 -42.68 
L 248.98882 -42.68 
L 250.02692 -42.68 
L 251.06502 -42.68 
L 252.10312 -42.68 
L 253.14122 -42.68 
L 254.17932 -42.68 
L 255.21742 -42.68 
L 256.25552 -42.68 
L 257.29362 -42.68 
L 258.33172 -42.68 
L 259.36982 -42.68 
L 260.40792 -42.68 
L 261.44602 -42.68 
L 262.484119 -42.68 
L 263.522219 -42.68 
L 264.560319 -42.68 
L 265.598419 -42.68 
L 266.636519 -42.68 
L 267.674619 -42.68 
L 268.712719 -42.68 
L 269.750819 -42.68 
L 270.788919 -42.68 
L 271.827019 -42.68 
L 272.865119 -42.68 
L 273.903219 -42.68 
L 274.941319 -42.68 
L 275.979419 -42.68 
L 277.017519 -42.68 
L 278.055619 -42.68 
L 279.093719 -42.68 
L 280.131819 -42.68 
L 281.169919 -42.68 
L 282.208019 -42.68 
L 283.246119 -42.68 
L 284.284218 -42.68 
L 285.322318 -42.68 
L 286.360418 -42.68 
L 287.398518 -42.68 
L 288.436618 -42.68 
L 289.474718 -42.68 
L 290.512818 -42.68 
L 291.550918 -42.68 
L 292.589018 -42.68 
L 293.627118 -42.68 
L 294.665218 -42.68 
L 295.703318 -42.68 
L 296.741418 -42.68 
L 297.779518 -42.68 
L 298.817618 -42.68 
L 299.855718 -42.68 
L 300.893818 -42.68 
L 301.931918 -42.68 
L 302.970018 -42.68 
L 304.008118 -42.68 
L 305.046217 -42.68 
L 306.084317 -42.68 
L 307.122417 -42.68 
L 308.160517 -42.68 
L 309.198617 -42.68 
L 310.236717 -42.68 
L 311.274817 -42.68 
L 312.312917 -42.68 
L 313.351017 -42.68 
L 314.389117 -42.68 
L 315.427217 -42.68 
L 316.465317 -42.68 
L 317.503417 -42.68 
L 318.541517 -42.68 
L 319.579617 -42.68 
L 320.617717 -42.68 
L 321.655817 -42.68 
L 322.693917 -42.68 
L 323.732017 -42.68 
L 324.770117 -42.68 
L 325.808217 -42.68 
L 326.846316 -42.68 
L 327.884416 -42.68 
L 328.922516 -42.68 
L 329.960616 -42.68 
L 330.998716 -42.68 
L 332.036816 -42.68 
L 333.074916 -42.68 
L 334.113016 -42.68 
L 335.151116 -42.68 
L 336.189216 -42.68 
L 337.227316 -42.68 
L 338.265416 -42.68 
L 339.303516 -42.68 
L 340.341616 -42.68 
L 341.379716 -42.68 
L 342.417816 -42.68 
L 343.455916 -42.68 
L 344.494016 -42.68 
L 345.532116 -42.68 
L 346.570216 -42.68 
L 347.608316 -42.68 
L 348.646415 -42.68 
L 349.684515 -42.68 
L 350.722615 -42.68 
L 351.760715 -42.68 
L 352.798815 -42.68 
L 353.836915 -42.68 
L 354.875015 -42.68 
L 355.913115 -42.68 
L 356.951215 -42.68 
L 357.989315 -42.68 
L 359.027415 -42.68 
L 360.065515 -42.68 
L 361.103615 -42.68 
L 362.141715 -42.68 
L 363.179815 -42.68 
L 364.217915 -42.68 
L 365.256015 -42.68 
L 366.294115 -42.68 
L 367.332215 -42.68 
L 368.370315 -42.68 
L 369.408414 -42.68 
L 370.446514 -42.68 
L 371.484614 -42.68 
L 372.522714 -42.68 
L 373.560814 -42.68 
L 374.598914 -42.68 
L 375.637014 -42.68 
L 376.675114 -42.68 
L 377.713214 -42.68 
L 378.751314 -42.68 
L 379.789414 -42.68 
L 380.827514 -42.68 
L 381.865614 -42.68 
L 382.903714 -42.68 
L 383.941814 -42.68 
L 384.979914 -42.68 
L 386.018014 -42.68 
L 387.056114 -42.68 
L 388.094214 -42.68 
L 389.132314 -42.68 
L 390.170414 -42.68 
L 391.208513 -42.68 
L 392.246613 -42.68 
L 393.284713 -42.68 
L 394.322813 -42.68 
L 395.360913 -42.68 
L 396.399013 -42.68 
L 397.437113 -42.68 
L 398.475213 -42.68 
L 399.513313 -42.68 
L 399.513313 -42.695834 
L 399.513313 -42.695834 
L 398.475213 -42.706111 
L 397.437113 -42.721832 
L 396.399013 -42.745116 
L 395.360913 -42.778503 
L 394.322813 -42.824842 
L 393.284713 -42.887091 
L 392.246613 -42.968023 
L 391.208513 -43.069881 
L 390.170414 -43.194036 
L 389.132314 -43.340735 
L 388.094214 -43.509037 
L 387.056114 -43.69702 
L 386.018014 -43.902283 
L 384.979914 -44.122712 
L 383.941814 -44.3574 
L 382.903714 -44.60751 
L 381.865614 -44.876885 
L 380.827514 -45.172177 
L 379.789414 -45.502377 
L 378.751314 -45.877734 
L 377.713214 -46.308187 
L 376.675114 -46.801569 
L 375.637014 -47.361887 
L 374.598914 -47.988013 
L 373.560814 -48.673025 
L 372.522714 -49.40434 
L 371.484614 -50.16465 
L 370.446514 -50.933525 
L 369.408414 -51.689489 
L 368.370315 -52.412311 
L 367.332215 -53.08524 
L 366.294115 -53.696941 
L 365.256015 -54.242926 
L 364.217915 -54.726321 
L 363.179815 -55.157909 
L 362.141715 -55.55544 
L 361.103615 -55.94233 
L 360.065515 -56.345936 
L 359.027415 -56.795646 
L 357.989315 -57.321051 
L 356.951215 -57.950374 
L 355.913115 -58.709297 
L 354.875015 -59.620174 
L 353.836915 -60.701599 
L 352.798815 -61.968214 
L 351.760715 -63.43076 
L 350.722615 -65.096411 
L 349.684515 -66.969571 
L 348.646415 -69.053352 
L 347.608316 -71.351927 
L 346.570216 -73.873766 
L 345.532116 -76.635482 
L 344.494016 -79.665675 
L 343.455916 -83.00785 
L 342.417816 -86.721314 
L 341.379716 -90.879065 
L 340.341616 -95.56202 
L 339.303516 -100.849653 
L 338.265416 -106.80786 
L 337.227316 -113.475783 
L 336.189216 -120.853865 
L 335.151116 -128.895668 
L 334.113016 -137.505618 
L 333.074916 -146.543963 
L 332.036816 -155.838913 
L 330.998716 -165.20443 
L 329.960616 -174.460848 
L 328.922516 -183.454728 
L 327.884416 -192.074348 
L 326.846316 -200.2581 
L 325.808217 -207.994641 
L 324.770117 -215.315519 
L 323.732017 -222.282731 
L 322.693917 -228.974717 
L 321.655817 -235.474361 
L 320.617717 -241.861597 
L 319.579617 -248.211536 
L 318.541517 -254.597036 
L 317.503417 -261.093175 
L 316.465317 -267.780403 
L 315.427217 -274.743673 
L 314.389117 -282.06623 
L 313.351017 -289.818673 
L 312.312917 -298.045556 
L 311.274817 -306.752744 
L 310.236717 -315.898696 
L 309.198617 -325.391725 
L 308.160517 -335.093766 
L 307.122417 -344.829571 
L 306.084317 -354.399213 
L 305.046217 -363.591586 
L 304.008118 -372.197057 
L 302.970018 -380.018436 
L 301.931918 -386.880311 
L 300.893818 -392.637324 
L 299.855718 -397.181944 
L 298.817618 -400.451694 
L 297.779518 -402.435125 
L 296.741418 -403.175238 
L 295.703318 -402.76898 
L 294.665218 -401.361822 
L 293.627118 -399.137249 
L 292.589018 -396.30188 
L 291.550918 -393.067706 
L 290.512818 -389.633322 
L 289.474718 -386.166101 
L 288.436618 -382.787021 
L 287.398518 -379.559527 
L 286.360418 -376.483504 
L 285.322318 -373.495091 
L 284.284218 -370.472701 
L 283.246119 -367.249103 
L 282.208019 -363.628674 
L 281.169919 -359.408208 
L 280.131819 -354.398904 
L 279.093719 -348.446882 
L 278.055619 -341.449661 
L 277.017519 -333.366714 
L 275.979419 -324.223181 
L 274.941319 -314.106936 
L 273.903219 -303.160016 
L 272.865119 -291.565964 
L 271.827019 -279.534678 
L 270.788919 -267.28616 
L 269.750819 -255.034325 
L 268.712719 -242.971844 
L 267.674619 -231.257049 
L 266.636519 -220.004069 
L 265.598419 -209.277422 
L 264.560319 -199.092087 
L 263.522219 -189.419515 
L 262.484119 -180.199129 
L 261.44602 -171.353835 
L 260.40792 -162.807196 
L 259.36982 -154.499422 
L 258.33172 -146.399502 
L 257.29362 -138.511471 
L 256.25552 -130.873938 
L 255.21742 -123.553329 
L 254.17932 -116.63238 
L 253.14122 -110.196225 
L 252.10312 -104.318618 
L 251.06502 -99.050582 
L 250.02692 -94.41306 
L 248.98882 -90.394289 
L 247.95072 -86.951713 
L 246.91262 -84.017513 
L 245.87452 -81.506445 
L 244.83642 -79.324548 
L 243.79832 -77.377466 
L 242.76022 -75.5775 
L 241.72212 -73.848954 
L 240.68402 -72.131704 
L 239.645921 -70.383178 
L 238.607821 -68.579033 
L 237.569721 -66.712775 
L 236.531621 -64.79445 
L 235.493521 -62.848433 
L 234.455421 -60.91033 
L 233.417321 -59.023032 
L 232.379221 -57.232166 
L 231.341121 -55.5813 
L 230.303021 -54.107439 
L 229.264921 -52.837372 
L 228.226821 -51.785316 
L 227.188721 -50.952143 
L 226.150621 -50.326158 
L 225.112521 -49.885177 
L 224.074421 -49.599419 
L 223.036321 -49.434685 
L 221.998221 -49.355322 
L 220.960121 -49.326642 
L 219.922021 -49.316672 
L 218.883922 -49.29727 
L 217.845822 -49.24481 
L 216.807722 -49.140626 
L 215.769622 -48.971385 
L 214.731522 -48.729425 
L 213.693422 -48.412999 
L 212.655322 -48.026287 
L 211.617222 -47.579018 
L 210.579122 -47.085606 
L 209.541022 -46.56381 
L 208.502922 -46.033043 
L 207.464822 -45.512525 
L 206.426722 -45.019555 
L 205.388622 -44.568124 
L 204.350522 -44.16804 
L 203.312422 -43.824632 
L 202.274322 -43.538996 
L 201.236222 -43.308666 
L 200.198122 -43.128541 
L 199.160022 -42.991889 
L 198.121922 -42.891297 
L 197.083823 -42.819434 
L 196.045723 -42.769604 
L 195.007623 -42.736063 
L 193.969523 -42.714145 
L 192.931423 -42.70024 
z
" style="stroke: #2166ac; stroke-width: 2.5"/>
    </defs>
    <g clip-path="url(#pf4d80097db)">
     <use xlink:href="#mb19d111f4f" x="0" y="432" style="fill: #2166ac; fill-opacity: 0.5; stroke: #2166ac; stroke-width: 2.5"/>
    </g>
   </g>
   <g id="matplotlib.axis_1">
    <g id="xtick_1">
     <g id="line2d_1">
      <defs>
       <path id="m215a01a909" d="M 0 0 
L 0 3.5 
" style="stroke: #000000; stroke-width: 0.8"/>
      </defs>
      <g>
       <use xlink:href="#m215a01a909" x="55.931257" y="389.32" style="stroke: #000000; stroke-width: 0.8"/>
      </g>
     </g>
     <g id="text_1">
      <!-- −4 -->
      <g transform="translate(48.560163 403.918437) scale(0.1 -0.1)">
       <defs>
        <path id="DejaVuSans-2212" d="M 678 2272 
L 4684 2272 
L 4684 1741 
L 678 1741 
L 678 2272 
z
" transform="scale(0.015625)"/>
        <path id="DejaVuSans-34" d="M 2419 4116 
L 825 1625 
L 2419 1625 
L 2419 4116 
z
M 2253 4666 
L 3047 4666 
L 3047 1625 
L 3713 1625 
L 3713 1100 
L 3047 1100 
L 3047 0 
L 2419 0 
L 2419 1100 
L 313 1100 
L 313 1709 
L 2253 4666 
z
" transform="scale(0.015625)"/>
       </defs>
       <use xlink:href="#DejaVuSans-2212"/>
       <use xlink:href="#DejaVuSans-34" x="83.789062"/>
      </g>
     </g>
    </g>
    <g id="xtick_2">
     <g id="line2d_2">
      <g>
       <use xlink:href="#m215a01a909" x="116.255859" y="389.32" style="stroke: #000000; stroke-width: 0.8"/>
      </g>
     </g>
     <g id="text_2">
      <!-- −2 -->
      <g transform="translate(108.884765 403.918437) scale(0.1 -0.1)">
       <defs>
        <path id="DejaVuSans-32" d="M 1228 531 
L 3431 531 
L 3431 0 
L 469 0 
L 469 531 
Q 828 903 1448 1529 
Q 2069 2156 2228 2338 
Q 2531 2678 2651 2914 
Q 2772 3150 2772 3378 
Q 2772 3750 2511 3984 
Q 2250 4219 1831 4219 
Q 1534 4219 1204 4116 
Q 875 4013 500 3803 
L 500 4441 
Q 881 4594 1212 4672 
Q 1544 4750 1819 4750 
Q 2544 4750 2975 4387 
Q 3406 4025 3406 3419 
Q 3406 3131 3298 2873 
Q 3191 2616 2906 2266 
Q 2828 2175 2409 1742 
Q 1991 1309 1228 531 
z
" transform="scale(0.015625)"/>
       </defs>
       <use xlink:href="#DejaVuSans-2212"/>
       <use xlink:href="#DejaVuSans-32" x="83.789062"/>
      </g>
     </g>
    </g>
    <g id="xtick_3">
     <g id="line2d_3">
      <g>
       <use xlink:href="#m215a01a909" x="176.580461" y="389.32" style="stroke: #000000; stroke-width: 0.8"/>
      </g>
     </g>
     <g id="text_3">
      <!-- 0 -->
      <g transform="translate(173.399211 403.918437) scale(0.1 -0.1)">
       <defs>
        <path id="DejaVuSans-30" d="M 2034 4250 
Q 1547 4250 1301 3770 
Q 1056 3291 1056 2328 
Q 1056 1369 1301 889 
Q 1547 409 2034 409 
Q 2525 409 2770 889 
Q 3016 1369 3016 2328 
Q 3016 3291 2770 3770 
Q 2525 4250 2034 4250 
z
M 2034 4750 
Q 2819 4750 3233 4129 
Q 3647 3509 3647 2328 
Q 3647 1150 3233 529 
Q 2819 -91 2034 -91 
Q 1250 -91 836 529 
Q 422 1150 422 2328 
Q 422 3509 836 4129 
Q 1250 4750 2034 4750 
z
" transform="scale(0.015625)"/>
       </defs>
       <use xlink:href="#DejaVuSans-30"/>
      </g>
     </g>
    </g>
    <g id="xtick_4">
     <g id="line2d_4">
      <g>
       <use xlink:href="#m215a01a909" x="236.905063" y="389.32" style="stroke: #000000; stroke-width: 0.8"/>
      </g>
     </g>
     <g id="text_4">
      <!-- 2 -->
      <g transform="translate(233.723813 403.918437) scale(0.1 -0.1)">
       <use xlink:href="#DejaVuSans-32"/>
      </g>
     </g>
    </g>
    <g id="xtick_5">
     <g id="line2d_5">
      <g>
       <use xlink:href="#m215a01a909" x="297.229665" y="389.32" style="stroke: #000000; stroke-width: 0.8"/>
      </g>
     </g>
     <g id="text_5">
      <!-- 4 -->
      <g transform="translate(294.048415 403.918437) scale(0.1 -0.1)">
       <use xlink:href="#DejaVuSans-34"/>
      </g>
     </g>
    </g>
    <g id="xtick_6">
     <g id="line2d_6">
      <g>
       <use xlink:href="#m215a01a909" x="357.554267" y="389.32" style="stroke: #000000; stroke-width: 0.8"/>
      </g>
     </g>
     <g id="text_6">
      <!-- 6 -->
      <g transform="translate(354.373017 403.918437) scale(0.1 -0.1)">
       <defs>
        <path id="DejaVuSans-36" d="M 2113 2584 
Q 1688 2584 1439 2293 
Q 1191 2003 1191 1497 
Q 1191 994 1439 701 
Q 1688 409 2113 409 
Q 2538 409 2786 701 
Q 3034 994 3034 1497 
Q 3034 2003 2786 2293 
Q 2538 2584 2113 2584 
z
M 3366 4563 
L 3366 3988 
Q 3128 4100 2886 4159 
Q 2644 4219 2406 4219 
Q 1781 4219 1451 3797 
Q 1122 3375 1075 2522 
Q 1259 2794 1537 2939 
Q 1816 3084 2150 3084 
Q 2853 3084 3261 2657 
Q 3669 2231 3669 1497 
Q 3669 778 3244 343 
Q 2819 -91 2113 -91 
Q 1303 -91 875 529 
Q 447 1150 447 2328 
Q 447 3434 972 4092 
Q 1497 4750 2381 4750 
Q 2619 4750 2861 4703 
Q 3103 4656 3366 4563 
z
" transform="scale(0.015625)"/>
       </defs>
       <use xlink:href="#DejaVuSans-36"/>
      </g>
     </g>
    </g>
    <g id="xtick_7">
     <g id="line2d_7">
      <g>
       <use xlink:href="#m215a01a909" x="417.878869" y="389.32" style="stroke: #000000; stroke-width: 0.8"/>
      </g>
     </g>
     <g id="text_7">
      <!-- 8 -->
      <g transform="translate(414.697619 403.918437) scale(0.1 -0.1)">
       <defs>
        <path id="DejaVuSans-38" d="M 2034 2216 
Q 1584 2216 1326 1975 
Q 1069 1734 1069 1313 
Q 1069 891 1326 650 
Q 1584 409 2034 409 
Q 2484 409 2743 651 
Q 3003 894 3003 1313 
Q 3003 1734 2745 1975 
Q 2488 2216 2034 2216 
z
M 1403 2484 
Q 997 2584 770 2862 
Q 544 3141 544 3541 
Q 544 4100 942 4425 
Q 1341 4750 2034 4750 
Q 2731 4750 3128 4425 
Q 3525 4100 3525 3541 
Q 3525 3141 3298 2862 
Q 3072 2584 2669 2484 
Q 3125 2378 3379 2068 
Q 3634 1759 3634 1313 
Q 3634 634 3220 271 
Q 2806 -91 2034 -91 
Q 1263 -91 848 271 
Q 434 634 434 1313 
Q 434 1759 690 2068 
Q 947 2378 1403 2484 
z
M 1172 3481 
Q 1172 3119 1398 2916 
Q 1625 2713 2034 2713 
Q 2441 2713 2670 2916 
Q 2900 3119 2900 3481 
Q 2900 3844 2670 4047 
Q 2441 4250 2034 4250 
Q 1625 4250 1398 4047 
Q 1172 3844 1172 3481 
z
" transform="scale(0.015625)"/>
       </defs>
       <use xlink:href="#DejaVuSans-38"/>
      </g>
     </g>
    </g>
    <g id="text_8">
     <!-- Predicted Fluorescence -->
     <g transform="translate(165.749689 419.11625) scale(0.12 -0.12)">
      <defs>
       <path id="DejaVuSans-50" d="M 1259 4147 
L 1259 2394 
L 2053 2394 
Q 2494 2394 2734 2622 
Q 2975 2850 2975 3272 
Q 2975 3691 2734 3919 
Q 2494 4147 2053 4147 
L 1259 4147 
z
M 628 4666 
L 2053 4666 
Q 2838 4666 3239 4311 
Q 3641 3956 3641 3272 
Q 3641 2581 3239 2228 
Q 2838 1875 2053 1875 
L 1259 1875 
L 1259 0 
L 628 0 
L 628 4666 
z
" transform="scale(0.015625)"/>
       <path id="DejaVuSans-72" d="M 2631 2963 
Q 2534 3019 2420 3045 
Q 2306 3072 2169 3072 
Q 1681 3072 1420 2755 
Q 1159 2438 1159 1844 
L 1159 0 
L 581 0 
L 581 3500 
L 1159 3500 
L 1159 2956 
Q 1341 3275 1631 3429 
Q 1922 3584 2338 3584 
Q 2397 3584 2469 3576 
Q 2541 3569 2628 3553 
L 2631 2963 
z
" transform="scale(0.015625)"/>
       <path id="DejaVuSans-65" d="M 3597 1894 
L 3597 1613 
L 953 1613 
Q 991 1019 1311 708 
Q 1631 397 2203 397 
Q 2534 397 2845 478 
Q 3156 559 3463 722 
L 3463 178 
Q 3153 47 2828 -22 
Q 2503 -91 2169 -91 
Q 1331 -91 842 396 
Q 353 884 353 1716 
Q 353 2575 817 3079 
Q 1281 3584 2069 3584 
Q 2775 3584 3186 3129 
Q 3597 2675 3597 1894 
z
M 3022 2063 
Q 3016 2534 2758 2815 
Q 2500 3097 2075 3097 
Q 1594 3097 1305 2825 
Q 1016 2553 972 2059 
L 3022 2063 
z
" transform="scale(0.015625)"/>
       <path id="DejaVuSans-64" d="M 2906 2969 
L 2906 4863 
L 3481 4863 
L 3481 0 
L 2906 0 
L 2906 525 
Q 2725 213 2448 61 
Q 2172 -91 1784 -91 
Q 1150 -91 751 415 
Q 353 922 353 1747 
Q 353 2572 751 3078 
Q 1150 3584 1784 3584 
Q 2172 3584 2448 3432 
Q 2725 3281 2906 2969 
z
M 947 1747 
Q 947 1113 1208 752 
Q 1469 391 1925 391 
Q 2381 391 2643 752 
Q 2906 1113 2906 1747 
Q 2906 2381 2643 2742 
Q 2381 3103 1925 3103 
Q 1469 3103 1208 2742 
Q 947 2381 947 1747 
z
" transform="scale(0.015625)"/>
       <path id="DejaVuSans-69" d="M 603 3500 
L 1178 3500 
L 1178 0 
L 603 0 
L 603 3500 
z
M 603 4863 
L 1178 4863 
L 1178 4134 
L 603 4134 
L 603 4863 
z
" transform="scale(0.015625)"/>
       <path id="DejaVuSans-63" d="M 3122 3366 
L 3122 2828 
Q 2878 2963 2633 3030 
Q 2388 3097 2138 3097 
Q 1578 3097 1268 2742 
Q 959 2388 959 1747 
Q 959 1106 1268 751 
Q 1578 397 2138 397 
Q 2388 397 2633 464 
Q 2878 531 3122 666 
L 3122 134 
Q 2881 22 2623 -34 
Q 2366 -91 2075 -91 
Q 1284 -91 818 406 
Q 353 903 353 1747 
Q 353 2603 823 3093 
Q 1294 3584 2113 3584 
Q 2378 3584 2631 3529 
Q 2884 3475 3122 3366 
z
" transform="scale(0.015625)"/>
       <path id="DejaVuSans-74" d="M 1172 4494 
L 1172 3500 
L 2356 3500 
L 2356 3053 
L 1172 3053 
L 1172 1153 
Q 1172 725 1289 603 
Q 1406 481 1766 481 
L 2356 481 
L 2356 0 
L 1766 0 
Q 1100 0 847 248 
Q 594 497 594 1153 
L 594 3053 
L 172 3053 
L 172 3500 
L 594 3500 
L 594 4494 
L 1172 4494 
z
" transform="scale(0.015625)"/>
       <path id="DejaVuSans-20" transform="scale(0.015625)"/>
       <path id="DejaVuSans-46" d="M 628 4666 
L 3309 4666 
L 3309 4134 
L 1259 4134 
L 1259 2759 
L 3109 2759 
L 3109 2228 
L 1259 2228 
L 1259 0 
L 628 0 
L 628 4666 
z
" transform="scale(0.015625)"/>
       <path id="DejaVuSans-6c" d="M 603 4863 
L 1178 4863 
L 1178 0 
L 603 0 
L 603 4863 
z
" transform="scale(0.015625)"/>
       <path id="DejaVuSans-75" d="M 544 1381 
L 544 3500 
L 1119 3500 
L 1119 1403 
Q 1119 906 1312 657 
Q 1506 409 1894 409 
Q 2359 409 2629 706 
Q 2900 1003 2900 1516 
L 2900 3500 
L 3475 3500 
L 3475 0 
L 2900 0 
L 2900 538 
Q 2691 219 2414 64 
Q 2138 -91 1772 -91 
Q 1169 -91 856 284 
Q 544 659 544 1381 
z
M 1991 3584 
L 1991 3584 
z
" transform="scale(0.015625)"/>
       <path id="DejaVuSans-6f" d="M 1959 3097 
Q 1497 3097 1228 2736 
Q 959 2375 959 1747 
Q 959 1119 1226 758 
Q 1494 397 1959 397 
Q 2419 397 2687 759 
Q 2956 1122 2956 1747 
Q 2956 2369 2687 2733 
Q 2419 3097 1959 3097 
z
M 1959 3584 
Q 2709 3584 3137 3096 
Q 3566 2609 3566 1747 
Q 3566 888 3137 398 
Q 2709 -91 1959 -91 
Q 1206 -91 779 398 
Q 353 888 353 1747 
Q 353 2609 779 3096 
Q 1206 3584 1959 3584 
z
" transform="scale(0.015625)"/>
       <path id="DejaVuSans-73" d="M 2834 3397 
L 2834 2853 
Q 2591 2978 2328 3040 
Q 2066 3103 1784 3103 
Q 1356 3103 1142 2972 
Q 928 2841 928 2578 
Q 928 2378 1081 2264 
Q 1234 2150 1697 2047 
L 1894 2003 
Q 2506 1872 2764 1633 
Q 3022 1394 3022 966 
Q 3022 478 2636 193 
Q 2250 -91 1575 -91 
Q 1294 -91 989 -36 
Q 684 19 347 128 
L 347 722 
Q 666 556 975 473 
Q 1284 391 1588 391 
Q 1994 391 2212 530 
Q 2431 669 2431 922 
Q 2431 1156 2273 1281 
Q 2116 1406 1581 1522 
L 1381 1569 
Q 847 1681 609 1914 
Q 372 2147 372 2553 
Q 372 3047 722 3315 
Q 1072 3584 1716 3584 
Q 2034 3584 2315 3537 
Q 2597 3491 2834 3397 
z
" transform="scale(0.015625)"/>
       <path id="DejaVuSans-6e" d="M 3513 2113 
L 3513 0 
L 2938 0 
L 2938 2094 
Q 2938 2591 2744 2837 
Q 2550 3084 2163 3084 
Q 1697 3084 1428 2787 
Q 1159 2491 1159 1978 
L 1159 0 
L 581 0 
L 581 3500 
L 1159 3500 
L 1159 2956 
Q 1366 3272 1645 3428 
Q 1925 3584 2291 3584 
Q 2894 3584 3203 3211 
Q 3513 2838 3513 2113 
z
" transform="scale(0.015625)"/>
      </defs>
      <use xlink:href="#DejaVuSans-50"/>
      <use xlink:href="#DejaVuSans-72" x="58.552734"/>
      <use xlink:href="#DejaVuSans-65" x="97.416016"/>
      <use xlink:href="#DejaVuSans-64" x="158.939453"/>
      <use xlink:href="#DejaVuSans-69" x="222.416016"/>
      <use xlink:href="#DejaVuSans-63" x="250.199219"/>
      <use xlink:href="#DejaVuSans-74" x="305.179688"/>
      <use xlink:href="#DejaVuSans-65" x="344.388672"/>
      <use xlink:href="#DejaVuSans-64" x="405.912109"/>
      <use xlink:href="#DejaVuSans-20" x="469.388672"/>
      <use xlink:href="#DejaVuSans-46" x="501.175781"/>
      <use xlink:href="#DejaVuSans-6c" x="558.695312"/>
      <use xlink:href="#DejaVuSans-75" x="586.478516"/>
      <use xlink:href="#DejaVuSans-6f" x="649.857422"/>
      <use xlink:href="#DejaVuSans-72" x="711.039062"/>
      <use xlink:href="#DejaVuSans-65" x="749.902344"/>
      <use xlink:href="#DejaVuSans-73" x="811.425781"/>
      <use xlink:href="#DejaVuSans-63" x="863.525391"/>
      <use xlink:href="#DejaVuSans-65" x="918.505859"/>
      <use xlink:href="#DejaVuSans-6e" x="980.029297"/>
      <use xlink:href="#DejaVuSans-63" x="1043.408203"/>
      <use xlink:href="#DejaVuSans-65" x="1098.388672"/>
     </g>
    </g>
   </g>
   <g id="matplotlib.axis_2">
    <g id="ytick_1">
     <g id="line2d_8">
      <defs>
       <path id="m666ae45d39" d="M 0 0 
L -3.5 0 
" style="stroke: #000000; stroke-width: 0.8"/>
      </defs>
      <g>
       <use xlink:href="#m666ae45d39" x="51.41" y="389.32" style="stroke: #000000; stroke-width: 0.8"/>
      </g>
     </g>
     <g id="text_9">
      <!-- 0.0 -->
      <g transform="translate(28.506875 393.119219) scale(0.1 -0.1)">
       <defs>
        <path id="DejaVuSans-2e" d="M 684 794 
L 1344 794 
L 1344 0 
L 684 0 
L 684 794 
z
" transform="scale(0.015625)"/>
       </defs>
       <use xlink:href="#DejaVuSans-30"/>
       <use xlink:href="#DejaVuSans-2e" x="63.623047"/>
       <use xlink:href="#DejaVuSans-30" x="95.410156"/>
      </g>
     </g>
    </g>
    <g id="ytick_2">
     <g id="line2d_9">
      <g>
       <use xlink:href="#m666ae45d39" x="51.41" y="317.774875" style="stroke: #000000; stroke-width: 0.8"/>
      </g>
     </g>
     <g id="text_10">
      <!-- 0.1 -->
      <g transform="translate(28.506875 321.574094) scale(0.1 -0.1)">
       <defs>
        <path id="DejaVuSans-31" d="M 794 531 
L 1825 531 
L 1825 4091 
L 703 3866 
L 703 4441 
L 1819 4666 
L 2450 4666 
L 2450 531 
L 3481 531 
L 3481 0 
L 794 0 
L 794 531 
z
" transform="scale(0.015625)"/>
       </defs>
       <use xlink:href="#DejaVuSans-30"/>
       <use xlink:href="#DejaVuSans-2e" x="63.623047"/>
       <use xlink:href="#DejaVuSans-31" x="95.410156"/>
      </g>
     </g>
    </g>
    <g id="ytick_3">
     <g id="line2d_10">
      <g>
       <use xlink:href="#m666ae45d39" x="51.41" y="246.229751" style="stroke: #000000; stroke-width: 0.8"/>
      </g>
     </g>
     <g id="text_11">
      <!-- 0.2 -->
      <g transform="translate(28.506875 250.028969) scale(0.1 -0.1)">
       <use xlink:href="#DejaVuSans-30"/>
       <use xlink:href="#DejaVuSans-2e" x="63.623047"/>
       <use xlink:href="#DejaVuSans-32" x="95.410156"/>
      </g>
     </g>
    </g>
    <g id="ytick_4">
     <g id="line2d_11">
      <g>
       <use xlink:href="#m666ae45d39" x="51.41" y="174.684626" style="stroke: #000000; stroke-width: 0.8"/>
      </g>
     </g>
     <g id="text_12">
      <!-- 0.3 -->
      <g transform="translate(28.506875 178.483845) scale(0.1 -0.1)">
       <defs>
        <path id="DejaVuSans-33" d="M 2597 2516 
Q 3050 2419 3304 2112 
Q 3559 1806 3559 1356 
Q 3559 666 3084 287 
Q 2609 -91 1734 -91 
Q 1441 -91 1130 -33 
Q 819 25 488 141 
L 488 750 
Q 750 597 1062 519 
Q 1375 441 1716 441 
Q 2309 441 2620 675 
Q 2931 909 2931 1356 
Q 2931 1769 2642 2001 
Q 2353 2234 1838 2234 
L 1294 2234 
L 1294 2753 
L 1863 2753 
Q 2328 2753 2575 2939 
Q 2822 3125 2822 3475 
Q 2822 3834 2567 4026 
Q 2313 4219 1838 4219 
Q 1578 4219 1281 4162 
Q 984 4106 628 3988 
L 628 4550 
Q 988 4650 1302 4700 
Q 1616 4750 1894 4750 
Q 2613 4750 3031 4423 
Q 3450 4097 3450 3541 
Q 3450 3153 3228 2886 
Q 3006 2619 2597 2516 
z
" transform="scale(0.015625)"/>
       </defs>
       <use xlink:href="#DejaVuSans-30"/>
       <use xlink:href="#DejaVuSans-2e" x="63.623047"/>
       <use xlink:href="#DejaVuSans-33" x="95.410156"/>
      </g>
     </g>
    </g>
    <g id="ytick_5">
     <g id="line2d_12">
      <g>
       <use xlink:href="#m666ae45d39" x="51.41" y="103.139501" style="stroke: #000000; stroke-width: 0.8"/>
      </g>
     </g>
     <g id="text_13">
      <!-- 0.4 -->
      <g transform="translate(28.506875 106.93872) scale(0.1 -0.1)">
       <use xlink:href="#DejaVuSans-30"/>
       <use xlink:href="#DejaVuSans-2e" x="63.623047"/>
       <use xlink:href="#DejaVuSans-34" x="95.410156"/>
      </g>
     </g>
    </g>
    <g id="ytick_6">
     <g id="line2d_13">
      <g>
       <use xlink:href="#m666ae45d39" x="51.41" y="31.594377" style="stroke: #000000; stroke-width: 0.8"/>
      </g>
     </g>
     <g id="text_14">
      <!-- 0.5 -->
      <g transform="translate(28.506875 35.393595) scale(0.1 -0.1)">
       <defs>
        <path id="DejaVuSans-35" d="M 691 4666 
L 3169 4666 
L 3169 4134 
L 1269 4134 
L 1269 2991 
Q 1406 3038 1543 3061 
Q 1681 3084 1819 3084 
Q 2600 3084 3056 2656 
Q 3513 2228 3513 1497 
Q 3513 744 3044 326 
Q 2575 -91 1722 -91 
Q 1428 -91 1123 -41 
Q 819 9 494 109 
L 494 744 
Q 775 591 1075 516 
Q 1375 441 1709 441 
Q 2250 441 2565 725 
Q 2881 1009 2881 1497 
Q 2881 1984 2565 2268 
Q 2250 2553 1709 2553 
Q 1456 2553 1204 2497 
Q 953 2441 691 2322 
L 691 4666 
z
" transform="scale(0.015625)"/>
       </defs>
       <use xlink:href="#DejaVuSans-30"/>
       <use xlink:href="#DejaVuSans-2e" x="63.623047"/>
       <use xlink:href="#DejaVuSans-35" x="95.410156"/>
      </g>
     </g>
    </g>
    <g id="text_15">
     <!-- Density -->
     <g transform="translate(21.595313 226.672031) rotate(-90) scale(0.14 -0.14)">
      <defs>
       <path id="DejaVuSans-44" d="M 1259 4147 
L 1259 519 
L 2022 519 
Q 2988 519 3436 956 
Q 3884 1394 3884 2338 
Q 3884 3275 3436 3711 
Q 2988 4147 2022 4147 
L 1259 4147 
z
M 628 4666 
L 1925 4666 
Q 3281 4666 3915 4102 
Q 4550 3538 4550 2338 
Q 4550 1131 3912 565 
Q 3275 0 1925 0 
L 628 0 
L 628 4666 
z
" transform="scale(0.015625)"/>
       <path id="DejaVuSans-79" d="M 2059 -325 
Q 1816 -950 1584 -1140 
Q 1353 -1331 966 -1331 
L 506 -1331 
L 506 -850 
L 844 -850 
Q 1081 -850 1212 -737 
Q 1344 -625 1503 -206 
L 1606 56 
L 191 3500 
L 800 3500 
L 1894 763 
L 2988 3500 
L 3597 3500 
L 2059 -325 
z
" transform="scale(0.015625)"/>
      </defs>
      <use xlink:href="#DejaVuSans-44"/>
      <use xlink:href="#DejaVuSans-65" x="77.001953"/>
      <use xlink:href="#DejaVuSans-6e" x="138.525391"/>
      <use xlink:href="#DejaVuSans-73" x="201.904297"/>
      <use xlink:href="#DejaVuSans-69" x="254.003906"/>
      <use xlink:href="#DejaVuSans-74" x="281.787109"/>
      <use xlink:href="#DejaVuSans-79" x="320.996094"/>
     </g>
    </g>
   </g>
   <g id="line2d_14">
    <path d="M 162.144649 389.32 
L 162.144649 10.8 
" clip-path="url(#pf4d80097db)" style="fill: none; stroke-dasharray: 3.7,1.6; stroke-dashoffset: 0; stroke: #000000"/>
   </g>
   <g id="patch_3">
    <path d="M 51.41 389.32 
L 51.41 10.8 
" style="fill: none; stroke: #000000; stroke-width: 0.8; stroke-linejoin: miter; stroke-linecap: square"/>
   </g>
   <g id="patch_4">
    <path d="M 51.41 389.32 
L 419.281878 389.32 
" style="fill: none; stroke: #000000; stroke-width: 0.8; stroke-linejoin: miter; stroke-linecap: square"/>
   </g>
   <g id="legend_1">
    <g id="patch_5">
     <path d="M 268.195941 77.5125 
L 412.281878 77.5125 
Q 414.281878 77.5125 414.281878 75.5125 
L 414.281878 17.8 
Q 414.281878 15.8 412.281878 15.8 
L 268.195941 15.8 
Q 266.195941 15.8 266.195941 17.8 
L 266.195941 75.5125 
Q 266.195941 77.5125 268.195941 77.5125 
z
" style="fill: #ffffff; opacity: 0.8; stroke: #cccccc; stroke-linejoin: miter"/>
    </g>
    <g id="patch_6">
     <path d="M 270.195941 27.398438 
L 290.195941 27.398438 
L 290.195941 20.398438 
L 270.195941 20.398438 
z
" style="fill: #bdbdbd; fill-opacity: 0.5; stroke: #bdbdbd; stroke-width: 2.5; stroke-linejoin: miter"/>
    </g>
    <g id="text_16">
     <!-- Pre-trained ESM2 (8M) -->
     <g transform="translate(298.195941 27.398438) scale(0.1 -0.1)">
      <defs>
       <path id="DejaVuSans-2d" d="M 313 2009 
L 1997 2009 
L 1997 1497 
L 313 1497 
L 313 2009 
z
" transform="scale(0.015625)"/>
       <path id="DejaVuSans-61" d="M 2194 1759 
Q 1497 1759 1228 1600 
Q 959 1441 959 1056 
Q 959 750 1161 570 
Q 1363 391 1709 391 
Q 2188 391 2477 730 
Q 2766 1069 2766 1631 
L 2766 1759 
L 2194 1759 
z
M 3341 1997 
L 3341 0 
L 2766 0 
L 2766 531 
Q 2569 213 2275 61 
Q 1981 -91 1556 -91 
Q 1019 -91 701 211 
Q 384 513 384 1019 
Q 384 1609 779 1909 
Q 1175 2209 1959 2209 
L 2766 2209 
L 2766 2266 
Q 2766 2663 2505 2880 
Q 2244 3097 1772 3097 
Q 1472 3097 1187 3025 
Q 903 2953 641 2809 
L 641 3341 
Q 956 3463 1253 3523 
Q 1550 3584 1831 3584 
Q 2591 3584 2966 3190 
Q 3341 2797 3341 1997 
z
" transform="scale(0.015625)"/>
       <path id="DejaVuSans-45" d="M 628 4666 
L 3578 4666 
L 3578 4134 
L 1259 4134 
L 1259 2753 
L 3481 2753 
L 3481 2222 
L 1259 2222 
L 1259 531 
L 3634 531 
L 3634 0 
L 628 0 
L 628 4666 
z
" transform="scale(0.015625)"/>
       <path id="DejaVuSans-53" d="M 3425 4513 
L 3425 3897 
Q 3066 4069 2747 4153 
Q 2428 4238 2131 4238 
Q 1616 4238 1336 4038 
Q 1056 3838 1056 3469 
Q 1056 3159 1242 3001 
Q 1428 2844 1947 2747 
L 2328 2669 
Q 3034 2534 3370 2195 
Q 3706 1856 3706 1288 
Q 3706 609 3251 259 
Q 2797 -91 1919 -91 
Q 1588 -91 1214 -16 
Q 841 59 441 206 
L 441 856 
Q 825 641 1194 531 
Q 1563 422 1919 422 
Q 2459 422 2753 634 
Q 3047 847 3047 1241 
Q 3047 1584 2836 1778 
Q 2625 1972 2144 2069 
L 1759 2144 
Q 1053 2284 737 2584 
Q 422 2884 422 3419 
Q 422 4038 858 4394 
Q 1294 4750 2059 4750 
Q 2388 4750 2728 4690 
Q 3069 4631 3425 4513 
z
" transform="scale(0.015625)"/>
       <path id="DejaVuSans-4d" d="M 628 4666 
L 1569 4666 
L 2759 1491 
L 3956 4666 
L 4897 4666 
L 4897 0 
L 4281 0 
L 4281 4097 
L 3078 897 
L 2444 897 
L 1241 4097 
L 1241 0 
L 628 0 
L 628 4666 
z
" transform="scale(0.015625)"/>
       <path id="DejaVuSans-28" d="M 1984 4856 
Q 1566 4138 1362 3434 
Q 1159 2731 1159 2009 
Q 1159 1288 1364 580 
Q 1569 -128 1984 -844 
L 1484 -844 
Q 1016 -109 783 600 
Q 550 1309 550 2009 
Q 550 2706 781 3412 
Q 1013 4119 1484 4856 
L 1984 4856 
z
" transform="scale(0.015625)"/>
       <path id="DejaVuSans-29" d="M 513 4856 
L 1013 4856 
Q 1481 4119 1714 3412 
Q 1947 2706 1947 2009 
Q 1947 1309 1714 600 
Q 1481 -109 1013 -844 
L 513 -844 
Q 928 -128 1133 580 
Q 1338 1288 1338 2009 
Q 1338 2731 1133 3434 
Q 928 4138 513 4856 
z
" transform="scale(0.015625)"/>
      </defs>
      <use xlink:href="#DejaVuSans-50"/>
      <use xlink:href="#DejaVuSans-72" x="58.552734"/>
      <use xlink:href="#DejaVuSans-65" x="97.416016"/>
      <use xlink:href="#DejaVuSans-2d" x="158.939453"/>
      <use xlink:href="#DejaVuSans-74" x="195.023438"/>
      <use xlink:href="#DejaVuSans-72" x="234.232422"/>
      <use xlink:href="#DejaVuSans-61" x="275.345703"/>
      <use xlink:href="#DejaVuSans-69" x="336.625"/>
      <use xlink:href="#DejaVuSans-6e" x="364.408203"/>
      <use xlink:href="#DejaVuSans-65" x="427.787109"/>
      <use xlink:href="#DejaVuSans-64" x="489.310547"/>
      <use xlink:href="#DejaVuSans-20" x="552.787109"/>
      <use xlink:href="#DejaVuSans-45" x="584.574219"/>
      <use xlink:href="#DejaVuSans-53" x="647.757812"/>
      <use xlink:href="#DejaVuSans-4d" x="711.234375"/>
      <use xlink:href="#DejaVuSans-32" x="797.513672"/>
      <use xlink:href="#DejaVuSans-20" x="861.136719"/>
      <use xlink:href="#DejaVuSans-28" x="892.923828"/>
      <use xlink:href="#DejaVuSans-38" x="931.9375"/>
      <use xlink:href="#DejaVuSans-4d" x="995.560547"/>
      <use xlink:href="#DejaVuSans-29" x="1081.839844"/>
     </g>
    </g>
    <g id="patch_7">
     <path d="M 270.195941 42.076563 
L 290.195941 42.076563 
L 290.195941 35.076563 
L 270.195941 35.076563 
z
" style="fill: #92c5de; fill-opacity: 0.5; stroke: #92c5de; stroke-width: 2.5; stroke-linejoin: miter"/>
    </g>
    <g id="text_17">
     <!-- SFT ESM2 (8M) -->
     <g transform="translate(298.195941 42.076563) scale(0.1 -0.1)">
      <defs>
       <path id="DejaVuSans-54" d="M -19 4666 
L 3928 4666 
L 3928 4134 
L 2272 4134 
L 2272 0 
L 1638 0 
L 1638 4134 
L -19 4134 
L -19 4666 
z
" transform="scale(0.015625)"/>
      </defs>
      <use xlink:href="#DejaVuSans-53"/>
      <use xlink:href="#DejaVuSans-46" x="63.476562"/>
      <use xlink:href="#DejaVuSans-54" x="119.246094"/>
      <use xlink:href="#DejaVuSans-20" x="180.330078"/>
      <use xlink:href="#DejaVuSans-45" x="212.117188"/>
      <use xlink:href="#DejaVuSans-53" x="275.300781"/>
      <use xlink:href="#DejaVuSans-4d" x="338.777344"/>
      <use xlink:href="#DejaVuSans-32" x="425.056641"/>
      <use xlink:href="#DejaVuSans-20" x="488.679688"/>
      <use xlink:href="#DejaVuSans-28" x="520.466797"/>
      <use xlink:href="#DejaVuSans-38" x="559.480469"/>
      <use xlink:href="#DejaVuSans-4d" x="623.103516"/>
      <use xlink:href="#DejaVuSans-29" x="709.382812"/>
     </g>
    </g>
    <g id="patch_8">
     <path d="M 270.195941 56.754687 
L 290.195941 56.754687 
L 290.195941 49.754687 
L 270.195941 49.754687 
z
" style="fill: #2166ac; fill-opacity: 0.5; stroke: #2166ac; stroke-width: 2.5; stroke-linejoin: miter"/>
    </g>
    <g id="text_18">
     <!-- Aligned ESM2 (8M) -->
     <g transform="translate(298.195941 56.754687) scale(0.1 -0.1)">
      <defs>
       <path id="DejaVuSans-41" d="M 2188 4044 
L 1331 1722 
L 3047 1722 
L 2188 4044 
z
M 1831 4666 
L 2547 4666 
L 4325 0 
L 3669 0 
L 3244 1197 
L 1141 1197 
L 716 0 
L 50 0 
L 1831 4666 
z
" transform="scale(0.015625)"/>
       <path id="DejaVuSans-67" d="M 2906 1791 
Q 2906 2416 2648 2759 
Q 2391 3103 1925 3103 
Q 1463 3103 1205 2759 
Q 947 2416 947 1791 
Q 947 1169 1205 825 
Q 1463 481 1925 481 
Q 2391 481 2648 825 
Q 2906 1169 2906 1791 
z
M 3481 434 
Q 3481 -459 3084 -895 
Q 2688 -1331 1869 -1331 
Q 1566 -1331 1297 -1286 
Q 1028 -1241 775 -1147 
L 775 -588 
Q 1028 -725 1275 -790 
Q 1522 -856 1778 -856 
Q 2344 -856 2625 -561 
Q 2906 -266 2906 331 
L 2906 616 
Q 2728 306 2450 153 
Q 2172 0 1784 0 
Q 1141 0 747 490 
Q 353 981 353 1791 
Q 353 2603 747 3093 
Q 1141 3584 1784 3584 
Q 2172 3584 2450 3431 
Q 2728 3278 2906 2969 
L 2906 3500 
L 3481 3500 
L 3481 434 
z
" transform="scale(0.015625)"/>
      </defs>
      <use xlink:href="#DejaVuSans-41"/>
      <use xlink:href="#DejaVuSans-6c" x="68.408203"/>
      <use xlink:href="#DejaVuSans-69" x="96.191406"/>
      <use xlink:href="#DejaVuSans-67" x="123.974609"/>
      <use xlink:href="#DejaVuSans-6e" x="187.451172"/>
      <use xlink:href="#DejaVuSans-65" x="250.830078"/>
      <use xlink:href="#DejaVuSans-64" x="312.353516"/>
      <use xlink:href="#DejaVuSans-20" x="375.830078"/>
      <use xlink:href="#DejaVuSans-45" x="407.617188"/>
      <use xlink:href="#DejaVuSans-53" x="470.800781"/>
      <use xlink:href="#DejaVuSans-4d" x="534.277344"/>
      <use xlink:href="#DejaVuSans-32" x="620.556641"/>
      <use xlink:href="#DejaVuSans-20" x="684.179688"/>
      <use xlink:href="#DejaVuSans-28" x="715.966797"/>
      <use xlink:href="#DejaVuSans-38" x="754.980469"/>
      <use xlink:href="#DejaVuSans-4d" x="818.603516"/>
      <use xlink:href="#DejaVuSans-29" x="904.882812"/>
     </g>
    </g>
    <g id="line2d_15">
     <path d="M 270.195941 67.932813 
L 280.195941 67.932813 
L 290.195941 67.932813 
" style="fill: none; stroke-dasharray: 3.7,1.6; stroke-dashoffset: 0; stroke: #000000"/>
    </g>
    <g id="text_19">
     <!-- Predicted bgl3 score -->
     <g transform="translate(298.195941 71.432813) scale(0.1 -0.1)">
      <defs>
       <path id="DejaVuSans-62" d="M 3116 1747 
Q 3116 2381 2855 2742 
Q 2594 3103 2138 3103 
Q 1681 3103 1420 2742 
Q 1159 2381 1159 1747 
Q 1159 1113 1420 752 
Q 1681 391 2138 391 
Q 2594 391 2855 752 
Q 3116 1113 3116 1747 
z
M 1159 2969 
Q 1341 3281 1617 3432 
Q 1894 3584 2278 3584 
Q 2916 3584 3314 3078 
Q 3713 2572 3713 1747 
Q 3713 922 3314 415 
Q 2916 -91 2278 -91 
Q 1894 -91 1617 61 
Q 1341 213 1159 525 
L 1159 0 
L 581 0 
L 581 4863 
L 1159 4863 
L 1159 2969 
z
" transform="scale(0.015625)"/>
      </defs>
      <use xlink:href="#DejaVuSans-50"/>
      <use xlink:href="#DejaVuSans-72" x="58.552734"/>
      <use xlink:href="#DejaVuSans-65" x="97.416016"/>
      <use xlink:href="#DejaVuSans-64" x="158.939453"/>
      <use xlink:href="#DejaVuSans-69" x="222.416016"/>
      <use xlink:href="#DejaVuSans-63" x="250.199219"/>
      <use xlink:href="#DejaVuSans-74" x="305.179688"/>
      <use xlink:href="#DejaVuSans-65" x="344.388672"/>
      <use xlink:href="#DejaVuSans-64" x="405.912109"/>
      <use xlink:href="#DejaVuSans-20" x="469.388672"/>
      <use xlink:href="#DejaVuSans-62" x="501.175781"/>
      <use xlink:href="#DejaVuSans-67" x="564.652344"/>
      <use xlink:href="#DejaVuSans-6c" x="628.128906"/>
      <use xlink:href="#DejaVuSans-33" x="655.912109"/>
      <use xlink:href="#DejaVuSans-20" x="719.535156"/>
      <use xlink:href="#DejaVuSans-73" x="751.322266"/>
      <use xlink:href="#DejaVuSans-63" x="803.421875"/>
      <use xlink:href="#DejaVuSans-6f" x="858.402344"/>
      <use xlink:href="#DejaVuSans-72" x="919.583984"/>
      <use xlink:href="#DejaVuSans-65" x="958.447266"/>
     </g>
    </g>
   </g>
  </g>
 </g>
 <defs>
  <clipPath id="pf4d80097db">
   <rect x="51.41" y="10.8" width="367.871878" height="378.52"/>
  </clipPath>
 </defs>
</svg>
